**ABCDEFGHIJKLMNOPQRSTUVWXYZabcdefghijklmnopqrstuvwxyz**************************
**PARASOLID !"#$%&'()*+,-./:;<=>?@[\]^_`{|}~0123456789**************************
**PART1;
MC=AMD64;
MC_MODEL=Intel64 Family 6 Model 94 Stepping 3, GenuineIntel;
MC_ID=unknown;
OS=Windows_NT;
OS_RELEASE=unknown;
FRU=CAD Exchanger 3.9.0 (cadexchanger.com);
APPL=unknown;
SITE=unknown;
USER=unknown;
FORMAT=text;
GUISE=transmit;
KEY=CRYSTAL_TXC_7B_7B-10.000MEEQ-T;
FILE=CRYSTAL_TXC_7B_7B-10.000MEEQ-T.x_t;
DATE=Tue Mar 30 18:47:08 2021;
**PART2;
SCH=SCH_1200000_12006;
USFLD_SIZE=0;
**PART3;
**END_OF_HEADER*****************************************************************
T51 : TRANSMIT FILE created by modeller version 120000017 SCH_1200000_120060 74
 2 1 2 0 2 105 12 2 68 0 3 0 0 0 0 1000 1e-008 0 0 0 1 0 1 1 12 14 20 18 9 19 17
 70 3 0 2 0 0 4 1 20 0 4 4 1 T74 20 4 1 0 5 0 0 0 0 0 0 0 0 0 0 0 0 0 0 0 0 0 0
 0 81 1 5 7 6 13 0 0 42 0 8 80 1 6 0 7 8001 0 0 0 0 3 5 0 0 FFFFTFTFFFFFFF2 79 1
5 7 SDL/TYSA_COLOUR83 3 8 0.501960813999176 0.501960813999176 0.501960813999176
 19 9 1 0 2 11 0 10 V13 10 2 0 2 0 0 0 0 9 13 19 11 3 0 2 0 9 12 S13 12 4 0 2 0
 13 0 0 11 0 14 13 5 5 1e-008 40 0 15 12 14 +0 0 40 0 10 50 14 6 0 13 41 0 0 +-0
.0016764 0.002578100000000001 0 1.83697019872103e-016 1 0 1 -1.83697019872103e-0
16 0 15 15 8 0 16 13 0 17 16 0 15 24 36 17 21 19 0 87 +18 17 9 0 16 0 22 18 ?2 2
9 18 10 0 17 23 0 -0.0016764 0.002578100000000001 0.0010668 16 19 11 0 ?16 0 27
 20 0 0 2 30 20 12 0 19 28 0 0 +-0.0016764 0.002578100000000001 0 0 0 1 17 21 0
 86 91 87 22 16 19 0 36 -18 22 13 0 21 17 25 23 ?2 29 23 14 0 22 26 18 -0.001676
4 0.002578100000000001 0 17 24 0 15 30 16 25 29 27 0 35 +18 25 15 0 24 22 31 26
 ?2 29 26 16 0 25 32 23 0.0016764 0.002578099999999999 0.0010668 16 27 17 0 ?24
 19 33 28 0 0 2 30 28 18 0 27 34 20 0 +-0.0016764 0.002578100000000001 0.0010668
 1 -1.83697019872103e-016 0 17 29 0 104 90 50 17 24 27 0 0 -17 30 0 15 36 24 31
 35 33 0 0 -18 31 19 0 57 25 46 32 ?2 29 32 20 0 31 47 26 0.0016764 0.0025780999
99999999 0 16 33 21 0 ?35 27 37 34 0 0 2 30 34 22 0 33 38 28 0 +0.0016764 0.0025
78099999999999 0 0 0 1 17 35 0 44 45 57 25 30 33 0 50 +17 36 0 15 16 30 22 39 37
 0 94 -16 37 23 0 ?39 33 48 38 0 0 2 30 38 24 0 37 49 34 0 +-0.0016764 0.0025781
00000000001 0 1 -1.83697019872103e-016 0 17 39 0 99 60 94 31 36 37 0 30 +14 40 2
5 42 1e-008 61 13 44 12 41 +0 0 61 13 10 50 41 26 0 40 62 14 0 +0.0016764 0.0025
781 0 1 -1.83697019872103e-016 0 -1.83697019872103e-016 -1 0 81 1 42 27 6 40 0 0
 63 5 43 83 3 43 0.501960813999176 0.501960813999176 0.501960813999176 15 44 28
 0 35 40 0 17 45 0 44 51 35 46 50 48 0 56 +18 46 29 0 71 31 52 47 ?2 29 47 30 0
 46 53 32 0.0016764 -0.002578100000000001 0.0010668 16 48 31 0 ?45 37 54 49 0 0
 2 30 49 32 0 48 55 38 0 +0.0016764 0.002578099999999999 0.0010668 -1.8369701987
2103e-016 -1 0 17 50 0 104 29 71 25 45 48 0 0 -17 51 0 44 57 45 52 56 54 0 0 -18
 52 33 0 60 46 67 53 ?2 29 53 34 0 52 68 47 0.0016764 -0.002578100000000001 0 16
 54 35 0 ?56 48 58 55 0 0 2 30 55 36 0 54 59 49 0 +0.0016764 -0.0025781000000000
01 0 0 0 1 17 56 0 65 66 78 46 51 54 0 0 +17 57 0 44 35 51 31 60 58 0 39 -16 58
 37 0 ?60 54 69 59 0 0 2 30 59 38 0 58 70 55 0 +0.0016764 0.002578099999999999 0
 -1.83697019872103e-016 -1 0 17 60 0 99 81 39 52 57 58 0 78 +14 61 39 63 1e-008
 82 40 65 12 62 +0 0 82 40 10 50 62 40 0 61 83 41 0 +0.0016764 -0.00257810000000
0001 0 -1.83697019872103e-016 -1 0 -1 1.83697019872103e-016 0 81 1 63 41 6 61 0
 0 84 42 64 83 3 64 0.501960813999176 0.501960813999176 0.501960813999176 15 65
 42 0 56 61 0 17 66 0 65 72 56 67 71 69 0 77 +18 67 43 0 90 52 73 68 ?2 29 68 44
 0 67 74 53 -0.0016764 -0.002578099999999999 0.0010668 16 69 45 0 ?66 58 75 70 0
 0 2 30 70 46 0 69 76 59 0 +0.0016764 -0.002578100000000001 0.0010668 -1 1.83697
019872103e-016 0 17 71 0 104 50 90 46 66 69 0 45 -17 72 0 65 78 66 73 77 75 0 0
 -18 73 47 0 81 67 0 74 ?2 29 74 48 0 73 0 68 -0.0016764 -0.002578099999999999 0
 16 75 49 0 ?77 69 79 76 0 0 2 30 76 50 0 75 80 70 0 +-0.0016764 -0.002578099999
999999 0 0 0 1 17 77 0 86 87 91 67 72 75 0 0 +17 78 0 65 56 72 52 81 79 0 51 -16
 79 51 0 ?81 75 88 80 0 0 2 30 80 52 0 79 89 76 0 +0.0016764 -0.0025781000000000
01 0 -1 1.83697019872103e-016 0 17 81 0 99 94 60 73 78 79 0 91 +14 82 53 84 1e-0
08 95 61 86 12 83 +0 0 95 61 10 50 83 54 0 82 96 62 0 +-0.0016764 -0.0025781 0 -
1 1.83697019872103e-016 0 1.83697019872103e-016 1 0 81 1 84 55 6 82 0 0 97 63 85
 83 3 85 0.501960813999176 0.501960813999176 0.501960813999176 15 86 56 0 77 82
 0 17 87 0 86 21 77 17 90 88 0 29 +16 88 57 0 ?87 79 92 89 0 0 2 30 89 58 0 88 9
3 80 0 +-0.0016764 -0.002578099999999999 0.0010668 1.83697019872103e-016 1 0 17
 90 0 104 71 29 67 87 88 0 66 -17 91 0 86 77 21 73 94 92 0 72 -16 92 59 0 ?94 88
 0 93 0 0 2 30 93 60 0 92 0 89 0 +-0.0016764 -0.002578099999999999 0 1.836970198
72103e-016 1 0 17 94 0 99 39 81 22 91 92 0 0 +14 95 61 97 1e-008 100 82 99 12 96
 -0 0 100 82 10 50 96 62 0 95 101 83 0 +-0.0016764 0.002578100000000001 0 0 0 1
 -1.83697019872103e-016 -1 0 81 1 97 63 6 95 0 0 102 84 98 83 3 98 0.50196081399
9176 0.501960813999176 0.501960813999176 15 99 64 0 39 95 0 14 100 65 102 1e-008
 0 95 104 12 101 +0 0 0 95 10 50 101 66 0 100 0 96 0 +-0.0016764 0.0025781000000
00001 0.0010668 0 0 1 -1.83697019872103e-016 -1 0 81 1 102 67 6 100 0 0 0 97 103
 83 3 103 0.501960813999176 0.501960813999176 0.501960813999176 15 104 68 0 90 1
00 0 12 105 68 0 106 0 0 0 0 1000 1e-008 0 0 0 1 0 1 1 113 115 121 119 110 120 1
18 70 106 0 105 0 0 4 1 20 0 107 107 1 T74 20 107 1 0 108 0 0 0 0 0 0 0 0 0 0 0
 0 0 0 0 0 0 0 0 81 1 108 7 6 114 0 0 143 0 109 83 3 109 0.501960813999176 0.501
960813999176 0.501960813999176 19 110 1 0 105 112 0 111 V13 111 2 0 105 0 0 0 0
 110 114 19 112 3 0 105 0 110 113 S13 113 4 0 105 0 114 0 0 112 0 14 114 5 108 1
e-008 141 0 116 113 115 +0 0 141 0 111 50 115 6 0 114 142 0 0 +0.000254 -2.77555
7561562891e-020 0 -1.83697019872103e-016 -1 0 -1 1.83697019872103e-016 0 15 116
 8 0 117 114 0 17 117 0 116 125 137 118 122 120 0 130 +18 118 9 0 117 0 123 119
 ?105 29 119 10 0 118 124 0 0.000254 -2.775557561562891e-020 0.000254 16 120 11
 0 ?117 0 128 121 0 0 105 30 121 12 0 120 129 0 0 +0.000254 -2.775557561562891e-
020 0 0 0 1 17 122 0 187 192 188 123 117 120 0 137 -18 123 13 0 122 118 126 124
 ?105 29 124 14 0 123 127 119 0.000254 -2.775557561562891e-020 0 17 125 0 116 13
1 117 126 130 128 0 136 +18 126 15 0 125 123 132 127 ?105 29 127 16 0 126 133 12
4 -2.775557561562891e-020 2.775557561562891e-020 0.000254 16 128 17 0 ?125 120 1
34 129 0 0 105 30 129 18 0 128 135 121 0 +0.000254 -2.775557561562891e-020 0.000
254 -1 1.83697019872103e-016 0 17 130 0 205 191 151 118 125 128 0 188 -17 131 0
 116 137 125 132 136 134 0 0 -18 132 19 0 140 126 147 133 ?105 29 133 20 0 132 1
48 127 -2.775557561562891e-020 2.775557561562891e-020 0 16 134 21 0 ?136 128 138
 135 0 0 105 30 135 22 0 134 139 129 0 +-2.775557561562891e-020 2.77555756156289
1e-020 0 0 0 1 17 136 0 145 146 158 126 131 134 0 151 +17 137 0 116 117 131 123
 140 138 0 195 -16 138 23 0 ?140 134 149 139 0 0 105 30 139 24 0 138 150 135 0 +
0.000254 -2.775557561562891e-020 0 -1 1.83697019872103e-016 0 17 140 0 200 161 1
95 132 137 138 0 158 +14 141 25 143 1e-008 162 114 145 113 142 +0 0 162 114 111
 50 142 26 0 141 163 115 0 +-2.775557561562891e-020 2.775557561562891e-020 0 -1
 1.83697019872103e-016 0 1.83697019872103e-016 1 0 81 1 143 27 6 141 0 0 164 108
 144 83 3 144 0.501960813999176 0.501960813999176 0.501960813999176 15 145 28 0
 136 141 0 17 146 0 145 152 136 147 151 149 0 157 +18 147 29 0 146 132 153 148 ?
105 29 148 30 0 147 154 133 2.775557561562891e-020 0.000254 0.000254 16 149 31 0
 ?146 138 155 150 0 0 105 30 150 32 0 149 156 139 0 +-2.775557561562891e-020 2.7
75557561562891e-020 0.000254 1.83697019872103e-016 1 0 17 151 0 205 130 172 126
 146 149 0 0 -17 152 0 145 158 146 153 157 155 0 179 -18 153 33 0 161 147 168 15
4 ?105 29 154 34 0 153 169 148 2.775557561562891e-020 0.000254 0 16 155 35 0 ?15
7 149 159 156 0 0 105 30 156 36 0 155 160 150 0 +2.775557561562891e-020 0.000254
 0 0 0 1 17 157 0 166 167 179 147 152 155 0 172 +17 158 0 145 136 152 132 161 15
9 0 131 -16 159 37 0 ?161 155 170 160 0 0 105 30 160 38 0 159 171 156 0 +-2.7755
57561562891e-020 2.775557561562891e-020 0 1.83697019872103e-016 1 0 17 161 0 200
 182 140 153 158 159 0 152 +14 162 39 164 1e-008 183 141 166 113 163 +0 0 183 14
1 111 50 163 40 0 162 184 142 0 +2.775557561562891e-020 0.000254 0 1.83697019872
103e-016 1 0 1 -1.83697019872103e-016 0 81 1 164 41 6 162 0 0 185 143 165 83 3 1
65 0.501960813999176 0.501960813999176 0.501960813999176 15 166 42 0 157 162 0 1
7 167 0 166 173 157 168 172 170 0 178 +18 168 43 0 167 153 174 169 ?105 29 169 4
4 0 168 175 154 0.000254 0.000254 0.000254 16 170 45 0 ?167 159 176 171 0 0 105
 30 171 46 0 170 177 160 0 +2.775557561562891e-020 0.000254 0.000254 1 -1.836970
19872103e-016 0 17 172 0 205 151 191 147 167 170 0 0 -17 173 0 166 179 167 174 1
78 176 0 192 -18 174 47 0 182 168 0 175 ?105 29 175 48 0 174 0 169 0.000254 0.00
0254 0 16 176 49 0 ?178 170 180 177 0 0 105 30 177 50 0 176 181 171 0 +0.000254
 0.000254 0 0 0 1 17 178 0 187 188 192 168 173 176 0 191 +17 179 0 166 157 173 1
53 182 180 0 0 -16 180 51 0 ?182 176 189 181 0 0 105 30 181 52 0 180 190 177 0 +
2.775557561562891e-020 0.000254 0 1 -1.83697019872103e-016 0 17 182 0 200 195 16
1 174 179 180 0 173 +14 183 53 185 1e-008 196 162 187 113 184 +0 0 196 162 111 5
0 184 54 0 183 197 163 0 +0.000254 0.000254 0 1 -1.83697019872103e-016 0 -1.8369
7019872103e-016 -1 0 81 1 185 55 6 183 0 0 198 164 186 83 3 186 0.50196081399917
6 0.501960813999176 0.501960813999176 15 187 56 0 178 183 0 17 188 0 187 122 178
 118 191 189 0 0 +16 189 57 0 ?188 180 193 190 0 0 105 30 190 58 0 189 194 181 0
 +0.000254 0.000254 0.000254 -1.83697019872103e-016 -1 0 17 191 0 205 172 130 16
8 188 189 0 0 -17 192 0 187 178 122 174 195 193 0 0 -16 193 59 0 ?195 189 0 194
 0 0 105 30 194 60 0 193 0 190 0 +0.000254 0.000254 0 -1.83697019872103e-016 -1
 0 17 195 0 200 140 182 123 192 193 0 0 +14 196 61 198 1e-008 201 183 200 113 19
7 -0 0 201 183 111 50 197 62 0 196 202 184 0 +0.000254 -2.775557561562891e-020 0
 0 0 1 -1.83697019872103e-016 -1 0 81 1 198 63 6 196 0 0 203 185 199 83 3 199 0.
501960813999176 0.501960813999176 0.501960813999176 15 200 64 0 140 196 0 14 201
 65 203 1e-008 0 196 205 113 202 +0 0 0 196 111 50 202 66 0 201 0 197 0 +0.00025
4 -2.775557561562891e-020 0.000254 0 0 1 -1.83697019872103e-016 -1 0 81 1 203 67
 6 201 0 0 0 198 204 83 3 204 0.501960813999176 0.501960813999176 0.501960813999
176 15 205 68 0 191 201 0 1 0 
