M48
;Layer_Color=9474304
;FILE_FORMAT=2:4
INCH,LZ
;TYPE=PLATED
T1F00S00C0.0080
T2F00S00C0.0120
T3F00S00C0.0150
T4F00S00C0.0276
T5F00S00C0.0315
T6F00S00C0.0354
T7F00S00C0.0421
T8F00S00C0.0433
T9F00S00C0.0500
;TYPE=NON_PLATED
T10F00S00C0.0810
T11F00S00C0.1120
%
T01
X03515Y0129
Y01325
Y0136
Y01395
Y0143
X037
Y01395
Y0136
Y01325
Y0129
X0448Y01275
Y0124
Y0131
Y01345
Y0138
X04645Y01375
Y0134
Y01305
Y0127
Y01235
X0543Y01225
Y0126
Y01295
Y0133
Y01365
X05435Y01625
Y0166
Y01695
Y0173
Y01765
Y018
Y02095
Y0213
Y02165
Y022
Y02235
X0544Y0257
Y02605
Y0264
Y02675
Y0271
X05295Y02725
X0526
X05225
X0519
X05155
X0514Y0256
X05105
X0507
X05035
X05
X0489Y0273
X04855
X0482
X04785
X0475
X04735Y02915
Y0295
Y02985
Y0302
Y03055
X049
Y0302
Y02985
Y0295
Y02915
X05625Y02725
X0566
X05695
X0573
X05765
X05105Y0182
X0507
X05035
X05
X04965
X0497Y0162
X05005
X0504
X05075
X0511
X04635Y01595
X046
X04565
X0453
X04495
X04505Y0184
X0454
X04575
X0461
X04645
X0465Y02145
Y0218
Y02215
Y0225
Y02285
X0449Y0228
Y02245
Y0221
Y02175
Y0214
X04505Y0255
X0454
X04575
X0461
X04645
X04115Y0256
X0408
X04045
X0401
X03975
Y0272
X0401
X04045
X0408
X04115
X037Y0271
Y02675
Y0264
Y02605
Y0257
Y0252
Y02485
Y0245
Y02415
Y0238
X03515
Y02415
Y0245
Y02485
Y0252
X0352Y0279
Y02825
Y0286
Y02895
Y0293
X037Y02935
Y029
Y02865
Y0283
Y02795
Y02055
Y0202
Y01985
Y0195
Y01915
X03705Y01805
Y0177
Y01735
Y017
Y01665
Y0163
X04015Y01615
X0405
X04085
X0412
X04155
X0414Y01825
X04105
X0407
X04035
X04
X0352Y01915
Y0195
Y01985
Y0202
Y02055
Y0327
Y03305
Y0334
Y03375
Y0341
X037
Y03375
Y0334
Y03305
Y0327
X04735Y03485
Y0352
Y03555
Y0359
Y03625
X049
Y0359
Y03555
Y0352
Y03485
T02
X032195Y016245
X0322Y0187
X0324Y026806
X0306Y0238
X03075Y02245
X030676Y0212
X0305Y01925
X0308Y01865
X02915Y01825
X028469Y018138
X02845Y01925
X0285Y02085
X0292Y0225
X0289Y02295
X0286Y02335
X0268Y02355
X02675Y0261
X02765Y02655
X0245Y02485
X02355Y0254
X019759Y025307
X01995Y02505
X01948Y024296
X01705Y0243
X017369Y023274
X01815Y02225
X017084Y0217
X0166Y0201
X01805Y0199
X019247Y02165
X0217Y0193
X022Y0178
X02665Y0158
X02905Y0161
X029624Y017552
X019407Y02775
X019342Y029076
X019753Y03095
X017342Y0304
X017084Y0279
X017Y0267
X017392Y031476
X0208Y031316
X02715Y0314
T03
X014Y012
X015Y014
X017
X019
X021
X023
X025
X027
X029
X031
X03Y012
X028
X026
X024
X022
X02
X018
X016
X032
X034
X033Y014
X04115Y012
X04315
X04415Y014
X050619Y012
X052619
X053619Y014
X050137Y021511
X049337Y021911
X050787Y022711
X041319
X040669Y021511
X039869Y021911
X034Y02
Y024
X033Y026
X032Y028
X033Y03
X034Y016
X028
X027Y018
X025
X026Y02
X024
X023Y022
X021
Y026
X023
X024Y028
X026
X027Y03
X029
X031
X03Y028
X031Y022
X029
X024Y016
X022
X02
X018
X016
X017Y018
X019
X021
X016Y02
X019Y03
X023
X025
X015
X013
Y026
X015
X014Y024
X012
X013Y022
X015
X014Y02
X012
X013Y018
X015
X014Y032
X012
X013Y034
X015
X017
X018Y032
X02
X016
X026
X028
X03
X031Y034
X027
X033
X034Y032
X032
T04
X02035Y017
Y017961
Y018921
T05
X051987Y020861
X051487Y021361
X051987Y021861
X042519
Y020861
X042019Y021361
T06
X04965Y024211
X050437
X051224
X041756
X040969
X040181
X033Y023125
Y022337
Y02155
X0331Y017875
Y017087
Y0163
X0341Y02655
Y02755
Y02855
Y02955
Y03055
T07
X04045Y0144
X041631
X042001Y015581
Y013219
X049919Y0144
X0511
X05147Y015581
Y013219
T08
X0105Y02055
Y02155
Y02375
Y02475
Y0268
Y0278
Y02985
Y03085
T09
X01245Y01425
Y01525
Y01625
Y01725
X0193Y0336
X0203
X0213
X0223
X0233
X025231Y0334
X026231
X027231
X028231
X029231
X04035Y035968
X04135
X04235
X04335
X04435
X052319
X053319
X054318
X055318
X056318
T10
X01369Y01383
T11
X0119Y01185
X03305Y0119
X03805Y0109
Y0151
X04375
Y0109
X047519
Y0151
X053219
Y0109
X053287Y019311
Y024511
X047587
Y019311
X050068Y028318
X058268Y028318
X0463
X043819Y024511
Y019311
X038119
Y024511
X0381Y028318
X0119Y0331
X0331
X0381Y036518
X0463
X050068
X058268
M30
