G04*
G04 #@! TF.GenerationSoftware,Altium Limited,Altium Designer,21.5.1 (32)*
G04*
G04 Layer_Color=65535*
%FSLAX25Y25*%
%MOIN*%
G70*
G04*
G04 #@! TF.SameCoordinates,35D1D81E-305D-4ED3-A4E5-B3A77E649114*
G04*
G04*
G04 #@! TF.FilePolarity,Positive*
G04*
G01*
G75*
%ADD13C,0.01000*%
%ADD51C,0.00787*%
%ADD52C,0.00984*%
%ADD53C,0.00600*%
%ADD54C,0.00300*%
%ADD55C,0.00500*%
%ADD56C,0.02362*%
%ADD57C,0.00700*%
%ADD58C,0.00394*%
D13*
X373997Y138000D02*
X375497D01*
X373997Y136500D02*
Y138000D01*
Y119000D02*
Y120500D01*
Y119000D02*
X375497D01*
X391497D02*
X392997D01*
Y120500D01*
X391497Y138000D02*
X392997D01*
Y136500D02*
Y138000D01*
X393003Y113499D02*
Y107501D01*
X397002D01*
X403000Y113499D02*
X399001D01*
Y107501D01*
X403000D01*
X399001Y110500D02*
X401001D01*
X404999Y113499D02*
Y107501D01*
X407998D01*
X408998Y108501D01*
Y112499D01*
X407998Y113499D01*
X404999D01*
X410997Y107501D02*
X412997D01*
X411997D01*
Y113499D01*
X410997Y112499D01*
X405000Y126999D02*
X403001D01*
X404000D01*
Y122001D01*
X403001Y121001D01*
X402001D01*
X401001Y122001D01*
X406999Y121001D02*
X408999D01*
X407999D01*
Y126999D01*
X406999Y125999D01*
X434002Y121501D02*
Y127499D01*
X437001D01*
X438000Y126499D01*
Y124500D01*
X437001Y123500D01*
X434002D01*
X436001D02*
X438000Y121501D01*
X440000Y126499D02*
X440999Y127499D01*
X442999D01*
X443998Y126499D01*
Y125500D01*
X442999Y124500D01*
X441999D01*
X442999D01*
X443998Y123500D01*
Y122501D01*
X442999Y121501D01*
X440999D01*
X440000Y122501D01*
X468682Y138000D02*
X470182D01*
X468682Y136500D02*
Y138000D01*
Y119000D02*
Y120500D01*
Y119000D02*
X470182D01*
X486182D02*
X487682D01*
Y120500D01*
X486182Y138000D02*
X487682D01*
Y136500D02*
Y138000D01*
X487688Y113499D02*
Y107501D01*
X491687D01*
X497685Y113499D02*
X493686D01*
Y107501D01*
X497685D01*
X493686Y110500D02*
X495686D01*
X499684Y113499D02*
Y107501D01*
X502683D01*
X503683Y108501D01*
Y112499D01*
X502683Y113499D01*
X499684D01*
X505683Y107501D02*
X507682D01*
X506682D01*
Y113499D01*
X505683Y112499D01*
X499685Y126999D02*
X497686D01*
X498685D01*
Y122001D01*
X497686Y121001D01*
X496686D01*
X495686Y122001D01*
X501685Y121001D02*
X503684D01*
X502684D01*
Y126999D01*
X501685Y125999D01*
X528687Y121501D02*
Y127499D01*
X531686D01*
X532685Y126499D01*
Y124500D01*
X531686Y123500D01*
X528687D01*
X530686D02*
X532685Y121501D01*
X534685Y126499D02*
X535684Y127499D01*
X537684D01*
X538684Y126499D01*
Y125500D01*
X537684Y124500D01*
X536684D01*
X537684D01*
X538684Y123500D01*
Y122501D01*
X537684Y121501D01*
X535684D01*
X534685Y122501D01*
X570785Y346185D02*
Y340187D01*
X567786D01*
X566786Y341186D01*
Y343186D01*
X567786Y344186D01*
X570785D01*
X564787Y346185D02*
X562788D01*
X563787D01*
Y340187D01*
X564787Y341186D01*
X524684Y304686D02*
Y309684D01*
X523684Y310684D01*
X521685D01*
X520685Y309684D01*
Y304686D01*
X518686Y310684D02*
X516686D01*
X517686D01*
Y304686D01*
X518686Y305686D01*
X451100Y346185D02*
Y340187D01*
X448101D01*
X447101Y341186D01*
Y343186D01*
X448101Y344186D01*
X451100D01*
X445102Y346185D02*
X443103D01*
X444102D01*
Y340187D01*
X445102Y341186D01*
X404999Y304686D02*
Y309684D01*
X403999Y310684D01*
X402000D01*
X401000Y309684D01*
Y304686D01*
X399001Y310684D02*
X397001D01*
X398001D01*
Y304686D01*
X399001Y305686D01*
X425186Y229607D02*
Y235605D01*
X428185D01*
X429185Y234606D01*
Y232606D01*
X428185Y231607D01*
X425186D01*
X431184Y229607D02*
X433184D01*
X432184D01*
Y235605D01*
X431184Y234606D01*
X519872Y229607D02*
Y235605D01*
X522870D01*
X523870Y234606D01*
Y232606D01*
X522870Y231607D01*
X519872D01*
X525870Y229607D02*
X527869D01*
X526869D01*
Y235605D01*
X525870Y234606D01*
X322600Y244100D02*
Y250098D01*
X325599D01*
X326599Y249098D01*
Y247099D01*
X325599Y246099D01*
X322600D01*
X332597Y250098D02*
X328598D01*
Y247099D01*
X330597Y248099D01*
X331597D01*
X332597Y247099D01*
Y245100D01*
X331597Y244100D01*
X329598D01*
X328598Y245100D01*
X323600Y191600D02*
Y197598D01*
X326599D01*
X327599Y196598D01*
Y194599D01*
X326599Y193599D01*
X323600D01*
X332597Y191600D02*
Y197598D01*
X329598Y194599D01*
X333597D01*
D51*
X393420Y144016D02*
G03*
X393420Y144016I-290J0D01*
G01*
X424500Y131000D02*
Y157181D01*
X394776Y130910D02*
Y157091D01*
X415866D01*
X394776Y130910D02*
X415866D01*
X422000Y120441D02*
Y125559D01*
X488105Y144016D02*
G03*
X488105Y144016I-290J0D01*
G01*
X519185Y131000D02*
Y157181D01*
X489461Y130910D02*
Y157091D01*
X510551D01*
X489461Y130910D02*
X510551D01*
X516685Y120441D02*
Y125559D01*
X568185Y372205D02*
X518185D01*
X568185D02*
Y349685D01*
X518185D01*
Y372205D02*
Y349685D01*
X448500Y372205D02*
X398500D01*
X448500D02*
Y349685D01*
X398500D01*
Y372205D02*
Y349685D01*
X431556Y223317D02*
G03*
X434896Y219977I-6370J-9711D01*
G01*
X393150Y235806D02*
Y249980D01*
Y235806D02*
X423858D01*
X393150Y249980D02*
X423858D01*
Y235806D02*
Y249980D01*
X431556Y223317D02*
X435175Y226937D01*
X438515Y223596D01*
X434896Y219977D02*
X438515Y223596D01*
X403016Y229016D02*
Y230197D01*
X392473Y207441D02*
Y211378D01*
X404677Y207441D02*
Y211378D01*
X392473Y207441D02*
X404677D01*
X392473Y211378D02*
X404677D01*
X526241Y223317D02*
G03*
X529581Y219977I-6370J-9711D01*
G01*
X487835Y235806D02*
Y249980D01*
Y235806D02*
X518543D01*
X487835Y249980D02*
X518543D01*
Y235806D02*
Y249980D01*
X526241Y223317D02*
X529860Y226937D01*
X533200Y223596D01*
X529581Y219977D02*
X533200Y223596D01*
X497701Y229016D02*
Y230197D01*
X487158Y207441D02*
Y211378D01*
X499362Y207441D02*
Y211378D01*
X487158Y207441D02*
X499362D01*
X487158Y211378D02*
X499362D01*
X124500Y185098D02*
G03*
X123713Y185098I-394J0D01*
G01*
D02*
G03*
X124500Y185098I394J0D01*
G01*
X268382Y256866D02*
G03*
X268382Y256866I-394J0D01*
G01*
X193658Y160512D02*
G03*
X196906Y157264I3248J0D01*
G01*
X210094Y157264D02*
G03*
X213342Y160512I0J3248D01*
G01*
Y198701D02*
G03*
X210094Y201949I-3248J0D01*
G01*
X196906Y201949D02*
G03*
X193658Y198701I0J-3248D01*
G01*
X169032Y205398D02*
X172968D01*
X169032Y217602D02*
X172968D01*
Y205398D02*
Y217602D01*
X169032Y205398D02*
Y217602D01*
X202031Y216602D02*
X205968D01*
X202031Y204398D02*
X205968D01*
X202031D02*
Y216602D01*
X205968Y204398D02*
Y216602D01*
X203031Y249102D02*
X206968D01*
X203031Y236898D02*
X206968D01*
X203031D02*
Y249102D01*
X206968Y236898D02*
Y249102D01*
X169032Y237398D02*
X172968D01*
X169032Y249602D02*
X172968D01*
Y237398D02*
Y249602D01*
X169032Y237398D02*
Y249602D01*
Y270398D02*
X172968D01*
X169032Y282602D02*
X172968D01*
Y270398D02*
Y282602D01*
X169032Y270398D02*
Y282602D01*
X202031D02*
X205968D01*
X202031Y270398D02*
X205968D01*
X202031D02*
Y282602D01*
X205968Y270398D02*
Y282602D01*
X205532Y315602D02*
X209469D01*
X205532Y303398D02*
X209469D01*
X205532D02*
Y315602D01*
X209469Y303398D02*
Y315602D01*
X173031Y303398D02*
X176969D01*
X173031Y315602D02*
X176969D01*
Y303398D02*
Y315602D01*
X173031Y303398D02*
Y315602D01*
X102244Y288992D02*
X155748D01*
Y318008D01*
X105000D02*
X155748D01*
X102244Y258492D02*
X155748D01*
Y287508D01*
X105000D02*
X155748D01*
X102244Y227992D02*
X155748D01*
Y257008D01*
X105000D02*
X155748D01*
X102244Y195992D02*
X155748D01*
Y225008D01*
X105000D02*
X155748D01*
X285571Y239185D02*
X294429D01*
X285571Y249815D02*
X294429D01*
X323126Y154339D02*
X337300D01*
Y185047D01*
X323127Y154339D02*
Y185047D01*
X337300D01*
X322126Y206839D02*
X336300D01*
Y237547D01*
X322127Y206839D02*
Y237547D01*
X336300D01*
X247314Y346520D02*
X297314D01*
Y324000D02*
Y346520D01*
X247314Y324000D02*
X297314D01*
X247314D02*
Y346520D01*
X188000Y348520D02*
X238000D01*
Y326000D02*
Y348520D01*
X188000Y326000D02*
X238000D01*
X188000D02*
Y348520D01*
X289799Y167815D02*
X302201D01*
Y182185D01*
X289799D02*
X302201D01*
X289799Y167815D02*
Y182185D01*
X299244Y225917D02*
Y228083D01*
X301902Y221016D02*
X304756D01*
Y229658D02*
Y232984D01*
Y221016D02*
Y224342D01*
X301902Y232984D02*
X304756D01*
X238587Y213413D02*
X274413D01*
X238587Y177587D02*
X274413D01*
X238587D02*
Y213413D01*
X274413Y177587D02*
Y213413D01*
X336000Y310500D02*
X346000D01*
Y260500D02*
Y310500D01*
X336000Y260500D02*
Y310500D01*
Y260500D02*
X346000D01*
X196906Y157264D02*
X210094D01*
X193658Y160512D02*
Y198701D01*
X213342Y160512D02*
Y198701D01*
X196906Y201949D02*
X210094D01*
D52*
X570252Y359685D02*
G03*
X570252Y359685I500J0D01*
G01*
X450567D02*
G03*
X450567Y359685I500J0D01*
G01*
X426909Y242106D02*
G03*
X426909Y242106I-492J0D01*
G01*
X391882Y203602D02*
G03*
X391882Y203602I-492J0D01*
G01*
X521595Y242106D02*
G03*
X521595Y242106I-492J0D01*
G01*
X486567Y203602D02*
G03*
X486567Y203602I-492J0D01*
G01*
X177299Y204315D02*
G03*
X177299Y204315I-492J0D01*
G01*
X198685Y217685D02*
G03*
X198685Y217685I-492J0D01*
G01*
X199685Y250185D02*
G03*
X199685Y250185I-492J0D01*
G01*
X177299Y236315D02*
G03*
X177299Y236315I-492J0D01*
G01*
Y269315D02*
G03*
X177299Y269315I-492J0D01*
G01*
X198685Y283685D02*
G03*
X198685Y283685I-492J0D01*
G01*
X202185Y316685D02*
G03*
X202185Y316685I-492J0D01*
G01*
X181299Y302315D02*
G03*
X181299Y302315I-492J0D01*
G01*
X304075Y244500D02*
G03*
X304075Y244500I-492J0D01*
G01*
X331492Y187606D02*
G03*
X331492Y187606I-492J0D01*
G01*
X330492Y240106D02*
G03*
X330492Y240106I-492J0D01*
G01*
X300381Y334000D02*
G03*
X300381Y334000I-500J0D01*
G01*
X241067Y336000D02*
G03*
X241067Y336000I-500J0D01*
G01*
X293539Y165650D02*
G03*
X293539Y165650I-492J0D01*
G01*
X279039Y176504D02*
G03*
X279039Y176504I-492J0D01*
G01*
D53*
X569685Y282185D02*
X566895D01*
X529685Y336185D02*
Y282185D01*
X532475D02*
X529685D01*
X569685Y336185D02*
Y282185D01*
Y336185D02*
X566895D01*
X562475D02*
X556895D01*
X552475D02*
X546895D01*
X542475D02*
X536895D01*
X532475D02*
X529685D01*
X542475Y282185D02*
X536895D01*
X552475D02*
X546895D01*
X562475D02*
X556895D01*
X450000D02*
X447210D01*
X410000Y336185D02*
Y282185D01*
X412790D02*
X410000D01*
X450000Y336185D02*
Y282185D01*
Y336185D02*
X447210D01*
X442790D02*
X437210D01*
X432790D02*
X427210D01*
X422790D02*
X417210D01*
X412790D02*
X410000D01*
X422790Y282185D02*
X417210D01*
X432790D02*
X427210D01*
X442790D02*
X437210D01*
X288101Y246799D02*
Y243201D01*
X289900D01*
X290500Y243800D01*
Y246200D01*
X289900Y246799D01*
X288101D01*
X291700Y243201D02*
X292899D01*
X292299D01*
Y246799D01*
X291700Y246200D01*
X266367Y249600D02*
Y246400D01*
X268500D01*
X269566D02*
X270633D01*
X270099D01*
Y249600D01*
X269566Y249066D01*
X237834Y226600D02*
Y223934D01*
X238367Y223400D01*
X239434D01*
X239967Y223934D01*
Y226600D01*
X243166Y223400D02*
X241033D01*
X243166Y225533D01*
Y226066D01*
X242633Y226600D01*
X241566D01*
X241033Y226066D01*
X336200Y313500D02*
Y316699D01*
X337800D01*
X338333Y316166D01*
Y315100D01*
X337800Y314566D01*
X336200D01*
X339399Y313500D02*
X340465D01*
X339932D01*
Y316699D01*
X339399Y316166D01*
X121467Y187257D02*
X120401D01*
X120934D01*
Y184591D01*
X120401Y184058D01*
X119867D01*
X119334Y184591D01*
X124133Y184058D02*
Y187257D01*
X122533Y185658D01*
X124666D01*
X301634Y204066D02*
X301101Y204599D01*
X300034D01*
X299501Y204066D01*
Y201934D01*
X300034Y201400D01*
X301101D01*
X301634Y201934D01*
X302700Y201400D02*
X303767D01*
X303233D01*
Y204599D01*
X302700Y204066D01*
X305366Y201934D02*
X305899Y201400D01*
X306965D01*
X307499Y201934D01*
Y204066D01*
X306965Y204599D01*
X305899D01*
X305366Y204066D01*
Y203533D01*
X305899Y203000D01*
X307499D01*
X299634Y208566D02*
X299101Y209100D01*
X298035D01*
X297501Y208566D01*
Y206434D01*
X298035Y205901D01*
X299101D01*
X299634Y206434D01*
X300700Y205901D02*
X301767D01*
X301233D01*
Y209100D01*
X300700Y208566D01*
X303366D02*
X303899Y209100D01*
X304965D01*
X305499Y208566D01*
Y208033D01*
X304965Y207500D01*
X305499Y206967D01*
Y206434D01*
X304965Y205901D01*
X303899D01*
X303366Y206434D01*
Y206967D01*
X303899Y207500D01*
X303366Y208033D01*
Y208566D01*
X303899Y207500D02*
X304965D01*
X308100Y178765D02*
X305434D01*
X304901Y178232D01*
Y177166D01*
X305434Y176633D01*
X308100D01*
X304901Y173434D02*
Y175566D01*
X307033Y173434D01*
X307566D01*
X308100Y173967D01*
Y175033D01*
X307566Y175566D01*
X304901Y170768D02*
X308100D01*
X306500Y172367D01*
Y170235D01*
X308334Y235599D02*
Y232934D01*
X308867Y232400D01*
X309934D01*
X310467Y232934D01*
Y235599D01*
X311533Y235066D02*
X312066Y235599D01*
X313133D01*
X313666Y235066D01*
Y234533D01*
X313133Y234000D01*
X313666Y233467D01*
Y232934D01*
X313133Y232400D01*
X312066D01*
X311533Y232934D01*
Y233467D01*
X312066Y234000D01*
X311533Y234533D01*
Y235066D01*
X312066Y234000D02*
X313133D01*
X256867Y271099D02*
Y268434D01*
X257400Y267900D01*
X258467D01*
X259000Y268434D01*
Y271099D01*
X260066Y267900D02*
X261133D01*
X260599D01*
Y271099D01*
X260066Y270566D01*
X281501Y214900D02*
Y218099D01*
X283101D01*
X283634Y217566D01*
Y216500D01*
X283101Y215967D01*
X281501D01*
X282568D02*
X283634Y214900D01*
X284700D02*
X285767D01*
X285233D01*
Y218099D01*
X284700Y217566D01*
X288966Y214900D02*
Y218099D01*
X287366Y216500D01*
X289499D01*
X270834Y268401D02*
Y271600D01*
X272434D01*
X272967Y271066D01*
Y270000D01*
X272434Y269467D01*
X270834D01*
X271901D02*
X272967Y268401D01*
X274033Y268934D02*
X274566Y268401D01*
X275633D01*
X276166Y268934D01*
Y271066D01*
X275633Y271600D01*
X274566D01*
X274033Y271066D01*
Y270533D01*
X274566Y270000D01*
X276166D01*
X295501Y264701D02*
Y268299D01*
X297300D01*
X297900Y267700D01*
Y266500D01*
X297300Y265900D01*
X295501D01*
X296701D02*
X297900Y264701D01*
X299100Y267700D02*
X299700Y268299D01*
X300899D01*
X301499Y267700D01*
Y267100D01*
X300899Y266500D01*
X301499Y265900D01*
Y265300D01*
X300899Y264701D01*
X299700D01*
X299100Y265300D01*
Y265900D01*
X299700Y266500D01*
X299100Y267100D01*
Y267700D01*
X299700Y266500D02*
X300899D01*
X234834Y266900D02*
Y270099D01*
X236434D01*
X236967Y269566D01*
Y268500D01*
X236434Y267967D01*
X234834D01*
X235900D02*
X236967Y266900D01*
X238033Y270099D02*
X240166D01*
Y269566D01*
X238033Y267434D01*
Y266900D01*
X241334Y235401D02*
Y238599D01*
X242934D01*
X243467Y238066D01*
Y237000D01*
X242934Y236467D01*
X241334D01*
X242401D02*
X243467Y235401D01*
X246666Y238599D02*
X244533D01*
Y237000D01*
X245600Y237533D01*
X246133D01*
X246666Y237000D01*
Y235934D01*
X246133Y235401D01*
X245066D01*
X244533Y235934D01*
X250834Y235900D02*
Y239100D01*
X252434D01*
X252967Y238566D01*
Y237500D01*
X252434Y236967D01*
X250834D01*
X251901D02*
X252967Y235900D01*
X255633D02*
Y239100D01*
X254033Y237500D01*
X256166D01*
X210834Y343401D02*
Y346600D01*
X212434D01*
X212967Y346066D01*
Y345000D01*
X212434Y344467D01*
X210834D01*
X214033Y346066D02*
X214566Y346600D01*
X215633D01*
X216166Y346066D01*
Y345533D01*
X215633Y345000D01*
X215100D01*
X215633D01*
X216166Y344467D01*
Y343934D01*
X215633Y343401D01*
X214566D01*
X214033Y343934D01*
X278834Y341401D02*
Y344600D01*
X280434D01*
X280967Y344066D01*
Y343000D01*
X280434Y342467D01*
X278834D01*
X284166Y341401D02*
X282033D01*
X284166Y343533D01*
Y344066D01*
X283633Y344600D01*
X282566D01*
X282033Y344066D01*
X314434Y190534D02*
X313900Y190001D01*
Y188935D01*
X314434Y188402D01*
X316566D01*
X317099Y188935D01*
Y190001D01*
X316566Y190534D01*
X317099Y191601D02*
Y192667D01*
Y192134D01*
X313900D01*
X314434Y191601D01*
X313900Y196399D02*
X314434Y195333D01*
X315500Y194267D01*
X316566D01*
X317099Y194800D01*
Y195866D01*
X316566Y196399D01*
X316033D01*
X315500Y195866D01*
Y194267D01*
X313900Y199598D02*
X314434Y198532D01*
X315500Y197466D01*
X316566D01*
X317099Y197999D01*
Y199065D01*
X316566Y199598D01*
X316033D01*
X315500Y199065D01*
Y197466D01*
X292290Y155566D02*
X291757Y156099D01*
X290691D01*
X290158Y155566D01*
Y153434D01*
X290691Y152901D01*
X291757D01*
X292290Y153434D01*
X293357Y152901D02*
X294423D01*
X293890D01*
Y156099D01*
X293357Y155566D01*
X298155Y156099D02*
X297089Y155566D01*
X296023Y154500D01*
Y153434D01*
X296556Y152901D01*
X297622D01*
X298155Y153434D01*
Y153967D01*
X297622Y154500D01*
X296023D01*
X301354Y156099D02*
X299221D01*
Y154500D01*
X300288Y155033D01*
X300821D01*
X301354Y154500D01*
Y153434D01*
X300821Y152901D01*
X299755D01*
X299221Y153434D01*
X260634Y228066D02*
X260101Y228600D01*
X259034D01*
X258501Y228066D01*
Y225934D01*
X259034Y225400D01*
X260101D01*
X260634Y225934D01*
X261700Y225400D02*
X262767D01*
X262233D01*
Y228600D01*
X261700Y228066D01*
X265966Y225400D02*
Y228600D01*
X264366Y227000D01*
X266499D01*
X320634Y272503D02*
X320101Y273037D01*
X319035D01*
X318501Y272503D01*
Y270371D01*
X319035Y269837D01*
X320101D01*
X320634Y270371D01*
X321700Y269837D02*
X322767D01*
X322233D01*
Y273037D01*
X321700Y272503D01*
X326499Y269837D02*
X324366D01*
X326499Y271970D01*
Y272503D01*
X325965Y273037D01*
X324899D01*
X324366Y272503D01*
X284167Y276066D02*
X283634Y276600D01*
X282568D01*
X282034Y276066D01*
Y273934D01*
X282568Y273400D01*
X283634D01*
X284167Y273934D01*
X285233Y273400D02*
X286300D01*
X285767D01*
Y276600D01*
X285233Y276066D01*
X287899Y273400D02*
X288966D01*
X288432D01*
Y276600D01*
X287899Y276066D01*
X243634Y263566D02*
X243101Y264100D01*
X242035D01*
X241501Y263566D01*
Y261434D01*
X242035Y260900D01*
X243101D01*
X243634Y261434D01*
X244700Y260900D02*
X245767D01*
X245233D01*
Y264100D01*
X244700Y263566D01*
X247366D02*
X247899Y264100D01*
X248966D01*
X249499Y263566D01*
Y261434D01*
X248966Y260900D01*
X247899D01*
X247366Y261434D01*
Y263566D01*
X291967Y203566D02*
X291434Y204099D01*
X290367D01*
X289834Y203566D01*
Y201434D01*
X290367Y200901D01*
X291434D01*
X291967Y201434D01*
X293033Y204099D02*
X295166D01*
Y203566D01*
X293033Y201434D01*
Y200901D01*
X254967Y167066D02*
X254434Y167599D01*
X253367D01*
X252834Y167066D01*
Y164934D01*
X253367Y164400D01*
X254434D01*
X254967Y164934D01*
X257633Y164400D02*
Y167599D01*
X256033Y166000D01*
X258166D01*
X226967Y196566D02*
X226434Y197099D01*
X225367D01*
X224834Y196566D01*
Y194434D01*
X225367Y193901D01*
X226434D01*
X226967Y194434D01*
X228033Y196566D02*
X228566Y197099D01*
X229633D01*
X230166Y196566D01*
Y196033D01*
X229633Y195500D01*
X229099D01*
X229633D01*
X230166Y194967D01*
Y194434D01*
X229633Y193901D01*
X228566D01*
X228033Y194434D01*
X224967Y184566D02*
X224434Y185099D01*
X223367D01*
X222834Y184566D01*
Y182434D01*
X223367Y181901D01*
X224434D01*
X224967Y182434D01*
X228166Y181901D02*
X226033D01*
X228166Y184033D01*
Y184566D01*
X227633Y185099D01*
X226566D01*
X226033Y184566D01*
X225500Y173566D02*
X224967Y174100D01*
X223901D01*
X223367Y173566D01*
Y171434D01*
X223901Y170900D01*
X224967D01*
X225500Y171434D01*
X226566Y170900D02*
X227633D01*
X227099D01*
Y174100D01*
X226566Y173566D01*
D54*
X569750Y335935D02*
X566418Y332603D01*
Y335935D02*
X569750Y332603D01*
X568084Y335935D02*
Y332603D01*
X566418Y334269D02*
X569750D01*
X450065Y335935D02*
X446733Y332603D01*
Y335935D02*
X450065Y332603D01*
X448399Y335935D02*
Y332603D01*
X446733Y334269D02*
X450065D01*
D55*
X439519Y227856D02*
Y225357D01*
X440769D01*
X441185Y225773D01*
Y227439D01*
X440769Y227856D01*
X439519D01*
X442018Y225357D02*
X442851D01*
X442435D01*
Y227856D01*
X442018Y227439D01*
X385492Y217659D02*
Y215576D01*
X385909Y215160D01*
X386742D01*
X387158Y215576D01*
Y217659D01*
X387991Y217243D02*
X388408Y217659D01*
X389241D01*
X389657Y217243D01*
Y216826D01*
X389241Y216409D01*
X388824D01*
X389241D01*
X389657Y215993D01*
Y215576D01*
X389241Y215160D01*
X388408D01*
X387991Y215576D01*
X387775Y229357D02*
Y231856D01*
X389024D01*
X389441Y231439D01*
Y230606D01*
X389024Y230190D01*
X387775D01*
X388608D02*
X389441Y229357D01*
X390274D02*
X391107D01*
X390691D01*
Y231856D01*
X390274Y231439D01*
X387696Y223939D02*
X387279Y224356D01*
X386446D01*
X386030Y223939D01*
Y222273D01*
X386446Y221857D01*
X387279D01*
X387696Y222273D01*
X388529Y221857D02*
X389362D01*
X388945D01*
Y224356D01*
X388529Y223939D01*
X390611D02*
X391028Y224356D01*
X391861D01*
X392278Y223939D01*
Y223523D01*
X391861Y223106D01*
X391444D01*
X391861D01*
X392278Y222690D01*
Y222273D01*
X391861Y221857D01*
X391028D01*
X390611Y222273D01*
X534204Y227856D02*
Y225357D01*
X535454D01*
X535870Y225773D01*
Y227439D01*
X535454Y227856D01*
X534204D01*
X536703Y225357D02*
X537536D01*
X537120D01*
Y227856D01*
X536703Y227439D01*
X480177Y217659D02*
Y215576D01*
X480594Y215160D01*
X481427D01*
X481843Y215576D01*
Y217659D01*
X482677Y217243D02*
X483093Y217659D01*
X483926D01*
X484343Y217243D01*
Y216826D01*
X483926Y216409D01*
X483509D01*
X483926D01*
X484343Y215993D01*
Y215576D01*
X483926Y215160D01*
X483093D01*
X482677Y215576D01*
X482460Y229357D02*
Y231856D01*
X483710D01*
X484126Y231439D01*
Y230606D01*
X483710Y230190D01*
X482460D01*
X483293D02*
X484126Y229357D01*
X484959D02*
X485792D01*
X485376D01*
Y231856D01*
X484959Y231439D01*
X482381Y223939D02*
X481964Y224356D01*
X481131D01*
X480715Y223939D01*
Y222273D01*
X481131Y221857D01*
X481964D01*
X482381Y222273D01*
X483214Y221857D02*
X484047D01*
X483630D01*
Y224356D01*
X483214Y223939D01*
X485296D02*
X485713Y224356D01*
X486546D01*
X486963Y223939D01*
Y223523D01*
X486546Y223106D01*
X486130D01*
X486546D01*
X486963Y222690D01*
Y222273D01*
X486546Y221857D01*
X485713D01*
X485296Y222273D01*
X257201Y255291D02*
X259799D01*
X255350Y259681D02*
Y262319D01*
X257201Y266709D02*
X259799D01*
X191499Y194000D02*
Y192001D01*
X189500Y194000D01*
X189000D01*
X188500Y193500D01*
Y192501D01*
X189000Y192001D01*
Y195000D02*
X188500Y195500D01*
Y196499D01*
X189000Y196999D01*
X191000D01*
X191499Y196499D01*
Y195500D01*
X191000Y195000D01*
X189000D01*
D56*
X271657Y181524D02*
G03*
X271657Y181524I-1181J0D01*
G01*
D57*
X203850Y154989D02*
G03*
X203850Y154989I-350J0D01*
G01*
D58*
X108752Y133307D02*
X132374D01*
X108752D02*
Y181693D01*
X140150D01*
Y142972D02*
Y181693D01*
M02*
