G04*
G04 #@! TF.GenerationSoftware,Altium Limited,Altium Designer,21.5.1 (32)*
G04*
G04 Layer_Physical_Order=2*
G04 Layer_Color=16711680*
%FSLAX25Y25*%
%MOIN*%
G70*
G04*
G04 #@! TF.SameCoordinates,35D1D81E-305D-4ED3-A4E5-B3A77E649114*
G04*
G04*
G04 #@! TF.FilePolarity,Positive*
G04*
G01*
G75*
%ADD13C,0.01000*%
%ADD30C,0.02000*%
%ADD31C,0.02000*%
%ADD32C,0.06378*%
%ADD33C,0.11200*%
%ADD34C,0.03000*%
%ADD35C,0.07087*%
%ADD36R,0.07087X0.07087*%
%ADD37R,0.05512X0.05512*%
%ADD38C,0.05512*%
%ADD39C,0.05512*%
%ADD40P,0.07795X4X360.0*%
%ADD41C,0.06496*%
%ADD42R,0.06496X0.06496*%
%ADD43R,0.05512X0.05512*%
%ADD44C,0.04047*%
%ADD45C,0.07500*%
%ADD46C,0.05906*%
%ADD47R,0.05906X0.05906*%
%ADD48R,0.04724X0.04724*%
%ADD49C,0.04724*%
%ADD50C,0.01800*%
G36*
X349197Y100803D02*
X100803D01*
Y204836D01*
X101303Y204868D01*
X101348Y204522D01*
X101726Y203610D01*
X102327Y202827D01*
X103110Y202226D01*
X104022Y201848D01*
X105000Y201720D01*
X105978Y201848D01*
X106890Y202226D01*
X107673Y202827D01*
X108274Y203610D01*
X108652Y204522D01*
X108780Y205500D01*
X108652Y206478D01*
X108274Y207390D01*
X107673Y208173D01*
X106890Y208774D01*
X105978Y209152D01*
X105000Y209280D01*
X104022Y209152D01*
X103110Y208774D01*
X102327Y208173D01*
X101726Y207390D01*
X101348Y206478D01*
X101303Y206132D01*
X100803Y206164D01*
Y211629D01*
X101252Y211752D01*
X101303Y211752D01*
X104750D01*
Y215500D01*
Y219248D01*
X101303D01*
X101252Y219248D01*
X100803Y219371D01*
Y236836D01*
X101303Y236868D01*
X101348Y236522D01*
X101726Y235610D01*
X102327Y234827D01*
X103110Y234226D01*
X104022Y233848D01*
X105000Y233720D01*
X105978Y233848D01*
X106890Y234226D01*
X107673Y234827D01*
X108274Y235610D01*
X108652Y236522D01*
X108780Y237500D01*
X108652Y238478D01*
X108274Y239390D01*
X107673Y240173D01*
X106890Y240774D01*
X105978Y241152D01*
X105000Y241280D01*
X104022Y241152D01*
X103110Y240774D01*
X102327Y240173D01*
X101726Y239390D01*
X101348Y238478D01*
X101303Y238132D01*
X100803Y238164D01*
Y243629D01*
X101252Y243752D01*
X101303Y243752D01*
X104750D01*
Y247500D01*
Y251248D01*
X101303D01*
X101252Y251248D01*
X100803Y251371D01*
Y267336D01*
X101303Y267368D01*
X101348Y267022D01*
X101726Y266110D01*
X102327Y265327D01*
X103110Y264726D01*
X104022Y264348D01*
X105000Y264220D01*
X105978Y264348D01*
X106890Y264726D01*
X107673Y265327D01*
X108274Y266110D01*
X108652Y267022D01*
X108780Y268000D01*
X108652Y268978D01*
X108274Y269890D01*
X107673Y270673D01*
X106890Y271274D01*
X105978Y271652D01*
X105000Y271780D01*
X104022Y271652D01*
X103110Y271274D01*
X102327Y270673D01*
X101726Y269890D01*
X101348Y268978D01*
X101303Y268632D01*
X100803Y268664D01*
Y274129D01*
X101252Y274252D01*
X101303Y274252D01*
X104750D01*
Y278000D01*
Y281748D01*
X101303D01*
X101252Y281748D01*
X100803Y281871D01*
Y297836D01*
X101303Y297868D01*
X101348Y297522D01*
X101726Y296610D01*
X102327Y295827D01*
X103110Y295226D01*
X104022Y294848D01*
X105000Y294720D01*
X105978Y294848D01*
X106890Y295226D01*
X107673Y295827D01*
X108274Y296610D01*
X108652Y297522D01*
X108780Y298500D01*
X108652Y299478D01*
X108274Y300390D01*
X107673Y301173D01*
X106890Y301774D01*
X105978Y302152D01*
X105000Y302280D01*
X104022Y302152D01*
X103110Y301774D01*
X102327Y301173D01*
X101726Y300390D01*
X101348Y299478D01*
X101303Y299132D01*
X100803Y299164D01*
Y304629D01*
X101252Y304752D01*
X101303Y304752D01*
X104750D01*
Y308500D01*
Y312248D01*
X101303D01*
X101252Y312248D01*
X100803Y312371D01*
Y349197D01*
X349197D01*
Y100803D01*
D02*
G37*
G36*
X590882Y373382D02*
X590882Y274988D01*
X492488Y274988D01*
X492488Y373382D01*
X590882Y373382D01*
D02*
G37*
G36*
X471197D02*
X471197Y274988D01*
X372803Y274988D01*
X372803Y373382D01*
X471197Y373382D01*
D02*
G37*
G36*
X541067Y184909D02*
X467673Y184909D01*
X467673Y253304D01*
X541067Y253304D01*
X541067Y184909D01*
D02*
G37*
G36*
X446382D02*
X372988Y184909D01*
X372988Y253304D01*
X446382Y253304D01*
X446382Y184909D01*
D02*
G37*
G36*
X512273Y159197D02*
X512366Y158697D01*
X511745Y158076D01*
X511259Y157235D01*
X511008Y156297D01*
Y155325D01*
X511259Y154387D01*
X511745Y153546D01*
X512432Y152859D01*
X513273Y152374D01*
X514211Y152122D01*
X515183D01*
X516121Y152374D01*
X516962Y152859D01*
X517649Y153546D01*
X518134Y154387D01*
X518386Y155325D01*
Y156297D01*
X518134Y157235D01*
X517649Y158076D01*
X517028Y158697D01*
X517121Y159197D01*
X540382Y159197D01*
X540382Y100803D01*
X466988Y100803D01*
X466988Y159197D01*
X512273Y159197D01*
D02*
G37*
G36*
X417588D02*
X417681Y158697D01*
X417060Y158076D01*
X416574Y157235D01*
X416323Y156297D01*
Y155325D01*
X416574Y154387D01*
X417060Y153546D01*
X417747Y152859D01*
X418588Y152374D01*
X419526Y152122D01*
X420498D01*
X421436Y152374D01*
X422277Y152859D01*
X422964Y153546D01*
X423449Y154387D01*
X423701Y155325D01*
Y156297D01*
X423449Y157235D01*
X422964Y158076D01*
X422343Y158697D01*
X422436Y159197D01*
X445697Y159197D01*
X445697Y100803D01*
X372303Y100803D01*
X372303Y159197D01*
X417588Y159197D01*
D02*
G37*
%LPC*%
G36*
X237043Y340043D02*
X233250D01*
Y336250D01*
X237043D01*
Y340043D01*
D02*
G37*
G36*
X232750D02*
X228957D01*
Y336250D01*
X232750D01*
Y340043D01*
D02*
G37*
G36*
X296357Y338043D02*
X292564D01*
Y334250D01*
X296357D01*
Y338043D01*
D02*
G37*
G36*
X292064D02*
X288271D01*
Y334250D01*
X292064D01*
Y338043D01*
D02*
G37*
G36*
X193000Y340078D02*
X191945Y339939D01*
X190961Y339532D01*
X190116Y338884D01*
X189468Y338039D01*
X189061Y337055D01*
X188922Y336000D01*
X189061Y334945D01*
X189468Y333961D01*
X190116Y333116D01*
X190961Y332468D01*
X191945Y332061D01*
X193000Y331922D01*
X194055Y332061D01*
X195039Y332468D01*
X195884Y333116D01*
X196532Y333961D01*
X196939Y334945D01*
X197078Y336000D01*
X196939Y337055D01*
X196532Y338039D01*
X195884Y338884D01*
X195039Y339532D01*
X194055Y339939D01*
X193000Y340078D01*
D02*
G37*
G36*
X296357Y333750D02*
X292564D01*
Y329957D01*
X296357D01*
Y333750D01*
D02*
G37*
G36*
X292064D02*
X288271D01*
Y329957D01*
X292064D01*
Y333750D01*
D02*
G37*
G36*
X270657Y347029D02*
X189000D01*
X188415Y346913D01*
X187919Y346581D01*
X175419Y334081D01*
X175087Y333585D01*
X174971Y333000D01*
Y307712D01*
X172645Y305387D01*
X172279Y305142D01*
X171929Y304618D01*
X171806Y304000D01*
X171892Y303568D01*
Y292500D01*
Y268156D01*
X171392Y267888D01*
X171312Y267942D01*
X171271Y267950D01*
X171142Y268142D01*
X170618Y268492D01*
X170000Y268615D01*
X169382Y268492D01*
X168858Y268142D01*
X168508Y267618D01*
X168385Y267000D01*
X168508Y266382D01*
X168858Y265858D01*
X169382Y265508D01*
X170000Y265385D01*
X170618Y265508D01*
X170830Y265649D01*
X171892Y264587D01*
Y262000D01*
Y232740D01*
Y227000D01*
Y201020D01*
X167611D01*
X167492Y201618D01*
X167142Y202142D01*
X166618Y202492D01*
X166000Y202615D01*
X165382Y202492D01*
X164858Y202142D01*
X164508Y201618D01*
X164385Y201000D01*
X164508Y200382D01*
X164858Y199858D01*
X165382Y199508D01*
X166000Y199385D01*
X166145Y199414D01*
X166279Y199279D01*
X166610Y199058D01*
X167000Y198980D01*
X171896D01*
X172009Y198415D01*
X172340Y197919D01*
X172430Y197858D01*
X172471Y197655D01*
Y146029D01*
X135634D01*
X129134Y152529D01*
X128749Y152786D01*
X128641Y153610D01*
X128212Y154643D01*
X127531Y155531D01*
X126643Y156212D01*
X125610Y156641D01*
X124500Y156787D01*
X123390Y156641D01*
X122357Y156212D01*
X121469Y155531D01*
X120788Y154643D01*
X120359Y153610D01*
X120213Y152500D01*
X120359Y151391D01*
X120788Y150357D01*
X121469Y149469D01*
X122357Y148788D01*
X123390Y148359D01*
X124500Y148213D01*
X125610Y148359D01*
X126643Y148788D01*
X127531Y149469D01*
X127848Y149490D01*
X133919Y143419D01*
X134256Y143193D01*
X134301Y142983D01*
X134293Y142691D01*
X134273Y142626D01*
X133312Y141889D01*
X132505Y140838D01*
X131998Y139613D01*
X131825Y138299D01*
X131998Y136985D01*
X132505Y135761D01*
X133312Y134709D01*
X134363Y133903D01*
X135588Y133395D01*
X136902Y133222D01*
X138216Y133395D01*
X139440Y133903D01*
X140491Y134709D01*
X141298Y135761D01*
X141806Y136985D01*
X141979Y138299D01*
X141806Y139613D01*
X141298Y140838D01*
X140491Y141889D01*
X139734Y142471D01*
X139903Y142971D01*
X172884D01*
X172919Y142919D01*
X173415Y142587D01*
X174000Y142471D01*
X174250Y142520D01*
X174500Y142471D01*
X303000D01*
X303585Y142587D01*
X304081Y142919D01*
X315581Y154419D01*
X315581Y154419D01*
X318642Y157479D01*
X319060Y157562D01*
X319556Y157894D01*
X322726Y161063D01*
X323092Y161308D01*
X323442Y161832D01*
X323565Y162450D01*
X323529Y162630D01*
Y186568D01*
X323615Y187000D01*
X323492Y187618D01*
X323142Y188142D01*
X322776Y188387D01*
X321029Y190134D01*
Y237069D01*
X346534Y262574D01*
X346866Y263070D01*
X346982Y263656D01*
Y291047D01*
X346866Y291633D01*
X346534Y292129D01*
X344276Y294387D01*
X344364Y294599D01*
X344482Y295500D01*
X344364Y296401D01*
X344016Y297241D01*
X343462Y297962D01*
X342741Y298516D01*
X341901Y298864D01*
X341000Y298983D01*
X340099Y298864D01*
X339259Y298516D01*
X338538Y297962D01*
X337984Y297241D01*
X337636Y296401D01*
X337517Y295500D01*
X337636Y294599D01*
X337984Y293759D01*
X338538Y293038D01*
X339259Y292484D01*
X340099Y292136D01*
X341000Y292018D01*
X341901Y292136D01*
X342113Y292224D01*
X343923Y290414D01*
Y288119D01*
X343716Y288049D01*
X343423Y287993D01*
X342741Y288516D01*
X341901Y288864D01*
X341250Y288950D01*
Y285500D01*
Y282050D01*
X341901Y282136D01*
X342741Y282484D01*
X343423Y283007D01*
X343716Y282951D01*
X343923Y282881D01*
Y278119D01*
X343716Y278048D01*
X343423Y277993D01*
X342741Y278516D01*
X341901Y278864D01*
X341000Y278982D01*
X340099Y278864D01*
X339259Y278516D01*
X338538Y277962D01*
X337984Y277241D01*
X337685Y276520D01*
X321000D01*
X320610Y276442D01*
X320279Y276221D01*
X288279Y244221D01*
X288058Y243890D01*
X287980Y243500D01*
Y234227D01*
X287518Y234128D01*
X287480Y234136D01*
X287142Y234642D01*
X287020Y234724D01*
Y250078D01*
X338989Y302047D01*
X344453D01*
Y308953D01*
X337547D01*
Y303489D01*
X285279Y251221D01*
X285058Y250890D01*
X284980Y250500D01*
Y234724D01*
X284858Y234642D01*
X284508Y234118D01*
X284385Y233500D01*
X284508Y232882D01*
X284858Y232358D01*
X285382Y232008D01*
X286000Y231885D01*
X286618Y232008D01*
X287142Y232358D01*
X287480Y232864D01*
X287518Y232872D01*
X287980Y232773D01*
Y230724D01*
X287858Y230642D01*
X287508Y230118D01*
X287385Y229500D01*
X287508Y228882D01*
X287858Y228358D01*
X288382Y228008D01*
X289000Y227885D01*
X289618Y228008D01*
X290142Y228358D01*
X290480Y228864D01*
X290518Y228872D01*
X290980Y228773D01*
Y226224D01*
X290858Y226142D01*
X290508Y225618D01*
X290385Y225000D01*
X290508Y224382D01*
X290858Y223858D01*
X291382Y223508D01*
X292000Y223385D01*
X292618Y223508D01*
X293142Y223858D01*
X293492Y224382D01*
X293615Y225000D01*
X293492Y225618D01*
X293142Y226142D01*
X293020Y226224D01*
Y240078D01*
X301707Y248765D01*
X302616D01*
X303006Y248843D01*
X303337Y249063D01*
X312621Y258348D01*
X312842Y258679D01*
X312920Y259069D01*
Y259978D01*
X317422Y264480D01*
X337685D01*
X337984Y263759D01*
X338538Y263037D01*
X339259Y262484D01*
X340099Y262136D01*
X340951Y262024D01*
X341118Y261777D01*
X341215Y261581D01*
X318164Y238529D01*
X316634D01*
X316081Y239081D01*
X315585Y239413D01*
X315000Y239529D01*
X306432D01*
X306000Y239615D01*
X305382Y239492D01*
X304858Y239142D01*
X304508Y238618D01*
X304385Y238000D01*
X304508Y237382D01*
X304858Y236858D01*
X305382Y236508D01*
X306000Y236385D01*
X306432Y236471D01*
X314367D01*
X314919Y235919D01*
X315415Y235587D01*
X316000Y235471D01*
X317971D01*
Y189500D01*
X318087Y188915D01*
X318419Y188419D01*
X320471Y186366D01*
Y163134D01*
X317808Y160471D01*
X317390Y160388D01*
X316894Y160056D01*
X313419Y156581D01*
X313419Y156581D01*
X302366Y145529D01*
X175529D01*
Y197980D01*
X179276D01*
X179358Y197858D01*
X179882Y197508D01*
X180500Y197385D01*
X181118Y197508D01*
X181642Y197858D01*
X181992Y198382D01*
X182115Y199000D01*
X181992Y199618D01*
X181642Y200142D01*
X181118Y200492D01*
X180500Y200615D01*
X179882Y200492D01*
X179358Y200142D01*
X179276Y200020D01*
X175123D01*
X175081Y200081D01*
X174951Y200169D01*
Y223375D01*
X175413Y223567D01*
X177200Y221779D01*
X177531Y221558D01*
X177921Y221480D01*
X180276D01*
X180358Y221358D01*
X180882Y221008D01*
X181500Y220885D01*
X182118Y221008D01*
X182642Y221358D01*
X182992Y221882D01*
X183115Y222500D01*
X182992Y223118D01*
X182642Y223642D01*
X182118Y223992D01*
X181500Y224115D01*
X180882Y223992D01*
X180358Y223642D01*
X180276Y223520D01*
X178344D01*
X174951Y226912D01*
Y231771D01*
X175185Y232122D01*
X175308Y232740D01*
X175185Y233358D01*
X174951Y233709D01*
Y258375D01*
X175413Y258567D01*
X181630Y252349D01*
X181961Y252128D01*
X182351Y252051D01*
X196362D01*
X196444Y251928D01*
X196968Y251578D01*
X197586Y251455D01*
X197638Y251466D01*
X197797Y251317D01*
X197989Y251026D01*
X197885Y250500D01*
X198008Y249882D01*
X198358Y249358D01*
X198882Y249008D01*
X199500Y248885D01*
X200118Y249008D01*
X200642Y249358D01*
X200992Y249882D01*
X201115Y250500D01*
X200992Y251118D01*
X200642Y251642D01*
X200118Y251992D01*
X199500Y252115D01*
X199448Y252105D01*
X199290Y252254D01*
X199097Y252545D01*
X199201Y253070D01*
X199078Y253689D01*
X198728Y254213D01*
X198204Y254563D01*
X197586Y254686D01*
X196968Y254563D01*
X196444Y254213D01*
X196362Y254090D01*
X182773D01*
X176345Y260519D01*
X176536Y260980D01*
X194367D01*
X202569Y252779D01*
X202899Y252558D01*
X203290Y252480D01*
X234784D01*
X234901Y252504D01*
X235500Y252385D01*
X236118Y252508D01*
X236642Y252858D01*
X236992Y253382D01*
X237115Y254000D01*
X236992Y254618D01*
X236642Y255142D01*
X236118Y255492D01*
X235500Y255615D01*
X234882Y255492D01*
X234358Y255142D01*
X234008Y254618D01*
X233988Y254520D01*
X203712D01*
X195510Y262721D01*
X195180Y262942D01*
X194790Y263020D01*
X174951D01*
Y264500D01*
Y289564D01*
X175164Y289738D01*
X192192D01*
X192274Y289616D01*
X192798Y289265D01*
X193416Y289143D01*
X194034Y289265D01*
X194558Y289616D01*
X194908Y290140D01*
X195031Y290758D01*
X194908Y291376D01*
X194558Y291900D01*
X194034Y292250D01*
X193416Y292373D01*
X192798Y292250D01*
X192274Y291900D01*
X192192Y291777D01*
X175586D01*
X174951Y292412D01*
Y300375D01*
X175413Y300567D01*
X181279Y294701D01*
X181610Y294479D01*
X182000Y294402D01*
X202421D01*
X202812Y294479D01*
X203142Y294701D01*
X208717Y300275D01*
X208938Y300605D01*
X209015Y300996D01*
Y311937D01*
X209138Y312019D01*
X209488Y312543D01*
X209611Y313161D01*
X209488Y313779D01*
X209138Y314303D01*
X208614Y314653D01*
X207996Y314776D01*
X207377Y314653D01*
X206853Y314303D01*
X206503Y313779D01*
X206380Y313161D01*
X206503Y312543D01*
X206853Y312019D01*
X206976Y311937D01*
Y301418D01*
X201999Y296441D01*
X182422D01*
X175224Y303640D01*
X177581Y305997D01*
X177913Y306493D01*
X178029Y307079D01*
Y332366D01*
X189634Y343971D01*
X214549D01*
Y342922D01*
X214666Y342336D01*
X214848Y342063D01*
X214581Y341563D01*
X207543D01*
X207153Y341485D01*
X206822Y341264D01*
X205068Y339510D01*
X205039Y339532D01*
X204056Y339939D01*
X203000Y340078D01*
X201944Y339939D01*
X200961Y339532D01*
X200116Y338884D01*
X199468Y338039D01*
X199061Y337055D01*
X198922Y336000D01*
X199061Y334945D01*
X199468Y333961D01*
X200116Y333116D01*
X200961Y332468D01*
X201944Y332061D01*
X203000Y331922D01*
X204056Y332061D01*
X205039Y332468D01*
X205884Y333116D01*
X206532Y333961D01*
X206939Y334945D01*
X207078Y336000D01*
X206939Y337055D01*
X206532Y338039D01*
X206510Y338068D01*
X207966Y339524D01*
X210173D01*
X210333Y339050D01*
X210116Y338884D01*
X209468Y338039D01*
X209061Y337055D01*
X208922Y336000D01*
X209061Y334945D01*
X209468Y333961D01*
X210116Y333116D01*
X210961Y332468D01*
X210980Y332460D01*
Y327500D01*
X211058Y327110D01*
X211279Y326779D01*
X223279Y314779D01*
X223610Y314558D01*
X224000Y314480D01*
X269078D01*
X269879Y313679D01*
X269959Y313626D01*
X270008Y313382D01*
X270358Y312858D01*
X270882Y312508D01*
X271092Y312466D01*
X278480Y305078D01*
Y183500D01*
X278558Y183110D01*
X278779Y182779D01*
X280896Y180662D01*
X281227Y180441D01*
X281617Y180363D01*
X283468D01*
X283550Y180240D01*
X284074Y179890D01*
X284692Y179767D01*
X285310Y179890D01*
X285834Y180240D01*
X286185Y180764D01*
X286307Y181383D01*
X286185Y182001D01*
X285834Y182525D01*
X285310Y182875D01*
X284692Y182998D01*
X284074Y182875D01*
X283550Y182525D01*
X283468Y182402D01*
X282040D01*
X280520Y183922D01*
Y194385D01*
X280981Y194577D01*
X282913Y192645D01*
X282885Y192500D01*
X283008Y191882D01*
X283358Y191358D01*
X283882Y191008D01*
X284500Y190885D01*
X285118Y191008D01*
X285642Y191358D01*
X285992Y191882D01*
X286115Y192500D01*
X286057Y192794D01*
X286518Y193041D01*
X290480Y189078D01*
Y183724D01*
X290358Y183642D01*
X290008Y183118D01*
X289885Y182500D01*
X290008Y181882D01*
X290358Y181358D01*
X290882Y181008D01*
X291500Y180885D01*
X292118Y181008D01*
X292642Y181358D01*
X292992Y181882D01*
X293115Y182500D01*
X292992Y183118D01*
X292642Y183642D01*
X292520Y183724D01*
Y189500D01*
X292442Y189890D01*
X292221Y190221D01*
X286020Y196422D01*
Y207276D01*
X286142Y207358D01*
X286492Y207882D01*
X286615Y208500D01*
X286492Y209118D01*
X286142Y209642D01*
X285618Y209992D01*
X285000Y210115D01*
X284382Y209992D01*
X283858Y209642D01*
X283508Y209118D01*
X283385Y208500D01*
X283508Y207882D01*
X283858Y207358D01*
X283980Y207276D01*
Y196000D01*
X284058Y195610D01*
X284279Y195279D01*
X284988Y194571D01*
X284768Y194131D01*
X284335Y194107D01*
X282020Y196422D01*
Y306621D01*
X281942Y307012D01*
X281721Y307342D01*
X275020Y314044D01*
Y322314D01*
X274942Y322704D01*
X274721Y323035D01*
X265824Y331932D01*
X265846Y331961D01*
X266253Y332944D01*
X266392Y334000D01*
X266253Y335055D01*
X265846Y336039D01*
X265198Y336884D01*
X264353Y337532D01*
X263369Y337939D01*
X262314Y338078D01*
X261259Y337939D01*
X260275Y337532D01*
X260246Y337510D01*
X258492Y339264D01*
X258161Y339485D01*
X257771Y339563D01*
X244044D01*
X243654Y339485D01*
X243323Y339264D01*
X237505Y333446D01*
X237043Y333638D01*
Y335750D01*
X233000D01*
X228957D01*
Y332476D01*
X225827D01*
X225667Y332950D01*
X225884Y333116D01*
X226532Y333961D01*
X226939Y334945D01*
X227078Y336000D01*
X226939Y337055D01*
X226532Y338039D01*
X225884Y338884D01*
X225039Y339532D01*
X224056Y339939D01*
X223000Y340078D01*
X221944Y339939D01*
X221435Y339728D01*
X217692Y343471D01*
X217812Y343971D01*
X270023D01*
X278540Y335454D01*
X278375Y335055D01*
X278236Y334000D01*
X278375Y332944D01*
X278782Y331961D01*
X279430Y331116D01*
X280275Y330468D01*
X281259Y330061D01*
X282314Y329922D01*
X283369Y330061D01*
X284353Y330468D01*
X285198Y331116D01*
X285846Y331961D01*
X286253Y332944D01*
X286392Y334000D01*
X286253Y335055D01*
X285846Y336039D01*
X285198Y336884D01*
X284353Y337532D01*
X283369Y337939D01*
X282314Y338078D01*
X281259Y337939D01*
X280638Y337682D01*
X271738Y346581D01*
X271242Y346913D01*
X270657Y347029D01*
D02*
G37*
G36*
X272314Y338078D02*
X271258Y337939D01*
X270275Y337532D01*
X269430Y336884D01*
X268782Y336039D01*
X268375Y335055D01*
X268236Y334000D01*
X268375Y332944D01*
X268782Y331961D01*
X269430Y331116D01*
X270275Y330468D01*
X271258Y330061D01*
X272314Y329922D01*
X273370Y330061D01*
X274353Y330468D01*
X275198Y331116D01*
X275846Y331961D01*
X276253Y332944D01*
X276392Y334000D01*
X276253Y335055D01*
X275846Y336039D01*
X275198Y336884D01*
X274353Y337532D01*
X273370Y337939D01*
X272314Y338078D01*
D02*
G37*
G36*
X331000Y337616D02*
X329709Y337489D01*
X328468Y337112D01*
X327324Y336501D01*
X326322Y335678D01*
X325499Y334676D01*
X324887Y333532D01*
X324511Y332291D01*
X324384Y331000D01*
X324511Y329709D01*
X324887Y328468D01*
X325499Y327324D01*
X326322Y326322D01*
X327324Y325499D01*
X328468Y324887D01*
X329709Y324511D01*
X331000Y324384D01*
X332291Y324511D01*
X333532Y324887D01*
X334676Y325499D01*
X335678Y326322D01*
X336501Y327324D01*
X337112Y328468D01*
X337489Y329709D01*
X337616Y331000D01*
X337489Y332291D01*
X337112Y333532D01*
X336501Y334676D01*
X335678Y335678D01*
X334676Y336501D01*
X333532Y337112D01*
X332291Y337489D01*
X331000Y337616D01*
D02*
G37*
G36*
X119000D02*
X117709Y337489D01*
X116468Y337112D01*
X115324Y336501D01*
X114322Y335678D01*
X113499Y334676D01*
X112888Y333532D01*
X112511Y332291D01*
X112384Y331000D01*
X112511Y329709D01*
X112888Y328468D01*
X113499Y327324D01*
X114322Y326322D01*
X115324Y325499D01*
X116468Y324887D01*
X117709Y324511D01*
X119000Y324384D01*
X120291Y324511D01*
X121532Y324887D01*
X122676Y325499D01*
X123678Y326322D01*
X124501Y327324D01*
X125112Y328468D01*
X125489Y329709D01*
X125616Y331000D01*
X125489Y332291D01*
X125112Y333532D01*
X124501Y334676D01*
X123678Y335678D01*
X122676Y336501D01*
X121532Y337112D01*
X120291Y337489D01*
X119000Y337616D01*
D02*
G37*
G36*
X105250Y312248D02*
Y308750D01*
X108748D01*
Y312248D01*
X105250D01*
D02*
G37*
G36*
X108748Y308250D02*
X105250D01*
Y304752D01*
X108748D01*
Y308250D01*
D02*
G37*
G36*
X340750Y288950D02*
X340099Y288864D01*
X339259Y288516D01*
X338538Y287963D01*
X337984Y287241D01*
X337636Y286401D01*
X337550Y285750D01*
X340750D01*
Y288950D01*
D02*
G37*
G36*
Y285250D02*
X337550D01*
X337636Y284599D01*
X337984Y283759D01*
X338538Y283037D01*
X339259Y282484D01*
X340099Y282136D01*
X340750Y282050D01*
Y285250D01*
D02*
G37*
G36*
X105250Y281748D02*
Y278250D01*
X108748D01*
Y281748D01*
X105250D01*
D02*
G37*
G36*
X108748Y277750D02*
X105250D01*
Y274252D01*
X108748D01*
Y277750D01*
D02*
G37*
G36*
X105250Y251248D02*
Y247750D01*
X108748D01*
Y251248D01*
X105250D01*
D02*
G37*
G36*
X108748Y247250D02*
X105250D01*
Y243752D01*
X108748D01*
Y247250D01*
D02*
G37*
G36*
X261000Y250711D02*
X257000D01*
X256728Y250656D01*
X256498Y250502D01*
X256344Y250272D01*
X256290Y250000D01*
Y239000D01*
X256344Y238728D01*
X256498Y238498D01*
X256728Y238344D01*
X257000Y238289D01*
X261000D01*
X261272Y238344D01*
X261502Y238498D01*
X261656Y238728D01*
X261711Y239000D01*
Y250000D01*
X261656Y250272D01*
X261502Y250502D01*
X261272Y250656D01*
X261000Y250711D01*
D02*
G37*
G36*
X333256Y234504D02*
X326744D01*
Y227992D01*
X333256D01*
Y234504D01*
D02*
G37*
G36*
X330250Y226625D02*
Y223624D01*
X333251D01*
X333172Y224224D01*
X332844Y225016D01*
X332322Y225696D01*
X331642Y226218D01*
X330850Y226546D01*
X330250Y226625D01*
D02*
G37*
G36*
X329750D02*
X329150Y226546D01*
X328358Y226218D01*
X327678Y225696D01*
X327156Y225016D01*
X326828Y224224D01*
X326749Y223624D01*
X329750D01*
Y226625D01*
D02*
G37*
G36*
X333251Y223124D02*
X330250D01*
Y220123D01*
X330850Y220202D01*
X331642Y220530D01*
X332322Y221052D01*
X332844Y221732D01*
X333172Y222524D01*
X333251Y223124D01*
D02*
G37*
G36*
X329750D02*
X326749D01*
X326828Y222524D01*
X327156Y221732D01*
X327678Y221052D01*
X328358Y220530D01*
X329150Y220202D01*
X329750Y220123D01*
Y223124D01*
D02*
G37*
G36*
X105250Y219248D02*
Y215750D01*
X108748D01*
Y219248D01*
X105250D01*
D02*
G37*
G36*
X330000Y218784D02*
X329150Y218672D01*
X328358Y218344D01*
X327678Y217822D01*
X327156Y217142D01*
X326828Y216350D01*
X326716Y215500D01*
X326828Y214650D01*
X327156Y213858D01*
X327678Y213178D01*
X328358Y212656D01*
X329150Y212328D01*
X330000Y212216D01*
X330850Y212328D01*
X331642Y212656D01*
X332322Y213178D01*
X332844Y213858D01*
X333172Y214650D01*
X333284Y215500D01*
X333172Y216350D01*
X332844Y217142D01*
X332322Y217822D01*
X331642Y218344D01*
X330850Y218672D01*
X330000Y218784D01*
D02*
G37*
G36*
X108748Y215250D02*
X105250D01*
Y211752D01*
X108748D01*
Y215250D01*
D02*
G37*
G36*
X203500Y192099D02*
X202753Y192001D01*
X202057Y191713D01*
X201459Y191254D01*
X201000Y190656D01*
X200711Y189960D01*
X200613Y189213D01*
X200711Y188465D01*
X201000Y187769D01*
X201459Y187171D01*
X202057Y186713D01*
X202753Y186424D01*
X203500Y186326D01*
X204247Y186424D01*
X204943Y186713D01*
X205541Y187171D01*
X206000Y187769D01*
X206289Y188465D01*
X206387Y189213D01*
X206289Y189960D01*
X206000Y190656D01*
X205541Y191254D01*
X204943Y191713D01*
X204247Y192001D01*
X203500Y192099D01*
D02*
G37*
G36*
Y182493D02*
X202753Y182395D01*
X202057Y182106D01*
X201459Y181648D01*
X201000Y181050D01*
X200711Y180353D01*
X200613Y179606D01*
X200711Y178859D01*
X201000Y178163D01*
X201459Y177565D01*
X202057Y177106D01*
X202753Y176818D01*
X203500Y176719D01*
X204247Y176818D01*
X204943Y177106D01*
X205541Y177565D01*
X206000Y178163D01*
X206289Y178859D01*
X206387Y179606D01*
X206289Y180353D01*
X206000Y181050D01*
X205541Y181648D01*
X204943Y182106D01*
X204247Y182395D01*
X203500Y182493D01*
D02*
G37*
G36*
X334256Y182004D02*
X327744D01*
Y175492D01*
X334256D01*
Y182004D01*
D02*
G37*
G36*
X331250Y174125D02*
Y171124D01*
X334251D01*
X334172Y171724D01*
X333844Y172516D01*
X333322Y173196D01*
X332642Y173718D01*
X331850Y174046D01*
X331250Y174125D01*
D02*
G37*
G36*
X330750D02*
X330150Y174046D01*
X329358Y173718D01*
X328678Y173196D01*
X328156Y172516D01*
X327828Y171724D01*
X327749Y171124D01*
X330750D01*
Y174125D01*
D02*
G37*
G36*
X124500Y176787D02*
X123390Y176641D01*
X122357Y176212D01*
X121469Y175531D01*
X120788Y174643D01*
X120359Y173609D01*
X120213Y172500D01*
X120359Y171390D01*
X120788Y170357D01*
X121469Y169469D01*
X122357Y168788D01*
X123390Y168359D01*
X124500Y168213D01*
X125610Y168359D01*
X126643Y168788D01*
X127531Y169469D01*
X128212Y170357D01*
X128641Y171390D01*
X128787Y172500D01*
X128641Y173609D01*
X128212Y174643D01*
X127531Y175531D01*
X126643Y176212D01*
X125610Y176641D01*
X124500Y176787D01*
D02*
G37*
G36*
X334251Y170624D02*
X331250D01*
Y167623D01*
X331850Y167702D01*
X332642Y168030D01*
X333322Y168552D01*
X333844Y169232D01*
X334172Y170024D01*
X334251Y170624D01*
D02*
G37*
G36*
X330750D02*
X327749D01*
X327828Y170024D01*
X328156Y169232D01*
X328678Y168552D01*
X329358Y168030D01*
X330150Y167702D01*
X330750Y167623D01*
Y170624D01*
D02*
G37*
G36*
X206362Y172862D02*
X200638D01*
Y167138D01*
X206362D01*
Y172862D01*
D02*
G37*
G36*
X331000Y166284D02*
X330150Y166172D01*
X329358Y165844D01*
X328678Y165322D01*
X328156Y164642D01*
X327828Y163850D01*
X327716Y163000D01*
X327828Y162150D01*
X328156Y161358D01*
X328678Y160678D01*
X329358Y160156D01*
X330150Y159828D01*
X331000Y159716D01*
X331850Y159828D01*
X332642Y160156D01*
X333322Y160678D01*
X333844Y161358D01*
X334172Y162150D01*
X334284Y163000D01*
X334172Y163850D01*
X333844Y164642D01*
X333322Y165322D01*
X332642Y165844D01*
X331850Y166172D01*
X331000Y166284D01*
D02*
G37*
G36*
X124500Y166787D02*
X123390Y166641D01*
X122357Y166212D01*
X121469Y165531D01*
X120788Y164643D01*
X120359Y163610D01*
X120213Y162500D01*
X120359Y161390D01*
X120788Y160357D01*
X121469Y159469D01*
X122357Y158788D01*
X123390Y158359D01*
X124500Y158213D01*
X125610Y158359D01*
X126643Y158788D01*
X127531Y159469D01*
X128212Y160357D01*
X128641Y161390D01*
X128787Y162500D01*
X128641Y163610D01*
X128212Y164643D01*
X127531Y165531D01*
X126643Y166212D01*
X125610Y166641D01*
X124500Y166787D01*
D02*
G37*
G36*
X124750Y146754D02*
Y142750D01*
X128754D01*
X128641Y143609D01*
X128212Y144643D01*
X127531Y145531D01*
X126643Y146212D01*
X125610Y146641D01*
X124750Y146754D01*
D02*
G37*
G36*
X124250D02*
X123390Y146641D01*
X122357Y146212D01*
X121469Y145531D01*
X120788Y144643D01*
X120359Y143609D01*
X120246Y142750D01*
X124250D01*
Y146754D01*
D02*
G37*
G36*
X128754Y142250D02*
X124750D01*
Y138246D01*
X125610Y138359D01*
X126643Y138788D01*
X127531Y139469D01*
X128212Y140357D01*
X128641Y141391D01*
X128754Y142250D01*
D02*
G37*
G36*
X124250D02*
X120246D01*
X120359Y141391D01*
X120788Y140357D01*
X121469Y139469D01*
X122357Y138788D01*
X123390Y138359D01*
X124250Y138246D01*
Y142250D01*
D02*
G37*
G36*
X330500Y125616D02*
X329209Y125489D01*
X327968Y125112D01*
X326824Y124501D01*
X325822Y123678D01*
X324999Y122676D01*
X324388Y121532D01*
X324011Y120291D01*
X323884Y119000D01*
X324011Y117709D01*
X324388Y116468D01*
X324999Y115324D01*
X325822Y114322D01*
X326824Y113499D01*
X327968Y112888D01*
X329209Y112511D01*
X330500Y112384D01*
X331791Y112511D01*
X333032Y112888D01*
X334176Y113499D01*
X335178Y114322D01*
X336001Y115324D01*
X336613Y116468D01*
X336989Y117709D01*
X337116Y119000D01*
X336989Y120291D01*
X336613Y121532D01*
X336001Y122676D01*
X335178Y123678D01*
X334176Y124501D01*
X333032Y125112D01*
X331791Y125489D01*
X330500Y125616D01*
D02*
G37*
G36*
X119000Y125116D02*
X117709Y124989D01*
X116468Y124612D01*
X115324Y124001D01*
X114322Y123178D01*
X113499Y122176D01*
X112888Y121032D01*
X112511Y119791D01*
X112384Y118500D01*
X112511Y117209D01*
X112888Y115968D01*
X113499Y114824D01*
X114322Y113822D01*
X115324Y112999D01*
X116468Y112388D01*
X117709Y112011D01*
X119000Y111884D01*
X120291Y112011D01*
X121532Y112388D01*
X122676Y112999D01*
X123678Y113822D01*
X124501Y114824D01*
X125112Y115968D01*
X125489Y117209D01*
X125616Y118500D01*
X125489Y119791D01*
X125112Y121032D01*
X124501Y122176D01*
X123678Y123178D01*
X122676Y124001D01*
X121532Y124612D01*
X120291Y124989D01*
X119000Y125116D01*
D02*
G37*
%LPD*%
G36*
X258804Y336068D02*
X258782Y336039D01*
X258375Y335055D01*
X258236Y334000D01*
X258375Y332944D01*
X258782Y331961D01*
X259430Y331116D01*
X260275Y330468D01*
X261259Y330061D01*
X262314Y329922D01*
X263369Y330061D01*
X264353Y330468D01*
X264382Y330490D01*
X272980Y321892D01*
Y315468D01*
X272480Y315250D01*
X272118Y315492D01*
X271500Y315615D01*
X270938Y315504D01*
X270221Y316221D01*
X269890Y316442D01*
X269500Y316520D01*
X224422D01*
X213020Y327922D01*
Y331924D01*
X214055Y332061D01*
X215039Y332468D01*
X215884Y333116D01*
X216532Y333961D01*
X216578Y334072D01*
X216751Y334112D01*
X217125Y334085D01*
X217279Y333854D01*
X220397Y330736D01*
X220728Y330515D01*
X221118Y330437D01*
X236958D01*
X237348Y330515D01*
X237679Y330736D01*
X244466Y337524D01*
X249487D01*
X249647Y337050D01*
X249430Y336884D01*
X248782Y336039D01*
X248375Y335055D01*
X248236Y334000D01*
X248375Y332944D01*
X248782Y331961D01*
X249430Y331116D01*
X250275Y330468D01*
X251258Y330061D01*
X252314Y329922D01*
X253369Y330061D01*
X254353Y330468D01*
X255198Y331116D01*
X255846Y331961D01*
X256253Y332944D01*
X256392Y334000D01*
X256253Y335055D01*
X255846Y336039D01*
X255198Y336884D01*
X254981Y337050D01*
X255141Y337524D01*
X257348D01*
X258804Y336068D01*
D02*
G37*
G36*
X337984Y273759D02*
X338538Y273038D01*
X339259Y272484D01*
X340099Y272136D01*
X341000Y272018D01*
X341901Y272136D01*
X342741Y272484D01*
X343423Y273007D01*
X343716Y272952D01*
X343923Y272881D01*
Y268119D01*
X343716Y268049D01*
X343423Y267993D01*
X342741Y268516D01*
X341901Y268864D01*
X341000Y268983D01*
X340099Y268864D01*
X339259Y268516D01*
X338538Y267963D01*
X337984Y267241D01*
X337685Y266520D01*
X317000D01*
X316610Y266442D01*
X316279Y266221D01*
X311179Y261121D01*
X310958Y260790D01*
X310880Y260400D01*
Y259491D01*
X302193Y250804D01*
X301284D01*
X300894Y250726D01*
X300564Y250505D01*
X291279Y241221D01*
X291058Y240890D01*
X290980Y240500D01*
Y230227D01*
X290518Y230128D01*
X290480Y230136D01*
X290142Y230642D01*
X290020Y230724D01*
Y243078D01*
X321422Y274480D01*
X337685D01*
X337984Y273759D01*
D02*
G37*
%LPC*%
G36*
X583333Y371769D02*
X582036D01*
X580764Y371516D01*
X579566Y371020D01*
X578488Y370299D01*
X577571Y369382D01*
X576850Y368304D01*
X576354Y367106D01*
X576101Y365833D01*
Y364536D01*
X576354Y363264D01*
X576850Y362066D01*
X577571Y360988D01*
X578488Y360071D01*
X579566Y359350D01*
X580764Y358854D01*
X582036Y358601D01*
X583333D01*
X584606Y358854D01*
X585804Y359350D01*
X586882Y360071D01*
X587799Y360988D01*
X588520Y362066D01*
X589016Y363264D01*
X589269Y364536D01*
Y365833D01*
X589016Y367106D01*
X588520Y368304D01*
X587799Y369382D01*
X586882Y370299D01*
X585804Y371020D01*
X584606Y371516D01*
X583333Y371769D01*
D02*
G37*
G36*
X501334D02*
X500036D01*
X498765Y371516D01*
X497566Y371020D01*
X496488Y370299D01*
X495571Y369382D01*
X494850Y368304D01*
X494354Y367106D01*
X494101Y365833D01*
Y364536D01*
X494354Y363264D01*
X494850Y362066D01*
X495571Y360988D01*
X496488Y360071D01*
X497566Y359350D01*
X498765Y358854D01*
X500036Y358601D01*
X501334D01*
X502606Y358854D01*
X503804Y359350D01*
X504882Y360071D01*
X505799Y360988D01*
X506520Y362066D01*
X507016Y363264D01*
X507269Y364536D01*
Y365833D01*
X507016Y367106D01*
X506520Y368304D01*
X505799Y369382D01*
X504882Y370299D01*
X503804Y371020D01*
X502606Y371516D01*
X501334Y371769D01*
D02*
G37*
G36*
X567228Y363728D02*
X559142D01*
Y355642D01*
X567228D01*
Y363728D01*
D02*
G37*
G36*
X553717D02*
X552653D01*
X551624Y363453D01*
X550702Y362920D01*
X549950Y362168D01*
X549417Y361246D01*
X549142Y360217D01*
Y359153D01*
X549417Y358124D01*
X549950Y357202D01*
X550702Y356450D01*
X551624Y355917D01*
X552653Y355642D01*
X553717D01*
X554746Y355917D01*
X555668Y356450D01*
X556421Y357202D01*
X556953Y358124D01*
X557228Y359153D01*
Y360217D01*
X556953Y361246D01*
X556421Y362168D01*
X555668Y362920D01*
X554746Y363453D01*
X553717Y363728D01*
D02*
G37*
G36*
X543717D02*
X542653D01*
X541624Y363453D01*
X540702Y362920D01*
X539950Y362168D01*
X539417Y361246D01*
X539142Y360217D01*
Y359153D01*
X539417Y358124D01*
X539950Y357202D01*
X540702Y356450D01*
X541624Y355917D01*
X542653Y355642D01*
X543717D01*
X544746Y355917D01*
X545668Y356450D01*
X546420Y357202D01*
X546953Y358124D01*
X547228Y359153D01*
Y360217D01*
X546953Y361246D01*
X546420Y362168D01*
X545668Y362920D01*
X544746Y363453D01*
X543717Y363728D01*
D02*
G37*
G36*
X533717D02*
X532653D01*
X531624Y363453D01*
X530702Y362920D01*
X529950Y362168D01*
X529417Y361246D01*
X529142Y360217D01*
Y359153D01*
X529417Y358124D01*
X529950Y357202D01*
X530702Y356450D01*
X531624Y355917D01*
X532653Y355642D01*
X533717D01*
X534746Y355917D01*
X535668Y356450D01*
X536420Y357202D01*
X536953Y358124D01*
X537228Y359153D01*
Y360217D01*
X536953Y361246D01*
X536420Y362168D01*
X535668Y362920D01*
X534746Y363453D01*
X533717Y363728D01*
D02*
G37*
G36*
X523717D02*
X522653D01*
X521624Y363453D01*
X520702Y362920D01*
X519950Y362168D01*
X519417Y361246D01*
X519142Y360217D01*
Y359153D01*
X519417Y358124D01*
X519950Y357202D01*
X520702Y356450D01*
X521624Y355917D01*
X522653Y355642D01*
X523717D01*
X524746Y355917D01*
X525668Y356450D01*
X526420Y357202D01*
X526953Y358124D01*
X527228Y359153D01*
Y360217D01*
X526953Y361246D01*
X526420Y362168D01*
X525668Y362920D01*
X524746Y363453D01*
X523717Y363728D01*
D02*
G37*
G36*
X501334Y289769D02*
X500036D01*
X498765Y289516D01*
X497566Y289020D01*
X496488Y288299D01*
X495571Y287382D01*
X494850Y286304D01*
X494354Y285105D01*
X494101Y283833D01*
Y282536D01*
X494354Y281264D01*
X494850Y280066D01*
X495571Y278988D01*
X496488Y278071D01*
X497566Y277350D01*
X498765Y276854D01*
X500036Y276601D01*
X501334D01*
X502606Y276854D01*
X503804Y277350D01*
X504882Y278071D01*
X505799Y278988D01*
X506520Y280066D01*
X507016Y281264D01*
X507269Y282536D01*
Y283833D01*
X507016Y285105D01*
X506520Y286304D01*
X505799Y287382D01*
X504882Y288299D01*
X503804Y289020D01*
X502606Y289516D01*
X501334Y289769D01*
D02*
G37*
G36*
X583333Y289769D02*
X582036D01*
X580764Y289516D01*
X579566Y289020D01*
X578488Y288299D01*
X577571Y287382D01*
X576850Y286304D01*
X576354Y285105D01*
X576101Y283833D01*
Y282536D01*
X576354Y281264D01*
X576850Y280066D01*
X577571Y278988D01*
X578488Y278071D01*
X579566Y277350D01*
X580764Y276854D01*
X582036Y276601D01*
X583333D01*
X584606Y276854D01*
X585804Y277350D01*
X586882Y278071D01*
X587799Y278988D01*
X588520Y280066D01*
X589016Y281264D01*
X589269Y282536D01*
Y283833D01*
X589016Y285105D01*
X588520Y286304D01*
X587799Y287382D01*
X586882Y288299D01*
X585804Y289020D01*
X584606Y289516D01*
X583333Y289769D01*
D02*
G37*
G36*
X463649Y371769D02*
X462352D01*
X461079Y371516D01*
X459881Y371020D01*
X458803Y370299D01*
X457886Y369382D01*
X457165Y368304D01*
X456669Y367106D01*
X456416Y365833D01*
Y364536D01*
X456669Y363264D01*
X457165Y362066D01*
X457886Y360988D01*
X458803Y360071D01*
X459881Y359350D01*
X461079Y358854D01*
X462352Y358601D01*
X463649D01*
X464921Y358854D01*
X466119Y359350D01*
X467197Y360071D01*
X468114Y360988D01*
X468835Y362066D01*
X469331Y363264D01*
X469584Y364536D01*
Y365833D01*
X469331Y367106D01*
X468835Y368304D01*
X468114Y369382D01*
X467197Y370299D01*
X466119Y371020D01*
X464921Y371516D01*
X463649Y371769D01*
D02*
G37*
G36*
X381648D02*
X380351D01*
X379079Y371516D01*
X377881Y371020D01*
X376803Y370299D01*
X375886Y369382D01*
X375165Y368304D01*
X374669Y367106D01*
X374416Y365833D01*
Y364536D01*
X374669Y363264D01*
X375165Y362066D01*
X375886Y360988D01*
X376803Y360071D01*
X377881Y359350D01*
X379079Y358854D01*
X380351Y358601D01*
X381648D01*
X382921Y358854D01*
X384119Y359350D01*
X385197Y360071D01*
X386114Y360988D01*
X386835Y362066D01*
X387331Y363264D01*
X387584Y364536D01*
Y365833D01*
X387331Y367106D01*
X386835Y368304D01*
X386114Y369382D01*
X385197Y370299D01*
X384119Y371020D01*
X382921Y371516D01*
X381648Y371769D01*
D02*
G37*
G36*
X447543Y363728D02*
X439457D01*
Y355642D01*
X447543D01*
Y363728D01*
D02*
G37*
G36*
X434032D02*
X432968D01*
X431939Y363453D01*
X431017Y362920D01*
X430265Y362168D01*
X429732Y361246D01*
X429457Y360217D01*
Y359153D01*
X429732Y358124D01*
X430265Y357202D01*
X431017Y356450D01*
X431939Y355917D01*
X432968Y355642D01*
X434032D01*
X435061Y355917D01*
X435983Y356450D01*
X436735Y357202D01*
X437268Y358124D01*
X437543Y359153D01*
Y360217D01*
X437268Y361246D01*
X436735Y362168D01*
X435983Y362920D01*
X435061Y363453D01*
X434032Y363728D01*
D02*
G37*
G36*
X424032D02*
X422968D01*
X421939Y363453D01*
X421017Y362920D01*
X420264Y362168D01*
X419732Y361246D01*
X419457Y360217D01*
Y359153D01*
X419732Y358124D01*
X420264Y357202D01*
X421017Y356450D01*
X421939Y355917D01*
X422968Y355642D01*
X424032D01*
X425061Y355917D01*
X425983Y356450D01*
X426735Y357202D01*
X427268Y358124D01*
X427543Y359153D01*
Y360217D01*
X427268Y361246D01*
X426735Y362168D01*
X425983Y362920D01*
X425061Y363453D01*
X424032Y363728D01*
D02*
G37*
G36*
X414032D02*
X412968D01*
X411939Y363453D01*
X411017Y362920D01*
X410264Y362168D01*
X409732Y361246D01*
X409457Y360217D01*
Y359153D01*
X409732Y358124D01*
X410264Y357202D01*
X411017Y356450D01*
X411939Y355917D01*
X412968Y355642D01*
X414032D01*
X415061Y355917D01*
X415983Y356450D01*
X416736Y357202D01*
X417268Y358124D01*
X417543Y359153D01*
Y360217D01*
X417268Y361246D01*
X416736Y362168D01*
X415983Y362920D01*
X415061Y363453D01*
X414032Y363728D01*
D02*
G37*
G36*
X404032D02*
X402968D01*
X401939Y363453D01*
X401017Y362920D01*
X400265Y362168D01*
X399732Y361246D01*
X399457Y360217D01*
Y359153D01*
X399732Y358124D01*
X400265Y357202D01*
X401017Y356450D01*
X401939Y355917D01*
X402968Y355642D01*
X404032D01*
X405061Y355917D01*
X405983Y356450D01*
X406735Y357202D01*
X407268Y358124D01*
X407543Y359153D01*
Y360217D01*
X407268Y361246D01*
X406735Y362168D01*
X405983Y362920D01*
X405061Y363453D01*
X404032Y363728D01*
D02*
G37*
G36*
X381648Y289769D02*
X380351D01*
X379079Y289516D01*
X377881Y289020D01*
X376803Y288299D01*
X375886Y287382D01*
X375165Y286304D01*
X374669Y285105D01*
X374416Y283833D01*
Y282536D01*
X374669Y281264D01*
X375165Y280066D01*
X375886Y278988D01*
X376803Y278071D01*
X377881Y277350D01*
X379079Y276854D01*
X380351Y276601D01*
X381648D01*
X382921Y276854D01*
X384119Y277350D01*
X385197Y278071D01*
X386114Y278988D01*
X386835Y280066D01*
X387331Y281264D01*
X387584Y282536D01*
Y283833D01*
X387331Y285105D01*
X386835Y286304D01*
X386114Y287382D01*
X385197Y288299D01*
X384119Y289020D01*
X382921Y289516D01*
X381648Y289769D01*
D02*
G37*
G36*
X463649Y289769D02*
X462352D01*
X461079Y289516D01*
X459881Y289020D01*
X458803Y288299D01*
X457886Y287382D01*
X457165Y286304D01*
X456669Y285105D01*
X456416Y283833D01*
Y282536D01*
X456669Y281264D01*
X457165Y280066D01*
X457886Y278988D01*
X458803Y278071D01*
X459881Y277350D01*
X461079Y276854D01*
X462352Y276601D01*
X463649D01*
X464921Y276854D01*
X466119Y277350D01*
X467197Y278071D01*
X468114Y278988D01*
X468835Y280066D01*
X469331Y281264D01*
X469584Y282536D01*
Y283833D01*
X469331Y285105D01*
X468835Y286304D01*
X468114Y287382D01*
X467197Y288299D01*
X466119Y289020D01*
X464921Y289516D01*
X463649Y289769D01*
D02*
G37*
G36*
X515500Y245362D02*
X508988D01*
Y240083D01*
X508526Y239892D01*
X507439Y240979D01*
X507626Y241678D01*
Y242535D01*
X507404Y243363D01*
X506976Y244105D01*
X506369Y244712D01*
X505627Y245140D01*
X504799Y245362D01*
X503941D01*
X503113Y245140D01*
X502371Y244712D01*
X501765Y244105D01*
X501336Y243363D01*
X501114Y242535D01*
Y241678D01*
X501336Y240849D01*
X501765Y240107D01*
X502371Y239501D01*
X503113Y239072D01*
X503941Y238850D01*
X504799D01*
X505627Y239072D01*
X506156Y239378D01*
X510734Y234801D01*
Y226723D01*
X510811Y226333D01*
X511032Y226002D01*
X516847Y220188D01*
X515266Y218606D01*
X519870Y214002D01*
X524475Y218606D01*
X519870Y223211D01*
X518289Y221630D01*
X512773Y227146D01*
Y235223D01*
X512695Y235613D01*
X512474Y235944D01*
X510030Y238388D01*
X510221Y238850D01*
X515500D01*
Y245362D01*
D02*
G37*
G36*
X496925D02*
X496067D01*
X495239Y245140D01*
X494497Y244712D01*
X493891Y244105D01*
X493462Y243363D01*
X493240Y242535D01*
Y241678D01*
X493462Y240849D01*
X493891Y240107D01*
X494497Y239501D01*
X495239Y239072D01*
X496067Y238850D01*
X496925D01*
X497753Y239072D01*
X498495Y239501D01*
X499101Y240107D01*
X499530Y240849D01*
X499752Y241678D01*
Y242535D01*
X499530Y243363D01*
X499101Y244105D01*
X498495Y244712D01*
X497753Y245140D01*
X496925Y245362D01*
D02*
G37*
G36*
X533519Y251691D02*
X532222D01*
X530950Y251437D01*
X529751Y250941D01*
X528673Y250221D01*
X527756Y249304D01*
X527035Y248225D01*
X526539Y247027D01*
X526286Y245755D01*
Y244458D01*
X526539Y243186D01*
X527035Y241987D01*
X527756Y240909D01*
X528673Y239992D01*
X529751Y239271D01*
X530950Y238775D01*
X532222Y238522D01*
X533519D01*
X534791Y238775D01*
X535989Y239271D01*
X537067Y239992D01*
X537985Y240909D01*
X538705Y241987D01*
X539201Y243186D01*
X539454Y244458D01*
Y245755D01*
X539201Y247027D01*
X538705Y248225D01*
X537985Y249304D01*
X537067Y250221D01*
X535989Y250941D01*
X534791Y251437D01*
X533519Y251691D01*
D02*
G37*
G36*
X476519D02*
X475222D01*
X473950Y251437D01*
X472751Y250941D01*
X471673Y250221D01*
X470756Y249304D01*
X470035Y248225D01*
X469539Y247027D01*
X469286Y245755D01*
Y244458D01*
X469539Y243186D01*
X470035Y241987D01*
X470756Y240909D01*
X471673Y239992D01*
X472751Y239271D01*
X473950Y238775D01*
X475222Y238522D01*
X476519D01*
X477791Y238775D01*
X478989Y239271D01*
X480067Y239992D01*
X480984Y240909D01*
X481705Y241987D01*
X482201Y243186D01*
X482454Y244458D01*
Y245755D01*
X482201Y247027D01*
X481705Y248225D01*
X480984Y249304D01*
X480067Y250221D01*
X478989Y250941D01*
X477791Y251437D01*
X476519Y251691D01*
D02*
G37*
G36*
X508268Y229106D02*
X507472D01*
X506737Y228802D01*
X506175Y228239D01*
X506128Y228126D01*
X501370D01*
X500980Y228048D01*
X500649Y227827D01*
X493881Y221059D01*
X493768Y221106D01*
X492972D01*
X492237Y220802D01*
X491675Y220239D01*
X491370Y219504D01*
Y218708D01*
X491675Y217973D01*
X492237Y217411D01*
X492972Y217106D01*
X493768D01*
X494503Y217411D01*
X495066Y217973D01*
X495370Y218708D01*
Y219504D01*
X495323Y219617D01*
X501792Y226087D01*
X506128D01*
X506175Y225973D01*
X506737Y225411D01*
X507472Y225106D01*
X508268D01*
X509003Y225411D01*
X509566Y225973D01*
X509870Y226708D01*
Y227504D01*
X509566Y228239D01*
X509003Y228802D01*
X508268Y229106D01*
D02*
G37*
G36*
X501768Y217106D02*
X500972D01*
X500237Y216802D01*
X499675Y216239D01*
X499370Y215504D01*
Y214708D01*
X499675Y213973D01*
X500237Y213411D01*
X500972Y213106D01*
X501768D01*
X502047Y213222D01*
X502383Y212885D01*
X502714Y212664D01*
X503104Y212587D01*
X511773D01*
X511836Y212350D01*
X512265Y211607D01*
X512871Y211001D01*
X513613Y210572D01*
X514441Y210350D01*
X515299D01*
X516127Y210572D01*
X516869Y211001D01*
X517476Y211607D01*
X517904Y212350D01*
X518126Y213178D01*
Y214035D01*
X517904Y214863D01*
X517476Y215605D01*
X516869Y216212D01*
X516127Y216640D01*
X515299Y216862D01*
X514441D01*
X513613Y216640D01*
X512871Y216212D01*
X512265Y215605D01*
X511836Y214863D01*
X511773Y214626D01*
X503527D01*
X503370Y214782D01*
Y215504D01*
X503066Y216239D01*
X502503Y216802D01*
X501768Y217106D01*
D02*
G37*
G36*
X520299Y211862D02*
X519442D01*
X518613Y211640D01*
X517871Y211212D01*
X517265Y210605D01*
X516836Y209863D01*
X516614Y209035D01*
Y208178D01*
X516836Y207349D01*
X517265Y206607D01*
X517871Y206001D01*
X518613Y205572D01*
X519442Y205350D01*
X520299D01*
X521127Y205572D01*
X521869Y206001D01*
X522475Y206607D01*
X522904Y207349D01*
X523126Y208178D01*
Y209035D01*
X522904Y209863D01*
X522475Y210605D01*
X521869Y211212D01*
X521127Y211640D01*
X520299Y211862D01*
D02*
G37*
G36*
X533519Y199690D02*
X532222D01*
X530950Y199437D01*
X529751Y198941D01*
X528673Y198221D01*
X527756Y197303D01*
X527035Y196225D01*
X526539Y195027D01*
X526286Y193755D01*
Y192458D01*
X526539Y191186D01*
X527035Y189988D01*
X527756Y188909D01*
X528673Y187992D01*
X529751Y187271D01*
X530950Y186775D01*
X532222Y186522D01*
X533519D01*
X534791Y186775D01*
X535989Y187271D01*
X537067Y187992D01*
X537985Y188909D01*
X538705Y189988D01*
X539201Y191186D01*
X539454Y192458D01*
Y193755D01*
X539201Y195027D01*
X538705Y196225D01*
X537985Y197303D01*
X537067Y198221D01*
X535989Y198941D01*
X534791Y199437D01*
X533519Y199690D01*
D02*
G37*
G36*
X476519D02*
X475222D01*
X473950Y199437D01*
X472751Y198941D01*
X471673Y198221D01*
X470756Y197303D01*
X470035Y196225D01*
X469539Y195027D01*
X469286Y193755D01*
Y192458D01*
X469539Y191186D01*
X470035Y189988D01*
X470756Y188909D01*
X471673Y187992D01*
X472751Y187271D01*
X473950Y186775D01*
X475222Y186522D01*
X476519D01*
X477791Y186775D01*
X478989Y187271D01*
X480067Y187992D01*
X480984Y188909D01*
X481705Y189988D01*
X482201Y191186D01*
X482454Y192458D01*
Y193755D01*
X482201Y195027D01*
X481705Y196225D01*
X480984Y197303D01*
X480067Y198221D01*
X478989Y198941D01*
X477791Y199437D01*
X476519Y199690D01*
D02*
G37*
G36*
X420815Y245362D02*
X414303D01*
Y240083D01*
X413841Y239892D01*
X412754Y240979D01*
X412941Y241678D01*
Y242535D01*
X412719Y243363D01*
X412290Y244105D01*
X411684Y244712D01*
X410942Y245140D01*
X410114Y245362D01*
X409256D01*
X408428Y245140D01*
X407686Y244712D01*
X407080Y244105D01*
X406651Y243363D01*
X406429Y242535D01*
Y241678D01*
X406651Y240849D01*
X407080Y240107D01*
X407686Y239501D01*
X408428Y239072D01*
X409256Y238850D01*
X410114D01*
X410942Y239072D01*
X411471Y239378D01*
X416048Y234801D01*
Y226723D01*
X416126Y226333D01*
X416347Y226002D01*
X422162Y220188D01*
X420580Y218606D01*
X425185Y214002D01*
X429790Y218606D01*
X425185Y223211D01*
X423604Y221630D01*
X418088Y227146D01*
Y235223D01*
X418010Y235613D01*
X417789Y235944D01*
X415345Y238388D01*
X415536Y238850D01*
X420815D01*
Y245362D01*
D02*
G37*
G36*
X402240D02*
X401382D01*
X400554Y245140D01*
X399812Y244712D01*
X399206Y244105D01*
X398777Y243363D01*
X398555Y242535D01*
Y241678D01*
X398777Y240849D01*
X399206Y240107D01*
X399812Y239501D01*
X400554Y239072D01*
X401382Y238850D01*
X402240D01*
X403068Y239072D01*
X403810Y239501D01*
X404416Y240107D01*
X404845Y240849D01*
X405067Y241678D01*
Y242535D01*
X404845Y243363D01*
X404416Y244105D01*
X403810Y244712D01*
X403068Y245140D01*
X402240Y245362D01*
D02*
G37*
G36*
X438834Y251691D02*
X437537D01*
X436265Y251437D01*
X435066Y250941D01*
X433988Y250221D01*
X433071Y249304D01*
X432350Y248225D01*
X431854Y247027D01*
X431601Y245755D01*
Y244458D01*
X431854Y243186D01*
X432350Y241987D01*
X433071Y240909D01*
X433988Y239992D01*
X435066Y239271D01*
X436265Y238775D01*
X437537Y238522D01*
X438834D01*
X440106Y238775D01*
X441304Y239271D01*
X442382Y239992D01*
X443299Y240909D01*
X444020Y241987D01*
X444516Y243186D01*
X444769Y244458D01*
Y245755D01*
X444516Y247027D01*
X444020Y248225D01*
X443299Y249304D01*
X442382Y250221D01*
X441304Y250941D01*
X440106Y251437D01*
X438834Y251691D01*
D02*
G37*
G36*
X381834D02*
X380537D01*
X379264Y251437D01*
X378066Y250941D01*
X376988Y250221D01*
X376071Y249304D01*
X375350Y248225D01*
X374854Y247027D01*
X374601Y245755D01*
Y244458D01*
X374854Y243186D01*
X375350Y241987D01*
X376071Y240909D01*
X376988Y239992D01*
X378066Y239271D01*
X379264Y238775D01*
X380537Y238522D01*
X381834D01*
X383106Y238775D01*
X384304Y239271D01*
X385382Y239992D01*
X386299Y240909D01*
X387020Y241987D01*
X387516Y243186D01*
X387769Y244458D01*
Y245755D01*
X387516Y247027D01*
X387020Y248225D01*
X386299Y249304D01*
X385382Y250221D01*
X384304Y250941D01*
X383106Y251437D01*
X381834Y251691D01*
D02*
G37*
G36*
X413583Y229106D02*
X412787D01*
X412052Y228802D01*
X411490Y228239D01*
X411443Y228126D01*
X406685D01*
X406295Y228048D01*
X405964Y227827D01*
X399196Y221059D01*
X399083Y221106D01*
X398287D01*
X397552Y220802D01*
X396990Y220239D01*
X396685Y219504D01*
Y218708D01*
X396990Y217973D01*
X397552Y217411D01*
X398287Y217106D01*
X399083D01*
X399818Y217411D01*
X400381Y217973D01*
X400685Y218708D01*
Y219504D01*
X400638Y219617D01*
X407107Y226087D01*
X411443D01*
X411490Y225973D01*
X412052Y225411D01*
X412787Y225106D01*
X413583D01*
X414318Y225411D01*
X414881Y225973D01*
X415185Y226708D01*
Y227504D01*
X414881Y228239D01*
X414318Y228802D01*
X413583Y229106D01*
D02*
G37*
G36*
X407083Y217106D02*
X406287D01*
X405552Y216802D01*
X404990Y216239D01*
X404685Y215504D01*
Y214708D01*
X404990Y213973D01*
X405552Y213411D01*
X406287Y213106D01*
X407083D01*
X407362Y213222D01*
X407698Y212885D01*
X408029Y212664D01*
X408419Y212587D01*
X417088D01*
X417151Y212350D01*
X417580Y211607D01*
X418186Y211001D01*
X418928Y210572D01*
X419756Y210350D01*
X420614D01*
X421442Y210572D01*
X422184Y211001D01*
X422790Y211607D01*
X423219Y212350D01*
X423441Y213178D01*
Y214035D01*
X423219Y214863D01*
X422790Y215605D01*
X422184Y216212D01*
X421442Y216640D01*
X420614Y216862D01*
X419756D01*
X418928Y216640D01*
X418186Y216212D01*
X417580Y215605D01*
X417151Y214863D01*
X417088Y214626D01*
X408842D01*
X408685Y214782D01*
Y215504D01*
X408381Y216239D01*
X407818Y216802D01*
X407083Y217106D01*
D02*
G37*
G36*
X425614Y211862D02*
X424756D01*
X423928Y211640D01*
X423186Y211212D01*
X422580Y210605D01*
X422151Y209863D01*
X421929Y209035D01*
Y208178D01*
X422151Y207349D01*
X422580Y206607D01*
X423186Y206001D01*
X423928Y205572D01*
X424756Y205350D01*
X425614D01*
X426442Y205572D01*
X427184Y206001D01*
X427790Y206607D01*
X428219Y207349D01*
X428441Y208178D01*
Y209035D01*
X428219Y209863D01*
X427790Y210605D01*
X427184Y211212D01*
X426442Y211640D01*
X425614Y211862D01*
D02*
G37*
G36*
X438834Y199690D02*
X437537D01*
X436265Y199437D01*
X435066Y198941D01*
X433988Y198221D01*
X433071Y197303D01*
X432350Y196225D01*
X431854Y195027D01*
X431601Y193755D01*
Y192458D01*
X431854Y191186D01*
X432350Y189988D01*
X433071Y188909D01*
X433988Y187992D01*
X435066Y187271D01*
X436265Y186775D01*
X437537Y186522D01*
X438834D01*
X440106Y186775D01*
X441304Y187271D01*
X442382Y187992D01*
X443299Y188909D01*
X444020Y189988D01*
X444516Y191186D01*
X444769Y192458D01*
Y193755D01*
X444516Y195027D01*
X444020Y196225D01*
X443299Y197303D01*
X442382Y198221D01*
X441304Y198941D01*
X440106Y199437D01*
X438834Y199690D01*
D02*
G37*
G36*
X381834D02*
X380537D01*
X379264Y199437D01*
X378066Y198941D01*
X376988Y198221D01*
X376071Y197303D01*
X375350Y196225D01*
X374854Y195027D01*
X374601Y193755D01*
Y192458D01*
X374854Y191186D01*
X375350Y189988D01*
X376071Y188909D01*
X376988Y187992D01*
X378066Y187271D01*
X379264Y186775D01*
X380537Y186522D01*
X381834D01*
X383106Y186775D01*
X384304Y187271D01*
X385382Y187992D01*
X386299Y188909D01*
X387020Y189988D01*
X387516Y191186D01*
X387769Y192458D01*
Y193755D01*
X387516Y195027D01*
X387020Y196225D01*
X386299Y197303D01*
X385382Y198221D01*
X384304Y198941D01*
X383106Y199437D01*
X381834Y199690D01*
D02*
G37*
G36*
X532834Y157584D02*
X531537D01*
X530265Y157331D01*
X529066Y156835D01*
X527988Y156114D01*
X527071Y155197D01*
X526350Y154119D01*
X525854Y152921D01*
X525601Y151648D01*
Y150352D01*
X525854Y149080D01*
X526350Y147881D01*
X527071Y146803D01*
X527988Y145886D01*
X529066Y145165D01*
X530265Y144669D01*
X531537Y144416D01*
X532834D01*
X534106Y144669D01*
X535304Y145165D01*
X536382Y145886D01*
X537299Y146803D01*
X538020Y147881D01*
X538516Y149080D01*
X538769Y150352D01*
Y151648D01*
X538516Y152921D01*
X538020Y154119D01*
X537299Y155197D01*
X536382Y156114D01*
X535304Y156835D01*
X534106Y157331D01*
X532834Y157584D01*
D02*
G37*
G36*
X475834D02*
X474537D01*
X473265Y157331D01*
X472066Y156835D01*
X470988Y156114D01*
X470071Y155197D01*
X469350Y154119D01*
X468854Y152921D01*
X468601Y151648D01*
Y150352D01*
X468854Y149080D01*
X469350Y147881D01*
X470071Y146803D01*
X470988Y145886D01*
X472066Y145165D01*
X473265Y144669D01*
X474537Y144416D01*
X475834D01*
X477106Y144669D01*
X478304Y145165D01*
X479382Y145886D01*
X480299Y146803D01*
X481020Y147881D01*
X481516Y149080D01*
X481769Y150352D01*
Y151648D01*
X481516Y152921D01*
X481020Y154119D01*
X480299Y155197D01*
X479382Y156114D01*
X478304Y156835D01*
X477106Y157331D01*
X475834Y157584D01*
D02*
G37*
G36*
X499671Y147689D02*
X499435D01*
Y144250D01*
X502874D01*
Y144486D01*
X502623Y145424D01*
X502137Y146265D01*
X501450Y146952D01*
X500609Y147438D01*
X499671Y147689D01*
D02*
G37*
G36*
X498935D02*
X498699D01*
X497761Y147438D01*
X496920Y146952D01*
X496233Y146265D01*
X495748Y145424D01*
X495496Y144486D01*
Y144250D01*
X498935D01*
Y147689D01*
D02*
G37*
G36*
X511482D02*
X510510D01*
X509572Y147438D01*
X508731Y146952D01*
X508044Y146265D01*
X507559Y145424D01*
X507307Y144486D01*
Y143514D01*
X507559Y142576D01*
X508044Y141735D01*
X508731Y141048D01*
X509572Y140562D01*
X510510Y140311D01*
X511482D01*
X512420Y140562D01*
X513261Y141048D01*
X513948Y141735D01*
X514434Y142576D01*
X514685Y143514D01*
Y144486D01*
X514434Y145424D01*
X513948Y146265D01*
X513261Y146952D01*
X512420Y147438D01*
X511482Y147689D01*
D02*
G37*
G36*
X502874Y143750D02*
X499435D01*
Y140311D01*
X499671D01*
X500609Y140562D01*
X501450Y141048D01*
X502137Y141735D01*
X502623Y142576D01*
X502874Y143514D01*
Y143750D01*
D02*
G37*
G36*
X498935D02*
X495496D01*
Y143514D01*
X495748Y142576D01*
X496233Y141735D01*
X496920Y141048D01*
X497761Y140562D01*
X498699Y140311D01*
X498935D01*
Y143750D01*
D02*
G37*
G36*
X515183Y135878D02*
X514211D01*
X513273Y135627D01*
X512432Y135141D01*
X511745Y134454D01*
X511259Y133613D01*
X511008Y132675D01*
Y131703D01*
X511259Y130765D01*
X511745Y129924D01*
X512432Y129237D01*
X513273Y128751D01*
X514211Y128500D01*
X515183D01*
X516121Y128751D01*
X516962Y129237D01*
X517649Y129924D01*
X518134Y130765D01*
X518386Y131703D01*
Y132675D01*
X518134Y133613D01*
X517649Y134454D01*
X516962Y135141D01*
X516121Y135627D01*
X515183Y135878D01*
D02*
G37*
G36*
X532834Y115584D02*
X531537D01*
X530265Y115331D01*
X529066Y114835D01*
X527988Y114114D01*
X527071Y113197D01*
X526350Y112119D01*
X525854Y110921D01*
X525601Y109649D01*
Y108352D01*
X525854Y107080D01*
X526350Y105881D01*
X527071Y104803D01*
X527988Y103886D01*
X529066Y103165D01*
X530265Y102669D01*
X531537Y102416D01*
X532834D01*
X534106Y102669D01*
X535304Y103165D01*
X536382Y103886D01*
X537299Y104803D01*
X538020Y105881D01*
X538516Y107080D01*
X538769Y108352D01*
Y109649D01*
X538516Y110921D01*
X538020Y112119D01*
X537299Y113197D01*
X536382Y114114D01*
X535304Y114835D01*
X534106Y115331D01*
X532834Y115584D01*
D02*
G37*
G36*
X475834D02*
X474537D01*
X473265Y115331D01*
X472066Y114835D01*
X470988Y114114D01*
X470071Y113197D01*
X469350Y112119D01*
X468854Y110921D01*
X468601Y109649D01*
Y108352D01*
X468854Y107080D01*
X469350Y105881D01*
X470071Y104803D01*
X470988Y103886D01*
X472066Y103165D01*
X473265Y102669D01*
X474537Y102416D01*
X475834D01*
X477106Y102669D01*
X478304Y103165D01*
X479382Y103886D01*
X480299Y104803D01*
X481020Y105881D01*
X481516Y107080D01*
X481769Y108352D01*
Y109649D01*
X481516Y110921D01*
X481020Y112119D01*
X480299Y113197D01*
X479382Y114114D01*
X478304Y114835D01*
X477106Y115331D01*
X475834Y115584D01*
D02*
G37*
G36*
X438148Y157584D02*
X436852D01*
X435579Y157331D01*
X434381Y156835D01*
X433303Y156114D01*
X432386Y155197D01*
X431665Y154119D01*
X431169Y152921D01*
X430916Y151648D01*
Y150352D01*
X431169Y149080D01*
X431665Y147881D01*
X432386Y146803D01*
X433303Y145886D01*
X434381Y145165D01*
X435579Y144669D01*
X436852Y144416D01*
X438148D01*
X439421Y144669D01*
X440619Y145165D01*
X441697Y145886D01*
X442614Y146803D01*
X443335Y147881D01*
X443831Y149080D01*
X444084Y150352D01*
Y151648D01*
X443831Y152921D01*
X443335Y154119D01*
X442614Y155197D01*
X441697Y156114D01*
X440619Y156835D01*
X439421Y157331D01*
X438148Y157584D01*
D02*
G37*
G36*
X381149D02*
X379852D01*
X378579Y157331D01*
X377381Y156835D01*
X376303Y156114D01*
X375386Y155197D01*
X374665Y154119D01*
X374169Y152921D01*
X373916Y151648D01*
Y150352D01*
X374169Y149080D01*
X374665Y147881D01*
X375386Y146803D01*
X376303Y145886D01*
X377381Y145165D01*
X378579Y144669D01*
X379852Y144416D01*
X381149D01*
X382421Y144669D01*
X383619Y145165D01*
X384697Y145886D01*
X385614Y146803D01*
X386335Y147881D01*
X386831Y149080D01*
X387084Y150352D01*
Y151648D01*
X386831Y152921D01*
X386335Y154119D01*
X385614Y155197D01*
X384697Y156114D01*
X383619Y156835D01*
X382421Y157331D01*
X381149Y157584D01*
D02*
G37*
G36*
X404986Y147689D02*
X404750D01*
Y144250D01*
X408189D01*
Y144486D01*
X407938Y145424D01*
X407452Y146265D01*
X406765Y146952D01*
X405924Y147438D01*
X404986Y147689D01*
D02*
G37*
G36*
X404250D02*
X404014D01*
X403076Y147438D01*
X402235Y146952D01*
X401548Y146265D01*
X401062Y145424D01*
X400811Y144486D01*
Y144250D01*
X404250D01*
Y147689D01*
D02*
G37*
G36*
X416797D02*
X415825D01*
X414887Y147438D01*
X414046Y146952D01*
X413359Y146265D01*
X412874Y145424D01*
X412622Y144486D01*
Y143514D01*
X412874Y142576D01*
X413359Y141735D01*
X414046Y141048D01*
X414887Y140562D01*
X415825Y140311D01*
X416797D01*
X417735Y140562D01*
X418576Y141048D01*
X419263Y141735D01*
X419749Y142576D01*
X420000Y143514D01*
Y144486D01*
X419749Y145424D01*
X419263Y146265D01*
X418576Y146952D01*
X417735Y147438D01*
X416797Y147689D01*
D02*
G37*
G36*
X408189Y143750D02*
X404750D01*
Y140311D01*
X404986D01*
X405924Y140562D01*
X406765Y141048D01*
X407452Y141735D01*
X407938Y142576D01*
X408189Y143514D01*
Y143750D01*
D02*
G37*
G36*
X404250D02*
X400811D01*
Y143514D01*
X401062Y142576D01*
X401548Y141735D01*
X402235Y141048D01*
X403076Y140562D01*
X404014Y140311D01*
X404250D01*
Y143750D01*
D02*
G37*
G36*
X420498Y135878D02*
X419526D01*
X418588Y135627D01*
X417747Y135141D01*
X417060Y134454D01*
X416574Y133613D01*
X416323Y132675D01*
Y131703D01*
X416574Y130765D01*
X417060Y129924D01*
X417747Y129237D01*
X418588Y128751D01*
X419526Y128500D01*
X420498D01*
X421436Y128751D01*
X422277Y129237D01*
X422964Y129924D01*
X423449Y130765D01*
X423701Y131703D01*
Y132675D01*
X423449Y133613D01*
X422964Y134454D01*
X422277Y135141D01*
X421436Y135627D01*
X420498Y135878D01*
D02*
G37*
G36*
X438148Y115584D02*
X436852D01*
X435579Y115331D01*
X434381Y114835D01*
X433303Y114114D01*
X432386Y113197D01*
X431665Y112119D01*
X431169Y110921D01*
X430916Y109649D01*
Y108352D01*
X431169Y107080D01*
X431665Y105881D01*
X432386Y104803D01*
X433303Y103886D01*
X434381Y103165D01*
X435579Y102669D01*
X436852Y102416D01*
X438148D01*
X439421Y102669D01*
X440619Y103165D01*
X441697Y103886D01*
X442614Y104803D01*
X443335Y105881D01*
X443831Y107080D01*
X444084Y108352D01*
Y109649D01*
X443831Y110921D01*
X443335Y112119D01*
X442614Y113197D01*
X441697Y114114D01*
X440619Y114835D01*
X439421Y115331D01*
X438148Y115584D01*
D02*
G37*
G36*
X381149D02*
X379852D01*
X378579Y115331D01*
X377381Y114835D01*
X376303Y114114D01*
X375386Y113197D01*
X374665Y112119D01*
X374169Y110921D01*
X373916Y109649D01*
Y108352D01*
X374169Y107080D01*
X374665Y105881D01*
X375386Y104803D01*
X376303Y103886D01*
X377381Y103165D01*
X378579Y102669D01*
X379852Y102416D01*
X381149D01*
X382421Y102669D01*
X383619Y103165D01*
X384697Y103886D01*
X385614Y104803D01*
X386335Y105881D01*
X386831Y107080D01*
X387084Y108352D01*
Y109649D01*
X386831Y110921D01*
X386335Y112119D01*
X385614Y113197D01*
X384697Y114114D01*
X383619Y114835D01*
X382421Y115331D01*
X381149Y115584D01*
D02*
G37*
%LPD*%
D13*
X417068Y226723D02*
Y235223D01*
X409685Y242606D02*
X417068Y235223D01*
Y226723D02*
X425185Y218606D01*
Y218606D02*
Y218606D01*
X406685Y227106D02*
X413185D01*
X398685Y219106D02*
X406685Y227106D01*
X406919Y215106D02*
X408419Y213606D01*
X406685Y215106D02*
X406919D01*
X408419Y213606D02*
X420185D01*
X511753Y226723D02*
Y235223D01*
X504370Y242606D02*
X511753Y235223D01*
Y226723D02*
X519870Y218606D01*
Y218606D02*
Y218606D01*
X501370Y227106D02*
X507870D01*
X493370Y219106D02*
X501370Y227106D01*
X501604Y215106D02*
X503104Y213606D01*
X501370Y215106D02*
X501604D01*
X503104Y213606D02*
X514870D01*
X175164Y290758D02*
X193416D01*
X173422Y292500D02*
X175164Y290758D01*
X285000Y196000D02*
Y208500D01*
X291500Y182500D02*
Y189500D01*
X285000Y196000D02*
X291500Y189500D01*
X166000Y201000D02*
X167000Y200000D01*
X166000Y201000D02*
X166000D01*
X167000Y200000D02*
X173422D01*
X174000Y199000D02*
X180500D01*
X173422D02*
X174000D01*
X302616Y249784D02*
X311900Y259069D01*
X301284Y249784D02*
X302616D01*
X292000Y240500D02*
X301284Y249784D01*
X311900Y260400D02*
X317000Y265500D01*
X311900Y259069D02*
Y260400D01*
X281617Y181383D02*
X284692D01*
X279500Y183500D02*
X281617Y181383D01*
X279500Y183500D02*
Y305500D01*
X281000Y196000D02*
Y306621D01*
Y196000D02*
X284500Y192500D01*
X274000Y313621D02*
X281000Y306621D01*
X212000Y327500D02*
X224000Y315500D01*
X270600Y314400D02*
X270883D01*
X224000Y315500D02*
X269500D01*
X270883Y314400D02*
X271250Y314034D01*
Y313750D02*
Y314034D01*
X269500Y315500D02*
X270600Y314400D01*
X262314Y334000D02*
X274000Y322314D01*
X257771Y338543D02*
X262314Y334000D01*
X207543Y340543D02*
X214882D01*
X218000Y337425D01*
Y334575D02*
Y337425D01*
X221118Y331457D02*
X236958D01*
X203000Y336000D02*
X207543Y340543D01*
X236958Y331457D02*
X244044Y338543D01*
X257771D01*
X218000Y334575D02*
X221118Y331457D01*
X212000Y327500D02*
Y335000D01*
X213000Y336000D01*
X271250Y313750D02*
X279500Y305500D01*
X274000Y313621D02*
Y322314D01*
X271500Y314000D02*
X279500Y306000D01*
Y305500D02*
Y306000D01*
X234784Y253500D02*
X235131Y253847D01*
X235437Y254000D02*
X235500D01*
X203290Y253500D02*
X234784D01*
X235283Y253847D02*
X235437Y254000D01*
X235131Y253847D02*
X235283D01*
X292000Y225000D02*
Y240500D01*
X289000Y243500D02*
X321000Y275500D01*
X289000Y229500D02*
Y243500D01*
X286000Y233500D02*
Y250500D01*
X341000Y305500D01*
X173422Y304000D02*
X182000Y295422D01*
X202421D01*
X207996Y300996D02*
Y313161D01*
X202421Y295422D02*
X207996Y300996D01*
X272314Y332343D02*
Y334000D01*
X170922Y267000D02*
X173422Y264500D01*
X170000Y267000D02*
X170922D01*
X182351Y253070D02*
X197586D01*
X173422Y262000D02*
X182351Y253070D01*
X173422Y198000D02*
X174000D01*
X173422Y262000D02*
X194790D01*
X203290Y253500D01*
X317000Y265500D02*
X341000D01*
X321000Y275500D02*
X341000D01*
X173422Y227000D02*
X177921Y222500D01*
X181500D01*
D30*
X216078Y345500D02*
X217000D01*
X189000D02*
X216078D01*
X173422Y304000D02*
X176500Y307079D01*
Y333000D02*
X189000Y345500D01*
X176500Y307079D02*
Y333000D01*
X128052Y151448D02*
X135000Y144500D01*
X174000D01*
X174500Y144000D02*
X303000D01*
X314500Y155500D01*
X174000Y144000D02*
Y198000D01*
X322000Y162500D02*
Y187000D01*
X319500Y189500D02*
X322000Y187000D01*
X319500Y189500D02*
Y237703D01*
X318797Y237000D02*
X345453Y263656D01*
X316000Y237000D02*
X318797D01*
X174000Y198000D02*
Y199000D01*
X314500Y155500D02*
Y155500D01*
X317975Y158975D01*
X321950Y162450D02*
X322000Y162500D01*
X318475Y158975D02*
X321950Y162450D01*
X173422Y232740D02*
Y262000D01*
Y227000D02*
Y232740D01*
X315000Y238000D02*
X316000Y237000D01*
X306000Y238000D02*
X315000D01*
X216078Y342922D02*
Y344578D01*
X217000Y345500D01*
X216078Y342922D02*
X223000Y336000D01*
X270657Y345500D02*
X282157Y334000D01*
X217000Y345500D02*
X270657D01*
X345453Y263656D02*
Y291047D01*
X341000Y295500D02*
X345453Y291047D01*
X124500Y152500D02*
X125552Y151448D01*
X128052D01*
X317975Y158975D02*
X318475D01*
X282157Y334000D02*
X282314D01*
X173422Y262000D02*
Y264500D01*
Y232740D02*
X173693D01*
X173422Y199000D02*
Y200000D01*
Y264500D02*
Y292500D01*
Y304000D01*
Y200000D02*
Y227000D01*
D31*
X544000Y271000D02*
D03*
Y267500D02*
D03*
Y264000D02*
D03*
Y260500D02*
D03*
Y257000D02*
D03*
X543500Y180000D02*
D03*
Y176500D02*
D03*
Y173000D02*
D03*
Y169500D02*
D03*
Y166000D02*
D03*
Y162500D02*
D03*
X510500Y182000D02*
D03*
X507000D02*
D03*
X503500D02*
D03*
X500000D02*
D03*
X496500D02*
D03*
X511000Y162000D02*
D03*
X507500D02*
D03*
X504000D02*
D03*
X500500D02*
D03*
X497000D02*
D03*
X543000Y122500D02*
D03*
Y126000D02*
D03*
Y129500D02*
D03*
Y133000D02*
D03*
Y136500D02*
D03*
X464500Y123500D02*
D03*
Y127000D02*
D03*
Y130500D02*
D03*
Y134000D02*
D03*
Y137500D02*
D03*
X448000Y124000D02*
D03*
Y127500D02*
D03*
Y131000D02*
D03*
Y134500D02*
D03*
Y138000D02*
D03*
X401500Y161500D02*
D03*
X405000D02*
D03*
X408500D02*
D03*
X412000D02*
D03*
X415500D02*
D03*
X400000Y182500D02*
D03*
X403500D02*
D03*
X407000D02*
D03*
X410500D02*
D03*
X414000D02*
D03*
X500000Y256000D02*
D03*
X503500D02*
D03*
X507000D02*
D03*
X510500D02*
D03*
X514000D02*
D03*
X543500Y223500D02*
D03*
Y220000D02*
D03*
Y216500D02*
D03*
Y213000D02*
D03*
Y209500D02*
D03*
X576500Y272500D02*
D03*
X573000D02*
D03*
X569500D02*
D03*
X566000D02*
D03*
X562500D02*
D03*
X529500D02*
D03*
X526000D02*
D03*
X522500D02*
D03*
X519000D02*
D03*
X515500D02*
D03*
X464500Y184000D02*
D03*
X461000D02*
D03*
X457500D02*
D03*
X454000D02*
D03*
X450500D02*
D03*
X463500Y159500D02*
D03*
X460000D02*
D03*
X456500D02*
D03*
X453000D02*
D03*
X449500D02*
D03*
X489000Y273000D02*
D03*
X485500D02*
D03*
X482000D02*
D03*
X478500D02*
D03*
X475000D02*
D03*
X464500Y255000D02*
D03*
X461000D02*
D03*
X457500D02*
D03*
X454000D02*
D03*
X450500D02*
D03*
X490000Y348500D02*
D03*
Y352000D02*
D03*
Y355500D02*
D03*
Y359000D02*
D03*
Y362500D02*
D03*
X473500Y348500D02*
D03*
Y352000D02*
D03*
Y355500D02*
D03*
Y359000D02*
D03*
Y362500D02*
D03*
X490000Y291500D02*
D03*
Y295000D02*
D03*
Y298500D02*
D03*
Y302000D02*
D03*
Y305500D02*
D03*
X473500Y291500D02*
D03*
Y295000D02*
D03*
Y298500D02*
D03*
Y302000D02*
D03*
Y305500D02*
D03*
X351500Y129000D02*
D03*
Y132500D02*
D03*
Y136000D02*
D03*
Y139500D02*
D03*
Y143000D02*
D03*
X370000Y129000D02*
D03*
Y132500D02*
D03*
Y136000D02*
D03*
Y139500D02*
D03*
Y143000D02*
D03*
X370500Y180500D02*
D03*
Y177000D02*
D03*
Y173500D02*
D03*
Y170000D02*
D03*
Y166500D02*
D03*
Y163000D02*
D03*
X370000Y271000D02*
D03*
Y267500D02*
D03*
Y264000D02*
D03*
Y260500D02*
D03*
Y257000D02*
D03*
X352000Y191500D02*
D03*
Y195000D02*
D03*
Y198500D02*
D03*
Y202000D02*
D03*
Y205500D02*
D03*
X370000Y191500D02*
D03*
Y195000D02*
D03*
Y198500D02*
D03*
Y202000D02*
D03*
Y205500D02*
D03*
X465000Y214500D02*
D03*
Y218000D02*
D03*
Y221500D02*
D03*
Y225000D02*
D03*
Y228500D02*
D03*
X449000Y214000D02*
D03*
Y217500D02*
D03*
Y221000D02*
D03*
Y224500D02*
D03*
Y228000D02*
D03*
X397500Y272000D02*
D03*
X401000D02*
D03*
X404500D02*
D03*
X408000D02*
D03*
X411500D02*
D03*
X397500Y256000D02*
D03*
X401000D02*
D03*
X404500D02*
D03*
X408000D02*
D03*
X411500D02*
D03*
X351500Y252000D02*
D03*
Y248500D02*
D03*
Y245000D02*
D03*
Y241500D02*
D03*
Y238000D02*
D03*
X370000Y252000D02*
D03*
Y248500D02*
D03*
Y245000D02*
D03*
Y241500D02*
D03*
Y238000D02*
D03*
Y293500D02*
D03*
Y290000D02*
D03*
Y286500D02*
D03*
Y283000D02*
D03*
Y279500D02*
D03*
X352000Y293000D02*
D03*
Y289500D02*
D03*
Y286000D02*
D03*
Y282500D02*
D03*
Y279000D02*
D03*
X370000Y341000D02*
D03*
Y337500D02*
D03*
Y334000D02*
D03*
Y330500D02*
D03*
Y327000D02*
D03*
X352000D02*
D03*
Y330500D02*
D03*
Y334000D02*
D03*
Y337500D02*
D03*
Y341000D02*
D03*
D32*
X404500Y144000D02*
D03*
X416311D02*
D03*
X420012Y155811D02*
D03*
Y132189D02*
D03*
X499185Y144000D02*
D03*
X510996D02*
D03*
X514697Y155811D02*
D03*
Y132189D02*
D03*
D33*
X380500Y151000D02*
D03*
Y109000D02*
D03*
X437500Y151000D02*
D03*
Y109000D02*
D03*
X475185Y151000D02*
D03*
Y109000D02*
D03*
X532185Y151000D02*
D03*
Y109000D02*
D03*
X582685Y365185D02*
D03*
X500685D02*
D03*
Y283185D02*
D03*
X582685Y283185D02*
D03*
X463000Y365185D02*
D03*
X381000D02*
D03*
Y283185D02*
D03*
X463000Y283185D02*
D03*
X381185Y193106D02*
D03*
Y245106D02*
D03*
X438185D02*
D03*
Y193106D02*
D03*
X475870D02*
D03*
Y245106D02*
D03*
X532870D02*
D03*
Y193106D02*
D03*
X330500Y119000D02*
D03*
X331000Y331000D02*
D03*
X119000D02*
D03*
Y118500D02*
D03*
D34*
X441500Y140000D02*
D03*
X431500Y120000D02*
D03*
X411500D02*
D03*
X536185Y140000D02*
D03*
X526185Y120000D02*
D03*
X506185D02*
D03*
X413185Y227106D02*
D03*
X406685Y215106D02*
D03*
X398685Y219106D02*
D03*
X507870Y227106D02*
D03*
X501370Y215106D02*
D03*
X493370Y219106D02*
D03*
X340000Y320000D02*
D03*
Y240000D02*
D03*
Y200000D02*
D03*
Y160000D02*
D03*
Y120000D02*
D03*
X330000Y340000D02*
D03*
X320000Y320000D02*
D03*
X330000Y300000D02*
D03*
X320000Y280000D02*
D03*
X330000Y260000D02*
D03*
Y140000D02*
D03*
X320000Y120000D02*
D03*
X310000Y340000D02*
D03*
X300000Y320000D02*
D03*
X310000Y300000D02*
D03*
X300000Y280000D02*
D03*
X310000Y220000D02*
D03*
Y140000D02*
D03*
X300000Y120000D02*
D03*
X280000Y320000D02*
D03*
X290000Y300000D02*
D03*
Y220000D02*
D03*
X280000Y160000D02*
D03*
X290000Y140000D02*
D03*
X280000Y120000D02*
D03*
X270000Y340000D02*
D03*
X260000Y320000D02*
D03*
X270000Y300000D02*
D03*
X260000Y280000D02*
D03*
Y200000D02*
D03*
X270000Y180000D02*
D03*
Y140000D02*
D03*
X260000Y120000D02*
D03*
X250000Y300000D02*
D03*
X240000Y280000D02*
D03*
Y200000D02*
D03*
X250000Y180000D02*
D03*
X240000Y160000D02*
D03*
X250000Y140000D02*
D03*
X240000Y120000D02*
D03*
X230000Y300000D02*
D03*
Y260000D02*
D03*
Y220000D02*
D03*
X220000Y160000D02*
D03*
X230000Y140000D02*
D03*
X220000Y120000D02*
D03*
X200000Y320000D02*
D03*
X210000Y260000D02*
D03*
Y220000D02*
D03*
Y180000D02*
D03*
X200000Y160000D02*
D03*
X210000Y140000D02*
D03*
X200000Y120000D02*
D03*
X180000Y320000D02*
D03*
X190000Y300000D02*
D03*
Y180000D02*
D03*
X180000Y160000D02*
D03*
X190000Y140000D02*
D03*
X180000Y120000D02*
D03*
X170000Y340000D02*
D03*
X160000Y320000D02*
D03*
Y200000D02*
D03*
X170000Y180000D02*
D03*
X160000Y160000D02*
D03*
X170000Y140000D02*
D03*
X160000Y120000D02*
D03*
X150000Y340000D02*
D03*
X140000Y320000D02*
D03*
X150000Y300000D02*
D03*
Y260000D02*
D03*
X140000Y240000D02*
D03*
X150000Y220000D02*
D03*
X140000Y200000D02*
D03*
X150000Y180000D02*
D03*
Y140000D02*
D03*
X140000Y120000D02*
D03*
X130000Y340000D02*
D03*
X120000Y320000D02*
D03*
X130000Y300000D02*
D03*
Y260000D02*
D03*
X120000Y240000D02*
D03*
X130000Y220000D02*
D03*
X120000Y200000D02*
D03*
X130000Y180000D02*
D03*
D35*
X533185Y359685D02*
D03*
X543185D02*
D03*
X553185D02*
D03*
X523185D02*
D03*
X413500D02*
D03*
X423500D02*
D03*
X433500D02*
D03*
X403500D02*
D03*
X262314Y334000D02*
D03*
X272314D02*
D03*
X282314D02*
D03*
X252314D02*
D03*
X203000Y336000D02*
D03*
X213000D02*
D03*
X223000D02*
D03*
X193000D02*
D03*
D36*
X563185Y359685D02*
D03*
X443500D02*
D03*
X292314Y334000D02*
D03*
X233000Y336000D02*
D03*
D37*
X417559Y242106D02*
D03*
X512244D02*
D03*
D38*
X409685D02*
D03*
X401811D02*
D03*
X504370D02*
D03*
X496496D02*
D03*
X331000Y170874D02*
D03*
Y163000D02*
D03*
X330000Y223374D02*
D03*
Y215500D02*
D03*
D39*
X425185Y208606D02*
D03*
X420185Y213606D02*
D03*
X519870Y208606D02*
D03*
X514870Y213606D02*
D03*
D40*
X425185Y218606D02*
D03*
X519870D02*
D03*
D41*
X105000Y298500D02*
D03*
Y268000D02*
D03*
Y237500D02*
D03*
Y205500D02*
D03*
D42*
Y308500D02*
D03*
Y278000D02*
D03*
Y247500D02*
D03*
Y215500D02*
D03*
D43*
X331000Y178748D02*
D03*
X330000Y231248D02*
D03*
D44*
X136902Y138299D02*
D03*
D45*
X124500Y142500D02*
D03*
Y152500D02*
D03*
Y162500D02*
D03*
Y172500D02*
D03*
D46*
X341000Y265500D02*
D03*
Y275500D02*
D03*
Y285500D02*
D03*
Y295500D02*
D03*
D47*
Y305500D02*
D03*
D48*
X203500Y170000D02*
D03*
D49*
Y179606D02*
D03*
Y189213D02*
D03*
D50*
X193416Y290758D02*
D03*
X173916Y314758D02*
D03*
X170837Y279000D02*
D03*
Y217000D02*
D03*
X166000Y201000D02*
D03*
X322000Y187000D02*
D03*
X308000Y186500D02*
D03*
X284692Y181383D02*
D03*
X291500Y182500D02*
D03*
X284500Y192500D02*
D03*
X296237Y175521D02*
D03*
X271500Y314000D02*
D03*
X235500Y254000D02*
D03*
X285000Y208500D02*
D03*
X306000Y238000D02*
D03*
X292000Y225000D02*
D03*
X289000Y229500D02*
D03*
X286000Y233500D02*
D03*
X321950Y162450D02*
D03*
X173422Y304000D02*
D03*
X194067Y277500D02*
D03*
X170000Y267000D02*
D03*
X192469Y216500D02*
D03*
X266500Y158000D02*
D03*
X217000Y193000D02*
D03*
X290500Y161000D02*
D03*
X194801Y242965D02*
D03*
X197531Y309500D02*
D03*
X268000Y235500D02*
D03*
X245000Y248500D02*
D03*
X267500Y261000D02*
D03*
X276500Y265500D02*
D03*
X324000Y268063D02*
D03*
X307500Y224500D02*
D03*
X306756Y212000D02*
D03*
X197586Y253070D02*
D03*
X180500Y199000D02*
D03*
X207996Y313161D02*
D03*
X173693Y232740D02*
D03*
X181500Y222500D02*
D03*
X170500Y243000D02*
D03*
X220000Y178000D02*
D03*
X199500Y250500D02*
D03*
X305000Y192500D02*
D03*
M02*
