G04*
G04 #@! TF.GenerationSoftware,Altium Limited,Altium Designer,21.5.1 (32)*
G04*
G04 Layer_Color=8388736*
%FSLAX25Y25*%
%MOIN*%
G70*
G04*
G04 #@! TF.SameCoordinates,35D1D81E-305D-4ED3-A4E5-B3A77E649114*
G04*
G04*
G04 #@! TF.FilePolarity,Negative*
G04*
G01*
G75*
%ADD14R,0.01800X0.05200*%
%ADD20R,0.05512X0.07874*%
%ADD21R,0.02264X0.01378*%
%ADD22R,0.01378X0.02264*%
G04:AMPARAMS|DCode=23|XSize=51.18mil|YSize=23.62mil|CornerRadius=2.01mil|HoleSize=0mil|Usage=FLASHONLY|Rotation=0.000|XOffset=0mil|YOffset=0mil|HoleType=Round|Shape=RoundedRectangle|*
%AMROUNDEDRECTD23*
21,1,0.05118,0.01961,0,0,0.0*
21,1,0.04717,0.02362,0,0,0.0*
1,1,0.00402,0.02358,-0.00980*
1,1,0.00402,-0.02358,-0.00980*
1,1,0.00402,-0.02358,0.00980*
1,1,0.00402,0.02358,0.00980*
%
%ADD23ROUNDEDRECTD23*%
%ADD59R,0.10512X0.15551*%
%ADD60R,0.03661X0.07087*%
%ADD61R,0.06102X0.06496*%
%ADD62R,0.02953X0.02559*%
%ADD63R,0.03740X0.04134*%
G04:AMPARAMS|DCode=64|XSize=31.5mil|YSize=53.15mil|CornerRadius=4.87mil|HoleSize=0mil|Usage=FLASHONLY|Rotation=180.000|XOffset=0mil|YOffset=0mil|HoleType=Round|Shape=RoundedRectangle|*
%AMROUNDEDRECTD64*
21,1,0.03150,0.04341,0,0,180.0*
21,1,0.02175,0.05315,0,0,180.0*
1,1,0.00974,-0.01088,0.02170*
1,1,0.00974,0.01088,0.02170*
1,1,0.00974,0.01088,-0.02170*
1,1,0.00974,-0.01088,-0.02170*
%
%ADD64ROUNDEDRECTD64*%
%ADD65R,0.02559X0.02953*%
G04:AMPARAMS|DCode=66|XSize=31.5mil|YSize=53.15mil|CornerRadius=4.87mil|HoleSize=0mil|Usage=FLASHONLY|Rotation=270.000|XOffset=0mil|YOffset=0mil|HoleType=Round|Shape=RoundedRectangle|*
%AMROUNDEDRECTD66*
21,1,0.03150,0.04341,0,0,270.0*
21,1,0.02175,0.05315,0,0,270.0*
1,1,0.00974,-0.02170,-0.01088*
1,1,0.00974,-0.02170,0.01088*
1,1,0.00974,0.02170,0.01088*
1,1,0.00974,0.02170,-0.01088*
%
%ADD66ROUNDEDRECTD66*%
%ADD67O,0.02756X0.05709*%
%ADD68O,0.05709X0.02756*%
G04:AMPARAMS|DCode=69|XSize=53.54mil|YSize=29.13mil|CornerRadius=8.76mil|HoleSize=0mil|Usage=FLASHONLY|Rotation=180.000|XOffset=0mil|YOffset=0mil|HoleType=Round|Shape=RoundedRectangle|*
%AMROUNDEDRECTD69*
21,1,0.05354,0.01161,0,0,180.0*
21,1,0.03602,0.02913,0,0,180.0*
1,1,0.01752,-0.01801,0.00581*
1,1,0.01752,0.01801,0.00581*
1,1,0.01752,0.01801,-0.00581*
1,1,0.01752,-0.01801,-0.00581*
%
%ADD69ROUNDEDRECTD69*%
%ADD70R,0.04134X0.03740*%
%ADD71R,0.03937X0.09646*%
%ADD72R,0.06496X0.06102*%
%ADD73C,0.02800*%
%ADD74C,0.06969*%
%ADD75C,0.11791*%
%ADD76C,0.03591*%
%ADD77C,0.07677*%
%ADD78R,0.07677X0.07677*%
%ADD79R,0.06102X0.06102*%
%ADD80C,0.06102*%
%ADD81C,0.06102*%
%ADD82P,0.08630X4X360.0*%
%ADD83C,0.07087*%
%ADD84R,0.07087X0.07087*%
%ADD85R,0.06102X0.06102*%
%ADD86C,0.04638*%
%ADD87C,0.08091*%
%ADD88C,0.06496*%
%ADD89R,0.06496X0.06496*%
%ADD90R,0.05315X0.05315*%
%ADD91C,0.05315*%
%ADD92C,0.02391*%
D14*
X564685Y333685D02*
D03*
X554685D02*
D03*
X544685D02*
D03*
X534685D02*
D03*
Y284685D02*
D03*
X544685D02*
D03*
X554685D02*
D03*
X564685D02*
D03*
X445000Y333685D02*
D03*
X435000D02*
D03*
X425000D02*
D03*
X415000D02*
D03*
Y284685D02*
D03*
X425000D02*
D03*
X435000D02*
D03*
X445000D02*
D03*
D20*
X298661Y244500D02*
D03*
X281339D02*
D03*
D21*
X292407Y173031D02*
D03*
Y175000D02*
D03*
Y176969D02*
D03*
X299592D02*
D03*
Y175000D02*
D03*
Y173031D02*
D03*
D22*
X293047Y179577D02*
D03*
X295016D02*
D03*
X296984D02*
D03*
X298953D02*
D03*
Y170423D02*
D03*
X296984D02*
D03*
X295016D02*
D03*
X293047D02*
D03*
D23*
X306134Y227000D02*
D03*
X297866Y223260D02*
D03*
Y230740D02*
D03*
D59*
X380997Y128500D02*
D03*
X475682D02*
D03*
D60*
X389442Y132732D02*
D03*
Y124268D02*
D03*
X484127Y132732D02*
D03*
Y124268D02*
D03*
D61*
X418063Y123000D02*
D03*
X425937D02*
D03*
X512748D02*
D03*
X520622D02*
D03*
X258474Y157900D02*
D03*
X250600D02*
D03*
D62*
X396717Y229606D02*
D03*
X400654D02*
D03*
X491402D02*
D03*
X495339D02*
D03*
X192469Y211500D02*
D03*
X188531D02*
D03*
X163697Y223500D02*
D03*
X167634D02*
D03*
X192269Y242965D02*
D03*
X188332D02*
D03*
X190469Y278000D02*
D03*
X186531D02*
D03*
X164532Y288000D02*
D03*
X168468D02*
D03*
X194500Y309500D02*
D03*
X190563D02*
D03*
X168532Y319500D02*
D03*
X172468D02*
D03*
X164532Y255000D02*
D03*
X168468D02*
D03*
X248468Y233000D02*
D03*
X244531D02*
D03*
D63*
X394929Y223606D02*
D03*
X400441D02*
D03*
X489614D02*
D03*
X495126D02*
D03*
X301000Y259500D02*
D03*
X295488D02*
D03*
X299256Y161500D02*
D03*
X293744D02*
D03*
X298244Y212000D02*
D03*
X303756D02*
D03*
X259744Y232500D02*
D03*
X265256D02*
D03*
D64*
X394835Y203602D02*
D03*
X398575D02*
D03*
X402315D02*
D03*
Y215216D02*
D03*
X394835D02*
D03*
X489520Y203602D02*
D03*
X493260D02*
D03*
X497000D02*
D03*
Y215216D02*
D03*
X489520D02*
D03*
D65*
X182944Y211519D02*
D03*
Y207581D02*
D03*
X184500Y243468D02*
D03*
Y239531D02*
D03*
X183000Y277969D02*
D03*
Y274031D02*
D03*
X186500Y309469D02*
D03*
Y305532D02*
D03*
X292500Y215469D02*
D03*
Y211531D02*
D03*
X273500Y261531D02*
D03*
Y265469D02*
D03*
X219984Y182095D02*
D03*
Y186031D02*
D03*
X220000Y170531D02*
D03*
Y174469D02*
D03*
D66*
X176807Y207760D02*
D03*
Y211500D02*
D03*
Y215240D02*
D03*
X165193D02*
D03*
Y207760D02*
D03*
X198193Y214240D02*
D03*
Y210500D02*
D03*
Y206760D02*
D03*
X209807D02*
D03*
Y214240D02*
D03*
X199193Y246740D02*
D03*
Y243000D02*
D03*
Y239260D02*
D03*
X210807D02*
D03*
Y246740D02*
D03*
X176807Y239760D02*
D03*
Y243500D02*
D03*
Y247240D02*
D03*
X165193D02*
D03*
Y239760D02*
D03*
X176807Y272760D02*
D03*
Y276500D02*
D03*
Y280240D02*
D03*
X165193D02*
D03*
Y272760D02*
D03*
X198193Y280240D02*
D03*
Y276500D02*
D03*
Y272760D02*
D03*
X209807D02*
D03*
Y280240D02*
D03*
X201693Y313240D02*
D03*
Y309500D02*
D03*
Y305760D02*
D03*
X213307D02*
D03*
Y313240D02*
D03*
X180807Y305760D02*
D03*
Y309500D02*
D03*
Y313240D02*
D03*
X169193D02*
D03*
Y305760D02*
D03*
D67*
X272248Y173453D02*
D03*
X269098D02*
D03*
X265949D02*
D03*
X262799D02*
D03*
X259650D02*
D03*
X256500D02*
D03*
X253350D02*
D03*
X250201D02*
D03*
X247051D02*
D03*
X243902D02*
D03*
X240752D02*
D03*
Y217547D02*
D03*
X243902D02*
D03*
X247051D02*
D03*
X250201D02*
D03*
X253350D02*
D03*
X256500D02*
D03*
X259650D02*
D03*
X262799D02*
D03*
X265949D02*
D03*
X269098D02*
D03*
X272248D02*
D03*
D68*
X234453Y179752D02*
D03*
Y182902D02*
D03*
Y186051D02*
D03*
Y189201D02*
D03*
Y192350D02*
D03*
Y195500D02*
D03*
Y198650D02*
D03*
Y201799D02*
D03*
Y204949D02*
D03*
Y208098D02*
D03*
Y211248D02*
D03*
X278547D02*
D03*
Y208098D02*
D03*
Y204949D02*
D03*
Y201799D02*
D03*
Y198650D02*
D03*
Y195500D02*
D03*
Y192350D02*
D03*
Y189201D02*
D03*
Y186051D02*
D03*
Y182902D02*
D03*
Y179752D02*
D03*
D69*
X263441Y257260D02*
D03*
Y261000D02*
D03*
Y264740D02*
D03*
X253559D02*
D03*
Y257260D02*
D03*
D70*
X237000Y263512D02*
D03*
Y258000D02*
D03*
X254000Y227244D02*
D03*
Y232756D02*
D03*
X310500Y196756D02*
D03*
Y191244D02*
D03*
X302000Y198256D02*
D03*
Y192744D02*
D03*
X245000Y257756D02*
D03*
Y252244D02*
D03*
X292500Y198500D02*
D03*
Y192988D02*
D03*
X221000Y198756D02*
D03*
Y193244D02*
D03*
D71*
X255161Y244500D02*
D03*
X262839D02*
D03*
D72*
X324000Y255563D02*
D03*
Y263437D02*
D03*
X285000Y260563D02*
D03*
Y268437D02*
D03*
D73*
X544000Y271000D02*
D03*
Y267500D02*
D03*
Y264000D02*
D03*
Y260500D02*
D03*
Y257000D02*
D03*
X543500Y180000D02*
D03*
Y176500D02*
D03*
Y173000D02*
D03*
Y169500D02*
D03*
Y166000D02*
D03*
Y162500D02*
D03*
X510500Y182000D02*
D03*
X507000D02*
D03*
X503500D02*
D03*
X500000D02*
D03*
X496500D02*
D03*
X511000Y162000D02*
D03*
X507500D02*
D03*
X504000D02*
D03*
X500500D02*
D03*
X497000D02*
D03*
X543000Y122500D02*
D03*
Y126000D02*
D03*
Y129500D02*
D03*
Y133000D02*
D03*
Y136500D02*
D03*
X464500Y123500D02*
D03*
Y127000D02*
D03*
Y130500D02*
D03*
Y134000D02*
D03*
Y137500D02*
D03*
X448000Y124000D02*
D03*
Y127500D02*
D03*
Y131000D02*
D03*
Y134500D02*
D03*
Y138000D02*
D03*
X401500Y161500D02*
D03*
X405000D02*
D03*
X408500D02*
D03*
X412000D02*
D03*
X415500D02*
D03*
X400000Y182500D02*
D03*
X403500D02*
D03*
X407000D02*
D03*
X410500D02*
D03*
X414000D02*
D03*
X500000Y256000D02*
D03*
X503500D02*
D03*
X507000D02*
D03*
X510500D02*
D03*
X514000D02*
D03*
X543500Y223500D02*
D03*
Y220000D02*
D03*
Y216500D02*
D03*
Y213000D02*
D03*
Y209500D02*
D03*
X576500Y272500D02*
D03*
X573000D02*
D03*
X569500D02*
D03*
X566000D02*
D03*
X562500D02*
D03*
X529500D02*
D03*
X526000D02*
D03*
X522500D02*
D03*
X519000D02*
D03*
X515500D02*
D03*
X464500Y184000D02*
D03*
X461000D02*
D03*
X457500D02*
D03*
X454000D02*
D03*
X450500D02*
D03*
X463500Y159500D02*
D03*
X460000D02*
D03*
X456500D02*
D03*
X453000D02*
D03*
X449500D02*
D03*
X489000Y273000D02*
D03*
X485500D02*
D03*
X482000D02*
D03*
X478500D02*
D03*
X475000D02*
D03*
X464500Y255000D02*
D03*
X461000D02*
D03*
X457500D02*
D03*
X454000D02*
D03*
X450500D02*
D03*
X490000Y348500D02*
D03*
Y352000D02*
D03*
Y355500D02*
D03*
Y359000D02*
D03*
Y362500D02*
D03*
X473500Y348500D02*
D03*
Y352000D02*
D03*
Y355500D02*
D03*
Y359000D02*
D03*
Y362500D02*
D03*
X490000Y291500D02*
D03*
Y295000D02*
D03*
Y298500D02*
D03*
Y302000D02*
D03*
Y305500D02*
D03*
X473500Y291500D02*
D03*
Y295000D02*
D03*
Y298500D02*
D03*
Y302000D02*
D03*
Y305500D02*
D03*
X351500Y129000D02*
D03*
Y132500D02*
D03*
Y136000D02*
D03*
Y139500D02*
D03*
Y143000D02*
D03*
X370000Y129000D02*
D03*
Y132500D02*
D03*
Y136000D02*
D03*
Y139500D02*
D03*
Y143000D02*
D03*
X370500Y180500D02*
D03*
Y177000D02*
D03*
Y173500D02*
D03*
Y170000D02*
D03*
Y166500D02*
D03*
Y163000D02*
D03*
X370000Y271000D02*
D03*
Y267500D02*
D03*
Y264000D02*
D03*
Y260500D02*
D03*
Y257000D02*
D03*
X352000Y191500D02*
D03*
Y195000D02*
D03*
Y198500D02*
D03*
Y202000D02*
D03*
Y205500D02*
D03*
X370000Y191500D02*
D03*
Y195000D02*
D03*
Y198500D02*
D03*
Y202000D02*
D03*
Y205500D02*
D03*
X465000Y214500D02*
D03*
Y218000D02*
D03*
Y221500D02*
D03*
Y225000D02*
D03*
Y228500D02*
D03*
X449000Y214000D02*
D03*
Y217500D02*
D03*
Y221000D02*
D03*
Y224500D02*
D03*
Y228000D02*
D03*
X397500Y272000D02*
D03*
X401000D02*
D03*
X404500D02*
D03*
X408000D02*
D03*
X411500D02*
D03*
X397500Y256000D02*
D03*
X401000D02*
D03*
X404500D02*
D03*
X408000D02*
D03*
X411500D02*
D03*
X351500Y252000D02*
D03*
Y248500D02*
D03*
Y245000D02*
D03*
Y241500D02*
D03*
Y238000D02*
D03*
X370000Y252000D02*
D03*
Y248500D02*
D03*
Y245000D02*
D03*
Y241500D02*
D03*
Y238000D02*
D03*
Y293500D02*
D03*
Y290000D02*
D03*
Y286500D02*
D03*
Y283000D02*
D03*
Y279500D02*
D03*
X352000Y293000D02*
D03*
Y289500D02*
D03*
Y286000D02*
D03*
Y282500D02*
D03*
Y279000D02*
D03*
X370000Y341000D02*
D03*
Y337500D02*
D03*
Y334000D02*
D03*
Y330500D02*
D03*
Y327000D02*
D03*
X352000D02*
D03*
Y330500D02*
D03*
Y334000D02*
D03*
Y337500D02*
D03*
Y341000D02*
D03*
D74*
X404500Y144000D02*
D03*
X416311D02*
D03*
X420012Y155811D02*
D03*
Y132189D02*
D03*
X499185Y144000D02*
D03*
X510996D02*
D03*
X514697Y155811D02*
D03*
Y132189D02*
D03*
D75*
X380500Y151000D02*
D03*
Y109000D02*
D03*
X437500Y151000D02*
D03*
Y109000D02*
D03*
X475185Y151000D02*
D03*
Y109000D02*
D03*
X532185Y151000D02*
D03*
Y109000D02*
D03*
X582685Y365185D02*
D03*
X500685D02*
D03*
Y283185D02*
D03*
X582685Y283185D02*
D03*
X463000Y365185D02*
D03*
X381000D02*
D03*
Y283185D02*
D03*
X463000Y283185D02*
D03*
X381185Y193106D02*
D03*
Y245106D02*
D03*
X438185D02*
D03*
Y193106D02*
D03*
X475870D02*
D03*
Y245106D02*
D03*
X532870D02*
D03*
Y193106D02*
D03*
X330500Y119000D02*
D03*
X331000Y331000D02*
D03*
X119000D02*
D03*
Y118500D02*
D03*
D76*
X441500Y140000D02*
D03*
X431500Y120000D02*
D03*
X411500D02*
D03*
X536185Y140000D02*
D03*
X526185Y120000D02*
D03*
X506185D02*
D03*
X413185Y227106D02*
D03*
X406685Y215106D02*
D03*
X398685Y219106D02*
D03*
X507870Y227106D02*
D03*
X501370Y215106D02*
D03*
X493370Y219106D02*
D03*
X340000Y320000D02*
D03*
Y240000D02*
D03*
Y200000D02*
D03*
Y160000D02*
D03*
Y120000D02*
D03*
X330000Y340000D02*
D03*
X320000Y320000D02*
D03*
X330000Y300000D02*
D03*
X320000Y280000D02*
D03*
X330000Y260000D02*
D03*
Y140000D02*
D03*
X320000Y120000D02*
D03*
X310000Y340000D02*
D03*
X300000Y320000D02*
D03*
X310000Y300000D02*
D03*
X300000Y280000D02*
D03*
X310000Y220000D02*
D03*
Y140000D02*
D03*
X300000Y120000D02*
D03*
X280000Y320000D02*
D03*
X290000Y300000D02*
D03*
Y220000D02*
D03*
X280000Y160000D02*
D03*
X290000Y140000D02*
D03*
X280000Y120000D02*
D03*
X270000Y340000D02*
D03*
X260000Y320000D02*
D03*
X270000Y300000D02*
D03*
X260000Y280000D02*
D03*
Y200000D02*
D03*
X270000Y180000D02*
D03*
Y140000D02*
D03*
X260000Y120000D02*
D03*
X250000Y300000D02*
D03*
X240000Y280000D02*
D03*
Y200000D02*
D03*
X250000Y180000D02*
D03*
X240000Y160000D02*
D03*
X250000Y140000D02*
D03*
X240000Y120000D02*
D03*
X230000Y300000D02*
D03*
Y260000D02*
D03*
Y220000D02*
D03*
X220000Y160000D02*
D03*
X230000Y140000D02*
D03*
X220000Y120000D02*
D03*
X200000Y320000D02*
D03*
X210000Y260000D02*
D03*
Y220000D02*
D03*
Y180000D02*
D03*
X200000Y160000D02*
D03*
X210000Y140000D02*
D03*
X200000Y120000D02*
D03*
X180000Y320000D02*
D03*
X190000Y300000D02*
D03*
Y180000D02*
D03*
X180000Y160000D02*
D03*
X190000Y140000D02*
D03*
X180000Y120000D02*
D03*
X170000Y340000D02*
D03*
X160000Y320000D02*
D03*
Y200000D02*
D03*
X170000Y180000D02*
D03*
X160000Y160000D02*
D03*
X170000Y140000D02*
D03*
X160000Y120000D02*
D03*
X150000Y340000D02*
D03*
X140000Y320000D02*
D03*
X150000Y300000D02*
D03*
Y260000D02*
D03*
X140000Y240000D02*
D03*
X150000Y220000D02*
D03*
X140000Y200000D02*
D03*
X150000Y180000D02*
D03*
Y140000D02*
D03*
X140000Y120000D02*
D03*
X130000Y340000D02*
D03*
X120000Y320000D02*
D03*
X130000Y300000D02*
D03*
Y260000D02*
D03*
X120000Y240000D02*
D03*
X130000Y220000D02*
D03*
X120000Y200000D02*
D03*
X130000Y180000D02*
D03*
D77*
X533185Y359685D02*
D03*
X543185D02*
D03*
X553185D02*
D03*
X523185D02*
D03*
X413500D02*
D03*
X423500D02*
D03*
X433500D02*
D03*
X403500D02*
D03*
X262314Y334000D02*
D03*
X272314D02*
D03*
X282314D02*
D03*
X252314D02*
D03*
X203000Y336000D02*
D03*
X213000D02*
D03*
X223000D02*
D03*
X193000D02*
D03*
D78*
X563185Y359685D02*
D03*
X443500D02*
D03*
X292314Y334000D02*
D03*
X233000Y336000D02*
D03*
D79*
X417559Y242106D02*
D03*
X512244D02*
D03*
D80*
X409685D02*
D03*
X401811D02*
D03*
X504370D02*
D03*
X496496D02*
D03*
X331000Y170874D02*
D03*
Y163000D02*
D03*
X330000Y223374D02*
D03*
Y215500D02*
D03*
D81*
X425185Y208606D02*
D03*
X420185Y213606D02*
D03*
X519870Y208606D02*
D03*
X514870Y213606D02*
D03*
D82*
X425185Y218606D02*
D03*
X519870D02*
D03*
D83*
X105000Y298500D02*
D03*
Y268000D02*
D03*
Y237500D02*
D03*
Y205500D02*
D03*
D84*
Y308500D02*
D03*
Y278000D02*
D03*
Y247500D02*
D03*
Y215500D02*
D03*
D85*
X331000Y178748D02*
D03*
X330000Y231248D02*
D03*
D86*
X136902Y138299D02*
D03*
D87*
X124500Y142500D02*
D03*
Y152500D02*
D03*
Y162500D02*
D03*
Y172500D02*
D03*
D88*
X341000Y265500D02*
D03*
Y275500D02*
D03*
Y285500D02*
D03*
Y295500D02*
D03*
D89*
Y305500D02*
D03*
D90*
X203500Y170000D02*
D03*
D91*
Y179606D02*
D03*
Y189213D02*
D03*
D92*
X193416Y290758D02*
D03*
X173916Y314758D02*
D03*
X170837Y279000D02*
D03*
Y217000D02*
D03*
X166000Y201000D02*
D03*
X322000Y187000D02*
D03*
X308000Y186500D02*
D03*
X284692Y181383D02*
D03*
X291500Y182500D02*
D03*
X284500Y192500D02*
D03*
X296237Y175521D02*
D03*
X271500Y314000D02*
D03*
X235500Y254000D02*
D03*
X285000Y208500D02*
D03*
X306000Y238000D02*
D03*
X292000Y225000D02*
D03*
X289000Y229500D02*
D03*
X286000Y233500D02*
D03*
X321950Y162450D02*
D03*
X173422Y304000D02*
D03*
X194067Y277500D02*
D03*
X170000Y267000D02*
D03*
X192469Y216500D02*
D03*
X266500Y158000D02*
D03*
X217000Y193000D02*
D03*
X290500Y161000D02*
D03*
X194801Y242965D02*
D03*
X197531Y309500D02*
D03*
X268000Y235500D02*
D03*
X245000Y248500D02*
D03*
X267500Y261000D02*
D03*
X276500Y265500D02*
D03*
X324000Y268063D02*
D03*
X307500Y224500D02*
D03*
X306756Y212000D02*
D03*
X197586Y253070D02*
D03*
X180500Y199000D02*
D03*
X207996Y313161D02*
D03*
X173693Y232740D02*
D03*
X181500Y222500D02*
D03*
X170500Y243000D02*
D03*
X220000Y178000D02*
D03*
X199500Y250500D02*
D03*
X305000Y192500D02*
D03*
M02*
