G04*
G04 #@! TF.GenerationSoftware,Altium Limited,Altium Designer,21.5.1 (32)*
G04*
G04 Layer_Color=65535*
%FSLAX25Y25*%
%MOIN*%
G70*
G04*
G04 #@! TF.SameCoordinates,3A1198FE-CC6F-45F1-A000-1D614036FB2E*
G04*
G04*
G04 #@! TF.FilePolarity,Positive*
G04*
G01*
G75*
%ADD13C,0.01000*%
%ADD51C,0.00787*%
%ADD52C,0.00984*%
%ADD53C,0.00600*%
%ADD54C,0.00300*%
%ADD55C,0.00500*%
%ADD56C,0.02362*%
%ADD57C,0.00700*%
%ADD58C,0.00394*%
D13*
X373997Y138000D02*
X375497D01*
X373997Y136500D02*
Y138000D01*
Y119000D02*
Y120500D01*
Y119000D02*
X375497D01*
X391497D02*
X392997D01*
Y120500D01*
X391497Y138000D02*
X392997D01*
Y136500D02*
Y138000D01*
X393003Y113499D02*
Y107501D01*
X397002D01*
X403000Y113499D02*
X399001D01*
Y107501D01*
X403000D01*
X399001Y110500D02*
X401001D01*
X404999Y113499D02*
Y107501D01*
X407998D01*
X408998Y108501D01*
Y112499D01*
X407998Y113499D01*
X404999D01*
X410997Y107501D02*
X412997D01*
X411997D01*
Y113499D01*
X410997Y112499D01*
X405000Y126999D02*
X403001D01*
X404000D01*
Y122001D01*
X403001Y121001D01*
X402001D01*
X401001Y122001D01*
X406999Y121001D02*
X408999D01*
X407999D01*
Y126999D01*
X406999Y125999D01*
X434002Y121501D02*
Y127499D01*
X437001D01*
X438000Y126499D01*
Y124500D01*
X437001Y123500D01*
X434002D01*
X436001D02*
X438000Y121501D01*
X440000Y126499D02*
X440999Y127499D01*
X442999D01*
X443998Y126499D01*
Y125500D01*
X442999Y124500D01*
X441999D01*
X442999D01*
X443998Y123500D01*
Y122501D01*
X442999Y121501D01*
X440999D01*
X440000Y122501D01*
X468682Y138000D02*
X470182D01*
X468682Y136500D02*
Y138000D01*
Y119000D02*
Y120500D01*
Y119000D02*
X470182D01*
X486182D02*
X487682D01*
Y120500D01*
X486182Y138000D02*
X487682D01*
Y136500D02*
Y138000D01*
X487688Y113499D02*
Y107501D01*
X491687D01*
X497685Y113499D02*
X493686D01*
Y107501D01*
X497685D01*
X493686Y110500D02*
X495686D01*
X499684Y113499D02*
Y107501D01*
X502683D01*
X503683Y108501D01*
Y112499D01*
X502683Y113499D01*
X499684D01*
X505683Y107501D02*
X507682D01*
X506682D01*
Y113499D01*
X505683Y112499D01*
X499685Y126999D02*
X497686D01*
X498685D01*
Y122001D01*
X497686Y121001D01*
X496686D01*
X495686Y122001D01*
X501685Y121001D02*
X503684D01*
X502684D01*
Y126999D01*
X501685Y125999D01*
X528687Y121501D02*
Y127499D01*
X531686D01*
X532685Y126499D01*
Y124500D01*
X531686Y123500D01*
X528687D01*
X530686D02*
X532685Y121501D01*
X534685Y126499D02*
X535684Y127499D01*
X537684D01*
X538684Y126499D01*
Y125500D01*
X537684Y124500D01*
X536684D01*
X537684D01*
X538684Y123500D01*
Y122501D01*
X537684Y121501D01*
X535684D01*
X534685Y122501D01*
X570785Y346185D02*
Y340187D01*
X567786D01*
X566786Y341186D01*
Y343186D01*
X567786Y344186D01*
X570785D01*
X564787Y346185D02*
X562788D01*
X563787D01*
Y340187D01*
X564787Y341186D01*
X524684Y304686D02*
Y309684D01*
X523684Y310684D01*
X521685D01*
X520685Y309684D01*
Y304686D01*
X518686Y310684D02*
X516686D01*
X517686D01*
Y304686D01*
X518686Y305686D01*
X451100Y346185D02*
Y340187D01*
X448101D01*
X447101Y341186D01*
Y343186D01*
X448101Y344186D01*
X451100D01*
X445102Y346185D02*
X443103D01*
X444102D01*
Y340187D01*
X445102Y341186D01*
X404999Y304686D02*
Y309684D01*
X403999Y310684D01*
X402000D01*
X401000Y309684D01*
Y304686D01*
X399001Y310684D02*
X397001D01*
X398001D01*
Y304686D01*
X399001Y305686D01*
X425186Y229607D02*
Y235605D01*
X428185D01*
X429185Y234606D01*
Y232606D01*
X428185Y231607D01*
X425186D01*
X431184Y229607D02*
X433184D01*
X432184D01*
Y235605D01*
X431184Y234606D01*
X519872Y229607D02*
Y235605D01*
X522870D01*
X523870Y234606D01*
Y232606D01*
X522870Y231607D01*
X519872D01*
X525870Y229607D02*
X527869D01*
X526869D01*
Y235605D01*
X525870Y234606D01*
X322600Y244100D02*
Y250098D01*
X325599D01*
X326599Y249098D01*
Y247099D01*
X325599Y246099D01*
X322600D01*
X332597Y250098D02*
X328598D01*
Y247099D01*
X330597Y248099D01*
X331597D01*
X332597Y247099D01*
Y245100D01*
X331597Y244100D01*
X329598D01*
X328598Y245100D01*
X323600Y191600D02*
Y197598D01*
X326599D01*
X327599Y196598D01*
Y194599D01*
X326599Y193599D01*
X323600D01*
X332597Y191600D02*
Y197598D01*
X329598Y194599D01*
X333597D01*
X106008Y320499D02*
X104009D01*
X105008D01*
Y315500D01*
X104009Y314501D01*
X103009D01*
X102009Y315500D01*
X108007Y314501D02*
X110007D01*
X109007D01*
Y320499D01*
X108007Y319499D01*
X113006Y313501D02*
X117004D01*
X119004Y320499D02*
X123002D01*
X121003D01*
Y314501D01*
X125002Y320499D02*
Y314501D01*
Y317500D01*
X126002Y318499D01*
X128001D01*
X129000Y317500D01*
Y314501D01*
X133999D02*
X132000D01*
X131000Y315500D01*
Y317500D01*
X132000Y318499D01*
X133999D01*
X134999Y317500D01*
Y316500D01*
X131000D01*
X136998Y318499D02*
Y314501D01*
Y316500D01*
X137998Y317500D01*
X138997Y318499D01*
X139997D01*
X142996Y314501D02*
Y318499D01*
X143996D01*
X144995Y317500D01*
Y314501D01*
Y317500D01*
X145995Y318499D01*
X146995Y317500D01*
Y314501D01*
X149994D02*
X151993D01*
X152993Y315500D01*
Y317500D01*
X151993Y318499D01*
X149994D01*
X148994Y317500D01*
Y315500D01*
X149994Y314501D01*
X157991D02*
Y320499D01*
X154992Y317500D01*
X158991D01*
X105508Y291499D02*
X103509D01*
X104508D01*
Y286501D01*
X103509Y285501D01*
X102509D01*
X101509Y286501D01*
X107507Y285501D02*
X109507D01*
X108507D01*
Y291499D01*
X107507Y290499D01*
X112506Y284501D02*
X116504D01*
X118504Y291499D02*
X122502D01*
X120503D01*
Y285501D01*
X124502Y291499D02*
Y285501D01*
Y288500D01*
X125502Y289499D01*
X127501D01*
X128500Y288500D01*
Y285501D01*
X133499D02*
X131500D01*
X130500Y286501D01*
Y288500D01*
X131500Y289499D01*
X133499D01*
X134499Y288500D01*
Y287500D01*
X130500D01*
X136498Y289499D02*
Y285501D01*
Y287500D01*
X137498Y288500D01*
X138497Y289499D01*
X139497D01*
X142496Y285501D02*
Y289499D01*
X143496D01*
X144495Y288500D01*
Y285501D01*
Y288500D01*
X145495Y289499D01*
X146495Y288500D01*
Y285501D01*
X149494D02*
X151493D01*
X152493Y286501D01*
Y288500D01*
X151493Y289499D01*
X149494D01*
X148494Y288500D01*
Y286501D01*
X149494Y285501D01*
X154492Y290499D02*
X155492Y291499D01*
X157491D01*
X158491Y290499D01*
Y289499D01*
X157491Y288500D01*
X156491D01*
X157491D01*
X158491Y287500D01*
Y286501D01*
X157491Y285501D01*
X155492D01*
X154492Y286501D01*
X105008Y260999D02*
X103009D01*
X104008D01*
Y256000D01*
X103009Y255001D01*
X102009D01*
X101009Y256000D01*
X107007Y255001D02*
X109007D01*
X108007D01*
Y260999D01*
X107007Y259999D01*
X112006Y254001D02*
X116004D01*
X118004Y260999D02*
X122002D01*
X120003D01*
Y255001D01*
X124002Y260999D02*
Y255001D01*
Y258000D01*
X125002Y258999D01*
X127001D01*
X128000Y258000D01*
Y255001D01*
X132999D02*
X131000D01*
X130000Y256000D01*
Y258000D01*
X131000Y258999D01*
X132999D01*
X133999Y258000D01*
Y257000D01*
X130000D01*
X135998Y258999D02*
Y255001D01*
Y257000D01*
X136998Y258000D01*
X137997Y258999D01*
X138997D01*
X141996Y255001D02*
Y258999D01*
X142996D01*
X143995Y258000D01*
Y255001D01*
Y258000D01*
X144995Y258999D01*
X145995Y258000D01*
Y255001D01*
X148994D02*
X150993D01*
X151993Y256000D01*
Y258000D01*
X150993Y258999D01*
X148994D01*
X147994Y258000D01*
Y256000D01*
X148994Y255001D01*
X157991D02*
X153992D01*
X157991Y258999D01*
Y259999D01*
X156991Y260999D01*
X154992D01*
X153992Y259999D01*
X105008Y229999D02*
X103008D01*
X104008D01*
Y225001D01*
X103008Y224001D01*
X102009D01*
X101009Y225001D01*
X107007Y224001D02*
X109006D01*
X108007D01*
Y229999D01*
X107007Y228999D01*
X112005Y223001D02*
X116004D01*
X118003Y229999D02*
X122002D01*
X120003D01*
Y224001D01*
X124002Y229999D02*
Y224001D01*
Y227000D01*
X125001Y227999D01*
X127000D01*
X128000Y227000D01*
Y224001D01*
X132999D02*
X130999D01*
X129999Y225001D01*
Y227000D01*
X130999Y227999D01*
X132999D01*
X133998Y227000D01*
Y226000D01*
X129999D01*
X135998Y227999D02*
Y224001D01*
Y226000D01*
X136997Y227000D01*
X137997Y227999D01*
X138997D01*
X141996Y224001D02*
Y227999D01*
X142995D01*
X143995Y227000D01*
Y224001D01*
Y227000D01*
X144995Y227999D01*
X145994Y227000D01*
Y224001D01*
X148993D02*
X150993D01*
X151992Y225001D01*
Y227000D01*
X150993Y227999D01*
X148993D01*
X147994Y227000D01*
Y225001D01*
X148993Y224001D01*
X153992D02*
X155991D01*
X154991D01*
Y229999D01*
X153992Y228999D01*
X278800Y259598D02*
Y253600D01*
X281799D01*
X282799Y254600D01*
Y258598D01*
X281799Y259598D01*
X278800D01*
X284798Y253600D02*
X286797D01*
X285798D01*
Y259598D01*
X284798Y258598D01*
D51*
X393420Y144016D02*
G03*
X393420Y144016I-290J0D01*
G01*
X423791Y130910D02*
Y157091D01*
X394776Y130910D02*
Y157091D01*
X415866D01*
X394776Y130910D02*
X415866D01*
X422000Y120441D02*
Y125559D01*
X488105Y144016D02*
G03*
X488105Y144016I-290J0D01*
G01*
X518476Y130910D02*
Y157091D01*
X489461Y130910D02*
Y157091D01*
X510551D01*
X489461Y130910D02*
X510551D01*
X516685Y120441D02*
Y125559D01*
X568185Y372205D02*
X518185D01*
X568185D02*
Y349685D01*
X518185D01*
Y372205D02*
Y349685D01*
X448500Y372205D02*
X398500D01*
X448500D02*
Y349685D01*
X398500D01*
Y372205D02*
Y349685D01*
X431556Y223317D02*
G03*
X434896Y219977I-6370J-9711D01*
G01*
X393150Y235806D02*
Y249980D01*
Y235806D02*
X423858D01*
X393150Y249980D02*
X423858D01*
Y235806D02*
Y249980D01*
X431556Y223317D02*
X435175Y226937D01*
X438515Y223596D01*
X434896Y219977D02*
X438515Y223596D01*
X403016Y229016D02*
Y230197D01*
X392473Y207441D02*
Y211378D01*
X404677Y207441D02*
Y211378D01*
X392473Y207441D02*
X404677D01*
X392473Y211378D02*
X404677D01*
X526241Y223317D02*
G03*
X529581Y219977I-6370J-9711D01*
G01*
X487835Y235806D02*
Y249980D01*
Y235806D02*
X518543D01*
X487835Y249980D02*
X518543D01*
Y235806D02*
Y249980D01*
X526241Y223317D02*
X529860Y226937D01*
X533200Y223596D01*
X529581Y219977D02*
X533200Y223596D01*
X497701Y229016D02*
Y230197D01*
X487158Y207441D02*
Y211378D01*
X499362Y207441D02*
Y211378D01*
X487158Y207441D02*
X499362D01*
X487158Y211378D02*
X499362D01*
X124500Y185098D02*
G03*
X123713Y185098I-394J0D01*
G01*
D02*
G03*
X124500Y185098I394J0D01*
G01*
X268382Y256866D02*
G03*
X268382Y256866I-394J0D01*
G01*
X193658Y160512D02*
G03*
X196906Y157264I3248J0D01*
G01*
X210094Y157264D02*
G03*
X213342Y160512I0J3248D01*
G01*
Y198701D02*
G03*
X210094Y201949I-3248J0D01*
G01*
X196906Y201949D02*
G03*
X193658Y198701I0J-3248D01*
G01*
X323126Y154339D02*
X337300D01*
Y185047D01*
X323127Y154339D02*
Y185047D01*
X337300D01*
X322126Y206839D02*
X336300D01*
Y237547D01*
X322127Y206839D02*
Y237547D01*
X336300D01*
X104000Y225008D02*
X154748D01*
Y195992D02*
Y225008D01*
X101244Y195992D02*
X154748D01*
X103839Y257008D02*
X154587D01*
Y227992D02*
Y257008D01*
X101083Y227992D02*
X154587D01*
X105000Y287508D02*
X155748D01*
Y258492D02*
Y287508D01*
X102244Y258492D02*
X155748D01*
X104500Y318008D02*
X155248D01*
Y288992D02*
Y318008D01*
X101744Y288992D02*
X155248D01*
X247314Y346520D02*
X297314D01*
Y324000D02*
Y346520D01*
X247314Y324000D02*
X297314D01*
X247314D02*
Y346520D01*
X188000Y348520D02*
X238000D01*
Y326000D02*
Y348520D01*
X188000Y326000D02*
X238000D01*
X188000D02*
Y348520D01*
X285571Y249815D02*
X294429D01*
X285571Y239185D02*
X294429D01*
X289799Y167815D02*
X302201D01*
Y182185D01*
X289799D02*
X302201D01*
X289799Y167815D02*
Y182185D01*
X169032Y205398D02*
Y217602D01*
X172968Y205398D02*
Y217602D01*
X169032D02*
X172968D01*
X169032Y205398D02*
X172968D01*
X169032Y237398D02*
Y249602D01*
X172968Y237398D02*
Y249602D01*
X169032D02*
X172968D01*
X169032Y237398D02*
X172968D01*
X169032Y270398D02*
Y282602D01*
X172968Y270398D02*
Y282602D01*
X169032D02*
X172968D01*
X169032Y270398D02*
X172968D01*
X173031Y303398D02*
Y315602D01*
X176969Y303398D02*
Y315602D01*
X173031D02*
X176969D01*
X173031Y303398D02*
X176969D01*
X299244Y225917D02*
Y228083D01*
X301902Y221016D02*
X304756D01*
Y229658D02*
Y232984D01*
Y221016D02*
Y224342D01*
X301902Y232984D02*
X304756D01*
X205968Y204398D02*
Y216602D01*
X202031Y204398D02*
Y216602D01*
Y204398D02*
X205968D01*
X202031Y216602D02*
X205968D01*
X206968Y236898D02*
Y249102D01*
X203031Y236898D02*
Y249102D01*
Y236898D02*
X206968D01*
X203031Y249102D02*
X206968D01*
X205968Y270398D02*
Y282602D01*
X202031Y270398D02*
Y282602D01*
Y270398D02*
X205968D01*
X202031Y282602D02*
X205968D01*
X209469Y303398D02*
Y315602D01*
X205532Y303398D02*
Y315602D01*
Y303398D02*
X209469D01*
X205532Y315602D02*
X209469D01*
X238587Y213413D02*
X274413D01*
X238587Y177587D02*
X274413D01*
X238587D02*
Y213413D01*
X274413Y177587D02*
Y213413D01*
X336000Y310500D02*
X346000D01*
Y260500D02*
Y310500D01*
X336000Y260500D02*
Y310500D01*
Y260500D02*
X346000D01*
X196906Y157264D02*
X210094D01*
X193658Y160512D02*
Y198701D01*
X213342Y160512D02*
Y198701D01*
X196906Y201949D02*
X210094D01*
D52*
X570252Y359685D02*
G03*
X570252Y359685I500J0D01*
G01*
X450567D02*
G03*
X450567Y359685I500J0D01*
G01*
X426909Y242106D02*
G03*
X426909Y242106I-492J0D01*
G01*
X391882Y203602D02*
G03*
X391882Y203602I-492J0D01*
G01*
X521595Y242106D02*
G03*
X521595Y242106I-492J0D01*
G01*
X486567Y203602D02*
G03*
X486567Y203602I-492J0D01*
G01*
X331492Y187606D02*
G03*
X331492Y187606I-492J0D01*
G01*
X330492Y240106D02*
G03*
X330492Y240106I-492J0D01*
G01*
X300381Y334000D02*
G03*
X300381Y334000I-500J0D01*
G01*
X241067Y336000D02*
G03*
X241067Y336000I-500J0D01*
G01*
X304075Y244500D02*
G03*
X304075Y244500I-492J0D01*
G01*
X293539Y165650D02*
G03*
X293539Y165650I-492J0D01*
G01*
X177299Y204315D02*
G03*
X177299Y204315I-492J0D01*
G01*
Y236315D02*
G03*
X177299Y236315I-492J0D01*
G01*
Y269315D02*
G03*
X177299Y269315I-492J0D01*
G01*
X181299Y302315D02*
G03*
X181299Y302315I-492J0D01*
G01*
X198685Y217685D02*
G03*
X198685Y217685I-492J0D01*
G01*
X199685Y250185D02*
G03*
X199685Y250185I-492J0D01*
G01*
X198685Y283685D02*
G03*
X198685Y283685I-492J0D01*
G01*
X202185Y316685D02*
G03*
X202185Y316685I-492J0D01*
G01*
X279039Y176504D02*
G03*
X279039Y176504I-492J0D01*
G01*
D53*
X569685Y282185D02*
X566895D01*
X529685Y336185D02*
Y282185D01*
X532475D02*
X529685D01*
X569685Y336185D02*
Y282185D01*
Y336185D02*
X566895D01*
X562475D02*
X556895D01*
X552475D02*
X546895D01*
X542475D02*
X536895D01*
X532475D02*
X529685D01*
X542475Y282185D02*
X536895D01*
X552475D02*
X546895D01*
X562475D02*
X556895D01*
X450000D02*
X447210D01*
X410000Y336185D02*
Y282185D01*
X412790D02*
X410000D01*
X450000Y336185D02*
Y282185D01*
Y336185D02*
X447210D01*
X442790D02*
X437210D01*
X432790D02*
X427210D01*
X422790D02*
X417210D01*
X412790D02*
X410000D01*
X422790Y282185D02*
X417210D01*
X432790D02*
X427210D01*
X442790D02*
X437210D01*
X261633Y236900D02*
Y240100D01*
X259500D01*
X258434D02*
X257367D01*
X257901D01*
Y236900D01*
X258434Y237434D01*
X237834Y226600D02*
Y223934D01*
X238367Y223400D01*
X239434D01*
X239967Y223934D01*
Y226600D01*
X243166Y223400D02*
X241033D01*
X243166Y225533D01*
Y226066D01*
X242633Y226600D01*
X241566D01*
X241033Y226066D01*
X336200Y313500D02*
Y316699D01*
X337800D01*
X338333Y316166D01*
Y315100D01*
X337800Y314566D01*
X336200D01*
X339399Y313500D02*
X340465D01*
X339932D01*
Y316699D01*
X339399Y316166D01*
X190124Y255436D02*
Y252771D01*
X190658Y252238D01*
X191724D01*
X192257Y252771D01*
Y255436D01*
X194923Y252238D02*
Y255436D01*
X193323Y253837D01*
X195456D01*
X196522Y251704D02*
X198655D01*
X199721Y255436D02*
X201854D01*
X200788D01*
Y252238D01*
X202920Y255436D02*
Y252238D01*
Y253837D01*
X203453Y254370D01*
X204520D01*
X205053Y253837D01*
Y252238D01*
X207719D02*
X206652D01*
X206119Y252771D01*
Y253837D01*
X206652Y254370D01*
X207719D01*
X208252Y253837D01*
Y253304D01*
X206119D01*
X209318Y254370D02*
Y252238D01*
Y253304D01*
X209851Y253837D01*
X210385Y254370D01*
X210918D01*
X212517Y252238D02*
Y254370D01*
X213050D01*
X213583Y253837D01*
Y252238D01*
Y253837D01*
X214117Y254370D01*
X214650Y253837D01*
Y252238D01*
X216249D02*
X217316D01*
X217849Y252771D01*
Y253837D01*
X217316Y254370D01*
X216249D01*
X215716Y253837D01*
Y252771D01*
X216249Y252238D01*
X221048D02*
X218915D01*
X221048Y254370D01*
Y254903D01*
X220515Y255436D01*
X219448D01*
X218915Y254903D01*
X121467Y187257D02*
X120401D01*
X120934D01*
Y184591D01*
X120401Y184058D01*
X119867D01*
X119334Y184591D01*
X124133Y184058D02*
Y187257D01*
X122533Y185658D01*
X124666D01*
X301634Y204066D02*
X301101Y204599D01*
X300034D01*
X299501Y204066D01*
Y201934D01*
X300034Y201400D01*
X301101D01*
X301634Y201934D01*
X302700Y201400D02*
X303767D01*
X303233D01*
Y204599D01*
X302700Y204066D01*
X305366Y201934D02*
X305899Y201400D01*
X306965D01*
X307499Y201934D01*
Y204066D01*
X306965Y204599D01*
X305899D01*
X305366Y204066D01*
Y203533D01*
X305899Y203000D01*
X307499D01*
X299390Y209066D02*
X298857Y209599D01*
X297790D01*
X297257Y209066D01*
Y206934D01*
X297790Y206400D01*
X298857D01*
X299390Y206934D01*
X300456Y206400D02*
X301522D01*
X300989D01*
Y209599D01*
X300456Y209066D01*
X303122D02*
X303655Y209599D01*
X304721D01*
X305255Y209066D01*
Y208533D01*
X304721Y208000D01*
X305255Y207467D01*
Y206934D01*
X304721Y206400D01*
X303655D01*
X303122Y206934D01*
Y207467D01*
X303655Y208000D01*
X303122Y208533D01*
Y209066D01*
X303655Y208000D02*
X304721D01*
X148171Y304801D02*
X147638Y305335D01*
X146572D01*
X146038Y304801D01*
Y302669D01*
X146572Y302136D01*
X147638D01*
X148171Y302669D01*
X149237D02*
X149770Y302136D01*
X150837D01*
X151370Y302669D01*
Y304801D01*
X150837Y305335D01*
X149770D01*
X149237Y304801D01*
Y304268D01*
X149770Y303735D01*
X151370D01*
X152436Y301602D02*
X154569D01*
X155635Y305335D02*
X157768D01*
X156702D01*
Y302136D01*
X158834Y305335D02*
Y302136D01*
Y303735D01*
X159367Y304268D01*
X160434D01*
X160967Y303735D01*
Y302136D01*
X163633D02*
X162566D01*
X162033Y302669D01*
Y303735D01*
X162566Y304268D01*
X163633D01*
X164166Y303735D01*
Y303202D01*
X162033D01*
X165232Y304268D02*
Y302136D01*
Y303202D01*
X165765Y303735D01*
X166298Y304268D01*
X166832D01*
X168431Y302136D02*
Y304268D01*
X168964D01*
X169497Y303735D01*
Y302136D01*
Y303735D01*
X170031Y304268D01*
X170564Y303735D01*
Y302136D01*
X172163D02*
X173230D01*
X173763Y302669D01*
Y303735D01*
X173230Y304268D01*
X172163D01*
X171630Y303735D01*
Y302669D01*
X172163Y302136D01*
X176428D02*
Y305335D01*
X174829Y303735D01*
X176962D01*
X308100Y178765D02*
X305434D01*
X304901Y178232D01*
Y177166D01*
X305434Y176633D01*
X308100D01*
X304901Y173434D02*
Y175566D01*
X307033Y173434D01*
X307566D01*
X308100Y173967D01*
Y175033D01*
X307566Y175566D01*
X304901Y170768D02*
X308100D01*
X306500Y172367D01*
Y170235D01*
X160038Y322866D02*
Y320200D01*
X160572Y319667D01*
X161638D01*
X162171Y320200D01*
Y322866D01*
X163237Y320200D02*
X163770Y319667D01*
X164837D01*
X165370Y320200D01*
Y322333D01*
X164837Y322866D01*
X163770D01*
X163237Y322333D01*
Y321800D01*
X163770Y321267D01*
X165370D01*
X166436Y319134D02*
X168569D01*
X169635Y322866D02*
X171768D01*
X170702D01*
Y319667D01*
X172834Y322866D02*
Y319667D01*
Y321267D01*
X173367Y321800D01*
X174434D01*
X174967Y321267D01*
Y319667D01*
X177633D02*
X176566D01*
X176033Y320200D01*
Y321267D01*
X176566Y321800D01*
X177633D01*
X178166Y321267D01*
Y320733D01*
X176033D01*
X179232Y321800D02*
Y319667D01*
Y320733D01*
X179765Y321267D01*
X180298Y321800D01*
X180832D01*
X182431Y319667D02*
Y321800D01*
X182964D01*
X183497Y321267D01*
Y319667D01*
Y321267D01*
X184031Y321800D01*
X184564Y321267D01*
Y319667D01*
X186163D02*
X187230D01*
X187763Y320200D01*
Y321267D01*
X187230Y321800D01*
X186163D01*
X185630Y321267D01*
Y320200D01*
X186163Y319667D01*
X190428D02*
Y322866D01*
X188829Y321267D01*
X190962D01*
X157038Y288866D02*
Y286200D01*
X157571Y285667D01*
X158638D01*
X159171Y286200D01*
Y288866D01*
X160237Y286200D02*
X160770Y285667D01*
X161837D01*
X162370Y286200D01*
Y288333D01*
X161837Y288866D01*
X160770D01*
X160237Y288333D01*
Y287800D01*
X160770Y287267D01*
X162370D01*
X163436Y285134D02*
X165569D01*
X166635Y288866D02*
X168768D01*
X167701D01*
Y285667D01*
X169834Y288866D02*
Y285667D01*
Y287267D01*
X170367Y287800D01*
X171434D01*
X171967Y287267D01*
Y285667D01*
X174633D02*
X173566D01*
X173033Y286200D01*
Y287267D01*
X173566Y287800D01*
X174633D01*
X175166Y287267D01*
Y286733D01*
X173033D01*
X176232Y287800D02*
Y285667D01*
Y286733D01*
X176765Y287267D01*
X177298Y287800D01*
X177832D01*
X179431Y285667D02*
Y287800D01*
X179964D01*
X180497Y287267D01*
Y285667D01*
Y287267D01*
X181031Y287800D01*
X181564Y287267D01*
Y285667D01*
X183163D02*
X184230D01*
X184763Y286200D01*
Y287267D01*
X184230Y287800D01*
X183163D01*
X182630Y287267D01*
Y286200D01*
X183163Y285667D01*
X185829Y288333D02*
X186362Y288866D01*
X187428D01*
X187962Y288333D01*
Y287800D01*
X187428Y287267D01*
X186895D01*
X187428D01*
X187962Y286733D01*
Y286200D01*
X187428Y285667D01*
X186362D01*
X185829Y286200D01*
X154731Y256606D02*
Y253940D01*
X155264Y253407D01*
X156331D01*
X156864Y253940D01*
Y256606D01*
X157930Y253940D02*
X158463Y253407D01*
X159530D01*
X160063Y253940D01*
Y256073D01*
X159530Y256606D01*
X158463D01*
X157930Y256073D01*
Y255540D01*
X158463Y255007D01*
X160063D01*
X161129Y252874D02*
X163262D01*
X164328Y256606D02*
X166461D01*
X165394D01*
Y253407D01*
X167527Y256606D02*
Y253407D01*
Y255007D01*
X168060Y255540D01*
X169127D01*
X169660Y255007D01*
Y253407D01*
X172326D02*
X171259D01*
X170726Y253940D01*
Y255007D01*
X171259Y255540D01*
X172326D01*
X172859Y255007D01*
Y254474D01*
X170726D01*
X173925Y255540D02*
Y253407D01*
Y254474D01*
X174458Y255007D01*
X174991Y255540D01*
X175524D01*
X177124Y253407D02*
Y255540D01*
X177657D01*
X178190Y255007D01*
Y253407D01*
Y255007D01*
X178724Y255540D01*
X179257Y255007D01*
Y253407D01*
X180856D02*
X181922D01*
X182456Y253940D01*
Y255007D01*
X181922Y255540D01*
X180856D01*
X180323Y255007D01*
Y253940D01*
X180856Y253407D01*
X185655D02*
X183522D01*
X185655Y255540D01*
Y256073D01*
X185122Y256606D01*
X184055D01*
X183522Y256073D01*
X156071Y222866D02*
Y220200D01*
X156605Y219667D01*
X157671D01*
X158204Y220200D01*
Y222866D01*
X159271Y220200D02*
X159804Y219667D01*
X160870D01*
X161403Y220200D01*
Y222333D01*
X160870Y222866D01*
X159804D01*
X159271Y222333D01*
Y221800D01*
X159804Y221267D01*
X161403D01*
X162469Y219134D02*
X164602D01*
X165668Y222866D02*
X167801D01*
X166735D01*
Y219667D01*
X168867Y222866D02*
Y219667D01*
Y221267D01*
X169401Y221800D01*
X170467D01*
X171000Y221267D01*
Y219667D01*
X173666D02*
X172599D01*
X172066Y220200D01*
Y221267D01*
X172599Y221800D01*
X173666D01*
X174199Y221267D01*
Y220733D01*
X172066D01*
X175265Y221800D02*
Y219667D01*
Y220733D01*
X175798Y221267D01*
X176332Y221800D01*
X176865D01*
X178464Y219667D02*
Y221800D01*
X178997D01*
X179531Y221267D01*
Y219667D01*
Y221267D01*
X180064Y221800D01*
X180597Y221267D01*
Y219667D01*
X182196D02*
X183263D01*
X183796Y220200D01*
Y221267D01*
X183263Y221800D01*
X182196D01*
X181663Y221267D01*
Y220200D01*
X182196Y219667D01*
X184862D02*
X185928D01*
X185395D01*
Y222866D01*
X184862Y222333D01*
X296334Y238599D02*
Y235934D01*
X296867Y235401D01*
X297934D01*
X298467Y235934D01*
Y238599D01*
X299533Y238066D02*
X300066Y238599D01*
X301133D01*
X301666Y238066D01*
Y237533D01*
X301133Y237000D01*
X301666Y236467D01*
Y235934D01*
X301133Y235401D01*
X300066D01*
X299533Y235934D01*
Y236467D01*
X300066Y237000D01*
X299533Y237533D01*
Y238066D01*
X300066Y237000D02*
X301133D01*
X192034Y321527D02*
Y318861D01*
X192567Y318328D01*
X193633D01*
X194167Y318861D01*
Y321527D01*
X196832Y318328D02*
Y321527D01*
X195233Y319928D01*
X197365D01*
X198432Y317795D02*
X200565D01*
X201631Y321527D02*
X203763D01*
X202697D01*
Y318328D01*
X204830Y321527D02*
Y318328D01*
Y319928D01*
X205363Y320461D01*
X206429D01*
X206962Y319928D01*
Y318328D01*
X209628D02*
X208562D01*
X208029Y318861D01*
Y319928D01*
X208562Y320461D01*
X209628D01*
X210161Y319928D01*
Y319394D01*
X208029D01*
X211228Y320461D02*
Y318328D01*
Y319394D01*
X211761Y319928D01*
X212294Y320461D01*
X212827D01*
X214427Y318328D02*
Y320461D01*
X214960D01*
X215493Y319928D01*
Y318328D01*
Y319928D01*
X216026Y320461D01*
X216559Y319928D01*
Y318328D01*
X218159D02*
X219225D01*
X219758Y318861D01*
Y319928D01*
X219225Y320461D01*
X218159D01*
X217626Y319928D01*
Y318861D01*
X218159Y318328D01*
X222424D02*
Y321527D01*
X220825Y319928D01*
X222957D01*
X189038Y289866D02*
Y287200D01*
X189571Y286667D01*
X190638D01*
X191171Y287200D01*
Y289866D01*
X193837Y286667D02*
Y289866D01*
X192237Y288267D01*
X194370D01*
X195436Y286134D02*
X197569D01*
X198635Y289866D02*
X200768D01*
X199701D01*
Y286667D01*
X201834Y289866D02*
Y286667D01*
Y288267D01*
X202367Y288800D01*
X203434D01*
X203967Y288267D01*
Y286667D01*
X206633D02*
X205566D01*
X205033Y287200D01*
Y288267D01*
X205566Y288800D01*
X206633D01*
X207166Y288267D01*
Y287733D01*
X205033D01*
X208232Y288800D02*
Y286667D01*
Y287733D01*
X208765Y288267D01*
X209298Y288800D01*
X209832D01*
X211431Y286667D02*
Y288800D01*
X211964D01*
X212497Y288267D01*
Y286667D01*
Y288267D01*
X213031Y288800D01*
X213564Y288267D01*
Y286667D01*
X215163D02*
X216230D01*
X216763Y287200D01*
Y288267D01*
X216230Y288800D01*
X215163D01*
X214630Y288267D01*
Y287200D01*
X215163Y286667D01*
X217829Y289333D02*
X218362Y289866D01*
X219428D01*
X219962Y289333D01*
Y288800D01*
X219428Y288267D01*
X218895D01*
X219428D01*
X219962Y287733D01*
Y287200D01*
X219428Y286667D01*
X218362D01*
X217829Y287200D01*
X188572Y222866D02*
Y220200D01*
X189105Y219667D01*
X190171D01*
X190704Y220200D01*
Y222866D01*
X193370Y219667D02*
Y222866D01*
X191771Y221267D01*
X193903D01*
X194969Y219134D02*
X197102D01*
X198168Y222866D02*
X200301D01*
X199235D01*
Y219667D01*
X201367Y222866D02*
Y219667D01*
Y221267D01*
X201901Y221800D01*
X202967D01*
X203500Y221267D01*
Y219667D01*
X206166D02*
X205100D01*
X204566Y220200D01*
Y221267D01*
X205100Y221800D01*
X206166D01*
X206699Y221267D01*
Y220733D01*
X204566D01*
X207765Y221800D02*
Y219667D01*
Y220733D01*
X208298Y221267D01*
X208832Y221800D01*
X209365D01*
X210964Y219667D02*
Y221800D01*
X211497D01*
X212031Y221267D01*
Y219667D01*
Y221267D01*
X212564Y221800D01*
X213097Y221267D01*
Y219667D01*
X214696D02*
X215763D01*
X216296Y220200D01*
Y221267D01*
X215763Y221800D01*
X214696D01*
X214163Y221267D01*
Y220200D01*
X214696Y219667D01*
X217362D02*
X218428D01*
X217895D01*
Y222866D01*
X217362Y222333D01*
X256867Y271099D02*
Y268434D01*
X257400Y267900D01*
X258467D01*
X259000Y268434D01*
Y271099D01*
X260066Y267900D02*
X261133D01*
X260599D01*
Y271099D01*
X260066Y270566D01*
X281501Y214900D02*
Y218099D01*
X283101D01*
X283634Y217566D01*
Y216500D01*
X283101Y215967D01*
X281501D01*
X282568D02*
X283634Y214900D01*
X284700D02*
X285767D01*
X285233D01*
Y218099D01*
X284700Y217566D01*
X288966Y214900D02*
Y218099D01*
X287366Y216500D01*
X289499D01*
X270834Y267401D02*
Y270600D01*
X272434D01*
X272967Y270066D01*
Y269000D01*
X272434Y268467D01*
X270834D01*
X271901D02*
X272967Y267401D01*
X274033Y267934D02*
X274566Y267401D01*
X275633D01*
X276166Y267934D01*
Y270066D01*
X275633Y270600D01*
X274566D01*
X274033Y270066D01*
Y269533D01*
X274566Y269000D01*
X276166D01*
X234834Y266900D02*
Y270099D01*
X236434D01*
X236967Y269566D01*
Y268500D01*
X236434Y267967D01*
X234834D01*
X235900D02*
X236967Y266900D01*
X238033Y270099D02*
X240166D01*
Y269566D01*
X238033Y267434D01*
Y266900D01*
X170538Y298667D02*
Y301866D01*
X172138D01*
X172671Y301333D01*
Y300267D01*
X172138Y299733D01*
X170538D01*
X171605D02*
X172671Y298667D01*
X175870Y301866D02*
X174804Y301333D01*
X173737Y300267D01*
Y299200D01*
X174270Y298667D01*
X175337D01*
X175870Y299200D01*
Y299733D01*
X175337Y300267D01*
X173737D01*
X176936Y298134D02*
X179069D01*
X180135Y301866D02*
X182268D01*
X181202D01*
Y298667D01*
X183334Y301866D02*
Y298667D01*
Y300267D01*
X183867Y300800D01*
X184934D01*
X185467Y300267D01*
Y298667D01*
X188133D02*
X187066D01*
X186533Y299200D01*
Y300267D01*
X187066Y300800D01*
X188133D01*
X188666Y300267D01*
Y299733D01*
X186533D01*
X189732Y300800D02*
Y298667D01*
Y299733D01*
X190265Y300267D01*
X190798Y300800D01*
X191332D01*
X192931Y298667D02*
Y300800D01*
X193464D01*
X193997Y300267D01*
Y298667D01*
Y300267D01*
X194531Y300800D01*
X195064Y300267D01*
Y298667D01*
X196663D02*
X197730D01*
X198263Y299200D01*
Y300267D01*
X197730Y300800D01*
X196663D01*
X196130Y300267D01*
Y299200D01*
X196663Y298667D01*
X200928D02*
Y301866D01*
X199329Y300267D01*
X201462D01*
X167538Y266699D02*
Y269898D01*
X169138D01*
X169671Y269364D01*
Y268298D01*
X169138Y267765D01*
X167538D01*
X168605D02*
X169671Y266699D01*
X172870Y269898D02*
X171804Y269364D01*
X170737Y268298D01*
Y267232D01*
X171270Y266699D01*
X172337D01*
X172870Y267232D01*
Y267765D01*
X172337Y268298D01*
X170737D01*
X173936Y266165D02*
X176069D01*
X177135Y269898D02*
X179268D01*
X178201D01*
Y266699D01*
X180334Y269898D02*
Y266699D01*
Y268298D01*
X180867Y268831D01*
X181934D01*
X182467Y268298D01*
Y266699D01*
X185133D02*
X184066D01*
X183533Y267232D01*
Y268298D01*
X184066Y268831D01*
X185133D01*
X185666Y268298D01*
Y267765D01*
X183533D01*
X186732Y268831D02*
Y266699D01*
Y267765D01*
X187265Y268298D01*
X187799Y268831D01*
X188332D01*
X189931Y266699D02*
Y268831D01*
X190464D01*
X190997Y268298D01*
Y266699D01*
Y268298D01*
X191531Y268831D01*
X192064Y268298D01*
Y266699D01*
X193663D02*
X194729D01*
X195263Y267232D01*
Y268298D01*
X194729Y268831D01*
X193663D01*
X193130Y268298D01*
Y267232D01*
X193663Y266699D01*
X196329Y269364D02*
X196862Y269898D01*
X197929D01*
X198462Y269364D01*
Y268831D01*
X197929Y268298D01*
X197395D01*
X197929D01*
X198462Y267765D01*
Y267232D01*
X197929Y266699D01*
X196862D01*
X196329Y267232D01*
X169538Y233167D02*
Y236366D01*
X171138D01*
X171671Y235833D01*
Y234767D01*
X171138Y234233D01*
X169538D01*
X170605D02*
X171671Y233167D01*
X174870Y236366D02*
X173804Y235833D01*
X172737Y234767D01*
Y233700D01*
X173270Y233167D01*
X174337D01*
X174870Y233700D01*
Y234233D01*
X174337Y234767D01*
X172737D01*
X175936Y232634D02*
X178069D01*
X179135Y236366D02*
X181268D01*
X180201D01*
Y233167D01*
X182334Y236366D02*
Y233167D01*
Y234767D01*
X182867Y235300D01*
X183934D01*
X184467Y234767D01*
Y233167D01*
X187133D02*
X186066D01*
X185533Y233700D01*
Y234767D01*
X186066Y235300D01*
X187133D01*
X187666Y234767D01*
Y234233D01*
X185533D01*
X188732Y235300D02*
Y233167D01*
Y234233D01*
X189265Y234767D01*
X189798Y235300D01*
X190332D01*
X191931Y233167D02*
Y235300D01*
X192464D01*
X192997Y234767D01*
Y233167D01*
Y234767D01*
X193531Y235300D01*
X194064Y234767D01*
Y233167D01*
X195663D02*
X196730D01*
X197263Y233700D01*
Y234767D01*
X196730Y235300D01*
X195663D01*
X195130Y234767D01*
Y233700D01*
X195663Y233167D01*
X200462D02*
X198329D01*
X200462Y235300D01*
Y235833D01*
X199928Y236366D01*
X198862D01*
X198329Y235833D01*
X167516Y201784D02*
Y204983D01*
X169115D01*
X169648Y204450D01*
Y203383D01*
X169115Y202850D01*
X167516D01*
X168582D02*
X169648Y201784D01*
X172847Y204983D02*
X171781Y204450D01*
X170715Y203383D01*
Y202317D01*
X171248Y201784D01*
X172314D01*
X172847Y202317D01*
Y202850D01*
X172314Y203383D01*
X170715D01*
X173914Y201251D02*
X176046D01*
X177112Y204983D02*
X179245D01*
X178179D01*
Y201784D01*
X180312Y204983D02*
Y201784D01*
Y203383D01*
X180845Y203917D01*
X181911D01*
X182444Y203383D01*
Y201784D01*
X185110D02*
X184044D01*
X183510Y202317D01*
Y203383D01*
X184044Y203917D01*
X185110D01*
X185643Y203383D01*
Y202850D01*
X183510D01*
X186709Y203917D02*
Y201784D01*
Y202850D01*
X187243Y203383D01*
X187776Y203917D01*
X188309D01*
X189908Y201784D02*
Y203917D01*
X190442D01*
X190975Y203383D01*
Y201784D01*
Y203383D01*
X191508Y203917D01*
X192041Y203383D01*
Y201784D01*
X193640D02*
X194707D01*
X195240Y202317D01*
Y203383D01*
X194707Y203917D01*
X193640D01*
X193107Y203383D01*
Y202317D01*
X193640Y201784D01*
X196306D02*
X197373D01*
X196839D01*
Y204983D01*
X196306Y204450D01*
X251666Y230599D02*
Y227400D01*
X250066D01*
X249533Y227934D01*
Y229000D01*
X250066Y229533D01*
X251666D01*
X250600D02*
X249533Y230599D01*
X246334Y227400D02*
X248467D01*
Y229000D01*
X247400Y228467D01*
X246867D01*
X246334Y229000D01*
Y230066D01*
X246867Y230599D01*
X247934D01*
X248467Y230066D01*
X258334Y229656D02*
Y232855D01*
X259934D01*
X260467Y232322D01*
Y231256D01*
X259934Y230723D01*
X258334D01*
X259401D02*
X260467Y229656D01*
X263133D02*
Y232855D01*
X261533Y231256D01*
X263666D01*
X177570Y312667D02*
Y315866D01*
X179169D01*
X179702Y315333D01*
Y314267D01*
X179169Y313733D01*
X177570D01*
X178636D02*
X179702Y312667D01*
X182901D02*
X180769D01*
X182901Y314800D01*
Y315333D01*
X182368Y315866D01*
X181302D01*
X180769Y315333D01*
X183968Y312134D02*
X186100D01*
X187167Y315866D02*
X189299D01*
X188233D01*
Y312667D01*
X190366Y315866D02*
Y312667D01*
Y314267D01*
X190899Y314800D01*
X191965D01*
X192498Y314267D01*
Y312667D01*
X195164D02*
X194098D01*
X193565Y313200D01*
Y314267D01*
X194098Y314800D01*
X195164D01*
X195697Y314267D01*
Y313733D01*
X193565D01*
X196764Y314800D02*
Y312667D01*
Y313733D01*
X197297Y314267D01*
X197830Y314800D01*
X198363D01*
X199963Y312667D02*
Y314800D01*
X200496D01*
X201029Y314267D01*
Y312667D01*
Y314267D01*
X201562Y314800D01*
X202095Y314267D01*
Y312667D01*
X203695D02*
X204761D01*
X205294Y313200D01*
Y314267D01*
X204761Y314800D01*
X203695D01*
X203162Y314267D01*
Y313200D01*
X203695Y312667D01*
X207960D02*
Y315866D01*
X206361Y314267D01*
X208493D01*
X173507Y280167D02*
Y283366D01*
X175106D01*
X175639Y282833D01*
Y281767D01*
X175106Y281233D01*
X173507D01*
X174573D02*
X175639Y280167D01*
X178838D02*
X176706D01*
X178838Y282300D01*
Y282833D01*
X178305Y283366D01*
X177239D01*
X176706Y282833D01*
X179905Y279634D02*
X182037D01*
X183104Y283366D02*
X185236D01*
X184170D01*
Y280167D01*
X186303Y283366D02*
Y280167D01*
Y281767D01*
X186836Y282300D01*
X187902D01*
X188435Y281767D01*
Y280167D01*
X191101D02*
X190035D01*
X189502Y280700D01*
Y281767D01*
X190035Y282300D01*
X191101D01*
X191634Y281767D01*
Y281233D01*
X189502D01*
X192701Y282300D02*
Y280167D01*
Y281233D01*
X193234Y281767D01*
X193767Y282300D01*
X194300D01*
X195900Y280167D02*
Y282300D01*
X196433D01*
X196966Y281767D01*
Y280167D01*
Y281767D01*
X197499Y282300D01*
X198032Y281767D01*
Y280167D01*
X199632D02*
X200698D01*
X201231Y280700D01*
Y281767D01*
X200698Y282300D01*
X199632D01*
X199099Y281767D01*
Y280700D01*
X199632Y280167D01*
X202298Y282833D02*
X202831Y283366D01*
X203897D01*
X204430Y282833D01*
Y282300D01*
X203897Y281767D01*
X203364D01*
X203897D01*
X204430Y281233D01*
Y280700D01*
X203897Y280167D01*
X202831D01*
X202298Y280700D01*
X173839Y247632D02*
Y250831D01*
X175439D01*
X175972Y250298D01*
Y249231D01*
X175439Y248698D01*
X173839D01*
X174906D02*
X175972Y247632D01*
X179171D02*
X177038D01*
X179171Y249765D01*
Y250298D01*
X178638Y250831D01*
X177571D01*
X177038Y250298D01*
X180237Y247099D02*
X182370D01*
X183436Y250831D02*
X185569D01*
X184502D01*
Y247632D01*
X186635Y250831D02*
Y247632D01*
Y249231D01*
X187168Y249765D01*
X188235D01*
X188768Y249231D01*
Y247632D01*
X191434D02*
X190367D01*
X189834Y248165D01*
Y249231D01*
X190367Y249765D01*
X191434D01*
X191967Y249231D01*
Y248698D01*
X189834D01*
X193033Y249765D02*
Y247632D01*
Y248698D01*
X193566Y249231D01*
X194099Y249765D01*
X194632D01*
X196232Y247632D02*
Y249765D01*
X196765D01*
X197298Y249231D01*
Y247632D01*
Y249231D01*
X197831Y249765D01*
X198365Y249231D01*
Y247632D01*
X199964D02*
X201030D01*
X201564Y248165D01*
Y249231D01*
X201030Y249765D01*
X199964D01*
X199431Y249231D01*
Y248165D01*
X199964Y247632D01*
X204763D02*
X202630D01*
X204763Y249765D01*
Y250298D01*
X204229Y250831D01*
X203163D01*
X202630Y250298D01*
X175540Y215667D02*
Y218866D01*
X177139D01*
X177673Y218333D01*
Y217267D01*
X177139Y216733D01*
X175540D01*
X176606D02*
X177673Y215667D01*
X180872D02*
X178739D01*
X180872Y217800D01*
Y218333D01*
X180338Y218866D01*
X179272D01*
X178739Y218333D01*
X181938Y215134D02*
X184071D01*
X185137Y218866D02*
X187269D01*
X186203D01*
Y215667D01*
X188336Y218866D02*
Y215667D01*
Y217267D01*
X188869Y217800D01*
X189935D01*
X190469Y217267D01*
Y215667D01*
X193134D02*
X192068D01*
X191535Y216200D01*
Y217267D01*
X192068Y217800D01*
X193134D01*
X193667Y217267D01*
Y216733D01*
X191535D01*
X194734Y217800D02*
Y215667D01*
Y216733D01*
X195267Y217267D01*
X195800Y217800D01*
X196333D01*
X197933Y215667D02*
Y217800D01*
X198466D01*
X198999Y217267D01*
Y215667D01*
Y217267D01*
X199532Y217800D01*
X200065Y217267D01*
Y215667D01*
X201665D02*
X202731D01*
X203264Y216200D01*
Y217267D01*
X202731Y217800D01*
X201665D01*
X201132Y217267D01*
Y216200D01*
X201665Y215667D01*
X204331D02*
X205397D01*
X204864D01*
Y218866D01*
X204331Y218333D01*
X207520Y357901D02*
Y361100D01*
X209120D01*
X209653Y360566D01*
Y359500D01*
X209120Y358967D01*
X207520D01*
X210719Y360566D02*
X211252Y361100D01*
X212319D01*
X212852Y360566D01*
Y360033D01*
X212319Y359500D01*
X211786D01*
X212319D01*
X212852Y358967D01*
Y358434D01*
X212319Y357901D01*
X211252D01*
X210719Y358434D01*
X262334Y348901D02*
Y352099D01*
X263934D01*
X264467Y351566D01*
Y350500D01*
X263934Y349967D01*
X262334D01*
X267666Y348901D02*
X265533D01*
X267666Y351033D01*
Y351566D01*
X267133Y352099D01*
X266066D01*
X265533Y351566D01*
X305434Y191034D02*
X304901Y190501D01*
Y189435D01*
X305434Y188902D01*
X307566D01*
X308100Y189435D01*
Y190501D01*
X307566Y191034D01*
X308100Y192101D02*
Y193167D01*
Y192634D01*
X304901D01*
X305434Y192101D01*
X304901Y196899D02*
X305434Y195833D01*
X306500Y194767D01*
X307566D01*
X308100Y195300D01*
Y196366D01*
X307566Y196899D01*
X307033D01*
X306500Y196366D01*
Y194767D01*
X304901Y200098D02*
X305434Y199032D01*
X306500Y197966D01*
X307566D01*
X308100Y198499D01*
Y199565D01*
X307566Y200098D01*
X307033D01*
X306500Y199565D01*
Y197966D01*
X292778Y160566D02*
X292245Y161100D01*
X291179D01*
X290646Y160566D01*
Y158434D01*
X291179Y157901D01*
X292245D01*
X292778Y158434D01*
X293845Y157901D02*
X294911D01*
X294378D01*
Y161100D01*
X293845Y160566D01*
X298643Y161100D02*
X297577Y160566D01*
X296511Y159500D01*
Y158434D01*
X297044Y157901D01*
X298110D01*
X298643Y158434D01*
Y158967D01*
X298110Y159500D01*
X296511D01*
X301842Y161100D02*
X299710D01*
Y159500D01*
X300776Y160033D01*
X301309D01*
X301842Y159500D01*
Y158434D01*
X301309Y157901D01*
X300243D01*
X299710Y158434D01*
X266866Y225934D02*
X267399Y225400D01*
X268465D01*
X268999Y225934D01*
Y228066D01*
X268465Y228600D01*
X267399D01*
X266866Y228066D01*
X265800Y228600D02*
X264733D01*
X265267D01*
Y225400D01*
X265800Y225934D01*
X261535Y228600D02*
Y225400D01*
X263134Y227000D01*
X261001D01*
X320634Y272503D02*
X320101Y273037D01*
X319035D01*
X318501Y272503D01*
Y270371D01*
X319035Y269837D01*
X320101D01*
X320634Y270371D01*
X321700Y269837D02*
X322767D01*
X322233D01*
Y273037D01*
X321700Y272503D01*
X326499Y269837D02*
X324366D01*
X326499Y271970D01*
Y272503D01*
X325965Y273037D01*
X324899D01*
X324366Y272503D01*
X284167Y276066D02*
X283634Y276600D01*
X282568D01*
X282034Y276066D01*
Y273934D01*
X282568Y273400D01*
X283634D01*
X284167Y273934D01*
X285233Y273400D02*
X286300D01*
X285767D01*
Y276600D01*
X285233Y276066D01*
X287899Y273400D02*
X288966D01*
X288432D01*
Y276600D01*
X287899Y276066D01*
X243634Y262566D02*
X243101Y263100D01*
X242035D01*
X241501Y262566D01*
Y260434D01*
X242035Y259900D01*
X243101D01*
X243634Y260434D01*
X244700Y259900D02*
X245767D01*
X245233D01*
Y263100D01*
X244700Y262566D01*
X247366D02*
X247899Y263100D01*
X248966D01*
X249499Y262566D01*
Y260434D01*
X248966Y259900D01*
X247899D01*
X247366Y260434D01*
Y262566D01*
X144005Y285500D02*
X143405Y286099D01*
X142205D01*
X141606Y285500D01*
Y283100D01*
X142205Y282501D01*
X143405D01*
X144005Y283100D01*
X145204D02*
X145804Y282501D01*
X147004D01*
X147604Y283100D01*
Y285500D01*
X147004Y286099D01*
X145804D01*
X145204Y285500D01*
Y284900D01*
X145804Y284300D01*
X147604D01*
X148803Y281901D02*
X151202D01*
X152402Y286099D02*
X154801D01*
X153602D01*
Y282501D01*
X156001Y286099D02*
Y282501D01*
Y284300D01*
X156601Y284900D01*
X157800D01*
X158400Y284300D01*
Y282501D01*
X161399D02*
X160200D01*
X159600Y283100D01*
Y284300D01*
X160200Y284900D01*
X161399D01*
X161999Y284300D01*
Y283700D01*
X159600D01*
X163199Y284900D02*
Y282501D01*
Y283700D01*
X163798Y284300D01*
X164398Y284900D01*
X164998D01*
X166797Y282501D02*
Y284900D01*
X167397D01*
X167997Y284300D01*
Y282501D01*
Y284300D01*
X168597Y284900D01*
X169197Y284300D01*
Y282501D01*
X170996D02*
X172196D01*
X172796Y283100D01*
Y284300D01*
X172196Y284900D01*
X170996D01*
X170396Y284300D01*
Y283100D01*
X170996Y282501D01*
X173995Y285500D02*
X174595Y286099D01*
X175795D01*
X176394Y285500D01*
Y284900D01*
X175795Y284300D01*
X175195D01*
X175795D01*
X176394Y283700D01*
Y283100D01*
X175795Y282501D01*
X174595D01*
X173995Y283100D01*
X144671Y251864D02*
X144138Y252398D01*
X143071D01*
X142538Y251864D01*
Y249732D01*
X143071Y249199D01*
X144138D01*
X144671Y249732D01*
X145737D02*
X146271Y249199D01*
X147337D01*
X147870Y249732D01*
Y251864D01*
X147337Y252398D01*
X146271D01*
X145737Y251864D01*
Y251331D01*
X146271Y250798D01*
X147870D01*
X148936Y248665D02*
X151069D01*
X152135Y252398D02*
X154268D01*
X153202D01*
Y249199D01*
X155334Y252398D02*
Y249199D01*
Y250798D01*
X155867Y251331D01*
X156934D01*
X157467Y250798D01*
Y249199D01*
X160133D02*
X159066D01*
X158533Y249732D01*
Y250798D01*
X159066Y251331D01*
X160133D01*
X160666Y250798D01*
Y250265D01*
X158533D01*
X161732Y251331D02*
Y249199D01*
Y250265D01*
X162265Y250798D01*
X162799Y251331D01*
X163332D01*
X164931Y249199D02*
Y251331D01*
X165464D01*
X165997Y250798D01*
Y249199D01*
Y250798D01*
X166531Y251331D01*
X167064Y250798D01*
Y249199D01*
X168663D02*
X169730D01*
X170263Y249732D01*
Y250798D01*
X169730Y251331D01*
X168663D01*
X168130Y250798D01*
Y249732D01*
X168663Y249199D01*
X173462D02*
X171329D01*
X173462Y251331D01*
Y251864D01*
X172929Y252398D01*
X171862D01*
X171329Y251864D01*
X144704Y220333D02*
X144171Y220866D01*
X143105D01*
X142571Y220333D01*
Y218200D01*
X143105Y217667D01*
X144171D01*
X144704Y218200D01*
X145771D02*
X146304Y217667D01*
X147370D01*
X147903Y218200D01*
Y220333D01*
X147370Y220866D01*
X146304D01*
X145771Y220333D01*
Y219800D01*
X146304Y219267D01*
X147903D01*
X148969Y217134D02*
X151102D01*
X152168Y220866D02*
X154301D01*
X153235D01*
Y217667D01*
X155367Y220866D02*
Y217667D01*
Y219267D01*
X155901Y219800D01*
X156967D01*
X157500Y219267D01*
Y217667D01*
X160166D02*
X159099D01*
X158566Y218200D01*
Y219267D01*
X159099Y219800D01*
X160166D01*
X160699Y219267D01*
Y218733D01*
X158566D01*
X161765Y219800D02*
Y217667D01*
Y218733D01*
X162299Y219267D01*
X162832Y219800D01*
X163365D01*
X164964Y217667D02*
Y219800D01*
X165497D01*
X166031Y219267D01*
Y217667D01*
Y219267D01*
X166564Y219800D01*
X167097Y219267D01*
Y217667D01*
X168696D02*
X169763D01*
X170296Y218200D01*
Y219267D01*
X169763Y219800D01*
X168696D01*
X168163Y219267D01*
Y218200D01*
X168696Y217667D01*
X171362D02*
X172429D01*
X171895D01*
Y220866D01*
X171362Y220333D01*
X291967Y203566D02*
X291434Y204099D01*
X290367D01*
X289834Y203566D01*
Y201434D01*
X290367Y200901D01*
X291434D01*
X291967Y201434D01*
X293033Y204099D02*
X295166D01*
Y203566D01*
X293033Y201434D01*
Y200901D01*
X252467Y164566D02*
X251934Y165100D01*
X250867D01*
X250334Y164566D01*
Y162434D01*
X250867Y161900D01*
X251934D01*
X252467Y162434D01*
X255133Y161900D02*
Y165100D01*
X253533Y163500D01*
X255666D01*
X225967Y197066D02*
X225434Y197599D01*
X224367D01*
X223834Y197066D01*
Y194934D01*
X224367Y194401D01*
X225434D01*
X225967Y194934D01*
X227033Y197066D02*
X227566Y197599D01*
X228633D01*
X229166Y197066D01*
Y196533D01*
X228633Y196000D01*
X228099D01*
X228633D01*
X229166Y195467D01*
Y194934D01*
X228633Y194401D01*
X227566D01*
X227033Y194934D01*
X224467Y185066D02*
X223934Y185600D01*
X222867D01*
X222334Y185066D01*
Y182934D01*
X222867Y182401D01*
X223934D01*
X224467Y182934D01*
X227666Y182401D02*
X225533D01*
X227666Y184533D01*
Y185066D01*
X227133Y185600D01*
X226066D01*
X225533Y185066D01*
X224022Y173722D02*
X223489Y174255D01*
X222423D01*
X221890Y173722D01*
Y171589D01*
X222423Y171056D01*
X223489D01*
X224022Y171589D01*
X225089Y171056D02*
X226155D01*
X225622D01*
Y174255D01*
X225089Y173722D01*
D54*
X569750Y335935D02*
X566418Y332603D01*
Y335935D02*
X569750Y332603D01*
X568084Y335935D02*
Y332603D01*
X566418Y334269D02*
X569750D01*
X450065Y335935D02*
X446733Y332603D01*
Y335935D02*
X450065Y332603D01*
X448399Y335935D02*
Y332603D01*
X446733Y334269D02*
X450065D01*
D55*
X439519Y227856D02*
Y225357D01*
X440769D01*
X441185Y225773D01*
Y227439D01*
X440769Y227856D01*
X439519D01*
X442018Y225357D02*
X442851D01*
X442435D01*
Y227856D01*
X442018Y227439D01*
X385492Y217659D02*
Y215576D01*
X385909Y215160D01*
X386742D01*
X387158Y215576D01*
Y217659D01*
X387991Y217243D02*
X388408Y217659D01*
X389241D01*
X389657Y217243D01*
Y216826D01*
X389241Y216409D01*
X388824D01*
X389241D01*
X389657Y215993D01*
Y215576D01*
X389241Y215160D01*
X388408D01*
X387991Y215576D01*
X387775Y229357D02*
Y231856D01*
X389024D01*
X389441Y231439D01*
Y230606D01*
X389024Y230190D01*
X387775D01*
X388608D02*
X389441Y229357D01*
X390274D02*
X391107D01*
X390691D01*
Y231856D01*
X390274Y231439D01*
X387696Y223939D02*
X387279Y224356D01*
X386446D01*
X386030Y223939D01*
Y222273D01*
X386446Y221857D01*
X387279D01*
X387696Y222273D01*
X388529Y221857D02*
X389362D01*
X388945D01*
Y224356D01*
X388529Y223939D01*
X390611D02*
X391028Y224356D01*
X391861D01*
X392278Y223939D01*
Y223523D01*
X391861Y223106D01*
X391444D01*
X391861D01*
X392278Y222690D01*
Y222273D01*
X391861Y221857D01*
X391028D01*
X390611Y222273D01*
X534204Y227856D02*
Y225357D01*
X535454D01*
X535870Y225773D01*
Y227439D01*
X535454Y227856D01*
X534204D01*
X536703Y225357D02*
X537536D01*
X537120D01*
Y227856D01*
X536703Y227439D01*
X480177Y217659D02*
Y215576D01*
X480594Y215160D01*
X481427D01*
X481843Y215576D01*
Y217659D01*
X482677Y217243D02*
X483093Y217659D01*
X483926D01*
X484343Y217243D01*
Y216826D01*
X483926Y216409D01*
X483509D01*
X483926D01*
X484343Y215993D01*
Y215576D01*
X483926Y215160D01*
X483093D01*
X482677Y215576D01*
X482460Y229357D02*
Y231856D01*
X483710D01*
X484126Y231439D01*
Y230606D01*
X483710Y230190D01*
X482460D01*
X483293D02*
X484126Y229357D01*
X484959D02*
X485792D01*
X485376D01*
Y231856D01*
X484959Y231439D01*
X482381Y223939D02*
X481964Y224356D01*
X481131D01*
X480715Y223939D01*
Y222273D01*
X481131Y221857D01*
X481964D01*
X482381Y222273D01*
X483214Y221857D02*
X484047D01*
X483630D01*
Y224356D01*
X483214Y223939D01*
X485296D02*
X485713Y224356D01*
X486546D01*
X486963Y223939D01*
Y223523D01*
X486546Y223106D01*
X486130D01*
X486546D01*
X486963Y222690D01*
Y222273D01*
X486546Y221857D01*
X485713D01*
X485296Y222273D01*
X257201Y255291D02*
X259799D01*
X255350Y259681D02*
Y262319D01*
X257201Y266709D02*
X259799D01*
X296078Y262500D02*
Y264500D01*
X297078D01*
X297411Y264166D01*
Y263500D01*
X297078Y263167D01*
X296078D01*
X296744D02*
X297411Y262500D01*
X298077Y264166D02*
X298411Y264500D01*
X299077D01*
X299410Y264166D01*
Y263833D01*
X299077Y263500D01*
X299410Y263167D01*
Y262834D01*
X299077Y262500D01*
X298411D01*
X298077Y262834D01*
Y263167D01*
X298411Y263500D01*
X298077Y263833D01*
Y264166D01*
X298411Y263500D02*
X299077D01*
X192999Y195075D02*
Y193076D01*
X191000Y195075D01*
X190500D01*
X190000Y194575D01*
Y193576D01*
X190500Y193076D01*
Y196075D02*
X190000Y196574D01*
Y197574D01*
X190500Y198074D01*
X192500D01*
X192999Y197574D01*
Y196574D01*
X192500Y196075D01*
X190500D01*
D56*
X271657Y181524D02*
G03*
X271657Y181524I-1181J0D01*
G01*
D57*
X203850Y154989D02*
G03*
X203850Y154989I-350J0D01*
G01*
D58*
X108752Y133307D02*
X132374D01*
X108752D02*
Y181693D01*
X140150D01*
Y142972D02*
Y181693D01*
M02*
