G04*
G04 #@! TF.GenerationSoftware,Altium Limited,Altium Designer,21.5.1 (32)*
G04*
G04 Layer_Color=32896*
%FSLAX25Y25*%
%MOIN*%
G70*
G04*
G04 #@! TF.SameCoordinates,35D1D81E-305D-4ED3-A4E5-B3A77E649114*
G04*
G04*
G04 #@! TF.FilePolarity,Positive*
G04*
G01*
G75*
%ADD13C,0.01000*%
D13*
X578500Y274000D02*
X591500D01*
X532000D02*
X560000D01*
X491500D02*
X513000D01*
X491500D02*
Y289500D01*
Y364500D02*
Y374000D01*
Y308500D02*
Y346500D01*
X472500Y364500D02*
Y374000D01*
Y308000D02*
Y346000D01*
Y273500D02*
Y289000D01*
X471500Y273500D02*
X472500D01*
X414000D02*
X471500D01*
X413500Y254500D02*
X447500D01*
X371500Y273500D02*
X395500D01*
X372000Y254500D02*
X395000D01*
X371500Y295500D02*
Y325000D01*
Y274000D02*
Y277000D01*
Y343000D02*
Y350000D01*
X350500Y295500D02*
Y324500D01*
Y343000D02*
Y349500D01*
Y254500D02*
Y277000D01*
X542000Y226000D02*
Y254500D01*
Y184000D02*
Y206500D01*
Y139000D02*
Y160000D01*
Y101500D02*
Y120000D01*
X541000Y160000D02*
X542000D01*
X516000Y254500D02*
X542000D01*
X513000Y184000D02*
X542000D01*
X513000Y160000D02*
X541000D01*
X467000Y254500D02*
X497000D01*
X467000Y184000D02*
X493500D01*
X466500Y160000D02*
X494000D01*
X466500Y231000D02*
Y252500D01*
Y186500D02*
Y211500D01*
X466000Y102500D02*
Y121000D01*
Y139500D02*
Y157000D01*
X447500Y230500D02*
Y254500D01*
Y184500D02*
Y212000D01*
X447000Y184000D02*
X447500Y184500D01*
X446500Y140500D02*
Y157500D01*
Y102000D02*
Y122000D01*
X417500Y160000D02*
X446500D01*
X416000Y184000D02*
X447000D01*
X371000Y160000D02*
X398500D01*
X371500Y183500D02*
X396500D01*
X371500Y208500D02*
Y235500D01*
Y183500D02*
Y189500D01*
X371000Y145500D02*
Y160000D01*
Y102000D02*
Y126000D01*
X350500Y207500D02*
Y235500D01*
Y145500D02*
Y189500D01*
Y102000D02*
Y126500D01*
X99994Y100006D02*
X100000Y100000D01*
X99994Y100006D02*
Y351000D01*
X350500D01*
X371000D01*
Y375500D01*
X372000D01*
X592500D01*
Y374500D02*
Y375500D01*
Y100500D02*
Y374500D01*
X592000Y100000D02*
X592500Y100500D01*
X542000Y100000D02*
X592000D01*
X100000D02*
X542000D01*
M02*
