G04*
G04 #@! TF.GenerationSoftware,Altium Limited,Altium Designer,21.5.1 (32)*
G04*
G04 Layer_Color=8388736*
%FSLAX25Y25*%
%MOIN*%
G70*
G04*
G04 #@! TF.SameCoordinates,3A1198FE-CC6F-45F1-A000-1D614036FB2E*
G04*
G04*
G04 #@! TF.FilePolarity,Negative*
G04*
G01*
G75*
%ADD14R,0.01800X0.05200*%
%ADD18R,0.05512X0.07874*%
%ADD19R,0.02264X0.01378*%
%ADD20R,0.01378X0.02264*%
G04:AMPARAMS|DCode=22|XSize=51.18mil|YSize=23.62mil|CornerRadius=2.01mil|HoleSize=0mil|Usage=FLASHONLY|Rotation=0.000|XOffset=0mil|YOffset=0mil|HoleType=Round|Shape=RoundedRectangle|*
%AMROUNDEDRECTD22*
21,1,0.05118,0.01961,0,0,0.0*
21,1,0.04717,0.02362,0,0,0.0*
1,1,0.00402,0.02358,-0.00980*
1,1,0.00402,-0.02358,-0.00980*
1,1,0.00402,-0.02358,0.00980*
1,1,0.00402,0.02358,0.00980*
%
%ADD22ROUNDEDRECTD22*%
%ADD59R,0.10321X0.15361*%
%ADD60R,0.03471X0.06896*%
%ADD61R,0.05912X0.06306*%
%ADD62R,0.02762X0.02368*%
%ADD63R,0.03550X0.03943*%
G04:AMPARAMS|DCode=64|XSize=29.59mil|YSize=51.24mil|CornerRadius=3.92mil|HoleSize=0mil|Usage=FLASHONLY|Rotation=180.000|XOffset=0mil|YOffset=0mil|HoleType=Round|Shape=RoundedRectangle|*
%AMROUNDEDRECTD64*
21,1,0.02959,0.04341,0,0,180.0*
21,1,0.02175,0.05124,0,0,180.0*
1,1,0.00784,-0.01088,0.02170*
1,1,0.00784,0.01088,0.02170*
1,1,0.00784,0.01088,-0.02170*
1,1,0.00784,-0.01088,-0.02170*
%
%ADD64ROUNDEDRECTD64*%
G04:AMPARAMS|DCode=65|XSize=29.59mil|YSize=51.24mil|CornerRadius=3.92mil|HoleSize=0mil|Usage=FLASHONLY|Rotation=270.000|XOffset=0mil|YOffset=0mil|HoleType=Round|Shape=RoundedRectangle|*
%AMROUNDEDRECTD65*
21,1,0.02959,0.04341,0,0,270.0*
21,1,0.02175,0.05124,0,0,270.0*
1,1,0.00784,-0.02170,-0.01088*
1,1,0.00784,-0.02170,0.01088*
1,1,0.00784,0.02170,0.01088*
1,1,0.00784,0.02170,-0.01088*
%
%ADD65ROUNDEDRECTD65*%
%ADD66O,0.02565X0.05518*%
%ADD67O,0.05518X0.02565*%
G04:AMPARAMS|DCode=68|XSize=51.64mil|YSize=27.23mil|CornerRadius=7.81mil|HoleSize=0mil|Usage=FLASHONLY|Rotation=180.000|XOffset=0mil|YOffset=0mil|HoleType=Round|Shape=RoundedRectangle|*
%AMROUNDEDRECTD68*
21,1,0.05164,0.01161,0,0,180.0*
21,1,0.03602,0.02723,0,0,180.0*
1,1,0.01561,-0.01801,0.00581*
1,1,0.01561,0.01801,0.00581*
1,1,0.01561,0.01801,-0.00581*
1,1,0.01561,-0.01801,-0.00581*
%
%ADD68ROUNDEDRECTD68*%
%ADD69R,0.02368X0.02762*%
%ADD70R,0.03943X0.03550*%
%ADD71R,0.03747X0.09455*%
%ADD72R,0.06306X0.05912*%
%ADD73C,0.02800*%
%ADD74C,0.06778*%
%ADD75C,0.11600*%
%ADD76C,0.07487*%
%ADD77R,0.07487X0.07487*%
%ADD78R,0.05912X0.05912*%
%ADD79C,0.05912*%
%ADD80C,0.05912*%
%ADD81P,0.08361X4X360.0*%
%ADD82R,0.05912X0.05912*%
%ADD83R,0.06896X0.06896*%
%ADD84C,0.06896*%
%ADD85C,0.04447*%
%ADD86C,0.07900*%
%ADD87C,0.06306*%
%ADD88R,0.06306X0.06306*%
%ADD89R,0.05124X0.05124*%
%ADD90C,0.05124*%
D14*
X564685Y333685D02*
D03*
X554685D02*
D03*
X544685D02*
D03*
X534685D02*
D03*
Y284685D02*
D03*
X544685D02*
D03*
X554685D02*
D03*
X564685D02*
D03*
X445000Y333685D02*
D03*
X435000D02*
D03*
X425000D02*
D03*
X415000D02*
D03*
Y284685D02*
D03*
X425000D02*
D03*
X435000D02*
D03*
X445000D02*
D03*
D18*
X281339Y244500D02*
D03*
X298661D02*
D03*
D19*
X292407Y173031D02*
D03*
Y175000D02*
D03*
Y176969D02*
D03*
X299592D02*
D03*
Y175000D02*
D03*
Y173031D02*
D03*
D20*
X293047Y179577D02*
D03*
X295016D02*
D03*
X296984D02*
D03*
X298953D02*
D03*
Y170423D02*
D03*
X296984D02*
D03*
X295016D02*
D03*
X293047D02*
D03*
D22*
X306134Y227000D02*
D03*
X297866Y223260D02*
D03*
Y230740D02*
D03*
D59*
X380997Y128500D02*
D03*
X475682D02*
D03*
D60*
X389442Y132732D02*
D03*
Y124268D02*
D03*
X484127Y132732D02*
D03*
Y124268D02*
D03*
D61*
X418063Y123000D02*
D03*
X425937D02*
D03*
X512748D02*
D03*
X520622D02*
D03*
X258474Y157900D02*
D03*
X250600D02*
D03*
D62*
X396717Y229606D02*
D03*
X400654D02*
D03*
X491402D02*
D03*
X495339D02*
D03*
X248468Y233000D02*
D03*
X244531D02*
D03*
X188531Y211500D02*
D03*
X192469D02*
D03*
X188332Y242965D02*
D03*
X192269D02*
D03*
X186531Y278000D02*
D03*
X190469D02*
D03*
X190563Y309500D02*
D03*
X194500D02*
D03*
D63*
X394929Y223606D02*
D03*
X400441D02*
D03*
X489614D02*
D03*
X495126D02*
D03*
X301000Y259500D02*
D03*
X295488D02*
D03*
X299500Y164000D02*
D03*
X293988D02*
D03*
X298244Y212000D02*
D03*
X303756D02*
D03*
X259744Y232500D02*
D03*
X265256D02*
D03*
D64*
X394835Y203602D02*
D03*
X398575D02*
D03*
X402315D02*
D03*
Y215216D02*
D03*
X394835D02*
D03*
X489520Y203602D02*
D03*
X493260D02*
D03*
X497000D02*
D03*
Y215216D02*
D03*
X489520D02*
D03*
D65*
X165193Y207760D02*
D03*
Y215240D02*
D03*
X176807D02*
D03*
Y211500D02*
D03*
Y207760D02*
D03*
X165193Y239760D02*
D03*
Y247240D02*
D03*
X176807D02*
D03*
Y243500D02*
D03*
Y239760D02*
D03*
X165193Y272760D02*
D03*
Y280240D02*
D03*
X176807D02*
D03*
Y276500D02*
D03*
Y272760D02*
D03*
X169193Y305760D02*
D03*
Y313240D02*
D03*
X180807D02*
D03*
Y309500D02*
D03*
Y305760D02*
D03*
X209807Y214240D02*
D03*
Y206760D02*
D03*
X198193D02*
D03*
Y210500D02*
D03*
Y214240D02*
D03*
X210807Y246740D02*
D03*
Y239260D02*
D03*
X199193D02*
D03*
Y243000D02*
D03*
Y246740D02*
D03*
X209807Y280240D02*
D03*
Y272760D02*
D03*
X198193D02*
D03*
Y276500D02*
D03*
Y280240D02*
D03*
X213307Y313240D02*
D03*
Y305760D02*
D03*
X201693D02*
D03*
Y309500D02*
D03*
Y313240D02*
D03*
D66*
X272248Y173453D02*
D03*
X269098D02*
D03*
X265949D02*
D03*
X262799D02*
D03*
X259650D02*
D03*
X256500D02*
D03*
X253350D02*
D03*
X250201D02*
D03*
X247051D02*
D03*
X243902D02*
D03*
X240752D02*
D03*
Y217547D02*
D03*
X243902D02*
D03*
X247051D02*
D03*
X250201D02*
D03*
X253350D02*
D03*
X256500D02*
D03*
X259650D02*
D03*
X262799D02*
D03*
X265949D02*
D03*
X269098D02*
D03*
X272248D02*
D03*
D67*
X234453Y179752D02*
D03*
Y182902D02*
D03*
Y186051D02*
D03*
Y189201D02*
D03*
Y192350D02*
D03*
Y195500D02*
D03*
Y198650D02*
D03*
Y201799D02*
D03*
Y204949D02*
D03*
Y208098D02*
D03*
Y211248D02*
D03*
X278547D02*
D03*
Y208098D02*
D03*
Y204949D02*
D03*
Y201799D02*
D03*
Y198650D02*
D03*
Y195500D02*
D03*
Y192350D02*
D03*
Y189201D02*
D03*
Y186051D02*
D03*
Y182902D02*
D03*
Y179752D02*
D03*
D68*
X263441Y257260D02*
D03*
Y261000D02*
D03*
Y264740D02*
D03*
X253559D02*
D03*
Y257260D02*
D03*
D69*
X292500Y215469D02*
D03*
Y211531D02*
D03*
X273500Y261531D02*
D03*
Y265469D02*
D03*
X182944Y207581D02*
D03*
Y211519D02*
D03*
X184500Y239531D02*
D03*
Y243468D02*
D03*
X183000Y274031D02*
D03*
Y277969D02*
D03*
X186500Y305532D02*
D03*
Y309469D02*
D03*
X158000Y211032D02*
D03*
Y214968D02*
D03*
X158000Y242563D02*
D03*
Y246500D02*
D03*
X159000Y274532D02*
D03*
Y278468D02*
D03*
X162000Y309531D02*
D03*
Y313469D02*
D03*
X219984Y182095D02*
D03*
Y186031D02*
D03*
X220000Y170531D02*
D03*
Y174469D02*
D03*
D70*
X237000Y263512D02*
D03*
Y258000D02*
D03*
X254000Y227244D02*
D03*
Y232756D02*
D03*
X310500Y196756D02*
D03*
Y191244D02*
D03*
X302000Y198256D02*
D03*
Y192744D02*
D03*
X245000Y257756D02*
D03*
Y252244D02*
D03*
X292500Y198500D02*
D03*
Y192988D02*
D03*
X221000Y198756D02*
D03*
Y193244D02*
D03*
D71*
X255161Y245000D02*
D03*
X262839D02*
D03*
D72*
X324000Y255563D02*
D03*
Y263437D02*
D03*
X285000Y260563D02*
D03*
Y268437D02*
D03*
D73*
X544000Y271000D02*
D03*
Y267500D02*
D03*
Y264000D02*
D03*
Y260500D02*
D03*
Y257000D02*
D03*
X543500Y180000D02*
D03*
Y176500D02*
D03*
Y173000D02*
D03*
Y169500D02*
D03*
Y166000D02*
D03*
Y162500D02*
D03*
X510500Y182000D02*
D03*
X507000D02*
D03*
X503500D02*
D03*
X500000D02*
D03*
X496500D02*
D03*
X511000Y162000D02*
D03*
X507500D02*
D03*
X504000D02*
D03*
X500500D02*
D03*
X497000D02*
D03*
X543000Y122500D02*
D03*
Y126000D02*
D03*
Y129500D02*
D03*
Y133000D02*
D03*
Y136500D02*
D03*
X464500Y123500D02*
D03*
Y127000D02*
D03*
Y130500D02*
D03*
Y134000D02*
D03*
Y137500D02*
D03*
X448000Y124000D02*
D03*
Y127500D02*
D03*
Y131000D02*
D03*
Y134500D02*
D03*
Y138000D02*
D03*
X401500Y161500D02*
D03*
X405000D02*
D03*
X408500D02*
D03*
X412000D02*
D03*
X415500D02*
D03*
X400000Y182500D02*
D03*
X403500D02*
D03*
X407000D02*
D03*
X410500D02*
D03*
X414000D02*
D03*
X500000Y256000D02*
D03*
X503500D02*
D03*
X507000D02*
D03*
X510500D02*
D03*
X514000D02*
D03*
X543500Y223500D02*
D03*
Y220000D02*
D03*
Y216500D02*
D03*
Y213000D02*
D03*
Y209500D02*
D03*
X576500Y272500D02*
D03*
X573000D02*
D03*
X569500D02*
D03*
X566000D02*
D03*
X562500D02*
D03*
X529500D02*
D03*
X526000D02*
D03*
X522500D02*
D03*
X519000D02*
D03*
X515500D02*
D03*
X464500Y184000D02*
D03*
X461000D02*
D03*
X457500D02*
D03*
X454000D02*
D03*
X450500D02*
D03*
X463500Y159500D02*
D03*
X460000D02*
D03*
X456500D02*
D03*
X453000D02*
D03*
X449500D02*
D03*
X489000Y273000D02*
D03*
X485500D02*
D03*
X482000D02*
D03*
X478500D02*
D03*
X475000D02*
D03*
X464500Y255000D02*
D03*
X461000D02*
D03*
X457500D02*
D03*
X454000D02*
D03*
X450500D02*
D03*
X490000Y348500D02*
D03*
Y352000D02*
D03*
Y355500D02*
D03*
Y359000D02*
D03*
Y362500D02*
D03*
X473500Y348500D02*
D03*
Y352000D02*
D03*
Y355500D02*
D03*
Y359000D02*
D03*
Y362500D02*
D03*
X490000Y291500D02*
D03*
Y295000D02*
D03*
Y298500D02*
D03*
Y302000D02*
D03*
Y305500D02*
D03*
X473500Y291500D02*
D03*
Y295000D02*
D03*
Y298500D02*
D03*
Y302000D02*
D03*
Y305500D02*
D03*
X351500Y129000D02*
D03*
Y132500D02*
D03*
Y136000D02*
D03*
Y139500D02*
D03*
Y143000D02*
D03*
X370000Y129000D02*
D03*
Y132500D02*
D03*
Y136000D02*
D03*
Y139500D02*
D03*
Y143000D02*
D03*
X370500Y180500D02*
D03*
Y177000D02*
D03*
Y173500D02*
D03*
Y170000D02*
D03*
Y166500D02*
D03*
Y163000D02*
D03*
X370000Y271000D02*
D03*
Y267500D02*
D03*
Y264000D02*
D03*
Y260500D02*
D03*
Y257000D02*
D03*
X352000Y191500D02*
D03*
Y195000D02*
D03*
Y198500D02*
D03*
Y202000D02*
D03*
Y205500D02*
D03*
X370000Y191500D02*
D03*
Y195000D02*
D03*
Y198500D02*
D03*
Y202000D02*
D03*
Y205500D02*
D03*
X465000Y214500D02*
D03*
Y218000D02*
D03*
Y221500D02*
D03*
Y225000D02*
D03*
Y228500D02*
D03*
X449000Y214000D02*
D03*
Y217500D02*
D03*
Y221000D02*
D03*
Y224500D02*
D03*
Y228000D02*
D03*
X397500Y272000D02*
D03*
X401000D02*
D03*
X404500D02*
D03*
X408000D02*
D03*
X411500D02*
D03*
X397500Y256000D02*
D03*
X401000D02*
D03*
X404500D02*
D03*
X408000D02*
D03*
X411500D02*
D03*
X351500Y252000D02*
D03*
Y248500D02*
D03*
Y245000D02*
D03*
Y241500D02*
D03*
Y238000D02*
D03*
X370000Y252000D02*
D03*
Y248500D02*
D03*
Y245000D02*
D03*
Y241500D02*
D03*
Y238000D02*
D03*
Y293500D02*
D03*
Y290000D02*
D03*
Y286500D02*
D03*
Y283000D02*
D03*
Y279500D02*
D03*
X352000Y293000D02*
D03*
Y289500D02*
D03*
Y286000D02*
D03*
Y282500D02*
D03*
Y279000D02*
D03*
X370000Y341000D02*
D03*
Y337500D02*
D03*
Y334000D02*
D03*
Y330500D02*
D03*
Y327000D02*
D03*
X352000D02*
D03*
Y330500D02*
D03*
Y334000D02*
D03*
Y337500D02*
D03*
Y341000D02*
D03*
D74*
X404500Y144000D02*
D03*
X416311D02*
D03*
X420012Y155811D02*
D03*
Y132189D02*
D03*
X499185Y144000D02*
D03*
X510996D02*
D03*
X514697Y155811D02*
D03*
Y132189D02*
D03*
D75*
X380500Y151000D02*
D03*
Y109000D02*
D03*
X437500Y151000D02*
D03*
Y109000D02*
D03*
X475185Y151000D02*
D03*
Y109000D02*
D03*
X532185Y151000D02*
D03*
Y109000D02*
D03*
X582685Y365185D02*
D03*
X500685D02*
D03*
Y283185D02*
D03*
X582685Y283185D02*
D03*
X463000Y365185D02*
D03*
X381000D02*
D03*
Y283185D02*
D03*
X463000Y283185D02*
D03*
X381185Y193106D02*
D03*
Y245106D02*
D03*
X438185D02*
D03*
Y193106D02*
D03*
X475870D02*
D03*
Y245106D02*
D03*
X532870D02*
D03*
Y193106D02*
D03*
X330500Y119000D02*
D03*
X331000Y331000D02*
D03*
X119000D02*
D03*
Y118500D02*
D03*
D76*
X533185Y359685D02*
D03*
X543185D02*
D03*
X553185D02*
D03*
X523185D02*
D03*
X413500D02*
D03*
X423500D02*
D03*
X433500D02*
D03*
X403500D02*
D03*
X262314Y334000D02*
D03*
X272314D02*
D03*
X282314D02*
D03*
X252314D02*
D03*
X203000Y336000D02*
D03*
X213000D02*
D03*
X223000D02*
D03*
X193000D02*
D03*
D77*
X563185Y359685D02*
D03*
X443500D02*
D03*
X292314Y334000D02*
D03*
X233000Y336000D02*
D03*
D78*
X417559Y242106D02*
D03*
X512244D02*
D03*
D79*
X409685D02*
D03*
X401811D02*
D03*
X504370D02*
D03*
X496496D02*
D03*
X331000Y170874D02*
D03*
Y163000D02*
D03*
X330000Y223374D02*
D03*
Y215500D02*
D03*
D80*
X425185Y208606D02*
D03*
X420185Y213606D02*
D03*
X519870Y208606D02*
D03*
X514870Y213606D02*
D03*
D81*
X425185Y218606D02*
D03*
X519870D02*
D03*
D82*
X331000Y178748D02*
D03*
X330000Y231248D02*
D03*
D83*
X104000Y215500D02*
D03*
X103839Y247500D02*
D03*
X105000Y278000D02*
D03*
X104500Y308500D02*
D03*
D84*
X104000Y205500D02*
D03*
X103839Y237500D02*
D03*
X105000Y268000D02*
D03*
X104500Y298500D02*
D03*
D85*
X136902Y138299D02*
D03*
D86*
X124500Y142500D02*
D03*
Y152500D02*
D03*
Y162500D02*
D03*
Y172500D02*
D03*
D87*
X341000Y265500D02*
D03*
Y275500D02*
D03*
Y285500D02*
D03*
Y295500D02*
D03*
D88*
Y305500D02*
D03*
D89*
X203500Y170000D02*
D03*
D90*
Y179606D02*
D03*
Y189213D02*
D03*
M02*
