G04*
G04 #@! TF.GenerationSoftware,Altium Limited,Altium Designer,21.5.1 (32)*
G04*
G04 Layer_Physical_Order=1*
G04 Layer_Color=255*
%FSLAX25Y25*%
%MOIN*%
G70*
G04*
G04 #@! TF.SameCoordinates,35D1D81E-305D-4ED3-A4E5-B3A77E649114*
G04*
G04*
G04 #@! TF.FilePolarity,Positive*
G04*
G01*
G75*
%ADD10R,0.09921X0.14961*%
%ADD11R,0.03071X0.06496*%
%ADD12R,0.05512X0.05906*%
%ADD13C,0.01000*%
%ADD14R,0.01800X0.05200*%
%ADD15R,0.02362X0.01968*%
%ADD16R,0.03150X0.03543*%
G04:AMPARAMS|DCode=17|XSize=25.59mil|YSize=47.24mil|CornerRadius=1.92mil|HoleSize=0mil|Usage=FLASHONLY|Rotation=180.000|XOffset=0mil|YOffset=0mil|HoleType=Round|Shape=RoundedRectangle|*
%AMROUNDEDRECTD17*
21,1,0.02559,0.04341,0,0,180.0*
21,1,0.02175,0.04724,0,0,180.0*
1,1,0.00384,-0.01088,0.02170*
1,1,0.00384,0.01088,0.02170*
1,1,0.00384,0.01088,-0.02170*
1,1,0.00384,-0.01088,-0.02170*
%
%ADD17ROUNDEDRECTD17*%
%ADD18R,0.01968X0.02362*%
G04:AMPARAMS|DCode=19|XSize=25.59mil|YSize=47.24mil|CornerRadius=1.92mil|HoleSize=0mil|Usage=FLASHONLY|Rotation=270.000|XOffset=0mil|YOffset=0mil|HoleType=Round|Shape=RoundedRectangle|*
%AMROUNDEDRECTD19*
21,1,0.02559,0.04341,0,0,270.0*
21,1,0.02175,0.04724,0,0,270.0*
1,1,0.00384,-0.02170,-0.01088*
1,1,0.00384,-0.02170,0.01088*
1,1,0.00384,0.02170,0.01088*
1,1,0.00384,0.02170,-0.01088*
%
%ADD19ROUNDEDRECTD19*%
%ADD20R,0.05512X0.07874*%
%ADD21R,0.02264X0.01378*%
%ADD22R,0.01378X0.02264*%
G04:AMPARAMS|DCode=23|XSize=51.18mil|YSize=23.62mil|CornerRadius=2.01mil|HoleSize=0mil|Usage=FLASHONLY|Rotation=0.000|XOffset=0mil|YOffset=0mil|HoleType=Round|Shape=RoundedRectangle|*
%AMROUNDEDRECTD23*
21,1,0.05118,0.01961,0,0,0.0*
21,1,0.04717,0.02362,0,0,0.0*
1,1,0.00402,0.02358,-0.00980*
1,1,0.00402,-0.02358,-0.00980*
1,1,0.00402,-0.02358,0.00980*
1,1,0.00402,0.02358,0.00980*
%
%ADD23ROUNDEDRECTD23*%
%ADD24O,0.02165X0.05118*%
%ADD25O,0.05118X0.02165*%
G04:AMPARAMS|DCode=26|XSize=47.64mil|YSize=23.23mil|CornerRadius=5.81mil|HoleSize=0mil|Usage=FLASHONLY|Rotation=180.000|XOffset=0mil|YOffset=0mil|HoleType=Round|Shape=RoundedRectangle|*
%AMROUNDEDRECTD26*
21,1,0.04764,0.01161,0,0,180.0*
21,1,0.03602,0.02323,0,0,180.0*
1,1,0.01161,-0.01801,0.00581*
1,1,0.01161,0.01801,0.00581*
1,1,0.01161,0.01801,-0.00581*
1,1,0.01161,-0.01801,-0.00581*
%
%ADD26ROUNDEDRECTD26*%
%ADD27R,0.03543X0.03150*%
%ADD28R,0.03347X0.09055*%
%ADD29R,0.05906X0.05512*%
%ADD30C,0.02000*%
%ADD31C,0.02000*%
%ADD32C,0.06378*%
%ADD33C,0.11200*%
%ADD34C,0.03000*%
%ADD35C,0.07087*%
%ADD36R,0.07087X0.07087*%
%ADD37R,0.05512X0.05512*%
%ADD38C,0.05512*%
%ADD39C,0.05512*%
%ADD40P,0.07795X4X360.0*%
%ADD41C,0.06496*%
%ADD42R,0.06496X0.06496*%
%ADD43R,0.05512X0.05512*%
%ADD44C,0.04047*%
%ADD45C,0.07500*%
%ADD46C,0.05906*%
%ADD47R,0.05906X0.05906*%
%ADD48R,0.04724X0.04724*%
%ADD49C,0.04724*%
%ADD50C,0.01800*%
G36*
X349197Y100803D02*
X100803D01*
Y204836D01*
X101303Y204868D01*
X101348Y204522D01*
X101726Y203610D01*
X101736Y203597D01*
X101678Y203510D01*
X101601Y203120D01*
X101678Y202730D01*
X101899Y202399D01*
X102230Y202178D01*
X102620Y202101D01*
X103010Y202178D01*
X103097Y202236D01*
X103110Y202226D01*
X104022Y201848D01*
X105000Y201720D01*
X105978Y201848D01*
X106890Y202226D01*
X107673Y202827D01*
X108274Y203610D01*
X108634Y204480D01*
X139035D01*
X139426Y204558D01*
X139757Y204779D01*
X157458Y222480D01*
X162016D01*
Y222016D01*
X162677D01*
Y216929D01*
X162524Y216827D01*
X162371Y216598D01*
X162317Y216328D01*
Y214153D01*
X162371Y213883D01*
X162524Y213654D01*
X162753Y213501D01*
X163023Y213447D01*
X167363D01*
X167633Y213501D01*
X167862Y213654D01*
X168015Y213883D01*
X168069Y214153D01*
Y216328D01*
X168015Y216598D01*
X167862Y216827D01*
X167633Y216980D01*
X167363Y217033D01*
X164716D01*
Y222016D01*
X165378D01*
Y224984D01*
X162016D01*
Y224520D01*
X157036D01*
X156645Y224442D01*
X156315Y224221D01*
X138613Y206520D01*
X108634D01*
X108274Y207390D01*
X107673Y208173D01*
X106890Y208774D01*
X105978Y209152D01*
X105000Y209280D01*
X104022Y209152D01*
X103110Y208774D01*
X102327Y208173D01*
X101726Y207390D01*
X101348Y206478D01*
X101303Y206132D01*
X100803Y206164D01*
Y211629D01*
X101252Y211752D01*
X101303Y211752D01*
X104750D01*
Y215500D01*
Y219248D01*
X101303D01*
X101252Y219248D01*
X100803Y219371D01*
Y236836D01*
X101303Y236868D01*
X101348Y236522D01*
X101726Y235610D01*
X102327Y234827D01*
X103110Y234226D01*
X104022Y233848D01*
X105000Y233720D01*
X105978Y233848D01*
X106890Y234226D01*
X107673Y234827D01*
X108274Y235610D01*
X108652Y236522D01*
X108780Y237500D01*
X108652Y238478D01*
X108291Y239349D01*
X122922Y253980D01*
X162850D01*
Y253516D01*
X163512D01*
Y249033D01*
X163023D01*
X162753Y248979D01*
X162524Y248827D01*
X162371Y248598D01*
X162317Y248328D01*
Y246153D01*
X162371Y245883D01*
X162524Y245654D01*
X162753Y245501D01*
X163023Y245447D01*
X167363D01*
X167633Y245501D01*
X167862Y245654D01*
X168015Y245883D01*
X168069Y246153D01*
Y248133D01*
X168560Y248348D01*
X169480Y247428D01*
Y243000D01*
X169558Y242610D01*
X169779Y242279D01*
X170110Y242058D01*
X170500Y241980D01*
X173667D01*
X174138Y241499D01*
Y241348D01*
X174131Y241337D01*
X173985Y241117D01*
X173931Y240847D01*
Y238672D01*
X173985Y238402D01*
X174138Y238173D01*
X174367Y238020D01*
X174637Y237967D01*
X178977D01*
X179247Y238020D01*
X179476Y238173D01*
X179629Y238402D01*
X179674Y238626D01*
X183016D01*
Y237850D01*
X185984D01*
Y238376D01*
X196317D01*
Y238172D01*
X196371Y237902D01*
X196524Y237673D01*
X196753Y237521D01*
X197023Y237467D01*
X201363D01*
X201633Y237521D01*
X201862Y237673D01*
X202015Y237902D01*
X202069Y238172D01*
Y240347D01*
X202015Y240617D01*
X201869Y240837D01*
X201862Y240848D01*
Y241130D01*
Y241411D01*
X201869Y241423D01*
X202015Y241642D01*
X202069Y241912D01*
Y242750D01*
X199193D01*
Y243250D01*
X202069D01*
Y243626D01*
X202569Y243833D01*
X203693Y242709D01*
X203693Y242709D01*
X207149Y239252D01*
X207480Y239032D01*
X207870Y238954D01*
X207931D01*
Y238172D01*
X207985Y237902D01*
X208138Y237673D01*
X208367Y237521D01*
X208637Y237467D01*
X211458D01*
Y222298D01*
X211535Y221908D01*
X211756Y221577D01*
X224348Y208985D01*
X224146Y208562D01*
X224107Y208520D01*
X212145D01*
X211977Y208553D01*
X209015D01*
Y209161D01*
X208938Y209551D01*
X208717Y209882D01*
X203637Y214961D01*
X203307Y215182D01*
X202916Y215260D01*
X201069D01*
Y215328D01*
X201015Y215598D01*
X200862Y215827D01*
X200633Y215980D01*
X200363Y216033D01*
X196023D01*
X195753Y215980D01*
X195524Y215827D01*
X195371Y215598D01*
X195317Y215328D01*
Y213153D01*
X195371Y212883D01*
X195517Y212663D01*
X195524Y212652D01*
Y212370D01*
Y212088D01*
X195517Y212077D01*
X195371Y211858D01*
X195317Y211588D01*
Y211520D01*
X194150D01*
Y212984D01*
X193488D01*
Y216500D01*
X193411Y216890D01*
X193190Y217221D01*
X192859Y217442D01*
X192469Y217520D01*
X192078Y217442D01*
X191747Y217221D01*
X191526Y216890D01*
X191449Y216500D01*
X191449Y216500D01*
Y212984D01*
X190787D01*
Y211750D01*
X192469D01*
Y211500D01*
X192719D01*
Y210005D01*
X192944Y209779D01*
X193275Y209558D01*
X193665Y209480D01*
X195317D01*
Y209412D01*
X195371Y209142D01*
X195517Y208923D01*
X195524Y208911D01*
Y208630D01*
Y208348D01*
X195517Y208337D01*
X195371Y208117D01*
X195317Y207847D01*
Y207779D01*
X184428D01*
Y209263D01*
X181460D01*
Y208690D01*
X179683D01*
Y208847D01*
X179629Y209117D01*
X179483Y209337D01*
X179476Y209348D01*
Y209630D01*
Y209911D01*
X179483Y209923D01*
X179629Y210142D01*
X179683Y210412D01*
Y211473D01*
X180145Y211664D01*
X180474Y211335D01*
X180805Y211114D01*
X181195Y211036D01*
X181460D01*
Y209837D01*
X184428D01*
Y210480D01*
X186850D01*
Y210016D01*
X190213D01*
Y212984D01*
X186850D01*
Y212520D01*
X184428D01*
Y213200D01*
X181493D01*
X180890Y213802D01*
X180890Y213802D01*
X179683Y215010D01*
Y216328D01*
X179629Y216598D01*
X179476Y216827D01*
X179247Y216980D01*
X178977Y217033D01*
X174637D01*
X174367Y216980D01*
X174138Y216827D01*
X173985Y216598D01*
X173931Y216328D01*
Y216001D01*
X173469Y215810D01*
X171857Y217422D01*
Y220493D01*
X171779Y220884D01*
X171558Y221214D01*
X169523Y223250D01*
X167884D01*
Y222005D01*
X169818Y220071D01*
Y217000D01*
X169895Y216610D01*
X170116Y216279D01*
X170116Y216279D01*
X172425Y213970D01*
Y213659D01*
X172503Y213269D01*
X172724Y212938D01*
X173422Y212240D01*
X173753Y212019D01*
X173767Y212016D01*
X173931Y211851D01*
Y211750D01*
X176807D01*
Y211250D01*
X173931D01*
Y210412D01*
X173985Y210142D01*
X174131Y209923D01*
X174138Y209911D01*
Y209630D01*
Y209348D01*
X174131Y209337D01*
X173985Y209117D01*
X173931Y208847D01*
Y206672D01*
X173985Y206402D01*
X174138Y206173D01*
X174367Y206020D01*
X174637Y205967D01*
X178977D01*
X179247Y206020D01*
X179476Y206173D01*
X179629Y206402D01*
X179679Y206651D01*
X181460D01*
Y205900D01*
X183055D01*
X183179Y205818D01*
X183569Y205740D01*
X195317D01*
Y205672D01*
X195371Y205402D01*
X195524Y205173D01*
X195753Y205020D01*
X196023Y204967D01*
X200363D01*
X200633Y205020D01*
X200862Y205173D01*
X201015Y205402D01*
X201069Y205672D01*
Y207847D01*
X201015Y208117D01*
X200869Y208337D01*
X200862Y208348D01*
Y208630D01*
Y208911D01*
X200869Y208923D01*
X201015Y209142D01*
X201069Y209412D01*
Y210250D01*
X198193D01*
Y210750D01*
X201069D01*
Y211588D01*
X201015Y211858D01*
X200869Y212077D01*
X200862Y212088D01*
Y212370D01*
Y212652D01*
X200869Y212663D01*
X201015Y212883D01*
X201069Y213153D01*
Y213221D01*
X202494D01*
X206976Y208739D01*
Y208072D01*
X206931Y207847D01*
Y205672D01*
X206985Y205402D01*
X207138Y205173D01*
X207367Y205020D01*
X207637Y204967D01*
X211977D01*
X212247Y205020D01*
X212476Y205173D01*
X212629Y205402D01*
X212683Y205672D01*
Y206480D01*
X223704D01*
X231391Y198793D01*
X231363Y198650D01*
X231486Y198032D01*
X231835Y197509D01*
X232034Y197376D01*
Y196904D01*
X231640Y196520D01*
X229405D01*
X226448Y199477D01*
X226117Y199698D01*
X225727Y199776D01*
X223272D01*
Y200831D01*
X218728D01*
Y199776D01*
X181887D01*
X181642Y200142D01*
X181118Y200492D01*
X180500Y200615D01*
X179882Y200492D01*
X179358Y200142D01*
X179008Y199618D01*
X178885Y199000D01*
X179008Y198382D01*
X179358Y197858D01*
X179882Y197508D01*
X180500Y197385D01*
X181118Y197508D01*
X181460Y197736D01*
X218728D01*
Y196681D01*
X223272D01*
Y197736D01*
X225305D01*
X228262Y194779D01*
X228593Y194558D01*
X228983Y194480D01*
X231754D01*
X231835Y194359D01*
X232034Y194226D01*
Y193754D01*
X231640Y193370D01*
X228177D01*
X227676Y193872D01*
X227345Y194093D01*
X226955Y194171D01*
X223272D01*
Y195319D01*
X221250D01*
Y193244D01*
Y191169D01*
X223272D01*
Y192131D01*
X226532D01*
X227034Y191629D01*
X227365Y191408D01*
X227755Y191331D01*
X231754D01*
X231835Y191209D01*
X232034Y191076D01*
Y190604D01*
X231640Y190220D01*
X224138D01*
X223748Y190143D01*
X223417Y189922D01*
X221208Y187713D01*
X218500D01*
Y187051D01*
X207103D01*
X206113Y188042D01*
X206289Y188465D01*
X206387Y189213D01*
X206289Y189960D01*
X206000Y190656D01*
X205541Y191254D01*
X204943Y191713D01*
X204247Y192001D01*
X203500Y192099D01*
X202753Y192001D01*
X202057Y191713D01*
X201459Y191254D01*
X201000Y190656D01*
X200711Y189960D01*
X200613Y189213D01*
X200711Y188465D01*
X201000Y187769D01*
X201459Y187171D01*
X202057Y186713D01*
X202753Y186424D01*
X203500Y186326D01*
X204247Y186424D01*
X204671Y186600D01*
X205960Y185310D01*
X206291Y185090D01*
X206681Y185012D01*
X218500D01*
Y184350D01*
X221468D01*
Y185163D01*
X221690Y185310D01*
X224560Y188181D01*
X231754D01*
X231835Y188060D01*
X232034Y187927D01*
Y187422D01*
X231650Y187045D01*
X230394D01*
X230003Y186968D01*
X229673Y186747D01*
X225425Y182499D01*
X225204Y182168D01*
X225127Y181778D01*
Y175201D01*
X221946Y172021D01*
X221484Y172213D01*
Y172213D01*
X218516D01*
Y171551D01*
X206362D01*
Y172862D01*
X200638D01*
Y167138D01*
X206362D01*
Y169512D01*
X218516D01*
Y168850D01*
X221484D01*
Y169512D01*
X221899D01*
X222289Y169589D01*
X222619Y169810D01*
X226867Y174058D01*
X227088Y174389D01*
X227166Y174779D01*
Y181356D01*
X230816Y185006D01*
X231771D01*
X231835Y184910D01*
X232034Y184777D01*
Y184176D01*
X231835Y184043D01*
X231486Y183519D01*
X231363Y182902D01*
X231486Y182284D01*
X231835Y181761D01*
X232034Y181627D01*
Y181026D01*
X231835Y180893D01*
X231486Y180369D01*
X231363Y179752D01*
X231486Y179134D01*
X231835Y178611D01*
X232359Y178261D01*
X232976Y178138D01*
X235929D01*
X236547Y178261D01*
X237070Y178611D01*
X237420Y179134D01*
X237543Y179752D01*
X237420Y180369D01*
X237070Y180893D01*
X236871Y181026D01*
Y181627D01*
X237070Y181761D01*
X237420Y182284D01*
X237543Y182902D01*
X237420Y183519D01*
X237070Y184043D01*
X236871Y184176D01*
Y184777D01*
X237070Y184910D01*
X237420Y185434D01*
X237543Y186051D01*
X237420Y186669D01*
X237070Y187192D01*
X236871Y187325D01*
Y187927D01*
X237070Y188060D01*
X237420Y188583D01*
X237543Y189201D01*
X237420Y189818D01*
X237070Y190342D01*
X236871Y190475D01*
Y191076D01*
X237070Y191209D01*
X237420Y191733D01*
X237493Y192100D01*
X234453D01*
Y192600D01*
X237493D01*
X237420Y192968D01*
X237070Y193491D01*
X236871Y193624D01*
Y194226D01*
X237070Y194359D01*
X237420Y194883D01*
X237543Y195500D01*
X237420Y196117D01*
X237070Y196641D01*
X236871Y196774D01*
Y197376D01*
X237070Y197509D01*
X237420Y198032D01*
X237543Y198650D01*
X237420Y199267D01*
X237070Y199791D01*
X236871Y199924D01*
Y200525D01*
X237070Y200658D01*
X237420Y201182D01*
X237543Y201799D01*
X237420Y202417D01*
X237070Y202940D01*
X236871Y203073D01*
Y203675D01*
X237070Y203808D01*
X237420Y204331D01*
X237543Y204949D01*
X237420Y205566D01*
X237070Y206090D01*
X236871Y206223D01*
Y206824D01*
X237070Y206957D01*
X237420Y207481D01*
X237543Y208098D01*
X237420Y208716D01*
X237070Y209240D01*
X236871Y209373D01*
Y209974D01*
X237070Y210107D01*
X237420Y210630D01*
X237543Y211248D01*
X237420Y211866D01*
X237070Y212389D01*
X236547Y212739D01*
X235929Y212862D01*
X232976D01*
X232359Y212739D01*
X231835Y212389D01*
X231486Y211866D01*
X231464Y211759D01*
X230922Y211595D01*
X221020Y221497D01*
Y235184D01*
X221481Y235376D01*
X238467Y218391D01*
X238797Y218170D01*
X239138Y218102D01*
Y216071D01*
X239261Y215453D01*
X239611Y214930D01*
X240134Y214580D01*
X240752Y214457D01*
X241370Y214580D01*
X241893Y214930D01*
X242026Y215129D01*
X242627D01*
X242760Y214930D01*
X243284Y214580D01*
X243902Y214457D01*
X244519Y214580D01*
X245043Y214930D01*
X245176Y215129D01*
X245777D01*
X245910Y214930D01*
X246434Y214580D01*
X247051Y214457D01*
X247669Y214580D01*
X248192Y214930D01*
X248325Y215129D01*
X248927D01*
X249060Y214930D01*
X249583Y214580D01*
X250201Y214457D01*
X250818Y214580D01*
X251342Y214930D01*
X251475Y215129D01*
X252076D01*
X252209Y214930D01*
X252733Y214580D01*
X253350Y214457D01*
X253968Y214580D01*
X254491Y214930D01*
X254625Y215129D01*
X255226D01*
X255359Y214930D01*
X255883Y214580D01*
X256500Y214457D01*
X257118Y214580D01*
X257641Y214930D01*
X257774Y215129D01*
X258376D01*
X258509Y214930D01*
X259032Y214580D01*
X259650Y214457D01*
X260267Y214580D01*
X260791Y214930D01*
X260924Y215129D01*
X261525D01*
X261658Y214930D01*
X262182Y214580D01*
X262799Y214457D01*
X263417Y214580D01*
X263940Y214930D01*
X264073Y215129D01*
X264675D01*
X264808Y214930D01*
X265331Y214580D01*
X265949Y214457D01*
X266566Y214580D01*
X267090Y214930D01*
X267223Y215129D01*
X267824D01*
X267957Y214930D01*
X268481Y214580D01*
X269098Y214457D01*
X269716Y214580D01*
X270239Y214930D01*
X270373Y215129D01*
X270974D01*
X271107Y214930D01*
X271631Y214580D01*
X272248Y214457D01*
X272866Y214580D01*
X273389Y214930D01*
X273739Y215453D01*
X273862Y216071D01*
Y219024D01*
X273833Y219167D01*
X278647Y223980D01*
X290776D01*
X290858Y223858D01*
X291382Y223508D01*
X292000Y223385D01*
X292618Y223508D01*
X293142Y223858D01*
X293492Y224382D01*
X293615Y225000D01*
X293492Y225618D01*
X293142Y226142D01*
X292618Y226492D01*
X292000Y226615D01*
X291382Y226492D01*
X290858Y226142D01*
X290776Y226020D01*
X278224D01*
X277834Y225942D01*
X277503Y225721D01*
X272391Y220609D01*
X272248Y220637D01*
X271631Y220514D01*
X271107Y220165D01*
X270974Y219966D01*
X270373D01*
X270239Y220165D01*
X270182Y220203D01*
X270152Y220710D01*
X277922Y228480D01*
X287776D01*
X287858Y228358D01*
X288382Y228008D01*
X289000Y227885D01*
X289618Y228008D01*
X290142Y228358D01*
X290492Y228882D01*
X290615Y229500D01*
X290492Y230118D01*
X290142Y230642D01*
X289618Y230992D01*
X289000Y231115D01*
X288382Y230992D01*
X287858Y230642D01*
X287776Y230520D01*
X277500D01*
X277110Y230442D01*
X276779Y230221D01*
X268377Y221819D01*
X268156Y221489D01*
X268079Y221098D01*
Y220246D01*
X267957Y220165D01*
X267824Y219966D01*
X267223D01*
X267090Y220165D01*
X266566Y220514D01*
X265949Y220637D01*
X265331Y220514D01*
X264808Y220165D01*
X264675Y219966D01*
X264073D01*
X263940Y220165D01*
X263417Y220514D01*
X262799Y220637D01*
X262182Y220514D01*
X261658Y220165D01*
X261525Y219966D01*
X260924D01*
X260791Y220165D01*
X260267Y220514D01*
X259859Y220596D01*
Y221105D01*
X259978Y221129D01*
X260308Y221350D01*
X271439Y232480D01*
X284776D01*
X284858Y232358D01*
X285382Y232008D01*
X286000Y231885D01*
X286618Y232008D01*
X287142Y232358D01*
X287492Y232882D01*
X287615Y233500D01*
X287492Y234118D01*
X287142Y234642D01*
X286618Y234992D01*
X286000Y235115D01*
X285382Y234992D01*
X284858Y234642D01*
X284776Y234520D01*
X271017D01*
X270626Y234442D01*
X270296Y234221D01*
X267793Y231718D01*
X267331Y231909D01*
Y232250D01*
X265506D01*
Y230228D01*
X265650D01*
X265841Y229766D01*
X259165Y223091D01*
X254370D01*
Y225169D01*
X256272D01*
Y229319D01*
X251728D01*
Y225169D01*
X252331D01*
Y222500D01*
X252374Y222285D01*
X252331Y222071D01*
Y220246D01*
X252209Y220165D01*
X252076Y219966D01*
X251475D01*
X251342Y220165D01*
X250818Y220514D01*
X250201Y220637D01*
X249583Y220514D01*
X249060Y220165D01*
X248927Y219966D01*
X248325D01*
X248192Y220165D01*
X247669Y220514D01*
X247051Y220637D01*
X246908Y220609D01*
X234020Y233497D01*
Y241785D01*
X234520Y241834D01*
X234558Y241641D01*
X234779Y241311D01*
X242850Y233239D01*
Y231516D01*
X246213D01*
Y234484D01*
X244489D01*
X236520Y242454D01*
Y252776D01*
X236642Y252858D01*
X236992Y253382D01*
X237115Y254000D01*
X236992Y254618D01*
X236642Y255142D01*
X236520Y255224D01*
Y255925D01*
X239272D01*
Y256980D01*
X240206D01*
X240651Y256535D01*
X240982Y256314D01*
X241372Y256236D01*
X242728D01*
Y255681D01*
X247272D01*
Y256240D01*
X250751D01*
X250979Y255900D01*
X251336Y255661D01*
X251758Y255577D01*
X252539D01*
Y252324D01*
X252617Y251934D01*
X252838Y251603D01*
X254142Y250299D01*
Y249528D01*
X252988D01*
Y239472D01*
X256290D01*
Y239000D01*
X256344Y238728D01*
X256498Y238498D01*
X256728Y238344D01*
X257000Y238289D01*
X261000D01*
X261272Y238344D01*
X261502Y238498D01*
X261656Y238728D01*
X261711Y239000D01*
Y239472D01*
X265012D01*
Y243480D01*
X278083D01*
Y240063D01*
X284594D01*
Y248937D01*
X278083D01*
Y245520D01*
X265012D01*
Y249528D01*
X264460D01*
Y255577D01*
X265242D01*
X265664Y255661D01*
X266021Y255900D01*
X266260Y256258D01*
X266344Y256679D01*
Y257840D01*
X266260Y258262D01*
X266021Y258620D01*
X265664Y258859D01*
X265581Y258875D01*
Y259385D01*
X265664Y259401D01*
X266021Y259640D01*
X266249Y259980D01*
X267500D01*
X267890Y260058D01*
X268221Y260279D01*
X268442Y260610D01*
X268520Y261000D01*
X268442Y261390D01*
X268221Y261721D01*
X267890Y261942D01*
X267500Y262020D01*
X266249D01*
X266021Y262360D01*
X265664Y262599D01*
X265581Y262615D01*
Y263125D01*
X265664Y263141D01*
X266021Y263380D01*
X266249Y263721D01*
X270066D01*
X272016Y261771D01*
Y259850D01*
X274984D01*
Y260512D01*
X281547D01*
Y257307D01*
X288453D01*
Y258480D01*
X293413D01*
Y257228D01*
X297563D01*
Y260842D01*
X298025Y261033D01*
X298925Y260133D01*
Y257228D01*
X301633D01*
X302768Y256093D01*
X303099Y255872D01*
X303489Y255795D01*
X320543D01*
Y254713D01*
X319693D01*
X319303Y254635D01*
X318972Y254414D01*
X310328Y245770D01*
X301917D01*
Y248937D01*
X295406D01*
Y240063D01*
X301917D01*
Y243730D01*
X310750D01*
X311140Y243808D01*
X311471Y244029D01*
X320047Y252605D01*
X320547Y252509D01*
Y252307D01*
X321464D01*
X321563Y252288D01*
X321661Y252307D01*
X322799D01*
Y247681D01*
X322877Y247291D01*
X323098Y246960D01*
X329480Y240578D01*
Y235422D01*
X328779Y234721D01*
X328634Y234504D01*
X326744D01*
Y227992D01*
X333256D01*
Y228149D01*
X333718Y228340D01*
X334980Y227078D01*
Y184422D01*
X332562Y182004D01*
X327744D01*
Y175492D01*
X334256D01*
Y180814D01*
X336721Y183279D01*
X336942Y183610D01*
X337020Y184000D01*
Y227500D01*
X336942Y227890D01*
X336721Y228221D01*
X333256Y231686D01*
Y234504D01*
X331927D01*
X331520Y235000D01*
Y241000D01*
X331442Y241390D01*
X331221Y241721D01*
X324838Y248103D01*
Y252307D01*
X327453D01*
Y258819D01*
X320547D01*
Y257834D01*
X303911D01*
X303075Y258670D01*
Y261772D01*
X300170D01*
X297221Y264721D01*
X297221Y264721D01*
X292407Y269535D01*
X292076Y269756D01*
X291686Y269834D01*
X288453D01*
Y271693D01*
X281547D01*
Y265181D01*
X288453D01*
Y267795D01*
X291263D01*
X295779Y263279D01*
X295779Y263279D01*
X296825Y262234D01*
X296633Y261772D01*
X293413D01*
Y260520D01*
X288453D01*
Y263819D01*
X281547D01*
Y262551D01*
X274984D01*
Y263213D01*
X273839D01*
X273789Y263287D01*
X274057Y263787D01*
X274984D01*
Y264465D01*
X276484D01*
X276874Y264542D01*
X277205Y264763D01*
X277221Y264779D01*
X277442Y265110D01*
X277520Y265500D01*
X277442Y265890D01*
X277221Y266221D01*
X276890Y266442D01*
X276500Y266520D01*
X276421Y266504D01*
X274984D01*
Y267150D01*
X273750D01*
Y265469D01*
X273500D01*
Y265218D01*
X271800D01*
X271554Y265117D01*
X271209Y265461D01*
X270878Y265682D01*
X270488Y265760D01*
X266249D01*
X266021Y266100D01*
X265664Y266339D01*
X265242Y266423D01*
X261640D01*
X261218Y266339D01*
X260861Y266100D01*
X260622Y265742D01*
X260538Y265321D01*
Y264159D01*
X260622Y263738D01*
X260861Y263380D01*
X261218Y263141D01*
X261301Y263125D01*
Y262615D01*
X261218Y262599D01*
X260861Y262360D01*
X260622Y262002D01*
X260538Y261581D01*
Y261250D01*
X263441D01*
Y260750D01*
X260538D01*
Y260419D01*
X260622Y259998D01*
X260861Y259640D01*
X261218Y259401D01*
X261301Y259385D01*
Y258875D01*
X261218Y258859D01*
X260861Y258620D01*
X260622Y258262D01*
X260538Y257840D01*
Y256679D01*
X260622Y256258D01*
X260861Y255900D01*
X261218Y255661D01*
X261640Y255577D01*
X262421D01*
Y249528D01*
X261711D01*
Y250000D01*
X261656Y250272D01*
X261502Y250502D01*
X261272Y250656D01*
X261000Y250711D01*
X257000D01*
X256728Y250656D01*
X256681Y250625D01*
X256477Y250664D01*
X256166Y250825D01*
X256159Y250832D01*
X256103Y251112D01*
X255882Y251443D01*
X254579Y252746D01*
Y255577D01*
X255360D01*
X255782Y255661D01*
X256139Y255900D01*
X256378Y256258D01*
X256462Y256679D01*
Y257840D01*
X256378Y258262D01*
X256139Y258620D01*
X255782Y258859D01*
X255360Y258942D01*
X251758D01*
X251336Y258859D01*
X250979Y258620D01*
X250751Y258279D01*
X247272D01*
Y259831D01*
X242728D01*
Y258276D01*
X241794D01*
X241349Y258721D01*
X241018Y258942D01*
X240628Y259020D01*
X239272D01*
Y260075D01*
X235461D01*
X235270Y260537D01*
X236170Y261437D01*
X239272D01*
Y263721D01*
X250751D01*
X250979Y263380D01*
X251336Y263141D01*
X251758Y263058D01*
X255360D01*
X255782Y263141D01*
X256139Y263380D01*
X256378Y263738D01*
X256462Y264159D01*
Y265321D01*
X256378Y265742D01*
X256139Y266100D01*
X255782Y266339D01*
X255360Y266423D01*
X251758D01*
X251336Y266339D01*
X250979Y266100D01*
X250751Y265760D01*
X238425D01*
X238035Y265682D01*
X237892Y265587D01*
X234728D01*
Y262879D01*
X232279Y260430D01*
X232058Y260099D01*
X231980Y259709D01*
Y233094D01*
X231938Y233055D01*
X231515Y232852D01*
X224020Y240348D01*
Y304264D01*
X250246Y330490D01*
X250275Y330468D01*
X251258Y330061D01*
X252314Y329922D01*
X253369Y330061D01*
X254353Y330468D01*
X255198Y331116D01*
X255846Y331961D01*
X256253Y332944D01*
X256392Y334000D01*
X256253Y335055D01*
X255846Y336039D01*
X255198Y336884D01*
X254353Y337532D01*
X253369Y337939D01*
X252314Y338078D01*
X251258Y337939D01*
X250275Y337532D01*
X249430Y336884D01*
X248782Y336039D01*
X248375Y335055D01*
X248236Y334000D01*
X248375Y332944D01*
X248782Y331961D01*
X248804Y331932D01*
X222982Y306109D01*
X222520Y306301D01*
Y310000D01*
X222442Y310390D01*
X222221Y310721D01*
X203221Y329721D01*
X202890Y329942D01*
X202500Y330020D01*
X199922D01*
X196293Y333649D01*
X196532Y333961D01*
X196939Y334945D01*
X197078Y336000D01*
X196939Y337055D01*
X196532Y338039D01*
X195884Y338884D01*
X195039Y339532D01*
X194055Y339939D01*
X193000Y340078D01*
X191945Y339939D01*
X190961Y339532D01*
X190116Y338884D01*
X189468Y338039D01*
X189061Y337055D01*
X188922Y336000D01*
X189061Y334945D01*
X189468Y333961D01*
X190116Y333116D01*
X190961Y332468D01*
X191945Y332061D01*
X193000Y331922D01*
X194055Y332061D01*
X194721Y332337D01*
X198779Y328279D01*
X199110Y328058D01*
X199500Y327980D01*
X202078D01*
X214563Y315495D01*
X214371Y315033D01*
X211137D01*
X210867Y314980D01*
X210638Y314827D01*
X210485Y314598D01*
X210431Y314328D01*
Y314220D01*
X209193D01*
X209138Y314303D01*
X208614Y314653D01*
X207996Y314776D01*
X207377Y314653D01*
X206853Y314303D01*
X206503Y313779D01*
X206380Y313161D01*
X206503Y312543D01*
X206611Y312382D01*
X206222Y312063D01*
X205285Y313000D01*
X204954Y313222D01*
X204569Y313298D01*
Y314328D01*
X204515Y314598D01*
X204362Y314827D01*
X204133Y314980D01*
X203863Y315033D01*
X199523D01*
X199253Y314980D01*
X199024Y314827D01*
X198871Y314598D01*
X198817Y314328D01*
Y312153D01*
X198871Y311883D01*
X199024Y311654D01*
Y311087D01*
X198871Y310858D01*
X198861Y310809D01*
X198768Y310670D01*
X198738Y310520D01*
X197548D01*
X197548Y310520D01*
X196181D01*
Y310984D01*
X194750D01*
Y309500D01*
Y308016D01*
X196181D01*
Y308480D01*
X197531D01*
X197531Y308480D01*
X198817D01*
Y308412D01*
X198871Y308142D01*
X199017Y307923D01*
X199024Y307911D01*
Y307630D01*
Y307348D01*
X199017Y307337D01*
X198871Y307117D01*
X198817Y306847D01*
Y306665D01*
X187984D01*
Y307213D01*
X185016D01*
Y306779D01*
X183683D01*
Y306847D01*
X183629Y307117D01*
X183483Y307337D01*
X183476Y307348D01*
Y307630D01*
Y307911D01*
X183483Y307923D01*
X183629Y308142D01*
X183683Y308412D01*
Y309250D01*
X180807D01*
Y309750D01*
X183683D01*
Y310333D01*
X184183Y310541D01*
X185016Y309708D01*
Y307787D01*
X187984D01*
Y308465D01*
X188882D01*
Y308016D01*
X192244D01*
Y310984D01*
X188882D01*
Y310504D01*
X187984D01*
Y311150D01*
X186458D01*
X183683Y313924D01*
Y314328D01*
X183629Y314598D01*
X183476Y314827D01*
X183247Y314980D01*
X182977Y315033D01*
X178637D01*
X178367Y314980D01*
X178138Y314827D01*
X177985Y314598D01*
X177931Y314328D01*
Y312153D01*
X177985Y311883D01*
X178131Y311663D01*
X178138Y311652D01*
Y311370D01*
Y311088D01*
X178131Y311077D01*
X177985Y310858D01*
X177931Y310588D01*
Y310520D01*
X177367D01*
X175088Y312798D01*
Y314605D01*
X175011Y314995D01*
X174935Y315108D01*
Y318250D01*
X174858Y318640D01*
X174637Y318971D01*
X174357Y319250D01*
X172719D01*
Y318005D01*
X172896Y317827D01*
Y314758D01*
X172974Y314368D01*
X173049Y314255D01*
Y312376D01*
X173127Y311986D01*
X173348Y311655D01*
X176224Y308779D01*
X176555Y308558D01*
X176945Y308480D01*
X177931D01*
Y308412D01*
X177985Y308142D01*
X178131Y307923D01*
X178138Y307911D01*
Y307630D01*
Y307348D01*
X178131Y307337D01*
X177985Y307117D01*
X177931Y306847D01*
Y304672D01*
X177985Y304402D01*
X178138Y304173D01*
X178367Y304020D01*
X178637Y303967D01*
X182977D01*
X183247Y304020D01*
X183476Y304173D01*
X183629Y304402D01*
X183683Y304672D01*
Y304740D01*
X185016D01*
Y303850D01*
X187984D01*
Y304626D01*
X198826D01*
X198871Y304402D01*
X199024Y304173D01*
X199253Y304021D01*
X199523Y303967D01*
X203863D01*
X204133Y304021D01*
X204362Y304173D01*
X204515Y304402D01*
X204569Y304672D01*
Y306847D01*
X204515Y307117D01*
X204369Y307337D01*
X204362Y307348D01*
Y307630D01*
Y307911D01*
X204369Y307923D01*
X204515Y308142D01*
X204569Y308412D01*
Y309250D01*
X201693D01*
Y309750D01*
X204569D01*
Y310126D01*
X205069Y310333D01*
X206283Y309118D01*
X206283Y309118D01*
X209649Y305752D01*
X209980Y305532D01*
X210370Y305454D01*
X210431D01*
Y304672D01*
X210485Y304402D01*
X210638Y304173D01*
X210867Y304021D01*
X211137Y303967D01*
X214741D01*
X218980Y299727D01*
Y265736D01*
X218480Y265528D01*
X212620Y271389D01*
X212629Y271402D01*
X212683Y271672D01*
Y273847D01*
X212629Y274117D01*
X212476Y274346D01*
X212247Y274499D01*
X211977Y274553D01*
X208818D01*
X208666Y274780D01*
X204687Y278759D01*
X204878Y279221D01*
X206931D01*
Y279153D01*
X206985Y278883D01*
X207138Y278654D01*
X207367Y278501D01*
X207637Y278447D01*
X211977D01*
X212247Y278501D01*
X212476Y278654D01*
X212629Y278883D01*
X212683Y279153D01*
Y281328D01*
X212629Y281598D01*
X212476Y281827D01*
X212247Y281980D01*
X211977Y282033D01*
X207637D01*
X207367Y281980D01*
X207138Y281827D01*
X206985Y281598D01*
X206931Y281328D01*
Y281260D01*
X204356D01*
X195002Y290613D01*
X195031Y290758D01*
X194908Y291376D01*
X194558Y291900D01*
X194034Y292250D01*
X193416Y292373D01*
X192798Y292250D01*
X192274Y291900D01*
X191923Y291376D01*
X191800Y290758D01*
X191923Y290140D01*
X192274Y289616D01*
X192798Y289265D01*
X193416Y289143D01*
X193560Y289171D01*
X200199Y282533D01*
X199991Y282033D01*
X196023D01*
X195753Y281980D01*
X195524Y281827D01*
X195371Y281598D01*
X195317Y281328D01*
Y279153D01*
X195371Y278883D01*
X195109Y278456D01*
X194776Y278374D01*
X194674Y278442D01*
X194283Y278520D01*
X194273D01*
X194071Y278721D01*
X193741Y278942D01*
X193351Y279020D01*
X192150D01*
Y279484D01*
X190718D01*
Y278000D01*
Y276516D01*
X192150D01*
Y276980D01*
X192928D01*
X193130Y276779D01*
X193460Y276558D01*
X193851Y276480D01*
X193900D01*
X194114Y276338D01*
X194504Y276260D01*
X195317D01*
Y275412D01*
X194942Y274953D01*
X184484D01*
Y275713D01*
X181516D01*
Y273792D01*
X181503Y273779D01*
X179683D01*
Y273847D01*
X179629Y274117D01*
X179483Y274337D01*
X179476Y274348D01*
Y274630D01*
Y274911D01*
X179483Y274923D01*
X179629Y275142D01*
X179683Y275412D01*
Y276250D01*
X176807D01*
Y276750D01*
X179683D01*
Y277588D01*
X179629Y277858D01*
X179483Y278077D01*
X179476Y278088D01*
Y278370D01*
Y278652D01*
X179483Y278663D01*
X179629Y278883D01*
X179683Y279153D01*
Y279221D01*
X180503D01*
X181516Y278208D01*
Y276287D01*
X184484D01*
Y276287D01*
X184850Y276516D01*
X188213D01*
Y279484D01*
X184850D01*
X184484Y279650D01*
Y279650D01*
X182958D01*
X181646Y280961D01*
X181315Y281182D01*
X180925Y281260D01*
X179683D01*
Y281328D01*
X179629Y281598D01*
X179476Y281827D01*
X179247Y281979D01*
X178977Y282033D01*
X174637D01*
X174367Y281979D01*
X174138Y281827D01*
X173985Y281598D01*
X173931Y281328D01*
Y279153D01*
X173985Y278883D01*
X174131Y278663D01*
X174138Y278652D01*
Y278370D01*
Y278088D01*
X174131Y278077D01*
X174131Y278077D01*
X173728Y277849D01*
X173663Y277830D01*
X173466Y277813D01*
X171857Y279422D01*
Y285828D01*
X171779Y286218D01*
X171558Y286549D01*
X170357Y287750D01*
X168719D01*
Y286505D01*
X169818Y285406D01*
Y279000D01*
X169895Y278610D01*
X170116Y278279D01*
X172616Y275779D01*
X172947Y275558D01*
X173337Y275480D01*
X173931D01*
Y275412D01*
X173985Y275142D01*
X174131Y274923D01*
X174138Y274911D01*
Y274630D01*
Y274348D01*
X174131Y274337D01*
X173985Y274117D01*
X173931Y273847D01*
Y271672D01*
X173985Y271402D01*
X174138Y271173D01*
X174367Y271020D01*
X174637Y270967D01*
X178977D01*
X179247Y271020D01*
X179476Y271173D01*
X179629Y271402D01*
X179683Y271672D01*
Y271740D01*
X181925D01*
X182315Y271818D01*
X182646Y272039D01*
X182958Y272350D01*
X184484D01*
Y272914D01*
X195317D01*
Y271672D01*
X195371Y271402D01*
X195524Y271173D01*
X195753Y271021D01*
X196023Y270967D01*
X200363D01*
X200633Y271021D01*
X200862Y271173D01*
X201015Y271402D01*
X201069Y271672D01*
Y273847D01*
X201015Y274117D01*
X200862Y274346D01*
Y274914D01*
X201015Y275142D01*
X201069Y275412D01*
Y276250D01*
X198193D01*
Y276750D01*
X201069D01*
Y277588D01*
X201015Y277858D01*
X200869Y278077D01*
X200862Y278088D01*
Y278186D01*
X200863Y278234D01*
X200865Y278381D01*
X200955Y278723D01*
X201270Y278941D01*
X201492Y278997D01*
X201276Y278945D01*
X201276Y278945D01*
X201550Y279012D01*
X206925Y273637D01*
Y273539D01*
X206931Y273509D01*
Y271672D01*
X206985Y271402D01*
X207138Y271173D01*
X207367Y271021D01*
X207637Y270967D01*
X210158D01*
X216980Y264145D01*
Y219944D01*
X216480Y219737D01*
X213497Y222721D01*
Y237704D01*
X213629Y237902D01*
X213683Y238172D01*
Y240347D01*
X213629Y240617D01*
X213476Y240846D01*
X213247Y240999D01*
X212977Y241053D01*
X208637D01*
X208367Y240999D01*
X208358Y240993D01*
X208292D01*
X205135Y244151D01*
X205135Y244151D01*
X202604Y246682D01*
X202273Y246903D01*
X202069Y246943D01*
Y247828D01*
X202015Y248098D01*
X201862Y248327D01*
X201633Y248480D01*
X201363Y248533D01*
X200213D01*
Y249071D01*
X200642Y249358D01*
X200992Y249882D01*
X201054Y250191D01*
X201596Y250356D01*
X205933Y246019D01*
X206264Y245798D01*
X206654Y245721D01*
X207931D01*
Y245653D01*
X207985Y245383D01*
X208138Y245154D01*
X208367Y245001D01*
X208637Y244947D01*
X212977D01*
X213247Y245001D01*
X213476Y245154D01*
X213629Y245383D01*
X213683Y245653D01*
Y247828D01*
X213629Y248098D01*
X213476Y248327D01*
X213247Y248480D01*
X212977Y248533D01*
X208637D01*
X208367Y248480D01*
X208138Y248327D01*
X207985Y248098D01*
X207931Y247828D01*
Y247760D01*
X207076D01*
X201045Y253791D01*
X200714Y254012D01*
X200324Y254090D01*
X198810D01*
X198728Y254213D01*
X198204Y254563D01*
X197586Y254686D01*
X196968Y254563D01*
X196444Y254213D01*
X196094Y253689D01*
X195971Y253070D01*
X196094Y252452D01*
X196444Y251928D01*
X196968Y251578D01*
X197586Y251455D01*
X197638Y251466D01*
X197797Y251317D01*
X197989Y251026D01*
X197885Y250500D01*
X198008Y249882D01*
X198173Y249634D01*
Y248533D01*
X197023D01*
X196753Y248480D01*
X196524Y248327D01*
X196371Y248098D01*
X196317Y247828D01*
Y245653D01*
X196371Y245383D01*
X196524Y245154D01*
Y244586D01*
X196371Y244358D01*
X196317Y244088D01*
Y244002D01*
X194818D01*
X194553Y243949D01*
X193950D01*
Y244449D01*
X192519D01*
Y242965D01*
Y241481D01*
X193950D01*
Y241910D01*
X194836D01*
X195101Y241963D01*
X196317D01*
Y241912D01*
X196371Y241642D01*
X196517Y241423D01*
X196524Y241411D01*
Y241130D01*
Y240848D01*
X196517Y240837D01*
X196371Y240617D01*
X196363Y240578D01*
X196266Y240415D01*
X185984D01*
Y241213D01*
X183016D01*
Y240665D01*
X179683D01*
Y240847D01*
X179629Y241117D01*
X179483Y241337D01*
X179476Y241348D01*
Y241630D01*
Y241912D01*
X179483Y241923D01*
X179629Y242142D01*
X179683Y242412D01*
Y243250D01*
X176807D01*
Y243750D01*
X179789D01*
X180145Y243898D01*
X181295Y242748D01*
X181626Y242527D01*
X182016Y242449D01*
X183016D01*
Y241787D01*
X185984D01*
Y242197D01*
X186651D01*
Y241481D01*
X190014D01*
Y244449D01*
X186651D01*
Y244236D01*
X185984D01*
Y245150D01*
X183016D01*
Y244488D01*
X182438D01*
X179745Y247182D01*
X179683Y247223D01*
Y248328D01*
X179629Y248598D01*
X179476Y248827D01*
X179247Y248979D01*
X178977Y249033D01*
X174637D01*
X174367Y248979D01*
X174138Y248827D01*
X173985Y248598D01*
X173931Y248328D01*
Y246153D01*
X173985Y245883D01*
X174138Y245654D01*
Y245087D01*
X173985Y244858D01*
X173931Y244588D01*
Y244020D01*
X171520D01*
Y247850D01*
X171442Y248240D01*
X171221Y248571D01*
X169488Y250304D01*
Y253516D01*
X170150D01*
Y254750D01*
X168468D01*
X166787D01*
Y253516D01*
X167449D01*
Y249882D01*
X167526Y249492D01*
X167481Y249363D01*
X167232Y249033D01*
X165551D01*
Y253516D01*
X166213D01*
Y256484D01*
X162850D01*
Y256020D01*
X122500D01*
X122110Y255942D01*
X121779Y255721D01*
X106849Y240791D01*
X105978Y241152D01*
X105000Y241280D01*
X104022Y241152D01*
X103110Y240774D01*
X102327Y240173D01*
X101726Y239390D01*
X101348Y238478D01*
X101303Y238132D01*
X100803Y238164D01*
Y243629D01*
X101252Y243752D01*
X101303Y243752D01*
X104750D01*
Y247500D01*
Y251248D01*
X101303D01*
X101252Y251248D01*
X100803Y251371D01*
Y267336D01*
X101303Y267368D01*
X101348Y267022D01*
X101726Y266110D01*
X102327Y265327D01*
X103110Y264726D01*
X104022Y264348D01*
X105000Y264220D01*
X105978Y264348D01*
X106890Y264726D01*
X107673Y265327D01*
X108274Y266110D01*
X108652Y267022D01*
X108780Y268000D01*
X108652Y268978D01*
X108291Y269849D01*
X125422Y286980D01*
X162850D01*
Y286516D01*
X163512D01*
Y282033D01*
X163023D01*
X162753Y281979D01*
X162524Y281827D01*
X162371Y281598D01*
X162317Y281328D01*
Y279153D01*
X162371Y278883D01*
X162524Y278654D01*
X162753Y278501D01*
X163023Y278447D01*
X167363D01*
X167633Y278501D01*
X167862Y278654D01*
X168015Y278883D01*
X168069Y279153D01*
Y281328D01*
X168015Y281598D01*
X167862Y281827D01*
X167633Y281979D01*
X167363Y282033D01*
X165551D01*
Y286516D01*
X166213D01*
Y287708D01*
X166713Y287958D01*
X166716Y287955D01*
X166787Y287847D01*
Y286516D01*
X168219D01*
Y288000D01*
Y289691D01*
X167890Y289911D01*
X167500Y289988D01*
X167110Y289911D01*
X166779Y289689D01*
X166685Y289549D01*
X166213Y289484D01*
X166086Y289484D01*
X162850D01*
Y289020D01*
X125000D01*
X124610Y288942D01*
X124279Y288721D01*
X106849Y271291D01*
X105978Y271652D01*
X105000Y271780D01*
X104022Y271652D01*
X103110Y271274D01*
X102327Y270673D01*
X101726Y269890D01*
X101348Y268978D01*
X101303Y268632D01*
X100803Y268664D01*
Y274129D01*
X101252Y274252D01*
X101303Y274252D01*
X104750D01*
Y278000D01*
Y281748D01*
X101303D01*
X101252Y281748D01*
X100803Y281871D01*
Y297836D01*
X101303Y297868D01*
X101348Y297522D01*
X101726Y296610D01*
X102327Y295827D01*
X103110Y295226D01*
X104022Y294848D01*
X105000Y294720D01*
X105978Y294848D01*
X106890Y295226D01*
X107673Y295827D01*
X108274Y296610D01*
X108652Y297522D01*
X108780Y298500D01*
X108652Y299478D01*
X108291Y300349D01*
X116206Y308264D01*
X153784D01*
X154174Y308342D01*
X154505Y308563D01*
X164422Y318480D01*
X166850D01*
Y318016D01*
X167775D01*
Y315033D01*
X167023D01*
X166753Y314980D01*
X166524Y314827D01*
X166371Y314598D01*
X166317Y314328D01*
Y312153D01*
X166371Y311883D01*
X166524Y311654D01*
X166753Y311501D01*
X167023Y311447D01*
X171363D01*
X171633Y311501D01*
X171862Y311654D01*
X172015Y311883D01*
X172069Y312153D01*
Y314328D01*
X172015Y314598D01*
X171862Y314827D01*
X171633Y314980D01*
X171363Y315033D01*
X169814D01*
Y318016D01*
X170213D01*
Y320984D01*
X166850D01*
Y320520D01*
X164000D01*
X163610Y320442D01*
X163279Y320221D01*
X153361Y310303D01*
X115784D01*
X115393Y310226D01*
X115063Y310005D01*
X106849Y301791D01*
X105978Y302152D01*
X105000Y302280D01*
X104022Y302152D01*
X103110Y301774D01*
X102327Y301173D01*
X101726Y300390D01*
X101348Y299478D01*
X101303Y299132D01*
X100803Y299164D01*
Y304629D01*
X101252Y304752D01*
X101303Y304752D01*
X104750D01*
Y308500D01*
Y312248D01*
X101303D01*
X101252Y312248D01*
X100803Y312371D01*
Y349197D01*
X349197D01*
Y100803D01*
D02*
G37*
G36*
X220480Y309578D02*
Y301764D01*
X220019Y301573D01*
X216183Y305409D01*
Y306847D01*
X216129Y307117D01*
X215976Y307346D01*
X215747Y307499D01*
X215477Y307553D01*
X211137D01*
X210867Y307499D01*
X210858Y307493D01*
X210792D01*
X207725Y310560D01*
X207725Y310560D01*
X206898Y311388D01*
X207216Y311776D01*
X207377Y311669D01*
X207996Y311546D01*
X208614Y311669D01*
X209138Y312019D01*
X209246Y312181D01*
X210431D01*
Y312153D01*
X210485Y311883D01*
X210638Y311654D01*
X210867Y311501D01*
X211137Y311447D01*
X215477D01*
X215747Y311501D01*
X215976Y311654D01*
X216129Y311883D01*
X216183Y312153D01*
Y313222D01*
X216645Y313413D01*
X220480Y309578D01*
D02*
G37*
G36*
X590882Y373382D02*
X590882Y274988D01*
X492488Y274988D01*
X492488Y373382D01*
X590882Y373382D01*
D02*
G37*
G36*
X471197D02*
X471197Y274988D01*
X372803Y274988D01*
X372803Y373382D01*
X471197Y373382D01*
D02*
G37*
G36*
X240405Y221078D02*
X240241Y220536D01*
X240134Y220514D01*
X239611Y220165D01*
X239580Y220162D01*
X222520Y237222D01*
Y238310D01*
X222982Y238502D01*
X240405Y221078D01*
D02*
G37*
G36*
X541067Y184909D02*
X467673Y184909D01*
X467673Y253304D01*
X541067Y253304D01*
X541067Y184909D01*
D02*
G37*
G36*
X446382D02*
X372988Y184909D01*
X372988Y253304D01*
X446382Y253304D01*
X446382Y184909D01*
D02*
G37*
G36*
X512273Y159197D02*
X512366Y158697D01*
X511745Y158076D01*
X511259Y157235D01*
X511008Y156297D01*
Y155325D01*
X511259Y154387D01*
X511745Y153546D01*
X512432Y152859D01*
X513273Y152374D01*
X514211Y152122D01*
X515183D01*
X516121Y152374D01*
X516962Y152859D01*
X517649Y153546D01*
X518134Y154387D01*
X518386Y155325D01*
Y156297D01*
X518134Y157235D01*
X517649Y158076D01*
X517028Y158697D01*
X517121Y159197D01*
X540382Y159197D01*
X540382Y100803D01*
X466988Y100803D01*
X466988Y159197D01*
X512273Y159197D01*
D02*
G37*
G36*
X417588D02*
X417681Y158697D01*
X417060Y158076D01*
X416574Y157235D01*
X416323Y156297D01*
Y155325D01*
X416574Y154387D01*
X417060Y153546D01*
X417747Y152859D01*
X418588Y152374D01*
X419526Y152122D01*
X420498D01*
X421436Y152374D01*
X422277Y152859D01*
X422964Y153546D01*
X423449Y154387D01*
X423701Y155325D01*
Y156297D01*
X423449Y157235D01*
X422964Y158076D01*
X422343Y158697D01*
X422436Y159197D01*
X445697Y159197D01*
X445697Y100803D01*
X372303Y100803D01*
X372303Y159197D01*
X417588Y159197D01*
D02*
G37*
%LPC*%
G36*
X237043Y340043D02*
X233250D01*
Y336250D01*
X237043D01*
Y340043D01*
D02*
G37*
G36*
X232750D02*
X228957D01*
Y336250D01*
X232750D01*
Y340043D01*
D02*
G37*
G36*
X296357Y338043D02*
X292564D01*
Y334250D01*
X296357D01*
Y338043D01*
D02*
G37*
G36*
X292064D02*
X288271D01*
Y334250D01*
X292064D01*
Y338043D01*
D02*
G37*
G36*
X237043Y335750D02*
X233250D01*
Y331957D01*
X237043D01*
Y335750D01*
D02*
G37*
G36*
X232750D02*
X228957D01*
Y331957D01*
X232750D01*
Y335750D01*
D02*
G37*
G36*
X223000Y340078D02*
X221944Y339939D01*
X220961Y339532D01*
X220116Y338884D01*
X219468Y338039D01*
X219061Y337055D01*
X218922Y336000D01*
X219061Y334945D01*
X219468Y333961D01*
X220116Y333116D01*
X220961Y332468D01*
X221944Y332061D01*
X223000Y331922D01*
X224056Y332061D01*
X225039Y332468D01*
X225884Y333116D01*
X226532Y333961D01*
X226939Y334945D01*
X227078Y336000D01*
X226939Y337055D01*
X226532Y338039D01*
X225884Y338884D01*
X225039Y339532D01*
X224056Y339939D01*
X223000Y340078D01*
D02*
G37*
G36*
X213000D02*
X211945Y339939D01*
X210961Y339532D01*
X210116Y338884D01*
X209468Y338039D01*
X209061Y337055D01*
X208922Y336000D01*
X209061Y334945D01*
X209468Y333961D01*
X210116Y333116D01*
X210961Y332468D01*
X211945Y332061D01*
X213000Y331922D01*
X214055Y332061D01*
X215039Y332468D01*
X215884Y333116D01*
X216532Y333961D01*
X216939Y334945D01*
X217078Y336000D01*
X216939Y337055D01*
X216532Y338039D01*
X215884Y338884D01*
X215039Y339532D01*
X214055Y339939D01*
X213000Y340078D01*
D02*
G37*
G36*
X203000D02*
X201944Y339939D01*
X200961Y339532D01*
X200116Y338884D01*
X199468Y338039D01*
X199061Y337055D01*
X198922Y336000D01*
X199061Y334945D01*
X199468Y333961D01*
X200116Y333116D01*
X200961Y332468D01*
X201944Y332061D01*
X203000Y331922D01*
X204056Y332061D01*
X205039Y332468D01*
X205884Y333116D01*
X206532Y333961D01*
X206939Y334945D01*
X207078Y336000D01*
X206939Y337055D01*
X206532Y338039D01*
X205884Y338884D01*
X205039Y339532D01*
X204056Y339939D01*
X203000Y340078D01*
D02*
G37*
G36*
X296357Y333750D02*
X292564D01*
Y329957D01*
X296357D01*
Y333750D01*
D02*
G37*
G36*
X292064D02*
X288271D01*
Y329957D01*
X292064D01*
Y333750D01*
D02*
G37*
G36*
X282314Y338078D02*
X281259Y337939D01*
X280275Y337532D01*
X279430Y336884D01*
X278782Y336039D01*
X278375Y335055D01*
X278236Y334000D01*
X278375Y332944D01*
X278782Y331961D01*
X279430Y331116D01*
X280275Y330468D01*
X281259Y330061D01*
X282314Y329922D01*
X283369Y330061D01*
X284353Y330468D01*
X285198Y331116D01*
X285846Y331961D01*
X286253Y332944D01*
X286392Y334000D01*
X286253Y335055D01*
X285846Y336039D01*
X285198Y336884D01*
X284353Y337532D01*
X283369Y337939D01*
X282314Y338078D01*
D02*
G37*
G36*
X262314D02*
X261259Y337939D01*
X260275Y337532D01*
X259430Y336884D01*
X258782Y336039D01*
X258375Y335055D01*
X258236Y334000D01*
X258375Y332944D01*
X258782Y331961D01*
X259430Y331116D01*
X260275Y330468D01*
X261259Y330061D01*
X262314Y329922D01*
X263369Y330061D01*
X264353Y330468D01*
X265198Y331116D01*
X265846Y331961D01*
X266253Y332944D01*
X266392Y334000D01*
X266253Y335055D01*
X265846Y336039D01*
X265198Y336884D01*
X264353Y337532D01*
X263369Y337939D01*
X262314Y338078D01*
D02*
G37*
G36*
X331000Y337616D02*
X329709Y337489D01*
X328468Y337112D01*
X327324Y336501D01*
X326322Y335678D01*
X325499Y334676D01*
X324887Y333532D01*
X324511Y332291D01*
X324384Y331000D01*
X324511Y329709D01*
X324887Y328468D01*
X325499Y327324D01*
X326322Y326322D01*
X327324Y325499D01*
X328468Y324887D01*
X329709Y324511D01*
X331000Y324384D01*
X332291Y324511D01*
X333532Y324887D01*
X334676Y325499D01*
X335678Y326322D01*
X336501Y327324D01*
X337112Y328468D01*
X337489Y329709D01*
X337616Y331000D01*
X337489Y332291D01*
X337112Y333532D01*
X336501Y334676D01*
X335678Y335678D01*
X334676Y336501D01*
X333532Y337112D01*
X332291Y337489D01*
X331000Y337616D01*
D02*
G37*
G36*
X119000D02*
X117709Y337489D01*
X116468Y337112D01*
X115324Y336501D01*
X114322Y335678D01*
X113499Y334676D01*
X112888Y333532D01*
X112511Y332291D01*
X112384Y331000D01*
X112511Y329709D01*
X112888Y328468D01*
X113499Y327324D01*
X114322Y326322D01*
X115324Y325499D01*
X116468Y324887D01*
X117709Y324511D01*
X119000Y324384D01*
X120291Y324511D01*
X121532Y324887D01*
X122676Y325499D01*
X123678Y326322D01*
X124501Y327324D01*
X125112Y328468D01*
X125489Y329709D01*
X125616Y331000D01*
X125489Y332291D01*
X125112Y333532D01*
X124501Y334676D01*
X123678Y335678D01*
X122676Y336501D01*
X121532Y337112D01*
X120291Y337489D01*
X119000Y337616D01*
D02*
G37*
G36*
X174150Y320984D02*
X172719D01*
Y319750D01*
X174150D01*
Y320984D01*
D02*
G37*
G36*
X172219D02*
X170787D01*
Y319750D01*
X172219D01*
Y320984D01*
D02*
G37*
G36*
Y319250D02*
X170787D01*
Y318016D01*
X172219D01*
Y319250D01*
D02*
G37*
G36*
X272314Y338078D02*
X271258Y337939D01*
X270275Y337532D01*
X269430Y336884D01*
X268782Y336039D01*
X268375Y335055D01*
X268236Y334000D01*
X268375Y332944D01*
X268782Y331961D01*
X269430Y331116D01*
X270275Y330468D01*
X270634Y330320D01*
Y315326D01*
X270358Y315142D01*
X270008Y314618D01*
X269885Y314000D01*
X270008Y313382D01*
X270358Y312858D01*
X270882Y312508D01*
X271500Y312385D01*
X272118Y312508D01*
X272642Y312858D01*
X272992Y313382D01*
X273115Y314000D01*
X272992Y314618D01*
X272673Y315097D01*
Y329969D01*
X273370Y330061D01*
X274353Y330468D01*
X275198Y331116D01*
X275846Y331961D01*
X276253Y332944D01*
X276392Y334000D01*
X276253Y335055D01*
X275846Y336039D01*
X275198Y336884D01*
X274353Y337532D01*
X273370Y337939D01*
X272314Y338078D01*
D02*
G37*
G36*
X194250Y310984D02*
X192819D01*
Y309750D01*
X194250D01*
Y310984D01*
D02*
G37*
G36*
X105250Y312248D02*
Y308750D01*
X108748D01*
Y312248D01*
X105250D01*
D02*
G37*
G36*
X194250Y309250D02*
X192819D01*
Y308016D01*
X194250D01*
Y309250D01*
D02*
G37*
G36*
X108748Y308250D02*
X105250D01*
Y304752D01*
X108748D01*
Y308250D01*
D02*
G37*
G36*
X171363Y307553D02*
X167023D01*
X166753Y307499D01*
X166524Y307346D01*
X166371Y307117D01*
X166317Y306847D01*
Y304672D01*
X166371Y304402D01*
X166524Y304173D01*
X166753Y304020D01*
X167023Y303967D01*
X170627D01*
X171161Y303432D01*
X171492Y303211D01*
X171882Y303134D01*
X172095D01*
X172279Y302858D01*
X172803Y302508D01*
X173422Y302385D01*
X174040Y302508D01*
X174564Y302858D01*
X174914Y303382D01*
X175037Y304000D01*
X174914Y304618D01*
X174564Y305142D01*
X174040Y305492D01*
X173422Y305615D01*
X172803Y305492D01*
X172527Y305308D01*
X172069Y305603D01*
Y306847D01*
X172015Y307117D01*
X171862Y307346D01*
X171633Y307499D01*
X171363Y307553D01*
D02*
G37*
G36*
X344453Y308953D02*
X337547D01*
Y302047D01*
X344453D01*
Y308953D01*
D02*
G37*
G36*
X341000Y298983D02*
X340099Y298864D01*
X339259Y298516D01*
X338538Y297962D01*
X337984Y297241D01*
X337636Y296401D01*
X337517Y295500D01*
X337636Y294599D01*
X337984Y293759D01*
X338538Y293038D01*
X339259Y292484D01*
X340099Y292136D01*
X341000Y292018D01*
X341901Y292136D01*
X342741Y292484D01*
X343462Y293038D01*
X344016Y293759D01*
X344364Y294599D01*
X344482Y295500D01*
X344364Y296401D01*
X344016Y297241D01*
X343462Y297962D01*
X342741Y298516D01*
X341901Y298864D01*
X341000Y298983D01*
D02*
G37*
G36*
X170150Y289484D02*
X168719D01*
Y288250D01*
X170150D01*
Y289484D01*
D02*
G37*
G36*
X341250Y288950D02*
Y285750D01*
X344450D01*
X344364Y286401D01*
X344016Y287241D01*
X343462Y287963D01*
X342741Y288516D01*
X341901Y288864D01*
X341250Y288950D01*
D02*
G37*
G36*
X340750D02*
X340099Y288864D01*
X339259Y288516D01*
X338538Y287963D01*
X337984Y287241D01*
X337636Y286401D01*
X337550Y285750D01*
X340750D01*
Y288950D01*
D02*
G37*
G36*
X344450Y285250D02*
X341250D01*
Y282050D01*
X341901Y282136D01*
X342741Y282484D01*
X343462Y283037D01*
X344016Y283759D01*
X344364Y284599D01*
X344450Y285250D01*
D02*
G37*
G36*
X340750D02*
X337550D01*
X337636Y284599D01*
X337984Y283759D01*
X338538Y283037D01*
X339259Y282484D01*
X340099Y282136D01*
X340750Y282050D01*
Y285250D01*
D02*
G37*
G36*
X105250Y281748D02*
Y278250D01*
X108748D01*
Y281748D01*
X105250D01*
D02*
G37*
G36*
X190218Y279484D02*
X188787D01*
Y278250D01*
X190218D01*
Y279484D01*
D02*
G37*
G36*
Y277750D02*
X188787D01*
Y276516D01*
X190218D01*
Y277750D01*
D02*
G37*
G36*
X108748D02*
X105250D01*
Y274252D01*
X108748D01*
Y277750D01*
D02*
G37*
G36*
X341000Y278982D02*
X340099Y278864D01*
X339259Y278516D01*
X338538Y277962D01*
X337984Y277241D01*
X337636Y276401D01*
X337517Y275500D01*
X337636Y274599D01*
X337984Y273759D01*
X338538Y273038D01*
X339259Y272484D01*
X340099Y272136D01*
X341000Y272018D01*
X341901Y272136D01*
X342741Y272484D01*
X343462Y273038D01*
X344016Y273759D01*
X344364Y274599D01*
X344482Y275500D01*
X344364Y276401D01*
X344016Y277241D01*
X343462Y277962D01*
X342741Y278516D01*
X341901Y278864D01*
X341000Y278982D01*
D02*
G37*
G36*
X273250Y267150D02*
X272016D01*
Y265719D01*
X273250D01*
Y267150D01*
D02*
G37*
G36*
X167363Y274553D02*
X163023D01*
X162753Y274499D01*
X162524Y274346D01*
X162371Y274117D01*
X162317Y273847D01*
Y271672D01*
X162371Y271402D01*
X162524Y271173D01*
X162753Y271020D01*
X163023Y270967D01*
X166627D01*
X168827Y268766D01*
Y268097D01*
X168508Y267618D01*
X168385Y267000D01*
X168508Y266382D01*
X168858Y265858D01*
X169382Y265508D01*
X170000Y265385D01*
X170618Y265508D01*
X171142Y265858D01*
X171492Y266382D01*
X171615Y267000D01*
X171492Y267618D01*
X171142Y268142D01*
X170867Y268326D01*
Y269188D01*
X170789Y269579D01*
X170568Y269910D01*
X168069Y272409D01*
Y273847D01*
X168015Y274117D01*
X167862Y274346D01*
X167633Y274499D01*
X167363Y274553D01*
D02*
G37*
G36*
X324000Y269083D02*
X323610Y269005D01*
X323279Y268784D01*
X323058Y268453D01*
X322980Y268063D01*
Y266693D01*
X320547D01*
Y263687D01*
X327453D01*
Y266693D01*
X325020D01*
Y268063D01*
X324942Y268453D01*
X324721Y268784D01*
X324390Y269005D01*
X324000Y269083D01*
D02*
G37*
G36*
X341000Y268983D02*
X340099Y268864D01*
X339259Y268516D01*
X338538Y267963D01*
X337984Y267241D01*
X337636Y266401D01*
X337517Y265500D01*
X337636Y264599D01*
X337984Y263759D01*
X338538Y263037D01*
X339259Y262484D01*
X340099Y262136D01*
X341000Y262017D01*
X341901Y262136D01*
X342741Y262484D01*
X343462Y263037D01*
X344016Y263759D01*
X344364Y264599D01*
X344482Y265500D01*
X344364Y266401D01*
X344016Y267241D01*
X343462Y267963D01*
X342741Y268516D01*
X341901Y268864D01*
X341000Y268983D01*
D02*
G37*
G36*
X327453Y263187D02*
X324250D01*
Y260181D01*
X327453D01*
Y263187D01*
D02*
G37*
G36*
X323750D02*
X320547D01*
Y260181D01*
X323750D01*
Y263187D01*
D02*
G37*
G36*
X170150Y256484D02*
X168719D01*
Y255250D01*
X170150D01*
Y256484D01*
D02*
G37*
G36*
X168219D02*
X166787D01*
Y255250D01*
X168219D01*
Y256484D01*
D02*
G37*
G36*
X247272Y254319D02*
X245250D01*
Y252494D01*
X247272D01*
Y254319D01*
D02*
G37*
G36*
X244750D02*
X242728D01*
Y252494D01*
X244750D01*
Y254319D01*
D02*
G37*
G36*
X105250Y251248D02*
Y247750D01*
X108748D01*
Y251248D01*
X105250D01*
D02*
G37*
G36*
X247272Y251994D02*
X245000D01*
X242728D01*
Y250169D01*
X243980D01*
Y248500D01*
X244058Y248110D01*
X244279Y247779D01*
X244610Y247558D01*
X245000Y247480D01*
X245390Y247558D01*
X245721Y247779D01*
X245942Y248110D01*
X246020Y248500D01*
Y250169D01*
X247272D01*
Y251994D01*
D02*
G37*
G36*
X108748Y247250D02*
X105250D01*
Y243752D01*
X108748D01*
Y247250D01*
D02*
G37*
G36*
X192019Y244449D02*
X190588D01*
Y243215D01*
X192019D01*
Y244449D01*
D02*
G37*
G36*
Y242715D02*
X190588D01*
Y241481D01*
X192019D01*
Y242715D01*
D02*
G37*
G36*
X256272Y234831D02*
X251728D01*
Y234020D01*
X250150D01*
Y234484D01*
X246787D01*
Y231516D01*
X250150D01*
Y231980D01*
X251728D01*
Y230681D01*
X256272D01*
Y231736D01*
X257669D01*
Y230228D01*
X261819D01*
Y234772D01*
X257669D01*
Y233775D01*
X256272D01*
Y234831D01*
D02*
G37*
G36*
X268000Y236520D02*
X267610Y236442D01*
X267279Y236221D01*
X267160Y236043D01*
X265889Y234772D01*
X265506D01*
Y232750D01*
X267331D01*
Y233330D01*
X268721Y234720D01*
X268942Y235051D01*
X269020Y235441D01*
Y235500D01*
X268942Y235890D01*
X268721Y236221D01*
X268390Y236442D01*
X268000Y236520D01*
D02*
G37*
G36*
X265006Y234772D02*
X263181D01*
Y232750D01*
X265006D01*
Y234772D01*
D02*
G37*
G36*
X167363Y241553D02*
X163023D01*
X162753Y241499D01*
X162524Y241346D01*
X162371Y241117D01*
X162317Y240847D01*
Y238672D01*
X162371Y238402D01*
X162524Y238173D01*
X162753Y238020D01*
X163023Y237967D01*
X166627D01*
X172133Y232460D01*
X172201Y232122D01*
X172551Y231598D01*
X173075Y231248D01*
X173693Y231125D01*
X174311Y231248D01*
X174835Y231598D01*
X175185Y232122D01*
X175308Y232740D01*
X175185Y233358D01*
X174835Y233882D01*
X174311Y234232D01*
X173693Y234355D01*
X173217Y234261D01*
X168069Y239409D01*
Y240847D01*
X168015Y241117D01*
X167862Y241346D01*
X167633Y241499D01*
X167363Y241553D01*
D02*
G37*
G36*
X265006Y232250D02*
X263181D01*
Y230228D01*
X265006D01*
Y232250D01*
D02*
G37*
G36*
X306000Y239615D02*
X305382Y239492D01*
X304858Y239142D01*
X304508Y238618D01*
X304385Y238000D01*
X304497Y237435D01*
X299497Y232435D01*
X295508D01*
X295234Y232381D01*
X295003Y232226D01*
X294848Y231994D01*
X294793Y231720D01*
Y229760D01*
X294848Y229486D01*
X295003Y229255D01*
X295234Y229100D01*
X295508Y229045D01*
X300224D01*
X300498Y229100D01*
X300730Y229255D01*
X300885Y229486D01*
X300939Y229760D01*
Y230993D01*
X306413Y236467D01*
X306618Y236508D01*
X307142Y236858D01*
X307492Y237382D01*
X307615Y238000D01*
X307492Y238618D01*
X307142Y239142D01*
X306618Y239492D01*
X306000Y239615D01*
D02*
G37*
G36*
X308492Y228695D02*
X306384D01*
Y227250D01*
X309207D01*
Y227980D01*
X309152Y228254D01*
X308997Y228486D01*
X308766Y228640D01*
X308492Y228695D01*
D02*
G37*
G36*
X305884D02*
X303776D01*
X303502Y228640D01*
X303270Y228486D01*
X303116Y228254D01*
X303061Y227980D01*
Y227250D01*
X305884D01*
Y228695D01*
D02*
G37*
G36*
Y226750D02*
X303061D01*
Y226020D01*
X303116Y225746D01*
X303270Y225514D01*
X303502Y225360D01*
X303776Y225305D01*
X305884D01*
Y226750D01*
D02*
G37*
G36*
X169315Y224984D02*
X167884D01*
Y223750D01*
X169315D01*
Y224984D01*
D02*
G37*
G36*
X167384D02*
X165953D01*
Y223750D01*
X167384D01*
Y224984D01*
D02*
G37*
G36*
X330250Y226625D02*
Y223624D01*
X333251D01*
X333172Y224224D01*
X332844Y225016D01*
X332322Y225696D01*
X331642Y226218D01*
X330850Y226546D01*
X330250Y226625D01*
D02*
G37*
G36*
X329750D02*
X329150Y226546D01*
X328358Y226218D01*
X327678Y225696D01*
X327156Y225016D01*
X326828Y224224D01*
X326749Y223624D01*
X329750D01*
Y226625D01*
D02*
G37*
G36*
X309207Y226750D02*
X306384D01*
Y225305D01*
X306480D01*
Y224500D01*
X306558Y224110D01*
X306779Y223779D01*
X307110Y223558D01*
X307500Y223480D01*
X307890Y223558D01*
X308221Y223779D01*
X308442Y224110D01*
X308520Y224500D01*
Y225311D01*
X308766Y225360D01*
X308997Y225514D01*
X309152Y225746D01*
X309207Y226020D01*
Y226750D01*
D02*
G37*
G36*
X167384Y223250D02*
X165953D01*
Y222016D01*
X167384D01*
Y223250D01*
D02*
G37*
G36*
X333251Y223124D02*
X330250D01*
Y220123D01*
X330850Y220202D01*
X331642Y220530D01*
X332322Y221052D01*
X332844Y221732D01*
X333172Y222524D01*
X333251Y223124D01*
D02*
G37*
G36*
X329750D02*
X326749D01*
X326828Y222524D01*
X327156Y221732D01*
X327678Y221052D01*
X328358Y220530D01*
X329150Y220202D01*
X329750Y220123D01*
Y223124D01*
D02*
G37*
G36*
X105250Y219248D02*
Y215750D01*
X108748D01*
Y219248D01*
X105250D01*
D02*
G37*
G36*
X300224Y224955D02*
X295508D01*
X295234Y224900D01*
X295003Y224745D01*
X294848Y224514D01*
X294793Y224240D01*
Y222280D01*
X294848Y222006D01*
X295003Y221774D01*
X295234Y221619D01*
X295508Y221565D01*
X296501D01*
X296693Y221103D01*
X292739Y217150D01*
X291016D01*
Y213787D01*
X293984D01*
Y215511D01*
X298917Y220444D01*
X299138Y220774D01*
X299216Y221164D01*
Y221565D01*
X300224D01*
X300498Y221619D01*
X300730Y221774D01*
X300885Y222006D01*
X300939Y222280D01*
Y224240D01*
X300885Y224514D01*
X300730Y224745D01*
X300498Y224900D01*
X300224Y224955D01*
D02*
G37*
G36*
X181500Y224115D02*
X180882Y223992D01*
X180358Y223642D01*
X180008Y223118D01*
X179885Y222500D01*
X180008Y221882D01*
X180358Y221358D01*
X180882Y221008D01*
X181500Y220885D01*
X182118Y221008D01*
X182642Y221358D01*
X182724Y221480D01*
X200042D01*
X206931Y214591D01*
Y213153D01*
X206985Y212883D01*
X207138Y212654D01*
X207367Y212501D01*
X207637Y212447D01*
X211977D01*
X212247Y212501D01*
X212476Y212654D01*
X212629Y212883D01*
X212683Y213153D01*
Y215328D01*
X212629Y215598D01*
X212476Y215827D01*
X212247Y215980D01*
X211977Y216033D01*
X208373D01*
X201185Y223221D01*
X200855Y223442D01*
X200465Y223520D01*
X182724D01*
X182642Y223642D01*
X182118Y223992D01*
X181500Y224115D01*
D02*
G37*
G36*
X303506Y214272D02*
X301681D01*
Y212250D01*
X303506D01*
Y214272D01*
D02*
G37*
G36*
X108748Y215250D02*
X105250D01*
Y211752D01*
X108748D01*
Y215250D01*
D02*
G37*
G36*
X192218Y211250D02*
X190787D01*
Y210016D01*
X192218D01*
Y211250D01*
D02*
G37*
G36*
X305831Y214272D02*
X304006D01*
Y212000D01*
Y209728D01*
X305831D01*
Y210980D01*
X306756D01*
X307146Y211058D01*
X307477Y211279D01*
X307698Y211610D01*
X307775Y212000D01*
X307698Y212390D01*
X307477Y212721D01*
X307146Y212942D01*
X306756Y213020D01*
X305831D01*
Y214272D01*
D02*
G37*
G36*
X303506Y211750D02*
X301681D01*
Y209728D01*
X303506D01*
Y211750D01*
D02*
G37*
G36*
X330000Y218784D02*
X329150Y218672D01*
X328358Y218344D01*
X327678Y217822D01*
X327156Y217142D01*
X326828Y216350D01*
X326716Y215500D01*
X326828Y214650D01*
X327156Y213858D01*
X327678Y213178D01*
X328023Y212913D01*
X328071Y212255D01*
X327067Y211250D01*
X326846Y210919D01*
X326813Y210755D01*
X322026Y205968D01*
X281246D01*
X281165Y206090D01*
X280965Y206223D01*
Y206695D01*
X281360Y207079D01*
X284275D01*
X284382Y207008D01*
X285000Y206885D01*
X285618Y207008D01*
X286142Y207358D01*
X286492Y207882D01*
X286615Y208500D01*
X286492Y209118D01*
X286142Y209642D01*
X286013Y209729D01*
X286165Y210228D01*
X291016D01*
Y209850D01*
X293984D01*
Y210512D01*
X296169D01*
Y209728D01*
X300319D01*
Y214272D01*
X296169D01*
Y212551D01*
X293984D01*
Y213213D01*
X291016D01*
Y212268D01*
X281246D01*
X281165Y212389D01*
X280641Y212739D01*
X280024Y212862D01*
X277071D01*
X276453Y212739D01*
X275930Y212389D01*
X275580Y211866D01*
X275457Y211248D01*
X275580Y210630D01*
X275930Y210107D01*
X276129Y209974D01*
Y209373D01*
X275930Y209240D01*
X275580Y208716D01*
X275457Y208098D01*
X275580Y207481D01*
X275930Y206957D01*
X276129Y206824D01*
Y206223D01*
X275930Y206090D01*
X275580Y205566D01*
X275457Y204949D01*
X275580Y204331D01*
X275930Y203808D01*
X276129Y203675D01*
Y203073D01*
X275930Y202940D01*
X275580Y202417D01*
X275457Y201799D01*
X275580Y201182D01*
X275930Y200658D01*
X276129Y200525D01*
Y199924D01*
X275930Y199791D01*
X275580Y199267D01*
X275457Y198650D01*
X275580Y198032D01*
X275930Y197509D01*
X276129Y197376D01*
Y196774D01*
X275930Y196641D01*
X275580Y196117D01*
X275507Y195750D01*
X278547D01*
Y195250D01*
X275507D01*
X275580Y194883D01*
X275930Y194359D01*
X276129Y194226D01*
Y193624D01*
X275930Y193491D01*
X275580Y192968D01*
X275457Y192350D01*
X275580Y191733D01*
X275930Y191209D01*
X276129Y191076D01*
Y190475D01*
X275930Y190342D01*
X275580Y189818D01*
X275457Y189201D01*
X275580Y188583D01*
X275930Y188060D01*
X276129Y187927D01*
Y187325D01*
X275930Y187192D01*
X275580Y186669D01*
X275457Y186051D01*
X275580Y185434D01*
X275930Y184910D01*
X276129Y184777D01*
Y184176D01*
X275930Y184043D01*
X275580Y183519D01*
X275457Y182902D01*
X275580Y182284D01*
X275930Y181761D01*
X276129Y181627D01*
Y181026D01*
X275930Y180893D01*
X275580Y180369D01*
X275457Y179752D01*
X275580Y179134D01*
X275930Y178611D01*
X276453Y178261D01*
X277071Y178138D01*
X277528D01*
Y163348D01*
X273730Y159550D01*
X273268Y159741D01*
Y170754D01*
X273389Y170835D01*
X273739Y171359D01*
X273862Y171976D01*
Y174929D01*
X273739Y175547D01*
X273389Y176070D01*
X272866Y176420D01*
X272248Y176543D01*
X271631Y176420D01*
X271107Y176070D01*
X270974Y175871D01*
X270373D01*
X270239Y176070D01*
X269716Y176420D01*
X269098Y176543D01*
X268481Y176420D01*
X267957Y176070D01*
X267824Y175871D01*
X267223D01*
X267090Y176070D01*
X266566Y176420D01*
X265949Y176543D01*
X265331Y176420D01*
X264808Y176070D01*
X264675Y175871D01*
X264073D01*
X263940Y176070D01*
X263417Y176420D01*
X262799Y176543D01*
X262182Y176420D01*
X261658Y176070D01*
X261525Y175871D01*
X260924D01*
X260791Y176070D01*
X260267Y176420D01*
X259650Y176543D01*
X259032Y176420D01*
X258509Y176070D01*
X258376Y175871D01*
X257774D01*
X257641Y176070D01*
X257118Y176420D01*
X256500Y176543D01*
X255883Y176420D01*
X255359Y176070D01*
X255226Y175871D01*
X254625D01*
X254491Y176070D01*
X253968Y176420D01*
X253350Y176543D01*
X252733Y176420D01*
X252209Y176070D01*
X252076Y175871D01*
X251475D01*
X251342Y176070D01*
X250818Y176420D01*
X250201Y176543D01*
X249583Y176420D01*
X249060Y176070D01*
X248927Y175871D01*
X248325D01*
X248192Y176070D01*
X247669Y176420D01*
X247051Y176543D01*
X246434Y176420D01*
X245910Y176070D01*
X245777Y175871D01*
X245176D01*
X245043Y176070D01*
X244519Y176420D01*
X243902Y176543D01*
X243284Y176420D01*
X242760Y176070D01*
X242627Y175871D01*
X242026D01*
X241893Y176070D01*
X241370Y176420D01*
X240752Y176543D01*
X240134Y176420D01*
X239611Y176070D01*
X239261Y175547D01*
X239138Y174929D01*
Y171976D01*
X239261Y171359D01*
X239611Y170835D01*
X240134Y170485D01*
X240752Y170363D01*
X241370Y170485D01*
X241893Y170835D01*
X242026Y171035D01*
X242627D01*
X242760Y170835D01*
X243284Y170485D01*
X243902Y170363D01*
X244519Y170485D01*
X245043Y170835D01*
X245176Y171035D01*
X245777D01*
X245910Y170835D01*
X246434Y170485D01*
X247051Y170363D01*
X247669Y170485D01*
X248192Y170835D01*
X248325Y171035D01*
X248797D01*
X249181Y170640D01*
Y161352D01*
X247344D01*
Y154447D01*
X253856D01*
Y161352D01*
X251220D01*
Y170754D01*
X251342Y170835D01*
X251475Y171035D01*
X252076D01*
X252209Y170835D01*
X252733Y170485D01*
X253350Y170363D01*
X253968Y170485D01*
X254491Y170835D01*
X254625Y171035D01*
X255226D01*
X255359Y170835D01*
X255883Y170485D01*
X256500Y170363D01*
X257118Y170485D01*
X257641Y170835D01*
X257774Y171035D01*
X258376D01*
X258509Y170835D01*
X259032Y170485D01*
X259650Y170363D01*
X260267Y170485D01*
X260791Y170835D01*
X260924Y171035D01*
X261525D01*
X261658Y170835D01*
X262182Y170485D01*
X262799Y170363D01*
X263417Y170485D01*
X263940Y170835D01*
X264073Y171035D01*
X264675D01*
X264808Y170835D01*
X265331Y170485D01*
X265949Y170363D01*
X266566Y170485D01*
X267090Y170835D01*
X267223Y171035D01*
X267824D01*
X267957Y170835D01*
X268481Y170485D01*
X269098Y170363D01*
X269716Y170485D01*
X270239Y170835D01*
X270373Y171035D01*
X270845D01*
X271228Y170640D01*
Y159170D01*
X263078Y151020D01*
X148765D01*
X128568Y171216D01*
X128641Y171390D01*
X128787Y172500D01*
X128641Y173609D01*
X128212Y174643D01*
X127531Y175531D01*
X126643Y176212D01*
X125610Y176641D01*
X124500Y176787D01*
X123390Y176641D01*
X122357Y176212D01*
X121469Y175531D01*
X120788Y174643D01*
X120359Y173609D01*
X120213Y172500D01*
X120359Y171390D01*
X120788Y170357D01*
X121469Y169469D01*
X122357Y168788D01*
X123390Y168359D01*
X124500Y168213D01*
X125610Y168359D01*
X126643Y168788D01*
X127475Y169426D01*
X146920Y149981D01*
X146728Y149520D01*
X140422D01*
X128614Y161327D01*
X128641Y161390D01*
X128787Y162500D01*
X128641Y163610D01*
X128212Y164643D01*
X127531Y165531D01*
X126643Y166212D01*
X125610Y166641D01*
X124500Y166787D01*
X123390Y166641D01*
X122357Y166212D01*
X121469Y165531D01*
X120788Y164643D01*
X120359Y163610D01*
X120213Y162500D01*
X120359Y161390D01*
X120788Y160357D01*
X121469Y159469D01*
X122357Y158788D01*
X123390Y158359D01*
X124500Y158213D01*
X125610Y158359D01*
X126643Y158788D01*
X127531Y159469D01*
X127586Y159472D01*
X139279Y147779D01*
X139610Y147558D01*
X140000Y147480D01*
X264121D01*
X264511Y147558D01*
X264842Y147779D01*
X279268Y162205D01*
X279489Y162536D01*
X279567Y162926D01*
Y178138D01*
X280024D01*
X280641Y178261D01*
X281165Y178611D01*
X281515Y179134D01*
X281637Y179752D01*
X281515Y180369D01*
X281165Y180893D01*
X280965Y181026D01*
Y181627D01*
X281165Y181761D01*
X281515Y182284D01*
X281536Y182390D01*
X282078Y182555D01*
X283106Y181527D01*
X283077Y181383D01*
X283200Y180764D01*
X283550Y180240D01*
X283672Y180159D01*
Y176308D01*
X283750Y175918D01*
X283971Y175587D01*
X289224Y170334D01*
X289555Y170113D01*
X289945Y170036D01*
X291858D01*
Y168791D01*
X294766D01*
Y170423D01*
X295266D01*
Y168791D01*
X296734D01*
Y170423D01*
X297234D01*
Y168791D01*
X300142D01*
Y170830D01*
X300604Y171021D01*
X304379Y167246D01*
X300924Y163791D01*
X300331D01*
X300232Y163772D01*
X297181D01*
Y159228D01*
X301331D01*
Y161752D01*
X301346D01*
X301737Y161830D01*
X302067Y162051D01*
X306508Y166492D01*
X309721Y169704D01*
X309942Y170035D01*
X310020Y170425D01*
Y178557D01*
X314577D01*
X314967Y178635D01*
X315298Y178856D01*
X321855Y185414D01*
X322000Y185385D01*
X322618Y185508D01*
X323142Y185858D01*
X323492Y186382D01*
X323615Y187000D01*
X323492Y187618D01*
X323142Y188142D01*
X322776Y188387D01*
X312772Y198391D01*
Y198831D01*
X312223D01*
X312056Y198942D01*
X311957Y198962D01*
X311581Y199337D01*
X311085Y199669D01*
X310500Y199785D01*
X309915Y199669D01*
X309419Y199337D01*
X309377Y199276D01*
X304272D01*
Y200331D01*
X302356D01*
X302307Y200831D01*
X302440Y200857D01*
X302771Y201078D01*
X303054Y201361D01*
X323697D01*
X324480Y200578D01*
Y165500D01*
X324558Y165110D01*
X324779Y164779D01*
X327279Y162279D01*
X327610Y162058D01*
X327889Y162003D01*
X328156Y161358D01*
X328678Y160678D01*
X329358Y160156D01*
X330150Y159828D01*
X331000Y159716D01*
X331850Y159828D01*
X332642Y160156D01*
X333322Y160678D01*
X333844Y161358D01*
X334172Y162150D01*
X334284Y163000D01*
X334172Y163850D01*
X333844Y164642D01*
X333322Y165322D01*
X332642Y165844D01*
X331850Y166172D01*
X331000Y166284D01*
X330150Y166172D01*
X329358Y165844D01*
X328678Y165322D01*
X328308Y164841D01*
X327703Y164738D01*
X326520Y165922D01*
Y201000D01*
X326442Y201390D01*
X326221Y201721D01*
X324840Y203102D01*
X324509Y203323D01*
X324119Y203400D01*
X302631D01*
X302241Y203323D01*
X301910Y203102D01*
X301627Y202819D01*
X281246D01*
X281165Y202940D01*
X280965Y203073D01*
Y203545D01*
X281360Y203929D01*
X322449D01*
X322839Y204007D01*
X323170Y204228D01*
X328509Y209567D01*
X328730Y209897D01*
X328762Y210062D01*
X330221Y211520D01*
X330442Y211851D01*
X330520Y212241D01*
Y212284D01*
X330850Y212328D01*
X331642Y212656D01*
X332322Y213178D01*
X332844Y213858D01*
X333172Y214650D01*
X333284Y215500D01*
X333172Y216350D01*
X332844Y217142D01*
X332322Y217822D01*
X331642Y218344D01*
X330850Y218672D01*
X330000Y218784D01*
D02*
G37*
G36*
X167363Y209553D02*
X163023D01*
X162753Y209499D01*
X162524Y209346D01*
X162371Y209117D01*
X162317Y208847D01*
Y206672D01*
X162371Y206402D01*
X162524Y206173D01*
X162753Y206020D01*
X163023Y205967D01*
X164980D01*
Y202224D01*
X164858Y202142D01*
X164508Y201618D01*
X164385Y201000D01*
X164508Y200382D01*
X164858Y199858D01*
X165382Y199508D01*
X166000Y199385D01*
X166618Y199508D01*
X167142Y199858D01*
X167492Y200382D01*
X167615Y201000D01*
X167492Y201618D01*
X167142Y202142D01*
X167020Y202224D01*
Y205967D01*
X167363D01*
X167633Y206020D01*
X167862Y206173D01*
X168015Y206402D01*
X168069Y206672D01*
Y208847D01*
X168015Y209117D01*
X167862Y209346D01*
X167633Y209499D01*
X167363Y209553D01*
D02*
G37*
G36*
X220750Y195319D02*
X218728D01*
Y194020D01*
X217000D01*
X216610Y193942D01*
X216279Y193721D01*
X216058Y193390D01*
X215980Y193000D01*
X216058Y192610D01*
X216279Y192279D01*
X216610Y192058D01*
X217000Y191980D01*
X218728D01*
Y191169D01*
X220750D01*
Y193244D01*
Y195319D01*
D02*
G37*
G36*
X221468Y183776D02*
X220234D01*
Y182344D01*
X221468D01*
Y183776D01*
D02*
G37*
G36*
X219734D02*
X218500D01*
Y182752D01*
X218480Y182653D01*
X218500Y182555D01*
Y182344D01*
X219734D01*
Y183776D01*
D02*
G37*
G36*
X203500Y182493D02*
X202753Y182395D01*
X202057Y182106D01*
X201459Y181648D01*
X201000Y181050D01*
X200711Y180353D01*
X200613Y179606D01*
X200711Y178859D01*
X201000Y178163D01*
X201459Y177565D01*
X202057Y177106D01*
X202753Y176818D01*
X203500Y176719D01*
X204247Y176818D01*
X204943Y177106D01*
X205541Y177565D01*
X206000Y178163D01*
X206289Y178859D01*
X206387Y179606D01*
X206289Y180353D01*
X206000Y181050D01*
X205541Y181648D01*
X204943Y182106D01*
X204247Y182395D01*
X203500Y182493D01*
D02*
G37*
G36*
X221468Y181844D02*
X219984D01*
X218500D01*
Y180413D01*
X218972D01*
Y178008D01*
X218980Y177968D01*
Y176150D01*
X218516D01*
Y174718D01*
X220000D01*
X221484D01*
Y176150D01*
X221020D01*
Y178000D01*
X221012Y178040D01*
Y180413D01*
X221468D01*
Y181844D01*
D02*
G37*
G36*
X221484Y174218D02*
X220250D01*
Y172787D01*
X221484D01*
Y174218D01*
D02*
G37*
G36*
X219750D02*
X218516D01*
Y172787D01*
X219750D01*
Y174218D01*
D02*
G37*
G36*
X331250Y174125D02*
Y171124D01*
X334251D01*
X334172Y171724D01*
X333844Y172516D01*
X333322Y173196D01*
X332642Y173718D01*
X331850Y174046D01*
X331250Y174125D01*
D02*
G37*
G36*
X330750D02*
X330150Y174046D01*
X329358Y173718D01*
X328678Y173196D01*
X328156Y172516D01*
X327828Y171724D01*
X327749Y171124D01*
X330750D01*
Y174125D01*
D02*
G37*
G36*
X334251Y170624D02*
X331250D01*
Y167623D01*
X331850Y167702D01*
X332642Y168030D01*
X333322Y168552D01*
X333844Y169232D01*
X334172Y170024D01*
X334251Y170624D01*
D02*
G37*
G36*
X330750D02*
X327749D01*
X327828Y170024D01*
X328156Y169232D01*
X328678Y168552D01*
X329358Y168030D01*
X330150Y167702D01*
X330750Y167623D01*
Y170624D01*
D02*
G37*
G36*
X295819Y163772D02*
X293994D01*
Y161750D01*
X295819D01*
Y163772D01*
D02*
G37*
G36*
X321950Y164065D02*
X321332Y163942D01*
X320808Y163592D01*
X320458Y163068D01*
X320335Y162450D01*
X320458Y161832D01*
X320808Y161308D01*
X321332Y160958D01*
X321950Y160835D01*
X322568Y160958D01*
X323092Y161308D01*
X323442Y161832D01*
X323565Y162450D01*
X323442Y163068D01*
X323092Y163592D01*
X322568Y163942D01*
X321950Y164065D01*
D02*
G37*
G36*
X295819Y161250D02*
X293994D01*
Y159228D01*
X295819D01*
Y161250D01*
D02*
G37*
G36*
X293494Y163772D02*
X291669D01*
Y162020D01*
X290500D01*
X290110Y161942D01*
X289779Y161721D01*
X289558Y161390D01*
X289480Y161000D01*
X289558Y160610D01*
X289779Y160279D01*
X290110Y160058D01*
X290500Y159980D01*
X291669D01*
Y159228D01*
X293494D01*
Y161500D01*
Y163772D01*
D02*
G37*
G36*
X258224Y161352D02*
X255219D01*
Y158150D01*
X258224D01*
Y161352D01*
D02*
G37*
G36*
X261730D02*
X258724D01*
Y157900D01*
Y154447D01*
X261730D01*
Y156980D01*
X266500D01*
X266890Y157058D01*
X267221Y157279D01*
X267442Y157610D01*
X267520Y158000D01*
X267442Y158390D01*
X267221Y158721D01*
X266890Y158942D01*
X266500Y159020D01*
X261730D01*
Y161352D01*
D02*
G37*
G36*
X258224Y157650D02*
X255219D01*
Y154447D01*
X258224D01*
Y157650D01*
D02*
G37*
G36*
X124500Y156787D02*
X123390Y156641D01*
X122357Y156212D01*
X121469Y155531D01*
X120788Y154643D01*
X120359Y153610D01*
X120213Y152500D01*
X120359Y151391D01*
X120788Y150357D01*
X121469Y149469D01*
X122357Y148788D01*
X123390Y148359D01*
X124500Y148213D01*
X125610Y148359D01*
X126643Y148788D01*
X127531Y149469D01*
X128212Y150357D01*
X128641Y151391D01*
X128787Y152500D01*
X128641Y153610D01*
X128212Y154643D01*
X127531Y155531D01*
X126643Y156212D01*
X125610Y156641D01*
X124500Y156787D01*
D02*
G37*
G36*
X124750Y146754D02*
Y142750D01*
X128754D01*
X128641Y143609D01*
X128212Y144643D01*
X127531Y145531D01*
X126643Y146212D01*
X125610Y146641D01*
X124750Y146754D01*
D02*
G37*
G36*
X124250D02*
X123390Y146641D01*
X122357Y146212D01*
X121469Y145531D01*
X120788Y144643D01*
X120359Y143609D01*
X120246Y142750D01*
X124250D01*
Y146754D01*
D02*
G37*
G36*
X128754Y142250D02*
X124750D01*
Y138246D01*
X125610Y138359D01*
X126643Y138788D01*
X127531Y139469D01*
X128212Y140357D01*
X128641Y141391D01*
X128754Y142250D01*
D02*
G37*
G36*
X124250D02*
X120246D01*
X120359Y141391D01*
X120788Y140357D01*
X121469Y139469D01*
X122357Y138788D01*
X123390Y138359D01*
X124250Y138246D01*
Y142250D01*
D02*
G37*
G36*
X136902Y143376D02*
X135588Y143203D01*
X134363Y142696D01*
X133312Y141889D01*
X132505Y140838D01*
X131998Y139613D01*
X131825Y138299D01*
X131998Y136985D01*
X132505Y135761D01*
X133312Y134709D01*
X134363Y133903D01*
X135588Y133395D01*
X136902Y133222D01*
X138216Y133395D01*
X139440Y133903D01*
X140491Y134709D01*
X141298Y135761D01*
X141806Y136985D01*
X141979Y138299D01*
X141806Y139613D01*
X141298Y140838D01*
X140491Y141889D01*
X139440Y142696D01*
X138216Y143203D01*
X136902Y143376D01*
D02*
G37*
G36*
X330500Y125616D02*
X329209Y125489D01*
X327968Y125112D01*
X326824Y124501D01*
X325822Y123678D01*
X324999Y122676D01*
X324388Y121532D01*
X324011Y120291D01*
X323884Y119000D01*
X324011Y117709D01*
X324388Y116468D01*
X324999Y115324D01*
X325822Y114322D01*
X326824Y113499D01*
X327968Y112888D01*
X329209Y112511D01*
X330500Y112384D01*
X331791Y112511D01*
X333032Y112888D01*
X334176Y113499D01*
X335178Y114322D01*
X336001Y115324D01*
X336613Y116468D01*
X336989Y117709D01*
X337116Y119000D01*
X336989Y120291D01*
X336613Y121532D01*
X336001Y122676D01*
X335178Y123678D01*
X334176Y124501D01*
X333032Y125112D01*
X331791Y125489D01*
X330500Y125616D01*
D02*
G37*
G36*
X119000Y125116D02*
X117709Y124989D01*
X116468Y124612D01*
X115324Y124001D01*
X114322Y123178D01*
X113499Y122176D01*
X112888Y121032D01*
X112511Y119791D01*
X112384Y118500D01*
X112511Y117209D01*
X112888Y115968D01*
X113499Y114824D01*
X114322Y113822D01*
X115324Y112999D01*
X116468Y112388D01*
X117709Y112011D01*
X119000Y111884D01*
X120291Y112011D01*
X121532Y112388D01*
X122676Y112999D01*
X123678Y113822D01*
X124501Y114824D01*
X125112Y115968D01*
X125489Y117209D01*
X125616Y118500D01*
X125489Y119791D01*
X125112Y121032D01*
X124501Y122176D01*
X123678Y123178D01*
X122676Y124001D01*
X121532Y124612D01*
X120291Y124989D01*
X119000Y125116D01*
D02*
G37*
%LPD*%
G36*
X290228Y196425D02*
X294772D01*
Y197480D01*
X299728D01*
Y196181D01*
X304272D01*
Y197236D01*
X308228D01*
Y194681D01*
X312156D01*
X320198Y186639D01*
X314154Y180596D01*
X300142D01*
Y181209D01*
X293144D01*
X292877Y181709D01*
X292992Y181882D01*
X293115Y182500D01*
X292992Y183118D01*
X292642Y183642D01*
X292118Y183992D01*
X291500Y184115D01*
X290882Y183992D01*
X290620Y183817D01*
X290120Y184084D01*
Y187900D01*
X290042Y188290D01*
X289821Y188621D01*
X286830Y191612D01*
X286849Y191657D01*
X287124Y192025D01*
X287406Y191969D01*
X290228D01*
Y190913D01*
X292250D01*
Y192988D01*
Y195063D01*
X290228D01*
Y194008D01*
X287828D01*
X285615Y196221D01*
X285284Y196442D01*
X284894Y196520D01*
X281246D01*
X281165Y196641D01*
X280965Y196774D01*
Y197246D01*
X281360Y197630D01*
X290228D01*
Y196425D01*
D02*
G37*
G36*
X307980Y170847D02*
X305821Y168688D01*
X301224Y173284D01*
Y173811D01*
Y174750D01*
X299592D01*
Y175250D01*
X301224D01*
Y176718D01*
X299592D01*
Y177218D01*
X301224D01*
Y178157D01*
X301466Y178557D01*
X307980D01*
Y170847D01*
D02*
G37*
%LPC*%
G36*
X312772Y193319D02*
X310750D01*
Y191494D01*
X312772D01*
Y193319D01*
D02*
G37*
G36*
X310250D02*
X308228D01*
Y191494D01*
X310250D01*
Y193319D01*
D02*
G37*
G36*
X304272Y194819D02*
X302250D01*
Y192744D01*
Y190669D01*
X304272D01*
Y191183D01*
X304361Y191281D01*
X304772Y191526D01*
X305000Y191480D01*
X305390Y191558D01*
X305721Y191779D01*
X305942Y192110D01*
X306020Y192500D01*
X305942Y192890D01*
X305721Y193221D01*
X305477Y193465D01*
X305146Y193686D01*
X304756Y193764D01*
X304272D01*
Y194819D01*
D02*
G37*
G36*
X294772Y195063D02*
X292750D01*
Y192988D01*
Y190913D01*
X294772D01*
Y191969D01*
X299728D01*
Y190669D01*
X301750D01*
Y192744D01*
Y194819D01*
X299728D01*
Y194008D01*
X294772D01*
Y195063D01*
D02*
G37*
G36*
X312772Y190994D02*
X310750D01*
Y189169D01*
X312772D01*
Y190994D01*
D02*
G37*
G36*
X310250D02*
X308228D01*
Y190268D01*
X308209Y190169D01*
Y188367D01*
X307279Y187437D01*
X307058Y187107D01*
X306980Y186716D01*
Y186500D01*
X307058Y186110D01*
X307279Y185779D01*
X307610Y185558D01*
X308000Y185480D01*
X308390Y185558D01*
X308721Y185779D01*
X308942Y186110D01*
X308968Y186243D01*
X309949Y187224D01*
X310170Y187555D01*
X310248Y187945D01*
Y189169D01*
X310250D01*
Y190994D01*
D02*
G37*
G36*
X583333Y371769D02*
X582036D01*
X580764Y371516D01*
X579566Y371020D01*
X578488Y370299D01*
X577571Y369382D01*
X576850Y368304D01*
X576354Y367106D01*
X576101Y365833D01*
Y364536D01*
X576354Y363264D01*
X576850Y362066D01*
X577571Y360988D01*
X578488Y360071D01*
X579566Y359350D01*
X580764Y358854D01*
X582036Y358601D01*
X583333D01*
X584606Y358854D01*
X585804Y359350D01*
X586882Y360071D01*
X587799Y360988D01*
X588520Y362066D01*
X589016Y363264D01*
X589269Y364536D01*
Y365833D01*
X589016Y367106D01*
X588520Y368304D01*
X587799Y369382D01*
X586882Y370299D01*
X585804Y371020D01*
X584606Y371516D01*
X583333Y371769D01*
D02*
G37*
G36*
X501334D02*
X500036D01*
X498765Y371516D01*
X497566Y371020D01*
X496488Y370299D01*
X495571Y369382D01*
X494850Y368304D01*
X494354Y367106D01*
X494101Y365833D01*
Y364536D01*
X494354Y363264D01*
X494850Y362066D01*
X495571Y360988D01*
X496488Y360071D01*
X497566Y359350D01*
X498765Y358854D01*
X500036Y358601D01*
X501334D01*
X502606Y358854D01*
X503804Y359350D01*
X504882Y360071D01*
X505799Y360988D01*
X506520Y362066D01*
X507016Y363264D01*
X507269Y364536D01*
Y365833D01*
X507016Y367106D01*
X506520Y368304D01*
X505799Y369382D01*
X504882Y370299D01*
X503804Y371020D01*
X502606Y371516D01*
X501334Y371769D01*
D02*
G37*
G36*
X563185Y363734D02*
X563159Y363728D01*
X559142D01*
Y359935D01*
X563185D01*
Y359685D01*
X563435D01*
Y355642D01*
X566651D01*
Y334704D01*
X566085D01*
Y336785D01*
X564935D01*
Y333685D01*
Y330585D01*
X566085D01*
Y332665D01*
X567085D01*
X567475Y332743D01*
X567806Y332964D01*
X568392Y333550D01*
X568613Y333880D01*
X568690Y334271D01*
Y358228D01*
X568613Y358618D01*
X568392Y358949D01*
X567228Y360113D01*
Y363728D01*
X563211D01*
X563185Y363734D01*
D02*
G37*
G36*
X553717Y363728D02*
X552653D01*
X551624Y363453D01*
X550702Y362920D01*
X549950Y362168D01*
X549417Y361246D01*
X549142Y360217D01*
Y359153D01*
X549417Y358124D01*
X549950Y357202D01*
X550702Y356450D01*
X551624Y355917D01*
X552653Y355642D01*
X553717D01*
X554746Y355917D01*
X555668Y356450D01*
X556151Y356933D01*
X556651Y356726D01*
Y334704D01*
X556085D01*
Y336785D01*
X553285D01*
Y330585D01*
X556085D01*
Y332665D01*
X557085D01*
X557475Y332743D01*
X557806Y332964D01*
X558392Y333550D01*
X558613Y333880D01*
X558690Y334271D01*
Y355524D01*
X559142Y355642D01*
X559190Y355642D01*
X562935D01*
Y359435D01*
X559142D01*
Y358679D01*
X558642Y358630D01*
X558613Y358775D01*
X558392Y359106D01*
X558257Y359241D01*
X557926Y359462D01*
X557536Y359540D01*
X557228D01*
Y360217D01*
X556953Y361246D01*
X556421Y362168D01*
X555668Y362920D01*
X554746Y363453D01*
X553717Y363728D01*
D02*
G37*
G36*
X543717D02*
X542653D01*
X541624Y363453D01*
X540702Y362920D01*
X539950Y362168D01*
X539417Y361246D01*
X539142Y360217D01*
Y359153D01*
X539417Y358124D01*
X539950Y357202D01*
X540702Y356450D01*
X541624Y355917D01*
X542653Y355642D01*
X543717D01*
X544746Y355917D01*
X545668Y356450D01*
X546151Y356933D01*
X546651Y356726D01*
Y334704D01*
X546085D01*
Y336785D01*
X543285D01*
Y330585D01*
X546085D01*
Y332665D01*
X547085D01*
X547475Y332743D01*
X547806Y332964D01*
X548392Y333550D01*
X548613Y333880D01*
X548690Y334271D01*
Y358542D01*
X548613Y358932D01*
X548392Y359263D01*
X547249Y360406D01*
X547162Y360464D01*
X546953Y361246D01*
X546420Y362168D01*
X545668Y362920D01*
X544746Y363453D01*
X543717Y363728D01*
D02*
G37*
G36*
X533185Y364205D02*
X532795Y364127D01*
X532464Y363906D01*
X532278Y363628D01*
X531624Y363453D01*
X530702Y362920D01*
X529950Y362168D01*
X529417Y361246D01*
X529142Y360217D01*
Y359153D01*
X529417Y358124D01*
X529950Y357202D01*
X530702Y356450D01*
X531624Y355917D01*
X532653Y355642D01*
X533717D01*
X534746Y355917D01*
X535231Y356197D01*
X536651Y354777D01*
Y334704D01*
X536085D01*
Y336785D01*
X533285D01*
Y330585D01*
X536085D01*
Y332665D01*
X537085D01*
X537475Y332743D01*
X537806Y332964D01*
X538392Y333550D01*
X538613Y333880D01*
X538690Y334271D01*
Y355199D01*
X538613Y355589D01*
X538392Y355920D01*
X536673Y357639D01*
X536953Y358124D01*
X537228Y359153D01*
Y360217D01*
X536953Y361246D01*
X536420Y362168D01*
X535668Y362920D01*
X534746Y363453D01*
X534218Y363594D01*
X533906Y363906D01*
X533575Y364127D01*
X533185Y364205D01*
D02*
G37*
G36*
X564435Y336785D02*
X563285D01*
Y333935D01*
X564435D01*
Y336785D01*
D02*
G37*
G36*
Y333435D02*
X563285D01*
Y330585D01*
X564435D01*
Y333435D01*
D02*
G37*
G36*
X566085Y287785D02*
X563285D01*
Y281585D01*
X566085D01*
Y287785D01*
D02*
G37*
G36*
X556085D02*
X553285D01*
Y281585D01*
X556085D01*
Y287785D01*
D02*
G37*
G36*
X546085D02*
X543285D01*
Y281585D01*
X546085D01*
Y287785D01*
D02*
G37*
G36*
X523717Y363728D02*
X522653D01*
X521624Y363453D01*
X520702Y362920D01*
X519950Y362168D01*
X519417Y361246D01*
X519142Y360217D01*
Y359153D01*
X519417Y358124D01*
X519950Y357202D01*
X520702Y356450D01*
X521624Y355917D01*
X522322Y355730D01*
Y297728D01*
X522400Y297338D01*
X522621Y297007D01*
X533285Y286343D01*
Y281585D01*
X536085D01*
Y287785D01*
X534727D01*
X524362Y298150D01*
Y355814D01*
X524746Y355917D01*
X525668Y356450D01*
X526420Y357202D01*
X526953Y358124D01*
X527228Y359153D01*
Y360217D01*
X526953Y361246D01*
X526420Y362168D01*
X525668Y362920D01*
X524746Y363453D01*
X523717Y363728D01*
D02*
G37*
G36*
X501334Y289769D02*
X500036D01*
X498765Y289516D01*
X497566Y289020D01*
X496488Y288299D01*
X495571Y287382D01*
X494850Y286304D01*
X494354Y285105D01*
X494101Y283833D01*
Y282536D01*
X494354Y281264D01*
X494850Y280066D01*
X495571Y278988D01*
X496488Y278071D01*
X497566Y277350D01*
X498765Y276854D01*
X500036Y276601D01*
X501334D01*
X502606Y276854D01*
X503804Y277350D01*
X504882Y278071D01*
X505799Y278988D01*
X506520Y280066D01*
X507016Y281264D01*
X507269Y282536D01*
Y283833D01*
X507016Y285105D01*
X506520Y286304D01*
X505799Y287382D01*
X504882Y288299D01*
X503804Y289020D01*
X502606Y289516D01*
X501334Y289769D01*
D02*
G37*
G36*
X583333Y289769D02*
X582036D01*
X580764Y289516D01*
X579566Y289020D01*
X578488Y288299D01*
X577571Y287382D01*
X576850Y286304D01*
X576354Y285105D01*
X576101Y283833D01*
Y282536D01*
X576354Y281264D01*
X576850Y280066D01*
X577571Y278988D01*
X578488Y278071D01*
X579566Y277350D01*
X580764Y276854D01*
X582036Y276601D01*
X583333D01*
X584606Y276854D01*
X585804Y277350D01*
X586882Y278071D01*
X587799Y278988D01*
X588520Y280066D01*
X589016Y281264D01*
X589269Y282536D01*
Y283833D01*
X589016Y285105D01*
X588520Y286304D01*
X587799Y287382D01*
X586882Y288299D01*
X585804Y289020D01*
X584606Y289516D01*
X583333Y289769D01*
D02*
G37*
G36*
X463649Y371769D02*
X462352D01*
X461079Y371516D01*
X459881Y371020D01*
X458803Y370299D01*
X457886Y369382D01*
X457165Y368304D01*
X456669Y367106D01*
X456416Y365833D01*
Y364536D01*
X456669Y363264D01*
X457165Y362066D01*
X457886Y360988D01*
X458803Y360071D01*
X459881Y359350D01*
X461079Y358854D01*
X462352Y358601D01*
X463649D01*
X464921Y358854D01*
X466119Y359350D01*
X467197Y360071D01*
X468114Y360988D01*
X468835Y362066D01*
X469331Y363264D01*
X469584Y364536D01*
Y365833D01*
X469331Y367106D01*
X468835Y368304D01*
X468114Y369382D01*
X467197Y370299D01*
X466119Y371020D01*
X464921Y371516D01*
X463649Y371769D01*
D02*
G37*
G36*
X381648D02*
X380351D01*
X379079Y371516D01*
X377881Y371020D01*
X376803Y370299D01*
X375886Y369382D01*
X375165Y368304D01*
X374669Y367106D01*
X374416Y365833D01*
Y364536D01*
X374669Y363264D01*
X375165Y362066D01*
X375886Y360988D01*
X376803Y360071D01*
X377881Y359350D01*
X379079Y358854D01*
X380351Y358601D01*
X381648D01*
X382921Y358854D01*
X384119Y359350D01*
X385197Y360071D01*
X386114Y360988D01*
X386835Y362066D01*
X387331Y363264D01*
X387584Y364536D01*
Y365833D01*
X387331Y367106D01*
X386835Y368304D01*
X386114Y369382D01*
X385197Y370299D01*
X384119Y371020D01*
X382921Y371516D01*
X381648Y371769D01*
D02*
G37*
G36*
X443500Y363734D02*
X443474Y363728D01*
X439457D01*
Y359935D01*
X443500D01*
Y359685D01*
X443750D01*
Y355642D01*
X446966D01*
Y334704D01*
X446400D01*
Y336785D01*
X445250D01*
Y333685D01*
Y330585D01*
X446400D01*
Y332665D01*
X447400D01*
X447790Y332743D01*
X448121Y332964D01*
X448707Y333550D01*
X448928Y333880D01*
X449005Y334271D01*
Y358228D01*
X448928Y358618D01*
X448707Y358949D01*
X447543Y360113D01*
Y363728D01*
X443526D01*
X443500Y363734D01*
D02*
G37*
G36*
X434032Y363728D02*
X432968D01*
X431939Y363453D01*
X431017Y362920D01*
X430265Y362168D01*
X429732Y361246D01*
X429457Y360217D01*
Y359153D01*
X429732Y358124D01*
X430265Y357202D01*
X431017Y356450D01*
X431939Y355917D01*
X432968Y355642D01*
X434032D01*
X435061Y355917D01*
X435983Y356450D01*
X436466Y356933D01*
X436966Y356726D01*
Y334704D01*
X436400D01*
Y336785D01*
X433600D01*
Y330585D01*
X436400D01*
Y332665D01*
X437400D01*
X437790Y332743D01*
X438121Y332964D01*
X438707Y333550D01*
X438928Y333880D01*
X439005Y334271D01*
Y355524D01*
X439457Y355642D01*
X439505Y355642D01*
X443250D01*
Y359435D01*
X439457D01*
Y358679D01*
X438957Y358630D01*
X438928Y358775D01*
X438707Y359106D01*
X438572Y359241D01*
X438241Y359462D01*
X437851Y359540D01*
X437543D01*
Y360217D01*
X437268Y361246D01*
X436735Y362168D01*
X435983Y362920D01*
X435061Y363453D01*
X434032Y363728D01*
D02*
G37*
G36*
X424032D02*
X422968D01*
X421939Y363453D01*
X421017Y362920D01*
X420264Y362168D01*
X419732Y361246D01*
X419457Y360217D01*
Y359153D01*
X419732Y358124D01*
X420264Y357202D01*
X421017Y356450D01*
X421939Y355917D01*
X422968Y355642D01*
X424032D01*
X425061Y355917D01*
X425983Y356450D01*
X426466Y356933D01*
X426966Y356726D01*
Y334704D01*
X426400D01*
Y336785D01*
X423600D01*
Y330585D01*
X426400D01*
Y332665D01*
X427400D01*
X427790Y332743D01*
X428121Y332964D01*
X428707Y333550D01*
X428928Y333880D01*
X429005Y334271D01*
Y358542D01*
X428928Y358932D01*
X428707Y359263D01*
X427564Y360406D01*
X427477Y360464D01*
X427268Y361246D01*
X426735Y362168D01*
X425983Y362920D01*
X425061Y363453D01*
X424032Y363728D01*
D02*
G37*
G36*
X413500Y364205D02*
X413110Y364127D01*
X412779Y363906D01*
X412593Y363628D01*
X411939Y363453D01*
X411017Y362920D01*
X410264Y362168D01*
X409732Y361246D01*
X409457Y360217D01*
Y359153D01*
X409732Y358124D01*
X410264Y357202D01*
X411017Y356450D01*
X411939Y355917D01*
X412968Y355642D01*
X414032D01*
X415061Y355917D01*
X415546Y356197D01*
X416966Y354777D01*
Y334704D01*
X416400D01*
Y336785D01*
X413600D01*
Y330585D01*
X416400D01*
Y332665D01*
X417400D01*
X417790Y332743D01*
X418121Y332964D01*
X418707Y333550D01*
X418928Y333880D01*
X419005Y334271D01*
Y355199D01*
X418928Y355589D01*
X418707Y355920D01*
X416988Y357639D01*
X417268Y358124D01*
X417543Y359153D01*
Y360217D01*
X417268Y361246D01*
X416736Y362168D01*
X415983Y362920D01*
X415061Y363453D01*
X414533Y363594D01*
X414221Y363906D01*
X413890Y364127D01*
X413500Y364205D01*
D02*
G37*
G36*
X444750Y336785D02*
X443600D01*
Y333935D01*
X444750D01*
Y336785D01*
D02*
G37*
G36*
Y333435D02*
X443600D01*
Y330585D01*
X444750D01*
Y333435D01*
D02*
G37*
G36*
X446400Y287785D02*
X443600D01*
Y281585D01*
X446400D01*
Y287785D01*
D02*
G37*
G36*
X436400D02*
X433600D01*
Y281585D01*
X436400D01*
Y287785D01*
D02*
G37*
G36*
X426400D02*
X423600D01*
Y281585D01*
X426400D01*
Y287785D01*
D02*
G37*
G36*
X404032Y363728D02*
X402968D01*
X401939Y363453D01*
X401017Y362920D01*
X400265Y362168D01*
X399732Y361246D01*
X399457Y360217D01*
Y359153D01*
X399732Y358124D01*
X400265Y357202D01*
X401017Y356450D01*
X401939Y355917D01*
X402637Y355730D01*
Y297728D01*
X402715Y297338D01*
X402936Y297007D01*
X413600Y286343D01*
Y281585D01*
X416400D01*
Y287785D01*
X415042D01*
X404677Y298150D01*
Y355814D01*
X405061Y355917D01*
X405983Y356450D01*
X406735Y357202D01*
X407268Y358124D01*
X407543Y359153D01*
Y360217D01*
X407268Y361246D01*
X406735Y362168D01*
X405983Y362920D01*
X405061Y363453D01*
X404032Y363728D01*
D02*
G37*
G36*
X381648Y289769D02*
X380351D01*
X379079Y289516D01*
X377881Y289020D01*
X376803Y288299D01*
X375886Y287382D01*
X375165Y286304D01*
X374669Y285105D01*
X374416Y283833D01*
Y282536D01*
X374669Y281264D01*
X375165Y280066D01*
X375886Y278988D01*
X376803Y278071D01*
X377881Y277350D01*
X379079Y276854D01*
X380351Y276601D01*
X381648D01*
X382921Y276854D01*
X384119Y277350D01*
X385197Y278071D01*
X386114Y278988D01*
X386835Y280066D01*
X387331Y281264D01*
X387584Y282536D01*
Y283833D01*
X387331Y285105D01*
X386835Y286304D01*
X386114Y287382D01*
X385197Y288299D01*
X384119Y289020D01*
X382921Y289516D01*
X381648Y289769D01*
D02*
G37*
G36*
X463649Y289769D02*
X462352D01*
X461079Y289516D01*
X459881Y289020D01*
X458803Y288299D01*
X457886Y287382D01*
X457165Y286304D01*
X456669Y285105D01*
X456416Y283833D01*
Y282536D01*
X456669Y281264D01*
X457165Y280066D01*
X457886Y278988D01*
X458803Y278071D01*
X459881Y277350D01*
X461079Y276854D01*
X462352Y276601D01*
X463649D01*
X464921Y276854D01*
X466119Y277350D01*
X467197Y278071D01*
X468114Y278988D01*
X468835Y280066D01*
X469331Y281264D01*
X469584Y282536D01*
Y283833D01*
X469331Y285105D01*
X468835Y286304D01*
X468114Y287382D01*
X467197Y288299D01*
X466119Y289020D01*
X464921Y289516D01*
X463649Y289769D01*
D02*
G37*
G36*
X504799Y245362D02*
X504620D01*
Y242356D01*
X507626D01*
Y242535D01*
X507404Y243363D01*
X506976Y244105D01*
X506369Y244712D01*
X505627Y245140D01*
X504799Y245362D01*
D02*
G37*
G36*
X504120D02*
X503941D01*
X503113Y245140D01*
X502371Y244712D01*
X501765Y244105D01*
X501336Y243363D01*
X501114Y242535D01*
Y242356D01*
X504120D01*
Y245362D01*
D02*
G37*
G36*
X515500D02*
X508988D01*
Y238850D01*
X508988Y238850D01*
X508988D01*
X508718Y238474D01*
X507149Y236906D01*
X506928Y236575D01*
X506851Y236185D01*
Y228849D01*
X506737Y228802D01*
X506175Y228239D01*
X505870Y227504D01*
X505390Y227551D01*
Y239009D01*
X505627Y239072D01*
X506369Y239501D01*
X506976Y240107D01*
X507404Y240849D01*
X507626Y241678D01*
Y241856D01*
X504370D01*
X501114D01*
Y241678D01*
X501336Y240849D01*
X501765Y240107D01*
X502371Y239501D01*
X503113Y239072D01*
X503351Y239009D01*
Y216661D01*
X502851Y216454D01*
X502503Y216802D01*
X501768Y217106D01*
X500972D01*
X500237Y216802D01*
X499675Y216239D01*
X499628Y216126D01*
X498793D01*
Y217387D01*
X498739Y217657D01*
X498587Y217886D01*
X498358Y218039D01*
X498213Y218067D01*
Y220950D01*
X498135Y221340D01*
X497914Y221671D01*
X497221Y222364D01*
Y222744D01*
X497201Y222843D01*
Y225878D01*
X496358D01*
Y228122D01*
X497020D01*
Y231090D01*
X493658D01*
Y228122D01*
X494319D01*
Y225878D01*
X493051D01*
Y221568D01*
X493004Y221289D01*
X492694Y220991D01*
X492237Y220802D01*
X491675Y220239D01*
X491432Y219653D01*
X489871Y218092D01*
X488432D01*
X488162Y218039D01*
X487933Y217886D01*
X487780Y217657D01*
X487727Y217387D01*
Y213046D01*
X487780Y212776D01*
X487933Y212547D01*
X488162Y212394D01*
X488432Y212341D01*
X490607D01*
X490877Y212394D01*
X491106Y212547D01*
X491259Y212776D01*
X491313Y213046D01*
Y216650D01*
X492155Y217493D01*
X492237Y217411D01*
X492972Y217106D01*
X493768D01*
X494503Y217411D01*
X494751Y217659D01*
X495212Y217413D01*
X495207Y217387D01*
Y213046D01*
X495261Y212776D01*
X495414Y212547D01*
X495643Y212394D01*
X495913Y212341D01*
X498088D01*
X498358Y212394D01*
X498587Y212547D01*
X498739Y212776D01*
X498793Y213046D01*
Y214087D01*
X499628D01*
X499675Y213973D01*
X500237Y213411D01*
X500972Y213106D01*
X501768D01*
X502503Y213411D01*
X502851Y213758D01*
X503351Y213551D01*
Y208615D01*
X499357Y204622D01*
X498793D01*
Y205773D01*
X498739Y206043D01*
X498587Y206272D01*
X498358Y206424D01*
X498088Y206478D01*
X497250D01*
Y203602D01*
Y200727D01*
X498088D01*
X498358Y200780D01*
X498587Y200933D01*
X498739Y201162D01*
X498793Y201432D01*
Y202583D01*
X499780D01*
X500170Y202660D01*
X500501Y202881D01*
X505091Y207472D01*
X505312Y207803D01*
X505390Y208193D01*
Y226661D01*
X505870Y226708D01*
X506175Y225973D01*
X506737Y225411D01*
X507472Y225106D01*
X508268D01*
X509003Y225411D01*
X509566Y225973D01*
X509870Y226708D01*
Y227504D01*
X509566Y228239D01*
X509003Y228802D01*
X508890Y228849D01*
Y235763D01*
X511977Y238850D01*
X515500D01*
Y245362D01*
D02*
G37*
G36*
X496925D02*
X496067D01*
X495239Y245140D01*
X494497Y244712D01*
X493891Y244105D01*
X493462Y243363D01*
X493323Y242844D01*
X492124Y241645D01*
X487938Y237459D01*
X487648Y237401D01*
X487317Y237180D01*
X483233Y233096D01*
X483012Y232765D01*
X482934Y232375D01*
Y210251D01*
X483012Y209861D01*
X483233Y209530D01*
X487727Y205036D01*
Y201432D01*
X487780Y201162D01*
X487933Y200933D01*
X488162Y200780D01*
X488432Y200727D01*
X490607D01*
X490877Y200780D01*
X491096Y200927D01*
X491108Y200933D01*
X491390D01*
X491672D01*
X491683Y200927D01*
X491902Y200780D01*
X492172Y200727D01*
X493010D01*
Y203602D01*
Y206478D01*
X492172D01*
X491902Y206424D01*
X491683Y206278D01*
X491672Y206272D01*
X491390D01*
X491108D01*
X491096Y206278D01*
X490877Y206424D01*
X490607Y206478D01*
X489169D01*
X484973Y210673D01*
Y231953D01*
X486728Y233707D01*
X487189Y233515D01*
Y229606D01*
X487267Y229216D01*
X487323Y229132D01*
Y225464D01*
X487401Y225074D01*
X487520Y224895D01*
Y224681D01*
X487539Y224583D01*
Y221335D01*
X491689D01*
Y225878D01*
X489362D01*
Y227780D01*
X489721Y228122D01*
X493083D01*
Y231090D01*
X489721D01*
Y231090D01*
X489229Y231110D01*
Y235865D01*
X493371Y240008D01*
X493891Y240107D01*
X494497Y239501D01*
X495239Y239072D01*
X496067Y238850D01*
X496925D01*
X497753Y239072D01*
X498495Y239501D01*
X499101Y240107D01*
X499530Y240849D01*
X499752Y241678D01*
Y242535D01*
X499530Y243363D01*
X499101Y244105D01*
X498495Y244712D01*
X497753Y245140D01*
X496925Y245362D01*
D02*
G37*
G36*
X533519Y251691D02*
X532222D01*
X530950Y251437D01*
X529751Y250941D01*
X528673Y250221D01*
X527756Y249304D01*
X527035Y248225D01*
X526539Y247027D01*
X526286Y245755D01*
Y244458D01*
X526539Y243186D01*
X527035Y241987D01*
X527756Y240909D01*
X528673Y239992D01*
X529751Y239271D01*
X530950Y238775D01*
X532222Y238522D01*
X533519D01*
X534791Y238775D01*
X535989Y239271D01*
X537067Y239992D01*
X537985Y240909D01*
X538705Y241987D01*
X539201Y243186D01*
X539454Y244458D01*
Y245755D01*
X539201Y247027D01*
X538705Y248225D01*
X537985Y249304D01*
X537067Y250221D01*
X535989Y250941D01*
X534791Y251437D01*
X533519Y251691D01*
D02*
G37*
G36*
X476519D02*
X475222D01*
X473950Y251437D01*
X472751Y250941D01*
X471673Y250221D01*
X470756Y249304D01*
X470035Y248225D01*
X469539Y247027D01*
X469286Y245755D01*
Y244458D01*
X469539Y243186D01*
X470035Y241987D01*
X470756Y240909D01*
X471673Y239992D01*
X472751Y239271D01*
X473950Y238775D01*
X475222Y238522D01*
X476519D01*
X477791Y238775D01*
X478989Y239271D01*
X480067Y239992D01*
X480984Y240909D01*
X481705Y241987D01*
X482201Y243186D01*
X482454Y244458D01*
Y245755D01*
X482201Y247027D01*
X481705Y248225D01*
X480984Y249304D01*
X480067Y250221D01*
X478989Y250941D01*
X477791Y251437D01*
X476519Y251691D01*
D02*
G37*
G36*
X519870Y223211D02*
X517745Y221085D01*
X519870Y218960D01*
X521996Y221085D01*
X519870Y223211D01*
D02*
G37*
G36*
X517391Y220732D02*
X515266Y218606D01*
X517391Y216481D01*
X519517Y218606D01*
X517391Y220732D01*
D02*
G37*
G36*
X522349D02*
X520224Y218606D01*
X522349Y216481D01*
X524475Y218606D01*
X522349Y220732D01*
D02*
G37*
G36*
X519870Y218253D02*
X517745Y216127D01*
X519870Y214002D01*
X521996Y216127D01*
X519870Y218253D01*
D02*
G37*
G36*
X515299Y216862D02*
X514441D01*
X513613Y216640D01*
X512871Y216212D01*
X512265Y215605D01*
X511836Y214863D01*
X511614Y214035D01*
Y213178D01*
X511836Y212350D01*
X512265Y211607D01*
X512871Y211001D01*
X513613Y210572D01*
X514441Y210350D01*
X515299D01*
X516127Y210572D01*
X516869Y211001D01*
X517476Y211607D01*
X517904Y212350D01*
X518126Y213178D01*
Y214035D01*
X517904Y214863D01*
X517476Y215605D01*
X516869Y216212D01*
X516127Y216640D01*
X515299Y216862D01*
D02*
G37*
G36*
X496750Y206478D02*
X495913D01*
X495643Y206424D01*
X495414Y206272D01*
X494846D01*
X494618Y206424D01*
X494347Y206478D01*
X493510D01*
Y203602D01*
Y200727D01*
X494347D01*
X494618Y200780D01*
X494846Y200933D01*
X495414D01*
X495643Y200780D01*
X495913Y200727D01*
X496750D01*
Y203602D01*
Y206478D01*
D02*
G37*
G36*
X520299Y211862D02*
X519442D01*
X518613Y211640D01*
X517871Y211212D01*
X517265Y210605D01*
X516836Y209863D01*
X516614Y209035D01*
Y208178D01*
X516836Y207349D01*
X517265Y206607D01*
X517871Y206001D01*
X518613Y205572D01*
X519442Y205350D01*
X520299D01*
X521127Y205572D01*
X521869Y206001D01*
X522475Y206607D01*
X522904Y207349D01*
X523126Y208178D01*
Y209035D01*
X522904Y209863D01*
X522475Y210605D01*
X521869Y211212D01*
X521127Y211640D01*
X520299Y211862D01*
D02*
G37*
G36*
X533519Y199690D02*
X532222D01*
X530950Y199437D01*
X529751Y198941D01*
X528673Y198221D01*
X527756Y197303D01*
X527035Y196225D01*
X526539Y195027D01*
X526286Y193755D01*
Y192458D01*
X526539Y191186D01*
X527035Y189988D01*
X527756Y188909D01*
X528673Y187992D01*
X529751Y187271D01*
X530950Y186775D01*
X532222Y186522D01*
X533519D01*
X534791Y186775D01*
X535989Y187271D01*
X537067Y187992D01*
X537985Y188909D01*
X538705Y189988D01*
X539201Y191186D01*
X539454Y192458D01*
Y193755D01*
X539201Y195027D01*
X538705Y196225D01*
X537985Y197303D01*
X537067Y198221D01*
X535989Y198941D01*
X534791Y199437D01*
X533519Y199690D01*
D02*
G37*
G36*
X476519D02*
X475222D01*
X473950Y199437D01*
X472751Y198941D01*
X471673Y198221D01*
X470756Y197303D01*
X470035Y196225D01*
X469539Y195027D01*
X469286Y193755D01*
Y192458D01*
X469539Y191186D01*
X470035Y189988D01*
X470756Y188909D01*
X471673Y187992D01*
X472751Y187271D01*
X473950Y186775D01*
X475222Y186522D01*
X476519D01*
X477791Y186775D01*
X478989Y187271D01*
X480067Y187992D01*
X480984Y188909D01*
X481705Y189988D01*
X482201Y191186D01*
X482454Y192458D01*
Y193755D01*
X482201Y195027D01*
X481705Y196225D01*
X480984Y197303D01*
X480067Y198221D01*
X478989Y198941D01*
X477791Y199437D01*
X476519Y199690D01*
D02*
G37*
G36*
X410114Y245362D02*
X409935D01*
Y242356D01*
X412941D01*
Y242535D01*
X412719Y243363D01*
X412290Y244105D01*
X411684Y244712D01*
X410942Y245140D01*
X410114Y245362D01*
D02*
G37*
G36*
X409435D02*
X409256D01*
X408428Y245140D01*
X407686Y244712D01*
X407080Y244105D01*
X406651Y243363D01*
X406429Y242535D01*
Y242356D01*
X409435D01*
Y245362D01*
D02*
G37*
G36*
X420815D02*
X414303D01*
Y238850D01*
X414303Y238850D01*
X414303D01*
X414033Y238474D01*
X412464Y236906D01*
X412243Y236575D01*
X412165Y236185D01*
Y228849D01*
X412052Y228802D01*
X411490Y228239D01*
X411185Y227504D01*
X410705Y227551D01*
Y239009D01*
X410942Y239072D01*
X411684Y239501D01*
X412290Y240107D01*
X412719Y240849D01*
X412941Y241678D01*
Y241856D01*
X409685D01*
X406429D01*
Y241678D01*
X406651Y240849D01*
X407080Y240107D01*
X407686Y239501D01*
X408428Y239072D01*
X408666Y239009D01*
Y216661D01*
X408166Y216454D01*
X407818Y216802D01*
X407083Y217106D01*
X406287D01*
X405552Y216802D01*
X404990Y216239D01*
X404943Y216126D01*
X404108D01*
Y217387D01*
X404054Y217657D01*
X403901Y217886D01*
X403673Y218039D01*
X403527Y218067D01*
Y220950D01*
X403450Y221340D01*
X403229Y221671D01*
X402535Y222364D01*
Y222744D01*
X402516Y222843D01*
Y225878D01*
X401673D01*
Y228122D01*
X402335D01*
Y231090D01*
X398973D01*
Y228122D01*
X399634D01*
Y225878D01*
X398366D01*
Y221568D01*
X398318Y221289D01*
X398009Y220991D01*
X397552Y220802D01*
X396990Y220239D01*
X396747Y219653D01*
X395186Y218092D01*
X393747D01*
X393477Y218039D01*
X393248Y217886D01*
X393095Y217657D01*
X393042Y217387D01*
Y213046D01*
X393095Y212776D01*
X393248Y212547D01*
X393477Y212394D01*
X393747Y212341D01*
X395922D01*
X396192Y212394D01*
X396421Y212547D01*
X396574Y212776D01*
X396628Y213046D01*
Y216650D01*
X397470Y217493D01*
X397552Y217411D01*
X398287Y217106D01*
X399083D01*
X399818Y217411D01*
X400066Y217659D01*
X400527Y217413D01*
X400522Y217387D01*
Y213046D01*
X400576Y212776D01*
X400729Y212547D01*
X400957Y212394D01*
X401227Y212341D01*
X403403D01*
X403673Y212394D01*
X403901Y212547D01*
X404054Y212776D01*
X404108Y213046D01*
Y214087D01*
X404943D01*
X404990Y213973D01*
X405552Y213411D01*
X406287Y213106D01*
X407083D01*
X407818Y213411D01*
X408166Y213758D01*
X408666Y213551D01*
Y208615D01*
X404672Y204622D01*
X404108D01*
Y205773D01*
X404054Y206043D01*
X403901Y206272D01*
X403673Y206424D01*
X403403Y206478D01*
X402565D01*
Y203602D01*
Y200727D01*
X403403D01*
X403673Y200780D01*
X403901Y200933D01*
X404054Y201162D01*
X404108Y201432D01*
Y202583D01*
X405094D01*
X405485Y202660D01*
X405816Y202881D01*
X410406Y207472D01*
X410627Y207803D01*
X410705Y208193D01*
Y226661D01*
X411185Y226708D01*
X411490Y225973D01*
X412052Y225411D01*
X412787Y225106D01*
X413583D01*
X414318Y225411D01*
X414881Y225973D01*
X415185Y226708D01*
Y227504D01*
X414881Y228239D01*
X414318Y228802D01*
X414205Y228849D01*
Y235763D01*
X417292Y238850D01*
X420815D01*
Y245362D01*
D02*
G37*
G36*
X402240D02*
X401382D01*
X400554Y245140D01*
X399812Y244712D01*
X399206Y244105D01*
X398777Y243363D01*
X398638Y242844D01*
X397439Y241645D01*
X393253Y237459D01*
X392963Y237401D01*
X392632Y237180D01*
X388548Y233096D01*
X388327Y232765D01*
X388249Y232375D01*
Y210251D01*
X388327Y209861D01*
X388548Y209530D01*
X393042Y205036D01*
Y201432D01*
X393095Y201162D01*
X393248Y200933D01*
X393477Y200780D01*
X393747Y200727D01*
X395922D01*
X396192Y200780D01*
X396411Y200927D01*
X396423Y200933D01*
X396705D01*
X396986D01*
X396998Y200927D01*
X397217Y200780D01*
X397487Y200727D01*
X398325D01*
Y203602D01*
Y206478D01*
X397487D01*
X397217Y206424D01*
X396998Y206278D01*
X396986Y206272D01*
X396705D01*
X396423D01*
X396411Y206278D01*
X396192Y206424D01*
X395922Y206478D01*
X394483D01*
X390288Y210673D01*
Y231953D01*
X392042Y233707D01*
X392504Y233515D01*
Y229606D01*
X392582Y229216D01*
X392638Y229132D01*
Y225464D01*
X392716Y225074D01*
X392835Y224895D01*
Y224681D01*
X392854Y224583D01*
Y221335D01*
X397004D01*
Y225878D01*
X394677D01*
Y227780D01*
X395036Y228122D01*
X398398D01*
Y231090D01*
X395036D01*
Y231090D01*
X394544Y231110D01*
Y235865D01*
X398686Y240008D01*
X399206Y240107D01*
X399812Y239501D01*
X400554Y239072D01*
X401382Y238850D01*
X402240D01*
X403068Y239072D01*
X403810Y239501D01*
X404416Y240107D01*
X404845Y240849D01*
X405067Y241678D01*
Y242535D01*
X404845Y243363D01*
X404416Y244105D01*
X403810Y244712D01*
X403068Y245140D01*
X402240Y245362D01*
D02*
G37*
G36*
X438834Y251691D02*
X437537D01*
X436265Y251437D01*
X435066Y250941D01*
X433988Y250221D01*
X433071Y249304D01*
X432350Y248225D01*
X431854Y247027D01*
X431601Y245755D01*
Y244458D01*
X431854Y243186D01*
X432350Y241987D01*
X433071Y240909D01*
X433988Y239992D01*
X435066Y239271D01*
X436265Y238775D01*
X437537Y238522D01*
X438834D01*
X440106Y238775D01*
X441304Y239271D01*
X442382Y239992D01*
X443299Y240909D01*
X444020Y241987D01*
X444516Y243186D01*
X444769Y244458D01*
Y245755D01*
X444516Y247027D01*
X444020Y248225D01*
X443299Y249304D01*
X442382Y250221D01*
X441304Y250941D01*
X440106Y251437D01*
X438834Y251691D01*
D02*
G37*
G36*
X381834D02*
X380537D01*
X379264Y251437D01*
X378066Y250941D01*
X376988Y250221D01*
X376071Y249304D01*
X375350Y248225D01*
X374854Y247027D01*
X374601Y245755D01*
Y244458D01*
X374854Y243186D01*
X375350Y241987D01*
X376071Y240909D01*
X376988Y239992D01*
X378066Y239271D01*
X379264Y238775D01*
X380537Y238522D01*
X381834D01*
X383106Y238775D01*
X384304Y239271D01*
X385382Y239992D01*
X386299Y240909D01*
X387020Y241987D01*
X387516Y243186D01*
X387769Y244458D01*
Y245755D01*
X387516Y247027D01*
X387020Y248225D01*
X386299Y249304D01*
X385382Y250221D01*
X384304Y250941D01*
X383106Y251437D01*
X381834Y251691D01*
D02*
G37*
G36*
X425185Y223211D02*
X423060Y221085D01*
X425185Y218960D01*
X427311Y221085D01*
X425185Y223211D01*
D02*
G37*
G36*
X422706Y220732D02*
X420580Y218606D01*
X422706Y216481D01*
X424831Y218606D01*
X422706Y220732D01*
D02*
G37*
G36*
X427664D02*
X425539Y218606D01*
X427664Y216481D01*
X429790Y218606D01*
X427664Y220732D01*
D02*
G37*
G36*
X425185Y218253D02*
X423060Y216127D01*
X425185Y214002D01*
X427311Y216127D01*
X425185Y218253D01*
D02*
G37*
G36*
X420614Y216862D02*
X419756D01*
X418928Y216640D01*
X418186Y216212D01*
X417580Y215605D01*
X417151Y214863D01*
X416929Y214035D01*
Y213178D01*
X417151Y212350D01*
X417580Y211607D01*
X418186Y211001D01*
X418928Y210572D01*
X419756Y210350D01*
X420614D01*
X421442Y210572D01*
X422184Y211001D01*
X422790Y211607D01*
X423219Y212350D01*
X423441Y213178D01*
Y214035D01*
X423219Y214863D01*
X422790Y215605D01*
X422184Y216212D01*
X421442Y216640D01*
X420614Y216862D01*
D02*
G37*
G36*
X402065Y206478D02*
X401227D01*
X400957Y206424D01*
X400729Y206272D01*
X400161D01*
X399932Y206424D01*
X399662Y206478D01*
X398825D01*
Y203602D01*
Y200727D01*
X399662D01*
X399932Y200780D01*
X400161Y200933D01*
X400729D01*
X400957Y200780D01*
X401227Y200727D01*
X402065D01*
Y203602D01*
Y206478D01*
D02*
G37*
G36*
X425614Y211862D02*
X424756D01*
X423928Y211640D01*
X423186Y211212D01*
X422580Y210605D01*
X422151Y209863D01*
X421929Y209035D01*
Y208178D01*
X422151Y207349D01*
X422580Y206607D01*
X423186Y206001D01*
X423928Y205572D01*
X424756Y205350D01*
X425614D01*
X426442Y205572D01*
X427184Y206001D01*
X427790Y206607D01*
X428219Y207349D01*
X428441Y208178D01*
Y209035D01*
X428219Y209863D01*
X427790Y210605D01*
X427184Y211212D01*
X426442Y211640D01*
X425614Y211862D01*
D02*
G37*
G36*
X438834Y199690D02*
X437537D01*
X436265Y199437D01*
X435066Y198941D01*
X433988Y198221D01*
X433071Y197303D01*
X432350Y196225D01*
X431854Y195027D01*
X431601Y193755D01*
Y192458D01*
X431854Y191186D01*
X432350Y189988D01*
X433071Y188909D01*
X433988Y187992D01*
X435066Y187271D01*
X436265Y186775D01*
X437537Y186522D01*
X438834D01*
X440106Y186775D01*
X441304Y187271D01*
X442382Y187992D01*
X443299Y188909D01*
X444020Y189988D01*
X444516Y191186D01*
X444769Y192458D01*
Y193755D01*
X444516Y195027D01*
X444020Y196225D01*
X443299Y197303D01*
X442382Y198221D01*
X441304Y198941D01*
X440106Y199437D01*
X438834Y199690D01*
D02*
G37*
G36*
X381834D02*
X380537D01*
X379264Y199437D01*
X378066Y198941D01*
X376988Y198221D01*
X376071Y197303D01*
X375350Y196225D01*
X374854Y195027D01*
X374601Y193755D01*
Y192458D01*
X374854Y191186D01*
X375350Y189988D01*
X376071Y188909D01*
X376988Y187992D01*
X378066Y187271D01*
X379264Y186775D01*
X380537Y186522D01*
X381834D01*
X383106Y186775D01*
X384304Y187271D01*
X385382Y187992D01*
X386299Y188909D01*
X387020Y189988D01*
X387516Y191186D01*
X387769Y192458D01*
Y193755D01*
X387516Y195027D01*
X387020Y196225D01*
X386299Y197303D01*
X385382Y198221D01*
X384304Y198941D01*
X383106Y199437D01*
X381834Y199690D01*
D02*
G37*
G36*
X532834Y157584D02*
X531537D01*
X530265Y157331D01*
X529066Y156835D01*
X527988Y156114D01*
X527071Y155197D01*
X526350Y154119D01*
X525854Y152921D01*
X525601Y151648D01*
Y150352D01*
X525854Y149080D01*
X526350Y147881D01*
X527071Y146803D01*
X527988Y145886D01*
X529066Y145165D01*
X530265Y144669D01*
X531537Y144416D01*
X532834D01*
X534106Y144669D01*
X535304Y145165D01*
X536382Y145886D01*
X537299Y146803D01*
X538020Y147881D01*
X538516Y149080D01*
X538769Y150352D01*
Y151648D01*
X538516Y152921D01*
X538020Y154119D01*
X537299Y155197D01*
X536382Y156114D01*
X535304Y156835D01*
X534106Y157331D01*
X532834Y157584D01*
D02*
G37*
G36*
X475834D02*
X474537D01*
X473265Y157331D01*
X472066Y156835D01*
X470988Y156114D01*
X470071Y155197D01*
X469350Y154119D01*
X468854Y152921D01*
X468601Y151648D01*
Y150352D01*
X468854Y149080D01*
X469350Y147881D01*
X470071Y146803D01*
X470988Y145886D01*
X472066Y145165D01*
X473265Y144669D01*
X474537Y144416D01*
X475834D01*
X477106Y144669D01*
X478304Y145165D01*
X479382Y145886D01*
X480299Y146803D01*
X481020Y147881D01*
X481516Y149080D01*
X481769Y150352D01*
Y151648D01*
X481516Y152921D01*
X481020Y154119D01*
X480299Y155197D01*
X479382Y156114D01*
X478304Y156835D01*
X477106Y157331D01*
X475834Y157584D01*
D02*
G37*
G36*
X481143Y136480D02*
X475932D01*
Y128750D01*
X481143D01*
Y136480D01*
D02*
G37*
G36*
X475432D02*
X470221D01*
Y128750D01*
X475432D01*
Y136480D01*
D02*
G37*
G36*
X515183Y135878D02*
X514211D01*
X513273Y135627D01*
X512432Y135141D01*
X511745Y134454D01*
X511259Y133613D01*
X511008Y132675D01*
Y131703D01*
X511259Y130765D01*
X511745Y129924D01*
X512432Y129237D01*
X513273Y128751D01*
X514211Y128500D01*
X515183D01*
X516121Y128751D01*
X516962Y129237D01*
X517649Y129924D01*
X518134Y130765D01*
X518386Y131703D01*
Y132675D01*
X518134Y133613D01*
X517649Y134454D01*
X516962Y135141D01*
X516121Y135627D01*
X515183Y135878D01*
D02*
G37*
G36*
X511482Y147689D02*
X510510D01*
X509572Y147438D01*
X508731Y146952D01*
X508044Y146265D01*
X507559Y145424D01*
X507307Y144486D01*
Y143514D01*
X507559Y142576D01*
X508044Y141735D01*
X508731Y141048D01*
X509572Y140562D01*
X510510Y140311D01*
X511482D01*
X512420Y140562D01*
X512782Y140772D01*
X524444Y129110D01*
Y124020D01*
X523878D01*
Y126453D01*
X517366D01*
Y119547D01*
X523878D01*
Y121980D01*
X524878D01*
X525268Y122058D01*
X525599Y122279D01*
X526185Y122865D01*
X526406Y123196D01*
X526483Y123586D01*
Y129532D01*
X526406Y129922D01*
X526185Y130253D01*
X514224Y142214D01*
X514434Y142576D01*
X514685Y143514D01*
Y144486D01*
X514434Y145424D01*
X513948Y146265D01*
X513261Y146952D01*
X512420Y147438D01*
X511482Y147689D01*
D02*
G37*
G36*
X486162Y124018D02*
X484377D01*
Y120520D01*
X486162D01*
Y124018D01*
D02*
G37*
G36*
X481143Y128250D02*
X475932D01*
Y120520D01*
X481143D01*
Y123248D01*
X482091D01*
Y120520D01*
X483877D01*
Y124268D01*
Y128016D01*
X482091D01*
Y125287D01*
X481143D01*
Y128250D01*
D02*
G37*
G36*
X475432D02*
X470221D01*
Y120520D01*
X475432D01*
Y128250D01*
D02*
G37*
G36*
X500920Y149209D02*
X495374D01*
X494984Y149131D01*
X494653Y148910D01*
X483359Y137616D01*
X483138Y137285D01*
X483060Y136895D01*
Y136480D01*
X482091D01*
Y128984D01*
X485036D01*
X485227Y128522D01*
X484720Y128016D01*
X484377D01*
Y124518D01*
X486162D01*
Y126574D01*
X498877Y139289D01*
X499098Y139620D01*
X499176Y140010D01*
Y140311D01*
X499671D01*
X500609Y140562D01*
X501450Y141048D01*
X502137Y141735D01*
X502623Y142576D01*
X502874Y143514D01*
Y144086D01*
X503374Y144293D01*
X504687Y142981D01*
Y130239D01*
X504764Y129849D01*
X504985Y129518D01*
X509492Y125011D01*
Y119547D01*
X516004D01*
Y126453D01*
X510934D01*
X506726Y130661D01*
Y143403D01*
X506648Y143793D01*
X506427Y144124D01*
X501641Y148910D01*
X501310Y149131D01*
X500920Y149209D01*
D02*
G37*
G36*
X532834Y115584D02*
X531537D01*
X530265Y115331D01*
X529066Y114835D01*
X527988Y114114D01*
X527071Y113197D01*
X526350Y112119D01*
X525854Y110921D01*
X525601Y109649D01*
Y108352D01*
X525854Y107080D01*
X526350Y105881D01*
X527071Y104803D01*
X527988Y103886D01*
X529066Y103165D01*
X530265Y102669D01*
X531537Y102416D01*
X532834D01*
X534106Y102669D01*
X535304Y103165D01*
X536382Y103886D01*
X537299Y104803D01*
X538020Y105881D01*
X538516Y107080D01*
X538769Y108352D01*
Y109649D01*
X538516Y110921D01*
X538020Y112119D01*
X537299Y113197D01*
X536382Y114114D01*
X535304Y114835D01*
X534106Y115331D01*
X532834Y115584D01*
D02*
G37*
G36*
X475834D02*
X474537D01*
X473265Y115331D01*
X472066Y114835D01*
X470988Y114114D01*
X470071Y113197D01*
X469350Y112119D01*
X468854Y110921D01*
X468601Y109649D01*
Y108352D01*
X468854Y107080D01*
X469350Y105881D01*
X470071Y104803D01*
X470988Y103886D01*
X472066Y103165D01*
X473265Y102669D01*
X474537Y102416D01*
X475834D01*
X477106Y102669D01*
X478304Y103165D01*
X479382Y103886D01*
X480299Y104803D01*
X481020Y105881D01*
X481516Y107080D01*
X481769Y108352D01*
Y109649D01*
X481516Y110921D01*
X481020Y112119D01*
X480299Y113197D01*
X479382Y114114D01*
X478304Y114835D01*
X477106Y115331D01*
X475834Y115584D01*
D02*
G37*
%LPD*%
G36*
X496637Y146669D02*
X496233Y146265D01*
X495748Y145424D01*
X495496Y144486D01*
Y144250D01*
X499185D01*
Y143750D01*
X495496D01*
Y143514D01*
X495748Y142576D01*
X496233Y141735D01*
X496920Y141048D01*
X497136Y140923D01*
Y140432D01*
X486624Y129920D01*
X486162Y130111D01*
Y136480D01*
X485761D01*
X485569Y136942D01*
X495796Y147169D01*
X496430D01*
X496637Y146669D01*
D02*
G37*
%LPC*%
G36*
X438148Y157584D02*
X436852D01*
X435579Y157331D01*
X434381Y156835D01*
X433303Y156114D01*
X432386Y155197D01*
X431665Y154119D01*
X431169Y152921D01*
X430916Y151648D01*
Y150352D01*
X431169Y149080D01*
X431665Y147881D01*
X432386Y146803D01*
X433303Y145886D01*
X434381Y145165D01*
X435579Y144669D01*
X436852Y144416D01*
X438148D01*
X439421Y144669D01*
X440619Y145165D01*
X441697Y145886D01*
X442614Y146803D01*
X443335Y147881D01*
X443831Y149080D01*
X444084Y150352D01*
Y151648D01*
X443831Y152921D01*
X443335Y154119D01*
X442614Y155197D01*
X441697Y156114D01*
X440619Y156835D01*
X439421Y157331D01*
X438148Y157584D01*
D02*
G37*
G36*
X381149D02*
X379852D01*
X378579Y157331D01*
X377381Y156835D01*
X376303Y156114D01*
X375386Y155197D01*
X374665Y154119D01*
X374169Y152921D01*
X373916Y151648D01*
Y150352D01*
X374169Y149080D01*
X374665Y147881D01*
X375386Y146803D01*
X376303Y145886D01*
X377381Y145165D01*
X378579Y144669D01*
X379852Y144416D01*
X381149D01*
X382421Y144669D01*
X383619Y145165D01*
X384697Y145886D01*
X385614Y146803D01*
X386335Y147881D01*
X386831Y149080D01*
X387084Y150352D01*
Y151648D01*
X386831Y152921D01*
X386335Y154119D01*
X385614Y155197D01*
X384697Y156114D01*
X383619Y156835D01*
X382421Y157331D01*
X381149Y157584D01*
D02*
G37*
G36*
X386457Y136480D02*
X381247D01*
Y128750D01*
X386457D01*
Y136480D01*
D02*
G37*
G36*
X380747D02*
X375536D01*
Y128750D01*
X380747D01*
Y136480D01*
D02*
G37*
G36*
X420498Y135878D02*
X419526D01*
X418588Y135627D01*
X417747Y135141D01*
X417060Y134454D01*
X416574Y133613D01*
X416323Y132675D01*
Y131703D01*
X416574Y130765D01*
X417060Y129924D01*
X417747Y129237D01*
X418588Y128751D01*
X419526Y128500D01*
X420498D01*
X421436Y128751D01*
X422277Y129237D01*
X422964Y129924D01*
X423449Y130765D01*
X423701Y131703D01*
Y132675D01*
X423449Y133613D01*
X422964Y134454D01*
X422277Y135141D01*
X421436Y135627D01*
X420498Y135878D01*
D02*
G37*
G36*
X416797Y147689D02*
X415825D01*
X414887Y147438D01*
X414046Y146952D01*
X413359Y146265D01*
X412874Y145424D01*
X412622Y144486D01*
Y143514D01*
X412874Y142576D01*
X413359Y141735D01*
X414046Y141048D01*
X414887Y140562D01*
X415825Y140311D01*
X416797D01*
X417735Y140562D01*
X418097Y140772D01*
X429759Y129110D01*
Y124020D01*
X429193D01*
Y126453D01*
X422681D01*
Y119547D01*
X429193D01*
Y121980D01*
X430193D01*
X430583Y122058D01*
X430914Y122279D01*
X431500Y122865D01*
X431721Y123196D01*
X431798Y123586D01*
Y129532D01*
X431721Y129922D01*
X431500Y130253D01*
X419539Y142214D01*
X419749Y142576D01*
X420000Y143514D01*
Y144486D01*
X419749Y145424D01*
X419263Y146265D01*
X418576Y146952D01*
X417735Y147438D01*
X416797Y147689D01*
D02*
G37*
G36*
X391477Y124018D02*
X389692D01*
Y120520D01*
X391477D01*
Y124018D01*
D02*
G37*
G36*
X386457Y128250D02*
X381247D01*
Y120520D01*
X386457D01*
Y123248D01*
X387406D01*
Y120520D01*
X389192D01*
Y124268D01*
Y128016D01*
X387406D01*
Y125287D01*
X386457D01*
Y128250D01*
D02*
G37*
G36*
X380747D02*
X375536D01*
Y120520D01*
X380747D01*
Y128250D01*
D02*
G37*
G36*
X406235Y149209D02*
X400689D01*
X400299Y149131D01*
X399968Y148910D01*
X388674Y137616D01*
X388453Y137285D01*
X388375Y136895D01*
Y136480D01*
X387406D01*
Y128984D01*
X390350D01*
X390542Y128522D01*
X390035Y128016D01*
X389692D01*
Y124518D01*
X391477D01*
Y126574D01*
X404192Y139289D01*
X404413Y139620D01*
X404491Y140010D01*
Y140311D01*
X404986D01*
X405924Y140562D01*
X406765Y141048D01*
X407452Y141735D01*
X407938Y142576D01*
X408189Y143514D01*
Y144086D01*
X408689Y144293D01*
X410002Y142981D01*
Y130239D01*
X410079Y129849D01*
X410300Y129518D01*
X414807Y125011D01*
Y119547D01*
X421319D01*
Y126453D01*
X416249D01*
X412041Y130661D01*
Y143403D01*
X411963Y143793D01*
X411742Y144124D01*
X406956Y148910D01*
X406625Y149131D01*
X406235Y149209D01*
D02*
G37*
G36*
X438148Y115584D02*
X436852D01*
X435579Y115331D01*
X434381Y114835D01*
X433303Y114114D01*
X432386Y113197D01*
X431665Y112119D01*
X431169Y110921D01*
X430916Y109649D01*
Y108352D01*
X431169Y107080D01*
X431665Y105881D01*
X432386Y104803D01*
X433303Y103886D01*
X434381Y103165D01*
X435579Y102669D01*
X436852Y102416D01*
X438148D01*
X439421Y102669D01*
X440619Y103165D01*
X441697Y103886D01*
X442614Y104803D01*
X443335Y105881D01*
X443831Y107080D01*
X444084Y108352D01*
Y109649D01*
X443831Y110921D01*
X443335Y112119D01*
X442614Y113197D01*
X441697Y114114D01*
X440619Y114835D01*
X439421Y115331D01*
X438148Y115584D01*
D02*
G37*
G36*
X381149D02*
X379852D01*
X378579Y115331D01*
X377381Y114835D01*
X376303Y114114D01*
X375386Y113197D01*
X374665Y112119D01*
X374169Y110921D01*
X373916Y109649D01*
Y108352D01*
X374169Y107080D01*
X374665Y105881D01*
X375386Y104803D01*
X376303Y103886D01*
X377381Y103165D01*
X378579Y102669D01*
X379852Y102416D01*
X381149D01*
X382421Y102669D01*
X383619Y103165D01*
X384697Y103886D01*
X385614Y104803D01*
X386335Y105881D01*
X386831Y107080D01*
X387084Y108352D01*
Y109649D01*
X386831Y110921D01*
X386335Y112119D01*
X385614Y113197D01*
X384697Y114114D01*
X383619Y114835D01*
X382421Y115331D01*
X381149Y115584D01*
D02*
G37*
%LPD*%
G36*
X401952Y146669D02*
X401548Y146265D01*
X401062Y145424D01*
X400811Y144486D01*
Y144250D01*
X404500D01*
Y143750D01*
X400811D01*
Y143514D01*
X401062Y142576D01*
X401548Y141735D01*
X402235Y141048D01*
X402451Y140923D01*
Y140432D01*
X391939Y129920D01*
X391477Y130111D01*
Y136480D01*
X391076D01*
X390884Y136942D01*
X401111Y147169D01*
X401745D01*
X401952Y146669D01*
D02*
G37*
D10*
X380997Y128500D02*
D03*
X475682D02*
D03*
D11*
X389442Y132732D02*
D03*
Y124268D02*
D03*
X484127Y132732D02*
D03*
Y124268D02*
D03*
D12*
X418063Y123000D02*
D03*
X425937D02*
D03*
X512748D02*
D03*
X520622D02*
D03*
X258474Y157900D02*
D03*
X250600D02*
D03*
D13*
X425937Y123000D02*
X430193D01*
X430779Y123586D01*
Y129532D01*
X416311Y144000D02*
X430779Y129532D01*
X418063Y123000D02*
Y123197D01*
X411021Y130239D02*
X418063Y123197D01*
X411021Y130239D02*
Y143403D01*
X406235Y148189D02*
X411021Y143403D01*
X400689Y148189D02*
X406235D01*
X389394Y136895D02*
X400689Y148189D01*
X389394Y133182D02*
Y136895D01*
X403471Y142971D02*
X404500Y144000D01*
X403471Y140010D02*
Y142971D01*
X389442Y125980D02*
X403471Y140010D01*
X388945Y125980D02*
X389442D01*
X388945Y124268D02*
Y125980D01*
X380500Y128500D02*
X381500Y127500D01*
X381614Y127614D02*
X382118Y127110D01*
X380500Y128500D02*
Y128728D01*
X381614Y127614D01*
X382118Y127110D02*
X384961Y124268D01*
X388945D01*
X520622Y123000D02*
X524878D01*
X525464Y123586D01*
Y129532D01*
X510996Y144000D02*
X525464Y129532D01*
X512748Y123000D02*
Y123197D01*
X505706Y130239D02*
X512748Y123197D01*
X505706Y130239D02*
Y143403D01*
X500920Y148189D02*
X505706Y143403D01*
X495374Y148189D02*
X500920D01*
X484080Y136895D02*
X495374Y148189D01*
X484080Y133182D02*
Y136895D01*
X498156Y142971D02*
X499185Y144000D01*
X498156Y140010D02*
Y142971D01*
X484127Y125980D02*
X498156Y140010D01*
X483630Y125980D02*
X484127D01*
X483630Y124268D02*
Y125980D01*
X475185Y128500D02*
X476185Y127500D01*
X476299Y127614D02*
X476803Y127110D01*
X475185Y128500D02*
Y128728D01*
X476299Y127614D01*
X476803Y127110D02*
X479646Y124268D01*
X483630D01*
X564700Y361199D02*
X563185Y362714D01*
X567671Y358228D02*
X564700Y361199D01*
X563185Y362714D02*
Y359685D01*
X557536Y358520D02*
X554350D01*
X553185Y359685D01*
X557085Y333685D02*
X554685D01*
X557671Y334271D02*
X557085Y333685D01*
X557671Y358385D02*
Y334271D01*
Y358385D02*
X557536Y358520D01*
X564700Y361199D02*
X563185Y359685D01*
X564700Y361199D02*
Y361199D01*
X567085Y333685D02*
X564685D01*
X567671Y334271D02*
X567085Y333685D01*
X567671Y358228D02*
Y334271D01*
X537085Y333685D02*
X534685D01*
X537671Y334271D02*
X537085Y333685D01*
X537671Y355199D02*
Y334271D01*
Y355199D02*
X533185Y359685D01*
X546528Y359685D02*
X543185D01*
X543185Y359685D01*
X547085Y333685D02*
X544685D01*
X547671Y334271D02*
X547085Y333685D01*
X547671Y358542D02*
Y334271D01*
Y358542D02*
X546528Y359685D01*
X523342Y359528D02*
Y297728D01*
Y359528D02*
X523185Y359685D01*
X534685Y286385D02*
Y284685D01*
Y286385D02*
X523342Y297728D01*
X533185Y363185D02*
Y359685D01*
X534935Y361435D02*
X533185Y363185D01*
X445014Y361199D02*
X443500Y362714D01*
X447986Y358228D02*
X445014Y361199D01*
X443500Y362714D02*
Y359685D01*
X437851Y358520D02*
X434665D01*
X433500Y359685D01*
X437400Y333685D02*
X435000D01*
X437986Y334271D02*
X437400Y333685D01*
X437986Y358385D02*
Y334271D01*
Y358385D02*
X437851Y358520D01*
X445014Y361199D02*
X443500Y359685D01*
X445014Y361199D02*
Y361199D01*
X447400Y333685D02*
X445000D01*
X447986Y334271D02*
X447400Y333685D01*
X447986Y358228D02*
Y334271D01*
X417400Y333685D02*
X415000D01*
X417986Y334271D02*
X417400Y333685D01*
X417986Y355199D02*
Y334271D01*
Y355199D02*
X413500Y359685D01*
X426843Y359685D02*
X423500D01*
X423500Y359685D01*
X427400Y333685D02*
X425000D01*
X427986Y334271D02*
X427400Y333685D01*
X427986Y358542D02*
Y334271D01*
Y358542D02*
X426843Y359685D01*
X403657Y359528D02*
Y297728D01*
Y359528D02*
X403500Y359685D01*
X415000Y286385D02*
Y284685D01*
Y286385D02*
X403657Y297728D01*
X413500Y363185D02*
Y359685D01*
X415250Y361435D02*
X413500Y363185D01*
X413185Y236185D02*
X419528Y242528D01*
X413185Y227106D02*
Y236185D01*
X409685Y208193D02*
Y242606D01*
X402811Y215106D02*
X406685D01*
X402508Y215409D02*
X402811Y215106D01*
X397642Y219106D02*
X398685D01*
X394835Y216299D02*
X397642Y219106D01*
X400654Y223606D02*
Y229606D01*
X402508Y215409D02*
Y220950D01*
X401516Y221942D02*
Y222744D01*
Y221942D02*
X402508Y220950D01*
X400654Y223606D02*
X401516Y222744D01*
X393657Y225464D02*
Y229606D01*
X393854Y224681D02*
X394929Y223606D01*
X393854Y224681D02*
Y225267D01*
X393657Y225464D02*
X393854Y225267D01*
X398160Y240924D02*
X399843Y242606D01*
X393524Y236288D02*
X398160Y240924D01*
X389269Y232375D02*
X393353Y236459D01*
X389269Y210251D02*
Y232375D01*
Y210251D02*
X394835Y204685D01*
Y203602D02*
Y204685D01*
X419528Y242528D02*
Y242606D01*
X398575Y203602D02*
X405094D01*
X409685Y208193D01*
X393524Y229606D02*
Y236288D01*
Y229606D02*
X396717D01*
X398575Y203602D02*
X399354Y202823D01*
X425185Y218606D02*
X425185D01*
X394835Y215216D02*
Y216299D01*
X507870Y236185D02*
X514213Y242528D01*
X507870Y227106D02*
Y236185D01*
X504370Y208193D02*
Y242606D01*
X497496Y215106D02*
X501370D01*
X497193Y215409D02*
X497496Y215106D01*
X492327Y219106D02*
X493370D01*
X489520Y216299D02*
X492327Y219106D01*
X495339Y223606D02*
Y229606D01*
X497193Y215409D02*
Y220950D01*
X496201Y221942D02*
Y222744D01*
Y221942D02*
X497193Y220950D01*
X495339Y223606D02*
X496201Y222744D01*
X488343Y225464D02*
Y229606D01*
X488540Y224681D02*
X489614Y223606D01*
X488540Y224681D02*
Y225267D01*
X488343Y225464D02*
X488540Y225267D01*
X492845Y240924D02*
X494528Y242606D01*
X488209Y236288D02*
X492845Y240924D01*
X483954Y232375D02*
X488038Y236459D01*
X483954Y210251D02*
Y232375D01*
Y210251D02*
X489520Y204685D01*
Y203602D02*
Y204685D01*
X514213Y242528D02*
Y242606D01*
X493260Y203602D02*
X499780D01*
X504370Y208193D01*
X488209Y229606D02*
Y236288D01*
Y229606D02*
X491402D01*
X493260Y203602D02*
X494039Y202823D01*
X519870Y218606D02*
X519870D01*
X489520Y215216D02*
Y216299D01*
X300331Y162772D02*
X301346D01*
X299256Y161697D02*
X300331Y162772D01*
X299256Y161500D02*
Y161697D01*
X301346Y162772D02*
X305787Y167213D01*
X328000Y163000D02*
X331000D01*
X262839Y244500D02*
X281339D01*
X263012Y256831D02*
X263441Y257260D01*
Y245602D02*
Y256831D01*
X262839Y245000D02*
X263441Y245602D01*
X262839Y244500D02*
Y245000D01*
X253559Y252324D02*
Y257260D01*
Y252324D02*
X255161Y250722D01*
Y245000D02*
Y250722D01*
Y244500D02*
Y245000D01*
X172665Y319500D02*
X173916Y318250D01*
Y314758D02*
Y318250D01*
Y314758D02*
X174069Y314605D01*
X193416Y290758D02*
X203934Y280240D01*
X174069Y312376D02*
Y314605D01*
X203934Y280240D02*
X209807D01*
X174069Y312376D02*
X176945Y309500D01*
X164000Y319500D02*
X168532D01*
X153784Y309284D02*
X164000Y319500D01*
X115784Y309284D02*
X153784D01*
X105000Y298500D02*
X115784Y309284D01*
X168794Y313639D02*
Y319237D01*
X168532Y319500D02*
X168794Y319237D01*
Y313639D02*
X169193Y313240D01*
X172468Y319500D02*
X172665D01*
X176945Y309500D02*
X180807D01*
X164532Y280902D02*
X165193Y280240D01*
X164532Y280902D02*
Y288000D01*
X125000D02*
X164532D01*
X105000Y268000D02*
X125000Y288000D01*
X167787D02*
X168665D01*
X170837Y279000D02*
Y285828D01*
X168665Y288000D02*
X170837Y285828D01*
X168272Y288000D02*
X168468D01*
X176807Y276500D02*
X176879Y276428D01*
X170837Y279000D02*
X173337Y276500D01*
X176807D01*
X168468Y255000D02*
X168468D01*
Y249882D02*
Y255000D01*
Y249882D02*
X170500Y247850D01*
Y243000D02*
Y247850D01*
X122500Y255000D02*
X164532D01*
X105000Y237500D02*
X122500Y255000D01*
X164532Y247902D02*
Y255000D01*
Y247902D02*
X165193Y247240D01*
X163697Y216020D02*
X164476Y215240D01*
X157036Y223500D02*
X163697D01*
X164476Y215240D02*
X165193D01*
X163697Y216020D02*
Y223500D01*
X139035Y205500D02*
X157036Y223500D01*
X105000Y205500D02*
X139035D01*
X170837Y217000D02*
Y220493D01*
X167831Y223500D02*
X170837Y220493D01*
X167634Y223500D02*
X167831D01*
X170837Y217000D02*
X170837D01*
X173445Y214392D01*
Y213659D02*
Y214392D01*
X174143Y212961D02*
X174264D01*
X173445Y213659D02*
X174143Y212961D01*
X175724Y211500D02*
X176807D01*
X174264Y212961D02*
X175724Y211500D01*
X104750Y205250D02*
X105000Y205500D01*
X102620Y203120D02*
X104750Y205250D01*
X220000Y221075D02*
X232976Y208098D01*
X234453D01*
X218000Y219500D02*
X218425D01*
X232976Y204949D01*
X234453D01*
X212477Y222298D02*
X232976Y201799D01*
X234453D01*
X224126Y207500D02*
X232976Y198650D01*
X234453D01*
X210547Y207500D02*
X224126D01*
X325500Y165500D02*
X328000Y163000D01*
X278547Y189201D02*
X282299D01*
X287092Y184408D01*
Y176927D02*
Y184408D01*
Y176927D02*
X290799Y173221D01*
X292218D02*
X292407Y173031D01*
X290799Y173221D02*
X292218D01*
X327788Y210529D02*
X329500Y212241D01*
X327788Y210288D02*
Y210529D01*
X322449Y204949D02*
X327788Y210288D01*
X329500Y212241D02*
Y214000D01*
X330500Y235000D02*
Y241000D01*
X329500Y234000D02*
X330500Y235000D01*
X323819Y247681D02*
Y255563D01*
Y247681D02*
X330500Y241000D01*
X329500Y234000D02*
X336000Y227500D01*
X331500Y179500D02*
X336000Y184000D01*
Y227500D01*
X278547Y204949D02*
X322449D01*
X166000Y201000D02*
Y206980D01*
X165220Y207760D02*
X166000Y206980D01*
X165193Y207760D02*
X165220D01*
X218000Y219500D02*
Y264567D01*
X209807Y272760D02*
X218000Y264567D01*
X220000Y221075D02*
Y300150D01*
X223000Y239925D02*
Y304686D01*
Y239925D02*
X243902Y219024D01*
X202500Y329000D02*
X221500Y310000D01*
Y236799D02*
Y310000D01*
Y236799D02*
X239188Y219112D01*
X214960Y305189D02*
X220000Y300150D01*
X223000Y304686D02*
X252314Y334000D01*
X305787Y167213D02*
X309000Y170425D01*
X300035Y173031D02*
X305787Y167280D01*
Y167213D02*
Y167280D01*
X299592Y173031D02*
X300035D01*
X309000Y170425D02*
Y179577D01*
X298953D02*
X309000D01*
X314577D01*
X241372Y257256D02*
X245000D01*
X237000Y258000D02*
X240628D01*
X236803D02*
X237000D01*
X222843Y336000D02*
X223743Y336900D01*
X222843Y335507D02*
Y336000D01*
X302000Y198256D02*
X310500D01*
X165193Y239307D02*
X166728D01*
X173535Y232500D01*
X314577Y179577D02*
X322000Y187000D01*
X308000Y186716D02*
X309228Y187945D01*
Y190169D02*
X310303Y191244D01*
X310500D01*
X309228Y187945D02*
Y190169D01*
X308000Y186500D02*
Y186716D01*
X302050Y201799D02*
X302631Y202381D01*
X278547Y201799D02*
X302050D01*
X324119Y202381D02*
X325500Y201000D01*
X302631Y202381D02*
X324119D01*
X325500Y165500D02*
Y201000D01*
X321563Y253677D02*
Y256798D01*
Y253307D02*
Y253677D01*
X321547Y253693D02*
X321563Y253677D01*
X310750Y244750D02*
X319693Y253693D01*
X321547D01*
X298911Y244750D02*
X310750D01*
X303489Y256814D02*
X321547D01*
X298661Y244500D02*
X298911Y244750D01*
X321547Y256814D02*
X321563Y256798D01*
X301000Y259303D02*
X303489Y256814D01*
X323819Y255563D02*
X324000D01*
X321563Y253307D02*
X323819Y255563D01*
X284692Y176308D02*
X289945Y171055D01*
X284692Y176308D02*
Y181383D01*
X280024Y186051D02*
X284692Y181383D01*
X291358Y182358D02*
X291500Y182500D01*
X284500Y192500D02*
X289100Y187900D01*
Y177041D02*
X290952Y175189D01*
X289100Y177041D02*
Y187900D01*
X291358Y177575D02*
Y182358D01*
Y177575D02*
X291965Y176969D01*
X290952Y175189D02*
X292218D01*
X292858Y170203D02*
Y171055D01*
X289945D02*
X292858D01*
X292218Y175189D02*
X292407Y175000D01*
X291965Y176969D02*
X292407D01*
X287406Y192988D02*
X292500D01*
X284894Y195500D02*
X287406Y192988D01*
X278622Y192425D02*
X284425D01*
X278547Y195500D02*
X284894D01*
X284425Y192425D02*
X284500Y192500D01*
X278547Y192350D02*
X278622Y192425D01*
X292500Y192988D02*
X301756D01*
X278547Y186051D02*
X280024D01*
X264121Y148500D02*
X278547Y162926D01*
X278423Y179876D02*
X278547Y179752D01*
Y162926D02*
Y179752D01*
X296237Y175304D02*
Y175521D01*
X296716Y176000D01*
X297000Y170439D02*
Y175489D01*
X297528Y175189D02*
X299404D01*
X296716Y176000D02*
X297528Y175189D01*
X295016Y174083D02*
X296237Y175304D01*
X295016Y170423D02*
Y174083D01*
X296984Y170423D02*
X297000Y170439D01*
X297866Y223260D02*
X298196Y222930D01*
X292984Y216150D02*
X293181D01*
X292500Y215469D02*
Y215665D01*
X292984Y216150D01*
X293181D02*
X298196Y221164D01*
Y222930D01*
X297776Y211531D02*
X298244Y212000D01*
X292500Y211531D02*
X297776D01*
X292217Y211248D02*
X292500Y211531D01*
X278547Y211248D02*
X292217D01*
X193000Y335500D02*
X199500Y329000D01*
X193000Y335500D02*
Y336000D01*
X240752Y217547D02*
Y218573D01*
X240214Y219112D02*
X240752Y218573D01*
X239188Y219112D02*
X240214D01*
X199500Y329000D02*
X202500D01*
X271653Y314153D02*
Y333339D01*
X271500Y314000D02*
X271653Y314153D01*
Y333339D02*
X272314Y334000D01*
X240628Y258000D02*
X241372Y257256D01*
X245000Y257756D02*
X245496Y257260D01*
X253559D01*
X235500Y254000D02*
Y256339D01*
Y242032D02*
Y254000D01*
Y256339D02*
X235728Y256568D01*
Y256925D02*
X236803Y258000D01*
X235728Y256568D02*
Y256925D01*
X233000Y233075D02*
Y259709D01*
Y233075D02*
X247051Y219024D01*
X233000Y259709D02*
X236803Y263512D01*
X284382Y208098D02*
X284784Y208500D01*
X285000D01*
X278547Y208098D02*
X284382D01*
X297866Y230740D02*
X299244D01*
X305847Y237343D01*
Y237847D01*
X306000Y238000D01*
X278224Y225000D02*
X292000D01*
X272248Y219024D02*
X278224Y225000D01*
X277500Y229500D02*
X289000D01*
X269098Y221098D02*
X277500Y229500D01*
X271017Y233500D02*
X286000D01*
X259587Y222071D02*
X271017Y233500D01*
X170276Y305760D02*
X171882Y304153D01*
X173268D02*
X173422Y304000D01*
X169193Y305760D02*
X170276D01*
X171882Y304153D02*
X173268D01*
X180807Y305760D02*
X186272D01*
X186500Y305532D01*
X180807Y313240D02*
X181890D01*
X182407Y313758D01*
X186500Y309665D01*
Y309469D02*
Y309665D01*
Y309469D02*
X186516Y309484D01*
X190547D01*
X190563Y309500D01*
X186500Y305532D02*
X186614Y305646D01*
X201579D01*
X201693Y305760D01*
X197531Y309500D02*
X201693D01*
X201693Y309500D01*
X200913Y310279D02*
X201693Y309500D01*
X199710Y310279D02*
X200913D01*
X211654Y305189D02*
X214960D01*
X212224Y305760D02*
X213307D01*
X211654Y305189D02*
X212224Y305760D01*
X197531Y309500D02*
X197548D01*
X197548Y309500D01*
X282157Y334000D02*
X282157D01*
X243902Y217547D02*
Y219024D01*
X183000Y273835D02*
Y274031D01*
X181925Y272760D02*
X183000Y273835D01*
X176807Y272760D02*
X181925D01*
X183000Y277969D02*
Y278165D01*
X180925Y280240D02*
X183000Y278165D01*
X176807Y280240D02*
X180925D01*
X186516Y277984D02*
X186531Y278000D01*
X183000Y277984D02*
X186516D01*
X183000Y273933D02*
Y274031D01*
X197110Y272760D02*
X198193D01*
X195937Y273933D02*
X197110Y272760D01*
X183000Y273933D02*
X195937D01*
X194504Y277279D02*
X197413D01*
X190469Y278000D02*
X193351D01*
X194283Y277500D02*
X194504Y277279D01*
X197413D02*
X198193Y276500D01*
X193351Y278000D02*
X193851Y277500D01*
X194283D01*
X165193Y272760D02*
X166276D01*
X169847Y267153D02*
Y269188D01*
X166276Y272760D02*
X169847Y269188D01*
Y267153D02*
X170000Y267000D01*
X208724Y272760D02*
X209807D01*
X194500Y309500D02*
X197548D01*
X192305Y242930D02*
X194836D01*
X192370Y211598D02*
X192469Y211697D01*
X192272Y211500D02*
X192370Y211598D01*
X192567D01*
X184386Y239646D02*
X184636Y239396D01*
X176807Y239760D02*
X176921Y239646D01*
X184386D01*
X176807Y247240D02*
X177587Y246461D01*
X179024D01*
X182016Y243468D01*
X184500D01*
X184636Y239396D02*
X199057D01*
X199193Y239260D01*
X184500Y243468D02*
X184752Y243217D01*
X188081D01*
X188332Y242965D01*
X194801Y242965D02*
X194818Y242982D01*
X199175D01*
X199193Y243000D01*
X210807Y239260D02*
X211698D01*
X212477Y238480D01*
Y222298D02*
Y238480D01*
X192567Y211598D02*
X193665Y210500D01*
X198193D01*
X198193Y210500D01*
X183123Y211500D02*
X188531D01*
X182944Y211322D02*
X183123Y211500D01*
X180169Y213081D02*
X181195Y212056D01*
X182460D02*
X182944Y211572D01*
Y211322D02*
Y211572D01*
X180169Y213081D02*
Y213081D01*
X181195Y212056D02*
X182460D01*
X178790Y214461D02*
X180169Y213081D01*
X176807Y207760D02*
X176896Y207671D01*
X182855D01*
X182944Y207581D01*
X176807Y215240D02*
X177587Y214461D01*
X178790D01*
X182944Y207385D02*
Y207581D01*
Y207385D02*
X183569Y206760D01*
X198193D01*
X192469Y216500D02*
X192469Y216500D01*
Y211697D02*
Y216500D01*
X209807Y206760D02*
X210547Y207500D01*
X211654Y305189D02*
Y306264D01*
X208724Y214240D02*
X209807D01*
X181870Y222500D02*
X200465D01*
X208724Y214240D01*
X124500Y164000D02*
X140000Y148500D01*
X264121D01*
X124500Y173843D02*
X148343Y150000D01*
X263500D01*
X272248Y158748D01*
Y173453D01*
X258474Y157900D02*
X258575Y158000D01*
X266500D01*
X207945Y273539D02*
Y274059D01*
X198193Y280240D02*
X201764D01*
X207945Y274059D01*
Y273539D02*
X208724Y272760D01*
X217000Y193000D02*
X220756D01*
X221000Y193244D01*
X290500Y161000D02*
X293244D01*
X293744Y161500D01*
X268000Y235441D02*
Y235500D01*
X265256Y232500D02*
Y232697D01*
X268000Y235441D01*
X245000Y248500D02*
Y252244D01*
X245000Y252244D02*
X245000Y252244D01*
X263441Y261000D02*
X267500D01*
X273516Y265484D02*
X276484D01*
X273500Y265469D02*
X273516Y265484D01*
X276484D02*
X276500Y265500D01*
X324000Y263437D02*
Y268063D01*
X307500Y224500D02*
Y226319D01*
X306134Y227000D02*
X306819D01*
X307500Y226319D01*
X303756Y212000D02*
X306756D01*
X296716Y176000D02*
X297496Y176779D01*
X299404D01*
Y175189D02*
X299592Y175000D01*
X299404Y176779D02*
X299592Y176969D01*
X243850Y233484D02*
Y233681D01*
X244335Y233000D02*
X244531D01*
X243850Y233484D02*
X244335Y233000D01*
X235500Y242032D02*
X243850Y233681D01*
X197586Y253070D02*
X200324D01*
X206654Y246740D01*
X210807D01*
X181244Y198756D02*
X221000D01*
X181000Y199000D02*
X181244Y198756D01*
X124500Y154000D02*
Y154157D01*
X208035Y313200D02*
X213267D01*
X207996Y313161D02*
X208035Y313200D01*
X213267D02*
X213307Y313240D01*
X247051Y217547D02*
Y219024D01*
X236803Y263512D02*
X237000D01*
X237197D01*
X238425Y264740D01*
X253559D01*
X272248Y217547D02*
Y219024D01*
X253350Y222071D02*
X259587D01*
X221000Y198756D02*
X225727D01*
X253350Y222500D02*
Y226594D01*
X269098Y217547D02*
Y221098D01*
X253350Y217547D02*
Y222071D01*
X285000Y268437D02*
X285377Y268814D01*
X296500Y264000D02*
Y264000D01*
X285377Y268814D02*
X291686D01*
X296500Y264000D01*
Y264000D02*
X301000Y259500D01*
X254000Y232756D02*
X259488D01*
X259744Y232500D01*
X248468Y233000D02*
X253756D01*
X253350Y226594D02*
X254000Y227244D01*
X253756Y233000D02*
X254000Y232756D01*
X273500Y261531D02*
Y261728D01*
X270488Y264740D02*
X273500Y261728D01*
X284032Y261531D02*
X285000Y260563D01*
X287746Y259500D02*
X295488D01*
X273500Y261531D02*
X284032D01*
X263441Y264740D02*
X270488D01*
X245000Y252244D02*
X245197D01*
X192269Y242965D02*
X192305Y242930D01*
X170500Y243000D02*
X176307D01*
X176807Y243500D01*
X221000Y193244D02*
X221093Y193151D01*
X226955D01*
X227755Y192350D01*
X234453D01*
X225727Y198756D02*
X228983Y195500D01*
X234453D01*
X176807Y243500D02*
X177307Y243000D01*
X220000Y174469D02*
X220000Y174469D01*
Y178000D01*
X219984Y182095D02*
X219992Y182087D01*
Y178008D02*
Y182087D01*
Y178008D02*
X220000Y178000D01*
X272025Y173230D02*
X272248Y173453D01*
X250201Y158299D02*
Y173453D01*
Y158299D02*
X250600Y157900D01*
X220000Y170531D02*
X221899D01*
X219984Y186031D02*
X220969D01*
X207996Y207539D02*
Y209161D01*
X202916Y214240D02*
X207996Y209161D01*
Y207539D02*
X208775Y206760D01*
X198193Y214240D02*
X202916D01*
X204031Y170531D02*
X220000D01*
X203500Y170000D02*
X204031Y170531D01*
X221899D02*
X226146Y174779D01*
Y181778D01*
X230394Y186026D01*
X234427D02*
X234453Y186051D01*
X230394Y186026D02*
X234427D01*
X206681Y186031D02*
X219984D01*
X203500Y189213D02*
X206681Y186031D01*
X234252Y189000D02*
X234453Y189201D01*
X234051D02*
X234252Y189000D01*
X224138Y189201D02*
X234051D01*
X220969Y186031D02*
X224138Y189201D01*
X219500Y182653D02*
X219984Y182169D01*
X165193Y239307D02*
Y239760D01*
X292500Y198500D02*
X301756D01*
X278547Y198650D02*
X292350D01*
X199193Y250193D02*
X199500Y250500D01*
X199193Y246740D02*
Y250193D01*
X302000Y192744D02*
X304756D01*
X305000Y192500D01*
X301756Y198500D02*
X302000Y198256D01*
X301756Y192988D02*
X302000Y192744D01*
X207004Y309839D02*
Y309839D01*
X210370Y306473D02*
X211445D01*
X207004Y309839D02*
X210370Y306473D01*
X204564Y312280D02*
X207004Y309839D01*
X203428Y312280D02*
X204564D01*
X211445Y306473D02*
X211654Y306264D01*
X210093Y239973D02*
X210807Y239260D01*
X204414Y243430D02*
X207870Y239973D01*
X210093D01*
X204414Y243430D02*
Y243430D01*
X201883Y245961D02*
X204414Y243430D01*
X292350Y198650D02*
X292500Y198500D01*
X199193Y246740D02*
X199972Y245961D01*
X167787Y288484D02*
Y288681D01*
X167500Y288968D02*
X167787Y288681D01*
Y288484D02*
X168272Y288000D01*
X253941Y264358D02*
X254587D01*
X254860Y264085D01*
X199972Y245961D02*
X201883D01*
D14*
X564685Y333685D02*
D03*
X554685D02*
D03*
X544685D02*
D03*
X534685D02*
D03*
Y284685D02*
D03*
X544685D02*
D03*
X554685D02*
D03*
X564685D02*
D03*
X445000Y333685D02*
D03*
X435000D02*
D03*
X425000D02*
D03*
X415000D02*
D03*
Y284685D02*
D03*
X425000D02*
D03*
X435000D02*
D03*
X445000D02*
D03*
D15*
X396717Y229606D02*
D03*
X400654D02*
D03*
X491402D02*
D03*
X495339D02*
D03*
X192469Y211500D02*
D03*
X188531D02*
D03*
X163697Y223500D02*
D03*
X167634D02*
D03*
X192269Y242965D02*
D03*
X188332D02*
D03*
X190469Y278000D02*
D03*
X186531D02*
D03*
X164532Y288000D02*
D03*
X168468D02*
D03*
X194500Y309500D02*
D03*
X190563D02*
D03*
X168532Y319500D02*
D03*
X172468D02*
D03*
X164532Y255000D02*
D03*
X168468D02*
D03*
X248468Y233000D02*
D03*
X244531D02*
D03*
D16*
X394929Y223606D02*
D03*
X400441D02*
D03*
X489614D02*
D03*
X495126D02*
D03*
X301000Y259500D02*
D03*
X295488D02*
D03*
X299256Y161500D02*
D03*
X293744D02*
D03*
X298244Y212000D02*
D03*
X303756D02*
D03*
X259744Y232500D02*
D03*
X265256D02*
D03*
D17*
X394835Y203602D02*
D03*
X398575D02*
D03*
X402315D02*
D03*
Y215216D02*
D03*
X394835D02*
D03*
X489520Y203602D02*
D03*
X493260D02*
D03*
X497000D02*
D03*
Y215216D02*
D03*
X489520D02*
D03*
D18*
X182944Y211519D02*
D03*
Y207581D02*
D03*
X184500Y243468D02*
D03*
Y239531D02*
D03*
X183000Y277969D02*
D03*
Y274031D02*
D03*
X186500Y309469D02*
D03*
Y305532D02*
D03*
X292500Y215469D02*
D03*
Y211531D02*
D03*
X273500Y261531D02*
D03*
Y265469D02*
D03*
X219984Y182095D02*
D03*
Y186031D02*
D03*
X220000Y170531D02*
D03*
Y174469D02*
D03*
D19*
X176807Y207760D02*
D03*
Y211500D02*
D03*
Y215240D02*
D03*
X165193D02*
D03*
Y207760D02*
D03*
X198193Y214240D02*
D03*
Y210500D02*
D03*
Y206760D02*
D03*
X209807D02*
D03*
Y214240D02*
D03*
X199193Y246740D02*
D03*
Y243000D02*
D03*
Y239260D02*
D03*
X210807D02*
D03*
Y246740D02*
D03*
X176807Y239760D02*
D03*
Y243500D02*
D03*
Y247240D02*
D03*
X165193D02*
D03*
Y239760D02*
D03*
X176807Y272760D02*
D03*
Y276500D02*
D03*
Y280240D02*
D03*
X165193D02*
D03*
Y272760D02*
D03*
X198193Y280240D02*
D03*
Y276500D02*
D03*
Y272760D02*
D03*
X209807D02*
D03*
Y280240D02*
D03*
X201693Y313240D02*
D03*
Y309500D02*
D03*
Y305760D02*
D03*
X213307D02*
D03*
Y313240D02*
D03*
X180807Y305760D02*
D03*
Y309500D02*
D03*
Y313240D02*
D03*
X169193D02*
D03*
Y305760D02*
D03*
D20*
X298661Y244500D02*
D03*
X281339D02*
D03*
D21*
X292407Y173031D02*
D03*
Y175000D02*
D03*
Y176969D02*
D03*
X299592D02*
D03*
Y175000D02*
D03*
Y173031D02*
D03*
D22*
X293047Y179577D02*
D03*
X295016D02*
D03*
X296984D02*
D03*
X298953D02*
D03*
Y170423D02*
D03*
X296984D02*
D03*
X295016D02*
D03*
X293047D02*
D03*
D23*
X306134Y227000D02*
D03*
X297866Y223260D02*
D03*
Y230740D02*
D03*
D24*
X272248Y173453D02*
D03*
X269098D02*
D03*
X265949D02*
D03*
X262799D02*
D03*
X259650D02*
D03*
X256500D02*
D03*
X253350D02*
D03*
X250201D02*
D03*
X247051D02*
D03*
X243902D02*
D03*
X240752D02*
D03*
Y217547D02*
D03*
X243902D02*
D03*
X247051D02*
D03*
X250201D02*
D03*
X253350D02*
D03*
X256500D02*
D03*
X259650D02*
D03*
X262799D02*
D03*
X265949D02*
D03*
X269098D02*
D03*
X272248D02*
D03*
D25*
X234453Y179752D02*
D03*
Y182902D02*
D03*
Y186051D02*
D03*
Y189201D02*
D03*
Y192350D02*
D03*
Y195500D02*
D03*
Y198650D02*
D03*
Y201799D02*
D03*
Y204949D02*
D03*
Y208098D02*
D03*
Y211248D02*
D03*
X278547D02*
D03*
Y208098D02*
D03*
Y204949D02*
D03*
Y201799D02*
D03*
Y198650D02*
D03*
Y195500D02*
D03*
Y192350D02*
D03*
Y189201D02*
D03*
Y186051D02*
D03*
Y182902D02*
D03*
Y179752D02*
D03*
D26*
X263441Y257260D02*
D03*
Y261000D02*
D03*
Y264740D02*
D03*
X253559D02*
D03*
Y257260D02*
D03*
D27*
X237000Y263512D02*
D03*
Y258000D02*
D03*
X254000Y227244D02*
D03*
Y232756D02*
D03*
X310500Y196756D02*
D03*
Y191244D02*
D03*
X302000Y198256D02*
D03*
Y192744D02*
D03*
X245000Y257756D02*
D03*
Y252244D02*
D03*
X292500Y198500D02*
D03*
Y192988D02*
D03*
X221000Y198756D02*
D03*
Y193244D02*
D03*
D28*
X255161Y244500D02*
D03*
X262839D02*
D03*
D29*
X324000Y255563D02*
D03*
Y263437D02*
D03*
X285000Y260563D02*
D03*
Y268437D02*
D03*
D30*
X310500Y196756D02*
X310500Y196756D01*
Y197529D01*
Y198256D01*
Y196756D02*
Y197529D01*
X311471D02*
X322000Y187000D01*
X311226Y197529D02*
X311471D01*
X310500Y198256D02*
X311226Y197529D01*
X310500Y196756D02*
X310500Y196756D01*
D31*
X544000Y271000D02*
D03*
Y267500D02*
D03*
Y264000D02*
D03*
Y260500D02*
D03*
Y257000D02*
D03*
X543500Y180000D02*
D03*
Y176500D02*
D03*
Y173000D02*
D03*
Y169500D02*
D03*
Y166000D02*
D03*
Y162500D02*
D03*
X510500Y182000D02*
D03*
X507000D02*
D03*
X503500D02*
D03*
X500000D02*
D03*
X496500D02*
D03*
X511000Y162000D02*
D03*
X507500D02*
D03*
X504000D02*
D03*
X500500D02*
D03*
X497000D02*
D03*
X543000Y122500D02*
D03*
Y126000D02*
D03*
Y129500D02*
D03*
Y133000D02*
D03*
Y136500D02*
D03*
X464500Y123500D02*
D03*
Y127000D02*
D03*
Y130500D02*
D03*
Y134000D02*
D03*
Y137500D02*
D03*
X448000Y124000D02*
D03*
Y127500D02*
D03*
Y131000D02*
D03*
Y134500D02*
D03*
Y138000D02*
D03*
X401500Y161500D02*
D03*
X405000D02*
D03*
X408500D02*
D03*
X412000D02*
D03*
X415500D02*
D03*
X400000Y182500D02*
D03*
X403500D02*
D03*
X407000D02*
D03*
X410500D02*
D03*
X414000D02*
D03*
X500000Y256000D02*
D03*
X503500D02*
D03*
X507000D02*
D03*
X510500D02*
D03*
X514000D02*
D03*
X543500Y223500D02*
D03*
Y220000D02*
D03*
Y216500D02*
D03*
Y213000D02*
D03*
Y209500D02*
D03*
X576500Y272500D02*
D03*
X573000D02*
D03*
X569500D02*
D03*
X566000D02*
D03*
X562500D02*
D03*
X529500D02*
D03*
X526000D02*
D03*
X522500D02*
D03*
X519000D02*
D03*
X515500D02*
D03*
X464500Y184000D02*
D03*
X461000D02*
D03*
X457500D02*
D03*
X454000D02*
D03*
X450500D02*
D03*
X463500Y159500D02*
D03*
X460000D02*
D03*
X456500D02*
D03*
X453000D02*
D03*
X449500D02*
D03*
X489000Y273000D02*
D03*
X485500D02*
D03*
X482000D02*
D03*
X478500D02*
D03*
X475000D02*
D03*
X464500Y255000D02*
D03*
X461000D02*
D03*
X457500D02*
D03*
X454000D02*
D03*
X450500D02*
D03*
X490000Y348500D02*
D03*
Y352000D02*
D03*
Y355500D02*
D03*
Y359000D02*
D03*
Y362500D02*
D03*
X473500Y348500D02*
D03*
Y352000D02*
D03*
Y355500D02*
D03*
Y359000D02*
D03*
Y362500D02*
D03*
X490000Y291500D02*
D03*
Y295000D02*
D03*
Y298500D02*
D03*
Y302000D02*
D03*
Y305500D02*
D03*
X473500Y291500D02*
D03*
Y295000D02*
D03*
Y298500D02*
D03*
Y302000D02*
D03*
Y305500D02*
D03*
X351500Y129000D02*
D03*
Y132500D02*
D03*
Y136000D02*
D03*
Y139500D02*
D03*
Y143000D02*
D03*
X370000Y129000D02*
D03*
Y132500D02*
D03*
Y136000D02*
D03*
Y139500D02*
D03*
Y143000D02*
D03*
X370500Y180500D02*
D03*
Y177000D02*
D03*
Y173500D02*
D03*
Y170000D02*
D03*
Y166500D02*
D03*
Y163000D02*
D03*
X370000Y271000D02*
D03*
Y267500D02*
D03*
Y264000D02*
D03*
Y260500D02*
D03*
Y257000D02*
D03*
X352000Y191500D02*
D03*
Y195000D02*
D03*
Y198500D02*
D03*
Y202000D02*
D03*
Y205500D02*
D03*
X370000Y191500D02*
D03*
Y195000D02*
D03*
Y198500D02*
D03*
Y202000D02*
D03*
Y205500D02*
D03*
X465000Y214500D02*
D03*
Y218000D02*
D03*
Y221500D02*
D03*
Y225000D02*
D03*
Y228500D02*
D03*
X449000Y214000D02*
D03*
Y217500D02*
D03*
Y221000D02*
D03*
Y224500D02*
D03*
Y228000D02*
D03*
X397500Y272000D02*
D03*
X401000D02*
D03*
X404500D02*
D03*
X408000D02*
D03*
X411500D02*
D03*
X397500Y256000D02*
D03*
X401000D02*
D03*
X404500D02*
D03*
X408000D02*
D03*
X411500D02*
D03*
X351500Y252000D02*
D03*
Y248500D02*
D03*
Y245000D02*
D03*
Y241500D02*
D03*
Y238000D02*
D03*
X370000Y252000D02*
D03*
Y248500D02*
D03*
Y245000D02*
D03*
Y241500D02*
D03*
Y238000D02*
D03*
Y293500D02*
D03*
Y290000D02*
D03*
Y286500D02*
D03*
Y283000D02*
D03*
Y279500D02*
D03*
X352000Y293000D02*
D03*
Y289500D02*
D03*
Y286000D02*
D03*
Y282500D02*
D03*
Y279000D02*
D03*
X370000Y341000D02*
D03*
Y337500D02*
D03*
Y334000D02*
D03*
Y330500D02*
D03*
Y327000D02*
D03*
X352000D02*
D03*
Y330500D02*
D03*
Y334000D02*
D03*
Y337500D02*
D03*
Y341000D02*
D03*
D32*
X404500Y144000D02*
D03*
X416311D02*
D03*
X420012Y155811D02*
D03*
Y132189D02*
D03*
X499185Y144000D02*
D03*
X510996D02*
D03*
X514697Y155811D02*
D03*
Y132189D02*
D03*
D33*
X380500Y151000D02*
D03*
Y109000D02*
D03*
X437500Y151000D02*
D03*
Y109000D02*
D03*
X475185Y151000D02*
D03*
Y109000D02*
D03*
X532185Y151000D02*
D03*
Y109000D02*
D03*
X582685Y365185D02*
D03*
X500685D02*
D03*
Y283185D02*
D03*
X582685Y283185D02*
D03*
X463000Y365185D02*
D03*
X381000D02*
D03*
Y283185D02*
D03*
X463000Y283185D02*
D03*
X381185Y193106D02*
D03*
Y245106D02*
D03*
X438185D02*
D03*
Y193106D02*
D03*
X475870D02*
D03*
Y245106D02*
D03*
X532870D02*
D03*
Y193106D02*
D03*
X330500Y119000D02*
D03*
X331000Y331000D02*
D03*
X119000D02*
D03*
Y118500D02*
D03*
D34*
X441500Y140000D02*
D03*
X431500Y120000D02*
D03*
X411500D02*
D03*
X536185Y140000D02*
D03*
X526185Y120000D02*
D03*
X506185D02*
D03*
X413185Y227106D02*
D03*
X406685Y215106D02*
D03*
X398685Y219106D02*
D03*
X507870Y227106D02*
D03*
X501370Y215106D02*
D03*
X493370Y219106D02*
D03*
X340000Y320000D02*
D03*
Y240000D02*
D03*
Y200000D02*
D03*
Y160000D02*
D03*
Y120000D02*
D03*
X330000Y340000D02*
D03*
X320000Y320000D02*
D03*
X330000Y300000D02*
D03*
X320000Y280000D02*
D03*
X330000Y260000D02*
D03*
Y140000D02*
D03*
X320000Y120000D02*
D03*
X310000Y340000D02*
D03*
X300000Y320000D02*
D03*
X310000Y300000D02*
D03*
X300000Y280000D02*
D03*
X310000Y220000D02*
D03*
Y140000D02*
D03*
X300000Y120000D02*
D03*
X280000Y320000D02*
D03*
X290000Y300000D02*
D03*
Y220000D02*
D03*
X280000Y160000D02*
D03*
X290000Y140000D02*
D03*
X280000Y120000D02*
D03*
X270000Y340000D02*
D03*
X260000Y320000D02*
D03*
X270000Y300000D02*
D03*
X260000Y280000D02*
D03*
Y200000D02*
D03*
X270000Y180000D02*
D03*
Y140000D02*
D03*
X260000Y120000D02*
D03*
X250000Y300000D02*
D03*
X240000Y280000D02*
D03*
Y200000D02*
D03*
X250000Y180000D02*
D03*
X240000Y160000D02*
D03*
X250000Y140000D02*
D03*
X240000Y120000D02*
D03*
X230000Y300000D02*
D03*
Y260000D02*
D03*
Y220000D02*
D03*
X220000Y160000D02*
D03*
X230000Y140000D02*
D03*
X220000Y120000D02*
D03*
X200000Y320000D02*
D03*
X210000Y260000D02*
D03*
Y220000D02*
D03*
Y180000D02*
D03*
X200000Y160000D02*
D03*
X210000Y140000D02*
D03*
X200000Y120000D02*
D03*
X180000Y320000D02*
D03*
X190000Y300000D02*
D03*
Y180000D02*
D03*
X180000Y160000D02*
D03*
X190000Y140000D02*
D03*
X180000Y120000D02*
D03*
X170000Y340000D02*
D03*
X160000Y320000D02*
D03*
Y200000D02*
D03*
X170000Y180000D02*
D03*
X160000Y160000D02*
D03*
X170000Y140000D02*
D03*
X160000Y120000D02*
D03*
X150000Y340000D02*
D03*
X140000Y320000D02*
D03*
X150000Y300000D02*
D03*
Y260000D02*
D03*
X140000Y240000D02*
D03*
X150000Y220000D02*
D03*
X140000Y200000D02*
D03*
X150000Y180000D02*
D03*
Y140000D02*
D03*
X140000Y120000D02*
D03*
X130000Y340000D02*
D03*
X120000Y320000D02*
D03*
X130000Y300000D02*
D03*
Y260000D02*
D03*
X120000Y240000D02*
D03*
X130000Y220000D02*
D03*
X120000Y200000D02*
D03*
X130000Y180000D02*
D03*
D35*
X533185Y359685D02*
D03*
X543185D02*
D03*
X553185D02*
D03*
X523185D02*
D03*
X413500D02*
D03*
X423500D02*
D03*
X433500D02*
D03*
X403500D02*
D03*
X262314Y334000D02*
D03*
X272314D02*
D03*
X282314D02*
D03*
X252314D02*
D03*
X203000Y336000D02*
D03*
X213000D02*
D03*
X223000D02*
D03*
X193000D02*
D03*
D36*
X563185Y359685D02*
D03*
X443500D02*
D03*
X292314Y334000D02*
D03*
X233000Y336000D02*
D03*
D37*
X417559Y242106D02*
D03*
X512244D02*
D03*
D38*
X409685D02*
D03*
X401811D02*
D03*
X504370D02*
D03*
X496496D02*
D03*
X331000Y170874D02*
D03*
Y163000D02*
D03*
X330000Y223374D02*
D03*
Y215500D02*
D03*
D39*
X425185Y208606D02*
D03*
X420185Y213606D02*
D03*
X519870Y208606D02*
D03*
X514870Y213606D02*
D03*
D40*
X425185Y218606D02*
D03*
X519870D02*
D03*
D41*
X105000Y298500D02*
D03*
Y268000D02*
D03*
Y237500D02*
D03*
Y205500D02*
D03*
D42*
Y308500D02*
D03*
Y278000D02*
D03*
Y247500D02*
D03*
Y215500D02*
D03*
D43*
X331000Y178748D02*
D03*
X330000Y231248D02*
D03*
D44*
X136902Y138299D02*
D03*
D45*
X124500Y142500D02*
D03*
Y152500D02*
D03*
Y162500D02*
D03*
Y172500D02*
D03*
D46*
X341000Y265500D02*
D03*
Y275500D02*
D03*
Y285500D02*
D03*
Y295500D02*
D03*
D47*
Y305500D02*
D03*
D48*
X203500Y170000D02*
D03*
D49*
Y179606D02*
D03*
Y189213D02*
D03*
D50*
X193416Y290758D02*
D03*
X173916Y314758D02*
D03*
X170837Y279000D02*
D03*
Y217000D02*
D03*
X166000Y201000D02*
D03*
X322000Y187000D02*
D03*
X308000Y186500D02*
D03*
X284692Y181383D02*
D03*
X291500Y182500D02*
D03*
X284500Y192500D02*
D03*
X296237Y175521D02*
D03*
X271500Y314000D02*
D03*
X235500Y254000D02*
D03*
X285000Y208500D02*
D03*
X306000Y238000D02*
D03*
X292000Y225000D02*
D03*
X289000Y229500D02*
D03*
X286000Y233500D02*
D03*
X321950Y162450D02*
D03*
X173422Y304000D02*
D03*
X194067Y277500D02*
D03*
X170000Y267000D02*
D03*
X192469Y216500D02*
D03*
X266500Y158000D02*
D03*
X217000Y193000D02*
D03*
X290500Y161000D02*
D03*
X194801Y242965D02*
D03*
X197531Y309500D02*
D03*
X268000Y235500D02*
D03*
X245000Y248500D02*
D03*
X267500Y261000D02*
D03*
X276500Y265500D02*
D03*
X324000Y268063D02*
D03*
X307500Y224500D02*
D03*
X306756Y212000D02*
D03*
X197586Y253070D02*
D03*
X180500Y199000D02*
D03*
X207996Y313161D02*
D03*
X173693Y232740D02*
D03*
X181500Y222500D02*
D03*
X170500Y243000D02*
D03*
X220000Y178000D02*
D03*
X199500Y250500D02*
D03*
X305000Y192500D02*
D03*
M02*
