G04*
G04 #@! TF.GenerationSoftware,Altium Limited,Altium Designer,21.5.1 (32)*
G04*
G04 Layer_Physical_Order=2*
G04 Layer_Color=16711680*
%FSLAX25Y25*%
%MOIN*%
G70*
G04*
G04 #@! TF.SameCoordinates,3A1198FE-CC6F-45F1-A000-1D614036FB2E*
G04*
G04*
G04 #@! TF.FilePolarity,Positive*
G04*
G01*
G75*
%ADD13C,0.01000*%
%ADD30C,0.02000*%
%ADD31C,0.02000*%
%ADD32C,0.06378*%
%ADD33C,0.11200*%
%ADD34C,0.03000*%
%ADD35C,0.07087*%
%ADD36R,0.07087X0.07087*%
%ADD37R,0.05512X0.05512*%
%ADD38C,0.05512*%
%ADD39C,0.05512*%
%ADD40P,0.07795X4X360.0*%
%ADD41R,0.05512X0.05512*%
%ADD42R,0.06496X0.06496*%
%ADD43C,0.06496*%
%ADD44C,0.04047*%
%ADD45C,0.07500*%
%ADD46C,0.05906*%
%ADD47R,0.05906X0.05906*%
%ADD48R,0.04724X0.04724*%
%ADD49C,0.04724*%
%ADD50C,0.01800*%
G36*
X350000Y100000D02*
X100000D01*
Y202913D01*
X100500Y203083D01*
X100970Y202470D01*
X101858Y201789D01*
X102891Y201361D01*
X104000Y201215D01*
X105109Y201361D01*
X106142Y201789D01*
X107030Y202470D01*
X107711Y203358D01*
X108139Y204391D01*
X108285Y205500D01*
X108139Y206609D01*
X107711Y207642D01*
X107030Y208530D01*
X106142Y209211D01*
X105109Y209639D01*
X104000Y209785D01*
X102891Y209639D01*
X101858Y209211D01*
X100970Y208530D01*
X100500Y207917D01*
X100000Y208087D01*
Y211252D01*
X103500D01*
Y215500D01*
Y219748D01*
X100000D01*
Y234703D01*
X100500Y234873D01*
X100809Y234470D01*
X101696Y233789D01*
X102730Y233361D01*
X103839Y233215D01*
X104948Y233361D01*
X105981Y233789D01*
X106868Y234470D01*
X107549Y235358D01*
X107977Y236391D01*
X108123Y237500D01*
X107977Y238609D01*
X107549Y239642D01*
X106868Y240530D01*
X105981Y241211D01*
X104948Y241639D01*
X103839Y241785D01*
X102730Y241639D01*
X101696Y241211D01*
X100809Y240530D01*
X100500Y240127D01*
X100000Y240297D01*
Y243252D01*
X103339D01*
Y247500D01*
Y251748D01*
X100000D01*
Y296957D01*
X100500Y297056D01*
X100789Y296358D01*
X101470Y295470D01*
X102358Y294789D01*
X103391Y294361D01*
X104500Y294215D01*
X105609Y294361D01*
X106642Y294789D01*
X107530Y295470D01*
X108211Y296358D01*
X108639Y297391D01*
X108785Y298500D01*
X108639Y299609D01*
X108211Y300642D01*
X107530Y301530D01*
X106642Y302211D01*
X105609Y302639D01*
X104500Y302785D01*
X103391Y302639D01*
X102358Y302211D01*
X101470Y301530D01*
X100789Y300642D01*
X100500Y299944D01*
X100000Y300043D01*
Y303856D01*
X100252Y304252D01*
X100500Y304252D01*
X104000D01*
Y308500D01*
Y312748D01*
X100500D01*
X100252Y312748D01*
X100000Y313144D01*
Y350000D01*
X350000D01*
Y100000D01*
D02*
G37*
G36*
X591685Y274185D02*
X491685D01*
Y374185D01*
X591685D01*
Y274185D01*
D02*
G37*
G36*
X472000D02*
X372000D01*
Y374185D01*
X472000D01*
Y274185D01*
D02*
G37*
G36*
X541870Y184106D02*
X466870D01*
Y254106D01*
X541870D01*
Y184106D01*
D02*
G37*
G36*
X447185D02*
X372185D01*
Y254106D01*
X447185D01*
Y184106D01*
D02*
G37*
G36*
X541185Y100000D02*
X466185D01*
Y160000D01*
X512574D01*
X512709Y159500D01*
X512125Y159163D01*
X511345Y158383D01*
X510793Y157428D01*
X510508Y156362D01*
Y155260D01*
X510793Y154194D01*
X511345Y153239D01*
X512125Y152459D01*
X513080Y151908D01*
X514145Y151622D01*
X515248D01*
X516314Y151908D01*
X517269Y152459D01*
X518049Y153239D01*
X518600Y154194D01*
X518886Y155260D01*
Y156362D01*
X518600Y157428D01*
X518049Y158383D01*
X517269Y159163D01*
X516685Y159500D01*
X516819Y160000D01*
X541185D01*
Y100000D01*
D02*
G37*
G36*
X446500D02*
X371500D01*
Y160000D01*
X417889D01*
X418023Y159500D01*
X417440Y159163D01*
X416660Y158383D01*
X416108Y157428D01*
X415823Y156362D01*
Y155260D01*
X416108Y154194D01*
X416660Y153239D01*
X417440Y152459D01*
X418395Y151908D01*
X419460Y151622D01*
X420563D01*
X421629Y151908D01*
X422584Y152459D01*
X423364Y153239D01*
X423915Y154194D01*
X424201Y155260D01*
Y156362D01*
X423915Y157428D01*
X423364Y158383D01*
X422584Y159163D01*
X422000Y159500D01*
X422134Y160000D01*
X446500D01*
Y100000D01*
D02*
G37*
%LPC*%
G36*
X330500Y342449D02*
Y340500D01*
X332450D01*
X332355Y340975D01*
X331802Y341802D01*
X330976Y342355D01*
X330500Y342449D01*
D02*
G37*
G36*
X329500D02*
X329025Y342355D01*
X328198Y341802D01*
X327645Y340975D01*
X327551Y340500D01*
X329500D01*
Y342449D01*
D02*
G37*
G36*
X310500D02*
Y340500D01*
X312450D01*
X312355Y340975D01*
X311802Y341802D01*
X310976Y342355D01*
X310500Y342449D01*
D02*
G37*
G36*
X309500D02*
X309025Y342355D01*
X308198Y341802D01*
X307645Y340975D01*
X307551Y340500D01*
X309500D01*
Y342449D01*
D02*
G37*
G36*
X269500D02*
X269024Y342355D01*
X268198Y341802D01*
X267645Y340975D01*
X267550Y340500D01*
X269500D01*
Y342449D01*
D02*
G37*
G36*
X170500D02*
Y340500D01*
X172450D01*
X172355Y340975D01*
X171802Y341802D01*
X170975Y342355D01*
X170500Y342449D01*
D02*
G37*
G36*
X169500D02*
X169025Y342355D01*
X168198Y341802D01*
X167645Y340975D01*
X167551Y340500D01*
X169500D01*
Y342449D01*
D02*
G37*
G36*
X150500D02*
Y340500D01*
X152450D01*
X152355Y340975D01*
X151802Y341802D01*
X150976Y342355D01*
X150500Y342449D01*
D02*
G37*
G36*
X149500D02*
X149024Y342355D01*
X148198Y341802D01*
X147645Y340975D01*
X147550Y340500D01*
X149500D01*
Y342449D01*
D02*
G37*
G36*
X130500D02*
Y340500D01*
X132449D01*
X132355Y340975D01*
X131802Y341802D01*
X130975Y342355D01*
X130500Y342449D01*
D02*
G37*
G36*
X129500D02*
X129025Y342355D01*
X128198Y341802D01*
X127645Y340975D01*
X127550Y340500D01*
X129500D01*
Y342449D01*
D02*
G37*
G36*
X312450Y339500D02*
X310500D01*
Y337550D01*
X310976Y337645D01*
X311802Y338198D01*
X312355Y339024D01*
X312450Y339500D01*
D02*
G37*
G36*
X309500D02*
X307551D01*
X307645Y339024D01*
X308198Y338198D01*
X309025Y337645D01*
X309500Y337550D01*
Y339500D01*
D02*
G37*
G36*
X172450D02*
X170500D01*
Y337550D01*
X170975Y337645D01*
X171802Y338198D01*
X172355Y339024D01*
X172450Y339500D01*
D02*
G37*
G36*
X169500D02*
X167551D01*
X167645Y339024D01*
X168198Y338198D01*
X169025Y337645D01*
X169500Y337550D01*
Y339500D01*
D02*
G37*
G36*
X152450D02*
X150500D01*
Y337550D01*
X150976Y337645D01*
X151802Y338198D01*
X152355Y339024D01*
X152450Y339500D01*
D02*
G37*
G36*
X149500D02*
X147550D01*
X147645Y339024D01*
X148198Y338198D01*
X149024Y337645D01*
X149500Y337550D01*
Y339500D01*
D02*
G37*
G36*
X132449D02*
X130500D01*
Y337550D01*
X130975Y337645D01*
X131802Y338198D01*
X132355Y339024D01*
X132449Y339500D01*
D02*
G37*
G36*
X129500D02*
X127550D01*
X127645Y339024D01*
X128198Y338198D01*
X129025Y337645D01*
X129500Y337550D01*
Y339500D01*
D02*
G37*
G36*
X237543Y340543D02*
X233500D01*
Y336500D01*
X237543D01*
Y340543D01*
D02*
G37*
G36*
X232500D02*
X228457D01*
Y336500D01*
X232500D01*
Y340543D01*
D02*
G37*
G36*
X296857Y338543D02*
X292814D01*
Y334500D01*
X296857D01*
Y338543D01*
D02*
G37*
G36*
X291814D02*
X287771D01*
Y334500D01*
X291814D01*
Y338543D01*
D02*
G37*
G36*
X193000Y340582D02*
X191814Y340426D01*
X190709Y339969D01*
X189760Y339240D01*
X189031Y338291D01*
X188574Y337186D01*
X188417Y336000D01*
X188574Y334814D01*
X189031Y333709D01*
X189760Y332760D01*
X190709Y332031D01*
X191814Y331574D01*
X193000Y331417D01*
X194186Y331574D01*
X195291Y332031D01*
X196240Y332760D01*
X196969Y333709D01*
X197426Y334814D01*
X197582Y336000D01*
X197426Y337186D01*
X196969Y338291D01*
X196240Y339240D01*
X195291Y339969D01*
X194186Y340426D01*
X193000Y340582D01*
D02*
G37*
G36*
X296857Y333500D02*
X292814D01*
Y329457D01*
X296857D01*
Y333500D01*
D02*
G37*
G36*
X291814D02*
X287771D01*
Y329457D01*
X291814D01*
Y333500D01*
D02*
G37*
G36*
X270657Y347029D02*
X189000D01*
X188415Y346913D01*
X187919Y346581D01*
X172340Y331003D01*
X172009Y330507D01*
X171892Y329922D01*
Y305131D01*
X171632Y304741D01*
X171484Y304000D01*
X171632Y303259D01*
X171892Y302869D01*
Y292500D01*
Y268488D01*
X171392Y268337D01*
X171370Y268370D01*
X170741Y268790D01*
X170000Y268937D01*
X169259Y268790D01*
X168630Y268370D01*
X168210Y267741D01*
X168063Y267000D01*
X168210Y266259D01*
X168630Y265630D01*
X169259Y265210D01*
X170000Y265063D01*
X170741Y265210D01*
X171058Y265422D01*
X171892Y264587D01*
Y262000D01*
Y244956D01*
X171392Y244689D01*
X171241Y244790D01*
X171000Y244838D01*
Y243000D01*
Y241162D01*
X171241Y241210D01*
X171392Y241311D01*
X171892Y241044D01*
Y233426D01*
X171756Y232740D01*
X171892Y232054D01*
Y227000D01*
Y201020D01*
X167933D01*
X167790Y201741D01*
X167370Y202370D01*
X166741Y202790D01*
X166000Y202937D01*
X165259Y202790D01*
X164630Y202370D01*
X164210Y201741D01*
X164063Y201000D01*
X164210Y200259D01*
X164630Y199630D01*
X165259Y199210D01*
X166000Y199063D01*
X166464Y199155D01*
X166610Y199058D01*
X167000Y198980D01*
X171896D01*
X172009Y198415D01*
X172340Y197919D01*
X172430Y197858D01*
X172471Y197655D01*
Y181702D01*
X171971Y181551D01*
X171802Y181802D01*
X170975Y182355D01*
X170500Y182449D01*
Y180000D01*
Y177550D01*
X170975Y177645D01*
X171802Y178198D01*
X171971Y178449D01*
X172471Y178298D01*
Y145378D01*
X136285D01*
X129276Y152387D01*
X129291Y152500D01*
X129128Y153740D01*
X128649Y154895D01*
X127888Y155888D01*
X126895Y156649D01*
X125740Y157128D01*
X124828Y157248D01*
Y157752D01*
X125740Y157872D01*
X126895Y158351D01*
X127888Y159112D01*
X128649Y160105D01*
X129128Y161260D01*
X129291Y162500D01*
X129128Y163740D01*
X128649Y164895D01*
X127888Y165888D01*
X126895Y166649D01*
X125740Y167128D01*
X124828Y167248D01*
Y167752D01*
X125740Y167872D01*
X126895Y168351D01*
X127888Y169112D01*
X128649Y170105D01*
X129128Y171260D01*
X129291Y172500D01*
X129128Y173740D01*
X128649Y174896D01*
X127888Y175888D01*
X126895Y176649D01*
X125740Y177128D01*
X124500Y177291D01*
X123260Y177128D01*
X122105Y176649D01*
X121112Y175888D01*
X120351Y174896D01*
X119872Y173740D01*
X119709Y172500D01*
X119872Y171260D01*
X120351Y170105D01*
X121112Y169112D01*
X122105Y168351D01*
X123260Y167872D01*
X124172Y167752D01*
Y167248D01*
X123260Y167128D01*
X122105Y166649D01*
X121112Y165888D01*
X120351Y164895D01*
X119872Y163740D01*
X119709Y162500D01*
X119872Y161260D01*
X120351Y160105D01*
X121112Y159112D01*
X122105Y158351D01*
X123260Y157872D01*
X124172Y157752D01*
Y157248D01*
X123260Y157128D01*
X122105Y156649D01*
X121112Y155888D01*
X120351Y154895D01*
X119872Y153740D01*
X119709Y152500D01*
X119872Y151260D01*
X120351Y150104D01*
X121112Y149112D01*
X122105Y148351D01*
X123260Y147872D01*
X124172Y147752D01*
Y147248D01*
X123260Y147128D01*
X122105Y146649D01*
X121112Y145888D01*
X120351Y144896D01*
X119872Y143740D01*
X119775Y143000D01*
X124500D01*
X129225D01*
X129128Y143740D01*
X128649Y144896D01*
X127888Y145888D01*
X126895Y146649D01*
X125740Y147128D01*
X124828Y147248D01*
Y147752D01*
X125740Y147872D01*
X126895Y148351D01*
X127888Y149112D01*
X128204Y149133D01*
X134193Y143144D01*
X134109Y142521D01*
X133300Y141900D01*
X132491Y140846D01*
X131982Y139617D01*
X131809Y138299D01*
X131982Y136981D01*
X132491Y135753D01*
X133300Y134698D01*
X134355Y133889D01*
X135583Y133380D01*
X136902Y133206D01*
X138220Y133380D01*
X139448Y133889D01*
X140503Y134698D01*
X141312Y135753D01*
X141821Y136981D01*
X141994Y138299D01*
X141821Y139617D01*
X141312Y140846D01*
X140565Y141819D01*
X140701Y142319D01*
X148110D01*
X148255Y141841D01*
X148198Y141802D01*
X147645Y140975D01*
X147550Y140500D01*
X152450D01*
X152355Y140975D01*
X151802Y141802D01*
X151745Y141841D01*
X151890Y142319D01*
X168110D01*
X168255Y141841D01*
X168198Y141802D01*
X167645Y140975D01*
X167551Y140500D01*
X172450D01*
X172355Y140975D01*
X171802Y141802D01*
X171745Y141841D01*
X171890Y142319D01*
X174348D01*
X174934Y142436D01*
X174986Y142471D01*
X188298D01*
X188449Y141971D01*
X188198Y141802D01*
X187645Y140975D01*
X187550Y140500D01*
X192449D01*
X192355Y140975D01*
X191802Y141802D01*
X191551Y141971D01*
X191702Y142471D01*
X208298D01*
X208449Y141971D01*
X208198Y141802D01*
X207645Y140975D01*
X207551Y140500D01*
X212450D01*
X212355Y140975D01*
X211802Y141802D01*
X211551Y141971D01*
X211702Y142471D01*
X228298D01*
X228449Y141971D01*
X228198Y141802D01*
X227645Y140975D01*
X227551Y140500D01*
X232450D01*
X232355Y140975D01*
X231802Y141802D01*
X231551Y141971D01*
X231702Y142471D01*
X248298D01*
X248449Y141971D01*
X248198Y141802D01*
X247645Y140975D01*
X247551Y140500D01*
X252449D01*
X252355Y140975D01*
X251802Y141802D01*
X251551Y141971D01*
X251702Y142471D01*
X268298D01*
X268449Y141971D01*
X268198Y141802D01*
X267645Y140975D01*
X267550Y140500D01*
X272449D01*
X272355Y140975D01*
X271802Y141802D01*
X271551Y141971D01*
X271702Y142471D01*
X288298D01*
X288449Y141971D01*
X288198Y141802D01*
X287645Y140975D01*
X287550Y140500D01*
X292449D01*
X292355Y140975D01*
X291802Y141802D01*
X291551Y141971D01*
X291702Y142471D01*
X303000D01*
X303585Y142587D01*
X304081Y142919D01*
X315581Y154419D01*
X315581Y154419D01*
X318642Y157479D01*
X319060Y157562D01*
X319556Y157894D01*
X322232Y160569D01*
X322691Y160660D01*
X323320Y161080D01*
X323740Y161709D01*
X323887Y162450D01*
X323740Y163191D01*
X323529Y163506D01*
Y185869D01*
X323790Y186259D01*
X323937Y187000D01*
X323790Y187741D01*
X323370Y188370D01*
X322741Y188790D01*
X322282Y188881D01*
X321029Y190134D01*
Y237069D01*
X346534Y262574D01*
X346866Y263070D01*
X346982Y263656D01*
Y291047D01*
X346866Y291633D01*
X346534Y292129D01*
X344659Y294004D01*
X344851Y294468D01*
X344987Y295500D01*
X344851Y296532D01*
X344453Y297493D01*
X343819Y298319D01*
X342993Y298953D01*
X342032Y299351D01*
X341000Y299487D01*
X339968Y299351D01*
X339007Y298953D01*
X338181Y298319D01*
X337547Y297493D01*
X337149Y296532D01*
X337013Y295500D01*
X337149Y294468D01*
X337547Y293507D01*
X338181Y292681D01*
X339007Y292047D01*
X339968Y291649D01*
X341000Y291513D01*
X342032Y291649D01*
X342496Y291841D01*
X343923Y290414D01*
Y288869D01*
X343423Y288623D01*
X342993Y288953D01*
X342032Y289351D01*
X341500Y289421D01*
Y285500D01*
Y281579D01*
X342032Y281649D01*
X342993Y282047D01*
X343423Y282377D01*
X343923Y282131D01*
Y278869D01*
X343423Y278623D01*
X342993Y278953D01*
X342032Y279351D01*
X341000Y279487D01*
X339968Y279351D01*
X339007Y278953D01*
X338181Y278319D01*
X337547Y277493D01*
X337149Y276532D01*
X337147Y276520D01*
X321000D01*
X320610Y276442D01*
X320279Y276221D01*
X288279Y244221D01*
X288058Y243890D01*
X287980Y243500D01*
Y234856D01*
X287480Y234704D01*
X287370Y234870D01*
X287020Y235104D01*
Y250078D01*
X316989Y280048D01*
X317484Y279835D01*
X317645Y279025D01*
X318198Y278198D01*
X319024Y277645D01*
X319500Y277551D01*
Y280000D01*
X320000D01*
Y280500D01*
X322449D01*
X322355Y280976D01*
X321802Y281802D01*
X320975Y282355D01*
X320165Y282516D01*
X319952Y283011D01*
X338489Y301547D01*
X344953D01*
Y309453D01*
X337047D01*
Y302989D01*
X332702Y298644D01*
X332313Y298963D01*
X332355Y299025D01*
X332450Y299500D01*
X330500D01*
Y297551D01*
X330976Y297645D01*
X331037Y297687D01*
X331356Y297298D01*
X285279Y251221D01*
X285058Y250890D01*
X284980Y250500D01*
Y235104D01*
X284630Y234870D01*
X284210Y234241D01*
X284063Y233500D01*
X284210Y232759D01*
X284630Y232130D01*
X285259Y231710D01*
X286000Y231563D01*
X286741Y231710D01*
X287370Y232130D01*
X287480Y232296D01*
X287980Y232144D01*
Y231104D01*
X287630Y230870D01*
X287210Y230241D01*
X287063Y229500D01*
X287210Y228759D01*
X287630Y228130D01*
X288259Y227710D01*
X289000Y227563D01*
X289741Y227710D01*
X290370Y228130D01*
X290480Y228296D01*
X290980Y228144D01*
Y226604D01*
X290630Y226370D01*
X290210Y225741D01*
X290063Y225000D01*
X290210Y224259D01*
X290630Y223630D01*
X291259Y223210D01*
X292000Y223063D01*
X292741Y223210D01*
X293370Y223630D01*
X293790Y224259D01*
X293937Y225000D01*
X293790Y225741D01*
X293370Y226370D01*
X293020Y226604D01*
Y240078D01*
X301707Y248765D01*
X302616D01*
X303006Y248843D01*
X303337Y249063D01*
X312621Y258348D01*
X312842Y258679D01*
X312920Y259069D01*
Y259978D01*
X317422Y264480D01*
X337147D01*
X337149Y264468D01*
X337547Y263507D01*
X338181Y262681D01*
X339007Y262047D01*
X339968Y261649D01*
X340505Y261578D01*
X340685Y261050D01*
X318164Y238529D01*
X316634D01*
X316081Y239081D01*
X315585Y239413D01*
X315000Y239529D01*
X307131D01*
X306741Y239790D01*
X306000Y239937D01*
X305259Y239790D01*
X304630Y239370D01*
X304210Y238741D01*
X304063Y238000D01*
X304210Y237259D01*
X304630Y236630D01*
X305259Y236210D01*
X306000Y236063D01*
X306741Y236210D01*
X307131Y236471D01*
X314367D01*
X314919Y235919D01*
X315415Y235587D01*
X316000Y235471D01*
X317971D01*
Y189500D01*
X318087Y188915D01*
X318419Y188419D01*
X320119Y186718D01*
X320210Y186259D01*
X320471Y185869D01*
Y163656D01*
X320160Y163191D01*
X320069Y162732D01*
X317808Y160471D01*
X317390Y160388D01*
X316894Y160056D01*
X313419Y156581D01*
X313419Y156581D01*
X302366Y145529D01*
X175529D01*
Y197980D01*
X178896D01*
X179130Y197630D01*
X179759Y197210D01*
X180500Y197063D01*
X181241Y197210D01*
X181870Y197630D01*
X182290Y198259D01*
X182437Y199000D01*
X182290Y199741D01*
X181870Y200370D01*
X181241Y200790D01*
X180500Y200937D01*
X179759Y200790D01*
X179130Y200370D01*
X178896Y200020D01*
X175123D01*
X175081Y200081D01*
X174951Y200169D01*
Y223375D01*
X175413Y223567D01*
X177200Y221779D01*
X177531Y221558D01*
X177921Y221480D01*
X179896D01*
X180130Y221130D01*
X180759Y220710D01*
X181500Y220563D01*
X182241Y220710D01*
X182870Y221130D01*
X183290Y221759D01*
X183437Y222500D01*
X183290Y223241D01*
X182870Y223870D01*
X182241Y224290D01*
X181500Y224437D01*
X180759Y224290D01*
X180130Y223870D01*
X179896Y223520D01*
X178344D01*
X174951Y226912D01*
Y231296D01*
X175063Y231370D01*
X175483Y231999D01*
X175630Y232740D01*
X175483Y233482D01*
X175063Y234110D01*
X174951Y234185D01*
Y258375D01*
X175413Y258567D01*
X181630Y252349D01*
X181961Y252128D01*
X182351Y252051D01*
X195982D01*
X196216Y251701D01*
X196845Y251281D01*
X197586Y251133D01*
X197672Y251048D01*
X197563Y250500D01*
X197710Y249759D01*
X198130Y249130D01*
X198759Y248710D01*
X199500Y248563D01*
X200241Y248710D01*
X200870Y249130D01*
X201290Y249759D01*
X201437Y250500D01*
X201290Y251241D01*
X200870Y251870D01*
X200241Y252290D01*
X199500Y252437D01*
X199414Y252523D01*
X199523Y253070D01*
X199376Y253812D01*
X198956Y254440D01*
X198327Y254860D01*
X197586Y255008D01*
X196845Y254860D01*
X196216Y254440D01*
X195982Y254090D01*
X182773D01*
X176345Y260519D01*
X176536Y260980D01*
X194367D01*
X202569Y252779D01*
X202899Y252558D01*
X203290Y252480D01*
X234354D01*
X234759Y252210D01*
X235500Y252063D01*
X236241Y252210D01*
X236870Y252630D01*
X237290Y253259D01*
X237437Y254000D01*
X237290Y254741D01*
X236870Y255370D01*
X236241Y255790D01*
X235500Y255937D01*
X234759Y255790D01*
X234130Y255370D01*
X233710Y254741D01*
X233666Y254520D01*
X203712D01*
X195510Y262721D01*
X195180Y262942D01*
X194790Y263020D01*
X174951D01*
Y264500D01*
Y289980D01*
X192396D01*
X192630Y289630D01*
X193259Y289210D01*
X194000Y289063D01*
X194741Y289210D01*
X195370Y289630D01*
X195790Y290259D01*
X195937Y291000D01*
X195790Y291741D01*
X195370Y292370D01*
X194741Y292790D01*
X194000Y292937D01*
X193259Y292790D01*
X192630Y292370D01*
X192396Y292020D01*
X175344D01*
X174951Y292412D01*
Y300375D01*
X175413Y300567D01*
X181279Y294701D01*
X181610Y294479D01*
X182000Y294402D01*
X202421D01*
X202812Y294479D01*
X203142Y294701D01*
X208717Y300275D01*
X208938Y300605D01*
X209015Y300996D01*
Y311557D01*
X209365Y311791D01*
X209785Y312420D01*
X209933Y313161D01*
X209785Y313902D01*
X209365Y314531D01*
X208737Y314951D01*
X207996Y315098D01*
X207254Y314951D01*
X206626Y314531D01*
X206206Y313902D01*
X206058Y313161D01*
X206206Y312420D01*
X206626Y311791D01*
X206976Y311557D01*
Y301418D01*
X201999Y296441D01*
X182422D01*
X175277Y303587D01*
X175359Y304000D01*
X175211Y304741D01*
X174951Y305131D01*
Y329288D01*
X189634Y343971D01*
X214549D01*
Y342922D01*
X214666Y342336D01*
X214848Y342063D01*
X214581Y341563D01*
X207543D01*
X207153Y341485D01*
X206822Y341264D01*
X205424Y339866D01*
X205291Y339969D01*
X204186Y340426D01*
X203000Y340582D01*
X201814Y340426D01*
X200709Y339969D01*
X199760Y339240D01*
X199031Y338291D01*
X198574Y337186D01*
X198417Y336000D01*
X198574Y334814D01*
X199031Y333709D01*
X199760Y332760D01*
X200709Y332031D01*
X201814Y331574D01*
X203000Y331417D01*
X204186Y331574D01*
X205291Y332031D01*
X206240Y332760D01*
X206969Y333709D01*
X207426Y334814D01*
X207582Y336000D01*
X207426Y337186D01*
X206969Y338291D01*
X206866Y338424D01*
X207966Y339524D01*
X209347D01*
X209594Y339024D01*
X209031Y338291D01*
X208574Y337186D01*
X208418Y336000D01*
X208574Y334814D01*
X209031Y333709D01*
X209760Y332760D01*
X210709Y332031D01*
X210980Y331919D01*
Y327500D01*
X211058Y327110D01*
X211279Y326779D01*
X223279Y314779D01*
X223610Y314558D01*
X224000Y314480D01*
X269078D01*
X269564Y313994D01*
X269710Y313259D01*
X270130Y312630D01*
X270759Y312210D01*
X271494Y312064D01*
X278480Y305078D01*
Y266856D01*
X277980Y266704D01*
X277870Y266870D01*
X277241Y267290D01*
X277000Y267338D01*
Y265500D01*
Y263662D01*
X277241Y263710D01*
X277870Y264130D01*
X277980Y264296D01*
X278480Y264144D01*
Y183500D01*
X278558Y183110D01*
X278779Y182779D01*
X280896Y180662D01*
X281227Y180441D01*
X281617Y180363D01*
X283088D01*
X283322Y180013D01*
X283951Y179593D01*
X284692Y179446D01*
X285434Y179593D01*
X286062Y180013D01*
X286482Y180641D01*
X286629Y181383D01*
X286482Y182124D01*
X286062Y182753D01*
X285434Y183172D01*
X284692Y183320D01*
X283951Y183172D01*
X283322Y182753D01*
X283088Y182402D01*
X282040D01*
X280520Y183922D01*
Y194385D01*
X280981Y194577D01*
X282645Y192913D01*
X282563Y192500D01*
X282710Y191759D01*
X283130Y191130D01*
X283759Y190710D01*
X284500Y190563D01*
X285241Y190710D01*
X285870Y191130D01*
X286290Y191759D01*
X286423Y192428D01*
X286656Y192563D01*
X286919Y192639D01*
X290480Y189078D01*
Y184104D01*
X290130Y183870D01*
X289710Y183241D01*
X289563Y182500D01*
X289710Y181759D01*
X290130Y181130D01*
X290759Y180710D01*
X291500Y180563D01*
X292241Y180710D01*
X292870Y181130D01*
X293290Y181759D01*
X293437Y182500D01*
X293290Y183241D01*
X292870Y183870D01*
X292520Y184104D01*
Y189500D01*
X292442Y189890D01*
X292221Y190221D01*
X286020Y196422D01*
Y206896D01*
X286370Y207130D01*
X286790Y207759D01*
X286937Y208500D01*
X286790Y209241D01*
X286370Y209870D01*
X285741Y210290D01*
X285000Y210437D01*
X284259Y210290D01*
X283630Y209870D01*
X283210Y209241D01*
X283063Y208500D01*
X283210Y207759D01*
X283630Y207130D01*
X283980Y206896D01*
Y196000D01*
X284058Y195610D01*
X284279Y195279D01*
X284535Y195023D01*
X284364Y194533D01*
X283969Y194473D01*
X282020Y196422D01*
Y306621D01*
X281942Y307012D01*
X281721Y307342D01*
X275020Y314044D01*
Y322314D01*
X274942Y322704D01*
X274721Y323035D01*
X266180Y331576D01*
X266283Y331709D01*
X266740Y332814D01*
X266897Y334000D01*
X266740Y335186D01*
X266283Y336291D01*
X265554Y337240D01*
X264605Y337969D01*
X263500Y338426D01*
X262314Y338582D01*
X261128Y338426D01*
X260023Y337969D01*
X259890Y337866D01*
X258492Y339264D01*
X258161Y339485D01*
X257771Y339563D01*
X244044D01*
X243654Y339485D01*
X243323Y339264D01*
X238005Y333946D01*
X237543Y334138D01*
Y335500D01*
X233000D01*
X228457D01*
Y332476D01*
X226653D01*
X226407Y332976D01*
X226969Y333709D01*
X227426Y334814D01*
X227583Y336000D01*
X227426Y337186D01*
X226969Y338291D01*
X226240Y339240D01*
X225291Y339969D01*
X224186Y340426D01*
X223000Y340582D01*
X221814Y340426D01*
X221052Y340111D01*
X217692Y343471D01*
X217812Y343971D01*
X270023D01*
X271040Y342954D01*
X271024Y342853D01*
X270500Y342488D01*
Y340500D01*
X272488D01*
X272853Y341024D01*
X272954Y341040D01*
X278157Y335837D01*
X277888Y335186D01*
X277731Y334000D01*
X277888Y332814D01*
X278345Y331709D01*
X279074Y330760D01*
X280023Y330031D01*
X281128Y329574D01*
X282314Y329417D01*
X283500Y329574D01*
X284605Y330031D01*
X285554Y330760D01*
X286283Y331709D01*
X286740Y332814D01*
X286896Y334000D01*
X286740Y335186D01*
X286283Y336291D01*
X285554Y337240D01*
X284605Y337969D01*
X283500Y338426D01*
X282314Y338582D01*
X281128Y338426D01*
X280255Y338065D01*
X271738Y346581D01*
X271242Y346913D01*
X270657Y347029D01*
D02*
G37*
G36*
X272449Y339500D02*
X267550D01*
X267645Y339024D01*
X268198Y338198D01*
X268894Y337733D01*
X268971Y337522D01*
X269005Y337292D01*
X268997Y337141D01*
X268345Y336291D01*
X267888Y335186D01*
X267731Y334000D01*
X267888Y332814D01*
X268345Y331709D01*
X269074Y330760D01*
X270023Y330031D01*
X271128Y329574D01*
X272314Y329417D01*
X273500Y329574D01*
X274605Y330031D01*
X275554Y330760D01*
X276283Y331709D01*
X276740Y332814D01*
X276897Y334000D01*
X276740Y335186D01*
X276283Y336291D01*
X275554Y337240D01*
X274605Y337969D01*
X273500Y338426D01*
X272633Y338541D01*
X272375Y338989D01*
X272365Y339074D01*
X272449Y339500D01*
D02*
G37*
G36*
X332450D02*
X327551D01*
X327645Y339024D01*
X328198Y338198D01*
X328844Y337766D01*
X328778Y337223D01*
X328462Y337127D01*
X327315Y336514D01*
X326310Y335689D01*
X325486Y334684D01*
X324873Y333538D01*
X324496Y332294D01*
X324368Y331000D01*
X324496Y329706D01*
X324873Y328462D01*
X325486Y327315D01*
X326310Y326310D01*
X327315Y325486D01*
X328462Y324873D01*
X329706Y324496D01*
X331000Y324368D01*
X332294Y324496D01*
X333538Y324873D01*
X334684Y325486D01*
X335689Y326310D01*
X336514Y327315D01*
X337127Y328462D01*
X337505Y329706D01*
X337632Y331000D01*
X337505Y332294D01*
X337127Y333538D01*
X336514Y334684D01*
X335689Y335689D01*
X334684Y336514D01*
X333538Y337127D01*
X332294Y337505D01*
X331746Y337559D01*
X331617Y338074D01*
X331802Y338198D01*
X332355Y339024D01*
X332450Y339500D01*
D02*
G37*
G36*
X119000Y337632D02*
X117706Y337505D01*
X116462Y337127D01*
X115315Y336514D01*
X114311Y335689D01*
X113486Y334684D01*
X112873Y333538D01*
X112496Y332294D01*
X112368Y331000D01*
X112496Y329706D01*
X112873Y328462D01*
X113486Y327315D01*
X114311Y326310D01*
X115315Y325486D01*
X116462Y324873D01*
X117706Y324496D01*
X119000Y324368D01*
X120294Y324496D01*
X121538Y324873D01*
X122685Y325486D01*
X123689Y326310D01*
X124514Y327315D01*
X125127Y328462D01*
X125505Y329706D01*
X125632Y331000D01*
X125505Y332294D01*
X125127Y333538D01*
X124514Y334684D01*
X123689Y335689D01*
X122685Y336514D01*
X121538Y337127D01*
X120294Y337505D01*
X119000Y337632D01*
D02*
G37*
G36*
X340500Y322449D02*
Y320500D01*
X342449D01*
X342355Y320975D01*
X341802Y321802D01*
X340975Y322355D01*
X340500Y322449D01*
D02*
G37*
G36*
X339500D02*
X339024Y322355D01*
X338198Y321802D01*
X337645Y320975D01*
X337550Y320500D01*
X339500D01*
Y322449D01*
D02*
G37*
G36*
X320500D02*
Y320500D01*
X322449D01*
X322355Y320975D01*
X321802Y321802D01*
X320975Y322355D01*
X320500Y322449D01*
D02*
G37*
G36*
X319500D02*
X319024Y322355D01*
X318198Y321802D01*
X317645Y320975D01*
X317550Y320500D01*
X319500D01*
Y322449D01*
D02*
G37*
G36*
X300500D02*
Y320500D01*
X302449D01*
X302355Y320975D01*
X301802Y321802D01*
X300975Y322355D01*
X300500Y322449D01*
D02*
G37*
G36*
X299500D02*
X299025Y322355D01*
X298198Y321802D01*
X297645Y320975D01*
X297551Y320500D01*
X299500D01*
Y322449D01*
D02*
G37*
G36*
X280500D02*
Y320500D01*
X282450D01*
X282355Y320975D01*
X281802Y321802D01*
X280976Y322355D01*
X280500Y322449D01*
D02*
G37*
G36*
X279500D02*
X279025Y322355D01*
X278198Y321802D01*
X277645Y320975D01*
X277551Y320500D01*
X279500D01*
Y322449D01*
D02*
G37*
G36*
X200500D02*
Y320500D01*
X202449D01*
X202355Y320975D01*
X201802Y321802D01*
X200975Y322355D01*
X200500Y322449D01*
D02*
G37*
G36*
X199500D02*
X199024Y322355D01*
X198198Y321802D01*
X197645Y320975D01*
X197550Y320500D01*
X199500D01*
Y322449D01*
D02*
G37*
G36*
X180500D02*
Y320500D01*
X182449D01*
X182355Y320975D01*
X181802Y321802D01*
X180975Y322355D01*
X180500Y322449D01*
D02*
G37*
G36*
X179500D02*
X179025Y322355D01*
X178198Y321802D01*
X177645Y320975D01*
X177550Y320500D01*
X179500D01*
Y322449D01*
D02*
G37*
G36*
X160500D02*
Y320500D01*
X162450D01*
X162355Y320975D01*
X161802Y321802D01*
X160976Y322355D01*
X160500Y322449D01*
D02*
G37*
G36*
X159500D02*
X159025Y322355D01*
X158198Y321802D01*
X157645Y320975D01*
X157551Y320500D01*
X159500D01*
Y322449D01*
D02*
G37*
G36*
X140500D02*
Y320500D01*
X142449D01*
X142355Y320975D01*
X141802Y321802D01*
X140975Y322355D01*
X140500Y322449D01*
D02*
G37*
G36*
X139500D02*
X139024Y322355D01*
X138198Y321802D01*
X137645Y320975D01*
X137550Y320500D01*
X139500D01*
Y322449D01*
D02*
G37*
G36*
X120500D02*
Y320500D01*
X122450D01*
X122355Y320975D01*
X121802Y321802D01*
X120975Y322355D01*
X120500Y322449D01*
D02*
G37*
G36*
X119500D02*
X119025Y322355D01*
X118198Y321802D01*
X117645Y320975D01*
X117551Y320500D01*
X119500D01*
Y322449D01*
D02*
G37*
G36*
X342449Y319500D02*
X340500D01*
Y317550D01*
X340975Y317645D01*
X341802Y318198D01*
X342355Y319024D01*
X342449Y319500D01*
D02*
G37*
G36*
X339500D02*
X337550D01*
X337645Y319024D01*
X338198Y318198D01*
X339024Y317645D01*
X339500Y317550D01*
Y319500D01*
D02*
G37*
G36*
X322449D02*
X320500D01*
Y317550D01*
X320975Y317645D01*
X321802Y318198D01*
X322355Y319024D01*
X322449Y319500D01*
D02*
G37*
G36*
X319500D02*
X317550D01*
X317645Y319024D01*
X318198Y318198D01*
X319024Y317645D01*
X319500Y317550D01*
Y319500D01*
D02*
G37*
G36*
X302449D02*
X300500D01*
Y317550D01*
X300975Y317645D01*
X301802Y318198D01*
X302355Y319024D01*
X302449Y319500D01*
D02*
G37*
G36*
X299500D02*
X297551D01*
X297645Y319024D01*
X298198Y318198D01*
X299025Y317645D01*
X299500Y317550D01*
Y319500D01*
D02*
G37*
G36*
X282450D02*
X280500D01*
Y317550D01*
X280976Y317645D01*
X281802Y318198D01*
X282355Y319024D01*
X282450Y319500D01*
D02*
G37*
G36*
X279500D02*
X277551D01*
X277645Y319024D01*
X278198Y318198D01*
X279025Y317645D01*
X279500Y317550D01*
Y319500D01*
D02*
G37*
G36*
X202449D02*
X200500D01*
Y317550D01*
X200975Y317645D01*
X201802Y318198D01*
X202355Y319024D01*
X202449Y319500D01*
D02*
G37*
G36*
X199500D02*
X197550D01*
X197645Y319024D01*
X198198Y318198D01*
X199024Y317645D01*
X199500Y317550D01*
Y319500D01*
D02*
G37*
G36*
X182449D02*
X180500D01*
Y317550D01*
X180975Y317645D01*
X181802Y318198D01*
X182355Y319024D01*
X182449Y319500D01*
D02*
G37*
G36*
X179500D02*
X177550D01*
X177645Y319024D01*
X178198Y318198D01*
X179025Y317645D01*
X179500Y317550D01*
Y319500D01*
D02*
G37*
G36*
X162450D02*
X160500D01*
Y317550D01*
X160976Y317645D01*
X161802Y318198D01*
X162355Y319024D01*
X162450Y319500D01*
D02*
G37*
G36*
X159500D02*
X157551D01*
X157645Y319024D01*
X158198Y318198D01*
X159025Y317645D01*
X159500Y317550D01*
Y319500D01*
D02*
G37*
G36*
X142449D02*
X140500D01*
Y317550D01*
X140975Y317645D01*
X141802Y318198D01*
X142355Y319024D01*
X142449Y319500D01*
D02*
G37*
G36*
X139500D02*
X137550D01*
X137645Y319024D01*
X138198Y318198D01*
X139024Y317645D01*
X139500Y317550D01*
Y319500D01*
D02*
G37*
G36*
X122450D02*
X120500D01*
Y317550D01*
X120975Y317645D01*
X121802Y318198D01*
X122355Y319024D01*
X122450Y319500D01*
D02*
G37*
G36*
X119500D02*
X117551D01*
X117645Y319024D01*
X118198Y318198D01*
X119025Y317645D01*
X119500Y317550D01*
Y319500D01*
D02*
G37*
G36*
X198031Y311338D02*
Y310000D01*
X199369D01*
X199321Y310241D01*
X198901Y310870D01*
X198273Y311290D01*
X198031Y311338D01*
D02*
G37*
G36*
X197031D02*
X196790Y311290D01*
X196162Y310870D01*
X195742Y310241D01*
X195694Y310000D01*
X197031D01*
Y311338D01*
D02*
G37*
G36*
X105000Y312748D02*
Y309000D01*
X108748D01*
Y312748D01*
X105000D01*
D02*
G37*
G36*
X199369Y309000D02*
X198031D01*
Y307662D01*
X198273Y307710D01*
X198901Y308130D01*
X199321Y308759D01*
X199369Y309000D01*
D02*
G37*
G36*
X197031D02*
X195694D01*
X195742Y308759D01*
X196162Y308130D01*
X196790Y307710D01*
X197031Y307662D01*
Y309000D01*
D02*
G37*
G36*
X108748Y308000D02*
X105000D01*
Y304252D01*
X108748D01*
Y308000D01*
D02*
G37*
G36*
X330500Y302449D02*
Y300500D01*
X332450D01*
X332355Y300975D01*
X331802Y301802D01*
X330976Y302355D01*
X330500Y302449D01*
D02*
G37*
G36*
X329500D02*
X329025Y302355D01*
X328198Y301802D01*
X327645Y300975D01*
X327551Y300500D01*
X329500D01*
Y302449D01*
D02*
G37*
G36*
X310500D02*
Y300500D01*
X312450D01*
X312355Y300975D01*
X311802Y301802D01*
X310976Y302355D01*
X310500Y302449D01*
D02*
G37*
G36*
X309500D02*
X309025Y302355D01*
X308198Y301802D01*
X307645Y300975D01*
X307551Y300500D01*
X309500D01*
Y302449D01*
D02*
G37*
G36*
X290500D02*
Y300500D01*
X292449D01*
X292355Y300975D01*
X291802Y301802D01*
X290975Y302355D01*
X290500Y302449D01*
D02*
G37*
G36*
X289500D02*
X289024Y302355D01*
X288198Y301802D01*
X287645Y300975D01*
X287550Y300500D01*
X289500D01*
Y302449D01*
D02*
G37*
G36*
X270500D02*
Y300500D01*
X272449D01*
X272355Y300975D01*
X271802Y301802D01*
X270975Y302355D01*
X270500Y302449D01*
D02*
G37*
G36*
X269500D02*
X269024Y302355D01*
X268198Y301802D01*
X267645Y300975D01*
X267550Y300500D01*
X269500D01*
Y302449D01*
D02*
G37*
G36*
X250500D02*
Y300500D01*
X252449D01*
X252355Y300975D01*
X251802Y301802D01*
X250975Y302355D01*
X250500Y302449D01*
D02*
G37*
G36*
X249500D02*
X249025Y302355D01*
X248198Y301802D01*
X247645Y300975D01*
X247551Y300500D01*
X249500D01*
Y302449D01*
D02*
G37*
G36*
X230500D02*
Y300500D01*
X232450D01*
X232355Y300975D01*
X231802Y301802D01*
X230976Y302355D01*
X230500Y302449D01*
D02*
G37*
G36*
X229500D02*
X229025Y302355D01*
X228198Y301802D01*
X227645Y300975D01*
X227551Y300500D01*
X229500D01*
Y302449D01*
D02*
G37*
G36*
X190500D02*
Y300500D01*
X192449D01*
X192355Y300975D01*
X191802Y301802D01*
X190975Y302355D01*
X190500Y302449D01*
D02*
G37*
G36*
X189500D02*
X189024Y302355D01*
X188198Y301802D01*
X187645Y300975D01*
X187550Y300500D01*
X189500D01*
Y302449D01*
D02*
G37*
G36*
X150500D02*
Y300500D01*
X152450D01*
X152355Y300975D01*
X151802Y301802D01*
X150976Y302355D01*
X150500Y302449D01*
D02*
G37*
G36*
X149500D02*
X149024Y302355D01*
X148198Y301802D01*
X147645Y300975D01*
X147550Y300500D01*
X149500D01*
Y302449D01*
D02*
G37*
G36*
X130500D02*
Y300500D01*
X132449D01*
X132355Y300975D01*
X131802Y301802D01*
X130975Y302355D01*
X130500Y302449D01*
D02*
G37*
G36*
X129500D02*
X129025Y302355D01*
X128198Y301802D01*
X127645Y300975D01*
X127550Y300500D01*
X129500D01*
Y302449D01*
D02*
G37*
G36*
X329500Y299500D02*
X327551D01*
X327645Y299025D01*
X328198Y298198D01*
X329025Y297645D01*
X329500Y297551D01*
Y299500D01*
D02*
G37*
G36*
X312450D02*
X310500D01*
Y297551D01*
X310976Y297645D01*
X311802Y298198D01*
X312355Y299025D01*
X312450Y299500D01*
D02*
G37*
G36*
X309500D02*
X307551D01*
X307645Y299025D01*
X308198Y298198D01*
X309025Y297645D01*
X309500Y297551D01*
Y299500D01*
D02*
G37*
G36*
X292449D02*
X290500D01*
Y297551D01*
X290975Y297645D01*
X291802Y298198D01*
X292355Y299025D01*
X292449Y299500D01*
D02*
G37*
G36*
X289500D02*
X287550D01*
X287645Y299025D01*
X288198Y298198D01*
X289024Y297645D01*
X289500Y297551D01*
Y299500D01*
D02*
G37*
G36*
X272449D02*
X270500D01*
Y297551D01*
X270975Y297645D01*
X271802Y298198D01*
X272355Y299025D01*
X272449Y299500D01*
D02*
G37*
G36*
X269500D02*
X267550D01*
X267645Y299025D01*
X268198Y298198D01*
X269024Y297645D01*
X269500Y297551D01*
Y299500D01*
D02*
G37*
G36*
X252449D02*
X250500D01*
Y297551D01*
X250975Y297645D01*
X251802Y298198D01*
X252355Y299025D01*
X252449Y299500D01*
D02*
G37*
G36*
X249500D02*
X247551D01*
X247645Y299025D01*
X248198Y298198D01*
X249025Y297645D01*
X249500Y297551D01*
Y299500D01*
D02*
G37*
G36*
X232450D02*
X230500D01*
Y297551D01*
X230976Y297645D01*
X231802Y298198D01*
X232355Y299025D01*
X232450Y299500D01*
D02*
G37*
G36*
X229500D02*
X227551D01*
X227645Y299025D01*
X228198Y298198D01*
X229025Y297645D01*
X229500Y297551D01*
Y299500D01*
D02*
G37*
G36*
X192449D02*
X190500D01*
Y297551D01*
X190975Y297645D01*
X191802Y298198D01*
X192355Y299025D01*
X192449Y299500D01*
D02*
G37*
G36*
X189500D02*
X187550D01*
X187645Y299025D01*
X188198Y298198D01*
X189024Y297645D01*
X189500Y297551D01*
Y299500D01*
D02*
G37*
G36*
X152450D02*
X150500D01*
Y297551D01*
X150976Y297645D01*
X151802Y298198D01*
X152355Y299025D01*
X152450Y299500D01*
D02*
G37*
G36*
X149500D02*
X147550D01*
X147645Y299025D01*
X148198Y298198D01*
X149024Y297645D01*
X149500Y297551D01*
Y299500D01*
D02*
G37*
G36*
X132449D02*
X130500D01*
Y297551D01*
X130975Y297645D01*
X131802Y298198D01*
X132355Y299025D01*
X132449Y299500D01*
D02*
G37*
G36*
X129500D02*
X127550D01*
X127645Y299025D01*
X128198Y298198D01*
X129025Y297645D01*
X129500Y297551D01*
Y299500D01*
D02*
G37*
G36*
X340500Y289421D02*
X339968Y289351D01*
X339007Y288953D01*
X338181Y288319D01*
X337547Y287493D01*
X337149Y286532D01*
X337079Y286000D01*
X340500D01*
Y289421D01*
D02*
G37*
G36*
Y285000D02*
X337079D01*
X337149Y284468D01*
X337547Y283507D01*
X338181Y282681D01*
X339007Y282047D01*
X339968Y281649D01*
X340500Y281579D01*
Y285000D01*
D02*
G37*
G36*
X300500Y282450D02*
Y280500D01*
X302449D01*
X302355Y280976D01*
X301802Y281802D01*
X300975Y282355D01*
X300500Y282450D01*
D02*
G37*
G36*
X299500D02*
X299025Y282355D01*
X298198Y281802D01*
X297645Y280976D01*
X297551Y280500D01*
X299500D01*
Y282450D01*
D02*
G37*
G36*
X260500D02*
Y280500D01*
X262450D01*
X262355Y280976D01*
X261802Y281802D01*
X260976Y282355D01*
X260500Y282450D01*
D02*
G37*
G36*
X259500D02*
X259025Y282355D01*
X258198Y281802D01*
X257645Y280976D01*
X257551Y280500D01*
X259500D01*
Y282450D01*
D02*
G37*
G36*
X240500D02*
Y280500D01*
X242449D01*
X242355Y280976D01*
X241802Y281802D01*
X240975Y282355D01*
X240500Y282450D01*
D02*
G37*
G36*
X239500D02*
X239024Y282355D01*
X238198Y281802D01*
X237645Y280976D01*
X237550Y280500D01*
X239500D01*
Y282450D01*
D02*
G37*
G36*
X109248Y282248D02*
X105500D01*
Y278500D01*
X109248D01*
Y282248D01*
D02*
G37*
G36*
X104500D02*
X100752D01*
Y278500D01*
X104500D01*
Y282248D01*
D02*
G37*
G36*
X194567Y279338D02*
Y278000D01*
X195905D01*
X195857Y278241D01*
X195437Y278870D01*
X194808Y279290D01*
X194567Y279338D01*
D02*
G37*
G36*
X193567D02*
X193326Y279290D01*
X192697Y278870D01*
X192277Y278241D01*
X192229Y278000D01*
X193567D01*
Y279338D01*
D02*
G37*
G36*
X322449Y279500D02*
X320500D01*
Y277551D01*
X320975Y277645D01*
X321802Y278198D01*
X322355Y279025D01*
X322449Y279500D01*
D02*
G37*
G36*
X302449D02*
X300500D01*
Y277551D01*
X300975Y277645D01*
X301802Y278198D01*
X302355Y279025D01*
X302449Y279500D01*
D02*
G37*
G36*
X299500D02*
X297551D01*
X297645Y279025D01*
X298198Y278198D01*
X299025Y277645D01*
X299500Y277551D01*
Y279500D01*
D02*
G37*
G36*
X262450D02*
X260500D01*
Y277551D01*
X260976Y277645D01*
X261802Y278198D01*
X262355Y279025D01*
X262450Y279500D01*
D02*
G37*
G36*
X259500D02*
X257551D01*
X257645Y279025D01*
X258198Y278198D01*
X259025Y277645D01*
X259500Y277551D01*
Y279500D01*
D02*
G37*
G36*
X242449D02*
X240500D01*
Y277551D01*
X240975Y277645D01*
X241802Y278198D01*
X242355Y279025D01*
X242449Y279500D01*
D02*
G37*
G36*
X239500D02*
X237550D01*
X237645Y279025D01*
X238198Y278198D01*
X239024Y277645D01*
X239500Y277551D01*
Y279500D01*
D02*
G37*
G36*
X180500Y278338D02*
Y277000D01*
X181838D01*
X181790Y277241D01*
X181370Y277870D01*
X180741Y278290D01*
X180500Y278338D01*
D02*
G37*
G36*
X179500D02*
X179259Y278290D01*
X178630Y277870D01*
X178210Y277241D01*
X178162Y277000D01*
X179500D01*
Y278338D01*
D02*
G37*
G36*
X195905Y277000D02*
X194567D01*
Y275662D01*
X194808Y275710D01*
X195437Y276130D01*
X195857Y276759D01*
X195905Y277000D01*
D02*
G37*
G36*
X193567D02*
X192229D01*
X192277Y276759D01*
X192697Y276130D01*
X193326Y275710D01*
X193567Y275662D01*
Y277000D01*
D02*
G37*
G36*
X181838Y276000D02*
X180500D01*
Y274662D01*
X180741Y274710D01*
X181370Y275130D01*
X181790Y275759D01*
X181838Y276000D01*
D02*
G37*
G36*
X179500D02*
X178162D01*
X178210Y275759D01*
X178630Y275130D01*
X179259Y274710D01*
X179500Y274662D01*
Y276000D01*
D02*
G37*
G36*
X109248Y277500D02*
X105500D01*
Y273752D01*
X109248D01*
Y277500D01*
D02*
G37*
G36*
X104500D02*
X100752D01*
Y273752D01*
X104500D01*
Y277500D01*
D02*
G37*
G36*
X161000Y272338D02*
Y271000D01*
X162338D01*
X162290Y271241D01*
X161870Y271870D01*
X161241Y272290D01*
X161000Y272338D01*
D02*
G37*
G36*
X160000D02*
X159759Y272290D01*
X159130Y271870D01*
X158710Y271241D01*
X158662Y271000D01*
X160000D01*
Y272338D01*
D02*
G37*
G36*
X162338Y270000D02*
X161000D01*
Y268662D01*
X161241Y268710D01*
X161870Y269130D01*
X162290Y269759D01*
X162338Y270000D01*
D02*
G37*
G36*
X160000D02*
X158662D01*
X158710Y269759D01*
X159130Y269130D01*
X159759Y268710D01*
X160000Y268662D01*
Y270000D01*
D02*
G37*
G36*
X276000Y267338D02*
X275759Y267290D01*
X275130Y266870D01*
X274710Y266241D01*
X274662Y266000D01*
X276000D01*
Y267338D01*
D02*
G37*
G36*
X105000Y272285D02*
X103891Y272139D01*
X102858Y271711D01*
X101970Y271030D01*
X101289Y270142D01*
X100861Y269109D01*
X100715Y268000D01*
X100861Y266891D01*
X101289Y265858D01*
X101970Y264970D01*
X102858Y264289D01*
X103891Y263861D01*
X105000Y263715D01*
X106109Y263861D01*
X107142Y264289D01*
X108030Y264970D01*
X108711Y265858D01*
X109139Y266891D01*
X109285Y268000D01*
X109139Y269109D01*
X108711Y270142D01*
X108030Y271030D01*
X107142Y271711D01*
X106109Y272139D01*
X105000Y272285D01*
D02*
G37*
G36*
X276000Y265000D02*
X274662D01*
X274710Y264759D01*
X275130Y264130D01*
X275759Y263710D01*
X276000Y263662D01*
Y265000D01*
D02*
G37*
G36*
X268000Y262838D02*
Y261500D01*
X269338D01*
X269290Y261741D01*
X268870Y262370D01*
X268241Y262790D01*
X268000Y262838D01*
D02*
G37*
G36*
X267000D02*
X266759Y262790D01*
X266130Y262370D01*
X265710Y261741D01*
X265662Y261500D01*
X267000D01*
Y262838D01*
D02*
G37*
G36*
X330500Y262450D02*
Y260500D01*
X332450D01*
X332355Y260976D01*
X331802Y261802D01*
X330976Y262355D01*
X330500Y262450D01*
D02*
G37*
G36*
X329500D02*
X329025Y262355D01*
X328198Y261802D01*
X327645Y260976D01*
X327551Y260500D01*
X329500D01*
Y262450D01*
D02*
G37*
G36*
X230500D02*
Y260500D01*
X232450D01*
X232355Y260976D01*
X231802Y261802D01*
X230976Y262355D01*
X230500Y262450D01*
D02*
G37*
G36*
X229500D02*
X229025Y262355D01*
X228198Y261802D01*
X227645Y260976D01*
X227551Y260500D01*
X229500D01*
Y262450D01*
D02*
G37*
G36*
X210500D02*
Y260500D01*
X212450D01*
X212355Y260976D01*
X211802Y261802D01*
X210976Y262355D01*
X210500Y262450D01*
D02*
G37*
G36*
X209500D02*
X209025Y262355D01*
X208198Y261802D01*
X207645Y260976D01*
X207551Y260500D01*
X209500D01*
Y262450D01*
D02*
G37*
G36*
X150500D02*
Y260500D01*
X152450D01*
X152355Y260976D01*
X151802Y261802D01*
X150976Y262355D01*
X150500Y262450D01*
D02*
G37*
G36*
X149500D02*
X149024Y262355D01*
X148198Y261802D01*
X147645Y260976D01*
X147550Y260500D01*
X149500D01*
Y262450D01*
D02*
G37*
G36*
X130500D02*
Y260500D01*
X132449D01*
X132355Y260976D01*
X131802Y261802D01*
X130975Y262355D01*
X130500Y262450D01*
D02*
G37*
G36*
X129500D02*
X129025Y262355D01*
X128198Y261802D01*
X127645Y260976D01*
X127550Y260500D01*
X129500D01*
Y262450D01*
D02*
G37*
G36*
X269338Y260500D02*
X268000D01*
Y259162D01*
X268241Y259210D01*
X268870Y259630D01*
X269290Y260259D01*
X269338Y260500D01*
D02*
G37*
G36*
X267000D02*
X265662D01*
X265710Y260259D01*
X266130Y259630D01*
X266759Y259210D01*
X267000Y259162D01*
Y260500D01*
D02*
G37*
G36*
X332450Y259500D02*
X330500D01*
Y257551D01*
X330976Y257645D01*
X331802Y258198D01*
X332355Y259025D01*
X332450Y259500D01*
D02*
G37*
G36*
X329500D02*
X327551D01*
X327645Y259025D01*
X328198Y258198D01*
X329025Y257645D01*
X329500Y257551D01*
Y259500D01*
D02*
G37*
G36*
X232450D02*
X230500D01*
Y257551D01*
X230976Y257645D01*
X231802Y258198D01*
X232355Y259025D01*
X232450Y259500D01*
D02*
G37*
G36*
X229500D02*
X227551D01*
X227645Y259025D01*
X228198Y258198D01*
X229025Y257645D01*
X229500Y257551D01*
Y259500D01*
D02*
G37*
G36*
X212450D02*
X210500D01*
Y257551D01*
X210976Y257645D01*
X211802Y258198D01*
X212355Y259025D01*
X212450Y259500D01*
D02*
G37*
G36*
X209500D02*
X207551D01*
X207645Y259025D01*
X208198Y258198D01*
X209025Y257645D01*
X209500Y257551D01*
Y259500D01*
D02*
G37*
G36*
X152450D02*
X150500D01*
Y257551D01*
X150976Y257645D01*
X151802Y258198D01*
X152355Y259025D01*
X152450Y259500D01*
D02*
G37*
G36*
X149500D02*
X147550D01*
X147645Y259025D01*
X148198Y258198D01*
X149024Y257645D01*
X149500Y257551D01*
Y259500D01*
D02*
G37*
G36*
X132449D02*
X130500D01*
Y257551D01*
X130975Y257645D01*
X131802Y258198D01*
X132355Y259025D01*
X132449Y259500D01*
D02*
G37*
G36*
X129500D02*
X127550D01*
X127645Y259025D01*
X128198Y258198D01*
X129025Y257645D01*
X129500Y257551D01*
Y259500D01*
D02*
G37*
G36*
X245500Y250338D02*
Y249000D01*
X246838D01*
X246790Y249241D01*
X246370Y249870D01*
X245741Y250290D01*
X245500Y250338D01*
D02*
G37*
G36*
X244500D02*
X244259Y250290D01*
X243630Y249870D01*
X243210Y249241D01*
X243162Y249000D01*
X244500D01*
Y250338D01*
D02*
G37*
G36*
X108087Y251748D02*
X104339D01*
Y248000D01*
X108087D01*
Y251748D01*
D02*
G37*
G36*
X246838Y248000D02*
X245500D01*
Y246662D01*
X245741Y246710D01*
X246370Y247130D01*
X246790Y247759D01*
X246838Y248000D01*
D02*
G37*
G36*
X244500D02*
X243162D01*
X243210Y247759D01*
X243630Y247130D01*
X244259Y246710D01*
X244500Y246662D01*
Y248000D01*
D02*
G37*
G36*
X170000Y244838D02*
X169759Y244790D01*
X169130Y244370D01*
X168710Y243741D01*
X168662Y243500D01*
X170000D01*
Y244838D01*
D02*
G37*
G36*
X195301Y244803D02*
Y243465D01*
X196639D01*
X196591Y243706D01*
X196171Y244335D01*
X195542Y244755D01*
X195301Y244803D01*
D02*
G37*
G36*
X194301D02*
X194060Y244755D01*
X193431Y244335D01*
X193011Y243706D01*
X192963Y243465D01*
X194301D01*
Y244803D01*
D02*
G37*
G36*
X108087Y247000D02*
X104339D01*
Y243252D01*
X108087D01*
Y247000D01*
D02*
G37*
G36*
X170000Y242500D02*
X168662D01*
X168710Y242259D01*
X169130Y241630D01*
X169759Y241210D01*
X170000Y241162D01*
Y242500D01*
D02*
G37*
G36*
X196639Y242465D02*
X195301D01*
Y241127D01*
X195542Y241175D01*
X196171Y241595D01*
X196591Y242224D01*
X196639Y242465D01*
D02*
G37*
G36*
X194301D02*
X192963D01*
X193011Y242224D01*
X193431Y241595D01*
X194060Y241175D01*
X194301Y241127D01*
Y242465D01*
D02*
G37*
G36*
X161000Y241937D02*
X160259Y241790D01*
X159630Y241370D01*
X159319Y240904D01*
X158741Y241290D01*
X158500Y241338D01*
Y239500D01*
Y237662D01*
X158741Y237710D01*
X159370Y238130D01*
X159681Y238596D01*
X160259Y238210D01*
X161000Y238063D01*
X161741Y238210D01*
X162370Y238630D01*
X162790Y239259D01*
X162937Y240000D01*
X162790Y240741D01*
X162370Y241370D01*
X161741Y241790D01*
X161000Y241937D01*
D02*
G37*
G36*
X340500Y242449D02*
Y240500D01*
X342449D01*
X342355Y240975D01*
X341802Y241802D01*
X340975Y242355D01*
X340500Y242449D01*
D02*
G37*
G36*
X339500D02*
X339024Y242355D01*
X338198Y241802D01*
X337645Y240975D01*
X337550Y240500D01*
X339500D01*
Y242449D01*
D02*
G37*
G36*
X140500D02*
Y240500D01*
X142449D01*
X142355Y240975D01*
X141802Y241802D01*
X140975Y242355D01*
X140500Y242449D01*
D02*
G37*
G36*
X139500D02*
X139024Y242355D01*
X138198Y241802D01*
X137645Y240975D01*
X137550Y240500D01*
X139500D01*
Y242449D01*
D02*
G37*
G36*
X120500D02*
Y240500D01*
X122450D01*
X122355Y240975D01*
X121802Y241802D01*
X120975Y242355D01*
X120500Y242449D01*
D02*
G37*
G36*
X119500D02*
X119025Y242355D01*
X118198Y241802D01*
X117645Y240975D01*
X117551Y240500D01*
X119500D01*
Y242449D01*
D02*
G37*
G36*
X157500Y241338D02*
X157259Y241290D01*
X156630Y240870D01*
X156210Y240241D01*
X156162Y240000D01*
X157500D01*
Y241338D01*
D02*
G37*
G36*
X261000Y251210D02*
X257000D01*
X256728Y251156D01*
X256498Y251002D01*
X256344Y250772D01*
X256290Y250500D01*
Y239500D01*
X256344Y239228D01*
X256498Y238998D01*
X256728Y238844D01*
X257000Y238790D01*
X261000D01*
X261272Y238844D01*
X261502Y238998D01*
X261656Y239228D01*
X261711Y239500D01*
Y250500D01*
X261656Y250772D01*
X261502Y251002D01*
X261272Y251156D01*
X261000Y251210D01*
D02*
G37*
G36*
X157500Y239000D02*
X156162D01*
X156210Y238759D01*
X156630Y238130D01*
X157259Y237710D01*
X157500Y237662D01*
Y239000D01*
D02*
G37*
G36*
X342449Y239500D02*
X340500D01*
Y237550D01*
X340975Y237645D01*
X341802Y238198D01*
X342355Y239024D01*
X342449Y239500D01*
D02*
G37*
G36*
X339500D02*
X337550D01*
X337645Y239024D01*
X338198Y238198D01*
X339024Y237645D01*
X339500Y237550D01*
Y239500D01*
D02*
G37*
G36*
X142449D02*
X140500D01*
Y237550D01*
X140975Y237645D01*
X141802Y238198D01*
X142355Y239024D01*
X142449Y239500D01*
D02*
G37*
G36*
X139500D02*
X137550D01*
X137645Y239024D01*
X138198Y238198D01*
X139024Y237645D01*
X139500Y237550D01*
Y239500D01*
D02*
G37*
G36*
X122450D02*
X120500D01*
Y237550D01*
X120975Y237645D01*
X121802Y238198D01*
X122355Y239024D01*
X122450Y239500D01*
D02*
G37*
G36*
X119500D02*
X117551D01*
X117645Y239024D01*
X118198Y238198D01*
X119025Y237645D01*
X119500Y237550D01*
Y239500D01*
D02*
G37*
G36*
X268500Y237338D02*
Y236000D01*
X269838D01*
X269790Y236241D01*
X269370Y236870D01*
X268741Y237290D01*
X268500Y237338D01*
D02*
G37*
G36*
X267500D02*
X267259Y237290D01*
X266630Y236870D01*
X266210Y236241D01*
X266162Y236000D01*
X267500D01*
Y237338D01*
D02*
G37*
G36*
X269838Y235000D02*
X268500D01*
Y233662D01*
X268741Y233710D01*
X269370Y234130D01*
X269790Y234759D01*
X269838Y235000D01*
D02*
G37*
G36*
X267500D02*
X266162D01*
X266210Y234759D01*
X266630Y234130D01*
X267259Y233710D01*
X267500Y233662D01*
Y235000D01*
D02*
G37*
G36*
X308000Y226338D02*
Y225000D01*
X309338D01*
X309290Y225241D01*
X308870Y225870D01*
X308241Y226290D01*
X308000Y226338D01*
D02*
G37*
G36*
X307000D02*
X306759Y226290D01*
X306130Y225870D01*
X305710Y225241D01*
X305662Y225000D01*
X307000D01*
Y226338D01*
D02*
G37*
G36*
X333756Y235004D02*
X326244D01*
Y227492D01*
X328821D01*
X328920Y226992D01*
X328106Y226655D01*
X327321Y226053D01*
X326719Y225268D01*
X326341Y224355D01*
X326277Y223874D01*
X330000D01*
X333722D01*
X333659Y224355D01*
X333281Y225268D01*
X332679Y226053D01*
X331894Y226655D01*
X331080Y226992D01*
X331179Y227492D01*
X333756D01*
Y235004D01*
D02*
G37*
G36*
X309338Y224000D02*
X308000D01*
Y222662D01*
X308241Y222710D01*
X308870Y223130D01*
X309290Y223759D01*
X309338Y224000D01*
D02*
G37*
G36*
X307000D02*
X305662D01*
X305710Y223759D01*
X306130Y223130D01*
X306759Y222710D01*
X307000Y222662D01*
Y224000D01*
D02*
G37*
G36*
X310500Y222449D02*
Y220500D01*
X312450D01*
X312355Y220975D01*
X311802Y221802D01*
X310976Y222355D01*
X310500Y222449D01*
D02*
G37*
G36*
X309500D02*
X309025Y222355D01*
X308198Y221802D01*
X307645Y220975D01*
X307551Y220500D01*
X309500D01*
Y222449D01*
D02*
G37*
G36*
X290500D02*
Y220500D01*
X292449D01*
X292355Y220975D01*
X291802Y221802D01*
X290975Y222355D01*
X290500Y222449D01*
D02*
G37*
G36*
X289500D02*
X289024Y222355D01*
X288198Y221802D01*
X287645Y220975D01*
X287550Y220500D01*
X289500D01*
Y222449D01*
D02*
G37*
G36*
X230500D02*
Y220500D01*
X232450D01*
X232355Y220975D01*
X231802Y221802D01*
X230976Y222355D01*
X230500Y222449D01*
D02*
G37*
G36*
X229500D02*
X229025Y222355D01*
X228198Y221802D01*
X227645Y220975D01*
X227551Y220500D01*
X229500D01*
Y222449D01*
D02*
G37*
G36*
X210500D02*
Y220500D01*
X212450D01*
X212355Y220975D01*
X211802Y221802D01*
X210976Y222355D01*
X210500Y222449D01*
D02*
G37*
G36*
X209500D02*
X209025Y222355D01*
X208198Y221802D01*
X207645Y220975D01*
X207551Y220500D01*
X209500D01*
Y222449D01*
D02*
G37*
G36*
X150500D02*
Y220500D01*
X152450D01*
X152355Y220975D01*
X151802Y221802D01*
X150976Y222355D01*
X150500Y222449D01*
D02*
G37*
G36*
X149500D02*
X149024Y222355D01*
X148198Y221802D01*
X147645Y220975D01*
X147550Y220500D01*
X149500D01*
Y222449D01*
D02*
G37*
G36*
X130500D02*
Y220500D01*
X132449D01*
X132355Y220975D01*
X131802Y221802D01*
X130975Y222355D01*
X130500Y222449D01*
D02*
G37*
G36*
X129500D02*
X129025Y222355D01*
X128198Y221802D01*
X127645Y220975D01*
X127550Y220500D01*
X129500D01*
Y222449D01*
D02*
G37*
G36*
X312450Y219500D02*
X310500D01*
Y217550D01*
X310976Y217645D01*
X311802Y218198D01*
X312355Y219024D01*
X312450Y219500D01*
D02*
G37*
G36*
X309500D02*
X307551D01*
X307645Y219024D01*
X308198Y218198D01*
X309025Y217645D01*
X309500Y217550D01*
Y219500D01*
D02*
G37*
G36*
X292449D02*
X290500D01*
Y217550D01*
X290975Y217645D01*
X291802Y218198D01*
X292355Y219024D01*
X292449Y219500D01*
D02*
G37*
G36*
X289500D02*
X287550D01*
X287645Y219024D01*
X288198Y218198D01*
X289024Y217645D01*
X289500Y217550D01*
Y219500D01*
D02*
G37*
G36*
X232450D02*
X230500D01*
Y217550D01*
X230976Y217645D01*
X231802Y218198D01*
X232355Y219024D01*
X232450Y219500D01*
D02*
G37*
G36*
X229500D02*
X227551D01*
X227645Y219024D01*
X228198Y218198D01*
X229025Y217645D01*
X229500Y217550D01*
Y219500D01*
D02*
G37*
G36*
X212450D02*
X210500D01*
Y217550D01*
X210976Y217645D01*
X211802Y218198D01*
X212355Y219024D01*
X212450Y219500D01*
D02*
G37*
G36*
X209500D02*
X207551D01*
X207645Y219024D01*
X208198Y218198D01*
X209025Y217645D01*
X209500Y217550D01*
Y219500D01*
D02*
G37*
G36*
X152450D02*
X150500D01*
Y217550D01*
X150976Y217645D01*
X151802Y218198D01*
X152355Y219024D01*
X152450Y219500D01*
D02*
G37*
G36*
X149500D02*
X147550D01*
X147645Y219024D01*
X148198Y218198D01*
X149024Y217645D01*
X149500Y217550D01*
Y219500D01*
D02*
G37*
G36*
X132449D02*
X130500D01*
Y217550D01*
X130975Y217645D01*
X131802Y218198D01*
X132355Y219024D01*
X132449Y219500D01*
D02*
G37*
G36*
X129500D02*
X127550D01*
X127645Y219024D01*
X128198Y218198D01*
X129025Y217645D01*
X129500Y217550D01*
Y219500D01*
D02*
G37*
G36*
X192968Y218338D02*
Y217000D01*
X194306D01*
X194258Y217241D01*
X193838Y217870D01*
X193210Y218290D01*
X192968Y218338D01*
D02*
G37*
G36*
X191969D02*
X191727Y218290D01*
X191099Y217870D01*
X190679Y217241D01*
X190631Y217000D01*
X191969D01*
Y218338D01*
D02*
G37*
G36*
X108248Y219748D02*
X104500D01*
Y216000D01*
X108248D01*
Y219748D01*
D02*
G37*
G36*
X194306Y216000D02*
X192968D01*
Y214662D01*
X193210Y214710D01*
X193838Y215130D01*
X194258Y215759D01*
X194306Y216000D01*
D02*
G37*
G36*
X191969D02*
X190631D01*
X190679Y215759D01*
X191099Y215130D01*
X191727Y214710D01*
X191969Y214662D01*
Y216000D01*
D02*
G37*
G36*
X307256Y213838D02*
Y212500D01*
X308594D01*
X308546Y212741D01*
X308126Y213370D01*
X307497Y213790D01*
X307256Y213838D01*
D02*
G37*
G36*
X306256D02*
X306015Y213790D01*
X305386Y213370D01*
X304966Y212741D01*
X304918Y212500D01*
X306256D01*
Y213838D01*
D02*
G37*
G36*
X167408Y213338D02*
Y212000D01*
X168746D01*
X168698Y212241D01*
X168278Y212870D01*
X167649Y213290D01*
X167408Y213338D01*
D02*
G37*
G36*
X166408D02*
X166166Y213290D01*
X165538Y212870D01*
X165118Y212241D01*
X165070Y212000D01*
X166408D01*
Y213338D01*
D02*
G37*
G36*
X333722Y222874D02*
X330000D01*
X326277D01*
X326341Y222393D01*
X326719Y221480D01*
X327321Y220695D01*
X328106Y220093D01*
X329019Y219715D01*
X329214Y219689D01*
Y219185D01*
X329019Y219159D01*
X328106Y218781D01*
X327321Y218179D01*
X326719Y217394D01*
X326341Y216480D01*
X326212Y215500D01*
X326341Y214520D01*
X326719Y213606D01*
X327321Y212821D01*
X328106Y212219D01*
X329019Y211841D01*
X330000Y211712D01*
X330980Y211841D01*
X331894Y212219D01*
X332679Y212821D01*
X333281Y213606D01*
X333659Y214520D01*
X333788Y215500D01*
X333659Y216480D01*
X333281Y217394D01*
X332679Y218179D01*
X331894Y218781D01*
X330980Y219159D01*
X330786Y219185D01*
Y219689D01*
X330980Y219715D01*
X331894Y220093D01*
X332679Y220695D01*
X333281Y221480D01*
X333659Y222393D01*
X333722Y222874D01*
D02*
G37*
G36*
X108248Y215000D02*
X104500D01*
Y211252D01*
X108248D01*
Y215000D01*
D02*
G37*
G36*
X308594Y211500D02*
X307256D01*
Y210162D01*
X307497Y210210D01*
X308126Y210630D01*
X308546Y211259D01*
X308594Y211500D01*
D02*
G37*
G36*
X306256D02*
X304918D01*
X304966Y211259D01*
X305386Y210630D01*
X306015Y210210D01*
X306256Y210162D01*
Y211500D01*
D02*
G37*
G36*
X168746Y211000D02*
X167408D01*
Y209662D01*
X167649Y209710D01*
X168278Y210130D01*
X168698Y210759D01*
X168746Y211000D01*
D02*
G37*
G36*
X166408D02*
X165070D01*
X165118Y210759D01*
X165538Y210130D01*
X166166Y209710D01*
X166408Y209662D01*
Y211000D01*
D02*
G37*
G36*
X340500Y202449D02*
Y200500D01*
X342449D01*
X342355Y200975D01*
X341802Y201802D01*
X340975Y202355D01*
X340500Y202449D01*
D02*
G37*
G36*
X339500D02*
X339024Y202355D01*
X338198Y201802D01*
X337645Y200975D01*
X337550Y200500D01*
X339500D01*
Y202449D01*
D02*
G37*
G36*
X260500D02*
Y200500D01*
X262450D01*
X262355Y200975D01*
X261802Y201802D01*
X260976Y202355D01*
X260500Y202449D01*
D02*
G37*
G36*
X259500D02*
X259025Y202355D01*
X258198Y201802D01*
X257645Y200975D01*
X257551Y200500D01*
X259500D01*
Y202449D01*
D02*
G37*
G36*
X240500D02*
Y200500D01*
X242449D01*
X242355Y200975D01*
X241802Y201802D01*
X240975Y202355D01*
X240500Y202449D01*
D02*
G37*
G36*
X239500D02*
X239024Y202355D01*
X238198Y201802D01*
X237645Y200975D01*
X237550Y200500D01*
X239500D01*
Y202449D01*
D02*
G37*
G36*
X160500D02*
Y200500D01*
X162450D01*
X162355Y200975D01*
X161802Y201802D01*
X160976Y202355D01*
X160500Y202449D01*
D02*
G37*
G36*
X159500D02*
X159025Y202355D01*
X158198Y201802D01*
X157645Y200975D01*
X157551Y200500D01*
X159500D01*
Y202449D01*
D02*
G37*
G36*
X140500D02*
Y200500D01*
X142449D01*
X142355Y200975D01*
X141802Y201802D01*
X140975Y202355D01*
X140500Y202449D01*
D02*
G37*
G36*
X139500D02*
X139024Y202355D01*
X138198Y201802D01*
X137645Y200975D01*
X137550Y200500D01*
X139500D01*
Y202449D01*
D02*
G37*
G36*
X120500D02*
Y200500D01*
X122450D01*
X122355Y200975D01*
X121802Y201802D01*
X120975Y202355D01*
X120500Y202449D01*
D02*
G37*
G36*
X119500D02*
X119025Y202355D01*
X118198Y201802D01*
X117645Y200975D01*
X117551Y200500D01*
X119500D01*
Y202449D01*
D02*
G37*
G36*
X342449Y199500D02*
X340500D01*
Y197550D01*
X340975Y197645D01*
X341802Y198198D01*
X342355Y199024D01*
X342449Y199500D01*
D02*
G37*
G36*
X339500D02*
X337550D01*
X337645Y199024D01*
X338198Y198198D01*
X339024Y197645D01*
X339500Y197550D01*
Y199500D01*
D02*
G37*
G36*
X262450D02*
X260500D01*
Y197550D01*
X260976Y197645D01*
X261802Y198198D01*
X262355Y199024D01*
X262450Y199500D01*
D02*
G37*
G36*
X259500D02*
X257551D01*
X257645Y199024D01*
X258198Y198198D01*
X259025Y197645D01*
X259500Y197550D01*
Y199500D01*
D02*
G37*
G36*
X242449D02*
X240500D01*
Y197550D01*
X240975Y197645D01*
X241802Y198198D01*
X242355Y199024D01*
X242449Y199500D01*
D02*
G37*
G36*
X239500D02*
X237550D01*
X237645Y199024D01*
X238198Y198198D01*
X239024Y197645D01*
X239500Y197550D01*
Y199500D01*
D02*
G37*
G36*
X162450D02*
X160500D01*
Y197550D01*
X160976Y197645D01*
X161802Y198198D01*
X162355Y199024D01*
X162450Y199500D01*
D02*
G37*
G36*
X159500D02*
X157551D01*
X157645Y199024D01*
X158198Y198198D01*
X159025Y197645D01*
X159500Y197550D01*
Y199500D01*
D02*
G37*
G36*
X142449D02*
X140500D01*
Y197550D01*
X140975Y197645D01*
X141802Y198198D01*
X142355Y199024D01*
X142449Y199500D01*
D02*
G37*
G36*
X139500D02*
X137550D01*
X137645Y199024D01*
X138198Y198198D01*
X139024Y197645D01*
X139500Y197550D01*
Y199500D01*
D02*
G37*
G36*
X122450D02*
X120500D01*
Y197550D01*
X120975Y197645D01*
X121802Y198198D01*
X122355Y199024D01*
X122450Y199500D01*
D02*
G37*
G36*
X119500D02*
X117551D01*
X117645Y199024D01*
X118198Y198198D01*
X119025Y197645D01*
X119500Y197550D01*
Y199500D01*
D02*
G37*
G36*
X217500Y194838D02*
Y193500D01*
X218838D01*
X218790Y193741D01*
X218370Y194370D01*
X217741Y194790D01*
X217500Y194838D01*
D02*
G37*
G36*
X216500D02*
X216259Y194790D01*
X215630Y194370D01*
X215210Y193741D01*
X215162Y193500D01*
X216500D01*
Y194838D01*
D02*
G37*
G36*
X305500Y194338D02*
Y193000D01*
X306838D01*
X306790Y193241D01*
X306370Y193870D01*
X305741Y194290D01*
X305500Y194338D01*
D02*
G37*
G36*
X304500D02*
X304259Y194290D01*
X303630Y193870D01*
X303210Y193241D01*
X303162Y193000D01*
X304500D01*
Y194338D01*
D02*
G37*
G36*
X218838Y192500D02*
X217500D01*
Y191162D01*
X217741Y191210D01*
X218370Y191630D01*
X218790Y192259D01*
X218838Y192500D01*
D02*
G37*
G36*
X216500D02*
X215162D01*
X215210Y192259D01*
X215630Y191630D01*
X216259Y191210D01*
X216500Y191162D01*
Y192500D01*
D02*
G37*
G36*
X306838Y192000D02*
X305500D01*
Y190662D01*
X305741Y190710D01*
X306370Y191130D01*
X306790Y191759D01*
X306838Y192000D01*
D02*
G37*
G36*
X304500D02*
X303162D01*
X303210Y191759D01*
X303630Y191130D01*
X304259Y190710D01*
X304500Y190662D01*
Y192000D01*
D02*
G37*
G36*
X308500Y188338D02*
Y187000D01*
X309838D01*
X309790Y187241D01*
X309370Y187870D01*
X308741Y188290D01*
X308500Y188338D01*
D02*
G37*
G36*
X307500D02*
X307259Y188290D01*
X306630Y187870D01*
X306210Y187241D01*
X306162Y187000D01*
X307500D01*
Y188338D01*
D02*
G37*
G36*
X203500Y192604D02*
X202622Y192488D01*
X201804Y192149D01*
X201102Y191611D01*
X200563Y190908D01*
X200224Y190090D01*
X200109Y189213D01*
X200224Y188335D01*
X200563Y187517D01*
X201102Y186815D01*
X201804Y186276D01*
X202622Y185937D01*
X203500Y185821D01*
X204378Y185937D01*
X205196Y186276D01*
X205898Y186815D01*
X206437Y187517D01*
X206776Y188335D01*
X206891Y189213D01*
X206776Y190090D01*
X206437Y190908D01*
X205898Y191611D01*
X205196Y192149D01*
X204378Y192488D01*
X203500Y192604D01*
D02*
G37*
G36*
X309838Y186000D02*
X308500D01*
Y184662D01*
X308741Y184710D01*
X309370Y185130D01*
X309790Y185759D01*
X309838Y186000D01*
D02*
G37*
G36*
X307500D02*
X306162D01*
X306210Y185759D01*
X306630Y185130D01*
X307259Y184710D01*
X307500Y184662D01*
Y186000D01*
D02*
G37*
G36*
X270500Y182449D02*
Y180500D01*
X272449D01*
X272355Y180975D01*
X271802Y181802D01*
X270975Y182355D01*
X270500Y182449D01*
D02*
G37*
G36*
X269500D02*
X269024Y182355D01*
X268198Y181802D01*
X267645Y180975D01*
X267550Y180500D01*
X269500D01*
Y182449D01*
D02*
G37*
G36*
X250500D02*
Y180500D01*
X252449D01*
X252355Y180975D01*
X251802Y181802D01*
X250975Y182355D01*
X250500Y182449D01*
D02*
G37*
G36*
X249500D02*
X249025Y182355D01*
X248198Y181802D01*
X247645Y180975D01*
X247551Y180500D01*
X249500D01*
Y182449D01*
D02*
G37*
G36*
X210500D02*
Y180500D01*
X212450D01*
X212355Y180975D01*
X211802Y181802D01*
X210976Y182355D01*
X210500Y182449D01*
D02*
G37*
G36*
X209500D02*
X209025Y182355D01*
X208198Y181802D01*
X207645Y180975D01*
X207551Y180500D01*
X209500D01*
Y182449D01*
D02*
G37*
G36*
X190500D02*
Y180500D01*
X192449D01*
X192355Y180975D01*
X191802Y181802D01*
X190975Y182355D01*
X190500Y182449D01*
D02*
G37*
G36*
X189500D02*
X189024Y182355D01*
X188198Y181802D01*
X187645Y180975D01*
X187550Y180500D01*
X189500D01*
Y182449D01*
D02*
G37*
G36*
X169500D02*
X169025Y182355D01*
X168198Y181802D01*
X167645Y180975D01*
X167551Y180500D01*
X169500D01*
Y182449D01*
D02*
G37*
G36*
X150500D02*
Y180500D01*
X152450D01*
X152355Y180975D01*
X151802Y181802D01*
X150976Y182355D01*
X150500Y182449D01*
D02*
G37*
G36*
X149500D02*
X149024Y182355D01*
X148198Y181802D01*
X147645Y180975D01*
X147550Y180500D01*
X149500D01*
Y182449D01*
D02*
G37*
G36*
X130500D02*
Y180500D01*
X132449D01*
X132355Y180975D01*
X131802Y181802D01*
X130975Y182355D01*
X130500Y182449D01*
D02*
G37*
G36*
X129500D02*
X129025Y182355D01*
X128198Y181802D01*
X127645Y180975D01*
X127550Y180500D01*
X129500D01*
Y182449D01*
D02*
G37*
G36*
X220500Y179838D02*
Y178500D01*
X221838D01*
X221790Y178741D01*
X221370Y179370D01*
X220741Y179790D01*
X220500Y179838D01*
D02*
G37*
G36*
X219500D02*
X219259Y179790D01*
X218630Y179370D01*
X218210Y178741D01*
X218162Y178500D01*
X219500D01*
Y179838D01*
D02*
G37*
G36*
X272449Y179500D02*
X270500D01*
Y177550D01*
X270975Y177645D01*
X271802Y178198D01*
X272355Y179025D01*
X272449Y179500D01*
D02*
G37*
G36*
X269500D02*
X267550D01*
X267645Y179025D01*
X268198Y178198D01*
X269024Y177645D01*
X269500Y177550D01*
Y179500D01*
D02*
G37*
G36*
X252449D02*
X250500D01*
Y177550D01*
X250975Y177645D01*
X251802Y178198D01*
X252355Y179025D01*
X252449Y179500D01*
D02*
G37*
G36*
X249500D02*
X247551D01*
X247645Y179025D01*
X248198Y178198D01*
X249025Y177645D01*
X249500Y177550D01*
Y179500D01*
D02*
G37*
G36*
X212450D02*
X210500D01*
Y177550D01*
X210976Y177645D01*
X211802Y178198D01*
X212355Y179025D01*
X212450Y179500D01*
D02*
G37*
G36*
X209500D02*
X207551D01*
X207645Y179025D01*
X208198Y178198D01*
X209025Y177645D01*
X209500Y177550D01*
Y179500D01*
D02*
G37*
G36*
X192449D02*
X190500D01*
Y177550D01*
X190975Y177645D01*
X191802Y178198D01*
X192355Y179025D01*
X192449Y179500D01*
D02*
G37*
G36*
X189500D02*
X187550D01*
X187645Y179025D01*
X188198Y178198D01*
X189024Y177645D01*
X189500Y177550D01*
Y179500D01*
D02*
G37*
G36*
X169500D02*
X167551D01*
X167645Y179025D01*
X168198Y178198D01*
X169025Y177645D01*
X169500Y177550D01*
Y179500D01*
D02*
G37*
G36*
X152450D02*
X150500D01*
Y177550D01*
X150976Y177645D01*
X151802Y178198D01*
X152355Y179025D01*
X152450Y179500D01*
D02*
G37*
G36*
X149500D02*
X147550D01*
X147645Y179025D01*
X148198Y178198D01*
X149024Y177645D01*
X149500Y177550D01*
Y179500D01*
D02*
G37*
G36*
X132449D02*
X130500D01*
Y177550D01*
X130975Y177645D01*
X131802Y178198D01*
X132355Y179025D01*
X132449Y179500D01*
D02*
G37*
G36*
X129500D02*
X127550D01*
X127645Y179025D01*
X128198Y178198D01*
X129025Y177645D01*
X129500Y177550D01*
Y179500D01*
D02*
G37*
G36*
X203500Y182998D02*
X202622Y182882D01*
X201804Y182543D01*
X201102Y182004D01*
X200563Y181302D01*
X200224Y180484D01*
X200109Y179606D01*
X200224Y178729D01*
X200563Y177911D01*
X201102Y177208D01*
X201804Y176669D01*
X202622Y176331D01*
X203500Y176215D01*
X204378Y176331D01*
X205196Y176669D01*
X205898Y177208D01*
X206437Y177911D01*
X206776Y178729D01*
X206891Y179606D01*
X206776Y180484D01*
X206437Y181302D01*
X205898Y182004D01*
X205196Y182543D01*
X204378Y182882D01*
X203500Y182998D01*
D02*
G37*
G36*
X221838Y177500D02*
X220500D01*
Y176162D01*
X220741Y176210D01*
X221370Y176630D01*
X221790Y177259D01*
X221838Y177500D01*
D02*
G37*
G36*
X219500D02*
X218162D01*
X218210Y177259D01*
X218630Y176630D01*
X219259Y176210D01*
X219500Y176162D01*
Y177500D01*
D02*
G37*
G36*
X296737Y177358D02*
Y176021D01*
X298075D01*
X298027Y176262D01*
X297607Y176891D01*
X296978Y177311D01*
X296737Y177358D01*
D02*
G37*
G36*
X295737D02*
X295496Y177311D01*
X294867Y176891D01*
X294447Y176262D01*
X294399Y176021D01*
X295737D01*
Y177358D01*
D02*
G37*
G36*
X298075Y175021D02*
X296737D01*
Y173683D01*
X296978Y173731D01*
X297607Y174151D01*
X298027Y174779D01*
X298075Y175021D01*
D02*
G37*
G36*
X295737D02*
X294399D01*
X294447Y174779D01*
X294867Y174151D01*
X295496Y173731D01*
X295737Y173683D01*
Y175021D01*
D02*
G37*
G36*
X334756Y182504D02*
X327244D01*
Y174992D01*
X329821D01*
X329920Y174492D01*
X329106Y174155D01*
X328321Y173553D01*
X327719Y172768D01*
X327341Y171854D01*
X327277Y171374D01*
X331000D01*
X334722D01*
X334659Y171854D01*
X334281Y172768D01*
X333679Y173553D01*
X332894Y174155D01*
X332080Y174492D01*
X332179Y174992D01*
X334756D01*
Y182504D01*
D02*
G37*
G36*
X206862Y173362D02*
X200138D01*
Y166638D01*
X206862D01*
Y173362D01*
D02*
G37*
G36*
X291244Y165338D02*
Y164000D01*
X292582D01*
X292534Y164241D01*
X292114Y164870D01*
X291485Y165290D01*
X291244Y165338D01*
D02*
G37*
G36*
X290244D02*
X290003Y165290D01*
X289374Y164870D01*
X288954Y164241D01*
X288906Y164000D01*
X290244D01*
Y165338D01*
D02*
G37*
G36*
X292582Y163000D02*
X291244D01*
Y161662D01*
X291485Y161710D01*
X292114Y162130D01*
X292534Y162759D01*
X292582Y163000D01*
D02*
G37*
G36*
X290244D02*
X288906D01*
X288954Y162759D01*
X289374Y162130D01*
X290003Y161710D01*
X290244Y161662D01*
Y163000D01*
D02*
G37*
G36*
X340500Y162450D02*
Y160500D01*
X342449D01*
X342355Y160976D01*
X341802Y161802D01*
X340975Y162355D01*
X340500Y162450D01*
D02*
G37*
G36*
X339500D02*
X339024Y162355D01*
X338198Y161802D01*
X337645Y160976D01*
X337550Y160500D01*
X339500D01*
Y162450D01*
D02*
G37*
G36*
X280500D02*
Y160500D01*
X282450D01*
X282355Y160976D01*
X281802Y161802D01*
X280976Y162355D01*
X280500Y162450D01*
D02*
G37*
G36*
X279500D02*
X279025Y162355D01*
X278198Y161802D01*
X277645Y160976D01*
X277551Y160500D01*
X279500D01*
Y162450D01*
D02*
G37*
G36*
X240500D02*
Y160500D01*
X242449D01*
X242355Y160976D01*
X241802Y161802D01*
X240975Y162355D01*
X240500Y162450D01*
D02*
G37*
G36*
X239500D02*
X239024Y162355D01*
X238198Y161802D01*
X237645Y160976D01*
X237550Y160500D01*
X239500D01*
Y162450D01*
D02*
G37*
G36*
X220500D02*
Y160500D01*
X222449D01*
X222355Y160976D01*
X221802Y161802D01*
X220975Y162355D01*
X220500Y162450D01*
D02*
G37*
G36*
X219500D02*
X219024Y162355D01*
X218198Y161802D01*
X217645Y160976D01*
X217550Y160500D01*
X219500D01*
Y162450D01*
D02*
G37*
G36*
X200500D02*
Y160500D01*
X202449D01*
X202355Y160976D01*
X201802Y161802D01*
X200975Y162355D01*
X200500Y162450D01*
D02*
G37*
G36*
X199500D02*
X199024Y162355D01*
X198198Y161802D01*
X197645Y160976D01*
X197550Y160500D01*
X199500D01*
Y162450D01*
D02*
G37*
G36*
X180500D02*
Y160500D01*
X182449D01*
X182355Y160976D01*
X181802Y161802D01*
X180975Y162355D01*
X180500Y162450D01*
D02*
G37*
G36*
X179500D02*
X179025Y162355D01*
X178198Y161802D01*
X177645Y160976D01*
X177550Y160500D01*
X179500D01*
Y162450D01*
D02*
G37*
G36*
X160500D02*
Y160500D01*
X162450D01*
X162355Y160976D01*
X161802Y161802D01*
X160976Y162355D01*
X160500Y162450D01*
D02*
G37*
G36*
X159500D02*
X159025Y162355D01*
X158198Y161802D01*
X157645Y160976D01*
X157551Y160500D01*
X159500D01*
Y162450D01*
D02*
G37*
G36*
X334722Y170374D02*
X331000D01*
X327277D01*
X327341Y169894D01*
X327719Y168980D01*
X328321Y168195D01*
X329106Y167593D01*
X330019Y167215D01*
X330214Y167189D01*
Y166685D01*
X330019Y166659D01*
X329106Y166281D01*
X328321Y165679D01*
X327719Y164894D01*
X327341Y163980D01*
X327212Y163000D01*
X327341Y162020D01*
X327719Y161106D01*
X328321Y160321D01*
X329106Y159719D01*
X330019Y159341D01*
X331000Y159212D01*
X331980Y159341D01*
X332894Y159719D01*
X333679Y160321D01*
X334281Y161106D01*
X334659Y162020D01*
X334788Y163000D01*
X334659Y163980D01*
X334281Y164894D01*
X333679Y165679D01*
X332894Y166281D01*
X331980Y166659D01*
X331786Y166685D01*
Y167189D01*
X331980Y167215D01*
X332894Y167593D01*
X333679Y168195D01*
X334281Y168980D01*
X334659Y169894D01*
X334722Y170374D01*
D02*
G37*
G36*
X267000Y159838D02*
Y158500D01*
X268338D01*
X268290Y158741D01*
X267870Y159370D01*
X267241Y159790D01*
X267000Y159838D01*
D02*
G37*
G36*
X266000D02*
X265759Y159790D01*
X265130Y159370D01*
X264710Y158741D01*
X264662Y158500D01*
X266000D01*
Y159838D01*
D02*
G37*
G36*
X242449Y159500D02*
X240500D01*
Y157551D01*
X240975Y157645D01*
X241802Y158198D01*
X242355Y159025D01*
X242449Y159500D01*
D02*
G37*
G36*
X239500D02*
X237550D01*
X237645Y159025D01*
X238198Y158198D01*
X239024Y157645D01*
X239500Y157551D01*
Y159500D01*
D02*
G37*
G36*
X222449D02*
X220500D01*
Y157551D01*
X220975Y157645D01*
X221802Y158198D01*
X222355Y159025D01*
X222449Y159500D01*
D02*
G37*
G36*
X219500D02*
X217550D01*
X217645Y159025D01*
X218198Y158198D01*
X219024Y157645D01*
X219500Y157551D01*
Y159500D01*
D02*
G37*
G36*
X202449D02*
X200500D01*
Y157551D01*
X200975Y157645D01*
X201802Y158198D01*
X202355Y159025D01*
X202449Y159500D01*
D02*
G37*
G36*
X199500D02*
X197550D01*
X197645Y159025D01*
X198198Y158198D01*
X199024Y157645D01*
X199500Y157551D01*
Y159500D01*
D02*
G37*
G36*
X182449D02*
X180500D01*
Y157551D01*
X180975Y157645D01*
X181802Y158198D01*
X182355Y159025D01*
X182449Y159500D01*
D02*
G37*
G36*
X179500D02*
X177550D01*
X177645Y159025D01*
X178198Y158198D01*
X179025Y157645D01*
X179500Y157551D01*
Y159500D01*
D02*
G37*
G36*
X162450D02*
X160500D01*
Y157551D01*
X160976Y157645D01*
X161802Y158198D01*
X162355Y159025D01*
X162450Y159500D01*
D02*
G37*
G36*
X159500D02*
X157551D01*
X157645Y159025D01*
X158198Y158198D01*
X159025Y157645D01*
X159500Y157551D01*
Y159500D01*
D02*
G37*
G36*
X342449D02*
X340500D01*
Y157551D01*
X340975Y157645D01*
X341802Y158198D01*
X342355Y159025D01*
X342449Y159500D01*
D02*
G37*
G36*
X339500D02*
X337550D01*
X337645Y159025D01*
X338198Y158198D01*
X339024Y157645D01*
X339500Y157551D01*
Y159500D01*
D02*
G37*
G36*
X282450D02*
X280500D01*
Y157551D01*
X280976Y157645D01*
X281802Y158198D01*
X282355Y159025D01*
X282450Y159500D01*
D02*
G37*
G36*
X279500D02*
X277551D01*
X277645Y159025D01*
X278198Y158198D01*
X279025Y157645D01*
X279500Y157551D01*
Y159500D01*
D02*
G37*
G36*
X268338Y157500D02*
X267000D01*
Y156162D01*
X267241Y156210D01*
X267870Y156630D01*
X268290Y157259D01*
X268338Y157500D01*
D02*
G37*
G36*
X266000D02*
X264662D01*
X264710Y157259D01*
X265130Y156630D01*
X265759Y156210D01*
X266000Y156162D01*
Y157500D01*
D02*
G37*
G36*
X330500Y142449D02*
Y140500D01*
X332450D01*
X332355Y140975D01*
X331802Y141802D01*
X330976Y142355D01*
X330500Y142449D01*
D02*
G37*
G36*
X329500D02*
X329025Y142355D01*
X328198Y141802D01*
X327645Y140975D01*
X327551Y140500D01*
X329500D01*
Y142449D01*
D02*
G37*
G36*
X310500D02*
Y140500D01*
X312450D01*
X312355Y140975D01*
X311802Y141802D01*
X310976Y142355D01*
X310500Y142449D01*
D02*
G37*
G36*
X309500D02*
X309025Y142355D01*
X308198Y141802D01*
X307645Y140975D01*
X307551Y140500D01*
X309500D01*
Y142449D01*
D02*
G37*
G36*
X129225Y142000D02*
X125000D01*
Y137775D01*
X125740Y137872D01*
X126895Y138351D01*
X127888Y139112D01*
X128649Y140104D01*
X129128Y141260D01*
X129225Y142000D01*
D02*
G37*
G36*
X124000D02*
X119775D01*
X119872Y141260D01*
X120351Y140104D01*
X121112Y139112D01*
X122105Y138351D01*
X123260Y137872D01*
X124000Y137775D01*
Y142000D01*
D02*
G37*
G36*
X332450Y139500D02*
X330500D01*
Y137550D01*
X330976Y137645D01*
X331802Y138198D01*
X332355Y139024D01*
X332450Y139500D01*
D02*
G37*
G36*
X329500D02*
X327551D01*
X327645Y139024D01*
X328198Y138198D01*
X329025Y137645D01*
X329500Y137550D01*
Y139500D01*
D02*
G37*
G36*
X312450D02*
X310500D01*
Y137550D01*
X310976Y137645D01*
X311802Y138198D01*
X312355Y139024D01*
X312450Y139500D01*
D02*
G37*
G36*
X309500D02*
X307551D01*
X307645Y139024D01*
X308198Y138198D01*
X309025Y137645D01*
X309500Y137550D01*
Y139500D01*
D02*
G37*
G36*
X292449D02*
X290500D01*
Y137550D01*
X290975Y137645D01*
X291802Y138198D01*
X292355Y139024D01*
X292449Y139500D01*
D02*
G37*
G36*
X289500D02*
X287550D01*
X287645Y139024D01*
X288198Y138198D01*
X289024Y137645D01*
X289500Y137550D01*
Y139500D01*
D02*
G37*
G36*
X272449D02*
X270500D01*
Y137550D01*
X270975Y137645D01*
X271802Y138198D01*
X272355Y139024D01*
X272449Y139500D01*
D02*
G37*
G36*
X269500D02*
X267550D01*
X267645Y139024D01*
X268198Y138198D01*
X269024Y137645D01*
X269500Y137550D01*
Y139500D01*
D02*
G37*
G36*
X252449D02*
X250500D01*
Y137550D01*
X250975Y137645D01*
X251802Y138198D01*
X252355Y139024D01*
X252449Y139500D01*
D02*
G37*
G36*
X249500D02*
X247551D01*
X247645Y139024D01*
X248198Y138198D01*
X249025Y137645D01*
X249500Y137550D01*
Y139500D01*
D02*
G37*
G36*
X232450D02*
X230500D01*
Y137550D01*
X230976Y137645D01*
X231802Y138198D01*
X232355Y139024D01*
X232450Y139500D01*
D02*
G37*
G36*
X229500D02*
X227551D01*
X227645Y139024D01*
X228198Y138198D01*
X229025Y137645D01*
X229500Y137550D01*
Y139500D01*
D02*
G37*
G36*
X212450D02*
X210500D01*
Y137550D01*
X210976Y137645D01*
X211802Y138198D01*
X212355Y139024D01*
X212450Y139500D01*
D02*
G37*
G36*
X209500D02*
X207551D01*
X207645Y139024D01*
X208198Y138198D01*
X209025Y137645D01*
X209500Y137550D01*
Y139500D01*
D02*
G37*
G36*
X192449D02*
X190500D01*
Y137550D01*
X190975Y137645D01*
X191802Y138198D01*
X192355Y139024D01*
X192449Y139500D01*
D02*
G37*
G36*
X189500D02*
X187550D01*
X187645Y139024D01*
X188198Y138198D01*
X189024Y137645D01*
X189500Y137550D01*
Y139500D01*
D02*
G37*
G36*
X172450D02*
X170500D01*
Y137550D01*
X170975Y137645D01*
X171802Y138198D01*
X172355Y139024D01*
X172450Y139500D01*
D02*
G37*
G36*
X169500D02*
X167551D01*
X167645Y139024D01*
X168198Y138198D01*
X169025Y137645D01*
X169500Y137550D01*
Y139500D01*
D02*
G37*
G36*
X152450D02*
X150500D01*
Y137550D01*
X150976Y137645D01*
X151802Y138198D01*
X152355Y139024D01*
X152450Y139500D01*
D02*
G37*
G36*
X149500D02*
X147550D01*
X147645Y139024D01*
X148198Y138198D01*
X149024Y137645D01*
X149500Y137550D01*
Y139500D01*
D02*
G37*
G36*
X340500Y122450D02*
Y120500D01*
X342449D01*
X342355Y120975D01*
X341802Y121802D01*
X340975Y122355D01*
X340500Y122450D01*
D02*
G37*
G36*
X320500D02*
Y120500D01*
X322449D01*
X322355Y120975D01*
X321802Y121802D01*
X320975Y122355D01*
X320500Y122450D01*
D02*
G37*
G36*
X319500D02*
X319024Y122355D01*
X318198Y121802D01*
X317645Y120975D01*
X317550Y120500D01*
X319500D01*
Y122450D01*
D02*
G37*
G36*
X300500D02*
Y120500D01*
X302449D01*
X302355Y120975D01*
X301802Y121802D01*
X300975Y122355D01*
X300500Y122450D01*
D02*
G37*
G36*
X299500D02*
X299025Y122355D01*
X298198Y121802D01*
X297645Y120975D01*
X297551Y120500D01*
X299500D01*
Y122450D01*
D02*
G37*
G36*
X280500D02*
Y120500D01*
X282450D01*
X282355Y120975D01*
X281802Y121802D01*
X280976Y122355D01*
X280500Y122450D01*
D02*
G37*
G36*
X279500D02*
X279025Y122355D01*
X278198Y121802D01*
X277645Y120975D01*
X277551Y120500D01*
X279500D01*
Y122450D01*
D02*
G37*
G36*
X260500D02*
Y120500D01*
X262450D01*
X262355Y120975D01*
X261802Y121802D01*
X260976Y122355D01*
X260500Y122450D01*
D02*
G37*
G36*
X259500D02*
X259025Y122355D01*
X258198Y121802D01*
X257645Y120975D01*
X257551Y120500D01*
X259500D01*
Y122450D01*
D02*
G37*
G36*
X240500D02*
Y120500D01*
X242449D01*
X242355Y120975D01*
X241802Y121802D01*
X240975Y122355D01*
X240500Y122450D01*
D02*
G37*
G36*
X239500D02*
X239024Y122355D01*
X238198Y121802D01*
X237645Y120975D01*
X237550Y120500D01*
X239500D01*
Y122450D01*
D02*
G37*
G36*
X220500D02*
Y120500D01*
X222449D01*
X222355Y120975D01*
X221802Y121802D01*
X220975Y122355D01*
X220500Y122450D01*
D02*
G37*
G36*
X219500D02*
X219024Y122355D01*
X218198Y121802D01*
X217645Y120975D01*
X217550Y120500D01*
X219500D01*
Y122450D01*
D02*
G37*
G36*
X200500D02*
Y120500D01*
X202449D01*
X202355Y120975D01*
X201802Y121802D01*
X200975Y122355D01*
X200500Y122450D01*
D02*
G37*
G36*
X199500D02*
X199024Y122355D01*
X198198Y121802D01*
X197645Y120975D01*
X197550Y120500D01*
X199500D01*
Y122450D01*
D02*
G37*
G36*
X180500D02*
Y120500D01*
X182449D01*
X182355Y120975D01*
X181802Y121802D01*
X180975Y122355D01*
X180500Y122450D01*
D02*
G37*
G36*
X179500D02*
X179025Y122355D01*
X178198Y121802D01*
X177645Y120975D01*
X177550Y120500D01*
X179500D01*
Y122450D01*
D02*
G37*
G36*
X160500D02*
Y120500D01*
X162450D01*
X162355Y120975D01*
X161802Y121802D01*
X160976Y122355D01*
X160500Y122450D01*
D02*
G37*
G36*
X159500D02*
X159025Y122355D01*
X158198Y121802D01*
X157645Y120975D01*
X157551Y120500D01*
X159500D01*
Y122450D01*
D02*
G37*
G36*
X140500D02*
Y120500D01*
X142449D01*
X142355Y120975D01*
X141802Y121802D01*
X140975Y122355D01*
X140500Y122450D01*
D02*
G37*
G36*
X139500D02*
X139024Y122355D01*
X138198Y121802D01*
X137645Y120975D01*
X137550Y120500D01*
X139500D01*
Y122450D01*
D02*
G37*
G36*
X342449Y119500D02*
X340500D01*
Y117551D01*
X340975Y117645D01*
X341802Y118198D01*
X342355Y119025D01*
X342449Y119500D01*
D02*
G37*
G36*
X330500Y125632D02*
X329206Y125505D01*
X327962Y125127D01*
X326816Y124514D01*
X325811Y123689D01*
X324986Y122685D01*
X324373Y121538D01*
X323995Y120294D01*
X323868Y119000D01*
X323995Y117706D01*
X324373Y116462D01*
X324986Y115315D01*
X325811Y114311D01*
X326816Y113486D01*
X327962Y112873D01*
X329206Y112496D01*
X330500Y112368D01*
X331794Y112496D01*
X333038Y112873D01*
X334185Y113486D01*
X335190Y114311D01*
X336014Y115315D01*
X336627Y116462D01*
X337004Y117706D01*
X337132Y119000D01*
X337124Y119082D01*
X337619Y119155D01*
X337645Y119025D01*
X338198Y118198D01*
X339024Y117645D01*
X339500Y117551D01*
Y120000D01*
Y122450D01*
X339024Y122355D01*
X338198Y121802D01*
X337645Y120975D01*
X337508Y120285D01*
X337004Y120294D01*
X336627Y121538D01*
X336014Y122685D01*
X335190Y123689D01*
X334185Y124514D01*
X333038Y125127D01*
X331794Y125505D01*
X330500Y125632D01*
D02*
G37*
G36*
X322449Y119500D02*
X320500D01*
Y117551D01*
X320975Y117645D01*
X321802Y118198D01*
X322355Y119025D01*
X322449Y119500D01*
D02*
G37*
G36*
X319500D02*
X317550D01*
X317645Y119025D01*
X318198Y118198D01*
X319024Y117645D01*
X319500Y117551D01*
Y119500D01*
D02*
G37*
G36*
X302449D02*
X300500D01*
Y117551D01*
X300975Y117645D01*
X301802Y118198D01*
X302355Y119025D01*
X302449Y119500D01*
D02*
G37*
G36*
X299500D02*
X297551D01*
X297645Y119025D01*
X298198Y118198D01*
X299025Y117645D01*
X299500Y117551D01*
Y119500D01*
D02*
G37*
G36*
X282450D02*
X280500D01*
Y117551D01*
X280976Y117645D01*
X281802Y118198D01*
X282355Y119025D01*
X282450Y119500D01*
D02*
G37*
G36*
X279500D02*
X277551D01*
X277645Y119025D01*
X278198Y118198D01*
X279025Y117645D01*
X279500Y117551D01*
Y119500D01*
D02*
G37*
G36*
X262450D02*
X260500D01*
Y117551D01*
X260976Y117645D01*
X261802Y118198D01*
X262355Y119025D01*
X262450Y119500D01*
D02*
G37*
G36*
X259500D02*
X257551D01*
X257645Y119025D01*
X258198Y118198D01*
X259025Y117645D01*
X259500Y117551D01*
Y119500D01*
D02*
G37*
G36*
X242449D02*
X240500D01*
Y117551D01*
X240975Y117645D01*
X241802Y118198D01*
X242355Y119025D01*
X242449Y119500D01*
D02*
G37*
G36*
X239500D02*
X237550D01*
X237645Y119025D01*
X238198Y118198D01*
X239024Y117645D01*
X239500Y117551D01*
Y119500D01*
D02*
G37*
G36*
X222449D02*
X220500D01*
Y117551D01*
X220975Y117645D01*
X221802Y118198D01*
X222355Y119025D01*
X222449Y119500D01*
D02*
G37*
G36*
X219500D02*
X217550D01*
X217645Y119025D01*
X218198Y118198D01*
X219024Y117645D01*
X219500Y117551D01*
Y119500D01*
D02*
G37*
G36*
X202449D02*
X200500D01*
Y117551D01*
X200975Y117645D01*
X201802Y118198D01*
X202355Y119025D01*
X202449Y119500D01*
D02*
G37*
G36*
X199500D02*
X197550D01*
X197645Y119025D01*
X198198Y118198D01*
X199024Y117645D01*
X199500Y117551D01*
Y119500D01*
D02*
G37*
G36*
X182449D02*
X180500D01*
Y117551D01*
X180975Y117645D01*
X181802Y118198D01*
X182355Y119025D01*
X182449Y119500D01*
D02*
G37*
G36*
X179500D02*
X177550D01*
X177645Y119025D01*
X178198Y118198D01*
X179025Y117645D01*
X179500Y117551D01*
Y119500D01*
D02*
G37*
G36*
X162450D02*
X160500D01*
Y117551D01*
X160976Y117645D01*
X161802Y118198D01*
X162355Y119025D01*
X162450Y119500D01*
D02*
G37*
G36*
X159500D02*
X157551D01*
X157645Y119025D01*
X158198Y118198D01*
X159025Y117645D01*
X159500Y117551D01*
Y119500D01*
D02*
G37*
G36*
X142449D02*
X140500D01*
Y117551D01*
X140975Y117645D01*
X141802Y118198D01*
X142355Y119025D01*
X142449Y119500D01*
D02*
G37*
G36*
X139500D02*
X137550D01*
X137645Y119025D01*
X138198Y118198D01*
X139024Y117645D01*
X139500Y117551D01*
Y119500D01*
D02*
G37*
G36*
X119000Y125132D02*
X117706Y125004D01*
X116462Y124627D01*
X115315Y124014D01*
X114311Y123189D01*
X113486Y122185D01*
X112873Y121038D01*
X112496Y119794D01*
X112368Y118500D01*
X112496Y117206D01*
X112873Y115962D01*
X113486Y114815D01*
X114311Y113811D01*
X115315Y112986D01*
X116462Y112373D01*
X117706Y111995D01*
X119000Y111868D01*
X120294Y111995D01*
X121538Y112373D01*
X122685Y112986D01*
X123689Y113811D01*
X124514Y114815D01*
X125127Y115962D01*
X125505Y117206D01*
X125632Y118500D01*
X125505Y119794D01*
X125127Y121038D01*
X124514Y122185D01*
X123689Y123189D01*
X122685Y124014D01*
X121538Y124627D01*
X120294Y125004D01*
X119000Y125132D01*
D02*
G37*
%LPD*%
G36*
X258448Y336424D02*
X258345Y336291D01*
X257888Y335186D01*
X257732Y334000D01*
X257888Y332814D01*
X258345Y331709D01*
X259074Y330760D01*
X260023Y330031D01*
X261128Y329574D01*
X262314Y329417D01*
X263500Y329574D01*
X264605Y330031D01*
X264738Y330134D01*
X272980Y321892D01*
Y315897D01*
X272480Y315630D01*
X272241Y315790D01*
X271500Y315937D01*
X270759Y315790D01*
X270695Y315747D01*
X270221Y316221D01*
X269890Y316442D01*
X269500Y316520D01*
X224422D01*
X213020Y327922D01*
Y331420D01*
X214186Y331574D01*
X215291Y332031D01*
X216240Y332760D01*
X216866Y333575D01*
X216908Y333603D01*
X217308Y333669D01*
X217485Y333648D01*
X220397Y330736D01*
X220728Y330515D01*
X221118Y330437D01*
X236958D01*
X237348Y330515D01*
X237679Y330736D01*
X244466Y337524D01*
X248661D01*
X248907Y337024D01*
X248345Y336291D01*
X247888Y335186D01*
X247731Y334000D01*
X247888Y332814D01*
X248345Y331709D01*
X249074Y330760D01*
X250023Y330031D01*
X251128Y329574D01*
X252314Y329417D01*
X253500Y329574D01*
X254605Y330031D01*
X255554Y330760D01*
X256283Y331709D01*
X256740Y332814D01*
X256896Y334000D01*
X256740Y335186D01*
X256283Y336291D01*
X255720Y337024D01*
X255967Y337524D01*
X257348D01*
X258448Y336424D01*
D02*
G37*
G36*
X337149Y274468D02*
X337547Y273507D01*
X338181Y272681D01*
X339007Y272047D01*
X339968Y271649D01*
X341000Y271513D01*
X342032Y271649D01*
X342993Y272047D01*
X343423Y272377D01*
X343923Y272131D01*
Y268869D01*
X343423Y268623D01*
X342993Y268953D01*
X342032Y269351D01*
X341000Y269487D01*
X339968Y269351D01*
X339007Y268953D01*
X338181Y268319D01*
X337547Y267493D01*
X337149Y266532D01*
X337147Y266520D01*
X325855D01*
X325588Y267020D01*
X325790Y267322D01*
X325838Y267563D01*
X322162D01*
X322210Y267322D01*
X322412Y267020D01*
X322145Y266520D01*
X317000D01*
X316610Y266442D01*
X316279Y266221D01*
X311179Y261121D01*
X310958Y260790D01*
X310880Y260400D01*
Y259491D01*
X302193Y250804D01*
X301284D01*
X300894Y250726D01*
X300564Y250505D01*
X291279Y241221D01*
X291058Y240890D01*
X290980Y240500D01*
Y230856D01*
X290480Y230704D01*
X290370Y230870D01*
X290020Y231104D01*
Y243078D01*
X321422Y274480D01*
X337147D01*
X337149Y274468D01*
D02*
G37*
%LPC*%
G36*
X260500Y322449D02*
Y320500D01*
X262450D01*
X262355Y320975D01*
X261802Y321802D01*
X260976Y322355D01*
X260500Y322449D01*
D02*
G37*
G36*
X259500D02*
X259025Y322355D01*
X258198Y321802D01*
X257645Y320975D01*
X257551Y320500D01*
X259500D01*
Y322449D01*
D02*
G37*
G36*
X262450Y319500D02*
X260500D01*
Y317550D01*
X260976Y317645D01*
X261802Y318198D01*
X262355Y319024D01*
X262450Y319500D01*
D02*
G37*
G36*
X259500D02*
X257551D01*
X257645Y319024D01*
X258198Y318198D01*
X259025Y317645D01*
X259500Y317550D01*
Y319500D01*
D02*
G37*
G36*
X324500Y269901D02*
Y268563D01*
X325838D01*
X325790Y268804D01*
X325370Y269433D01*
X324741Y269853D01*
X324500Y269901D01*
D02*
G37*
G36*
X323500D02*
X323259Y269853D01*
X322630Y269433D01*
X322210Y268804D01*
X322162Y268563D01*
X323500D01*
Y269901D01*
D02*
G37*
G36*
X583335Y371785D02*
X582035D01*
X580760Y371531D01*
X579559Y371034D01*
X578478Y370311D01*
X577559Y369392D01*
X576836Y368311D01*
X576339Y367110D01*
X576085Y365835D01*
Y364535D01*
X576339Y363260D01*
X576836Y362059D01*
X577559Y360978D01*
X578478Y360058D01*
X579559Y359336D01*
X580760Y358839D01*
X582035Y358585D01*
X583335D01*
X584610Y358839D01*
X585811Y359336D01*
X586892Y360058D01*
X587812Y360978D01*
X588534Y362059D01*
X589031Y363260D01*
X589285Y364535D01*
Y365835D01*
X589031Y367110D01*
X588534Y368311D01*
X587812Y369392D01*
X586892Y370311D01*
X585811Y371034D01*
X584610Y371531D01*
X583335Y371785D01*
D02*
G37*
G36*
X501335D02*
X500035D01*
X498760Y371531D01*
X497559Y371034D01*
X496478Y370311D01*
X495559Y369392D01*
X494836Y368311D01*
X494339Y367110D01*
X494085Y365835D01*
Y364535D01*
X494339Y363260D01*
X494836Y362059D01*
X495559Y360978D01*
X496478Y360058D01*
X497559Y359336D01*
X498760Y358839D01*
X500035Y358585D01*
X501335D01*
X502610Y358839D01*
X503811Y359336D01*
X504892Y360058D01*
X505812Y360978D01*
X506534Y362059D01*
X507031Y363260D01*
X507285Y364535D01*
Y365835D01*
X507031Y367110D01*
X506534Y368311D01*
X505812Y369392D01*
X504892Y370311D01*
X503811Y371034D01*
X502610Y371531D01*
X501335Y371785D01*
D02*
G37*
G36*
X567728Y364228D02*
X558642D01*
Y355142D01*
X567728D01*
Y364228D01*
D02*
G37*
G36*
X553783D02*
X552587D01*
X551431Y363919D01*
X550395Y363320D01*
X549549Y362475D01*
X548951Y361439D01*
X548642Y360283D01*
Y359087D01*
X548951Y357931D01*
X549549Y356895D01*
X550395Y356049D01*
X551431Y355451D01*
X552587Y355142D01*
X553783D01*
X554939Y355451D01*
X555975Y356049D01*
X556821Y356895D01*
X557419Y357931D01*
X557728Y359087D01*
Y360283D01*
X557419Y361439D01*
X556821Y362475D01*
X555975Y363320D01*
X554939Y363919D01*
X553783Y364228D01*
D02*
G37*
G36*
X543783D02*
X542587D01*
X541431Y363919D01*
X540395Y363320D01*
X539549Y362475D01*
X538951Y361439D01*
X538642Y360283D01*
Y359087D01*
X538951Y357931D01*
X539549Y356895D01*
X540395Y356049D01*
X541431Y355451D01*
X542587Y355142D01*
X543783D01*
X544939Y355451D01*
X545975Y356049D01*
X546821Y356895D01*
X547419Y357931D01*
X547728Y359087D01*
Y360283D01*
X547419Y361439D01*
X546821Y362475D01*
X545975Y363320D01*
X544939Y363919D01*
X543783Y364228D01*
D02*
G37*
G36*
X533783D02*
X532587D01*
X531431Y363919D01*
X530395Y363320D01*
X529550Y362475D01*
X528951Y361439D01*
X528642Y360283D01*
Y359087D01*
X528951Y357931D01*
X529550Y356895D01*
X530395Y356049D01*
X531431Y355451D01*
X532587Y355142D01*
X533783D01*
X534939Y355451D01*
X535975Y356049D01*
X536821Y356895D01*
X537419Y357931D01*
X537728Y359087D01*
Y360283D01*
X537419Y361439D01*
X536821Y362475D01*
X535975Y363320D01*
X534939Y363919D01*
X533783Y364228D01*
D02*
G37*
G36*
X523783D02*
X522587D01*
X521431Y363919D01*
X520395Y363320D01*
X519550Y362475D01*
X518951Y361439D01*
X518642Y360283D01*
Y359087D01*
X518951Y357931D01*
X519550Y356895D01*
X520395Y356049D01*
X521431Y355451D01*
X522587Y355142D01*
X523783D01*
X524939Y355451D01*
X525975Y356049D01*
X526821Y356895D01*
X527419Y357931D01*
X527728Y359087D01*
Y360283D01*
X527419Y361439D01*
X526821Y362475D01*
X525975Y363320D01*
X524939Y363919D01*
X523783Y364228D01*
D02*
G37*
G36*
X501335Y289785D02*
X500035D01*
X498760Y289531D01*
X497559Y289034D01*
X496478Y288312D01*
X495559Y287392D01*
X494836Y286311D01*
X494339Y285110D01*
X494085Y283835D01*
Y282535D01*
X494339Y281260D01*
X494836Y280059D01*
X495559Y278978D01*
X496478Y278058D01*
X497559Y277336D01*
X498760Y276839D01*
X500035Y276585D01*
X501335D01*
X502610Y276839D01*
X503811Y277336D01*
X504892Y278058D01*
X505812Y278978D01*
X506534Y280059D01*
X507031Y281260D01*
X507285Y282535D01*
Y283835D01*
X507031Y285110D01*
X506534Y286311D01*
X505812Y287392D01*
X504892Y288312D01*
X503811Y289034D01*
X502610Y289531D01*
X501335Y289785D01*
D02*
G37*
G36*
X583335Y289785D02*
X582035D01*
X580760Y289531D01*
X579559Y289034D01*
X578478Y288312D01*
X577559Y287392D01*
X576836Y286311D01*
X576339Y285110D01*
X576085Y283835D01*
Y282535D01*
X576339Y281260D01*
X576836Y280059D01*
X577559Y278978D01*
X578478Y278058D01*
X579559Y277336D01*
X580760Y276838D01*
X582035Y276585D01*
X583335D01*
X584610Y276838D01*
X585811Y277336D01*
X586892Y278058D01*
X587812Y278978D01*
X588534Y280059D01*
X589031Y281260D01*
X589285Y282535D01*
Y283835D01*
X589031Y285110D01*
X588534Y286311D01*
X587812Y287392D01*
X586892Y288312D01*
X585811Y289034D01*
X584610Y289531D01*
X583335Y289785D01*
D02*
G37*
G36*
X463650Y371785D02*
X462350D01*
X461075Y371531D01*
X459874Y371034D01*
X458793Y370311D01*
X457873Y369392D01*
X457151Y368311D01*
X456654Y367110D01*
X456400Y365835D01*
Y364535D01*
X456654Y363260D01*
X457151Y362059D01*
X457873Y360978D01*
X458793Y360058D01*
X459874Y359336D01*
X461075Y358839D01*
X462350Y358585D01*
X463650D01*
X464925Y358839D01*
X466126Y359336D01*
X467207Y360058D01*
X468127Y360978D01*
X468849Y362059D01*
X469346Y363260D01*
X469600Y364535D01*
Y365835D01*
X469346Y367110D01*
X468849Y368311D01*
X468127Y369392D01*
X467207Y370311D01*
X466126Y371034D01*
X464925Y371531D01*
X463650Y371785D01*
D02*
G37*
G36*
X381650D02*
X380350D01*
X379075Y371531D01*
X377874Y371034D01*
X376793Y370311D01*
X375873Y369392D01*
X375151Y368311D01*
X374654Y367110D01*
X374400Y365835D01*
Y364535D01*
X374654Y363260D01*
X375151Y362059D01*
X375873Y360978D01*
X376793Y360058D01*
X377874Y359336D01*
X379075Y358839D01*
X380350Y358585D01*
X381650D01*
X382925Y358839D01*
X384126Y359336D01*
X385207Y360058D01*
X386126Y360978D01*
X386849Y362059D01*
X387346Y363260D01*
X387600Y364535D01*
Y365835D01*
X387346Y367110D01*
X386849Y368311D01*
X386126Y369392D01*
X385207Y370311D01*
X384126Y371034D01*
X382925Y371531D01*
X381650Y371785D01*
D02*
G37*
G36*
X448043Y364228D02*
X438957D01*
Y355142D01*
X448043D01*
Y364228D01*
D02*
G37*
G36*
X434098D02*
X432902D01*
X431746Y363919D01*
X430710Y363320D01*
X429865Y362475D01*
X429266Y361439D01*
X428957Y360283D01*
Y359087D01*
X429266Y357931D01*
X429865Y356895D01*
X430710Y356049D01*
X431746Y355451D01*
X432902Y355142D01*
X434098D01*
X435254Y355451D01*
X436290Y356049D01*
X437136Y356895D01*
X437734Y357931D01*
X438043Y359087D01*
Y360283D01*
X437734Y361439D01*
X437136Y362475D01*
X436290Y363320D01*
X435254Y363919D01*
X434098Y364228D01*
D02*
G37*
G36*
X424098D02*
X422902D01*
X421746Y363919D01*
X420710Y363320D01*
X419865Y362475D01*
X419266Y361439D01*
X418957Y360283D01*
Y359087D01*
X419266Y357931D01*
X419865Y356895D01*
X420710Y356049D01*
X421746Y355451D01*
X422902Y355142D01*
X424098D01*
X425254Y355451D01*
X426290Y356049D01*
X427136Y356895D01*
X427734Y357931D01*
X428043Y359087D01*
Y360283D01*
X427734Y361439D01*
X427136Y362475D01*
X426290Y363320D01*
X425254Y363919D01*
X424098Y364228D01*
D02*
G37*
G36*
X414098D02*
X412902D01*
X411746Y363919D01*
X410710Y363320D01*
X409865Y362475D01*
X409266Y361439D01*
X408957Y360283D01*
Y359087D01*
X409266Y357931D01*
X409865Y356895D01*
X410710Y356049D01*
X411746Y355451D01*
X412902Y355142D01*
X414098D01*
X415254Y355451D01*
X416290Y356049D01*
X417135Y356895D01*
X417734Y357931D01*
X418043Y359087D01*
Y360283D01*
X417734Y361439D01*
X417135Y362475D01*
X416290Y363320D01*
X415254Y363919D01*
X414098Y364228D01*
D02*
G37*
G36*
X404098D02*
X402902D01*
X401746Y363919D01*
X400710Y363320D01*
X399865Y362475D01*
X399266Y361439D01*
X398957Y360283D01*
Y359087D01*
X399266Y357931D01*
X399865Y356895D01*
X400710Y356049D01*
X401746Y355451D01*
X402902Y355142D01*
X404098D01*
X405254Y355451D01*
X406290Y356049D01*
X407135Y356895D01*
X407734Y357931D01*
X408043Y359087D01*
Y360283D01*
X407734Y361439D01*
X407135Y362475D01*
X406290Y363320D01*
X405254Y363919D01*
X404098Y364228D01*
D02*
G37*
G36*
X381650Y289785D02*
X380350D01*
X379075Y289531D01*
X377874Y289034D01*
X376793Y288312D01*
X375873Y287392D01*
X375151Y286311D01*
X374654Y285110D01*
X374400Y283835D01*
Y282535D01*
X374654Y281260D01*
X375151Y280059D01*
X375873Y278978D01*
X376793Y278058D01*
X377874Y277336D01*
X379075Y276839D01*
X380350Y276585D01*
X381650D01*
X382925Y276839D01*
X384126Y277336D01*
X385207Y278058D01*
X386126Y278978D01*
X386849Y280059D01*
X387346Y281260D01*
X387600Y282535D01*
Y283835D01*
X387346Y285110D01*
X386849Y286311D01*
X386126Y287392D01*
X385207Y288312D01*
X384126Y289034D01*
X382925Y289531D01*
X381650Y289785D01*
D02*
G37*
G36*
X463650Y289785D02*
X462350D01*
X461075Y289531D01*
X459874Y289034D01*
X458793Y288312D01*
X457873Y287392D01*
X457151Y286311D01*
X456654Y285110D01*
X456400Y283835D01*
Y282535D01*
X456654Y281260D01*
X457151Y280059D01*
X457873Y278978D01*
X458793Y278058D01*
X459874Y277336D01*
X461075Y276838D01*
X462350Y276585D01*
X463650D01*
X464925Y276838D01*
X466126Y277336D01*
X467207Y278058D01*
X468126Y278978D01*
X468849Y280059D01*
X469346Y281260D01*
X469600Y282535D01*
Y283835D01*
X469346Y285110D01*
X468849Y286311D01*
X468126Y287392D01*
X467207Y288312D01*
X466126Y289034D01*
X464925Y289531D01*
X463650Y289785D01*
D02*
G37*
G36*
X516000Y245862D02*
X508488D01*
Y243181D01*
X507988Y243115D01*
X507870Y243556D01*
X507376Y244412D01*
X506676Y245112D01*
X505820Y245606D01*
X504865Y245862D01*
X503876D01*
X502920Y245606D01*
X502064Y245112D01*
X501365Y244412D01*
X500870Y243556D01*
X500692Y242891D01*
X500174D01*
X499996Y243556D01*
X499502Y244412D01*
X498802Y245112D01*
X497946Y245606D01*
X496991Y245862D01*
X496002D01*
X495046Y245606D01*
X494190Y245112D01*
X493491Y244412D01*
X492996Y243556D01*
X492740Y242601D01*
Y241612D01*
X492996Y240657D01*
X493491Y239800D01*
X494190Y239101D01*
X495046Y238606D01*
X496002Y238350D01*
X496991D01*
X497946Y238606D01*
X498802Y239101D01*
X499502Y239800D01*
X499996Y240657D01*
X500174Y241322D01*
X500692D01*
X500870Y240657D01*
X501365Y239800D01*
X502064Y239101D01*
X502920Y238606D01*
X503876Y238350D01*
X504865D01*
X505820Y238606D01*
X506066Y238748D01*
X510224Y234590D01*
Y228995D01*
X509724Y228788D01*
X509286Y229226D01*
X508367Y229606D01*
X507373D01*
X506454Y229226D01*
X505864Y228636D01*
X501370D01*
X500785Y228519D01*
X500289Y228188D01*
X493707Y221606D01*
X492873D01*
X491954Y221226D01*
X491251Y220522D01*
X490870Y219603D01*
Y218609D01*
X491251Y217690D01*
X491954Y216987D01*
X492873Y216606D01*
X493867D01*
X494786Y216987D01*
X495490Y217690D01*
X495870Y218609D01*
Y219443D01*
X502004Y225577D01*
X505864D01*
X506454Y224987D01*
X507373Y224606D01*
X508367D01*
X509286Y224987D01*
X509990Y225690D01*
X510008Y225735D01*
X510572Y225791D01*
X510672Y225642D01*
X516133Y220181D01*
X514559Y218606D01*
X515303Y217862D01*
X515096Y217362D01*
X514376D01*
X513420Y217106D01*
X512564Y216612D01*
X511865Y215912D01*
X511416Y215136D01*
X503870D01*
Y215603D01*
X503490Y216522D01*
X502786Y217226D01*
X501867Y217606D01*
X500873D01*
X499954Y217226D01*
X499251Y216522D01*
X498870Y215603D01*
Y214609D01*
X499251Y213690D01*
X499954Y212987D01*
X500873Y212606D01*
X501867D01*
X501920Y212628D01*
X502023Y212525D01*
X502519Y212193D01*
X503104Y212077D01*
X511416D01*
X511865Y211300D01*
X512564Y210601D01*
X513420Y210106D01*
X514376Y209850D01*
X515365D01*
X515831Y209975D01*
X516239Y209567D01*
X516114Y209101D01*
Y208112D01*
X516370Y207157D01*
X516865Y206300D01*
X517564Y205601D01*
X518420Y205106D01*
X519376Y204850D01*
X520365D01*
X521320Y205106D01*
X522176Y205601D01*
X522876Y206300D01*
X523370Y207157D01*
X523626Y208112D01*
Y209101D01*
X523370Y210056D01*
X522876Y210912D01*
X522176Y211612D01*
X521320Y212106D01*
X520365Y212362D01*
X519376D01*
X518909Y212237D01*
X518501Y212646D01*
X518626Y213112D01*
Y213832D01*
X519126Y214039D01*
X519870Y213295D01*
X525182Y218606D01*
X519870Y223918D01*
X518296Y222343D01*
X513282Y227357D01*
Y235223D01*
X513166Y235809D01*
X512835Y236305D01*
X511251Y237888D01*
X511442Y238350D01*
X516000D01*
Y245862D01*
D02*
G37*
G36*
X533520Y251706D02*
X532220D01*
X530945Y251453D01*
X529744Y250955D01*
X528663Y250233D01*
X527744Y249313D01*
X527021Y248233D01*
X526524Y247031D01*
X526270Y245756D01*
Y244456D01*
X526524Y243181D01*
X527021Y241980D01*
X527744Y240899D01*
X528663Y239980D01*
X529744Y239257D01*
X530945Y238760D01*
X532220Y238506D01*
X533520D01*
X534795Y238760D01*
X535996Y239257D01*
X537077Y239980D01*
X537997Y240899D01*
X538719Y241980D01*
X539217Y243181D01*
X539470Y244456D01*
Y245756D01*
X539217Y247031D01*
X538719Y248233D01*
X537997Y249313D01*
X537077Y250233D01*
X535996Y250955D01*
X534795Y251453D01*
X533520Y251706D01*
D02*
G37*
G36*
X476520D02*
X475220D01*
X473945Y251453D01*
X472744Y250955D01*
X471663Y250233D01*
X470744Y249313D01*
X470021Y248233D01*
X469524Y247031D01*
X469270Y245756D01*
Y244456D01*
X469524Y243181D01*
X470021Y241980D01*
X470744Y240899D01*
X471663Y239980D01*
X472744Y239257D01*
X473945Y238760D01*
X475220Y238506D01*
X476520D01*
X477795Y238760D01*
X478996Y239257D01*
X480077Y239980D01*
X480997Y240899D01*
X481719Y241980D01*
X482217Y243181D01*
X482470Y244456D01*
Y245756D01*
X482217Y247031D01*
X481719Y248233D01*
X480997Y249313D01*
X480077Y250233D01*
X478996Y250955D01*
X477795Y251453D01*
X476520Y251706D01*
D02*
G37*
G36*
X533520Y199706D02*
X532220D01*
X530945Y199453D01*
X529744Y198955D01*
X528663Y198233D01*
X527744Y197313D01*
X527021Y196232D01*
X526524Y195031D01*
X526270Y193756D01*
Y192456D01*
X526524Y191181D01*
X527021Y189980D01*
X527744Y188899D01*
X528663Y187980D01*
X529744Y187257D01*
X530945Y186760D01*
X532220Y186506D01*
X533520D01*
X534795Y186760D01*
X535996Y187257D01*
X537077Y187980D01*
X537997Y188899D01*
X538719Y189980D01*
X539217Y191181D01*
X539470Y192456D01*
Y193756D01*
X539217Y195031D01*
X538719Y196232D01*
X537997Y197313D01*
X537077Y198233D01*
X535996Y198955D01*
X534795Y199453D01*
X533520Y199706D01*
D02*
G37*
G36*
X476520D02*
X475220D01*
X473945Y199453D01*
X472744Y198955D01*
X471663Y198233D01*
X470744Y197313D01*
X470021Y196232D01*
X469524Y195031D01*
X469270Y193756D01*
Y192456D01*
X469524Y191181D01*
X470021Y189980D01*
X470744Y188899D01*
X471663Y187980D01*
X472744Y187257D01*
X473945Y186760D01*
X475220Y186506D01*
X476520D01*
X477795Y186760D01*
X478996Y187257D01*
X480077Y187980D01*
X480997Y188899D01*
X481719Y189980D01*
X482217Y191181D01*
X482470Y192456D01*
Y193756D01*
X482217Y195031D01*
X481719Y196232D01*
X480997Y197313D01*
X480077Y198233D01*
X478996Y198955D01*
X477795Y199453D01*
X476520Y199706D01*
D02*
G37*
G36*
X421315Y245862D02*
X413803D01*
Y243181D01*
X413303Y243115D01*
X413185Y243556D01*
X412690Y244412D01*
X411991Y245112D01*
X411135Y245606D01*
X410180Y245862D01*
X409191D01*
X408235Y245606D01*
X407379Y245112D01*
X406680Y244412D01*
X406185Y243556D01*
X406007Y242891D01*
X405489D01*
X405311Y243556D01*
X404816Y244412D01*
X404117Y245112D01*
X403261Y245606D01*
X402306Y245862D01*
X401317D01*
X400361Y245606D01*
X399505Y245112D01*
X398806Y244412D01*
X398311Y243556D01*
X398055Y242601D01*
Y241612D01*
X398311Y240657D01*
X398806Y239800D01*
X399505Y239101D01*
X400361Y238606D01*
X401317Y238350D01*
X402306D01*
X403261Y238606D01*
X404117Y239101D01*
X404816Y239800D01*
X405311Y240657D01*
X405489Y241322D01*
X406007D01*
X406185Y240657D01*
X406680Y239800D01*
X407379Y239101D01*
X408235Y238606D01*
X409191Y238350D01*
X410180D01*
X411135Y238606D01*
X411380Y238748D01*
X415539Y234590D01*
Y228995D01*
X415039Y228788D01*
X414601Y229226D01*
X413682Y229606D01*
X412688D01*
X411769Y229226D01*
X411179Y228636D01*
X406685D01*
X406100Y228519D01*
X405604Y228188D01*
X399022Y221606D01*
X398188D01*
X397269Y221226D01*
X396566Y220522D01*
X396185Y219603D01*
Y218609D01*
X396566Y217690D01*
X397269Y216987D01*
X398188Y216606D01*
X399182D01*
X400101Y216987D01*
X400805Y217690D01*
X401185Y218609D01*
Y219443D01*
X407319Y225577D01*
X411179D01*
X411769Y224987D01*
X412688Y224606D01*
X413682D01*
X414601Y224987D01*
X415305Y225690D01*
X415323Y225735D01*
X415887Y225791D01*
X415987Y225642D01*
X421448Y220181D01*
X419873Y218606D01*
X420617Y217862D01*
X420410Y217362D01*
X419691D01*
X418735Y217106D01*
X417879Y216612D01*
X417180Y215912D01*
X416731Y215136D01*
X409185D01*
Y215603D01*
X408805Y216522D01*
X408101Y217226D01*
X407182Y217606D01*
X406188D01*
X405269Y217226D01*
X404566Y216522D01*
X404185Y215603D01*
Y214609D01*
X404566Y213690D01*
X405269Y212987D01*
X406188Y212606D01*
X407182D01*
X407235Y212628D01*
X407338Y212525D01*
X407834Y212193D01*
X408419Y212077D01*
X416731D01*
X417180Y211300D01*
X417879Y210601D01*
X418735Y210106D01*
X419691Y209850D01*
X420680D01*
X421146Y209975D01*
X421554Y209567D01*
X421429Y209101D01*
Y208112D01*
X421685Y207157D01*
X422180Y206300D01*
X422879Y205601D01*
X423735Y205106D01*
X424691Y204850D01*
X425680D01*
X426635Y205106D01*
X427491Y205601D01*
X428191Y206300D01*
X428685Y207157D01*
X428941Y208112D01*
Y209101D01*
X428685Y210056D01*
X428191Y210912D01*
X427491Y211612D01*
X426635Y212106D01*
X425680Y212362D01*
X424691D01*
X424224Y212237D01*
X423816Y212646D01*
X423941Y213112D01*
Y213832D01*
X424441Y214039D01*
X425185Y213295D01*
X430497Y218606D01*
X425185Y223918D01*
X423611Y222343D01*
X418597Y227357D01*
Y235223D01*
X418481Y235809D01*
X418150Y236305D01*
X416566Y237888D01*
X416757Y238350D01*
X421315D01*
Y245862D01*
D02*
G37*
G36*
X438835Y251706D02*
X437535D01*
X436260Y251453D01*
X435059Y250955D01*
X433978Y250233D01*
X433059Y249313D01*
X432336Y248233D01*
X431839Y247031D01*
X431585Y245756D01*
Y244456D01*
X431839Y243181D01*
X432336Y241980D01*
X433059Y240899D01*
X433978Y239980D01*
X435059Y239257D01*
X436260Y238760D01*
X437535Y238506D01*
X438835D01*
X440110Y238760D01*
X441311Y239257D01*
X442392Y239980D01*
X443312Y240899D01*
X444034Y241980D01*
X444531Y243181D01*
X444785Y244456D01*
Y245756D01*
X444531Y247031D01*
X444034Y248233D01*
X443312Y249313D01*
X442392Y250233D01*
X441311Y250955D01*
X440110Y251453D01*
X438835Y251706D01*
D02*
G37*
G36*
X381835D02*
X380535D01*
X379260Y251453D01*
X378059Y250955D01*
X376978Y250233D01*
X376059Y249313D01*
X375336Y248233D01*
X374839Y247031D01*
X374585Y245756D01*
Y244456D01*
X374839Y243181D01*
X375336Y241980D01*
X376059Y240899D01*
X376978Y239980D01*
X378059Y239257D01*
X379260Y238760D01*
X380535Y238506D01*
X381835D01*
X383110Y238760D01*
X384311Y239257D01*
X385392Y239980D01*
X386312Y240899D01*
X387034Y241980D01*
X387531Y243181D01*
X387785Y244456D01*
Y245756D01*
X387531Y247031D01*
X387034Y248233D01*
X386312Y249313D01*
X385392Y250233D01*
X384311Y250955D01*
X383110Y251453D01*
X381835Y251706D01*
D02*
G37*
G36*
X438835Y199706D02*
X437535D01*
X436260Y199453D01*
X435059Y198955D01*
X433978Y198233D01*
X433059Y197313D01*
X432336Y196232D01*
X431839Y195031D01*
X431585Y193756D01*
Y192456D01*
X431839Y191181D01*
X432336Y189980D01*
X433059Y188899D01*
X433978Y187980D01*
X435059Y187257D01*
X436260Y186760D01*
X437535Y186506D01*
X438835D01*
X440110Y186760D01*
X441311Y187257D01*
X442392Y187980D01*
X443312Y188899D01*
X444034Y189980D01*
X444531Y191181D01*
X444785Y192456D01*
Y193756D01*
X444531Y195031D01*
X444034Y196232D01*
X443312Y197313D01*
X442392Y198233D01*
X441311Y198955D01*
X440110Y199453D01*
X438835Y199706D01*
D02*
G37*
G36*
X381835D02*
X380535D01*
X379260Y199453D01*
X378059Y198955D01*
X376978Y198233D01*
X376059Y197313D01*
X375336Y196232D01*
X374839Y195031D01*
X374585Y193756D01*
Y192456D01*
X374839Y191181D01*
X375336Y189980D01*
X376059Y188899D01*
X376978Y187980D01*
X378059Y187257D01*
X379260Y186760D01*
X380535Y186506D01*
X381835D01*
X383110Y186760D01*
X384311Y187257D01*
X385392Y187980D01*
X386312Y188899D01*
X387034Y189980D01*
X387531Y191181D01*
X387785Y192456D01*
Y193756D01*
X387531Y195031D01*
X387034Y196232D01*
X386312Y197313D01*
X385392Y198233D01*
X384311Y198955D01*
X383110Y199453D01*
X381835Y199706D01*
D02*
G37*
G36*
X499737Y148189D02*
X499685D01*
Y144500D01*
X503374D01*
Y144552D01*
X503089Y145617D01*
X502537Y146572D01*
X501757Y147352D01*
X500802Y147904D01*
X499737Y148189D01*
D02*
G37*
G36*
X498685D02*
X498634D01*
X497568Y147904D01*
X496613Y147352D01*
X495833Y146572D01*
X495282Y145617D01*
X494996Y144552D01*
Y144500D01*
X498685D01*
Y148189D01*
D02*
G37*
G36*
X532835Y157600D02*
X531535D01*
X530260Y157346D01*
X529059Y156849D01*
X527978Y156127D01*
X527059Y155207D01*
X526336Y154126D01*
X525839Y152925D01*
X525585Y151650D01*
Y150350D01*
X525839Y149075D01*
X526336Y147874D01*
X527059Y146793D01*
X527978Y145873D01*
X529059Y145151D01*
X530260Y144654D01*
X531535Y144400D01*
X532835D01*
X534110Y144654D01*
X535311Y145151D01*
X536392Y145873D01*
X537312Y146793D01*
X538034Y147874D01*
X538531Y149075D01*
X538785Y150350D01*
Y151650D01*
X538531Y152925D01*
X538034Y154126D01*
X537312Y155207D01*
X536392Y156127D01*
X535311Y156849D01*
X534110Y157346D01*
X532835Y157600D01*
D02*
G37*
G36*
X475835D02*
X474535D01*
X473260Y157346D01*
X472059Y156849D01*
X470978Y156127D01*
X470058Y155207D01*
X469336Y154126D01*
X468839Y152925D01*
X468585Y151650D01*
Y150350D01*
X468839Y149075D01*
X469336Y147874D01*
X470058Y146793D01*
X470978Y145873D01*
X472059Y145151D01*
X473260Y144654D01*
X474535Y144400D01*
X475835D01*
X477110Y144654D01*
X478311Y145151D01*
X479392Y145873D01*
X480312Y146793D01*
X481034Y147874D01*
X481531Y149075D01*
X481785Y150350D01*
Y151650D01*
X481531Y152925D01*
X481034Y154126D01*
X480312Y155207D01*
X479392Y156127D01*
X478311Y156849D01*
X477110Y157346D01*
X475835Y157600D01*
D02*
G37*
G36*
X511548Y148189D02*
X510445D01*
X509379Y147904D01*
X508424Y147352D01*
X507644Y146572D01*
X507093Y145617D01*
X506807Y144552D01*
Y143448D01*
X507093Y142383D01*
X507644Y141428D01*
X508424Y140648D01*
X509379Y140096D01*
X510445Y139811D01*
X511548D01*
X512613Y140096D01*
X513568Y140648D01*
X514348Y141428D01*
X514900Y142383D01*
X515185Y143448D01*
Y144552D01*
X514900Y145617D01*
X514348Y146572D01*
X513568Y147352D01*
X512613Y147904D01*
X511548Y148189D01*
D02*
G37*
G36*
X503374Y143500D02*
X499685D01*
Y139811D01*
X499737D01*
X500802Y140096D01*
X501757Y140648D01*
X502537Y141428D01*
X503089Y142383D01*
X503374Y143448D01*
Y143500D01*
D02*
G37*
G36*
X498685D02*
X494996D01*
Y143448D01*
X495282Y142383D01*
X495833Y141428D01*
X496613Y140648D01*
X497568Y140096D01*
X498634Y139811D01*
X498685D01*
Y143500D01*
D02*
G37*
G36*
X515248Y136378D02*
X514145D01*
X513080Y136092D01*
X512125Y135541D01*
X511345Y134761D01*
X510793Y133806D01*
X510508Y132740D01*
Y131638D01*
X510793Y130572D01*
X511345Y129617D01*
X512125Y128837D01*
X513080Y128286D01*
X514145Y128000D01*
X515248D01*
X516314Y128286D01*
X517269Y128837D01*
X518049Y129617D01*
X518600Y130572D01*
X518886Y131638D01*
Y132740D01*
X518600Y133806D01*
X518049Y134761D01*
X517269Y135541D01*
X516314Y136092D01*
X515248Y136378D01*
D02*
G37*
G36*
X532835Y115600D02*
X531535D01*
X530260Y115346D01*
X529059Y114849D01*
X527978Y114127D01*
X527059Y113207D01*
X526336Y112126D01*
X525839Y110925D01*
X525585Y109650D01*
Y108350D01*
X525839Y107075D01*
X526336Y105874D01*
X527059Y104793D01*
X527978Y103874D01*
X529059Y103151D01*
X530260Y102654D01*
X531535Y102400D01*
X532835D01*
X534110Y102654D01*
X535311Y103151D01*
X536392Y103874D01*
X537312Y104793D01*
X538034Y105874D01*
X538531Y107075D01*
X538785Y108350D01*
Y109650D01*
X538531Y110925D01*
X538034Y112126D01*
X537312Y113207D01*
X536392Y114127D01*
X535311Y114849D01*
X534110Y115346D01*
X532835Y115600D01*
D02*
G37*
G36*
X475835D02*
X474535D01*
X473260Y115346D01*
X472059Y114849D01*
X470978Y114127D01*
X470058Y113207D01*
X469336Y112126D01*
X468839Y110925D01*
X468585Y109650D01*
Y108350D01*
X468839Y107075D01*
X469336Y105874D01*
X470058Y104793D01*
X470978Y103874D01*
X472059Y103151D01*
X473260Y102654D01*
X474535Y102400D01*
X475835D01*
X477110Y102654D01*
X478311Y103151D01*
X479392Y103874D01*
X480312Y104793D01*
X481034Y105874D01*
X481531Y107075D01*
X481785Y108350D01*
Y109650D01*
X481531Y110925D01*
X481034Y112126D01*
X480312Y113207D01*
X479392Y114127D01*
X478311Y114849D01*
X477110Y115346D01*
X475835Y115600D01*
D02*
G37*
G36*
X405052Y148189D02*
X405000D01*
Y144500D01*
X408689D01*
Y144552D01*
X408403Y145617D01*
X407852Y146572D01*
X407072Y147352D01*
X406117Y147904D01*
X405052Y148189D01*
D02*
G37*
G36*
X404000D02*
X403948D01*
X402883Y147904D01*
X401928Y147352D01*
X401148Y146572D01*
X400597Y145617D01*
X400311Y144552D01*
Y144500D01*
X404000D01*
Y148189D01*
D02*
G37*
G36*
X438150Y157600D02*
X436850D01*
X435575Y157346D01*
X434374Y156849D01*
X433293Y156127D01*
X432374Y155207D01*
X431651Y154126D01*
X431154Y152925D01*
X430900Y151650D01*
Y150350D01*
X431154Y149075D01*
X431651Y147874D01*
X432374Y146793D01*
X433293Y145873D01*
X434374Y145151D01*
X435575Y144654D01*
X436850Y144400D01*
X438150D01*
X439425Y144654D01*
X440626Y145151D01*
X441707Y145873D01*
X442627Y146793D01*
X443349Y147874D01*
X443846Y149075D01*
X444100Y150350D01*
Y151650D01*
X443846Y152925D01*
X443349Y154126D01*
X442627Y155207D01*
X441707Y156127D01*
X440626Y156849D01*
X439425Y157346D01*
X438150Y157600D01*
D02*
G37*
G36*
X381150D02*
X379850D01*
X378575Y157346D01*
X377374Y156849D01*
X376293Y156127D01*
X375374Y155207D01*
X374651Y154126D01*
X374154Y152925D01*
X373900Y151650D01*
Y150350D01*
X374154Y149075D01*
X374651Y147874D01*
X375374Y146793D01*
X376293Y145873D01*
X377374Y145151D01*
X378575Y144654D01*
X379850Y144400D01*
X381150D01*
X382425Y144654D01*
X383626Y145151D01*
X384707Y145873D01*
X385627Y146793D01*
X386349Y147874D01*
X386846Y149075D01*
X387100Y150350D01*
Y151650D01*
X386846Y152925D01*
X386349Y154126D01*
X385627Y155207D01*
X384707Y156127D01*
X383626Y156849D01*
X382425Y157346D01*
X381150Y157600D01*
D02*
G37*
G36*
X416862Y148189D02*
X415760D01*
X414694Y147904D01*
X413739Y147352D01*
X412959Y146572D01*
X412407Y145617D01*
X412122Y144552D01*
Y143448D01*
X412407Y142383D01*
X412959Y141428D01*
X413739Y140648D01*
X414694Y140096D01*
X415760Y139811D01*
X416862D01*
X417928Y140096D01*
X418883Y140648D01*
X419663Y141428D01*
X420215Y142383D01*
X420500Y143448D01*
Y144552D01*
X420215Y145617D01*
X419663Y146572D01*
X418883Y147352D01*
X417928Y147904D01*
X416862Y148189D01*
D02*
G37*
G36*
X408689Y143500D02*
X405000D01*
Y139811D01*
X405052D01*
X406117Y140096D01*
X407072Y140648D01*
X407852Y141428D01*
X408403Y142383D01*
X408689Y143448D01*
Y143500D01*
D02*
G37*
G36*
X404000D02*
X400311D01*
Y143448D01*
X400597Y142383D01*
X401148Y141428D01*
X401928Y140648D01*
X402883Y140096D01*
X403948Y139811D01*
X404000D01*
Y143500D01*
D02*
G37*
G36*
X420563Y136378D02*
X419460D01*
X418395Y136092D01*
X417440Y135541D01*
X416660Y134761D01*
X416108Y133806D01*
X415823Y132740D01*
Y131638D01*
X416108Y130572D01*
X416660Y129617D01*
X417440Y128837D01*
X418395Y128286D01*
X419460Y128000D01*
X420563D01*
X421629Y128286D01*
X422584Y128837D01*
X423364Y129617D01*
X423915Y130572D01*
X424201Y131638D01*
Y132740D01*
X423915Y133806D01*
X423364Y134761D01*
X422584Y135541D01*
X421629Y136092D01*
X420563Y136378D01*
D02*
G37*
G36*
X438150Y115600D02*
X436850D01*
X435575Y115346D01*
X434374Y114849D01*
X433293Y114127D01*
X432374Y113207D01*
X431651Y112126D01*
X431154Y110925D01*
X430900Y109650D01*
Y108350D01*
X431154Y107075D01*
X431651Y105874D01*
X432374Y104793D01*
X433293Y103874D01*
X434374Y103151D01*
X435575Y102654D01*
X436850Y102400D01*
X438150D01*
X439425Y102654D01*
X440626Y103151D01*
X441707Y103874D01*
X442627Y104793D01*
X443349Y105874D01*
X443846Y107075D01*
X444100Y108350D01*
Y109650D01*
X443846Y110925D01*
X443349Y112126D01*
X442627Y113207D01*
X441707Y114127D01*
X440626Y114849D01*
X439425Y115346D01*
X438150Y115600D01*
D02*
G37*
G36*
X381150D02*
X379850D01*
X378575Y115346D01*
X377374Y114849D01*
X376293Y114127D01*
X375374Y113207D01*
X374651Y112126D01*
X374154Y110925D01*
X373900Y109650D01*
Y108350D01*
X374154Y107075D01*
X374651Y105874D01*
X375374Y104793D01*
X376293Y103874D01*
X377374Y103151D01*
X378575Y102654D01*
X379850Y102400D01*
X381150D01*
X382425Y102654D01*
X383626Y103151D01*
X384707Y103874D01*
X385627Y104793D01*
X386349Y105874D01*
X386846Y107075D01*
X387100Y108350D01*
Y109650D01*
X386846Y110925D01*
X386349Y112126D01*
X385627Y113207D01*
X384707Y114127D01*
X383626Y114849D01*
X382425Y115346D01*
X381150Y115600D01*
D02*
G37*
%LPD*%
D13*
X417068Y226723D02*
Y235223D01*
X409685Y242606D02*
X417068Y235223D01*
Y226723D02*
X425185Y218606D01*
Y218606D02*
Y218606D01*
X406685Y227106D02*
X413185D01*
X398685Y219106D02*
X406685Y227106D01*
X406919Y215106D02*
X408419Y213606D01*
X406685Y215106D02*
X406919D01*
X408419Y213606D02*
X420185D01*
X511753Y226723D02*
Y235223D01*
X504370Y242606D02*
X511753Y235223D01*
Y226723D02*
X519870Y218606D01*
Y218606D02*
Y218606D01*
X501370Y227106D02*
X507870D01*
X493370Y219106D02*
X501370Y227106D01*
X501604Y215106D02*
X503104Y213606D01*
X501370Y215106D02*
X501604D01*
X503104Y213606D02*
X514870D01*
X285000Y196000D02*
Y208500D01*
X291500Y182500D02*
Y189500D01*
X285000Y196000D02*
X291500Y189500D01*
X166000Y201000D02*
X167000Y200000D01*
X166000Y201000D02*
X166000D01*
X167000Y200000D02*
X173422D01*
X174000Y199000D02*
X180500D01*
X173422D02*
X174000D01*
X302616Y249784D02*
X311900Y259069D01*
X301284Y249784D02*
X302616D01*
X292000Y240500D02*
X301284Y249784D01*
X311900Y260400D02*
X317000Y265500D01*
X311900Y259069D02*
Y260400D01*
X281617Y181383D02*
X284692D01*
X279500Y183500D02*
X281617Y181383D01*
X279500Y183500D02*
Y305500D01*
X281000Y196000D02*
Y306621D01*
Y196000D02*
X284500Y192500D01*
X274000Y313621D02*
X281000Y306621D01*
X212000Y327500D02*
X224000Y315500D01*
X270600Y314400D02*
X270883D01*
X224000Y315500D02*
X269500D01*
X270883Y314400D02*
X271250Y314034D01*
Y313750D02*
Y314034D01*
X269500Y315500D02*
X270600Y314400D01*
X262314Y334000D02*
X274000Y322314D01*
X257771Y338543D02*
X262314Y334000D01*
X207543Y340543D02*
X214882D01*
X218000Y337425D01*
Y334575D02*
Y337425D01*
X221118Y331457D02*
X236958D01*
X203000Y336000D02*
X207543Y340543D01*
X236958Y331457D02*
X244044Y338543D01*
X257771D01*
X218000Y334575D02*
X221118Y331457D01*
X212000Y327500D02*
Y335000D01*
X213000Y336000D01*
X271250Y313750D02*
X279500Y305500D01*
X274000Y313621D02*
Y322314D01*
X271500Y314000D02*
X279500Y306000D01*
Y305500D02*
Y306000D01*
X234784Y253500D02*
X235131Y253847D01*
X235437Y254000D02*
X235500D01*
X203290Y253500D02*
X234784D01*
X235283Y253847D02*
X235437Y254000D01*
X235131Y253847D02*
X235283D01*
X292000Y225000D02*
Y240500D01*
X289000Y243500D02*
X321000Y275500D01*
X289000Y229500D02*
Y243500D01*
X286000Y233500D02*
Y250500D01*
X341000Y305500D01*
X173422Y304000D02*
X182000Y295422D01*
X202421D01*
X207996Y300996D02*
Y313161D01*
X202421Y295422D02*
X207996Y300996D01*
X272314Y332343D02*
Y334000D01*
X170922Y267000D02*
X173422Y264500D01*
X170000Y267000D02*
X170922D01*
X173422Y292500D02*
X174922Y291000D01*
X194000D01*
X182351Y253070D02*
X197586D01*
X173422Y262000D02*
X182351Y253070D01*
X173422Y198000D02*
X174000D01*
X173422Y262000D02*
X194790D01*
X203290Y253500D01*
X317000Y265500D02*
X341000D01*
X321000Y275500D02*
X341000D01*
X173422Y227000D02*
X177921Y222500D01*
X181500D01*
D30*
X174348Y143848D02*
X174500Y144000D01*
X303000D01*
X135652Y143848D02*
X174348D01*
X303000Y144000D02*
X314500Y155500D01*
X174000Y144000D02*
Y198000D01*
X322000Y162500D02*
Y187000D01*
X319500Y189500D02*
X322000Y187000D01*
X319500Y189500D02*
Y237703D01*
X318797Y237000D02*
X345453Y263656D01*
X316000Y237000D02*
X318797D01*
X174000Y198000D02*
Y199000D01*
X314500Y155500D02*
Y155500D01*
X317975Y158975D01*
X321950Y162450D02*
X322000Y162500D01*
X318475Y158975D02*
X321950Y162450D01*
X173422Y232740D02*
Y262000D01*
Y227000D02*
Y232740D01*
X315000Y238000D02*
X316000Y237000D01*
X306000Y238000D02*
X315000D01*
X189000Y345500D02*
X217000D01*
X216078Y342922D02*
Y344578D01*
X217000Y345500D01*
X216078Y342922D02*
X223000Y336000D01*
X173422Y329922D02*
X189000Y345500D01*
X270657D02*
X282157Y334000D01*
X217000Y345500D02*
X270657D01*
X345453Y263656D02*
Y291047D01*
X341000Y295500D02*
X345453Y291047D01*
X124500Y152500D02*
X125552Y151448D01*
X128052D01*
X135652Y143848D01*
X317975Y158975D02*
X318475D01*
X173422Y304000D02*
Y329922D01*
X282157Y334000D02*
X282314D01*
X173422Y262000D02*
Y264500D01*
Y232740D02*
X173693D01*
X173422Y199000D02*
Y200000D01*
Y264500D02*
Y292500D01*
Y304000D01*
Y200000D02*
Y227000D01*
D31*
X544000Y271000D02*
D03*
Y267500D02*
D03*
Y264000D02*
D03*
Y260500D02*
D03*
Y257000D02*
D03*
X543500Y180000D02*
D03*
Y176500D02*
D03*
Y173000D02*
D03*
Y169500D02*
D03*
Y166000D02*
D03*
Y162500D02*
D03*
X510500Y182000D02*
D03*
X507000D02*
D03*
X503500D02*
D03*
X500000D02*
D03*
X496500D02*
D03*
X511000Y162000D02*
D03*
X507500D02*
D03*
X504000D02*
D03*
X500500D02*
D03*
X497000D02*
D03*
X543000Y122500D02*
D03*
Y126000D02*
D03*
Y129500D02*
D03*
Y133000D02*
D03*
Y136500D02*
D03*
X464500Y123500D02*
D03*
Y127000D02*
D03*
Y130500D02*
D03*
Y134000D02*
D03*
Y137500D02*
D03*
X448000Y124000D02*
D03*
Y127500D02*
D03*
Y131000D02*
D03*
Y134500D02*
D03*
Y138000D02*
D03*
X401500Y161500D02*
D03*
X405000D02*
D03*
X408500D02*
D03*
X412000D02*
D03*
X415500D02*
D03*
X400000Y182500D02*
D03*
X403500D02*
D03*
X407000D02*
D03*
X410500D02*
D03*
X414000D02*
D03*
X500000Y256000D02*
D03*
X503500D02*
D03*
X507000D02*
D03*
X510500D02*
D03*
X514000D02*
D03*
X543500Y223500D02*
D03*
Y220000D02*
D03*
Y216500D02*
D03*
Y213000D02*
D03*
Y209500D02*
D03*
X576500Y272500D02*
D03*
X573000D02*
D03*
X569500D02*
D03*
X566000D02*
D03*
X562500D02*
D03*
X529500D02*
D03*
X526000D02*
D03*
X522500D02*
D03*
X519000D02*
D03*
X515500D02*
D03*
X464500Y184000D02*
D03*
X461000D02*
D03*
X457500D02*
D03*
X454000D02*
D03*
X450500D02*
D03*
X463500Y159500D02*
D03*
X460000D02*
D03*
X456500D02*
D03*
X453000D02*
D03*
X449500D02*
D03*
X489000Y273000D02*
D03*
X485500D02*
D03*
X482000D02*
D03*
X478500D02*
D03*
X475000D02*
D03*
X464500Y255000D02*
D03*
X461000D02*
D03*
X457500D02*
D03*
X454000D02*
D03*
X450500D02*
D03*
X490000Y348500D02*
D03*
Y352000D02*
D03*
Y355500D02*
D03*
Y359000D02*
D03*
Y362500D02*
D03*
X473500Y348500D02*
D03*
Y352000D02*
D03*
Y355500D02*
D03*
Y359000D02*
D03*
Y362500D02*
D03*
X490000Y291500D02*
D03*
Y295000D02*
D03*
Y298500D02*
D03*
Y302000D02*
D03*
Y305500D02*
D03*
X473500Y291500D02*
D03*
Y295000D02*
D03*
Y298500D02*
D03*
Y302000D02*
D03*
Y305500D02*
D03*
X351500Y129000D02*
D03*
Y132500D02*
D03*
Y136000D02*
D03*
Y139500D02*
D03*
Y143000D02*
D03*
X370000Y129000D02*
D03*
Y132500D02*
D03*
Y136000D02*
D03*
Y139500D02*
D03*
Y143000D02*
D03*
X370500Y180500D02*
D03*
Y177000D02*
D03*
Y173500D02*
D03*
Y170000D02*
D03*
Y166500D02*
D03*
Y163000D02*
D03*
X370000Y271000D02*
D03*
Y267500D02*
D03*
Y264000D02*
D03*
Y260500D02*
D03*
Y257000D02*
D03*
X352000Y191500D02*
D03*
Y195000D02*
D03*
Y198500D02*
D03*
Y202000D02*
D03*
Y205500D02*
D03*
X370000Y191500D02*
D03*
Y195000D02*
D03*
Y198500D02*
D03*
Y202000D02*
D03*
Y205500D02*
D03*
X465000Y214500D02*
D03*
Y218000D02*
D03*
Y221500D02*
D03*
Y225000D02*
D03*
Y228500D02*
D03*
X449000Y214000D02*
D03*
Y217500D02*
D03*
Y221000D02*
D03*
Y224500D02*
D03*
Y228000D02*
D03*
X397500Y272000D02*
D03*
X401000D02*
D03*
X404500D02*
D03*
X408000D02*
D03*
X411500D02*
D03*
X397500Y256000D02*
D03*
X401000D02*
D03*
X404500D02*
D03*
X408000D02*
D03*
X411500D02*
D03*
X351500Y252000D02*
D03*
Y248500D02*
D03*
Y245000D02*
D03*
Y241500D02*
D03*
Y238000D02*
D03*
X370000Y252000D02*
D03*
Y248500D02*
D03*
Y245000D02*
D03*
Y241500D02*
D03*
Y238000D02*
D03*
Y293500D02*
D03*
Y290000D02*
D03*
Y286500D02*
D03*
Y283000D02*
D03*
Y279500D02*
D03*
X352000Y293000D02*
D03*
Y289500D02*
D03*
Y286000D02*
D03*
Y282500D02*
D03*
Y279000D02*
D03*
X370000Y341000D02*
D03*
Y337500D02*
D03*
Y334000D02*
D03*
Y330500D02*
D03*
Y327000D02*
D03*
X352000D02*
D03*
Y330500D02*
D03*
Y334000D02*
D03*
Y337500D02*
D03*
Y341000D02*
D03*
D32*
X404500Y144000D02*
D03*
X416311D02*
D03*
X420012Y155811D02*
D03*
Y132189D02*
D03*
X499185Y144000D02*
D03*
X510996D02*
D03*
X514697Y155811D02*
D03*
Y132189D02*
D03*
D33*
X380500Y151000D02*
D03*
Y109000D02*
D03*
X437500Y151000D02*
D03*
Y109000D02*
D03*
X475185Y151000D02*
D03*
Y109000D02*
D03*
X532185Y151000D02*
D03*
Y109000D02*
D03*
X582685Y365185D02*
D03*
X500685D02*
D03*
Y283185D02*
D03*
X582685Y283185D02*
D03*
X463000Y365185D02*
D03*
X381000D02*
D03*
Y283185D02*
D03*
X463000Y283185D02*
D03*
X381185Y193106D02*
D03*
Y245106D02*
D03*
X438185D02*
D03*
Y193106D02*
D03*
X475870D02*
D03*
Y245106D02*
D03*
X532870D02*
D03*
Y193106D02*
D03*
X330500Y119000D02*
D03*
X331000Y331000D02*
D03*
X119000D02*
D03*
Y118500D02*
D03*
D34*
X441500Y140000D02*
D03*
X431500Y120000D02*
D03*
X411500D02*
D03*
X536185Y140000D02*
D03*
X526185Y120000D02*
D03*
X506185D02*
D03*
X413185Y227106D02*
D03*
X406685Y215106D02*
D03*
X398685Y219106D02*
D03*
X507870Y227106D02*
D03*
X501370Y215106D02*
D03*
X493370Y219106D02*
D03*
X340000Y320000D02*
D03*
Y240000D02*
D03*
Y200000D02*
D03*
Y160000D02*
D03*
Y120000D02*
D03*
X330000Y340000D02*
D03*
X320000Y320000D02*
D03*
X330000Y300000D02*
D03*
X320000Y280000D02*
D03*
X330000Y260000D02*
D03*
Y140000D02*
D03*
X320000Y120000D02*
D03*
X310000Y340000D02*
D03*
X300000Y320000D02*
D03*
X310000Y300000D02*
D03*
X300000Y280000D02*
D03*
X310000Y220000D02*
D03*
Y140000D02*
D03*
X300000Y120000D02*
D03*
X280000Y320000D02*
D03*
X290000Y300000D02*
D03*
Y220000D02*
D03*
X280000Y160000D02*
D03*
X290000Y140000D02*
D03*
X280000Y120000D02*
D03*
X270000Y340000D02*
D03*
X260000Y320000D02*
D03*
X270000Y300000D02*
D03*
X260000Y280000D02*
D03*
Y200000D02*
D03*
X270000Y180000D02*
D03*
Y140000D02*
D03*
X260000Y120000D02*
D03*
X250000Y300000D02*
D03*
X240000Y280000D02*
D03*
Y200000D02*
D03*
X250000Y180000D02*
D03*
X240000Y160000D02*
D03*
X250000Y140000D02*
D03*
X240000Y120000D02*
D03*
X230000Y300000D02*
D03*
Y260000D02*
D03*
Y220000D02*
D03*
X220000Y160000D02*
D03*
X230000Y140000D02*
D03*
X220000Y120000D02*
D03*
X200000Y320000D02*
D03*
X210000Y260000D02*
D03*
Y220000D02*
D03*
Y180000D02*
D03*
X200000Y160000D02*
D03*
X210000Y140000D02*
D03*
X200000Y120000D02*
D03*
X180000Y320000D02*
D03*
X190000Y300000D02*
D03*
Y180000D02*
D03*
X180000Y160000D02*
D03*
X190000Y140000D02*
D03*
X180000Y120000D02*
D03*
X170000Y340000D02*
D03*
X160000Y320000D02*
D03*
Y200000D02*
D03*
X170000Y180000D02*
D03*
X160000Y160000D02*
D03*
X170000Y140000D02*
D03*
X160000Y120000D02*
D03*
X150000Y340000D02*
D03*
X140000Y320000D02*
D03*
X150000Y300000D02*
D03*
Y260000D02*
D03*
X140000Y240000D02*
D03*
X150000Y220000D02*
D03*
X140000Y200000D02*
D03*
X150000Y180000D02*
D03*
Y140000D02*
D03*
X140000Y120000D02*
D03*
X130000Y340000D02*
D03*
X120000Y320000D02*
D03*
X130000Y300000D02*
D03*
Y260000D02*
D03*
X120000Y240000D02*
D03*
X130000Y220000D02*
D03*
X120000Y200000D02*
D03*
X130000Y180000D02*
D03*
D35*
X533185Y359685D02*
D03*
X543185D02*
D03*
X553185D02*
D03*
X523185D02*
D03*
X413500D02*
D03*
X423500D02*
D03*
X433500D02*
D03*
X403500D02*
D03*
X262314Y334000D02*
D03*
X272314D02*
D03*
X282314D02*
D03*
X252314D02*
D03*
X203000Y336000D02*
D03*
X213000D02*
D03*
X223000D02*
D03*
X193000D02*
D03*
D36*
X563185Y359685D02*
D03*
X443500D02*
D03*
X292314Y334000D02*
D03*
X233000Y336000D02*
D03*
D37*
X417559Y242106D02*
D03*
X512244D02*
D03*
D38*
X409685D02*
D03*
X401811D02*
D03*
X504370D02*
D03*
X496496D02*
D03*
X331000Y170874D02*
D03*
Y163000D02*
D03*
X330000Y223374D02*
D03*
Y215500D02*
D03*
D39*
X425185Y208606D02*
D03*
X420185Y213606D02*
D03*
X519870Y208606D02*
D03*
X514870Y213606D02*
D03*
D40*
X425185Y218606D02*
D03*
X519870D02*
D03*
D41*
X331000Y178748D02*
D03*
X330000Y231248D02*
D03*
D42*
X104000Y215500D02*
D03*
X103839Y247500D02*
D03*
X105000Y278000D02*
D03*
X104500Y308500D02*
D03*
D43*
X104000Y205500D02*
D03*
X103839Y237500D02*
D03*
X105000Y268000D02*
D03*
X104500Y298500D02*
D03*
D44*
X136902Y138299D02*
D03*
D45*
X124500Y142500D02*
D03*
Y152500D02*
D03*
Y162500D02*
D03*
Y172500D02*
D03*
D46*
X341000Y265500D02*
D03*
Y275500D02*
D03*
Y285500D02*
D03*
Y295500D02*
D03*
D47*
Y305500D02*
D03*
D48*
X203500Y170000D02*
D03*
D49*
Y179606D02*
D03*
Y189213D02*
D03*
D50*
X166908Y211500D02*
D03*
X166000Y201000D02*
D03*
X322000Y187000D02*
D03*
X308000Y186500D02*
D03*
X284692Y181383D02*
D03*
X291500Y182500D02*
D03*
X284500Y192500D02*
D03*
X296237Y175521D02*
D03*
X271500Y314000D02*
D03*
X235500Y254000D02*
D03*
X285000Y208500D02*
D03*
X306000Y238000D02*
D03*
X292000Y225000D02*
D03*
X289000Y229500D02*
D03*
X286000Y233500D02*
D03*
X321950Y162450D02*
D03*
X173422Y304000D02*
D03*
X180000Y276500D02*
D03*
X194067Y277500D02*
D03*
X160500Y270500D02*
D03*
X170000Y267000D02*
D03*
X158000Y239500D02*
D03*
X192469Y216500D02*
D03*
X266500Y158000D02*
D03*
X194000Y291000D02*
D03*
X217000Y193000D02*
D03*
X290744Y163500D02*
D03*
X194801Y242965D02*
D03*
X197531Y309500D02*
D03*
X268000Y235500D02*
D03*
X245000Y248500D02*
D03*
X267500Y261000D02*
D03*
X276500Y265500D02*
D03*
X324000Y268063D02*
D03*
X307500Y224500D02*
D03*
X306756Y212000D02*
D03*
X197586Y253070D02*
D03*
X180500Y199000D02*
D03*
X207996Y313161D02*
D03*
X173693Y232740D02*
D03*
X181500Y222500D02*
D03*
X170500Y243000D02*
D03*
X220000Y178000D02*
D03*
X199500Y250500D02*
D03*
X161000Y240000D02*
D03*
X305000Y192500D02*
D03*
M02*
