G04*
G04 #@! TF.GenerationSoftware,Altium Limited,Altium Designer,21.5.1 (32)*
G04*
G04 Layer_Color=32896*
%FSLAX25Y25*%
%MOIN*%
G70*
G04*
G04 #@! TF.SameCoordinates,2FE26025-303F-4DC1-B2D2-7F731E1EADFF*
G04*
G04*
G04 #@! TF.FilePolarity,Positive*
G04*
G01*
G75*
%ADD10C,0.00984*%
%ADD12C,0.01000*%
%ADD13C,0.00600*%
%ADD15C,0.00787*%
D10*
X283587Y95780D02*
G03*
X283587Y95780I-492J0D01*
G01*
D12*
X269801Y232098D02*
X270801Y233098D01*
X272800D01*
X273800Y232098D01*
Y228100D01*
X272800Y227100D01*
X270801D01*
X269801Y228100D01*
X267802Y233098D02*
X263803D01*
Y232098D01*
X267802Y228100D01*
Y227100D01*
X266400Y228098D02*
X262401Y222100D01*
Y228098D02*
X266400Y222100D01*
X256403D02*
X260402D01*
X256403Y226099D01*
Y227098D01*
X257403Y228098D01*
X259402D01*
X260402Y227098D01*
D13*
X117401Y189600D02*
Y191732D01*
X119000D01*
Y190666D01*
Y191732D01*
X120599D01*
X117401Y188533D02*
X120599D01*
Y186934D01*
X120066Y186400D01*
X119533D01*
X119000Y186934D01*
Y188533D01*
Y186934D01*
X118467Y186400D01*
X117934D01*
X117401Y186934D01*
Y188533D01*
X120599Y185334D02*
Y184268D01*
Y184801D01*
X117401D01*
X117934Y185334D01*
X132633Y150566D02*
X133166Y151100D01*
X134232D01*
X134765Y150566D01*
Y148434D01*
X134232Y147900D01*
X133166D01*
X132633Y148434D01*
X131566Y150566D02*
X131033Y151100D01*
X129967D01*
X129434Y150566D01*
Y150033D01*
X129967Y149500D01*
X129434Y148967D01*
Y148434D01*
X129967Y147900D01*
X131033D01*
X131566Y148434D01*
Y148967D01*
X131033Y149500D01*
X131566Y150033D01*
Y150566D01*
X131033Y149500D02*
X129967D01*
X126235Y147900D02*
X128367D01*
X126235Y150033D01*
Y150566D01*
X126768Y151100D01*
X127834D01*
X128367Y150566D01*
X107867Y166934D02*
X107334Y166401D01*
X106268D01*
X105735Y166934D01*
Y169066D01*
X106268Y169599D01*
X107334D01*
X107867Y169066D01*
X111066Y169599D02*
X108934D01*
X111066Y167467D01*
Y166934D01*
X110533Y166401D01*
X109467D01*
X108934Y166934D01*
X112133D02*
X112666Y166401D01*
X113732D01*
X114265Y166934D01*
Y169066D01*
X113732Y169599D01*
X112666D01*
X112133Y169066D01*
Y166934D01*
X148133Y150566D02*
X148666Y151100D01*
X149732D01*
X150265Y150566D01*
Y148434D01*
X149732Y147900D01*
X148666D01*
X148133Y148434D01*
X144934Y147900D02*
X147066D01*
X144934Y150033D01*
Y150566D01*
X145467Y151100D01*
X146533D01*
X147066Y150566D01*
X143867Y151100D02*
X141735D01*
Y150566D01*
X143867Y148434D01*
Y147900D01*
X131901Y164934D02*
X131367Y164400D01*
X130301D01*
X129768Y164934D01*
Y167066D01*
X130301Y167599D01*
X131367D01*
X131901Y167066D01*
X135099Y167599D02*
X132967D01*
X135099Y165467D01*
Y164934D01*
X134566Y164400D01*
X133500D01*
X132967Y164934D01*
X136166Y167599D02*
X137232D01*
X136699D01*
Y164400D01*
X136166Y164934D01*
X296600Y85875D02*
X293934D01*
X293401Y86409D01*
Y87475D01*
X293934Y88008D01*
X296600D01*
X293401Y89074D02*
Y90141D01*
Y89607D01*
X296600D01*
X296066Y89074D01*
Y91740D02*
X296600Y92273D01*
Y93340D01*
X296066Y93873D01*
X295533D01*
X295000Y93340D01*
Y92806D01*
Y93340D01*
X294467Y93873D01*
X293934D01*
X293401Y93340D01*
Y92273D01*
X293934Y91740D01*
X219883Y144934D02*
X219350Y144401D01*
X218284D01*
X217751Y144934D01*
Y147066D01*
X218284Y147599D01*
X219350D01*
X219883Y147066D01*
X220950Y147599D02*
X222016D01*
X221483D01*
Y144401D01*
X220950Y144934D01*
X223615Y144401D02*
X225748D01*
Y144934D01*
X223615Y147066D01*
Y147599D01*
X226814D02*
X227881D01*
X227347D01*
Y144401D01*
X226814Y144934D01*
X227281Y165066D02*
X227814Y165600D01*
X228881D01*
X229414Y165066D01*
Y162934D01*
X228881Y162400D01*
X227814D01*
X227281Y162934D01*
X226215Y162400D02*
X225148D01*
X225682D01*
Y165600D01*
X226215Y165066D01*
X221416Y165600D02*
X222483Y165066D01*
X223549Y164000D01*
Y162934D01*
X223016Y162400D01*
X221950D01*
X221416Y162934D01*
Y163467D01*
X221950Y164000D01*
X223549D01*
X220350Y162934D02*
X219817Y162400D01*
X218751D01*
X218217Y162934D01*
Y165066D01*
X218751Y165600D01*
X219817D01*
X220350Y165066D01*
Y164533D01*
X219817Y164000D01*
X218217D01*
X156581Y113400D02*
Y116600D01*
X154981D01*
X154448Y116066D01*
Y115000D01*
X154981Y114467D01*
X156581D01*
X155515D02*
X154448Y113400D01*
X151782D02*
Y116600D01*
X153382Y115000D01*
X151249D01*
X148050Y116600D02*
X150183D01*
Y115000D01*
X149117Y115533D01*
X148583D01*
X148050Y115000D01*
Y113934D01*
X148583Y113400D01*
X149650D01*
X150183Y113934D01*
X128081Y112900D02*
Y116100D01*
X126481D01*
X125948Y115566D01*
Y114500D01*
X126481Y113967D01*
X128081D01*
X127015D02*
X125948Y112900D01*
X123282D02*
Y116100D01*
X124882Y114500D01*
X122749D01*
X120083Y112900D02*
Y116100D01*
X121683Y114500D01*
X119550D01*
X272581Y185400D02*
Y188600D01*
X270981D01*
X270448Y188066D01*
Y187000D01*
X270981Y186467D01*
X272581D01*
X271515D02*
X270448Y185400D01*
X267249D02*
X269382D01*
X267249Y187533D01*
Y188066D01*
X267782Y188600D01*
X268849D01*
X269382Y188066D01*
X264050Y188600D02*
X265117Y188066D01*
X266183Y187000D01*
Y185934D01*
X265650Y185400D01*
X264583D01*
X264050Y185934D01*
Y186467D01*
X264583Y187000D01*
X266183D01*
X254081Y174400D02*
Y177600D01*
X252481D01*
X251948Y177066D01*
Y176000D01*
X252481Y175467D01*
X254081D01*
X253014D02*
X251948Y174400D01*
X248749D02*
X250882D01*
X248749Y176533D01*
Y177066D01*
X249282Y177600D01*
X250349D01*
X250882Y177066D01*
X245550Y177600D02*
X247683D01*
Y176000D01*
X246617Y176533D01*
X246083D01*
X245550Y176000D01*
Y174934D01*
X246083Y174400D01*
X247150D01*
X247683Y174934D01*
X259915Y184265D02*
X256716D01*
Y182666D01*
X257249Y182133D01*
X258315D01*
X258849Y182666D01*
Y184265D01*
Y183199D02*
X259915Y182133D01*
Y178934D02*
Y181066D01*
X257782Y178934D01*
X257249D01*
X256716Y179467D01*
Y180533D01*
X257249Y181066D01*
X259915Y176268D02*
X256716D01*
X258315Y177867D01*
Y175735D01*
X247581Y165401D02*
Y168599D01*
X245448Y165401D01*
Y168599D01*
X244382Y165401D02*
Y168599D01*
X242782D01*
X242249Y168066D01*
Y167000D01*
X242782Y166467D01*
X244382D01*
X239050Y168599D02*
X240117Y168066D01*
X241183Y167000D01*
Y165934D01*
X240650Y165401D01*
X239583D01*
X239050Y165934D01*
Y166467D01*
X239583Y167000D01*
X241183D01*
X275081Y167901D02*
Y171099D01*
X272948Y167901D01*
Y171099D01*
X271882Y167901D02*
Y171099D01*
X270282D01*
X269749Y170566D01*
Y169500D01*
X270282Y168967D01*
X271882D01*
X266550Y171099D02*
X268683D01*
Y169500D01*
X267617Y170033D01*
X267083D01*
X266550Y169500D01*
Y168434D01*
X267083Y167901D01*
X268150D01*
X268683Y168434D01*
X251915Y189765D02*
X248716D01*
X251915Y187633D01*
X248716D01*
X251915Y186566D02*
X248716D01*
Y184967D01*
X249249Y184434D01*
X250315D01*
X250849Y184967D01*
Y186566D01*
X251915Y181768D02*
X248716D01*
X250315Y183367D01*
Y181235D01*
X166349Y117599D02*
X167415D01*
X166882D01*
Y114934D01*
X167415Y114400D01*
X167948D01*
X168481Y114934D01*
X163683Y114400D02*
Y117599D01*
X165282Y116000D01*
X163150D01*
X128249Y127466D02*
X127716Y127999D01*
Y129065D01*
X128249Y129598D01*
X130382D01*
X130915Y129065D01*
Y127999D01*
X130382Y127466D01*
X130915Y126399D02*
Y125333D01*
Y125866D01*
X127716D01*
X128249Y126399D01*
X130915Y122134D02*
X127716D01*
X129315Y123733D01*
Y121601D01*
X127716Y118402D02*
Y120535D01*
X129315D01*
X128782Y119468D01*
Y118935D01*
X129315Y118402D01*
X130382D01*
X130915Y118935D01*
Y120001D01*
X130382Y120535D01*
X146281Y124066D02*
X146814Y124600D01*
X147881D01*
X148414Y124066D01*
Y121934D01*
X147881Y121400D01*
X146814D01*
X146281Y121934D01*
X145215Y121400D02*
X144148D01*
X144682D01*
Y124600D01*
X145215Y124066D01*
X140949Y121400D02*
Y124600D01*
X142549Y123000D01*
X140416D01*
X137217Y121400D02*
X139350D01*
X137217Y123533D01*
Y124066D01*
X137750Y124600D01*
X138817D01*
X139350Y124066D01*
X314382Y226534D02*
X314915Y226001D01*
Y224935D01*
X314382Y224402D01*
X312249D01*
X311716Y224935D01*
Y226001D01*
X312249Y226534D01*
X311716Y227601D02*
Y228667D01*
Y228134D01*
X314915D01*
X314382Y227601D01*
Y230267D02*
X314915Y230800D01*
Y231866D01*
X314382Y232399D01*
X313849D01*
X313316Y231866D01*
Y231333D01*
Y231866D01*
X312782Y232399D01*
X312249D01*
X311716Y231866D01*
Y230800D01*
X312249Y230267D01*
X314382Y233466D02*
X314915Y233999D01*
Y235065D01*
X314382Y235598D01*
X312249D01*
X311716Y235065D01*
Y233999D01*
X312249Y233466D01*
X314382D01*
X286882Y160034D02*
X287415Y159501D01*
Y158435D01*
X286882Y157902D01*
X284749D01*
X284216Y158435D01*
Y159501D01*
X284749Y160034D01*
X284216Y161101D02*
Y162167D01*
Y161634D01*
X287415D01*
X286882Y161101D01*
X284216Y165899D02*
Y163767D01*
X286349Y165899D01*
X286882D01*
X287415Y165366D01*
Y164300D01*
X286882Y163767D01*
Y166965D02*
X287415Y167499D01*
Y168565D01*
X286882Y169098D01*
X286349D01*
X285816Y168565D01*
X285282Y169098D01*
X284749D01*
X284216Y168565D01*
Y167499D01*
X284749Y166965D01*
X285282D01*
X285816Y167499D01*
X286349Y166965D01*
X286882D01*
X285816Y167499D02*
Y168565D01*
X298382Y180034D02*
X298915Y179501D01*
Y178435D01*
X298382Y177902D01*
X296249D01*
X295716Y178435D01*
Y179501D01*
X296249Y180034D01*
X295716Y181101D02*
Y182167D01*
Y181634D01*
X298915D01*
X298382Y181101D01*
X295716Y185899D02*
Y183767D01*
X297849Y185899D01*
X298382D01*
X298915Y185366D01*
Y184300D01*
X298382Y183767D01*
X298915Y189098D02*
X298382Y188032D01*
X297316Y186966D01*
X296249D01*
X295716Y187499D01*
Y188565D01*
X296249Y189098D01*
X296782D01*
X297316Y188565D01*
Y186966D01*
X299382Y194534D02*
X299915Y194001D01*
Y192935D01*
X299382Y192402D01*
X297249D01*
X296716Y192935D01*
Y194001D01*
X297249Y194534D01*
X296716Y195601D02*
Y196667D01*
Y196134D01*
X299915D01*
X299382Y195601D01*
X296716Y200399D02*
Y198267D01*
X298849Y200399D01*
X299382D01*
X299915Y199866D01*
Y198800D01*
X299382Y198267D01*
X299915Y203598D02*
Y201466D01*
X298316D01*
X298849Y202532D01*
Y203065D01*
X298316Y203598D01*
X297249D01*
X296716Y203065D01*
Y201999D01*
X297249Y201466D01*
X261382Y147853D02*
X261915Y147320D01*
Y146254D01*
X261382Y145721D01*
X259249D01*
X258716Y146254D01*
Y147320D01*
X259249Y147853D01*
X258716Y148920D02*
Y149986D01*
Y149453D01*
X261915D01*
X261382Y148920D01*
X258716Y153718D02*
Y151585D01*
X260849Y153718D01*
X261382D01*
X261915Y153185D01*
Y152119D01*
X261382Y151585D01*
X258716Y156384D02*
X261915D01*
X260315Y154784D01*
Y156917D01*
X245882Y140353D02*
X246415Y139820D01*
Y138754D01*
X245882Y138221D01*
X243749D01*
X243216Y138754D01*
Y139820D01*
X243749Y140353D01*
X243216Y141420D02*
Y142486D01*
Y141953D01*
X246415D01*
X245882Y141420D01*
X243216Y146218D02*
Y144086D01*
X245349Y146218D01*
X245882D01*
X246415Y145685D01*
Y144619D01*
X245882Y144086D01*
Y147284D02*
X246415Y147818D01*
Y148884D01*
X245882Y149417D01*
X245349D01*
X244815Y148884D01*
Y148351D01*
Y148884D01*
X244282Y149417D01*
X243749D01*
X243216Y148884D01*
Y147818D01*
X243749Y147284D01*
X275249Y232466D02*
X274716Y232999D01*
Y234065D01*
X275249Y234598D01*
X277382D01*
X277915Y234065D01*
Y232999D01*
X277382Y232466D01*
X277915Y231399D02*
Y230333D01*
Y230866D01*
X274716D01*
X275249Y231399D01*
X277915Y226601D02*
Y228733D01*
X275782Y226601D01*
X275249D01*
X274716Y227134D01*
Y228200D01*
X275249Y228733D01*
Y225535D02*
X274716Y225001D01*
Y223935D01*
X275249Y223402D01*
X277382D01*
X277915Y223935D01*
Y225001D01*
X277382Y225535D01*
X275249D01*
X299882Y227801D02*
X300415Y227268D01*
Y226202D01*
X299882Y225668D01*
X297749D01*
X297216Y226202D01*
Y227268D01*
X297749Y227801D01*
X297216Y228867D02*
Y229934D01*
Y229400D01*
X300415D01*
X299882Y228867D01*
X297216Y231533D02*
Y232599D01*
Y232066D01*
X300415D01*
X299882Y231533D01*
X297749Y234199D02*
X297216Y234732D01*
Y235799D01*
X297749Y236332D01*
X299882D01*
X300415Y235799D01*
Y234732D01*
X299882Y234199D01*
X299349D01*
X298815Y234732D01*
Y236332D01*
X215699Y203566D02*
X216232Y204099D01*
X217298D01*
X217832Y203566D01*
Y201434D01*
X217298Y200901D01*
X216232D01*
X215699Y201434D01*
X214633Y200901D02*
X213566D01*
X214100D01*
Y204099D01*
X214633Y203566D01*
X211967Y200901D02*
X210900D01*
X211434D01*
Y204099D01*
X211967Y203566D01*
X209301Y204099D02*
X207168D01*
Y203566D01*
X209301Y201434D01*
Y200901D01*
X224515Y178566D02*
X225048Y179100D01*
X226114D01*
X226647Y178566D01*
Y176434D01*
X226114Y175900D01*
X225048D01*
X224515Y176434D01*
X223448Y175900D02*
X222382D01*
X222915D01*
Y179100D01*
X223448Y178566D01*
X220782Y175900D02*
X219716D01*
X220249D01*
Y179100D01*
X220782Y178566D01*
X215984Y179100D02*
X217050Y178566D01*
X218117Y177500D01*
Y176434D01*
X217583Y175900D01*
X216517D01*
X215984Y176434D01*
Y176967D01*
X216517Y177500D01*
X218117D01*
X275481Y196066D02*
X276014Y196599D01*
X277081D01*
X277614Y196066D01*
Y193934D01*
X277081Y193401D01*
X276014D01*
X275481Y193934D01*
X274415Y193401D02*
X273349D01*
X273882D01*
Y196599D01*
X274415Y196066D01*
X271749Y193401D02*
X270683D01*
X271216D01*
Y196599D01*
X271749Y196066D01*
X269083Y193401D02*
X268017D01*
X268550D01*
Y196599D01*
X269083Y196066D01*
X286514Y201066D02*
X287048Y201600D01*
X288114D01*
X288647Y201066D01*
Y198934D01*
X288114Y198400D01*
X287048D01*
X286514Y198934D01*
X285448Y198400D02*
X284382D01*
X284915D01*
Y201600D01*
X285448Y201066D01*
X282782Y198400D02*
X281716D01*
X282249D01*
Y201600D01*
X282782Y201066D01*
X280117D02*
X279583Y201600D01*
X278517D01*
X277984Y201066D01*
Y198934D01*
X278517Y198400D01*
X279583D01*
X280117Y198934D01*
Y201066D01*
X251382Y139853D02*
X251915Y139320D01*
Y138254D01*
X251382Y137721D01*
X249249D01*
X248716Y138254D01*
Y139320D01*
X249249Y139853D01*
X248716Y140920D02*
Y141986D01*
Y141453D01*
X251915D01*
X251382Y140920D01*
Y143586D02*
X251915Y144119D01*
Y145185D01*
X251382Y145718D01*
X249249D01*
X248716Y145185D01*
Y144119D01*
X249249Y143586D01*
X251382D01*
X249249Y146784D02*
X248716Y147318D01*
Y148384D01*
X249249Y148917D01*
X251382D01*
X251915Y148384D01*
Y147318D01*
X251382Y146784D01*
X250849D01*
X250315Y147318D01*
Y148917D01*
X223249Y233466D02*
X222716Y233999D01*
Y235065D01*
X223249Y235598D01*
X225382D01*
X225915Y235065D01*
Y233999D01*
X225382Y233466D01*
X225915Y232399D02*
Y231333D01*
Y231866D01*
X222716D01*
X223249Y232399D01*
Y229733D02*
X222716Y229200D01*
Y228134D01*
X223249Y227601D01*
X225382D01*
X225915Y228134D01*
Y229200D01*
X225382Y229733D01*
X223249D01*
Y226535D02*
X222716Y226001D01*
Y224935D01*
X223249Y224402D01*
X223782D01*
X224316Y224935D01*
X224849Y224402D01*
X225382D01*
X225915Y224935D01*
Y226001D01*
X225382Y226535D01*
X224849D01*
X224316Y226001D01*
X223782Y226535D01*
X223249D01*
X224316Y226001D02*
Y224935D01*
X246281Y234066D02*
X246814Y234599D01*
X247881D01*
X248414Y234066D01*
Y231934D01*
X247881Y231400D01*
X246814D01*
X246281Y231934D01*
X245215Y231400D02*
X244148D01*
X244682D01*
Y234599D01*
X245215Y234066D01*
X242549D02*
X242016Y234599D01*
X240950D01*
X240416Y234066D01*
Y231934D01*
X240950Y231400D01*
X242016D01*
X242549Y231934D01*
Y234066D01*
X237217Y234599D02*
X239350D01*
Y233000D01*
X238284Y233533D01*
X237751D01*
X237217Y233000D01*
Y231934D01*
X237751Y231400D01*
X238817D01*
X239350Y231934D01*
X225281Y185566D02*
X225814Y186100D01*
X226881D01*
X227414Y185566D01*
Y183434D01*
X226881Y182901D01*
X225814D01*
X225281Y183434D01*
X224215Y182901D02*
X223148D01*
X223682D01*
Y186100D01*
X224215Y185566D01*
X221549D02*
X221016Y186100D01*
X219950D01*
X219416Y185566D01*
Y183434D01*
X219950Y182901D01*
X221016D01*
X221549Y183434D01*
Y185566D01*
X218350D02*
X217817Y186100D01*
X216751D01*
X216217Y185566D01*
Y185033D01*
X216751Y184500D01*
X217284D01*
X216751D01*
X216217Y183967D01*
Y183434D01*
X216751Y182901D01*
X217817D01*
X218350Y183434D01*
X196434Y162466D02*
X195900Y162999D01*
Y164065D01*
X196434Y164598D01*
X198566D01*
X199100Y164065D01*
Y162999D01*
X198566Y162466D01*
X199100Y161399D02*
Y160333D01*
Y160866D01*
X195900D01*
X196434Y161399D01*
Y158733D02*
X195900Y158200D01*
Y157134D01*
X196434Y156601D01*
X198566D01*
X199100Y157134D01*
Y158200D01*
X198566Y158733D01*
X196434D01*
Y155534D02*
X195900Y155001D01*
Y153935D01*
X196434Y153402D01*
X198566D01*
X199100Y153935D01*
Y155001D01*
X198566Y155534D01*
X196434D01*
X287900Y72934D02*
X287367Y72400D01*
X286301D01*
X285768Y72934D01*
Y75066D01*
X286301Y75599D01*
X287367D01*
X287900Y75066D01*
X288967Y72934D02*
X289500Y72400D01*
X290566D01*
X291100Y72934D01*
Y73467D01*
X290566Y74000D01*
X291100Y74533D01*
Y75066D01*
X290566Y75599D01*
X289500D01*
X288967Y75066D01*
Y74533D01*
X289500Y74000D01*
X288967Y73467D01*
Y72934D01*
X289500Y74000D02*
X290566D01*
X292166Y75599D02*
X293232D01*
X292699D01*
Y72400D01*
X292166Y72934D01*
X280448Y100566D02*
X280981Y101100D01*
X282048D01*
X282581Y100566D01*
Y98434D01*
X282048Y97900D01*
X280981D01*
X280448Y98434D01*
X279382Y100566D02*
X278849Y101100D01*
X277782D01*
X277249Y100566D01*
Y100033D01*
X277782Y99500D01*
X277249Y98967D01*
Y98434D01*
X277782Y97900D01*
X278849D01*
X279382Y98434D01*
Y98967D01*
X278849Y99500D01*
X279382Y100033D01*
Y100566D01*
X278849Y99500D02*
X277782D01*
X276183Y100566D02*
X275650Y101100D01*
X274583D01*
X274050Y100566D01*
Y98434D01*
X274583Y97900D01*
X275650D01*
X276183Y98434D01*
Y100566D01*
X294915Y107066D02*
X295448Y107599D01*
X296515D01*
X297048Y107066D01*
Y104934D01*
X296515Y104401D01*
X295448D01*
X294915Y104934D01*
X293849Y107599D02*
X291716D01*
Y107066D01*
X293849Y104934D01*
Y104401D01*
X290650D02*
X289583D01*
X290117D01*
Y107599D01*
X290650Y107066D01*
X329749Y207633D02*
X329216Y208166D01*
Y209232D01*
X329749Y209765D01*
X331882D01*
X332415Y209232D01*
Y208166D01*
X331882Y207633D01*
X329216Y204434D02*
X329749Y205500D01*
X330816Y206566D01*
X331882D01*
X332415Y206033D01*
Y204967D01*
X331882Y204434D01*
X331349D01*
X330816Y204967D01*
Y206566D01*
X332415Y201768D02*
X329216D01*
X330816Y203367D01*
Y201235D01*
X347382Y205867D02*
X347915Y205334D01*
Y204268D01*
X347382Y203735D01*
X345249D01*
X344716Y204268D01*
Y205334D01*
X345249Y205867D01*
X347915Y209066D02*
X347382Y208000D01*
X346316Y206934D01*
X345249D01*
X344716Y207467D01*
Y208533D01*
X345249Y209066D01*
X345782D01*
X346316Y208533D01*
Y206934D01*
X344716Y212265D02*
Y210133D01*
X346849Y212265D01*
X347382D01*
X347915Y211732D01*
Y210666D01*
X347382Y210133D01*
X327448Y193066D02*
X327981Y193599D01*
X329048D01*
X329581Y193066D01*
Y190934D01*
X329048Y190401D01*
X327981D01*
X327448Y190934D01*
X324249Y193599D02*
X325315Y193066D01*
X326382Y192000D01*
Y190934D01*
X325849Y190401D01*
X324782D01*
X324249Y190934D01*
Y191467D01*
X324782Y192000D01*
X326382D01*
X323183Y193066D02*
X322650Y193599D01*
X321583D01*
X321050Y193066D01*
Y190934D01*
X321583Y190401D01*
X322650D01*
X323183Y190934D01*
Y193066D01*
X335249Y175133D02*
X334716Y175666D01*
Y176732D01*
X335249Y177265D01*
X337382D01*
X337915Y176732D01*
Y175666D01*
X337382Y175133D01*
X334716Y171934D02*
Y174066D01*
X336315D01*
X335782Y173000D01*
Y172467D01*
X336315Y171934D01*
X337382D01*
X337915Y172467D01*
Y173533D01*
X337382Y174066D01*
X335249Y170867D02*
X334716Y170334D01*
Y169268D01*
X335249Y168735D01*
X335782D01*
X336315Y169268D01*
X336849Y168735D01*
X337382D01*
X337915Y169268D01*
Y170334D01*
X337382Y170867D01*
X336849D01*
X336315Y170334D01*
X335782Y170867D01*
X335249D01*
X336315Y170334D02*
Y169268D01*
X337382Y111900D02*
X337915Y111367D01*
Y110301D01*
X337382Y109768D01*
X335249D01*
X334716Y110301D01*
Y111367D01*
X335249Y111900D01*
X337915Y115100D02*
Y112967D01*
X336315D01*
X336849Y114033D01*
Y114566D01*
X336315Y115100D01*
X335249D01*
X334716Y114566D01*
Y113500D01*
X335249Y112967D01*
X334716Y116166D02*
Y117232D01*
Y116699D01*
X337915D01*
X337382Y116166D01*
X355683Y114434D02*
X355150Y113900D01*
X354083D01*
X353550Y114434D01*
Y116566D01*
X354083Y117099D01*
X355150D01*
X355683Y116566D01*
X358882Y113900D02*
X356749D01*
Y115500D01*
X357816Y114967D01*
X358349D01*
X358882Y115500D01*
Y116566D01*
X358349Y117099D01*
X357282D01*
X356749Y116566D01*
X359948Y114434D02*
X360481Y113900D01*
X361548D01*
X362081Y114434D01*
Y116566D01*
X361548Y117099D01*
X360481D01*
X359948Y116566D01*
Y114434D01*
X357448Y140566D02*
X357981Y141100D01*
X359048D01*
X359581Y140566D01*
Y138434D01*
X359048Y137900D01*
X357981D01*
X357448Y138434D01*
X354782Y137900D02*
Y141100D01*
X356382Y139500D01*
X354249D01*
X351050Y141100D02*
X353183D01*
Y139500D01*
X352117Y140033D01*
X351583D01*
X351050Y139500D01*
Y138434D01*
X351583Y137900D01*
X352650D01*
X353183Y138434D01*
X370448Y124566D02*
X370981Y125100D01*
X372048D01*
X372581Y124566D01*
Y122434D01*
X372048Y121900D01*
X370981D01*
X370448Y122434D01*
X367782Y121900D02*
Y125100D01*
X369382Y123500D01*
X367249D01*
X366183Y124566D02*
X365650Y125100D01*
X364583D01*
X364050Y124566D01*
Y124033D01*
X364583Y123500D01*
X365117D01*
X364583D01*
X364050Y122967D01*
Y122434D01*
X364583Y121900D01*
X365650D01*
X366183Y122434D01*
X334948Y130066D02*
X335481Y130599D01*
X336548D01*
X337081Y130066D01*
Y127934D01*
X336548Y127401D01*
X335481D01*
X334948Y127934D01*
X332282Y127401D02*
Y130599D01*
X333882Y129000D01*
X331749D01*
X328550Y127401D02*
X330683D01*
X328550Y129533D01*
Y130066D01*
X329083Y130599D01*
X330150D01*
X330683Y130066D01*
D15*
X211724Y157425D02*
Y160575D01*
X202276Y157425D02*
Y160575D01*
X292741Y102453D02*
X295890D01*
X292741Y96547D02*
X295890D01*
M02*
