G04*
G04 #@! TF.GenerationSoftware,Altium Limited,Altium Designer,21.5.1 (32)*
G04*
G04 Layer_Color=65535*
%FSLAX25Y25*%
%MOIN*%
G70*
G04*
G04 #@! TF.SameCoordinates,2FE26025-303F-4DC1-B2D2-7F731E1EADFF*
G04*
G04*
G04 #@! TF.FilePolarity,Positive*
G04*
G01*
G75*
%ADD10C,0.00984*%
%ADD11C,0.00394*%
%ADD12C,0.01000*%
%ADD13C,0.00600*%
%ADD14C,0.02362*%
%ADD15C,0.00787*%
G36*
X220099Y224528D02*
X220225D01*
X216288Y220590D01*
Y220717D01*
X216256Y220685D01*
Y224622D01*
X220194D01*
X220099Y224528D01*
D02*
G37*
D10*
X240984Y245811D02*
G03*
X240984Y245811I-492J0D01*
G01*
X431841Y252844D02*
G03*
X431866Y252689I-467J-156D01*
G01*
X127201Y176992D02*
G03*
X127201Y176992I-492J0D01*
G01*
X417398Y113555D02*
G03*
X417398Y113555I-492J0D01*
G01*
X154308Y171165D02*
G03*
X154308Y171165I-492J0D01*
G01*
X281308Y127500D02*
G03*
X281308Y127500I-492J0D01*
G01*
X213808Y220500D02*
G03*
X213808Y220500I-492J0D01*
G01*
D02*
G03*
X213808Y220500I-492J0D01*
G01*
X388808Y277000D02*
G03*
X388808Y277000I-492J0D01*
G01*
X353914Y209256D02*
G03*
X353914Y209256I-492J0D01*
G01*
X296091Y310347D02*
G03*
X296091Y310347I-492J0D01*
G01*
X332910Y129650D02*
G03*
X332910Y129650I-492J0D01*
G01*
X374457Y293953D02*
G03*
X374457Y293953I-492J0D01*
G01*
X456795Y99547D02*
G03*
X456795Y99547I-492J0D01*
G01*
X340111D02*
G03*
X340111Y99547I-492J0D01*
G01*
D11*
X160882Y189768D02*
G03*
X160882Y189768I-197J0D01*
G01*
X205224Y228996D02*
G03*
X205224Y228996I-197J0D01*
G01*
D12*
X444500Y124000D02*
G03*
X444500Y124000I-500J0D01*
G01*
X439000Y91000D02*
G03*
X439000Y91000I-500J0D01*
G01*
X362316Y284200D02*
Y290198D01*
X365315D01*
X366314Y289198D01*
Y287199D01*
X365315Y286199D01*
X362316D01*
X368314Y284200D02*
X370313D01*
X369313D01*
Y290198D01*
X368314Y289198D01*
D13*
X271616Y137500D02*
G03*
X271616Y137500I-300J0D01*
G01*
X215165Y111925D02*
Y125075D01*
X202776Y127850D02*
X208855D01*
X196466Y111925D02*
Y125075D01*
X202776Y109150D02*
X208855D01*
X227158Y296169D02*
Y298803D01*
X233473Y300442D02*
Y301558D01*
X227158Y305831D02*
X231118D01*
X227158Y303197D02*
Y305831D01*
Y296169D02*
X231118D01*
X291465Y146959D02*
Y149041D01*
X276899Y156100D02*
X282732D01*
X268165Y146959D02*
Y149041D01*
X276899Y139900D02*
X282732D01*
X227158Y296169D02*
Y298803D01*
X233473Y300442D02*
Y301558D01*
X227158Y305831D02*
X231118D01*
X227158Y303197D02*
Y305831D01*
Y296169D02*
X231118D01*
X215165Y115926D02*
Y129075D01*
X202776Y131850D02*
X208855D01*
X196466Y115926D02*
Y129075D01*
X202776Y113150D02*
X208855D01*
X238800Y277099D02*
Y274433D01*
X239333Y273900D01*
X240400D01*
X240933Y274433D01*
Y277099D01*
X244132Y273900D02*
X241999D01*
X244132Y276033D01*
Y276566D01*
X243599Y277099D01*
X242532D01*
X241999Y276566D01*
X277099Y265235D02*
X273901D01*
Y266834D01*
X274434Y267367D01*
X275500D01*
X276033Y266834D01*
Y265235D01*
Y266301D02*
X277099Y267367D01*
X274434Y268434D02*
X273901Y268967D01*
Y270033D01*
X274434Y270566D01*
X274967D01*
X275500Y270033D01*
Y269500D01*
Y270033D01*
X276033Y270566D01*
X276566D01*
X277099Y270033D01*
Y268967D01*
X276566Y268434D01*
X273901Y271633D02*
Y273765D01*
X274434D01*
X276566Y271633D01*
X277099D01*
X238100Y264735D02*
X234900D01*
Y266334D01*
X235434Y266867D01*
X236500D01*
X237033Y266334D01*
Y264735D01*
Y265801D02*
X238100Y266867D01*
X235434Y267934D02*
X234900Y268467D01*
Y269533D01*
X235434Y270066D01*
X235967D01*
X236500Y269533D01*
Y269000D01*
Y269533D01*
X237033Y270066D01*
X237566D01*
X238100Y269533D01*
Y268467D01*
X237566Y267934D01*
X234900Y273265D02*
X235434Y272199D01*
X236500Y271133D01*
X237566D01*
X238100Y271666D01*
Y272732D01*
X237566Y273265D01*
X237033D01*
X236500Y272732D01*
Y271133D01*
X264134Y246566D02*
X263601Y247099D01*
X262534D01*
X262001Y246566D01*
Y244434D01*
X262534Y243900D01*
X263601D01*
X264134Y244434D01*
X265200Y243900D02*
X266267D01*
X265733D01*
Y247099D01*
X265200Y246566D01*
X267866Y244434D02*
X268399Y243900D01*
X269465D01*
X269999Y244434D01*
Y246566D01*
X269465Y247099D01*
X268399D01*
X267866Y246566D01*
Y246033D01*
X268399Y245500D01*
X269999D01*
X225134Y240566D02*
X224601Y241100D01*
X223534D01*
X223001Y240566D01*
Y238434D01*
X223534Y237900D01*
X224601D01*
X225134Y238434D01*
X226200Y237900D02*
X227267D01*
X226733D01*
Y241100D01*
X226200Y240566D01*
X228866D02*
X229399Y241100D01*
X230466D01*
X230999Y240566D01*
Y240033D01*
X230466Y239500D01*
X230999Y238967D01*
Y238434D01*
X230466Y237900D01*
X229399D01*
X228866Y238434D01*
Y238967D01*
X229399Y239500D01*
X228866Y240033D01*
Y240566D01*
X229399Y239500D02*
X230466D01*
X173134Y225066D02*
X172601Y225600D01*
X171535D01*
X171001Y225066D01*
Y222934D01*
X171535Y222400D01*
X172601D01*
X173134Y222934D01*
X174200Y222400D02*
X175267D01*
X174733D01*
Y225600D01*
X174200Y225066D01*
X176866Y225600D02*
X178999D01*
Y225066D01*
X176866Y222934D01*
Y222400D01*
X432900Y80235D02*
X435566D01*
X436099Y80768D01*
Y81834D01*
X435566Y82367D01*
X432900D01*
X436099Y85566D02*
Y83434D01*
X433967Y85566D01*
X433434D01*
X432900Y85033D01*
Y83967D01*
X433434Y83434D01*
X432900Y88765D02*
Y86633D01*
X434500D01*
X433967Y87699D01*
Y88232D01*
X434500Y88765D01*
X435566D01*
X436099Y88232D01*
Y87166D01*
X435566Y86633D01*
X446901Y112735D02*
X449566D01*
X450100Y113268D01*
Y114334D01*
X449566Y114867D01*
X446901D01*
X450100Y118066D02*
Y115934D01*
X447967Y118066D01*
X447434D01*
X446901Y117533D01*
Y116467D01*
X447434Y115934D01*
X450100Y120732D02*
X446901D01*
X448500Y119133D01*
Y121265D01*
X397334Y113600D02*
Y110934D01*
X397867Y110400D01*
X398934D01*
X399467Y110934D01*
Y113600D01*
X400533Y113066D02*
X401066Y113600D01*
X402133D01*
X402666Y113066D01*
Y112533D01*
X402133Y112000D01*
X402666Y111467D01*
Y110934D01*
X402133Y110400D01*
X401066D01*
X400533Y110934D01*
Y111467D01*
X401066Y112000D01*
X400533Y112533D01*
Y113066D01*
X401066Y112000D02*
X402133D01*
X448599Y133235D02*
X445400D01*
Y134834D01*
X445934Y135367D01*
X447000D01*
X447533Y134834D01*
Y133235D01*
Y134301D02*
X448599Y135367D01*
X445400Y136434D02*
Y138566D01*
X445934D01*
X448066Y136434D01*
X448599D01*
X445400Y141765D02*
X445934Y140699D01*
X447000Y139633D01*
X448066D01*
X448599Y140166D01*
Y141232D01*
X448066Y141765D01*
X447533D01*
X447000Y141232D01*
Y139633D01*
X383034Y131901D02*
Y135099D01*
X384634D01*
X385167Y134566D01*
Y133500D01*
X384634Y132967D01*
X383034D01*
X384101D02*
X385167Y131901D01*
X386233D02*
X387300D01*
X386767D01*
Y135099D01*
X386233Y134566D01*
X388899Y131901D02*
X389966D01*
X389432D01*
Y135099D01*
X388899Y134566D01*
X416600Y124501D02*
X413401D01*
Y126101D01*
X413934Y126634D01*
X415000D01*
X415533Y126101D01*
Y124501D01*
Y125568D02*
X416600Y126634D01*
Y127700D02*
Y128767D01*
Y128233D01*
X413401D01*
X413934Y127700D01*
Y130366D02*
X413401Y130899D01*
Y131966D01*
X413934Y132499D01*
X416066D01*
X416600Y131966D01*
Y130899D01*
X416066Y130366D01*
X413934D01*
X428600Y112834D02*
X425400D01*
Y114434D01*
X425934Y114967D01*
X427000D01*
X427533Y114434D01*
Y112834D01*
Y113900D02*
X428600Y114967D01*
X428066Y116033D02*
X428600Y116566D01*
Y117633D01*
X428066Y118166D01*
X425934D01*
X425400Y117633D01*
Y116566D01*
X425934Y116033D01*
X426467D01*
X427000Y116566D01*
Y118166D01*
X400599Y119334D02*
X397400D01*
Y120934D01*
X397934Y121467D01*
X399000D01*
X399533Y120934D01*
Y119334D01*
Y120401D02*
X400599Y121467D01*
X397934Y122533D02*
X397400Y123066D01*
Y124133D01*
X397934Y124666D01*
X398467D01*
X399000Y124133D01*
X399533Y124666D01*
X400066D01*
X400599Y124133D01*
Y123066D01*
X400066Y122533D01*
X399533D01*
X399000Y123066D01*
X398467Y122533D01*
X397934D01*
X399000Y123066D02*
Y124133D01*
X402400Y137166D02*
X405599D01*
Y135566D01*
X405066Y135033D01*
X404000D01*
X403467Y135566D01*
Y137166D01*
Y136100D02*
X402400Y135033D01*
X405599Y131834D02*
X405066Y132901D01*
X404000Y133967D01*
X402934D01*
X402400Y133434D01*
Y132367D01*
X402934Y131834D01*
X403467D01*
X404000Y132367D01*
Y133967D01*
X426834Y111100D02*
Y107901D01*
X428967D01*
X432166D02*
X430033D01*
X432166Y110033D01*
Y110566D01*
X431633Y111100D01*
X430566D01*
X430033Y110566D01*
X431867Y101600D02*
Y98400D01*
X434000D01*
X435066D02*
X436133D01*
X435600D01*
Y101600D01*
X435066Y101066D01*
X389134Y109566D02*
X388601Y110099D01*
X387534D01*
X387001Y109566D01*
Y107434D01*
X387534Y106901D01*
X388601D01*
X389134Y107434D01*
X390200Y106901D02*
X391267D01*
X390733D01*
Y110099D01*
X390200Y109566D01*
X394999Y110099D02*
X393932Y109566D01*
X392866Y108500D01*
Y107434D01*
X393399Y106901D01*
X394465D01*
X394999Y107434D01*
Y107967D01*
X394465Y108500D01*
X392866D01*
X399434Y80134D02*
X398901Y79601D01*
Y78535D01*
X399434Y78001D01*
X401566D01*
X402100Y78535D01*
Y79601D01*
X401566Y80134D01*
X402100Y81200D02*
Y82267D01*
Y81733D01*
X398901D01*
X399434Y81200D01*
X398901Y85999D02*
Y83866D01*
X400500D01*
X399967Y84932D01*
Y85466D01*
X400500Y85999D01*
X401566D01*
X402100Y85466D01*
Y84399D01*
X401566Y83866D01*
X439134Y111066D02*
X438601Y111600D01*
X437535D01*
X437001Y111066D01*
Y108934D01*
X437535Y108400D01*
X438601D01*
X439134Y108934D01*
X440200Y108400D02*
X441267D01*
X440733D01*
Y111600D01*
X440200Y111066D01*
X444465Y108400D02*
Y111600D01*
X442866Y110000D01*
X444999D01*
X421934Y129634D02*
X421400Y129101D01*
Y128034D01*
X421934Y127501D01*
X424066D01*
X424600Y128034D01*
Y129101D01*
X424066Y129634D01*
X424600Y130700D02*
Y131767D01*
Y131233D01*
X421400D01*
X421934Y130700D01*
Y133366D02*
X421400Y133899D01*
Y134966D01*
X421934Y135499D01*
X422467D01*
X423000Y134966D01*
Y134432D01*
Y134966D01*
X423533Y135499D01*
X424066D01*
X424600Y134966D01*
Y133899D01*
X424066Y133366D01*
X430934Y131134D02*
X430401Y130601D01*
Y129534D01*
X430934Y129001D01*
X433066D01*
X433600Y129534D01*
Y130601D01*
X433066Y131134D01*
X433600Y132200D02*
Y133267D01*
Y132733D01*
X430401D01*
X430934Y132200D01*
X433600Y136999D02*
Y134866D01*
X431467Y136999D01*
X430934D01*
X430401Y136466D01*
Y135399D01*
X430934Y134866D01*
X425434Y70667D02*
X424900Y70134D01*
Y69068D01*
X425434Y68534D01*
X427566D01*
X428099Y69068D01*
Y70134D01*
X427566Y70667D01*
X428099Y71733D02*
Y72800D01*
Y72267D01*
X424900D01*
X425434Y71733D01*
X428099Y74399D02*
Y75466D01*
Y74932D01*
X424900D01*
X425434Y74399D01*
X416434Y78134D02*
X415901Y77601D01*
Y76534D01*
X416434Y76001D01*
X418566D01*
X419100Y76534D01*
Y77601D01*
X418566Y78134D01*
X419100Y79200D02*
Y80267D01*
Y79733D01*
X415901D01*
X416434Y79200D01*
Y81866D02*
X415901Y82399D01*
Y83465D01*
X416434Y83999D01*
X418566D01*
X419100Y83465D01*
Y82399D01*
X418566Y81866D01*
X416434D01*
X391100Y115235D02*
X387900D01*
Y116834D01*
X388434Y117367D01*
X389500D01*
X390033Y116834D01*
Y115235D01*
Y116301D02*
X391100Y117367D01*
X387900Y120566D02*
Y118434D01*
X389500D01*
X388967Y119500D01*
Y120033D01*
X389500Y120566D01*
X390566D01*
X391100Y120033D01*
Y118967D01*
X390566Y118434D01*
X388434Y121633D02*
X387900Y122166D01*
Y123232D01*
X388434Y123765D01*
X390566D01*
X391100Y123232D01*
Y122166D01*
X390566Y121633D01*
X388434D01*
X380100Y132235D02*
X376901D01*
Y133834D01*
X377434Y134367D01*
X378500D01*
X379033Y133834D01*
Y132235D01*
Y133301D02*
X380100Y134367D01*
Y137033D02*
X376901D01*
X378500Y135434D01*
Y137566D01*
X379566Y138633D02*
X380100Y139166D01*
Y140232D01*
X379566Y140765D01*
X377434D01*
X376901Y140232D01*
Y139166D01*
X377434Y138633D01*
X377967D01*
X378500Y139166D01*
Y140765D01*
X411001Y138600D02*
Y135400D01*
X413134D01*
X414200D02*
X415267D01*
X414733D01*
Y138600D01*
X414200Y138066D01*
X416866D02*
X417399Y138600D01*
X418466D01*
X418999Y138066D01*
Y137533D01*
X418466Y137000D01*
X418999Y136467D01*
Y135934D01*
X418466Y135400D01*
X417399D01*
X416866Y135934D01*
Y136467D01*
X417399Y137000D01*
X416866Y137533D01*
Y138066D01*
X417399Y137000D02*
X418466D01*
X392501Y95600D02*
Y92400D01*
X394634D01*
X395700D02*
X396767D01*
X396233D01*
Y95600D01*
X395700Y95066D01*
X398366Y95600D02*
X400499D01*
Y95066D01*
X398366Y92934D01*
Y92400D01*
X402901Y115501D02*
X406100D01*
Y117634D01*
Y118700D02*
Y119767D01*
Y119233D01*
X402901D01*
X403434Y118700D01*
X402901Y123499D02*
X403434Y122432D01*
X404500Y121366D01*
X405566D01*
X406100Y121899D01*
Y122966D01*
X405566Y123499D01*
X405033D01*
X404500Y122966D01*
Y121366D01*
X190249Y118401D02*
X189716Y117867D01*
Y116801D01*
X190249Y116268D01*
X190782D01*
X191315Y116801D01*
Y117867D01*
X191849Y118401D01*
X192382D01*
X192915Y117867D01*
Y116801D01*
X192382Y116268D01*
X189716Y119467D02*
X192915D01*
X191849Y120533D01*
X192915Y121599D01*
X189716D01*
X192915Y122666D02*
Y123732D01*
Y123199D01*
X189716D01*
X190249Y122666D01*
X175334Y183599D02*
X177467Y180401D01*
Y183599D02*
X175334Y180401D01*
X180133D02*
Y183599D01*
X178533Y182000D01*
X180666D01*
X121001Y207100D02*
Y204434D01*
X121535Y203901D01*
X122601D01*
X123134Y204434D01*
Y207100D01*
X124200Y203901D02*
X125267D01*
X124733D01*
Y207100D01*
X124200Y206566D01*
X128999Y207100D02*
X127932Y206566D01*
X126866Y205500D01*
Y204434D01*
X127399Y203901D01*
X128466D01*
X128999Y204434D01*
Y204967D01*
X128466Y205500D01*
X126866D01*
X161235Y203901D02*
Y207100D01*
X162834D01*
X163367Y206566D01*
Y205500D01*
X162834Y204967D01*
X161235D01*
X162301D02*
X163367Y203901D01*
X166033D02*
Y207100D01*
X164434Y205500D01*
X166566D01*
X167633Y207100D02*
X169765D01*
Y206566D01*
X167633Y204434D01*
Y203901D01*
X112834Y185400D02*
Y188600D01*
X114434D01*
X114967Y188066D01*
Y187000D01*
X114434Y186467D01*
X112834D01*
X113900D02*
X114967Y185400D01*
X118166Y188600D02*
X116033D01*
Y187000D01*
X117099Y187533D01*
X117633D01*
X118166Y187000D01*
Y185934D01*
X117633Y185400D01*
X116566D01*
X116033Y185934D01*
X150735Y194401D02*
Y197599D01*
X152334D01*
X152867Y197066D01*
Y196000D01*
X152334Y195467D01*
X150735D01*
X151801D02*
X152867Y194401D01*
X155533D02*
Y197599D01*
X153934Y196000D01*
X156066D01*
X159265Y194401D02*
X157133D01*
X159265Y196533D01*
Y197066D01*
X158732Y197599D01*
X157666D01*
X157133Y197066D01*
X102235Y190901D02*
Y194099D01*
X103834D01*
X104367Y193566D01*
Y192500D01*
X103834Y191967D01*
X102235D01*
X103301D02*
X104367Y190901D01*
X105434Y193566D02*
X105967Y194099D01*
X107033D01*
X107566Y193566D01*
Y193033D01*
X107033Y192500D01*
X106500D01*
X107033D01*
X107566Y191967D01*
Y191434D01*
X107033Y190901D01*
X105967D01*
X105434Y191434D01*
X108633Y193566D02*
X109166Y194099D01*
X110232D01*
X110765Y193566D01*
Y193033D01*
X110232Y192500D01*
X110765Y191967D01*
Y191434D01*
X110232Y190901D01*
X109166D01*
X108633Y191434D01*
Y191967D01*
X109166Y192500D01*
X108633Y193033D01*
Y193566D01*
X109166Y192500D02*
X110232D01*
X91834Y194599D02*
Y191401D01*
X93434D01*
X93967Y191934D01*
Y194066D01*
X93434Y194599D01*
X91834D01*
X95033Y191934D02*
X95566Y191401D01*
X96633D01*
X97166Y191934D01*
Y194066D01*
X96633Y194599D01*
X95566D01*
X95033Y194066D01*
Y193533D01*
X95566Y193000D01*
X97166D01*
X148367Y213066D02*
X147834Y213599D01*
X146768D01*
X146235Y213066D01*
Y210934D01*
X146768Y210401D01*
X147834D01*
X148367Y210934D01*
X151566Y210401D02*
X149434D01*
X151566Y212533D01*
Y213066D01*
X151033Y213599D01*
X149967D01*
X149434Y213066D01*
X154765Y213599D02*
X152633D01*
Y212000D01*
X153699Y212533D01*
X154232D01*
X154765Y212000D01*
Y210934D01*
X154232Y210401D01*
X153166D01*
X152633Y210934D01*
X140867Y175066D02*
X140334Y175600D01*
X139268D01*
X138735Y175066D01*
Y172934D01*
X139268Y172400D01*
X140334D01*
X140867Y172934D01*
X141934Y175066D02*
X142467Y175600D01*
X143533D01*
X144066Y175066D01*
Y174533D01*
X143533Y174000D01*
X144066Y173467D01*
Y172934D01*
X143533Y172400D01*
X142467D01*
X141934Y172934D01*
Y173467D01*
X142467Y174000D01*
X141934Y174533D01*
Y175066D01*
X142467Y174000D02*
X143533D01*
X145133Y175066D02*
X145666Y175600D01*
X146732D01*
X147265Y175066D01*
Y174533D01*
X146732Y174000D01*
X146199D01*
X146732D01*
X147265Y173467D01*
Y172934D01*
X146732Y172400D01*
X145666D01*
X145133Y172934D01*
X82434Y168367D02*
X81901Y167834D01*
Y166768D01*
X82434Y166235D01*
X84566D01*
X85100Y166768D01*
Y167834D01*
X84566Y168367D01*
X85100Y171566D02*
Y169434D01*
X82967Y171566D01*
X82434D01*
X81901Y171033D01*
Y169967D01*
X82434Y169434D01*
X85100Y174232D02*
X81901D01*
X83500Y172633D01*
Y174765D01*
X102867Y183066D02*
X102334Y183599D01*
X101268D01*
X100735Y183066D01*
Y180934D01*
X101268Y180401D01*
X102334D01*
X102867Y180934D01*
X106066Y180401D02*
X103934D01*
X106066Y182533D01*
Y183066D01*
X105533Y183599D01*
X104467D01*
X103934Y183066D01*
X109265Y183599D02*
X108199Y183066D01*
X107133Y182000D01*
Y180934D01*
X107666Y180401D01*
X108732D01*
X109265Y180934D01*
Y181467D01*
X108732Y182000D01*
X107133D01*
X406334Y255599D02*
Y252934D01*
X406867Y252400D01*
X407934D01*
X408467Y252934D01*
Y255599D01*
X409533Y252934D02*
X410066Y252400D01*
X411133D01*
X411666Y252934D01*
Y255066D01*
X411133Y255599D01*
X410066D01*
X409533Y255066D01*
Y254533D01*
X410066Y254000D01*
X411666D01*
X255650Y289100D02*
Y286434D01*
X256183Y285900D01*
X257249D01*
X257782Y286434D01*
Y289100D01*
X260981D02*
X259915Y288566D01*
X258849Y287500D01*
Y286434D01*
X259382Y285900D01*
X260448D01*
X260981Y286434D01*
Y286967D01*
X260448Y287500D01*
X258849D01*
X220150Y298099D02*
Y295434D01*
X220683Y294900D01*
X221749D01*
X222282Y295434D01*
Y298099D01*
X224948Y294900D02*
Y298099D01*
X223349Y296500D01*
X225481D01*
X320050Y99901D02*
Y103100D01*
X321650D01*
X322183Y102566D01*
Y101500D01*
X321650Y100967D01*
X320050D01*
X321117D02*
X322183Y99901D01*
X323249Y103100D02*
X325382D01*
Y102566D01*
X323249Y100434D01*
Y99901D01*
X328581Y103100D02*
X326448D01*
Y101500D01*
X327515Y102033D01*
X328048D01*
X328581Y101500D01*
Y100434D01*
X328048Y99901D01*
X326981D01*
X326448Y100434D01*
X369216Y153999D02*
X372415D01*
Y152399D01*
X371882Y151866D01*
X370815D01*
X370282Y152399D01*
Y153999D01*
Y152932D02*
X369216Y151866D01*
Y150800D02*
Y149733D01*
Y150267D01*
X372415D01*
X371882Y150800D01*
X369749Y148134D02*
X369216Y147601D01*
Y146534D01*
X369749Y146001D01*
X371882D01*
X372415Y146534D01*
Y147601D01*
X371882Y148134D01*
X371349D01*
X370815Y147601D01*
Y146001D01*
X454864Y239066D02*
X454331Y239599D01*
X453265D01*
X452731Y239066D01*
Y236934D01*
X453265Y236401D01*
X454331D01*
X454864Y236934D01*
X455930Y239066D02*
X456463Y239599D01*
X457530D01*
X458063Y239066D01*
Y238533D01*
X457530Y238000D01*
X456997D01*
X457530D01*
X458063Y237467D01*
Y236934D01*
X457530Y236401D01*
X456463D01*
X455930Y236934D01*
X460729Y236401D02*
Y239599D01*
X459129Y238000D01*
X461262D01*
X433681Y237599D02*
Y234401D01*
X435814D01*
X438480D02*
Y237599D01*
X436880Y236000D01*
X439013D01*
X319683Y180066D02*
X319150Y180599D01*
X318083D01*
X317550Y180066D01*
Y177934D01*
X318083Y177401D01*
X319150D01*
X319683Y177934D01*
X320749Y180599D02*
Y177401D01*
X322882D01*
X323948Y180599D02*
Y177401D01*
Y178467D01*
X326081Y180599D01*
X324481Y179000D01*
X326081Y177401D01*
X309915Y94735D02*
X306716D01*
Y96334D01*
X307249Y96867D01*
X308315D01*
X308849Y96334D01*
Y94735D01*
Y95801D02*
X309915Y96867D01*
X306716Y97934D02*
Y100066D01*
X307249D01*
X309382Y97934D01*
X309915D01*
Y102732D02*
X306716D01*
X308315Y101133D01*
Y103265D01*
X319216Y96100D02*
X318150D01*
X318683D01*
Y93434D01*
X318150Y92901D01*
X317617D01*
X317083Y93434D01*
X322415Y92901D02*
X320282D01*
X322415Y95033D01*
Y95566D01*
X321882Y96100D01*
X320815D01*
X320282Y95566D01*
X323481Y92901D02*
X324548D01*
X324014D01*
Y96100D01*
X323481Y95566D01*
X356216Y215902D02*
X359415D01*
Y217501D01*
X358882Y218035D01*
X356749D01*
X356216Y217501D01*
Y215902D01*
Y219101D02*
X359415D01*
Y220700D01*
X358882Y221233D01*
X358349D01*
X357816Y220700D01*
Y219101D01*
Y220700D01*
X357282Y221233D01*
X356749D01*
X356216Y220700D01*
Y219101D01*
X359415Y222300D02*
Y223366D01*
Y222833D01*
X356216D01*
X356749Y222300D01*
Y224966D02*
X356216Y225499D01*
Y226565D01*
X356749Y227098D01*
X357282D01*
X357816Y226565D01*
Y226032D01*
Y226565D01*
X358349Y227098D01*
X358882D01*
X359415Y226565D01*
Y225499D01*
X358882Y224966D01*
X350716Y217402D02*
X353915D01*
Y219001D01*
X353382Y219534D01*
X351249D01*
X350716Y219001D01*
Y217402D01*
Y220601D02*
X353915D01*
Y222200D01*
X353382Y222733D01*
X352849D01*
X352315Y222200D01*
Y220601D01*
Y222200D01*
X351782Y222733D01*
X351249D01*
X350716Y222200D01*
Y220601D01*
X353915Y223800D02*
Y224866D01*
Y224333D01*
X350716D01*
X351249Y223800D01*
X353915Y228598D02*
Y226466D01*
X351782Y228598D01*
X351249D01*
X350716Y228065D01*
Y226999D01*
X351249Y226466D01*
X345216Y210435D02*
X348415D01*
Y212035D01*
X347882Y212568D01*
X345749D01*
X345216Y212035D01*
Y210435D01*
Y213634D02*
X348415D01*
Y215233D01*
X347882Y215767D01*
X347349D01*
X346815Y215233D01*
Y213634D01*
Y215233D01*
X346282Y215767D01*
X345749D01*
X345216Y215233D01*
Y213634D01*
X348415Y216833D02*
Y217899D01*
Y217366D01*
X345216D01*
X345749Y216833D01*
X348415Y219499D02*
Y220565D01*
Y220032D01*
X345216D01*
X345749Y219499D01*
X326217Y217099D02*
Y213900D01*
X327817D01*
X328350Y214434D01*
Y216566D01*
X327817Y217099D01*
X326217D01*
X329416D02*
Y213900D01*
X331016D01*
X331549Y214434D01*
Y214967D01*
X331016Y215500D01*
X329416D01*
X331016D01*
X331549Y216033D01*
Y216566D01*
X331016Y217099D01*
X329416D01*
X332615Y213900D02*
X333682D01*
X333148D01*
Y217099D01*
X332615Y216566D01*
X335281D02*
X335814Y217099D01*
X336881D01*
X337414Y216566D01*
Y214434D01*
X336881Y213900D01*
X335814D01*
X335281Y214434D01*
Y216566D01*
X289050Y217099D02*
Y213900D01*
X290650D01*
X291183Y214434D01*
Y216566D01*
X290650Y217099D01*
X289050D01*
X292249D02*
Y213900D01*
X293849D01*
X294382Y214434D01*
Y214967D01*
X293849Y215500D01*
X292249D01*
X293849D01*
X294382Y216033D01*
Y216566D01*
X293849Y217099D01*
X292249D01*
X295448Y214434D02*
X295981Y213900D01*
X297048D01*
X297581Y214434D01*
Y216566D01*
X297048Y217099D01*
X295981D01*
X295448Y216566D01*
Y216033D01*
X295981Y215500D01*
X297581D01*
X283216Y206735D02*
X286415D01*
Y208334D01*
X285882Y208867D01*
X283749D01*
X283216Y208334D01*
Y206735D01*
Y209934D02*
X286415D01*
Y211533D01*
X285882Y212066D01*
X285349D01*
X284816Y211533D01*
Y209934D01*
Y211533D01*
X284282Y212066D01*
X283749D01*
X283216Y211533D01*
Y209934D01*
X283749Y213133D02*
X283216Y213666D01*
Y214732D01*
X283749Y215265D01*
X284282D01*
X284816Y214732D01*
X285349Y215265D01*
X285882D01*
X286415Y214732D01*
Y213666D01*
X285882Y213133D01*
X285349D01*
X284816Y213666D01*
X284282Y213133D01*
X283749D01*
X284816Y213666D02*
Y214732D01*
X278216Y200735D02*
X281415D01*
Y202334D01*
X280882Y202867D01*
X278749D01*
X278216Y202334D01*
Y200735D01*
Y203934D02*
X281415D01*
Y205533D01*
X280882Y206066D01*
X280349D01*
X279816Y205533D01*
Y203934D01*
Y205533D01*
X279282Y206066D01*
X278749D01*
X278216Y205533D01*
Y203934D01*
Y207133D02*
Y209265D01*
X278749D01*
X280882Y207133D01*
X281415D01*
X296550Y210599D02*
Y207400D01*
X298150D01*
X298683Y207934D01*
Y210066D01*
X298150Y210599D01*
X296550D01*
X299749D02*
Y207400D01*
X301349D01*
X301882Y207934D01*
Y208467D01*
X301349Y209000D01*
X299749D01*
X301349D01*
X301882Y209533D01*
Y210066D01*
X301349Y210599D01*
X299749D01*
X305081D02*
X304014Y210066D01*
X302948Y209000D01*
Y207934D01*
X303481Y207400D01*
X304548D01*
X305081Y207934D01*
Y208467D01*
X304548Y209000D01*
X302948D01*
X297050Y199100D02*
Y195900D01*
X298650D01*
X299183Y196434D01*
Y198566D01*
X298650Y199100D01*
X297050D01*
X300249D02*
Y195900D01*
X301849D01*
X302382Y196434D01*
Y196967D01*
X301849Y197500D01*
X300249D01*
X301849D01*
X302382Y198033D01*
Y198566D01*
X301849Y199100D01*
X300249D01*
X305581D02*
X303448D01*
Y197500D01*
X304515Y198033D01*
X305048D01*
X305581Y197500D01*
Y196434D01*
X305048Y195900D01*
X303981D01*
X303448Y196434D01*
X311550Y203099D02*
Y199900D01*
X313150D01*
X313683Y200434D01*
Y202566D01*
X313150Y203099D01*
X311550D01*
X314749D02*
Y199900D01*
X316349D01*
X316882Y200434D01*
Y200967D01*
X316349Y201500D01*
X314749D01*
X316349D01*
X316882Y202033D01*
Y202566D01*
X316349Y203099D01*
X314749D01*
X319548Y199900D02*
Y203099D01*
X317948Y201500D01*
X320081D01*
X309550Y196099D02*
Y192901D01*
X311150D01*
X311683Y193434D01*
Y195566D01*
X311150Y196099D01*
X309550D01*
X312749D02*
Y192901D01*
X314349D01*
X314882Y193434D01*
Y193967D01*
X314349Y194500D01*
X312749D01*
X314349D01*
X314882Y195033D01*
Y195566D01*
X314349Y196099D01*
X312749D01*
X315948Y195566D02*
X316481Y196099D01*
X317548D01*
X318081Y195566D01*
Y195033D01*
X317548Y194500D01*
X317015D01*
X317548D01*
X318081Y193967D01*
Y193434D01*
X317548Y192901D01*
X316481D01*
X315948Y193434D01*
X293550Y185600D02*
Y182401D01*
X295150D01*
X295683Y182934D01*
Y185066D01*
X295150Y185600D01*
X293550D01*
X296749D02*
Y182401D01*
X298349D01*
X298882Y182934D01*
Y183467D01*
X298349Y184000D01*
X296749D01*
X298349D01*
X298882Y184533D01*
Y185066D01*
X298349Y185600D01*
X296749D01*
X302081Y182401D02*
X299948D01*
X302081Y184533D01*
Y185066D01*
X301548Y185600D01*
X300481D01*
X299948Y185066D01*
X316083Y191100D02*
Y187900D01*
X317683D01*
X318216Y188434D01*
Y190566D01*
X317683Y191100D01*
X316083D01*
X319282D02*
Y187900D01*
X320882D01*
X321415Y188434D01*
Y188967D01*
X320882Y189500D01*
X319282D01*
X320882D01*
X321415Y190033D01*
Y190566D01*
X320882Y191100D01*
X319282D01*
X322481Y187900D02*
X323548D01*
X323014D01*
Y191100D01*
X322481Y190566D01*
X316050Y186100D02*
Y182901D01*
X317650D01*
X318183Y183434D01*
Y185566D01*
X317650Y186100D01*
X316050D01*
X319249D02*
Y182901D01*
X320849D01*
X321382Y183434D01*
Y183967D01*
X320849Y184500D01*
X319249D01*
X320849D01*
X321382Y185033D01*
Y185566D01*
X320849Y186100D01*
X319249D01*
X322448Y185566D02*
X322981Y186100D01*
X324048D01*
X324581Y185566D01*
Y183434D01*
X324048Y182901D01*
X322981D01*
X322448Y183434D01*
Y185566D01*
X277683Y161100D02*
Y160566D01*
X278749Y159500D01*
X279816Y160566D01*
Y161100D01*
X278749Y159500D02*
Y157901D01*
X280882D02*
X281948D01*
X281415D01*
Y161100D01*
X280882Y160566D01*
X326150Y211599D02*
Y208934D01*
X326683Y208401D01*
X327749D01*
X328282Y208934D01*
Y211599D01*
X329349D02*
X331481D01*
Y211066D01*
X329349Y208934D01*
Y208401D01*
X329216Y121834D02*
X331882D01*
X332415Y122367D01*
Y123434D01*
X331882Y123967D01*
X329216D01*
X329749Y125033D02*
X329216Y125566D01*
Y126633D01*
X329749Y127166D01*
X330282D01*
X330816Y126633D01*
Y126100D01*
Y126633D01*
X331349Y127166D01*
X331882D01*
X332415Y126633D01*
Y125566D01*
X331882Y125033D01*
X325216Y120265D02*
X328415D01*
Y118666D01*
X327882Y118133D01*
X326816D01*
X326282Y118666D01*
Y120265D01*
Y119199D02*
X325216Y118133D01*
X328415Y117066D02*
Y114934D01*
X327882D01*
X325749Y117066D01*
X325216D01*
X327882Y113867D02*
X328415Y113334D01*
Y112268D01*
X327882Y111735D01*
X325749D01*
X325216Y112268D01*
Y113334D01*
X325749Y113867D01*
X327882D01*
X281415Y87735D02*
X278216D01*
Y89334D01*
X278749Y89867D01*
X279816D01*
X280349Y89334D01*
Y87735D01*
Y88801D02*
X281415Y89867D01*
X278216Y93066D02*
X278749Y92000D01*
X279816Y90934D01*
X280882D01*
X281415Y91467D01*
Y92533D01*
X280882Y93066D01*
X280349D01*
X279816Y92533D01*
Y90934D01*
X278216Y94133D02*
Y96265D01*
X278749D01*
X280882Y94133D01*
X281415D01*
X275600Y88735D02*
X272400D01*
Y90334D01*
X272934Y90867D01*
X274000D01*
X274533Y90334D01*
Y88735D01*
Y89801D02*
X275600Y90867D01*
X272400Y94066D02*
X272934Y93000D01*
X274000Y91934D01*
X275066D01*
X275600Y92467D01*
Y93533D01*
X275066Y94066D01*
X274533D01*
X274000Y93533D01*
Y91934D01*
X272400Y97265D02*
X272934Y96199D01*
X274000Y95133D01*
X275066D01*
X275600Y95666D01*
Y96732D01*
X275066Y97265D01*
X274533D01*
X274000Y96732D01*
Y95133D01*
X310915Y141735D02*
X307716D01*
Y143334D01*
X308249Y143867D01*
X309315D01*
X309849Y143334D01*
Y141735D01*
Y142801D02*
X310915Y143867D01*
X307716Y147066D02*
X308249Y146000D01*
X309315Y144934D01*
X310382D01*
X310915Y145467D01*
Y146533D01*
X310382Y147066D01*
X309849D01*
X309315Y146533D01*
Y144934D01*
X308249Y148133D02*
X307716Y148666D01*
Y149732D01*
X308249Y150265D01*
X310382D01*
X310915Y149732D01*
Y148666D01*
X310382Y148133D01*
X308249D01*
X316915Y133735D02*
X313716D01*
Y135334D01*
X314249Y135867D01*
X315316D01*
X315849Y135334D01*
Y133735D01*
Y134801D02*
X316915Y135867D01*
X313716Y139066D02*
Y136934D01*
X315316D01*
X314782Y138000D01*
Y138533D01*
X315316Y139066D01*
X316382D01*
X316915Y138533D01*
Y137467D01*
X316382Y136934D01*
X314249Y140133D02*
X313716Y140666D01*
Y141732D01*
X314249Y142265D01*
X314782D01*
X315316Y141732D01*
X315849Y142265D01*
X316382D01*
X316915Y141732D01*
Y140666D01*
X316382Y140133D01*
X315849D01*
X315316Y140666D01*
X314782Y140133D01*
X314249D01*
X315316Y140666D02*
Y141732D01*
X317550Y172400D02*
Y175600D01*
X319150D01*
X319683Y175066D01*
Y174000D01*
X319150Y173467D01*
X317550D01*
X318617D02*
X319683Y172400D01*
X322882Y175600D02*
X320749D01*
Y174000D01*
X321815Y174533D01*
X322349D01*
X322882Y174000D01*
Y172934D01*
X322349Y172400D01*
X321282D01*
X320749Y172934D01*
X323948Y175600D02*
X326081D01*
Y175066D01*
X323948Y172934D01*
Y172400D01*
X317216Y148501D02*
X320415D01*
Y150634D01*
Y151700D02*
Y152767D01*
Y152233D01*
X317216D01*
X317749Y151700D01*
X317216Y156499D02*
Y154366D01*
X318815D01*
X318282Y155432D01*
Y155966D01*
X318815Y156499D01*
X319882D01*
X320415Y155966D01*
Y154899D01*
X319882Y154366D01*
X323216Y152501D02*
X326415D01*
Y154634D01*
Y155700D02*
Y156767D01*
Y156233D01*
X323216D01*
X323749Y155700D01*
X326415Y159966D02*
X323216D01*
X324816Y158366D01*
Y160499D01*
X193434Y138534D02*
X192901Y138001D01*
Y136935D01*
X193434Y136402D01*
X195566D01*
X196099Y136935D01*
Y138001D01*
X195566Y138534D01*
X196099Y139601D02*
Y140667D01*
Y140134D01*
X192901D01*
X193434Y139601D01*
X192901Y142267D02*
Y144399D01*
X193434D01*
X195566Y142267D01*
X196099D01*
X193434Y145466D02*
X192901Y145999D01*
Y147065D01*
X193434Y147598D01*
X193967D01*
X194500Y147065D01*
Y146532D01*
Y147065D01*
X195033Y147598D01*
X195566D01*
X196099Y147065D01*
Y145999D01*
X195566Y145466D01*
X232350Y154066D02*
X231817Y154599D01*
X230750D01*
X230217Y154066D01*
Y151934D01*
X230750Y151400D01*
X231817D01*
X232350Y151934D01*
X233416Y151400D02*
X234483D01*
X233949D01*
Y154599D01*
X233416Y154066D01*
X236082Y154599D02*
X238215D01*
Y154066D01*
X236082Y151934D01*
Y151400D01*
X239281Y154066D02*
X239814Y154599D01*
X240881D01*
X241414Y154066D01*
Y151934D01*
X240881Y151400D01*
X239814D01*
X239281Y151934D01*
Y154066D01*
X232782Y160566D02*
X232249Y161100D01*
X231183D01*
X230650Y160566D01*
Y158434D01*
X231183Y157901D01*
X232249D01*
X232782Y158434D01*
X235981Y161100D02*
X234915Y160566D01*
X233849Y159500D01*
Y158434D01*
X234382Y157901D01*
X235448D01*
X235981Y158434D01*
Y158967D01*
X235448Y159500D01*
X233849D01*
X432683Y210100D02*
X434816Y206901D01*
Y210100D02*
X432683Y206901D01*
X435882D02*
X436948D01*
X436415D01*
Y210100D01*
X435882Y209566D01*
X101001Y167599D02*
Y164934D01*
X101534Y164400D01*
X102601D01*
X103134Y164934D01*
Y167599D01*
X104200Y164400D02*
X105267D01*
X104733D01*
Y167599D01*
X104200Y167066D01*
X108999Y167599D02*
X106866D01*
Y166000D01*
X107932Y166533D01*
X108466D01*
X108999Y166000D01*
Y164934D01*
X108466Y164400D01*
X107399D01*
X106866Y164934D01*
X195001Y232599D02*
Y229934D01*
X195535Y229400D01*
X196601D01*
X197134Y229934D01*
Y232599D01*
X198200Y229400D02*
X199267D01*
X198733D01*
Y232599D01*
X198200Y232066D01*
X202999Y229400D02*
X200866D01*
X202999Y231533D01*
Y232066D01*
X202466Y232599D01*
X201399D01*
X200866Y232066D01*
X310650Y261599D02*
Y258934D01*
X311183Y258401D01*
X312249D01*
X312782Y258934D01*
Y261599D01*
X315981D02*
X313849D01*
Y260000D01*
X314915Y260533D01*
X315448D01*
X315981Y260000D01*
Y258934D01*
X315448Y258401D01*
X314382D01*
X313849Y258934D01*
X384317Y303099D02*
Y300434D01*
X384850Y299901D01*
X385916D01*
X386450Y300434D01*
Y303099D01*
X387516Y299901D02*
X388582D01*
X388049D01*
Y303099D01*
X387516Y302566D01*
X390182D02*
X390715Y303099D01*
X391781D01*
X392314Y302566D01*
Y300434D01*
X391781Y299901D01*
X390715D01*
X390182Y300434D01*
Y302566D01*
X444183Y290100D02*
Y287434D01*
X444716Y286900D01*
X445782D01*
X446315Y287434D01*
Y290100D01*
X447382Y286900D02*
X448448D01*
X447915D01*
Y290100D01*
X447382Y289566D01*
X95915Y144268D02*
X92716D01*
Y145867D01*
X93249Y146400D01*
X94315D01*
X94849Y145867D01*
Y144268D01*
Y145334D02*
X95915Y146400D01*
X92716Y149600D02*
Y147467D01*
X94315D01*
X93782Y148533D01*
Y149066D01*
X94315Y149600D01*
X95382D01*
X95915Y149066D01*
Y148000D01*
X95382Y147467D01*
X95915Y150666D02*
Y151732D01*
Y151199D01*
X92716D01*
X93249Y150666D01*
X120415Y114235D02*
X117216D01*
Y115834D01*
X117749Y116367D01*
X118816D01*
X119349Y115834D01*
Y114235D01*
Y115301D02*
X120415Y116367D01*
Y119033D02*
X117216D01*
X118816Y117434D01*
Y119566D01*
X117216Y122765D02*
X117749Y121699D01*
X118816Y120633D01*
X119882D01*
X120415Y121166D01*
Y122232D01*
X119882Y122765D01*
X119349D01*
X118816Y122232D01*
Y120633D01*
X145915Y115735D02*
X142716D01*
Y117334D01*
X143249Y117867D01*
X144316D01*
X144849Y117334D01*
Y115735D01*
Y116801D02*
X145915Y117867D01*
Y120533D02*
X142716D01*
X144316Y118934D01*
Y121066D01*
X143249Y122133D02*
X142716Y122666D01*
Y123732D01*
X143249Y124265D01*
X143782D01*
X144316Y123732D01*
Y123199D01*
Y123732D01*
X144849Y124265D01*
X145382D01*
X145915Y123732D01*
Y122666D01*
X145382Y122133D01*
X234583Y145900D02*
Y149100D01*
X236183D01*
X236716Y148566D01*
Y147500D01*
X236183Y146967D01*
X234583D01*
X235650D02*
X236716Y145900D01*
X237782Y148566D02*
X238316Y149100D01*
X239382D01*
X239915Y148566D01*
Y148033D01*
X239382Y147500D01*
X238849D01*
X239382D01*
X239915Y146967D01*
Y146434D01*
X239382Y145900D01*
X238316D01*
X237782Y146434D01*
X240981Y145900D02*
X242048D01*
X241514D01*
Y149100D01*
X240981Y148566D01*
X246050Y159900D02*
Y163100D01*
X247650D01*
X248183Y162566D01*
Y161500D01*
X247650Y160967D01*
X246050D01*
X247117D02*
X248183Y159900D01*
X249249Y162566D02*
X249782Y163100D01*
X250849D01*
X251382Y162566D01*
Y162033D01*
X250849Y161500D01*
X250315D01*
X250849D01*
X251382Y160967D01*
Y160434D01*
X250849Y159900D01*
X249782D01*
X249249Y160434D01*
X252448Y162566D02*
X252981Y163100D01*
X254048D01*
X254581Y162566D01*
Y160434D01*
X254048Y159900D01*
X252981D01*
X252448Y160434D01*
Y162566D01*
X263216Y158265D02*
X266415D01*
Y156666D01*
X265882Y156133D01*
X264815D01*
X264282Y156666D01*
Y158265D01*
Y157199D02*
X263216Y156133D01*
Y152934D02*
Y155066D01*
X265349Y152934D01*
X265882D01*
X266415Y153467D01*
Y154533D01*
X265882Y155066D01*
X263749Y151867D02*
X263216Y151334D01*
Y150268D01*
X263749Y149735D01*
X265882D01*
X266415Y150268D01*
Y151334D01*
X265882Y151867D01*
X265349D01*
X264815Y151334D01*
Y149735D01*
X243415Y233235D02*
X240216D01*
Y234834D01*
X240749Y235367D01*
X241815D01*
X242349Y234834D01*
Y233235D01*
Y234301D02*
X243415Y235367D01*
Y238566D02*
Y236434D01*
X241282Y238566D01*
X240749D01*
X240216Y238033D01*
Y236967D01*
X240749Y236434D01*
Y239633D02*
X240216Y240166D01*
Y241232D01*
X240749Y241765D01*
X241282D01*
X241815Y241232D01*
X242349Y241765D01*
X242882D01*
X243415Y241232D01*
Y240166D01*
X242882Y239633D01*
X242349D01*
X241815Y240166D01*
X241282Y239633D01*
X240749D01*
X241815Y240166D02*
Y241232D01*
X258550Y234900D02*
Y238100D01*
X260150D01*
X260683Y237566D01*
Y236500D01*
X260150Y235967D01*
X258550D01*
X259617D02*
X260683Y234900D01*
X263882D02*
X261749D01*
X263882Y237033D01*
Y237566D01*
X263349Y238100D01*
X262282D01*
X261749Y237566D01*
X264948Y238100D02*
X267081D01*
Y237566D01*
X264948Y235434D01*
Y234900D01*
X372235Y195401D02*
Y198600D01*
X373834D01*
X374367Y198066D01*
Y197000D01*
X373834Y196467D01*
X372235D01*
X373301D02*
X374367Y195401D01*
X377566D02*
X375434D01*
X377566Y197533D01*
Y198066D01*
X377033Y198600D01*
X375967D01*
X375434Y198066D01*
X378633D02*
X379166Y198600D01*
X380232D01*
X380765Y198066D01*
Y197533D01*
X380232Y197000D01*
X379699D01*
X380232D01*
X380765Y196467D01*
Y195934D01*
X380232Y195401D01*
X379166D01*
X378633Y195934D01*
X363235Y207400D02*
Y210599D01*
X364834D01*
X365367Y210066D01*
Y209000D01*
X364834Y208467D01*
X363235D01*
X364301D02*
X365367Y207400D01*
X368566D02*
X366434D01*
X368566Y209533D01*
Y210066D01*
X368033Y210599D01*
X366967D01*
X366434Y210066D01*
X369633D02*
X370166Y210599D01*
X371232D01*
X371765Y210066D01*
Y207934D01*
X371232Y207400D01*
X370166D01*
X369633Y207934D01*
Y210066D01*
X369716Y140499D02*
X372915D01*
Y138899D01*
X372382Y138366D01*
X371316D01*
X370782Y138899D01*
Y140499D01*
Y139432D02*
X369716Y138366D01*
Y137300D02*
Y136233D01*
Y136767D01*
X372915D01*
X372382Y137300D01*
X372915Y134634D02*
Y132501D01*
X372382D01*
X370249Y134634D01*
X369716D01*
X357317Y171400D02*
Y174600D01*
X358916D01*
X359450Y174066D01*
Y173000D01*
X358916Y172467D01*
X357317D01*
X358383D02*
X359450Y171400D01*
X360516D02*
X361582D01*
X361049D01*
Y174600D01*
X360516Y174066D01*
X365314Y174600D02*
X364248Y174066D01*
X363182Y173000D01*
Y171934D01*
X363715Y171400D01*
X364781D01*
X365314Y171934D01*
Y172467D01*
X364781Y173000D01*
X363182D01*
X409650Y282400D02*
Y285599D01*
X411249D01*
X411782Y285066D01*
Y284000D01*
X411249Y283467D01*
X409650D01*
X410716D02*
X411782Y282400D01*
X414448D02*
Y285599D01*
X412849Y284000D01*
X414981D01*
X103150Y290401D02*
Y293600D01*
X104749D01*
X105282Y293066D01*
Y292000D01*
X104749Y291467D01*
X103150D01*
X104216D02*
X105282Y290401D01*
X106349Y293066D02*
X106882Y293600D01*
X107948D01*
X108481Y293066D01*
Y292533D01*
X107948Y292000D01*
X107415D01*
X107948D01*
X108481Y291467D01*
Y290934D01*
X107948Y290401D01*
X106882D01*
X106349Y290934D01*
X103150Y295401D02*
Y298600D01*
X104749D01*
X105282Y298066D01*
Y297000D01*
X104749Y296467D01*
X103150D01*
X104216D02*
X105282Y295401D01*
X108481D02*
X106349D01*
X108481Y297533D01*
Y298066D01*
X107948Y298600D01*
X106882D01*
X106349Y298066D01*
X103183Y300400D02*
Y303600D01*
X104782D01*
X105315Y303066D01*
Y302000D01*
X104782Y301467D01*
X103183D01*
X104249D02*
X105315Y300400D01*
X106382D02*
X107448D01*
X106915D01*
Y303600D01*
X106382Y303066D01*
X212334Y84900D02*
Y88099D01*
X213934D01*
X214467Y87566D01*
Y86500D01*
X213934Y85967D01*
X212334D01*
X217666Y84900D02*
X215533D01*
X217666Y87033D01*
Y87566D01*
X217133Y88099D01*
X216066D01*
X215533Y87566D01*
X251716Y241765D02*
X254915D01*
X251716Y239633D01*
X254915D01*
X251716Y238566D02*
X254915D01*
Y236967D01*
X254382Y236434D01*
X253315D01*
X252782Y236967D01*
Y238566D01*
X254915Y235367D02*
Y233235D01*
X254382D01*
X252249Y235367D01*
X251716D01*
X418716Y208265D02*
X421915D01*
X418716Y206133D01*
X421915D01*
X418716Y205066D02*
X421915D01*
Y203467D01*
X421382Y202934D01*
X420316D01*
X419782Y203467D01*
Y205066D01*
X421382Y201867D02*
X421915Y201334D01*
Y200268D01*
X421382Y199735D01*
X420849D01*
X420316Y200268D01*
Y200801D01*
Y200268D01*
X419782Y199735D01*
X419249D01*
X418716Y200268D01*
Y201334D01*
X419249Y201867D01*
X363915Y157666D02*
X360716D01*
Y155533D01*
X361249Y154467D02*
X360716Y153934D01*
Y152867D01*
X361249Y152334D01*
X363382D01*
X363915Y152867D01*
Y153934D01*
X363382Y154467D01*
X362849D01*
X362316Y153934D01*
Y152334D01*
X347216Y151834D02*
X350415D01*
Y153967D01*
X347216Y157166D02*
X347749Y156099D01*
X348815Y155033D01*
X349882D01*
X350415Y155566D01*
Y156633D01*
X349882Y157166D01*
X349349D01*
X348815Y156633D01*
Y155033D01*
X443650Y245099D02*
Y241900D01*
X445782D01*
X448981Y245099D02*
X446849D01*
Y243500D01*
X447915Y244033D01*
X448448D01*
X448981Y243500D01*
Y242434D01*
X448448Y241900D01*
X447382D01*
X446849Y242434D01*
X410716Y203834D02*
X413915D01*
Y205967D01*
X411249Y207033D02*
X410716Y207566D01*
Y208633D01*
X411249Y209166D01*
X411782D01*
X412316Y208633D01*
Y208100D01*
Y208633D01*
X412849Y209166D01*
X413382D01*
X413915Y208633D01*
Y207566D01*
X413382Y207033D01*
X412600Y147033D02*
Y148100D01*
Y147566D01*
X409934D01*
X409401Y148100D01*
Y148633D01*
X409934Y149166D01*
X412600Y143834D02*
Y145967D01*
X411000D01*
X411533Y144901D01*
Y144367D01*
X411000Y143834D01*
X409934D01*
X409401Y144367D01*
Y145434D01*
X409934Y145967D01*
X473967Y95100D02*
X472900D01*
X473434D01*
Y92434D01*
X472900Y91900D01*
X472367D01*
X471834Y92434D01*
X475033Y94566D02*
X475566Y95100D01*
X476633D01*
X477166Y94566D01*
Y94033D01*
X476633Y93500D01*
X476099D01*
X476633D01*
X477166Y92967D01*
Y92434D01*
X476633Y91900D01*
X475566D01*
X475033Y92434D01*
X357282Y97100D02*
X356216D01*
X356749D01*
Y94434D01*
X356216Y93901D01*
X355683D01*
X355150Y94434D01*
X360481Y93901D02*
X358349D01*
X360481Y96033D01*
Y96566D01*
X359948Y97100D01*
X358882D01*
X358349Y96566D01*
X214716Y261834D02*
X217915D01*
Y263434D01*
X217382Y263967D01*
X215249D01*
X214716Y263434D01*
Y261834D01*
X215249Y265033D02*
X214716Y265566D01*
Y266633D01*
X215249Y267166D01*
X215782D01*
X216316Y266633D01*
X216849Y267166D01*
X217382D01*
X217915Y266633D01*
Y265566D01*
X217382Y265033D01*
X216849D01*
X216316Y265566D01*
X215782Y265033D01*
X215249D01*
X216316Y265566D02*
Y266633D01*
X224716Y261834D02*
X227915D01*
Y263434D01*
X227382Y263967D01*
X225249D01*
X224716Y263434D01*
Y261834D01*
Y265033D02*
Y267166D01*
X225249D01*
X227382Y265033D01*
X227915D01*
X219716Y261834D02*
X222915D01*
Y263434D01*
X222382Y263967D01*
X220249D01*
X219716Y263434D01*
Y261834D01*
Y267166D02*
X220249Y266100D01*
X221316Y265033D01*
X222382D01*
X222915Y265566D01*
Y266633D01*
X222382Y267166D01*
X221849D01*
X221316Y266633D01*
Y265033D01*
X229716Y261834D02*
X232915D01*
Y263434D01*
X232382Y263967D01*
X230249D01*
X229716Y263434D01*
Y261834D01*
Y267166D02*
Y265033D01*
X231315D01*
X230782Y266100D01*
Y266633D01*
X231315Y267166D01*
X232382D01*
X232915Y266633D01*
Y265566D01*
X232382Y265033D01*
X249216Y149334D02*
X252415D01*
Y150934D01*
X251882Y151467D01*
X249749D01*
X249216Y150934D01*
Y149334D01*
X252415Y154133D02*
X249216D01*
X250816Y152533D01*
Y154666D01*
X75150Y293600D02*
Y290401D01*
X76749D01*
X77282Y290934D01*
Y293066D01*
X76749Y293600D01*
X75150D01*
X78349Y293066D02*
X78882Y293600D01*
X79948D01*
X80481Y293066D01*
Y292533D01*
X79948Y292000D01*
X79415D01*
X79948D01*
X80481Y291467D01*
Y290934D01*
X79948Y290401D01*
X78882D01*
X78349Y290934D01*
X75150Y299099D02*
Y295901D01*
X76749D01*
X77282Y296434D01*
Y298566D01*
X76749Y299099D01*
X75150D01*
X80481Y295901D02*
X78349D01*
X80481Y298033D01*
Y298566D01*
X79948Y299099D01*
X78882D01*
X78349Y298566D01*
X75183Y304099D02*
Y300901D01*
X76782D01*
X77315Y301434D01*
Y303566D01*
X76782Y304099D01*
X75183D01*
X78382Y300901D02*
X79448D01*
X78915D01*
Y304099D01*
X78382Y303566D01*
X177382Y151965D02*
X177915Y152499D01*
Y153565D01*
X177382Y154098D01*
X175249D01*
X174716Y153565D01*
Y152499D01*
X175249Y151965D01*
X174716Y150899D02*
Y149833D01*
Y150366D01*
X177915D01*
X177382Y150899D01*
X174716Y146634D02*
X177915D01*
X176315Y148233D01*
Y146101D01*
X177915Y142902D02*
X177382Y143968D01*
X176315Y145034D01*
X175249D01*
X174716Y144501D01*
Y143435D01*
X175249Y142902D01*
X175782D01*
X176315Y143435D01*
Y145034D01*
X305850Y241566D02*
X305317Y242099D01*
X304251D01*
X303717Y241566D01*
Y239434D01*
X304251Y238900D01*
X305317D01*
X305850Y239434D01*
X306916Y238900D02*
X307983D01*
X307450D01*
Y242099D01*
X306916Y241566D01*
X311715Y238900D02*
X309582D01*
X311715Y241033D01*
Y241566D01*
X311182Y242099D01*
X310115D01*
X309582Y241566D01*
X312781Y239434D02*
X313314Y238900D01*
X314381D01*
X314914Y239434D01*
Y241566D01*
X314381Y242099D01*
X313314D01*
X312781Y241566D01*
Y241033D01*
X313314Y240500D01*
X314914D01*
X192249Y257301D02*
X191716Y256768D01*
Y255702D01*
X192249Y255168D01*
X194382D01*
X194915Y255702D01*
Y256768D01*
X194382Y257301D01*
X194915Y258367D02*
Y259434D01*
Y258900D01*
X191716D01*
X192249Y258367D01*
X194915Y261033D02*
Y262100D01*
Y261566D01*
X191716D01*
X192249Y261033D01*
Y263699D02*
X191716Y264232D01*
Y265299D01*
X192249Y265832D01*
X192782D01*
X193315Y265299D01*
X193849Y265832D01*
X194382D01*
X194915Y265299D01*
Y264232D01*
X194382Y263699D01*
X193849D01*
X193315Y264232D01*
X192782Y263699D01*
X192249D01*
X193315Y264232D02*
Y265299D01*
X197434Y153801D02*
X196900Y153268D01*
Y152202D01*
X197434Y151668D01*
X199566D01*
X200099Y152202D01*
Y153268D01*
X199566Y153801D01*
X200099Y154867D02*
Y155934D01*
Y155401D01*
X196900D01*
X197434Y154867D01*
X200099Y157533D02*
Y158599D01*
Y158066D01*
X196900D01*
X197434Y157533D01*
X196900Y162332D02*
Y160199D01*
X198500D01*
X197967Y161265D01*
Y161799D01*
X198500Y162332D01*
X199566D01*
X200099Y161799D01*
Y160732D01*
X199566Y160199D01*
X203617Y248066D02*
X203083Y248600D01*
X202017D01*
X201484Y248066D01*
Y245934D01*
X202017Y245401D01*
X203083D01*
X203617Y245934D01*
X204683Y245401D02*
X205749D01*
X205216D01*
Y248600D01*
X204683Y248066D01*
X207349Y245401D02*
X208415D01*
X207882D01*
Y248600D01*
X207349Y248066D01*
X211614Y245401D02*
Y248600D01*
X210015Y247000D01*
X212147D01*
X291617Y242066D02*
X291083Y242600D01*
X290017D01*
X289484Y242066D01*
Y239934D01*
X290017Y239401D01*
X291083D01*
X291617Y239934D01*
X292683Y239401D02*
X293749D01*
X293216D01*
Y242600D01*
X292683Y242066D01*
X295349Y239401D02*
X296415D01*
X295882D01*
Y242600D01*
X295349Y242066D01*
X298014D02*
X298548Y242600D01*
X299614D01*
X300147Y242066D01*
Y241533D01*
X299614Y241000D01*
X299081D01*
X299614D01*
X300147Y240467D01*
Y239934D01*
X299614Y239401D01*
X298548D01*
X298014Y239934D01*
X275617Y241066D02*
X275083Y241599D01*
X274017D01*
X273484Y241066D01*
Y238934D01*
X274017Y238401D01*
X275083D01*
X275617Y238934D01*
X276683Y238401D02*
X277749D01*
X277216D01*
Y241599D01*
X276683Y241066D01*
X279349Y238401D02*
X280415D01*
X279882D01*
Y241599D01*
X279349Y241066D01*
X284147Y238401D02*
X282014D01*
X284147Y240533D01*
Y241066D01*
X283614Y241599D01*
X282548D01*
X282014Y241066D01*
X235382Y235965D02*
X235915Y236499D01*
Y237565D01*
X235382Y238098D01*
X233249D01*
X232716Y237565D01*
Y236499D01*
X233249Y235965D01*
X232716Y234899D02*
Y233833D01*
Y234366D01*
X235915D01*
X235382Y234899D01*
Y232233D02*
X235915Y231700D01*
Y230634D01*
X235382Y230101D01*
X233249D01*
X232716Y230634D01*
Y231700D01*
X233249Y232233D01*
X235382D01*
X235915Y229034D02*
Y226902D01*
X235382D01*
X233249Y229034D01*
X232716D01*
X250850Y229066D02*
X250317Y229599D01*
X249251D01*
X248717Y229066D01*
Y226934D01*
X249251Y226400D01*
X250317D01*
X250850Y226934D01*
X251916Y226400D02*
X252983D01*
X252449D01*
Y229599D01*
X251916Y229066D01*
X254582D02*
X255115Y229599D01*
X256182D01*
X256715Y229066D01*
Y226934D01*
X256182Y226400D01*
X255115D01*
X254582Y226934D01*
Y229066D01*
X259914Y229599D02*
X258847Y229066D01*
X257781Y228000D01*
Y226934D01*
X258314Y226400D01*
X259381D01*
X259914Y226934D01*
Y227467D01*
X259381Y228000D01*
X257781D01*
X206249Y192034D02*
X205716Y191501D01*
Y190435D01*
X206249Y189902D01*
X208382D01*
X208915Y190435D01*
Y191501D01*
X208382Y192034D01*
X208915Y193101D02*
Y194167D01*
Y193634D01*
X205716D01*
X206249Y193101D01*
Y195767D02*
X205716Y196300D01*
Y197366D01*
X206249Y197899D01*
X208382D01*
X208915Y197366D01*
Y196300D01*
X208382Y195767D01*
X206249D01*
X208915Y200565D02*
X205716D01*
X207315Y198966D01*
Y201098D01*
X189850Y186066D02*
X189317Y186600D01*
X188251D01*
X187717Y186066D01*
Y183934D01*
X188251Y183400D01*
X189317D01*
X189850Y183934D01*
X190916Y183400D02*
X191983D01*
X191449D01*
Y186600D01*
X190916Y186066D01*
X193582D02*
X194115Y186600D01*
X195182D01*
X195715Y186066D01*
Y183934D01*
X195182Y183400D01*
X194115D01*
X193582Y183934D01*
Y186066D01*
X198914Y183400D02*
X196781D01*
X198914Y185533D01*
Y186066D01*
X198381Y186600D01*
X197314D01*
X196781Y186066D01*
X195749Y173068D02*
X195216Y172535D01*
Y171468D01*
X195749Y170935D01*
X197882D01*
X198415Y171468D01*
Y172535D01*
X197882Y173068D01*
X198415Y174134D02*
Y175200D01*
Y174667D01*
X195216D01*
X195749Y174134D01*
Y176800D02*
X195216Y177333D01*
Y178399D01*
X195749Y178932D01*
X197882D01*
X198415Y178399D01*
Y177333D01*
X197882Y176800D01*
X195749D01*
X198415Y179999D02*
Y181065D01*
Y180532D01*
X195216D01*
X195749Y179999D01*
X303249Y130367D02*
X302716Y129834D01*
Y128768D01*
X303249Y128235D01*
X305382D01*
X305915Y128768D01*
Y129834D01*
X305382Y130367D01*
X302716Y131434D02*
Y133566D01*
X303249D01*
X305382Y131434D01*
X305915D01*
X303249Y134633D02*
X302716Y135166D01*
Y136232D01*
X303249Y136765D01*
X303782D01*
X304315Y136232D01*
X304849Y136765D01*
X305382D01*
X305915Y136232D01*
Y135166D01*
X305382Y134633D01*
X304849D01*
X304315Y135166D01*
X303782Y134633D01*
X303249D01*
X304315Y135166D02*
Y136232D01*
X266749Y122367D02*
X266216Y121834D01*
Y120768D01*
X266749Y120235D01*
X268882D01*
X269415Y120768D01*
Y121834D01*
X268882Y122367D01*
X266216Y123434D02*
Y125566D01*
X266749D01*
X268882Y123434D01*
X269415D01*
X266216Y126633D02*
Y128765D01*
X266749D01*
X268882Y126633D01*
X269415D01*
X328183Y109566D02*
X327650Y110099D01*
X326583D01*
X326050Y109566D01*
Y107434D01*
X326583Y106901D01*
X327650D01*
X328183Y107434D01*
X329249Y110099D02*
X331382D01*
Y109566D01*
X329249Y107434D01*
Y106901D01*
X334581Y110099D02*
X333514Y109566D01*
X332448Y108500D01*
Y107434D01*
X332981Y106901D01*
X334048D01*
X334581Y107434D01*
Y107967D01*
X334048Y108500D01*
X332448D01*
X295249Y139367D02*
X294716Y138834D01*
Y137768D01*
X295249Y137235D01*
X297382D01*
X297915Y137768D01*
Y138834D01*
X297382Y139367D01*
X294716Y140434D02*
Y142566D01*
X295249D01*
X297382Y140434D01*
X297915D01*
X294716Y145765D02*
Y143633D01*
X296316D01*
X295782Y144699D01*
Y145232D01*
X296316Y145765D01*
X297382D01*
X297915Y145232D01*
Y144166D01*
X297382Y143633D01*
X319183Y127066D02*
X318650Y127600D01*
X317583D01*
X317050Y127066D01*
Y124934D01*
X317583Y124400D01*
X318650D01*
X319183Y124934D01*
X320249Y127600D02*
X322382D01*
Y127066D01*
X320249Y124934D01*
Y124400D01*
X325048D02*
Y127600D01*
X323448Y126000D01*
X325581D01*
X272749Y111367D02*
X272216Y110834D01*
Y109768D01*
X272749Y109235D01*
X274882D01*
X275415Y109768D01*
Y110834D01*
X274882Y111367D01*
X272216Y112434D02*
Y114566D01*
X272749D01*
X274882Y112434D01*
X275415D01*
Y117765D02*
Y115633D01*
X273282Y117765D01*
X272749D01*
X272216Y117232D01*
Y116166D01*
X272749Y115633D01*
X275749Y131367D02*
X275216Y130834D01*
Y129768D01*
X275749Y129235D01*
X277882D01*
X278415Y129768D01*
Y130834D01*
X277882Y131367D01*
X275216Y132434D02*
Y134566D01*
X275749D01*
X277882Y132434D01*
X278415D01*
X275749Y135633D02*
X275216Y136166D01*
Y137232D01*
X275749Y137765D01*
X277882D01*
X278415Y137232D01*
Y136166D01*
X277882Y135633D01*
X275749D01*
X296683Y153566D02*
X296150Y154100D01*
X295083D01*
X294550Y153566D01*
Y151434D01*
X295083Y150900D01*
X296150D01*
X296683Y151434D01*
X299882Y154100D02*
X298815Y153566D01*
X297749Y152500D01*
Y151434D01*
X298282Y150900D01*
X299349D01*
X299882Y151434D01*
Y151967D01*
X299349Y152500D01*
X297749D01*
X300948Y151434D02*
X301481Y150900D01*
X302548D01*
X303081Y151434D01*
Y153566D01*
X302548Y154100D01*
X301481D01*
X300948Y153566D01*
Y153033D01*
X301481Y152500D01*
X303081D01*
X294948Y76434D02*
X295481Y75901D01*
X296548D01*
X297081Y76434D01*
Y78566D01*
X296548Y79100D01*
X295481D01*
X294948Y78566D01*
X291749Y75901D02*
X292815Y76434D01*
X293882Y77500D01*
Y78566D01*
X293349Y79100D01*
X292282D01*
X291749Y78566D01*
Y78033D01*
X292282Y77500D01*
X293882D01*
X290683Y75901D02*
X288550D01*
Y76434D01*
X290683Y78566D01*
Y79100D01*
X323749Y164367D02*
X323216Y163834D01*
Y162768D01*
X323749Y162235D01*
X325882D01*
X326415Y162768D01*
Y163834D01*
X325882Y164367D01*
X323216Y167566D02*
X323749Y166500D01*
X324816Y165434D01*
X325882D01*
X326415Y165967D01*
Y167033D01*
X325882Y167566D01*
X325349D01*
X324816Y167033D01*
Y165434D01*
X323749Y168633D02*
X323216Y169166D01*
Y170232D01*
X323749Y170765D01*
X324282D01*
X324816Y170232D01*
Y169699D01*
Y170232D01*
X325349Y170765D01*
X325882D01*
X326415Y170232D01*
Y169166D01*
X325882Y168633D01*
X341382Y166133D02*
X341915Y166666D01*
Y167732D01*
X341382Y168265D01*
X339249D01*
X338716Y167732D01*
Y166666D01*
X339249Y166133D01*
X341915Y162934D02*
Y165066D01*
X340316D01*
X340849Y164000D01*
Y163467D01*
X340316Y162934D01*
X339249D01*
X338716Y163467D01*
Y164533D01*
X339249Y165066D01*
X341915Y161867D02*
Y159735D01*
X341382D01*
X339249Y161867D01*
X338716D01*
X368948Y184934D02*
X369481Y184400D01*
X370548D01*
X371081Y184934D01*
Y187066D01*
X370548Y187600D01*
X369481D01*
X368948Y187066D01*
X365749Y184400D02*
X367882D01*
Y186000D01*
X366815Y185467D01*
X366282D01*
X365749Y186000D01*
Y187066D01*
X366282Y187600D01*
X367349D01*
X367882Y187066D01*
X362550Y184400D02*
X363617Y184934D01*
X364683Y186000D01*
Y187066D01*
X364150Y187600D01*
X363083D01*
X362550Y187066D01*
Y186533D01*
X363083Y186000D01*
X364683D01*
X363882Y166133D02*
X364415Y166666D01*
Y167732D01*
X363882Y168265D01*
X361749D01*
X361216Y167732D01*
Y166666D01*
X361749Y166133D01*
X364415Y162934D02*
Y165066D01*
X362815D01*
X363349Y164000D01*
Y163467D01*
X362815Y162934D01*
X361749D01*
X361216Y163467D01*
Y164533D01*
X361749Y165066D01*
X364415Y159735D02*
Y161867D01*
X362815D01*
X363349Y160801D01*
Y160268D01*
X362815Y159735D01*
X361749D01*
X361216Y160268D01*
Y161334D01*
X361749Y161867D01*
X346749Y161367D02*
X346216Y160834D01*
Y159768D01*
X346749Y159235D01*
X348882D01*
X349415Y159768D01*
Y160834D01*
X348882Y161367D01*
X346216Y164566D02*
Y162434D01*
X347815D01*
X347282Y163500D01*
Y164033D01*
X347815Y164566D01*
X348882D01*
X349415Y164033D01*
Y162967D01*
X348882Y162434D01*
X349415Y167765D02*
Y165633D01*
X347282Y167765D01*
X346749D01*
X346216Y167232D01*
Y166166D01*
X346749Y165633D01*
X346948Y104434D02*
X347481Y103901D01*
X348548D01*
X349081Y104434D01*
Y106566D01*
X348548Y107099D01*
X347481D01*
X346948Y106566D01*
X344282Y107099D02*
Y103901D01*
X345882Y105500D01*
X343749D01*
X342683Y106566D02*
X342150Y107099D01*
X341083D01*
X340550Y106566D01*
Y104434D01*
X341083Y103901D01*
X342150D01*
X342683Y104434D01*
Y104967D01*
X342150Y105500D01*
X340550D01*
X371382Y123133D02*
X371915Y123666D01*
Y124732D01*
X371382Y125265D01*
X369249D01*
X368716Y124732D01*
Y123666D01*
X369249Y123133D01*
X368716Y120467D02*
X371915D01*
X370316Y122066D01*
Y119934D01*
X371382Y118867D02*
X371915Y118334D01*
Y117268D01*
X371382Y116735D01*
X370849D01*
X370316Y117268D01*
X369782Y116735D01*
X369249D01*
X368716Y117268D01*
Y118334D01*
X369249Y118867D01*
X369782D01*
X370316Y118334D01*
X370849Y118867D01*
X371382D01*
X370316Y118334D02*
Y117268D01*
X357249Y120367D02*
X356716Y119834D01*
Y118768D01*
X357249Y118235D01*
X359382D01*
X359915Y118768D01*
Y119834D01*
X359382Y120367D01*
X359915Y123033D02*
X356716D01*
X358315Y121434D01*
Y123566D01*
X356716Y124633D02*
Y126765D01*
X357249D01*
X359382Y124633D01*
X359915D01*
X374434Y118867D02*
X373901Y118334D01*
Y117268D01*
X374434Y116735D01*
X376566D01*
X377099Y117268D01*
Y118334D01*
X376566Y118867D01*
X377099Y121533D02*
X373901D01*
X375500Y119934D01*
Y122066D01*
X373901Y125265D02*
X374434Y124199D01*
X375500Y123133D01*
X376566D01*
X377099Y123666D01*
Y124732D01*
X376566Y125265D01*
X376033D01*
X375500Y124732D01*
Y123133D01*
X426382Y204099D02*
X426915Y204633D01*
Y205699D01*
X426382Y206232D01*
X424249D01*
X423716Y205699D01*
Y204633D01*
X424249Y204099D01*
X423716Y201434D02*
X426915D01*
X425316Y203033D01*
Y200901D01*
X423716Y199834D02*
Y198768D01*
Y199301D01*
X426915D01*
X426382Y199834D01*
X452364Y251066D02*
X451831Y251600D01*
X450765D01*
X450231Y251066D01*
Y248934D01*
X450765Y248400D01*
X451831D01*
X452364Y248934D01*
X455030Y248400D02*
Y251600D01*
X453430Y250000D01*
X455563D01*
X456629Y251066D02*
X457162Y251600D01*
X458229D01*
X458762Y251066D01*
Y248934D01*
X458229Y248400D01*
X457162D01*
X456629Y248934D01*
Y251066D01*
X394183Y247066D02*
X393650Y247600D01*
X392583D01*
X392050Y247066D01*
Y244934D01*
X392583Y244401D01*
X393650D01*
X394183Y244934D01*
X395249Y247066D02*
X395782Y247600D01*
X396849D01*
X397382Y247066D01*
Y246533D01*
X396849Y246000D01*
X396316D01*
X396849D01*
X397382Y245467D01*
Y244934D01*
X396849Y244401D01*
X395782D01*
X395249Y244934D01*
X398448D02*
X398981Y244401D01*
X400048D01*
X400581Y244934D01*
Y247066D01*
X400048Y247600D01*
X398981D01*
X398448Y247066D01*
Y246533D01*
X398981Y246000D01*
X400581D01*
X442183Y232566D02*
X441650Y233100D01*
X440583D01*
X440050Y232566D01*
Y230434D01*
X440583Y229901D01*
X441650D01*
X442183Y230434D01*
X443249Y232566D02*
X443782Y233100D01*
X444849D01*
X445382Y232566D01*
Y232033D01*
X444849Y231500D01*
X444315D01*
X444849D01*
X445382Y230967D01*
Y230434D01*
X444849Y229901D01*
X443782D01*
X443249Y230434D01*
X448581Y233100D02*
X446448D01*
Y231500D01*
X447514Y232033D01*
X448048D01*
X448581Y231500D01*
Y230434D01*
X448048Y229901D01*
X446981D01*
X446448Y230434D01*
X442151Y226566D02*
X441618Y227099D01*
X440552D01*
X440019Y226566D01*
Y224434D01*
X440552Y223901D01*
X441618D01*
X442151Y224434D01*
X443218Y226566D02*
X443751Y227099D01*
X444817D01*
X445350Y226566D01*
Y226033D01*
X444817Y225500D01*
X444284D01*
X444817D01*
X445350Y224967D01*
Y224434D01*
X444817Y223901D01*
X443751D01*
X443218Y224434D01*
X446417Y226566D02*
X446950Y227099D01*
X448016D01*
X448549Y226566D01*
Y226033D01*
X448016Y225500D01*
X447483D01*
X448016D01*
X448549Y224967D01*
Y224434D01*
X448016Y223901D01*
X446950D01*
X446417Y224434D01*
X431382Y203633D02*
X431915Y204166D01*
Y205232D01*
X431382Y205765D01*
X429249D01*
X428716Y205232D01*
Y204166D01*
X429249Y203633D01*
X431382Y202566D02*
X431915Y202033D01*
Y200967D01*
X431382Y200434D01*
X430849D01*
X430315Y200967D01*
Y201500D01*
Y200967D01*
X429782Y200434D01*
X429249D01*
X428716Y200967D01*
Y202033D01*
X429249Y202566D01*
X428716Y197235D02*
Y199367D01*
X430849Y197235D01*
X431382D01*
X431915Y197768D01*
Y198834D01*
X431382Y199367D01*
X445358Y218177D02*
X444825Y218710D01*
X443759D01*
X443226Y218177D01*
Y216044D01*
X443759Y215511D01*
X444825D01*
X445358Y216044D01*
X446425Y218177D02*
X446958Y218710D01*
X448024D01*
X448557Y218177D01*
Y217644D01*
X448024Y217111D01*
X447491D01*
X448024D01*
X448557Y216578D01*
Y216044D01*
X448024Y215511D01*
X446958D01*
X446425Y216044D01*
X449624Y215511D02*
X450690D01*
X450157D01*
Y218710D01*
X449624Y218177D01*
X419367Y256598D02*
X418834Y257131D01*
X417768D01*
X417235Y256598D01*
Y254465D01*
X417768Y253932D01*
X418834D01*
X419367Y254465D01*
X420434Y256598D02*
X420967Y257131D01*
X422033D01*
X422566Y256598D01*
Y256065D01*
X422033Y255532D01*
X421500D01*
X422033D01*
X422566Y254998D01*
Y254465D01*
X422033Y253932D01*
X420967D01*
X420434Y254465D01*
X423633Y256598D02*
X424166Y257131D01*
X425232D01*
X425765Y256598D01*
Y254465D01*
X425232Y253932D01*
X424166D01*
X423633Y254465D01*
Y256598D01*
X404749Y207867D02*
X404216Y207334D01*
Y206268D01*
X404749Y205735D01*
X406882D01*
X407415Y206268D01*
Y207334D01*
X406882Y207867D01*
X407415Y211066D02*
Y208934D01*
X405282Y211066D01*
X404749D01*
X404216Y210533D01*
Y209467D01*
X404749Y208934D01*
X406882Y212133D02*
X407415Y212666D01*
Y213732D01*
X406882Y214265D01*
X404749D01*
X404216Y213732D01*
Y212666D01*
X404749Y212133D01*
X405282D01*
X405816Y212666D01*
Y214265D01*
X282183Y290566D02*
X281650Y291100D01*
X280583D01*
X280050Y290566D01*
Y288434D01*
X280583Y287900D01*
X281650D01*
X282183Y288434D01*
X283249Y290566D02*
X283782Y291100D01*
X284849D01*
X285382Y290566D01*
Y290033D01*
X284849Y289500D01*
X284315D01*
X284849D01*
X285382Y288967D01*
Y288434D01*
X284849Y287900D01*
X283782D01*
X283249Y288434D01*
X288581Y287900D02*
X286448D01*
X288581Y290033D01*
Y290566D01*
X288048Y291100D01*
X286981D01*
X286448Y290566D01*
X278216Y310066D02*
X277683Y310599D01*
X276617D01*
X276083Y310066D01*
Y307934D01*
X276617Y307400D01*
X277683D01*
X278216Y307934D01*
X279282Y310066D02*
X279816Y310599D01*
X280882D01*
X281415Y310066D01*
Y309533D01*
X280882Y309000D01*
X280349D01*
X280882D01*
X281415Y308467D01*
Y307934D01*
X280882Y307400D01*
X279816D01*
X279282Y307934D01*
X282481Y307400D02*
X283548D01*
X283014D01*
Y310599D01*
X282481Y310066D01*
X228683Y317066D02*
X228150Y317600D01*
X227083D01*
X226550Y317066D01*
Y314934D01*
X227083Y314401D01*
X228150D01*
X228683Y314934D01*
X229749Y317066D02*
X230282Y317600D01*
X231349D01*
X231882Y317066D01*
Y316533D01*
X231349Y316000D01*
X230816D01*
X231349D01*
X231882Y315467D01*
Y314934D01*
X231349Y314401D01*
X230282D01*
X229749Y314934D01*
X232948Y317066D02*
X233481Y317600D01*
X234548D01*
X235081Y317066D01*
Y314934D01*
X234548Y314401D01*
X233481D01*
X232948Y314934D01*
Y317066D01*
X235282Y286566D02*
X234749Y287100D01*
X233683D01*
X233150Y286566D01*
Y284434D01*
X233683Y283900D01*
X234749D01*
X235282Y284434D01*
X238481Y287100D02*
X236349D01*
Y285500D01*
X237415Y286033D01*
X237948D01*
X238481Y285500D01*
Y284434D01*
X237948Y283900D01*
X236882D01*
X236349Y284434D01*
X374282Y282066D02*
X373749Y282599D01*
X372683D01*
X372150Y282066D01*
Y279934D01*
X372683Y279400D01*
X373749D01*
X374282Y279934D01*
X376948Y279400D02*
Y282599D01*
X375349Y281000D01*
X377481D01*
X400282Y284566D02*
X399749Y285100D01*
X398683D01*
X398150Y284566D01*
Y282434D01*
X398683Y281901D01*
X399749D01*
X400282Y282434D01*
X401349Y284566D02*
X401882Y285100D01*
X402948D01*
X403481Y284566D01*
Y284033D01*
X402948Y283500D01*
X402415D01*
X402948D01*
X403481Y282967D01*
Y282434D01*
X402948Y281901D01*
X401882D01*
X401349Y282434D01*
X441282Y299066D02*
X440749Y299600D01*
X439683D01*
X439150Y299066D01*
Y296934D01*
X439683Y296400D01*
X440749D01*
X441282Y296934D01*
X444481Y296400D02*
X442349D01*
X444481Y298533D01*
Y299066D01*
X443948Y299600D01*
X442882D01*
X442349Y299066D01*
X412816Y293566D02*
X412282Y294099D01*
X411216D01*
X410683Y293566D01*
Y291434D01*
X411216Y290900D01*
X412282D01*
X412816Y291434D01*
X413882Y290900D02*
X414948D01*
X414415D01*
Y294099D01*
X413882Y293566D01*
D14*
X306229Y306291D02*
G03*
X306229Y306291I-1181J0D01*
G01*
D15*
X239902Y248370D02*
X252539D01*
X239902D02*
Y249039D01*
Y268961D02*
Y269630D01*
X252539D01*
X252461D02*
X265098D01*
Y268961D02*
Y269630D01*
X252461Y248370D02*
X265098D01*
Y249039D01*
X404914Y247130D02*
Y248902D01*
X406686D01*
X404914Y224098D02*
Y225870D01*
Y224098D02*
X406686D01*
X427945D02*
X429717D01*
Y225870D01*
X146984Y179551D02*
Y181028D01*
X145508Y179551D02*
X146984D01*
Y198941D02*
Y200417D01*
X145508D02*
X146984D01*
X126118D02*
X127594D01*
X126118Y198941D02*
Y200417D01*
Y179551D02*
Y181028D01*
Y179551D02*
X127594D01*
X211000Y90500D02*
X271000D01*
X211000Y100500D02*
X271000D01*
X211000Y90500D02*
Y100500D01*
X271000Y90500D02*
Y100500D01*
X404504Y108535D02*
Y110996D01*
X406965D01*
X404504Y98004D02*
Y100465D01*
Y98004D02*
X406965D01*
X415035D02*
X417496D01*
Y100465D01*
Y108535D02*
Y110996D01*
X415035D02*
X417496D01*
X201681Y227028D02*
X205028D01*
Y226634D02*
Y227028D01*
Y217972D02*
Y218366D01*
X201681Y217972D02*
X205028D01*
X195972D02*
X199319D01*
X195972D02*
Y218366D01*
Y227028D02*
X199319D01*
X195972Y226634D02*
Y227028D01*
X111316Y166894D02*
X115745D01*
X111316Y131106D02*
X115745D01*
X156886D02*
X161316D01*
Y166894D01*
X156886D02*
X161316D01*
X111316Y131106D02*
Y166894D01*
X256772Y310842D02*
X263859D01*
X256772Y291000D02*
X263316D01*
X280371Y123008D02*
Y125075D01*
X282438D01*
X302320D02*
X304386D01*
Y123008D02*
Y125075D01*
Y101059D02*
Y103126D01*
X302320Y101059D02*
X304386D01*
X280371D02*
Y103126D01*
Y101059D02*
X282438D01*
X216256Y220685D02*
X220194Y224622D01*
X216256Y165567D02*
Y224622D01*
X275312Y165567D02*
Y224622D01*
X216256D02*
X275312D01*
X216256Y165567D02*
X275312D01*
X386816Y263159D02*
Y265841D01*
X361816Y263159D02*
Y265841D01*
X352241Y206697D02*
X354012D01*
Y204925D02*
Y206697D01*
X328619D02*
X330390D01*
X328619Y204925D02*
Y206697D01*
Y181303D02*
X330390D01*
X328619D02*
Y183075D01*
X352241Y181303D02*
X354012D01*
Y183075D01*
X301111Y263772D02*
X325520D01*
X301111Y310228D02*
X325520D01*
Y263772D02*
Y310228D01*
X301111Y263772D02*
Y310228D01*
X334977Y128567D02*
Y130240D01*
X336650D01*
X334977Y112917D02*
Y114591D01*
Y112917D02*
X336650D01*
X352300D02*
Y114591D01*
X350626Y112917D02*
X352300D01*
Y128567D02*
Y130240D01*
X350626D02*
X352300D01*
X376131Y284799D02*
Y297201D01*
Y284799D02*
X390501D01*
Y297201D01*
X376131D02*
X390501D01*
X431060Y286917D02*
Y289083D01*
X433717Y282016D02*
X436571D01*
Y290657D02*
Y293984D01*
Y282016D02*
Y285343D01*
X433717Y293984D02*
X436571D01*
X98863Y147425D02*
Y150575D01*
X104768Y147425D02*
Y150575D01*
X311052Y81087D02*
X315579D01*
X397236Y151913D02*
X401764D01*
X449630Y78701D02*
X453350D01*
X459650D02*
X463370D01*
X332945D02*
X336666D01*
X342965D02*
X346686D01*
X172268Y147425D02*
Y150575D01*
X166363Y147425D02*
Y150575D01*
X197091Y259110D02*
Y262260D01*
X206540Y259110D02*
Y262260D01*
X202276Y157425D02*
Y160575D01*
X211724Y157425D02*
Y160575D01*
X218040Y232425D02*
Y235575D01*
X208591Y232425D02*
Y235575D01*
X299540Y228425D02*
Y231575D01*
X290091Y228425D02*
Y231575D01*
X404914Y247130D02*
Y248902D01*
X406686D01*
X404914Y224098D02*
Y225870D01*
Y224098D02*
X406686D01*
X427945D02*
X429717D01*
Y225870D01*
X361816Y263159D02*
Y265841D01*
X386816Y263159D02*
Y265841D01*
X216288Y165472D02*
X275343D01*
X216288Y224528D02*
X275343D01*
Y165472D02*
Y224528D01*
X216288Y165472D02*
Y224528D01*
Y220590D02*
X220225Y224528D01*
X280308Y101012D02*
X282375D01*
X280308D02*
Y103079D01*
X302256Y101012D02*
X304323D01*
Y103079D01*
Y122961D02*
Y125028D01*
X302256D02*
X304323D01*
X280308D02*
X282375D01*
X280308Y122961D02*
Y125028D01*
X256772Y310842D02*
X263859D01*
M02*
