G04*
G04 #@! TF.GenerationSoftware,Altium Limited,Altium Designer,21.6.4 (81)*
G04*
G04 Layer_Color=16711935*
%FSLAX25Y25*%
%MOIN*%
G70*
G04*
G04 #@! TF.SameCoordinates,0BC8A87D-888E-4ED5-B672-7FA6220550FD*
G04*
G04*
G04 #@! TF.FilePolarity,Negative*
G04*
G01*
G75*
%ADD19R,1.61500X0.44500*%
%ADD20R,0.02953X0.02559*%
%ADD21R,0.02559X0.02953*%
%ADD22R,0.04134X0.03740*%
%ADD42R,0.30891X0.40591*%
%ADD43R,0.02559X0.40591*%
%ADD44R,0.06496X0.06496*%
%ADD45C,0.06496*%
%ADD46C,0.07100*%
%ADD47C,0.05091*%
%ADD48C,0.07991*%
%ADD49R,0.06496X0.06496*%
%ADD50C,0.13591*%
D19*
X143500Y343500D02*
D03*
D20*
X187469Y154500D02*
D03*
X183531D02*
D03*
X187469Y161000D02*
D03*
X183531D02*
D03*
X183500Y149500D02*
D03*
X187437D02*
D03*
X311000Y160500D02*
D03*
X314937D02*
D03*
X311032Y166500D02*
D03*
X314968D02*
D03*
X297969Y157500D02*
D03*
X294032D02*
D03*
X297969Y161000D02*
D03*
X294032D02*
D03*
X297969Y164000D02*
D03*
X294032D02*
D03*
X297969Y167000D02*
D03*
X294032D02*
D03*
X286000Y168500D02*
D03*
X289937D02*
D03*
X286063Y171500D02*
D03*
X290000D02*
D03*
X298000Y170500D02*
D03*
X294063D02*
D03*
X315032Y157000D02*
D03*
X318969D02*
D03*
X311032Y163500D02*
D03*
X314968D02*
D03*
D21*
X241000Y153969D02*
D03*
Y150031D02*
D03*
X244500Y153969D02*
D03*
Y150031D02*
D03*
X248000Y153969D02*
D03*
Y150031D02*
D03*
X251500Y153969D02*
D03*
Y150031D02*
D03*
X194000Y167063D02*
D03*
Y171000D02*
D03*
X198000Y148437D02*
D03*
Y144500D02*
D03*
X201000Y148468D02*
D03*
Y144532D02*
D03*
X311500Y157468D02*
D03*
Y153532D02*
D03*
X302000Y170031D02*
D03*
Y173969D02*
D03*
X305000Y157500D02*
D03*
Y153563D02*
D03*
X302000Y157468D02*
D03*
Y153532D02*
D03*
X308500Y157500D02*
D03*
Y153563D02*
D03*
X308000Y170031D02*
D03*
Y173969D02*
D03*
X311500Y170031D02*
D03*
Y173969D02*
D03*
X305000Y170031D02*
D03*
Y173969D02*
D03*
X314500Y170031D02*
D03*
Y173969D02*
D03*
D22*
X188000Y172756D02*
D03*
Y167244D02*
D03*
X205000Y144500D02*
D03*
Y150012D02*
D03*
D42*
X129400Y341775D02*
D03*
X82100D02*
D03*
D43*
X220300D02*
D03*
X217150D02*
D03*
X214000D02*
D03*
X210850D02*
D03*
X207700D02*
D03*
X204550D02*
D03*
X201400D02*
D03*
X198250D02*
D03*
X191950D02*
D03*
X195100D02*
D03*
X188800D02*
D03*
X185650D02*
D03*
X182500D02*
D03*
X179350D02*
D03*
X176200D02*
D03*
X173050D02*
D03*
X169900D02*
D03*
X163600D02*
D03*
X160450D02*
D03*
X166750D02*
D03*
D44*
X167000Y270000D02*
D03*
D45*
X157000D02*
D03*
X167000Y280000D02*
D03*
X157000D02*
D03*
X167000Y290000D02*
D03*
X157000D02*
D03*
X167000Y300000D02*
D03*
X157000D02*
D03*
X269500Y233000D02*
D03*
D46*
X51500Y218000D02*
D03*
Y238000D02*
D03*
Y274500D02*
D03*
Y294500D02*
D03*
X400500Y62000D02*
D03*
X420500D02*
D03*
D47*
X125000Y109000D02*
D03*
X120000Y99000D02*
D03*
X115000Y109000D02*
D03*
X110000Y99000D02*
D03*
X105000Y109000D02*
D03*
X100000Y99000D02*
D03*
X90000D02*
D03*
X95000Y109000D02*
D03*
D48*
X137000Y86000D02*
D03*
X78000D02*
D03*
D49*
X279500Y233000D02*
D03*
D50*
X457550Y56450D02*
D03*
X17550D02*
D03*
X457550Y296450D02*
D03*
X17550D02*
D03*
M02*
