G04*
G04 #@! TF.GenerationSoftware,Altium Limited,Altium Designer,21.6.4 (81)*
G04*
G04 Layer_Physical_Order=4*
G04 Layer_Color=16711680*
%FSLAX25Y25*%
%MOIN*%
G70*
G04*
G04 #@! TF.SameCoordinates,0BC8A87D-888E-4ED5-B672-7FA6220550FD*
G04*
G04*
G04 #@! TF.FilePolarity,Positive*
G04*
G01*
G75*
%ADD16C,0.01000*%
%ADD46C,0.07100*%
%ADD51R,0.02362X0.01968*%
%ADD52R,0.01968X0.02362*%
%ADD53R,0.03543X0.03150*%
%ADD65R,0.30300X0.40000*%
%ADD66R,0.01968X0.40000*%
%ADD67C,0.00500*%
%ADD68C,0.01500*%
%ADD70R,0.05906X0.05906*%
%ADD71C,0.05906*%
%ADD72C,0.04500*%
%ADD73C,0.07400*%
%ADD74R,0.05906X0.05906*%
%ADD75C,0.13000*%
%ADD76C,0.03000*%
%ADD77C,0.01800*%
%ADD78C,0.01772*%
%ADD92C,0.20000*%
G36*
X223697Y314000D02*
X223758Y313693D01*
X223932Y313432D01*
X224193Y313258D01*
X224500Y313197D01*
X291254D01*
Y292252D01*
X291367Y291981D01*
X291638Y291868D01*
X315260D01*
X315531Y291981D01*
X315643Y292252D01*
Y313197D01*
X474197D01*
Y39703D01*
X145500D01*
Y190000D01*
X68500D01*
Y39803D01*
X803D01*
Y313197D01*
X63500D01*
X63807Y313258D01*
X64068Y313432D01*
X64242Y313693D01*
X64303Y314000D01*
X111363D01*
X111703Y313633D01*
X111614Y312500D01*
X111741Y310875D01*
X112122Y309290D01*
X112746Y307785D01*
X113597Y306395D01*
X114656Y305156D01*
X115688Y304124D01*
X116927Y303065D01*
X118317Y302214D01*
X119822Y301590D01*
X121407Y301209D01*
X123032Y301082D01*
X129500D01*
X131125Y301209D01*
X132710Y301590D01*
X134215Y302214D01*
X135605Y303065D01*
X136844Y304124D01*
X137903Y305363D01*
X138754Y306753D01*
X139378Y308259D01*
X139759Y309843D01*
X139886Y311468D01*
Y314000D01*
X149197D01*
X149258Y313693D01*
X149432Y313432D01*
X149693Y313258D01*
X150000Y313197D01*
X157000D01*
X157307Y313258D01*
X157568Y313432D01*
X157742Y313693D01*
X157803Y314000D01*
Y321000D01*
X223697D01*
Y314000D01*
D02*
G37*
%LPC*%
G36*
X214279Y318250D02*
X213721D01*
X213207Y318037D01*
X212813Y317643D01*
X212600Y317128D01*
Y316571D01*
X212657Y316433D01*
X208915Y312690D01*
X208715Y312702D01*
X208396Y312793D01*
X208379Y312915D01*
X208679Y313215D01*
X208892Y313730D01*
Y314287D01*
X208679Y314801D01*
X208285Y315195D01*
X207770Y315408D01*
X207213D01*
X206699Y315195D01*
X206305Y314801D01*
X206092Y314287D01*
Y313730D01*
X206305Y313215D01*
X206699Y312821D01*
X206938Y312722D01*
Y309928D01*
X206899Y309912D01*
X206505Y309518D01*
X206292Y309003D01*
Y308447D01*
X206505Y307932D01*
X206899Y307538D01*
X207413Y307325D01*
X207970D01*
X207995Y307335D01*
X208278Y306911D01*
X198683Y297316D01*
X198536Y296961D01*
X197538Y295963D01*
X197346Y295500D01*
Y287244D01*
X197207Y287187D01*
X196813Y286793D01*
X196600Y286279D01*
Y285721D01*
X196813Y285207D01*
X197207Y284813D01*
X197722Y284600D01*
X198278D01*
X198793Y284813D01*
X198846Y284866D01*
X199346Y284659D01*
Y279744D01*
X199207Y279687D01*
X198813Y279293D01*
X198600Y278779D01*
Y278222D01*
X198813Y277707D01*
X199207Y277313D01*
X199722Y277100D01*
X200278D01*
X200793Y277313D01*
X201187Y277707D01*
X201400Y278222D01*
Y278779D01*
X201187Y279293D01*
X200793Y279687D01*
X200654Y279744D01*
Y296229D01*
X210573Y306148D01*
X210997Y305865D01*
X210846Y305500D01*
Y303744D01*
X210707Y303687D01*
X210313Y303293D01*
X210100Y302779D01*
Y302221D01*
X210313Y301707D01*
X210707Y301313D01*
X211222Y301100D01*
X211778D01*
X212293Y301313D01*
X212687Y301707D01*
X212900Y302221D01*
Y302779D01*
X212687Y303293D01*
X212293Y303687D01*
X212154Y303744D01*
Y305229D01*
X214350Y307425D01*
X214850Y307218D01*
Y306972D01*
X215063Y306457D01*
X215457Y306063D01*
X215721Y305954D01*
Y299193D01*
X215707Y299187D01*
X215313Y298793D01*
X215256Y298654D01*
X210966D01*
X210909Y298793D01*
X210515Y299187D01*
X210000Y299400D01*
X209444D01*
X208929Y299187D01*
X208535Y298793D01*
X208322Y298278D01*
Y297722D01*
X208535Y297207D01*
X208929Y296813D01*
X209444Y296600D01*
X210000D01*
X210515Y296813D01*
X210909Y297207D01*
X210966Y297346D01*
X215256D01*
X215313Y297207D01*
X215707Y296813D01*
X216221Y296600D01*
X216778D01*
X217293Y296813D01*
X217687Y297207D01*
X217900Y297722D01*
Y298278D01*
X217687Y298793D01*
X217293Y299187D01*
X217029Y299296D01*
Y306057D01*
X217043Y306063D01*
X217437Y306457D01*
X217650Y306972D01*
Y307528D01*
X217437Y308043D01*
X217043Y308437D01*
X216529Y308650D01*
X216282D01*
X216075Y309150D01*
X218583Y311658D01*
X218722Y311600D01*
X219279D01*
X219793Y311813D01*
X220187Y312207D01*
X220400Y312721D01*
Y313279D01*
X220187Y313793D01*
X219793Y314187D01*
X219279Y314400D01*
X218722D01*
X218207Y314187D01*
X217813Y313793D01*
X217600Y313279D01*
Y312721D01*
X217657Y312583D01*
X211919Y306844D01*
X211495Y307127D01*
X211646Y307492D01*
Y310264D01*
X211785Y310321D01*
X212179Y310715D01*
X212392Y311230D01*
Y311787D01*
X212179Y312301D01*
X211785Y312695D01*
X211567Y312785D01*
X211445Y313370D01*
X213583Y315508D01*
X213721Y315450D01*
X214279D01*
X214793Y315663D01*
X215187Y316057D01*
X215400Y316571D01*
Y317128D01*
X215187Y317643D01*
X214793Y318037D01*
X214279Y318250D01*
D02*
G37*
G36*
X105279Y303400D02*
X104721D01*
X104207Y303187D01*
X103813Y302793D01*
X103600Y302278D01*
Y301722D01*
X103813Y301207D01*
X104207Y300813D01*
X104721Y300600D01*
X105279D01*
X105793Y300813D01*
X106187Y301207D01*
X106400Y301722D01*
Y302278D01*
X106187Y302793D01*
X105793Y303187D01*
X105279Y303400D01*
D02*
G37*
G36*
X167435Y303307D02*
X166565D01*
X165724Y303082D01*
X164969Y302646D01*
X164354Y302031D01*
X163918Y301276D01*
X163693Y300435D01*
Y299565D01*
X163918Y298724D01*
X164354Y297969D01*
X164969Y297354D01*
X165724Y296918D01*
X166565Y296693D01*
X167435D01*
X168277Y296918D01*
X169031Y297354D01*
X169646Y297969D01*
X170082Y298724D01*
X170307Y299565D01*
Y300435D01*
X170082Y301276D01*
X169646Y302031D01*
X169031Y302646D01*
X168277Y303082D01*
X167435Y303307D01*
D02*
G37*
G36*
X157435D02*
X156565D01*
X155724Y303082D01*
X154969Y302646D01*
X154354Y302031D01*
X153918Y301276D01*
X153693Y300435D01*
Y299565D01*
X153918Y298724D01*
X154354Y297969D01*
X154969Y297354D01*
X155724Y296918D01*
X156565Y296693D01*
X157435D01*
X158276Y296918D01*
X159031Y297354D01*
X159646Y297969D01*
X160082Y298724D01*
X160307Y299565D01*
Y300435D01*
X160082Y301276D01*
X159646Y302031D01*
X159031Y302646D01*
X158276Y303082D01*
X157435Y303307D01*
D02*
G37*
G36*
X52014Y298404D02*
X50986D01*
X49993Y298138D01*
X49103Y297624D01*
X48376Y296897D01*
X47862Y296007D01*
X47596Y295014D01*
Y293986D01*
X47862Y292993D01*
X48376Y292103D01*
X49103Y291376D01*
X49993Y290862D01*
X50986Y290596D01*
X52014D01*
X53007Y290862D01*
X53897Y291376D01*
X54624Y292103D01*
X55138Y292993D01*
X55404Y293986D01*
Y295014D01*
X55138Y296007D01*
X54624Y296897D01*
X53897Y297624D01*
X53007Y298138D01*
X52014Y298404D01*
D02*
G37*
G36*
X236279Y292900D02*
X235721D01*
X235207Y292687D01*
X234813Y292293D01*
X234600Y291778D01*
Y291221D01*
X234813Y290707D01*
X235207Y290313D01*
X235721Y290100D01*
X236279D01*
X236793Y290313D01*
X237187Y290707D01*
X237400Y291221D01*
Y291778D01*
X237187Y292293D01*
X236793Y292687D01*
X236279Y292900D01*
D02*
G37*
G36*
X458287Y303935D02*
X456813D01*
X455367Y303647D01*
X454005Y303083D01*
X452779Y302264D01*
X451737Y301221D01*
X450918Y299995D01*
X450353Y298633D01*
X450066Y297187D01*
Y295713D01*
X450353Y294267D01*
X450918Y292905D01*
X451737Y291679D01*
X452779Y290637D01*
X454005Y289818D01*
X455367Y289254D01*
X456813Y288966D01*
X458287D01*
X459733Y289254D01*
X461095Y289818D01*
X462321Y290637D01*
X463363Y291679D01*
X464182Y292905D01*
X464747Y294267D01*
X465034Y295713D01*
Y297187D01*
X464747Y298633D01*
X464182Y299995D01*
X463363Y301221D01*
X462321Y302264D01*
X461095Y303083D01*
X459733Y303647D01*
X458287Y303935D01*
D02*
G37*
G36*
X18287D02*
X16813D01*
X15367Y303647D01*
X14005Y303083D01*
X12779Y302264D01*
X11737Y301221D01*
X10917Y299995D01*
X10353Y298633D01*
X10066Y297187D01*
Y295713D01*
X10353Y294267D01*
X10917Y292905D01*
X11737Y291679D01*
X12779Y290637D01*
X14005Y289818D01*
X15367Y289254D01*
X16813Y288966D01*
X18287D01*
X19733Y289254D01*
X21095Y289818D01*
X22321Y290637D01*
X23363Y291679D01*
X24182Y292905D01*
X24747Y294267D01*
X25034Y295713D01*
Y297187D01*
X24747Y298633D01*
X24182Y299995D01*
X23363Y301221D01*
X22321Y302264D01*
X21095Y303083D01*
X19733Y303647D01*
X18287Y303935D01*
D02*
G37*
G36*
X167435Y293307D02*
X166565D01*
X165724Y293082D01*
X164969Y292646D01*
X164354Y292031D01*
X163918Y291277D01*
X163693Y290435D01*
Y289565D01*
X163918Y288723D01*
X164354Y287969D01*
X164969Y287354D01*
X165724Y286918D01*
X166565Y286693D01*
X167435D01*
X168277Y286918D01*
X169031Y287354D01*
X169646Y287969D01*
X170082Y288723D01*
X170307Y289565D01*
Y290435D01*
X170082Y291277D01*
X169646Y292031D01*
X169031Y292646D01*
X168277Y293082D01*
X167435Y293307D01*
D02*
G37*
G36*
X157435D02*
X156565D01*
X155724Y293082D01*
X154969Y292646D01*
X154354Y292031D01*
X153918Y291277D01*
X153693Y290435D01*
Y289565D01*
X153918Y288723D01*
X154354Y287969D01*
X154969Y287354D01*
X155724Y286918D01*
X156565Y286693D01*
X157435D01*
X158276Y286918D01*
X159031Y287354D01*
X159646Y287969D01*
X160082Y288723D01*
X160307Y289565D01*
Y290435D01*
X160082Y291277D01*
X159646Y292031D01*
X159031Y292646D01*
X158276Y293082D01*
X157435Y293307D01*
D02*
G37*
G36*
X270778Y281400D02*
X270221D01*
X269707Y281187D01*
X269313Y280793D01*
X269100Y280278D01*
Y279721D01*
X269313Y279207D01*
X269707Y278813D01*
X270221Y278600D01*
X270778D01*
X271293Y278813D01*
X271687Y279207D01*
X271900Y279721D01*
Y280278D01*
X271687Y280793D01*
X271293Y281187D01*
X270778Y281400D01*
D02*
G37*
G36*
X167435Y283307D02*
X166565D01*
X165724Y283082D01*
X164969Y282646D01*
X164354Y282031D01*
X163918Y281276D01*
X163693Y280435D01*
Y279565D01*
X163918Y278724D01*
X164354Y277969D01*
X164969Y277354D01*
X165724Y276918D01*
X166565Y276693D01*
X167435D01*
X168277Y276918D01*
X169031Y277354D01*
X169646Y277969D01*
X170082Y278724D01*
X170307Y279565D01*
Y280435D01*
X170082Y281276D01*
X169646Y282031D01*
X169031Y282646D01*
X168277Y283082D01*
X167435Y283307D01*
D02*
G37*
G36*
X157435D02*
X156565D01*
X155724Y283082D01*
X154969Y282646D01*
X154354Y282031D01*
X153918Y281276D01*
X153693Y280435D01*
Y279565D01*
X153918Y278724D01*
X154354Y277969D01*
X154969Y277354D01*
X155724Y276918D01*
X156565Y276693D01*
X157435D01*
X158276Y276918D01*
X159031Y277354D01*
X159646Y277969D01*
X160082Y278724D01*
X160307Y279565D01*
Y280435D01*
X160082Y281276D01*
X159646Y282031D01*
X159031Y282646D01*
X158276Y283082D01*
X157435Y283307D01*
D02*
G37*
G36*
X52013Y278400D02*
X51675D01*
Y274675D01*
X55400D01*
Y275013D01*
X55134Y276005D01*
X54621Y276895D01*
X53895Y277621D01*
X53005Y278134D01*
X52013Y278400D01*
D02*
G37*
G36*
X51325D02*
X50987D01*
X49995Y278134D01*
X49105Y277621D01*
X48379Y276895D01*
X47866Y276005D01*
X47600Y275013D01*
Y274675D01*
X51325D01*
Y278400D01*
D02*
G37*
G36*
X346279Y287400D02*
X345722D01*
X345207Y287187D01*
X344813Y286793D01*
X344600Y286279D01*
Y285721D01*
X344813Y285207D01*
X345207Y284813D01*
X345722Y284600D01*
X346279D01*
X346417Y284658D01*
X349846Y281229D01*
Y272732D01*
X349384Y272541D01*
X342843Y279083D01*
X342900Y279222D01*
Y279779D01*
X342687Y280293D01*
X342293Y280687D01*
X341778Y280900D01*
X341221D01*
X340707Y280687D01*
X340313Y280293D01*
X340100Y279779D01*
Y279222D01*
X340313Y278707D01*
X340707Y278313D01*
X341221Y278100D01*
X341778D01*
X341917Y278157D01*
X348992Y271083D01*
Y262650D01*
X348530Y262458D01*
X338874Y272114D01*
X338931Y272253D01*
Y272810D01*
X338718Y273324D01*
X338324Y273718D01*
X337810Y273932D01*
X337253D01*
X336738Y273718D01*
X336345Y273324D01*
X336132Y272810D01*
Y272253D01*
X336345Y271739D01*
X336738Y271345D01*
X337253Y271131D01*
X337810D01*
X337949Y271189D01*
X348137Y261001D01*
Y254441D01*
X347675Y254250D01*
X335842Y266083D01*
X335900Y266221D01*
Y266778D01*
X335687Y267293D01*
X335293Y267687D01*
X334778Y267900D01*
X334222D01*
X333707Y267687D01*
X333313Y267293D01*
X333100Y266778D01*
Y266221D01*
X333313Y265707D01*
X333707Y265313D01*
X334222Y265100D01*
X334778D01*
X334917Y265158D01*
X347283Y252792D01*
Y214208D01*
X317537Y184462D01*
X317346Y184000D01*
Y168575D01*
X317537Y168113D01*
X318760Y166890D01*
X318477Y166466D01*
X318154Y166600D01*
X317597D01*
X317082Y166387D01*
X317069Y166374D01*
X316957Y166420D01*
X316504D01*
Y167839D01*
X315154D01*
Y168496D01*
X315839D01*
Y171567D01*
X313333D01*
X313161Y171567D01*
X312664Y171563D01*
X311675D01*
Y170031D01*
Y168500D01*
X312664D01*
X313161Y168496D01*
X313333Y168496D01*
X313846D01*
Y167839D01*
X313433D01*
Y165161D01*
X313433D01*
Y164839D01*
X313433D01*
Y162161D01*
X313433D01*
X313402Y161839D01*
X313402D01*
X313402Y161674D01*
Y159161D01*
X316472D01*
Y160580D01*
X316694D01*
X317157Y160772D01*
X317208Y160823D01*
X317596Y160662D01*
X318128D01*
X318314Y160475D01*
Y158339D01*
X317433D01*
Y155661D01*
X320504D01*
Y158339D01*
X319623D01*
Y160746D01*
X319431Y161209D01*
X319152Y161488D01*
X319274Y161784D01*
Y162340D01*
X319061Y162855D01*
X318667Y163249D01*
X318398Y163360D01*
Y163901D01*
X318668Y164013D01*
X319062Y164407D01*
X319275Y164921D01*
Y165479D01*
X319141Y165802D01*
X319565Y166085D01*
X322930Y162720D01*
X322773Y162341D01*
Y161784D01*
X322986Y161269D01*
X323380Y160875D01*
X323895Y160662D01*
X324452D01*
X324966Y160875D01*
X325360Y161269D01*
X325500Y161607D01*
X326000Y161507D01*
Y161397D01*
X326213Y160882D01*
X326607Y160488D01*
X327121Y160275D01*
X327678D01*
X328193Y160488D01*
X328587Y160882D01*
X328800Y161397D01*
Y161953D01*
X328587Y162468D01*
X328193Y162862D01*
X328054Y162919D01*
Y184129D01*
X350962Y207037D01*
X351154Y207500D01*
Y281500D01*
X350962Y281962D01*
X347342Y285583D01*
X347400Y285721D01*
Y286279D01*
X347187Y286793D01*
X346793Y287187D01*
X346279Y287400D01*
D02*
G37*
G36*
X55400Y274325D02*
X51675D01*
Y270600D01*
X52013D01*
X53005Y270866D01*
X53895Y271379D01*
X54621Y272105D01*
X55134Y272995D01*
X55400Y273987D01*
Y274325D01*
D02*
G37*
G36*
X51325D02*
X47600D01*
Y273987D01*
X47866Y272995D01*
X48379Y272105D01*
X49105Y271379D01*
X49995Y270866D01*
X50987Y270600D01*
X51325D01*
Y274325D01*
D02*
G37*
G36*
X240778Y272900D02*
X240222D01*
X239707Y272687D01*
X239313Y272293D01*
X239100Y271778D01*
Y271221D01*
X239313Y270707D01*
X239707Y270313D01*
X240222Y270100D01*
X240778D01*
X241293Y270313D01*
X241687Y270707D01*
X241900Y271221D01*
Y271778D01*
X241687Y272293D01*
X241293Y272687D01*
X240778Y272900D01*
D02*
G37*
G36*
X170307Y273307D02*
X163693D01*
Y266693D01*
X170307D01*
Y273307D01*
D02*
G37*
G36*
X157435D02*
X156565D01*
X155724Y273082D01*
X154969Y272646D01*
X154354Y272031D01*
X153918Y271276D01*
X153693Y270435D01*
Y269565D01*
X153918Y268724D01*
X154354Y267969D01*
X154969Y267354D01*
X155724Y266918D01*
X156565Y266693D01*
X157435D01*
X158276Y266918D01*
X159031Y267354D01*
X159646Y267969D01*
X160082Y268724D01*
X160307Y269565D01*
Y270435D01*
X160082Y271276D01*
X159646Y272031D01*
X159031Y272646D01*
X158276Y273082D01*
X157435Y273307D01*
D02*
G37*
G36*
X289778Y253900D02*
X289222D01*
X288707Y253687D01*
X288313Y253293D01*
X288100Y252779D01*
Y252221D01*
X288313Y251707D01*
X288707Y251313D01*
X289222Y251100D01*
X289778D01*
X290293Y251313D01*
X290687Y251707D01*
X290900Y252221D01*
Y252779D01*
X290687Y253293D01*
X290293Y253687D01*
X289778Y253900D01*
D02*
G37*
G36*
X196779Y251900D02*
X196221D01*
X195707Y251687D01*
X195313Y251293D01*
X195100Y250779D01*
Y250221D01*
X195313Y249707D01*
X195707Y249313D01*
X196221Y249100D01*
X196779D01*
X197293Y249313D01*
X197687Y249707D01*
X197900Y250221D01*
Y250779D01*
X197687Y251293D01*
X197293Y251687D01*
X196779Y251900D01*
D02*
G37*
G36*
X332278Y246900D02*
X331721D01*
X331207Y246687D01*
X330813Y246293D01*
X330600Y245778D01*
Y245221D01*
X330813Y244707D01*
X331207Y244313D01*
X331721Y244100D01*
X332278D01*
X332793Y244313D01*
X333187Y244707D01*
X333400Y245221D01*
Y245778D01*
X333187Y246293D01*
X332793Y246687D01*
X332278Y246900D01*
D02*
G37*
G36*
X52014Y241904D02*
X50986D01*
X49993Y241638D01*
X49103Y241124D01*
X48376Y240397D01*
X47862Y239507D01*
X47596Y238514D01*
Y237486D01*
X47862Y236493D01*
X48376Y235603D01*
X49103Y234876D01*
X49993Y234362D01*
X50986Y234096D01*
X52014D01*
X53007Y234362D01*
X53897Y234876D01*
X54624Y235603D01*
X55138Y236493D01*
X55404Y237486D01*
Y238514D01*
X55138Y239507D01*
X54624Y240397D01*
X53897Y241124D01*
X53007Y241638D01*
X52014Y241904D01*
D02*
G37*
G36*
X269935Y236303D02*
X269675D01*
Y233175D01*
X272803D01*
Y233435D01*
X272578Y234275D01*
X272143Y235028D01*
X271528Y235643D01*
X270775Y236078D01*
X269935Y236303D01*
D02*
G37*
G36*
X269325D02*
X269065D01*
X268225Y236078D01*
X267472Y235643D01*
X266857Y235028D01*
X266422Y234275D01*
X266197Y233435D01*
Y233175D01*
X269325D01*
Y236303D01*
D02*
G37*
G36*
X272803Y232825D02*
X269675D01*
Y229697D01*
X269935D01*
X270775Y229922D01*
X271528Y230357D01*
X272143Y230972D01*
X272578Y231725D01*
X272803Y232565D01*
Y232825D01*
D02*
G37*
G36*
X269325D02*
X266197D01*
Y232565D01*
X266422Y231725D01*
X266857Y230972D01*
X267472Y230357D01*
X268225Y229922D01*
X269065Y229697D01*
X269325D01*
Y232825D01*
D02*
G37*
G36*
X52013Y221900D02*
X51675D01*
Y218175D01*
X55400D01*
Y218513D01*
X55134Y219505D01*
X54621Y220395D01*
X53895Y221121D01*
X53005Y221634D01*
X52013Y221900D01*
D02*
G37*
G36*
X51325D02*
X50987D01*
X49995Y221634D01*
X49105Y221121D01*
X48379Y220395D01*
X47866Y219505D01*
X47600Y218513D01*
Y218175D01*
X51325D01*
Y221900D01*
D02*
G37*
G36*
X55400Y217825D02*
X51675D01*
Y214100D01*
X52013D01*
X53005Y214366D01*
X53895Y214879D01*
X54621Y215605D01*
X55134Y216495D01*
X55400Y217487D01*
Y217825D01*
D02*
G37*
G36*
X51325D02*
X47600D01*
Y217487D01*
X47866Y216495D01*
X48379Y215605D01*
X49105Y214879D01*
X49995Y214366D01*
X50987Y214100D01*
X51325D01*
Y217825D01*
D02*
G37*
G36*
X405278Y212900D02*
X404721D01*
X404207Y212687D01*
X403813Y212293D01*
X403600Y211778D01*
Y211222D01*
X403813Y210707D01*
X404207Y210313D01*
X404721Y210100D01*
X405278D01*
X405793Y210313D01*
X406187Y210707D01*
X406400Y211222D01*
Y211778D01*
X406187Y212293D01*
X405793Y212687D01*
X405278Y212900D01*
D02*
G37*
G36*
X422779Y196400D02*
X422222D01*
X421707Y196187D01*
X421313Y195793D01*
X421100Y195279D01*
Y194721D01*
X421313Y194207D01*
X421707Y193813D01*
X422222Y193600D01*
X422779D01*
X423293Y193813D01*
X423687Y194207D01*
X423900Y194721D01*
Y195279D01*
X423687Y195793D01*
X423293Y196187D01*
X422779Y196400D01*
D02*
G37*
G36*
X428278Y190900D02*
X427722D01*
X427207Y190687D01*
X426813Y190293D01*
X426600Y189778D01*
Y189222D01*
X426813Y188707D01*
X427207Y188313D01*
X427722Y188100D01*
X428278D01*
X428793Y188313D01*
X429187Y188707D01*
X429400Y189222D01*
Y189778D01*
X429187Y190293D01*
X428793Y190687D01*
X428278Y190900D01*
D02*
G37*
G36*
X313279Y193400D02*
X312721D01*
X312207Y193187D01*
X311813Y192793D01*
X311600Y192279D01*
Y191721D01*
X311813Y191207D01*
X312207Y190813D01*
X312721Y190600D01*
X313279D01*
X313594Y190731D01*
X315100Y189225D01*
Y188722D01*
X315313Y188207D01*
X315707Y187813D01*
X316221Y187600D01*
X316778D01*
X317293Y187813D01*
X317687Y188207D01*
X317900Y188722D01*
Y189278D01*
X317687Y189793D01*
X317293Y190187D01*
X316778Y190400D01*
X316221D01*
X315906Y190269D01*
X314400Y191775D01*
Y192279D01*
X314187Y192793D01*
X313793Y193187D01*
X313279Y193400D01*
D02*
G37*
G36*
X289845Y182321D02*
X289288D01*
X288773Y182108D01*
X288379Y181714D01*
X288166Y181200D01*
Y180643D01*
X288224Y180504D01*
X277501Y169781D01*
X277309Y169319D01*
Y159937D01*
X277170Y159879D01*
X276777Y159485D01*
X276564Y158971D01*
Y158414D01*
X276777Y157899D01*
X277170Y157506D01*
X277685Y157292D01*
X278242D01*
X278757Y157506D01*
X279150Y157899D01*
X279364Y158414D01*
Y158971D01*
X279150Y159485D01*
X278757Y159879D01*
X278618Y159937D01*
Y169048D01*
X289149Y179579D01*
X289288Y179521D01*
X289845D01*
X290359Y179734D01*
X290753Y180128D01*
X290966Y180643D01*
Y181200D01*
X290753Y181714D01*
X290359Y182108D01*
X289845Y182321D01*
D02*
G37*
G36*
X413778Y180900D02*
X413222D01*
X412707Y180687D01*
X412313Y180293D01*
X412100Y179779D01*
Y179221D01*
X412313Y178707D01*
X412707Y178313D01*
X413222Y178100D01*
X413778D01*
X414293Y178313D01*
X414687Y178707D01*
X414900Y179221D01*
Y179779D01*
X414687Y180293D01*
X414293Y180687D01*
X413778Y180900D01*
D02*
G37*
G36*
X274779Y180600D02*
X274221D01*
X273707Y180387D01*
X273313Y179993D01*
X273100Y179479D01*
Y178921D01*
X273313Y178407D01*
X273707Y178013D01*
X274221Y177800D01*
X274779D01*
X275293Y178013D01*
X275687Y178407D01*
X275900Y178921D01*
Y179479D01*
X275687Y179993D01*
X275293Y180387D01*
X274779Y180600D01*
D02*
G37*
G36*
X314675Y175500D02*
Y174144D01*
X315834D01*
Y175500D01*
X314675D01*
D02*
G37*
G36*
X315834Y173793D02*
X314675D01*
Y172437D01*
X315834D01*
Y173793D01*
D02*
G37*
G36*
X282807Y236307D02*
X276193D01*
Y229693D01*
X281882D01*
X295346Y216229D01*
Y175744D01*
X295207Y175687D01*
X294813Y175293D01*
X294600Y174778D01*
Y174222D01*
X294813Y173707D01*
X295207Y173313D01*
X295722Y173100D01*
X296279D01*
X296793Y173313D01*
X297187Y173707D01*
X297235Y173823D01*
X297776D01*
X297790Y173790D01*
X298183Y173397D01*
X298698Y173184D01*
X299255D01*
X299769Y173397D01*
X300161Y173789D01*
X300172Y173789D01*
X300661Y173687D01*
Y172433D01*
X303339D01*
Y172433D01*
X303661D01*
Y172433D01*
X306161D01*
X306661Y172433D01*
X306839Y172433D01*
X309339D01*
Y174748D01*
X309801Y174940D01*
X310161Y174579D01*
Y172433D01*
X312667D01*
X312839Y172433D01*
X313336Y172437D01*
X314325D01*
Y173969D01*
Y175500D01*
X313336D01*
X312839Y175504D01*
X312667Y175504D01*
X311087D01*
X309593Y176998D01*
X309612Y177017D01*
X309825Y177532D01*
Y178088D01*
X309612Y178603D01*
X309218Y178997D01*
X308704Y179210D01*
X308147D01*
X307632Y178997D01*
X307238Y178603D01*
X307025Y178088D01*
Y177532D01*
X307238Y177017D01*
X307632Y176623D01*
X307771Y176566D01*
Y175857D01*
X307417Y175504D01*
X306339Y175504D01*
X306161Y175504D01*
X305025D01*
Y175565D01*
X304833Y176028D01*
X303468Y177393D01*
X303526Y177532D01*
Y178088D01*
X303313Y178603D01*
X302919Y178997D01*
X302404Y179210D01*
X301848D01*
X301333Y178997D01*
X300939Y178603D01*
X300726Y178088D01*
Y177532D01*
X300939Y177017D01*
X301333Y176623D01*
X301848Y176410D01*
X302404D01*
X302543Y176468D01*
X303007Y176004D01*
X302800Y175504D01*
X300661D01*
Y175480D01*
X300172Y175378D01*
X300161Y175378D01*
X299769Y175770D01*
X299642Y175823D01*
Y216751D01*
X299793Y216813D01*
X300187Y217207D01*
X300400Y217722D01*
Y218279D01*
X300187Y218793D01*
X299793Y219187D01*
X299278Y219400D01*
X298722D01*
X298207Y219187D01*
X297813Y218793D01*
X297600Y218279D01*
Y217722D01*
X297813Y217207D01*
X298207Y216813D01*
X298334Y216760D01*
Y175833D01*
X298183Y175770D01*
X297790Y175376D01*
X297742Y175261D01*
X297200D01*
X297187Y175293D01*
X296793Y175687D01*
X296654Y175744D01*
Y216500D01*
X296462Y216963D01*
X282807Y230618D01*
Y236307D01*
D02*
G37*
G36*
X287594Y172834D02*
X286238D01*
Y171675D01*
X287594D01*
Y172834D01*
D02*
G37*
G36*
X285888D02*
X284532D01*
Y171675D01*
X285888D01*
Y172834D01*
D02*
G37*
G36*
X306334Y171563D02*
X306166Y171563D01*
X305175D01*
Y170031D01*
Y168500D01*
X306166D01*
X306666Y168500D01*
X306834Y168500D01*
X307825D01*
Y170031D01*
Y171563D01*
X306334D01*
D02*
G37*
G36*
X299531Y171834D02*
X298175D01*
Y170675D01*
X299531D01*
Y171834D01*
D02*
G37*
G36*
X297825D02*
X296469D01*
Y170675D01*
X297825D01*
Y171834D01*
D02*
G37*
G36*
X311325Y171563D02*
X310166D01*
Y170206D01*
X311325D01*
Y171563D01*
D02*
G37*
G36*
X308175D02*
Y170206D01*
X309334D01*
Y171563D01*
X308175D01*
D02*
G37*
G36*
X301825D02*
X300666D01*
Y170206D01*
X301825D01*
Y171563D01*
D02*
G37*
G36*
X190126Y174685D02*
X185874D01*
Y170827D01*
X190126D01*
Y171687D01*
X190626Y171894D01*
X190707Y171813D01*
X191221Y171600D01*
X191779D01*
X192236Y171789D01*
X192486Y171636D01*
X192661Y171474D01*
Y169465D01*
X195339D01*
Y172535D01*
X193587D01*
X192908Y173214D01*
X192900Y173217D01*
Y173278D01*
X192687Y173793D01*
X192293Y174187D01*
X191779Y174400D01*
X191221D01*
X190707Y174187D01*
X190626Y174106D01*
X190126Y174313D01*
Y174685D01*
D02*
G37*
G36*
X299531Y170325D02*
X298175D01*
Y169166D01*
X299531D01*
Y170325D01*
D02*
G37*
G36*
X297825D02*
X296469D01*
Y169166D01*
X297825D01*
Y170325D01*
D02*
G37*
G36*
X289806Y175984D02*
X289249D01*
X288735Y175770D01*
X288341Y175376D01*
X288128Y174862D01*
Y174305D01*
X288341Y173790D01*
X288735Y173397D01*
X288875Y173339D01*
X288775Y172839D01*
X288465D01*
Y170161D01*
X288465D01*
X288402Y169839D01*
X288402Y169839D01*
X288402Y169687D01*
Y167161D01*
X288871D01*
Y166394D01*
X288732Y166337D01*
X288338Y165943D01*
X288125Y165428D01*
Y164872D01*
X288338Y164357D01*
X288732Y163963D01*
X289247Y163750D01*
X289804D01*
X289966Y163817D01*
X290246Y163538D01*
X290708Y163346D01*
X292143D01*
X292496Y162992D01*
X292496Y162339D01*
X292496Y162161D01*
Y161654D01*
X291625D01*
X291162Y161462D01*
X289917Y160217D01*
X289778Y160275D01*
X289222D01*
X288707Y160062D01*
X288313Y159668D01*
X288100Y159153D01*
Y158597D01*
X288313Y158082D01*
X288707Y157688D01*
X289222Y157475D01*
X289778D01*
X289917Y157533D01*
X290412Y157037D01*
X290875Y156846D01*
X292496D01*
Y156161D01*
X295567D01*
Y158839D01*
X292496D01*
Y158154D01*
X291192D01*
X290878Y158543D01*
X290900Y158597D01*
Y159153D01*
X290843Y159292D01*
X291896Y160346D01*
X292496D01*
Y159661D01*
X295567D01*
Y162161D01*
X295567Y162661D01*
X295567Y162839D01*
Y165339D01*
X295567D01*
Y165661D01*
X295567D01*
Y168339D01*
X292496D01*
Y167654D01*
X291472D01*
Y169839D01*
X291473D01*
X291535Y170161D01*
X291535Y170161D01*
X291535Y170312D01*
Y171252D01*
X291997Y171444D01*
X292528Y170914D01*
Y169161D01*
X295598D01*
Y171839D01*
X293453D01*
X290928Y174364D01*
Y174862D01*
X290714Y175376D01*
X290321Y175770D01*
X289806Y175984D01*
D02*
G37*
G36*
X287594Y171325D02*
X286063D01*
X284532D01*
Y170308D01*
X284469Y169834D01*
X284469Y169692D01*
Y168675D01*
X286000D01*
X287531D01*
Y169692D01*
X287594Y170166D01*
X287594Y170308D01*
Y171325D01*
D02*
G37*
G36*
X309334Y169857D02*
X308175D01*
Y168500D01*
X309334D01*
Y169857D01*
D02*
G37*
G36*
X303334Y171563D02*
X303166Y171563D01*
X302175D01*
Y170031D01*
Y168500D01*
X303166D01*
X303666Y168500D01*
X303834Y168500D01*
X304825D01*
Y170031D01*
Y171563D01*
X303834D01*
X303334Y171563D01*
D02*
G37*
G36*
X301825Y169857D02*
X300666D01*
Y168500D01*
X301825D01*
Y169857D01*
D02*
G37*
G36*
X311325D02*
X310166D01*
Y168500D01*
X311325D01*
Y169857D01*
D02*
G37*
G36*
X190122Y169169D02*
X188175D01*
Y167419D01*
X190122D01*
Y169169D01*
D02*
G37*
G36*
X187825D02*
X185878D01*
Y167419D01*
X187825D01*
Y169169D01*
D02*
G37*
G36*
X195334Y168594D02*
X194175D01*
Y167238D01*
X195334D01*
Y168594D01*
D02*
G37*
G36*
X193825D02*
X192666D01*
Y167238D01*
X193825D01*
Y168594D01*
D02*
G37*
G36*
X299500Y168334D02*
X298144D01*
Y167175D01*
X299500D01*
Y168334D01*
D02*
G37*
G36*
X297794D02*
X296437D01*
Y167175D01*
X297794D01*
Y168334D01*
D02*
G37*
G36*
X287531Y168325D02*
X286175D01*
Y167166D01*
X287531D01*
Y168325D01*
D02*
G37*
G36*
X285825D02*
X284469D01*
Y167166D01*
X285825D01*
Y168325D01*
D02*
G37*
G36*
X312563Y167834D02*
X311207D01*
Y166675D01*
X312563D01*
Y167834D01*
D02*
G37*
G36*
X310857D02*
X309500D01*
Y166675D01*
X310857D01*
Y167834D01*
D02*
G37*
G36*
X195334Y166888D02*
X194175D01*
Y165532D01*
X195334D01*
Y166888D01*
D02*
G37*
G36*
X193825D02*
X192666D01*
Y165532D01*
X193825D01*
Y166888D01*
D02*
G37*
G36*
X190122Y167069D02*
X188175D01*
Y165319D01*
X190122D01*
Y167069D01*
D02*
G37*
G36*
X187825D02*
X185878D01*
Y165319D01*
X187825D01*
Y167069D01*
D02*
G37*
G36*
X299500Y166825D02*
X297969D01*
X296437D01*
Y165834D01*
X296437Y165334D01*
X296437Y165166D01*
Y164175D01*
X297969D01*
X299500D01*
Y165166D01*
X299500Y165666D01*
X299500Y165834D01*
Y166825D01*
D02*
G37*
G36*
X312563Y166325D02*
X311032D01*
X309500D01*
Y165334D01*
X309500Y164834D01*
X309500Y164666D01*
Y163675D01*
X311032D01*
X312563D01*
Y164666D01*
X312563Y165166D01*
X312563Y165334D01*
Y166325D01*
D02*
G37*
G36*
X299500Y163825D02*
X297969D01*
X296437D01*
Y162834D01*
X296437Y162334D01*
X296437Y162166D01*
Y161175D01*
X297969D01*
X299500D01*
Y162166D01*
X299500Y162666D01*
X299500Y162834D01*
Y163825D01*
D02*
G37*
G36*
X189000Y162334D02*
X187644D01*
Y161175D01*
X189000D01*
Y162334D01*
D02*
G37*
G36*
X187294D02*
X185937D01*
Y161175D01*
X187294D01*
Y162334D01*
D02*
G37*
G36*
X312563Y163325D02*
X311032D01*
X309500D01*
Y162321D01*
X309469Y161834D01*
X309469Y161679D01*
Y160675D01*
X311000D01*
X312531D01*
Y161679D01*
X312563Y162166D01*
X312563Y162321D01*
Y163325D01*
D02*
G37*
G36*
X299500Y160825D02*
X298144D01*
Y159666D01*
X299500D01*
Y160825D01*
D02*
G37*
G36*
X297794D02*
X296437D01*
Y159666D01*
X297794D01*
Y160825D01*
D02*
G37*
G36*
X189000Y160825D02*
X187644D01*
Y159666D01*
X189000D01*
Y160825D01*
D02*
G37*
G36*
X187294D02*
X185937D01*
Y159666D01*
X187294D01*
Y160825D01*
D02*
G37*
G36*
X160278Y185301D02*
X159722D01*
X159207Y185088D01*
X158813Y184694D01*
X158600Y184180D01*
Y183623D01*
X158813Y183108D01*
X159207Y182714D01*
X159346Y182657D01*
Y177295D01*
X159537Y176832D01*
X160569Y175801D01*
X160362Y175301D01*
X160222D01*
X159707Y175088D01*
X159313Y174694D01*
X159100Y174180D01*
Y173623D01*
X159313Y173108D01*
X159707Y172714D01*
X159846Y172657D01*
Y172500D01*
X160038Y172037D01*
X175157Y156917D01*
X175100Y156779D01*
Y156221D01*
X175313Y155707D01*
X175707Y155313D01*
X176222Y155100D01*
X176778D01*
X177293Y155313D01*
X177687Y155707D01*
X177900Y156221D01*
Y156762D01*
X177976Y156841D01*
X178304Y157109D01*
X178651Y156966D01*
X179208D01*
X179722Y157179D01*
X180116Y157573D01*
X180329Y158087D01*
Y158644D01*
X180140Y159100D01*
X180207Y159340D01*
X180352Y159630D01*
X180793Y159813D01*
X181187Y160207D01*
X181244Y160346D01*
X181996D01*
Y159661D01*
X185067D01*
Y162339D01*
X181996D01*
Y161654D01*
X181244D01*
X181187Y161793D01*
X180793Y162187D01*
X180279Y162400D01*
X179721D01*
X179207Y162187D01*
X178813Y161793D01*
X178600Y161278D01*
Y160722D01*
X178725Y160421D01*
X178362Y160039D01*
X178174Y160046D01*
X160654Y177566D01*
Y182657D01*
X160793Y182714D01*
X161187Y183108D01*
X161400Y183623D01*
Y184180D01*
X161187Y184694D01*
X160793Y185088D01*
X160278Y185301D01*
D02*
G37*
G36*
X299500Y158834D02*
X298144D01*
Y157675D01*
X299500D01*
Y158834D01*
D02*
G37*
G36*
X297794D02*
X296437D01*
Y157675D01*
X297794D01*
Y158834D01*
D02*
G37*
G36*
X305175Y159031D02*
Y157675D01*
X306334D01*
Y159031D01*
X305175D01*
D02*
G37*
G36*
X308325D02*
X307166D01*
Y157675D01*
X308325D01*
Y159031D01*
D02*
G37*
G36*
X301825Y159000D02*
X300666D01*
Y157643D01*
X301825D01*
Y159000D01*
D02*
G37*
G36*
X316563Y158334D02*
X315207D01*
Y157175D01*
X316563D01*
Y158334D01*
D02*
G37*
G36*
X314857D02*
X313500D01*
Y157175D01*
X314857D01*
Y158334D01*
D02*
G37*
G36*
X299500Y157325D02*
X298144D01*
Y156166D01*
X299500D01*
Y157325D01*
D02*
G37*
G36*
X297794D02*
X296437D01*
Y156166D01*
X297794D01*
Y157325D01*
D02*
G37*
G36*
X306334Y157325D02*
X305175D01*
Y155969D01*
X306334D01*
Y157325D01*
D02*
G37*
G36*
X308325D02*
X307166D01*
Y155969D01*
X308325D01*
Y157325D01*
D02*
G37*
G36*
X312834Y157293D02*
X311675D01*
Y155937D01*
X312834D01*
Y157293D01*
D02*
G37*
G36*
X301825D02*
X300666D01*
Y155937D01*
X301825D01*
Y157293D01*
D02*
G37*
G36*
X303666Y159031D02*
X303179Y159000D01*
X302175D01*
Y157468D01*
Y155937D01*
X303179D01*
X303334Y155937D01*
X303821Y155969D01*
X304825D01*
Y157500D01*
Y159031D01*
X303821D01*
X303666Y159031D01*
X303666D01*
D02*
G37*
G36*
X312531Y160325D02*
X311000D01*
X309469D01*
Y159531D01*
X309469Y159166D01*
X309025Y159031D01*
X308675D01*
Y157500D01*
Y155969D01*
X309679D01*
X310166Y155937D01*
X310321Y155937D01*
X311325D01*
Y157468D01*
X311500D01*
Y157643D01*
X312834D01*
Y159000D01*
X312531Y159374D01*
X312531Y159500D01*
Y160325D01*
D02*
G37*
G36*
X316563Y156825D02*
X315207D01*
Y155666D01*
X316563D01*
Y156825D01*
D02*
G37*
G36*
X314857D02*
X313500D01*
Y155666D01*
X314857D01*
Y156825D01*
D02*
G37*
G36*
X401278Y158400D02*
X400722D01*
X400207Y158187D01*
X399813Y157793D01*
X399600Y157279D01*
Y156721D01*
X399813Y156207D01*
X400207Y155813D01*
X400722Y155600D01*
X401278D01*
X401793Y155813D01*
X402187Y156207D01*
X402400Y156721D01*
Y157279D01*
X402187Y157793D01*
X401793Y158187D01*
X401278Y158400D01*
D02*
G37*
G36*
X189000Y155834D02*
X187644D01*
Y154675D01*
X189000D01*
Y155834D01*
D02*
G37*
G36*
X187294D02*
X185937D01*
Y154675D01*
X187294D01*
Y155834D01*
D02*
G37*
G36*
X189000Y154325D02*
X187644D01*
Y153166D01*
X189000D01*
Y154325D01*
D02*
G37*
G36*
X187294D02*
X185937D01*
Y153166D01*
X187294D01*
Y154325D01*
D02*
G37*
G36*
X179779Y155900D02*
X179221D01*
X178707Y155687D01*
X178313Y155293D01*
X178100Y154779D01*
Y154221D01*
X178313Y153707D01*
X178707Y153313D01*
X179221Y153100D01*
X179779D01*
X180293Y153313D01*
X180687Y153707D01*
X180744Y153846D01*
X181996D01*
Y153161D01*
X185067D01*
Y155839D01*
X181996D01*
Y155154D01*
X180744D01*
X180687Y155293D01*
X180293Y155687D01*
X179779Y155900D01*
D02*
G37*
G36*
X250779Y165900D02*
X250221D01*
X249707Y165687D01*
X249313Y165293D01*
X249100Y164778D01*
Y164222D01*
X249313Y163707D01*
X249707Y163313D01*
X250221Y163100D01*
X250641D01*
X250846Y162896D01*
Y155504D01*
X250161D01*
Y152433D01*
X252838D01*
Y155504D01*
X252154D01*
Y163166D01*
X251962Y163629D01*
X251745Y163847D01*
X251900Y164222D01*
Y164778D01*
X251687Y165293D01*
X251293Y165687D01*
X250779Y165900D01*
D02*
G37*
G36*
X247482Y163812D02*
X246925D01*
X246410Y163599D01*
X246016Y163205D01*
X245803Y162691D01*
Y162134D01*
X246016Y161619D01*
X246410Y161225D01*
X246925Y161012D01*
X247326D01*
X247346Y160993D01*
Y155504D01*
X246661D01*
Y152433D01*
X249339D01*
Y155504D01*
X248654D01*
Y161264D01*
X248463Y161726D01*
X248443Y161746D01*
X248603Y162134D01*
Y162691D01*
X248390Y163205D01*
X247996Y163599D01*
X247482Y163812D01*
D02*
G37*
G36*
X244279Y161900D02*
X243722D01*
X243207Y161687D01*
X242813Y161293D01*
X242600Y160778D01*
Y160222D01*
X242813Y159707D01*
X243207Y159313D01*
X243722Y159100D01*
X243846D01*
Y155504D01*
X243161D01*
Y152433D01*
X245838D01*
Y155504D01*
X245154D01*
Y159648D01*
X245146Y159667D01*
X245187Y159707D01*
X245400Y160222D01*
Y160778D01*
X245187Y161293D01*
X244793Y161687D01*
X244279Y161900D01*
D02*
G37*
G36*
X241279Y159900D02*
X240722D01*
X240207Y159687D01*
X239813Y159293D01*
X239600Y158779D01*
Y158221D01*
X239813Y157707D01*
X240207Y157313D01*
X240346Y157256D01*
Y155504D01*
X239661D01*
Y152433D01*
X242338D01*
Y155504D01*
X241654D01*
Y157256D01*
X241793Y157313D01*
X242187Y157707D01*
X242400Y158221D01*
Y158779D01*
X242187Y159293D01*
X241793Y159687D01*
X241279Y159900D01*
D02*
G37*
G36*
X252838Y151567D02*
X250161D01*
Y150686D01*
X249339D01*
Y151567D01*
X246661D01*
Y150686D01*
X245838D01*
Y151567D01*
X243161D01*
Y148496D01*
X245838D01*
Y149377D01*
X246661D01*
Y148496D01*
X249339D01*
Y149377D01*
X250161D01*
Y148496D01*
X252838D01*
Y149046D01*
X253211Y149172D01*
X253339Y149181D01*
X253707Y148813D01*
X254222Y148600D01*
X254779D01*
X255293Y148813D01*
X255687Y149207D01*
X255900Y149722D01*
Y150278D01*
X255687Y150793D01*
X255293Y151187D01*
X254779Y151400D01*
X254222D01*
X253707Y151187D01*
X253339Y150819D01*
X253211Y150828D01*
X252838Y150954D01*
Y151567D01*
D02*
G37*
G36*
X242334Y151563D02*
X241175D01*
Y150206D01*
X242334D01*
Y151563D01*
D02*
G37*
G36*
X240825D02*
X239666D01*
Y150206D01*
X240825D01*
Y151563D01*
D02*
G37*
G36*
X207122Y151937D02*
X205175D01*
Y150187D01*
X207122D01*
Y151937D01*
D02*
G37*
G36*
X204825D02*
X202878D01*
Y150187D01*
X204825D01*
Y151937D01*
D02*
G37*
G36*
X268962Y180717D02*
X268405D01*
X267890Y180503D01*
X267497Y180110D01*
X267283Y179595D01*
Y179038D01*
X267452Y178630D01*
X267346Y178374D01*
Y162500D01*
X267537Y162038D01*
X274537Y155037D01*
X275000Y154846D01*
X277491D01*
X277591Y154346D01*
X277207Y154187D01*
X276813Y153793D01*
X276600Y153279D01*
Y152722D01*
X276813Y152207D01*
X277207Y151813D01*
X277346Y151756D01*
Y118244D01*
X277207Y118187D01*
X276813Y117793D01*
X276600Y117279D01*
Y116721D01*
X276813Y116207D01*
X277207Y115813D01*
X277722Y115600D01*
X278278D01*
X278793Y115813D01*
X279187Y116207D01*
X279400Y116721D01*
Y117279D01*
X279187Y117793D01*
X278793Y118187D01*
X278654Y118244D01*
Y151756D01*
X278793Y151813D01*
X279187Y152207D01*
X279400Y152722D01*
Y153279D01*
X279187Y153793D01*
X278793Y154187D01*
X278409Y154346D01*
X278509Y154846D01*
X286329D01*
X288258Y152917D01*
X288200Y152778D01*
Y152222D01*
X288413Y151707D01*
X288807Y151313D01*
X288983Y151240D01*
Y150699D01*
X288773Y150612D01*
X288379Y150218D01*
X288268Y149949D01*
X287704Y149806D01*
X287627Y149883D01*
X287113Y150096D01*
X286556D01*
X286041Y149883D01*
X285647Y149489D01*
X285434Y148975D01*
Y148418D01*
X285647Y147903D01*
X286041Y147509D01*
X286556Y147296D01*
X287113D01*
X287251Y147354D01*
X288346Y146259D01*
Y111754D01*
X288141Y111550D01*
X287721D01*
X287207Y111337D01*
X286813Y110943D01*
X286600Y110429D01*
Y109871D01*
X286813Y109357D01*
X287207Y108963D01*
X287721Y108750D01*
X288279D01*
X288793Y108963D01*
X289187Y109357D01*
X289400Y109871D01*
Y110429D01*
X289245Y110803D01*
X289462Y111021D01*
X289654Y111483D01*
Y146530D01*
X289462Y146993D01*
X288748Y147708D01*
X289031Y148132D01*
X289288Y148025D01*
X289845D01*
X289984Y148083D01*
X291346Y146720D01*
Y108244D01*
X291207Y108187D01*
X290813Y107793D01*
X290600Y107279D01*
Y106721D01*
X290813Y106207D01*
X291207Y105813D01*
X291722Y105600D01*
X292279D01*
X292793Y105813D01*
X293187Y106207D01*
X293400Y106721D01*
Y107279D01*
X293187Y107793D01*
X292793Y108187D01*
X292654Y108244D01*
Y113991D01*
X293154Y114091D01*
X293313Y113707D01*
X293707Y113313D01*
X294221Y113100D01*
X294778D01*
X295293Y113313D01*
X295687Y113707D01*
X295900Y114222D01*
Y114778D01*
X295687Y115293D01*
X295293Y115687D01*
X295092Y115770D01*
Y137905D01*
X295169Y137937D01*
X295563Y138331D01*
X295776Y138846D01*
Y139402D01*
X295563Y139917D01*
X295169Y140311D01*
X294654Y140524D01*
X294097D01*
X293583Y140311D01*
X293189Y139917D01*
X293154Y139833D01*
X292654Y139932D01*
Y146991D01*
X292462Y147454D01*
X290909Y149008D01*
X290966Y149147D01*
Y149704D01*
X290753Y150218D01*
X290359Y150612D01*
X290183Y150685D01*
Y151226D01*
X290393Y151313D01*
X290787Y151707D01*
X291000Y152222D01*
Y152778D01*
X290787Y153293D01*
X290393Y153687D01*
X289879Y153900D01*
X289321D01*
X289183Y153842D01*
X287063Y155963D01*
X286600Y156154D01*
X275271D01*
X268654Y162771D01*
Y177917D01*
X268962D01*
X269477Y178130D01*
X269870Y178524D01*
X270083Y179038D01*
Y179595D01*
X269870Y180110D01*
X269477Y180503D01*
X268962Y180717D01*
D02*
G37*
G36*
X188968Y150834D02*
X187612D01*
Y149675D01*
X188968D01*
Y150834D01*
D02*
G37*
G36*
X187262D02*
X185906D01*
Y149675D01*
X187262D01*
Y150834D01*
D02*
G37*
G36*
X201175Y150000D02*
Y148644D01*
X202334D01*
Y150000D01*
X201175D01*
D02*
G37*
G36*
X197825Y149968D02*
X196666D01*
Y148612D01*
X197825D01*
Y149968D01*
D02*
G37*
G36*
X404279Y151400D02*
X403722D01*
X403207Y151187D01*
X402813Y150793D01*
X402600Y150278D01*
Y149722D01*
X402813Y149207D01*
X403207Y148813D01*
X403722Y148600D01*
X404279D01*
X404793Y148813D01*
X405187Y149207D01*
X405400Y149722D01*
Y150278D01*
X405187Y150793D01*
X404793Y151187D01*
X404279Y151400D01*
D02*
G37*
G36*
X242334Y149856D02*
X241175D01*
Y148500D01*
X242334D01*
Y149856D01*
D02*
G37*
G36*
X240825D02*
X239666D01*
Y148500D01*
X240825D01*
Y149856D01*
D02*
G37*
G36*
X188968Y149325D02*
X187612D01*
Y148166D01*
X188968D01*
Y149325D01*
D02*
G37*
G36*
X187262D02*
X185906D01*
Y148166D01*
X187262D01*
Y149325D01*
D02*
G37*
G36*
X180279Y151900D02*
X179721D01*
X179207Y151687D01*
X178813Y151293D01*
X178600Y150778D01*
Y150222D01*
X178813Y149707D01*
X179207Y149313D01*
X179721Y149100D01*
X180279D01*
X180793Y149313D01*
X181060Y149580D01*
X181965D01*
Y148161D01*
X185035D01*
Y150839D01*
X182886D01*
X182766Y150888D01*
X181354D01*
X181187Y151293D01*
X180793Y151687D01*
X180279Y151900D01*
D02*
G37*
G36*
X207122Y149837D02*
X205175D01*
Y148087D01*
X207122D01*
Y149837D01*
D02*
G37*
G36*
X204825D02*
X202878D01*
Y148087D01*
X204825D01*
Y149837D01*
D02*
G37*
G36*
X303661Y155098D02*
X303339Y155067D01*
X303339Y155067D01*
X300661D01*
Y151996D01*
X301446D01*
Y150675D01*
X301295Y150612D01*
X300901Y150218D01*
X300688Y149704D01*
Y149147D01*
X300901Y148632D01*
X301295Y148238D01*
X301809Y148025D01*
X302366D01*
X302881Y148238D01*
X303274Y148632D01*
X303488Y149147D01*
Y149704D01*
X303274Y150218D01*
X303026Y150467D01*
X304587Y152028D01*
X306339D01*
Y152909D01*
X307161D01*
Y152028D01*
X307846D01*
Y150685D01*
X307670Y150612D01*
X307277Y150218D01*
X307064Y149704D01*
Y149147D01*
X307277Y148632D01*
X307670Y148238D01*
X308185Y148025D01*
X308742D01*
X309257Y148238D01*
X309650Y148632D01*
X309863Y149147D01*
Y149704D01*
X309806Y149843D01*
X311394Y151431D01*
X311586Y151893D01*
Y151996D01*
X312839D01*
Y155067D01*
X310161D01*
Y155067D01*
X309839Y155098D01*
Y155098D01*
X309675Y155098D01*
X307161D01*
Y154217D01*
X306339D01*
Y155098D01*
X303825D01*
X303661Y155098D01*
D02*
G37*
G36*
X202334Y148293D02*
X201175D01*
Y146937D01*
X202334D01*
Y148293D01*
D02*
G37*
G36*
X197825Y148262D02*
X196666D01*
Y146906D01*
X197825D01*
Y148262D01*
D02*
G37*
G36*
X199666Y150000D02*
X199179Y149968D01*
X198175D01*
Y148437D01*
Y146906D01*
X199179D01*
X199334Y146906D01*
X199821Y146937D01*
X200825D01*
Y148468D01*
Y150000D01*
X199821D01*
X199666Y150000D01*
X199666D01*
D02*
G37*
G36*
X207126Y146429D02*
X202874D01*
Y145154D01*
X202339D01*
Y146067D01*
X199826D01*
X199661Y146067D01*
X199174Y146035D01*
X196661D01*
Y142965D01*
X198080D01*
Y139060D01*
X197813Y138793D01*
X197600Y138278D01*
Y137722D01*
X197813Y137207D01*
X198207Y136813D01*
X198722Y136600D01*
X199278D01*
X199793Y136813D01*
X200187Y137207D01*
X200400Y137722D01*
Y138278D01*
X200193Y138778D01*
X200220Y138837D01*
X200492Y139195D01*
X200722Y139100D01*
X201278D01*
X201793Y139313D01*
X202187Y139707D01*
X202400Y140222D01*
Y140779D01*
X202187Y141293D01*
X201793Y141687D01*
X201654Y141744D01*
Y142996D01*
X202339D01*
Y143846D01*
X202874D01*
Y142571D01*
X207126D01*
Y146429D01*
D02*
G37*
G36*
X423129Y146355D02*
X422572D01*
X422057Y146142D01*
X421664Y145748D01*
X421450Y145233D01*
Y144676D01*
X421664Y144162D01*
X422057Y143768D01*
X422572Y143555D01*
X423129D01*
X423643Y143768D01*
X424037Y144162D01*
X424250Y144676D01*
Y145233D01*
X424037Y145748D01*
X423643Y146142D01*
X423129Y146355D01*
D02*
G37*
G36*
X272278Y142400D02*
X271722D01*
X271207Y142187D01*
X270813Y141793D01*
X270600Y141279D01*
Y140721D01*
X270813Y140207D01*
X271207Y139813D01*
X271722Y139600D01*
X272278D01*
X272793Y139813D01*
X273187Y140207D01*
X273400Y140721D01*
Y141279D01*
X273187Y141793D01*
X272793Y142187D01*
X272278Y142400D01*
D02*
G37*
G36*
X424278Y134900D02*
X423722D01*
X423207Y134687D01*
X422813Y134293D01*
X422600Y133779D01*
Y133221D01*
X422813Y132707D01*
X423207Y132313D01*
X423722Y132100D01*
X424278D01*
X424793Y132313D01*
X425187Y132707D01*
X425400Y133221D01*
Y133779D01*
X425187Y134293D01*
X424793Y134687D01*
X424278Y134900D01*
D02*
G37*
G36*
X410279Y130900D02*
X409722D01*
X409207Y130687D01*
X408813Y130293D01*
X408600Y129779D01*
Y129221D01*
X408813Y128707D01*
X409207Y128313D01*
X409722Y128100D01*
X410279D01*
X410793Y128313D01*
X411187Y128707D01*
X411400Y129221D01*
Y129779D01*
X411187Y130293D01*
X410793Y130687D01*
X410279Y130900D01*
D02*
G37*
G36*
X221778Y122301D02*
X221221D01*
X220707Y122088D01*
X220313Y121694D01*
X220100Y121180D01*
Y120623D01*
X220313Y120108D01*
X220707Y119714D01*
X221221Y119501D01*
X221778D01*
X222293Y119714D01*
X222687Y120108D01*
X222900Y120623D01*
Y121180D01*
X222687Y121694D01*
X222293Y122088D01*
X221778Y122301D01*
D02*
G37*
G36*
X307779Y115900D02*
X307222D01*
X306707Y115687D01*
X306313Y115293D01*
X306100Y114778D01*
Y114222D01*
X306313Y113707D01*
X306707Y113313D01*
X307222Y113100D01*
X307779D01*
X308293Y113313D01*
X308687Y113707D01*
X308900Y114222D01*
Y114778D01*
X308687Y115293D01*
X308293Y115687D01*
X307779Y115900D01*
D02*
G37*
G36*
X283468Y144526D02*
X282911D01*
X282397Y144313D01*
X282003Y143919D01*
X281790Y143404D01*
Y142848D01*
X282003Y142333D01*
X282397Y141939D01*
X282536Y141882D01*
Y119724D01*
X282207Y119588D01*
X281813Y119194D01*
X281600Y118680D01*
Y118123D01*
X281813Y117608D01*
X282207Y117214D01*
X282536Y117078D01*
Y113900D01*
X282222D01*
X281707Y113687D01*
X281313Y113293D01*
X281100Y112778D01*
Y112222D01*
X281313Y111707D01*
X281707Y111313D01*
X282222Y111100D01*
X282779D01*
X283293Y111313D01*
X283516Y111536D01*
X284016Y111329D01*
Y105815D01*
X283707Y105687D01*
X283313Y105293D01*
X283100Y104779D01*
Y104221D01*
X283313Y103707D01*
X283707Y103313D01*
X284222Y103100D01*
X284778D01*
X285293Y103313D01*
X285687Y103707D01*
X285900Y104221D01*
Y104779D01*
X285687Y105293D01*
X285324Y105656D01*
Y138335D01*
X285633Y138463D01*
X286027Y138857D01*
X286240Y139372D01*
Y139928D01*
X286027Y140443D01*
X285633Y140837D01*
X285118Y141050D01*
X284561D01*
X284344Y140960D01*
X283844Y141287D01*
Y141882D01*
X283983Y141939D01*
X284377Y142333D01*
X284590Y142848D01*
Y143404D01*
X284377Y143919D01*
X283983Y144313D01*
X283468Y144526D01*
D02*
G37*
G36*
X401013Y65900D02*
X400675D01*
Y62175D01*
X404400D01*
Y62513D01*
X404134Y63505D01*
X403621Y64395D01*
X402895Y65121D01*
X402005Y65634D01*
X401013Y65900D01*
D02*
G37*
G36*
X400325D02*
X399987D01*
X398995Y65634D01*
X398105Y65121D01*
X397379Y64395D01*
X396866Y63505D01*
X396600Y62513D01*
Y62175D01*
X400325D01*
Y65900D01*
D02*
G37*
G36*
X404400Y61825D02*
X400675D01*
Y58100D01*
X401013D01*
X402005Y58366D01*
X402895Y58879D01*
X403621Y59605D01*
X404134Y60495D01*
X404400Y61487D01*
Y61825D01*
D02*
G37*
G36*
X400325D02*
X396600D01*
Y61487D01*
X396866Y60495D01*
X397379Y59605D01*
X398105Y58879D01*
X398995Y58366D01*
X399987Y58100D01*
X400325D01*
Y61825D01*
D02*
G37*
G36*
X421014Y65904D02*
X419986D01*
X418993Y65638D01*
X418103Y65124D01*
X417376Y64397D01*
X416862Y63507D01*
X416596Y62514D01*
Y61486D01*
X416862Y60493D01*
X417376Y59603D01*
X418103Y58876D01*
X418993Y58362D01*
X419986Y58096D01*
X421014D01*
X422007Y58362D01*
X422897Y58876D01*
X423624Y59603D01*
X424138Y60493D01*
X424404Y61486D01*
Y62514D01*
X424138Y63507D01*
X423624Y64397D01*
X422897Y65124D01*
X422007Y65638D01*
X421014Y65904D01*
D02*
G37*
G36*
X458287Y63935D02*
X456813D01*
X455367Y63647D01*
X454005Y63083D01*
X452779Y62264D01*
X451737Y61221D01*
X450918Y59995D01*
X450353Y58633D01*
X450066Y57187D01*
Y55713D01*
X450353Y54267D01*
X450918Y52905D01*
X451737Y51679D01*
X452779Y50637D01*
X454005Y49818D01*
X455367Y49254D01*
X456813Y48966D01*
X458287D01*
X459733Y49254D01*
X461095Y49818D01*
X462321Y50637D01*
X463363Y51679D01*
X464182Y52905D01*
X464747Y54267D01*
X465034Y55713D01*
Y57187D01*
X464747Y58633D01*
X464182Y59995D01*
X463363Y61221D01*
X462321Y62264D01*
X461095Y63083D01*
X459733Y63647D01*
X458287Y63935D01*
D02*
G37*
G36*
X18287D02*
X16813D01*
X15367Y63647D01*
X14005Y63083D01*
X12779Y62264D01*
X11737Y61221D01*
X10917Y59995D01*
X10353Y58633D01*
X10066Y57187D01*
Y55713D01*
X10353Y54267D01*
X10917Y52905D01*
X11737Y51679D01*
X12779Y50637D01*
X14005Y49818D01*
X15367Y49254D01*
X16813Y48966D01*
X18287D01*
X19733Y49254D01*
X21095Y49818D01*
X22321Y50637D01*
X23363Y51679D01*
X24182Y52905D01*
X24747Y54267D01*
X25034Y55713D01*
Y57187D01*
X24747Y58633D01*
X24182Y59995D01*
X23363Y61221D01*
X22321Y62264D01*
X21095Y63083D01*
X19733Y63647D01*
X18287Y63935D01*
D02*
G37*
%LPD*%
G36*
X348137Y212559D02*
Y212070D01*
X321498Y185430D01*
X321076Y185506D01*
X320902Y185977D01*
X347675Y212750D01*
X348137Y212559D01*
D02*
G37*
G36*
X348992Y210421D02*
Y209862D01*
X324457Y185328D01*
X324372Y185342D01*
X324303Y185371D01*
X324198D01*
X323981Y185406D01*
X323788Y185871D01*
X348530Y210612D01*
X348992Y210421D01*
D02*
G37*
G36*
X349784Y208164D02*
X349826Y207751D01*
X326938Y184862D01*
X326746Y184400D01*
Y162919D01*
X326607Y162862D01*
X326213Y162468D01*
X326073Y162130D01*
X325573Y162230D01*
Y162341D01*
X325360Y162855D01*
X324966Y163249D01*
X324452Y163462D01*
X324038D01*
X318654Y168846D01*
Y183729D01*
X319096Y184171D01*
X319596Y183964D01*
Y183725D01*
X319809Y183211D01*
X320203Y182817D01*
X320718Y182604D01*
X321275D01*
X321789Y182817D01*
X322183Y183211D01*
X322233Y183332D01*
X322774D01*
X322838Y183178D01*
X323232Y182784D01*
X323746Y182571D01*
X324303D01*
X324818Y182784D01*
X325212Y183178D01*
X325425Y183692D01*
Y184249D01*
X325367Y184388D01*
X349325Y208346D01*
X349784Y208164D01*
D02*
G37*
G36*
X177587Y158783D02*
X177529Y158644D01*
Y158104D01*
X177453Y158025D01*
X177125Y157756D01*
X176778Y157900D01*
X176222D01*
X176083Y157843D01*
X161279Y172646D01*
X161293Y172714D01*
X161687Y173108D01*
X161900Y173623D01*
Y173763D01*
X162400Y173970D01*
X177587Y158783D01*
D02*
G37*
G36*
X293189Y138331D02*
X293583Y137937D01*
X293784Y137854D01*
Y115719D01*
X293707Y115687D01*
X293313Y115293D01*
X293154Y114909D01*
X292654Y115009D01*
Y138316D01*
X293154Y138416D01*
X293189Y138331D01*
D02*
G37*
D16*
X216313Y298000D02*
X216500D01*
D46*
X51500Y218000D02*
D03*
Y238000D02*
D03*
Y274500D02*
D03*
Y294500D02*
D03*
X400500Y62000D02*
D03*
X420500D02*
D03*
D51*
X187469Y154500D02*
D03*
X183531D02*
D03*
X187469Y161000D02*
D03*
X183531D02*
D03*
X183500Y149500D02*
D03*
X187437D02*
D03*
X311000Y160500D02*
D03*
X314937D02*
D03*
X311032Y166500D02*
D03*
X314968D02*
D03*
X297969Y157500D02*
D03*
X294032D02*
D03*
X297969Y161000D02*
D03*
X294032D02*
D03*
X297969Y164000D02*
D03*
X294032D02*
D03*
X297969Y167000D02*
D03*
X294032D02*
D03*
X286000Y168500D02*
D03*
X289937D02*
D03*
X286063Y171500D02*
D03*
X290000D02*
D03*
X298000Y170500D02*
D03*
X294063D02*
D03*
X315032Y157000D02*
D03*
X318969D02*
D03*
X311032Y163500D02*
D03*
X314968D02*
D03*
D52*
X241000Y153969D02*
D03*
Y150031D02*
D03*
X244500Y153969D02*
D03*
Y150031D02*
D03*
X248000Y153969D02*
D03*
Y150031D02*
D03*
X251500Y153969D02*
D03*
Y150031D02*
D03*
X194000Y167063D02*
D03*
Y171000D02*
D03*
X198000Y148437D02*
D03*
Y144500D02*
D03*
X201000Y148468D02*
D03*
Y144532D02*
D03*
X311500Y157468D02*
D03*
Y153532D02*
D03*
X302000Y170031D02*
D03*
Y173969D02*
D03*
X305000Y157500D02*
D03*
Y153563D02*
D03*
X302000Y157468D02*
D03*
Y153532D02*
D03*
X308500Y157500D02*
D03*
Y153563D02*
D03*
X308000Y170031D02*
D03*
Y173969D02*
D03*
X311500Y170031D02*
D03*
Y173969D02*
D03*
X305000Y170031D02*
D03*
Y173969D02*
D03*
X314500Y170031D02*
D03*
Y173969D02*
D03*
D53*
X188000Y172756D02*
D03*
Y167244D02*
D03*
X205000Y144500D02*
D03*
Y150012D02*
D03*
D65*
X129400Y341775D02*
D03*
X82100D02*
D03*
D66*
X220300D02*
D03*
X217150D02*
D03*
X214000D02*
D03*
X210850D02*
D03*
X207700D02*
D03*
X204550D02*
D03*
X201400D02*
D03*
X198250D02*
D03*
X191950D02*
D03*
X195100D02*
D03*
X188800D02*
D03*
X185650D02*
D03*
X182500D02*
D03*
X179350D02*
D03*
X176200D02*
D03*
X173050D02*
D03*
X169900D02*
D03*
X163600D02*
D03*
X160450D02*
D03*
X166750D02*
D03*
D67*
X251500Y150031D02*
X254468D01*
X254500Y150000D01*
X248000Y150031D02*
X251500D01*
X244500D02*
X248000D01*
X250500Y164166D02*
X251500Y163166D01*
Y153969D02*
Y163166D01*
X250500Y164166D02*
Y164500D01*
X247203Y162061D02*
X248000Y161264D01*
Y153969D02*
Y161264D01*
X247203Y162061D02*
Y162412D01*
X244000Y160148D02*
X244500Y159648D01*
X244000Y160148D02*
Y160500D01*
X244500Y153969D02*
Y159648D01*
X241000Y153969D02*
X241000Y153969D01*
Y158500D01*
X183531Y161000D02*
X183531Y161000D01*
X180000Y161000D02*
X183531D01*
X187469Y154500D02*
X187665D01*
X189751Y152414D01*
Y151650D02*
Y152414D01*
Y151650D02*
X190000Y151401D01*
X179500Y154500D02*
X183531D01*
X183531Y154500D01*
X278000Y117000D02*
Y153000D01*
X187870Y161401D02*
X190500D01*
X187469Y161000D02*
X187870Y161401D01*
X201000Y144532D02*
X201031Y144500D01*
X201000Y144532D02*
X201000Y144532D01*
Y140500D02*
Y144532D01*
X284670Y139480D02*
X284840Y139650D01*
X284500Y104500D02*
X284670Y104670D01*
Y139480D01*
X289566Y149425D02*
X292000Y146991D01*
Y107000D02*
Y146991D01*
X187634Y149500D02*
X189286Y151152D01*
X189751D02*
X190000Y151401D01*
X187437Y149500D02*
X187634D01*
X189286Y151152D02*
X189751D01*
X180617Y150234D02*
X182766D01*
X183500Y149500D01*
X180352Y150500D02*
X180617Y150234D01*
X180000Y150500D02*
X180352D01*
X194000Y164901D02*
Y167063D01*
X190500Y161401D02*
X194000Y164901D01*
X188000Y163901D02*
X190500Y161401D01*
X188000Y163901D02*
Y167244D01*
Y172756D02*
X188244Y173000D01*
X191500D01*
X192446Y172751D02*
X194000Y171197D01*
X191500Y173000D02*
X191749Y172751D01*
X194000Y171000D02*
Y171197D01*
X191749Y172751D02*
X192446D01*
X160500Y172500D02*
X176500Y156500D01*
X160500Y172500D02*
Y173901D01*
X176500Y156500D02*
Y156500D01*
X198734Y138618D02*
X199000Y138352D01*
Y138000D02*
Y138352D01*
X198734Y138618D02*
Y143766D01*
X198000Y148634D02*
X199474Y150108D01*
X198000Y148437D02*
Y148634D01*
X199474Y150108D02*
X199557D01*
X198000Y144500D02*
X198734Y143766D01*
X160000Y177295D02*
X178929Y158366D01*
X160000Y177295D02*
Y183901D01*
X289500Y158875D02*
X290875Y157500D01*
X289500Y158875D02*
X291625Y161000D01*
X286600Y155500D02*
X289600Y152500D01*
X275000Y155500D02*
X286600D01*
X277964Y158692D02*
Y169319D01*
X268000Y162500D02*
Y178374D01*
Y162500D02*
X275000Y155500D01*
X277964Y169319D02*
X289566Y180921D01*
X268683Y179057D02*
Y179317D01*
X268000Y178374D02*
X268683Y179057D01*
X283190Y113542D02*
Y143126D01*
X201031Y144500D02*
X205000D01*
X294438Y114562D02*
Y139062D01*
Y114562D02*
X294500Y114500D01*
X294376Y139124D02*
X294438Y139062D01*
X289000Y111483D02*
Y146530D01*
X288000Y110150D02*
Y110483D01*
X282500Y112500D02*
Y112852D01*
X283190Y113542D01*
X288000Y110483D02*
X289000Y111483D01*
X286834Y148696D02*
X289000Y146530D01*
X318000Y168575D02*
X324173Y162402D01*
Y162062D02*
Y162402D01*
X318000Y168575D02*
Y184000D01*
X290000Y171500D02*
Y173759D01*
Y168563D02*
Y171500D01*
X289783Y174583D02*
X293866Y170500D01*
X289528Y174583D02*
X289783D01*
X207592Y308825D02*
Y313908D01*
Y308825D02*
X207692Y308725D01*
X207492Y314008D02*
X207592Y313908D01*
X209342Y312192D02*
X214000Y316850D01*
X199146Y296854D02*
X209342Y307050D01*
X199146Y296646D02*
Y296854D01*
X198000Y286000D02*
Y295500D01*
X199146Y296646D01*
X209342Y307050D02*
Y312192D01*
X200000Y296500D02*
X210992Y307492D01*
X200000Y278500D02*
Y296500D01*
X210992Y307492D02*
Y311508D01*
X211500Y305500D02*
X219000Y313000D01*
X211500Y302500D02*
Y305500D01*
X112500Y112582D02*
X115000Y110082D01*
X112500Y182500D02*
X114000Y184000D01*
X112500Y112582D02*
Y182500D01*
X115000Y109000D02*
Y110082D01*
X103500Y130865D02*
Y158500D01*
X100000Y127365D02*
X103500Y130865D01*
X100000Y99000D02*
Y127365D01*
X99504Y163500D02*
X99752Y163252D01*
Y148748D02*
Y163252D01*
Y148748D02*
X100000Y148500D01*
X282203Y230297D02*
X282203D01*
X296000Y174500D02*
Y216500D01*
X279500Y233000D02*
X282203Y230297D01*
X282203D02*
X296000Y216500D01*
X209722Y298000D02*
X216313D01*
X216375Y298125D02*
Y307125D01*
Y298125D02*
X216500Y298000D01*
X216250Y307250D02*
X216375Y307125D01*
X298976Y174583D02*
X298988Y174595D01*
Y217988D01*
X299000Y218000D01*
X346000Y286000D02*
X350500Y281500D01*
Y207500D02*
Y281500D01*
X349646Y209592D02*
Y271354D01*
X341500Y279500D02*
X349646Y271354D01*
X347937Y213937D02*
Y253063D01*
X334500Y266500D02*
X347937Y253063D01*
X327400Y161675D02*
Y184400D01*
X350500Y207500D01*
X318000Y184000D02*
X347937Y213937D01*
X337531Y272532D02*
X348791Y261272D01*
X320996Y184004D02*
X348791Y211799D01*
Y261272D01*
X324025Y183971D02*
X349646Y209592D01*
X313000Y192000D02*
X313250D01*
X316250Y189000D01*
X316500D01*
X301266Y167485D02*
Y167837D01*
X301000Y167220D02*
X301266Y167485D01*
X289525Y168088D02*
X289937Y168500D01*
X289525Y165150D02*
Y168088D01*
X317523Y165200D02*
X317875D01*
X316558Y164234D02*
X317523Y165200D01*
X315703Y164234D02*
X316558D01*
X314968Y163500D02*
X315703Y164234D01*
X301266Y169297D02*
X302000Y170031D01*
X301266Y167837D02*
Y169297D01*
X301000Y167572D02*
X301266Y167837D01*
X301000Y167220D02*
Y167572D01*
X314968Y166500D02*
X315703Y165766D01*
X316957D01*
X317523Y165200D01*
X289525Y165150D02*
X289559D01*
X290708Y164000D01*
X294032D01*
X291625Y161000D02*
X294032D01*
X290875Y157500D02*
X294032D01*
X308425Y177810D02*
X308674Y177561D01*
Y176991D02*
Y177561D01*
X308425Y174394D02*
Y177810D01*
X286000Y168500D02*
X286400Y168100D01*
Y165175D02*
Y168100D01*
X298500Y161017D02*
X300631D01*
X301148Y160500D01*
X301500D01*
X307266Y168086D02*
Y169297D01*
Y168086D02*
X307500Y167852D01*
Y167469D02*
Y167852D01*
X302126Y177810D02*
X304371Y175565D01*
Y174598D02*
Y175565D01*
Y174598D02*
X305000Y173969D01*
X291375Y167000D02*
X294032D01*
X289525Y165150D02*
X291375Y167000D01*
X301500Y160148D02*
Y160500D01*
X301000Y159648D02*
X301500Y160148D01*
X301000Y159648D02*
X301266Y159382D01*
Y158203D02*
Y159382D01*
Y158203D02*
X302000Y157468D01*
X308674Y176991D02*
X311500Y174165D01*
X315671Y161234D02*
X316694D01*
X302100Y149438D02*
Y153431D01*
X316694Y161234D02*
X317522Y162062D01*
X317874D01*
X302088Y149425D02*
X302100Y149438D01*
X308464Y149425D02*
X308464D01*
X308519Y149481D01*
X317874Y161841D02*
Y162062D01*
X314500Y166969D02*
Y170031D01*
Y166969D02*
X314968Y166500D01*
X312234Y171506D02*
X314500Y173772D01*
Y173969D01*
X312234Y170766D02*
Y171506D01*
X311500Y170031D02*
X312234Y170766D01*
X308531Y157468D02*
X311500D01*
X308500Y157500D02*
X308531Y157468D01*
X311500D02*
Y160000D01*
X311000Y160500D02*
X311500Y160000D01*
X311968Y157000D02*
X315032D01*
X311500Y157468D02*
X311968Y157000D01*
X317874Y161841D02*
X318969Y160746D01*
X314937Y160500D02*
X315671Y161234D01*
X318969Y157000D02*
Y160746D01*
X304303Y173468D02*
X305000Y174165D01*
X311500Y173969D02*
Y174165D01*
X310563Y160937D02*
X311000Y160500D01*
X310563Y160937D02*
Y163031D01*
X311032Y163500D01*
X307766Y170031D02*
X308000D01*
X307266Y169532D02*
X307766Y170031D01*
X305500Y169532D02*
X307266D01*
X305000Y170031D02*
X305500Y169532D01*
X308000Y173969D02*
X308425Y174394D01*
X304500Y169532D02*
X305000Y170031D01*
X302031Y169532D02*
X304500D01*
X302000Y170031D02*
X302000Y170031D01*
X302000Y169563D02*
Y170031D01*
Y169563D02*
X302031Y169532D01*
X302500Y173468D02*
X304303D01*
X302000Y173969D02*
X302500Y173468D01*
X302336Y150702D02*
X305000Y153366D01*
X308500Y149500D02*
X308519Y149481D01*
X310932Y151893D01*
X308500Y149500D02*
Y153563D01*
X310932Y152963D02*
X311500Y153532D01*
X310932Y151893D02*
Y152963D01*
X305000Y153366D02*
Y153563D01*
X302000Y153532D02*
X302100Y153431D01*
X305000Y153563D02*
X308500D01*
X298900Y167000D02*
X300148D01*
X298801Y167098D02*
Y167636D01*
Y167098D02*
X298900Y167000D01*
X297986Y161017D02*
X298500D01*
X297969Y164000D02*
X298500Y163469D01*
Y161017D02*
Y163469D01*
X297969Y161000D02*
X297986Y161017D01*
X289937Y168500D02*
X290000Y168563D01*
X286000Y168500D02*
Y171437D01*
X286063Y171500D01*
X293866Y170500D02*
X294063D01*
X297969Y167734D02*
Y170500D01*
Y167734D02*
X298067Y167636D01*
X298801D01*
X297969Y170500D02*
X298000D01*
X293606Y157075D02*
X294032Y157500D01*
X311000Y174469D02*
X311469Y174000D01*
X160450Y341775D02*
X163600D01*
X75000Y334675D02*
X82100Y341775D01*
D68*
X199500Y151419D02*
Y151500D01*
X199557Y150108D02*
X201000Y148665D01*
X199557Y150108D02*
Y151443D01*
X199500Y151500D02*
X199557Y151443D01*
X201000Y148468D02*
Y148665D01*
X201522Y149187D01*
X204175D02*
X205000Y150012D01*
X201522Y149187D02*
X204175D01*
X211084Y321916D02*
Y341541D01*
X217000Y319500D02*
Y341625D01*
X211084Y321916D02*
X214000Y319000D01*
X210850Y341775D02*
X211084Y341541D01*
X214000Y319000D02*
Y341775D01*
X217000Y319500D02*
X217631Y320131D01*
X220300D01*
X222023Y318408D01*
X220300Y320131D02*
Y341775D01*
X216500Y319000D02*
X217000Y319500D01*
X214000Y319000D02*
X216500D01*
X217000Y341625D02*
X217150Y341775D01*
D70*
X167000Y270000D02*
D03*
D71*
X157000D02*
D03*
X167000Y280000D02*
D03*
X157000D02*
D03*
X167000Y290000D02*
D03*
X157000D02*
D03*
X167000Y300000D02*
D03*
X157000D02*
D03*
X269500Y233000D02*
D03*
D72*
X125000Y109000D02*
D03*
X120000Y99000D02*
D03*
X115000Y109000D02*
D03*
X110000Y99000D02*
D03*
X105000Y109000D02*
D03*
X100000Y99000D02*
D03*
X90000D02*
D03*
X95000Y109000D02*
D03*
D73*
X137000Y86000D02*
D03*
X78000D02*
D03*
D74*
X279500Y233000D02*
D03*
D75*
X457550Y56450D02*
D03*
X17550D02*
D03*
X457550Y296450D02*
D03*
X17550D02*
D03*
D76*
X465000Y285000D02*
D03*
Y255000D02*
D03*
Y225000D02*
D03*
Y195000D02*
D03*
Y165000D02*
D03*
Y135000D02*
D03*
Y105000D02*
D03*
Y75000D02*
D03*
Y45000D02*
D03*
X450000Y285000D02*
D03*
X457500Y270000D02*
D03*
X450000Y255000D02*
D03*
X457500Y240000D02*
D03*
X450000Y225000D02*
D03*
X457500Y210000D02*
D03*
X450000Y195000D02*
D03*
X457500Y180000D02*
D03*
X450000Y165000D02*
D03*
X457500Y150000D02*
D03*
X450000Y135000D02*
D03*
X457500Y120000D02*
D03*
X450000Y105000D02*
D03*
X457500Y90000D02*
D03*
X450000Y75000D02*
D03*
Y45000D02*
D03*
X442500Y300000D02*
D03*
X435000Y285000D02*
D03*
X442500Y270000D02*
D03*
X435000Y255000D02*
D03*
X442500Y240000D02*
D03*
X435000Y225000D02*
D03*
X442500Y210000D02*
D03*
X435000Y195000D02*
D03*
X442500Y180000D02*
D03*
X435000Y165000D02*
D03*
X442500Y150000D02*
D03*
X435000Y135000D02*
D03*
X442500Y120000D02*
D03*
X435000Y105000D02*
D03*
X442500Y90000D02*
D03*
X435000Y75000D02*
D03*
X442500Y60000D02*
D03*
X435000Y45000D02*
D03*
X427500Y300000D02*
D03*
Y270000D02*
D03*
X420000Y255000D02*
D03*
X427500Y240000D02*
D03*
X420000Y225000D02*
D03*
X427500Y210000D02*
D03*
Y180000D02*
D03*
X420000Y165000D02*
D03*
X427500Y150000D02*
D03*
Y120000D02*
D03*
X420000Y105000D02*
D03*
X427500Y90000D02*
D03*
Y60000D02*
D03*
X420000Y45000D02*
D03*
X412500Y300000D02*
D03*
X405000Y285000D02*
D03*
X412500Y270000D02*
D03*
X405000Y255000D02*
D03*
X412500Y240000D02*
D03*
X405000Y225000D02*
D03*
Y165000D02*
D03*
Y105000D02*
D03*
X412500Y90000D02*
D03*
X405000Y75000D02*
D03*
X412500Y60000D02*
D03*
X405000Y45000D02*
D03*
X397500Y300000D02*
D03*
Y270000D02*
D03*
X390000Y255000D02*
D03*
X397500Y240000D02*
D03*
X390000Y225000D02*
D03*
X397500Y210000D02*
D03*
X390000Y195000D02*
D03*
X397500Y180000D02*
D03*
X390000Y165000D02*
D03*
X397500Y150000D02*
D03*
Y120000D02*
D03*
X390000Y105000D02*
D03*
X397500Y90000D02*
D03*
X390000Y75000D02*
D03*
Y45000D02*
D03*
X382500Y300000D02*
D03*
X375000Y285000D02*
D03*
X382500Y270000D02*
D03*
X375000Y255000D02*
D03*
X382500Y240000D02*
D03*
X375000Y225000D02*
D03*
X382500Y210000D02*
D03*
X375000Y195000D02*
D03*
Y165000D02*
D03*
X382500Y150000D02*
D03*
X375000Y135000D02*
D03*
X382500Y120000D02*
D03*
X375000Y105000D02*
D03*
X382500Y90000D02*
D03*
X375000Y75000D02*
D03*
X382500Y60000D02*
D03*
X375000Y45000D02*
D03*
X367500Y300000D02*
D03*
X360000Y285000D02*
D03*
X367500Y270000D02*
D03*
Y240000D02*
D03*
X360000Y225000D02*
D03*
X367500Y210000D02*
D03*
X360000Y195000D02*
D03*
Y165000D02*
D03*
X367500Y150000D02*
D03*
X360000Y135000D02*
D03*
X367500Y120000D02*
D03*
X360000Y105000D02*
D03*
X367500Y90000D02*
D03*
X360000Y75000D02*
D03*
X367500Y60000D02*
D03*
X360000Y45000D02*
D03*
X352500Y300000D02*
D03*
X345000Y225000D02*
D03*
Y195000D02*
D03*
X352500Y150000D02*
D03*
X345000Y135000D02*
D03*
X352500Y120000D02*
D03*
X345000Y105000D02*
D03*
X352500Y90000D02*
D03*
X345000Y75000D02*
D03*
X352500Y60000D02*
D03*
X345000Y45000D02*
D03*
X337500Y300000D02*
D03*
X330000Y255000D02*
D03*
X337500Y240000D02*
D03*
Y210000D02*
D03*
Y150000D02*
D03*
Y90000D02*
D03*
X330000Y75000D02*
D03*
X337500Y60000D02*
D03*
X330000Y45000D02*
D03*
X315000Y135000D02*
D03*
X322500Y120000D02*
D03*
X315000Y105000D02*
D03*
X322500Y90000D02*
D03*
X315000Y75000D02*
D03*
X322500Y60000D02*
D03*
X315000Y45000D02*
D03*
X300000Y285000D02*
D03*
X307500Y270000D02*
D03*
Y210000D02*
D03*
Y120000D02*
D03*
Y90000D02*
D03*
X300000Y75000D02*
D03*
X307500Y60000D02*
D03*
X300000Y45000D02*
D03*
X292500Y270000D02*
D03*
X285000Y255000D02*
D03*
X292500Y240000D02*
D03*
Y210000D02*
D03*
Y90000D02*
D03*
X285000Y75000D02*
D03*
X292500Y60000D02*
D03*
X285000Y45000D02*
D03*
X277500Y300000D02*
D03*
X270000Y285000D02*
D03*
X277500Y270000D02*
D03*
X270000Y255000D02*
D03*
X277500Y240000D02*
D03*
X270000Y225000D02*
D03*
X277500Y210000D02*
D03*
Y90000D02*
D03*
X270000Y75000D02*
D03*
X277500Y60000D02*
D03*
X270000Y45000D02*
D03*
X262500Y300000D02*
D03*
X255000Y285000D02*
D03*
X262500Y270000D02*
D03*
Y240000D02*
D03*
X255000Y225000D02*
D03*
Y195000D02*
D03*
Y135000D02*
D03*
X262500Y120000D02*
D03*
Y90000D02*
D03*
X255000Y75000D02*
D03*
X262500Y60000D02*
D03*
X255000Y45000D02*
D03*
X247500Y300000D02*
D03*
X240000Y285000D02*
D03*
Y255000D02*
D03*
X247500Y210000D02*
D03*
X240000Y195000D02*
D03*
Y135000D02*
D03*
X247500Y120000D02*
D03*
Y90000D02*
D03*
X240000Y75000D02*
D03*
X247500Y60000D02*
D03*
X240000Y45000D02*
D03*
X232500Y300000D02*
D03*
X225000Y285000D02*
D03*
Y255000D02*
D03*
Y225000D02*
D03*
X232500Y210000D02*
D03*
X225000Y195000D02*
D03*
Y135000D02*
D03*
X232500Y120000D02*
D03*
Y90000D02*
D03*
X225000Y75000D02*
D03*
X232500Y60000D02*
D03*
X225000Y45000D02*
D03*
X210000Y255000D02*
D03*
Y225000D02*
D03*
X217500Y210000D02*
D03*
X210000Y195000D02*
D03*
X217500Y90000D02*
D03*
X210000Y75000D02*
D03*
X217500Y60000D02*
D03*
X210000Y45000D02*
D03*
X202500Y270000D02*
D03*
X195000Y255000D02*
D03*
Y225000D02*
D03*
X202500Y210000D02*
D03*
X195000Y195000D02*
D03*
X202500Y90000D02*
D03*
X195000Y75000D02*
D03*
X202500Y60000D02*
D03*
X195000Y45000D02*
D03*
X180000Y285000D02*
D03*
Y255000D02*
D03*
X187500Y240000D02*
D03*
X180000Y225000D02*
D03*
X187500Y210000D02*
D03*
X180000Y195000D02*
D03*
X187500Y180000D02*
D03*
X180000Y135000D02*
D03*
Y105000D02*
D03*
X187500Y90000D02*
D03*
X180000Y75000D02*
D03*
X187500Y60000D02*
D03*
X180000Y45000D02*
D03*
X165000Y285000D02*
D03*
Y255000D02*
D03*
X172500Y240000D02*
D03*
X165000Y225000D02*
D03*
X172500Y210000D02*
D03*
X165000Y195000D02*
D03*
X172500Y180000D02*
D03*
X165000Y135000D02*
D03*
X172500Y120000D02*
D03*
X165000Y105000D02*
D03*
X172500Y90000D02*
D03*
X165000Y75000D02*
D03*
X172500Y60000D02*
D03*
X165000Y45000D02*
D03*
X157500Y240000D02*
D03*
X150000Y225000D02*
D03*
X157500Y210000D02*
D03*
Y120000D02*
D03*
X150000Y105000D02*
D03*
X157500Y90000D02*
D03*
X150000Y75000D02*
D03*
X157500Y60000D02*
D03*
X150000Y45000D02*
D03*
X142500Y300000D02*
D03*
X135000Y285000D02*
D03*
X142500Y240000D02*
D03*
X135000Y225000D02*
D03*
X142500Y210000D02*
D03*
X135000Y195000D02*
D03*
X120000Y285000D02*
D03*
X127500Y270000D02*
D03*
X120000Y255000D02*
D03*
X127500Y240000D02*
D03*
X120000Y225000D02*
D03*
X127500Y210000D02*
D03*
X120000Y195000D02*
D03*
X105000Y255000D02*
D03*
X112500Y240000D02*
D03*
X105000Y225000D02*
D03*
X112500Y210000D02*
D03*
X105000Y195000D02*
D03*
X90000Y285000D02*
D03*
X97500Y270000D02*
D03*
X90000Y255000D02*
D03*
X97500Y240000D02*
D03*
X90000Y225000D02*
D03*
X97500Y210000D02*
D03*
X90000Y195000D02*
D03*
X75000Y285000D02*
D03*
X82500Y270000D02*
D03*
X75000Y255000D02*
D03*
Y225000D02*
D03*
X82500Y210000D02*
D03*
X75000Y195000D02*
D03*
X67500Y300000D02*
D03*
X60000Y285000D02*
D03*
X67500Y270000D02*
D03*
X60000Y255000D02*
D03*
Y225000D02*
D03*
X67500Y210000D02*
D03*
X60000Y195000D02*
D03*
Y165000D02*
D03*
Y135000D02*
D03*
Y105000D02*
D03*
Y75000D02*
D03*
Y45000D02*
D03*
X52500Y300000D02*
D03*
X45000Y285000D02*
D03*
Y255000D02*
D03*
Y225000D02*
D03*
X52500Y210000D02*
D03*
X45000Y195000D02*
D03*
X52500Y180000D02*
D03*
X45000Y165000D02*
D03*
X52500Y150000D02*
D03*
X45000Y135000D02*
D03*
X52500Y120000D02*
D03*
X45000Y105000D02*
D03*
X52500Y90000D02*
D03*
X45000Y75000D02*
D03*
X52500Y60000D02*
D03*
X45000Y45000D02*
D03*
X37500Y300000D02*
D03*
X30000Y285000D02*
D03*
X37500Y270000D02*
D03*
X30000Y255000D02*
D03*
X37500Y240000D02*
D03*
X30000Y225000D02*
D03*
X37500Y210000D02*
D03*
X30000Y195000D02*
D03*
X37500Y180000D02*
D03*
X30000Y165000D02*
D03*
X37500Y150000D02*
D03*
X30000Y135000D02*
D03*
X37500Y120000D02*
D03*
X30000Y105000D02*
D03*
X37500Y90000D02*
D03*
X30000Y75000D02*
D03*
X37500Y60000D02*
D03*
X30000Y45000D02*
D03*
X15000Y285000D02*
D03*
X22500Y270000D02*
D03*
X15000Y255000D02*
D03*
X22500Y240000D02*
D03*
X15000Y225000D02*
D03*
X22500Y210000D02*
D03*
X15000Y195000D02*
D03*
X22500Y180000D02*
D03*
X15000Y165000D02*
D03*
X22500Y150000D02*
D03*
X15000Y135000D02*
D03*
X22500Y120000D02*
D03*
X15000Y105000D02*
D03*
X22500Y90000D02*
D03*
X15000Y75000D02*
D03*
Y45000D02*
D03*
D77*
X254500Y150000D02*
D03*
X233000Y156500D02*
D03*
X250500Y164500D02*
D03*
X247203Y162412D02*
D03*
X244000Y160500D02*
D03*
X241000Y158500D02*
D03*
X276350Y151000D02*
D03*
X284500Y104500D02*
D03*
X292000Y107000D02*
D03*
X191500Y173000D02*
D03*
X199000Y138000D02*
D03*
X190500Y161401D02*
D03*
X176500Y156500D02*
D03*
X180000Y150500D02*
D03*
X178929Y158366D02*
D03*
X179500Y154500D02*
D03*
X195000Y156500D02*
D03*
X190000Y151401D02*
D03*
X199157Y161127D02*
D03*
X201000Y140500D02*
D03*
X180000Y161000D02*
D03*
X199500Y151500D02*
D03*
X289500Y158875D02*
D03*
X289600Y152500D02*
D03*
X277964Y158692D02*
D03*
X220850Y140193D02*
D03*
X214500Y152901D02*
D03*
X226201Y138102D02*
D03*
X221500Y120901D02*
D03*
X278000Y117000D02*
D03*
Y153000D02*
D03*
X268683Y179317D02*
D03*
X283000Y118401D02*
D03*
X307500Y114500D02*
D03*
X284840Y139650D02*
D03*
X294500Y114500D02*
D03*
X288000Y110150D02*
D03*
X282500Y112500D02*
D03*
X294376Y139124D02*
D03*
X286834Y148696D02*
D03*
X160000Y183901D02*
D03*
X160500Y173901D02*
D03*
X402500Y201500D02*
D03*
X289566Y149425D02*
D03*
X324173Y162062D02*
D03*
X292639Y174622D02*
D03*
X207492Y314008D02*
D03*
X207692Y308725D02*
D03*
X210992Y311508D02*
D03*
X214000Y316850D02*
D03*
X211500Y302500D02*
D03*
X90500Y309000D02*
D03*
X85500Y306500D02*
D03*
X78500Y308000D02*
D03*
X89683Y312187D02*
D03*
X86500Y312500D02*
D03*
X76023Y311908D02*
D03*
X222023Y318408D02*
D03*
X114000Y184000D02*
D03*
X272000Y141000D02*
D03*
X422500Y195000D02*
D03*
X100000Y148500D02*
D03*
X103500Y158500D02*
D03*
X410000Y129500D02*
D03*
X406000D02*
D03*
X413500Y179500D02*
D03*
X414000Y150000D02*
D03*
X391000Y140500D02*
D03*
X405000Y211500D02*
D03*
X394486Y191590D02*
D03*
X421000Y183000D02*
D03*
X408000Y179500D02*
D03*
X422850Y144955D02*
D03*
X270500Y276000D02*
D03*
X319000Y249000D02*
D03*
X309000D02*
D03*
X332000Y245500D02*
D03*
X133500Y313500D02*
D03*
X117500Y309500D02*
D03*
X209722Y298000D02*
D03*
X219000Y313000D02*
D03*
X198000Y286000D02*
D03*
X200000Y278500D02*
D03*
X216250Y307250D02*
D03*
X216500Y298000D02*
D03*
X298976Y174583D02*
D03*
X299000Y218000D02*
D03*
X346000Y286000D02*
D03*
X341500Y279500D02*
D03*
X334500Y266500D02*
D03*
X346000Y279500D02*
D03*
X320996Y184004D02*
D03*
X324025Y183971D02*
D03*
X316500Y189000D02*
D03*
X313000Y192000D02*
D03*
X327400Y161675D02*
D03*
X289528Y174583D02*
D03*
X289566Y180921D02*
D03*
X296000Y174500D02*
D03*
X424000Y133500D02*
D03*
X283190Y143126D02*
D03*
X236000Y291500D02*
D03*
X240500Y271500D02*
D03*
X253000Y256500D02*
D03*
X274500Y179200D02*
D03*
X99504Y163500D02*
D03*
X412500Y207500D02*
D03*
X401000Y157000D02*
D03*
X404000Y150000D02*
D03*
X428000Y189500D02*
D03*
X308464Y149425D02*
D03*
X317874Y162062D02*
D03*
X302088Y149425D02*
D03*
X308425Y177810D02*
D03*
X302126D02*
D03*
X301000Y167220D02*
D03*
X307500Y160500D02*
D03*
X301500D02*
D03*
X307500Y167469D02*
D03*
X295850Y152600D02*
D03*
X286400Y165175D02*
D03*
X317875Y165200D02*
D03*
X289525Y165150D02*
D03*
X133500Y307000D02*
D03*
X136000Y310500D02*
D03*
X136500Y314500D02*
D03*
X124500Y305500D02*
D03*
X122000Y312500D02*
D03*
X127000Y316000D02*
D03*
X227000Y273500D02*
D03*
X135000Y127500D02*
D03*
X244000Y295000D02*
D03*
X337531Y272532D02*
D03*
X326500Y271000D02*
D03*
X302000Y252500D02*
D03*
X270500Y280000D02*
D03*
X327000Y290500D02*
D03*
X293000Y280000D02*
D03*
X279500Y293000D02*
D03*
X289500Y252500D02*
D03*
X327000Y305500D02*
D03*
X280500D02*
D03*
X211500Y247000D02*
D03*
X206000Y269000D02*
D03*
X214000Y293000D02*
D03*
X105000Y276500D02*
D03*
Y302000D02*
D03*
X196500Y250500D02*
D03*
X196610Y239831D02*
D03*
D78*
X135000Y165000D02*
D03*
Y135000D02*
D03*
Y105000D02*
D03*
X127500Y180000D02*
D03*
Y150000D02*
D03*
X120000Y135000D02*
D03*
X127500Y120000D02*
D03*
X120000Y105000D02*
D03*
X127500Y90000D02*
D03*
Y60000D02*
D03*
X105000Y165000D02*
D03*
Y105000D02*
D03*
X97500Y180000D02*
D03*
X90000Y165000D02*
D03*
Y135000D02*
D03*
X97500Y120000D02*
D03*
X90000Y105000D02*
D03*
X82500Y180000D02*
D03*
X75000Y165000D02*
D03*
X82500Y150000D02*
D03*
X75000Y135000D02*
D03*
X82500Y120000D02*
D03*
X75000Y105000D02*
D03*
X82500Y90000D02*
D03*
X75000Y75000D02*
D03*
X82500Y60000D02*
D03*
X75000Y45000D02*
D03*
D92*
X129400Y340975D02*
Y341775D01*
Y340975D02*
X129500Y340875D01*
X122000Y312500D02*
X123032Y311468D01*
X129500D01*
Y340875D01*
X82500Y334675D02*
Y341375D01*
X82100Y341775D02*
X82500Y341375D01*
Y311968D02*
Y341375D01*
M02*
