G04*
G04 #@! TF.GenerationSoftware,Altium Limited,Altium Designer,21.0.9 (235)*
G04*
G04 Layer_Color=8388736*
%FSLAX25Y25*%
%MOIN*%
G70*
G04*
G04 #@! TF.SameCoordinates,8EEFB658-3B83-45AA-8D32-91A8FF088AA5*
G04*
G04*
G04 #@! TF.FilePolarity,Negative*
G04*
G01*
G75*
%ADD16R,0.22000X0.16000*%
%ADD17R,0.21000X0.16000*%
%ADD18R,1.61500X0.44500*%
%ADD19R,0.04134X0.03740*%
%ADD20R,0.02953X0.02559*%
%ADD21R,0.03740X0.04134*%
%ADD22R,0.02559X0.02953*%
%ADD23R,0.06693X0.05709*%
%ADD24R,0.03504X0.11575*%
%ADD25R,0.06100X0.03900*%
%ADD26R,0.02591X0.02591*%
%ADD27R,0.02591X0.02591*%
G04:AMPARAMS|DCode=28|XSize=51.18mil|YSize=23.62mil|CornerRadius=2.01mil|HoleSize=0mil|Usage=FLASHONLY|Rotation=90.000|XOffset=0mil|YOffset=0mil|HoleType=Round|Shape=RoundedRectangle|*
%AMROUNDEDRECTD28*
21,1,0.05118,0.01961,0,0,90.0*
21,1,0.04717,0.02362,0,0,90.0*
1,1,0.00402,0.00980,0.02358*
1,1,0.00402,0.00980,-0.02358*
1,1,0.00402,-0.00980,-0.02358*
1,1,0.00402,-0.00980,0.02358*
%
%ADD28ROUNDEDRECTD28*%
%ADD29R,0.06496X0.06102*%
%ADD30R,0.00984X0.02657*%
%ADD31R,0.02264X0.00984*%
%ADD32O,0.03937X0.01575*%
%ADD33O,0.01575X0.03937*%
%ADD34R,0.12795X0.12795*%
%ADD35R,0.07087X0.03583*%
%ADD36R,0.04921X0.07284*%
%ADD37C,0.01600*%
%ADD38R,0.08465X0.03347*%
%ADD39R,0.03347X0.08465*%
%ADD40R,0.01775X0.04375*%
%ADD41O,0.02762X0.06109*%
%ADD42R,0.30891X0.40591*%
%ADD43R,0.02559X0.40591*%
%ADD44R,0.06496X0.06496*%
%ADD45C,0.06496*%
%ADD46C,0.07100*%
%ADD47C,0.07991*%
%ADD48C,0.05091*%
%ADD49R,0.06496X0.06496*%
%ADD50C,0.13591*%
D16*
X406500Y190500D02*
D03*
D17*
X405000Y139500D02*
D03*
D18*
X143500Y343500D02*
D03*
D19*
X324500Y104256D02*
D03*
Y98744D02*
D03*
X331000Y104256D02*
D03*
Y98744D02*
D03*
X318000Y104256D02*
D03*
Y98744D02*
D03*
X318000Y110744D02*
D03*
Y116256D02*
D03*
X324500Y110744D02*
D03*
Y116256D02*
D03*
X331000Y110744D02*
D03*
Y116256D02*
D03*
X311500Y110744D02*
D03*
Y116256D02*
D03*
X311500Y104256D02*
D03*
Y98744D02*
D03*
X156000Y132744D02*
D03*
Y138256D02*
D03*
X133000Y269756D02*
D03*
Y264244D02*
D03*
X143000Y269756D02*
D03*
Y264244D02*
D03*
X148000Y269756D02*
D03*
Y264244D02*
D03*
X148000Y251244D02*
D03*
Y256756D02*
D03*
X143000Y251244D02*
D03*
Y256756D02*
D03*
X138000Y269756D02*
D03*
Y264244D02*
D03*
X138000Y251244D02*
D03*
Y256756D02*
D03*
X133000Y251244D02*
D03*
Y256756D02*
D03*
X299000Y223244D02*
D03*
Y228756D02*
D03*
X253000Y266756D02*
D03*
Y261244D02*
D03*
X185500Y195244D02*
D03*
Y200756D02*
D03*
X98000Y297756D02*
D03*
Y292244D02*
D03*
X105000Y297756D02*
D03*
Y292244D02*
D03*
X112500Y297756D02*
D03*
Y292244D02*
D03*
X98000Y279744D02*
D03*
Y285256D02*
D03*
X105000Y279744D02*
D03*
Y285256D02*
D03*
X112500Y279744D02*
D03*
Y285256D02*
D03*
X199000Y247756D02*
D03*
Y242244D02*
D03*
X194000Y242244D02*
D03*
Y247756D02*
D03*
D20*
X338032Y171500D02*
D03*
X341968D02*
D03*
X120031Y132500D02*
D03*
X123969D02*
D03*
X244468Y291500D02*
D03*
X240531D02*
D03*
X103563Y176500D02*
D03*
X107500D02*
D03*
X99468Y167000D02*
D03*
X95531D02*
D03*
X104032Y148500D02*
D03*
X107968D02*
D03*
X409031Y153000D02*
D03*
X412968D02*
D03*
X420031Y141000D02*
D03*
X423969D02*
D03*
X409969Y122000D02*
D03*
X406032D02*
D03*
X409969Y126000D02*
D03*
X406032D02*
D03*
X424968Y187000D02*
D03*
X421032D02*
D03*
X423969Y136500D02*
D03*
X420031D02*
D03*
X409031Y175500D02*
D03*
X412968D02*
D03*
X409031Y171000D02*
D03*
X412968D02*
D03*
X421032Y192000D02*
D03*
X424968D02*
D03*
X329031Y275500D02*
D03*
X332968D02*
D03*
X329532Y283000D02*
D03*
X333469D02*
D03*
X296969Y252500D02*
D03*
X293032D02*
D03*
X341469Y275500D02*
D03*
X337531D02*
D03*
X341469Y283000D02*
D03*
X337531D02*
D03*
D21*
X336744Y165500D02*
D03*
X342256D02*
D03*
X143744Y196500D02*
D03*
X149256D02*
D03*
X216744Y273500D02*
D03*
X222256D02*
D03*
X211256Y273500D02*
D03*
X205744D02*
D03*
D22*
X333000Y149469D02*
D03*
Y145531D02*
D03*
X110000Y123031D02*
D03*
Y126969D02*
D03*
X115000Y123031D02*
D03*
Y126969D02*
D03*
X404000Y153032D02*
D03*
Y156968D02*
D03*
X248000Y267032D02*
D03*
Y270969D02*
D03*
X409500Y203532D02*
D03*
Y207469D02*
D03*
X405500Y207469D02*
D03*
Y203532D02*
D03*
X168000Y194968D02*
D03*
Y191032D02*
D03*
X164500Y182032D02*
D03*
Y185968D02*
D03*
X168000Y182032D02*
D03*
Y185968D02*
D03*
X183000Y144968D02*
D03*
Y141032D02*
D03*
X191000Y147968D02*
D03*
Y144032D02*
D03*
X240500Y157032D02*
D03*
Y160968D02*
D03*
X184500Y189937D02*
D03*
Y186000D02*
D03*
X187000Y141032D02*
D03*
Y144968D02*
D03*
X161000Y138031D02*
D03*
Y141969D02*
D03*
X272000Y147968D02*
D03*
Y144032D02*
D03*
X265000Y147968D02*
D03*
Y144032D02*
D03*
X268500Y147968D02*
D03*
Y144032D02*
D03*
X277500Y306063D02*
D03*
Y310000D02*
D03*
X331000Y309968D02*
D03*
Y306031D02*
D03*
X279000Y276031D02*
D03*
Y279969D02*
D03*
X274500Y276031D02*
D03*
Y279969D02*
D03*
X275500Y291032D02*
D03*
Y294969D02*
D03*
D23*
X167169Y146150D02*
D03*
X175831D02*
D03*
X167169Y139850D02*
D03*
X175831D02*
D03*
D24*
X327500Y241024D02*
D03*
X322500D02*
D03*
X317500D02*
D03*
X312500D02*
D03*
X307500D02*
D03*
Y225000D02*
D03*
X312500D02*
D03*
X317500D02*
D03*
X322500D02*
D03*
X327500D02*
D03*
D25*
X396165Y288299D02*
D03*
Y275701D02*
D03*
X416835D02*
D03*
Y288299D02*
D03*
D26*
X77000Y295000D02*
D03*
X83500Y238500D02*
D03*
X410000Y86500D02*
D03*
X84500Y217500D02*
D03*
D27*
X180500Y290000D02*
D03*
Y300500D02*
D03*
Y280000D02*
D03*
X180000Y271000D02*
D03*
D28*
X240760Y277866D02*
D03*
X248240D02*
D03*
X244500Y286134D02*
D03*
D29*
X175000Y189500D02*
D03*
Y197374D02*
D03*
D30*
X413858Y133348D02*
D03*
X411890D02*
D03*
X409921D02*
D03*
X407953D02*
D03*
X405984D02*
D03*
X404016D02*
D03*
X402047D02*
D03*
X400079D02*
D03*
X398110D02*
D03*
X396142D02*
D03*
X413858Y145652D02*
D03*
X411890D02*
D03*
X409921D02*
D03*
X407953D02*
D03*
X405984D02*
D03*
X404016D02*
D03*
X402047D02*
D03*
X400079D02*
D03*
X398110D02*
D03*
X396142D02*
D03*
X415779Y184500D02*
D03*
X413811D02*
D03*
X411842D02*
D03*
X409874D02*
D03*
X407905D02*
D03*
X405937D02*
D03*
X403968D02*
D03*
X402000D02*
D03*
X400032D02*
D03*
X398063D02*
D03*
X415779Y196803D02*
D03*
X413811D02*
D03*
X411842D02*
D03*
X409874D02*
D03*
X407905D02*
D03*
X405937D02*
D03*
X403968D02*
D03*
X402000D02*
D03*
X400032D02*
D03*
X398063D02*
D03*
D31*
X414104Y136547D02*
D03*
Y138516D02*
D03*
Y140484D02*
D03*
Y142453D02*
D03*
X395896Y136547D02*
D03*
Y138516D02*
D03*
Y140484D02*
D03*
Y142453D02*
D03*
X416026Y187699D02*
D03*
Y189667D02*
D03*
Y191636D02*
D03*
Y193604D02*
D03*
X397817Y187699D02*
D03*
Y189667D02*
D03*
Y191636D02*
D03*
Y193604D02*
D03*
D32*
X173551Y173890D02*
D03*
Y171921D02*
D03*
Y169953D02*
D03*
Y167984D02*
D03*
Y166016D02*
D03*
Y164047D02*
D03*
Y162079D02*
D03*
Y160110D02*
D03*
X192449D02*
D03*
Y162079D02*
D03*
Y164047D02*
D03*
Y166016D02*
D03*
Y167984D02*
D03*
Y169953D02*
D03*
Y171921D02*
D03*
Y173890D02*
D03*
D33*
X176110Y157551D02*
D03*
X178079D02*
D03*
X180047D02*
D03*
X182016D02*
D03*
X183984D02*
D03*
X185953D02*
D03*
X187921D02*
D03*
X189890D02*
D03*
Y176449D02*
D03*
X187921D02*
D03*
X185953D02*
D03*
X183984D02*
D03*
X182016D02*
D03*
X180047D02*
D03*
X178079D02*
D03*
X176110D02*
D03*
D34*
X183000Y167000D02*
D03*
D35*
X121000Y184000D02*
D03*
Y179000D02*
D03*
Y174000D02*
D03*
Y169000D02*
D03*
Y164000D02*
D03*
Y159000D02*
D03*
Y154000D02*
D03*
Y149000D02*
D03*
X154504Y184000D02*
D03*
Y179000D02*
D03*
Y174000D02*
D03*
Y169000D02*
D03*
Y164000D02*
D03*
Y159000D02*
D03*
Y154000D02*
D03*
Y149000D02*
D03*
D36*
X150315Y123000D02*
D03*
X139685D02*
D03*
X139500Y132000D02*
D03*
X150130D02*
D03*
D37*
X325748Y141551D02*
D03*
X322598D02*
D03*
X319449D02*
D03*
X316299D02*
D03*
X313150D02*
D03*
X310000D02*
D03*
X306850D02*
D03*
X303701D02*
D03*
X300551D02*
D03*
X297402D02*
D03*
X294252D02*
D03*
X291102D02*
D03*
X287953D02*
D03*
X284803D02*
D03*
X281653D02*
D03*
X325748Y144701D02*
D03*
X322598D02*
D03*
X319449D02*
D03*
X316299D02*
D03*
X313150D02*
D03*
X310000D02*
D03*
X306850D02*
D03*
X303701D02*
D03*
X300551D02*
D03*
X297402D02*
D03*
X294252D02*
D03*
X291102D02*
D03*
X287953D02*
D03*
X284803D02*
D03*
X281653D02*
D03*
X325748Y147850D02*
D03*
X322598D02*
D03*
X319449D02*
D03*
X316299D02*
D03*
X313150D02*
D03*
X310000D02*
D03*
X306850D02*
D03*
X303701D02*
D03*
X300551D02*
D03*
X297402D02*
D03*
X294252D02*
D03*
X291102D02*
D03*
X287953D02*
D03*
X284803D02*
D03*
X281653D02*
D03*
X325748Y151000D02*
D03*
X322598D02*
D03*
X319449D02*
D03*
X316299D02*
D03*
X313150D02*
D03*
X310000D02*
D03*
X306850D02*
D03*
X303701D02*
D03*
X300551D02*
D03*
X297402D02*
D03*
X294252D02*
D03*
X291102D02*
D03*
X287953D02*
D03*
X284803D02*
D03*
X281653D02*
D03*
X325748Y154150D02*
D03*
X322598D02*
D03*
X319449D02*
D03*
X316299D02*
D03*
X313150D02*
D03*
X310000D02*
D03*
X306850D02*
D03*
X303701D02*
D03*
X300551D02*
D03*
X297402D02*
D03*
X294252D02*
D03*
X291102D02*
D03*
X287953D02*
D03*
X284803D02*
D03*
X281653D02*
D03*
X325748Y157299D02*
D03*
X322598D02*
D03*
X319449D02*
D03*
X316299D02*
D03*
X313150D02*
D03*
X310000D02*
D03*
X306850D02*
D03*
X303701D02*
D03*
X300551D02*
D03*
X297402D02*
D03*
X294252D02*
D03*
X291102D02*
D03*
X287953D02*
D03*
X284803D02*
D03*
X281653D02*
D03*
X325748Y160449D02*
D03*
X322598D02*
D03*
X319449D02*
D03*
X316299D02*
D03*
X313150D02*
D03*
X310000D02*
D03*
X297402D02*
D03*
X294252D02*
D03*
X291102D02*
D03*
X287953D02*
D03*
X284803D02*
D03*
X281653D02*
D03*
X325748Y163598D02*
D03*
X322598D02*
D03*
X319449D02*
D03*
X316299D02*
D03*
X313150D02*
D03*
X310000D02*
D03*
X297402D02*
D03*
X294252D02*
D03*
X291102D02*
D03*
X287953D02*
D03*
X284803D02*
D03*
X281653D02*
D03*
X325748Y166748D02*
D03*
X322598D02*
D03*
X319449D02*
D03*
X316299D02*
D03*
X313150D02*
D03*
X310000D02*
D03*
X297402D02*
D03*
X294252D02*
D03*
X291102D02*
D03*
X287953D02*
D03*
X284803D02*
D03*
X281653D02*
D03*
X325748Y169898D02*
D03*
X322598D02*
D03*
X319449D02*
D03*
X316299D02*
D03*
X313150D02*
D03*
X310000D02*
D03*
X306850D02*
D03*
X303701D02*
D03*
X300551D02*
D03*
X297402D02*
D03*
X294252D02*
D03*
X291102D02*
D03*
X287953D02*
D03*
X284803D02*
D03*
X281653D02*
D03*
X325748Y173047D02*
D03*
X322598D02*
D03*
X319449D02*
D03*
X316299D02*
D03*
X313150D02*
D03*
X310000D02*
D03*
X306850D02*
D03*
X303701D02*
D03*
X300551D02*
D03*
X297402D02*
D03*
X294252D02*
D03*
X291102D02*
D03*
X287953D02*
D03*
X284803D02*
D03*
X281653D02*
D03*
X325748Y176197D02*
D03*
X322598D02*
D03*
X319449D02*
D03*
X316299D02*
D03*
X313150D02*
D03*
X310000D02*
D03*
X306850D02*
D03*
X303701D02*
D03*
X300551D02*
D03*
X297402D02*
D03*
X294252D02*
D03*
X291102D02*
D03*
X287953D02*
D03*
X284803D02*
D03*
X281653D02*
D03*
X325748Y179347D02*
D03*
X322598D02*
D03*
X319449D02*
D03*
X316299D02*
D03*
X313150D02*
D03*
X310000D02*
D03*
X306850D02*
D03*
X303701D02*
D03*
X300551D02*
D03*
X297402D02*
D03*
X294252D02*
D03*
X291102D02*
D03*
X287953D02*
D03*
X284803D02*
D03*
X281653D02*
D03*
X325748Y182496D02*
D03*
X322598D02*
D03*
X319449D02*
D03*
X316299D02*
D03*
X313150D02*
D03*
X310000D02*
D03*
X306850D02*
D03*
X303701D02*
D03*
X300551D02*
D03*
X297402D02*
D03*
X294252D02*
D03*
X291102D02*
D03*
X287953D02*
D03*
X284803D02*
D03*
X281653D02*
D03*
X325748Y185646D02*
D03*
X322598D02*
D03*
X319449D02*
D03*
X316299D02*
D03*
X313150D02*
D03*
X310000D02*
D03*
X306850D02*
D03*
X303701D02*
D03*
X300551D02*
D03*
X297402D02*
D03*
X294252D02*
D03*
X291102D02*
D03*
X287953D02*
D03*
X284803D02*
D03*
X281653D02*
D03*
D38*
X286500Y297169D02*
D03*
Y292823D02*
D03*
Y301500D02*
D03*
Y310169D02*
D03*
Y305831D02*
D03*
Y284169D02*
D03*
Y275500D02*
D03*
Y288500D02*
D03*
Y279831D02*
D03*
Y271169D02*
D03*
X320516Y297169D02*
D03*
Y292823D02*
D03*
Y301500D02*
D03*
Y310169D02*
D03*
Y305831D02*
D03*
Y284169D02*
D03*
Y275500D02*
D03*
Y266839D02*
D03*
Y288500D02*
D03*
Y279831D02*
D03*
Y271169D02*
D03*
X286500Y266839D02*
D03*
D39*
X292760Y259752D02*
D03*
X297091D02*
D03*
X301421D02*
D03*
X310083D02*
D03*
X314413D02*
D03*
X305752D02*
D03*
D40*
X214000Y289543D02*
D03*
X216756Y282457D02*
D03*
X211244D02*
D03*
D41*
X206500Y263228D02*
D03*
X211500D02*
D03*
X216500D02*
D03*
X221500D02*
D03*
Y241772D02*
D03*
X216500D02*
D03*
X211500D02*
D03*
X206500D02*
D03*
D42*
X82100Y341775D02*
D03*
X129400D02*
D03*
D43*
X217150D02*
D03*
X214000D02*
D03*
X210850D02*
D03*
X207700D02*
D03*
X204550D02*
D03*
X201400D02*
D03*
X198250D02*
D03*
X191950D02*
D03*
X195100D02*
D03*
X188800D02*
D03*
X185650D02*
D03*
X182500D02*
D03*
X179350D02*
D03*
X176200D02*
D03*
X173050D02*
D03*
X169900D02*
D03*
X163600D02*
D03*
X160450D02*
D03*
X166750D02*
D03*
X220300D02*
D03*
D44*
X167000Y270000D02*
D03*
D45*
X157000D02*
D03*
X167000Y280000D02*
D03*
X157000D02*
D03*
X167000Y290000D02*
D03*
X157000D02*
D03*
X167000Y300000D02*
D03*
X157000D02*
D03*
X269500Y233000D02*
D03*
D46*
X51500Y218000D02*
D03*
Y238000D02*
D03*
Y274500D02*
D03*
Y294500D02*
D03*
X400500Y62000D02*
D03*
X420500D02*
D03*
D47*
X130000Y74000D02*
D03*
X85000D02*
D03*
X137000Y86000D02*
D03*
X78000D02*
D03*
D48*
X125000Y109000D02*
D03*
X120000Y99000D02*
D03*
X115000Y109000D02*
D03*
X110000Y99000D02*
D03*
X105000Y109000D02*
D03*
X100000Y99000D02*
D03*
X90000D02*
D03*
X95000Y109000D02*
D03*
D49*
X279500Y233000D02*
D03*
D50*
X457550Y56450D02*
D03*
X17550D02*
D03*
X457550Y296450D02*
D03*
X17550D02*
D03*
M02*
