G04*
G04 #@! TF.GenerationSoftware,Altium Limited,Altium Designer,21.0.9 (235)*
G04*
G04 Layer_Physical_Order=4*
G04 Layer_Color=16711680*
%FSLAX25Y25*%
%MOIN*%
G70*
G04*
G04 #@! TF.SameCoordinates,8EEFB658-3B83-45AA-8D32-91A8FF088AA5*
G04*
G04*
G04 #@! TF.FilePolarity,Positive*
G04*
G01*
G75*
%ADD15C,0.01000*%
%ADD46C,0.07100*%
%ADD51R,0.03543X0.03150*%
%ADD52R,0.02362X0.01968*%
%ADD54R,0.01968X0.02362*%
%ADD59R,0.05906X0.05512*%
%ADD68R,0.30300X0.40000*%
%ADD69R,0.01968X0.40000*%
%ADD70C,0.00354*%
%ADD71C,0.00500*%
%ADD72C,0.01500*%
%ADD73R,0.05906X0.05906*%
%ADD74C,0.05906*%
%ADD75C,0.07400*%
%ADD76C,0.04500*%
%ADD77R,0.05906X0.05906*%
%ADD78C,0.13000*%
%ADD79C,0.01772*%
%ADD80C,0.02000*%
%ADD81C,0.01800*%
%ADD82C,0.01968*%
%ADD95C,0.20000*%
G36*
X223584Y313950D02*
X223645Y313643D01*
X223819Y313383D01*
X224079Y313209D01*
X224387Y313147D01*
X291254D01*
Y292252D01*
X291367Y291981D01*
X291638Y291868D01*
X315260D01*
X315531Y291981D01*
X315643Y292252D01*
Y313147D01*
X474247D01*
Y39753D01*
X145500D01*
Y190000D01*
X68500D01*
Y39753D01*
X853D01*
Y313147D01*
X63386D01*
X63694Y313209D01*
X63954Y313383D01*
X64128Y313643D01*
X64189Y313950D01*
Y314000D01*
X111363D01*
X111703Y313633D01*
X111614Y312500D01*
X111741Y310875D01*
X112122Y309290D01*
X112746Y307785D01*
X113597Y306395D01*
X114656Y305156D01*
X115688Y304124D01*
X116927Y303065D01*
X118317Y302214D01*
X119822Y301590D01*
X121407Y301209D01*
X123032Y301082D01*
X129500D01*
X131125Y301209D01*
X132710Y301590D01*
X134215Y302214D01*
X135605Y303065D01*
X136844Y304124D01*
X137903Y305363D01*
X138754Y306753D01*
X139378Y308259D01*
X139759Y309843D01*
X139886Y311468D01*
Y314000D01*
X149084D01*
Y313950D01*
X149145Y313643D01*
X149319Y313383D01*
X149579Y313209D01*
X149887Y313147D01*
X156886D01*
X157194Y313209D01*
X157454Y313383D01*
X157628Y313643D01*
X157689Y313950D01*
Y321000D01*
X223584D01*
Y313950D01*
D02*
G37*
%LPC*%
G36*
X214279Y318250D02*
X213721D01*
X213207Y318037D01*
X212813Y317643D01*
X212600Y317128D01*
Y316571D01*
X212657Y316433D01*
X208915Y312690D01*
X208715Y312702D01*
X208396Y312793D01*
X208379Y312915D01*
X208679Y313215D01*
X208892Y313730D01*
Y314287D01*
X208679Y314801D01*
X208285Y315195D01*
X207770Y315408D01*
X207213D01*
X206699Y315195D01*
X206305Y314801D01*
X206092Y314287D01*
Y313730D01*
X206305Y313215D01*
X206699Y312821D01*
X206938Y312722D01*
Y309928D01*
X206899Y309912D01*
X206505Y309518D01*
X206292Y309003D01*
Y308447D01*
X206505Y307932D01*
X206899Y307538D01*
X207413Y307325D01*
X207970D01*
X207995Y307335D01*
X208278Y306911D01*
X198683Y297316D01*
X198536Y296961D01*
X197538Y295963D01*
X197346Y295500D01*
Y287244D01*
X197207Y287187D01*
X196813Y286793D01*
X196600Y286279D01*
Y285721D01*
X196813Y285207D01*
X197207Y284813D01*
X197722Y284600D01*
X198278D01*
X198793Y284813D01*
X198846Y284866D01*
X199346Y284659D01*
Y279744D01*
X199207Y279687D01*
X198813Y279293D01*
X198600Y278779D01*
Y278222D01*
X198813Y277707D01*
X199207Y277313D01*
X199722Y277100D01*
X200278D01*
X200793Y277313D01*
X201187Y277707D01*
X201400Y278222D01*
Y278779D01*
X201187Y279293D01*
X200793Y279687D01*
X200654Y279744D01*
Y296229D01*
X210573Y306148D01*
X210997Y305865D01*
X210846Y305500D01*
Y303744D01*
X210707Y303687D01*
X210313Y303293D01*
X210100Y302779D01*
Y302221D01*
X210313Y301707D01*
X210707Y301313D01*
X211222Y301100D01*
X211778D01*
X212293Y301313D01*
X212687Y301707D01*
X212900Y302221D01*
Y302779D01*
X212687Y303293D01*
X212293Y303687D01*
X212154Y303744D01*
Y305229D01*
X214350Y307425D01*
X214850Y307218D01*
Y306972D01*
X215063Y306457D01*
X215457Y306063D01*
X215721Y305954D01*
Y299193D01*
X215707Y299187D01*
X215313Y298793D01*
X215256Y298654D01*
X210966D01*
X210909Y298793D01*
X210515Y299187D01*
X210000Y299400D01*
X209444D01*
X208929Y299187D01*
X208535Y298793D01*
X208322Y298278D01*
Y297722D01*
X208535Y297207D01*
X208929Y296813D01*
X209444Y296600D01*
X210000D01*
X210515Y296813D01*
X210909Y297207D01*
X210966Y297346D01*
X215256D01*
X215313Y297207D01*
X215707Y296813D01*
X216221Y296600D01*
X216778D01*
X217293Y296813D01*
X217687Y297207D01*
X217900Y297722D01*
Y298278D01*
X217687Y298793D01*
X217293Y299187D01*
X217029Y299296D01*
Y306057D01*
X217043Y306063D01*
X217437Y306457D01*
X217650Y306972D01*
Y307528D01*
X217437Y308043D01*
X217043Y308437D01*
X216529Y308650D01*
X216282D01*
X216075Y309150D01*
X218583Y311658D01*
X218722Y311600D01*
X219279D01*
X219793Y311813D01*
X220187Y312207D01*
X220400Y312721D01*
Y313279D01*
X220187Y313793D01*
X219793Y314187D01*
X219279Y314400D01*
X218722D01*
X218207Y314187D01*
X217813Y313793D01*
X217600Y313279D01*
Y312721D01*
X217657Y312583D01*
X211919Y306844D01*
X211495Y307127D01*
X211646Y307492D01*
Y310264D01*
X211785Y310321D01*
X212179Y310715D01*
X212392Y311230D01*
Y311787D01*
X212179Y312301D01*
X211785Y312695D01*
X211567Y312785D01*
X211445Y313370D01*
X213583Y315508D01*
X213721Y315450D01*
X214279D01*
X214793Y315663D01*
X215187Y316057D01*
X215400Y316571D01*
Y317128D01*
X215187Y317643D01*
X214793Y318037D01*
X214279Y318250D01*
D02*
G37*
G36*
X105279Y303400D02*
X104721D01*
X104207Y303187D01*
X103813Y302793D01*
X103600Y302278D01*
Y301722D01*
X103813Y301207D01*
X104207Y300813D01*
X104721Y300600D01*
X105279D01*
X105793Y300813D01*
X106187Y301207D01*
X106400Y301722D01*
Y302278D01*
X106187Y302793D01*
X105793Y303187D01*
X105279Y303400D01*
D02*
G37*
G36*
X167435Y303307D02*
X166565D01*
X165724Y303082D01*
X164969Y302646D01*
X164354Y302031D01*
X163918Y301276D01*
X163693Y300435D01*
Y299565D01*
X163918Y298724D01*
X164354Y297969D01*
X164969Y297354D01*
X165724Y296918D01*
X166565Y296693D01*
X167435D01*
X168277Y296918D01*
X169031Y297354D01*
X169646Y297969D01*
X170082Y298724D01*
X170307Y299565D01*
Y300435D01*
X170082Y301276D01*
X169646Y302031D01*
X169031Y302646D01*
X168277Y303082D01*
X167435Y303307D01*
D02*
G37*
G36*
X157435D02*
X156565D01*
X155724Y303082D01*
X154969Y302646D01*
X154354Y302031D01*
X153918Y301276D01*
X153693Y300435D01*
Y299565D01*
X153918Y298724D01*
X154354Y297969D01*
X154969Y297354D01*
X155724Y296918D01*
X156565Y296693D01*
X157435D01*
X158276Y296918D01*
X159031Y297354D01*
X159646Y297969D01*
X160082Y298724D01*
X160307Y299565D01*
Y300435D01*
X160082Y301276D01*
X159646Y302031D01*
X159031Y302646D01*
X158276Y303082D01*
X157435Y303307D01*
D02*
G37*
G36*
X52014Y298404D02*
X50986D01*
X49993Y298138D01*
X49103Y297624D01*
X48376Y296897D01*
X47862Y296007D01*
X47596Y295014D01*
Y293986D01*
X47862Y292993D01*
X48376Y292103D01*
X49103Y291376D01*
X49993Y290862D01*
X50986Y290596D01*
X52014D01*
X53007Y290862D01*
X53897Y291376D01*
X54624Y292103D01*
X55138Y292993D01*
X55404Y293986D01*
Y295014D01*
X55138Y296007D01*
X54624Y296897D01*
X53897Y297624D01*
X53007Y298138D01*
X52014Y298404D01*
D02*
G37*
G36*
X236279Y292900D02*
X235721D01*
X235207Y292687D01*
X234813Y292293D01*
X234600Y291778D01*
Y291221D01*
X234813Y290707D01*
X235207Y290313D01*
X235721Y290100D01*
X236279D01*
X236793Y290313D01*
X237187Y290707D01*
X237400Y291221D01*
Y291778D01*
X237187Y292293D01*
X236793Y292687D01*
X236279Y292900D01*
D02*
G37*
G36*
X458287Y303935D02*
X456813D01*
X455367Y303647D01*
X454005Y303083D01*
X452779Y302264D01*
X451737Y301221D01*
X450918Y299995D01*
X450353Y298633D01*
X450066Y297187D01*
Y295713D01*
X450353Y294267D01*
X450918Y292905D01*
X451737Y291679D01*
X452779Y290637D01*
X454005Y289818D01*
X455367Y289254D01*
X456813Y288966D01*
X458287D01*
X459733Y289254D01*
X461095Y289818D01*
X462321Y290637D01*
X463363Y291679D01*
X464182Y292905D01*
X464747Y294267D01*
X465034Y295713D01*
Y297187D01*
X464747Y298633D01*
X464182Y299995D01*
X463363Y301221D01*
X462321Y302264D01*
X461095Y303083D01*
X459733Y303647D01*
X458287Y303935D01*
D02*
G37*
G36*
X18287D02*
X16813D01*
X15367Y303647D01*
X14005Y303083D01*
X12779Y302264D01*
X11737Y301221D01*
X10917Y299995D01*
X10353Y298633D01*
X10066Y297187D01*
Y295713D01*
X10353Y294267D01*
X10917Y292905D01*
X11737Y291679D01*
X12779Y290637D01*
X14005Y289818D01*
X15367Y289254D01*
X16813Y288966D01*
X18287D01*
X19733Y289254D01*
X21095Y289818D01*
X22321Y290637D01*
X23363Y291679D01*
X24182Y292905D01*
X24747Y294267D01*
X25034Y295713D01*
Y297187D01*
X24747Y298633D01*
X24182Y299995D01*
X23363Y301221D01*
X22321Y302264D01*
X21095Y303083D01*
X19733Y303647D01*
X18287Y303935D01*
D02*
G37*
G36*
X167435Y293307D02*
X166565D01*
X165724Y293082D01*
X164969Y292646D01*
X164354Y292031D01*
X163918Y291277D01*
X163693Y290435D01*
Y289565D01*
X163918Y288723D01*
X164354Y287969D01*
X164969Y287354D01*
X165724Y286918D01*
X166565Y286693D01*
X167435D01*
X168277Y286918D01*
X169031Y287354D01*
X169646Y287969D01*
X170082Y288723D01*
X170307Y289565D01*
Y290435D01*
X170082Y291277D01*
X169646Y292031D01*
X169031Y292646D01*
X168277Y293082D01*
X167435Y293307D01*
D02*
G37*
G36*
X157435D02*
X156565D01*
X155724Y293082D01*
X154969Y292646D01*
X154354Y292031D01*
X153918Y291277D01*
X153693Y290435D01*
Y289565D01*
X153918Y288723D01*
X154354Y287969D01*
X154969Y287354D01*
X155724Y286918D01*
X156565Y286693D01*
X157435D01*
X158276Y286918D01*
X159031Y287354D01*
X159646Y287969D01*
X160082Y288723D01*
X160307Y289565D01*
Y290435D01*
X160082Y291277D01*
X159646Y292031D01*
X159031Y292646D01*
X158276Y293082D01*
X157435Y293307D01*
D02*
G37*
G36*
X270778Y281400D02*
X270221D01*
X269707Y281187D01*
X269313Y280793D01*
X269100Y280278D01*
Y279721D01*
X269313Y279207D01*
X269707Y278813D01*
X270221Y278600D01*
X270778D01*
X271293Y278813D01*
X271687Y279207D01*
X271900Y279721D01*
Y280278D01*
X271687Y280793D01*
X271293Y281187D01*
X270778Y281400D01*
D02*
G37*
G36*
X167435Y283307D02*
X166565D01*
X165724Y283082D01*
X164969Y282646D01*
X164354Y282031D01*
X163918Y281276D01*
X163693Y280435D01*
Y279565D01*
X163918Y278724D01*
X164354Y277969D01*
X164969Y277354D01*
X165724Y276918D01*
X166565Y276693D01*
X167435D01*
X168277Y276918D01*
X169031Y277354D01*
X169646Y277969D01*
X170082Y278724D01*
X170307Y279565D01*
Y280435D01*
X170082Y281276D01*
X169646Y282031D01*
X169031Y282646D01*
X168277Y283082D01*
X167435Y283307D01*
D02*
G37*
G36*
X157435D02*
X156565D01*
X155724Y283082D01*
X154969Y282646D01*
X154354Y282031D01*
X153918Y281276D01*
X153693Y280435D01*
Y279565D01*
X153918Y278724D01*
X154354Y277969D01*
X154969Y277354D01*
X155724Y276918D01*
X156565Y276693D01*
X157435D01*
X158276Y276918D01*
X159031Y277354D01*
X159646Y277969D01*
X160082Y278724D01*
X160307Y279565D01*
Y280435D01*
X160082Y281276D01*
X159646Y282031D01*
X159031Y282646D01*
X158276Y283082D01*
X157435Y283307D01*
D02*
G37*
G36*
X52013Y278400D02*
X51675D01*
Y274675D01*
X55400D01*
Y275013D01*
X55134Y276005D01*
X54621Y276895D01*
X53895Y277621D01*
X53005Y278134D01*
X52013Y278400D01*
D02*
G37*
G36*
X51325D02*
X50987D01*
X49995Y278134D01*
X49105Y277621D01*
X48379Y276895D01*
X47866Y276005D01*
X47600Y275013D01*
Y274675D01*
X51325D01*
Y278400D01*
D02*
G37*
G36*
X346279Y287400D02*
X345722D01*
X345207Y287187D01*
X344813Y286793D01*
X344600Y286279D01*
Y285721D01*
X344813Y285207D01*
X345207Y284813D01*
X345722Y284600D01*
X346279D01*
X346417Y284658D01*
X349846Y281229D01*
Y272732D01*
X349384Y272541D01*
X342843Y279083D01*
X342900Y279222D01*
Y279779D01*
X342687Y280293D01*
X342293Y280687D01*
X341778Y280900D01*
X341221D01*
X340707Y280687D01*
X340313Y280293D01*
X340100Y279779D01*
Y279222D01*
X340313Y278707D01*
X340707Y278313D01*
X341221Y278100D01*
X341778D01*
X341917Y278157D01*
X348992Y271083D01*
Y262650D01*
X348530Y262458D01*
X338874Y272114D01*
X338931Y272253D01*
Y272810D01*
X338718Y273324D01*
X338324Y273718D01*
X337810Y273932D01*
X337253D01*
X336738Y273718D01*
X336345Y273324D01*
X336132Y272810D01*
Y272253D01*
X336345Y271739D01*
X336738Y271345D01*
X337253Y271131D01*
X337810D01*
X337949Y271189D01*
X348137Y261001D01*
Y254441D01*
X347675Y254250D01*
X335842Y266083D01*
X335900Y266221D01*
Y266778D01*
X335687Y267293D01*
X335293Y267687D01*
X334778Y267900D01*
X334222D01*
X333707Y267687D01*
X333313Y267293D01*
X333100Y266778D01*
Y266221D01*
X333313Y265707D01*
X333707Y265313D01*
X334222Y265100D01*
X334778D01*
X334917Y265158D01*
X347283Y252792D01*
Y214208D01*
X317537Y184462D01*
X317346Y184000D01*
Y168575D01*
X317537Y168113D01*
X318760Y166890D01*
X318477Y166466D01*
X318154Y166600D01*
X317597D01*
X317082Y166387D01*
X317069Y166374D01*
X316957Y166420D01*
X316504D01*
Y167839D01*
X315154D01*
Y168496D01*
X315839D01*
Y171567D01*
X313333D01*
X313161Y171567D01*
X312664Y171563D01*
X311675D01*
Y170031D01*
Y168500D01*
X312664D01*
X313161Y168496D01*
X313333Y168496D01*
X313846D01*
Y167839D01*
X313433D01*
Y165161D01*
X313433D01*
Y164839D01*
X313433D01*
Y162161D01*
X313433D01*
X313402Y161839D01*
X313402D01*
X313402Y161674D01*
Y159161D01*
X316472D01*
Y160580D01*
X316694D01*
X317157Y160772D01*
X317208Y160823D01*
X317596Y160662D01*
X318128D01*
X318314Y160475D01*
Y158339D01*
X317433D01*
Y155661D01*
X320504D01*
Y158339D01*
X319623D01*
Y160746D01*
X319431Y161209D01*
X319152Y161488D01*
X319274Y161784D01*
Y162340D01*
X319061Y162855D01*
X318667Y163249D01*
X318398Y163360D01*
Y163901D01*
X318668Y164013D01*
X319062Y164407D01*
X319275Y164921D01*
Y165479D01*
X319141Y165802D01*
X319565Y166085D01*
X322930Y162720D01*
X322773Y162341D01*
Y161784D01*
X322986Y161269D01*
X323380Y160875D01*
X323895Y160662D01*
X324452D01*
X324966Y160875D01*
X325360Y161269D01*
X325500Y161607D01*
X326000Y161507D01*
Y161397D01*
X326213Y160882D01*
X326607Y160488D01*
X327121Y160275D01*
X327678D01*
X328193Y160488D01*
X328587Y160882D01*
X328800Y161397D01*
Y161953D01*
X328587Y162468D01*
X328193Y162862D01*
X328054Y162919D01*
Y184129D01*
X350962Y207037D01*
X351154Y207500D01*
Y281500D01*
X350962Y281962D01*
X347342Y285583D01*
X347400Y285721D01*
Y286279D01*
X347187Y286793D01*
X346793Y287187D01*
X346279Y287400D01*
D02*
G37*
G36*
X55400Y274325D02*
X51675D01*
Y270600D01*
X52013D01*
X53005Y270866D01*
X53895Y271379D01*
X54621Y272105D01*
X55134Y272995D01*
X55400Y273987D01*
Y274325D01*
D02*
G37*
G36*
X51325D02*
X47600D01*
Y273987D01*
X47866Y272995D01*
X48379Y272105D01*
X49105Y271379D01*
X49995Y270866D01*
X50987Y270600D01*
X51325D01*
Y274325D01*
D02*
G37*
G36*
X240778Y272900D02*
X240222D01*
X239707Y272687D01*
X239313Y272293D01*
X239100Y271778D01*
Y271221D01*
X239313Y270707D01*
X239707Y270313D01*
X240222Y270100D01*
X240778D01*
X241293Y270313D01*
X241687Y270707D01*
X241900Y271221D01*
Y271778D01*
X241687Y272293D01*
X241293Y272687D01*
X240778Y272900D01*
D02*
G37*
G36*
X170307Y273307D02*
X163693D01*
Y266693D01*
X170307D01*
Y273307D01*
D02*
G37*
G36*
X157435D02*
X156565D01*
X155724Y273082D01*
X154969Y272646D01*
X154354Y272031D01*
X153918Y271276D01*
X153693Y270435D01*
Y269565D01*
X153918Y268724D01*
X154354Y267969D01*
X154969Y267354D01*
X155724Y266918D01*
X156565Y266693D01*
X157435D01*
X158276Y266918D01*
X159031Y267354D01*
X159646Y267969D01*
X160082Y268724D01*
X160307Y269565D01*
Y270435D01*
X160082Y271276D01*
X159646Y272031D01*
X159031Y272646D01*
X158276Y273082D01*
X157435Y273307D01*
D02*
G37*
G36*
X289778Y253900D02*
X289222D01*
X288707Y253687D01*
X288313Y253293D01*
X288100Y252779D01*
Y252221D01*
X288313Y251707D01*
X288707Y251313D01*
X289222Y251100D01*
X289778D01*
X290293Y251313D01*
X290687Y251707D01*
X290900Y252221D01*
Y252779D01*
X290687Y253293D01*
X290293Y253687D01*
X289778Y253900D01*
D02*
G37*
G36*
X196779Y251900D02*
X196221D01*
X195707Y251687D01*
X195313Y251293D01*
X195100Y250779D01*
Y250221D01*
X195313Y249707D01*
X195707Y249313D01*
X196221Y249100D01*
X196779D01*
X197293Y249313D01*
X197687Y249707D01*
X197900Y250221D01*
Y250779D01*
X197687Y251293D01*
X197293Y251687D01*
X196779Y251900D01*
D02*
G37*
G36*
X332278Y246900D02*
X331721D01*
X331207Y246687D01*
X330813Y246293D01*
X330600Y245778D01*
Y245221D01*
X330813Y244707D01*
X331207Y244313D01*
X331721Y244100D01*
X332278D01*
X332793Y244313D01*
X333187Y244707D01*
X333400Y245221D01*
Y245778D01*
X333187Y246293D01*
X332793Y246687D01*
X332278Y246900D01*
D02*
G37*
G36*
X52014Y241904D02*
X50986D01*
X49993Y241638D01*
X49103Y241124D01*
X48376Y240397D01*
X47862Y239507D01*
X47596Y238514D01*
Y237486D01*
X47862Y236493D01*
X48376Y235603D01*
X49103Y234876D01*
X49993Y234362D01*
X50986Y234096D01*
X52014D01*
X53007Y234362D01*
X53897Y234876D01*
X54624Y235603D01*
X55138Y236493D01*
X55404Y237486D01*
Y238514D01*
X55138Y239507D01*
X54624Y240397D01*
X53897Y241124D01*
X53007Y241638D01*
X52014Y241904D01*
D02*
G37*
G36*
X269935Y236303D02*
X269675D01*
Y233175D01*
X272803D01*
Y233435D01*
X272578Y234275D01*
X272143Y235028D01*
X271528Y235643D01*
X270775Y236078D01*
X269935Y236303D01*
D02*
G37*
G36*
X269325D02*
X269065D01*
X268225Y236078D01*
X267472Y235643D01*
X266857Y235028D01*
X266422Y234275D01*
X266197Y233435D01*
Y233175D01*
X269325D01*
Y236303D01*
D02*
G37*
G36*
X272803Y232825D02*
X269675D01*
Y229697D01*
X269935D01*
X270775Y229922D01*
X271528Y230357D01*
X272143Y230972D01*
X272578Y231725D01*
X272803Y232565D01*
Y232825D01*
D02*
G37*
G36*
X269325D02*
X266197D01*
Y232565D01*
X266422Y231725D01*
X266857Y230972D01*
X267472Y230357D01*
X268225Y229922D01*
X269065Y229697D01*
X269325D01*
Y232825D01*
D02*
G37*
G36*
X52013Y221900D02*
X51675D01*
Y218175D01*
X55400D01*
Y218513D01*
X55134Y219505D01*
X54621Y220395D01*
X53895Y221121D01*
X53005Y221634D01*
X52013Y221900D01*
D02*
G37*
G36*
X51325D02*
X50987D01*
X49995Y221634D01*
X49105Y221121D01*
X48379Y220395D01*
X47866Y219505D01*
X47600Y218513D01*
Y218175D01*
X51325D01*
Y221900D01*
D02*
G37*
G36*
X55400Y217825D02*
X51675D01*
Y214100D01*
X52013D01*
X53005Y214366D01*
X53895Y214879D01*
X54621Y215605D01*
X55134Y216495D01*
X55400Y217487D01*
Y217825D01*
D02*
G37*
G36*
X51325D02*
X47600D01*
Y217487D01*
X47866Y216495D01*
X48379Y215605D01*
X49105Y214879D01*
X49995Y214366D01*
X50987Y214100D01*
X51325D01*
Y217825D01*
D02*
G37*
G36*
X405278Y212900D02*
X404721D01*
X404207Y212687D01*
X403813Y212293D01*
X403600Y211778D01*
Y211222D01*
X403813Y210707D01*
X404207Y210313D01*
X404721Y210100D01*
X405278D01*
X405793Y210313D01*
X406187Y210707D01*
X406400Y211222D01*
Y211778D01*
X406187Y212293D01*
X405793Y212687D01*
X405278Y212900D01*
D02*
G37*
G36*
X184733Y206198D02*
X184176D01*
X183661Y205985D01*
X183268Y205591D01*
X183054Y205077D01*
Y204520D01*
X183268Y204005D01*
X183661Y203611D01*
X184176Y203398D01*
X184733D01*
X185248Y203611D01*
X185641Y204005D01*
X185854Y204520D01*
Y205077D01*
X185641Y205591D01*
X185248Y205985D01*
X184733Y206198D01*
D02*
G37*
G36*
X166233Y199198D02*
X165676D01*
X165161Y198985D01*
X164768Y198591D01*
X164554Y198077D01*
Y197520D01*
X164768Y197005D01*
X165161Y196611D01*
X165676Y196398D01*
X166233D01*
X166747Y196611D01*
X167141Y197005D01*
X167354Y197520D01*
Y198077D01*
X167141Y198591D01*
X166747Y198985D01*
X166233Y199198D01*
D02*
G37*
G36*
X422779Y196400D02*
X422222D01*
X421707Y196187D01*
X421313Y195793D01*
X421100Y195279D01*
Y194721D01*
X421313Y194207D01*
X421707Y193813D01*
X422222Y193600D01*
X422779D01*
X423293Y193813D01*
X423687Y194207D01*
X423900Y194721D01*
Y195279D01*
X423687Y195793D01*
X423293Y196187D01*
X422779Y196400D01*
D02*
G37*
G36*
X428278Y190900D02*
X427722D01*
X427207Y190687D01*
X426813Y190293D01*
X426600Y189778D01*
Y189222D01*
X426813Y188707D01*
X427207Y188313D01*
X427722Y188100D01*
X428278D01*
X428793Y188313D01*
X429187Y188707D01*
X429400Y189222D01*
Y189778D01*
X429187Y190293D01*
X428793Y190687D01*
X428278Y190900D01*
D02*
G37*
G36*
X313279Y193400D02*
X312721D01*
X312207Y193187D01*
X311813Y192793D01*
X311600Y192279D01*
Y191721D01*
X311813Y191207D01*
X312207Y190813D01*
X312721Y190600D01*
X313279D01*
X313594Y190731D01*
X315100Y189225D01*
Y188722D01*
X315313Y188207D01*
X315707Y187813D01*
X316221Y187600D01*
X316778D01*
X317293Y187813D01*
X317687Y188207D01*
X317900Y188722D01*
Y189278D01*
X317687Y189793D01*
X317293Y190187D01*
X316778Y190400D01*
X316221D01*
X315906Y190269D01*
X314400Y191775D01*
Y192279D01*
X314187Y192793D01*
X313793Y193187D01*
X313279Y193400D01*
D02*
G37*
G36*
X271654Y187524D02*
X271097D01*
X270583Y187311D01*
X270189Y186917D01*
X269976Y186403D01*
Y185846D01*
X270189Y185331D01*
X270583Y184938D01*
X270846Y184828D01*
Y180787D01*
X270346Y180470D01*
X270112Y180567D01*
X269555D01*
X269154Y180834D01*
Y182756D01*
X269293Y182813D01*
X269687Y183207D01*
X269900Y183721D01*
Y184279D01*
X269687Y184793D01*
X269293Y185187D01*
X268778Y185400D01*
X268221D01*
X267707Y185187D01*
X267313Y184793D01*
X267100Y184279D01*
Y183721D01*
X267263Y183328D01*
X266990Y182969D01*
X266930Y182925D01*
X266629Y183050D01*
X266072D01*
X265557Y182837D01*
X265163Y182443D01*
X264950Y181929D01*
Y181371D01*
X265163Y180857D01*
X265557Y180463D01*
X265696Y180406D01*
Y163650D01*
X265887Y163188D01*
X274346Y154729D01*
Y141146D01*
X274207Y141088D01*
X273900Y140781D01*
X273491Y140882D01*
X273400Y140934D01*
Y141279D01*
X273187Y141793D01*
X272793Y142187D01*
X272278Y142400D01*
X271722D01*
X271207Y142187D01*
X270813Y141793D01*
X270600Y141279D01*
Y140721D01*
X270813Y140207D01*
X271207Y139813D01*
X271722Y139600D01*
X272278D01*
X272793Y139813D01*
X273100Y140120D01*
X273509Y140020D01*
X273600Y139967D01*
Y139623D01*
X273813Y139108D01*
X274207Y138714D01*
X274722Y138501D01*
X275278D01*
X275793Y138714D01*
X276187Y139108D01*
X276400Y139623D01*
Y140180D01*
X276187Y140694D01*
X275793Y141088D01*
X275654Y141146D01*
Y154059D01*
X276116Y154251D01*
X278329Y152038D01*
X278792Y151846D01*
X283029D01*
X285007Y149868D01*
X284939Y149704D01*
Y149147D01*
X285153Y148632D01*
X285546Y148238D01*
X286061Y148025D01*
X286618D01*
X287132Y148238D01*
X287526Y148632D01*
X287703Y149058D01*
X287721Y149062D01*
X288184D01*
X288203Y149058D01*
X288379Y148632D01*
X288773Y148238D01*
X288879Y148195D01*
Y129608D01*
X288707Y129537D01*
X288313Y129143D01*
X288100Y128629D01*
Y128071D01*
X288313Y127557D01*
X288707Y127163D01*
X289222Y126950D01*
X289778D01*
X290293Y127163D01*
X290687Y127557D01*
X290900Y128071D01*
Y128629D01*
X290687Y129143D01*
X290293Y129537D01*
X290187Y129581D01*
Y148167D01*
X290359Y148238D01*
X290753Y148632D01*
X290966Y149147D01*
Y149704D01*
X290753Y150218D01*
X290359Y150612D01*
X290183Y150685D01*
Y151226D01*
X290393Y151313D01*
X290787Y151707D01*
X291000Y152222D01*
Y152368D01*
X291500Y152575D01*
X295211Y148864D01*
Y144370D01*
X295072Y144313D01*
X294678Y143919D01*
X294465Y143404D01*
Y142848D01*
X294678Y142333D01*
X295072Y141939D01*
X295587Y141726D01*
X296144D01*
X296658Y141939D01*
X297052Y142333D01*
X297265Y142848D01*
Y143404D01*
X297052Y143919D01*
X296658Y144313D01*
X296519Y144370D01*
Y149135D01*
X296328Y149597D01*
X288828Y157097D01*
X289112Y157520D01*
X289222Y157475D01*
X289778D01*
X289917Y157533D01*
X290412Y157037D01*
X290875Y156846D01*
X292496D01*
Y156161D01*
X295567D01*
Y158839D01*
X292496D01*
Y158154D01*
X291192D01*
X290878Y158543D01*
X290900Y158597D01*
Y159153D01*
X290843Y159292D01*
X291896Y160346D01*
X292496D01*
Y159661D01*
X295567D01*
Y162161D01*
X295567Y162661D01*
X295567Y162839D01*
Y165339D01*
X295567D01*
Y165661D01*
X295567D01*
Y168339D01*
X292496D01*
Y167654D01*
X291472D01*
Y169839D01*
X291473D01*
X291535Y170161D01*
X291535Y170161D01*
X291535Y170312D01*
Y171252D01*
X291997Y171444D01*
X292528Y170914D01*
Y169161D01*
X295598D01*
Y171839D01*
X293453D01*
X290928Y174364D01*
Y174862D01*
X290714Y175376D01*
X290321Y175770D01*
X289806Y175984D01*
X289249D01*
X288735Y175770D01*
X288341Y175376D01*
X288128Y174862D01*
Y174305D01*
X288341Y173790D01*
X288735Y173397D01*
X288875Y173339D01*
X288775Y172839D01*
X288465D01*
Y170161D01*
X288465D01*
X288402Y169839D01*
X288402Y169839D01*
X288402Y169687D01*
Y167161D01*
X288871D01*
Y166394D01*
X288732Y166337D01*
X288338Y165943D01*
X288125Y165428D01*
Y164872D01*
X288338Y164357D01*
X288732Y163963D01*
X289247Y163750D01*
X289804D01*
X289966Y163817D01*
X290246Y163538D01*
X290708Y163346D01*
X292143D01*
X292496Y162992D01*
X292496Y162339D01*
X292496Y162161D01*
Y161654D01*
X291625D01*
X291162Y161462D01*
X289917Y160217D01*
X289778Y160275D01*
X289222D01*
X288707Y160062D01*
X288313Y159668D01*
X288100Y159153D01*
Y158597D01*
X288145Y158487D01*
X287722Y158203D01*
X272154Y173771D01*
Y184932D01*
X272169Y184938D01*
X272563Y185331D01*
X272776Y185846D01*
Y186403D01*
X272563Y186917D01*
X272169Y187311D01*
X271654Y187524D01*
D02*
G37*
G36*
X289845Y182321D02*
X289288D01*
X288773Y182108D01*
X288379Y181714D01*
X288166Y181200D01*
Y180643D01*
X288224Y180504D01*
X282374Y174654D01*
X276244D01*
X276187Y174793D01*
X275793Y175187D01*
X275278Y175400D01*
X274722D01*
X274207Y175187D01*
X273813Y174793D01*
X273600Y174278D01*
Y173722D01*
X273813Y173207D01*
X274207Y172813D01*
X274722Y172600D01*
X275278D01*
X275793Y172813D01*
X276187Y173207D01*
X276244Y173346D01*
X282645D01*
X283107Y173538D01*
X289149Y179579D01*
X289288Y179521D01*
X289845D01*
X290359Y179734D01*
X290753Y180128D01*
X290966Y180643D01*
Y181200D01*
X290753Y181714D01*
X290359Y182108D01*
X289845Y182321D01*
D02*
G37*
G36*
X160778Y184400D02*
X160222D01*
X159707Y184187D01*
X159313Y183793D01*
X159100Y183279D01*
Y182721D01*
X159313Y182207D01*
X159707Y181813D01*
X160222Y181600D01*
X160778D01*
X161293Y181813D01*
X161687Y182207D01*
X162206Y182184D01*
X162874Y181516D01*
Y178583D01*
X167126D01*
Y182441D01*
X163799D01*
X162777Y183463D01*
X162315Y183654D01*
X161744D01*
X161687Y183793D01*
X161293Y184187D01*
X160778Y184400D01*
D02*
G37*
G36*
X413778Y180900D02*
X413222D01*
X412707Y180687D01*
X412313Y180293D01*
X412100Y179779D01*
Y179221D01*
X412313Y178707D01*
X412707Y178313D01*
X413222Y178100D01*
X413778D01*
X414293Y178313D01*
X414687Y178707D01*
X414900Y179221D01*
Y179779D01*
X414687Y180293D01*
X414293Y180687D01*
X413778Y180900D01*
D02*
G37*
G36*
X274779Y180600D02*
X274221D01*
X273707Y180387D01*
X273313Y179993D01*
X273100Y179479D01*
Y178921D01*
X273313Y178407D01*
X273707Y178013D01*
X274221Y177800D01*
X274779D01*
X275293Y178013D01*
X275687Y178407D01*
X275900Y178921D01*
Y179479D01*
X275687Y179993D01*
X275293Y180387D01*
X274779Y180600D01*
D02*
G37*
G36*
X314675Y175500D02*
Y174144D01*
X315834D01*
Y175500D01*
X314675D01*
D02*
G37*
G36*
X315834Y173793D02*
X314675D01*
Y172437D01*
X315834D01*
Y173793D01*
D02*
G37*
G36*
X282807Y236307D02*
X276193D01*
Y229693D01*
X281882D01*
X295346Y216229D01*
Y175744D01*
X295207Y175687D01*
X294813Y175293D01*
X294600Y174778D01*
Y174222D01*
X294813Y173707D01*
X295207Y173313D01*
X295722Y173100D01*
X296279D01*
X296793Y173313D01*
X297187Y173707D01*
X297235Y173823D01*
X297776D01*
X297790Y173790D01*
X298183Y173397D01*
X298698Y173184D01*
X299255D01*
X299769Y173397D01*
X300161Y173789D01*
X300172Y173789D01*
X300661Y173687D01*
Y172433D01*
X303339D01*
Y172433D01*
X303661D01*
Y172433D01*
X306161D01*
X306661Y172433D01*
X306839Y172433D01*
X309339D01*
Y174748D01*
X309801Y174940D01*
X310161Y174579D01*
Y172433D01*
X312667D01*
X312839Y172433D01*
X313336Y172437D01*
X314325D01*
Y173969D01*
Y175500D01*
X313336D01*
X312839Y175504D01*
X312667Y175504D01*
X311087D01*
X309593Y176998D01*
X309612Y177017D01*
X309825Y177532D01*
Y178088D01*
X309612Y178603D01*
X309218Y178997D01*
X308704Y179210D01*
X308147D01*
X307632Y178997D01*
X307238Y178603D01*
X307025Y178088D01*
Y177532D01*
X307238Y177017D01*
X307632Y176623D01*
X307771Y176566D01*
Y175857D01*
X307417Y175504D01*
X306339Y175504D01*
X306161Y175504D01*
X305025D01*
Y175565D01*
X304833Y176028D01*
X303468Y177393D01*
X303526Y177532D01*
Y178088D01*
X303313Y178603D01*
X302919Y178997D01*
X302404Y179210D01*
X301848D01*
X301333Y178997D01*
X300939Y178603D01*
X300726Y178088D01*
Y177532D01*
X300939Y177017D01*
X301333Y176623D01*
X301848Y176410D01*
X302404D01*
X302543Y176468D01*
X303007Y176004D01*
X302800Y175504D01*
X300661D01*
Y175480D01*
X300172Y175378D01*
X300161Y175378D01*
X299769Y175770D01*
X299642Y175823D01*
Y216751D01*
X299793Y216813D01*
X300187Y217207D01*
X300400Y217722D01*
Y218279D01*
X300187Y218793D01*
X299793Y219187D01*
X299278Y219400D01*
X298722D01*
X298207Y219187D01*
X297813Y218793D01*
X297600Y218279D01*
Y217722D01*
X297813Y217207D01*
X298207Y216813D01*
X298334Y216760D01*
Y175833D01*
X298183Y175770D01*
X297790Y175376D01*
X297742Y175261D01*
X297200D01*
X297187Y175293D01*
X296793Y175687D01*
X296654Y175744D01*
Y216500D01*
X296462Y216963D01*
X282807Y230618D01*
Y236307D01*
D02*
G37*
G36*
X287594Y172834D02*
X286238D01*
Y171675D01*
X287594D01*
Y172834D01*
D02*
G37*
G36*
X285888D02*
X284532D01*
Y171675D01*
X285888D01*
Y172834D01*
D02*
G37*
G36*
X306334Y171563D02*
X306166Y171563D01*
X305175D01*
Y170031D01*
Y168500D01*
X306166D01*
X306666Y168500D01*
X306834Y168500D01*
X307825D01*
Y170031D01*
Y171563D01*
X306334D01*
D02*
G37*
G36*
X299531Y171834D02*
X298175D01*
Y170675D01*
X299531D01*
Y171834D01*
D02*
G37*
G36*
X297825D02*
X296469D01*
Y170675D01*
X297825D01*
Y171834D01*
D02*
G37*
G36*
X196303Y173480D02*
X193175D01*
Y170549D01*
X196303D01*
Y173480D01*
D02*
G37*
G36*
X192825D02*
X189697D01*
Y170549D01*
X192825D01*
Y173480D01*
D02*
G37*
G36*
X311325Y171563D02*
X310166D01*
Y170206D01*
X311325D01*
Y171563D01*
D02*
G37*
G36*
X308175D02*
Y170206D01*
X309334D01*
Y171563D01*
X308175D01*
D02*
G37*
G36*
X301825D02*
X300666D01*
Y170206D01*
X301825D01*
Y171563D01*
D02*
G37*
G36*
X299531Y170325D02*
X298175D01*
Y169166D01*
X299531D01*
Y170325D01*
D02*
G37*
G36*
X297825D02*
X296469D01*
Y169166D01*
X297825D01*
Y170325D01*
D02*
G37*
G36*
X287594Y171325D02*
X286063D01*
X284532D01*
Y170308D01*
X284469Y169834D01*
X284469Y169692D01*
Y168675D01*
X286000D01*
X287531D01*
Y169692D01*
X287594Y170166D01*
X287594Y170308D01*
Y171325D01*
D02*
G37*
G36*
X201834Y170000D02*
X200675D01*
Y168643D01*
X201834D01*
Y170000D01*
D02*
G37*
G36*
X200325D02*
X199166D01*
Y168643D01*
X200325D01*
Y170000D01*
D02*
G37*
G36*
X309334Y169857D02*
X308175D01*
Y168500D01*
X309334D01*
Y169857D01*
D02*
G37*
G36*
X303334Y171563D02*
X303166Y171563D01*
X302175D01*
Y170031D01*
Y168500D01*
X303166D01*
X303666Y168500D01*
X303834Y168500D01*
X304825D01*
Y170031D01*
Y171563D01*
X303834D01*
X303334Y171563D01*
D02*
G37*
G36*
X301825Y169857D02*
X300666D01*
Y168500D01*
X301825D01*
Y169857D01*
D02*
G37*
G36*
X311325D02*
X310166D01*
Y168500D01*
X311325D01*
Y169857D01*
D02*
G37*
G36*
X167126Y176929D02*
X162874D01*
Y173071D01*
X164346D01*
Y172230D01*
X164191Y172166D01*
X163797Y171772D01*
X163584Y171257D01*
Y170700D01*
X163797Y170186D01*
X164191Y169792D01*
X164346Y169728D01*
Y169004D01*
X163661D01*
Y165933D01*
X166339D01*
Y167914D01*
X166394Y167937D01*
X166585Y168400D01*
X167047Y168289D01*
X167063Y168283D01*
X168193D01*
Y167327D01*
X174807D01*
Y173547D01*
X168193D01*
Y169591D01*
X167334D01*
X166337Y170588D01*
X166384Y170700D01*
Y171257D01*
X166171Y171772D01*
X165777Y172166D01*
X165654Y172216D01*
Y173071D01*
X167126D01*
Y176929D01*
D02*
G37*
G36*
X196303Y170199D02*
X193175D01*
Y167268D01*
X196303D01*
Y170199D01*
D02*
G37*
G36*
X192825D02*
X189697D01*
Y167268D01*
X192825D01*
Y170199D01*
D02*
G37*
G36*
X299500Y168334D02*
X298144D01*
Y167175D01*
X299500D01*
Y168334D01*
D02*
G37*
G36*
X297794D02*
X296437D01*
Y167175D01*
X297794D01*
Y168334D01*
D02*
G37*
G36*
X287531Y168325D02*
X286175D01*
Y167166D01*
X287531D01*
Y168325D01*
D02*
G37*
G36*
X285825D02*
X284469D01*
Y167166D01*
X285825D01*
Y168325D01*
D02*
G37*
G36*
X201834Y168293D02*
X200675D01*
Y166937D01*
X201834D01*
Y168293D01*
D02*
G37*
G36*
X200325D02*
X199166D01*
Y166937D01*
X200325D01*
Y168293D01*
D02*
G37*
G36*
X312563Y167834D02*
X311207D01*
Y166675D01*
X312563D01*
Y167834D01*
D02*
G37*
G36*
X310857D02*
X309500D01*
Y166675D01*
X310857D01*
Y167834D01*
D02*
G37*
G36*
X299500Y166825D02*
X297969D01*
X296437D01*
Y165834D01*
X296437Y165334D01*
X296437Y165166D01*
Y164175D01*
X297969D01*
X299500D01*
Y165166D01*
X299500Y165666D01*
X299500Y165834D01*
Y166825D01*
D02*
G37*
G36*
X166334Y165063D02*
X165175D01*
Y163707D01*
X166334D01*
Y165063D01*
D02*
G37*
G36*
X164825D02*
X163666D01*
Y163707D01*
X164825D01*
Y165063D01*
D02*
G37*
G36*
X312563Y166325D02*
X311032D01*
X309500D01*
Y165334D01*
X309500Y164834D01*
X309500Y164666D01*
Y163675D01*
X311032D01*
X312563D01*
Y164666D01*
X312563Y165166D01*
X312563Y165334D01*
Y166325D01*
D02*
G37*
G36*
X201839Y166067D02*
X199161D01*
Y163921D01*
X198394Y163154D01*
X196307D01*
Y165610D01*
X189693D01*
Y159390D01*
X196307D01*
Y159846D01*
X197256D01*
X197313Y159707D01*
X197707Y159313D01*
X198222Y159100D01*
X198778D01*
X199293Y159313D01*
X199687Y159707D01*
X199900Y160222D01*
Y160778D01*
X199687Y161293D01*
X199362Y161618D01*
X199295Y161738D01*
X199311Y162221D01*
X200086Y162996D01*
X201839D01*
Y166067D01*
D02*
G37*
G36*
X174803Y165669D02*
X171675D01*
Y162738D01*
X174803D01*
Y165669D01*
D02*
G37*
G36*
X171325D02*
X168197D01*
Y162738D01*
X171325D01*
Y165669D01*
D02*
G37*
G36*
X166334Y163356D02*
X165175D01*
Y162000D01*
X166334D01*
Y163356D01*
D02*
G37*
G36*
X164825D02*
X163666D01*
Y162000D01*
X164825D01*
Y163356D01*
D02*
G37*
G36*
X299500Y163825D02*
X297969D01*
X296437D01*
Y162834D01*
X296437Y162334D01*
X296437Y162166D01*
Y161175D01*
X297969D01*
X299500D01*
Y162166D01*
X299500Y162666D01*
X299500Y162834D01*
Y163825D01*
D02*
G37*
G36*
X312563Y163325D02*
X311032D01*
X309500D01*
Y162321D01*
X309469Y161834D01*
X309469Y161679D01*
Y160675D01*
X311000D01*
X312531D01*
Y161679D01*
X312563Y162166D01*
X312563Y162321D01*
Y163325D01*
D02*
G37*
G36*
X299500Y160825D02*
X298144D01*
Y159666D01*
X299500D01*
Y160825D01*
D02*
G37*
G36*
X297794D02*
X296437D01*
Y159666D01*
X297794D01*
Y160825D01*
D02*
G37*
G36*
X174803Y162388D02*
X171675D01*
Y159457D01*
X174803D01*
Y162388D01*
D02*
G37*
G36*
X171325D02*
X168197D01*
Y159457D01*
X171325D01*
Y162388D01*
D02*
G37*
G36*
X299500Y158834D02*
X298144D01*
Y157675D01*
X299500D01*
Y158834D01*
D02*
G37*
G36*
X297794D02*
X296437D01*
Y157675D01*
X297794D01*
Y158834D01*
D02*
G37*
G36*
X305175Y159031D02*
Y157675D01*
X306334D01*
Y159031D01*
X305175D01*
D02*
G37*
G36*
X308325D02*
X307166D01*
Y157675D01*
X308325D01*
Y159031D01*
D02*
G37*
G36*
X301825Y159000D02*
X300666D01*
Y157643D01*
X301825D01*
Y159000D01*
D02*
G37*
G36*
X316563Y158334D02*
X315207D01*
Y157175D01*
X316563D01*
Y158334D01*
D02*
G37*
G36*
X314857D02*
X313500D01*
Y157175D01*
X314857D01*
Y158334D01*
D02*
G37*
G36*
X299500Y157325D02*
X298144D01*
Y156166D01*
X299500D01*
Y157325D01*
D02*
G37*
G36*
X297794D02*
X296437D01*
Y156166D01*
X297794D01*
Y157325D01*
D02*
G37*
G36*
X306334Y157325D02*
X305175D01*
Y155969D01*
X306334D01*
Y157325D01*
D02*
G37*
G36*
X308325D02*
X307166D01*
Y155969D01*
X308325D01*
Y157325D01*
D02*
G37*
G36*
X312834Y157293D02*
X311675D01*
Y155937D01*
X312834D01*
Y157293D01*
D02*
G37*
G36*
X301825D02*
X300666D01*
Y155937D01*
X301825D01*
Y157293D01*
D02*
G37*
G36*
X303666Y159031D02*
X303179Y159000D01*
X302175D01*
Y157468D01*
Y155937D01*
X303179D01*
X303334Y155937D01*
X303821Y155969D01*
X304825D01*
Y157500D01*
Y159031D01*
X303821D01*
X303666Y159031D01*
X303666D01*
D02*
G37*
G36*
X312531Y160325D02*
X311000D01*
X309469D01*
Y159531D01*
X309469Y159166D01*
X309025Y159031D01*
X308675D01*
Y157500D01*
Y155969D01*
X309679D01*
X310166Y155937D01*
X310321Y155937D01*
X311325D01*
Y157468D01*
X311500D01*
Y157643D01*
X312834D01*
Y159000D01*
X312531Y159374D01*
X312531Y159500D01*
Y160325D01*
D02*
G37*
G36*
X316563Y156825D02*
X315207D01*
Y155666D01*
X316563D01*
Y156825D01*
D02*
G37*
G36*
X314857D02*
X313500D01*
Y155666D01*
X314857D01*
Y156825D01*
D02*
G37*
G36*
X401278Y158400D02*
X400722D01*
X400207Y158187D01*
X399813Y157793D01*
X399600Y157279D01*
Y156721D01*
X399813Y156207D01*
X400207Y155813D01*
X400722Y155600D01*
X401278D01*
X401793Y155813D01*
X402187Y156207D01*
X402400Y156721D01*
Y157279D01*
X402187Y157793D01*
X401793Y158187D01*
X401278Y158400D01*
D02*
G37*
G36*
X404279Y151400D02*
X403722D01*
X403207Y151187D01*
X402813Y150793D01*
X402600Y150278D01*
Y149722D01*
X402813Y149207D01*
X403207Y148813D01*
X403722Y148600D01*
X404279D01*
X404793Y148813D01*
X405187Y149207D01*
X405400Y149722D01*
Y150278D01*
X405187Y150793D01*
X404793Y151187D01*
X404279Y151400D01*
D02*
G37*
G36*
X303661Y155098D02*
X303339Y155067D01*
X303339Y155067D01*
X300661D01*
Y151996D01*
X301446D01*
Y150675D01*
X301295Y150612D01*
X300901Y150218D01*
X300688Y149704D01*
Y149147D01*
X300901Y148632D01*
X301295Y148238D01*
X301809Y148025D01*
X302366D01*
X302881Y148238D01*
X303274Y148632D01*
X303488Y149147D01*
Y149704D01*
X303274Y150218D01*
X303026Y150467D01*
X304587Y152028D01*
X306339D01*
Y152909D01*
X307161D01*
Y152028D01*
X307846D01*
Y150685D01*
X307670Y150612D01*
X307277Y150218D01*
X307064Y149704D01*
Y149147D01*
X307277Y148632D01*
X307670Y148238D01*
X308185Y148025D01*
X308742D01*
X309257Y148238D01*
X309650Y148632D01*
X309863Y149147D01*
Y149704D01*
X309806Y149843D01*
X311394Y151431D01*
X311586Y151893D01*
Y151996D01*
X312839D01*
Y155067D01*
X310161D01*
Y155067D01*
X309839Y155098D01*
Y155098D01*
X309675Y155098D01*
X307161D01*
Y154217D01*
X306339D01*
Y155098D01*
X303825D01*
X303661Y155098D01*
D02*
G37*
G36*
X423129Y146355D02*
X422572D01*
X422057Y146142D01*
X421664Y145748D01*
X421450Y145233D01*
Y144676D01*
X421664Y144162D01*
X422057Y143768D01*
X422572Y143555D01*
X423129D01*
X423643Y143768D01*
X424037Y144162D01*
X424250Y144676D01*
Y145233D01*
X424037Y145748D01*
X423643Y146142D01*
X423129Y146355D01*
D02*
G37*
G36*
X191733Y141698D02*
X191176D01*
X190661Y141485D01*
X190268Y141091D01*
X190054Y140577D01*
Y140020D01*
X190268Y139505D01*
X190661Y139111D01*
X191176Y138898D01*
X191733D01*
X192247Y139111D01*
X192641Y139505D01*
X192854Y140020D01*
Y140577D01*
X192641Y141091D01*
X192247Y141485D01*
X191733Y141698D01*
D02*
G37*
G36*
X424278Y134900D02*
X423722D01*
X423207Y134687D01*
X422813Y134293D01*
X422600Y133779D01*
Y133221D01*
X422813Y132707D01*
X423207Y132313D01*
X423722Y132100D01*
X424278D01*
X424793Y132313D01*
X425187Y132707D01*
X425400Y133221D01*
Y133779D01*
X425187Y134293D01*
X424793Y134687D01*
X424278Y134900D01*
D02*
G37*
G36*
X410279Y130900D02*
X409722D01*
X409207Y130687D01*
X408813Y130293D01*
X408600Y129779D01*
Y129221D01*
X408813Y128707D01*
X409207Y128313D01*
X409722Y128100D01*
X410279D01*
X410793Y128313D01*
X411187Y128707D01*
X411400Y129221D01*
Y129779D01*
X411187Y130293D01*
X410793Y130687D01*
X410279Y130900D01*
D02*
G37*
G36*
X283468Y144526D02*
X282911D01*
X282397Y144313D01*
X282003Y143919D01*
X281790Y143404D01*
Y142848D01*
X282003Y142333D01*
X282397Y141939D01*
X282441Y141921D01*
Y128134D01*
X282207Y128037D01*
X281813Y127643D01*
X281600Y127129D01*
Y126572D01*
X281813Y126057D01*
X282207Y125663D01*
X282721Y125450D01*
X283278D01*
X283793Y125663D01*
X284187Y126057D01*
X284400Y126572D01*
Y127129D01*
X284187Y127643D01*
X283793Y128037D01*
X283749Y128055D01*
Y141842D01*
X283983Y141939D01*
X284377Y142333D01*
X284590Y142848D01*
Y143404D01*
X284377Y143919D01*
X283983Y144313D01*
X283468Y144526D01*
D02*
G37*
G36*
X401013Y65900D02*
X400675D01*
Y62175D01*
X404400D01*
Y62513D01*
X404134Y63505D01*
X403621Y64395D01*
X402895Y65121D01*
X402005Y65634D01*
X401013Y65900D01*
D02*
G37*
G36*
X400325D02*
X399987D01*
X398995Y65634D01*
X398105Y65121D01*
X397379Y64395D01*
X396866Y63505D01*
X396600Y62513D01*
Y62175D01*
X400325D01*
Y65900D01*
D02*
G37*
G36*
X404400Y61825D02*
X400675D01*
Y58100D01*
X401013D01*
X402005Y58366D01*
X402895Y58879D01*
X403621Y59605D01*
X404134Y60495D01*
X404400Y61487D01*
Y61825D01*
D02*
G37*
G36*
X400325D02*
X396600D01*
Y61487D01*
X396866Y60495D01*
X397379Y59605D01*
X398105Y58879D01*
X398995Y58366D01*
X399987Y58100D01*
X400325D01*
Y61825D01*
D02*
G37*
G36*
X421014Y65904D02*
X419986D01*
X418993Y65638D01*
X418103Y65124D01*
X417376Y64397D01*
X416862Y63507D01*
X416596Y62514D01*
Y61486D01*
X416862Y60493D01*
X417376Y59603D01*
X418103Y58876D01*
X418993Y58362D01*
X419986Y58096D01*
X421014D01*
X422007Y58362D01*
X422897Y58876D01*
X423624Y59603D01*
X424138Y60493D01*
X424404Y61486D01*
Y62514D01*
X424138Y63507D01*
X423624Y64397D01*
X422897Y65124D01*
X422007Y65638D01*
X421014Y65904D01*
D02*
G37*
G36*
X458287Y63935D02*
X456813D01*
X455367Y63647D01*
X454005Y63083D01*
X452779Y62264D01*
X451737Y61221D01*
X450918Y59995D01*
X450353Y58633D01*
X450066Y57187D01*
Y55713D01*
X450353Y54267D01*
X450918Y52905D01*
X451737Y51679D01*
X452779Y50637D01*
X454005Y49818D01*
X455367Y49254D01*
X456813Y48966D01*
X458287D01*
X459733Y49254D01*
X461095Y49818D01*
X462321Y50637D01*
X463363Y51679D01*
X464182Y52905D01*
X464747Y54267D01*
X465034Y55713D01*
Y57187D01*
X464747Y58633D01*
X464182Y59995D01*
X463363Y61221D01*
X462321Y62264D01*
X461095Y63083D01*
X459733Y63647D01*
X458287Y63935D01*
D02*
G37*
G36*
X18287D02*
X16813D01*
X15367Y63647D01*
X14005Y63083D01*
X12779Y62264D01*
X11737Y61221D01*
X10917Y59995D01*
X10353Y58633D01*
X10066Y57187D01*
Y55713D01*
X10353Y54267D01*
X10917Y52905D01*
X11737Y51679D01*
X12779Y50637D01*
X14005Y49818D01*
X15367Y49254D01*
X16813Y48966D01*
X18287D01*
X19733Y49254D01*
X21095Y49818D01*
X22321Y50637D01*
X23363Y51679D01*
X24182Y52905D01*
X24747Y54267D01*
X25034Y55713D01*
Y57187D01*
X24747Y58633D01*
X24182Y59995D01*
X23363Y61221D01*
X22321Y62264D01*
X21095Y63083D01*
X19733Y63647D01*
X18287Y63935D01*
D02*
G37*
%LPD*%
G36*
X348137Y212559D02*
Y212070D01*
X321498Y185430D01*
X321076Y185506D01*
X320902Y185977D01*
X347675Y212750D01*
X348137Y212559D01*
D02*
G37*
G36*
X348992Y210421D02*
Y209862D01*
X324457Y185328D01*
X324372Y185342D01*
X324303Y185371D01*
X324198D01*
X323981Y185406D01*
X323788Y185871D01*
X348530Y210612D01*
X348992Y210421D01*
D02*
G37*
G36*
X349784Y208164D02*
X349826Y207751D01*
X326938Y184862D01*
X326746Y184400D01*
Y162919D01*
X326607Y162862D01*
X326213Y162468D01*
X326073Y162130D01*
X325573Y162230D01*
Y162341D01*
X325360Y162855D01*
X324966Y163249D01*
X324452Y163462D01*
X324038D01*
X318654Y168846D01*
Y183729D01*
X319096Y184171D01*
X319596Y183964D01*
Y183725D01*
X319809Y183211D01*
X320203Y182817D01*
X320718Y182604D01*
X321275D01*
X321789Y182817D01*
X322183Y183211D01*
X322233Y183332D01*
X322774D01*
X322838Y183178D01*
X323232Y182784D01*
X323746Y182571D01*
X324303D01*
X324818Y182784D01*
X325212Y183178D01*
X325425Y183692D01*
Y184249D01*
X325367Y184388D01*
X349325Y208346D01*
X349784Y208164D01*
D02*
G37*
G36*
X289456Y154619D02*
X289292Y154076D01*
X289006Y154019D01*
X288063Y154963D01*
X287600Y155154D01*
X279271D01*
X270654Y163771D01*
Y172756D01*
X271154Y172921D01*
X289456Y154619D01*
D02*
G37*
D15*
X216313Y298000D02*
X216500D01*
D46*
X51500Y218000D02*
D03*
Y238000D02*
D03*
Y274500D02*
D03*
Y294500D02*
D03*
X400500Y62000D02*
D03*
X420500D02*
D03*
D51*
X165000Y175000D02*
D03*
Y180512D02*
D03*
D52*
X311000Y160500D02*
D03*
X314937D02*
D03*
X311032Y166500D02*
D03*
X314968D02*
D03*
X297969Y157500D02*
D03*
X294032D02*
D03*
X297969Y161000D02*
D03*
X294032D02*
D03*
X297969Y164000D02*
D03*
X294032D02*
D03*
X297969Y167000D02*
D03*
X294032D02*
D03*
X286000Y168500D02*
D03*
X289937D02*
D03*
X286063Y171500D02*
D03*
X290000D02*
D03*
X298000Y170500D02*
D03*
X294063D02*
D03*
X315032Y157000D02*
D03*
X318969D02*
D03*
X311032Y163500D02*
D03*
X314968D02*
D03*
D54*
X311500Y157468D02*
D03*
Y153532D02*
D03*
X302000Y170031D02*
D03*
Y173969D02*
D03*
X305000Y157500D02*
D03*
Y153563D02*
D03*
X302000Y157468D02*
D03*
Y153532D02*
D03*
X308500Y157500D02*
D03*
Y153563D02*
D03*
X308000Y170031D02*
D03*
Y173969D02*
D03*
X311500Y170031D02*
D03*
Y173969D02*
D03*
X305000Y170031D02*
D03*
Y173969D02*
D03*
X314500Y170031D02*
D03*
Y173969D02*
D03*
X200500Y168468D02*
D03*
Y164532D02*
D03*
X165000Y167469D02*
D03*
Y163531D02*
D03*
D59*
X171500Y162563D02*
D03*
Y170437D02*
D03*
X193000Y162500D02*
D03*
Y170374D02*
D03*
D68*
X129400Y341775D02*
D03*
X82100D02*
D03*
D69*
X220300D02*
D03*
X217150D02*
D03*
X214000D02*
D03*
X210850D02*
D03*
X207700D02*
D03*
X204550D02*
D03*
X201400D02*
D03*
X198250D02*
D03*
X191950D02*
D03*
X195100D02*
D03*
X188800D02*
D03*
X185650D02*
D03*
X182500D02*
D03*
X179350D02*
D03*
X176200D02*
D03*
X173050D02*
D03*
X169900D02*
D03*
X163600D02*
D03*
X160450D02*
D03*
X166750D02*
D03*
D70*
X182776Y162446D02*
X183000Y162669D01*
D71*
X162315Y183000D02*
X164803Y180512D01*
X160500Y183000D02*
X162315D01*
X164803Y180512D02*
X165000D01*
X283300Y152500D02*
X286339Y149461D01*
Y149425D02*
Y149461D01*
X289533Y149392D02*
X289566Y149425D01*
X289533Y128383D02*
Y149392D01*
X289500Y128350D02*
X289533Y128383D01*
X318000Y168575D02*
X324173Y162402D01*
Y162062D02*
Y162402D01*
X318000Y168575D02*
Y184000D01*
X290000Y171500D02*
Y173759D01*
Y168563D02*
Y171500D01*
X289783Y174583D02*
X293866Y170500D01*
X289528Y174583D02*
X289783D01*
X207592Y308825D02*
Y313908D01*
Y308825D02*
X207692Y308725D01*
X207492Y314008D02*
X207592Y313908D01*
X209342Y312192D02*
X214000Y316850D01*
X199146Y296854D02*
X209342Y307050D01*
X199146Y296646D02*
Y296854D01*
X198000Y286000D02*
Y295500D01*
X199146Y296646D01*
X209342Y307050D02*
Y312192D01*
X200000Y296500D02*
X210992Y307492D01*
X200000Y278500D02*
Y296500D01*
X210992Y307492D02*
Y311508D01*
X211500Y305500D02*
X219000Y313000D01*
X211500Y302500D02*
Y305500D01*
X112500Y112582D02*
X115000Y110082D01*
X112500Y182500D02*
X114000Y184000D01*
X112500Y112582D02*
Y182500D01*
X115000Y109000D02*
Y110082D01*
X103500Y130865D02*
Y158500D01*
X100000Y127365D02*
X103500Y130865D01*
X100000Y99000D02*
Y127365D01*
X99504Y163500D02*
X99752Y163252D01*
Y148748D02*
Y163252D01*
Y148748D02*
X100000Y148500D01*
X282203Y230297D02*
X282203D01*
X296000Y174500D02*
Y216500D01*
X279500Y233000D02*
X282203Y230297D01*
X282203D02*
X296000Y216500D01*
X209722Y298000D02*
X216313D01*
X216375Y298125D02*
Y307125D01*
Y298125D02*
X216500Y298000D01*
X216250Y307250D02*
X216375Y307125D01*
X298976Y174583D02*
X298988Y174595D01*
Y217988D01*
X299000Y218000D01*
X271500Y173500D02*
Y186000D01*
X271376Y186124D02*
X271500Y186000D01*
Y173500D02*
X295865Y149135D01*
X268500Y180167D02*
Y184000D01*
X268000Y179667D02*
X268500Y180167D01*
X268000Y163292D02*
Y179667D01*
X346000Y286000D02*
X350500Y281500D01*
Y207500D02*
Y281500D01*
X349646Y209592D02*
Y271354D01*
X341500Y279500D02*
X349646Y271354D01*
X347937Y213937D02*
Y253063D01*
X334500Y266500D02*
X347937Y253063D01*
X327400Y161675D02*
Y184400D01*
X350500Y207500D01*
X318000Y184000D02*
X347937Y213937D01*
X337531Y272532D02*
X348791Y261272D01*
X320996Y184004D02*
X348791Y211799D01*
Y261272D01*
X324025Y183971D02*
X349646Y209592D01*
X313000Y192000D02*
X313250D01*
X316250Y189000D01*
X316500D01*
X275000Y174000D02*
X282645D01*
X289566Y180921D01*
X283000Y126850D02*
X283095Y126945D01*
Y143031D01*
X283190Y143126D01*
X266350Y163650D02*
X275000Y155000D01*
Y139901D02*
Y155000D01*
X279000Y154500D02*
X287600D01*
X270000Y163500D02*
X279000Y154500D01*
X270000Y163500D02*
Y179000D01*
X287600Y154500D02*
X289600Y152500D01*
X268000Y163292D02*
X278792Y152500D01*
X283300D01*
X295865Y143126D02*
Y149135D01*
X266350Y163650D02*
Y181650D01*
X195000Y160500D02*
X198500D01*
X193000Y162500D02*
X195000Y160500D01*
X190626Y168000D02*
X193000Y170374D01*
X184027Y168000D02*
X190626D01*
X193000Y162500D02*
X198665D01*
X193000Y170374D02*
X198791D01*
X200500Y168468D02*
Y168665D01*
X198791Y170374D02*
X200500Y168665D01*
X200000Y164032D02*
X200500Y164532D01*
X198665Y162500D02*
X200098Y163933D01*
X183027Y167000D02*
X184027Y168000D01*
X183000Y167000D02*
X183027D01*
X269833Y179167D02*
X270000Y179000D01*
X181000Y165000D02*
X183000Y167000D01*
X173937Y165000D02*
X181000D01*
X171500Y162563D02*
X173937Y165000D01*
X167063Y168937D02*
X170000D01*
X171500Y170437D01*
X165000Y171000D02*
X167063Y168937D01*
X171500Y162563D02*
X173500Y160563D01*
X178669Y166500D02*
Y167000D01*
X165000Y167469D02*
Y167665D01*
X165000Y167665D02*
Y171000D01*
X165000Y167665D02*
X165000Y167665D01*
Y171000D02*
Y175000D01*
X164500Y171500D02*
X165000Y171000D01*
Y167469D02*
Y167665D01*
X165734Y168400D01*
X165931D01*
X165000Y167469D02*
X165000Y167469D01*
X200500Y168272D02*
Y168468D01*
X165000Y163531D02*
Y163728D01*
X301266Y167485D02*
Y167837D01*
X301000Y167220D02*
X301266Y167485D01*
X289525Y168088D02*
X289937Y168500D01*
X289525Y165150D02*
Y168088D01*
X317523Y165200D02*
X317875D01*
X316558Y164234D02*
X317523Y165200D01*
X315703Y164234D02*
X316558D01*
X314968Y163500D02*
X315703Y164234D01*
X301266Y169297D02*
X302000Y170031D01*
X301266Y167837D02*
Y169297D01*
X301000Y167572D02*
X301266Y167837D01*
X301000Y167220D02*
Y167572D01*
X314968Y166500D02*
X315703Y165766D01*
X316957D01*
X317523Y165200D01*
X289525Y165150D02*
X289559D01*
X290708Y164000D01*
X294032D01*
X291625Y161000D02*
X294032D01*
X289500Y158875D02*
X291625Y161000D01*
X289500Y158875D02*
X290875Y157500D01*
X294032D01*
X308425Y177810D02*
X308674Y177561D01*
Y176991D02*
Y177561D01*
X308425Y174394D02*
Y177810D01*
X286000Y168500D02*
X286400Y168100D01*
Y165175D02*
Y168100D01*
X298500Y161017D02*
X300631D01*
X301148Y160500D01*
X301500D01*
X307266Y168086D02*
Y169297D01*
Y168086D02*
X307500Y167852D01*
Y167469D02*
Y167852D01*
X302126Y177810D02*
X304371Y175565D01*
Y174598D02*
Y175565D01*
Y174598D02*
X305000Y173969D01*
X291375Y167000D02*
X294032D01*
X289525Y165150D02*
X291375Y167000D01*
X301500Y160148D02*
Y160500D01*
X301000Y159648D02*
X301500Y160148D01*
X301000Y159648D02*
X301266Y159382D01*
Y158203D02*
Y159382D01*
Y158203D02*
X302000Y157468D01*
X308674Y176991D02*
X311500Y174165D01*
X315671Y161234D02*
X316694D01*
X302100Y149438D02*
Y153431D01*
X316694Y161234D02*
X317522Y162062D01*
X317874D01*
X302088Y149425D02*
X302100Y149438D01*
X308464Y149425D02*
X308464D01*
X308519Y149481D01*
X317874Y161841D02*
Y162062D01*
X314500Y166969D02*
Y170031D01*
Y166969D02*
X314968Y166500D01*
X312234Y171506D02*
X314500Y173772D01*
Y173969D01*
X312234Y170766D02*
Y171506D01*
X311500Y170031D02*
X312234Y170766D01*
X308531Y157468D02*
X311500D01*
X308500Y157500D02*
X308531Y157468D01*
X311500D02*
Y160000D01*
X311000Y160500D02*
X311500Y160000D01*
X311968Y157000D02*
X315032D01*
X311500Y157468D02*
X311968Y157000D01*
X317874Y161841D02*
X318969Y160746D01*
X314937Y160500D02*
X315671Y161234D01*
X318969Y157000D02*
Y160746D01*
X304303Y173468D02*
X305000Y174165D01*
X311500Y173969D02*
Y174165D01*
X310563Y160937D02*
X311000Y160500D01*
X310563Y160937D02*
Y163031D01*
X311032Y163500D01*
X307766Y170031D02*
X308000D01*
X307266Y169532D02*
X307766Y170031D01*
X305500Y169532D02*
X307266D01*
X305000Y170031D02*
X305500Y169532D01*
X308000Y173969D02*
X308425Y174394D01*
X304500Y169532D02*
X305000Y170031D01*
X302031Y169532D02*
X304500D01*
X302000Y170031D02*
X302000Y170031D01*
X302000Y169563D02*
Y170031D01*
Y169563D02*
X302031Y169532D01*
X302500Y173468D02*
X304303D01*
X302000Y173969D02*
X302500Y173468D01*
X302336Y150702D02*
X305000Y153366D01*
X308500Y149500D02*
X308519Y149481D01*
X310932Y151893D01*
X308500Y149500D02*
Y153563D01*
X310932Y152963D02*
X311500Y153532D01*
X310932Y151893D02*
Y152963D01*
X305000Y153366D02*
Y153563D01*
X302000Y153532D02*
X302100Y153431D01*
X305000Y153563D02*
X308500D01*
X298900Y167000D02*
X300148D01*
X298801Y167098D02*
Y167636D01*
Y167098D02*
X298900Y167000D01*
X297986Y161017D02*
X298500D01*
X297969Y164000D02*
X298500Y163469D01*
Y161017D02*
Y163469D01*
X297969Y161000D02*
X297986Y161017D01*
X289937Y168500D02*
X290000Y168563D01*
X286000Y168500D02*
Y171437D01*
X286063Y171500D01*
X293866Y170500D02*
X294063D01*
X297969Y167734D02*
Y170500D01*
Y167734D02*
X298067Y167636D01*
X298801D01*
X297969Y170500D02*
X298000D01*
X293606Y157075D02*
X294032Y157500D01*
X311000Y174469D02*
X311469Y174000D01*
X160450Y341775D02*
X163600D01*
X75000Y334675D02*
X82100Y341775D01*
D72*
X217000Y319500D02*
Y320131D01*
X211084Y321916D02*
Y341541D01*
X217000Y320131D02*
Y341625D01*
X211084Y321916D02*
X214000Y319000D01*
X210850Y341775D02*
X211084Y341541D01*
X214000Y319609D02*
Y341775D01*
Y319000D02*
Y319609D01*
X217000Y319500D02*
X217631Y320131D01*
X220300D01*
X222023Y318408D01*
X220300Y320131D02*
Y341775D01*
X216500Y319000D02*
X217000Y319500D01*
X214000Y319000D02*
X216500D01*
X217000Y341625D02*
X217150Y341775D01*
D73*
X167000Y270000D02*
D03*
D74*
X157000D02*
D03*
X167000Y280000D02*
D03*
X157000D02*
D03*
X167000Y290000D02*
D03*
X157000D02*
D03*
X167000Y300000D02*
D03*
X157000D02*
D03*
X269500Y233000D02*
D03*
D75*
X130000Y74000D02*
D03*
X85000D02*
D03*
X137000Y86000D02*
D03*
X78000D02*
D03*
D76*
X125000Y109000D02*
D03*
X120000Y99000D02*
D03*
X115000Y109000D02*
D03*
X110000Y99000D02*
D03*
X105000Y109000D02*
D03*
X100000Y99000D02*
D03*
X90000D02*
D03*
X95000Y109000D02*
D03*
D77*
X279500Y233000D02*
D03*
D78*
X457550Y56450D02*
D03*
X17550D02*
D03*
X457550Y296450D02*
D03*
X17550D02*
D03*
D79*
X135000Y165000D02*
D03*
Y135000D02*
D03*
Y105000D02*
D03*
X127500Y180000D02*
D03*
Y150000D02*
D03*
X120000Y135000D02*
D03*
X127500Y120000D02*
D03*
X120000Y105000D02*
D03*
X127500Y90000D02*
D03*
Y60000D02*
D03*
X105000Y165000D02*
D03*
Y105000D02*
D03*
X97500Y180000D02*
D03*
X90000Y165000D02*
D03*
Y135000D02*
D03*
X97500Y120000D02*
D03*
X90000Y105000D02*
D03*
X82500Y180000D02*
D03*
X75000Y165000D02*
D03*
X82500Y150000D02*
D03*
X75000Y135000D02*
D03*
X82500Y120000D02*
D03*
X75000Y105000D02*
D03*
X82500Y90000D02*
D03*
X75000Y75000D02*
D03*
X82500Y60000D02*
D03*
X75000Y45000D02*
D03*
X465000Y285000D02*
D03*
Y255000D02*
D03*
Y225000D02*
D03*
Y195000D02*
D03*
Y165000D02*
D03*
Y135000D02*
D03*
Y105000D02*
D03*
Y75000D02*
D03*
Y45000D02*
D03*
X450000Y285000D02*
D03*
X457500Y270000D02*
D03*
X450000Y255000D02*
D03*
X457500Y240000D02*
D03*
X450000Y225000D02*
D03*
X457500Y210000D02*
D03*
X450000Y195000D02*
D03*
X457500Y180000D02*
D03*
X450000Y165000D02*
D03*
X457500Y150000D02*
D03*
X450000Y135000D02*
D03*
X457500Y120000D02*
D03*
X450000Y105000D02*
D03*
X457500Y90000D02*
D03*
X450000Y75000D02*
D03*
Y45000D02*
D03*
X442500Y300000D02*
D03*
X435000Y285000D02*
D03*
X442500Y270000D02*
D03*
X435000Y255000D02*
D03*
X442500Y240000D02*
D03*
X435000Y225000D02*
D03*
X442500Y210000D02*
D03*
X435000Y195000D02*
D03*
X442500Y180000D02*
D03*
X435000Y165000D02*
D03*
X442500Y150000D02*
D03*
X435000Y135000D02*
D03*
X442500Y120000D02*
D03*
X435000Y105000D02*
D03*
X442500Y90000D02*
D03*
X435000Y75000D02*
D03*
X442500Y60000D02*
D03*
X435000Y45000D02*
D03*
X427500Y300000D02*
D03*
Y270000D02*
D03*
X420000Y255000D02*
D03*
X427500Y240000D02*
D03*
X420000Y225000D02*
D03*
X427500Y210000D02*
D03*
Y180000D02*
D03*
X420000Y165000D02*
D03*
X427500Y150000D02*
D03*
Y120000D02*
D03*
X420000Y105000D02*
D03*
X427500Y90000D02*
D03*
Y60000D02*
D03*
X420000Y45000D02*
D03*
X412500Y300000D02*
D03*
X405000Y285000D02*
D03*
X412500Y270000D02*
D03*
X405000Y255000D02*
D03*
X412500Y240000D02*
D03*
X405000Y225000D02*
D03*
X412500Y210000D02*
D03*
X405000Y165000D02*
D03*
X412500Y120000D02*
D03*
X405000Y105000D02*
D03*
X412500Y90000D02*
D03*
X405000Y75000D02*
D03*
X412500Y60000D02*
D03*
X405000Y45000D02*
D03*
X397500Y300000D02*
D03*
X390000Y285000D02*
D03*
X397500Y270000D02*
D03*
X390000Y255000D02*
D03*
X397500Y240000D02*
D03*
X390000Y225000D02*
D03*
X397500Y210000D02*
D03*
X390000Y195000D02*
D03*
X397500Y180000D02*
D03*
X390000Y165000D02*
D03*
X397500Y150000D02*
D03*
Y120000D02*
D03*
X390000Y105000D02*
D03*
X397500Y90000D02*
D03*
X390000Y75000D02*
D03*
Y45000D02*
D03*
X382500Y300000D02*
D03*
X375000Y285000D02*
D03*
X382500Y270000D02*
D03*
X375000Y255000D02*
D03*
X382500Y240000D02*
D03*
X375000Y225000D02*
D03*
X382500Y210000D02*
D03*
X375000Y195000D02*
D03*
Y165000D02*
D03*
X382500Y150000D02*
D03*
X375000Y135000D02*
D03*
X382500Y120000D02*
D03*
X375000Y105000D02*
D03*
X382500Y90000D02*
D03*
X375000Y75000D02*
D03*
X382500Y60000D02*
D03*
X375000Y45000D02*
D03*
X367500Y300000D02*
D03*
X360000Y285000D02*
D03*
X367500Y270000D02*
D03*
X360000Y255000D02*
D03*
X367500Y240000D02*
D03*
X360000Y225000D02*
D03*
X367500Y210000D02*
D03*
X360000Y195000D02*
D03*
Y165000D02*
D03*
X367500Y150000D02*
D03*
X360000Y135000D02*
D03*
X367500Y120000D02*
D03*
X360000Y105000D02*
D03*
X367500Y90000D02*
D03*
X360000Y75000D02*
D03*
X367500Y60000D02*
D03*
X360000Y45000D02*
D03*
X352500Y300000D02*
D03*
Y270000D02*
D03*
Y240000D02*
D03*
X345000Y225000D02*
D03*
X352500Y210000D02*
D03*
X345000Y195000D02*
D03*
X352500Y150000D02*
D03*
X345000Y135000D02*
D03*
X352500Y120000D02*
D03*
X345000Y105000D02*
D03*
X352500Y90000D02*
D03*
X345000Y75000D02*
D03*
X352500Y60000D02*
D03*
X345000Y45000D02*
D03*
X337500Y300000D02*
D03*
Y270000D02*
D03*
X330000Y255000D02*
D03*
X337500Y240000D02*
D03*
Y210000D02*
D03*
Y150000D02*
D03*
X330000Y135000D02*
D03*
X337500Y120000D02*
D03*
Y90000D02*
D03*
X330000Y75000D02*
D03*
X337500Y60000D02*
D03*
X330000Y45000D02*
D03*
X315000Y285000D02*
D03*
X322500Y90000D02*
D03*
X315000Y75000D02*
D03*
X322500Y60000D02*
D03*
X315000Y45000D02*
D03*
X300000Y285000D02*
D03*
X307500Y270000D02*
D03*
Y210000D02*
D03*
X300000Y135000D02*
D03*
X307500Y120000D02*
D03*
X300000Y105000D02*
D03*
X307500Y90000D02*
D03*
X300000Y75000D02*
D03*
X307500Y60000D02*
D03*
X300000Y45000D02*
D03*
X292500Y270000D02*
D03*
X285000Y255000D02*
D03*
X292500Y240000D02*
D03*
X285000Y225000D02*
D03*
X292500Y210000D02*
D03*
Y120000D02*
D03*
X285000Y105000D02*
D03*
X292500Y90000D02*
D03*
X285000Y75000D02*
D03*
X292500Y60000D02*
D03*
X285000Y45000D02*
D03*
X277500Y300000D02*
D03*
X270000Y285000D02*
D03*
X277500Y270000D02*
D03*
X270000Y255000D02*
D03*
X277500Y240000D02*
D03*
X270000Y225000D02*
D03*
X277500Y210000D02*
D03*
Y150000D02*
D03*
Y120000D02*
D03*
X270000Y105000D02*
D03*
X277500Y90000D02*
D03*
X270000Y75000D02*
D03*
X277500Y60000D02*
D03*
X270000Y45000D02*
D03*
X262500Y300000D02*
D03*
X255000Y285000D02*
D03*
X262500Y270000D02*
D03*
X255000Y255000D02*
D03*
X262500Y240000D02*
D03*
X255000Y225000D02*
D03*
Y195000D02*
D03*
Y165000D02*
D03*
X262500Y150000D02*
D03*
Y120000D02*
D03*
X255000Y105000D02*
D03*
X262500Y90000D02*
D03*
X255000Y75000D02*
D03*
X262500Y60000D02*
D03*
X255000Y45000D02*
D03*
X247500Y300000D02*
D03*
X240000Y285000D02*
D03*
Y255000D02*
D03*
X247500Y210000D02*
D03*
X240000Y195000D02*
D03*
Y135000D02*
D03*
X247500Y120000D02*
D03*
X240000Y105000D02*
D03*
X247500Y90000D02*
D03*
X240000Y75000D02*
D03*
X247500Y60000D02*
D03*
X240000Y45000D02*
D03*
X232500Y300000D02*
D03*
X225000Y285000D02*
D03*
Y255000D02*
D03*
Y225000D02*
D03*
X232500Y210000D02*
D03*
X225000Y195000D02*
D03*
Y135000D02*
D03*
X232500Y120000D02*
D03*
X225000Y105000D02*
D03*
X232500Y90000D02*
D03*
X225000Y75000D02*
D03*
X232500Y60000D02*
D03*
X225000Y45000D02*
D03*
X210000Y255000D02*
D03*
Y225000D02*
D03*
X217500Y210000D02*
D03*
X210000Y195000D02*
D03*
Y135000D02*
D03*
X217500Y120000D02*
D03*
X210000Y105000D02*
D03*
X217500Y90000D02*
D03*
X210000Y75000D02*
D03*
X217500Y60000D02*
D03*
X210000Y45000D02*
D03*
X202500Y270000D02*
D03*
X195000Y255000D02*
D03*
X202500Y240000D02*
D03*
X195000Y225000D02*
D03*
X202500Y210000D02*
D03*
X195000Y195000D02*
D03*
Y135000D02*
D03*
X202500Y120000D02*
D03*
X195000Y105000D02*
D03*
X202500Y90000D02*
D03*
X195000Y75000D02*
D03*
X202500Y60000D02*
D03*
X195000Y45000D02*
D03*
X180000Y285000D02*
D03*
Y255000D02*
D03*
X187500Y240000D02*
D03*
X180000Y225000D02*
D03*
X187500Y210000D02*
D03*
X180000Y195000D02*
D03*
Y135000D02*
D03*
X187500Y120000D02*
D03*
X180000Y105000D02*
D03*
X187500Y90000D02*
D03*
X180000Y75000D02*
D03*
X187500Y60000D02*
D03*
X180000Y45000D02*
D03*
X165000Y285000D02*
D03*
Y255000D02*
D03*
X172500Y240000D02*
D03*
X165000Y225000D02*
D03*
X172500Y210000D02*
D03*
X165000Y195000D02*
D03*
Y135000D02*
D03*
X172500Y120000D02*
D03*
X165000Y105000D02*
D03*
X172500Y90000D02*
D03*
X165000Y75000D02*
D03*
X172500Y60000D02*
D03*
X165000Y45000D02*
D03*
X157500Y240000D02*
D03*
X150000Y225000D02*
D03*
X157500Y210000D02*
D03*
Y120000D02*
D03*
X150000Y105000D02*
D03*
X157500Y90000D02*
D03*
X150000Y75000D02*
D03*
X157500Y60000D02*
D03*
X150000Y45000D02*
D03*
X142500Y300000D02*
D03*
X135000Y285000D02*
D03*
X142500Y240000D02*
D03*
X135000Y225000D02*
D03*
X142500Y210000D02*
D03*
X135000Y195000D02*
D03*
X120000Y285000D02*
D03*
X127500Y270000D02*
D03*
X120000Y255000D02*
D03*
X127500Y240000D02*
D03*
X120000Y225000D02*
D03*
X127500Y210000D02*
D03*
X120000Y195000D02*
D03*
X105000Y255000D02*
D03*
X112500Y240000D02*
D03*
X105000Y225000D02*
D03*
X112500Y210000D02*
D03*
X105000Y195000D02*
D03*
X90000Y285000D02*
D03*
X97500Y270000D02*
D03*
X90000Y255000D02*
D03*
X97500Y240000D02*
D03*
X90000Y225000D02*
D03*
X97500Y210000D02*
D03*
X90000Y195000D02*
D03*
X75000Y285000D02*
D03*
X82500Y270000D02*
D03*
X75000Y255000D02*
D03*
Y225000D02*
D03*
X82500Y210000D02*
D03*
X75000Y195000D02*
D03*
X67500Y300000D02*
D03*
X60000Y285000D02*
D03*
X67500Y270000D02*
D03*
X60000Y255000D02*
D03*
Y225000D02*
D03*
X67500Y210000D02*
D03*
X60000Y195000D02*
D03*
X67500Y180000D02*
D03*
X60000Y165000D02*
D03*
X67500Y150000D02*
D03*
X60000Y135000D02*
D03*
X67500Y120000D02*
D03*
X60000Y105000D02*
D03*
X67500Y90000D02*
D03*
X60000Y75000D02*
D03*
X67500Y60000D02*
D03*
X60000Y45000D02*
D03*
X52500Y300000D02*
D03*
X45000Y285000D02*
D03*
Y255000D02*
D03*
Y225000D02*
D03*
X52500Y210000D02*
D03*
X45000Y195000D02*
D03*
X52500Y180000D02*
D03*
X45000Y165000D02*
D03*
X52500Y150000D02*
D03*
X45000Y135000D02*
D03*
X52500Y120000D02*
D03*
X45000Y105000D02*
D03*
X52500Y90000D02*
D03*
X45000Y75000D02*
D03*
X52500Y60000D02*
D03*
X45000Y45000D02*
D03*
X37500Y300000D02*
D03*
X30000Y285000D02*
D03*
X37500Y270000D02*
D03*
X30000Y255000D02*
D03*
X37500Y240000D02*
D03*
X30000Y225000D02*
D03*
X37500Y210000D02*
D03*
X30000Y195000D02*
D03*
X37500Y180000D02*
D03*
X30000Y165000D02*
D03*
X37500Y150000D02*
D03*
X30000Y135000D02*
D03*
X37500Y120000D02*
D03*
X30000Y105000D02*
D03*
X37500Y90000D02*
D03*
X30000Y75000D02*
D03*
X37500Y60000D02*
D03*
X30000Y45000D02*
D03*
X15000Y285000D02*
D03*
X22500Y270000D02*
D03*
X15000Y255000D02*
D03*
X22500Y240000D02*
D03*
X15000Y225000D02*
D03*
X22500Y210000D02*
D03*
X15000Y195000D02*
D03*
X22500Y180000D02*
D03*
X15000Y165000D02*
D03*
X22500Y150000D02*
D03*
X15000Y135000D02*
D03*
X22500Y120000D02*
D03*
X15000Y105000D02*
D03*
X22500Y90000D02*
D03*
X15000Y75000D02*
D03*
Y45000D02*
D03*
D80*
X244000Y160000D02*
D03*
X237000Y161000D02*
D03*
D81*
X160500Y183000D02*
D03*
X402500Y201500D02*
D03*
X286339Y149425D02*
D03*
X289566D02*
D03*
X324173Y162062D02*
D03*
X292639Y174622D02*
D03*
X207492Y314008D02*
D03*
X207692Y308725D02*
D03*
X210992Y311508D02*
D03*
X214000Y316850D02*
D03*
X211500Y302500D02*
D03*
X90500Y309000D02*
D03*
X85500Y306500D02*
D03*
X78500Y308000D02*
D03*
X89683Y312187D02*
D03*
X86500Y312500D02*
D03*
X76023Y311908D02*
D03*
X222023Y318408D02*
D03*
X114000Y184000D02*
D03*
X272000Y141000D02*
D03*
X191454Y140298D02*
D03*
X174954Y204298D02*
D03*
X184454Y204798D02*
D03*
X165954Y197798D02*
D03*
X422500Y195000D02*
D03*
X100000Y148500D02*
D03*
X103500Y158500D02*
D03*
X410000Y129500D02*
D03*
X406000D02*
D03*
X413500Y179500D02*
D03*
X414000Y150000D02*
D03*
X391000Y140500D02*
D03*
X405000Y211500D02*
D03*
X394486Y191590D02*
D03*
X421000Y183000D02*
D03*
X408000Y179500D02*
D03*
X422850Y144955D02*
D03*
X270500Y276000D02*
D03*
X319000Y249000D02*
D03*
X309000D02*
D03*
X332000Y245500D02*
D03*
X133500Y313500D02*
D03*
X117500Y309500D02*
D03*
X209722Y298000D02*
D03*
X219000Y313000D02*
D03*
X198000Y286000D02*
D03*
X200000Y278500D02*
D03*
X216250Y307250D02*
D03*
X216500Y298000D02*
D03*
X298976Y174583D02*
D03*
X299000Y218000D02*
D03*
X271376Y186124D02*
D03*
X268500Y184000D02*
D03*
X346000Y286000D02*
D03*
X341500Y279500D02*
D03*
X334500Y266500D02*
D03*
X346000Y279500D02*
D03*
X320996Y184004D02*
D03*
X324025Y183971D02*
D03*
X316500Y189000D02*
D03*
X313000Y192000D02*
D03*
X327400Y161675D02*
D03*
X289528Y174583D02*
D03*
X289566Y180921D02*
D03*
X296000Y174500D02*
D03*
X424000Y133500D02*
D03*
X283000Y126850D02*
D03*
X289500Y128350D02*
D03*
X283190Y143126D02*
D03*
X275000Y139901D02*
D03*
X295865Y143126D02*
D03*
X275000Y174000D02*
D03*
X266350Y181650D02*
D03*
X198500Y160500D02*
D03*
X269833Y179167D02*
D03*
X289600Y152500D02*
D03*
X236000Y291500D02*
D03*
X240500Y271500D02*
D03*
X253000Y256500D02*
D03*
X274500Y179200D02*
D03*
X99504Y163500D02*
D03*
X412500Y207500D02*
D03*
X401000Y157000D02*
D03*
X404000Y150000D02*
D03*
X428000Y189500D02*
D03*
X164984Y170979D02*
D03*
X308464Y149425D02*
D03*
X317874Y162062D02*
D03*
X302088Y149425D02*
D03*
X308425Y177810D02*
D03*
X302126D02*
D03*
X301000Y167220D02*
D03*
X307500Y160500D02*
D03*
X301500D02*
D03*
X307500Y167469D02*
D03*
X295850Y152600D02*
D03*
X286400Y165175D02*
D03*
X289500Y158875D02*
D03*
X317875Y165200D02*
D03*
X289525Y165150D02*
D03*
X133500Y307000D02*
D03*
X136000Y310500D02*
D03*
X136500Y314500D02*
D03*
X124500Y305500D02*
D03*
X122000Y312500D02*
D03*
X127000Y316000D02*
D03*
X227000Y273500D02*
D03*
X135000Y127500D02*
D03*
X244000Y295000D02*
D03*
X337531Y272532D02*
D03*
X326500Y271000D02*
D03*
X302000Y252500D02*
D03*
X270500Y280000D02*
D03*
X327000Y290500D02*
D03*
X293000Y280000D02*
D03*
X279500Y293000D02*
D03*
X289500Y252500D02*
D03*
X327000Y305500D02*
D03*
X280500D02*
D03*
X211500Y247000D02*
D03*
X206000Y269000D02*
D03*
X214000Y293000D02*
D03*
X105000Y276500D02*
D03*
Y302000D02*
D03*
X196500Y250500D02*
D03*
X196610Y239831D02*
D03*
D82*
X178669Y171331D02*
D03*
X183000D02*
D03*
X187331D02*
D03*
X178669Y167000D02*
D03*
X183000D02*
D03*
X187331D02*
D03*
X178669Y162669D02*
D03*
X183000D02*
D03*
X187331D02*
D03*
D95*
X129400Y340975D02*
Y341775D01*
Y340975D02*
X129500Y340875D01*
X122000Y312500D02*
X123032Y311468D01*
X129500D01*
Y340875D01*
X82500Y334675D02*
Y341375D01*
X82100Y341775D02*
X82500Y341375D01*
Y311968D02*
Y341375D01*
M02*
