G04*
G04 #@! TF.GenerationSoftware,Altium Limited,Altium Designer,21.0.9 (235)*
G04*
G04 Layer_Physical_Order=1*
G04 Layer_Color=255*
%FSLAX25Y25*%
%MOIN*%
G70*
G04*
G04 #@! TF.SameCoordinates,8EEFB658-3B83-45AA-8D32-91A8FF088AA5*
G04*
G04*
G04 #@! TF.FilePolarity,Positive*
G04*
G01*
G75*
%ADD15C,0.01000*%
%ADD25R,0.06100X0.03900*%
G04:AMPARAMS|DCode=28|XSize=51.18mil|YSize=23.62mil|CornerRadius=2.01mil|HoleSize=0mil|Usage=FLASHONLY|Rotation=90.000|XOffset=0mil|YOffset=0mil|HoleType=Round|Shape=RoundedRectangle|*
%AMROUNDEDRECTD28*
21,1,0.05118,0.01961,0,0,90.0*
21,1,0.04717,0.02362,0,0,90.0*
1,1,0.00402,0.00980,0.02358*
1,1,0.00402,0.00980,-0.02358*
1,1,0.00402,-0.00980,-0.02358*
1,1,0.00402,-0.00980,0.02358*
%
%ADD28ROUNDEDRECTD28*%
%ADD30R,0.00984X0.02657*%
%ADD31R,0.02264X0.00984*%
%ADD37C,0.01600*%
%ADD40R,0.01775X0.04375*%
%ADD46C,0.07100*%
%ADD51R,0.03543X0.03150*%
%ADD52R,0.02362X0.01968*%
%ADD53R,0.03150X0.03543*%
%ADD54R,0.01968X0.02362*%
%ADD55R,0.06102X0.05118*%
%ADD56R,0.02913X0.10984*%
%ADD57R,0.02000X0.02000*%
%ADD58R,0.02000X0.02000*%
%ADD59R,0.05906X0.05512*%
%ADD60O,0.03347X0.00984*%
%ADD61O,0.00984X0.03347*%
%ADD62R,0.12205X0.12205*%
%ADD63R,0.06496X0.02992*%
%ADD64R,0.04331X0.06693*%
%ADD65R,0.07874X0.02756*%
%ADD66R,0.02756X0.07874*%
%ADD67O,0.02362X0.05709*%
%ADD68R,0.30300X0.40000*%
%ADD69R,0.01968X0.40000*%
%ADD70C,0.00354*%
%ADD71C,0.00500*%
%ADD72C,0.01500*%
%ADD73R,0.05906X0.05906*%
%ADD74C,0.05906*%
%ADD75C,0.07400*%
%ADD76C,0.04500*%
%ADD77R,0.05906X0.05906*%
%ADD78C,0.13000*%
%ADD79C,0.01772*%
%ADD80C,0.02000*%
%ADD81C,0.01800*%
%ADD82C,0.01968*%
G36*
X223584Y313950D02*
X223645Y313643D01*
X223819Y313383D01*
X224079Y313209D01*
X224387Y313147D01*
X291254D01*
Y311991D01*
X290791Y311902D01*
X290754Y311902D01*
X282209D01*
Y310956D01*
X278839D01*
Y311535D01*
X276161D01*
Y308465D01*
X278839D01*
Y309214D01*
X282209D01*
Y308437D01*
X290754D01*
X290791Y308437D01*
X291254Y308348D01*
Y307638D01*
X290787Y307559D01*
X290754Y307559D01*
X286675D01*
Y305831D01*
Y304103D01*
X290754D01*
X290787Y304103D01*
X291254Y304024D01*
Y303307D01*
X290787Y303228D01*
X290754Y303228D01*
X286675D01*
Y301500D01*
Y299772D01*
X290754D01*
X290787Y299772D01*
X291254Y299693D01*
Y298991D01*
X290791Y298902D01*
X290754Y298902D01*
X282209D01*
Y298040D01*
X277110D01*
X276777Y297974D01*
X276494Y297785D01*
X275295Y296586D01*
X275167Y296561D01*
X275082Y296504D01*
X274161D01*
Y293433D01*
X276839D01*
Y295666D01*
X277471Y296298D01*
X282209D01*
Y295437D01*
X290754D01*
X290791Y295437D01*
X291254Y295347D01*
Y294630D01*
X290787Y294551D01*
X290754Y294551D01*
X286675D01*
Y292823D01*
Y291095D01*
X290787D01*
Y292173D01*
X291254Y292252D01*
X291367Y291981D01*
X291638Y291868D01*
X315260D01*
X315531Y291981D01*
X315643Y292252D01*
Y313147D01*
X474247D01*
Y39753D01*
X145500D01*
Y190000D01*
X68500D01*
Y39753D01*
X853D01*
Y313147D01*
X63386D01*
X63694Y313209D01*
X63954Y313383D01*
X64128Y313643D01*
X64189Y313950D01*
Y314000D01*
X80974D01*
Y313459D01*
Y300066D01*
X77262Y296354D01*
X75646D01*
Y295626D01*
X55240D01*
X55138Y296007D01*
X54624Y296897D01*
X53897Y297624D01*
X53007Y298138D01*
X52014Y298404D01*
X50986D01*
X49993Y298138D01*
X49103Y297624D01*
X48376Y296897D01*
X47862Y296007D01*
X47596Y295014D01*
Y293986D01*
X47862Y292993D01*
X48376Y292103D01*
X49103Y291376D01*
X49993Y290862D01*
X50986Y290596D01*
X52014D01*
X53007Y290862D01*
X53897Y291376D01*
X54624Y292103D01*
X55138Y292993D01*
X55240Y293374D01*
X77000D01*
X77431Y293460D01*
X77709Y293646D01*
X78354D01*
Y294262D01*
X82896Y298804D01*
X83140Y299169D01*
X83226Y299600D01*
Y310755D01*
X83688Y310946D01*
X95874Y298760D01*
Y295827D01*
X100126D01*
Y299685D01*
X96799D01*
X83226Y313258D01*
Y314000D01*
X120813D01*
X121020Y313500D01*
X120813Y313293D01*
X120600Y312778D01*
Y312222D01*
X120813Y311707D01*
X121207Y311313D01*
X121721Y311100D01*
X122278D01*
X122793Y311313D01*
X123187Y311707D01*
X123400Y312222D01*
Y312778D01*
X123187Y313293D01*
X122980Y313500D01*
X123187Y314000D01*
X127363D01*
X127554Y313538D01*
X113701Y299685D01*
X110374D01*
Y295827D01*
X114626D01*
Y298760D01*
X127812Y311946D01*
X128274Y311755D01*
Y284366D01*
X83762Y239854D01*
X82146D01*
Y239126D01*
X55240D01*
X55138Y239507D01*
X54624Y240397D01*
X53897Y241124D01*
X53007Y241638D01*
X52014Y241904D01*
X50986D01*
X49993Y241638D01*
X49103Y241124D01*
X48376Y240397D01*
X47862Y239507D01*
X47596Y238514D01*
Y237486D01*
X47862Y236493D01*
X48376Y235603D01*
X49103Y234876D01*
X49993Y234362D01*
X50986Y234096D01*
X52014D01*
X53007Y234362D01*
X53897Y234876D01*
X54624Y235603D01*
X55138Y236493D01*
X55240Y236874D01*
X83500D01*
X83931Y236960D01*
X84209Y237146D01*
X84854D01*
Y237762D01*
X130196Y283104D01*
X130440Y283469D01*
X130526Y283900D01*
Y314000D01*
X131952D01*
X132100Y313778D01*
Y313222D01*
X132313Y312707D01*
X132707Y312313D01*
X133221Y312100D01*
X133779D01*
X134293Y312313D01*
X134687Y312707D01*
X134900Y313222D01*
Y313467D01*
X134991Y313520D01*
X135400Y313620D01*
X135707Y313313D01*
X136222Y313100D01*
X136778D01*
X137293Y313313D01*
X137687Y313707D01*
X137808Y314000D01*
X149084D01*
Y313950D01*
X149145Y313643D01*
X149319Y313383D01*
X149579Y313209D01*
X149887Y313147D01*
X156886D01*
X157194Y313209D01*
X157454Y313383D01*
X157628Y313643D01*
X157689Y313950D01*
Y321000D01*
X203896D01*
Y314200D01*
X204087Y313738D01*
X207238Y310587D01*
X207116Y310002D01*
X206899Y309912D01*
X206505Y309518D01*
X206292Y309003D01*
Y308447D01*
X206505Y307932D01*
X206899Y307538D01*
X207413Y307325D01*
X207970D01*
X208485Y307538D01*
X208782Y307835D01*
X212457Y304160D01*
X212173Y303736D01*
X211778Y303900D01*
X211222D01*
X210707Y303687D01*
X210313Y303293D01*
X210100Y302779D01*
Y302221D01*
X210313Y301707D01*
X210366Y301654D01*
X210159Y301154D01*
X181854D01*
Y301854D01*
X179146D01*
Y300654D01*
X170248D01*
X170082Y301276D01*
X169646Y302031D01*
X169031Y302646D01*
X168277Y303082D01*
X167435Y303307D01*
X166565D01*
X165724Y303082D01*
X164969Y302646D01*
X164354Y302031D01*
X163918Y301276D01*
X163693Y300435D01*
Y299565D01*
X163918Y298724D01*
X164354Y297969D01*
X164969Y297354D01*
X165724Y296918D01*
X166565Y296693D01*
X167435D01*
X168277Y296918D01*
X169031Y297354D01*
X169646Y297969D01*
X170082Y298724D01*
X170248Y299346D01*
X179146D01*
Y299146D01*
X181854D01*
Y299846D01*
X209213D01*
X209313Y299346D01*
X208929Y299187D01*
X208535Y298793D01*
X208322Y298278D01*
Y297722D01*
X208380Y297583D01*
X201451Y290654D01*
X181854D01*
Y291354D01*
X179146D01*
Y290654D01*
X170248D01*
X170082Y291277D01*
X169646Y292031D01*
X169031Y292646D01*
X168277Y293082D01*
X167435Y293307D01*
X166565D01*
X165724Y293082D01*
X164969Y292646D01*
X164354Y292031D01*
X163918Y291277D01*
X163693Y290435D01*
Y289565D01*
X163918Y288723D01*
X164354Y287969D01*
X164969Y287354D01*
X165724Y286918D01*
X166565Y286693D01*
X167435D01*
X168277Y286918D01*
X169031Y287354D01*
X169646Y287969D01*
X170082Y288723D01*
X170248Y289346D01*
X179146D01*
Y288646D01*
X181854D01*
Y289346D01*
X201722D01*
X202185Y289538D01*
X209305Y296657D01*
X209444Y296600D01*
X210000D01*
X210218Y296690D01*
X210718Y296363D01*
Y284998D01*
X210002D01*
Y279915D01*
X210590D01*
Y275626D01*
X209327D01*
Y271374D01*
X210846D01*
Y266311D01*
X210393Y266009D01*
X210054Y265501D01*
X209934Y264902D01*
Y261555D01*
X210054Y260956D01*
X210393Y260448D01*
X210901Y260109D01*
X211500Y259990D01*
X212099Y260109D01*
X212607Y260448D01*
X212946Y260956D01*
X213066Y261555D01*
Y264902D01*
X212946Y265501D01*
X212607Y266009D01*
X212154Y266311D01*
Y271374D01*
X213185D01*
Y275626D01*
X211898D01*
Y279915D01*
X212486D01*
Y284998D01*
X212026D01*
Y300500D01*
Y301203D01*
X212293Y301313D01*
X212687Y301707D01*
X212900Y302221D01*
Y302779D01*
X212736Y303173D01*
X213160Y303457D01*
X216717Y299900D01*
X216510Y299400D01*
X216221D01*
X215707Y299187D01*
X215313Y298793D01*
X215100Y298278D01*
Y297722D01*
X215313Y297207D01*
X215707Y296813D01*
X215974Y296703D01*
Y284998D01*
X215514D01*
Y279915D01*
X216102D01*
Y275626D01*
X214815D01*
Y271374D01*
X215846D01*
Y266311D01*
X215393Y266009D01*
X215054Y265501D01*
X214934Y264902D01*
Y261555D01*
X215054Y260956D01*
X215393Y260448D01*
X215901Y260109D01*
X216500Y259990D01*
X217099Y260109D01*
X217607Y260448D01*
X217946Y260956D01*
X218066Y261555D01*
Y264902D01*
X217946Y265501D01*
X217607Y266009D01*
X217154Y266311D01*
Y271374D01*
X218673D01*
Y275626D01*
X217410D01*
Y279915D01*
X217998D01*
Y284998D01*
X217282D01*
Y296809D01*
X217293Y296813D01*
X217687Y297207D01*
X217900Y297722D01*
Y298010D01*
X218400Y298217D01*
X229283Y287334D01*
Y236683D01*
X229021Y236508D01*
X226917D01*
X223220Y240205D01*
X223065Y240269D01*
Y243445D01*
X222946Y244044D01*
X222607Y244552D01*
X222099Y244891D01*
X221500Y245010D01*
X220901Y244891D01*
X220393Y244552D01*
X220054Y244044D01*
X219935Y243445D01*
Y240098D01*
X220054Y239499D01*
X220393Y238991D01*
X220901Y238652D01*
X221500Y238533D01*
X222099Y238652D01*
X222593Y238982D01*
X225459Y236116D01*
X225268Y235654D01*
X213271D01*
X210700Y238226D01*
X210772Y238380D01*
X210994Y238638D01*
X211325Y238572D01*
Y241597D01*
X209939D01*
Y240098D01*
X210039Y239593D01*
X209782Y239371D01*
X209627Y239298D01*
X208529Y240396D01*
X208066Y240588D01*
X208066D01*
Y243445D01*
X207946Y244044D01*
X207607Y244552D01*
X207099Y244891D01*
X206500Y245010D01*
X205901Y244891D01*
X205393Y244552D01*
X205054Y244044D01*
X204935Y243445D01*
Y240098D01*
X205054Y239499D01*
X205393Y238991D01*
X205901Y238652D01*
X206500Y238533D01*
X207099Y238652D01*
X207607Y238991D01*
X208041Y239034D01*
X212538Y234538D01*
X213000Y234346D01*
X228396D01*
X274122Y188620D01*
X274585Y188429D01*
X286231D01*
X287437Y187223D01*
X287319Y186633D01*
X287299Y186624D01*
X286974Y186300D01*
X286914Y186154D01*
X286644D01*
X286386Y186047D01*
X286179Y185964D01*
X285790Y186279D01*
X285782Y186300D01*
X285457Y186624D01*
X285033Y186800D01*
X284574D01*
X284149Y186624D01*
X283825Y186300D01*
X283649Y185875D01*
Y185416D01*
X283228Y185219D01*
X283189Y185237D01*
X282808Y185654D01*
Y185875D01*
X282632Y186300D01*
X282307Y186624D01*
X281883Y186800D01*
X281424D01*
X281000Y186624D01*
X280675Y186300D01*
X280499Y185875D01*
Y185416D01*
X280508Y185396D01*
X280174Y184896D01*
X272834D01*
X272694Y185119D01*
X272589Y185396D01*
X272776Y185846D01*
Y186403D01*
X272563Y186917D01*
X272169Y187311D01*
X271654Y187524D01*
X271097D01*
X270583Y187311D01*
X270189Y186917D01*
X270131Y186778D01*
X265124D01*
X264662Y186587D01*
X263229Y185154D01*
X189291D01*
X186268Y188177D01*
X186252Y188193D01*
X186252Y188193D01*
X186197Y188248D01*
X186053Y188310D01*
X185839Y188402D01*
X185839D01*
X185839Y188402D01*
Y191472D01*
X184654D01*
Y193315D01*
X187626D01*
Y197173D01*
X183374D01*
Y193987D01*
X183346Y193919D01*
Y191472D01*
X183161D01*
Y188440D01*
X178307D01*
Y192610D01*
X171693D01*
Y191686D01*
X169339D01*
Y192567D01*
X166661D01*
Y189496D01*
X169339D01*
Y190377D01*
X171693D01*
Y186390D01*
X172346D01*
Y179000D01*
X172538Y178537D01*
X174158Y176917D01*
X174620Y176726D01*
X175247D01*
Y175268D01*
X175278Y175111D01*
X175253Y175061D01*
X174938Y174745D01*
X174886Y174718D01*
X174732Y174748D01*
X173726D01*
Y174065D01*
X175572D01*
X175587Y174095D01*
X175904Y174411D01*
X175953Y174436D01*
X176110Y174405D01*
X176441Y174470D01*
X176720Y174657D01*
X176817Y174801D01*
X176899Y174825D01*
X177290D01*
X177372Y174801D01*
X177469Y174657D01*
X177749Y174470D01*
X178079Y174405D01*
X178409Y174470D01*
X178689Y174657D01*
X178785Y174801D01*
X178867Y174825D01*
X179259D01*
X179341Y174801D01*
X179437Y174657D01*
X179717Y174470D01*
X180047Y174405D01*
X180377Y174470D01*
X180657Y174657D01*
X180754Y174801D01*
X180835Y174825D01*
X181228D01*
X181309Y174801D01*
X181405Y174657D01*
X181685Y174470D01*
X182016Y174405D01*
X182346Y174470D01*
X182626Y174657D01*
X182722Y174801D01*
X182804Y174825D01*
X183196D01*
X183278Y174801D01*
X183374Y174657D01*
X183654Y174470D01*
X183984Y174405D01*
X184315Y174470D01*
X184595Y174657D01*
X184691Y174801D01*
X184773Y174825D01*
X185164D01*
X185246Y174801D01*
X185343Y174657D01*
X185623Y174470D01*
X185953Y174405D01*
X186283Y174470D01*
X186563Y174657D01*
X186659Y174801D01*
X186741Y174825D01*
X187133D01*
X187215Y174801D01*
X187311Y174657D01*
X187591Y174470D01*
X187921Y174405D01*
X188251Y174470D01*
X188531Y174657D01*
X188628Y174801D01*
X188709Y174825D01*
X189102D01*
X189183Y174801D01*
X189279Y174657D01*
X189559Y174470D01*
X189890Y174405D01*
X190042Y174435D01*
X190087Y174412D01*
X190412Y174087D01*
X190435Y174042D01*
X190405Y173890D01*
X190470Y173559D01*
X190657Y173280D01*
X190801Y173183D01*
X190825Y173101D01*
Y172710D01*
X190801Y172628D01*
X190657Y172531D01*
X190470Y172251D01*
X190405Y171921D01*
X190470Y171591D01*
X190657Y171311D01*
X190801Y171215D01*
X190825Y171133D01*
Y170741D01*
X190801Y170659D01*
X190657Y170563D01*
X190470Y170283D01*
X190405Y169953D01*
X190470Y169623D01*
X190657Y169343D01*
X190801Y169246D01*
X190825Y169165D01*
Y168772D01*
X190801Y168691D01*
X190657Y168595D01*
X190470Y168315D01*
X190405Y167984D01*
X190470Y167654D01*
X190657Y167374D01*
X190801Y167278D01*
X190825Y167196D01*
Y166804D01*
X190801Y166722D01*
X190657Y166626D01*
X190470Y166346D01*
X190405Y166016D01*
X190470Y165685D01*
X190657Y165405D01*
X190801Y165309D01*
X190825Y165227D01*
Y164836D01*
X190801Y164754D01*
X190657Y164657D01*
X190470Y164377D01*
X190405Y164047D01*
X190470Y163717D01*
X190657Y163437D01*
X190801Y163341D01*
X190825Y163259D01*
Y162867D01*
X190801Y162785D01*
X190657Y162689D01*
X190470Y162409D01*
X190405Y162079D01*
X190470Y161749D01*
X190657Y161469D01*
X190801Y161372D01*
X190825Y161291D01*
Y160898D01*
X190801Y160817D01*
X190657Y160721D01*
X190470Y160441D01*
X190405Y160110D01*
X190435Y159958D01*
X190412Y159913D01*
X190087Y159588D01*
X190042Y159565D01*
X189890Y159595D01*
X189559Y159530D01*
X189279Y159343D01*
X189183Y159199D01*
X189102Y159175D01*
X188709D01*
X188628Y159199D01*
X188531Y159343D01*
X188251Y159530D01*
X187921Y159595D01*
X187591Y159530D01*
X187311Y159343D01*
X187215Y159199D01*
X187133Y159175D01*
X186741D01*
X186659Y159199D01*
X186563Y159343D01*
X186283Y159530D01*
X185953Y159595D01*
X185623Y159530D01*
X185343Y159343D01*
X185246Y159199D01*
X185164Y159175D01*
X184773D01*
X184691Y159199D01*
X184595Y159343D01*
X184315Y159530D01*
X183984Y159595D01*
X183654Y159530D01*
X183374Y159343D01*
X183278Y159199D01*
X183196Y159175D01*
X182804D01*
X182722Y159199D01*
X182626Y159343D01*
X182346Y159530D01*
X182016Y159595D01*
X181685Y159530D01*
X181405Y159343D01*
X181309Y159199D01*
X181228Y159175D01*
X180835D01*
X180754Y159199D01*
X180657Y159343D01*
X180377Y159530D01*
X180047Y159595D01*
X179717Y159530D01*
X179437Y159343D01*
X179341Y159199D01*
X179259Y159175D01*
X178867D01*
X178785Y159199D01*
X178689Y159343D01*
X178409Y159530D01*
X178079Y159595D01*
X177749Y159530D01*
X177469Y159343D01*
X177372Y159199D01*
X177290Y159175D01*
X176899D01*
X176817Y159199D01*
X176720Y159343D01*
X176441Y159530D01*
X176110Y159595D01*
X175958Y159565D01*
X175913Y159588D01*
X175588Y159913D01*
X175565Y159958D01*
X175595Y160110D01*
X175530Y160441D01*
X175343Y160721D01*
X175199Y160817D01*
X175175Y160898D01*
Y161291D01*
X175199Y161372D01*
X175343Y161469D01*
X175530Y161749D01*
X175595Y162079D01*
X175530Y162409D01*
X175343Y162689D01*
X175199Y162785D01*
X175175Y162867D01*
Y163259D01*
X175199Y163341D01*
X175343Y163437D01*
X175530Y163717D01*
X175595Y164047D01*
X175530Y164377D01*
X175343Y164657D01*
X175199Y164754D01*
X175175Y164836D01*
Y165227D01*
X175199Y165309D01*
X175343Y165405D01*
X175530Y165685D01*
X175595Y166016D01*
X175530Y166346D01*
X175343Y166626D01*
X175199Y166722D01*
X175175Y166804D01*
Y167196D01*
X175199Y167278D01*
X175343Y167374D01*
X175530Y167654D01*
X175595Y167984D01*
X175530Y168315D01*
X175343Y168595D01*
X175199Y168691D01*
X175175Y168772D01*
Y169165D01*
X175199Y169246D01*
X175343Y169343D01*
X175530Y169623D01*
X175595Y169953D01*
X175530Y170283D01*
X175343Y170563D01*
X175199Y170659D01*
X175175Y170741D01*
Y171133D01*
X175199Y171215D01*
X175343Y171311D01*
X175530Y171591D01*
X175595Y171921D01*
X175530Y172251D01*
X175343Y172531D01*
X175195Y172630D01*
X175169Y172718D01*
X175169Y173094D01*
X175195Y173186D01*
X175339Y173283D01*
X175525Y173561D01*
X175556Y173715D01*
X173551D01*
Y173890D01*
X173376D01*
Y174748D01*
X172370D01*
X172041Y174683D01*
X171763Y174497D01*
X171628Y174295D01*
X171269Y174184D01*
X171056Y174161D01*
X168654Y176562D01*
Y180496D01*
X169339D01*
Y183567D01*
X166661D01*
Y182686D01*
X165839D01*
Y183567D01*
X163161D01*
Y180496D01*
X165839D01*
Y181377D01*
X166661D01*
Y180496D01*
X167346D01*
Y176291D01*
X167537Y175829D01*
X171522Y171844D01*
X171573Y171591D01*
X171760Y171311D01*
X171663Y170792D01*
X171483Y170607D01*
X166562D01*
X166384Y170785D01*
Y171257D01*
X166171Y171772D01*
X165777Y172166D01*
X165262Y172379D01*
X164706D01*
X164191Y172166D01*
X163797Y171772D01*
X163707Y171554D01*
X163122Y171432D01*
X162228Y172327D01*
Y178682D01*
X162036Y179145D01*
X160043Y181138D01*
X160153Y181424D01*
X160288Y181600D01*
X160778D01*
X161293Y181813D01*
X161687Y182207D01*
X161900Y182721D01*
Y183279D01*
X161687Y183793D01*
X161293Y184187D01*
X160778Y184400D01*
X160222D01*
X159707Y184187D01*
X159313Y183793D01*
X159100Y183279D01*
Y182788D01*
X158924Y182653D01*
X158638Y182543D01*
X158106Y183075D01*
Y185850D01*
X150902D01*
Y182483D01*
X150402Y182275D01*
X149910Y182767D01*
Y194374D01*
X151185D01*
Y198626D01*
X147327D01*
Y194374D01*
X148602D01*
Y182496D01*
X148793Y182034D01*
X150902Y179925D01*
Y177150D01*
X158106D01*
Y180517D01*
X158606Y180725D01*
X160919Y178411D01*
Y172056D01*
X161111Y171593D01*
X165182Y167522D01*
X165645Y167330D01*
X171428D01*
X171639Y166830D01*
X171483Y166670D01*
X164511D01*
X158106Y173075D01*
Y175850D01*
X150902D01*
Y172150D01*
X157181D01*
X157980Y171350D01*
X157773Y170850D01*
X150902D01*
Y167150D01*
X158106D01*
Y170517D01*
X158606Y170724D01*
X163778Y165553D01*
X164240Y165362D01*
X171428D01*
X171639Y164862D01*
X171483Y164701D01*
X161303D01*
X160841Y164510D01*
X158606Y162276D01*
X158106Y162483D01*
Y165850D01*
X150902D01*
Y162150D01*
X157773D01*
X157980Y161650D01*
X157181Y160850D01*
X150902D01*
Y157150D01*
X158106D01*
Y159925D01*
X161574Y163393D01*
X171428D01*
X171639Y162893D01*
X171483Y162733D01*
X169335D01*
X168872Y162541D01*
X158606Y152276D01*
X158106Y152483D01*
Y155850D01*
X150902D01*
Y154654D01*
X150506D01*
X150043Y154463D01*
X149750Y154170D01*
X149559Y153707D01*
Y141521D01*
X149750Y141059D01*
X153016Y137793D01*
X153478Y137602D01*
X153874D01*
Y136327D01*
X158126D01*
Y140185D01*
X153874D01*
Y139492D01*
X153374Y139285D01*
X150867Y141792D01*
Y146664D01*
X150902Y147150D01*
X151367Y147150D01*
X158106D01*
Y149925D01*
X169606Y161425D01*
X171826D01*
X171904Y161372D01*
X171928Y161291D01*
Y160898D01*
X171904Y160817D01*
X171760Y160721D01*
X171573Y160441D01*
X171522Y160188D01*
X160538Y149203D01*
X160346Y148740D01*
Y143504D01*
X159661D01*
Y140433D01*
X162339D01*
Y141314D01*
X163764D01*
Y136937D01*
X170575D01*
Y142742D01*
X170575Y142764D01*
X170571Y143262D01*
Y145975D01*
X163768D01*
Y143262D01*
X163764Y142764D01*
X163313Y142623D01*
X162339D01*
Y143504D01*
X161654D01*
Y148469D01*
X172432Y159247D01*
X174732D01*
X174885Y159277D01*
X174930Y159255D01*
X175255Y158930D01*
X175277Y158885D01*
X175247Y158732D01*
Y156370D01*
X175313Y156040D01*
X175456Y155825D01*
Y149358D01*
X175259Y149063D01*
X172425D01*
Y143258D01*
X172425Y143236D01*
X172430Y142738D01*
Y140025D01*
X179232D01*
Y142738D01*
X179236Y143236D01*
X179236Y143258D01*
Y144194D01*
X181661D01*
Y143433D01*
X184339D01*
Y146195D01*
X184839Y146402D01*
X185661Y145579D01*
Y143433D01*
X188339D01*
Y146504D01*
X186586D01*
X178733Y154358D01*
Y155825D01*
X178785Y155904D01*
X178867Y155928D01*
X179259D01*
X179341Y155904D01*
X179437Y155760D01*
X179717Y155573D01*
X179970Y155522D01*
X187455Y148038D01*
X187917Y147846D01*
X189661D01*
Y146433D01*
X192339D01*
Y148346D01*
X234729D01*
X256687Y126388D01*
X257150Y126196D01*
X281756D01*
X281813Y126057D01*
X282207Y125663D01*
X282721Y125450D01*
X283278D01*
X283793Y125663D01*
X284187Y126057D01*
X284400Y126572D01*
Y127129D01*
X284310Y127346D01*
X284637Y127846D01*
X288193D01*
X288313Y127557D01*
X288707Y127163D01*
X289222Y126950D01*
X289778D01*
X290293Y127163D01*
X290687Y127557D01*
X290900Y128071D01*
Y128629D01*
X290810Y128846D01*
X291137Y129346D01*
X301000D01*
X301463Y129537D01*
X311963Y140038D01*
X312068Y140293D01*
X312178Y140365D01*
X312569Y140506D01*
X312654Y140507D01*
X312920Y140397D01*
X313379D01*
X313804Y140573D01*
X314128Y140897D01*
X314304Y141322D01*
Y141781D01*
X314154Y142142D01*
X314258Y142415D01*
X314398Y142642D01*
X315051D01*
X315191Y142415D01*
X315295Y142142D01*
X315145Y141781D01*
Y141322D01*
X315321Y140897D01*
X315645Y140573D01*
X315846Y140489D01*
Y121771D01*
X312559Y118484D01*
X312435Y118185D01*
X309374D01*
Y114327D01*
X313626D01*
Y117461D01*
X313676Y117581D01*
Y117751D01*
X316963Y121037D01*
X317154Y121500D01*
Y140774D01*
X317278Y140897D01*
X317454Y141322D01*
Y141781D01*
X317304Y142142D01*
X317407Y142415D01*
X317548Y142642D01*
X318200D01*
X318340Y142415D01*
X318444Y142142D01*
X318295Y141781D01*
Y141322D01*
X318470Y140897D01*
X318795Y140573D01*
X318846Y140551D01*
Y118185D01*
X315874D01*
Y114327D01*
X320126D01*
Y117513D01*
X320154Y117581D01*
Y140624D01*
X320427Y140897D01*
X320603Y141322D01*
Y141781D01*
X320427Y142205D01*
X320385Y142248D01*
X320493Y142834D01*
X321316Y143657D01*
X321902Y143765D01*
X321945Y143722D01*
X322369Y143546D01*
X322828D01*
X323252Y143722D01*
X323577Y144047D01*
X323753Y144471D01*
Y144930D01*
X323577Y145355D01*
X323252Y145679D01*
X322828Y145855D01*
X322369D01*
X322007Y145705D01*
X321945Y145729D01*
X321643Y146272D01*
X321654Y146299D01*
X321544Y146565D01*
X321898Y146836D01*
X321961Y146865D01*
X322369Y146696D01*
X322828D01*
X323252Y146872D01*
X323577Y147196D01*
X323753Y147621D01*
Y148080D01*
X323656Y148314D01*
X323920Y148814D01*
X324426D01*
X324691Y148314D01*
X324594Y148080D01*
Y147621D01*
X324769Y147196D01*
X325094Y146872D01*
X325518Y146696D01*
X325978D01*
X326402Y146872D01*
X326727Y147196D01*
X326902Y147621D01*
Y148080D01*
X326805Y148314D01*
X327070Y148814D01*
X331661D01*
Y147933D01*
X334339D01*
Y151004D01*
X331661D01*
Y150123D01*
X327156D01*
X326841Y150623D01*
X326902Y150770D01*
Y151230D01*
X326727Y151654D01*
X326684Y151697D01*
X326792Y152283D01*
X327151Y152641D01*
X371726D01*
X391481Y132886D01*
X391943Y132694D01*
X395295D01*
Y131665D01*
X397126Y131665D01*
X397488Y131665D01*
X399095Y131665D01*
X399457Y131665D01*
X401063Y131665D01*
X401425Y131665D01*
X403031Y131665D01*
X403394Y131665D01*
X404644D01*
X404862Y131665D01*
X405360Y131670D01*
X405809D01*
Y133348D01*
Y135027D01*
X405360D01*
X404862Y135031D01*
X404644Y135031D01*
X403031Y135031D01*
X402669Y135031D01*
X401063Y135031D01*
X400701Y135031D01*
X399095Y135031D01*
X398732Y135031D01*
X397126Y135031D01*
X396764Y135031D01*
X395295D01*
Y134002D01*
X392214D01*
X390786Y135431D01*
X390977Y135893D01*
X394409D01*
Y135701D01*
X397382D01*
Y137175D01*
X397382Y137394D01*
X397378Y137891D01*
Y138341D01*
X395896D01*
X394414D01*
Y137891D01*
X394412Y137659D01*
X394347Y137201D01*
X390224D01*
X380957Y146469D01*
X381148Y146931D01*
X395300D01*
Y145827D01*
X396142D01*
Y145652D01*
X396317D01*
Y143973D01*
X396984D01*
Y143973D01*
X397264Y143968D01*
Y143968D01*
X399095Y143968D01*
X399457Y143968D01*
X401063Y143968D01*
X401425Y143968D01*
X403031Y143968D01*
X403394Y143968D01*
X405000Y143968D01*
X405362Y143968D01*
X406968Y143968D01*
X407331Y143968D01*
X408937Y143968D01*
X409299Y143968D01*
X410906Y143968D01*
X411268Y143968D01*
X412518D01*
X412736Y143968D01*
X413234Y143973D01*
X413683D01*
Y145652D01*
Y147330D01*
X413234D01*
X412736Y147335D01*
X412518Y147335D01*
X410906Y147335D01*
X410543Y147335D01*
X409299D01*
X409075Y147335D01*
X408607Y147412D01*
Y151661D01*
X410567D01*
Y154339D01*
X407496D01*
Y152586D01*
X407490Y152581D01*
X407299Y152118D01*
Y147412D01*
X406831Y147335D01*
X406606Y147335D01*
X405362D01*
X405138Y147335D01*
X404670Y147412D01*
Y148762D01*
X404793Y148813D01*
X405187Y149207D01*
X405400Y149722D01*
Y150278D01*
X405187Y150793D01*
X404984Y150996D01*
X405191Y151496D01*
X405339D01*
Y154567D01*
X402661D01*
Y153686D01*
X376156D01*
X373521Y156321D01*
X373058Y156512D01*
X336413D01*
X329079Y163846D01*
X329286Y164346D01*
X334815D01*
Y163374D01*
X338673D01*
Y167626D01*
X334815D01*
Y165654D01*
X327220D01*
X327211Y165663D01*
X327063Y165724D01*
X327010Y165783D01*
X326820Y166312D01*
X326822Y166324D01*
X326902Y166518D01*
Y166978D01*
X326727Y167402D01*
X326402Y167727D01*
X325978Y167902D01*
X325518D01*
X325094Y167727D01*
X324769Y167402D01*
X324594Y166978D01*
Y166518D01*
X324642Y166402D01*
X324376Y165987D01*
X323970D01*
X323704Y166402D01*
X323753Y166518D01*
Y166978D01*
X323577Y167402D01*
X323252Y167727D01*
X322828Y167902D01*
X322369D01*
X321945Y167727D01*
X321620Y167402D01*
X321444Y166978D01*
Y166518D01*
X321493Y166402D01*
X321227Y165987D01*
X320821D01*
X320555Y166402D01*
X320603Y166518D01*
Y166978D01*
X320427Y167402D01*
X320103Y167727D01*
X319678Y167902D01*
X319219D01*
X318795Y167727D01*
X318470Y167402D01*
X318295Y166978D01*
Y166694D01*
X318154Y166600D01*
X317597D01*
X317454Y166695D01*
Y166978D01*
X317278Y167402D01*
X316953Y167727D01*
X316529Y167902D01*
X316070D01*
X315645Y167727D01*
X315321Y167402D01*
X315145Y166978D01*
Y166518D01*
X314753Y166161D01*
X314685Y166138D01*
X314304Y166519D01*
Y166978D01*
X314128Y167402D01*
X313804Y167726D01*
Y168919D01*
X314128Y169244D01*
X314304Y169668D01*
Y170127D01*
X314128Y170552D01*
X313804Y170876D01*
X313379Y171052D01*
X312920D01*
X312496Y170876D01*
X312171Y170552D01*
X311995Y170127D01*
Y169668D01*
X312171Y169244D01*
X312495Y168919D01*
Y167726D01*
X312171Y167402D01*
X311995Y166978D01*
Y166518D01*
X312171Y166094D01*
X312496Y165769D01*
X312920Y165594D01*
X313379D01*
X313799Y165173D01*
X313379Y164753D01*
X312920D01*
X312496Y164577D01*
X312171Y164252D01*
X311995Y163828D01*
Y163369D01*
X312171Y162945D01*
X312496Y162620D01*
X312920Y162444D01*
X313379D01*
X313607Y162539D01*
X313890Y162115D01*
X313379Y161603D01*
X312920D01*
X312496Y161427D01*
X312171Y161103D01*
X311995Y160678D01*
Y160219D01*
X312171Y159795D01*
X312495Y159470D01*
Y158277D01*
X312171Y157953D01*
X311995Y157529D01*
Y157070D01*
X312171Y156645D01*
X312496Y156321D01*
X312920Y156145D01*
X313379D01*
X313804Y156321D01*
X314128Y156645D01*
X314304Y157070D01*
Y157529D01*
X314128Y157953D01*
X313804Y158277D01*
Y159470D01*
X314128Y159795D01*
X314304Y160219D01*
Y160678D01*
X314815Y161189D01*
X315239Y160906D01*
X315145Y160678D01*
Y160219D01*
X315321Y159795D01*
X315645Y159470D01*
X316070Y159294D01*
X316529D01*
X316953Y159470D01*
X317278Y159795D01*
X317454Y160219D01*
X317596Y160662D01*
X318152D01*
X318295Y160219D01*
X318470Y159795D01*
X318795Y159470D01*
X319219Y159294D01*
X319678D01*
X320103Y159470D01*
X320427Y159795D01*
X320603Y160219D01*
Y160678D01*
X320427Y161103D01*
X320103Y161427D01*
X319678Y161603D01*
X319619Y161630D01*
X319496Y162232D01*
X319678Y162444D01*
X320103Y162620D01*
X320427Y162945D01*
X320603Y163369D01*
Y163828D01*
X320513Y164046D01*
X320787Y164546D01*
X321260D01*
X321534Y164046D01*
X321444Y163828D01*
Y163369D01*
X321620Y162945D01*
X321945Y162620D01*
X322369Y162444D01*
X322704D01*
X322773Y162341D01*
Y161784D01*
X322369Y161603D01*
X321945Y161427D01*
X321620Y161103D01*
X321444Y160678D01*
Y160219D01*
X321620Y159795D01*
X321945Y159470D01*
X322369Y159294D01*
X322828D01*
X323252Y159470D01*
X323577Y159795D01*
X323753Y160219D01*
X323895Y160662D01*
X324452Y160662D01*
X324594Y160219D01*
X324769Y159795D01*
X325094Y159470D01*
X325518Y159294D01*
X325978D01*
X326402Y159470D01*
X326727Y159795D01*
X326902Y160219D01*
X327038Y160310D01*
X327121Y160275D01*
X327678D01*
X328193Y160488D01*
X328587Y160882D01*
X328800Y161397D01*
Y161568D01*
X329300Y161775D01*
X334955Y156120D01*
X334764Y155658D01*
X330267D01*
X328163Y157762D01*
X327701Y157953D01*
X326726D01*
X326402Y158278D01*
X325978Y158454D01*
X325518D01*
X325094Y158278D01*
X324769Y157953D01*
X324594Y157529D01*
Y157070D01*
X324769Y156645D01*
X325094Y156321D01*
X325518Y156145D01*
X325978D01*
X326402Y156321D01*
X326726Y156645D01*
X327430D01*
X328809Y155266D01*
X328618Y154804D01*
X326726D01*
X326402Y155128D01*
X325978Y155304D01*
X325518D01*
X325094Y155128D01*
X324769Y154804D01*
X324594Y154379D01*
Y153920D01*
X324158Y153698D01*
X323753Y154074D01*
Y154379D01*
X323577Y154804D01*
X323252Y155128D01*
X322828Y155304D01*
X322369D01*
X321945Y155128D01*
X321620Y154804D01*
X321444Y154379D01*
Y153920D01*
X321620Y153496D01*
X321945Y153171D01*
X322369Y152995D01*
X322828D01*
X323339Y152484D01*
X323056Y152060D01*
X322828Y152154D01*
X322369D01*
X322008Y152005D01*
X321945Y151979D01*
X321343Y152016D01*
X320397Y152963D01*
X320424Y153493D01*
X320427Y153496D01*
X320603Y153920D01*
Y154379D01*
X320427Y154804D01*
X320103Y155128D01*
X319678Y155304D01*
X319219D01*
X318795Y155128D01*
X318470Y154804D01*
X318295Y154379D01*
Y153920D01*
X318405Y153654D01*
X318200Y153238D01*
X318112Y153154D01*
X317636D01*
X317548Y153238D01*
X317343Y153654D01*
X317454Y153920D01*
Y154379D01*
X317278Y154804D01*
X316953Y155128D01*
X316529Y155304D01*
X316070D01*
X315645Y155128D01*
X315321Y154804D01*
X315145Y154379D01*
Y153987D01*
X314967Y153851D01*
X314683Y153742D01*
X314304Y154121D01*
Y154379D01*
X314128Y154804D01*
X313804Y155128D01*
X313379Y155304D01*
X312920D01*
X312496Y155128D01*
X312171Y154804D01*
X311995Y154379D01*
Y153920D01*
X312171Y153496D01*
X312496Y153171D01*
X312920Y152995D01*
X313379D01*
X313521Y153054D01*
X314538Y152038D01*
X314900Y151887D01*
X315095Y151600D01*
X315193Y151346D01*
X315145Y151230D01*
Y150770D01*
X315321Y150346D01*
X315645Y150021D01*
X316070Y149846D01*
X316529D01*
X316953Y150021D01*
X317278Y150346D01*
X317454Y150770D01*
Y151230D01*
X317791Y151614D01*
X317957D01*
X318158Y151385D01*
X318295Y151168D01*
Y150770D01*
X318470Y150346D01*
X318795Y150021D01*
X319219Y149846D01*
X319678D01*
X320076Y150011D01*
X320081Y150011D01*
X320127Y150014D01*
X320642Y149853D01*
X320732Y149636D01*
X321362Y149006D01*
X321399Y148991D01*
X321492Y148787D01*
X321568Y148379D01*
X321444Y148080D01*
Y147621D01*
X321538Y147393D01*
X321115Y147110D01*
X320603Y147621D01*
Y148080D01*
X320427Y148504D01*
X320103Y148829D01*
X319678Y149005D01*
X319219D01*
X318795Y148829D01*
X318470Y148504D01*
X318295Y148080D01*
Y147621D01*
X318470Y147196D01*
X318594Y147073D01*
X318311Y146649D01*
X318044Y146759D01*
X317548D01*
X317407Y146986D01*
X317304Y147259D01*
X317454Y147621D01*
Y148080D01*
X317278Y148504D01*
X316953Y148829D01*
X316529Y149005D01*
X316070D01*
X315645Y148829D01*
X315321Y148504D01*
X315145Y148080D01*
Y147621D01*
X315295Y147259D01*
X315191Y146986D01*
X315051Y146759D01*
X314398D01*
X314258Y146986D01*
X314154Y147259D01*
X314304Y147621D01*
Y148080D01*
X314128Y148504D01*
X313804Y148829D01*
X313379Y149005D01*
X312920D01*
X312496Y148829D01*
X312171Y148504D01*
X311995Y148080D01*
Y147621D01*
X312145Y147259D01*
X312041Y146986D01*
X311901Y146759D01*
X311248D01*
X311108Y146986D01*
X311005Y147259D01*
X311154Y147621D01*
Y148080D01*
X310979Y148504D01*
X310654Y148829D01*
X310230Y149005D01*
X309958D01*
X309863Y149147D01*
Y149704D01*
X309958Y149846D01*
X310230D01*
X310654Y150021D01*
X310979Y150346D01*
X311154Y150770D01*
Y151230D01*
X310979Y151654D01*
X310654Y151979D01*
X310230Y152154D01*
X309770D01*
X309432Y152555D01*
X309407Y152632D01*
X309771Y152995D01*
X310230D01*
X310654Y153171D01*
X310979Y153496D01*
X311154Y153920D01*
Y154379D01*
X310979Y154804D01*
X310654Y155128D01*
X310230Y155304D01*
X309770D01*
X309346Y155128D01*
X309021Y154804D01*
X308846Y154379D01*
Y153920D01*
X308425Y153500D01*
X308005Y153920D01*
Y154379D01*
X307829Y154804D01*
X307504Y155128D01*
X307080Y155304D01*
X306621D01*
X306196Y155128D01*
X305872Y154804D01*
X305696Y154379D01*
Y153920D01*
X305872Y153496D01*
X306196Y153171D01*
X306621Y152995D01*
X307080D01*
X307591Y152484D01*
X307308Y152060D01*
X307080Y152154D01*
X306621D01*
X306196Y151979D01*
X305872Y151654D01*
X305696Y151230D01*
Y150770D01*
X305872Y150346D01*
X306196Y150021D01*
X306621Y149846D01*
X307064Y149704D01*
Y149147D01*
X306621Y149005D01*
X306196Y148829D01*
X305872Y148504D01*
X305696Y148080D01*
Y147621D01*
X305872Y147196D01*
X306196Y146872D01*
X306621Y146696D01*
X307080D01*
X307504Y146872D01*
X307829Y147196D01*
X308005Y147621D01*
X308031Y147680D01*
X308633Y147803D01*
X308846Y147621D01*
X309021Y147196D01*
X309064Y147154D01*
X308956Y146568D01*
X308138Y145750D01*
X308083Y145716D01*
X307504Y145679D01*
X307441Y145706D01*
X307441Y145706D01*
X307309Y145760D01*
X307080Y145855D01*
X306621D01*
X306196Y145679D01*
X305872Y145355D01*
X305696Y144930D01*
Y144471D01*
X305872Y144047D01*
X306196Y143722D01*
X306621Y143546D01*
X307080D01*
X307277Y143126D01*
X307259Y143087D01*
X306842Y142706D01*
X306621D01*
X306196Y142530D01*
X305872Y142205D01*
X305696Y141781D01*
Y141322D01*
X305872Y140897D01*
X306196Y140573D01*
X306621Y140397D01*
X306765D01*
X306972Y139897D01*
X299175Y132100D01*
X287178D01*
X287078Y132304D01*
X287025Y132600D01*
X292969Y138544D01*
X293161Y139007D01*
Y140303D01*
X293388Y140443D01*
X293661Y140547D01*
X294022Y140397D01*
X294482D01*
X294906Y140573D01*
X295231Y140897D01*
X295406Y141322D01*
X295587Y141726D01*
X296144D01*
X296247Y141657D01*
Y141322D01*
X296423Y140897D01*
X296748Y140573D01*
X297172Y140397D01*
X297631D01*
X298056Y140573D01*
X298380Y140897D01*
X298556Y141322D01*
Y141781D01*
X298380Y142205D01*
X298056Y142530D01*
X297631Y142706D01*
X297360D01*
X297265Y142848D01*
Y143404D01*
X297360Y143546D01*
X297631D01*
X298056Y143722D01*
X298380Y144047D01*
X298556Y144471D01*
Y144930D01*
X298380Y145355D01*
X298056Y145679D01*
X297631Y145855D01*
X297172D01*
X296748Y145679D01*
X296423Y145355D01*
X296247Y144930D01*
X296035Y144748D01*
X295433Y144871D01*
X295406Y144930D01*
X295231Y145355D01*
X294906Y145679D01*
X294482Y145855D01*
X294022D01*
X293794Y145761D01*
X293511Y146185D01*
X294023Y146696D01*
X294482D01*
X294906Y146872D01*
X295231Y147196D01*
X295406Y147621D01*
Y148080D01*
X295231Y148504D01*
X294906Y148829D01*
X294482Y149005D01*
X294022D01*
X293598Y148829D01*
X293273Y148504D01*
X293098Y148080D01*
Y147621D01*
X292699Y147222D01*
X292637Y147245D01*
X292257Y147621D01*
Y148080D01*
X292081Y148504D01*
X291756Y148829D01*
X291332Y149005D01*
X291061D01*
X290966Y149147D01*
Y149704D01*
X291061Y149846D01*
X291332D01*
X291756Y150021D01*
X292081Y150346D01*
X292257Y150770D01*
Y151230D01*
X292081Y151654D01*
X291756Y151979D01*
X291332Y152154D01*
X291045D01*
X291000Y152222D01*
Y152778D01*
X291145Y152995D01*
X291332D01*
X291756Y153171D01*
X292081Y153496D01*
X292257Y153920D01*
Y154379D01*
X292081Y154804D01*
X291756Y155128D01*
X291332Y155304D01*
X290873D01*
X290362Y155815D01*
X290645Y156239D01*
X290873Y156145D01*
X291332D01*
X291756Y156321D01*
X292081Y156645D01*
X292257Y157070D01*
Y157529D01*
X292621Y157930D01*
X292675Y157951D01*
X293098Y157528D01*
Y157070D01*
X293273Y156645D01*
X293598Y156321D01*
X294022Y156145D01*
X294482D01*
X294906Y156321D01*
X295231Y156645D01*
X295406Y157070D01*
Y157529D01*
X295231Y157953D01*
X294906Y158278D01*
X294482Y158454D01*
X294282D01*
X294035Y158700D01*
X294025Y159195D01*
X294066Y159294D01*
X294482D01*
X294906Y159470D01*
X295231Y159795D01*
X295406Y160219D01*
Y160678D01*
X295391Y160715D01*
X295388Y160751D01*
X295660Y161326D01*
X295816Y161391D01*
X296462Y162038D01*
X296527Y162193D01*
X297102Y162465D01*
X297139Y162463D01*
X297173Y162448D01*
X297227D01*
Y163598D01*
Y164748D01*
X297173D01*
X296962Y165173D01*
X296985Y165219D01*
X297227Y165439D01*
Y166748D01*
Y167898D01*
X297173D01*
X296962Y168323D01*
X296985Y168369D01*
X297227Y168589D01*
Y169898D01*
X297402D01*
Y170073D01*
X298552D01*
Y170126D01*
X298390Y170516D01*
X298377Y170572D01*
X298449Y171184D01*
X299289Y172024D01*
X299463Y172197D01*
X299943Y172050D01*
X300322Y171893D01*
X300781D01*
X301205Y172069D01*
X301530Y172393D01*
X301706Y172818D01*
Y173276D01*
X302126Y173697D01*
X302547Y173276D01*
Y172818D01*
X302722Y172393D01*
X303047Y172069D01*
X303471Y171893D01*
X303930D01*
X304355Y172069D01*
X304679Y172393D01*
X304855Y172818D01*
Y173277D01*
X304679Y173701D01*
X304355Y174026D01*
X303930Y174202D01*
X303471D01*
X303050Y174623D01*
X303071Y174677D01*
X303471Y175042D01*
X303930D01*
X304355Y175218D01*
X304679Y175543D01*
X304855Y175967D01*
Y176426D01*
X304679Y176851D01*
X304355Y177175D01*
X303930Y177351D01*
X303871Y177378D01*
X303748Y177980D01*
X303930Y178192D01*
X304355Y178368D01*
X304679Y178693D01*
X304855Y179117D01*
Y179576D01*
X304679Y180000D01*
X304355Y180325D01*
X303930Y180501D01*
X303471D01*
X303243Y180406D01*
X302960Y180830D01*
X303471Y181342D01*
X303930D01*
X304291Y181491D01*
X304355Y181518D01*
X304956Y181480D01*
X305834Y180601D01*
X305872Y180000D01*
X305845Y179937D01*
X305696Y179576D01*
Y179117D01*
X305872Y178693D01*
X306196Y178368D01*
X306621Y178192D01*
X306803Y177980D01*
X306680Y177378D01*
X306621Y177351D01*
X306196Y177175D01*
X305872Y176851D01*
X305696Y176426D01*
Y175967D01*
X305872Y175543D01*
X306196Y175218D01*
X306621Y175042D01*
X307080D01*
X307480Y174677D01*
X307501Y174623D01*
X307080Y174202D01*
X306621D01*
X306196Y174026D01*
X305872Y173701D01*
X305696Y173277D01*
Y172818D01*
X305872Y172393D01*
X306196Y172069D01*
X306621Y171893D01*
X307080D01*
X307504Y172069D01*
X307829Y172393D01*
X308005Y172818D01*
Y173276D01*
X308425Y173697D01*
X308846Y173276D01*
Y172818D01*
X309021Y172393D01*
X309346Y172069D01*
X309770Y171893D01*
X310230D01*
X310654Y172069D01*
X310979Y172393D01*
X311154Y172818D01*
Y173277D01*
X310979Y173701D01*
X310654Y174026D01*
X310230Y174202D01*
X309771D01*
X309350Y174623D01*
X309371Y174677D01*
X309770Y175042D01*
X310230D01*
X310654Y175218D01*
X310979Y175543D01*
X311154Y175967D01*
Y176426D01*
X310979Y176851D01*
X310654Y177175D01*
X310230Y177351D01*
X310170Y177378D01*
X310048Y177980D01*
X310230Y178192D01*
X310654Y178368D01*
X310979Y178693D01*
X311154Y179117D01*
Y179576D01*
X310979Y180000D01*
X310654Y180325D01*
X310230Y180501D01*
X309771D01*
X309259Y181012D01*
X309542Y181436D01*
X309770Y181342D01*
X310230D01*
X310654Y181518D01*
X310979Y181842D01*
X311154Y182266D01*
Y182726D01*
X311578Y183010D01*
X311617Y183020D01*
X311995Y182695D01*
Y182266D01*
X312171Y181842D01*
X312496Y181518D01*
X312920Y181342D01*
X313379D01*
X313804Y181518D01*
X314128Y181842D01*
X314304Y182266D01*
Y182726D01*
X314128Y183150D01*
X313804Y183475D01*
X313379Y183650D01*
X312920D01*
X312409Y184162D01*
X312692Y184586D01*
X312920Y184491D01*
X313379D01*
X313804Y184667D01*
X314128Y184992D01*
X314304Y185416D01*
Y185875D01*
X314128Y186300D01*
X313804Y186624D01*
X313379Y186800D01*
X312920D01*
X312692Y186706D01*
X312409Y187129D01*
X314630Y189350D01*
X315100Y189113D01*
Y188722D01*
X315313Y188207D01*
X315707Y187813D01*
X316221Y187600D01*
X316772D01*
X318354Y186018D01*
X318295Y185875D01*
Y185416D01*
X318470Y184992D01*
X318795Y184667D01*
X319219Y184491D01*
X319270Y184463D01*
X319418Y183837D01*
X319304Y183650D01*
X319219D01*
X318795Y183475D01*
X318470Y183150D01*
X318295Y182726D01*
Y182266D01*
X318470Y181842D01*
X318795Y181518D01*
X319219Y181342D01*
X319678D01*
X320103Y181518D01*
X320427Y181842D01*
X320603Y182266D01*
Y182527D01*
X320718Y182604D01*
X321275D01*
X321444Y182490D01*
Y182266D01*
X321620Y181842D01*
X321945Y181518D01*
X322369Y181342D01*
X322828D01*
X323252Y181518D01*
X323577Y181842D01*
X323753Y182266D01*
Y182571D01*
X324303D01*
X324594Y182377D01*
Y182266D01*
X324769Y181842D01*
X325094Y181518D01*
X325518Y181342D01*
X325978D01*
X326402Y181518D01*
X326726Y181842D01*
X327443D01*
X327634Y181380D01*
X326491Y180236D01*
X326402Y180325D01*
X325978Y180501D01*
X325518D01*
X325094Y180325D01*
X324769Y180000D01*
X324594Y179576D01*
Y179117D01*
X324743Y178756D01*
X324743Y178756D01*
X324769Y178693D01*
X324732Y178092D01*
X323887Y177247D01*
X323881Y177241D01*
X323295Y177133D01*
X323252Y177175D01*
X322828Y177351D01*
X322369D01*
X321945Y177175D01*
X321620Y176851D01*
X321444Y176426D01*
Y175967D01*
X321620Y175543D01*
X321945Y175218D01*
X322369Y175042D01*
X322828D01*
X323190Y175192D01*
X323463Y175089D01*
X323690Y174948D01*
Y174452D01*
X323800Y174185D01*
X323376Y173902D01*
X323252Y174026D01*
X322828Y174202D01*
X322369D01*
X321945Y174026D01*
X321620Y173701D01*
X321444Y173277D01*
Y172818D01*
X321491Y172704D01*
X321224Y172288D01*
X320823D01*
X320556Y172704D01*
X320603Y172818D01*
Y173277D01*
X320427Y173701D01*
X320103Y174026D01*
X319678Y174202D01*
X319219D01*
X318795Y174026D01*
X318470Y173701D01*
X318295Y173277D01*
Y172818D01*
X318341Y172704D01*
X318075Y172288D01*
X317673D01*
X317407Y172704D01*
X317454Y172818D01*
Y173277D01*
X317278Y173701D01*
X316953Y174026D01*
X316529Y174202D01*
X316070D01*
X315645Y174026D01*
X315321Y173701D01*
X315145Y173277D01*
Y172872D01*
X315005Y172760D01*
X314683Y172627D01*
X314304Y173006D01*
Y173277D01*
X314128Y173701D01*
X313804Y174026D01*
X313379Y174202D01*
X312920D01*
X312496Y174026D01*
X312171Y173701D01*
X311995Y173277D01*
Y172818D01*
X312171Y172393D01*
X312496Y172069D01*
X312920Y171893D01*
X313379D01*
X313512Y171948D01*
X314422Y171037D01*
X314885Y170846D01*
X314962D01*
X315235Y170346D01*
X315145Y170127D01*
Y169668D01*
X315321Y169244D01*
X315645Y168919D01*
X316070Y168743D01*
X316529D01*
X316953Y168919D01*
X317278Y169244D01*
X317454Y169668D01*
Y170127D01*
X317363Y170346D01*
X317637Y170846D01*
X318111D01*
X318385Y170346D01*
X318295Y170127D01*
Y169668D01*
X318470Y169244D01*
X318795Y168919D01*
X319219Y168743D01*
X319678D01*
X320103Y168919D01*
X320427Y169244D01*
X320603Y169668D01*
Y170127D01*
X320513Y170346D01*
X320786Y170846D01*
X321261D01*
X321535Y170346D01*
X321444Y170127D01*
Y169668D01*
X321620Y169244D01*
X321945Y168919D01*
X322369Y168743D01*
X322828D01*
X323252Y168919D01*
X323577Y169244D01*
X323753Y169668D01*
Y170127D01*
X323662Y170346D01*
X323936Y170846D01*
X324411D01*
X324684Y170346D01*
X324594Y170127D01*
Y169668D01*
X324769Y169244D01*
X325094Y168919D01*
X325518Y168743D01*
X325978D01*
X326402Y168919D01*
X326727Y169244D01*
X326902Y169668D01*
Y170127D01*
X326812Y170346D01*
X327085Y170846D01*
X336496D01*
Y170161D01*
X339567D01*
Y172839D01*
X336496D01*
Y172154D01*
X327141D01*
X326835Y172654D01*
X326902Y172818D01*
Y173277D01*
X326727Y173701D01*
X326402Y174026D01*
X325978Y174202D01*
X325673D01*
X325297Y174607D01*
X325518Y175042D01*
X325978D01*
X326402Y175218D01*
X326727Y175543D01*
X326902Y175967D01*
Y176426D01*
X327070Y176594D01*
X327146Y176625D01*
X329512Y178992D01*
X381855D01*
X382317Y179183D01*
X386828Y183694D01*
X397217D01*
Y182817D01*
X399047Y182817D01*
X399410Y182817D01*
X401016Y182817D01*
X401378Y182817D01*
X402984Y182817D01*
X403346Y182817D01*
X404953Y182817D01*
X405315Y182817D01*
X406565D01*
X406783Y182817D01*
X407281Y182821D01*
X407730D01*
Y184500D01*
Y186179D01*
X407281D01*
X406783Y186183D01*
X406565Y186183D01*
X404953Y186183D01*
X404591Y186183D01*
X402984Y186183D01*
X402622Y186183D01*
X401016Y186183D01*
X400654Y186183D01*
X399047Y186183D01*
X398685Y186183D01*
X397217D01*
Y185003D01*
X387582D01*
X387390Y185465D01*
X388728Y186803D01*
X397305D01*
X397425Y186852D01*
X399303D01*
Y188327D01*
X399303Y188545D01*
X399299Y189043D01*
Y189492D01*
X397817D01*
X396335D01*
Y189043D01*
X396331Y188545D01*
Y188464D01*
X395977Y188111D01*
X389482D01*
X389290Y188573D01*
X394764Y194047D01*
X395982D01*
X396249Y193779D01*
X397817D01*
X399299D01*
Y194309D01*
X400110Y195120D01*
X401016Y195120D01*
X401378Y195120D01*
X402984Y195120D01*
X403346Y195120D01*
X404953Y195120D01*
X405315Y195120D01*
X406921Y195120D01*
X407283Y195120D01*
X408890Y195120D01*
X409252Y195120D01*
X410858Y195120D01*
X411221Y195120D01*
X412827Y195120D01*
X413189Y195120D01*
X414439D01*
X414657Y195120D01*
X415155Y195124D01*
X415604D01*
Y196803D01*
Y198482D01*
X415155D01*
X414657Y198486D01*
X414439Y198486D01*
X412827Y198486D01*
X412465Y198486D01*
X411221D01*
X410996Y198486D01*
X410654Y198845D01*
Y201996D01*
X410839D01*
Y205067D01*
X408161D01*
Y201996D01*
X409346D01*
Y198840D01*
X408992Y198486D01*
X408528Y198486D01*
X407283D01*
X407059Y198486D01*
X406654Y198716D01*
Y201996D01*
X406839D01*
Y205067D01*
X404161D01*
Y204186D01*
X402116D01*
X401653Y203994D01*
X393095Y195436D01*
X380809Y183150D01*
X326726D01*
X326402Y183475D01*
X325978Y183650D01*
X325887D01*
X325717Y183666D01*
X325627Y183829D01*
X325804Y184457D01*
X325866Y184491D01*
X325978D01*
X326402Y184667D01*
X326727Y184992D01*
X326902Y185416D01*
Y185875D01*
X326727Y186300D01*
X326402Y186624D01*
Y217442D01*
X327962Y219002D01*
X328025Y219153D01*
X329311D01*
Y230847D01*
X325689D01*
Y219154D01*
X325689D01*
X325857Y218747D01*
X325286Y218175D01*
X325094Y217713D01*
Y186624D01*
X324769Y186300D01*
X324594Y185875D01*
Y185792D01*
X324316Y185389D01*
X324238Y185381D01*
X323753Y185580D01*
X323753Y185875D01*
X323577Y186300D01*
X323253Y186624D01*
Y219153D01*
X324311D01*
Y230847D01*
X320689D01*
Y219153D01*
X321944D01*
Y186624D01*
X321620Y186300D01*
X321444Y185875D01*
Y185866D01*
X321277Y185412D01*
X321024Y185405D01*
X320715Y185413D01*
X320603Y185866D01*
Y185875D01*
X320427Y186300D01*
X320103Y186624D01*
X319678Y186800D01*
X319422D01*
X317783Y188439D01*
X317900Y188722D01*
Y189278D01*
X317687Y189793D01*
X317293Y190187D01*
X316778Y190400D01*
X316387D01*
X316150Y190870D01*
X316963Y191683D01*
X317154Y192146D01*
Y219153D01*
X319311D01*
Y230847D01*
X315689D01*
Y219153D01*
X315846D01*
Y192417D01*
X314793Y191364D01*
X314369Y191647D01*
X314400Y191721D01*
Y192279D01*
X314187Y192793D01*
X313793Y193187D01*
X313279Y193400D01*
X312721D01*
X312207Y193187D01*
X311813Y192793D01*
X311756Y192654D01*
X303961D01*
X301799Y194817D01*
X301336Y195008D01*
X276917D01*
X248654Y223271D01*
Y265496D01*
X249339D01*
Y266160D01*
X250874D01*
Y264827D01*
X255126D01*
Y268685D01*
X250874D01*
Y267903D01*
X249339D01*
Y268567D01*
X246661D01*
Y265496D01*
X247346D01*
Y223941D01*
X246884Y223749D01*
X233154Y237479D01*
Y288667D01*
X232962Y289129D01*
X216704Y305388D01*
X216826Y305973D01*
X217043Y306063D01*
X217437Y306457D01*
X217650Y306972D01*
Y307528D01*
X217437Y308043D01*
X217070Y308410D01*
Y321000D01*
X218846D01*
Y314400D01*
X218722D01*
X218207Y314187D01*
X217813Y313793D01*
X217600Y313279D01*
Y312721D01*
X217813Y312207D01*
X218207Y311813D01*
X218722Y311600D01*
X219279D01*
X219793Y311813D01*
X220187Y312207D01*
X220400Y312721D01*
Y313279D01*
X220187Y313793D01*
X220154Y313826D01*
Y321000D01*
X223584D01*
Y313950D01*
D02*
G37*
G36*
X304451Y187898D02*
Y187126D01*
X303951Y186792D01*
X303930Y186800D01*
X303471D01*
X303047Y186624D01*
X302722Y186300D01*
X302547Y185875D01*
Y185416D01*
X302722Y184992D01*
X303047Y184667D01*
X303471Y184491D01*
X303930D01*
X304128Y184071D01*
X304110Y184032D01*
X303693Y183650D01*
X303471D01*
X303047Y183475D01*
X302722Y183150D01*
X302547Y182726D01*
Y182267D01*
X302126Y181846D01*
X302071Y181867D01*
X301706Y182266D01*
Y182726D01*
X301530Y183150D01*
X301205Y183475D01*
X300781Y183650D01*
X300322D01*
X300094Y183556D01*
X299810Y183980D01*
X300322Y184491D01*
X300781D01*
X301205Y184667D01*
X301530Y184992D01*
X301706Y185416D01*
Y185875D01*
X301530Y186300D01*
X301205Y186624D01*
X300781Y186800D01*
X300322D01*
X299897Y186624D01*
X299573Y186300D01*
X299397Y185875D01*
Y185570D01*
X298992Y185194D01*
X298556Y185416D01*
Y185875D01*
X298380Y186300D01*
X298056Y186624D01*
X297631Y186800D01*
X297172D01*
X292588Y191384D01*
X292780Y191846D01*
X300503D01*
X304451Y187898D01*
D02*
G37*
G36*
X311813Y191207D02*
X312207Y190813D01*
X312721Y190600D01*
X313279D01*
X313353Y190631D01*
X313636Y190207D01*
X310229Y186800D01*
X309770D01*
X309346Y186624D01*
X309303Y186582D01*
X308717Y186690D01*
X304523Y190884D01*
X304715Y191346D01*
X311756D01*
X311813Y191207D01*
D02*
G37*
G36*
X183161Y184465D02*
X183161D01*
X183075Y184000D01*
X179585Y180510D01*
X179393Y180047D01*
Y178174D01*
X179341Y178096D01*
X179259Y178072D01*
X178867D01*
X178785Y178096D01*
X178689Y178240D01*
X178409Y178427D01*
X178079Y178493D01*
X177749Y178427D01*
X177469Y178240D01*
X177372Y178096D01*
X177290Y178072D01*
X176899D01*
X176817Y178096D01*
X176720Y178240D01*
X176441Y178427D01*
X176110Y178493D01*
X175780Y178427D01*
X175500Y178240D01*
X175362Y178034D01*
X174891D01*
X173654Y179271D01*
Y186390D01*
X178307D01*
Y187131D01*
X183161D01*
Y184465D01*
D02*
G37*
G36*
X280508Y176447D02*
X280499Y176426D01*
Y175967D01*
X280675Y175543D01*
X281000Y175218D01*
X281424Y175042D01*
X281883D01*
X282307Y175218D01*
X282632Y175543D01*
X282808Y175967D01*
Y176426D01*
X283228Y176624D01*
X283268Y176605D01*
X283649Y176189D01*
Y175967D01*
X283825Y175543D01*
X284149Y175218D01*
X284574Y175042D01*
X285033D01*
X285457Y175218D01*
X285782Y175543D01*
X285958Y175967D01*
Y176426D01*
X286378Y176624D01*
X286417Y176605D01*
X286798Y176189D01*
Y175967D01*
X286974Y175543D01*
X287299Y175218D01*
X287723Y175042D01*
X287783Y175016D01*
X287905Y174414D01*
X287723Y174202D01*
X287299Y174026D01*
X286974Y173701D01*
X286798Y173277D01*
Y172818D01*
X286974Y172393D01*
X287299Y172069D01*
X287723Y171893D01*
X288182D01*
X288573Y172055D01*
X289065Y172174D01*
X289215Y172024D01*
X290206Y171033D01*
X290128Y170577D01*
X290115Y170529D01*
X289948Y170127D01*
Y169668D01*
X290124Y169244D01*
X290448Y168919D01*
X290873Y168743D01*
X291332D01*
X291756Y168919D01*
X292081Y169244D01*
X292257Y169668D01*
Y170127D01*
X292677Y170547D01*
X293098Y170127D01*
Y169668D01*
X293273Y169244D01*
X293598Y168919D01*
X294022Y168743D01*
X294482D01*
X294843Y168893D01*
X295116Y168789D01*
X295343Y168649D01*
Y167996D01*
X295116Y167856D01*
X294843Y167753D01*
X294482Y167902D01*
X294022D01*
X293598Y167727D01*
X293273Y167402D01*
X293098Y166978D01*
Y166519D01*
X292586Y166007D01*
X292178Y166280D01*
X292168Y166304D01*
X292257Y166518D01*
Y166978D01*
X292081Y167402D01*
X291756Y167727D01*
X291332Y167902D01*
X290873D01*
X290448Y167727D01*
X290124Y167402D01*
X289948Y166978D01*
X289804Y166550D01*
X289527Y166550D01*
X289247Y166550D01*
X289107Y166978D01*
X288931Y167402D01*
X288607Y167727D01*
X288182Y167902D01*
X287723D01*
X287299Y167727D01*
X286974Y167402D01*
X286798Y166978D01*
Y166518D01*
X286974Y166094D01*
X287299Y165769D01*
X287723Y165594D01*
X287788Y165567D01*
X287914Y164975D01*
X287723Y164753D01*
X287299Y164577D01*
X286974Y164252D01*
X286798Y163828D01*
Y163369D01*
X286948Y163007D01*
X286844Y162734D01*
X286704Y162507D01*
X286052D01*
X285911Y162734D01*
X285808Y163007D01*
X285958Y163369D01*
Y163828D01*
X285782Y164252D01*
X285457Y164577D01*
X285033Y164753D01*
X284574D01*
X284149Y164577D01*
X283825Y164252D01*
X283649Y163828D01*
Y163369D01*
X283799Y163007D01*
X283695Y162734D01*
X283555Y162507D01*
X283058D01*
X282804Y162402D01*
X282792Y162397D01*
X282508Y162821D01*
X282513Y162826D01*
X282632Y162945D01*
X282808Y163369D01*
Y163828D01*
X282632Y164252D01*
X282307Y164577D01*
X281883Y164753D01*
X281424D01*
X281000Y164577D01*
X280675Y164252D01*
X280499Y163828D01*
Y163369D01*
X280675Y162945D01*
X281000Y162620D01*
X281424Y162444D01*
X281883D01*
X282099Y162533D01*
X282111Y162539D01*
X282394Y162115D01*
X282390Y162110D01*
X281883Y161603D01*
X281424D01*
X281000Y161427D01*
X280675Y161103D01*
X280499Y160678D01*
Y160219D01*
X280675Y159795D01*
X281000Y159470D01*
X281424Y159294D01*
X281883D01*
X282307Y159470D01*
X282632Y159795D01*
X282808Y160219D01*
Y160524D01*
X283213Y160900D01*
X283649Y160678D01*
Y160219D01*
X283825Y159795D01*
X284149Y159470D01*
X284574Y159294D01*
X285033D01*
X285457Y159470D01*
X285782Y159795D01*
X285958Y160219D01*
Y160678D01*
X286378Y160876D01*
X286417Y160857D01*
X286798Y160441D01*
Y160219D01*
X286974Y159795D01*
X287299Y159470D01*
X287723Y159294D01*
X288006D01*
X288100Y159153D01*
Y158597D01*
X288004Y158454D01*
X287723D01*
X287299Y158278D01*
X286974Y157953D01*
X286798Y157529D01*
Y157070D01*
X286948Y156708D01*
X286844Y156435D01*
X286704Y156208D01*
X286052D01*
X285911Y156435D01*
X285808Y156708D01*
X285958Y157070D01*
Y157529D01*
X285782Y157953D01*
X285457Y158278D01*
X285033Y158454D01*
X284574D01*
X284149Y158278D01*
X283825Y157953D01*
X283649Y157529D01*
Y157070D01*
X283799Y156708D01*
X283695Y156435D01*
X283555Y156208D01*
X282902D01*
X282762Y156435D01*
X282658Y156708D01*
X282808Y157070D01*
Y157529D01*
X282632Y157953D01*
X282307Y158278D01*
X281883Y158454D01*
X281424D01*
X281000Y158278D01*
X280675Y157953D01*
X280666Y157932D01*
X280077Y157815D01*
X265046Y172846D01*
X265211Y173346D01*
X273756D01*
X273813Y173207D01*
X274207Y172813D01*
X274722Y172600D01*
X275278D01*
X275793Y172813D01*
X276187Y173207D01*
X276400Y173722D01*
Y174278D01*
X276187Y174793D01*
X275793Y175187D01*
X275458Y175326D01*
X275287Y175862D01*
X276372Y176947D01*
X280174D01*
X280508Y176447D01*
D02*
G37*
G36*
X252346Y154229D02*
Y145078D01*
X252134Y144923D01*
X251884Y144833D01*
X241888Y154829D01*
Y156297D01*
X241839Y156418D01*
Y158567D01*
X239161D01*
Y157654D01*
X190753D01*
Y158732D01*
X190723Y158885D01*
X190745Y158930D01*
X191070Y159255D01*
X191115Y159277D01*
X191268Y159247D01*
X193630D01*
X193960Y159313D01*
X194175Y159456D01*
X197564D01*
X197707Y159313D01*
X198222Y159100D01*
X198778D01*
X199293Y159313D01*
X199687Y159707D01*
X199900Y160222D01*
Y160778D01*
X199687Y161293D01*
X199293Y161687D01*
X198778Y161900D01*
X198222D01*
X197707Y161687D01*
X197313Y161293D01*
X197100Y160778D01*
Y160764D01*
X194572D01*
X194361Y161264D01*
X194517Y161425D01*
X195079D01*
X195541Y161616D01*
X197771Y163846D01*
X242729D01*
X252346Y154229D01*
D02*
G37*
G36*
X279787Y156255D02*
X279787Y156255D01*
X280609Y155432D01*
X280818Y154947D01*
X280675Y154804D01*
X280499Y154379D01*
Y153920D01*
X280675Y153496D01*
X281000Y153171D01*
X281424Y152995D01*
X281883D01*
X282307Y153171D01*
X282632Y153496D01*
X282808Y153920D01*
Y154379D01*
X283228Y154577D01*
X283268Y154558D01*
X283649Y154141D01*
Y153920D01*
X283825Y153496D01*
X284149Y153171D01*
X284574Y152995D01*
X285033D01*
X285457Y153171D01*
X285782Y153496D01*
X285958Y153920D01*
Y154379D01*
X286378Y154577D01*
X286417Y154558D01*
X286798Y154141D01*
Y153920D01*
X286974Y153496D01*
X287299Y153171D01*
X287723Y152995D01*
X287749D01*
X288191Y152783D01*
X288198Y152575D01*
X288185Y152219D01*
X287738Y152154D01*
X287723D01*
X287299Y151979D01*
X286974Y151654D01*
X286798Y151230D01*
X286772Y151170D01*
X286170Y151048D01*
X285958Y151230D01*
X285782Y151654D01*
X285457Y151979D01*
X285033Y152154D01*
X284574D01*
X284149Y151979D01*
X283825Y151654D01*
X283649Y151230D01*
Y150770D01*
X283825Y150346D01*
X284149Y150021D01*
X284574Y149846D01*
X284844D01*
X284939Y149704D01*
Y149147D01*
X284844Y149005D01*
X284574D01*
X284149Y148829D01*
X283825Y148504D01*
X283649Y148080D01*
Y147621D01*
X283825Y147196D01*
X284149Y146872D01*
X284574Y146696D01*
X285032D01*
X285544Y146185D01*
X285261Y145761D01*
X285033Y145855D01*
X284574D01*
X284149Y145679D01*
X283825Y145355D01*
X283649Y144930D01*
X283468Y144526D01*
X282911D01*
X282808Y144595D01*
Y144930D01*
X282632Y145355D01*
X282307Y145679D01*
X281883Y145855D01*
X281424D01*
X281000Y145679D01*
X280675Y145355D01*
X273339D01*
Y145567D01*
X270661D01*
Y143252D01*
X270199Y143060D01*
X269839Y143421D01*
Y145567D01*
X267161D01*
Y144686D01*
X266339D01*
Y145567D01*
X263661D01*
Y142496D01*
X266339D01*
Y143377D01*
X267161D01*
Y142496D01*
X268914D01*
X270600Y140810D01*
Y140721D01*
X270813Y140207D01*
X271207Y139813D01*
X271722Y139600D01*
X272278D01*
X272793Y139813D01*
X273100Y140120D01*
X273509Y140020D01*
X273600Y139967D01*
Y139623D01*
X273813Y139108D01*
X274207Y138714D01*
X274352Y138654D01*
X274253Y138154D01*
X263771D01*
X255654Y146271D01*
Y154500D01*
X255463Y154963D01*
X243817Y166608D01*
X243354Y166800D01*
X197146D01*
X196683Y166608D01*
X194776Y164701D01*
X194175D01*
X194096Y164754D01*
X194072Y164836D01*
Y165227D01*
X194096Y165309D01*
X194240Y165405D01*
X194427Y165685D01*
X194493Y166016D01*
X194427Y166346D01*
X194240Y166626D01*
X194096Y166722D01*
X194072Y166804D01*
Y167196D01*
X194096Y167278D01*
X194240Y167374D01*
X194427Y167654D01*
X194493Y167984D01*
X194427Y168315D01*
X194240Y168595D01*
X194096Y168691D01*
X194072Y168772D01*
Y169165D01*
X194096Y169246D01*
X194240Y169343D01*
X194427Y169623D01*
X194493Y169953D01*
X194434Y170250D01*
X196030Y171846D01*
X264196D01*
X279787Y156255D01*
D02*
G37*
G36*
X402661Y151496D02*
X402809D01*
X403016Y150996D01*
X402813Y150793D01*
X402600Y150278D01*
Y149722D01*
X402813Y149207D01*
X403207Y148813D01*
X403362Y148749D01*
Y147412D01*
X402894Y147335D01*
X402669Y147335D01*
X401063Y147335D01*
X400701Y147335D01*
X399095Y147335D01*
X398505Y147335D01*
X398331Y147754D01*
X398039Y148047D01*
X397576Y148239D01*
X380395D01*
X376718Y151915D01*
X376909Y152377D01*
X402661D01*
Y151496D01*
D02*
G37*
G36*
X177425Y155483D02*
Y154087D01*
X177616Y153624D01*
X184236Y147004D01*
X184029Y146504D01*
X181661D01*
Y145503D01*
X179236D01*
Y149063D01*
X177331D01*
X176764Y149629D01*
Y155428D01*
X177264Y155639D01*
X177425Y155483D01*
D02*
G37*
G36*
X239161Y155496D02*
X240580D01*
Y154558D01*
X240772Y154095D01*
X260443Y134423D01*
X260279Y133881D01*
X260083Y133842D01*
X238462Y155463D01*
X238000Y155654D01*
X191347D01*
X191062Y156154D01*
X191175Y156346D01*
X239161D01*
Y155496D01*
D02*
G37*
%LPC*%
G36*
X136278Y311900D02*
X135722D01*
X135207Y311687D01*
X134813Y311293D01*
X134600Y310778D01*
Y310222D01*
X134813Y309707D01*
X135207Y309313D01*
X135722Y309100D01*
X136278D01*
X136793Y309313D01*
X137187Y309707D01*
X137400Y310222D01*
Y310778D01*
X137187Y311293D01*
X136793Y311687D01*
X136278Y311900D01*
D02*
G37*
G36*
X324807Y311902D02*
X316224D01*
Y308437D01*
X324807D01*
Y309314D01*
X329661D01*
Y308433D01*
X332339D01*
Y311504D01*
X329661D01*
Y310623D01*
X324807D01*
Y311902D01*
D02*
G37*
G36*
X117779Y310900D02*
X117221D01*
X116707Y310687D01*
X116313Y310293D01*
X116100Y309778D01*
Y309222D01*
X116313Y308707D01*
X116707Y308313D01*
X117221Y308100D01*
X117779D01*
X118293Y308313D01*
X118687Y308707D01*
X118900Y309222D01*
Y309778D01*
X118687Y310293D01*
X118293Y310687D01*
X117779Y310900D01*
D02*
G37*
G36*
X278834Y307594D02*
X277675D01*
Y306238D01*
X278834D01*
Y307594D01*
D02*
G37*
G36*
X277325D02*
X276166D01*
Y306238D01*
X277325D01*
Y307594D01*
D02*
G37*
G36*
X332334Y307563D02*
X331175D01*
Y306206D01*
X332334D01*
Y307563D01*
D02*
G37*
G36*
X330825D02*
X329666D01*
Y306206D01*
X330825D01*
Y307563D01*
D02*
G37*
G36*
X324803Y307559D02*
X320691D01*
Y306006D01*
X324803D01*
Y307559D01*
D02*
G37*
G36*
X320341D02*
X316229D01*
Y306006D01*
X320341D01*
Y307559D01*
D02*
G37*
G36*
X286325D02*
X282213D01*
Y306006D01*
X286325D01*
Y307559D01*
D02*
G37*
G36*
X133779Y308400D02*
X133221D01*
X132707Y308187D01*
X132313Y307793D01*
X132100Y307278D01*
Y306721D01*
X132313Y306207D01*
X132707Y305813D01*
X133221Y305600D01*
X133779D01*
X134293Y305813D01*
X134687Y306207D01*
X134900Y306721D01*
Y307278D01*
X134687Y307793D01*
X134293Y308187D01*
X133779Y308400D01*
D02*
G37*
G36*
X278834Y305888D02*
X277675D01*
Y304532D01*
X278834D01*
Y305888D01*
D02*
G37*
G36*
X277325D02*
X276166D01*
Y304532D01*
X277325D01*
Y305888D01*
D02*
G37*
G36*
X332334Y305856D02*
X331175D01*
Y304500D01*
X332334D01*
Y305856D01*
D02*
G37*
G36*
X330825D02*
X329666D01*
Y304500D01*
X330825D01*
Y305856D01*
D02*
G37*
G36*
X324803Y305656D02*
X320691D01*
Y304103D01*
X324803D01*
Y305656D01*
D02*
G37*
G36*
X320341D02*
X316229D01*
Y304103D01*
X320341D01*
Y305656D01*
D02*
G37*
G36*
X286325D02*
X282213D01*
Y304103D01*
X286325D01*
Y305656D01*
D02*
G37*
G36*
X124778Y306900D02*
X124222D01*
X123707Y306687D01*
X123313Y306293D01*
X123100Y305779D01*
Y305222D01*
X123313Y304707D01*
X123707Y304313D01*
X124222Y304100D01*
X124778D01*
X125293Y304313D01*
X125687Y304707D01*
X125900Y305222D01*
Y305779D01*
X125687Y306293D01*
X125293Y306687D01*
X124778Y306900D01*
D02*
G37*
G36*
X286325Y303228D02*
X282213D01*
Y301675D01*
X286325D01*
Y303228D01*
D02*
G37*
G36*
Y301325D02*
X282213D01*
Y299772D01*
X286325D01*
Y301325D01*
D02*
G37*
G36*
X324803Y298897D02*
X320691D01*
Y297344D01*
X324803D01*
Y298897D01*
D02*
G37*
G36*
X320341D02*
X316229D01*
Y297344D01*
X320341D01*
Y298897D01*
D02*
G37*
G36*
X157435Y303307D02*
X156565D01*
X155724Y303082D01*
X154969Y302646D01*
X154354Y302031D01*
X153918Y301276D01*
X153693Y300435D01*
Y299565D01*
X153918Y298724D01*
X154241Y298165D01*
X133037Y276962D01*
X132846Y276500D01*
Y271685D01*
X130874D01*
Y267827D01*
X135126D01*
Y271685D01*
X134154D01*
Y276229D01*
X155166Y297240D01*
X155724Y296918D01*
X156565Y296693D01*
X157435D01*
X158276Y296918D01*
X159031Y297354D01*
X159646Y297969D01*
X160082Y298724D01*
X160307Y299565D01*
Y300435D01*
X160082Y301276D01*
X159646Y302031D01*
X159031Y302646D01*
X158276Y303082D01*
X157435Y303307D01*
D02*
G37*
G36*
X105279Y303400D02*
X104721D01*
X104207Y303187D01*
X103813Y302793D01*
X103600Y302278D01*
Y301722D01*
X103813Y301207D01*
X104207Y300813D01*
X104346Y300756D01*
Y299685D01*
X102874D01*
Y295827D01*
X107126D01*
Y299685D01*
X105654D01*
Y300756D01*
X105793Y300813D01*
X106187Y301207D01*
X106400Y301722D01*
Y302278D01*
X106187Y302793D01*
X105793Y303187D01*
X105279Y303400D01*
D02*
G37*
G36*
X324803Y296994D02*
X320691D01*
Y295441D01*
X324803D01*
Y296994D01*
D02*
G37*
G36*
X320341D02*
X316229D01*
Y295441D01*
X320341D01*
Y296994D01*
D02*
G37*
G36*
X324803Y294551D02*
X320691D01*
Y292998D01*
X324803D01*
Y294551D01*
D02*
G37*
G36*
X320341D02*
X316229D01*
Y292998D01*
X320341D01*
Y294551D01*
D02*
G37*
G36*
X286325D02*
X282213D01*
Y292998D01*
X286325D01*
Y294551D01*
D02*
G37*
G36*
X246000Y292834D02*
X244643D01*
Y291675D01*
X246000D01*
Y292834D01*
D02*
G37*
G36*
X244293D02*
X242937D01*
Y291675D01*
X244293D01*
Y292834D01*
D02*
G37*
G36*
X324803Y292648D02*
X320691D01*
Y291095D01*
X324803D01*
Y292648D01*
D02*
G37*
G36*
X320341D02*
X316229D01*
Y291095D01*
X320341D01*
Y292648D01*
D02*
G37*
G36*
X286325D02*
X282213D01*
Y291095D01*
X286325D01*
Y292648D01*
D02*
G37*
G36*
X246000Y291325D02*
X244643D01*
Y290166D01*
X246000D01*
Y291325D01*
D02*
G37*
G36*
X244293D02*
X242937D01*
Y290166D01*
X244293D01*
Y291325D01*
D02*
G37*
G36*
X236279Y292900D02*
X235721D01*
X235207Y292687D01*
X234813Y292293D01*
X234600Y291778D01*
Y291221D01*
X234813Y290707D01*
X235207Y290313D01*
X235721Y290100D01*
X236279D01*
X236793Y290313D01*
X237109Y290629D01*
X238996D01*
Y290161D01*
X242067D01*
Y292839D01*
X238996D01*
Y292371D01*
X237109D01*
X236793Y292687D01*
X236279Y292900D01*
D02*
G37*
G36*
X215237Y292081D02*
X214175D01*
Y289718D01*
X215237D01*
Y292081D01*
D02*
G37*
G36*
X213825D02*
X212763D01*
Y289718D01*
X213825D01*
Y292081D01*
D02*
G37*
G36*
X458287Y303935D02*
X456813D01*
X455367Y303647D01*
X454005Y303083D01*
X452779Y302264D01*
X451737Y301221D01*
X450918Y299995D01*
X450353Y298633D01*
X450066Y297187D01*
Y295713D01*
X450353Y294267D01*
X450918Y292905D01*
X451737Y291679D01*
X452779Y290637D01*
X454005Y289818D01*
X455367Y289254D01*
X456813Y288966D01*
X458287D01*
X459733Y289254D01*
X461095Y289818D01*
X462321Y290637D01*
X463363Y291679D01*
X464182Y292905D01*
X464747Y294267D01*
X465034Y295713D01*
Y297187D01*
X464747Y298633D01*
X464182Y299995D01*
X463363Y301221D01*
X462321Y302264D01*
X461095Y303083D01*
X459733Y303647D01*
X458287Y303935D01*
D02*
G37*
G36*
X18287D02*
X16813D01*
X15367Y303647D01*
X14005Y303083D01*
X12779Y302264D01*
X11737Y301221D01*
X10917Y299995D01*
X10353Y298633D01*
X10066Y297187D01*
Y295713D01*
X10353Y294267D01*
X10917Y292905D01*
X11737Y291679D01*
X12779Y290637D01*
X14005Y289818D01*
X15367Y289254D01*
X16813Y288966D01*
X18287D01*
X19733Y289254D01*
X21095Y289818D01*
X22321Y290637D01*
X23363Y291679D01*
X24182Y292905D01*
X24747Y294267D01*
X25034Y295713D01*
Y297187D01*
X24747Y298633D01*
X24182Y299995D01*
X23363Y301221D01*
X22321Y302264D01*
X21095Y303083D01*
X19733Y303647D01*
X18287Y303935D01*
D02*
G37*
G36*
X324803Y290228D02*
X320691D01*
Y288675D01*
X324803D01*
Y290228D01*
D02*
G37*
G36*
X320341D02*
X316229D01*
Y288675D01*
X320341D01*
Y290228D01*
D02*
G37*
G36*
X215237Y289368D02*
X214175D01*
Y287006D01*
X215237D01*
Y289368D01*
D02*
G37*
G36*
X213825D02*
X212763D01*
Y287006D01*
X213825D01*
Y289368D01*
D02*
G37*
G36*
X324803Y288325D02*
X320691D01*
Y286772D01*
X324803D01*
Y288325D01*
D02*
G37*
G36*
X320341D02*
X316229D01*
Y286772D01*
X320341D01*
Y288325D01*
D02*
G37*
G36*
X276839Y292567D02*
X274161D01*
Y289496D01*
X275082D01*
X275167Y289439D01*
X275295Y289414D01*
X276825Y287884D01*
X277108Y287695D01*
X277441Y287629D01*
X282209D01*
Y286768D01*
X290791D01*
Y290232D01*
X282209D01*
Y289371D01*
X277802D01*
X276839Y290334D01*
Y292567D01*
D02*
G37*
G36*
X157435Y293307D02*
X156565D01*
X155724Y293082D01*
X154969Y292646D01*
X154354Y292031D01*
X153918Y291277D01*
X153693Y290435D01*
Y289786D01*
X153632D01*
X153169Y289594D01*
X138038Y274463D01*
X137846Y274000D01*
Y271685D01*
X135874D01*
Y267827D01*
X140126D01*
Y271685D01*
X139154D01*
Y273729D01*
X153637Y288211D01*
X154260Y288132D01*
X154354Y287969D01*
X154969Y287354D01*
X155724Y286918D01*
X156565Y286693D01*
X157435D01*
X158276Y286918D01*
X159031Y287354D01*
X159646Y287969D01*
X160082Y288723D01*
X160307Y289565D01*
Y290435D01*
X160082Y291277D01*
X159646Y292031D01*
X159031Y292646D01*
X158276Y293082D01*
X157435Y293307D01*
D02*
G37*
G36*
X245480Y289088D02*
X244675D01*
Y286309D01*
X246076D01*
Y288492D01*
X245902Y288914D01*
X245480Y289088D01*
D02*
G37*
G36*
X244325D02*
X243520D01*
X243098Y288914D01*
X242923Y288492D01*
Y286309D01*
X244325D01*
Y289088D01*
D02*
G37*
G36*
X399570Y290603D02*
X392761D01*
Y285995D01*
X392761Y285995D01*
X392761D01*
X392534Y285593D01*
X340595Y233654D01*
X311708D01*
X311246Y233463D01*
X308660Y230877D01*
X308587Y230847D01*
X305689D01*
Y223398D01*
X301126D01*
Y225173D01*
X296874D01*
Y221315D01*
X298346D01*
Y219244D01*
X298207Y219187D01*
X297813Y218793D01*
X297600Y218279D01*
Y217722D01*
X297813Y217207D01*
X298207Y216813D01*
X298722Y216600D01*
X299278D01*
X299793Y216813D01*
X300187Y217207D01*
X300400Y217722D01*
Y218279D01*
X300187Y218793D01*
X299793Y219187D01*
X299654Y219244D01*
Y221315D01*
X301126D01*
Y222090D01*
X305689D01*
Y219153D01*
X309311D01*
Y229737D01*
X309413Y229780D01*
X310189Y230556D01*
X310689Y230348D01*
Y219153D01*
X314311D01*
Y230847D01*
X311187D01*
X310980Y231347D01*
X311979Y232346D01*
X340866D01*
X341329Y232538D01*
X394786Y285995D01*
X399570D01*
Y290603D01*
D02*
G37*
G36*
X420239D02*
X413430D01*
Y285995D01*
X420239D01*
Y290603D01*
D02*
G37*
G36*
X324807Y303232D02*
X316224D01*
Y299768D01*
X324807D01*
Y300846D01*
X330229D01*
X344657Y286417D01*
X344600Y286279D01*
Y285721D01*
X344813Y285207D01*
X345207Y284813D01*
X345722Y284600D01*
X346279D01*
X346793Y284813D01*
X347187Y285207D01*
X347400Y285721D01*
Y286279D01*
X347187Y286793D01*
X346793Y287187D01*
X346279Y287400D01*
X345722D01*
X345583Y287343D01*
X330962Y301962D01*
X330500Y302154D01*
X324807D01*
Y303232D01*
D02*
G37*
G36*
X198278Y287400D02*
X197722D01*
X197207Y287187D01*
X196813Y286793D01*
X196600Y286279D01*
Y285721D01*
X196658Y285583D01*
X191729Y280654D01*
X181854D01*
Y281354D01*
X179146D01*
Y280654D01*
X170248D01*
X170082Y281276D01*
X169646Y282031D01*
X169031Y282646D01*
X168277Y283082D01*
X167435Y283307D01*
X166565D01*
X165724Y283082D01*
X164969Y282646D01*
X164354Y282031D01*
X163918Y281276D01*
X163693Y280435D01*
Y279565D01*
X163918Y278724D01*
X164354Y277969D01*
X164969Y277354D01*
X165724Y276918D01*
X166565Y276693D01*
X167435D01*
X168277Y276918D01*
X169031Y277354D01*
X169646Y277969D01*
X170082Y278724D01*
X170248Y279346D01*
X179146D01*
Y278646D01*
X181854D01*
Y279346D01*
X192000D01*
X192463Y279538D01*
X197583Y284658D01*
X197722Y284600D01*
X198278D01*
X198793Y284813D01*
X199187Y285207D01*
X199400Y285721D01*
Y286279D01*
X199187Y286793D01*
X198793Y287187D01*
X198278Y287400D01*
D02*
G37*
G36*
X324803Y285897D02*
X320691D01*
Y284344D01*
X324803D01*
Y285897D01*
D02*
G37*
G36*
X320341D02*
X316229D01*
Y284344D01*
X320341D01*
Y285897D01*
D02*
G37*
G36*
X290787D02*
X286675D01*
Y284344D01*
X290787D01*
Y285897D01*
D02*
G37*
G36*
X286325D02*
X282213D01*
Y284344D01*
X286325D01*
Y285897D01*
D02*
G37*
G36*
X114626Y294173D02*
X110374D01*
Y290315D01*
X111629D01*
Y287185D01*
X110374D01*
Y283327D01*
X114626D01*
Y287185D01*
X113371D01*
Y290315D01*
X114626D01*
Y294173D01*
D02*
G37*
G36*
X107126D02*
X102874D01*
Y290315D01*
X104129D01*
Y287185D01*
X102874D01*
Y283327D01*
X107126D01*
Y287185D01*
X105871D01*
Y290315D01*
X107126D01*
Y294173D01*
D02*
G37*
G36*
X100126D02*
X95874D01*
Y290315D01*
X97129D01*
Y287185D01*
X95874D01*
Y283327D01*
X100126D01*
Y287185D01*
X98871D01*
Y290315D01*
X100126D01*
Y294173D01*
D02*
G37*
G36*
X246076Y285959D02*
X244675D01*
Y283179D01*
X245480D01*
X245902Y283354D01*
X246076Y283776D01*
Y285959D01*
D02*
G37*
G36*
X244325D02*
X242923D01*
Y283776D01*
X243098Y283354D01*
X243520Y283179D01*
X244325D01*
Y285959D01*
D02*
G37*
G36*
X343000Y284334D02*
X341644D01*
Y283175D01*
X343000D01*
Y284334D01*
D02*
G37*
G36*
X341294D02*
X339937D01*
Y283175D01*
X341294D01*
Y284334D01*
D02*
G37*
G36*
X324803Y283994D02*
X320691D01*
Y282441D01*
X324803D01*
Y283994D01*
D02*
G37*
G36*
X320341D02*
X316229D01*
Y282441D01*
X320341D01*
Y283994D01*
D02*
G37*
G36*
X290787D02*
X286675D01*
Y282441D01*
X290787D01*
Y283994D01*
D02*
G37*
G36*
X286325D02*
X282213D01*
Y282441D01*
X286325D01*
Y283994D01*
D02*
G37*
G36*
X343000Y282825D02*
X341644D01*
Y281666D01*
X343000D01*
Y282825D01*
D02*
G37*
G36*
X331067Y284339D02*
X327996D01*
Y282893D01*
X325889Y280786D01*
X324807D01*
Y281563D01*
X316224D01*
Y278098D01*
X324807D01*
Y279044D01*
X326250D01*
X326583Y279111D01*
X326866Y279299D01*
X329228Y281661D01*
X331067D01*
Y284339D01*
D02*
G37*
G36*
X290791Y281563D02*
X282209D01*
Y280771D01*
X280339D01*
Y281504D01*
X277661D01*
Y280840D01*
X275839D01*
Y281504D01*
X273161D01*
Y280855D01*
X271625D01*
X271293Y281187D01*
X270778Y281400D01*
X270221D01*
X269707Y281187D01*
X269313Y280793D01*
X269100Y280278D01*
Y279721D01*
X269313Y279207D01*
X269707Y278813D01*
X270221Y278600D01*
X270778D01*
X271293Y278813D01*
X271593Y279113D01*
X273161D01*
Y278433D01*
X275839D01*
Y279097D01*
X277661D01*
Y278433D01*
X280339D01*
Y279029D01*
X282209D01*
Y278098D01*
X290791D01*
Y281563D01*
D02*
G37*
G36*
X114622Y281669D02*
X112675D01*
Y279919D01*
X114622D01*
Y281669D01*
D02*
G37*
G36*
X112325D02*
X110378D01*
Y279919D01*
X112325D01*
Y281669D01*
D02*
G37*
G36*
X107122D02*
X105175D01*
Y279919D01*
X107122D01*
Y281669D01*
D02*
G37*
G36*
X104825D02*
X102878D01*
Y279919D01*
X104825D01*
Y281669D01*
D02*
G37*
G36*
X100122D02*
X98175D01*
Y279919D01*
X100122D01*
Y281669D01*
D02*
G37*
G36*
X97825D02*
X95878D01*
Y279919D01*
X97825D01*
Y281669D01*
D02*
G37*
G36*
X335004Y284339D02*
X331933D01*
Y281661D01*
X335004D01*
Y282129D01*
X335996D01*
Y281661D01*
X337977D01*
X338000Y281606D01*
X340100Y279506D01*
Y279222D01*
X340313Y278707D01*
X340707Y278313D01*
X341221Y278100D01*
X341778D01*
X342293Y278313D01*
X342687Y278707D01*
X342900Y279222D01*
Y279779D01*
X342687Y280293D01*
X342293Y280687D01*
X341778Y280900D01*
X341221D01*
X340751Y280705D01*
X340291Y281166D01*
X340498Y281666D01*
X341294D01*
Y282825D01*
X339937D01*
Y282226D01*
X339437Y282019D01*
X339067Y282390D01*
Y284339D01*
X335996D01*
Y283871D01*
X335004D01*
Y284339D01*
D02*
G37*
G36*
X114622Y279569D02*
X112675D01*
Y277819D01*
X114622D01*
Y279569D01*
D02*
G37*
G36*
X112325D02*
X110378D01*
Y277819D01*
X112325D01*
Y279569D01*
D02*
G37*
G36*
X107122D02*
X105175D01*
Y277819D01*
X107122D01*
Y279569D01*
D02*
G37*
G36*
X104825D02*
X102878D01*
Y277819D01*
X104825D01*
Y279569D01*
D02*
G37*
G36*
X100122D02*
X98175D01*
Y277819D01*
X100122D01*
Y279569D01*
D02*
G37*
G36*
X97825D02*
X95878D01*
Y277819D01*
X97825D01*
Y279569D01*
D02*
G37*
G36*
X200278Y279900D02*
X199722D01*
X199207Y279687D01*
X198813Y279293D01*
X198600Y278779D01*
Y278222D01*
X198658Y278083D01*
X192229Y271654D01*
X181354D01*
Y272354D01*
X178646D01*
Y271654D01*
X170307D01*
Y273307D01*
X163693D01*
Y266693D01*
X170307D01*
Y270346D01*
X178646D01*
Y269646D01*
X181354D01*
Y270346D01*
X192500D01*
X192963Y270537D01*
X199583Y277157D01*
X199722Y277100D01*
X200278D01*
X200793Y277313D01*
X201187Y277707D01*
X201400Y278222D01*
Y278779D01*
X201187Y279293D01*
X200793Y279687D01*
X200278Y279900D01*
D02*
G37*
G36*
X157435Y283307D02*
X156565D01*
X155724Y283082D01*
X154969Y282646D01*
X154354Y282031D01*
X153918Y281276D01*
X153693Y280435D01*
Y279908D01*
X150754D01*
X150292Y279717D01*
X142825Y272250D01*
X142634Y271788D01*
Y271685D01*
X140874D01*
Y267827D01*
X145126D01*
Y271685D01*
X144763D01*
X144572Y272147D01*
X151025Y278600D01*
X153990D01*
X154354Y277969D01*
X154969Y277354D01*
X155724Y276918D01*
X156565Y276693D01*
X157435D01*
X158276Y276918D01*
X159031Y277354D01*
X159646Y277969D01*
X160082Y278724D01*
X160307Y279565D01*
Y280435D01*
X160082Y281276D01*
X159646Y282031D01*
X159031Y282646D01*
X158276Y283082D01*
X157435Y283307D01*
D02*
G37*
G36*
X280334Y277563D02*
X279175D01*
Y276206D01*
X280334D01*
Y277563D01*
D02*
G37*
G36*
X275834D02*
X274675D01*
Y276206D01*
X275834D01*
Y277563D01*
D02*
G37*
G36*
X278825D02*
X277666D01*
Y276206D01*
X278825D01*
Y277563D01*
D02*
G37*
G36*
X274325D02*
X273166D01*
Y276206D01*
X274325D01*
Y277563D01*
D02*
G37*
G36*
X420235Y278001D02*
X417010D01*
Y275876D01*
X420235D01*
Y278001D01*
D02*
G37*
G36*
X416660D02*
X413435D01*
Y275876D01*
X416660D01*
Y278001D01*
D02*
G37*
G36*
X290787Y277228D02*
X286675D01*
Y275675D01*
X290787D01*
Y277228D01*
D02*
G37*
G36*
X286325D02*
X282213D01*
Y275675D01*
X286325D01*
Y277228D01*
D02*
G37*
G36*
X343000Y276834D02*
X341644D01*
Y275675D01*
X343000D01*
Y276834D01*
D02*
G37*
G36*
X341294D02*
X339937D01*
Y275675D01*
X341294D01*
Y276834D01*
D02*
G37*
G36*
X52013Y278400D02*
X51675D01*
Y274675D01*
X55400D01*
Y275013D01*
X55134Y276005D01*
X54621Y276895D01*
X53895Y277621D01*
X53005Y278134D01*
X52013Y278400D01*
D02*
G37*
G36*
X51325D02*
X50987D01*
X49995Y278134D01*
X49105Y277621D01*
X48379Y276895D01*
X47866Y276005D01*
X47600Y275013D01*
Y274675D01*
X51325D01*
Y278400D01*
D02*
G37*
G36*
X280334Y275856D02*
X279175D01*
Y274500D01*
X280334D01*
Y275856D01*
D02*
G37*
G36*
X278825D02*
X277666D01*
Y274500D01*
X278825D01*
Y275856D01*
D02*
G37*
G36*
X275834D02*
X274675D01*
Y274500D01*
X275834D01*
Y275856D01*
D02*
G37*
G36*
X274325D02*
X273166D01*
Y274500D01*
X274325D01*
Y275856D01*
D02*
G37*
G36*
X343000Y275325D02*
X341644D01*
Y274166D01*
X343000D01*
Y275325D01*
D02*
G37*
G36*
X341294D02*
X339937D01*
Y274166D01*
X341294D01*
Y275325D01*
D02*
G37*
G36*
X324807Y277232D02*
X316224D01*
Y273768D01*
X324807D01*
Y274629D01*
X327496D01*
Y274161D01*
X330567D01*
Y276839D01*
X327496D01*
Y276371D01*
X324807D01*
Y277232D01*
D02*
G37*
G36*
X290787Y275325D02*
X286675D01*
Y273772D01*
X290787D01*
Y275325D01*
D02*
G37*
G36*
X286325D02*
X282213D01*
Y273772D01*
X286325D01*
Y275325D01*
D02*
G37*
G36*
X207669Y275622D02*
X205919D01*
Y273675D01*
X207669D01*
Y275622D01*
D02*
G37*
G36*
X224181Y275622D02*
X222431D01*
Y273675D01*
X224181D01*
Y275622D01*
D02*
G37*
G36*
X222081D02*
X220331D01*
Y273675D01*
X222081D01*
Y275622D01*
D02*
G37*
G36*
X205569Y275622D02*
X203819D01*
Y273675D01*
X205569D01*
Y275622D01*
D02*
G37*
G36*
X420235Y275526D02*
X417010D01*
Y273401D01*
X420235D01*
Y275526D01*
D02*
G37*
G36*
X416660D02*
X413435D01*
Y273401D01*
X416660D01*
Y275526D01*
D02*
G37*
G36*
X399570Y278005D02*
X392761D01*
Y273396D01*
X399570D01*
Y278005D01*
D02*
G37*
G36*
X207669Y273325D02*
X205919D01*
Y271378D01*
X207669D01*
Y273325D01*
D02*
G37*
G36*
X205569D02*
X203819D01*
Y271378D01*
X205569D01*
Y273325D01*
D02*
G37*
G36*
X224181D02*
X222431D01*
Y271378D01*
X224181D01*
Y273325D01*
D02*
G37*
G36*
X222081D02*
X220331D01*
Y271378D01*
X222081D01*
Y273325D01*
D02*
G37*
G36*
X324803Y272897D02*
X320691D01*
Y271344D01*
X324803D01*
Y272897D01*
D02*
G37*
G36*
X320341D02*
X316229D01*
Y271344D01*
X320341D01*
Y272897D01*
D02*
G37*
G36*
X334504Y276839D02*
X331433D01*
Y274161D01*
X334504D01*
Y274629D01*
X335996D01*
Y274161D01*
X336528D01*
X336638Y273929D01*
X336682Y273661D01*
X336345Y273324D01*
X336132Y272810D01*
Y272253D01*
X336345Y271739D01*
X336738Y271345D01*
X337253Y271131D01*
X337810D01*
X338324Y271345D01*
X338718Y271739D01*
X338931Y272253D01*
Y272810D01*
X338718Y273324D01*
X338382Y273661D01*
X338425Y273929D01*
X338535Y274161D01*
X339067D01*
Y276839D01*
X335996D01*
Y276371D01*
X334504D01*
Y276839D01*
D02*
G37*
G36*
X55400Y274325D02*
X51675D01*
Y270600D01*
X52013D01*
X53005Y270866D01*
X53895Y271379D01*
X54621Y272105D01*
X55134Y272995D01*
X55400Y273987D01*
Y274325D01*
D02*
G37*
G36*
X51325D02*
X47600D01*
Y273987D01*
X47866Y272995D01*
X48379Y272105D01*
X49105Y271379D01*
X49995Y270866D01*
X50987Y270600D01*
X51325D01*
Y274325D01*
D02*
G37*
G36*
X157435Y273307D02*
X156565D01*
X155724Y273082D01*
X154969Y272646D01*
X154354Y272031D01*
X153918Y271276D01*
X153693Y270435D01*
Y270410D01*
X150126D01*
Y271685D01*
X145874D01*
Y267827D01*
X150126D01*
Y269102D01*
X153817D01*
X153918Y268724D01*
X154354Y267969D01*
X154969Y267354D01*
X155724Y266918D01*
X156565Y266693D01*
X157435D01*
X158276Y266918D01*
X159031Y267354D01*
X159646Y267969D01*
X160082Y268724D01*
X160307Y269565D01*
Y270435D01*
X160082Y271276D01*
X159646Y272031D01*
X159031Y272646D01*
X158276Y273082D01*
X157435Y273307D01*
D02*
G37*
G36*
X241740Y280825D02*
X239779D01*
X239355Y280649D01*
X239179Y280224D01*
Y275508D01*
X239355Y275083D01*
X239629Y274969D01*
Y272609D01*
X239313Y272293D01*
X239100Y271778D01*
Y271221D01*
X239313Y270707D01*
X239707Y270313D01*
X240222Y270100D01*
X240778D01*
X241293Y270313D01*
X241687Y270707D01*
X241900Y271221D01*
Y271778D01*
X241687Y272293D01*
X241371Y272609D01*
Y274907D01*
X241740D01*
X242165Y275083D01*
X242341Y275508D01*
Y280224D01*
X242165Y280649D01*
X241740Y280825D01*
D02*
G37*
G36*
X324803Y270994D02*
X320691D01*
Y269441D01*
X324803D01*
Y270994D01*
D02*
G37*
G36*
X320341D02*
X316229D01*
Y269441D01*
X320341D01*
Y270994D01*
D02*
G37*
G36*
X290791Y272902D02*
X282209D01*
Y269437D01*
X290791D01*
Y272902D01*
D02*
G37*
G36*
X249220Y280825D02*
X247260D01*
X246835Y280649D01*
X246659Y280224D01*
Y275508D01*
X246835Y275083D01*
X247249Y274911D01*
Y272504D01*
X246661D01*
Y269433D01*
X249339D01*
Y272504D01*
X248991D01*
Y274907D01*
X249220D01*
X249645Y275083D01*
X249821Y275508D01*
Y280224D01*
X249645Y280649D01*
X249220Y280825D01*
D02*
G37*
G36*
X290791Y268571D02*
X282209D01*
Y265106D01*
X290791D01*
Y268571D01*
D02*
G37*
G36*
X324807D02*
X316224D01*
Y265106D01*
X324807D01*
Y265846D01*
X333256D01*
X333313Y265707D01*
X333707Y265313D01*
X334222Y265100D01*
X334778D01*
X335293Y265313D01*
X335687Y265707D01*
X335900Y266221D01*
Y266778D01*
X335687Y267293D01*
X335293Y267687D01*
X334778Y267900D01*
X334222D01*
X333707Y267687D01*
X333313Y267293D01*
X333256Y267154D01*
X324807D01*
Y268571D01*
D02*
G37*
G36*
X206675Y266428D02*
Y263403D01*
X208061D01*
Y264902D01*
X207942Y265499D01*
X207604Y266005D01*
X207097Y266344D01*
X206675Y266428D01*
D02*
G37*
G36*
X206325D02*
X205903Y266344D01*
X205396Y266005D01*
X205058Y265499D01*
X204939Y264902D01*
Y263403D01*
X206325D01*
Y266428D01*
D02*
G37*
G36*
X255122Y263169D02*
X253175D01*
Y261419D01*
X255122D01*
Y263169D01*
D02*
G37*
G36*
X252825D02*
X250878D01*
Y261419D01*
X252825D01*
Y263169D01*
D02*
G37*
G36*
X208061Y263053D02*
X206675D01*
Y260029D01*
X207097Y260113D01*
X207604Y260451D01*
X207942Y260958D01*
X208061Y261555D01*
Y263053D01*
D02*
G37*
G36*
X206325D02*
X204939D01*
Y261555D01*
X205058Y260958D01*
X205396Y260451D01*
X205903Y260113D01*
X206325Y260029D01*
Y263053D01*
D02*
G37*
G36*
X221500Y266467D02*
X220901Y266348D01*
X220393Y266009D01*
X220054Y265501D01*
X219935Y264902D01*
Y261555D01*
X220054Y260956D01*
X220393Y260448D01*
X220901Y260109D01*
X221500Y259990D01*
X222099Y260109D01*
X222607Y260448D01*
X222946Y260956D01*
X223065Y261555D01*
Y264902D01*
X222946Y265501D01*
X222607Y266009D01*
X222099Y266348D01*
X221500Y266467D01*
D02*
G37*
G36*
X316141Y264039D02*
X314588D01*
Y259927D01*
X316141D01*
Y264039D01*
D02*
G37*
G36*
X314238D02*
X312685D01*
Y259927D01*
X314238D01*
Y264039D01*
D02*
G37*
G36*
X311811D02*
X310258D01*
Y259927D01*
X311811D01*
Y264039D01*
D02*
G37*
G36*
X309908D02*
X308355D01*
Y259927D01*
X309908D01*
Y264039D01*
D02*
G37*
G36*
X307480D02*
X305927D01*
Y259927D01*
X307480D01*
Y264039D01*
D02*
G37*
G36*
X305577D02*
X304024D01*
Y259927D01*
X305577D01*
Y264039D01*
D02*
G37*
G36*
X255122Y261069D02*
X253175D01*
Y259319D01*
X255122D01*
Y261069D01*
D02*
G37*
G36*
X252825D02*
X250878D01*
Y259319D01*
X252825D01*
Y261069D01*
D02*
G37*
G36*
X316141Y259577D02*
X314588D01*
Y255465D01*
X316141D01*
Y259577D01*
D02*
G37*
G36*
X314238D02*
X312685D01*
Y255465D01*
X314238D01*
Y259577D01*
D02*
G37*
G36*
X311811D02*
X310258D01*
Y255465D01*
X311811D01*
Y259577D01*
D02*
G37*
G36*
X309908D02*
X308355D01*
Y255465D01*
X309908D01*
Y259577D01*
D02*
G37*
G36*
X307480D02*
X305927D01*
Y255465D01*
X307480D01*
Y259577D01*
D02*
G37*
G36*
X305577D02*
X304024D01*
Y255465D01*
X305577D01*
Y259577D01*
D02*
G37*
G36*
X303153Y264043D02*
X299689D01*
Y255461D01*
X303153D01*
Y264043D01*
D02*
G37*
G36*
X298823D02*
X295358D01*
Y255461D01*
X298823D01*
Y264043D01*
D02*
G37*
G36*
X150126Y266173D02*
X145874D01*
Y262315D01*
X147346D01*
Y258685D01*
X145874D01*
Y254827D01*
X150126D01*
Y258685D01*
X148654D01*
Y262315D01*
X150126D01*
Y266173D01*
D02*
G37*
G36*
X145126D02*
X140874D01*
Y262315D01*
X142346D01*
Y258685D01*
X140874D01*
Y254827D01*
X145126D01*
Y258685D01*
X143654D01*
Y262315D01*
X145126D01*
Y266173D01*
D02*
G37*
G36*
X140126D02*
X135874D01*
Y262315D01*
X137346D01*
Y258685D01*
X135874D01*
Y254827D01*
X140126D01*
Y258685D01*
X138654D01*
Y262315D01*
X140126D01*
Y266173D01*
D02*
G37*
G36*
X135126D02*
X130874D01*
Y262315D01*
X132346D01*
Y258685D01*
X130874D01*
Y254827D01*
X135126D01*
Y258685D01*
X133654D01*
Y262315D01*
X135126D01*
Y266173D01*
D02*
G37*
G36*
X294492Y264043D02*
X291028D01*
Y255461D01*
X292025D01*
Y253839D01*
X291496D01*
Y253371D01*
X290609D01*
X290293Y253687D01*
X289778Y253900D01*
X289222D01*
X288707Y253687D01*
X288313Y253293D01*
X288100Y252779D01*
Y252221D01*
X288313Y251707D01*
X288707Y251313D01*
X289222Y251100D01*
X289778D01*
X290293Y251313D01*
X290609Y251629D01*
X291496D01*
Y251161D01*
X294567D01*
Y253839D01*
X293767D01*
Y255461D01*
X294492D01*
Y264043D01*
D02*
G37*
G36*
X298500Y253834D02*
X297144D01*
Y252675D01*
X298500D01*
Y253834D01*
D02*
G37*
G36*
X296794D02*
X295437D01*
Y252675D01*
X296794D01*
Y253834D01*
D02*
G37*
G36*
X150122Y253169D02*
X148175D01*
Y251419D01*
X150122D01*
Y253169D01*
D02*
G37*
G36*
X147825D02*
X145878D01*
Y251419D01*
X147825D01*
Y253169D01*
D02*
G37*
G36*
X145122D02*
X143175D01*
Y251419D01*
X145122D01*
Y253169D01*
D02*
G37*
G36*
X142825D02*
X140878D01*
Y251419D01*
X142825D01*
Y253169D01*
D02*
G37*
G36*
X140122D02*
X138175D01*
Y251419D01*
X140122D01*
Y253169D01*
D02*
G37*
G36*
X137825D02*
X135878D01*
Y251419D01*
X137825D01*
Y253169D01*
D02*
G37*
G36*
X135122D02*
X133175D01*
Y251419D01*
X135122D01*
Y253169D01*
D02*
G37*
G36*
X132825D02*
X130878D01*
Y251419D01*
X132825D01*
Y253169D01*
D02*
G37*
G36*
X298500Y252325D02*
X297144D01*
Y251166D01*
X298500D01*
Y252325D01*
D02*
G37*
G36*
X296794D02*
X295437D01*
Y251166D01*
X296794D01*
Y252325D01*
D02*
G37*
G36*
X150122Y251069D02*
X148175D01*
Y249319D01*
X150122D01*
Y251069D01*
D02*
G37*
G36*
X147825D02*
X145878D01*
Y249319D01*
X147825D01*
Y251069D01*
D02*
G37*
G36*
X145122D02*
X143175D01*
Y249319D01*
X145122D01*
Y251069D01*
D02*
G37*
G36*
X142825D02*
X140878D01*
Y249319D01*
X142825D01*
Y251069D01*
D02*
G37*
G36*
X140122D02*
X138175D01*
Y249319D01*
X140122D01*
Y251069D01*
D02*
G37*
G36*
X137825D02*
X135878D01*
Y249319D01*
X137825D01*
Y251069D01*
D02*
G37*
G36*
X135122D02*
X133175D01*
Y249319D01*
X135122D01*
Y251069D01*
D02*
G37*
G36*
X132825D02*
X130878D01*
Y249319D01*
X132825D01*
Y251069D01*
D02*
G37*
G36*
X332278Y246900D02*
X331721D01*
X331207Y246687D01*
X330813Y246293D01*
X330756Y246154D01*
X329311D01*
Y246870D01*
X325689D01*
Y235177D01*
X329311D01*
Y244846D01*
X330756D01*
X330813Y244707D01*
X331207Y244313D01*
X331721Y244100D01*
X332278D01*
X332793Y244313D01*
X333187Y244707D01*
X333400Y245221D01*
Y245778D01*
X333187Y246293D01*
X332793Y246687D01*
X332278Y246900D01*
D02*
G37*
G36*
X201122Y244169D02*
X199175D01*
Y242419D01*
X201122D01*
Y244169D01*
D02*
G37*
G36*
X198825D02*
X196878D01*
Y242419D01*
X198825D01*
Y244169D01*
D02*
G37*
G36*
X196122Y244169D02*
X194175D01*
Y242419D01*
X196122D01*
Y244169D01*
D02*
G37*
G36*
X193825D02*
X191878D01*
Y242419D01*
X193825D01*
Y244169D01*
D02*
G37*
G36*
X211675Y244971D02*
Y241947D01*
X213061D01*
Y243445D01*
X212942Y244042D01*
X212604Y244549D01*
X212097Y244887D01*
X211675Y244971D01*
D02*
G37*
G36*
X211325D02*
X210903Y244887D01*
X210396Y244549D01*
X210058Y244042D01*
X209939Y243445D01*
Y241947D01*
X211325D01*
Y244971D01*
D02*
G37*
G36*
X314307Y246866D02*
X312675D01*
Y241199D01*
X314307D01*
Y246866D01*
D02*
G37*
G36*
X324307D02*
X322675D01*
Y241199D01*
X324307D01*
Y246866D01*
D02*
G37*
G36*
X309307D02*
X307675D01*
Y241199D01*
X309307D01*
Y246866D01*
D02*
G37*
G36*
X319307D02*
X317675D01*
Y241199D01*
X319307D01*
Y246866D01*
D02*
G37*
G36*
X312325D02*
X310693D01*
Y241199D01*
X312325D01*
Y246866D01*
D02*
G37*
G36*
X322325D02*
X320693D01*
Y241199D01*
X322325D01*
Y246866D01*
D02*
G37*
G36*
X307325D02*
X305693D01*
Y241199D01*
X307325D01*
Y246866D01*
D02*
G37*
G36*
X317325D02*
X315693D01*
Y241199D01*
X317325D01*
Y246866D01*
D02*
G37*
G36*
X201122Y242069D02*
X199175D01*
Y240319D01*
X201122D01*
Y242069D01*
D02*
G37*
G36*
X198825D02*
X196878D01*
Y240319D01*
X198825D01*
Y242069D01*
D02*
G37*
G36*
X196122Y242069D02*
X194175D01*
Y240319D01*
X196122D01*
Y242069D01*
D02*
G37*
G36*
X193825D02*
X191878D01*
Y240319D01*
X193825D01*
Y242069D01*
D02*
G37*
G36*
X213061Y241597D02*
X211675D01*
Y238572D01*
X212097Y238656D01*
X212604Y238995D01*
X212942Y239501D01*
X213061Y240098D01*
Y241597D01*
D02*
G37*
G36*
X196779Y251900D02*
X196221D01*
X195707Y251687D01*
X195313Y251293D01*
X195100Y250779D01*
Y250221D01*
X195161Y250075D01*
X194846Y249685D01*
X191874D01*
Y245827D01*
X196126D01*
Y248453D01*
X196500Y248827D01*
X196874Y248453D01*
Y245827D01*
X201126D01*
Y246885D01*
X206764D01*
X207097Y246951D01*
X207380Y247140D01*
X208869Y248629D01*
X214053D01*
X215629Y247053D01*
Y244709D01*
X215393Y244552D01*
X215054Y244044D01*
X214934Y243445D01*
Y240098D01*
X215054Y239499D01*
X215393Y238991D01*
X215901Y238652D01*
X216500Y238533D01*
X217099Y238652D01*
X217607Y238991D01*
X217946Y239499D01*
X218066Y240098D01*
Y243445D01*
X217946Y244044D01*
X217607Y244552D01*
X217371Y244709D01*
Y247414D01*
X217305Y247748D01*
X217116Y248030D01*
X215030Y250116D01*
X214748Y250305D01*
X214414Y250371D01*
X208508D01*
X208174Y250305D01*
X207892Y250116D01*
X206403Y248627D01*
X201126D01*
Y249685D01*
X198154D01*
X197839Y250075D01*
X197900Y250221D01*
Y250779D01*
X197687Y251293D01*
X197293Y251687D01*
X196779Y251900D01*
D02*
G37*
G36*
X324307Y240849D02*
X322675D01*
Y235181D01*
X324307D01*
Y240849D01*
D02*
G37*
G36*
X322325D02*
X320693D01*
Y235181D01*
X322325D01*
Y240849D01*
D02*
G37*
G36*
X319307D02*
X317675D01*
Y235181D01*
X319307D01*
Y240849D01*
D02*
G37*
G36*
X317325D02*
X315693D01*
Y235181D01*
X317325D01*
Y240849D01*
D02*
G37*
G36*
X314307D02*
X312675D01*
Y235181D01*
X314307D01*
Y240849D01*
D02*
G37*
G36*
X312325D02*
X310693D01*
Y235181D01*
X312325D01*
Y240849D01*
D02*
G37*
G36*
X309307D02*
X307675D01*
Y235181D01*
X309307D01*
Y240849D01*
D02*
G37*
G36*
X307325D02*
X305693D01*
Y235181D01*
X307325D01*
Y240849D01*
D02*
G37*
G36*
X269935Y236303D02*
X269675D01*
Y233175D01*
X272803D01*
Y233435D01*
X272578Y234275D01*
X272143Y235028D01*
X271528Y235643D01*
X270775Y236078D01*
X269935Y236303D01*
D02*
G37*
G36*
X269325D02*
X269065D01*
X268225Y236078D01*
X267472Y235643D01*
X266857Y235028D01*
X266422Y234275D01*
X266197Y233435D01*
Y233175D01*
X269325D01*
Y236303D01*
D02*
G37*
G36*
X272803Y232825D02*
X269675D01*
Y229697D01*
X269935D01*
X270775Y229922D01*
X271528Y230357D01*
X272143Y230972D01*
X272578Y231725D01*
X272803Y232565D01*
Y232825D01*
D02*
G37*
G36*
X269325D02*
X266197D01*
Y232565D01*
X266422Y231725D01*
X266857Y230972D01*
X267472Y230357D01*
X268225Y229922D01*
X269065Y229697D01*
X269325D01*
Y232825D01*
D02*
G37*
G36*
X282807Y236307D02*
X276193D01*
Y229693D01*
X282807D01*
Y236307D01*
D02*
G37*
G36*
X301122Y230681D02*
X299175D01*
Y228931D01*
X301122D01*
Y230681D01*
D02*
G37*
G36*
X298825D02*
X296878D01*
Y228931D01*
X298825D01*
Y230681D01*
D02*
G37*
G36*
X301122Y228581D02*
X299175D01*
Y226831D01*
X301122D01*
Y228581D01*
D02*
G37*
G36*
X298825D02*
X296878D01*
Y226831D01*
X298825D01*
Y228581D01*
D02*
G37*
G36*
X52013Y221900D02*
X51675D01*
Y218175D01*
X55400D01*
Y218513D01*
X55134Y219505D01*
X54621Y220395D01*
X53895Y221121D01*
X53005Y221634D01*
X52013Y221900D01*
D02*
G37*
G36*
X51325D02*
X50987D01*
X49995Y221634D01*
X49105Y221121D01*
X48379Y220395D01*
X47866Y219505D01*
X47600Y218513D01*
Y218175D01*
X51325D01*
Y221900D01*
D02*
G37*
G36*
X85850Y218850D02*
X84675D01*
Y217675D01*
X85850D01*
Y218850D01*
D02*
G37*
G36*
X84325D02*
X83150D01*
Y217675D01*
X84325D01*
Y218850D01*
D02*
G37*
G36*
X85850Y217325D02*
X84675D01*
Y216150D01*
X85850D01*
Y217325D01*
D02*
G37*
G36*
X84325D02*
X83150D01*
Y216150D01*
X84325D01*
Y217325D01*
D02*
G37*
G36*
X55400Y217825D02*
X51675D01*
Y214100D01*
X52013D01*
X53005Y214366D01*
X53895Y214879D01*
X54621Y215605D01*
X55134Y216495D01*
X55400Y217487D01*
Y217825D01*
D02*
G37*
G36*
X51325D02*
X47600D01*
Y217487D01*
X47866Y216495D01*
X48379Y215605D01*
X49105Y214879D01*
X49995Y214366D01*
X50987Y214100D01*
X51325D01*
Y217825D01*
D02*
G37*
G36*
X410834Y209000D02*
X409675D01*
Y207644D01*
X410834D01*
Y209000D01*
D02*
G37*
G36*
X409325D02*
X408166D01*
Y207644D01*
X409325D01*
Y209000D01*
D02*
G37*
G36*
X410834Y207294D02*
X409675D01*
Y205937D01*
X410834D01*
Y207294D01*
D02*
G37*
G36*
X409325D02*
X408166D01*
Y205937D01*
X409325D01*
Y207294D01*
D02*
G37*
G36*
X405278Y212900D02*
X404721D01*
X404207Y212687D01*
X403813Y212293D01*
X403600Y211778D01*
Y211222D01*
X403813Y210707D01*
X404207Y210313D01*
X404721Y210100D01*
X404846D01*
Y209004D01*
X404161D01*
Y205933D01*
X406839D01*
Y209004D01*
X406154D01*
Y210674D01*
X406187Y210707D01*
X406400Y211222D01*
Y211778D01*
X406187Y212293D01*
X405793Y212687D01*
X405278Y212900D01*
D02*
G37*
G36*
X184733Y206198D02*
X184176D01*
X183661Y205985D01*
X183268Y205591D01*
X183054Y205077D01*
Y204520D01*
X183268Y204005D01*
X183661Y203611D01*
X184176Y203398D01*
X184733D01*
X184846Y203323D01*
Y202685D01*
X183374D01*
Y198827D01*
X187626D01*
Y202685D01*
X186154D01*
Y204500D01*
X185962Y204962D01*
X185854Y205071D01*
Y205077D01*
X185641Y205591D01*
X185248Y205985D01*
X184733Y206198D01*
D02*
G37*
G36*
X178303Y200480D02*
X175175D01*
Y197549D01*
X178303D01*
Y200480D01*
D02*
G37*
G36*
X174825D02*
X171697D01*
Y197549D01*
X174825D01*
Y200480D01*
D02*
G37*
G36*
X415954Y198482D02*
Y196978D01*
X416622D01*
Y198482D01*
X415954D01*
D02*
G37*
G36*
X145669Y198622D02*
X143919D01*
Y196675D01*
X145669D01*
Y198622D01*
D02*
G37*
G36*
X143569D02*
X141819D01*
Y196675D01*
X143569D01*
Y198622D01*
D02*
G37*
G36*
X145669Y196325D02*
X143919D01*
Y194378D01*
X145669D01*
Y196325D01*
D02*
G37*
G36*
X143569D02*
X141819D01*
Y194378D01*
X143569D01*
Y196325D01*
D02*
G37*
G36*
X178303Y197199D02*
X175175D01*
Y194268D01*
X178303D01*
Y197199D01*
D02*
G37*
G36*
X174825D02*
X171697D01*
Y194268D01*
X174825D01*
Y197199D01*
D02*
G37*
G36*
X166233Y199198D02*
X165676D01*
X165161Y198985D01*
X164768Y198591D01*
X164554Y198077D01*
Y197520D01*
X164768Y197005D01*
X165161Y196611D01*
X165676Y196398D01*
X165842D01*
X166661Y195579D01*
Y193433D01*
X169339D01*
Y196504D01*
X167587D01*
X167113Y196977D01*
X167141Y197005D01*
X167354Y197520D01*
Y198077D01*
X167141Y198591D01*
X166747Y198985D01*
X166233Y199198D01*
D02*
G37*
G36*
X399299Y193429D02*
X397817D01*
X396335D01*
X396335Y192620D01*
X396335Y192262D01*
Y191811D01*
X397817D01*
X399299D01*
X399299Y192620D01*
X399299Y192978D01*
Y193429D01*
D02*
G37*
G36*
Y191461D02*
X397817D01*
X396335D01*
X396335Y190652D01*
X396335Y190294D01*
Y189842D01*
X397817D01*
X399299D01*
Y190652D01*
X399299Y191009D01*
Y191461D01*
D02*
G37*
G36*
X416622Y196628D02*
X415954D01*
Y194993D01*
X416145Y194624D01*
X416021Y194451D01*
X414539D01*
X414539Y192620D01*
X414539Y192258D01*
X414539Y190652D01*
X414539Y190289D01*
Y189039D01*
X414539Y188821D01*
X414544Y188323D01*
Y187874D01*
X416026D01*
X417508D01*
Y188323D01*
X417509Y188542D01*
X417881Y188846D01*
X424314D01*
Y188339D01*
X423433D01*
Y185661D01*
X426504D01*
Y188309D01*
X426878Y188642D01*
X427207Y188313D01*
X427722Y188100D01*
X428278D01*
X428793Y188313D01*
X429187Y188707D01*
X429400Y189222D01*
Y189778D01*
X429187Y190293D01*
X428793Y190687D01*
X428278Y190900D01*
X427722D01*
X427207Y190687D01*
X426878Y190358D01*
X426504Y190691D01*
Y193339D01*
X423433D01*
Y190661D01*
X424314D01*
Y190154D01*
X417865D01*
X417858Y190162D01*
X417780Y190372D01*
X418142Y190830D01*
X419496D01*
Y190661D01*
X422567D01*
Y193158D01*
X422717Y193473D01*
X422932Y193664D01*
X423293Y193813D01*
X423687Y194207D01*
X423900Y194721D01*
Y195279D01*
X423687Y195793D01*
X423293Y196187D01*
X422779Y196400D01*
X422222D01*
X421707Y196187D01*
X421313Y195793D01*
X421256Y195654D01*
X417791D01*
X417329Y195463D01*
X417122Y195255D01*
X416622Y195463D01*
Y196628D01*
D02*
G37*
G36*
X422563Y188334D02*
X421207D01*
Y187175D01*
X422563D01*
Y188334D01*
D02*
G37*
G36*
X420857D02*
X419500D01*
Y187175D01*
X420857D01*
Y188334D01*
D02*
G37*
G36*
X417508Y187524D02*
X416201D01*
Y186857D01*
X417508D01*
Y187524D01*
D02*
G37*
G36*
X415851D02*
X414544D01*
Y186857D01*
X415851D01*
Y187524D01*
D02*
G37*
G36*
X409028Y186183D02*
X408530Y186179D01*
X408080D01*
Y184500D01*
Y182821D01*
X408530D01*
X409028Y182817D01*
X409246Y182817D01*
X410858Y182817D01*
X411221Y182817D01*
X412465D01*
X412689Y182817D01*
X413001Y182446D01*
Y180809D01*
X412707Y180687D01*
X412313Y180293D01*
X412100Y179779D01*
Y179221D01*
X412313Y178707D01*
X412707Y178313D01*
X412846Y178256D01*
Y176839D01*
X411433D01*
Y174161D01*
X412314D01*
Y172339D01*
X411433D01*
Y169661D01*
X414504D01*
Y172339D01*
X413623D01*
Y174161D01*
X414504D01*
Y176839D01*
X414154D01*
Y178256D01*
X414293Y178313D01*
X414687Y178707D01*
X414900Y179221D01*
Y179779D01*
X414687Y180293D01*
X414310Y180670D01*
Y182463D01*
X414663Y182817D01*
X416626Y182817D01*
Y186183D01*
X414795Y186183D01*
X414433Y186183D01*
X412827Y186183D01*
X412465Y186183D01*
X410858Y186183D01*
X410496Y186183D01*
X409246D01*
X409028Y186183D01*
D02*
G37*
G36*
X169334Y187500D02*
X168175D01*
Y186144D01*
X169334D01*
Y187500D01*
D02*
G37*
G36*
X165834D02*
X164675D01*
Y186144D01*
X165834D01*
Y187500D01*
D02*
G37*
G36*
X164325D02*
X163166D01*
Y186144D01*
X164325D01*
Y187500D01*
D02*
G37*
G36*
X167825D02*
X166666D01*
Y186144D01*
X167825D01*
Y187500D01*
D02*
G37*
G36*
X422563Y186825D02*
X421207D01*
Y185666D01*
X422563D01*
Y186825D01*
D02*
G37*
G36*
X420857D02*
X419500D01*
Y185666D01*
X420857D01*
Y186825D01*
D02*
G37*
G36*
X316529Y186800D02*
X316070D01*
X315645Y186624D01*
X315321Y186300D01*
X315145Y185875D01*
Y185416D01*
X315321Y184992D01*
X315645Y184667D01*
X316070Y184491D01*
X316529D01*
X316953Y184667D01*
X317278Y184992D01*
X317454Y185416D01*
Y185875D01*
X317278Y186300D01*
X316953Y186624D01*
X316529Y186800D01*
D02*
G37*
G36*
X169334Y185793D02*
X168175D01*
Y184437D01*
X169334D01*
Y185793D01*
D02*
G37*
G36*
X167825D02*
X166666D01*
Y184437D01*
X167825D01*
Y185793D01*
D02*
G37*
G36*
X165834D02*
X164675D01*
Y184437D01*
X165834D01*
Y185793D01*
D02*
G37*
G36*
X164325D02*
X163166D01*
Y184437D01*
X164325D01*
Y185793D01*
D02*
G37*
G36*
X316529Y183650D02*
X316070D01*
X315645Y183475D01*
X315321Y183150D01*
X315145Y182726D01*
Y182266D01*
X315321Y181842D01*
X315645Y181518D01*
X316070Y181342D01*
X316529D01*
X316953Y181518D01*
X317278Y181842D01*
X317454Y182266D01*
Y182726D01*
X317278Y183150D01*
X316953Y183475D01*
X316529Y183650D01*
D02*
G37*
G36*
X322828Y180501D02*
X322369D01*
X321945Y180325D01*
X321620Y180000D01*
X321444Y179576D01*
Y179117D01*
X321620Y178693D01*
X321945Y178368D01*
X322369Y178192D01*
X322828D01*
X323252Y178368D01*
X323577Y178693D01*
X323753Y179117D01*
Y179576D01*
X323577Y180000D01*
X323252Y180325D01*
X322828Y180501D01*
D02*
G37*
G36*
X319678D02*
X319219D01*
X318795Y180325D01*
X318470Y180000D01*
X318295Y179576D01*
Y179117D01*
X318470Y178693D01*
X318795Y178368D01*
X319219Y178192D01*
X319678D01*
X320103Y178368D01*
X320427Y178693D01*
X320603Y179117D01*
Y179576D01*
X320427Y180000D01*
X320103Y180325D01*
X319678Y180501D01*
D02*
G37*
G36*
X316529D02*
X316070D01*
X315645Y180325D01*
X315321Y180000D01*
X315145Y179576D01*
Y179117D01*
X315321Y178693D01*
X315645Y178368D01*
X316070Y178192D01*
X316529D01*
X316953Y178368D01*
X317278Y178693D01*
X317454Y179117D01*
Y179576D01*
X317278Y180000D01*
X316953Y180325D01*
X316529Y180501D01*
D02*
G37*
G36*
X313379D02*
X312920D01*
X312496Y180325D01*
X312171Y180000D01*
X311995Y179576D01*
Y179117D01*
X312171Y178693D01*
X312496Y178368D01*
X312920Y178192D01*
X313379D01*
X313804Y178368D01*
X314128Y178693D01*
X314304Y179117D01*
Y179576D01*
X314128Y180000D01*
X313804Y180325D01*
X313379Y180501D01*
D02*
G37*
G36*
X410563Y176834D02*
X409206D01*
Y175675D01*
X410563D01*
Y176834D01*
D02*
G37*
G36*
X408856D02*
X407500D01*
Y175675D01*
X408856D01*
Y176834D01*
D02*
G37*
G36*
X319678Y177351D02*
X319219D01*
X318795Y177175D01*
X318470Y176851D01*
X318295Y176426D01*
Y175967D01*
X318470Y175543D01*
X318795Y175218D01*
X319219Y175042D01*
X319678D01*
X320103Y175218D01*
X320427Y175543D01*
X320603Y175967D01*
Y176426D01*
X320427Y176851D01*
X320103Y177175D01*
X319678Y177351D01*
D02*
G37*
G36*
X316529D02*
X316070D01*
X315645Y177175D01*
X315321Y176851D01*
X315145Y176426D01*
Y175967D01*
X315321Y175543D01*
X315645Y175218D01*
X316070Y175042D01*
X316529D01*
X316953Y175218D01*
X317278Y175543D01*
X317454Y175967D01*
Y176426D01*
X317278Y176851D01*
X316953Y177175D01*
X316529Y177351D01*
D02*
G37*
G36*
X313379D02*
X312920D01*
X312496Y177175D01*
X312171Y176851D01*
X311995Y176426D01*
Y175967D01*
X312171Y175543D01*
X312496Y175218D01*
X312920Y175042D01*
X313379D01*
X313804Y175218D01*
X314128Y175543D01*
X314304Y175967D01*
Y176426D01*
X314128Y176851D01*
X313804Y177175D01*
X313379Y177351D01*
D02*
G37*
G36*
X410563Y175325D02*
X409206D01*
Y174166D01*
X410563D01*
Y175325D01*
D02*
G37*
G36*
X408856D02*
X407500D01*
Y174166D01*
X408856D01*
Y175325D01*
D02*
G37*
G36*
X343500Y172834D02*
X342144D01*
Y171675D01*
X343500D01*
Y172834D01*
D02*
G37*
G36*
X341793D02*
X340437D01*
Y171675D01*
X341793D01*
Y172834D01*
D02*
G37*
G36*
X410563Y172334D02*
X409206D01*
Y171175D01*
X410563D01*
Y172334D01*
D02*
G37*
G36*
X408856D02*
X407500D01*
Y171175D01*
X408856D01*
Y172334D01*
D02*
G37*
G36*
X343500Y171325D02*
X342144D01*
Y170166D01*
X343500D01*
Y171325D01*
D02*
G37*
G36*
X341793D02*
X340437D01*
Y170166D01*
X341793D01*
Y171325D01*
D02*
G37*
G36*
X310229Y171048D02*
X310175D01*
Y170073D01*
X311150D01*
Y170126D01*
X310975Y170549D01*
X310651Y170873D01*
X310229Y171048D01*
D02*
G37*
G36*
X309825D02*
X309771D01*
X309349Y170873D01*
X309025Y170549D01*
X308850Y170126D01*
Y170073D01*
X309825D01*
Y171048D01*
D02*
G37*
G36*
X307079D02*
X307025D01*
Y170073D01*
X308000D01*
Y170126D01*
X307825Y170549D01*
X307502Y170873D01*
X307079Y171048D01*
D02*
G37*
G36*
X306675D02*
X306622D01*
X306199Y170873D01*
X305875Y170549D01*
X305700Y170126D01*
Y170073D01*
X306675D01*
Y171048D01*
D02*
G37*
G36*
X303929D02*
X303876D01*
Y170073D01*
X304851D01*
Y170126D01*
X304676Y170549D01*
X304352Y170873D01*
X303929Y171048D01*
D02*
G37*
G36*
X303526D02*
X303472D01*
X303049Y170873D01*
X302726Y170549D01*
X302551Y170126D01*
Y170073D01*
X303526D01*
Y171048D01*
D02*
G37*
G36*
X300780D02*
X300726D01*
Y170073D01*
X301701D01*
Y170126D01*
X301526Y170549D01*
X301203Y170873D01*
X300780Y171048D01*
D02*
G37*
G36*
X300376D02*
X300322D01*
X299900Y170873D01*
X299576Y170549D01*
X299401Y170126D01*
Y170073D01*
X300376D01*
Y171048D01*
D02*
G37*
G36*
X410563Y170825D02*
X409206D01*
Y169666D01*
X410563D01*
Y170825D01*
D02*
G37*
G36*
X408856D02*
X407500D01*
Y169666D01*
X408856D01*
Y170825D01*
D02*
G37*
G36*
X311150Y169723D02*
X310175D01*
Y168748D01*
X310229D01*
X310651Y168923D01*
X310975Y169246D01*
X311150Y169669D01*
Y169723D01*
D02*
G37*
G36*
X309825D02*
X308850D01*
Y169669D01*
X309025Y169246D01*
X309349Y168923D01*
X309771Y168748D01*
X309825D01*
Y169723D01*
D02*
G37*
G36*
X308000D02*
X307025D01*
Y168748D01*
X307079D01*
X307502Y168923D01*
X307825Y169246D01*
X308000Y169669D01*
Y169723D01*
D02*
G37*
G36*
X306675D02*
X305700D01*
Y169669D01*
X305875Y169246D01*
X306199Y168923D01*
X306622Y168748D01*
X306675D01*
Y169723D01*
D02*
G37*
G36*
X304851D02*
X303876D01*
Y168748D01*
X303929D01*
X304352Y168923D01*
X304676Y169246D01*
X304851Y169669D01*
Y169723D01*
D02*
G37*
G36*
X303526D02*
X302551D01*
Y169669D01*
X302726Y169246D01*
X303049Y168923D01*
X303472Y168748D01*
X303526D01*
Y169723D01*
D02*
G37*
G36*
X301701D02*
X300726D01*
Y168748D01*
X300780D01*
X301203Y168923D01*
X301526Y169246D01*
X301701Y169669D01*
Y169723D01*
D02*
G37*
G36*
X300376D02*
X299401D01*
Y169669D01*
X299576Y169246D01*
X299900Y168923D01*
X300322Y168748D01*
X300376D01*
Y169723D01*
D02*
G37*
G36*
X298552D02*
X297577D01*
Y168748D01*
X297630D01*
X298053Y168923D01*
X298376Y169246D01*
X298552Y169669D01*
Y169723D01*
D02*
G37*
G36*
X189452Y173452D02*
X183175D01*
Y167175D01*
X189452D01*
Y173452D01*
D02*
G37*
G36*
X182825D02*
X176548D01*
Y167175D01*
X182825D01*
Y173452D01*
D02*
G37*
G36*
X310229Y167898D02*
X310175D01*
Y166923D01*
X311150D01*
Y166977D01*
X310975Y167400D01*
X310651Y167723D01*
X310229Y167898D01*
D02*
G37*
G36*
X309825D02*
X309771D01*
X309349Y167723D01*
X309025Y167400D01*
X308850Y166977D01*
Y166923D01*
X309825D01*
Y167898D01*
D02*
G37*
G36*
X297630D02*
X297577D01*
Y166923D01*
X298552D01*
Y166977D01*
X298376Y167400D01*
X298053Y167723D01*
X297630Y167898D01*
D02*
G37*
G36*
X344181Y167622D02*
X342431D01*
Y165675D01*
X344181D01*
Y167622D01*
D02*
G37*
G36*
X342081D02*
X340331D01*
Y165675D01*
X342081D01*
Y167622D01*
D02*
G37*
G36*
X311150Y166573D02*
X310175D01*
Y165598D01*
X310229D01*
X310651Y165773D01*
X310975Y166097D01*
X311150Y166519D01*
Y166573D01*
D02*
G37*
G36*
X309825D02*
X308850D01*
Y166519D01*
X309025Y166097D01*
X309349Y165773D01*
X309771Y165598D01*
X309825D01*
Y166573D01*
D02*
G37*
G36*
X298552D02*
X297577D01*
Y165598D01*
X297630D01*
X298053Y165773D01*
X298376Y166097D01*
X298552Y166519D01*
Y166573D01*
D02*
G37*
G36*
X310229Y164748D02*
X310175D01*
Y163773D01*
X311150D01*
Y163827D01*
X310975Y164250D01*
X310651Y164573D01*
X310229Y164748D01*
D02*
G37*
G36*
X309825D02*
X309771D01*
X309349Y164573D01*
X309025Y164250D01*
X308850Y163827D01*
Y163773D01*
X309825D01*
Y164748D01*
D02*
G37*
G36*
X297630D02*
X297577D01*
Y163773D01*
X298552D01*
Y163827D01*
X298376Y164250D01*
X298053Y164573D01*
X297630Y164748D01*
D02*
G37*
G36*
X344181Y165325D02*
X342431D01*
Y163378D01*
X344181D01*
Y165325D01*
D02*
G37*
G36*
X342081D02*
X340331D01*
Y163378D01*
X342081D01*
Y165325D01*
D02*
G37*
G36*
X311150Y163423D02*
X310175D01*
Y162448D01*
X310229D01*
X310651Y162624D01*
X310975Y162947D01*
X311150Y163370D01*
Y163423D01*
D02*
G37*
G36*
X309825D02*
X308850D01*
Y163370D01*
X309025Y162947D01*
X309349Y162624D01*
X309771Y162448D01*
X309825D01*
Y163423D01*
D02*
G37*
G36*
X298552D02*
X297577D01*
Y162448D01*
X297630D01*
X298053Y162624D01*
X298376Y162947D01*
X298552Y163370D01*
Y163423D01*
D02*
G37*
G36*
X310229Y161599D02*
X310175D01*
Y160624D01*
X311150D01*
Y160678D01*
X310975Y161100D01*
X310651Y161424D01*
X310229Y161599D01*
D02*
G37*
G36*
X309825D02*
X309771D01*
X309349Y161424D01*
X309025Y161100D01*
X308850Y160678D01*
Y160624D01*
X309825D01*
Y161599D01*
D02*
G37*
G36*
X297630D02*
X297577D01*
Y160624D01*
X298552D01*
Y160678D01*
X298376Y161100D01*
X298053Y161424D01*
X297630Y161599D01*
D02*
G37*
G36*
X297227D02*
X297173D01*
X296750Y161424D01*
X296427Y161100D01*
X296252Y160678D01*
Y160624D01*
X297227D01*
Y161599D01*
D02*
G37*
G36*
X189452Y166825D02*
X183175D01*
Y160548D01*
X189452D01*
Y166825D01*
D02*
G37*
G36*
X182825D02*
X176548D01*
Y160548D01*
X182825D01*
Y166825D01*
D02*
G37*
G36*
X311150Y160274D02*
X310175D01*
Y159299D01*
X310229D01*
X310651Y159474D01*
X310975Y159797D01*
X311150Y160220D01*
Y160274D01*
D02*
G37*
G36*
X309825D02*
X308850D01*
Y160220D01*
X309025Y159797D01*
X309349Y159474D01*
X309771Y159299D01*
X309825D01*
Y160274D01*
D02*
G37*
G36*
X298552D02*
X297577D01*
Y159299D01*
X297630D01*
X298053Y159474D01*
X298376Y159797D01*
X298552Y160220D01*
Y160274D01*
D02*
G37*
G36*
X297227D02*
X296252D01*
Y160220D01*
X296427Y159797D01*
X296750Y159474D01*
X297173Y159299D01*
X297227D01*
Y160274D01*
D02*
G37*
G36*
X405339Y158504D02*
X402661D01*
Y157954D01*
X402289Y157828D01*
X402161Y157818D01*
X401793Y158187D01*
X401278Y158400D01*
X400722D01*
X400207Y158187D01*
X399813Y157793D01*
X399600Y157279D01*
Y156721D01*
X399813Y156207D01*
X400207Y155813D01*
X400722Y155600D01*
X401278D01*
X401793Y155813D01*
X402161Y156182D01*
X402289Y156172D01*
X402661Y156046D01*
Y155433D01*
X405339D01*
Y158504D01*
D02*
G37*
G36*
X310229Y158449D02*
X310175D01*
Y157474D01*
X311150D01*
Y157528D01*
X310975Y157951D01*
X310651Y158274D01*
X310229Y158449D01*
D02*
G37*
G36*
X309825D02*
X309771D01*
X309349Y158274D01*
X309025Y157951D01*
X308850Y157528D01*
Y157474D01*
X309825D01*
Y158449D01*
D02*
G37*
G36*
X307079D02*
X307025D01*
Y157474D01*
X308000D01*
Y157528D01*
X307825Y157951D01*
X307502Y158274D01*
X307079Y158449D01*
D02*
G37*
G36*
X306675D02*
X306622D01*
X306199Y158274D01*
X305875Y157951D01*
X305700Y157528D01*
Y157474D01*
X306675D01*
Y158449D01*
D02*
G37*
G36*
X303929D02*
X303876D01*
Y157474D01*
X304851D01*
Y157528D01*
X304676Y157951D01*
X304352Y158274D01*
X303929Y158449D01*
D02*
G37*
G36*
X303526D02*
X303472D01*
X303049Y158274D01*
X302726Y157951D01*
X302551Y157528D01*
Y157474D01*
X303526D01*
Y158449D01*
D02*
G37*
G36*
X300780D02*
X300726D01*
Y157474D01*
X301701D01*
Y157528D01*
X301526Y157951D01*
X301203Y158274D01*
X300780Y158449D01*
D02*
G37*
G36*
X300376D02*
X300322D01*
X299900Y158274D01*
X299576Y157951D01*
X299401Y157528D01*
Y157474D01*
X300376D01*
Y158449D01*
D02*
G37*
G36*
X297630D02*
X297577D01*
Y157474D01*
X298552D01*
Y157528D01*
X298376Y157951D01*
X298053Y158274D01*
X297630Y158449D01*
D02*
G37*
G36*
X297227D02*
X297173D01*
X296750Y158274D01*
X296427Y157951D01*
X296252Y157528D01*
Y157474D01*
X297227D01*
Y158449D01*
D02*
G37*
G36*
X311150Y157124D02*
X310175D01*
Y156149D01*
X310229D01*
X310651Y156324D01*
X310975Y156648D01*
X311150Y157071D01*
Y157124D01*
D02*
G37*
G36*
X309825D02*
X308850D01*
Y157071D01*
X309025Y156648D01*
X309349Y156324D01*
X309771Y156149D01*
X309825D01*
Y157124D01*
D02*
G37*
G36*
X308000D02*
X307025D01*
Y156149D01*
X307079D01*
X307502Y156324D01*
X307825Y156648D01*
X308000Y157071D01*
Y157124D01*
D02*
G37*
G36*
X306675D02*
X305700D01*
Y157071D01*
X305875Y156648D01*
X306199Y156324D01*
X306622Y156149D01*
X306675D01*
Y157124D01*
D02*
G37*
G36*
X304851D02*
X303876D01*
Y156149D01*
X303929D01*
X304352Y156324D01*
X304676Y156648D01*
X304851Y157071D01*
Y157124D01*
D02*
G37*
G36*
X303526D02*
X302551D01*
Y157071D01*
X302726Y156648D01*
X303049Y156324D01*
X303472Y156149D01*
X303526D01*
Y157124D01*
D02*
G37*
G36*
X301701D02*
X300726D01*
Y156149D01*
X300780D01*
X301203Y156324D01*
X301526Y156648D01*
X301701Y157071D01*
Y157124D01*
D02*
G37*
G36*
X300376D02*
X299401D01*
Y157071D01*
X299576Y156648D01*
X299900Y156324D01*
X300322Y156149D01*
X300376D01*
Y157124D01*
D02*
G37*
G36*
X298552D02*
X297577D01*
Y156149D01*
X297630D01*
X298053Y156324D01*
X298376Y156648D01*
X298552Y157071D01*
Y157124D01*
D02*
G37*
G36*
X297227D02*
X296252D01*
Y157071D01*
X296427Y156648D01*
X296750Y156324D01*
X297173Y156149D01*
X297227D01*
Y157124D01*
D02*
G37*
G36*
X322828Y158454D02*
X322369D01*
X321945Y158278D01*
X321620Y157953D01*
X321444Y157529D01*
Y157070D01*
X321620Y156645D01*
X321945Y156321D01*
X322369Y156145D01*
X322828D01*
X323252Y156321D01*
X323577Y156645D01*
X323753Y157070D01*
Y157529D01*
X323577Y157953D01*
X323252Y158278D01*
X322828Y158454D01*
D02*
G37*
G36*
X319678D02*
X319219D01*
X318795Y158278D01*
X318470Y157953D01*
X318295Y157529D01*
Y157070D01*
X318470Y156645D01*
X318795Y156321D01*
X319219Y156145D01*
X319678D01*
X320103Y156321D01*
X320427Y156645D01*
X320603Y157070D01*
Y157529D01*
X320427Y157953D01*
X320103Y158278D01*
X319678Y158454D01*
D02*
G37*
G36*
X316529D02*
X316070D01*
X315645Y158278D01*
X315321Y157953D01*
X315145Y157529D01*
Y157070D01*
X315321Y156645D01*
X315645Y156321D01*
X316070Y156145D01*
X316529D01*
X316953Y156321D01*
X317278Y156645D01*
X317454Y157070D01*
Y157529D01*
X317278Y157953D01*
X316953Y158278D01*
X316529Y158454D01*
D02*
G37*
G36*
X297630Y155300D02*
X297577D01*
Y154325D01*
X298552D01*
Y154378D01*
X298376Y154801D01*
X298053Y155124D01*
X297630Y155300D01*
D02*
G37*
G36*
X297227D02*
X297173D01*
X296750Y155124D01*
X296427Y154801D01*
X296252Y154378D01*
Y154325D01*
X297227D01*
Y155300D01*
D02*
G37*
G36*
X294481D02*
X294427D01*
Y154325D01*
X295402D01*
Y154378D01*
X295227Y154801D01*
X294903Y155124D01*
X294481Y155300D01*
D02*
G37*
G36*
X294077D02*
X294023D01*
X293601Y155124D01*
X293277Y154801D01*
X293102Y154378D01*
Y154325D01*
X294077D01*
Y155300D01*
D02*
G37*
G36*
X303930Y155304D02*
X303471D01*
X303047Y155128D01*
X302722Y154804D01*
X302547Y154379D01*
Y153920D01*
X302126Y153500D01*
X301706Y153920D01*
Y154379D01*
X301530Y154804D01*
X301205Y155128D01*
X300781Y155304D01*
X300322D01*
X299897Y155128D01*
X299573Y154804D01*
X299397Y154379D01*
Y153920D01*
X299573Y153496D01*
X299897Y153171D01*
X300322Y152995D01*
X300781D01*
X301144Y152632D01*
X301119Y152555D01*
X300781Y152154D01*
X300322D01*
X299897Y151979D01*
X299573Y151654D01*
X299397Y151230D01*
Y150770D01*
X299573Y150346D01*
X299897Y150021D01*
X300322Y149846D01*
X300593D01*
X300688Y149704D01*
Y149147D01*
X300593Y149005D01*
X300322D01*
X299897Y148829D01*
X299573Y148504D01*
X299397Y148080D01*
Y147621D01*
X299573Y147196D01*
X299897Y146872D01*
X300322Y146696D01*
X300781D01*
X301205Y146872D01*
X301530Y147196D01*
X301706Y147621D01*
X301918Y147803D01*
X302520Y147680D01*
X302547Y147621D01*
X302722Y147196D01*
X303047Y146872D01*
X303471Y146696D01*
X303930D01*
X304355Y146872D01*
X304679Y147196D01*
X304855Y147621D01*
Y148080D01*
X304679Y148504D01*
X304355Y148829D01*
X303930Y149005D01*
X303488Y149147D01*
Y149704D01*
X303930Y149846D01*
X304355Y150021D01*
X304679Y150346D01*
X304855Y150770D01*
Y151230D01*
X304679Y151654D01*
X304355Y151979D01*
X303930Y152154D01*
X303471D01*
X303243Y152060D01*
X302960Y152484D01*
X303471Y152995D01*
X303930D01*
X304355Y153171D01*
X304679Y153496D01*
X304855Y153920D01*
Y154379D01*
X304679Y154804D01*
X304355Y155128D01*
X303930Y155304D01*
D02*
G37*
G36*
X414500Y154334D02*
X413143D01*
Y153175D01*
X414500D01*
Y154334D01*
D02*
G37*
G36*
X412793D02*
X411437D01*
Y153175D01*
X412793D01*
Y154334D01*
D02*
G37*
G36*
X298552Y153975D02*
X297577D01*
Y153000D01*
X297630D01*
X298053Y153175D01*
X298376Y153498D01*
X298552Y153921D01*
Y153975D01*
D02*
G37*
G36*
X297227D02*
X296252D01*
Y153921D01*
X296427Y153498D01*
X296750Y153175D01*
X297173Y153000D01*
X297227D01*
Y153975D01*
D02*
G37*
G36*
X295402D02*
X294427D01*
Y153000D01*
X294481D01*
X294903Y153175D01*
X295227Y153498D01*
X295402Y153921D01*
Y153975D01*
D02*
G37*
G36*
X294077D02*
X293102D01*
Y153921D01*
X293277Y153498D01*
X293601Y153175D01*
X294023Y153000D01*
X294077D01*
Y153975D01*
D02*
G37*
G36*
X414500Y152825D02*
X413143D01*
Y151666D01*
X414500D01*
Y152825D01*
D02*
G37*
G36*
X412793D02*
X411437D01*
Y151666D01*
X412793D01*
Y152825D01*
D02*
G37*
G36*
X313379Y152154D02*
X312920D01*
X312496Y151979D01*
X312171Y151654D01*
X311995Y151230D01*
Y150770D01*
X312171Y150346D01*
X312496Y150021D01*
X312920Y149846D01*
X313379D01*
X313804Y150021D01*
X314128Y150346D01*
X314304Y150770D01*
Y151230D01*
X314128Y151654D01*
X313804Y151979D01*
X313379Y152154D01*
D02*
G37*
G36*
X297631D02*
X297172D01*
X296748Y151979D01*
X296423Y151654D01*
X296247Y151230D01*
Y150770D01*
X296423Y150346D01*
X296748Y150021D01*
X297172Y149846D01*
X297631D01*
X298056Y150021D01*
X298380Y150346D01*
X298556Y150770D01*
Y151230D01*
X298380Y151654D01*
X298056Y151979D01*
X297631Y152154D01*
D02*
G37*
G36*
X294482D02*
X294022D01*
X293598Y151979D01*
X293273Y151654D01*
X293098Y151230D01*
Y150770D01*
X293273Y150346D01*
X293598Y150021D01*
X294022Y149846D01*
X294482D01*
X294906Y150021D01*
X295231Y150346D01*
X295406Y150770D01*
Y151230D01*
X295231Y151654D01*
X294906Y151979D01*
X294482Y152154D01*
D02*
G37*
G36*
X297631Y149005D02*
X297172D01*
X296748Y148829D01*
X296423Y148504D01*
X296247Y148080D01*
Y147621D01*
X296423Y147196D01*
X296748Y146872D01*
X297172Y146696D01*
X297631D01*
X298056Y146872D01*
X298380Y147196D01*
X298556Y147621D01*
Y148080D01*
X298380Y148504D01*
X298056Y148829D01*
X297631Y149005D01*
D02*
G37*
G36*
X170571Y149059D02*
X167344D01*
Y146325D01*
X170571D01*
Y149059D01*
D02*
G37*
G36*
X166994D02*
X163768D01*
Y146325D01*
X166994D01*
Y149059D01*
D02*
G37*
G36*
X414033Y147330D02*
Y145827D01*
X414700D01*
Y147330D01*
X414033D01*
D02*
G37*
G36*
X334334Y147063D02*
X333175D01*
Y145706D01*
X334334D01*
Y147063D01*
D02*
G37*
G36*
X332825D02*
X331666D01*
Y145706D01*
X332825D01*
Y147063D01*
D02*
G37*
G36*
X334334Y145357D02*
X333175D01*
Y144000D01*
X334334D01*
Y145357D01*
D02*
G37*
G36*
X332825D02*
X331666D01*
Y144000D01*
X332825D01*
Y145357D01*
D02*
G37*
G36*
X395967Y145477D02*
X395300D01*
Y143973D01*
X395967D01*
Y145477D01*
D02*
G37*
G36*
X414700Y145477D02*
X414033D01*
Y143973D01*
X414700D01*
Y145477D01*
D02*
G37*
G36*
X423129Y146355D02*
X422572D01*
X422057Y146142D01*
X421664Y145748D01*
X421625Y145654D01*
X418534D01*
X418071Y145463D01*
X416037Y143429D01*
X415590Y143299D01*
Y143299D01*
X412618D01*
X412618Y141469D01*
X412618Y141106D01*
X412618Y139500D01*
X412618Y139138D01*
Y137669D01*
X412618D01*
X412622Y137389D01*
X412622D01*
Y136722D01*
X414104D01*
Y136372D01*
X412622D01*
Y135785D01*
X412524Y135744D01*
X411811Y135031D01*
X411268D01*
X411043Y135031D01*
Y135031D01*
X410768D01*
X410768Y135031D01*
X408937Y135031D01*
X408575Y135031D01*
X407325D01*
X407106Y135031D01*
X406608Y135027D01*
X406159D01*
Y133348D01*
Y131670D01*
X406608D01*
X407106Y131665D01*
X407325Y131665D01*
X408575D01*
X408799Y131665D01*
X409465Y131665D01*
X409656Y131203D01*
X409506Y131053D01*
X409385Y130761D01*
X409207Y130687D01*
X408813Y130293D01*
X408600Y129779D01*
Y129221D01*
X408813Y128707D01*
X409207Y128313D01*
X409314Y128269D01*
Y127339D01*
X408433D01*
Y124661D01*
X409314D01*
Y123339D01*
X408433D01*
Y120661D01*
X411504D01*
Y123339D01*
X410623D01*
Y124661D01*
X411504D01*
Y127339D01*
X410623D01*
Y128243D01*
X410793Y128313D01*
X411187Y128707D01*
X411400Y129221D01*
Y129779D01*
X411187Y130293D01*
X410891Y130588D01*
X411968Y131665D01*
X412512D01*
X412736Y131665D01*
Y131665D01*
X413012D01*
Y131665D01*
X414705D01*
Y134627D01*
X415906D01*
X417495Y133037D01*
X417958Y132846D01*
X422756D01*
X422813Y132707D01*
X423207Y132313D01*
X423722Y132100D01*
X424278D01*
X424793Y132313D01*
X425187Y132707D01*
X425400Y133221D01*
Y133779D01*
X425187Y134293D01*
X424819Y134661D01*
X424828Y134789D01*
X424954Y135161D01*
X425504D01*
Y137839D01*
X424623D01*
Y139661D01*
X425504D01*
Y142339D01*
X422433D01*
Y139661D01*
X423314D01*
Y139154D01*
X416008D01*
X415846Y139422D01*
X416091Y139830D01*
X418496D01*
Y139661D01*
X421567D01*
Y142339D01*
X418496D01*
Y141138D01*
X416075D01*
X415882Y141464D01*
X416042Y141822D01*
X416449Y141990D01*
X418804Y144346D01*
X421587D01*
X421664Y144162D01*
X422057Y143768D01*
X422572Y143555D01*
X423129D01*
X423643Y143768D01*
X424037Y144162D01*
X424250Y144676D01*
Y145233D01*
X424037Y145748D01*
X423643Y146142D01*
X423129Y146355D01*
D02*
G37*
G36*
X325978Y145855D02*
X325518D01*
X325094Y145679D01*
X324769Y145355D01*
X324594Y144930D01*
Y144471D01*
X324769Y144047D01*
X325094Y143722D01*
X325518Y143546D01*
X325978D01*
X326402Y143722D01*
X326727Y144047D01*
X326902Y144471D01*
Y144930D01*
X326727Y145355D01*
X326402Y145679D01*
X325978Y145855D01*
D02*
G37*
G36*
X303930D02*
X303471D01*
X303047Y145679D01*
X302722Y145355D01*
X302547Y144930D01*
Y144471D01*
X302722Y144047D01*
X303047Y143722D01*
X303471Y143546D01*
X303930D01*
X304355Y143722D01*
X304679Y144047D01*
X304855Y144471D01*
Y144930D01*
X304679Y145355D01*
X304355Y145679D01*
X303930Y145855D01*
D02*
G37*
G36*
X300781D02*
X300322D01*
X299897Y145679D01*
X299573Y145355D01*
X299397Y144930D01*
Y144471D01*
X299573Y144047D01*
X299897Y143722D01*
X300322Y143546D01*
X300781D01*
X301205Y143722D01*
X301530Y144047D01*
X301706Y144471D01*
Y144930D01*
X301530Y145355D01*
X301205Y145679D01*
X300781Y145855D01*
D02*
G37*
G36*
X397378Y143295D02*
X396071D01*
Y142628D01*
X397378D01*
Y143295D01*
D02*
G37*
G36*
X395721D02*
X394414D01*
Y142628D01*
X395721D01*
Y143295D01*
D02*
G37*
G36*
X188334Y142563D02*
X187175D01*
Y141207D01*
X188334D01*
Y142563D01*
D02*
G37*
G36*
X184334D02*
X183175D01*
Y141207D01*
X184334D01*
Y142563D01*
D02*
G37*
G36*
X186825D02*
X185666D01*
Y141207D01*
X186825D01*
Y142563D01*
D02*
G37*
G36*
X182825D02*
X181666D01*
Y141207D01*
X182825D01*
Y142563D01*
D02*
G37*
G36*
X397378Y142278D02*
X395896D01*
X394414D01*
X394414Y141469D01*
X394414Y141111D01*
Y140659D01*
X395896D01*
X397378D01*
X397378Y141469D01*
X397378Y141826D01*
Y142278D01*
D02*
G37*
G36*
X303930Y142706D02*
X303471D01*
X303047Y142530D01*
X302722Y142205D01*
X302547Y141781D01*
Y141322D01*
X302722Y140897D01*
X303047Y140573D01*
X303471Y140397D01*
X303930D01*
X304355Y140573D01*
X304679Y140897D01*
X304855Y141322D01*
Y141781D01*
X304679Y142205D01*
X304355Y142530D01*
X303930Y142706D01*
D02*
G37*
G36*
X300781D02*
X300322D01*
X299897Y142530D01*
X299573Y142205D01*
X299397Y141781D01*
Y141322D01*
X299573Y140897D01*
X299897Y140573D01*
X300322Y140397D01*
X300781D01*
X301205Y140573D01*
X301530Y140897D01*
X301706Y141322D01*
Y141781D01*
X301530Y142205D01*
X301205Y142530D01*
X300781Y142706D01*
D02*
G37*
G36*
X188334Y140857D02*
X187175D01*
Y139500D01*
X188334D01*
Y140857D01*
D02*
G37*
G36*
X186825D02*
X185666D01*
Y139500D01*
X186825D01*
Y140857D01*
D02*
G37*
G36*
X184334D02*
X183175D01*
Y139500D01*
X184334D01*
Y140857D01*
D02*
G37*
G36*
X182825D02*
X181666D01*
Y139500D01*
X182825D01*
Y140857D01*
D02*
G37*
G36*
X192339Y145567D02*
X189661D01*
Y142496D01*
X190346D01*
Y141170D01*
X190268Y141091D01*
X190054Y140577D01*
Y140020D01*
X190268Y139505D01*
X190661Y139111D01*
X191176Y138898D01*
X191733D01*
X192247Y139111D01*
X192641Y139505D01*
X192854Y140020D01*
Y140577D01*
X192641Y141091D01*
X192247Y141485D01*
X191733Y141698D01*
X191654D01*
Y142496D01*
X192339D01*
Y145567D01*
D02*
G37*
G36*
X397378Y140309D02*
X395896D01*
X394414D01*
X394414Y139500D01*
X394414Y139142D01*
Y138691D01*
X395896D01*
X397378D01*
Y139500D01*
X397378Y139858D01*
Y140309D01*
D02*
G37*
G36*
X162334Y139563D02*
X161175D01*
Y138207D01*
X162334D01*
Y139563D01*
D02*
G37*
G36*
X160825D02*
X159666D01*
Y138207D01*
X160825D01*
Y139563D01*
D02*
G37*
G36*
X179232Y139675D02*
X176006D01*
Y136941D01*
X179232D01*
Y139675D01*
D02*
G37*
G36*
X175656D02*
X172430D01*
Y136941D01*
X175656D01*
Y139675D01*
D02*
G37*
G36*
X162334Y137856D02*
X161175D01*
Y136500D01*
X162334D01*
Y137856D01*
D02*
G37*
G36*
X160825D02*
X159666D01*
Y136500D01*
X160825D01*
Y137856D01*
D02*
G37*
G36*
X158122Y134669D02*
X156175D01*
Y132919D01*
X158122D01*
Y134669D01*
D02*
G37*
G36*
X155825D02*
X153878D01*
Y132919D01*
X155825D01*
Y134669D01*
D02*
G37*
G36*
X152645Y135696D02*
X150305D01*
Y132175D01*
X152645D01*
Y135696D01*
D02*
G37*
G36*
X149955D02*
X147615D01*
Y132175D01*
X149955D01*
Y135696D01*
D02*
G37*
G36*
X158122Y132569D02*
X156175D01*
Y130819D01*
X158122D01*
Y132569D01*
D02*
G37*
G36*
X155825D02*
X153878D01*
Y130819D01*
X155825D01*
Y132569D01*
D02*
G37*
G36*
X152645Y131825D02*
X150305D01*
Y128304D01*
X152645D01*
Y131825D01*
D02*
G37*
G36*
X149955D02*
X147615D01*
Y128304D01*
X149955D01*
Y131825D01*
D02*
G37*
G36*
X407563Y127334D02*
X406207D01*
Y126175D01*
X407563D01*
Y127334D01*
D02*
G37*
G36*
X405857D02*
X404500D01*
Y126175D01*
X405857D01*
Y127334D01*
D02*
G37*
G36*
X407563Y125825D02*
X406207D01*
Y124666D01*
X407563D01*
Y125825D01*
D02*
G37*
G36*
X405857D02*
X404500D01*
Y124666D01*
X405857D01*
Y125825D01*
D02*
G37*
G36*
X152830Y126697D02*
X150490D01*
Y123175D01*
X152830D01*
Y126697D01*
D02*
G37*
G36*
X150140D02*
X147800D01*
Y123175D01*
X150140D01*
Y126697D01*
D02*
G37*
G36*
X407563Y123334D02*
X406207D01*
Y122175D01*
X407563D01*
Y123334D01*
D02*
G37*
G36*
X405857D02*
X404500D01*
Y122175D01*
X405857D01*
Y123334D01*
D02*
G37*
G36*
X407563Y121825D02*
X406207D01*
Y120666D01*
X407563D01*
Y121825D01*
D02*
G37*
G36*
X405857D02*
X404500D01*
Y120666D01*
X405857D01*
Y121825D01*
D02*
G37*
G36*
X152830Y122825D02*
X150490D01*
Y119304D01*
X152830D01*
Y122825D01*
D02*
G37*
G36*
X150140D02*
X147800D01*
Y119304D01*
X150140D01*
Y122825D01*
D02*
G37*
G36*
X325978Y142706D02*
X325518D01*
X325094Y142530D01*
X324769Y142205D01*
X324594Y141781D01*
Y141322D01*
X324769Y140897D01*
X325094Y140573D01*
Y121311D01*
X325286Y120849D01*
X328874Y117260D01*
Y114327D01*
X333126D01*
Y118185D01*
X329799D01*
X326402Y121582D01*
Y140573D01*
X326727Y140897D01*
X326902Y141322D01*
Y141781D01*
X326727Y142205D01*
X326402Y142530D01*
X325978Y142706D01*
D02*
G37*
G36*
X322828D02*
X322369D01*
X321945Y142530D01*
X321620Y142205D01*
X321444Y141781D01*
Y141322D01*
X321620Y140897D01*
X321944Y140573D01*
Y117902D01*
X322136Y117439D01*
X322374Y117201D01*
Y114327D01*
X326626D01*
Y118185D01*
X323295D01*
X323253Y118203D01*
Y140573D01*
X323577Y140897D01*
X323753Y141322D01*
Y141781D01*
X323577Y142205D01*
X323252Y142530D01*
X322828Y142706D01*
D02*
G37*
G36*
X333126Y112673D02*
X328874D01*
Y108815D01*
X330346D01*
Y106185D01*
X328874D01*
Y102327D01*
X333126D01*
Y106185D01*
X331654D01*
Y108815D01*
X333126D01*
Y112673D01*
D02*
G37*
G36*
X326626D02*
X322374D01*
Y108815D01*
X323846D01*
Y106185D01*
X322374D01*
Y102327D01*
X326626D01*
Y106185D01*
X325154D01*
Y108815D01*
X326626D01*
Y112673D01*
D02*
G37*
G36*
X320126D02*
X315874D01*
Y108815D01*
X317346D01*
Y106185D01*
X315874D01*
Y102327D01*
X320126D01*
Y106185D01*
X318654D01*
Y108815D01*
X320126D01*
Y112673D01*
D02*
G37*
G36*
X313626D02*
X309374D01*
Y108815D01*
X310846D01*
Y106185D01*
X309374D01*
Y102327D01*
X313626D01*
Y106185D01*
X312154D01*
Y108815D01*
X313626D01*
Y112673D01*
D02*
G37*
G36*
X333122Y100669D02*
X331175D01*
Y98919D01*
X333122D01*
Y100669D01*
D02*
G37*
G36*
X330825D02*
X328878D01*
Y98919D01*
X330825D01*
Y100669D01*
D02*
G37*
G36*
X326622D02*
X324675D01*
Y98919D01*
X326622D01*
Y100669D01*
D02*
G37*
G36*
X324325D02*
X322378D01*
Y98919D01*
X324325D01*
Y100669D01*
D02*
G37*
G36*
X320122D02*
X318175D01*
Y98919D01*
X320122D01*
Y100669D01*
D02*
G37*
G36*
X317825D02*
X315878D01*
Y98919D01*
X317825D01*
Y100669D01*
D02*
G37*
G36*
X313622D02*
X311675D01*
Y98919D01*
X313622D01*
Y100669D01*
D02*
G37*
G36*
X311325D02*
X309378D01*
Y98919D01*
X311325D01*
Y100669D01*
D02*
G37*
G36*
X333122Y98569D02*
X331175D01*
Y96819D01*
X333122D01*
Y98569D01*
D02*
G37*
G36*
X330825D02*
X328878D01*
Y96819D01*
X330825D01*
Y98569D01*
D02*
G37*
G36*
X326622D02*
X324675D01*
Y96819D01*
X326622D01*
Y98569D01*
D02*
G37*
G36*
X324325D02*
X322378D01*
Y96819D01*
X324325D01*
Y98569D01*
D02*
G37*
G36*
X320122D02*
X318175D01*
Y96819D01*
X320122D01*
Y98569D01*
D02*
G37*
G36*
X317825D02*
X315878D01*
Y96819D01*
X317825D01*
Y98569D01*
D02*
G37*
G36*
X313622D02*
X311675D01*
Y96819D01*
X313622D01*
Y98569D01*
D02*
G37*
G36*
X311325D02*
X309378D01*
Y96819D01*
X311325D01*
Y98569D01*
D02*
G37*
G36*
X401013Y65900D02*
X400675D01*
Y62175D01*
X404400D01*
Y62513D01*
X404134Y63505D01*
X403621Y64395D01*
X402895Y65121D01*
X402005Y65634D01*
X401013Y65900D01*
D02*
G37*
G36*
X400325D02*
X399987D01*
X398995Y65634D01*
X398105Y65121D01*
X397379Y64395D01*
X396866Y63505D01*
X396600Y62513D01*
Y62175D01*
X400325D01*
Y65900D01*
D02*
G37*
G36*
X404400Y61825D02*
X400675D01*
Y58100D01*
X401013D01*
X402005Y58366D01*
X402895Y58879D01*
X403621Y59605D01*
X404134Y60495D01*
X404400Y61487D01*
Y61825D01*
D02*
G37*
G36*
X400325D02*
X396600D01*
Y61487D01*
X396866Y60495D01*
X397379Y59605D01*
X398105Y58879D01*
X398995Y58366D01*
X399987Y58100D01*
X400325D01*
Y61825D01*
D02*
G37*
G36*
X411354Y87854D02*
X408646D01*
Y85146D01*
X411354D01*
Y85264D01*
X411854Y85471D01*
X419846Y77479D01*
Y65867D01*
X418993Y65638D01*
X418103Y65124D01*
X417376Y64397D01*
X416862Y63507D01*
X416596Y62514D01*
Y61486D01*
X416862Y60493D01*
X417376Y59603D01*
X418103Y58876D01*
X418993Y58362D01*
X419986Y58096D01*
X421014D01*
X422007Y58362D01*
X422897Y58876D01*
X423624Y59603D01*
X424138Y60493D01*
X424404Y61486D01*
Y62514D01*
X424138Y63507D01*
X423624Y64397D01*
X422897Y65124D01*
X422007Y65638D01*
X421154Y65867D01*
Y77750D01*
X420962Y78212D01*
X412213Y86962D01*
X411750Y87154D01*
X411354D01*
Y87854D01*
D02*
G37*
G36*
X458287Y63935D02*
X456813D01*
X455367Y63647D01*
X454005Y63083D01*
X452779Y62264D01*
X451737Y61221D01*
X450918Y59995D01*
X450353Y58633D01*
X450066Y57187D01*
Y55713D01*
X450353Y54267D01*
X450918Y52905D01*
X451737Y51679D01*
X452779Y50637D01*
X454005Y49818D01*
X455367Y49254D01*
X456813Y48966D01*
X458287D01*
X459733Y49254D01*
X461095Y49818D01*
X462321Y50637D01*
X463363Y51679D01*
X464182Y52905D01*
X464747Y54267D01*
X465034Y55713D01*
Y57187D01*
X464747Y58633D01*
X464182Y59995D01*
X463363Y61221D01*
X462321Y62264D01*
X461095Y63083D01*
X459733Y63647D01*
X458287Y63935D01*
D02*
G37*
G36*
X18287D02*
X16813D01*
X15367Y63647D01*
X14005Y63083D01*
X12779Y62264D01*
X11737Y61221D01*
X10917Y59995D01*
X10353Y58633D01*
X10066Y57187D01*
Y55713D01*
X10353Y54267D01*
X10917Y52905D01*
X11737Y51679D01*
X12779Y50637D01*
X14005Y49818D01*
X15367Y49254D01*
X16813Y48966D01*
X18287D01*
X19733Y49254D01*
X21095Y49818D01*
X22321Y50637D01*
X23363Y51679D01*
X24182Y52905D01*
X24747Y54267D01*
X25034Y55713D01*
Y57187D01*
X24747Y58633D01*
X24182Y59995D01*
X23363Y61221D01*
X22321Y62264D01*
X21095Y63083D01*
X19733Y63647D01*
X18287Y63935D01*
D02*
G37*
G36*
X285033Y174202D02*
X284574D01*
X284149Y174026D01*
X283825Y173701D01*
X283649Y173277D01*
Y172818D01*
X283825Y172393D01*
X284149Y172069D01*
X284574Y171893D01*
X285033D01*
X285457Y172069D01*
X285782Y172393D01*
X285958Y172818D01*
Y173277D01*
X285782Y173701D01*
X285457Y174026D01*
X285033Y174202D01*
D02*
G37*
G36*
X281883D02*
X281424D01*
X281000Y174026D01*
X280675Y173701D01*
X280499Y173277D01*
Y172818D01*
X280675Y172393D01*
X281000Y172069D01*
X281424Y171893D01*
X281883D01*
X282307Y172069D01*
X282632Y172393D01*
X282808Y172818D01*
Y173277D01*
X282632Y173701D01*
X282307Y174026D01*
X281883Y174202D01*
D02*
G37*
G36*
X285032Y171048D02*
X284978D01*
Y170073D01*
X285953D01*
Y170126D01*
X285778Y170549D01*
X285455Y170873D01*
X285032Y171048D01*
D02*
G37*
G36*
X284628D02*
X284574D01*
X284152Y170873D01*
X283828Y170549D01*
X283653Y170126D01*
Y170073D01*
X284628D01*
Y171048D01*
D02*
G37*
G36*
X285953Y169723D02*
X284978D01*
Y168748D01*
X285032D01*
X285455Y168923D01*
X285778Y169246D01*
X285953Y169669D01*
Y169723D01*
D02*
G37*
G36*
X284628D02*
X283653D01*
Y169669D01*
X283828Y169246D01*
X284152Y168923D01*
X284574Y168748D01*
X284628D01*
Y169723D01*
D02*
G37*
G36*
X288182Y171052D02*
X287723D01*
X287299Y170876D01*
X286974Y170552D01*
X286798Y170127D01*
Y169668D01*
X286974Y169244D01*
X287299Y168919D01*
X287723Y168743D01*
X288182D01*
X288607Y168919D01*
X288931Y169244D01*
X289107Y169668D01*
Y170127D01*
X288931Y170552D01*
X288607Y170876D01*
X288182Y171052D01*
D02*
G37*
G36*
X281883D02*
X281424D01*
X281000Y170876D01*
X280675Y170552D01*
X280499Y170127D01*
Y169668D01*
X280675Y169244D01*
X281000Y168919D01*
X281424Y168743D01*
X281883D01*
X282307Y168919D01*
X282632Y169244D01*
X282808Y169668D01*
Y170127D01*
X282632Y170552D01*
X282307Y170876D01*
X281883Y171052D01*
D02*
G37*
G36*
X285033Y167902D02*
X284574D01*
X284149Y167727D01*
X283825Y167402D01*
X283649Y166978D01*
Y166518D01*
X283825Y166094D01*
X284149Y165769D01*
X284574Y165594D01*
X285033D01*
X285457Y165769D01*
X285782Y166094D01*
X285958Y166518D01*
Y166978D01*
X285782Y167402D01*
X285457Y167727D01*
X285033Y167902D01*
D02*
G37*
G36*
X281883D02*
X281424D01*
X281000Y167727D01*
X280675Y167402D01*
X280499Y166978D01*
Y166518D01*
X280675Y166094D01*
X281000Y165769D01*
X281424Y165594D01*
X281883D01*
X282307Y165769D01*
X282632Y166094D01*
X282808Y166518D01*
Y166978D01*
X282632Y167402D01*
X282307Y167727D01*
X281883Y167902D01*
D02*
G37*
G36*
X241834Y162500D02*
X240675D01*
Y161144D01*
X241834D01*
Y162500D01*
D02*
G37*
G36*
X240325D02*
X239166D01*
Y161144D01*
X240325D01*
Y162500D01*
D02*
G37*
G36*
X241834Y160793D02*
X240675D01*
Y159437D01*
X241834D01*
Y160793D01*
D02*
G37*
G36*
X240325D02*
X239166D01*
Y159437D01*
X240325D01*
Y160793D01*
D02*
G37*
G36*
X281882Y152150D02*
X281828D01*
Y151175D01*
X282804D01*
Y151229D01*
X282628Y151651D01*
X282305Y151975D01*
X281882Y152150D01*
D02*
G37*
G36*
X281479D02*
X281425D01*
X281002Y151975D01*
X280679Y151651D01*
X280504Y151229D01*
Y151175D01*
X281479D01*
Y152150D01*
D02*
G37*
G36*
X282804Y150825D02*
X281828D01*
Y149850D01*
X281882D01*
X282305Y150025D01*
X282628Y150349D01*
X282804Y150771D01*
Y150825D01*
D02*
G37*
G36*
X281479D02*
X280504D01*
Y150771D01*
X280679Y150349D01*
X281002Y150025D01*
X281425Y149850D01*
X281479D01*
Y150825D01*
D02*
G37*
G36*
X273334Y149500D02*
X272175D01*
Y148143D01*
X273334D01*
Y149500D01*
D02*
G37*
G36*
X271825D02*
X270666D01*
Y148143D01*
X271825D01*
Y149500D01*
D02*
G37*
G36*
X269834D02*
X268675D01*
Y148143D01*
X269834D01*
Y149500D01*
D02*
G37*
G36*
X268325D02*
X267166D01*
Y148143D01*
X268325D01*
Y149500D01*
D02*
G37*
G36*
X266334D02*
X265175D01*
Y148143D01*
X266334D01*
Y149500D01*
D02*
G37*
G36*
X264825D02*
X263666D01*
Y148143D01*
X264825D01*
Y149500D01*
D02*
G37*
G36*
X281882Y149000D02*
X281828D01*
Y148025D01*
X282804D01*
Y148079D01*
X282628Y148502D01*
X282305Y148825D01*
X281882Y149000D01*
D02*
G37*
G36*
X281479D02*
X281425D01*
X281002Y148825D01*
X280679Y148502D01*
X280504Y148079D01*
Y148025D01*
X281479D01*
Y149000D01*
D02*
G37*
G36*
X282804Y147675D02*
X281828D01*
Y146700D01*
X281882D01*
X282305Y146876D01*
X282628Y147199D01*
X282804Y147622D01*
Y147675D01*
D02*
G37*
G36*
X281479D02*
X280504D01*
Y147622D01*
X280679Y147199D01*
X281002Y146876D01*
X281425Y146700D01*
X281479D01*
Y147675D01*
D02*
G37*
G36*
X273334Y147793D02*
X272175D01*
Y146437D01*
X273334D01*
Y147793D01*
D02*
G37*
G36*
X271825D02*
X270666D01*
Y146437D01*
X271825D01*
Y147793D01*
D02*
G37*
G36*
X269834D02*
X268675D01*
Y146437D01*
X269834D01*
Y147793D01*
D02*
G37*
G36*
X268325D02*
X267166D01*
Y146437D01*
X268325D01*
Y147793D01*
D02*
G37*
G36*
X266334D02*
X265175D01*
Y146437D01*
X266334D01*
Y147793D01*
D02*
G37*
G36*
X264825D02*
X263666D01*
Y146437D01*
X264825D01*
Y147793D01*
D02*
G37*
%LPD*%
D15*
X51750Y217750D02*
X84250D01*
X51500Y218000D02*
X51750Y217750D01*
X84250D02*
X84500Y217500D01*
X286000Y276000D02*
X286500Y275500D01*
X279000Y276031D02*
X279031Y276000D01*
X286000D01*
X274484Y276016D02*
X274500Y276031D01*
X270500Y276000D02*
X270516Y276016D01*
X274484D01*
X274500Y276031D02*
X279000D01*
X216628Y282585D02*
X216756Y282457D01*
X216500Y298000D02*
X216628Y297872D01*
X216744Y273500D02*
X216756Y273512D01*
X216500Y273256D02*
X216744Y273500D01*
X211244Y282457D02*
X211372Y282585D01*
X342984Y282516D02*
X346000Y279500D01*
X341469Y283000D02*
X341953Y282516D01*
X342984D01*
X346000Y279500D02*
X346000D01*
X341953Y275984D02*
X342484D01*
X346000Y279500D01*
X341469Y275500D02*
X341953Y275984D01*
X336850Y283016D02*
X337516D01*
X336835Y283000D02*
X336850Y283016D01*
X333469Y283000D02*
X336835D01*
X320600Y279915D02*
X326250D01*
X329335Y283000D01*
X329532D01*
X320516Y279831D02*
X320600Y279915D01*
X289059Y284000D02*
X292000D01*
X240500Y277606D02*
X240760Y277866D01*
X236000Y291500D02*
X240531D01*
X236000Y291500D02*
X236000Y291500D01*
X244484Y286150D02*
Y291484D01*
X244468Y291500D02*
X244484Y291484D01*
X240500Y271500D02*
Y277606D01*
X248120Y277746D02*
X248240Y277866D01*
X248120Y271089D02*
Y277746D01*
X244484Y286150D02*
X244500Y286134D01*
X248000Y267032D02*
X252724D01*
X253000Y261244D02*
X253000Y261244D01*
X253000Y256500D02*
Y261244D01*
X252724Y267032D02*
X253000Y266756D01*
X248000Y270969D02*
X248120Y271089D01*
X281580Y179273D02*
X281653Y179347D01*
X274573Y179273D02*
X281580D01*
X274500Y179200D02*
X274573Y179273D01*
X216500Y241772D02*
Y247414D01*
X214414Y249500D02*
X216500Y247414D01*
X208508Y249500D02*
X214414D01*
X206764Y247756D02*
X208508Y249500D01*
X199000Y247756D02*
X206764D01*
X187000Y144968D02*
Y145165D01*
X222256Y273500D02*
X227000D01*
X270500Y280000D02*
X270516Y279984D01*
X274484D02*
X274500Y279969D01*
X270516Y279984D02*
X274484D01*
X274500Y279969D02*
X279000D01*
X332968Y275500D02*
X332968Y275500D01*
X326453Y305831D02*
X326783Y305500D01*
X327000D01*
X326783Y290500D02*
X327000D01*
X325339Y291945D02*
X326783Y290500D01*
X325547Y285047D02*
X327000Y286500D01*
X320516Y292823D02*
X321394Y291945D01*
X320516Y284169D02*
X321394Y285047D01*
X320516Y275500D02*
X320516Y275500D01*
X302000Y252500D02*
X304500D01*
X293000Y280000D02*
Y283000D01*
X292000Y284000D02*
X293000Y283000D01*
X292000Y275500D02*
X293000Y276500D01*
X292760Y259752D02*
X292896Y259616D01*
Y252636D02*
X293032Y252500D01*
X296969Y252500D02*
X296969Y252500D01*
X293032D02*
X293032Y252500D01*
X286415Y310085D02*
X286500Y310169D01*
X283941Y301500D02*
X286500D01*
X286411Y292911D02*
X286500Y292823D01*
X286322Y279653D02*
X286500Y279831D01*
X286431Y279900D02*
X286500Y279831D01*
Y284169D02*
X289059D01*
X286415Y284085D02*
X286500Y284169D01*
X286415Y284085D02*
X286500Y284000D01*
X280500Y305500D02*
X280716D01*
X281047Y305831D01*
X277500Y310000D02*
X277585Y310085D01*
X280500Y305500D02*
X280653Y305347D01*
Y304788D02*
Y305347D01*
X280283Y305500D02*
X280500D01*
X277500Y306063D02*
X279720D01*
X280283Y305500D01*
X275697Y295756D02*
X277110Y297169D01*
X275500Y295756D02*
X275697D01*
Y290244D02*
X277441Y288500D01*
X279500Y293000D02*
X279589Y292911D01*
X275500Y290244D02*
X275697D01*
X279000Y279969D02*
X279069Y279900D01*
X327000Y286500D02*
Y290500D01*
X326415Y271085D02*
X326500Y271000D01*
X320516Y292823D02*
Y297169D01*
Y271169D02*
X320600Y271085D01*
X293000Y276500D02*
Y280000D01*
X292896Y252636D02*
Y259616D01*
X337531Y275500D02*
X337531Y275500D01*
X320516Y305831D02*
X326453D01*
X321394Y291945D02*
X325339D01*
X321394Y285047D02*
X325547D01*
X320516Y275500D02*
X329031D01*
X305752Y259752D02*
X310083D01*
X314413D01*
X304500Y252500D02*
X305752Y253752D01*
X281047Y305831D02*
X286500D01*
X277585Y310085D02*
X286415D01*
X277110Y297169D02*
X286500D01*
X277441Y288500D02*
X286500D01*
X279589Y292911D02*
X286411D01*
X286500Y284000D02*
X292000D01*
X279069Y279900D02*
X286431D01*
X286500Y275500D02*
X292000D01*
X289500Y252500D02*
X293032D01*
X320600Y271085D02*
X326415D01*
X305752Y253752D02*
Y259752D01*
X280653Y304788D02*
X283941Y301500D01*
X332968Y275500D02*
X337531D01*
X296969Y252500D02*
X302000D01*
X211244Y273512D02*
X211500Y273256D01*
Y241772D02*
Y247000D01*
X206000Y268783D02*
X206500Y268284D01*
X206000Y268783D02*
Y269000D01*
X205744Y273500D02*
X206000Y273244D01*
Y269000D02*
Y273244D01*
X222256Y273500D02*
X222256Y273500D01*
X214000Y289543D02*
Y293000D01*
X194000Y247756D02*
X194197D01*
X196347Y249906D01*
Y250347D01*
X196500Y250500D01*
X198803Y247756D02*
X199000D01*
X196653Y249906D02*
X198803Y247756D01*
X196653Y249906D02*
Y250347D01*
X196500Y250500D02*
X196653Y250347D01*
X194000Y242244D02*
X194197D01*
X196610Y239831D01*
X198803Y242244D02*
X199000D01*
X196763Y240204D02*
X198803Y242244D01*
X196763Y239984D02*
Y240204D01*
X196610Y239831D02*
X196763Y239984D01*
X199000Y242244D02*
X199197D01*
X211500Y240098D02*
Y241772D01*
X105000Y276500D02*
Y279744D01*
X105000Y276500D02*
X105000Y276500D01*
Y279744D02*
X112500D01*
X98000D02*
X105000D01*
X112500Y285256D02*
Y292244D01*
Y285256D02*
X112500Y285256D01*
X105000Y285256D02*
Y292244D01*
Y285256D02*
X105000Y285256D01*
X98000Y285256D02*
Y292244D01*
Y285256D02*
X98000Y285256D01*
D25*
X396165Y288299D02*
D03*
Y275701D02*
D03*
X416835D02*
D03*
Y288299D02*
D03*
D28*
X240760Y277866D02*
D03*
X248240D02*
D03*
X244500Y286134D02*
D03*
D30*
X413858Y133348D02*
D03*
X411890D02*
D03*
X409921D02*
D03*
X407953D02*
D03*
X405984D02*
D03*
X404016D02*
D03*
X402047D02*
D03*
X400079D02*
D03*
X398110D02*
D03*
X396142D02*
D03*
X413858Y145652D02*
D03*
X411890D02*
D03*
X409921D02*
D03*
X407953D02*
D03*
X405984D02*
D03*
X404016D02*
D03*
X402047D02*
D03*
X400079D02*
D03*
X398110D02*
D03*
X396142D02*
D03*
X415779Y184500D02*
D03*
X413811D02*
D03*
X411842D02*
D03*
X409874D02*
D03*
X407905D02*
D03*
X405937D02*
D03*
X403968D02*
D03*
X402000D02*
D03*
X400032D02*
D03*
X398063D02*
D03*
X415779Y196803D02*
D03*
X413811D02*
D03*
X411842D02*
D03*
X409874D02*
D03*
X407905D02*
D03*
X405937D02*
D03*
X403968D02*
D03*
X402000D02*
D03*
X400032D02*
D03*
X398063D02*
D03*
D31*
X414104Y136547D02*
D03*
Y138516D02*
D03*
Y140484D02*
D03*
Y142453D02*
D03*
X395896Y136547D02*
D03*
Y138516D02*
D03*
Y140484D02*
D03*
Y142453D02*
D03*
X416026Y187699D02*
D03*
Y189667D02*
D03*
Y191636D02*
D03*
Y193604D02*
D03*
X397817Y187699D02*
D03*
Y189667D02*
D03*
Y191636D02*
D03*
Y193604D02*
D03*
D37*
X325748Y141551D02*
D03*
X322598D02*
D03*
X319449D02*
D03*
X316299D02*
D03*
X313150D02*
D03*
X310000D02*
D03*
X306850D02*
D03*
X303701D02*
D03*
X300551D02*
D03*
X297402D02*
D03*
X294252D02*
D03*
X291102D02*
D03*
X287953D02*
D03*
X284803D02*
D03*
X281653D02*
D03*
X325748Y144701D02*
D03*
X322598D02*
D03*
X319449D02*
D03*
X316299D02*
D03*
X313150D02*
D03*
X310000D02*
D03*
X306850D02*
D03*
X303701D02*
D03*
X300551D02*
D03*
X297402D02*
D03*
X294252D02*
D03*
X291102D02*
D03*
X287953D02*
D03*
X284803D02*
D03*
X281653D02*
D03*
X325748Y147850D02*
D03*
X322598D02*
D03*
X319449D02*
D03*
X316299D02*
D03*
X313150D02*
D03*
X310000D02*
D03*
X306850D02*
D03*
X303701D02*
D03*
X300551D02*
D03*
X297402D02*
D03*
X294252D02*
D03*
X291102D02*
D03*
X287953D02*
D03*
X284803D02*
D03*
X281653D02*
D03*
X325748Y151000D02*
D03*
X322598D02*
D03*
X319449D02*
D03*
X316299D02*
D03*
X313150D02*
D03*
X310000D02*
D03*
X306850D02*
D03*
X303701D02*
D03*
X300551D02*
D03*
X297402D02*
D03*
X294252D02*
D03*
X291102D02*
D03*
X287953D02*
D03*
X284803D02*
D03*
X281653D02*
D03*
X325748Y154150D02*
D03*
X322598D02*
D03*
X319449D02*
D03*
X316299D02*
D03*
X313150D02*
D03*
X310000D02*
D03*
X306850D02*
D03*
X303701D02*
D03*
X300551D02*
D03*
X297402D02*
D03*
X294252D02*
D03*
X291102D02*
D03*
X287953D02*
D03*
X284803D02*
D03*
X281653D02*
D03*
X325748Y157299D02*
D03*
X322598D02*
D03*
X319449D02*
D03*
X316299D02*
D03*
X313150D02*
D03*
X310000D02*
D03*
X306850D02*
D03*
X303701D02*
D03*
X300551D02*
D03*
X297402D02*
D03*
X294252D02*
D03*
X291102D02*
D03*
X287953D02*
D03*
X284803D02*
D03*
X281653D02*
D03*
X325748Y160449D02*
D03*
X322598D02*
D03*
X319449D02*
D03*
X316299D02*
D03*
X313150D02*
D03*
X310000D02*
D03*
X297402D02*
D03*
X294252D02*
D03*
X291102D02*
D03*
X287953D02*
D03*
X284803D02*
D03*
X281653D02*
D03*
X325748Y163598D02*
D03*
X322598D02*
D03*
X319449D02*
D03*
X316299D02*
D03*
X313150D02*
D03*
X310000D02*
D03*
X297402D02*
D03*
X294252D02*
D03*
X291102D02*
D03*
X287953D02*
D03*
X284803D02*
D03*
X281653D02*
D03*
X325748Y166748D02*
D03*
X322598D02*
D03*
X319449D02*
D03*
X316299D02*
D03*
X313150D02*
D03*
X310000D02*
D03*
X297402D02*
D03*
X294252D02*
D03*
X291102D02*
D03*
X287953D02*
D03*
X284803D02*
D03*
X281653D02*
D03*
X325748Y169898D02*
D03*
X322598D02*
D03*
X319449D02*
D03*
X316299D02*
D03*
X313150D02*
D03*
X310000D02*
D03*
X306850D02*
D03*
X303701D02*
D03*
X300551D02*
D03*
X297402D02*
D03*
X294252D02*
D03*
X291102D02*
D03*
X287953D02*
D03*
X284803D02*
D03*
X281653D02*
D03*
X325748Y173047D02*
D03*
X322598D02*
D03*
X319449D02*
D03*
X316299D02*
D03*
X313150D02*
D03*
X310000D02*
D03*
X306850D02*
D03*
X303701D02*
D03*
X300551D02*
D03*
X297402D02*
D03*
X294252D02*
D03*
X291102D02*
D03*
X287953D02*
D03*
X284803D02*
D03*
X281653D02*
D03*
X325748Y176197D02*
D03*
X322598D02*
D03*
X319449D02*
D03*
X316299D02*
D03*
X313150D02*
D03*
X310000D02*
D03*
X306850D02*
D03*
X303701D02*
D03*
X300551D02*
D03*
X297402D02*
D03*
X294252D02*
D03*
X291102D02*
D03*
X287953D02*
D03*
X284803D02*
D03*
X281653D02*
D03*
X325748Y179347D02*
D03*
X322598D02*
D03*
X319449D02*
D03*
X316299D02*
D03*
X313150D02*
D03*
X310000D02*
D03*
X306850D02*
D03*
X303701D02*
D03*
X300551D02*
D03*
X297402D02*
D03*
X294252D02*
D03*
X291102D02*
D03*
X287953D02*
D03*
X284803D02*
D03*
X281653D02*
D03*
X325748Y182496D02*
D03*
X322598D02*
D03*
X319449D02*
D03*
X316299D02*
D03*
X313150D02*
D03*
X310000D02*
D03*
X306850D02*
D03*
X303701D02*
D03*
X300551D02*
D03*
X297402D02*
D03*
X294252D02*
D03*
X291102D02*
D03*
X287953D02*
D03*
X284803D02*
D03*
X281653D02*
D03*
X325748Y185646D02*
D03*
X322598D02*
D03*
X319449D02*
D03*
X316299D02*
D03*
X313150D02*
D03*
X310000D02*
D03*
X306850D02*
D03*
X303701D02*
D03*
X300551D02*
D03*
X297402D02*
D03*
X294252D02*
D03*
X291102D02*
D03*
X287953D02*
D03*
X284803D02*
D03*
X281653D02*
D03*
D40*
X214000Y289543D02*
D03*
X216756Y282457D02*
D03*
X211244D02*
D03*
D46*
X51500Y218000D02*
D03*
Y238000D02*
D03*
Y274500D02*
D03*
Y294500D02*
D03*
X400500Y62000D02*
D03*
X420500D02*
D03*
D51*
X324500Y104256D02*
D03*
Y98744D02*
D03*
X331000Y104256D02*
D03*
Y98744D02*
D03*
X318000Y104256D02*
D03*
Y98744D02*
D03*
X318000Y110744D02*
D03*
Y116256D02*
D03*
X324500Y110744D02*
D03*
Y116256D02*
D03*
X331000Y110744D02*
D03*
Y116256D02*
D03*
X311500Y110744D02*
D03*
Y116256D02*
D03*
X311500Y104256D02*
D03*
Y98744D02*
D03*
X156000Y132744D02*
D03*
Y138256D02*
D03*
X133000Y269756D02*
D03*
Y264244D02*
D03*
X143000Y269756D02*
D03*
Y264244D02*
D03*
X148000Y269756D02*
D03*
Y264244D02*
D03*
X148000Y251244D02*
D03*
Y256756D02*
D03*
X143000Y251244D02*
D03*
Y256756D02*
D03*
X138000Y269756D02*
D03*
Y264244D02*
D03*
X138000Y251244D02*
D03*
Y256756D02*
D03*
X133000Y251244D02*
D03*
Y256756D02*
D03*
X299000Y223244D02*
D03*
Y228756D02*
D03*
X253000Y266756D02*
D03*
Y261244D02*
D03*
X185500Y195244D02*
D03*
Y200756D02*
D03*
X98000Y297756D02*
D03*
Y292244D02*
D03*
X105000Y297756D02*
D03*
Y292244D02*
D03*
X112500Y297756D02*
D03*
Y292244D02*
D03*
X98000Y279744D02*
D03*
Y285256D02*
D03*
X105000Y279744D02*
D03*
Y285256D02*
D03*
X112500Y279744D02*
D03*
Y285256D02*
D03*
X199000Y247756D02*
D03*
Y242244D02*
D03*
X194000Y242244D02*
D03*
Y247756D02*
D03*
D52*
X338032Y171500D02*
D03*
X341968D02*
D03*
X120031Y132500D02*
D03*
X123969D02*
D03*
X244468Y291500D02*
D03*
X240531D02*
D03*
X103563Y176500D02*
D03*
X107500D02*
D03*
X99468Y167000D02*
D03*
X95531D02*
D03*
X104032Y148500D02*
D03*
X107968D02*
D03*
X409031Y153000D02*
D03*
X412968D02*
D03*
X420031Y141000D02*
D03*
X423969D02*
D03*
X409969Y122000D02*
D03*
X406032D02*
D03*
X409969Y126000D02*
D03*
X406032D02*
D03*
X424968Y187000D02*
D03*
X421032D02*
D03*
X423969Y136500D02*
D03*
X420031D02*
D03*
X409031Y175500D02*
D03*
X412968D02*
D03*
X409031Y171000D02*
D03*
X412968D02*
D03*
X421032Y192000D02*
D03*
X424968D02*
D03*
X329031Y275500D02*
D03*
X332968D02*
D03*
X329532Y283000D02*
D03*
X333469D02*
D03*
X296969Y252500D02*
D03*
X293032D02*
D03*
X341469Y275500D02*
D03*
X337531D02*
D03*
X341469Y283000D02*
D03*
X337531D02*
D03*
D53*
X336744Y165500D02*
D03*
X342256D02*
D03*
X143744Y196500D02*
D03*
X149256D02*
D03*
X216744Y273500D02*
D03*
X222256D02*
D03*
X211256Y273500D02*
D03*
X205744D02*
D03*
D54*
X333000Y149469D02*
D03*
Y145531D02*
D03*
X110000Y123031D02*
D03*
Y126969D02*
D03*
X115000Y123031D02*
D03*
Y126969D02*
D03*
X404000Y153032D02*
D03*
Y156968D02*
D03*
X248000Y267032D02*
D03*
Y270969D02*
D03*
X409500Y203532D02*
D03*
Y207469D02*
D03*
X405500Y207469D02*
D03*
Y203532D02*
D03*
X168000Y194968D02*
D03*
Y191032D02*
D03*
X164500Y182032D02*
D03*
Y185968D02*
D03*
X168000Y182032D02*
D03*
Y185968D02*
D03*
X183000Y144968D02*
D03*
Y141032D02*
D03*
X191000Y147968D02*
D03*
Y144032D02*
D03*
X240500Y157032D02*
D03*
Y160968D02*
D03*
X184500Y189937D02*
D03*
Y186000D02*
D03*
X187000Y141032D02*
D03*
Y144968D02*
D03*
X161000Y138031D02*
D03*
Y141969D02*
D03*
X272000Y147968D02*
D03*
Y144032D02*
D03*
X265000Y147968D02*
D03*
Y144032D02*
D03*
X268500Y147968D02*
D03*
Y144032D02*
D03*
X277500Y306063D02*
D03*
Y310000D02*
D03*
X331000Y309968D02*
D03*
Y306031D02*
D03*
X279000Y276031D02*
D03*
Y279969D02*
D03*
X274500Y276031D02*
D03*
Y279969D02*
D03*
X275500Y291032D02*
D03*
Y294969D02*
D03*
D55*
X167169Y146150D02*
D03*
X175831D02*
D03*
X167169Y139850D02*
D03*
X175831D02*
D03*
D56*
X327500Y241024D02*
D03*
X322500D02*
D03*
X317500D02*
D03*
X312500D02*
D03*
X307500D02*
D03*
Y225000D02*
D03*
X312500D02*
D03*
X317500D02*
D03*
X322500D02*
D03*
X327500D02*
D03*
D57*
X77000Y295000D02*
D03*
X83500Y238500D02*
D03*
X410000Y86500D02*
D03*
X84500Y217500D02*
D03*
D58*
X180500Y290000D02*
D03*
Y300500D02*
D03*
Y280000D02*
D03*
X180000Y271000D02*
D03*
D59*
X175000Y189500D02*
D03*
Y197374D02*
D03*
D60*
X173551Y173890D02*
D03*
Y171921D02*
D03*
Y169953D02*
D03*
Y167984D02*
D03*
Y166016D02*
D03*
Y164047D02*
D03*
Y162079D02*
D03*
Y160110D02*
D03*
X192449D02*
D03*
Y162079D02*
D03*
Y164047D02*
D03*
Y166016D02*
D03*
Y167984D02*
D03*
Y169953D02*
D03*
Y171921D02*
D03*
Y173890D02*
D03*
D61*
X176110Y157551D02*
D03*
X178079D02*
D03*
X180047D02*
D03*
X182016D02*
D03*
X183984D02*
D03*
X185953D02*
D03*
X187921D02*
D03*
X189890D02*
D03*
Y176449D02*
D03*
X187921D02*
D03*
X185953D02*
D03*
X183984D02*
D03*
X182016D02*
D03*
X180047D02*
D03*
X178079D02*
D03*
X176110D02*
D03*
D62*
X183000Y167000D02*
D03*
D63*
X121000Y184000D02*
D03*
Y179000D02*
D03*
Y174000D02*
D03*
Y169000D02*
D03*
Y164000D02*
D03*
Y159000D02*
D03*
Y154000D02*
D03*
Y149000D02*
D03*
X154504Y184000D02*
D03*
Y179000D02*
D03*
Y174000D02*
D03*
Y169000D02*
D03*
Y164000D02*
D03*
Y159000D02*
D03*
Y154000D02*
D03*
Y149000D02*
D03*
D64*
X150315Y123000D02*
D03*
X139685D02*
D03*
X139500Y132000D02*
D03*
X150130D02*
D03*
D65*
X286500Y297169D02*
D03*
Y292823D02*
D03*
Y301500D02*
D03*
Y310169D02*
D03*
Y305831D02*
D03*
Y284169D02*
D03*
Y275500D02*
D03*
Y288500D02*
D03*
Y279831D02*
D03*
Y271169D02*
D03*
X320516Y297169D02*
D03*
Y292823D02*
D03*
Y301500D02*
D03*
Y310169D02*
D03*
Y305831D02*
D03*
Y284169D02*
D03*
Y275500D02*
D03*
Y266839D02*
D03*
Y288500D02*
D03*
Y279831D02*
D03*
Y271169D02*
D03*
X286500Y266839D02*
D03*
D66*
X292760Y259752D02*
D03*
X297091D02*
D03*
X301421D02*
D03*
X310083D02*
D03*
X314413D02*
D03*
X305752D02*
D03*
D67*
X206500Y263228D02*
D03*
X211500D02*
D03*
X216500D02*
D03*
X221500D02*
D03*
Y241772D02*
D03*
X216500D02*
D03*
X211500D02*
D03*
X206500D02*
D03*
D68*
X82100Y341775D02*
D03*
X129400D02*
D03*
D69*
X217150D02*
D03*
X214000D02*
D03*
X210850D02*
D03*
X207700D02*
D03*
X204550D02*
D03*
X201400D02*
D03*
X198250D02*
D03*
X191950D02*
D03*
X195100D02*
D03*
X188800D02*
D03*
X185650D02*
D03*
X182500D02*
D03*
X179350D02*
D03*
X176200D02*
D03*
X173050D02*
D03*
X169900D02*
D03*
X163600D02*
D03*
X160450D02*
D03*
X166750D02*
D03*
X220300D02*
D03*
D70*
X92000Y167000D02*
X95531D01*
X90000Y165000D02*
X92000Y167000D01*
D71*
X272000Y141000D02*
Y144032D01*
X272000Y144032D01*
X286359Y149425D02*
X287933Y147850D01*
X287953D01*
X286339Y149425D02*
X286359D01*
X289547D02*
X289566D01*
X287953Y151000D02*
X287972D01*
X289547Y149425D01*
X322598Y160468D02*
X324173Y162043D01*
X322598Y160449D02*
Y160468D01*
X324173Y162043D02*
Y162062D01*
X292639Y174622D02*
X292658D01*
X294233Y173047D02*
X294252D01*
X292658Y174622D02*
X294233Y173047D01*
X207500Y341575D02*
X207700Y341775D01*
X207500Y319633D02*
Y341575D01*
X207492Y319625D02*
X207500Y319633D01*
X207492Y314008D02*
Y319625D01*
X208921Y308621D02*
X229937Y287605D01*
X207692Y308725D02*
X207796Y308621D01*
X208921D01*
X214000Y307167D02*
X215817Y305350D01*
X214000Y307167D02*
Y341775D01*
X204550Y314200D02*
X213625Y305125D01*
X213625D01*
X204550Y314200D02*
Y341775D01*
X213625Y305125D02*
X230791Y287959D01*
X210850Y311650D02*
Y341775D01*
Y311650D02*
X211000Y311500D01*
Y308958D02*
Y311500D01*
Y308958D02*
X215463Y304496D01*
X215463D01*
X211372Y302372D02*
X211500Y302500D01*
X211372Y300500D02*
Y302372D01*
X229937Y236147D02*
Y287605D01*
Y236147D02*
X275292Y190791D01*
X230791Y236501D02*
Y287959D01*
X228667Y235000D02*
X274585Y189083D01*
X286502D01*
X213000Y235000D02*
X228667D01*
X286502Y189083D02*
X289500Y186084D01*
X274938Y189937D02*
X288797D01*
X292571Y186163D01*
X229021Y235854D02*
X274938Y189937D01*
X226646Y235854D02*
X229021D01*
X275292Y190791D02*
X289151D01*
X294252Y185690D01*
X230791Y236501D02*
X275646Y191646D01*
X291402D01*
X297402Y185646D01*
X294252D02*
Y185690D01*
X292571Y185341D02*
Y186163D01*
Y185341D02*
X293457Y184454D01*
X293670Y184241D01*
X299147D01*
X300551Y185646D01*
X222758Y239742D02*
X226646Y235854D01*
X221500Y240602D02*
X222360Y239742D01*
X221500Y240602D02*
Y241772D01*
X222360Y239742D02*
X222758D01*
X323175Y117581D02*
X324500Y116256D01*
X322598Y117902D02*
Y141551D01*
X322919Y117581D02*
X323175D01*
X322598Y117902D02*
X322919Y117581D01*
X316500Y121500D02*
Y141350D01*
X313022Y118022D02*
X316500Y121500D01*
X313022Y117581D02*
Y118022D01*
X311697Y116256D02*
X313022Y117581D01*
X311500Y116256D02*
X311697D01*
X316299Y141551D02*
X316500Y141350D01*
X318000Y116256D02*
X318175D01*
X319500Y117581D01*
X325748Y121311D02*
X330803Y116256D01*
X331000D01*
X325748Y121311D02*
Y141551D01*
X319500Y117581D02*
Y141500D01*
X319449Y141551D02*
X319500Y141500D01*
X299446Y131446D02*
X308255Y140255D01*
Y144941D01*
X309418Y146105D02*
X318044D01*
X308255Y144941D02*
X309418Y146105D01*
X301000Y130000D02*
X311500Y140500D01*
Y141888D01*
X312909Y143297D02*
X320030D01*
X320853Y144119D01*
X311500Y141888D02*
X312909Y143297D01*
X320853Y144119D02*
Y146152D01*
X321000Y146299D01*
X258500Y130000D02*
X301000D01*
X259554Y131446D02*
X299446D01*
X237500Y153500D02*
X259554Y131446D01*
X318044Y146105D02*
X319449Y144701D01*
X311500Y104256D02*
Y110744D01*
Y104256D02*
X311500Y104256D01*
X318000Y104256D02*
Y110744D01*
Y104256D02*
X318000Y104256D01*
X324500Y104256D02*
Y110744D01*
Y104256D02*
X324500Y104256D01*
X331000Y110744D02*
X331000Y110744D01*
Y104256D02*
Y110744D01*
X114000Y184000D02*
X121000D01*
X115000Y119000D02*
Y123031D01*
Y119000D02*
X125000Y109000D01*
Y104000D02*
Y109000D01*
X110000Y99000D02*
Y104000D01*
X105000Y109000D02*
X110000Y104000D01*
X105000Y109000D02*
X110000Y114000D01*
Y123031D02*
X110000Y123031D01*
X110000Y114000D02*
Y123031D01*
X120000Y99000D02*
X125000Y104000D01*
X108167Y159000D02*
X121000D01*
X95000Y145833D02*
X108167Y159000D01*
X95000Y109000D02*
Y145833D01*
X90000Y99000D02*
X103959Y112959D01*
Y135957D01*
X117002Y149000D01*
X121000D01*
X136477Y86523D02*
Y122707D01*
Y86523D02*
X137000Y86000D01*
X136477Y122707D02*
X136770Y123000D01*
X135000Y124770D02*
Y127500D01*
Y132500D01*
X272352Y141000D02*
X272903Y141551D01*
X272000Y141000D02*
X272352D01*
X268774Y143561D02*
Y144032D01*
Y143561D02*
X271086Y141249D01*
X272903Y141551D02*
X281653D01*
X271086Y141249D02*
X271751D01*
X272000Y141000D01*
X191000Y140500D02*
Y144032D01*
X191000Y140500D02*
X191000Y140500D01*
X175000Y197374D02*
Y204500D01*
X185000Y205000D02*
X185500Y204500D01*
Y200756D02*
Y204500D01*
X166000Y197165D02*
X168000Y195165D01*
X166000Y197165D02*
Y198000D01*
X168000Y194968D02*
Y195165D01*
X314885Y171500D02*
X338032D01*
X313338Y173047D02*
X314885Y171500D01*
X313150Y173047D02*
X313338D01*
X416244Y193453D02*
X417791Y195000D01*
X422500D01*
X412500Y207500D02*
X416000Y204000D01*
Y196505D02*
Y204000D01*
X313150Y166748D02*
Y169898D01*
X308425Y174622D02*
Y177810D01*
Y174622D02*
X310000Y173047D01*
X306850D02*
X308425Y174622D01*
X167000Y280000D02*
X180500D01*
X192000D02*
X198000Y286000D01*
X180500Y280000D02*
X192000D01*
X201722Y290000D02*
X209722Y298000D01*
X167000Y290000D02*
X201722D01*
X176715Y187785D02*
X185735D01*
X175000Y189500D02*
X176715Y187785D01*
X174531Y189032D02*
X175000Y189500D01*
X173000Y187500D02*
X174531Y189032D01*
X172531Y191032D02*
X174531Y189032D01*
X168000Y191032D02*
X172531D01*
X173000Y179000D02*
Y187500D01*
Y179000D02*
X174620Y177380D01*
X175887D01*
X176110Y177156D01*
Y176449D02*
Y177156D01*
X265124Y186124D02*
X271376D01*
X263500Y184500D02*
X265124Y186124D01*
X189020Y184500D02*
X263500D01*
X185735Y187785D02*
X189020Y184500D01*
X371996Y153295D02*
X391943Y133348D01*
X396142D01*
X397869Y146241D02*
Y147292D01*
X380124Y147585D02*
X397576D01*
X397869Y146241D02*
X398110Y146000D01*
X397576Y147585D02*
X397869Y147292D01*
X372704Y155004D02*
X380124Y147585D01*
X336142Y155858D02*
X373058D01*
X375885Y153032D02*
X404000D01*
X373058Y155858D02*
X375885Y153032D01*
X328402Y163598D02*
X336142Y155858D01*
X325748Y163598D02*
X328402D01*
X327701Y157299D02*
X329996Y155004D01*
X372704D01*
X325748Y157299D02*
X327701D01*
X324003Y152745D02*
X326330D01*
X322598Y154150D02*
X324003Y152745D01*
X326330D02*
X326880Y153295D01*
X371996D01*
X325748Y154150D02*
X372350D01*
X389953Y136547D01*
X395896D01*
X188304Y150500D02*
X236000D01*
X258000Y128500D01*
X289350D01*
X100000Y148500D02*
X104032D01*
X104032Y148500D01*
X107968D02*
X108165D01*
X113665Y154000D01*
X121000D01*
X103748Y158500D02*
X119248Y174000D01*
X103500Y158500D02*
X103748D01*
X119248Y174000D02*
X121000D01*
X114500Y127469D02*
X115000Y126969D01*
X110500Y127469D02*
X114500D01*
X110000Y126969D02*
X110500Y127469D01*
X115734Y127703D02*
Y128400D01*
X115000Y126969D02*
X115734Y127703D01*
X119835Y132500D02*
X120031D01*
X115734Y128400D02*
X119835Y132500D01*
X115734Y128400D02*
X115734D01*
X320717Y309968D02*
X331000D01*
X320516Y310169D02*
X320717Y309968D01*
X330766Y306266D02*
X331000Y306031D01*
X330249Y305749D02*
X330766Y306266D01*
X327249Y305749D02*
X330249D01*
X327000Y305500D02*
X327249Y305749D01*
X307500Y223951D02*
Y229035D01*
X308707Y230242D01*
X308950D01*
X311708Y233000D01*
X322500Y241024D02*
Y243559D01*
X319249Y248310D02*
Y248751D01*
X321293Y246266D02*
X321293D01*
X319249Y248310D02*
X321293Y246266D01*
X322500Y243559D02*
Y245059D01*
X319000Y249000D02*
X319249Y248751D01*
X321293Y246266D02*
X322500Y245059D01*
X311293Y242230D02*
Y246707D01*
Y242230D02*
X312500Y241024D01*
X309000Y249000D02*
X311293Y246707D01*
X409969Y126000D02*
Y130591D01*
X411890Y132512D01*
Y133348D01*
X406000Y126031D02*
Y129500D01*
X405984Y129469D02*
Y133348D01*
X406000Y126031D02*
X406032Y126000D01*
Y122000D02*
Y126000D01*
X413656Y183421D02*
X413784Y183549D01*
X413500Y179500D02*
X413656Y179656D01*
X413784Y183549D02*
X413811D01*
X413500Y175918D02*
Y179500D01*
X413656Y179656D02*
Y183421D01*
X413082Y175500D02*
X413500Y175918D01*
X412727Y153000D02*
X413165D01*
X413900Y150100D02*
Y152266D01*
X413929Y145722D02*
Y149929D01*
X413858Y145652D02*
X413929Y145722D01*
Y149929D02*
X414000Y150000D01*
X413165Y153000D02*
X413900Y152266D01*
Y150100D02*
X414000Y150000D01*
X391008Y140492D02*
X395888D01*
X395896Y140484D01*
X391000Y140500D02*
X391008Y140492D01*
X395896Y138516D02*
Y140484D01*
X405000Y211500D02*
X405500Y211000D01*
Y207469D02*
Y211000D01*
X397742Y191636D02*
X397817Y191711D01*
X397742Y191636D02*
X397817D01*
X394636D02*
X397742D01*
X394500Y191500D02*
X394636Y191636D01*
X397817Y189667D02*
Y191636D01*
X397551Y193604D02*
X397817D01*
X397217D02*
X397551D01*
X397817Y191711D02*
Y193604D01*
X398063Y197640D02*
X401923Y201500D01*
X402500D01*
X398063Y196803D02*
Y197640D01*
X421000Y183000D02*
Y186969D01*
X421032Y187000D01*
X416026Y187699D02*
X420333D01*
X421032Y187000D01*
X408100Y177052D02*
Y184684D01*
X408284Y171734D02*
Y176234D01*
X408137D02*
X408284D01*
X408100Y177052D02*
X408137Y177015D01*
Y176234D02*
Y177015D01*
X409018Y171000D02*
X409031D01*
X408284Y171734D02*
X409018Y171000D01*
X408100Y176234D02*
X408835Y175500D01*
X412968Y171000D02*
Y175500D01*
X408835D02*
X409031D01*
X408000Y184784D02*
X408100Y184684D01*
X408835Y153000D02*
X409031D01*
X407953Y152118D02*
X408835Y153000D01*
X407953Y145652D02*
Y152118D01*
X418534Y145000D02*
X423000D01*
X395896Y140484D02*
Y142453D01*
Y144569D01*
X396142Y144815D02*
Y145652D01*
X395896Y144569D02*
X396142Y144815D01*
X410000Y86500D02*
X411750D01*
X420500Y77750D01*
Y62000D02*
Y77750D01*
X317707Y241230D02*
Y247707D01*
X317500Y241024D02*
X317707Y241230D01*
Y247707D02*
X319000Y249000D01*
X322500Y223500D02*
Y225000D01*
X322598Y185646D02*
Y223402D01*
X322500Y223500D02*
X322598Y223402D01*
X307707Y241230D02*
Y247707D01*
X307500Y241024D02*
X307707Y241230D01*
Y247707D02*
X309000Y249000D01*
X327500Y219465D02*
Y225000D01*
X325748Y217713D02*
X327500Y219465D01*
X325748Y185646D02*
Y217713D01*
X316500Y192146D02*
Y224000D01*
X317500Y225000D01*
X310000Y185646D02*
X316500Y192146D01*
X306293Y222744D02*
X307500Y223951D01*
X299500Y222744D02*
X306293D01*
X299000Y223244D02*
X299500Y222744D01*
X299000Y223244D02*
X299500Y222744D01*
X340866Y233000D02*
X396165Y288299D01*
X311708Y233000D02*
X340866D01*
X321500Y244559D02*
X322500Y243559D01*
X328707Y245500D02*
X332500D01*
X327500Y244293D02*
X328707Y245500D01*
X327500Y241024D02*
Y244293D01*
X299000Y223244D02*
X299500Y222744D01*
X191000Y148165D02*
X191734Y148900D01*
X191927D01*
X192027Y149000D01*
X235000D01*
X135000Y132500D02*
X139000D01*
X123969D02*
X135000D01*
Y124770D02*
X136770Y123000D01*
X139000Y132500D02*
X139500Y132000D01*
X149315Y131185D02*
X150130Y132000D01*
X149315Y124000D02*
Y131185D01*
Y124000D02*
X150315Y123000D01*
X150130Y132000D02*
Y132744D01*
X156000D01*
X136770Y123000D02*
X139685D01*
X123969Y132500D02*
X123969Y132500D01*
X150213Y153707D02*
X150506Y154000D01*
X150213Y141521D02*
Y153707D01*
Y141521D02*
X153478Y138256D01*
X156000D01*
X150506Y154000D02*
X154504D01*
X206500Y240794D02*
Y241772D01*
X208066Y239934D02*
X213000Y235000D01*
X207360Y239934D02*
X208066D01*
X206500Y240794D02*
X207360Y239934D01*
X161000Y141969D02*
X165051D01*
X167169Y139850D01*
X161000Y141969D02*
Y148740D01*
X172370Y160110D01*
X173551D01*
X187917Y148500D02*
X190469D01*
X191000Y147968D01*
X180047Y156370D02*
X187917Y148500D01*
X178079Y154087D02*
Y157551D01*
Y154087D02*
X186266Y145900D01*
X186266D01*
X187000Y145165D01*
X182880Y144848D02*
X183000Y144968D01*
X177821Y144848D02*
X182880D01*
X177821D02*
Y147648D01*
X176110Y149358D02*
X177821Y147648D01*
X176110Y149358D02*
Y157551D01*
X180047Y156370D02*
Y157551D01*
X191000Y147968D02*
Y148165D01*
X257150Y126850D02*
X283000D01*
X235000Y149000D02*
X257150Y126850D01*
X133500Y270256D02*
Y276500D01*
X157000Y300000D01*
X133000Y269756D02*
X133500Y270256D01*
X138500Y274000D02*
X153632Y289132D01*
X138000Y269756D02*
X138500Y270256D01*
Y274000D01*
X156132Y289132D02*
X157000Y290000D01*
X153632Y289132D02*
X156132D01*
X143288Y270044D02*
Y271788D01*
X143000Y269756D02*
X143288Y270044D01*
Y271788D02*
X150754Y279254D01*
X156254D01*
X148000Y269756D02*
X156756D01*
X157000Y270000D01*
X156254Y279254D02*
X157000Y280000D01*
X148000Y256756D02*
Y264244D01*
Y256756D02*
X148000Y256756D01*
X143000Y256756D02*
Y264244D01*
Y256756D02*
X143000Y256756D01*
X138000Y256756D02*
X138000Y256756D01*
X138000Y256756D02*
Y264244D01*
X133000Y256756D02*
X133000Y256756D01*
X133000Y256756D02*
Y264244D01*
X168000Y271000D02*
X180500D01*
X167000Y270000D02*
X168000Y271000D01*
X180500D02*
X192500D01*
X167000Y300000D02*
X180000D01*
X180500Y300500D01*
X193000D01*
X211372Y282585D02*
Y300500D01*
X193000D02*
X211372D01*
X192500Y271000D02*
X200000Y278500D01*
X216416Y307416D02*
Y341041D01*
X216250Y307250D02*
X216416Y307416D01*
X216628Y282585D02*
Y297872D01*
X216756Y273512D02*
Y282457D01*
X211244Y273512D02*
Y282457D01*
X298976Y174583D02*
X299000Y174560D01*
Y172660D02*
Y174560D01*
Y218852D02*
Y222744D01*
Y219000D02*
Y222744D01*
X299000D02*
Y223244D01*
X149256Y182496D02*
Y196500D01*
Y182496D02*
X152752Y179000D01*
X154504Y174000D02*
X156256D01*
X164240Y166016D01*
X173551D01*
X154504Y149000D02*
X156256D01*
X169335Y162079D01*
X173551D01*
X154504Y184000D02*
X156256D01*
X161573Y178682D01*
Y172056D02*
Y178682D01*
Y172056D02*
X165645Y167984D01*
X173551D01*
X154504Y159000D02*
X156256D01*
X161303Y164047D01*
X173551D01*
X215463Y304496D02*
X218500Y301458D01*
Y301458D02*
Y301458D01*
Y301458D02*
X231646Y288313D01*
Y236854D02*
X276000Y192500D01*
X231646Y236854D02*
Y288313D01*
X215817Y305350D02*
X215817D01*
X232500Y288667D01*
Y237208D02*
Y288667D01*
Y237208D02*
X276208Y193500D01*
X219566Y321798D02*
Y341041D01*
X219500Y313108D02*
Y321732D01*
X219566Y341041D02*
X220300Y341775D01*
X219500Y321732D02*
X219566Y321798D01*
X326949Y165000D02*
X336244D01*
X336744Y165500D01*
X326749Y165200D02*
X326949Y165000D01*
X317875Y165200D02*
X326749D01*
X314751D02*
X317875D01*
X185325Y195244D02*
X185500D01*
X184000Y193919D02*
X185325Y195244D01*
X184000Y190437D02*
Y193919D01*
Y190437D02*
X184500Y189937D01*
X184000Y184000D02*
Y185500D01*
X184500Y186000D01*
X180047Y180047D02*
X184000Y184000D01*
X180047Y176449D02*
Y180047D01*
X268500Y184000D02*
X268500Y184000D01*
X265017Y184000D02*
X268500D01*
X320516Y301500D02*
X330500D01*
X346000Y286000D01*
X337728Y283000D02*
X338463Y282266D01*
Y282069D02*
X340783Y279749D01*
X341251D02*
X341500Y279500D01*
X337531Y283000D02*
X337728D01*
X338463Y282069D02*
Y282266D01*
X340783Y279749D02*
X341251D01*
X320854Y266500D02*
X334500D01*
X320516Y266839D02*
X320854Y266500D01*
X319449Y182496D02*
X319469D01*
X320976Y184004D01*
X320996D01*
X322598Y182496D02*
Y182520D01*
X324025Y183947D02*
Y183971D01*
X322598Y182520D02*
X324025Y183947D01*
X326684Y177088D02*
X329241Y179646D01*
X381855D01*
X386557Y184348D01*
X381501Y180500D02*
X388457Y187457D01*
X328888Y180500D02*
X381501D01*
X326330Y177942D02*
X328888Y180500D01*
X326733Y179553D02*
X328679Y181500D01*
X381293D02*
X394493Y194701D01*
X328679Y181500D02*
X381293D01*
X381080Y182496D02*
X393558Y194974D01*
X325748Y182496D02*
X381080D01*
X325955Y179553D02*
X326733D01*
X325748Y179347D02*
X325955Y179553D01*
X319449Y185646D02*
Y185848D01*
X316500Y188797D02*
Y189000D01*
Y188797D02*
X319449Y185848D01*
X326889Y161500D02*
X327500D01*
X248000Y223000D02*
X276646Y194354D01*
X248000Y223000D02*
Y267000D01*
X301336Y194354D02*
X303690Y192000D01*
X276646Y194354D02*
X301336D01*
X303690Y192000D02*
X313000D01*
X325748Y160449D02*
X325838D01*
X326889Y161500D01*
X296990Y171472D02*
X297813D01*
X295997Y170479D02*
X296990Y171472D01*
X295997Y163017D02*
Y170479D01*
Y163017D02*
X296000Y163014D01*
X297813Y171472D02*
X299000Y172660D01*
X296000Y162500D02*
Y163014D01*
X295353Y161853D02*
X296000Y162500D01*
X283058Y161853D02*
X295353D01*
X281653Y160449D02*
X283058Y161853D01*
X289528Y172636D02*
X290668Y171495D01*
X292700D01*
X289528Y172636D02*
Y174583D01*
X289566Y180921D02*
X302126D01*
X303701Y182496D01*
X404016Y150000D02*
Y153016D01*
Y145652D02*
Y150000D01*
X297402Y173047D02*
Y173073D01*
X296000Y174474D02*
X297402Y173073D01*
X296000Y174474D02*
Y174500D01*
X386557Y184348D02*
X397642D01*
X388457Y187457D02*
X397305D01*
X394493Y194701D02*
X398766D01*
X393558Y194974D02*
Y194974D01*
X406000Y196739D02*
Y203031D01*
X402116Y203532D02*
X405500D01*
X393558Y194974D02*
X402116Y203532D01*
X326639Y177088D02*
X326684D01*
X325748Y176197D02*
X326639Y177088D01*
X325507Y177942D02*
X326330D01*
X324344Y176778D02*
X325507Y177942D01*
X410000Y196434D02*
Y203031D01*
X409500Y203532D02*
X410000Y203031D01*
X405500Y203532D02*
X406000Y203031D01*
X398766Y194701D02*
X400032Y195966D01*
Y196803D01*
X300774Y192500D02*
X305105Y188169D01*
X276000Y192500D02*
X300774D01*
X300982Y193500D02*
X308255Y186227D01*
X276208Y193500D02*
X300982D01*
X305105Y182255D02*
Y188169D01*
X416177Y135282D02*
X417958Y133500D01*
X424000D01*
Y136469D01*
X423969Y136500D02*
X424000Y136469D01*
X423969Y136500D02*
Y138500D01*
Y141000D01*
X414104Y136547D02*
X419984D01*
X420031Y136500D01*
X414104Y140484D02*
X419516D01*
X420031Y141000D01*
X412986Y135282D02*
X416177D01*
X411890Y134185D02*
X412986Y135282D01*
X411890Y133348D02*
Y134185D01*
X414120Y138500D02*
X423969D01*
X414104Y138516D02*
X414120Y138500D01*
X308255Y184745D02*
Y186227D01*
X248000Y266835D02*
Y267032D01*
X255000Y146000D02*
X263500Y137500D01*
X283707D02*
X286500Y140293D01*
X263500Y137500D02*
X283707D01*
X262000Y136000D02*
X284000D01*
X253000Y145000D02*
X262000Y136000D01*
X284000D02*
X287953Y139953D01*
X241234Y154558D02*
X261292Y134500D01*
X284208D01*
X289357Y139649D01*
X286500Y133000D02*
X292507Y139007D01*
X238000Y155000D02*
X260000Y133000D01*
X286500D01*
X289350Y128500D02*
X289500Y128350D01*
X287953Y139953D02*
Y141551D01*
X283209Y143126D02*
X284784Y144701D01*
X284803D01*
X283190Y143126D02*
X283209D01*
X283153Y139901D02*
X284803Y141551D01*
X275000Y139901D02*
X283153D01*
X280249Y156718D02*
Y156718D01*
X195759Y172500D02*
X264467D01*
X280249Y156718D01*
Y156718D02*
X281072Y155895D01*
X294271Y141551D02*
X295846Y143126D01*
X295865D01*
X294252Y141551D02*
X294271D01*
X305105Y182255D02*
X306610Y180751D01*
X308596D01*
X310000Y179347D01*
X308255Y184745D02*
X309000Y184000D01*
X311646D01*
X313150Y182496D01*
X276101Y177601D02*
X297983D01*
X274000Y175500D02*
X276101Y177601D01*
X195109Y175500D02*
X274000D01*
X193499Y173890D02*
X195109Y175500D01*
X192449Y173890D02*
X193499D01*
X195291Y174000D02*
X275000D01*
X193723Y172432D02*
X195291Y174000D01*
X253000Y145000D02*
Y154500D01*
X255000Y146000D02*
Y154500D01*
X190113Y157000D02*
X240469D01*
X240500Y157032D01*
X189890Y157224D02*
Y157551D01*
Y157224D02*
X190113Y157000D01*
X240500Y157032D02*
X241234Y156297D01*
X292692Y146291D02*
X294252Y147850D01*
X290706Y146291D02*
X292692D01*
X289357Y144941D02*
X290706Y146291D01*
X241234Y154558D02*
Y156297D01*
X289357Y139649D02*
Y144941D01*
X292507Y139007D02*
Y142956D01*
X243354Y166146D02*
X255000Y154500D01*
X197146Y166146D02*
X243354D01*
X197500Y164500D02*
X243000D01*
X253000Y154500D01*
X189709Y155000D02*
X238000D01*
X189241Y153500D02*
X237500D01*
X236500Y152000D02*
X258500Y130000D01*
X188772Y152000D02*
X236500D01*
X193723Y170463D02*
X195759Y172500D01*
X193723Y170176D02*
Y170463D01*
X192449Y169953D02*
X193499D01*
X193723Y170176D01*
Y172145D02*
Y172432D01*
X192449Y171921D02*
X193499D01*
X193723Y172145D01*
X264017Y183000D02*
X265017Y184000D01*
X266200Y181500D02*
X266350Y181650D01*
X188272Y181500D02*
X266200D01*
X184495Y177723D02*
X188272Y181500D01*
X187386Y183000D02*
X264017D01*
X182016Y177630D02*
X187386Y183000D01*
X189436Y178726D02*
X269041D01*
X267500Y180000D02*
X271741Y184241D01*
X188741Y180000D02*
X267500D01*
X183984Y177499D02*
X184208Y177723D01*
X183984Y176449D02*
Y177499D01*
X184208Y177723D02*
X184495D01*
X182016Y176449D02*
Y177630D01*
X270058Y177058D02*
X272850Y179850D01*
X190113Y177058D02*
X270058D01*
X189890Y176834D02*
X190113Y177058D01*
X189890Y176449D02*
Y176834D01*
X269481Y179167D02*
X269833D01*
X269041Y178726D02*
X269481Y179167D01*
X186463Y177723D02*
X188741Y180000D01*
X195079Y162079D02*
X197500Y164500D01*
X182526Y156277D02*
X188304Y150500D01*
X184495Y156277D02*
X188772Y152000D01*
X186463Y156277D02*
X189241Y153500D01*
X188432Y156277D02*
X189709Y155000D01*
X182239Y156277D02*
X182526D01*
X182016Y156501D02*
X182239Y156277D01*
X182016Y156501D02*
Y157551D01*
X184208Y156277D02*
X184495D01*
X183984Y156501D02*
X184208Y156277D01*
X183984Y156501D02*
Y157551D01*
X186176Y156277D02*
X186463D01*
X185953Y156501D02*
X186176Y156277D01*
X185953Y156501D02*
Y157551D01*
X187921Y156501D02*
X188145Y156277D01*
X187921Y156501D02*
Y157551D01*
X188145Y156277D02*
X188432D01*
X192449Y160110D02*
X197758D01*
X198148Y160500D01*
X198500D01*
X192449Y162079D02*
X195079D01*
X192449Y164047D02*
X195047D01*
X197146Y166146D01*
X271741Y184241D02*
X285385D01*
X185953Y177499D02*
X186176Y177723D01*
X186463D01*
X185953Y176449D02*
Y177499D01*
X188432Y177723D02*
X189436Y178726D01*
X187921Y177499D02*
X188145Y177723D01*
X188432D01*
X187921Y176449D02*
Y177499D01*
X286500Y140293D02*
Y146153D01*
X284803Y147850D02*
X286500Y146153D01*
X297983Y177601D02*
X298034Y177550D01*
X298994D01*
X300551Y179107D01*
X274000Y181000D02*
X286457D01*
X272850Y179883D02*
X273817Y180850D01*
X273850D01*
X274000Y181000D01*
X272850Y179850D02*
Y179883D01*
X284803Y169898D02*
X286400Y168301D01*
Y165175D02*
Y168301D01*
X284602Y169898D02*
X284803D01*
X292507Y142956D02*
X294252Y144701D01*
X319449Y147850D02*
X321000Y146299D01*
X319935Y152500D02*
X321194Y151241D01*
X321824Y149469D02*
X333000D01*
X321194Y150099D02*
X321824Y149469D01*
X321194Y150099D02*
Y151241D01*
X313350Y154150D02*
X315000Y152500D01*
X319935D01*
X333000Y149469D02*
X333000Y149469D01*
X313150Y154150D02*
X313350D01*
X291101Y151000D02*
X291102D01*
X289601Y152500D02*
X291101Y151000D01*
X289600Y152500D02*
X289601D01*
X281446Y155554D02*
X289698D01*
X281072Y155895D02*
X281105D01*
X281446Y155554D01*
X289698D02*
X291102Y154150D01*
X286644Y185500D02*
X287953D01*
X288646D01*
X285385Y184241D02*
X286644Y185500D01*
X286457Y181000D02*
X287953Y182496D01*
X324344Y174452D02*
Y176778D01*
X397305Y187457D02*
X397396Y187547D01*
X324344Y174452D02*
X325748Y173047D01*
X397742Y189667D02*
X397817D01*
X397500Y189909D02*
X397742Y189667D01*
X396975Y193846D02*
X397217Y193604D01*
X397400Y193453D02*
X397551Y193604D01*
X244000Y291968D02*
Y295000D01*
Y291968D02*
X244468Y291500D01*
X300551Y179107D02*
Y179347D01*
X164500Y182032D02*
X168000D01*
X291088Y182510D02*
X291102Y182496D01*
X289500Y185262D02*
X291088Y183674D01*
Y182510D02*
Y183674D01*
X289500Y185262D02*
Y186084D01*
X415986Y142453D02*
X418534Y145000D01*
X414104Y142453D02*
X415986D01*
X99468Y163531D02*
X99500Y163500D01*
X99468Y163531D02*
Y167000D01*
X99665D01*
X103563Y170898D02*
Y176500D01*
X99665Y167000D02*
X103563Y170898D01*
X107697Y176500D02*
X110197Y179000D01*
X107500Y176500D02*
X107697D01*
X110197Y179000D02*
X121000D01*
X409969Y122000D02*
Y126000D01*
X401000Y157000D02*
X403968D01*
X404000Y156968D01*
Y153032D02*
X404016Y153016D01*
X405469Y207500D02*
X405500Y207469D01*
X409500Y207469D02*
X409531Y207500D01*
X415604Y189516D02*
X415620Y189500D01*
X424968D01*
X409531Y207500D02*
X412500D01*
X424968Y189500D02*
Y192000D01*
Y187000D02*
Y189500D01*
Y187000D02*
X424968Y187000D01*
X424968Y189500D02*
X428000D01*
X420516Y191484D02*
X421032Y192000D01*
X415604Y191484D02*
X420516D01*
X397396Y193453D02*
X397400D01*
X164984Y170979D02*
X165266D01*
X166291Y169953D01*
X173551D01*
X177148Y172852D02*
X178669Y171331D01*
X173551Y173890D02*
X174732D01*
X175770Y172852D01*
X177148D01*
X168000Y176291D02*
X172370Y171921D01*
X168000Y176291D02*
Y182032D01*
X172370Y171921D02*
X173551D01*
X168000Y182032D02*
X168000Y182032D01*
X216416Y341041D02*
X217150Y341775D01*
X300464Y167036D02*
X300648Y167220D01*
X301000D02*
X301011D01*
X301000Y166487D02*
Y167220D01*
X298322Y163809D02*
X301000Y166487D01*
X297612Y163809D02*
X298322D01*
X297402Y163598D02*
X297612Y163809D01*
X295826Y152600D02*
X295851D01*
X297401Y154150D02*
X297402D01*
X295851Y152600D02*
X297401Y154150D01*
X300177Y166748D02*
X300648Y167220D01*
X301000D01*
X300551Y169898D02*
X300762Y169687D01*
X297402Y166748D02*
X300177D01*
X289525Y165150D02*
X292654D01*
X307500Y167469D02*
X307535D01*
X309965Y169898D01*
X307852Y167469D02*
X308450Y166870D01*
X309878D01*
X310000Y166748D01*
X306850Y168001D02*
Y169898D01*
Y168001D02*
X307383Y167469D01*
X307500D01*
X309965Y169898D02*
X310000D01*
X294252Y154150D02*
X294276D01*
X295826Y152600D01*
X303689Y169898D02*
X303701D01*
X301011Y167220D02*
X303689Y169898D01*
X303998Y157299D02*
X307199Y160500D01*
X307500D01*
X289500Y158875D02*
X292676D01*
X307500Y160500D02*
X307749Y160251D01*
Y159550D02*
Y160251D01*
Y159550D02*
X310000Y157299D01*
X303650Y157248D02*
X303701Y157299D01*
X303650Y157126D02*
Y157563D01*
X301749Y159464D02*
X303650Y157563D01*
X301749Y159464D02*
Y160148D01*
X301500Y160397D02*
X301749Y160148D01*
X301500Y160397D02*
Y160500D01*
X307500Y160474D02*
X307500Y160474D01*
X309974D01*
X310000Y160449D01*
X307500Y160474D02*
Y160500D01*
Y160148D02*
Y160474D01*
X307000Y159648D02*
X307500Y160148D01*
X307000Y157449D02*
Y159648D01*
X306850Y157299D02*
X307000Y157449D01*
X301474Y160474D02*
X301500Y160500D01*
X297427Y160474D02*
X301474D01*
X297402Y160449D02*
X297427Y160474D01*
X301500Y160148D02*
Y160500D01*
X300551Y159199D02*
X301500Y160148D01*
X300751Y167469D02*
X301000Y167220D01*
X299831Y167469D02*
X300751D01*
X297402Y169898D02*
X299831Y167469D01*
X300762Y167458D02*
Y169687D01*
X302126Y174622D02*
Y177810D01*
X303701Y157299D02*
X303998D01*
X298446Y157446D02*
X300375Y159375D01*
X314763Y162062D02*
X317874D01*
X313150Y160449D02*
X314763Y162062D01*
X308464Y149425D02*
Y152536D01*
X308464Y149425D02*
X308464Y149425D01*
X302087D02*
Y152536D01*
Y149425D02*
X302088Y149425D01*
X313150Y157299D02*
Y160449D01*
X314698Y165200D02*
X314751D01*
X313150Y163598D02*
X314751Y165200D01*
X313150Y166748D02*
X314698Y165200D01*
X297350Y169701D02*
X297799D01*
X300551Y157299D02*
Y159199D01*
X297549Y157446D02*
X298446D01*
X297402Y157299D02*
X297549Y157446D01*
X302087Y152536D02*
Y152613D01*
X300551Y154150D02*
X302087Y152613D01*
Y152536D02*
X303701Y154150D01*
X308464Y152536D02*
Y152613D01*
X306850Y154150D02*
X308464Y152536D01*
Y152613D02*
X310000Y154150D01*
X302126Y174622D02*
X303701Y173047D01*
X292676Y158875D02*
X292678D01*
X292676D02*
X294252Y157299D01*
X292678Y158875D02*
X294252Y160449D01*
X292654Y165150D02*
X292700D01*
X294252Y163598D01*
X292654Y165150D02*
X294252Y166748D01*
X292700Y171450D02*
Y171495D01*
X291102Y169898D02*
X292700Y171495D01*
Y171450D02*
X294252Y169898D01*
X265000Y147968D02*
X268500D01*
X265000Y144032D02*
X268774D01*
X271806Y151000D02*
X281653D01*
X268774Y147968D02*
X271806Y151000D01*
X268500Y147968D02*
X268774D01*
X272000Y144032D02*
X272669Y144701D01*
X281653D01*
X272000Y147968D02*
X272118Y147850D01*
X281653D01*
X300551Y173047D02*
X302101Y174597D01*
X308400Y174399D02*
Y174451D01*
X105000Y297756D02*
X105000Y297756D01*
Y302000D01*
X337531Y272532D02*
Y275500D01*
X97803Y297756D02*
X98000D01*
X82100Y313459D02*
X97803Y297756D01*
X112697D02*
X129400Y314459D01*
X112500Y297756D02*
X112697D01*
X206500Y263228D02*
Y268284D01*
X216500Y263228D02*
Y273256D01*
X211500Y263228D02*
Y273256D01*
D72*
X129400Y283900D02*
Y314459D01*
X83500Y238000D02*
X129400Y283900D01*
X51500Y238000D02*
X83500D01*
X129400Y314459D02*
Y341775D01*
X82100Y299600D02*
Y313459D01*
X51500Y294500D02*
X77000D01*
X82100Y299600D01*
Y325100D02*
Y341775D01*
Y313459D02*
Y325100D01*
D73*
X167000Y270000D02*
D03*
D74*
X157000D02*
D03*
X167000Y280000D02*
D03*
X157000D02*
D03*
X167000Y290000D02*
D03*
X157000D02*
D03*
X167000Y300000D02*
D03*
X157000D02*
D03*
X269500Y233000D02*
D03*
D75*
X130000Y74000D02*
D03*
X85000D02*
D03*
X137000Y86000D02*
D03*
X78000D02*
D03*
D76*
X125000Y109000D02*
D03*
X120000Y99000D02*
D03*
X115000Y109000D02*
D03*
X110000Y99000D02*
D03*
X105000Y109000D02*
D03*
X100000Y99000D02*
D03*
X90000D02*
D03*
X95000Y109000D02*
D03*
D77*
X279500Y233000D02*
D03*
D78*
X457550Y56450D02*
D03*
X17550D02*
D03*
X457550Y296450D02*
D03*
X17550D02*
D03*
D79*
X135000Y165000D02*
D03*
Y135000D02*
D03*
Y105000D02*
D03*
X127500Y180000D02*
D03*
Y150000D02*
D03*
X120000Y135000D02*
D03*
X127500Y120000D02*
D03*
X120000Y105000D02*
D03*
X127500Y90000D02*
D03*
Y60000D02*
D03*
X105000Y165000D02*
D03*
Y105000D02*
D03*
X97500Y180000D02*
D03*
X90000Y165000D02*
D03*
Y135000D02*
D03*
X97500Y120000D02*
D03*
X90000Y105000D02*
D03*
X82500Y180000D02*
D03*
X75000Y165000D02*
D03*
X82500Y150000D02*
D03*
X75000Y135000D02*
D03*
X82500Y120000D02*
D03*
X75000Y105000D02*
D03*
X82500Y90000D02*
D03*
X75000Y75000D02*
D03*
X82500Y60000D02*
D03*
X75000Y45000D02*
D03*
X465000Y285000D02*
D03*
Y255000D02*
D03*
Y225000D02*
D03*
Y195000D02*
D03*
Y165000D02*
D03*
Y135000D02*
D03*
Y105000D02*
D03*
Y75000D02*
D03*
Y45000D02*
D03*
X450000Y285000D02*
D03*
X457500Y270000D02*
D03*
X450000Y255000D02*
D03*
X457500Y240000D02*
D03*
X450000Y225000D02*
D03*
X457500Y210000D02*
D03*
X450000Y195000D02*
D03*
X457500Y180000D02*
D03*
X450000Y165000D02*
D03*
X457500Y150000D02*
D03*
X450000Y135000D02*
D03*
X457500Y120000D02*
D03*
X450000Y105000D02*
D03*
X457500Y90000D02*
D03*
X450000Y75000D02*
D03*
Y45000D02*
D03*
X442500Y300000D02*
D03*
X435000Y285000D02*
D03*
X442500Y270000D02*
D03*
X435000Y255000D02*
D03*
X442500Y240000D02*
D03*
X435000Y225000D02*
D03*
X442500Y210000D02*
D03*
X435000Y195000D02*
D03*
X442500Y180000D02*
D03*
X435000Y165000D02*
D03*
X442500Y150000D02*
D03*
X435000Y135000D02*
D03*
X442500Y120000D02*
D03*
X435000Y105000D02*
D03*
X442500Y90000D02*
D03*
X435000Y75000D02*
D03*
X442500Y60000D02*
D03*
X435000Y45000D02*
D03*
X427500Y300000D02*
D03*
Y270000D02*
D03*
X420000Y255000D02*
D03*
X427500Y240000D02*
D03*
X420000Y225000D02*
D03*
X427500Y210000D02*
D03*
Y180000D02*
D03*
X420000Y165000D02*
D03*
X427500Y150000D02*
D03*
Y120000D02*
D03*
X420000Y105000D02*
D03*
X427500Y90000D02*
D03*
Y60000D02*
D03*
X420000Y45000D02*
D03*
X412500Y300000D02*
D03*
X405000Y285000D02*
D03*
X412500Y270000D02*
D03*
X405000Y255000D02*
D03*
X412500Y240000D02*
D03*
X405000Y225000D02*
D03*
X412500Y210000D02*
D03*
X405000Y165000D02*
D03*
X412500Y120000D02*
D03*
X405000Y105000D02*
D03*
X412500Y90000D02*
D03*
X405000Y75000D02*
D03*
X412500Y60000D02*
D03*
X405000Y45000D02*
D03*
X397500Y300000D02*
D03*
X390000Y285000D02*
D03*
X397500Y270000D02*
D03*
X390000Y255000D02*
D03*
X397500Y240000D02*
D03*
X390000Y225000D02*
D03*
X397500Y210000D02*
D03*
X390000Y195000D02*
D03*
X397500Y180000D02*
D03*
X390000Y165000D02*
D03*
X397500Y150000D02*
D03*
Y120000D02*
D03*
X390000Y105000D02*
D03*
X397500Y90000D02*
D03*
X390000Y75000D02*
D03*
Y45000D02*
D03*
X382500Y300000D02*
D03*
X375000Y285000D02*
D03*
X382500Y270000D02*
D03*
X375000Y255000D02*
D03*
X382500Y240000D02*
D03*
X375000Y225000D02*
D03*
X382500Y210000D02*
D03*
X375000Y195000D02*
D03*
Y165000D02*
D03*
X382500Y150000D02*
D03*
X375000Y135000D02*
D03*
X382500Y120000D02*
D03*
X375000Y105000D02*
D03*
X382500Y90000D02*
D03*
X375000Y75000D02*
D03*
X382500Y60000D02*
D03*
X375000Y45000D02*
D03*
X367500Y300000D02*
D03*
X360000Y285000D02*
D03*
X367500Y270000D02*
D03*
X360000Y255000D02*
D03*
X367500Y240000D02*
D03*
X360000Y225000D02*
D03*
X367500Y210000D02*
D03*
X360000Y195000D02*
D03*
Y165000D02*
D03*
X367500Y150000D02*
D03*
X360000Y135000D02*
D03*
X367500Y120000D02*
D03*
X360000Y105000D02*
D03*
X367500Y90000D02*
D03*
X360000Y75000D02*
D03*
X367500Y60000D02*
D03*
X360000Y45000D02*
D03*
X352500Y300000D02*
D03*
Y270000D02*
D03*
Y240000D02*
D03*
X345000Y225000D02*
D03*
X352500Y210000D02*
D03*
X345000Y195000D02*
D03*
X352500Y150000D02*
D03*
X345000Y135000D02*
D03*
X352500Y120000D02*
D03*
X345000Y105000D02*
D03*
X352500Y90000D02*
D03*
X345000Y75000D02*
D03*
X352500Y60000D02*
D03*
X345000Y45000D02*
D03*
X337500Y300000D02*
D03*
Y270000D02*
D03*
X330000Y255000D02*
D03*
X337500Y240000D02*
D03*
Y210000D02*
D03*
Y150000D02*
D03*
X330000Y135000D02*
D03*
X337500Y120000D02*
D03*
Y90000D02*
D03*
X330000Y75000D02*
D03*
X337500Y60000D02*
D03*
X330000Y45000D02*
D03*
X315000Y285000D02*
D03*
X322500Y90000D02*
D03*
X315000Y75000D02*
D03*
X322500Y60000D02*
D03*
X315000Y45000D02*
D03*
X300000Y285000D02*
D03*
X307500Y270000D02*
D03*
Y210000D02*
D03*
X300000Y135000D02*
D03*
X307500Y120000D02*
D03*
X300000Y105000D02*
D03*
X307500Y90000D02*
D03*
X300000Y75000D02*
D03*
X307500Y60000D02*
D03*
X300000Y45000D02*
D03*
X292500Y270000D02*
D03*
X285000Y255000D02*
D03*
X292500Y240000D02*
D03*
X285000Y225000D02*
D03*
X292500Y210000D02*
D03*
Y120000D02*
D03*
X285000Y105000D02*
D03*
X292500Y90000D02*
D03*
X285000Y75000D02*
D03*
X292500Y60000D02*
D03*
X285000Y45000D02*
D03*
X277500Y300000D02*
D03*
X270000Y285000D02*
D03*
X277500Y270000D02*
D03*
X270000Y255000D02*
D03*
X277500Y240000D02*
D03*
X270000Y225000D02*
D03*
X277500Y210000D02*
D03*
Y150000D02*
D03*
Y120000D02*
D03*
X270000Y105000D02*
D03*
X277500Y90000D02*
D03*
X270000Y75000D02*
D03*
X277500Y60000D02*
D03*
X270000Y45000D02*
D03*
X262500Y300000D02*
D03*
X255000Y285000D02*
D03*
X262500Y270000D02*
D03*
X255000Y255000D02*
D03*
X262500Y240000D02*
D03*
X255000Y225000D02*
D03*
Y195000D02*
D03*
Y165000D02*
D03*
X262500Y150000D02*
D03*
Y120000D02*
D03*
X255000Y105000D02*
D03*
X262500Y90000D02*
D03*
X255000Y75000D02*
D03*
X262500Y60000D02*
D03*
X255000Y45000D02*
D03*
X247500Y300000D02*
D03*
X240000Y285000D02*
D03*
Y255000D02*
D03*
X247500Y210000D02*
D03*
X240000Y195000D02*
D03*
Y135000D02*
D03*
X247500Y120000D02*
D03*
X240000Y105000D02*
D03*
X247500Y90000D02*
D03*
X240000Y75000D02*
D03*
X247500Y60000D02*
D03*
X240000Y45000D02*
D03*
X232500Y300000D02*
D03*
X225000Y285000D02*
D03*
Y255000D02*
D03*
Y225000D02*
D03*
X232500Y210000D02*
D03*
X225000Y195000D02*
D03*
Y135000D02*
D03*
X232500Y120000D02*
D03*
X225000Y105000D02*
D03*
X232500Y90000D02*
D03*
X225000Y75000D02*
D03*
X232500Y60000D02*
D03*
X225000Y45000D02*
D03*
X210000Y255000D02*
D03*
Y225000D02*
D03*
X217500Y210000D02*
D03*
X210000Y195000D02*
D03*
Y135000D02*
D03*
X217500Y120000D02*
D03*
X210000Y105000D02*
D03*
X217500Y90000D02*
D03*
X210000Y75000D02*
D03*
X217500Y60000D02*
D03*
X210000Y45000D02*
D03*
X202500Y270000D02*
D03*
X195000Y255000D02*
D03*
X202500Y240000D02*
D03*
X195000Y225000D02*
D03*
X202500Y210000D02*
D03*
X195000Y195000D02*
D03*
Y135000D02*
D03*
X202500Y120000D02*
D03*
X195000Y105000D02*
D03*
X202500Y90000D02*
D03*
X195000Y75000D02*
D03*
X202500Y60000D02*
D03*
X195000Y45000D02*
D03*
X180000Y285000D02*
D03*
Y255000D02*
D03*
X187500Y240000D02*
D03*
X180000Y225000D02*
D03*
X187500Y210000D02*
D03*
X180000Y195000D02*
D03*
Y135000D02*
D03*
X187500Y120000D02*
D03*
X180000Y105000D02*
D03*
X187500Y90000D02*
D03*
X180000Y75000D02*
D03*
X187500Y60000D02*
D03*
X180000Y45000D02*
D03*
X165000Y285000D02*
D03*
Y255000D02*
D03*
X172500Y240000D02*
D03*
X165000Y225000D02*
D03*
X172500Y210000D02*
D03*
X165000Y195000D02*
D03*
Y135000D02*
D03*
X172500Y120000D02*
D03*
X165000Y105000D02*
D03*
X172500Y90000D02*
D03*
X165000Y75000D02*
D03*
X172500Y60000D02*
D03*
X165000Y45000D02*
D03*
X157500Y240000D02*
D03*
X150000Y225000D02*
D03*
X157500Y210000D02*
D03*
Y120000D02*
D03*
X150000Y105000D02*
D03*
X157500Y90000D02*
D03*
X150000Y75000D02*
D03*
X157500Y60000D02*
D03*
X150000Y45000D02*
D03*
X142500Y300000D02*
D03*
X135000Y285000D02*
D03*
X142500Y240000D02*
D03*
X135000Y225000D02*
D03*
X142500Y210000D02*
D03*
X135000Y195000D02*
D03*
X120000Y285000D02*
D03*
X127500Y270000D02*
D03*
X120000Y255000D02*
D03*
X127500Y240000D02*
D03*
X120000Y225000D02*
D03*
X127500Y210000D02*
D03*
X120000Y195000D02*
D03*
X105000Y255000D02*
D03*
X112500Y240000D02*
D03*
X105000Y225000D02*
D03*
X112500Y210000D02*
D03*
X105000Y195000D02*
D03*
X90000Y285000D02*
D03*
X97500Y270000D02*
D03*
X90000Y255000D02*
D03*
X97500Y240000D02*
D03*
X90000Y225000D02*
D03*
X97500Y210000D02*
D03*
X90000Y195000D02*
D03*
X75000Y285000D02*
D03*
X82500Y270000D02*
D03*
X75000Y255000D02*
D03*
Y225000D02*
D03*
X82500Y210000D02*
D03*
X75000Y195000D02*
D03*
X67500Y300000D02*
D03*
X60000Y285000D02*
D03*
X67500Y270000D02*
D03*
X60000Y255000D02*
D03*
Y225000D02*
D03*
X67500Y210000D02*
D03*
X60000Y195000D02*
D03*
X67500Y180000D02*
D03*
X60000Y165000D02*
D03*
X67500Y150000D02*
D03*
X60000Y135000D02*
D03*
X67500Y120000D02*
D03*
X60000Y105000D02*
D03*
X67500Y90000D02*
D03*
X60000Y75000D02*
D03*
X67500Y60000D02*
D03*
X60000Y45000D02*
D03*
X52500Y300000D02*
D03*
X45000Y285000D02*
D03*
Y255000D02*
D03*
Y225000D02*
D03*
X52500Y210000D02*
D03*
X45000Y195000D02*
D03*
X52500Y180000D02*
D03*
X45000Y165000D02*
D03*
X52500Y150000D02*
D03*
X45000Y135000D02*
D03*
X52500Y120000D02*
D03*
X45000Y105000D02*
D03*
X52500Y90000D02*
D03*
X45000Y75000D02*
D03*
X52500Y60000D02*
D03*
X45000Y45000D02*
D03*
X37500Y300000D02*
D03*
X30000Y285000D02*
D03*
X37500Y270000D02*
D03*
X30000Y255000D02*
D03*
X37500Y240000D02*
D03*
X30000Y225000D02*
D03*
X37500Y210000D02*
D03*
X30000Y195000D02*
D03*
X37500Y180000D02*
D03*
X30000Y165000D02*
D03*
X37500Y150000D02*
D03*
X30000Y135000D02*
D03*
X37500Y120000D02*
D03*
X30000Y105000D02*
D03*
X37500Y90000D02*
D03*
X30000Y75000D02*
D03*
X37500Y60000D02*
D03*
X30000Y45000D02*
D03*
X15000Y285000D02*
D03*
X22500Y270000D02*
D03*
X15000Y255000D02*
D03*
X22500Y240000D02*
D03*
X15000Y225000D02*
D03*
X22500Y210000D02*
D03*
X15000Y195000D02*
D03*
X22500Y180000D02*
D03*
X15000Y165000D02*
D03*
X22500Y150000D02*
D03*
X15000Y135000D02*
D03*
X22500Y120000D02*
D03*
X15000Y105000D02*
D03*
X22500Y90000D02*
D03*
X15000Y75000D02*
D03*
Y45000D02*
D03*
D80*
X244000Y160000D02*
D03*
X237000Y161000D02*
D03*
D81*
X160500Y183000D02*
D03*
X402500Y201500D02*
D03*
X286339Y149425D02*
D03*
X289566D02*
D03*
X324173Y162062D02*
D03*
X292639Y174622D02*
D03*
X207492Y314008D02*
D03*
X207692Y308725D02*
D03*
X210992Y311508D02*
D03*
X214000Y316850D02*
D03*
X211500Y302500D02*
D03*
X90500Y309000D02*
D03*
X85500Y306500D02*
D03*
X78500Y308000D02*
D03*
X89683Y312187D02*
D03*
X86500Y312500D02*
D03*
X76023Y311908D02*
D03*
X222023Y318408D02*
D03*
X114000Y184000D02*
D03*
X272000Y141000D02*
D03*
X191454Y140298D02*
D03*
X174954Y204298D02*
D03*
X184454Y204798D02*
D03*
X165954Y197798D02*
D03*
X422500Y195000D02*
D03*
X100000Y148500D02*
D03*
X103500Y158500D02*
D03*
X410000Y129500D02*
D03*
X406000D02*
D03*
X413500Y179500D02*
D03*
X414000Y150000D02*
D03*
X391000Y140500D02*
D03*
X405000Y211500D02*
D03*
X394486Y191590D02*
D03*
X421000Y183000D02*
D03*
X408000Y179500D02*
D03*
X422850Y144955D02*
D03*
X270500Y276000D02*
D03*
X319000Y249000D02*
D03*
X309000D02*
D03*
X332000Y245500D02*
D03*
X133500Y313500D02*
D03*
X117500Y309500D02*
D03*
X209722Y298000D02*
D03*
X219000Y313000D02*
D03*
X198000Y286000D02*
D03*
X200000Y278500D02*
D03*
X216250Y307250D02*
D03*
X216500Y298000D02*
D03*
X298976Y174583D02*
D03*
X299000Y218000D02*
D03*
X271376Y186124D02*
D03*
X268500Y184000D02*
D03*
X346000Y286000D02*
D03*
X341500Y279500D02*
D03*
X334500Y266500D02*
D03*
X346000Y279500D02*
D03*
X320996Y184004D02*
D03*
X324025Y183971D02*
D03*
X316500Y189000D02*
D03*
X313000Y192000D02*
D03*
X327400Y161675D02*
D03*
X289528Y174583D02*
D03*
X289566Y180921D02*
D03*
X296000Y174500D02*
D03*
X424000Y133500D02*
D03*
X283000Y126850D02*
D03*
X289500Y128350D02*
D03*
X283190Y143126D02*
D03*
X275000Y139901D02*
D03*
X295865Y143126D02*
D03*
X275000Y174000D02*
D03*
X266350Y181650D02*
D03*
X198500Y160500D02*
D03*
X269833Y179167D02*
D03*
X289600Y152500D02*
D03*
X236000Y291500D02*
D03*
X240500Y271500D02*
D03*
X253000Y256500D02*
D03*
X274500Y179200D02*
D03*
X99504Y163500D02*
D03*
X412500Y207500D02*
D03*
X401000Y157000D02*
D03*
X404000Y150000D02*
D03*
X428000Y189500D02*
D03*
X164984Y170979D02*
D03*
X308464Y149425D02*
D03*
X317874Y162062D02*
D03*
X302088Y149425D02*
D03*
X308425Y177810D02*
D03*
X302126D02*
D03*
X301000Y167220D02*
D03*
X307500Y160500D02*
D03*
X301500D02*
D03*
X307500Y167469D02*
D03*
X295850Y152600D02*
D03*
X286400Y165175D02*
D03*
X289500Y158875D02*
D03*
X317875Y165200D02*
D03*
X289525Y165150D02*
D03*
X133500Y307000D02*
D03*
X136000Y310500D02*
D03*
X136500Y314500D02*
D03*
X124500Y305500D02*
D03*
X122000Y312500D02*
D03*
X127000Y316000D02*
D03*
X227000Y273500D02*
D03*
X135000Y127500D02*
D03*
X244000Y295000D02*
D03*
X337531Y272532D02*
D03*
X326500Y271000D02*
D03*
X302000Y252500D02*
D03*
X270500Y280000D02*
D03*
X327000Y290500D02*
D03*
X293000Y280000D02*
D03*
X279500Y293000D02*
D03*
X289500Y252500D02*
D03*
X327000Y305500D02*
D03*
X280500D02*
D03*
X211500Y247000D02*
D03*
X206000Y269000D02*
D03*
X214000Y293000D02*
D03*
X105000Y276500D02*
D03*
Y302000D02*
D03*
X196500Y250500D02*
D03*
X196610Y239831D02*
D03*
D82*
X178669Y171331D02*
D03*
X183000D02*
D03*
X187331D02*
D03*
X178669Y167000D02*
D03*
X183000D02*
D03*
X187331D02*
D03*
X178669Y162669D02*
D03*
X183000D02*
D03*
X187331D02*
D03*
M02*
