M48
;Layer_Color=9474304
;FILE_FORMAT=2:4
INCH,LZ
;TYPE=PLATED
T1F00S00C0.0079
T2F00S00C0.0080
T3F00S00C0.0100
T4F00S00C0.0150
T5F00S00C0.0350
T6F00S00C0.0354
T7F00S00C0.0400
T8F00S00C0.0500
T9F00S00C0.0640
T10F00S00C0.0680
;TYPE=NON_PLATED
T11F00S00C0.1300
%
T01
X010613Y01065
X012113
X013613
X014363Y01215
X012863
X013613Y01365
X012113
X010613
X011363Y01515
X012863
X014363
X026363
X027863
X029363
X030863
X030113Y01365
X028613
X027113
X025613
X026363Y01215
X027863
X029363
X030863
X030113Y01065
X028613
X027113
X025613
X031613
X033113
X034613
X036113
X037613
X036863Y01215
X035363
X033863
X032363
X033113Y01365
X031613
X032363Y01515
X033863
X036113Y01365
X037613
X043613
X045113
X046613
X045863Y01515
X044363
X042863
Y01215
X044363
X045863
X046613Y01065
X045113
X043613
X048113
X048863Y01215
X047363
X048113Y01365
X047363Y01515
X050363
X053363
X054863
X056363
X055613Y01365
X054113
X054863Y01215
X055613Y01065
X054113
Y01665
X055613
X056363Y01815
X054863
X053363
X054113Y01965
X055613
X056363Y02115
X054863
X053363
X054113Y02265
X055613
X056363Y02415
X054863
X053363
X051863
X052613Y02565
X054113
X055613
X056363Y02715
X054863
X053363
X051863
X050363
X051113Y02865
X052613
X054113
X055613
X056363Y03015
X054863
X053363
X051863
X048494Y030017
X048061
X047628
X047195
Y029583
Y02915
X047628
Y029583
X048061
Y02915
X048494
Y029583
Y03045
X048061
X047628
X047195
X047363Y02415
X048863
X049613Y02565
X051113
X052613Y02265
Y01965
X051113
X049613
X048113
X048863Y02115
X050363
X049613Y02265
X048113
X047363Y02115
Y01815
X051113Y01665
X052613
X045113
X043613
X042113
X040613
X040693Y018091
X04026
Y018524
X040693
X044363Y01815
X045863
X046613Y01965
X045113
X045863Y02115
X044363
X042863
Y02415
X043613Y02565
X045113
X046613
X045863Y02715
X044363
X042863
X043613Y02865
X046613
X045863Y02415
X046613Y02265
X040613
X040461Y0249
X040028
X039595
Y025333
Y025767
Y0262
X040028
Y025767
Y025333
X040461
Y025767
Y0262
X040894
Y025767
Y025333
Y0249
X040613Y02865
X039113
X037613
X036863Y03015
X035363
X033863
X036113Y02565
Y02265
X037613
X033863Y02115
X033113Y01965
X031613
Y01665
X034662Y017417
X035351Y017417
Y017007
Y017829
X03604Y017417
X030863Y01815
X030113Y01665
X027863Y01815
X026363
X025613Y01965
X028613
X027863Y02115
X024863Y02415
X020201Y024715
Y025148
Y025582
X019768
Y025148
Y024715
X019335
Y025148
Y025582
X018863Y02715
X017363
X015863
X016613Y02865
X017363Y03015
X018863
X020363
X021863
X023363
X024863
X026363
X027113Y02865
X024113
X022613
X021113
X019613
X015863Y03015
X016613Y02565
X015863Y02415
X016613Y02265
X025613Y01665
X013613
X012113
X010613
X011363Y01815
X012863
X014363
X013613Y01965
X012113
X010613
X011363Y02115
X012863
X014363
X013613Y02265
X012113
X010613
X011363Y02415
X012863
X014363
X015113Y02565
X013613
X012113
X010613
X011363Y02715
X012863
X014363
X015113Y02865
X013613
X012113
X010613
X011363Y03015
X012863
X014363
X015113Y03165
X013613
X012113
X010613
X011363Y03315
X012863
X014363
X015113Y03465
X013613
X012113
X010613
X012863Y03615
X016613Y03465
X017363Y03315
X018863
X020363
X021863
X023363
X024863
X026363
X027863
X029363
X030863
X03093Y0327
Y032267
Y031833
Y0314
X030113Y03465
X028613
X025613
X024113
X022613
X021113
X019613
X020363Y03615
X021863
X022613Y03165
X024113
X021113
X019613
X016613
X015863Y03315
X031363Y0327
Y032267
Y031833
Y0314
X031796
Y031833
Y032267
Y0327
X032363Y03315
X033113Y03465
X034613
X036113
X037613
X038363Y03615
X039863
X041363
X042113Y03465
X043613
X045113
X046613
X045863Y03315
X045113Y03165
X042113
X040613
X041363Y03315
X039863
X040613Y03465
X036863Y03615
X032363
X031613Y03465
X033113Y03165
X034613
X036113
X037613
X047363Y03315
X048863
X050363
X051863
X053363
X054863
X056363
X055613Y03465
X054113
X052613
X051113
X049613
X050363Y03615
X051863
X053363
X054863
X055613Y03165
X054113
X052613
X051113
X049613
X047363Y03615
T02
X015745Y013
X016695Y0121
X022445Y01195
X023745Y01115
X023495Y013
X023745Y01455
X034495Y0145
X034295Y01515
X034813
X035213
X035513Y01505
X036145Y0151
X038535Y01485
X041677Y014918
X034813Y01365
X034363
X049363Y0152
X049713Y01525
X050195Y0149
X053295
X069098Y015237
X069648
X069379Y015522
X070925Y014796
X071721Y014564
X072345Y013105
X069796Y012839
X076995Y011055
X078045Y013705
X078245Y012055
X082345Y011605
X081595Y010705
X085322Y013464
X086695Y012105
X088445Y012705
X088295Y013605
X089445Y013555
X089895Y013205
X090095Y012605
X091495Y012755
X092995Y012905
X091445Y014955
X090461Y01511
X089495Y015155
Y014655
X088995
Y015155
X087645Y014755
X090745Y011405
X095395Y012905
X094073Y014677
X094714Y03034
X095364Y030289
X096414Y02994
X098729Y031205
X092045Y028755
X086945Y029405
X085604Y029114
X083795Y030605
X082845Y030905
X082601Y03085
X082601Y031155
X082296Y031155
X082345Y030905
X082906Y031155
X081845Y029205
X081048Y020237
X078648Y019737
X080375Y017419
X081248Y015687
X084145Y016755
X084745Y016686
X085345Y017355
X08797Y01653
X089161Y016233
X091095Y016505
X089961Y017783
X089145Y019105
X076175Y019246
X075234Y019737
X074175Y020496
X076845Y021155
X077975Y016896
X072275Y016996
X069645Y016955
X069648Y015787
X069098
X069679Y019296
X070425Y019346
X069975Y019946
X068675
X067895Y022905
X070492Y022745
X071442Y022195
X069545Y028905
X070336Y03023
X068945Y030805
X068695Y030755
X068445Y030805
X068389Y03106
X068695Y03106
X069Y03106
X067445Y030555
X050995Y0304
X051145Y0311
X049313Y031
X048945Y02865
X04874Y028226
X050095Y02835
Y02735
X049445Y02715
X048245Y0272
X048145Y02675
X048295Y02635
X048595Y02605
X048895Y02575
X049195Y02545
X049495Y02515
X049745Y0249
X049995Y02465
X050245Y0244
X050495Y02415
X050745Y0239
X050995Y02365
X051245Y0234
X051495Y0231
X051795Y02285
X052045Y02255
Y02215
Y0218
Y02145
Y02105
Y0207
Y02035
Y01995
Y01955
Y01915
Y01875
Y0183
Y0179
Y0175
Y0171
Y0167
Y0163
X052095Y016
X051445Y01605
Y01635
Y01665
Y017
Y0173
Y0176
Y01795
Y0183
Y01865
Y01895
Y0193
Y0197
Y02005
Y0204
Y02075
Y02115
Y02155
Y0219
Y0223
X051145Y0226
X050845Y0229
X050545Y0232
X050295Y02345
X050045Y02375
X049745Y02405
X049495Y0243
X049195Y02455
X048895Y0248
X048595Y0251
X048395Y02535
X048145Y0256
X047895Y02585
X047645Y02615
X047395Y02645
X047345Y02685
X047295Y0273
X046995Y0281
X047063Y01675
Y01645
X047363
Y01675
X050713Y01665
X050513Y01795
X050663Y01835
X050063Y0186
Y0157
X046795Y0187
X046295Y01865
X045795
X045813Y01915
X045445Y01925
X044945
X044495Y0194
X044395Y0186
X044713Y0187
X045263Y0186
X043495
X043095
Y01815
X042995Y01925
X043445
X043195Y0196
X043745
X042545Y01925
X041995Y01915
X042145Y0196
X041345Y01925
X040789Y019362
X039995Y0196
X039345Y0195
X039295Y01895
Y01815
X038445Y01835
X038695Y01765
X038795Y01725
X038695Y0167
X039195Y01675
X039545Y0171
X039745Y0175
X039695Y0165
X039445Y0163
X039045Y0162
X038645
X038245Y01615
X037845Y0161
X038145Y0167
X037495Y0168
X037645Y01745
X037695Y0187
X037745Y0197
X038845Y01965
X040412Y020335
X040445Y0214
X040245Y0229
X040345Y02395
X041895Y0236
X042345Y0242
X042245Y02575
X041895Y025863
X042045Y02635
X042395Y02685
X042745Y0258
X043295Y0255
X043545Y02235
X041695Y0188
X041145Y01715
X036995Y0164
X037045Y0159
X036495Y0161
X034195Y0164
X033545Y0178
X032745Y0175
X032295Y0173
X033445Y0192
X033895Y01935
X034845
Y01995
X035813Y0205
X036295Y0207
X036745Y0214
X037645Y02095
X038645Y0233
Y02525
X039995Y02705
X036295Y02865
Y02965
X034845Y0296
Y02865
X033845Y0287
X033195
X032095Y02875
X031995Y0305
X033795Y0295
X033695Y026665
X033813Y02565
X033542Y024735
X033762Y024433
X033745Y024
Y0235
X033695Y02255
X034595Y0225
X035195Y02355
Y024
X035395Y0252
X034845
X031863Y02525
X031444Y025231
X031463Y0257
X032567Y026031
X032663Y02645
X032263
Y02685
X032663
X031862Y026829
X031885Y0241
X031479Y024089
X031467Y023674
X032262Y023297
X032095Y02225
X031745
X031468Y022455
X032495Y02225
X032895Y0223
X033995Y0214
X032195Y02085
X034295Y0186
X035005Y0182
X035645
X046495Y0193
X046595Y0284
X046295Y02865
X045995Y029365
X046295Y0308
X045495Y0312
X044545Y031
X044045Y0308
X043595Y0306
X042695Y030415
X031063Y03075
X030695Y03055
X030395Y03015
X030345Y02845
X030095Y0286
X030645
X03029Y028029
X031095Y028
X031107Y02721
X03111Y026812
X031085Y026447
X030668Y026421
X030671Y026819
X030715Y027256
X029911Y027242
X029911Y026848
X029897Y026439
Y026046
X029879Y025631
X029891Y025252
X029888Y024855
X029904Y024474
X030284Y024459
X030298Y024081
X031085
X031077Y024466
X031079Y024865
X031092Y025667
X030723Y025494
X030674Y023667
X031085Y023687
X029893Y02368
X029908Y023297
X029117Y023293
X029089Y023654
X029491Y024453
X028323Y02448
X027745Y0246
X027845Y02535
X027736Y025842
X027045Y0259
Y02535
X026445Y0251
X025895Y0246
X025745Y02385
X025813Y023185
X025563Y023
X025863Y0226
X025813Y0223
X025513Y0221
X025213Y0219
X026063Y0215
X025631Y02075
X025613Y01995
X026695Y0202
X026763Y02095
X027781Y02075
X027763Y02
X029195Y02015
X029745Y0213
X028745Y02165
X028195
X027613Y0215
Y0227
X028113Y02275
X028723Y022528
X030845Y02265
X03107Y022391
X031095Y02105
X030213Y0187
Y0178
X023045
X023145Y0169
X023245Y0158
X022195Y0157
X022245Y0166
Y0174
Y0183
Y01915
X022195Y0201
X021045Y0203
X019695
X018295
X017245Y02005
X017195Y01885
X017245Y0178
X016095Y0183
X015895Y01725
X016645Y0165
X015795Y01565
X018245Y0187
X018745Y01875
X019295Y0188
X019995Y01875
X019815Y018234
X021045Y01755
X023145Y01875
X023045Y02205
X021013Y0221
X020963Y02345
X021913Y0239
X021963Y02485
X022063Y02525
Y0265
X021763Y0269
X020563Y02645
X018413Y026
Y02575
X018398Y025501
X018463Y02528
Y02505
Y02465
X018813Y0242
X019163Y02365
X019713Y02325
X019863Y0217
X018513Y02215
X018063Y02335
X016513Y02305
X015963Y02275
X015913Y0236
X016513Y02425
X017113Y02435
X016295Y02205
X023513Y02475
X026163Y02335
X027452Y026715
X02873Y026454
Y026046
X028716Y027621
X029124Y027635
X028995Y0286
X028993Y029748
X028195Y0301
Y029
X028322Y028029
X027063Y0282
X026163Y02825
Y02855
X025713Y0288
X025063Y029
X024563
Y02815
X025063Y0282
X026613Y02885
X026695Y0301
X014813Y0249
X014913Y0236
X014863Y0228
X014045Y03585
X016495Y0358
Y03535
X025545Y032768
Y031669
X027045
Y032719
X029713Y0325
X030445Y0355
X028095Y03625
X032645Y0361
Y0367
X033745Y0355
X035045Y03685
Y03305
X034013Y0319
X039795Y03445
Y0349
Y0369
X043895Y036265
X044395Y03625
X043745Y03425
X045495Y0338
X045045Y03325
X045995Y0349
X048045Y03605
X049095Y03635
X049745
X049313Y0319
X060545Y033755
X061195
X061845
X062445
X062395Y034855
X061845
X061195
X060545
X060495Y035955
X061195
X061795
X062395
Y037055
X061745
X061145
X060445
X062995
X063645
Y035955
X062995
X063045Y034855
X063745
Y033705
X063045Y033755
X064245Y036555
X066898Y036202
X067695Y034255
X067945Y031855
X068445Y031305
X068695Y031365
X068945Y031305
X069645Y032605
X070845Y032405
X07079Y03216
X071095Y03216
X071095Y032465
X071345Y032405
X071401Y03216
X071345Y031905
X071095Y031855
X070845Y031905
X072245Y031605
X072045Y032905
X072895Y033455
X072795Y035405
X070895Y035155
X075545Y035805
X076595Y035855
X079495Y035455
X079195Y037005
X078545Y037905
X082395Y034405
X081595Y032205
X082345Y031405
X082601Y03146
X082845Y031405
X083595Y031955
X084645Y033355
X084745Y035305
X086995Y035505
X088314Y03414
X090064Y03389
X090764Y03424
X091645Y035005
X092914Y03149
X093564Y03129
X095664Y03144
Y03194
Y03239
X096164Y03244
X096614
X096664Y03194
X09667Y03144
X096164
X096156Y031924
X098145Y032105
X098664Y03204
X09883Y033202
X09783Y032702
Y033702
X09738Y033302
X097314Y03404
X095496Y033658
X094696Y033208
X094564Y03439
X094495Y035005
X093914Y03479
X094114Y03564
X099595Y034205
X100464Y03394
T03
X016245Y0199
X018495Y0177
X020995Y018077
X022995Y0199
T04
X016995Y03655
X016595Y03695
X017145Y03725
X017595Y0369
X017645Y03625
X018295Y03615
X018245Y03675
X018795Y0369
X018945Y03625
X019495Y03655
X019345Y03725
X019895Y0371
X025845Y0367
X026545Y03655
X026195Y036
X026945Y03595
X026695Y03545
X031395Y03745
T05
X018295Y0158
X019295
X020295
X021295
X020795Y0168
X019795
X018795
X017795
T06
X067275Y012196
Y013196
Y014196
Y015196
Y016196
X032713Y0157
X031713
X030713
X029713
X028713
X027713
X094749Y035964
X095749
X096749
X097749
X098749
T07
X064995Y021025
Y022205
Y023385
T08
X065765Y019815
Y024595
T09
X016595Y0145
X022495
T10
X097795Y015955
X099095
Y021255
X097795
T11
X0118Y011795
X017295Y0133
X021795
X0558Y011795
X05925Y0118
X10325
X0118Y035795
X0558
X05925Y0358
X10325Y0358
M30
