G04*
G04 #@! TF.GenerationSoftware,Altium Limited,Altium Designer,20.1.14 (287)*
G04*
G04 Layer_Color=65535*
%FSLAX25Y25*%
%MOIN*%
G70*
G04*
G04 #@! TF.SameCoordinates,77D899AC-DA5C-4649-B6D6-03D989B7329D*
G04*
G04*
G04 #@! TF.FilePolarity,Positive*
G04*
G01*
G75*
%ADD10C,0.02362*%
%ADD11C,0.00984*%
%ADD12C,0.00787*%
%ADD13C,0.00600*%
%ADD14C,0.00800*%
G36*
X459244Y289569D02*
X459353D01*
Y289460D01*
X459461D01*
Y289352D01*
X459570D01*
Y289243D01*
Y289135D01*
X459678D01*
Y289026D01*
X459787D01*
Y288918D01*
Y288809D01*
X459896D01*
Y288700D01*
X460004D01*
Y288592D01*
Y288483D01*
X460113D01*
Y288375D01*
X460221D01*
Y288266D01*
X460330D01*
Y288158D01*
Y288049D01*
X460438D01*
Y287940D01*
X460547D01*
Y287832D01*
Y287723D01*
X460656D01*
Y287615D01*
X460764D01*
Y287506D01*
X460873D01*
Y287398D01*
Y287289D01*
X460981D01*
Y287180D01*
X461090D01*
Y287072D01*
Y286963D01*
X461199D01*
Y286855D01*
X461307D01*
Y286746D01*
X461416D01*
Y286637D01*
Y286529D01*
X461524D01*
Y286420D01*
X461633D01*
Y286312D01*
Y286203D01*
X461741D01*
Y286094D01*
X461850D01*
Y285986D01*
Y285877D01*
X461959D01*
Y285769D01*
X462067D01*
Y285660D01*
X462176D01*
Y285552D01*
Y285443D01*
X462284D01*
Y285334D01*
X462393D01*
Y285226D01*
Y285117D01*
X462501D01*
Y285009D01*
X462610D01*
Y284900D01*
Y284792D01*
X462719D01*
Y284683D01*
X462827D01*
Y284574D01*
X462936D01*
Y284466D01*
Y284357D01*
X463044D01*
Y284249D01*
X463153D01*
Y284140D01*
Y284032D01*
X463262D01*
Y283923D01*
X463370D01*
Y283814D01*
X463479D01*
Y283706D01*
Y283597D01*
X463587D01*
Y283489D01*
X463696D01*
Y283380D01*
Y283272D01*
X463804D01*
Y283163D01*
X463913D01*
Y283054D01*
Y282946D01*
X464022D01*
Y282837D01*
X464130D01*
Y282729D01*
X464239D01*
Y282620D01*
Y282511D01*
X464347D01*
Y282403D01*
X464456D01*
Y282294D01*
Y282186D01*
X464565D01*
Y282077D01*
X464673D01*
Y281968D01*
X464782D01*
Y281860D01*
Y281751D01*
X464890D01*
Y281643D01*
X464999D01*
Y281534D01*
Y281426D01*
X465107D01*
Y281317D01*
X465216D01*
Y281208D01*
Y281100D01*
X465325D01*
Y280991D01*
X465433D01*
Y280883D01*
X465542D01*
Y280774D01*
Y280665D01*
X465650D01*
Y280557D01*
X465759D01*
Y280448D01*
Y280340D01*
X465868D01*
Y280231D01*
X462067D01*
Y280340D01*
X461959D01*
Y280448D01*
Y280557D01*
X461850D01*
Y280665D01*
X461741D01*
Y280774D01*
Y280883D01*
X461633D01*
Y280991D01*
X461524D01*
Y281100D01*
X461416D01*
Y281208D01*
Y281317D01*
X461307D01*
Y281426D01*
X461199D01*
Y281534D01*
Y281643D01*
X461090D01*
Y281751D01*
X460981D01*
Y281860D01*
Y281968D01*
X460873D01*
Y282077D01*
X460764D01*
Y282186D01*
X460656D01*
Y282294D01*
Y282403D01*
X460547D01*
Y282511D01*
X460438D01*
Y282620D01*
Y282729D01*
X460330D01*
Y282837D01*
X460221D01*
Y282946D01*
Y283054D01*
X460113D01*
Y283163D01*
X460004D01*
Y283272D01*
X459896D01*
Y283380D01*
X460113D01*
Y283272D01*
X460330D01*
Y283163D01*
X460547D01*
Y283054D01*
X460656D01*
Y283163D01*
X460547D01*
Y283272D01*
Y283380D01*
X460438D01*
Y283489D01*
Y283597D01*
X460330D01*
Y283706D01*
Y283814D01*
X460221D01*
Y283923D01*
X460004D01*
Y284032D01*
X459787D01*
Y284140D01*
X459570D01*
Y284249D01*
X459461D01*
Y284357D01*
Y284466D01*
X459353D01*
Y284574D01*
X459244D01*
Y284683D01*
X459135D01*
Y284792D01*
X459027D01*
Y284900D01*
X458810D01*
Y285009D01*
X458593D01*
Y285117D01*
X458376D01*
Y285226D01*
X458267D01*
Y285117D01*
Y285009D01*
Y284900D01*
Y284792D01*
Y284683D01*
Y284574D01*
Y284466D01*
Y284357D01*
X458376D01*
Y284249D01*
Y284140D01*
Y284032D01*
X458484D01*
Y283923D01*
Y283814D01*
X458593D01*
Y283706D01*
Y283597D01*
X458701D01*
Y283489D01*
Y283380D01*
Y283272D01*
Y283163D01*
Y283054D01*
X458593D01*
Y282946D01*
X458701D01*
Y282837D01*
X458810D01*
Y282729D01*
X458918D01*
Y282620D01*
X459027D01*
Y282511D01*
Y282403D01*
X459135D01*
Y282294D01*
X459353D01*
Y282403D01*
Y282511D01*
Y282620D01*
Y282729D01*
Y282837D01*
X459461D01*
Y282729D01*
X459570D01*
Y282620D01*
Y282511D01*
X459678D01*
Y282403D01*
X459787D01*
Y282294D01*
Y282186D01*
X459896D01*
Y282077D01*
X460004D01*
Y281968D01*
Y281860D01*
X460113D01*
Y281751D01*
X460221D01*
Y281643D01*
Y281534D01*
X460330D01*
Y281426D01*
X460438D01*
Y281317D01*
Y281208D01*
X460547D01*
Y281100D01*
X460656D01*
Y280991D01*
Y280883D01*
X460764D01*
Y280774D01*
X460873D01*
Y280665D01*
Y280557D01*
X460981D01*
Y280448D01*
X461090D01*
Y280340D01*
Y280231D01*
X455552D01*
Y280340D01*
Y280448D01*
Y280557D01*
Y280665D01*
Y280774D01*
Y280883D01*
Y280991D01*
Y281100D01*
Y281208D01*
Y281317D01*
Y281426D01*
Y281534D01*
Y281643D01*
Y281751D01*
Y281860D01*
Y281968D01*
Y282077D01*
Y282186D01*
Y282294D01*
Y282403D01*
Y282511D01*
Y282620D01*
Y282729D01*
Y282837D01*
Y282946D01*
Y283054D01*
Y283163D01*
Y283272D01*
Y283380D01*
Y283489D01*
Y283597D01*
Y283706D01*
Y283814D01*
Y283923D01*
Y284032D01*
Y284140D01*
Y284249D01*
Y284357D01*
Y284466D01*
Y284574D01*
Y284683D01*
Y284792D01*
Y284900D01*
Y285009D01*
Y285117D01*
Y285226D01*
Y285334D01*
Y285443D01*
Y285552D01*
Y285660D01*
Y285769D01*
Y285877D01*
Y285986D01*
Y286094D01*
Y286203D01*
Y286312D01*
Y286420D01*
Y286529D01*
Y286637D01*
Y286746D01*
Y286855D01*
Y286963D01*
Y287072D01*
Y287180D01*
Y287289D01*
Y287398D01*
Y287506D01*
Y287615D01*
Y287723D01*
Y287832D01*
Y287940D01*
Y288049D01*
Y288158D01*
Y288266D01*
Y288375D01*
Y288483D01*
Y288592D01*
Y288700D01*
Y288809D01*
Y288918D01*
Y289026D01*
Y289135D01*
Y289243D01*
Y289352D01*
Y289460D01*
Y289569D01*
Y289678D01*
X459244D01*
Y289569D01*
D02*
G37*
G36*
X454901D02*
Y289460D01*
Y289352D01*
Y289243D01*
Y289135D01*
Y289026D01*
Y288918D01*
Y288809D01*
Y288700D01*
Y288592D01*
Y288483D01*
Y288375D01*
Y288266D01*
Y288158D01*
Y288049D01*
Y287940D01*
Y287832D01*
Y287723D01*
Y287615D01*
Y287506D01*
Y287398D01*
Y287289D01*
Y287180D01*
Y287072D01*
Y286963D01*
Y286855D01*
X446432D01*
Y286746D01*
Y286637D01*
Y286529D01*
Y286420D01*
X454901D01*
Y286312D01*
Y286203D01*
Y286094D01*
Y285986D01*
Y285877D01*
Y285769D01*
Y285660D01*
Y285552D01*
Y285443D01*
Y285334D01*
Y285226D01*
Y285117D01*
Y285009D01*
Y284900D01*
Y284792D01*
Y284683D01*
Y284574D01*
Y284466D01*
Y284357D01*
Y284249D01*
Y284140D01*
Y284032D01*
Y283923D01*
Y283814D01*
Y283706D01*
Y283597D01*
Y283489D01*
Y283380D01*
Y283272D01*
Y283163D01*
Y283054D01*
Y282946D01*
Y282837D01*
Y282729D01*
Y282620D01*
Y282511D01*
Y282403D01*
Y282294D01*
Y282186D01*
Y282077D01*
Y281968D01*
Y281860D01*
Y281751D01*
Y281643D01*
Y281534D01*
Y281426D01*
Y281317D01*
Y281208D01*
Y281100D01*
Y280991D01*
Y280883D01*
Y280774D01*
Y280665D01*
Y280557D01*
Y280448D01*
Y280340D01*
Y280231D01*
X443500D01*
Y280340D01*
Y280448D01*
Y280557D01*
Y280665D01*
Y280774D01*
Y280883D01*
Y280991D01*
Y281100D01*
Y281208D01*
Y281317D01*
Y281426D01*
Y281534D01*
Y281643D01*
Y281751D01*
Y281860D01*
Y281968D01*
Y282077D01*
Y282186D01*
Y282294D01*
Y282403D01*
Y282511D01*
Y282620D01*
Y282729D01*
Y282837D01*
Y282946D01*
Y283054D01*
Y283163D01*
X451969D01*
Y283272D01*
Y283380D01*
Y283489D01*
X443500D01*
Y283597D01*
Y283706D01*
Y283814D01*
Y283923D01*
Y284032D01*
Y284140D01*
Y284249D01*
Y284357D01*
Y284466D01*
Y284574D01*
Y284683D01*
Y284792D01*
Y284900D01*
Y285009D01*
Y285117D01*
Y285226D01*
Y285334D01*
Y285443D01*
Y285552D01*
Y285660D01*
Y285769D01*
Y285877D01*
Y285986D01*
Y286094D01*
Y286203D01*
Y286312D01*
Y286420D01*
Y286529D01*
Y286637D01*
Y286746D01*
Y286855D01*
Y286963D01*
Y287072D01*
Y287180D01*
Y287289D01*
Y287398D01*
Y287506D01*
Y287615D01*
Y287723D01*
Y287832D01*
Y287940D01*
Y288049D01*
Y288158D01*
Y288266D01*
Y288375D01*
Y288483D01*
Y288592D01*
Y288700D01*
Y288809D01*
Y288918D01*
Y289026D01*
Y289135D01*
Y289243D01*
Y289352D01*
Y289460D01*
Y289569D01*
Y289678D01*
X454901D01*
Y289569D01*
D02*
G37*
G36*
X442848D02*
Y289460D01*
Y289352D01*
Y289243D01*
Y289135D01*
Y289026D01*
Y288918D01*
Y288809D01*
Y288700D01*
Y288592D01*
Y288483D01*
Y288375D01*
Y288266D01*
Y288158D01*
Y288049D01*
Y287940D01*
Y287832D01*
Y287723D01*
Y287615D01*
Y287506D01*
Y287398D01*
Y287289D01*
Y287180D01*
Y287072D01*
Y286963D01*
Y286855D01*
Y286746D01*
Y286637D01*
Y286529D01*
Y286420D01*
Y286312D01*
Y286203D01*
Y286094D01*
Y285986D01*
Y285877D01*
Y285769D01*
Y285660D01*
Y285552D01*
Y285443D01*
Y285334D01*
Y285226D01*
Y285117D01*
Y285009D01*
Y284900D01*
Y284792D01*
Y284683D01*
Y284574D01*
Y284466D01*
Y284357D01*
Y284249D01*
Y284140D01*
Y284032D01*
Y283923D01*
Y283814D01*
Y283706D01*
Y283597D01*
Y283489D01*
Y283380D01*
Y283272D01*
Y283163D01*
Y283054D01*
Y282946D01*
Y282837D01*
Y282729D01*
Y282620D01*
Y282511D01*
Y282403D01*
Y282294D01*
Y282186D01*
Y282077D01*
Y281968D01*
Y281860D01*
Y281751D01*
Y281643D01*
Y281534D01*
Y281426D01*
Y281317D01*
Y281208D01*
Y281100D01*
Y280991D01*
Y280883D01*
Y280774D01*
Y280665D01*
Y280557D01*
Y280448D01*
Y280340D01*
Y280231D01*
X437094D01*
Y280340D01*
X437202D01*
Y280448D01*
Y280557D01*
X437311D01*
Y280665D01*
X437420D01*
Y280774D01*
Y280883D01*
X437528D01*
Y280991D01*
X437637D01*
Y281100D01*
X437745D01*
Y281208D01*
Y281317D01*
X437854D01*
Y281426D01*
X437962D01*
Y281534D01*
Y281643D01*
X438071D01*
Y281751D01*
X438180D01*
Y281860D01*
X438288D01*
Y281968D01*
Y282077D01*
X438397D01*
Y282186D01*
X438505D01*
Y282294D01*
X438614D01*
Y282403D01*
Y282511D01*
X438723D01*
Y282620D01*
X438831D01*
Y282729D01*
Y282837D01*
X438940D01*
Y282946D01*
X439048D01*
Y283054D01*
X439157D01*
Y283163D01*
X440025D01*
Y283272D01*
Y283380D01*
Y283489D01*
Y283597D01*
Y283706D01*
Y283814D01*
Y283923D01*
Y284032D01*
Y284140D01*
Y284249D01*
Y284357D01*
Y284466D01*
Y284574D01*
Y284683D01*
Y284792D01*
Y284900D01*
Y285009D01*
Y285117D01*
Y285226D01*
Y285334D01*
Y285443D01*
Y285552D01*
X439917D01*
Y285443D01*
Y285334D01*
X439808D01*
Y285226D01*
X439700D01*
Y285117D01*
Y285009D01*
X439591D01*
Y284900D01*
X439482D01*
Y284792D01*
X439374D01*
Y284683D01*
Y284574D01*
X439265D01*
Y284466D01*
X439157D01*
Y284357D01*
Y284249D01*
X439048D01*
Y284140D01*
X438940D01*
Y284032D01*
Y283923D01*
X438831D01*
Y283814D01*
X438723D01*
Y283706D01*
Y283597D01*
X438614D01*
Y283489D01*
X438505D01*
Y283380D01*
Y283272D01*
X438397D01*
Y283163D01*
X438288D01*
Y283054D01*
X438180D01*
Y282946D01*
Y282837D01*
X438071D01*
Y282729D01*
X437962D01*
Y282620D01*
Y282511D01*
X437854D01*
Y282403D01*
X437745D01*
Y282294D01*
Y282186D01*
X437637D01*
Y282077D01*
X437528D01*
Y281968D01*
Y281860D01*
X437420D01*
Y281751D01*
X437311D01*
Y281643D01*
Y281534D01*
X437202D01*
Y281426D01*
X437094D01*
Y281317D01*
X436985D01*
Y281208D01*
Y281100D01*
X436877D01*
Y280991D01*
X436768D01*
Y280883D01*
Y280774D01*
X436659D01*
Y280665D01*
X436551D01*
Y280557D01*
Y280448D01*
X436442D01*
Y280340D01*
X436334D01*
Y280231D01*
X432425D01*
Y280340D01*
X432533D01*
Y280448D01*
Y280557D01*
X432642D01*
Y280665D01*
X432751D01*
Y280774D01*
X432859D01*
Y280883D01*
Y280991D01*
X432968D01*
Y281100D01*
X433076D01*
Y281208D01*
Y281317D01*
X433185D01*
Y281426D01*
X433293D01*
Y281534D01*
Y281643D01*
X433402D01*
Y281751D01*
X433511D01*
Y281860D01*
X433619D01*
Y281968D01*
Y282077D01*
X433728D01*
Y282186D01*
X433836D01*
Y282294D01*
Y282403D01*
X433945D01*
Y282511D01*
X434054D01*
Y282620D01*
Y282729D01*
X434162D01*
Y282837D01*
X434271D01*
Y282946D01*
X434379D01*
Y283054D01*
Y283163D01*
X434488D01*
Y283272D01*
X434596D01*
Y283380D01*
Y283489D01*
X434705D01*
Y283597D01*
X434814D01*
Y283706D01*
Y283814D01*
X434922D01*
Y283923D01*
X435031D01*
Y284032D01*
Y284140D01*
X435139D01*
Y284249D01*
X435248D01*
Y284357D01*
X435357D01*
Y284466D01*
Y284574D01*
X435465D01*
Y284683D01*
X435574D01*
Y284792D01*
Y284900D01*
X435682D01*
Y285009D01*
X435791D01*
Y285117D01*
X435899D01*
Y285226D01*
Y285334D01*
X436008D01*
Y285443D01*
X436117D01*
Y285552D01*
Y285660D01*
X436225D01*
Y285769D01*
X436334D01*
Y285877D01*
Y285986D01*
X436442D01*
Y286094D01*
X436551D01*
Y286203D01*
X436659D01*
Y286312D01*
Y286420D01*
X436768D01*
Y286529D01*
X436877D01*
Y286637D01*
Y286746D01*
X436985D01*
Y286855D01*
X423521D01*
Y286963D01*
X423630D01*
Y287072D01*
Y287180D01*
X423738D01*
Y287289D01*
X423847D01*
Y287398D01*
Y287506D01*
X423956D01*
Y287615D01*
X424064D01*
Y287723D01*
X424173D01*
Y287832D01*
Y287940D01*
X424281D01*
Y288049D01*
X424390D01*
Y288158D01*
Y288266D01*
X424499D01*
Y288375D01*
X424607D01*
Y288483D01*
Y288592D01*
X424716D01*
Y288700D01*
X424824D01*
Y288809D01*
Y288918D01*
X424933D01*
Y289026D01*
X425041D01*
Y289135D01*
X425150D01*
Y289243D01*
Y289352D01*
X425259D01*
Y289460D01*
X425367D01*
Y289569D01*
Y289678D01*
X442848D01*
Y289569D01*
D02*
G37*
G36*
X435791Y286094D02*
X435682D01*
Y285986D01*
Y285877D01*
X435574D01*
Y285769D01*
X435465D01*
Y285660D01*
Y285552D01*
X435357D01*
Y285443D01*
X435248D01*
Y285334D01*
X435139D01*
Y285226D01*
Y285117D01*
X435031D01*
Y285009D01*
X434922D01*
Y284900D01*
Y284792D01*
X434814D01*
Y284683D01*
X434705D01*
Y284574D01*
X434596D01*
Y284466D01*
Y284357D01*
X434488D01*
Y284249D01*
X434379D01*
Y284140D01*
Y284032D01*
X434271D01*
Y283923D01*
X434162D01*
Y283814D01*
Y283706D01*
X434054D01*
Y283597D01*
X433945D01*
Y283489D01*
Y283380D01*
X433836D01*
Y283272D01*
X433728D01*
Y283163D01*
X433619D01*
Y283054D01*
Y282946D01*
X433511D01*
Y282837D01*
X433402D01*
Y282729D01*
Y282620D01*
X433293D01*
Y282511D01*
X433185D01*
Y282403D01*
X433076D01*
Y282294D01*
Y282186D01*
X432968D01*
Y282077D01*
X432859D01*
Y281968D01*
Y281860D01*
X432751D01*
Y281751D01*
X432642D01*
Y281643D01*
Y281534D01*
X432533D01*
Y281426D01*
X432425D01*
Y281317D01*
Y281208D01*
X432316D01*
Y281100D01*
X432208D01*
Y280991D01*
X432099D01*
Y280883D01*
Y280774D01*
X431990D01*
Y280665D01*
X431882D01*
Y280557D01*
Y280448D01*
X431773D01*
Y280340D01*
X431665D01*
Y280231D01*
X427865D01*
Y280340D01*
X427973D01*
Y280448D01*
X428082D01*
Y280557D01*
Y280665D01*
X428190D01*
Y280774D01*
X428299D01*
Y280883D01*
X428407D01*
Y280991D01*
Y281100D01*
X428516D01*
Y281208D01*
X428624D01*
Y281317D01*
Y281426D01*
X428733D01*
Y281534D01*
X428842D01*
Y281643D01*
Y281751D01*
X428950D01*
Y281860D01*
X429059D01*
Y281968D01*
Y282077D01*
X429167D01*
Y282186D01*
X429276D01*
Y282294D01*
X429385D01*
Y282403D01*
Y282511D01*
X429493D01*
Y282620D01*
X429602D01*
Y282729D01*
X429710D01*
Y282837D01*
Y282946D01*
X429819D01*
Y283054D01*
X429927D01*
Y283163D01*
Y283272D01*
X430036D01*
Y283380D01*
X430145D01*
Y283489D01*
Y283597D01*
X430253D01*
Y283706D01*
X430362D01*
Y283814D01*
X430470D01*
Y283923D01*
Y284032D01*
X430579D01*
Y284140D01*
X430688D01*
Y284249D01*
Y284357D01*
X430796D01*
Y284466D01*
X430905D01*
Y284574D01*
X431013D01*
Y284683D01*
Y284792D01*
X431122D01*
Y284900D01*
X431230D01*
Y285009D01*
Y285117D01*
X431339D01*
Y285226D01*
X431448D01*
Y285334D01*
X431556D01*
Y285443D01*
Y285552D01*
X431665D01*
Y285660D01*
X431773D01*
Y285769D01*
Y285877D01*
X431882D01*
Y285986D01*
X431990D01*
Y286094D01*
Y286203D01*
X435791D01*
Y286094D01*
D02*
G37*
G36*
X431230D02*
X431122D01*
Y285986D01*
X431013D01*
Y285877D01*
Y285769D01*
X430905D01*
Y285660D01*
X430796D01*
Y285552D01*
Y285443D01*
X430688D01*
Y285334D01*
X430579D01*
Y285226D01*
Y285117D01*
X430470D01*
Y285009D01*
X430362D01*
Y284900D01*
X430253D01*
Y284792D01*
Y284683D01*
X430145D01*
Y284574D01*
X430036D01*
Y284466D01*
Y284357D01*
X429927D01*
Y284249D01*
X429819D01*
Y284140D01*
Y284032D01*
X429710D01*
Y283923D01*
X429602D01*
Y283814D01*
X429493D01*
Y283706D01*
Y283597D01*
X429385D01*
Y283489D01*
X429276D01*
Y283380D01*
Y283272D01*
X429167D01*
Y283163D01*
X429059D01*
Y283054D01*
Y282946D01*
X428950D01*
Y282837D01*
X428842D01*
Y282729D01*
X428733D01*
Y282620D01*
Y282511D01*
X428624D01*
Y282403D01*
X428516D01*
Y282294D01*
Y282186D01*
X428407D01*
Y282077D01*
X428299D01*
Y281968D01*
Y281860D01*
X428190D01*
Y281751D01*
X428082D01*
Y281643D01*
X427973D01*
Y281534D01*
Y281426D01*
X427865D01*
Y281317D01*
X427756D01*
Y281208D01*
Y281100D01*
X427647D01*
Y280991D01*
X427539D01*
Y280883D01*
Y280774D01*
X427430D01*
Y280665D01*
X427322D01*
Y280557D01*
X427213D01*
Y280448D01*
Y280340D01*
X427104D01*
Y280231D01*
X423304D01*
Y280340D01*
X423413D01*
Y280448D01*
Y280557D01*
X423521D01*
Y280665D01*
X423630D01*
Y280774D01*
X423738D01*
Y280883D01*
Y280991D01*
X423847D01*
Y281100D01*
X423956D01*
Y281208D01*
Y281317D01*
X424064D01*
Y281426D01*
X424173D01*
Y281534D01*
X424281D01*
Y281643D01*
Y281751D01*
X424390D01*
Y281860D01*
X424499D01*
Y281968D01*
Y282077D01*
X424607D01*
Y282186D01*
X424716D01*
Y282294D01*
X424824D01*
Y282403D01*
Y282511D01*
X424933D01*
Y282620D01*
X425041D01*
Y282729D01*
Y282837D01*
X425150D01*
Y282946D01*
X425259D01*
Y283054D01*
Y283163D01*
X425367D01*
Y283272D01*
X425476D01*
Y283380D01*
X425584D01*
Y283489D01*
Y283597D01*
X425693D01*
Y283706D01*
X425802D01*
Y283814D01*
Y283923D01*
X425910D01*
Y284032D01*
X426019D01*
Y284140D01*
X426127D01*
Y284249D01*
Y284357D01*
X426236D01*
Y284466D01*
X426344D01*
Y284574D01*
Y284683D01*
X426453D01*
Y284792D01*
X426561D01*
Y284900D01*
X426670D01*
Y285009D01*
Y285117D01*
X426779D01*
Y285226D01*
X426887D01*
Y285334D01*
Y285443D01*
X426996D01*
Y285552D01*
X427104D01*
Y285660D01*
X427213D01*
Y285769D01*
Y285877D01*
X427322D01*
Y285986D01*
X427430D01*
Y286094D01*
Y286203D01*
X431230D01*
Y286094D01*
D02*
G37*
G36*
X426670D02*
Y285986D01*
X426561D01*
Y285877D01*
X426453D01*
Y285769D01*
X426344D01*
Y285660D01*
Y285552D01*
X426236D01*
Y285443D01*
X426127D01*
Y285334D01*
Y285226D01*
X426019D01*
Y285117D01*
X425910D01*
Y285009D01*
Y284900D01*
X425802D01*
Y284792D01*
X425693D01*
Y284683D01*
X425584D01*
Y284574D01*
Y284466D01*
X425476D01*
Y284357D01*
X425367D01*
Y284249D01*
Y284140D01*
X425259D01*
Y284032D01*
X425150D01*
Y283923D01*
Y283814D01*
X425041D01*
Y283706D01*
X424933D01*
Y283597D01*
X424824D01*
Y283489D01*
Y283380D01*
X424716D01*
Y283272D01*
X424607D01*
Y283163D01*
Y283054D01*
X424499D01*
Y282946D01*
X424390D01*
Y282837D01*
Y282729D01*
X424281D01*
Y282620D01*
X424173D01*
Y282511D01*
X424064D01*
Y282403D01*
Y282294D01*
X423956D01*
Y282186D01*
X423847D01*
Y282077D01*
Y281968D01*
X423738D01*
Y281860D01*
X423630D01*
Y281751D01*
Y281643D01*
X423521D01*
Y281534D01*
X423413D01*
Y281426D01*
X423304D01*
Y281317D01*
Y281208D01*
X423196D01*
Y281100D01*
X423087D01*
Y280991D01*
Y280883D01*
X422978D01*
Y280774D01*
X422870D01*
Y280665D01*
Y280557D01*
X422761D01*
Y280448D01*
X422653D01*
Y280340D01*
X422544D01*
Y280231D01*
X418852D01*
Y280340D01*
Y280448D01*
X418961D01*
Y280557D01*
X419069D01*
Y280665D01*
Y280774D01*
X419178D01*
Y280883D01*
X419287D01*
Y280991D01*
Y281100D01*
X419395D01*
Y281208D01*
X419504D01*
Y281317D01*
X419612D01*
Y281426D01*
Y281534D01*
X419721D01*
Y281643D01*
X419830D01*
Y281751D01*
Y281860D01*
X419938D01*
Y281968D01*
X420047D01*
Y282077D01*
X420155D01*
Y282186D01*
Y282294D01*
X420264D01*
Y282403D01*
X420372D01*
Y282511D01*
Y282620D01*
X420481D01*
Y282729D01*
X420590D01*
Y282837D01*
Y282946D01*
X420698D01*
Y283054D01*
X420807D01*
Y283163D01*
X420915D01*
Y283272D01*
Y283380D01*
X421024D01*
Y283489D01*
X421133D01*
Y283597D01*
Y283706D01*
X421241D01*
Y283814D01*
X421350D01*
Y283923D01*
X421458D01*
Y284032D01*
Y284140D01*
X421567D01*
Y284249D01*
X421675D01*
Y284357D01*
Y284466D01*
X421784D01*
Y284574D01*
X421893D01*
Y284683D01*
X422001D01*
Y284792D01*
Y284900D01*
X422110D01*
Y285009D01*
X422218D01*
Y285117D01*
Y285226D01*
X422327D01*
Y285334D01*
X422436D01*
Y285443D01*
X422544D01*
Y285552D01*
Y285660D01*
X422653D01*
Y285769D01*
X422761D01*
Y285877D01*
Y285986D01*
X422870D01*
Y286094D01*
X422978D01*
Y286203D01*
X426670D01*
Y286094D01*
D02*
G37*
G36*
X460981Y278711D02*
Y278603D01*
Y278494D01*
Y278385D01*
Y278277D01*
Y278168D01*
Y278060D01*
Y277951D01*
Y277842D01*
Y277734D01*
Y277625D01*
Y277517D01*
Y277408D01*
Y277299D01*
Y277191D01*
Y277082D01*
X460764D01*
Y277191D01*
X460656D01*
Y277299D01*
Y277408D01*
X460547D01*
Y277517D01*
X460438D01*
Y277625D01*
Y277734D01*
X460330D01*
Y277842D01*
X460221D01*
Y277951D01*
Y278060D01*
X460113D01*
Y278168D01*
X460004D01*
Y278277D01*
Y278385D01*
X459896D01*
Y278277D01*
Y278168D01*
Y278060D01*
Y277951D01*
Y277842D01*
Y277734D01*
Y277625D01*
Y277517D01*
Y277408D01*
Y277299D01*
Y277191D01*
Y277082D01*
X459678D01*
Y277191D01*
Y277299D01*
Y277408D01*
Y277517D01*
Y277625D01*
Y277734D01*
Y277842D01*
Y277951D01*
Y278060D01*
Y278168D01*
Y278277D01*
Y278385D01*
Y278494D01*
Y278603D01*
Y278711D01*
Y278820D01*
X460004D01*
Y278711D01*
Y278603D01*
X460113D01*
Y278494D01*
X460221D01*
Y278385D01*
Y278277D01*
X460330D01*
Y278168D01*
X460438D01*
Y278060D01*
Y277951D01*
X460547D01*
Y277842D01*
X460656D01*
Y277734D01*
Y277625D01*
X460764D01*
Y277734D01*
Y277842D01*
Y277951D01*
Y278060D01*
Y278168D01*
Y278277D01*
Y278385D01*
Y278494D01*
Y278603D01*
Y278711D01*
Y278820D01*
X460981D01*
Y278711D01*
D02*
G37*
G36*
X455552D02*
X455661D01*
Y278603D01*
Y278494D01*
Y278385D01*
X455769D01*
Y278277D01*
Y278168D01*
X455661D01*
Y278060D01*
Y277951D01*
X455552D01*
Y277842D01*
X455444D01*
Y277734D01*
Y277625D01*
X455552D01*
Y277517D01*
Y277408D01*
X455661D01*
Y277299D01*
Y277191D01*
X455769D01*
Y277082D01*
X455444D01*
Y277191D01*
Y277299D01*
Y277408D01*
X455335D01*
Y277517D01*
Y277625D01*
X455227D01*
Y277734D01*
X455118D01*
Y277842D01*
X454792D01*
Y277734D01*
Y277625D01*
Y277517D01*
Y277408D01*
Y277299D01*
Y277191D01*
Y277082D01*
X454467D01*
Y277191D01*
Y277299D01*
Y277408D01*
Y277517D01*
Y277625D01*
Y277734D01*
Y277842D01*
Y277951D01*
Y278060D01*
Y278168D01*
Y278277D01*
Y278385D01*
Y278494D01*
Y278603D01*
Y278711D01*
Y278820D01*
X455552D01*
Y278711D01*
D02*
G37*
G36*
X450015Y278820D02*
X450341D01*
Y278711D01*
X450449D01*
Y278603D01*
X450558D01*
Y278494D01*
Y278385D01*
Y278277D01*
Y278168D01*
Y278060D01*
Y277951D01*
Y277842D01*
Y277734D01*
Y277625D01*
Y277517D01*
Y277408D01*
Y277299D01*
X450449D01*
Y277191D01*
X450341D01*
Y277082D01*
X449472D01*
Y277191D01*
X449363D01*
Y277299D01*
X449255D01*
Y277408D01*
Y277517D01*
Y277625D01*
Y277734D01*
Y277842D01*
Y277951D01*
Y278060D01*
Y278168D01*
Y278277D01*
Y278385D01*
Y278494D01*
Y278603D01*
X449363D01*
Y278711D01*
X449472D01*
Y278820D01*
X449798D01*
Y278928D01*
X450015D01*
Y278820D01*
D02*
G37*
G36*
X445129Y278711D02*
X445237D01*
Y278603D01*
Y278494D01*
X445346D01*
Y278385D01*
Y278277D01*
X445237D01*
Y278168D01*
Y278060D01*
X445129D01*
Y277951D01*
X445237D01*
Y277842D01*
Y277734D01*
X445346D01*
Y277625D01*
Y277517D01*
Y277408D01*
X445237D01*
Y277299D01*
Y277191D01*
X445129D01*
Y277082D01*
X444151D01*
Y277191D01*
Y277299D01*
Y277408D01*
Y277517D01*
Y277625D01*
Y277734D01*
Y277842D01*
Y277951D01*
Y278060D01*
Y278168D01*
Y278277D01*
Y278385D01*
Y278494D01*
Y278603D01*
Y278711D01*
Y278820D01*
X445129D01*
Y278711D01*
D02*
G37*
G36*
X440025D02*
X440134D01*
Y278603D01*
Y278494D01*
Y278385D01*
Y278277D01*
Y278168D01*
Y278060D01*
Y277951D01*
X440025D01*
Y277842D01*
X439917D01*
Y277734D01*
Y277625D01*
X440025D01*
Y277517D01*
Y277408D01*
X440134D01*
Y277299D01*
Y277191D01*
X440243D01*
Y277082D01*
X439917D01*
Y277191D01*
Y277299D01*
X439808D01*
Y277408D01*
Y277517D01*
X439700D01*
Y277625D01*
Y277734D01*
X439591D01*
Y277842D01*
X439157D01*
Y277734D01*
Y277625D01*
Y277517D01*
Y277408D01*
Y277299D01*
Y277191D01*
Y277082D01*
X438940D01*
Y277191D01*
Y277299D01*
Y277408D01*
Y277517D01*
Y277625D01*
Y277734D01*
Y277842D01*
Y277951D01*
Y278060D01*
Y278168D01*
Y278277D01*
Y278385D01*
Y278494D01*
Y278603D01*
Y278711D01*
Y278820D01*
X440025D01*
Y278711D01*
D02*
G37*
G36*
X434488D02*
X434596D01*
Y278603D01*
Y278494D01*
Y278385D01*
X434705D01*
Y278277D01*
Y278168D01*
X434814D01*
Y278060D01*
Y277951D01*
Y277842D01*
X434922D01*
Y277734D01*
Y277625D01*
Y277517D01*
X435031D01*
Y277408D01*
Y277299D01*
Y277191D01*
X435139D01*
Y277082D01*
X434814D01*
Y277191D01*
Y277299D01*
Y277408D01*
X434705D01*
Y277517D01*
X434054D01*
Y277408D01*
X433945D01*
Y277299D01*
Y277191D01*
Y277082D01*
X433619D01*
Y277191D01*
Y277299D01*
X433728D01*
Y277408D01*
Y277517D01*
X433836D01*
Y277625D01*
Y277734D01*
Y277842D01*
X433945D01*
Y277951D01*
Y278060D01*
Y278168D01*
X434054D01*
Y278277D01*
Y278385D01*
Y278494D01*
X434162D01*
Y278603D01*
Y278711D01*
X434271D01*
Y278820D01*
X434488D01*
Y278711D01*
D02*
G37*
G36*
X429819D02*
X429710D01*
Y278603D01*
X428842D01*
Y278494D01*
Y278385D01*
Y278277D01*
Y278168D01*
Y278060D01*
X429710D01*
Y277951D01*
X429602D01*
Y277842D01*
X428842D01*
Y277734D01*
Y277625D01*
Y277517D01*
Y277408D01*
X428950D01*
Y277299D01*
X429819D01*
Y277191D01*
X429710D01*
Y277082D01*
X428733D01*
Y277191D01*
X428624D01*
Y277299D01*
Y277408D01*
Y277517D01*
Y277625D01*
Y277734D01*
Y277842D01*
Y277951D01*
Y278060D01*
Y278168D01*
Y278277D01*
Y278385D01*
Y278494D01*
Y278603D01*
Y278711D01*
X428733D01*
Y278820D01*
X429819D01*
Y278711D01*
D02*
G37*
G36*
X424390D02*
X424499D01*
Y278603D01*
X424607D01*
Y278494D01*
Y278385D01*
X424716D01*
Y278277D01*
Y278168D01*
Y278060D01*
Y277951D01*
Y277842D01*
Y277734D01*
Y277625D01*
X424607D01*
Y277517D01*
Y277408D01*
Y277299D01*
X424499D01*
Y277191D01*
X424281D01*
Y277082D01*
X423413D01*
Y277191D01*
Y277299D01*
Y277408D01*
Y277517D01*
Y277625D01*
Y277734D01*
Y277842D01*
Y277951D01*
Y278060D01*
Y278168D01*
Y278277D01*
Y278385D01*
Y278494D01*
Y278603D01*
Y278711D01*
Y278820D01*
X424390D01*
Y278711D01*
D02*
G37*
%LPC*%
G36*
X455444Y278603D02*
X454792D01*
Y278494D01*
Y278385D01*
Y278277D01*
Y278168D01*
Y278060D01*
X455444D01*
Y278168D01*
Y278277D01*
Y278385D01*
Y278494D01*
Y278603D01*
D02*
G37*
G36*
X450232D02*
X449580D01*
Y278494D01*
X449472D01*
Y278385D01*
Y278277D01*
Y278168D01*
Y278060D01*
Y277951D01*
Y277842D01*
Y277734D01*
Y277625D01*
Y277517D01*
Y277408D01*
X449580D01*
Y277299D01*
X450232D01*
Y277408D01*
X450341D01*
Y277517D01*
Y277625D01*
Y277734D01*
Y277842D01*
Y277951D01*
Y278060D01*
Y278168D01*
Y278277D01*
Y278385D01*
Y278494D01*
X450232D01*
Y278603D01*
D02*
G37*
G36*
X445020D02*
X444369D01*
Y278494D01*
Y278385D01*
Y278277D01*
Y278168D01*
X445020D01*
Y278277D01*
Y278385D01*
Y278494D01*
Y278603D01*
D02*
G37*
G36*
Y277842D02*
X444369D01*
Y277734D01*
Y277625D01*
Y277517D01*
Y277408D01*
Y277299D01*
X445020D01*
Y277408D01*
Y277517D01*
X445129D01*
Y277625D01*
X445020D01*
Y277734D01*
Y277842D01*
D02*
G37*
G36*
X439917Y278603D02*
X439157D01*
Y278494D01*
Y278385D01*
Y278277D01*
Y278168D01*
Y278060D01*
X439917D01*
Y278168D01*
Y278277D01*
Y278385D01*
Y278494D01*
Y278603D01*
D02*
G37*
G36*
X434488Y278385D02*
X434271D01*
Y278277D01*
Y278168D01*
Y278060D01*
X434162D01*
Y277951D01*
Y277842D01*
Y277734D01*
X434596D01*
Y277842D01*
Y277951D01*
Y278060D01*
X434488D01*
Y278168D01*
Y278277D01*
Y278385D01*
D02*
G37*
G36*
X424281Y278603D02*
X423630D01*
Y278494D01*
Y278385D01*
Y278277D01*
Y278168D01*
Y278060D01*
Y277951D01*
Y277842D01*
Y277734D01*
Y277625D01*
Y277517D01*
Y277408D01*
Y277299D01*
X424281D01*
Y277408D01*
X424390D01*
Y277517D01*
Y277625D01*
Y277734D01*
X424499D01*
Y277842D01*
Y277951D01*
Y278060D01*
Y278168D01*
Y278277D01*
X424390D01*
Y278385D01*
Y278494D01*
X424281D01*
Y278603D01*
D02*
G37*
%LPD*%
D10*
X517693Y234673D02*
X517248Y235597D01*
X516249Y235825D01*
X515448Y235186D01*
Y234161D01*
X516249Y233522D01*
X517248Y233750D01*
X517693Y234673D01*
D11*
X525665Y230933D02*
X524927Y231359D01*
Y230507D01*
X525665Y230933D01*
X428012Y205012D02*
X427274Y205438D01*
Y204586D01*
X428012Y205012D01*
D12*
X668000Y138500D02*
X678000D01*
X668000D02*
Y168500D01*
X678000D01*
Y138500D02*
Y168500D01*
X501551Y260264D02*
X520449D01*
X501551Y230736D02*
X520449D01*
X501551D02*
Y260264D01*
X520449Y230736D02*
Y260264D01*
X515563Y210941D02*
Y216059D01*
X403031Y171591D02*
X406968D01*
X403031Y170409D02*
Y171591D01*
X406968Y170409D02*
Y171591D01*
X402441Y151000D02*
X407559D01*
X402941Y131000D02*
X408059D01*
X453941Y131063D02*
X459059D01*
X426941Y131000D02*
X432059D01*
X384500Y260500D02*
X394500D01*
X384500D02*
Y280500D01*
X394500D01*
Y260500D02*
Y280500D01*
X420532Y205898D02*
X424469D01*
X420532Y218102D02*
X424469D01*
Y205898D02*
Y218102D01*
X420532Y205898D02*
Y218102D01*
X446000Y230441D02*
Y235559D01*
X431441Y188000D02*
X436559D01*
X460811Y183744D02*
X462189D01*
X467406Y185811D02*
Y189256D01*
X455594D02*
X458449D01*
X464551D02*
X467406D01*
X455594Y185811D02*
Y189256D01*
X400000Y243941D02*
Y249059D01*
X400500Y223941D02*
Y229059D01*
X453500Y209441D02*
Y214559D01*
X517531Y326590D02*
X521468D01*
X517531Y325410D02*
Y326590D01*
X521468Y325410D02*
Y326590D01*
X537032D02*
X540969D01*
X537032Y325410D02*
Y326590D01*
X540969Y325410D02*
Y326590D01*
X559031D02*
X562968D01*
X559031Y325410D02*
Y326590D01*
X562968Y325410D02*
Y326590D01*
X580532D02*
X584469D01*
X580532Y325410D02*
Y326590D01*
X584469Y325410D02*
Y326590D01*
X601532D02*
X605469D01*
X601532Y325410D02*
Y326590D01*
X605469Y325410D02*
Y326590D01*
X624031Y327091D02*
X627969D01*
X624031Y325909D02*
Y327091D01*
X627969Y325909D02*
Y327091D01*
X646531Y326590D02*
X650468D01*
X646531Y325410D02*
Y326590D01*
X650468Y325410D02*
Y326590D01*
X669531D02*
X673468D01*
X669531Y325410D02*
Y326590D01*
X673468Y325410D02*
Y326590D01*
X668941Y300500D02*
X674059D01*
X645941D02*
X651059D01*
X623441D02*
X628559D01*
X600941Y301000D02*
X606059D01*
X579941Y300937D02*
X585059D01*
X558551D02*
X563669D01*
X536441D02*
X541559D01*
X486500Y124000D02*
Y134000D01*
X536500D01*
X486500Y124000D02*
X536500D01*
Y134000D01*
X667000Y179500D02*
Y259500D01*
Y179500D02*
X677000D01*
Y259500D01*
X667000D02*
X677000D01*
X596441Y165000D02*
X601559D01*
X516941Y300500D02*
X522059D01*
X570500Y152441D02*
Y157559D01*
X549941Y165437D02*
X555059D01*
X537000Y153941D02*
Y159059D01*
X597756Y132917D02*
Y135083D01*
X592244Y139984D02*
X595098D01*
X592244Y128016D02*
Y131342D01*
Y136658D02*
Y139984D01*
Y128016D02*
X595098D01*
X616941Y164500D02*
X622059D01*
X616941Y134437D02*
X622059D01*
X454000Y341500D02*
X484000D01*
X454000Y331500D02*
Y341500D01*
Y331500D02*
X484000D01*
Y341500D01*
X394000Y331500D02*
Y341500D01*
X444000D01*
X394000Y331500D02*
X444000D01*
Y341500D01*
D13*
X418200Y198660D02*
Y200200D01*
Y187800D02*
Y189340D01*
X394800Y187800D02*
X418200D01*
X394800Y198660D02*
Y200200D01*
X418200D01*
X420700Y191500D02*
Y196500D01*
Y194500D02*
X423700Y194000D01*
X420700Y195000D02*
X423700Y194000D01*
X420700Y195500D02*
X423700Y194000D01*
X420700Y196000D02*
X423700Y194000D01*
X420700Y196500D02*
X423700Y194000D01*
X420700Y193500D02*
X423700Y194000D01*
X420700Y193000D02*
X423700Y194000D01*
X420700Y192500D02*
X423700Y194000D01*
X420700Y192000D02*
X423700Y194000D01*
X420700Y191500D02*
X423700Y194000D01*
Y191500D02*
Y196500D01*
X419700Y194000D02*
X424700D01*
X394800Y187800D02*
Y189340D01*
X399266Y266599D02*
X396600D01*
Y264599D01*
X397933Y265266D01*
X398599D01*
X399266Y264599D01*
Y263266D01*
X398599Y262600D01*
X397266D01*
X396600Y263266D01*
X400599Y266599D02*
Y263933D01*
X401932Y262600D01*
X403265Y263933D01*
Y266599D01*
X399266Y276432D02*
X398599Y277099D01*
X397266D01*
X396600Y276432D01*
Y273766D01*
X397266Y273100D01*
X398599D01*
X399266Y273766D01*
Y275099D01*
X397933D01*
X400599Y273100D02*
Y277099D01*
X403265Y273100D01*
Y277099D01*
X404597D02*
Y273100D01*
X406597D01*
X407263Y273766D01*
Y276432D01*
X406597Y277099D01*
X404597D01*
X488901Y135600D02*
X492900D01*
Y137599D01*
X492234Y138266D01*
X489568D01*
X488901Y137599D01*
Y135600D01*
X492900Y139599D02*
X490234D01*
X488901Y140932D01*
X490234Y142264D01*
X492900D01*
X490901D01*
Y139599D01*
X488901Y143597D02*
Y146263D01*
Y144930D01*
X492900D01*
X500068Y138266D02*
X499401Y137599D01*
Y136267D01*
X500068Y135600D01*
X502734D01*
X503400Y136267D01*
Y137599D01*
X502734Y138266D01*
X499401Y139599D02*
X503400D01*
Y142264D01*
X499401Y143597D02*
X503400D01*
X502067D01*
X499401Y146263D01*
X501401Y144264D01*
X503400Y146263D01*
X510568Y138266D02*
X509901Y137599D01*
Y136267D01*
X510568Y135600D01*
X513234D01*
X513900Y136267D01*
Y137599D01*
X513234Y138266D01*
X511901D01*
Y136933D01*
X513900Y139599D02*
X509901D01*
X513900Y142264D01*
X509901D01*
Y143597D02*
X513900D01*
Y145597D01*
X513234Y146263D01*
X510568D01*
X509901Y145597D01*
Y143597D01*
X519401Y138266D02*
Y135600D01*
X521401D01*
X520734Y136933D01*
Y137599D01*
X521401Y138266D01*
X522734D01*
X523400Y137599D01*
Y136267D01*
X522734Y135600D01*
X519401Y139599D02*
X522067D01*
X523400Y140932D01*
X522067Y142264D01*
X519401D01*
X533400Y136100D02*
X529401D01*
X530734Y137433D01*
X529401Y138766D01*
X533400D01*
X530068Y142764D02*
X529401Y142098D01*
Y140765D01*
X530068Y140099D01*
X532734D01*
X533400Y140765D01*
Y142098D01*
X532734Y142764D01*
X529401Y144097D02*
X533400D01*
Y146763D01*
Y148096D02*
X529401D01*
Y150095D01*
X530068Y150762D01*
X531401D01*
X532067Y150095D01*
Y148096D01*
Y149429D02*
X533400Y150762D01*
X477401Y321600D02*
Y324266D01*
Y322933D01*
X481400D01*
X477401Y325599D02*
X481400Y328264D01*
X477401D02*
X481400Y325599D01*
X470900Y321100D02*
X466901D01*
Y323099D01*
X467568Y323766D01*
X468901D01*
X469567Y323099D01*
Y321100D01*
Y322433D02*
X470900Y323766D01*
X466901Y325099D02*
X470900Y327765D01*
X466901D02*
X470900Y325099D01*
X457568Y321766D02*
X456901Y321099D01*
Y319766D01*
X457568Y319100D01*
X460234D01*
X460900Y319766D01*
Y321099D01*
X460234Y321766D01*
X458901D01*
Y320433D01*
X460900Y323099D02*
X456901D01*
X460900Y325764D01*
X456901D01*
Y327097D02*
X460900D01*
Y329097D01*
X460234Y329763D01*
X457568D01*
X456901Y329097D01*
Y327097D01*
X437568Y322266D02*
X436901Y321599D01*
Y320266D01*
X437568Y319600D01*
X440234D01*
X440900Y320266D01*
Y321599D01*
X440234Y322266D01*
X438901D01*
Y320933D01*
X440900Y323599D02*
X436901D01*
X440900Y326265D01*
X436901D01*
Y327597D02*
X440900D01*
Y329597D01*
X440234Y330263D01*
X437568D01*
X436901Y329597D01*
Y327597D01*
X427568Y321766D02*
X426901Y321099D01*
Y319766D01*
X427568Y319100D01*
X428234D01*
X428901Y319766D01*
Y321099D01*
X429567Y321766D01*
X430234D01*
X430900Y321099D01*
Y319766D01*
X430234Y319100D01*
X427568Y325764D02*
X426901Y325098D01*
Y323765D01*
X427568Y323099D01*
X428234D01*
X428901Y323765D01*
Y325098D01*
X429567Y325764D01*
X430234D01*
X430900Y325098D01*
Y323765D01*
X430234Y323099D01*
X418068Y321266D02*
X417401Y320599D01*
Y319266D01*
X418068Y318600D01*
X418734D01*
X419401Y319266D01*
Y320599D01*
X420067Y321266D01*
X420734D01*
X421400Y320599D01*
Y319266D01*
X420734Y318600D01*
X417401Y322599D02*
X421400D01*
Y324598D01*
X420734Y325265D01*
X418068D01*
X417401Y324598D01*
Y322599D01*
Y328597D02*
Y327264D01*
X418068Y326597D01*
X420734D01*
X421400Y327264D01*
Y328597D01*
X420734Y329263D01*
X418068D01*
X417401Y328597D01*
X407568Y321266D02*
X406901Y320599D01*
Y319266D01*
X407568Y318600D01*
X408234D01*
X408901Y319266D01*
Y320599D01*
X409567Y321266D01*
X410234D01*
X410900Y320599D01*
Y319266D01*
X410234Y318600D01*
X406901Y322599D02*
X410900D01*
Y324598D01*
X410234Y325265D01*
X407568D01*
X406901Y324598D01*
Y322599D01*
Y326597D02*
Y327930D01*
Y327264D01*
X410900D01*
Y326597D01*
Y327930D01*
X397568Y320266D02*
X396901Y319599D01*
Y318266D01*
X397568Y317600D01*
X398234D01*
X398901Y318266D01*
Y319599D01*
X399567Y320266D01*
X400234D01*
X400900Y319599D01*
Y318266D01*
X400234Y317600D01*
X397568Y324265D02*
X396901Y323598D01*
Y322265D01*
X397568Y321599D01*
X400234D01*
X400900Y322265D01*
Y323598D01*
X400234Y324265D01*
X396901Y325597D02*
X400900D01*
X399567D01*
X396901Y328263D01*
X398901Y326264D01*
X400900Y328263D01*
X521900Y277600D02*
X517901D01*
Y279599D01*
X518568Y280266D01*
X519901D01*
X520567Y279599D01*
Y277600D01*
Y278933D02*
X521900Y280266D01*
X518568Y284264D02*
X517901Y283598D01*
Y282265D01*
X518568Y281599D01*
X521234D01*
X521900Y282265D01*
Y283598D01*
X521234Y284264D01*
X517901Y285597D02*
Y288263D01*
X518568D01*
X521234Y285597D01*
X521900D01*
X541400Y277100D02*
X537401D01*
Y279099D01*
X538068Y279766D01*
X539401D01*
X540067Y279099D01*
Y277100D01*
Y278433D02*
X541400Y279766D01*
X538068Y283765D02*
X537401Y283098D01*
Y281765D01*
X538068Y281099D01*
X540734D01*
X541400Y281765D01*
Y283098D01*
X540734Y283765D01*
X537401Y287763D02*
X538068Y286430D01*
X539401Y285097D01*
X540734D01*
X541400Y285764D01*
Y287097D01*
X540734Y287763D01*
X540067D01*
X539401Y287097D01*
Y285097D01*
X563400Y278100D02*
X559401D01*
Y280099D01*
X560068Y280766D01*
X561401D01*
X562067Y280099D01*
Y278100D01*
Y279433D02*
X563400Y280766D01*
X560068Y284765D02*
X559401Y284098D01*
Y282765D01*
X560068Y282099D01*
X562734D01*
X563400Y282765D01*
Y284098D01*
X562734Y284765D01*
X559401Y288763D02*
Y286097D01*
X561401D01*
X560734Y287430D01*
Y288097D01*
X561401Y288763D01*
X562734D01*
X563400Y288097D01*
Y286764D01*
X562734Y286097D01*
X584400Y278100D02*
X580401D01*
Y280099D01*
X581068Y280766D01*
X582401D01*
X583067Y280099D01*
Y278100D01*
Y279433D02*
X584400Y280766D01*
X581068Y284765D02*
X580401Y284098D01*
Y282765D01*
X581068Y282099D01*
X583734D01*
X584400Y282765D01*
Y284098D01*
X583734Y284765D01*
X584400Y288097D02*
X580401D01*
X582401Y286097D01*
Y288763D01*
X605900Y278100D02*
X601901D01*
Y280099D01*
X602568Y280766D01*
X603901D01*
X604567Y280099D01*
Y278100D01*
Y279433D02*
X605900Y280766D01*
X602568Y284765D02*
X601901Y284098D01*
Y282765D01*
X602568Y282099D01*
X605234D01*
X605900Y282765D01*
Y284098D01*
X605234Y284765D01*
X602568Y286097D02*
X601901Y286764D01*
Y288097D01*
X602568Y288763D01*
X603234D01*
X603901Y288097D01*
Y287430D01*
Y288097D01*
X604567Y288763D01*
X605234D01*
X605900Y288097D01*
Y286764D01*
X605234Y286097D01*
X627900Y277600D02*
X623901D01*
Y279599D01*
X624568Y280266D01*
X625901D01*
X626567Y279599D01*
Y277600D01*
Y278933D02*
X627900Y280266D01*
X624568Y284264D02*
X623901Y283598D01*
Y282265D01*
X624568Y281599D01*
X627234D01*
X627900Y282265D01*
Y283598D01*
X627234Y284264D01*
X627900Y288263D02*
Y285597D01*
X625234Y288263D01*
X624568D01*
X623901Y287597D01*
Y286264D01*
X624568Y285597D01*
X650400Y280100D02*
X646401D01*
Y282099D01*
X647068Y282766D01*
X648401D01*
X649067Y282099D01*
Y280100D01*
Y281433D02*
X650400Y282766D01*
X647068Y286765D02*
X646401Y286098D01*
Y284765D01*
X647068Y284099D01*
X649734D01*
X650400Y284765D01*
Y286098D01*
X649734Y286765D01*
X650400Y288097D02*
Y289430D01*
Y288764D01*
X646401D01*
X647068Y288097D01*
X673900Y277600D02*
X669901D01*
Y279599D01*
X670568Y280266D01*
X671901D01*
X672567Y279599D01*
Y277600D01*
Y278933D02*
X673900Y280266D01*
X670568Y284264D02*
X669901Y283598D01*
Y282265D01*
X670568Y281599D01*
X673234D01*
X673900Y282265D01*
Y283598D01*
X673234Y284264D01*
X670568Y285597D02*
X669901Y286264D01*
Y287597D01*
X670568Y288263D01*
X673234D01*
X673900Y287597D01*
Y286264D01*
X673234Y285597D01*
X670568D01*
X652798Y182185D02*
Y186183D01*
X654797D01*
X655463Y185517D01*
Y184184D01*
X654797Y183517D01*
X652798D01*
X654130D02*
X655463Y182185D01*
X659462Y185517D02*
X658795Y186183D01*
X657463D01*
X656796Y185517D01*
Y182851D01*
X657463Y182185D01*
X658795D01*
X659462Y182851D01*
X660795Y185517D02*
X661461Y186183D01*
X662794D01*
X663461Y185517D01*
Y182851D01*
X662794Y182185D01*
X661461D01*
X660795Y182851D01*
Y185517D01*
X652798Y191684D02*
Y195683D01*
X654797D01*
X655463Y195017D01*
Y193684D01*
X654797Y193017D01*
X652798D01*
X654130D02*
X655463Y191684D01*
X659462Y195017D02*
X658795Y195683D01*
X657463D01*
X656796Y195017D01*
Y192351D01*
X657463Y191684D01*
X658795D01*
X659462Y192351D01*
X660795Y191684D02*
X662128D01*
X661461D01*
Y195683D01*
X660795Y195017D01*
X652798Y202185D02*
Y206183D01*
X654797D01*
X655463Y205517D01*
Y204184D01*
X654797Y203517D01*
X652798D01*
X654130D02*
X655463Y202185D01*
X659462Y205517D02*
X658795Y206183D01*
X657463D01*
X656796Y205517D01*
Y202851D01*
X657463Y202185D01*
X658795D01*
X659462Y202851D01*
X663461Y202185D02*
X660795D01*
X663461Y204850D01*
Y205517D01*
X662794Y206183D01*
X661461D01*
X660795Y205517D01*
X652798Y212185D02*
Y216183D01*
X654797D01*
X655463Y215517D01*
Y214184D01*
X654797Y213517D01*
X652798D01*
X654130D02*
X655463Y212185D01*
X659462Y215517D02*
X658795Y216183D01*
X657463D01*
X656796Y215517D01*
Y212851D01*
X657463Y212185D01*
X658795D01*
X659462Y212851D01*
X660795Y215517D02*
X661461Y216183D01*
X662794D01*
X663461Y215517D01*
Y214850D01*
X662794Y214184D01*
X662128D01*
X662794D01*
X663461Y213517D01*
Y212851D01*
X662794Y212185D01*
X661461D01*
X660795Y212851D01*
X652798Y222184D02*
Y226183D01*
X654797D01*
X655463Y225517D01*
Y224184D01*
X654797Y223517D01*
X652798D01*
X654130D02*
X655463Y222184D01*
X659462Y225517D02*
X658795Y226183D01*
X657463D01*
X656796Y225517D01*
Y222851D01*
X657463Y222184D01*
X658795D01*
X659462Y222851D01*
X662794Y222184D02*
Y226183D01*
X660795Y224184D01*
X663461D01*
X652600Y232100D02*
Y236099D01*
X654599D01*
X655266Y235432D01*
Y234099D01*
X654599Y233433D01*
X652600D01*
X653933D02*
X655266Y232100D01*
X659265Y235432D02*
X658598Y236099D01*
X657265D01*
X656599Y235432D01*
Y232766D01*
X657265Y232100D01*
X658598D01*
X659265Y232766D01*
X663263Y236099D02*
X660597D01*
Y234099D01*
X661930Y234766D01*
X662597D01*
X663263Y234099D01*
Y232766D01*
X662597Y232100D01*
X661264D01*
X660597Y232766D01*
X652600Y242100D02*
Y246099D01*
X654599D01*
X655266Y245432D01*
Y244099D01*
X654599Y243433D01*
X652600D01*
X653933D02*
X655266Y242100D01*
X659265Y245432D02*
X658598Y246099D01*
X657265D01*
X656599Y245432D01*
Y242766D01*
X657265Y242100D01*
X658598D01*
X659265Y242766D01*
X663263Y246099D02*
X661930Y245432D01*
X660597Y244099D01*
Y242766D01*
X661264Y242100D01*
X662597D01*
X663263Y242766D01*
Y243433D01*
X662597Y244099D01*
X660597D01*
X652600Y252100D02*
Y256099D01*
X654599D01*
X655266Y255432D01*
Y254099D01*
X654599Y253433D01*
X652600D01*
X653933D02*
X655266Y252100D01*
X659265Y255432D02*
X658598Y256099D01*
X657265D01*
X656599Y255432D01*
Y252766D01*
X657265Y252100D01*
X658598D01*
X659265Y252766D01*
X660597Y256099D02*
X663263D01*
Y255432D01*
X660597Y252766D01*
Y252100D01*
X419700Y178799D02*
Y174800D01*
X422366D01*
X423699D02*
X425032D01*
X424365D01*
Y178799D01*
X423699Y178132D01*
X588100Y147399D02*
Y144067D01*
X588766Y143400D01*
X590099D01*
X590766Y144067D01*
Y147399D01*
X592099Y146732D02*
X592765Y147399D01*
X594098D01*
X594765Y146732D01*
Y146066D01*
X594098Y145399D01*
X593432D01*
X594098D01*
X594765Y144733D01*
Y144067D01*
X594098Y143400D01*
X592765D01*
X592099Y144067D01*
X493500Y267399D02*
Y264066D01*
X494166Y263400D01*
X495499D01*
X496166Y264066D01*
Y267399D01*
X500165Y263400D02*
X497499D01*
X500165Y266066D01*
Y266732D01*
X499498Y267399D01*
X498165D01*
X497499Y266732D01*
X416000Y225199D02*
Y221866D01*
X416666Y221200D01*
X417999D01*
X418666Y221866D01*
Y225199D01*
X419999Y221200D02*
X421332D01*
X420665D01*
Y225199D01*
X419999Y224532D01*
X594500Y176500D02*
Y180499D01*
X596499D01*
X597166Y179832D01*
Y178499D01*
X596499Y177833D01*
X594500D01*
X595833D02*
X597166Y176500D01*
X598499D02*
X599832D01*
X599165D01*
Y180499D01*
X598499Y179832D01*
X604497Y180499D02*
X603164Y179832D01*
X601831Y178499D01*
Y177166D01*
X602497Y176500D01*
X603830D01*
X604497Y177166D01*
Y177833D01*
X603830Y178499D01*
X601831D01*
X595999Y296502D02*
X592001D01*
Y298501D01*
X592667Y299167D01*
X594000D01*
X594666Y298501D01*
Y296502D01*
Y297834D02*
X595999Y299167D01*
Y300500D02*
Y301833D01*
Y301167D01*
X592001D01*
X592667Y300500D01*
X592001Y306498D02*
Y303833D01*
X594000D01*
X593334Y305166D01*
Y305832D01*
X594000Y306498D01*
X595333D01*
X595999Y305832D01*
Y304499D01*
X595333Y303833D01*
X617999Y296565D02*
X614001D01*
Y298564D01*
X614667Y299230D01*
X616000D01*
X616666Y298564D01*
Y296565D01*
Y297898D02*
X617999Y299230D01*
Y300563D02*
Y301896D01*
Y301230D01*
X614001D01*
X614667Y300563D01*
X617999Y305895D02*
X614001D01*
X616000Y303896D01*
Y306561D01*
X640999Y296502D02*
X637001D01*
Y298501D01*
X637667Y299167D01*
X639000D01*
X639666Y298501D01*
Y296502D01*
Y297834D02*
X640999Y299167D01*
Y300500D02*
Y301833D01*
Y301167D01*
X637001D01*
X637667Y300500D01*
Y303833D02*
X637001Y304499D01*
Y305832D01*
X637667Y306498D01*
X638334D01*
X639000Y305832D01*
Y305166D01*
Y305832D01*
X639666Y306498D01*
X640333D01*
X640999Y305832D01*
Y304499D01*
X640333Y303833D01*
X663499Y296439D02*
X659501D01*
Y298438D01*
X660167Y299104D01*
X661500D01*
X662166Y298438D01*
Y296439D01*
Y297772D02*
X663499Y299104D01*
Y300437D02*
Y301770D01*
Y301104D01*
X659501D01*
X660167Y300437D01*
X663499Y306435D02*
Y303770D01*
X660834Y306435D01*
X660167D01*
X659501Y305769D01*
Y304436D01*
X660167Y303770D01*
X528700Y164200D02*
Y168199D01*
X530699D01*
X531366Y167532D01*
Y166199D01*
X530699Y165533D01*
X528700D01*
X530033D02*
X531366Y164200D01*
X532699D02*
X534032D01*
X533365D01*
Y168199D01*
X532699Y167532D01*
X536031D02*
X536697Y168199D01*
X538030D01*
X538697Y167532D01*
Y164866D01*
X538030Y164200D01*
X536697D01*
X536031Y164866D01*
Y167532D01*
X437700Y240700D02*
Y244699D01*
X439699D01*
X440366Y244032D01*
Y242699D01*
X439699Y242033D01*
X437700D01*
X439033D02*
X440366Y240700D01*
X441699Y241366D02*
X442365Y240700D01*
X443698D01*
X444365Y241366D01*
Y244032D01*
X443698Y244699D01*
X442365D01*
X441699Y244032D01*
Y243366D01*
X442365Y242699D01*
X444365D01*
X445200Y219700D02*
Y223699D01*
X447199D01*
X447866Y223032D01*
Y221699D01*
X447199Y221033D01*
X445200D01*
X446533D02*
X447866Y219700D01*
X449199Y223032D02*
X449865Y223699D01*
X451198D01*
X451864Y223032D01*
Y222366D01*
X451198Y221699D01*
X451864Y221033D01*
Y220366D01*
X451198Y219700D01*
X449865D01*
X449199Y220366D01*
Y221033D01*
X449865Y221699D01*
X449199Y222366D01*
Y223032D01*
X449865Y221699D02*
X451198D01*
X548000Y176900D02*
Y180899D01*
X549999D01*
X550666Y180232D01*
Y178899D01*
X549999Y178233D01*
X548000D01*
X549333D02*
X550666Y176900D01*
X551999Y180899D02*
X554665D01*
Y180232D01*
X551999Y177567D01*
Y176900D01*
X575499Y298605D02*
X571501D01*
Y300604D01*
X572167Y301271D01*
X573500D01*
X574166Y300604D01*
Y298605D01*
Y299938D02*
X575499Y301271D01*
X571501Y305269D02*
X572167Y303936D01*
X573500Y302604D01*
X574833D01*
X575499Y303270D01*
Y304603D01*
X574833Y305269D01*
X574166D01*
X573500Y304603D01*
Y302604D01*
X553110Y298668D02*
X549111D01*
Y300667D01*
X549777Y301334D01*
X551110D01*
X551777Y300667D01*
Y298668D01*
Y300001D02*
X553110Y301334D01*
X549111Y305332D02*
Y302666D01*
X551110D01*
X550444Y303999D01*
Y304666D01*
X551110Y305332D01*
X552443D01*
X553110Y304666D01*
Y303333D01*
X552443Y302666D01*
X531999Y299542D02*
X528001D01*
Y301541D01*
X528667Y302208D01*
X530000D01*
X530666Y301541D01*
Y299542D01*
Y300875D02*
X531999Y302208D01*
Y305540D02*
X528001D01*
X530000Y303540D01*
Y306206D01*
X510499Y298168D02*
X506501D01*
Y300167D01*
X507167Y300834D01*
X508500D01*
X509166Y300167D01*
Y298168D01*
Y299501D02*
X510499Y300834D01*
X507167Y302167D02*
X506501Y302833D01*
Y304166D01*
X507167Y304832D01*
X507834D01*
X508500Y304166D01*
Y303499D01*
Y304166D01*
X509166Y304832D01*
X509833D01*
X510499Y304166D01*
Y302833D01*
X509833Y302167D01*
X397499Y145668D02*
X393501D01*
Y147667D01*
X394167Y148334D01*
X395500D01*
X396166Y147667D01*
Y145668D01*
Y147001D02*
X397499Y148334D01*
Y152332D02*
Y149667D01*
X394834Y152332D01*
X394167D01*
X393501Y151666D01*
Y150333D01*
X394167Y149667D01*
X392200Y234200D02*
Y238199D01*
X394199D01*
X394866Y237532D01*
Y236199D01*
X394199Y235533D01*
X392200D01*
X393533D02*
X394866Y234200D01*
X396199D02*
X397532D01*
X396865D01*
Y238199D01*
X396199Y237532D01*
X593501Y318669D02*
X597499D01*
Y321335D01*
X593501Y325334D02*
Y322668D01*
X597499D01*
Y325334D01*
X595500Y322668D02*
Y324001D01*
X593501Y326666D02*
X597499D01*
Y328666D01*
X596833Y329332D01*
X594167D01*
X593501Y328666D01*
Y326666D01*
X596833Y330665D02*
X597499Y331332D01*
Y332664D01*
X596833Y333331D01*
X594167D01*
X593501Y332664D01*
Y331332D01*
X594167Y330665D01*
X594834D01*
X595500Y331332D01*
Y333331D01*
X616001Y319169D02*
X619999D01*
Y321835D01*
X616001Y325834D02*
Y323168D01*
X619999D01*
Y325834D01*
X618000Y323168D02*
Y324501D01*
X616001Y327167D02*
X619999D01*
Y329166D01*
X619333Y329832D01*
X616667D01*
X616001Y329166D01*
Y327167D01*
X616667Y331165D02*
X616001Y331832D01*
Y333165D01*
X616667Y333831D01*
X617334D01*
X618000Y333165D01*
X618666Y333831D01*
X619333D01*
X619999Y333165D01*
Y331832D01*
X619333Y331165D01*
X618666D01*
X618000Y331832D01*
X617334Y331165D01*
X616667D01*
X618000Y331832D02*
Y333165D01*
X638001Y319169D02*
X641999D01*
Y321835D01*
X638001Y325834D02*
Y323168D01*
X641999D01*
Y325834D01*
X640000Y323168D02*
Y324501D01*
X638001Y327167D02*
X641999D01*
Y329166D01*
X641333Y329832D01*
X638667D01*
X638001Y329166D01*
Y327167D01*
Y331165D02*
Y333831D01*
X638667D01*
X641333Y331165D01*
X641999D01*
X662001Y319169D02*
X665999D01*
Y321835D01*
X662001Y325834D02*
Y323168D01*
X665999D01*
Y325834D01*
X664000Y323168D02*
Y324501D01*
X662001Y327167D02*
X665999D01*
Y329166D01*
X665333Y329832D01*
X662667D01*
X662001Y329166D01*
Y327167D01*
Y333831D02*
X662667Y332498D01*
X664000Y331165D01*
X665333D01*
X665999Y331832D01*
Y333165D01*
X665333Y333831D01*
X664666D01*
X664000Y333165D01*
Y331165D01*
X393001Y164669D02*
X396999D01*
Y167335D01*
X393001Y171334D02*
Y168668D01*
X396999D01*
Y171334D01*
X395000Y168668D02*
Y170001D01*
X393001Y172667D02*
X396999D01*
Y174666D01*
X396333Y175332D01*
X393667D01*
X393001Y174666D01*
Y172667D01*
Y179331D02*
Y176665D01*
X395000D01*
X394334Y177998D01*
Y178665D01*
X395000Y179331D01*
X396333D01*
X396999Y178665D01*
Y177332D01*
X396333Y176665D01*
X572501Y319035D02*
X576499D01*
Y321701D01*
X572501Y325700D02*
Y323034D01*
X576499D01*
Y325700D01*
X574500Y323034D02*
Y324367D01*
X572501Y327033D02*
X576499D01*
Y329032D01*
X575833Y329698D01*
X573167D01*
X572501Y329032D01*
Y327033D01*
X576499Y333031D02*
X572501D01*
X574500Y331031D01*
Y333697D01*
X551501Y320535D02*
X555499D01*
Y323201D01*
X551501Y327200D02*
Y324534D01*
X555499D01*
Y327200D01*
X553500Y324534D02*
Y325867D01*
X551501Y328533D02*
X555499D01*
Y330532D01*
X554833Y331198D01*
X552167D01*
X551501Y330532D01*
Y328533D01*
X552167Y332531D02*
X551501Y333198D01*
Y334531D01*
X552167Y335197D01*
X552834D01*
X553500Y334531D01*
Y333864D01*
Y334531D01*
X554166Y335197D01*
X554833D01*
X555499Y334531D01*
Y333198D01*
X554833Y332531D01*
X529001Y319669D02*
X532999D01*
Y322335D01*
X529001Y326334D02*
Y323668D01*
X532999D01*
Y326334D01*
X531000Y323668D02*
Y325001D01*
X529001Y327666D02*
X532999D01*
Y329666D01*
X532333Y330332D01*
X529667D01*
X529001Y329666D01*
Y327666D01*
X532999Y334331D02*
Y331665D01*
X530334Y334331D01*
X529667D01*
X529001Y333664D01*
Y332332D01*
X529667Y331665D01*
X509001Y319835D02*
X512999D01*
Y322501D01*
X509001Y326500D02*
Y323834D01*
X512999D01*
Y326500D01*
X511000Y323834D02*
Y325167D01*
X509001Y327833D02*
X512999D01*
Y329832D01*
X512333Y330499D01*
X509667D01*
X509001Y329832D01*
Y327833D01*
X512999Y331832D02*
Y333165D01*
Y332498D01*
X509001D01*
X509667Y331832D01*
X402668Y208499D02*
Y204501D01*
X404667D01*
X405334Y205167D01*
Y207833D01*
X404667Y208499D01*
X402668D01*
X409332D02*
X407999Y207833D01*
X406667Y206500D01*
Y205167D01*
X407333Y204501D01*
X408666D01*
X409332Y205167D01*
Y205834D01*
X408666Y206500D01*
X406667D01*
X455400Y199599D02*
Y195600D01*
X457399D01*
X458066Y196266D01*
Y198932D01*
X457399Y199599D01*
X455400D01*
X459399Y195600D02*
X460732D01*
X460065D01*
Y199599D01*
X459399Y198932D01*
X617666Y149232D02*
X616999Y149899D01*
X615666D01*
X615000Y149232D01*
Y146566D01*
X615666Y145900D01*
X616999D01*
X617666Y146566D01*
X618999D02*
X619665Y145900D01*
X620998D01*
X621664Y146566D01*
Y149232D01*
X620998Y149899D01*
X619665D01*
X618999Y149232D01*
Y148566D01*
X619665Y147899D01*
X621664D01*
X617666Y179332D02*
X616999Y179999D01*
X615666D01*
X615000Y179332D01*
Y176666D01*
X615666Y176000D01*
X616999D01*
X617666Y176666D01*
X618999Y179332D02*
X619665Y179999D01*
X620998D01*
X621664Y179332D01*
Y178666D01*
X620998Y177999D01*
X621664Y177333D01*
Y176666D01*
X620998Y176000D01*
X619665D01*
X618999Y176666D01*
Y177333D01*
X619665Y177999D01*
X618999Y178666D01*
Y179332D01*
X619665Y177999D02*
X620998D01*
X514396Y205333D02*
X513730Y205999D01*
X512397D01*
X511731Y205333D01*
Y202667D01*
X512397Y202001D01*
X513730D01*
X514396Y202667D01*
X515729Y205999D02*
X518395D01*
Y205333D01*
X515729Y202667D01*
Y202001D01*
X564866Y166032D02*
X564199Y166699D01*
X562866D01*
X562200Y166032D01*
Y163366D01*
X562866Y162700D01*
X564199D01*
X564866Y163366D01*
X568864Y166699D02*
X567532Y166032D01*
X566199Y164699D01*
Y163366D01*
X566865Y162700D01*
X568198D01*
X568864Y163366D01*
Y164033D01*
X568198Y164699D01*
X566199D01*
X446667Y131396D02*
X446001Y130730D01*
Y129397D01*
X446667Y128731D01*
X449333D01*
X449999Y129397D01*
Y130730D01*
X449333Y131396D01*
X446001Y135395D02*
Y132729D01*
X448000D01*
X447334Y134062D01*
Y134729D01*
X448000Y135395D01*
X449333D01*
X449999Y134729D01*
Y133396D01*
X449333Y132729D01*
X419167Y131834D02*
X418501Y131167D01*
Y129834D01*
X419167Y129168D01*
X421833D01*
X422499Y129834D01*
Y131167D01*
X421833Y131834D01*
X422499Y135166D02*
X418501D01*
X420500Y133167D01*
Y135832D01*
X395167Y130833D02*
X394501Y130167D01*
Y128834D01*
X395167Y128168D01*
X397833D01*
X398499Y128834D01*
Y130167D01*
X397833Y130833D01*
X395167Y132167D02*
X394501Y132833D01*
Y134166D01*
X395167Y134832D01*
X395834D01*
X396500Y134166D01*
Y133499D01*
Y134166D01*
X397166Y134832D01*
X397833D01*
X398499Y134166D01*
Y132833D01*
X397833Y132167D01*
X432166Y202832D02*
X431499Y203499D01*
X430166D01*
X429500Y202832D01*
Y200167D01*
X430166Y199500D01*
X431499D01*
X432166Y200167D01*
X436165Y199500D02*
X433499D01*
X436165Y202166D01*
Y202832D01*
X435498Y203499D01*
X434165D01*
X433499Y202832D01*
X394366Y257532D02*
X393699Y258199D01*
X392366D01*
X391700Y257532D01*
Y254866D01*
X392366Y254200D01*
X393699D01*
X394366Y254866D01*
X395699Y254200D02*
X397032D01*
X396365D01*
Y258199D01*
X395699Y257532D01*
D14*
X403800Y302384D02*
Y307383D01*
X405466Y305716D01*
X407132Y307383D01*
Y302384D01*
X408798D02*
Y305716D01*
X410464Y307383D01*
X412131Y305716D01*
Y302384D01*
Y304883D01*
X408798D01*
X417129Y306550D02*
X416296Y307383D01*
X414630D01*
X413797Y306550D01*
Y305716D01*
X414630Y304883D01*
X416296D01*
X417129Y304050D01*
Y303217D01*
X416296Y302384D01*
X414630D01*
X413797Y303217D01*
X418795Y302384D02*
Y305716D01*
X420461Y307383D01*
X422127Y305716D01*
Y302384D01*
Y304883D01*
X418795D01*
X428792Y302384D02*
X430458D01*
X429625D01*
Y305716D01*
X428792D01*
X432957Y302384D02*
Y305716D01*
X435456D01*
X436290Y304883D01*
Y302384D01*
X441288Y307383D02*
Y302384D01*
X438789D01*
X437956Y303217D01*
Y304883D01*
X438789Y305716D01*
X441288D01*
X443787Y302384D02*
X445453D01*
X446286Y303217D01*
Y304883D01*
X445453Y305716D01*
X443787D01*
X442954Y304883D01*
Y303217D01*
X443787Y302384D01*
X451285Y305716D02*
X448785D01*
X447952Y304883D01*
Y303217D01*
X448785Y302384D01*
X451285D01*
X453784Y306550D02*
Y305716D01*
X452951D01*
X454617D01*
X453784D01*
Y303217D01*
X454617Y302384D01*
X457116Y305716D02*
Y302384D01*
Y304050D01*
X457949Y304883D01*
X458782Y305716D01*
X459615D01*
X462114Y302384D02*
X463781D01*
X462948D01*
Y305716D01*
X462114D01*
X466280Y302384D02*
Y305716D01*
X468779D01*
X469612Y304883D01*
Y302384D01*
X472111Y305716D02*
X473777D01*
X474610Y304883D01*
Y302384D01*
X472111D01*
X471278Y303217D01*
X472111Y304050D01*
X474610D01*
X477110Y306550D02*
Y305716D01*
X476276D01*
X477943D01*
X477110D01*
Y303217D01*
X477943Y302384D01*
X480442D02*
X482108D01*
X481275D01*
Y305716D01*
X480442D01*
X485440Y302384D02*
X487106D01*
X487939Y303217D01*
Y304883D01*
X487106Y305716D01*
X485440D01*
X484607Y304883D01*
Y303217D01*
X485440Y302384D01*
X489606D02*
Y305716D01*
X492105D01*
X492938Y304883D01*
Y302384D01*
X403800Y299465D02*
Y294466D01*
X406299D01*
X407132Y295299D01*
Y296132D01*
X406299Y296965D01*
X403800D01*
X406299D01*
X407132Y297798D01*
Y298631D01*
X406299Y299465D01*
X403800D01*
X409631Y294466D02*
X411298D01*
X412131Y295299D01*
Y296965D01*
X411298Y297798D01*
X409631D01*
X408798Y296965D01*
Y295299D01*
X409631Y294466D01*
X414630Y297798D02*
X416296D01*
X417129Y296965D01*
Y294466D01*
X414630D01*
X413797Y295299D01*
X414630Y296132D01*
X417129D01*
X418795Y297798D02*
Y294466D01*
Y296132D01*
X419628Y296965D01*
X420461Y297798D01*
X421294D01*
X427126Y299465D02*
Y294466D01*
X424627D01*
X423794Y295299D01*
Y296965D01*
X424627Y297798D01*
X427126D01*
X428792D02*
X429625D01*
Y296965D01*
X428792D01*
Y297798D01*
Y295299D02*
X429625D01*
Y294466D01*
X428792D01*
Y295299D01*
X437956Y294466D02*
Y299465D01*
X440455D01*
X441288Y298631D01*
Y296965D01*
X440455Y296132D01*
X437956D01*
X442954Y297798D02*
Y294466D01*
Y296132D01*
X443787Y296965D01*
X444620Y297798D01*
X445453D01*
X448785Y294466D02*
X450452D01*
X451285Y295299D01*
Y296965D01*
X450452Y297798D01*
X448785D01*
X447952Y296965D01*
Y295299D01*
X448785Y294466D01*
X453784Y298631D02*
Y297798D01*
X452951D01*
X454617D01*
X453784D01*
Y295299D01*
X454617Y294466D01*
X457949D02*
X459615D01*
X460448Y295299D01*
Y296965D01*
X459615Y297798D01*
X457949D01*
X457116Y296965D01*
Y295299D01*
X457949Y294466D01*
X462948Y298631D02*
Y297798D01*
X462114D01*
X463781D01*
X462948D01*
Y295299D01*
X463781Y294466D01*
X466280Y292800D02*
Y297798D01*
X468779D01*
X469612Y296965D01*
Y295299D01*
X468779Y294466D01*
X466280D01*
X471278Y297798D02*
Y295299D01*
X472111Y294466D01*
X474610D01*
Y293633D01*
X473777Y292800D01*
X472944D01*
X474610Y294466D02*
Y297798D01*
X478776Y294466D02*
X477110D01*
X476276Y295299D01*
Y296965D01*
X477110Y297798D01*
X478776D01*
X479609Y296965D01*
Y296132D01*
X476276D01*
M02*
