G04*
G04 #@! TF.GenerationSoftware,Altium Limited,Altium Designer,20.1.14 (287)*
G04*
G04 Layer_Color=16711935*
%FSLAX25Y25*%
%MOIN*%
G70*
G04*
G04 #@! TF.SameCoordinates,77D899AC-DA5C-4649-B6D6-03D989B7329D*
G04*
G04*
G04 #@! TF.FilePolarity,Negative*
G04*
G01*
G75*
%ADD24C,0.06706*%
%ADD25R,0.06706X0.06706*%
%ADD26R,0.06706X0.06706*%
%ADD27C,0.03200*%
D24*
X673000Y163500D02*
D03*
Y153500D02*
D03*
X389500Y265500D02*
D03*
X521500Y129000D02*
D03*
X511500D02*
D03*
X501500D02*
D03*
X491500D02*
D03*
X672000Y254500D02*
D03*
Y244500D02*
D03*
Y234500D02*
D03*
Y224500D02*
D03*
Y214500D02*
D03*
Y204500D02*
D03*
Y194500D02*
D03*
X469000Y336500D02*
D03*
X459000D02*
D03*
X439000D02*
D03*
X429000D02*
D03*
X419000D02*
D03*
X409000D02*
D03*
D25*
X673000Y143500D02*
D03*
X389500Y275500D02*
D03*
X672000Y184500D02*
D03*
D26*
X531500Y129000D02*
D03*
X479000Y336500D02*
D03*
X399000D02*
D03*
D27*
X390415Y159043D02*
D03*
X387915Y210043D02*
D03*
X391415Y290043D02*
D03*
X389415Y323543D02*
D03*
X512415Y249043D02*
D03*
X496415Y192543D02*
D03*
X495797Y209868D02*
D03*
X515301Y199657D02*
D03*
X526415Y171543D02*
D03*
X526233Y196043D02*
D03*
X546915Y229043D02*
D03*
X572415Y217043D02*
D03*
X661415Y298543D02*
D03*
Y258543D02*
D03*
Y218543D02*
D03*
Y178543D02*
D03*
Y138543D02*
D03*
X641415Y298543D02*
D03*
Y258543D02*
D03*
X651415Y238543D02*
D03*
X641415Y218543D02*
D03*
X651415Y198543D02*
D03*
X641415Y178543D02*
D03*
Y138543D02*
D03*
X631415Y318543D02*
D03*
Y278543D02*
D03*
X621415Y258543D02*
D03*
X631415Y238543D02*
D03*
X621415Y218543D02*
D03*
X631415Y198543D02*
D03*
X621415Y178543D02*
D03*
X631415Y158543D02*
D03*
X611415Y318543D02*
D03*
Y278543D02*
D03*
Y238543D02*
D03*
X601415Y218543D02*
D03*
X611415Y198543D02*
D03*
X601415Y178543D02*
D03*
X611415Y158543D02*
D03*
X591415Y318543D02*
D03*
Y278543D02*
D03*
Y238543D02*
D03*
Y198543D02*
D03*
X581415Y178543D02*
D03*
X591415Y158543D02*
D03*
X581415Y138543D02*
D03*
X571415Y318543D02*
D03*
Y278543D02*
D03*
Y238543D02*
D03*
Y198543D02*
D03*
X561415Y138543D02*
D03*
X551415Y318543D02*
D03*
Y278543D02*
D03*
X541415Y258543D02*
D03*
Y218543D02*
D03*
Y178543D02*
D03*
Y138543D02*
D03*
X531415Y318543D02*
D03*
Y278543D02*
D03*
X511415Y318543D02*
D03*
Y278543D02*
D03*
Y158543D02*
D03*
X491415Y318543D02*
D03*
X481415Y298543D02*
D03*
X491415Y278543D02*
D03*
X481415Y218543D02*
D03*
Y178543D02*
D03*
Y138543D02*
D03*
X471415Y318543D02*
D03*
X461415Y298543D02*
D03*
X471415Y278543D02*
D03*
X461415Y258543D02*
D03*
X471415Y238543D02*
D03*
X461415Y218543D02*
D03*
X471415Y198543D02*
D03*
X461415Y178543D02*
D03*
X471415Y158543D02*
D03*
X451415Y318543D02*
D03*
X441415Y298543D02*
D03*
X451415Y278543D02*
D03*
X441415Y258543D02*
D03*
X451415Y238543D02*
D03*
Y198543D02*
D03*
X441415Y178543D02*
D03*
Y138543D02*
D03*
X431415Y318543D02*
D03*
Y278543D02*
D03*
X421415Y258543D02*
D03*
X431415Y238543D02*
D03*
X421415Y218543D02*
D03*
Y178543D02*
D03*
X431415Y158543D02*
D03*
X421415Y138543D02*
D03*
X401415Y298543D02*
D03*
X411415Y278543D02*
D03*
Y238543D02*
D03*
Y158543D02*
D03*
X520500Y175000D02*
D03*
X508000Y204000D02*
D03*
X671500Y334000D02*
D03*
X648500D02*
D03*
X626000Y334500D02*
D03*
X603500D02*
D03*
X582500D02*
D03*
X561000D02*
D03*
X539000D02*
D03*
X519500D02*
D03*
X619500Y151000D02*
D03*
X582138Y144492D02*
D03*
X431500Y211500D02*
D03*
X436500Y233000D02*
D03*
X443284Y127063D02*
D03*
X402000Y183000D02*
D03*
X416500Y127000D02*
D03*
X566500Y210500D02*
D03*
X604000Y230000D02*
D03*
X649000Y249000D02*
D03*
X530409Y217500D02*
D03*
X533000Y210000D02*
D03*
X530000Y224000D02*
D03*
X657500Y164000D02*
D03*
X649500Y271000D02*
D03*
X625500D02*
D03*
X604000Y271500D02*
D03*
X583000Y269500D02*
D03*
X561500Y272500D02*
D03*
X539500Y280500D02*
D03*
X519000Y271500D02*
D03*
X510300Y229200D02*
D03*
X507854Y226700D02*
D03*
X486500Y203500D02*
D03*
X504563Y213500D02*
D03*
X496000Y226000D02*
D03*
X519000Y221000D02*
D03*
X537500Y236000D02*
D03*
X505500Y224000D02*
D03*
X542000Y228500D02*
D03*
X550000Y239500D02*
D03*
X539500Y169000D02*
D03*
X625500Y237000D02*
D03*
X583500Y218500D02*
D03*
X552600Y178800D02*
D03*
X563000Y197000D02*
D03*
X559000Y188500D02*
D03*
X555000Y181500D02*
D03*
X509000Y264000D02*
D03*
X417000Y287000D02*
D03*
X407500Y306000D02*
D03*
M02*
