G04*
G04 #@! TF.GenerationSoftware,Altium Limited,Altium Designer,20.1.14 (287)*
G04*
G04 Layer_Physical_Order=2*
G04 Layer_Color=16711680*
%FSLAX25Y25*%
%MOIN*%
G70*
G04*
G04 #@! TF.SameCoordinates,77D899AC-DA5C-4649-B6D6-03D989B7329D*
G04*
G04*
G04 #@! TF.FilePolarity,Positive*
G04*
G01*
G75*
%ADD34C,0.01000*%
%ADD35C,0.01500*%
%ADD36C,0.05906*%
%ADD37R,0.05906X0.05906*%
%ADD38R,0.05906X0.05906*%
%ADD39C,0.02400*%
G36*
X682000Y120500D02*
X382000D01*
Y345500D01*
X682000D01*
X682000Y120500D01*
D02*
G37*
%LPC*%
G36*
X459500Y340421D02*
Y337000D01*
X462921D01*
X462851Y337532D01*
X462453Y338493D01*
X461819Y339319D01*
X460993Y339953D01*
X460032Y340351D01*
X459500Y340421D01*
D02*
G37*
G36*
X439500D02*
Y337000D01*
X442921D01*
X442851Y337532D01*
X442453Y338493D01*
X441819Y339319D01*
X440993Y339953D01*
X440032Y340351D01*
X439500Y340421D01*
D02*
G37*
G36*
X438500D02*
X437968Y340351D01*
X437007Y339953D01*
X436181Y339319D01*
X435547Y338493D01*
X435149Y337532D01*
X435079Y337000D01*
X438500D01*
Y340421D01*
D02*
G37*
G36*
X458500D02*
X457968Y340351D01*
X457007Y339953D01*
X456181Y339319D01*
X455547Y338493D01*
X455149Y337532D01*
X455079Y337000D01*
X458500D01*
Y340421D01*
D02*
G37*
G36*
X626500Y336644D02*
Y335000D01*
X628144D01*
X628072Y335358D01*
X627586Y336086D01*
X626858Y336572D01*
X626500Y336644D01*
D02*
G37*
G36*
X625500D02*
X625142Y336572D01*
X624414Y336086D01*
X623928Y335358D01*
X623856Y335000D01*
X625500D01*
Y336644D01*
D02*
G37*
G36*
X604000D02*
Y335000D01*
X605644D01*
X605572Y335358D01*
X605086Y336086D01*
X604358Y336572D01*
X604000Y336644D01*
D02*
G37*
G36*
X603000D02*
X602642Y336572D01*
X601914Y336086D01*
X601428Y335358D01*
X601356Y335000D01*
X603000D01*
Y336644D01*
D02*
G37*
G36*
X583000D02*
Y335000D01*
X584644D01*
X584572Y335358D01*
X584086Y336086D01*
X583358Y336572D01*
X583000Y336644D01*
D02*
G37*
G36*
X582000D02*
X581642Y336572D01*
X580914Y336086D01*
X580428Y335358D01*
X580356Y335000D01*
X582000D01*
Y336644D01*
D02*
G37*
G36*
X561500D02*
Y335000D01*
X563144D01*
X563072Y335358D01*
X562586Y336086D01*
X561858Y336572D01*
X561500Y336644D01*
D02*
G37*
G36*
X560500D02*
X560142Y336572D01*
X559414Y336086D01*
X558928Y335358D01*
X558856Y335000D01*
X560500D01*
Y336644D01*
D02*
G37*
G36*
X539500D02*
Y335000D01*
X541144D01*
X541072Y335358D01*
X540586Y336086D01*
X539858Y336572D01*
X539500Y336644D01*
D02*
G37*
G36*
X538500D02*
X538142Y336572D01*
X537414Y336086D01*
X536928Y335358D01*
X536856Y335000D01*
X538500D01*
Y336644D01*
D02*
G37*
G36*
X520000D02*
Y335000D01*
X521644D01*
X521572Y335358D01*
X521086Y336086D01*
X520358Y336572D01*
X520000Y336644D01*
D02*
G37*
G36*
X519000D02*
X518642Y336572D01*
X517914Y336086D01*
X517428Y335358D01*
X517356Y335000D01*
X519000D01*
Y336644D01*
D02*
G37*
G36*
X672000Y336144D02*
Y334500D01*
X673644D01*
X673572Y334858D01*
X673086Y335586D01*
X672358Y336072D01*
X672000Y336144D01*
D02*
G37*
G36*
X671000D02*
X670642Y336072D01*
X669914Y335586D01*
X669428Y334858D01*
X669356Y334500D01*
X671000D01*
Y336144D01*
D02*
G37*
G36*
X649000D02*
Y334500D01*
X650644D01*
X650572Y334858D01*
X650086Y335586D01*
X649358Y336072D01*
X649000Y336144D01*
D02*
G37*
G36*
X648000D02*
X647642Y336072D01*
X646914Y335586D01*
X646428Y334858D01*
X646356Y334500D01*
X648000D01*
Y336144D01*
D02*
G37*
G36*
X462921Y336000D02*
X459500D01*
Y332579D01*
X460032Y332649D01*
X460993Y333047D01*
X461819Y333681D01*
X462453Y334507D01*
X462851Y335468D01*
X462921Y336000D01*
D02*
G37*
G36*
X442921D02*
X439500D01*
Y332579D01*
X440032Y332649D01*
X440993Y333047D01*
X441819Y333681D01*
X442453Y334507D01*
X442851Y335468D01*
X442921Y336000D01*
D02*
G37*
G36*
X438500D02*
X435079D01*
X435149Y335468D01*
X435547Y334507D01*
X436181Y333681D01*
X437007Y333047D01*
X437968Y332649D01*
X438500Y332579D01*
Y336000D01*
D02*
G37*
G36*
X458500D02*
X455079D01*
X455149Y335468D01*
X455547Y334507D01*
X456181Y333681D01*
X457007Y333047D01*
X457968Y332649D01*
X458500Y332579D01*
Y336000D01*
D02*
G37*
G36*
X482953Y340453D02*
X475047D01*
Y332547D01*
X482953D01*
Y340453D01*
D02*
G37*
G36*
X402953D02*
X395047D01*
Y332547D01*
X402953D01*
Y340453D01*
D02*
G37*
G36*
X469000Y340487D02*
X467968Y340351D01*
X467007Y339953D01*
X466181Y339319D01*
X465547Y338493D01*
X465149Y337532D01*
X465013Y336500D01*
X465149Y335468D01*
X465547Y334507D01*
X466181Y333681D01*
X467007Y333047D01*
X467968Y332649D01*
X469000Y332513D01*
X470032Y332649D01*
X470993Y333047D01*
X471819Y333681D01*
X472453Y334507D01*
X472851Y335468D01*
X472987Y336500D01*
X472851Y337532D01*
X472453Y338493D01*
X471819Y339319D01*
X470993Y339953D01*
X470032Y340351D01*
X469000Y340487D01*
D02*
G37*
G36*
X628144Y334000D02*
X626500D01*
Y332356D01*
X626858Y332428D01*
X627586Y332914D01*
X628072Y333642D01*
X628144Y334000D01*
D02*
G37*
G36*
X625500D02*
X623856D01*
X623928Y333642D01*
X624414Y332914D01*
X625142Y332428D01*
X625500Y332356D01*
Y334000D01*
D02*
G37*
G36*
X605644D02*
X604000D01*
Y332356D01*
X604358Y332428D01*
X605086Y332914D01*
X605572Y333642D01*
X605644Y334000D01*
D02*
G37*
G36*
X603000D02*
X601356D01*
X601428Y333642D01*
X601914Y332914D01*
X602642Y332428D01*
X603000Y332356D01*
Y334000D01*
D02*
G37*
G36*
X584644D02*
X583000D01*
Y332356D01*
X583358Y332428D01*
X584086Y332914D01*
X584572Y333642D01*
X584644Y334000D01*
D02*
G37*
G36*
X582000D02*
X580356D01*
X580428Y333642D01*
X580914Y332914D01*
X581642Y332428D01*
X582000Y332356D01*
Y334000D01*
D02*
G37*
G36*
X563144D02*
X561500D01*
Y332356D01*
X561858Y332428D01*
X562586Y332914D01*
X563072Y333642D01*
X563144Y334000D01*
D02*
G37*
G36*
X560500D02*
X558856D01*
X558928Y333642D01*
X559414Y332914D01*
X560142Y332428D01*
X560500Y332356D01*
Y334000D01*
D02*
G37*
G36*
X541144D02*
X539500D01*
Y332356D01*
X539858Y332428D01*
X540586Y332914D01*
X541072Y333642D01*
X541144Y334000D01*
D02*
G37*
G36*
X538500D02*
X536856D01*
X536928Y333642D01*
X537414Y332914D01*
X538142Y332428D01*
X538500Y332356D01*
Y334000D01*
D02*
G37*
G36*
X521644D02*
X520000D01*
Y332356D01*
X520358Y332428D01*
X521086Y332914D01*
X521572Y333642D01*
X521644Y334000D01*
D02*
G37*
G36*
X519000D02*
X517356D01*
X517428Y333642D01*
X517914Y332914D01*
X518642Y332428D01*
X519000Y332356D01*
Y334000D01*
D02*
G37*
G36*
X673644Y333500D02*
X672000D01*
Y331856D01*
X672358Y331928D01*
X673086Y332414D01*
X673572Y333142D01*
X673644Y333500D01*
D02*
G37*
G36*
X671000D02*
X669356D01*
X669428Y333142D01*
X669914Y332414D01*
X670642Y331928D01*
X671000Y331856D01*
Y333500D01*
D02*
G37*
G36*
X650644D02*
X649000D01*
Y331856D01*
X649358Y331928D01*
X650086Y332414D01*
X650572Y333142D01*
X650644Y333500D01*
D02*
G37*
G36*
X648000D02*
X646356D01*
X646428Y333142D01*
X646914Y332414D01*
X647642Y331928D01*
X648000Y331856D01*
Y333500D01*
D02*
G37*
G36*
X631915Y320687D02*
Y319043D01*
X633559D01*
X633487Y319402D01*
X633001Y320129D01*
X632273Y320616D01*
X631915Y320687D01*
D02*
G37*
G36*
X630915D02*
X630557Y320616D01*
X629829Y320129D01*
X629343Y319402D01*
X629271Y319043D01*
X630915D01*
Y320687D01*
D02*
G37*
G36*
X611915D02*
Y319043D01*
X613559D01*
X613487Y319402D01*
X613001Y320129D01*
X612273Y320616D01*
X611915Y320687D01*
D02*
G37*
G36*
X610915D02*
X610557Y320616D01*
X609829Y320129D01*
X609343Y319402D01*
X609271Y319043D01*
X610915D01*
Y320687D01*
D02*
G37*
G36*
X591915D02*
Y319043D01*
X593559D01*
X593487Y319402D01*
X593001Y320129D01*
X592273Y320616D01*
X591915Y320687D01*
D02*
G37*
G36*
X590915D02*
X590557Y320616D01*
X589829Y320129D01*
X589343Y319402D01*
X589271Y319043D01*
X590915D01*
Y320687D01*
D02*
G37*
G36*
X571915D02*
Y319043D01*
X573559D01*
X573487Y319402D01*
X573001Y320129D01*
X572273Y320616D01*
X571915Y320687D01*
D02*
G37*
G36*
X570915D02*
X570557Y320616D01*
X569829Y320129D01*
X569343Y319402D01*
X569271Y319043D01*
X570915D01*
Y320687D01*
D02*
G37*
G36*
X551915D02*
Y319043D01*
X553559D01*
X553487Y319402D01*
X553001Y320129D01*
X552273Y320616D01*
X551915Y320687D01*
D02*
G37*
G36*
X550915D02*
X550557Y320616D01*
X549829Y320129D01*
X549343Y319402D01*
X549271Y319043D01*
X550915D01*
Y320687D01*
D02*
G37*
G36*
X531915D02*
Y319043D01*
X533559D01*
X533487Y319402D01*
X533001Y320129D01*
X532273Y320616D01*
X531915Y320687D01*
D02*
G37*
G36*
X530915D02*
X530557Y320616D01*
X529829Y320129D01*
X529343Y319402D01*
X529271Y319043D01*
X530915D01*
Y320687D01*
D02*
G37*
G36*
X511915D02*
Y319043D01*
X513559D01*
X513487Y319402D01*
X513001Y320129D01*
X512273Y320616D01*
X511915Y320687D01*
D02*
G37*
G36*
X510915D02*
X510557Y320616D01*
X509829Y320129D01*
X509343Y319402D01*
X509271Y319043D01*
X510915D01*
Y320687D01*
D02*
G37*
G36*
X491915D02*
Y319043D01*
X493559D01*
X493487Y319402D01*
X493001Y320129D01*
X492273Y320616D01*
X491915Y320687D01*
D02*
G37*
G36*
X490915D02*
X490557Y320616D01*
X489829Y320129D01*
X489343Y319402D01*
X489271Y319043D01*
X490915D01*
Y320687D01*
D02*
G37*
G36*
X471915D02*
Y319043D01*
X473559D01*
X473487Y319402D01*
X473001Y320129D01*
X472273Y320616D01*
X471915Y320687D01*
D02*
G37*
G36*
X470915D02*
X470557Y320616D01*
X469829Y320129D01*
X469343Y319402D01*
X469271Y319043D01*
X470915D01*
Y320687D01*
D02*
G37*
G36*
X451915D02*
Y319043D01*
X453559D01*
X453487Y319402D01*
X453001Y320129D01*
X452273Y320616D01*
X451915Y320687D01*
D02*
G37*
G36*
X431915D02*
Y319043D01*
X433559D01*
X433487Y319402D01*
X433001Y320129D01*
X432273Y320616D01*
X431915Y320687D01*
D02*
G37*
G36*
X430915D02*
X430557Y320616D01*
X429829Y320129D01*
X429343Y319402D01*
X429271Y319043D01*
X430915D01*
Y320687D01*
D02*
G37*
G36*
X633559Y318043D02*
X631915D01*
Y316400D01*
X632273Y316471D01*
X633001Y316957D01*
X633487Y317685D01*
X633559Y318043D01*
D02*
G37*
G36*
X630915D02*
X629271D01*
X629343Y317685D01*
X629829Y316957D01*
X630557Y316471D01*
X630915Y316400D01*
Y318043D01*
D02*
G37*
G36*
X613559D02*
X611915D01*
Y316400D01*
X612273Y316471D01*
X613001Y316957D01*
X613487Y317685D01*
X613559Y318043D01*
D02*
G37*
G36*
X610915D02*
X609271D01*
X609343Y317685D01*
X609829Y316957D01*
X610557Y316471D01*
X610915Y316400D01*
Y318043D01*
D02*
G37*
G36*
X593559D02*
X591915D01*
Y316400D01*
X592273Y316471D01*
X593001Y316957D01*
X593487Y317685D01*
X593559Y318043D01*
D02*
G37*
G36*
X590915D02*
X589271D01*
X589343Y317685D01*
X589829Y316957D01*
X590557Y316471D01*
X590915Y316400D01*
Y318043D01*
D02*
G37*
G36*
X573559D02*
X571915D01*
Y316400D01*
X572273Y316471D01*
X573001Y316957D01*
X573487Y317685D01*
X573559Y318043D01*
D02*
G37*
G36*
X570915D02*
X569271D01*
X569343Y317685D01*
X569829Y316957D01*
X570557Y316471D01*
X570915Y316400D01*
Y318043D01*
D02*
G37*
G36*
X553559D02*
X551915D01*
Y316400D01*
X552273Y316471D01*
X553001Y316957D01*
X553487Y317685D01*
X553559Y318043D01*
D02*
G37*
G36*
X550915D02*
X549271D01*
X549343Y317685D01*
X549829Y316957D01*
X550557Y316471D01*
X550915Y316400D01*
Y318043D01*
D02*
G37*
G36*
X533559D02*
X531915D01*
Y316400D01*
X532273Y316471D01*
X533001Y316957D01*
X533487Y317685D01*
X533559Y318043D01*
D02*
G37*
G36*
X530915D02*
X529271D01*
X529343Y317685D01*
X529829Y316957D01*
X530557Y316471D01*
X530915Y316400D01*
Y318043D01*
D02*
G37*
G36*
X513559D02*
X511915D01*
Y316400D01*
X512273Y316471D01*
X513001Y316957D01*
X513487Y317685D01*
X513559Y318043D01*
D02*
G37*
G36*
X510915D02*
X509271D01*
X509343Y317685D01*
X509829Y316957D01*
X510557Y316471D01*
X510915Y316400D01*
Y318043D01*
D02*
G37*
G36*
X493559D02*
X491915D01*
Y316400D01*
X492273Y316471D01*
X493001Y316957D01*
X493487Y317685D01*
X493559Y318043D01*
D02*
G37*
G36*
X490915D02*
X489271D01*
X489343Y317685D01*
X489829Y316957D01*
X490557Y316471D01*
X490915Y316400D01*
Y318043D01*
D02*
G37*
G36*
X473559D02*
X471915D01*
Y316400D01*
X472273Y316471D01*
X473001Y316957D01*
X473487Y317685D01*
X473559Y318043D01*
D02*
G37*
G36*
X470915D02*
X469271D01*
X469343Y317685D01*
X469829Y316957D01*
X470557Y316471D01*
X470915Y316400D01*
Y318043D01*
D02*
G37*
G36*
X433559D02*
X431915D01*
Y316400D01*
X432273Y316471D01*
X433001Y316957D01*
X433487Y317685D01*
X433559Y318043D01*
D02*
G37*
G36*
X430915D02*
X429271D01*
X429343Y317685D01*
X429829Y316957D01*
X430557Y316471D01*
X430915Y316400D01*
Y318043D01*
D02*
G37*
G36*
X409000Y340487D02*
X407968Y340351D01*
X407007Y339953D01*
X406181Y339319D01*
X405547Y338493D01*
X405149Y337532D01*
X405013Y336500D01*
X405149Y335468D01*
X405547Y334507D01*
X406181Y333681D01*
X407007Y333047D01*
X407471Y332855D01*
Y308512D01*
X407127Y308169D01*
X406642Y308072D01*
X405914Y307586D01*
X405428Y306858D01*
X405257Y306000D01*
X405428Y305142D01*
X405914Y304414D01*
X406642Y303928D01*
X407500Y303757D01*
X408358Y303928D01*
X409086Y304414D01*
X409572Y305142D01*
X409743Y306000D01*
X409667Y306383D01*
X410081Y306797D01*
X410413Y307294D01*
X410529Y307879D01*
Y332855D01*
X410993Y333047D01*
X411819Y333681D01*
X412453Y334507D01*
X412851Y335468D01*
X412987Y336500D01*
X412851Y337532D01*
X412453Y338493D01*
X411819Y339319D01*
X410993Y339953D01*
X410032Y340351D01*
X409000Y340487D01*
D02*
G37*
G36*
X429000D02*
X427968Y340351D01*
X427007Y339953D01*
X426181Y339319D01*
X425547Y338493D01*
X425149Y337532D01*
X425013Y336500D01*
X425149Y335468D01*
X425547Y334507D01*
X426181Y333681D01*
X427007Y333047D01*
X427968Y332649D01*
X429000Y332513D01*
X430032Y332649D01*
X430496Y332841D01*
X462196Y301141D01*
X461950Y300680D01*
X461915Y300687D01*
Y299043D01*
X463559D01*
X463552Y299078D01*
X464012Y299325D01*
X500419Y262919D01*
X500915Y262587D01*
X501500Y262471D01*
X507376D01*
X507414Y262414D01*
X508142Y261928D01*
X509000Y261757D01*
X509858Y261928D01*
X510586Y262414D01*
X511072Y263142D01*
X511243Y264000D01*
X511072Y264858D01*
X510586Y265586D01*
X509858Y266072D01*
X509000Y266243D01*
X508142Y266072D01*
X507414Y265586D01*
X507376Y265529D01*
X502134D01*
X491797Y275866D01*
X491961Y276409D01*
X492273Y276471D01*
X493001Y276957D01*
X493487Y277685D01*
X493559Y278043D01*
X491415D01*
Y278543D01*
X490915D01*
Y280687D01*
X490557Y280616D01*
X489829Y280129D01*
X489343Y279402D01*
X489281Y279089D01*
X488738Y278925D01*
X451797Y315866D01*
X451961Y316409D01*
X452273Y316471D01*
X453001Y316957D01*
X453487Y317685D01*
X453559Y318043D01*
X451415D01*
Y318543D01*
X450915D01*
Y320687D01*
X450557Y320616D01*
X449829Y320129D01*
X449343Y319402D01*
X449281Y319090D01*
X448738Y318925D01*
X432659Y335004D01*
X432851Y335468D01*
X432987Y336500D01*
X432851Y337532D01*
X432453Y338493D01*
X431819Y339319D01*
X430993Y339953D01*
X430032Y340351D01*
X429000Y340487D01*
D02*
G37*
G36*
X661915Y300687D02*
Y299043D01*
X663559D01*
X663487Y299402D01*
X663001Y300129D01*
X662273Y300616D01*
X661915Y300687D01*
D02*
G37*
G36*
X660915D02*
X660557Y300616D01*
X659829Y300129D01*
X659343Y299402D01*
X659271Y299043D01*
X660915D01*
Y300687D01*
D02*
G37*
G36*
X641915D02*
Y299043D01*
X643559D01*
X643487Y299402D01*
X643001Y300129D01*
X642273Y300616D01*
X641915Y300687D01*
D02*
G37*
G36*
X640915D02*
X640557Y300616D01*
X639829Y300129D01*
X639343Y299402D01*
X639271Y299043D01*
X640915D01*
Y300687D01*
D02*
G37*
G36*
X481915D02*
Y299043D01*
X483559D01*
X483487Y299402D01*
X483001Y300129D01*
X482273Y300616D01*
X481915Y300687D01*
D02*
G37*
G36*
X480915D02*
X480557Y300616D01*
X479829Y300129D01*
X479343Y299402D01*
X479271Y299043D01*
X480915D01*
Y300687D01*
D02*
G37*
G36*
X460915D02*
X460557Y300616D01*
X459829Y300129D01*
X459343Y299402D01*
X459271Y299043D01*
X460915D01*
Y300687D01*
D02*
G37*
G36*
X441915D02*
Y299043D01*
X443559D01*
X443487Y299402D01*
X443001Y300129D01*
X442273Y300616D01*
X441915Y300687D01*
D02*
G37*
G36*
X440915D02*
X440557Y300616D01*
X439829Y300129D01*
X439343Y299402D01*
X439271Y299043D01*
X440915D01*
Y300687D01*
D02*
G37*
G36*
X401915D02*
Y299043D01*
X403559D01*
X403487Y299402D01*
X403001Y300129D01*
X402273Y300616D01*
X401915Y300687D01*
D02*
G37*
G36*
X400915D02*
X400557Y300616D01*
X399829Y300129D01*
X399343Y299402D01*
X399271Y299043D01*
X400915D01*
Y300687D01*
D02*
G37*
G36*
X663559Y298043D02*
X661915D01*
Y296400D01*
X662273Y296471D01*
X663001Y296957D01*
X663487Y297685D01*
X663559Y298043D01*
D02*
G37*
G36*
X660915D02*
X659271D01*
X659343Y297685D01*
X659829Y296957D01*
X660557Y296471D01*
X660915Y296400D01*
Y298043D01*
D02*
G37*
G36*
X643559D02*
X641915D01*
Y296400D01*
X642273Y296471D01*
X643001Y296957D01*
X643487Y297685D01*
X643559Y298043D01*
D02*
G37*
G36*
X640915D02*
X639271D01*
X639343Y297685D01*
X639829Y296957D01*
X640557Y296471D01*
X640915Y296400D01*
Y298043D01*
D02*
G37*
G36*
X483559D02*
X481915D01*
Y296400D01*
X482273Y296471D01*
X483001Y296957D01*
X483487Y297685D01*
X483559Y298043D01*
D02*
G37*
G36*
X480915D02*
X479271D01*
X479343Y297685D01*
X479829Y296957D01*
X480557Y296471D01*
X480915Y296400D01*
Y298043D01*
D02*
G37*
G36*
X463559D02*
X461915D01*
Y296400D01*
X462273Y296471D01*
X463001Y296957D01*
X463487Y297685D01*
X463559Y298043D01*
D02*
G37*
G36*
X460915D02*
X459271D01*
X459343Y297685D01*
X459829Y296957D01*
X460557Y296471D01*
X460915Y296400D01*
Y298043D01*
D02*
G37*
G36*
X443559D02*
X441915D01*
Y296400D01*
X442273Y296471D01*
X443001Y296957D01*
X443487Y297685D01*
X443559Y298043D01*
D02*
G37*
G36*
X440915D02*
X439271D01*
X439343Y297685D01*
X439829Y296957D01*
X440557Y296471D01*
X440915Y296400D01*
Y298043D01*
D02*
G37*
G36*
X403559D02*
X401915D01*
Y296400D01*
X402273Y296471D01*
X403001Y296957D01*
X403487Y297685D01*
X403559Y298043D01*
D02*
G37*
G36*
X400915D02*
X399271D01*
X399343Y297685D01*
X399829Y296957D01*
X400557Y296471D01*
X400915Y296400D01*
Y298043D01*
D02*
G37*
G36*
X419000Y340487D02*
X417968Y340351D01*
X417007Y339953D01*
X416181Y339319D01*
X415547Y338493D01*
X415149Y337532D01*
X415013Y336500D01*
X415149Y335468D01*
X415547Y334507D01*
X416181Y333681D01*
X417007Y333047D01*
X417471Y332855D01*
Y289633D01*
X417067Y289230D01*
X417000Y289243D01*
X416142Y289072D01*
X415414Y288586D01*
X414928Y287858D01*
X414757Y287000D01*
X414928Y286142D01*
X415414Y285414D01*
X416142Y284928D01*
X417000Y284757D01*
X417858Y284928D01*
X418586Y285414D01*
X419072Y286142D01*
X419243Y287000D01*
X419230Y287067D01*
X420081Y287919D01*
X420413Y288415D01*
X420529Y289000D01*
Y332855D01*
X420993Y333047D01*
X421819Y333681D01*
X422453Y334507D01*
X422851Y335468D01*
X422987Y336500D01*
X422851Y337532D01*
X422453Y338493D01*
X421819Y339319D01*
X420993Y339953D01*
X420032Y340351D01*
X419000Y340487D01*
D02*
G37*
G36*
X631915Y280687D02*
Y279043D01*
X633559D01*
X633487Y279402D01*
X633001Y280129D01*
X632273Y280616D01*
X631915Y280687D01*
D02*
G37*
G36*
X630915D02*
X630557Y280616D01*
X629829Y280129D01*
X629343Y279402D01*
X629271Y279043D01*
X630915D01*
Y280687D01*
D02*
G37*
G36*
X611915D02*
Y279043D01*
X613559D01*
X613487Y279402D01*
X613001Y280129D01*
X612273Y280616D01*
X611915Y280687D01*
D02*
G37*
G36*
X610915D02*
X610557Y280616D01*
X609829Y280129D01*
X609343Y279402D01*
X609271Y279043D01*
X610915D01*
Y280687D01*
D02*
G37*
G36*
X591915D02*
Y279043D01*
X593559D01*
X593487Y279402D01*
X593001Y280129D01*
X592273Y280616D01*
X591915Y280687D01*
D02*
G37*
G36*
X590915D02*
X590557Y280616D01*
X589829Y280129D01*
X589343Y279402D01*
X589271Y279043D01*
X590915D01*
Y280687D01*
D02*
G37*
G36*
X571915D02*
Y279043D01*
X573559D01*
X573487Y279402D01*
X573001Y280129D01*
X572273Y280616D01*
X571915Y280687D01*
D02*
G37*
G36*
X570915D02*
X570557Y280616D01*
X569829Y280129D01*
X569343Y279402D01*
X569271Y279043D01*
X570915D01*
Y280687D01*
D02*
G37*
G36*
X551915D02*
Y279043D01*
X553559D01*
X553487Y279402D01*
X553001Y280129D01*
X552273Y280616D01*
X551915Y280687D01*
D02*
G37*
G36*
X550915D02*
X550557Y280616D01*
X549829Y280129D01*
X549343Y279402D01*
X549271Y279043D01*
X550915D01*
Y280687D01*
D02*
G37*
G36*
X531915D02*
Y279043D01*
X533559D01*
X533487Y279402D01*
X533001Y280129D01*
X532273Y280616D01*
X531915Y280687D01*
D02*
G37*
G36*
X530915D02*
X530557Y280616D01*
X529829Y280129D01*
X529343Y279402D01*
X529271Y279043D01*
X530915D01*
Y280687D01*
D02*
G37*
G36*
X511915D02*
Y279043D01*
X513559D01*
X513487Y279402D01*
X513001Y280129D01*
X512273Y280616D01*
X511915Y280687D01*
D02*
G37*
G36*
X510915D02*
X510557Y280616D01*
X509829Y280129D01*
X509343Y279402D01*
X509271Y279043D01*
X510915D01*
Y280687D01*
D02*
G37*
G36*
X491915D02*
Y279043D01*
X493559D01*
X493487Y279402D01*
X493001Y280129D01*
X492273Y280616D01*
X491915Y280687D01*
D02*
G37*
G36*
X471915D02*
Y279043D01*
X473559D01*
X473487Y279402D01*
X473001Y280129D01*
X472273Y280616D01*
X471915Y280687D01*
D02*
G37*
G36*
X470915D02*
X470557Y280616D01*
X469829Y280129D01*
X469343Y279402D01*
X469271Y279043D01*
X470915D01*
Y280687D01*
D02*
G37*
G36*
X451915D02*
Y279043D01*
X453559D01*
X453487Y279402D01*
X453001Y280129D01*
X452273Y280616D01*
X451915Y280687D01*
D02*
G37*
G36*
X450915D02*
X450557Y280616D01*
X449829Y280129D01*
X449343Y279402D01*
X449271Y279043D01*
X450915D01*
Y280687D01*
D02*
G37*
G36*
X431915D02*
Y279043D01*
X433559D01*
X433487Y279402D01*
X433001Y280129D01*
X432273Y280616D01*
X431915Y280687D01*
D02*
G37*
G36*
X430915D02*
X430557Y280616D01*
X429829Y280129D01*
X429343Y279402D01*
X429271Y279043D01*
X430915D01*
Y280687D01*
D02*
G37*
G36*
X411915D02*
Y279043D01*
X413559D01*
X413487Y279402D01*
X413001Y280129D01*
X412273Y280616D01*
X411915Y280687D01*
D02*
G37*
G36*
X410915D02*
X410557Y280616D01*
X409829Y280129D01*
X409343Y279402D01*
X409271Y279043D01*
X410915D01*
Y280687D01*
D02*
G37*
G36*
X633559Y278043D02*
X631915D01*
Y276400D01*
X632273Y276471D01*
X633001Y276957D01*
X633487Y277685D01*
X633559Y278043D01*
D02*
G37*
G36*
X630915D02*
X629271D01*
X629343Y277685D01*
X629829Y276957D01*
X630557Y276471D01*
X630915Y276400D01*
Y278043D01*
D02*
G37*
G36*
X613559D02*
X611915D01*
Y276400D01*
X612273Y276471D01*
X613001Y276957D01*
X613487Y277685D01*
X613559Y278043D01*
D02*
G37*
G36*
X610915D02*
X609271D01*
X609343Y277685D01*
X609829Y276957D01*
X610557Y276471D01*
X610915Y276400D01*
Y278043D01*
D02*
G37*
G36*
X593559D02*
X591915D01*
Y276400D01*
X592273Y276471D01*
X593001Y276957D01*
X593487Y277685D01*
X593559Y278043D01*
D02*
G37*
G36*
X590915D02*
X589271D01*
X589343Y277685D01*
X589829Y276957D01*
X590557Y276471D01*
X590915Y276400D01*
Y278043D01*
D02*
G37*
G36*
X573559D02*
X571915D01*
Y276400D01*
X572273Y276471D01*
X573001Y276957D01*
X573487Y277685D01*
X573559Y278043D01*
D02*
G37*
G36*
X570915D02*
X569271D01*
X569343Y277685D01*
X569829Y276957D01*
X570557Y276471D01*
X570915Y276400D01*
Y278043D01*
D02*
G37*
G36*
X553559D02*
X551915D01*
Y276400D01*
X552273Y276471D01*
X553001Y276957D01*
X553487Y277685D01*
X553559Y278043D01*
D02*
G37*
G36*
X550915D02*
X549271D01*
X549343Y277685D01*
X549829Y276957D01*
X550557Y276471D01*
X550915Y276400D01*
Y278043D01*
D02*
G37*
G36*
X533559D02*
X531915D01*
Y276400D01*
X532273Y276471D01*
X533001Y276957D01*
X533487Y277685D01*
X533559Y278043D01*
D02*
G37*
G36*
X530915D02*
X529271D01*
X529343Y277685D01*
X529829Y276957D01*
X530557Y276471D01*
X530915Y276400D01*
Y278043D01*
D02*
G37*
G36*
X513559D02*
X511915D01*
Y276400D01*
X512273Y276471D01*
X513001Y276957D01*
X513487Y277685D01*
X513559Y278043D01*
D02*
G37*
G36*
X510915D02*
X509271D01*
X509343Y277685D01*
X509829Y276957D01*
X510557Y276471D01*
X510915Y276400D01*
Y278043D01*
D02*
G37*
G36*
X473559D02*
X471915D01*
Y276400D01*
X472273Y276471D01*
X473001Y276957D01*
X473487Y277685D01*
X473559Y278043D01*
D02*
G37*
G36*
X470915D02*
X469271D01*
X469343Y277685D01*
X469829Y276957D01*
X470557Y276471D01*
X470915Y276400D01*
Y278043D01*
D02*
G37*
G36*
X453559D02*
X451915D01*
Y276400D01*
X452273Y276471D01*
X453001Y276957D01*
X453487Y277685D01*
X453559Y278043D01*
D02*
G37*
G36*
X450915D02*
X449271D01*
X449343Y277685D01*
X449829Y276957D01*
X450557Y276471D01*
X450915Y276400D01*
Y278043D01*
D02*
G37*
G36*
X433559D02*
X431915D01*
Y276400D01*
X432273Y276471D01*
X433001Y276957D01*
X433487Y277685D01*
X433559Y278043D01*
D02*
G37*
G36*
X430915D02*
X429271D01*
X429343Y277685D01*
X429829Y276957D01*
X430557Y276471D01*
X430915Y276400D01*
Y278043D01*
D02*
G37*
G36*
X413559D02*
X411915D01*
Y276400D01*
X412273Y276471D01*
X413001Y276957D01*
X413487Y277685D01*
X413559Y278043D01*
D02*
G37*
G36*
X410915D02*
X409271D01*
X409343Y277685D01*
X409829Y276957D01*
X410557Y276471D01*
X410915Y276400D01*
Y278043D01*
D02*
G37*
G36*
X393453Y279453D02*
X390000D01*
Y276000D01*
X393453D01*
Y279453D01*
D02*
G37*
G36*
X389000D02*
X385547D01*
Y276000D01*
X389000D01*
Y279453D01*
D02*
G37*
G36*
X539500Y290029D02*
X538915Y289913D01*
X538419Y289581D01*
X538087Y289085D01*
X537971Y288500D01*
Y282124D01*
X537914Y282086D01*
X537428Y281358D01*
X537257Y280500D01*
X537428Y279642D01*
X537914Y278914D01*
X538642Y278428D01*
X539500Y278257D01*
X539567Y278270D01*
X544346Y273491D01*
X544154Y273029D01*
X520624D01*
X520586Y273086D01*
X519858Y273572D01*
X519000Y273743D01*
X518142Y273572D01*
X517414Y273086D01*
X516928Y272358D01*
X516757Y271500D01*
X516928Y270642D01*
X517414Y269914D01*
X518142Y269428D01*
X519000Y269257D01*
X519858Y269428D01*
X520586Y269914D01*
X520624Y269971D01*
X544367D01*
X557471Y256867D01*
Y190124D01*
X557414Y190086D01*
X557029Y189511D01*
X556529Y189662D01*
Y234500D01*
X556413Y235085D01*
X556081Y235581D01*
X552230Y239433D01*
X552243Y239500D01*
X552072Y240358D01*
X551586Y241086D01*
X550858Y241572D01*
X550000Y241743D01*
X549142Y241572D01*
X548414Y241086D01*
X547928Y240358D01*
X547757Y239500D01*
X547928Y238642D01*
X548414Y237914D01*
X549142Y237428D01*
X550000Y237257D01*
X550067Y237270D01*
X553471Y233867D01*
Y183124D01*
X553414Y183086D01*
X552928Y182358D01*
X552854Y181989D01*
X552812Y181935D01*
X552298Y181755D01*
X552229Y181814D01*
Y229300D01*
X552113Y229885D01*
X551781Y230381D01*
X545081Y237081D01*
X544585Y237413D01*
X544000Y237529D01*
X539124D01*
X539086Y237586D01*
X538358Y238072D01*
X537500Y238243D01*
X536642Y238072D01*
X535914Y237586D01*
X535428Y236858D01*
X535257Y236000D01*
X535428Y235142D01*
X535914Y234414D01*
X536642Y233928D01*
X537500Y233757D01*
X538358Y233928D01*
X539086Y234414D01*
X539124Y234471D01*
X543366D01*
X546204Y231633D01*
X546093Y231160D01*
X546031Y231099D01*
X545329Y230629D01*
X544843Y229902D01*
X544771Y229543D01*
X546915D01*
Y229043D01*
X547415D01*
Y226900D01*
X547773Y226971D01*
X548501Y227457D01*
X548671Y227711D01*
X549171Y227559D01*
Y180718D01*
X549287Y180133D01*
X549619Y179637D01*
X550373Y178882D01*
X550357Y178800D01*
X550528Y177942D01*
X551014Y177214D01*
X551742Y176728D01*
X552600Y176557D01*
X553458Y176728D01*
X554186Y177214D01*
X554672Y177942D01*
X554839Y178779D01*
X554980Y179237D01*
X555000Y179257D01*
X555858Y179428D01*
X556586Y179914D01*
X557072Y180642D01*
X557243Y181500D01*
X557072Y182358D01*
X556586Y183086D01*
X556529Y183124D01*
Y187338D01*
X557029Y187489D01*
X557414Y186914D01*
X558142Y186428D01*
X559000Y186257D01*
X559858Y186428D01*
X560586Y186914D01*
X561072Y187642D01*
X561243Y188500D01*
X561072Y189358D01*
X560586Y190086D01*
X560529Y190124D01*
Y195838D01*
X561029Y195989D01*
X561414Y195414D01*
X562142Y194928D01*
X563000Y194757D01*
X563858Y194928D01*
X564586Y195414D01*
X565072Y196142D01*
X565243Y197000D01*
X565072Y197858D01*
X564586Y198586D01*
X564529Y198624D01*
Y208658D01*
X565029Y208837D01*
X565642Y208428D01*
X566500Y208257D01*
X567358Y208428D01*
X568086Y208914D01*
X568572Y209642D01*
X568743Y210500D01*
X568572Y211358D01*
X568086Y212086D01*
X568029Y212124D01*
Y267500D01*
X567913Y268085D01*
X567581Y268581D01*
X563730Y272433D01*
X563743Y272500D01*
X563572Y273358D01*
X563086Y274086D01*
X562358Y274572D01*
X561500Y274743D01*
X560642Y274572D01*
X559914Y274086D01*
X559428Y273358D01*
X559257Y272500D01*
X559428Y271642D01*
X559914Y270914D01*
X560642Y270428D01*
X561500Y270257D01*
X561567Y270270D01*
X564971Y266866D01*
Y257345D01*
X564471Y257295D01*
X564413Y257585D01*
X564081Y258081D01*
X541730Y280433D01*
X541743Y280500D01*
X541572Y281358D01*
X541086Y282086D01*
X541029Y282124D01*
Y288500D01*
X540913Y289085D01*
X540581Y289581D01*
X540085Y289913D01*
X539500Y290029D01*
D02*
G37*
G36*
X393453Y275000D02*
X390000D01*
Y271547D01*
X393453D01*
Y275000D01*
D02*
G37*
G36*
X389000D02*
X385547D01*
Y271547D01*
X389000D01*
Y275000D01*
D02*
G37*
G36*
X389500Y269487D02*
X388468Y269351D01*
X387507Y268953D01*
X386681Y268319D01*
X386047Y267493D01*
X385649Y266532D01*
X385513Y265500D01*
X385649Y264468D01*
X386047Y263507D01*
X386681Y262681D01*
X387507Y262047D01*
X388468Y261649D01*
X389500Y261513D01*
X390532Y261649D01*
X391493Y262047D01*
X392319Y262681D01*
X392953Y263507D01*
X393351Y264468D01*
X393487Y265500D01*
X393351Y266532D01*
X392953Y267493D01*
X392319Y268319D01*
X391493Y268953D01*
X390532Y269351D01*
X389500Y269487D01*
D02*
G37*
G36*
X625500Y273243D02*
X624642Y273072D01*
X623914Y272586D01*
X623428Y271858D01*
X623257Y271000D01*
X623428Y270142D01*
X623914Y269414D01*
X623971Y269376D01*
Y259618D01*
X623508Y259420D01*
X623471Y259427D01*
X623001Y260129D01*
X622273Y260616D01*
X621915Y260687D01*
Y258543D01*
Y256400D01*
X622273Y256471D01*
X623001Y256957D01*
X623471Y257660D01*
X623508Y257666D01*
X623971Y257469D01*
Y238624D01*
X623914Y238586D01*
X623428Y237858D01*
X623257Y237000D01*
X623428Y236142D01*
X623914Y235414D01*
X624642Y234928D01*
X625500Y234757D01*
X626358Y234928D01*
X627086Y235414D01*
X627572Y236142D01*
X627743Y237000D01*
X627572Y237858D01*
X627086Y238586D01*
X627029Y238624D01*
Y269376D01*
X627086Y269414D01*
X627572Y270142D01*
X627743Y271000D01*
X627572Y271858D01*
X627086Y272586D01*
X626358Y273072D01*
X625500Y273243D01*
D02*
G37*
G36*
X661915Y260687D02*
Y259043D01*
X663559D01*
X663487Y259402D01*
X663001Y260129D01*
X662273Y260616D01*
X661915Y260687D01*
D02*
G37*
G36*
X660915D02*
X660557Y260616D01*
X659829Y260129D01*
X659343Y259402D01*
X659271Y259043D01*
X660915D01*
Y260687D01*
D02*
G37*
G36*
X641915D02*
Y259043D01*
X643559D01*
X643487Y259402D01*
X643001Y260129D01*
X642273Y260616D01*
X641915Y260687D01*
D02*
G37*
G36*
X640915D02*
X640557Y260616D01*
X639829Y260129D01*
X639343Y259402D01*
X639271Y259043D01*
X640915D01*
Y260687D01*
D02*
G37*
G36*
X620915D02*
X620557Y260616D01*
X619829Y260129D01*
X619343Y259402D01*
X619271Y259043D01*
X620915D01*
Y260687D01*
D02*
G37*
G36*
X541915D02*
Y259043D01*
X543559D01*
X543487Y259402D01*
X543001Y260129D01*
X542273Y260616D01*
X541915Y260687D01*
D02*
G37*
G36*
X540915D02*
X540557Y260616D01*
X539829Y260129D01*
X539343Y259402D01*
X539271Y259043D01*
X540915D01*
Y260687D01*
D02*
G37*
G36*
X461915D02*
Y259043D01*
X463559D01*
X463487Y259402D01*
X463001Y260129D01*
X462273Y260616D01*
X461915Y260687D01*
D02*
G37*
G36*
X460915D02*
X460557Y260616D01*
X459829Y260129D01*
X459343Y259402D01*
X459271Y259043D01*
X460915D01*
Y260687D01*
D02*
G37*
G36*
X441915D02*
Y259043D01*
X443559D01*
X443487Y259402D01*
X443001Y260129D01*
X442273Y260616D01*
X441915Y260687D01*
D02*
G37*
G36*
X440915D02*
X440557Y260616D01*
X439829Y260129D01*
X439343Y259402D01*
X439271Y259043D01*
X440915D01*
Y260687D01*
D02*
G37*
G36*
X421915D02*
Y259043D01*
X423559D01*
X423487Y259402D01*
X423001Y260129D01*
X422273Y260616D01*
X421915Y260687D01*
D02*
G37*
G36*
X420915D02*
X420557Y260616D01*
X419829Y260129D01*
X419343Y259402D01*
X419271Y259043D01*
X420915D01*
Y260687D01*
D02*
G37*
G36*
X663559Y258043D02*
X661915D01*
Y256400D01*
X662273Y256471D01*
X663001Y256957D01*
X663487Y257685D01*
X663559Y258043D01*
D02*
G37*
G36*
X660915D02*
X659271D01*
X659343Y257685D01*
X659829Y256957D01*
X660557Y256471D01*
X660915Y256400D01*
Y258043D01*
D02*
G37*
G36*
X643559D02*
X641915D01*
Y256400D01*
X642273Y256471D01*
X643001Y256957D01*
X643487Y257685D01*
X643559Y258043D01*
D02*
G37*
G36*
X640915D02*
X639271D01*
X639343Y257685D01*
X639829Y256957D01*
X640557Y256471D01*
X640915Y256400D01*
Y258043D01*
D02*
G37*
G36*
X620915D02*
X619271D01*
X619343Y257685D01*
X619829Y256957D01*
X620557Y256471D01*
X620915Y256400D01*
Y258043D01*
D02*
G37*
G36*
X543559D02*
X541915D01*
Y256400D01*
X542273Y256471D01*
X543001Y256957D01*
X543487Y257685D01*
X543559Y258043D01*
D02*
G37*
G36*
X540915D02*
X539271D01*
X539343Y257685D01*
X539829Y256957D01*
X540557Y256471D01*
X540915Y256400D01*
Y258043D01*
D02*
G37*
G36*
X463559D02*
X461915D01*
Y256400D01*
X462273Y256471D01*
X463001Y256957D01*
X463487Y257685D01*
X463559Y258043D01*
D02*
G37*
G36*
X460915D02*
X459271D01*
X459343Y257685D01*
X459829Y256957D01*
X460557Y256471D01*
X460915Y256400D01*
Y258043D01*
D02*
G37*
G36*
X443559D02*
X441915D01*
Y256400D01*
X442273Y256471D01*
X443001Y256957D01*
X443487Y257685D01*
X443559Y258043D01*
D02*
G37*
G36*
X440915D02*
X439271D01*
X439343Y257685D01*
X439829Y256957D01*
X440557Y256471D01*
X440915Y256400D01*
Y258043D01*
D02*
G37*
G36*
X423559D02*
X421915D01*
Y256400D01*
X422273Y256471D01*
X423001Y256957D01*
X423487Y257685D01*
X423559Y258043D01*
D02*
G37*
G36*
X420915D02*
X419271D01*
X419343Y257685D01*
X419829Y256957D01*
X420557Y256471D01*
X420915Y256400D01*
Y258043D01*
D02*
G37*
G36*
X672000Y258487D02*
X670968Y258351D01*
X670007Y257953D01*
X669181Y257319D01*
X668547Y256493D01*
X668149Y255532D01*
X668013Y254500D01*
X668149Y253468D01*
X668547Y252507D01*
X669181Y251681D01*
X670007Y251047D01*
X670968Y250649D01*
X672000Y250513D01*
X673032Y250649D01*
X673993Y251047D01*
X674819Y251681D01*
X675453Y252507D01*
X675851Y253468D01*
X675987Y254500D01*
X675851Y255532D01*
X675453Y256493D01*
X674819Y257319D01*
X673993Y257953D01*
X673032Y258351D01*
X672000Y258487D01*
D02*
G37*
G36*
X649500Y273243D02*
X648642Y273072D01*
X647914Y272586D01*
X647428Y271858D01*
X647257Y271000D01*
X647428Y270142D01*
X647721Y269703D01*
Y250791D01*
X647414Y250586D01*
X646928Y249858D01*
X646757Y249000D01*
X646928Y248142D01*
X647414Y247414D01*
X648142Y246928D01*
X649000Y246757D01*
X649858Y246928D01*
X650586Y247414D01*
X651072Y248142D01*
X651243Y249000D01*
X651072Y249858D01*
X650779Y250297D01*
Y269209D01*
X651086Y269414D01*
X651572Y270142D01*
X651743Y271000D01*
X651572Y271858D01*
X651086Y272586D01*
X650358Y273072D01*
X649500Y273243D01*
D02*
G37*
G36*
X672000Y248487D02*
X670968Y248351D01*
X670007Y247953D01*
X669181Y247319D01*
X668547Y246493D01*
X668149Y245532D01*
X668013Y244500D01*
X668149Y243468D01*
X668547Y242507D01*
X669181Y241681D01*
X670007Y241047D01*
X670968Y240649D01*
X672000Y240513D01*
X673032Y240649D01*
X673993Y241047D01*
X674819Y241681D01*
X675453Y242507D01*
X675851Y243468D01*
X675987Y244500D01*
X675851Y245532D01*
X675453Y246493D01*
X674819Y247319D01*
X673993Y247953D01*
X673032Y248351D01*
X672000Y248487D01*
D02*
G37*
G36*
X651915Y240687D02*
Y239043D01*
X653559D01*
X653487Y239402D01*
X653001Y240129D01*
X652273Y240616D01*
X651915Y240687D01*
D02*
G37*
G36*
X650915D02*
X650557Y240616D01*
X649829Y240129D01*
X649343Y239402D01*
X649271Y239043D01*
X650915D01*
Y240687D01*
D02*
G37*
G36*
X631915D02*
Y239043D01*
X633559D01*
X633487Y239402D01*
X633001Y240129D01*
X632273Y240616D01*
X631915Y240687D01*
D02*
G37*
G36*
X630915D02*
X630557Y240616D01*
X629829Y240129D01*
X629343Y239402D01*
X629271Y239043D01*
X630915D01*
Y240687D01*
D02*
G37*
G36*
X611915D02*
Y239043D01*
X613559D01*
X613487Y239402D01*
X613001Y240129D01*
X612273Y240616D01*
X611915Y240687D01*
D02*
G37*
G36*
X610915D02*
X610557Y240616D01*
X609829Y240129D01*
X609343Y239402D01*
X609271Y239043D01*
X610915D01*
Y240687D01*
D02*
G37*
G36*
X591915D02*
Y239043D01*
X593559D01*
X593487Y239402D01*
X593001Y240129D01*
X592273Y240616D01*
X591915Y240687D01*
D02*
G37*
G36*
X590915D02*
X590557Y240616D01*
X589829Y240129D01*
X589343Y239402D01*
X589271Y239043D01*
X590915D01*
Y240687D01*
D02*
G37*
G36*
X571915D02*
Y239043D01*
X573559D01*
X573487Y239402D01*
X573001Y240129D01*
X572273Y240616D01*
X571915Y240687D01*
D02*
G37*
G36*
X570915D02*
X570557Y240616D01*
X569829Y240129D01*
X569343Y239402D01*
X569271Y239043D01*
X570915D01*
Y240687D01*
D02*
G37*
G36*
X471915D02*
Y239043D01*
X473559D01*
X473487Y239402D01*
X473001Y240129D01*
X472273Y240616D01*
X471915Y240687D01*
D02*
G37*
G36*
X470915D02*
X470557Y240616D01*
X469829Y240129D01*
X469343Y239402D01*
X469271Y239043D01*
X470915D01*
Y240687D01*
D02*
G37*
G36*
X451915D02*
Y239043D01*
X453559D01*
X453487Y239402D01*
X453001Y240129D01*
X452273Y240616D01*
X451915Y240687D01*
D02*
G37*
G36*
X450915D02*
X450557Y240616D01*
X449829Y240129D01*
X449343Y239402D01*
X449271Y239043D01*
X450915D01*
Y240687D01*
D02*
G37*
G36*
X431915D02*
Y239043D01*
X433559D01*
X433487Y239402D01*
X433001Y240129D01*
X432273Y240616D01*
X431915Y240687D01*
D02*
G37*
G36*
X430915D02*
X430557Y240616D01*
X429829Y240129D01*
X429343Y239402D01*
X429271Y239043D01*
X430915D01*
Y240687D01*
D02*
G37*
G36*
X411915D02*
Y239043D01*
X413559D01*
X413487Y239402D01*
X413001Y240129D01*
X412273Y240616D01*
X411915Y240687D01*
D02*
G37*
G36*
X410915D02*
X410557Y240616D01*
X409829Y240129D01*
X409343Y239402D01*
X409271Y239043D01*
X410915D01*
Y240687D01*
D02*
G37*
G36*
X653559Y238043D02*
X651915D01*
Y236400D01*
X652273Y236471D01*
X653001Y236957D01*
X653487Y237685D01*
X653559Y238043D01*
D02*
G37*
G36*
X650915D02*
X649271D01*
X649343Y237685D01*
X649829Y236957D01*
X650557Y236471D01*
X650915Y236400D01*
Y238043D01*
D02*
G37*
G36*
X633559D02*
X631915D01*
Y236400D01*
X632273Y236471D01*
X633001Y236957D01*
X633487Y237685D01*
X633559Y238043D01*
D02*
G37*
G36*
X630915D02*
X629271D01*
X629343Y237685D01*
X629829Y236957D01*
X630557Y236471D01*
X630915Y236400D01*
Y238043D01*
D02*
G37*
G36*
X613559D02*
X611915D01*
Y236400D01*
X612273Y236471D01*
X613001Y236957D01*
X613487Y237685D01*
X613559Y238043D01*
D02*
G37*
G36*
X610915D02*
X609271D01*
X609343Y237685D01*
X609829Y236957D01*
X610557Y236471D01*
X610915Y236400D01*
Y238043D01*
D02*
G37*
G36*
X593559D02*
X591915D01*
Y236400D01*
X592273Y236471D01*
X593001Y236957D01*
X593487Y237685D01*
X593559Y238043D01*
D02*
G37*
G36*
X590915D02*
X589271D01*
X589343Y237685D01*
X589829Y236957D01*
X590557Y236471D01*
X590915Y236400D01*
Y238043D01*
D02*
G37*
G36*
X573559D02*
X571915D01*
Y236400D01*
X572273Y236471D01*
X573001Y236957D01*
X573487Y237685D01*
X573559Y238043D01*
D02*
G37*
G36*
X570915D02*
X569271D01*
X569343Y237685D01*
X569829Y236957D01*
X570557Y236471D01*
X570915Y236400D01*
Y238043D01*
D02*
G37*
G36*
X473559D02*
X471915D01*
Y236400D01*
X472273Y236471D01*
X473001Y236957D01*
X473487Y237685D01*
X473559Y238043D01*
D02*
G37*
G36*
X470915D02*
X469271D01*
X469343Y237685D01*
X469829Y236957D01*
X470557Y236471D01*
X470915Y236400D01*
Y238043D01*
D02*
G37*
G36*
X453559D02*
X451915D01*
Y236400D01*
X452273Y236471D01*
X453001Y236957D01*
X453487Y237685D01*
X453559Y238043D01*
D02*
G37*
G36*
X450915D02*
X449271D01*
X449343Y237685D01*
X449829Y236957D01*
X450557Y236471D01*
X450915Y236400D01*
Y238043D01*
D02*
G37*
G36*
X433559D02*
X431915D01*
Y236400D01*
X432273Y236471D01*
X433001Y236957D01*
X433487Y237685D01*
X433559Y238043D01*
D02*
G37*
G36*
X430915D02*
X429271D01*
X429343Y237685D01*
X429829Y236957D01*
X430557Y236471D01*
X430915Y236400D01*
Y238043D01*
D02*
G37*
G36*
X413559D02*
X411915D01*
Y236400D01*
X412273Y236471D01*
X413001Y236957D01*
X413487Y237685D01*
X413559Y238043D01*
D02*
G37*
G36*
X410915D02*
X409271D01*
X409343Y237685D01*
X409829Y236957D01*
X410557Y236471D01*
X410915Y236400D01*
Y238043D01*
D02*
G37*
G36*
X437000Y235144D02*
Y233500D01*
X438644D01*
X438572Y233858D01*
X438086Y234586D01*
X437358Y235072D01*
X437000Y235144D01*
D02*
G37*
G36*
X436000D02*
X435642Y235072D01*
X434914Y234586D01*
X434428Y233858D01*
X434356Y233500D01*
X436000D01*
Y235144D01*
D02*
G37*
G36*
X438644Y232500D02*
X437000D01*
Y230856D01*
X437358Y230928D01*
X438086Y231414D01*
X438572Y232142D01*
X438644Y232500D01*
D02*
G37*
G36*
X436000D02*
X434356D01*
X434428Y232142D01*
X434914Y231414D01*
X435642Y230928D01*
X436000Y230856D01*
Y232500D01*
D02*
G37*
G36*
X672000Y238487D02*
X670968Y238351D01*
X670007Y237953D01*
X669181Y237319D01*
X668547Y236493D01*
X668149Y235532D01*
X668013Y234500D01*
X668149Y233468D01*
X668547Y232507D01*
X669181Y231681D01*
X670007Y231047D01*
X670968Y230649D01*
X672000Y230513D01*
X673032Y230649D01*
X673993Y231047D01*
X674819Y231681D01*
X675453Y232507D01*
X675851Y233468D01*
X675987Y234500D01*
X675851Y235532D01*
X675453Y236493D01*
X674819Y237319D01*
X673993Y237953D01*
X673032Y238351D01*
X672000Y238487D01*
D02*
G37*
G36*
X604000Y273743D02*
X603142Y273572D01*
X602414Y273086D01*
X601928Y272358D01*
X601757Y271500D01*
X601928Y270642D01*
X602414Y269914D01*
X602471Y269876D01*
Y231624D01*
X602414Y231586D01*
X601928Y230858D01*
X601757Y230000D01*
X601928Y229142D01*
X602414Y228414D01*
X603142Y227928D01*
X604000Y227757D01*
X604858Y227928D01*
X605586Y228414D01*
X606072Y229142D01*
X606243Y230000D01*
X606072Y230858D01*
X605586Y231586D01*
X605529Y231624D01*
Y269876D01*
X605586Y269914D01*
X606072Y270642D01*
X606243Y271500D01*
X606072Y272358D01*
X605586Y273086D01*
X604858Y273572D01*
X604000Y273743D01*
D02*
G37*
G36*
X546415Y228543D02*
X544771D01*
X544843Y228185D01*
X545329Y227457D01*
X546057Y226971D01*
X546415Y226900D01*
Y228543D01*
D02*
G37*
G36*
X496500Y228144D02*
Y226500D01*
X498144D01*
X498072Y226858D01*
X497586Y227586D01*
X496858Y228072D01*
X496500Y228144D01*
D02*
G37*
G36*
X495500D02*
X495142Y228072D01*
X494414Y227586D01*
X493928Y226858D01*
X493856Y226500D01*
X495500D01*
Y228144D01*
D02*
G37*
G36*
X510300Y231443D02*
X509442Y231272D01*
X508714Y230786D01*
X508228Y230058D01*
X508098Y229404D01*
X507854Y228943D01*
X506995Y228772D01*
X506268Y228286D01*
X505782Y227558D01*
X505617Y226730D01*
X505500Y226243D01*
X504642Y226072D01*
X503914Y225586D01*
X503428Y224858D01*
X503257Y224000D01*
X503428Y223142D01*
X503914Y222414D01*
X504642Y221928D01*
X505500Y221757D01*
X506358Y221928D01*
X507086Y222414D01*
X507124Y222471D01*
X516806D01*
X517042Y222030D01*
X516928Y221858D01*
X516757Y221000D01*
X516928Y220142D01*
X517414Y219414D01*
X518142Y218928D01*
X519000Y218757D01*
X519858Y218928D01*
X520553Y219392D01*
X521445D01*
X530770Y210067D01*
X530757Y210000D01*
X530928Y209142D01*
X531414Y208414D01*
X532142Y207928D01*
X533000Y207757D01*
X533858Y207928D01*
X534586Y208414D01*
X535072Y209142D01*
X535243Y210000D01*
X535072Y210858D01*
X534586Y211586D01*
X533858Y212072D01*
X533000Y212243D01*
X532933Y212230D01*
X530369Y214794D01*
X530579Y215291D01*
X531268Y215428D01*
X531995Y215914D01*
X532481Y216642D01*
X532652Y217500D01*
X532481Y218358D01*
X531995Y219086D01*
X531268Y219572D01*
X530409Y219743D01*
X529551Y219572D01*
X529466Y219515D01*
X524473Y224509D01*
X524664Y224971D01*
X526367D01*
X527861Y223476D01*
X527928Y223142D01*
X528414Y222414D01*
X529142Y221928D01*
X530000Y221757D01*
X530858Y221928D01*
X531586Y222414D01*
X532072Y223142D01*
X532243Y224000D01*
X532072Y224858D01*
X531586Y225586D01*
X530858Y226072D01*
X530000Y226243D01*
X529516Y226147D01*
X528492Y227171D01*
X528699Y227671D01*
X539922D01*
X539928Y227642D01*
X540414Y226914D01*
X541142Y226428D01*
X542000Y226257D01*
X542858Y226428D01*
X543586Y226914D01*
X544072Y227642D01*
X544243Y228500D01*
X544072Y229358D01*
X543586Y230086D01*
X542858Y230572D01*
X542000Y230743D01*
X541426Y230629D01*
X540921Y230729D01*
X511924D01*
X511886Y230786D01*
X511158Y231272D01*
X510300Y231443D01*
D02*
G37*
G36*
X498144Y225500D02*
X496500D01*
Y223856D01*
X496858Y223928D01*
X497586Y224414D01*
X498072Y225142D01*
X498144Y225500D01*
D02*
G37*
G36*
X495500D02*
X493856D01*
X493928Y225142D01*
X494414Y224414D01*
X495142Y223928D01*
X495500Y223856D01*
Y225500D01*
D02*
G37*
G36*
X672000Y228487D02*
X670968Y228351D01*
X670007Y227953D01*
X669181Y227319D01*
X668547Y226493D01*
X668149Y225532D01*
X668013Y224500D01*
X668149Y223468D01*
X668547Y222507D01*
X669181Y221681D01*
X670007Y221047D01*
X670968Y220649D01*
X672000Y220513D01*
X673032Y220649D01*
X673993Y221047D01*
X674819Y221681D01*
X675453Y222507D01*
X675851Y223468D01*
X675987Y224500D01*
X675851Y225532D01*
X675453Y226493D01*
X674819Y227319D01*
X673993Y227953D01*
X673032Y228351D01*
X672000Y228487D01*
D02*
G37*
G36*
X661915Y220687D02*
Y219043D01*
X663559D01*
X663487Y219402D01*
X663001Y220129D01*
X662273Y220616D01*
X661915Y220687D01*
D02*
G37*
G36*
X660915D02*
X660557Y220616D01*
X659829Y220129D01*
X659343Y219402D01*
X659271Y219043D01*
X660915D01*
Y220687D01*
D02*
G37*
G36*
X641915D02*
Y219043D01*
X643559D01*
X643487Y219402D01*
X643001Y220129D01*
X642273Y220616D01*
X641915Y220687D01*
D02*
G37*
G36*
X640915D02*
X640557Y220616D01*
X639829Y220129D01*
X639343Y219402D01*
X639271Y219043D01*
X640915D01*
Y220687D01*
D02*
G37*
G36*
X621915D02*
Y219043D01*
X623559D01*
X623487Y219402D01*
X623001Y220129D01*
X622273Y220616D01*
X621915Y220687D01*
D02*
G37*
G36*
X620915D02*
X620557Y220616D01*
X619829Y220129D01*
X619343Y219402D01*
X619271Y219043D01*
X620915D01*
Y220687D01*
D02*
G37*
G36*
X601915D02*
Y219043D01*
X603559D01*
X603487Y219402D01*
X603001Y220129D01*
X602273Y220616D01*
X601915Y220687D01*
D02*
G37*
G36*
X600915D02*
X600557Y220616D01*
X599829Y220129D01*
X599343Y219402D01*
X599271Y219043D01*
X600915D01*
Y220687D01*
D02*
G37*
G36*
X541915D02*
Y219043D01*
X543559D01*
X543487Y219402D01*
X543001Y220129D01*
X542273Y220616D01*
X541915Y220687D01*
D02*
G37*
G36*
X540915D02*
X540557Y220616D01*
X539829Y220129D01*
X539343Y219402D01*
X539271Y219043D01*
X540915D01*
Y220687D01*
D02*
G37*
G36*
X481915D02*
Y219043D01*
X483559D01*
X483487Y219402D01*
X483001Y220129D01*
X482273Y220616D01*
X481915Y220687D01*
D02*
G37*
G36*
X480915D02*
X480557Y220616D01*
X479829Y220129D01*
X479343Y219402D01*
X479271Y219043D01*
X480915D01*
Y220687D01*
D02*
G37*
G36*
X461915D02*
Y219043D01*
X463559D01*
X463487Y219402D01*
X463001Y220129D01*
X462273Y220616D01*
X461915Y220687D01*
D02*
G37*
G36*
X460915D02*
X460557Y220616D01*
X459829Y220129D01*
X459343Y219402D01*
X459271Y219043D01*
X460915D01*
Y220687D01*
D02*
G37*
G36*
X421915D02*
Y219043D01*
X423559D01*
X423487Y219402D01*
X423001Y220129D01*
X422273Y220616D01*
X421915Y220687D01*
D02*
G37*
G36*
X420915D02*
X420557Y220616D01*
X419829Y220129D01*
X419343Y219402D01*
X419271Y219043D01*
X420915D01*
Y220687D01*
D02*
G37*
G36*
X572915Y219187D02*
Y217543D01*
X574559D01*
X574487Y217902D01*
X574001Y218629D01*
X573273Y219116D01*
X572915Y219187D01*
D02*
G37*
G36*
X571915D02*
X571557Y219116D01*
X570829Y218629D01*
X570343Y217902D01*
X570271Y217543D01*
X571915D01*
Y219187D01*
D02*
G37*
G36*
X663559Y218043D02*
X661915D01*
Y216400D01*
X662273Y216471D01*
X663001Y216957D01*
X663487Y217685D01*
X663559Y218043D01*
D02*
G37*
G36*
X660915D02*
X659271D01*
X659343Y217685D01*
X659829Y216957D01*
X660557Y216471D01*
X660915Y216400D01*
Y218043D01*
D02*
G37*
G36*
X643559D02*
X641915D01*
Y216400D01*
X642273Y216471D01*
X643001Y216957D01*
X643487Y217685D01*
X643559Y218043D01*
D02*
G37*
G36*
X640915D02*
X639271D01*
X639343Y217685D01*
X639829Y216957D01*
X640557Y216471D01*
X640915Y216400D01*
Y218043D01*
D02*
G37*
G36*
X623559D02*
X621915D01*
Y216400D01*
X622273Y216471D01*
X623001Y216957D01*
X623487Y217685D01*
X623559Y218043D01*
D02*
G37*
G36*
X620915D02*
X619271D01*
X619343Y217685D01*
X619829Y216957D01*
X620557Y216471D01*
X620915Y216400D01*
Y218043D01*
D02*
G37*
G36*
X603559D02*
X601915D01*
Y216400D01*
X602273Y216471D01*
X603001Y216957D01*
X603487Y217685D01*
X603559Y218043D01*
D02*
G37*
G36*
X600915D02*
X599271D01*
X599343Y217685D01*
X599829Y216957D01*
X600557Y216471D01*
X600915Y216400D01*
Y218043D01*
D02*
G37*
G36*
X543559D02*
X541915D01*
Y216400D01*
X542273Y216471D01*
X543001Y216957D01*
X543487Y217685D01*
X543559Y218043D01*
D02*
G37*
G36*
X540915D02*
X539271D01*
X539343Y217685D01*
X539829Y216957D01*
X540557Y216471D01*
X540915Y216400D01*
Y218043D01*
D02*
G37*
G36*
X483559D02*
X481915D01*
Y216400D01*
X482273Y216471D01*
X483001Y216957D01*
X483487Y217685D01*
X483559Y218043D01*
D02*
G37*
G36*
X480915D02*
X479271D01*
X479343Y217685D01*
X479829Y216957D01*
X480557Y216471D01*
X480915Y216400D01*
Y218043D01*
D02*
G37*
G36*
X463559D02*
X461915D01*
Y216400D01*
X462273Y216471D01*
X463001Y216957D01*
X463487Y217685D01*
X463559Y218043D01*
D02*
G37*
G36*
X460915D02*
X459271D01*
X459343Y217685D01*
X459829Y216957D01*
X460557Y216471D01*
X460915Y216400D01*
Y218043D01*
D02*
G37*
G36*
X423559D02*
X421915D01*
Y216400D01*
X422273Y216471D01*
X423001Y216957D01*
X423487Y217685D01*
X423559Y218043D01*
D02*
G37*
G36*
X420915D02*
X419271D01*
X419343Y217685D01*
X419829Y216957D01*
X420557Y216471D01*
X420915Y216400D01*
Y218043D01*
D02*
G37*
G36*
X583000Y271743D02*
X582142Y271572D01*
X581414Y271086D01*
X580928Y270358D01*
X580757Y269500D01*
X580928Y268642D01*
X581414Y267914D01*
X581721Y267709D01*
Y219797D01*
X581428Y219358D01*
X581257Y218500D01*
X581428Y217642D01*
X581914Y216914D01*
X582642Y216428D01*
X583500Y216257D01*
X584358Y216428D01*
X585086Y216914D01*
X585572Y217642D01*
X585743Y218500D01*
X585572Y219358D01*
X585086Y220086D01*
X584779Y220291D01*
Y268203D01*
X585072Y268642D01*
X585243Y269500D01*
X585072Y270358D01*
X584586Y271086D01*
X583858Y271572D01*
X583000Y271743D01*
D02*
G37*
G36*
X574559Y216543D02*
X572915D01*
Y214900D01*
X573273Y214971D01*
X574001Y215457D01*
X574487Y216185D01*
X574559Y216543D01*
D02*
G37*
G36*
X571915D02*
X570271D01*
X570343Y216185D01*
X570829Y215457D01*
X571557Y214971D01*
X571915Y214900D01*
Y216543D01*
D02*
G37*
G36*
X505063Y215644D02*
Y214000D01*
X506707D01*
X506635Y214358D01*
X506149Y215086D01*
X505421Y215572D01*
X505063Y215644D01*
D02*
G37*
G36*
X504063D02*
X503705Y215572D01*
X502977Y215086D01*
X502491Y214358D01*
X502419Y214000D01*
X504063D01*
Y215644D01*
D02*
G37*
G36*
X432000Y213644D02*
Y212000D01*
X433644D01*
X433572Y212358D01*
X433086Y213086D01*
X432358Y213572D01*
X432000Y213644D01*
D02*
G37*
G36*
X431000D02*
X430642Y213572D01*
X429914Y213086D01*
X429428Y212358D01*
X429356Y212000D01*
X431000D01*
Y213644D01*
D02*
G37*
G36*
X506707Y213000D02*
X505063D01*
Y211356D01*
X505421Y211428D01*
X506149Y211914D01*
X506635Y212642D01*
X506707Y213000D01*
D02*
G37*
G36*
X504063D02*
X502419D01*
X502491Y212642D01*
X502977Y211914D01*
X503705Y211428D01*
X504063Y211356D01*
Y213000D01*
D02*
G37*
G36*
X672000Y218487D02*
X670968Y218351D01*
X670007Y217953D01*
X669181Y217319D01*
X668547Y216493D01*
X668149Y215532D01*
X668013Y214500D01*
X668149Y213468D01*
X668547Y212507D01*
X669181Y211681D01*
X670007Y211047D01*
X670968Y210649D01*
X672000Y210513D01*
X673032Y210649D01*
X673993Y211047D01*
X674819Y211681D01*
X675453Y212507D01*
X675851Y213468D01*
X675987Y214500D01*
X675851Y215532D01*
X675453Y216493D01*
X674819Y217319D01*
X673993Y217953D01*
X673032Y218351D01*
X672000Y218487D01*
D02*
G37*
G36*
X496297Y212011D02*
Y210367D01*
X497940D01*
X497869Y210726D01*
X497383Y211454D01*
X496655Y211940D01*
X496297Y212011D01*
D02*
G37*
G36*
X495297D02*
X494939Y211940D01*
X494211Y211454D01*
X493724Y210726D01*
X493653Y210367D01*
X495297D01*
Y212011D01*
D02*
G37*
G36*
X433644Y211000D02*
X432000D01*
Y209356D01*
X432358Y209428D01*
X433086Y209914D01*
X433572Y210642D01*
X433644Y211000D01*
D02*
G37*
G36*
X431000D02*
X429356D01*
X429428Y210642D01*
X429914Y209914D01*
X430642Y209428D01*
X431000Y209356D01*
Y211000D01*
D02*
G37*
G36*
X497940Y209367D02*
X496297D01*
Y207724D01*
X496655Y207795D01*
X497383Y208281D01*
X497869Y209009D01*
X497940Y209367D01*
D02*
G37*
G36*
X495297D02*
X493653D01*
X493724Y209009D01*
X494211Y208281D01*
X494939Y207795D01*
X495297Y207724D01*
Y209367D01*
D02*
G37*
G36*
X508000Y206243D02*
X507142Y206072D01*
X506414Y205586D01*
X506212Y205284D01*
X487789D01*
X487358Y205572D01*
X486500Y205743D01*
X485642Y205572D01*
X484914Y205086D01*
X484428Y204358D01*
X484257Y203500D01*
X484428Y202642D01*
X484914Y201914D01*
X485642Y201428D01*
X486500Y201257D01*
X487358Y201428D01*
X487789Y201716D01*
X504261D01*
X537326Y168650D01*
X537428Y168142D01*
X537914Y167414D01*
X538642Y166928D01*
X539500Y166757D01*
X540358Y166928D01*
X541086Y167414D01*
X541572Y168142D01*
X541743Y169000D01*
X541572Y169858D01*
X541086Y170586D01*
X540358Y171072D01*
X539850Y171174D01*
X509279Y201744D01*
X509328Y202242D01*
X509586Y202414D01*
X510072Y203142D01*
X510243Y204000D01*
X510072Y204858D01*
X509586Y205586D01*
X508858Y206072D01*
X508000Y206243D01*
D02*
G37*
G36*
X672000Y208487D02*
X670968Y208351D01*
X670007Y207953D01*
X669181Y207319D01*
X668547Y206493D01*
X668149Y205532D01*
X668013Y204500D01*
X668149Y203468D01*
X668547Y202507D01*
X669181Y201681D01*
X670007Y201047D01*
X670968Y200649D01*
X672000Y200513D01*
X673032Y200649D01*
X673993Y201047D01*
X674819Y201681D01*
X675453Y202507D01*
X675851Y203468D01*
X675987Y204500D01*
X675851Y205532D01*
X675453Y206493D01*
X674819Y207319D01*
X673993Y207953D01*
X673032Y208351D01*
X672000Y208487D01*
D02*
G37*
G36*
X515801Y201801D02*
Y200157D01*
X517445D01*
X517373Y200516D01*
X516887Y201243D01*
X516159Y201729D01*
X515801Y201801D01*
D02*
G37*
G36*
X514801D02*
X514443Y201729D01*
X513715Y201243D01*
X513229Y200516D01*
X513157Y200157D01*
X514801D01*
Y201801D01*
D02*
G37*
G36*
X651915Y200687D02*
Y199043D01*
X653559D01*
X653487Y199402D01*
X653001Y200129D01*
X652273Y200616D01*
X651915Y200687D01*
D02*
G37*
G36*
X650915D02*
X650557Y200616D01*
X649829Y200129D01*
X649343Y199402D01*
X649271Y199043D01*
X650915D01*
Y200687D01*
D02*
G37*
G36*
X631915D02*
Y199043D01*
X633559D01*
X633487Y199402D01*
X633001Y200129D01*
X632273Y200616D01*
X631915Y200687D01*
D02*
G37*
G36*
X630915D02*
X630557Y200616D01*
X629829Y200129D01*
X629343Y199402D01*
X629271Y199043D01*
X630915D01*
Y200687D01*
D02*
G37*
G36*
X611915D02*
Y199043D01*
X613559D01*
X613487Y199402D01*
X613001Y200129D01*
X612273Y200616D01*
X611915Y200687D01*
D02*
G37*
G36*
X610915D02*
X610557Y200616D01*
X609829Y200129D01*
X609343Y199402D01*
X609271Y199043D01*
X610915D01*
Y200687D01*
D02*
G37*
G36*
X591915D02*
Y199043D01*
X593559D01*
X593487Y199402D01*
X593001Y200129D01*
X592273Y200616D01*
X591915Y200687D01*
D02*
G37*
G36*
X590915D02*
X590557Y200616D01*
X589829Y200129D01*
X589343Y199402D01*
X589271Y199043D01*
X590915D01*
Y200687D01*
D02*
G37*
G36*
X571915D02*
Y199043D01*
X573559D01*
X573487Y199402D01*
X573001Y200129D01*
X572273Y200616D01*
X571915Y200687D01*
D02*
G37*
G36*
X570915D02*
X570557Y200616D01*
X569829Y200129D01*
X569343Y199402D01*
X569271Y199043D01*
X570915D01*
Y200687D01*
D02*
G37*
G36*
X471915D02*
Y199043D01*
X473559D01*
X473487Y199402D01*
X473001Y200129D01*
X472273Y200616D01*
X471915Y200687D01*
D02*
G37*
G36*
X470915D02*
X470557Y200616D01*
X469829Y200129D01*
X469343Y199402D01*
X469271Y199043D01*
X470915D01*
Y200687D01*
D02*
G37*
G36*
X451915D02*
Y199043D01*
X453559D01*
X453487Y199402D01*
X453001Y200129D01*
X452273Y200616D01*
X451915Y200687D01*
D02*
G37*
G36*
X450915D02*
X450557Y200616D01*
X449829Y200129D01*
X449343Y199402D01*
X449271Y199043D01*
X450915D01*
Y200687D01*
D02*
G37*
G36*
X517445Y199157D02*
X515801D01*
Y197514D01*
X516159Y197585D01*
X516887Y198071D01*
X517373Y198799D01*
X517445Y199157D01*
D02*
G37*
G36*
X514801D02*
X513157D01*
X513229Y198799D01*
X513715Y198071D01*
X514443Y197585D01*
X514801Y197514D01*
Y199157D01*
D02*
G37*
G36*
X526733Y198187D02*
Y196543D01*
X528377D01*
X528306Y196902D01*
X527819Y197629D01*
X527092Y198116D01*
X526733Y198187D01*
D02*
G37*
G36*
X525733D02*
X525375Y198116D01*
X524647Y197629D01*
X524161Y196902D01*
X524090Y196543D01*
X525733D01*
Y198187D01*
D02*
G37*
G36*
X653559Y198043D02*
X651915D01*
Y196400D01*
X652273Y196471D01*
X653001Y196957D01*
X653487Y197685D01*
X653559Y198043D01*
D02*
G37*
G36*
X650915D02*
X649271D01*
X649343Y197685D01*
X649829Y196957D01*
X650557Y196471D01*
X650915Y196400D01*
Y198043D01*
D02*
G37*
G36*
X633559D02*
X631915D01*
Y196400D01*
X632273Y196471D01*
X633001Y196957D01*
X633487Y197685D01*
X633559Y198043D01*
D02*
G37*
G36*
X630915D02*
X629271D01*
X629343Y197685D01*
X629829Y196957D01*
X630557Y196471D01*
X630915Y196400D01*
Y198043D01*
D02*
G37*
G36*
X613559D02*
X611915D01*
Y196400D01*
X612273Y196471D01*
X613001Y196957D01*
X613487Y197685D01*
X613559Y198043D01*
D02*
G37*
G36*
X610915D02*
X609271D01*
X609343Y197685D01*
X609829Y196957D01*
X610557Y196471D01*
X610915Y196400D01*
Y198043D01*
D02*
G37*
G36*
X593559D02*
X591915D01*
Y196400D01*
X592273Y196471D01*
X593001Y196957D01*
X593487Y197685D01*
X593559Y198043D01*
D02*
G37*
G36*
X590915D02*
X589271D01*
X589343Y197685D01*
X589829Y196957D01*
X590557Y196471D01*
X590915Y196400D01*
Y198043D01*
D02*
G37*
G36*
X573559D02*
X571915D01*
Y196400D01*
X572273Y196471D01*
X573001Y196957D01*
X573487Y197685D01*
X573559Y198043D01*
D02*
G37*
G36*
X570915D02*
X569271D01*
X569343Y197685D01*
X569829Y196957D01*
X570557Y196471D01*
X570915Y196400D01*
Y198043D01*
D02*
G37*
G36*
X473559D02*
X471915D01*
Y196400D01*
X472273Y196471D01*
X473001Y196957D01*
X473487Y197685D01*
X473559Y198043D01*
D02*
G37*
G36*
X470915D02*
X469271D01*
X469343Y197685D01*
X469829Y196957D01*
X470557Y196471D01*
X470915Y196400D01*
Y198043D01*
D02*
G37*
G36*
X453559D02*
X451915D01*
Y196400D01*
X452273Y196471D01*
X453001Y196957D01*
X453487Y197685D01*
X453559Y198043D01*
D02*
G37*
G36*
X450915D02*
X449271D01*
X449343Y197685D01*
X449829Y196957D01*
X450557Y196471D01*
X450915Y196400D01*
Y198043D01*
D02*
G37*
G36*
X528377Y195543D02*
X526733D01*
Y193900D01*
X527092Y193971D01*
X527819Y194457D01*
X528306Y195185D01*
X528377Y195543D01*
D02*
G37*
G36*
X525733D02*
X524090D01*
X524161Y195185D01*
X524647Y194457D01*
X525375Y193971D01*
X525733Y193900D01*
Y195543D01*
D02*
G37*
G36*
X496915Y194687D02*
Y193043D01*
X498559D01*
X498487Y193402D01*
X498001Y194129D01*
X497273Y194616D01*
X496915Y194687D01*
D02*
G37*
G36*
X495915D02*
X495557Y194616D01*
X494829Y194129D01*
X494343Y193402D01*
X494271Y193043D01*
X495915D01*
Y194687D01*
D02*
G37*
G36*
X672000Y198487D02*
X670968Y198351D01*
X670007Y197953D01*
X669181Y197319D01*
X668547Y196493D01*
X668149Y195532D01*
X668013Y194500D01*
X668149Y193468D01*
X668547Y192507D01*
X669181Y191681D01*
X670007Y191047D01*
X670968Y190649D01*
X672000Y190513D01*
X673032Y190649D01*
X673993Y191047D01*
X674819Y191681D01*
X675453Y192507D01*
X675851Y193468D01*
X675987Y194500D01*
X675851Y195532D01*
X675453Y196493D01*
X674819Y197319D01*
X673993Y197953D01*
X673032Y198351D01*
X672000Y198487D01*
D02*
G37*
G36*
X498559Y192043D02*
X496915D01*
Y190400D01*
X497273Y190471D01*
X498001Y190957D01*
X498487Y191685D01*
X498559Y192043D01*
D02*
G37*
G36*
X495915D02*
X494271D01*
X494343Y191685D01*
X494829Y190957D01*
X495557Y190471D01*
X495915Y190400D01*
Y192043D01*
D02*
G37*
G36*
X402500Y185144D02*
Y183500D01*
X404144D01*
X404072Y183858D01*
X403586Y184586D01*
X402858Y185072D01*
X402500Y185144D01*
D02*
G37*
G36*
X401500D02*
X401142Y185072D01*
X400414Y184586D01*
X399928Y183858D01*
X399856Y183500D01*
X401500D01*
Y185144D01*
D02*
G37*
G36*
X404144Y182500D02*
X402500D01*
Y180856D01*
X402858Y180928D01*
X403586Y181414D01*
X404072Y182142D01*
X404144Y182500D01*
D02*
G37*
G36*
X401500D02*
X399856D01*
X399928Y182142D01*
X400414Y181414D01*
X401142Y180928D01*
X401500Y180856D01*
Y182500D01*
D02*
G37*
G36*
X675953Y188453D02*
X668047D01*
Y180547D01*
X675953D01*
Y188453D01*
D02*
G37*
G36*
X661915Y180687D02*
Y179043D01*
X663559D01*
X663487Y179402D01*
X663001Y180129D01*
X662273Y180616D01*
X661915Y180687D01*
D02*
G37*
G36*
X660915D02*
X660557Y180616D01*
X659829Y180129D01*
X659343Y179402D01*
X659271Y179043D01*
X660915D01*
Y180687D01*
D02*
G37*
G36*
X641915D02*
Y179043D01*
X643559D01*
X643487Y179402D01*
X643001Y180129D01*
X642273Y180616D01*
X641915Y180687D01*
D02*
G37*
G36*
X640915D02*
X640557Y180616D01*
X639829Y180129D01*
X639343Y179402D01*
X639271Y179043D01*
X640915D01*
Y180687D01*
D02*
G37*
G36*
X621915D02*
Y179043D01*
X623559D01*
X623487Y179402D01*
X623001Y180129D01*
X622273Y180616D01*
X621915Y180687D01*
D02*
G37*
G36*
X620915D02*
X620557Y180616D01*
X619829Y180129D01*
X619343Y179402D01*
X619271Y179043D01*
X620915D01*
Y180687D01*
D02*
G37*
G36*
X601915D02*
Y179043D01*
X603559D01*
X603487Y179402D01*
X603001Y180129D01*
X602273Y180616D01*
X601915Y180687D01*
D02*
G37*
G36*
X600915D02*
X600557Y180616D01*
X599829Y180129D01*
X599343Y179402D01*
X599271Y179043D01*
X600915D01*
Y180687D01*
D02*
G37*
G36*
X581915D02*
Y179043D01*
X583559D01*
X583487Y179402D01*
X583001Y180129D01*
X582273Y180616D01*
X581915Y180687D01*
D02*
G37*
G36*
X580915D02*
X580557Y180616D01*
X579829Y180129D01*
X579343Y179402D01*
X579271Y179043D01*
X580915D01*
Y180687D01*
D02*
G37*
G36*
X541915D02*
Y179043D01*
X543559D01*
X543487Y179402D01*
X543001Y180129D01*
X542273Y180616D01*
X541915Y180687D01*
D02*
G37*
G36*
X540915D02*
X540557Y180616D01*
X539829Y180129D01*
X539343Y179402D01*
X539271Y179043D01*
X540915D01*
Y180687D01*
D02*
G37*
G36*
X481915D02*
Y179043D01*
X483559D01*
X483487Y179402D01*
X483001Y180129D01*
X482273Y180616D01*
X481915Y180687D01*
D02*
G37*
G36*
X480915D02*
X480557Y180616D01*
X479829Y180129D01*
X479343Y179402D01*
X479271Y179043D01*
X480915D01*
Y180687D01*
D02*
G37*
G36*
X461915D02*
Y179043D01*
X463559D01*
X463487Y179402D01*
X463001Y180129D01*
X462273Y180616D01*
X461915Y180687D01*
D02*
G37*
G36*
X460915D02*
X460557Y180616D01*
X459829Y180129D01*
X459343Y179402D01*
X459271Y179043D01*
X460915D01*
Y180687D01*
D02*
G37*
G36*
X441915D02*
Y179043D01*
X443559D01*
X443487Y179402D01*
X443001Y180129D01*
X442273Y180616D01*
X441915Y180687D01*
D02*
G37*
G36*
X440915D02*
X440557Y180616D01*
X439829Y180129D01*
X439343Y179402D01*
X439271Y179043D01*
X440915D01*
Y180687D01*
D02*
G37*
G36*
X421915D02*
Y179043D01*
X423559D01*
X423487Y179402D01*
X423001Y180129D01*
X422273Y180616D01*
X421915Y180687D01*
D02*
G37*
G36*
X420915D02*
X420557Y180616D01*
X419829Y180129D01*
X419343Y179402D01*
X419271Y179043D01*
X420915D01*
Y180687D01*
D02*
G37*
G36*
X663559Y178043D02*
X661915D01*
Y176400D01*
X662273Y176471D01*
X663001Y176957D01*
X663487Y177685D01*
X663559Y178043D01*
D02*
G37*
G36*
X660915D02*
X659271D01*
X659343Y177685D01*
X659829Y176957D01*
X660557Y176471D01*
X660915Y176400D01*
Y178043D01*
D02*
G37*
G36*
X643559D02*
X641915D01*
Y176400D01*
X642273Y176471D01*
X643001Y176957D01*
X643487Y177685D01*
X643559Y178043D01*
D02*
G37*
G36*
X640915D02*
X639271D01*
X639343Y177685D01*
X639829Y176957D01*
X640557Y176471D01*
X640915Y176400D01*
Y178043D01*
D02*
G37*
G36*
X623559D02*
X621915D01*
Y176400D01*
X622273Y176471D01*
X623001Y176957D01*
X623487Y177685D01*
X623559Y178043D01*
D02*
G37*
G36*
X620915D02*
X619271D01*
X619343Y177685D01*
X619829Y176957D01*
X620557Y176471D01*
X620915Y176400D01*
Y178043D01*
D02*
G37*
G36*
X603559D02*
X601915D01*
Y176400D01*
X602273Y176471D01*
X603001Y176957D01*
X603487Y177685D01*
X603559Y178043D01*
D02*
G37*
G36*
X600915D02*
X599271D01*
X599343Y177685D01*
X599829Y176957D01*
X600557Y176471D01*
X600915Y176400D01*
Y178043D01*
D02*
G37*
G36*
X583559D02*
X581915D01*
Y176400D01*
X582273Y176471D01*
X583001Y176957D01*
X583487Y177685D01*
X583559Y178043D01*
D02*
G37*
G36*
X580915D02*
X579271D01*
X579343Y177685D01*
X579829Y176957D01*
X580557Y176471D01*
X580915Y176400D01*
Y178043D01*
D02*
G37*
G36*
X543559D02*
X541915D01*
Y176400D01*
X542273Y176471D01*
X543001Y176957D01*
X543487Y177685D01*
X543559Y178043D01*
D02*
G37*
G36*
X540915D02*
X539271D01*
X539343Y177685D01*
X539829Y176957D01*
X540557Y176471D01*
X540915Y176400D01*
Y178043D01*
D02*
G37*
G36*
X483559D02*
X481915D01*
Y176400D01*
X482273Y176471D01*
X483001Y176957D01*
X483487Y177685D01*
X483559Y178043D01*
D02*
G37*
G36*
X480915D02*
X479271D01*
X479343Y177685D01*
X479829Y176957D01*
X480557Y176471D01*
X480915Y176400D01*
Y178043D01*
D02*
G37*
G36*
X463559D02*
X461915D01*
Y176400D01*
X462273Y176471D01*
X463001Y176957D01*
X463487Y177685D01*
X463559Y178043D01*
D02*
G37*
G36*
X460915D02*
X459271D01*
X459343Y177685D01*
X459829Y176957D01*
X460557Y176471D01*
X460915Y176400D01*
Y178043D01*
D02*
G37*
G36*
X443559D02*
X441915D01*
Y176400D01*
X442273Y176471D01*
X443001Y176957D01*
X443487Y177685D01*
X443559Y178043D01*
D02*
G37*
G36*
X440915D02*
X439271D01*
X439343Y177685D01*
X439829Y176957D01*
X440557Y176471D01*
X440915Y176400D01*
Y178043D01*
D02*
G37*
G36*
X423559D02*
X421915D01*
Y176400D01*
X422273Y176471D01*
X423001Y176957D01*
X423487Y177685D01*
X423559Y178043D01*
D02*
G37*
G36*
X420915D02*
X419271D01*
X419343Y177685D01*
X419829Y176957D01*
X420557Y176471D01*
X420915Y176400D01*
Y178043D01*
D02*
G37*
G36*
X520500Y177243D02*
X519642Y177072D01*
X518914Y176586D01*
X518428Y175858D01*
X518257Y175000D01*
X518428Y174142D01*
X518914Y173414D01*
X519642Y172928D01*
X520500Y172757D01*
X521358Y172928D01*
X522086Y173414D01*
X522572Y174142D01*
X522743Y175000D01*
X522572Y175858D01*
X522086Y176586D01*
X521358Y177072D01*
X520500Y177243D01*
D02*
G37*
G36*
X526915Y173687D02*
Y172043D01*
X528559D01*
X528487Y172402D01*
X528001Y173129D01*
X527273Y173616D01*
X526915Y173687D01*
D02*
G37*
G36*
X525915D02*
X525557Y173616D01*
X524829Y173129D01*
X524343Y172402D01*
X524271Y172043D01*
X525915D01*
Y173687D01*
D02*
G37*
G36*
X528559Y171043D02*
X526915D01*
Y169400D01*
X527273Y169471D01*
X528001Y169957D01*
X528487Y170685D01*
X528559Y171043D01*
D02*
G37*
G36*
X525915D02*
X524271D01*
X524343Y170685D01*
X524829Y169957D01*
X525557Y169471D01*
X525915Y169400D01*
Y171043D01*
D02*
G37*
G36*
X673000Y167487D02*
X671968Y167351D01*
X671007Y166953D01*
X670181Y166319D01*
X669547Y165493D01*
X669421Y165189D01*
X669335Y165163D01*
X668750Y165279D01*
X659291D01*
X659086Y165586D01*
X658358Y166072D01*
X657500Y166243D01*
X656642Y166072D01*
X655914Y165586D01*
X655428Y164858D01*
X655257Y164000D01*
X655428Y163142D01*
X655914Y162414D01*
X656642Y161928D01*
X657500Y161757D01*
X658358Y161928D01*
X658797Y162221D01*
X668215D01*
X668415Y162087D01*
X669000Y161971D01*
X669355D01*
X669547Y161507D01*
X670181Y160681D01*
X671007Y160047D01*
X671968Y159649D01*
X673000Y159513D01*
X674032Y159649D01*
X674993Y160047D01*
X675819Y160681D01*
X676453Y161507D01*
X676851Y162468D01*
X676987Y163500D01*
X676851Y164532D01*
X676453Y165493D01*
X675819Y166319D01*
X674993Y166953D01*
X674032Y167351D01*
X673000Y167487D01*
D02*
G37*
G36*
X631915Y160687D02*
Y159043D01*
X633559D01*
X633487Y159402D01*
X633001Y160129D01*
X632273Y160616D01*
X631915Y160687D01*
D02*
G37*
G36*
X630915D02*
X630557Y160616D01*
X629829Y160129D01*
X629343Y159402D01*
X629271Y159043D01*
X630915D01*
Y160687D01*
D02*
G37*
G36*
X611915D02*
Y159043D01*
X613559D01*
X613487Y159402D01*
X613001Y160129D01*
X612273Y160616D01*
X611915Y160687D01*
D02*
G37*
G36*
X610915D02*
X610557Y160616D01*
X609829Y160129D01*
X609343Y159402D01*
X609271Y159043D01*
X610915D01*
Y160687D01*
D02*
G37*
G36*
X591915D02*
Y159043D01*
X593559D01*
X593487Y159402D01*
X593001Y160129D01*
X592273Y160616D01*
X591915Y160687D01*
D02*
G37*
G36*
X590915D02*
X590557Y160616D01*
X589829Y160129D01*
X589343Y159402D01*
X589271Y159043D01*
X590915D01*
Y160687D01*
D02*
G37*
G36*
X511915D02*
Y159043D01*
X513559D01*
X513487Y159402D01*
X513001Y160129D01*
X512273Y160616D01*
X511915Y160687D01*
D02*
G37*
G36*
X510915D02*
X510557Y160616D01*
X509829Y160129D01*
X509343Y159402D01*
X509271Y159043D01*
X510915D01*
Y160687D01*
D02*
G37*
G36*
X471915D02*
Y159043D01*
X473559D01*
X473487Y159402D01*
X473001Y160129D01*
X472273Y160616D01*
X471915Y160687D01*
D02*
G37*
G36*
X470915D02*
X470557Y160616D01*
X469829Y160129D01*
X469343Y159402D01*
X469271Y159043D01*
X470915D01*
Y160687D01*
D02*
G37*
G36*
X431915D02*
Y159043D01*
X433559D01*
X433487Y159402D01*
X433001Y160129D01*
X432273Y160616D01*
X431915Y160687D01*
D02*
G37*
G36*
X430915D02*
X430557Y160616D01*
X429829Y160129D01*
X429343Y159402D01*
X429271Y159043D01*
X430915D01*
Y160687D01*
D02*
G37*
G36*
X411915D02*
Y159043D01*
X413559D01*
X413487Y159402D01*
X413001Y160129D01*
X412273Y160616D01*
X411915Y160687D01*
D02*
G37*
G36*
X410915D02*
X410557Y160616D01*
X409829Y160129D01*
X409343Y159402D01*
X409271Y159043D01*
X410915D01*
Y160687D01*
D02*
G37*
G36*
X633559Y158043D02*
X631915D01*
Y156400D01*
X632273Y156471D01*
X633001Y156957D01*
X633487Y157685D01*
X633559Y158043D01*
D02*
G37*
G36*
X630915D02*
X629271D01*
X629343Y157685D01*
X629829Y156957D01*
X630557Y156471D01*
X630915Y156400D01*
Y158043D01*
D02*
G37*
G36*
X613559D02*
X611915D01*
Y156400D01*
X612273Y156471D01*
X613001Y156957D01*
X613487Y157685D01*
X613559Y158043D01*
D02*
G37*
G36*
X610915D02*
X609271D01*
X609343Y157685D01*
X609829Y156957D01*
X610557Y156471D01*
X610915Y156400D01*
Y158043D01*
D02*
G37*
G36*
X593559D02*
X591915D01*
Y156400D01*
X592273Y156471D01*
X593001Y156957D01*
X593487Y157685D01*
X593559Y158043D01*
D02*
G37*
G36*
X590915D02*
X589271D01*
X589343Y157685D01*
X589829Y156957D01*
X590557Y156471D01*
X590915Y156400D01*
Y158043D01*
D02*
G37*
G36*
X513559D02*
X511915D01*
Y156400D01*
X512273Y156471D01*
X513001Y156957D01*
X513487Y157685D01*
X513559Y158043D01*
D02*
G37*
G36*
X510915D02*
X509271D01*
X509343Y157685D01*
X509829Y156957D01*
X510557Y156471D01*
X510915Y156400D01*
Y158043D01*
D02*
G37*
G36*
X473559D02*
X471915D01*
Y156400D01*
X472273Y156471D01*
X473001Y156957D01*
X473487Y157685D01*
X473559Y158043D01*
D02*
G37*
G36*
X470915D02*
X469271D01*
X469343Y157685D01*
X469829Y156957D01*
X470557Y156471D01*
X470915Y156400D01*
Y158043D01*
D02*
G37*
G36*
X433559D02*
X431915D01*
Y156400D01*
X432273Y156471D01*
X433001Y156957D01*
X433487Y157685D01*
X433559Y158043D01*
D02*
G37*
G36*
X430915D02*
X429271D01*
X429343Y157685D01*
X429829Y156957D01*
X430557Y156471D01*
X430915Y156400D01*
Y158043D01*
D02*
G37*
G36*
X413559D02*
X411915D01*
Y156400D01*
X412273Y156471D01*
X413001Y156957D01*
X413487Y157685D01*
X413559Y158043D01*
D02*
G37*
G36*
X410915D02*
X409271D01*
X409343Y157685D01*
X409829Y156957D01*
X410557Y156471D01*
X410915Y156400D01*
Y158043D01*
D02*
G37*
G36*
X620000Y153144D02*
Y151500D01*
X621644D01*
X621572Y151858D01*
X621086Y152586D01*
X620358Y153072D01*
X620000Y153144D01*
D02*
G37*
G36*
X619000D02*
X618642Y153072D01*
X617914Y152586D01*
X617428Y151858D01*
X617356Y151500D01*
X619000D01*
Y153144D01*
D02*
G37*
G36*
X673000Y157487D02*
X671968Y157351D01*
X671007Y156953D01*
X670181Y156319D01*
X669547Y155493D01*
X669149Y154532D01*
X669013Y153500D01*
X669149Y152468D01*
X669547Y151507D01*
X670181Y150681D01*
X671007Y150047D01*
X671968Y149649D01*
X673000Y149513D01*
X674032Y149649D01*
X674993Y150047D01*
X675819Y150681D01*
X676453Y151507D01*
X676851Y152468D01*
X676987Y153500D01*
X676851Y154532D01*
X676453Y155493D01*
X675819Y156319D01*
X674993Y156953D01*
X674032Y157351D01*
X673000Y157487D01*
D02*
G37*
G36*
X621644Y150500D02*
X620000D01*
Y148856D01*
X620358Y148928D01*
X621086Y149414D01*
X621572Y150142D01*
X621644Y150500D01*
D02*
G37*
G36*
X619000D02*
X617356D01*
X617428Y150142D01*
X617914Y149414D01*
X618642Y148928D01*
X619000Y148856D01*
Y150500D01*
D02*
G37*
G36*
X582639Y146635D02*
Y144992D01*
X584282D01*
X584211Y145350D01*
X583725Y146078D01*
X582997Y146564D01*
X582639Y146635D01*
D02*
G37*
G36*
X581638D02*
X581280Y146564D01*
X580552Y146078D01*
X580066Y145350D01*
X579995Y144992D01*
X581638D01*
Y146635D01*
D02*
G37*
G36*
X676953Y147453D02*
X673500D01*
Y144000D01*
X676953D01*
Y147453D01*
D02*
G37*
G36*
X672500D02*
X669047D01*
Y144000D01*
X672500D01*
Y147453D01*
D02*
G37*
G36*
X584282Y143992D02*
X582639D01*
Y142348D01*
X582997Y142419D01*
X583725Y142906D01*
X584211Y143633D01*
X584282Y143992D01*
D02*
G37*
G36*
X581638D02*
X579995D01*
X580066Y143633D01*
X580552Y142906D01*
X581280Y142419D01*
X581638Y142348D01*
Y143992D01*
D02*
G37*
G36*
X676953Y143000D02*
X673500D01*
Y139547D01*
X676953D01*
Y143000D01*
D02*
G37*
G36*
X672500D02*
X669047D01*
Y139547D01*
X672500D01*
Y143000D01*
D02*
G37*
G36*
X661915Y140687D02*
Y139043D01*
X663559D01*
X663487Y139402D01*
X663001Y140129D01*
X662273Y140616D01*
X661915Y140687D01*
D02*
G37*
G36*
X660915D02*
X660557Y140616D01*
X659829Y140129D01*
X659343Y139402D01*
X659271Y139043D01*
X660915D01*
Y140687D01*
D02*
G37*
G36*
X641915D02*
Y139043D01*
X643559D01*
X643487Y139402D01*
X643001Y140129D01*
X642273Y140616D01*
X641915Y140687D01*
D02*
G37*
G36*
X640915D02*
X640557Y140616D01*
X639829Y140129D01*
X639343Y139402D01*
X639271Y139043D01*
X640915D01*
Y140687D01*
D02*
G37*
G36*
X581915D02*
Y139043D01*
X583559D01*
X583487Y139402D01*
X583001Y140129D01*
X582273Y140616D01*
X581915Y140687D01*
D02*
G37*
G36*
X580915D02*
X580557Y140616D01*
X579829Y140129D01*
X579343Y139402D01*
X579271Y139043D01*
X580915D01*
Y140687D01*
D02*
G37*
G36*
X561915D02*
Y139043D01*
X563559D01*
X563487Y139402D01*
X563001Y140129D01*
X562273Y140616D01*
X561915Y140687D01*
D02*
G37*
G36*
X560915D02*
X560557Y140616D01*
X559829Y140129D01*
X559343Y139402D01*
X559271Y139043D01*
X560915D01*
Y140687D01*
D02*
G37*
G36*
X541915D02*
Y139043D01*
X543559D01*
X543487Y139402D01*
X543001Y140129D01*
X542273Y140616D01*
X541915Y140687D01*
D02*
G37*
G36*
X540915D02*
X540557Y140616D01*
X539829Y140129D01*
X539343Y139402D01*
X539271Y139043D01*
X540915D01*
Y140687D01*
D02*
G37*
G36*
X481915D02*
Y139043D01*
X483559D01*
X483487Y139402D01*
X483001Y140129D01*
X482273Y140616D01*
X481915Y140687D01*
D02*
G37*
G36*
X480915D02*
X480557Y140616D01*
X479829Y140129D01*
X479343Y139402D01*
X479271Y139043D01*
X480915D01*
Y140687D01*
D02*
G37*
G36*
X441915D02*
Y139043D01*
X443559D01*
X443487Y139402D01*
X443001Y140129D01*
X442273Y140616D01*
X441915Y140687D01*
D02*
G37*
G36*
X440915D02*
X440557Y140616D01*
X439829Y140129D01*
X439343Y139402D01*
X439271Y139043D01*
X440915D01*
Y140687D01*
D02*
G37*
G36*
X421915D02*
Y139043D01*
X423559D01*
X423487Y139402D01*
X423001Y140129D01*
X422273Y140616D01*
X421915Y140687D01*
D02*
G37*
G36*
X420915D02*
X420557Y140616D01*
X419829Y140129D01*
X419343Y139402D01*
X419271Y139043D01*
X420915D01*
Y140687D01*
D02*
G37*
G36*
X663559Y138043D02*
X661915D01*
Y136400D01*
X662273Y136471D01*
X663001Y136957D01*
X663487Y137685D01*
X663559Y138043D01*
D02*
G37*
G36*
X660915D02*
X659271D01*
X659343Y137685D01*
X659829Y136957D01*
X660557Y136471D01*
X660915Y136400D01*
Y138043D01*
D02*
G37*
G36*
X643559D02*
X641915D01*
Y136400D01*
X642273Y136471D01*
X643001Y136957D01*
X643487Y137685D01*
X643559Y138043D01*
D02*
G37*
G36*
X640915D02*
X639271D01*
X639343Y137685D01*
X639829Y136957D01*
X640557Y136471D01*
X640915Y136400D01*
Y138043D01*
D02*
G37*
G36*
X583559D02*
X581915D01*
Y136400D01*
X582273Y136471D01*
X583001Y136957D01*
X583487Y137685D01*
X583559Y138043D01*
D02*
G37*
G36*
X580915D02*
X579271D01*
X579343Y137685D01*
X579829Y136957D01*
X580557Y136471D01*
X580915Y136400D01*
Y138043D01*
D02*
G37*
G36*
X563559D02*
X561915D01*
Y136400D01*
X562273Y136471D01*
X563001Y136957D01*
X563487Y137685D01*
X563559Y138043D01*
D02*
G37*
G36*
X560915D02*
X559271D01*
X559343Y137685D01*
X559829Y136957D01*
X560557Y136471D01*
X560915Y136400D01*
Y138043D01*
D02*
G37*
G36*
X543559D02*
X541915D01*
Y136400D01*
X542273Y136471D01*
X543001Y136957D01*
X543487Y137685D01*
X543559Y138043D01*
D02*
G37*
G36*
X540915D02*
X539271D01*
X539343Y137685D01*
X539829Y136957D01*
X540557Y136471D01*
X540915Y136400D01*
Y138043D01*
D02*
G37*
G36*
X483559D02*
X481915D01*
Y136400D01*
X482273Y136471D01*
X483001Y136957D01*
X483487Y137685D01*
X483559Y138043D01*
D02*
G37*
G36*
X480915D02*
X479271D01*
X479343Y137685D01*
X479829Y136957D01*
X480557Y136471D01*
X480915Y136400D01*
Y138043D01*
D02*
G37*
G36*
X443559D02*
X441915D01*
Y136400D01*
X442273Y136471D01*
X443001Y136957D01*
X443487Y137685D01*
X443559Y138043D01*
D02*
G37*
G36*
X440915D02*
X439271D01*
X439343Y137685D01*
X439829Y136957D01*
X440557Y136471D01*
X440915Y136400D01*
Y138043D01*
D02*
G37*
G36*
X423559D02*
X421915D01*
Y136400D01*
X422273Y136471D01*
X423001Y136957D01*
X423487Y137685D01*
X423559Y138043D01*
D02*
G37*
G36*
X420915D02*
X419271D01*
X419343Y137685D01*
X419829Y136957D01*
X420557Y136471D01*
X420915Y136400D01*
Y138043D01*
D02*
G37*
G36*
X512000Y132921D02*
Y129500D01*
X515421D01*
X515351Y130032D01*
X514953Y130993D01*
X514319Y131819D01*
X513493Y132453D01*
X512532Y132851D01*
X512000Y132921D01*
D02*
G37*
G36*
X511000D02*
X510468Y132851D01*
X509507Y132453D01*
X508681Y131819D01*
X508047Y130993D01*
X507649Y130032D01*
X507579Y129500D01*
X511000D01*
Y132921D01*
D02*
G37*
G36*
X443784Y129207D02*
Y127563D01*
X445427D01*
X445356Y127921D01*
X444870Y128649D01*
X444142Y129135D01*
X443784Y129207D01*
D02*
G37*
G36*
X442784D02*
X442425Y129135D01*
X441698Y128649D01*
X441211Y127921D01*
X441140Y127563D01*
X442784D01*
Y129207D01*
D02*
G37*
G36*
X417000Y129144D02*
Y127500D01*
X418644D01*
X418572Y127858D01*
X418086Y128586D01*
X417358Y129072D01*
X417000Y129144D01*
D02*
G37*
G36*
X416000D02*
X415642Y129072D01*
X414914Y128586D01*
X414428Y127858D01*
X414356Y127500D01*
X416000D01*
Y129144D01*
D02*
G37*
G36*
X515421Y128500D02*
X512000D01*
Y125079D01*
X512532Y125149D01*
X513493Y125547D01*
X514319Y126181D01*
X514953Y127007D01*
X515351Y127968D01*
X515421Y128500D01*
D02*
G37*
G36*
X511000D02*
X507579D01*
X507649Y127968D01*
X508047Y127007D01*
X508681Y126181D01*
X509507Y125547D01*
X510468Y125149D01*
X511000Y125079D01*
Y128500D01*
D02*
G37*
G36*
X535453Y132953D02*
X527547D01*
Y125047D01*
X535453D01*
Y132953D01*
D02*
G37*
G36*
X521500Y132987D02*
X520468Y132851D01*
X519507Y132453D01*
X518681Y131819D01*
X518047Y130993D01*
X517649Y130032D01*
X517513Y129000D01*
X517649Y127968D01*
X518047Y127007D01*
X518681Y126181D01*
X519507Y125547D01*
X520468Y125149D01*
X521500Y125013D01*
X522532Y125149D01*
X523493Y125547D01*
X524319Y126181D01*
X524953Y127007D01*
X525351Y127968D01*
X525487Y129000D01*
X525351Y130032D01*
X524953Y130993D01*
X524319Y131819D01*
X523493Y132453D01*
X522532Y132851D01*
X521500Y132987D01*
D02*
G37*
G36*
X501500D02*
X500468Y132851D01*
X499507Y132453D01*
X498681Y131819D01*
X498047Y130993D01*
X497649Y130032D01*
X497513Y129000D01*
X497649Y127968D01*
X498047Y127007D01*
X498681Y126181D01*
X499507Y125547D01*
X500468Y125149D01*
X501500Y125013D01*
X502532Y125149D01*
X503493Y125547D01*
X504319Y126181D01*
X504953Y127007D01*
X505351Y127968D01*
X505487Y129000D01*
X505351Y130032D01*
X504953Y130993D01*
X504319Y131819D01*
X503493Y132453D01*
X502532Y132851D01*
X501500Y132987D01*
D02*
G37*
G36*
X491500D02*
X490468Y132851D01*
X489507Y132453D01*
X488681Y131819D01*
X488047Y130993D01*
X487649Y130032D01*
X487513Y129000D01*
X487649Y127968D01*
X488047Y127007D01*
X488681Y126181D01*
X489507Y125547D01*
X490468Y125149D01*
X491500Y125013D01*
X492532Y125149D01*
X493493Y125547D01*
X494319Y126181D01*
X494953Y127007D01*
X495351Y127968D01*
X495487Y129000D01*
X495351Y130032D01*
X494953Y130993D01*
X494319Y131819D01*
X493493Y132453D01*
X492532Y132851D01*
X491500Y132987D01*
D02*
G37*
G36*
X445427Y126563D02*
X443784D01*
Y124919D01*
X444142Y124991D01*
X444870Y125477D01*
X445356Y126205D01*
X445427Y126563D01*
D02*
G37*
G36*
X442784D02*
X441140D01*
X441211Y126205D01*
X441698Y125477D01*
X442425Y124991D01*
X442784Y124919D01*
Y126563D01*
D02*
G37*
G36*
X418644Y126500D02*
X417000D01*
Y124856D01*
X417358Y124928D01*
X418086Y125414D01*
X418572Y126142D01*
X418644Y126500D01*
D02*
G37*
G36*
X416000D02*
X414356D01*
X414428Y126142D01*
X414914Y125414D01*
X415642Y124928D01*
X416000Y124856D01*
Y126500D01*
D02*
G37*
%LPD*%
G36*
X561471Y256366D02*
Y198624D01*
X561414Y198586D01*
X561029Y198011D01*
X560529Y198162D01*
Y256654D01*
X560991Y256846D01*
X561471Y256366D01*
D02*
G37*
D34*
X505500Y224000D02*
X522818D01*
X529318Y217500D02*
X530409D01*
X522818Y224000D02*
X529318Y217500D01*
X529500Y224000D02*
X530000D01*
X527000Y226500D02*
X529500Y224000D01*
X508054Y226500D02*
X527000D01*
X669000Y163500D02*
X673000D01*
X657750Y163750D02*
X668750D01*
X669000Y163500D01*
X657500Y164000D02*
X657750Y163750D01*
X649250Y270750D02*
X649500Y271000D01*
X649250Y249250D02*
Y270750D01*
X649000Y249000D02*
X649250Y249250D01*
X604000Y230000D02*
Y271500D01*
X519000D02*
X545000D01*
X559000Y188500D02*
Y257500D01*
X545000Y271500D02*
X559000Y257500D01*
X522079Y220921D02*
X533000Y210000D01*
X519079Y220921D02*
X522079D01*
X519000Y221000D02*
X519079Y220921D01*
X550700Y180718D02*
Y229300D01*
Y180718D02*
X552600Y178818D01*
X544000Y236000D02*
X550700Y229300D01*
X407500Y306000D02*
Y306379D01*
X409000Y307879D01*
Y336500D01*
X501500Y264000D02*
X509000D01*
X429000Y336500D02*
X501500Y264000D01*
X417000Y287000D02*
X419000Y289000D01*
Y336500D01*
X566455Y210545D02*
X566500Y210591D01*
Y267500D01*
X561500Y272500D02*
X566500Y267500D01*
X583250Y218750D02*
X583500Y218500D01*
X583250Y218750D02*
Y269250D01*
X583000Y269500D02*
X583250Y269250D01*
X625500Y237000D02*
Y271000D01*
X563000Y197000D02*
Y257000D01*
X539500Y280500D02*
X563000Y257000D01*
X539500Y280500D02*
Y288500D01*
X507854Y226700D02*
X508054Y226500D01*
X537500Y236000D02*
X544000D01*
X510300Y229200D02*
X540921D01*
X541621Y228500D01*
X542000D01*
X550000Y239500D02*
X555000Y234500D01*
X552600Y178800D02*
Y178818D01*
X555000Y181500D02*
Y234500D01*
D35*
X505000Y203500D02*
X507500D01*
X486500D02*
X505000D01*
X539500Y169000D01*
D36*
X673000Y163500D02*
D03*
Y153500D02*
D03*
X389500Y265500D02*
D03*
X521500Y129000D02*
D03*
X511500D02*
D03*
X501500D02*
D03*
X491500D02*
D03*
X672000Y254500D02*
D03*
Y244500D02*
D03*
Y234500D02*
D03*
Y224500D02*
D03*
Y214500D02*
D03*
Y204500D02*
D03*
Y194500D02*
D03*
X469000Y336500D02*
D03*
X459000D02*
D03*
X439000D02*
D03*
X429000D02*
D03*
X419000D02*
D03*
X409000D02*
D03*
D37*
X673000Y143500D02*
D03*
X389500Y275500D02*
D03*
X672000Y184500D02*
D03*
D38*
X531500Y129000D02*
D03*
X479000Y336500D02*
D03*
X399000D02*
D03*
D39*
X390415Y159043D02*
D03*
X387915Y210043D02*
D03*
X391415Y290043D02*
D03*
X389415Y323543D02*
D03*
X512415Y249043D02*
D03*
X496415Y192543D02*
D03*
X495797Y209868D02*
D03*
X515301Y199657D02*
D03*
X526415Y171543D02*
D03*
X526233Y196043D02*
D03*
X546915Y229043D02*
D03*
X572415Y217043D02*
D03*
X661415Y298543D02*
D03*
Y258543D02*
D03*
Y218543D02*
D03*
Y178543D02*
D03*
Y138543D02*
D03*
X641415Y298543D02*
D03*
Y258543D02*
D03*
X651415Y238543D02*
D03*
X641415Y218543D02*
D03*
X651415Y198543D02*
D03*
X641415Y178543D02*
D03*
Y138543D02*
D03*
X631415Y318543D02*
D03*
Y278543D02*
D03*
X621415Y258543D02*
D03*
X631415Y238543D02*
D03*
X621415Y218543D02*
D03*
X631415Y198543D02*
D03*
X621415Y178543D02*
D03*
X631415Y158543D02*
D03*
X611415Y318543D02*
D03*
Y278543D02*
D03*
Y238543D02*
D03*
X601415Y218543D02*
D03*
X611415Y198543D02*
D03*
X601415Y178543D02*
D03*
X611415Y158543D02*
D03*
X591415Y318543D02*
D03*
Y278543D02*
D03*
Y238543D02*
D03*
Y198543D02*
D03*
X581415Y178543D02*
D03*
X591415Y158543D02*
D03*
X581415Y138543D02*
D03*
X571415Y318543D02*
D03*
Y278543D02*
D03*
Y238543D02*
D03*
Y198543D02*
D03*
X561415Y138543D02*
D03*
X551415Y318543D02*
D03*
Y278543D02*
D03*
X541415Y258543D02*
D03*
Y218543D02*
D03*
Y178543D02*
D03*
Y138543D02*
D03*
X531415Y318543D02*
D03*
Y278543D02*
D03*
X511415Y318543D02*
D03*
Y278543D02*
D03*
Y158543D02*
D03*
X491415Y318543D02*
D03*
X481415Y298543D02*
D03*
X491415Y278543D02*
D03*
X481415Y218543D02*
D03*
Y178543D02*
D03*
Y138543D02*
D03*
X471415Y318543D02*
D03*
X461415Y298543D02*
D03*
X471415Y278543D02*
D03*
X461415Y258543D02*
D03*
X471415Y238543D02*
D03*
X461415Y218543D02*
D03*
X471415Y198543D02*
D03*
X461415Y178543D02*
D03*
X471415Y158543D02*
D03*
X451415Y318543D02*
D03*
X441415Y298543D02*
D03*
X451415Y278543D02*
D03*
X441415Y258543D02*
D03*
X451415Y238543D02*
D03*
Y198543D02*
D03*
X441415Y178543D02*
D03*
Y138543D02*
D03*
X431415Y318543D02*
D03*
Y278543D02*
D03*
X421415Y258543D02*
D03*
X431415Y238543D02*
D03*
X421415Y218543D02*
D03*
Y178543D02*
D03*
X431415Y158543D02*
D03*
X421415Y138543D02*
D03*
X401415Y298543D02*
D03*
X411415Y278543D02*
D03*
Y238543D02*
D03*
Y158543D02*
D03*
X520500Y175000D02*
D03*
X508000Y204000D02*
D03*
X671500Y334000D02*
D03*
X648500D02*
D03*
X626000Y334500D02*
D03*
X603500D02*
D03*
X582500D02*
D03*
X561000D02*
D03*
X539000D02*
D03*
X519500D02*
D03*
X619500Y151000D02*
D03*
X582138Y144492D02*
D03*
X431500Y211500D02*
D03*
X436500Y233000D02*
D03*
X443284Y127063D02*
D03*
X402000Y183000D02*
D03*
X416500Y127000D02*
D03*
X566500Y210500D02*
D03*
X604000Y230000D02*
D03*
X649000Y249000D02*
D03*
X530409Y217500D02*
D03*
X533000Y210000D02*
D03*
X530000Y224000D02*
D03*
X657500Y164000D02*
D03*
X649500Y271000D02*
D03*
X625500D02*
D03*
X604000Y271500D02*
D03*
X583000Y269500D02*
D03*
X561500Y272500D02*
D03*
X539500Y280500D02*
D03*
X519000Y271500D02*
D03*
X510300Y229200D02*
D03*
X507854Y226700D02*
D03*
X486500Y203500D02*
D03*
X504563Y213500D02*
D03*
X496000Y226000D02*
D03*
X519000Y221000D02*
D03*
X537500Y236000D02*
D03*
X505500Y224000D02*
D03*
X542000Y228500D02*
D03*
X550000Y239500D02*
D03*
X539500Y169000D02*
D03*
X625500Y237000D02*
D03*
X583500Y218500D02*
D03*
X552600Y178800D02*
D03*
X563000Y197000D02*
D03*
X559000Y188500D02*
D03*
X555000Y181500D02*
D03*
X509000Y264000D02*
D03*
X417000Y287000D02*
D03*
X407500Y306000D02*
D03*
M02*
