G04*
G04 #@! TF.GenerationSoftware,Altium Limited,Altium Designer,20.1.14 (287)*
G04*
G04 Layer_Physical_Order=1*
G04 Layer_Color=255*
%FSLAX25Y25*%
%MOIN*%
G70*
G04*
G04 #@! TF.SameCoordinates,77D899AC-DA5C-4649-B6D6-03D989B7329D*
G04*
G04*
G04 #@! TF.FilePolarity,Positive*
G04*
G01*
G75*
%ADD16R,0.08700X0.06700*%
%ADD22R,0.03150X0.03543*%
G04:AMPARAMS|DCode=23|XSize=51.18mil|YSize=23.62mil|CornerRadius=2.01mil|HoleSize=0mil|Usage=FLASHONLY|Rotation=180.000|XOffset=0mil|YOffset=0mil|HoleType=Round|Shape=RoundedRectangle|*
%AMROUNDEDRECTD23*
21,1,0.05118,0.01961,0,0,180.0*
21,1,0.04717,0.02362,0,0,180.0*
1,1,0.00402,-0.02358,0.00980*
1,1,0.00402,0.02358,0.00980*
1,1,0.00402,0.02358,-0.00980*
1,1,0.00402,-0.02358,-0.00980*
%
%ADD23ROUNDEDRECTD23*%
%ADD28R,0.08740X0.05315*%
%ADD29R,0.06890X0.01772*%
%ADD30R,0.05512X0.05906*%
%ADD31R,0.04724X0.04331*%
%ADD32R,0.05906X0.05512*%
G04:AMPARAMS|DCode=33|XSize=21.65mil|YSize=31.5mil|CornerRadius=1.95mil|HoleSize=0mil|Usage=FLASHONLY|Rotation=270.000|XOffset=0mil|YOffset=0mil|HoleType=Round|Shape=RoundedRectangle|*
%AMROUNDEDRECTD33*
21,1,0.02165,0.02760,0,0,270.0*
21,1,0.01776,0.03150,0,0,270.0*
1,1,0.00390,-0.01380,-0.00888*
1,1,0.00390,-0.01380,0.00888*
1,1,0.00390,0.01380,0.00888*
1,1,0.00390,0.01380,-0.00888*
%
%ADD33ROUNDEDRECTD33*%
%ADD34C,0.01000*%
%ADD35C,0.01500*%
%ADD36C,0.05906*%
%ADD37R,0.05906X0.05906*%
%ADD38R,0.05906X0.05906*%
%ADD39C,0.02400*%
G36*
X682000Y120500D02*
X382000D01*
Y345500D01*
X682000D01*
Y120500D01*
D02*
G37*
%LPC*%
G36*
X459500Y340421D02*
Y337000D01*
X462921D01*
X462851Y337532D01*
X462453Y338493D01*
X461819Y339319D01*
X460993Y339953D01*
X460032Y340351D01*
X459500Y340421D01*
D02*
G37*
G36*
X439500D02*
Y337000D01*
X442921D01*
X442851Y337532D01*
X442453Y338493D01*
X441819Y339319D01*
X440993Y339953D01*
X440032Y340351D01*
X439500Y340421D01*
D02*
G37*
G36*
X438500D02*
X437968Y340351D01*
X437007Y339953D01*
X436181Y339319D01*
X435547Y338493D01*
X435149Y337532D01*
X435079Y337000D01*
X438500D01*
Y340421D01*
D02*
G37*
G36*
X458500D02*
X457968Y340351D01*
X457007Y339953D01*
X456181Y339319D01*
X455547Y338493D01*
X455149Y337532D01*
X455079Y337000D01*
X458500D01*
Y340421D01*
D02*
G37*
G36*
X626500Y336644D02*
Y335000D01*
X628144D01*
X628072Y335358D01*
X627586Y336086D01*
X626858Y336572D01*
X626500Y336644D01*
D02*
G37*
G36*
X625500D02*
X625142Y336572D01*
X624414Y336086D01*
X623928Y335358D01*
X623856Y335000D01*
X625500D01*
Y336644D01*
D02*
G37*
G36*
X604000D02*
Y335000D01*
X605644D01*
X605572Y335358D01*
X605086Y336086D01*
X604358Y336572D01*
X604000Y336644D01*
D02*
G37*
G36*
X603000D02*
X602642Y336572D01*
X601914Y336086D01*
X601428Y335358D01*
X601356Y335000D01*
X603000D01*
Y336644D01*
D02*
G37*
G36*
X583000D02*
Y335000D01*
X584644D01*
X584572Y335358D01*
X584086Y336086D01*
X583358Y336572D01*
X583000Y336644D01*
D02*
G37*
G36*
X582000D02*
X581642Y336572D01*
X580914Y336086D01*
X580428Y335358D01*
X580356Y335000D01*
X582000D01*
Y336644D01*
D02*
G37*
G36*
X561500D02*
Y335000D01*
X563144D01*
X563072Y335358D01*
X562586Y336086D01*
X561858Y336572D01*
X561500Y336644D01*
D02*
G37*
G36*
X560500D02*
X560142Y336572D01*
X559414Y336086D01*
X558928Y335358D01*
X558856Y335000D01*
X560500D01*
Y336644D01*
D02*
G37*
G36*
X539500D02*
Y335000D01*
X541144D01*
X541072Y335358D01*
X540586Y336086D01*
X539858Y336572D01*
X539500Y336644D01*
D02*
G37*
G36*
X538500D02*
X538142Y336572D01*
X537414Y336086D01*
X536928Y335358D01*
X536856Y335000D01*
X538500D01*
Y336644D01*
D02*
G37*
G36*
X520000D02*
Y335000D01*
X521644D01*
X521572Y335358D01*
X521086Y336086D01*
X520358Y336572D01*
X520000Y336644D01*
D02*
G37*
G36*
X519000D02*
X518642Y336572D01*
X517914Y336086D01*
X517428Y335358D01*
X517356Y335000D01*
X519000D01*
Y336644D01*
D02*
G37*
G36*
X672000Y336144D02*
Y334500D01*
X673644D01*
X673572Y334858D01*
X673086Y335586D01*
X672358Y336072D01*
X672000Y336144D01*
D02*
G37*
G36*
X671000D02*
X670642Y336072D01*
X669914Y335586D01*
X669428Y334858D01*
X669356Y334500D01*
X671000D01*
Y336144D01*
D02*
G37*
G36*
X649000D02*
Y334500D01*
X650644D01*
X650572Y334858D01*
X650086Y335586D01*
X649358Y336072D01*
X649000Y336144D01*
D02*
G37*
G36*
X648000D02*
X647642Y336072D01*
X646914Y335586D01*
X646428Y334858D01*
X646356Y334500D01*
X648000D01*
Y336144D01*
D02*
G37*
G36*
X462921Y336000D02*
X459500D01*
Y332579D01*
X460032Y332649D01*
X460993Y333047D01*
X461819Y333681D01*
X462453Y334507D01*
X462851Y335468D01*
X462921Y336000D01*
D02*
G37*
G36*
X442921D02*
X439500D01*
Y332579D01*
X440032Y332649D01*
X440993Y333047D01*
X441819Y333681D01*
X442453Y334507D01*
X442851Y335468D01*
X442921Y336000D01*
D02*
G37*
G36*
X438500D02*
X435079D01*
X435149Y335468D01*
X435547Y334507D01*
X436181Y333681D01*
X437007Y333047D01*
X437968Y332649D01*
X438500Y332579D01*
Y336000D01*
D02*
G37*
G36*
X458500D02*
X455079D01*
X455149Y335468D01*
X455547Y334507D01*
X456181Y333681D01*
X457007Y333047D01*
X457968Y332649D01*
X458500Y332579D01*
Y336000D01*
D02*
G37*
G36*
X429000Y340487D02*
X427968Y340351D01*
X427007Y339953D01*
X426181Y339319D01*
X425547Y338493D01*
X425149Y337532D01*
X425013Y336500D01*
X425149Y335468D01*
X425547Y334507D01*
X426181Y333681D01*
X427007Y333047D01*
X427968Y332649D01*
X429000Y332513D01*
X430032Y332649D01*
X430993Y333047D01*
X431819Y333681D01*
X432453Y334507D01*
X432851Y335468D01*
X432987Y336500D01*
X432851Y337532D01*
X432453Y338493D01*
X431819Y339319D01*
X430993Y339953D01*
X430032Y340351D01*
X429000Y340487D01*
D02*
G37*
G36*
X419000D02*
X417968Y340351D01*
X417007Y339953D01*
X416181Y339319D01*
X415547Y338493D01*
X415149Y337532D01*
X415013Y336500D01*
X415149Y335468D01*
X415547Y334507D01*
X416181Y333681D01*
X417007Y333047D01*
X417968Y332649D01*
X419000Y332513D01*
X420032Y332649D01*
X420993Y333047D01*
X421819Y333681D01*
X422453Y334507D01*
X422851Y335468D01*
X422987Y336500D01*
X422851Y337532D01*
X422453Y338493D01*
X421819Y339319D01*
X420993Y339953D01*
X420032Y340351D01*
X419000Y340487D01*
D02*
G37*
G36*
X409000D02*
X407968Y340351D01*
X407007Y339953D01*
X406181Y339319D01*
X405547Y338493D01*
X405149Y337532D01*
X405013Y336500D01*
X405149Y335468D01*
X405547Y334507D01*
X406181Y333681D01*
X407007Y333047D01*
X407968Y332649D01*
X409000Y332513D01*
X410032Y332649D01*
X410993Y333047D01*
X411819Y333681D01*
X412453Y334507D01*
X412851Y335468D01*
X412987Y336500D01*
X412851Y337532D01*
X412453Y338493D01*
X411819Y339319D01*
X410993Y339953D01*
X410032Y340351D01*
X409000Y340487D01*
D02*
G37*
G36*
X628333Y334000D02*
X623667D01*
X623502Y333799D01*
X622638D01*
Y331134D01*
X629362D01*
Y333799D01*
X628498D01*
X628333Y334000D01*
D02*
G37*
G36*
X673833Y333500D02*
X669167D01*
X669002Y333299D01*
X668138D01*
Y330634D01*
X674862D01*
Y333299D01*
X673998D01*
X673833Y333500D01*
D02*
G37*
G36*
X650833D02*
X646167D01*
X646002Y333299D01*
X645138D01*
Y330634D01*
X651862D01*
Y333299D01*
X650998D01*
X650833Y333500D01*
D02*
G37*
G36*
X605644Y334000D02*
X601356D01*
X601396Y333799D01*
X601101Y333299D01*
X600138D01*
Y330634D01*
X606862D01*
Y333299D01*
X605899D01*
X605604Y333799D01*
X605644Y334000D01*
D02*
G37*
G36*
X584644D02*
X580356D01*
X580396Y333799D01*
X580101Y333299D01*
X579138D01*
Y330634D01*
X585862D01*
Y333299D01*
X584899D01*
X584604Y333799D01*
X584644Y334000D01*
D02*
G37*
G36*
X563144D02*
X558856D01*
X558896Y333799D01*
X558601Y333299D01*
X557638D01*
Y330634D01*
X564362D01*
Y333299D01*
X563399D01*
X563104Y333799D01*
X563144Y334000D01*
D02*
G37*
G36*
X541144D02*
X536856D01*
X536896Y333799D01*
X536601Y333299D01*
X535638D01*
Y330634D01*
X542362D01*
Y333299D01*
X541399D01*
X541104Y333799D01*
X541144Y334000D01*
D02*
G37*
G36*
X521644D02*
X517356D01*
X517396Y333799D01*
X517101Y333299D01*
X516138D01*
Y330634D01*
X522862D01*
Y333299D01*
X521899D01*
X521604Y333799D01*
X521644Y334000D01*
D02*
G37*
G36*
X629362Y330134D02*
X626500D01*
Y327468D01*
X629362D01*
Y330134D01*
D02*
G37*
G36*
X625500D02*
X622638D01*
Y327468D01*
X625500D01*
Y330134D01*
D02*
G37*
G36*
X674862Y329634D02*
X672000D01*
Y326969D01*
X674862D01*
Y329634D01*
D02*
G37*
G36*
X671000D02*
X668138D01*
Y326969D01*
X671000D01*
Y329634D01*
D02*
G37*
G36*
X651862D02*
X649000D01*
Y326969D01*
X651862D01*
Y329634D01*
D02*
G37*
G36*
X648000D02*
X645138D01*
Y326969D01*
X648000D01*
Y329634D01*
D02*
G37*
G36*
X606862D02*
X604000D01*
Y326969D01*
X606862D01*
Y329634D01*
D02*
G37*
G36*
X603000D02*
X600138D01*
Y326969D01*
X603000D01*
Y329634D01*
D02*
G37*
G36*
X585862D02*
X583000D01*
Y326969D01*
X585862D01*
Y329634D01*
D02*
G37*
G36*
X582000D02*
X579138D01*
Y326969D01*
X582000D01*
Y329634D01*
D02*
G37*
G36*
X564362D02*
X561500D01*
Y326969D01*
X564362D01*
Y329634D01*
D02*
G37*
G36*
X560500D02*
X557638D01*
Y326969D01*
X560500D01*
Y329634D01*
D02*
G37*
G36*
X542362D02*
X539500D01*
Y326969D01*
X542362D01*
Y329634D01*
D02*
G37*
G36*
X538500D02*
X535638D01*
Y326969D01*
X538500D01*
Y329634D01*
D02*
G37*
G36*
X522862D02*
X520000D01*
Y326969D01*
X522862D01*
Y329634D01*
D02*
G37*
G36*
X519000D02*
X516138D01*
Y326969D01*
X519000D01*
Y329634D01*
D02*
G37*
G36*
X542362Y325031D02*
X535638D01*
Y318701D01*
X537471D01*
Y308630D01*
X535047D01*
Y301256D01*
X535047Y301118D01*
Y300756D01*
X535047Y300618D01*
Y293244D01*
X537971D01*
Y282124D01*
X537914Y282086D01*
X537428Y281358D01*
X537257Y280500D01*
X537428Y279642D01*
X537914Y278914D01*
X538642Y278428D01*
X539500Y278257D01*
X540358Y278428D01*
X541086Y278914D01*
X541572Y279642D01*
X541743Y280500D01*
X541572Y281358D01*
X541086Y282086D01*
X541029Y282124D01*
Y293244D01*
X542953D01*
Y300618D01*
X542953Y300756D01*
Y301118D01*
X542953Y301256D01*
Y308630D01*
X540529D01*
Y318701D01*
X542362D01*
Y325031D01*
D02*
G37*
G36*
X393453Y279453D02*
X390000D01*
Y276000D01*
X393453D01*
Y279453D01*
D02*
G37*
G36*
X389000D02*
X385547D01*
Y276000D01*
X389000D01*
Y279453D01*
D02*
G37*
G36*
Y275000D02*
X385547D01*
Y271547D01*
X389000D01*
Y275000D01*
D02*
G37*
G36*
X564362Y325031D02*
X557638D01*
Y318701D01*
X559581D01*
Y308630D01*
X557157D01*
Y301256D01*
X557157Y301118D01*
Y300756D01*
X557157Y300618D01*
Y293244D01*
X559971D01*
Y274124D01*
X559914Y274086D01*
X559428Y273358D01*
X559257Y272500D01*
X559428Y271642D01*
X559914Y270914D01*
X560642Y270428D01*
X561500Y270257D01*
X562358Y270428D01*
X563086Y270914D01*
X563572Y271642D01*
X563743Y272500D01*
X563572Y273358D01*
X563086Y274086D01*
X563029Y274124D01*
Y293244D01*
X565063D01*
Y300618D01*
X565063Y300756D01*
Y301118D01*
X565063Y301256D01*
Y308630D01*
X562640D01*
Y318701D01*
X564362D01*
Y325031D01*
D02*
G37*
G36*
X606862D02*
X600138D01*
Y318701D01*
X601971D01*
Y308693D01*
X599547D01*
Y301319D01*
X599547Y301181D01*
Y300819D01*
X599547Y300681D01*
Y293307D01*
X602471D01*
Y273124D01*
X602414Y273086D01*
X601928Y272358D01*
X601757Y271500D01*
X601928Y270642D01*
X602414Y269914D01*
X603142Y269428D01*
X604000Y269257D01*
X604858Y269428D01*
X605586Y269914D01*
X606072Y270642D01*
X606243Y271500D01*
X606072Y272358D01*
X605586Y273086D01*
X605529Y273124D01*
Y293307D01*
X607453D01*
Y300681D01*
X607453Y300819D01*
Y301181D01*
X607453Y301319D01*
Y308693D01*
X605029D01*
Y318701D01*
X606862D01*
Y325031D01*
D02*
G37*
G36*
X522862D02*
X516138D01*
Y318701D01*
X517971D01*
Y308193D01*
X515547D01*
Y300819D01*
X515547Y300681D01*
Y300319D01*
X515547Y300181D01*
Y292807D01*
X517471D01*
Y273124D01*
X517414Y273086D01*
X516928Y272358D01*
X516757Y271500D01*
X516928Y270642D01*
X517414Y269914D01*
X518142Y269428D01*
X519000Y269257D01*
X519858Y269428D01*
X520586Y269914D01*
X521072Y270642D01*
X521243Y271500D01*
X521072Y272358D01*
X520586Y273086D01*
X520529Y273124D01*
Y292807D01*
X523453D01*
Y300181D01*
X523453Y300319D01*
Y300681D01*
X523453Y300819D01*
Y308193D01*
X521029D01*
Y318701D01*
X522862D01*
Y325031D01*
D02*
G37*
G36*
X651862D02*
X645138D01*
Y318701D01*
X646971D01*
Y308193D01*
X644547D01*
Y300819D01*
X644547Y300681D01*
Y300319D01*
X644547Y300181D01*
Y292807D01*
X647971D01*
Y272624D01*
X647914Y272586D01*
X647428Y271858D01*
X647257Y271000D01*
X647428Y270142D01*
X647914Y269414D01*
X648642Y268928D01*
X649500Y268757D01*
X650358Y268928D01*
X651086Y269414D01*
X651572Y270142D01*
X651743Y271000D01*
X651572Y271858D01*
X651086Y272586D01*
X651029Y272624D01*
Y292807D01*
X652453D01*
Y300181D01*
X652453Y300319D01*
Y300681D01*
X652453Y300819D01*
Y308193D01*
X650029D01*
Y318701D01*
X651862D01*
Y325031D01*
D02*
G37*
G36*
X629362Y325532D02*
X622638D01*
Y319201D01*
X624471D01*
Y308193D01*
X622047D01*
Y300819D01*
X622047Y300681D01*
Y300319D01*
X622047Y300181D01*
Y292807D01*
X623971D01*
Y272624D01*
X623914Y272586D01*
X623428Y271858D01*
X623257Y271000D01*
X623428Y270142D01*
X623914Y269414D01*
X624642Y268928D01*
X625500Y268757D01*
X626358Y268928D01*
X627086Y269414D01*
X627572Y270142D01*
X627743Y271000D01*
X627572Y271858D01*
X627086Y272586D01*
X627029Y272624D01*
Y292807D01*
X629953D01*
Y300181D01*
X629953Y300319D01*
Y300681D01*
X629953Y300819D01*
Y308193D01*
X627529D01*
Y319201D01*
X629362D01*
Y325532D01*
D02*
G37*
G36*
X585862Y325031D02*
X579138D01*
Y318701D01*
X580971D01*
Y308630D01*
X578547D01*
Y301256D01*
X578547Y301118D01*
Y300756D01*
X578547Y300618D01*
Y293244D01*
X581471D01*
Y271124D01*
X581414Y271086D01*
X580928Y270358D01*
X580757Y269500D01*
X580928Y268642D01*
X581414Y267914D01*
X582142Y267428D01*
X583000Y267257D01*
X583858Y267428D01*
X584586Y267914D01*
X585072Y268642D01*
X585243Y269500D01*
X585072Y270358D01*
X584586Y271086D01*
X584529Y271124D01*
Y293244D01*
X586453D01*
Y300618D01*
X586453Y300756D01*
Y301118D01*
X586453Y301256D01*
Y308630D01*
X584029D01*
Y318701D01*
X585862D01*
Y325031D01*
D02*
G37*
G36*
X469000Y340487D02*
X467968Y340351D01*
X467007Y339953D01*
X466181Y339319D01*
X465547Y338493D01*
X465149Y337532D01*
X465013Y336500D01*
X465149Y335468D01*
X465547Y334507D01*
X466181Y333681D01*
X467007Y333047D01*
X467968Y332649D01*
X469000Y332513D01*
X470032Y332649D01*
X470496Y332841D01*
X500427Y302910D01*
Y258902D01*
X492382D01*
Y258545D01*
X479118D01*
X402953Y334710D01*
Y340453D01*
X395047D01*
Y332547D01*
X400790D01*
X477403Y255934D01*
X477899Y255603D01*
X478484Y255486D01*
X492382D01*
Y253427D01*
X463236D01*
X409105Y307558D01*
X409086Y307586D01*
X408358Y308072D01*
X407500Y308243D01*
X406642Y308072D01*
X405914Y307586D01*
X405428Y306858D01*
X405257Y306000D01*
X405428Y305142D01*
X405914Y304414D01*
X406642Y303928D01*
X407500Y303757D01*
X408358Y303928D01*
X408389Y303948D01*
X461521Y250816D01*
X462017Y250485D01*
X462602Y250368D01*
X492382D01*
Y247453D01*
Y243191D01*
X462972D01*
X419230Y286933D01*
X419243Y287000D01*
X419072Y287858D01*
X418586Y288586D01*
X417858Y289072D01*
X417000Y289243D01*
X416142Y289072D01*
X415414Y288586D01*
X414928Y287858D01*
X414757Y287000D01*
X414928Y286142D01*
X415414Y285414D01*
X416142Y284928D01*
X417000Y284757D01*
X417067Y284770D01*
X461257Y240580D01*
X461753Y240248D01*
X462339Y240132D01*
X492382D01*
Y237824D01*
X492175Y237783D01*
X491679Y237452D01*
X490419Y236191D01*
X490087Y235695D01*
X489971Y235109D01*
Y132645D01*
X489507Y132453D01*
X488681Y131819D01*
X488047Y130993D01*
X487649Y130032D01*
X487513Y129000D01*
X487649Y127968D01*
X488047Y127007D01*
X488681Y126181D01*
X489507Y125547D01*
X490468Y125149D01*
X491500Y125013D01*
X492532Y125149D01*
X493493Y125547D01*
X494319Y126181D01*
X494953Y127007D01*
X495351Y127968D01*
X495487Y129000D01*
X495351Y130032D01*
X494953Y130993D01*
X494319Y131819D01*
X493493Y132453D01*
X493029Y132645D01*
Y232098D01*
X494471D01*
Y227624D01*
X494414Y227586D01*
X493928Y226858D01*
X493856Y226500D01*
X498144D01*
X498072Y226858D01*
X497586Y227586D01*
X497529Y227624D01*
Y232098D01*
X500242D01*
Y132757D01*
X499507Y132453D01*
X498681Y131819D01*
X498047Y130993D01*
X497649Y130032D01*
X497513Y129000D01*
X497649Y127968D01*
X498047Y127007D01*
X498681Y126181D01*
X499507Y125547D01*
X500468Y125149D01*
X501500Y125013D01*
X502532Y125149D01*
X503493Y125547D01*
X504319Y126181D01*
X504953Y127007D01*
X505351Y127968D01*
X505487Y129000D01*
X505351Y130032D01*
X504953Y130993D01*
X504319Y131819D01*
X503493Y132453D01*
X503301Y132532D01*
Y211142D01*
X503801Y211408D01*
X504063Y211356D01*
Y213500D01*
Y215644D01*
X503801Y215592D01*
X503301Y215858D01*
Y222431D01*
X503801Y222583D01*
X503914Y222414D01*
X504642Y221928D01*
X505500Y221757D01*
X506358Y221928D01*
X507086Y222414D01*
X507572Y223142D01*
X507737Y223970D01*
X507854Y224457D01*
X508712Y224628D01*
X509440Y225114D01*
X509926Y225842D01*
X510056Y226496D01*
X510300Y226957D01*
X511158Y227128D01*
X511886Y227614D01*
X512372Y228342D01*
X512543Y229200D01*
X512372Y230058D01*
X511886Y230786D01*
X511158Y231272D01*
X510529Y231398D01*
Y241657D01*
X510413Y242242D01*
X510081Y242738D01*
X502573Y250247D01*
X502077Y250578D01*
X501491Y250695D01*
X501272D01*
Y252927D01*
X501371D01*
X501956Y253044D01*
X502452Y253375D01*
X503038Y253961D01*
X503370Y254457D01*
X503486Y255043D01*
Y273328D01*
X503948Y273519D01*
X520728Y256739D01*
Y255319D01*
X520241Y255100D01*
X511219Y264122D01*
X511072Y264858D01*
X510586Y265586D01*
X509858Y266072D01*
X509000Y266243D01*
X508142Y266072D01*
X507414Y265586D01*
X506928Y264858D01*
X506757Y264000D01*
X506928Y263142D01*
X507414Y262414D01*
X508142Y261928D01*
X509000Y261757D01*
X509215Y261800D01*
X520026Y250989D01*
X520522Y250658D01*
X520728Y250617D01*
Y247453D01*
Y243191D01*
X520228D01*
X519643Y243074D01*
X519147Y242743D01*
X517919Y241514D01*
X517587Y241018D01*
X517471Y240433D01*
Y222624D01*
X517414Y222586D01*
X516928Y221858D01*
X516757Y221000D01*
X516928Y220142D01*
X517414Y219414D01*
X518142Y218928D01*
X519000Y218757D01*
X519858Y218928D01*
X520586Y219414D01*
X521072Y220142D01*
X521243Y221000D01*
X521072Y221858D01*
X520586Y222586D01*
X520529Y222624D01*
Y231681D01*
X520728Y232098D01*
X523644D01*
Y220004D01*
X521093Y217453D01*
X515744D01*
Y217453D01*
X515382D01*
Y217453D01*
X512126D01*
Y213500D01*
Y209547D01*
X515382D01*
Y209547D01*
X515744D01*
Y209547D01*
X518139D01*
Y205284D01*
X509788D01*
X509586Y205586D01*
X508858Y206072D01*
X508000Y206243D01*
X507142Y206072D01*
X506414Y205586D01*
X505928Y204858D01*
X505757Y204000D01*
X505928Y203142D01*
X506414Y202414D01*
X507142Y201928D01*
X508000Y201757D01*
X508268Y201810D01*
X508743Y201716D01*
X508744Y201716D01*
X518139D01*
Y132081D01*
X518200Y131774D01*
Y131707D01*
X518282Y131299D01*
X518047Y130993D01*
X517649Y130032D01*
X517513Y129000D01*
X517649Y127968D01*
X518047Y127007D01*
X518681Y126181D01*
X519507Y125547D01*
X520468Y125149D01*
X521500Y125013D01*
X522532Y125149D01*
X523493Y125547D01*
X524319Y126181D01*
X524953Y127007D01*
X525351Y127968D01*
X525487Y129000D01*
X525351Y130032D01*
X524953Y130993D01*
X524319Y131819D01*
X523493Y132453D01*
X522532Y132851D01*
X521708Y132959D01*
Y173161D01*
X522086Y173414D01*
X522572Y174142D01*
X522743Y175000D01*
X522572Y175858D01*
X522086Y176586D01*
X521708Y176839D01*
Y203500D01*
Y209547D01*
X523256D01*
Y215290D01*
X526255Y218289D01*
X526586Y218785D01*
X526703Y219370D01*
Y232098D01*
X529618D01*
Y235014D01*
X535513D01*
X535914Y234414D01*
X536642Y233928D01*
X537500Y233757D01*
X538358Y233928D01*
X539086Y234414D01*
X539572Y235142D01*
X539743Y236000D01*
X539572Y236858D01*
X539313Y237246D01*
X539580Y237746D01*
X548665D01*
X549142Y237428D01*
X550000Y237257D01*
X550858Y237428D01*
X551586Y237914D01*
X552072Y238642D01*
X552243Y239500D01*
X552072Y240358D01*
X551586Y241086D01*
X550858Y241572D01*
X550000Y241743D01*
X549142Y241572D01*
X548414Y241086D01*
X548226Y240805D01*
X529618D01*
Y242691D01*
X553646D01*
X580419Y215919D01*
X582919Y213419D01*
X583415Y213087D01*
X584000Y212971D01*
X668355D01*
X668547Y212507D01*
X669181Y211681D01*
X670007Y211047D01*
X670968Y210649D01*
X672000Y210513D01*
X673032Y210649D01*
X673993Y211047D01*
X674819Y211681D01*
X675453Y212507D01*
X675851Y213468D01*
X675987Y214500D01*
X675851Y215532D01*
X675453Y216493D01*
X674819Y217319D01*
X673993Y217953D01*
X673032Y218351D01*
X672000Y218487D01*
X670968Y218351D01*
X670007Y217953D01*
X669181Y217319D01*
X668547Y216493D01*
X668355Y216029D01*
X585010D01*
X584843Y216217D01*
X584917Y216801D01*
X585086Y216914D01*
X585572Y217642D01*
X585743Y218500D01*
X585572Y219358D01*
X585086Y220086D01*
X584358Y220572D01*
X583500Y220743D01*
X582642Y220572D01*
X581914Y220086D01*
X581662Y219708D01*
X581018Y219645D01*
X555875Y244788D01*
X556066Y245250D01*
X558087D01*
X579919Y223419D01*
X580415Y223087D01*
X581000Y222971D01*
X668355D01*
X668547Y222507D01*
X669181Y221681D01*
X670007Y221047D01*
X670968Y220649D01*
X672000Y220513D01*
X673032Y220649D01*
X673993Y221047D01*
X674819Y221681D01*
X675453Y222507D01*
X675851Y223468D01*
X675987Y224500D01*
X675851Y225532D01*
X675453Y226493D01*
X674819Y227319D01*
X673993Y227953D01*
X673032Y228351D01*
X672000Y228487D01*
X670968Y228351D01*
X670007Y227953D01*
X669181Y227319D01*
X668547Y226493D01*
X668355Y226029D01*
X603846D01*
X603654Y226491D01*
X605081Y227919D01*
X605272Y228204D01*
X605586Y228414D01*
X606072Y229142D01*
X606243Y230000D01*
X606072Y230858D01*
X605586Y231586D01*
X604858Y232072D01*
X604000Y232243D01*
X603142Y232072D01*
X602414Y231586D01*
X601928Y230858D01*
X601757Y230000D01*
X601928Y229142D01*
X601948Y229111D01*
X598919Y226081D01*
X598884Y226029D01*
X581634D01*
X560316Y247347D01*
X560507Y247809D01*
X585528D01*
X599919Y233419D01*
X600415Y233087D01*
X601000Y232971D01*
X668355D01*
X668547Y232507D01*
X669181Y231681D01*
X670007Y231047D01*
X670968Y230649D01*
X672000Y230513D01*
X673032Y230649D01*
X673993Y231047D01*
X674819Y231681D01*
X675453Y232507D01*
X675851Y233468D01*
X675987Y234500D01*
X675851Y235532D01*
X675453Y236493D01*
X674819Y237319D01*
X673993Y237953D01*
X673032Y238351D01*
X672000Y238487D01*
X670968Y238351D01*
X670007Y237953D01*
X669181Y237319D01*
X668547Y236493D01*
X668355Y236029D01*
X628053D01*
X627649Y236529D01*
X627743Y237000D01*
X627572Y237858D01*
X627086Y238586D01*
X626358Y239072D01*
X625500Y239243D01*
X624642Y239072D01*
X623914Y238586D01*
X623428Y237858D01*
X623257Y237000D01*
X623333Y236617D01*
X622919Y236203D01*
X622803Y236029D01*
X601634D01*
X587757Y249906D01*
X587948Y250368D01*
X595469D01*
X602419Y243419D01*
X602915Y243087D01*
X603500Y242971D01*
X668355D01*
X668547Y242507D01*
X669181Y241681D01*
X670007Y241047D01*
X670968Y240649D01*
X672000Y240513D01*
X673032Y240649D01*
X673993Y241047D01*
X674819Y241681D01*
X675453Y242507D01*
X675851Y243468D01*
X675987Y244500D01*
X675851Y245532D01*
X675453Y246493D01*
X674819Y247319D01*
X673993Y247953D01*
X673032Y248351D01*
X672000Y248487D01*
X670968Y248351D01*
X670007Y247953D01*
X669181Y247319D01*
X668547Y246493D01*
X668355Y246029D01*
X643346D01*
X643154Y246491D01*
X644134Y247471D01*
X647376D01*
X647414Y247414D01*
X648142Y246928D01*
X649000Y246757D01*
X649858Y246928D01*
X650586Y247414D01*
X651072Y248142D01*
X651243Y249000D01*
X651072Y249858D01*
X650586Y250586D01*
X649858Y251072D01*
X649000Y251243D01*
X648142Y251072D01*
X647414Y250586D01*
X647376Y250529D01*
X643500D01*
X642915Y250413D01*
X642419Y250081D01*
X638367Y246029D01*
X604134D01*
X597697Y252465D01*
X597889Y252927D01*
X668373D01*
X668547Y252507D01*
X669181Y251681D01*
X670007Y251047D01*
X670968Y250649D01*
X672000Y250513D01*
X673032Y250649D01*
X673993Y251047D01*
X674819Y251681D01*
X675453Y252507D01*
X675851Y253468D01*
X675987Y254500D01*
X675851Y255532D01*
X675453Y256493D01*
X674819Y257319D01*
X673993Y257953D01*
X673529Y258145D01*
Y292807D01*
X675453D01*
Y300181D01*
X675453Y300319D01*
Y300681D01*
X675453Y300819D01*
Y308193D01*
X673029D01*
Y318701D01*
X674862D01*
Y325031D01*
X668138D01*
Y318701D01*
X669971D01*
Y308193D01*
X667547D01*
Y300819D01*
X667547Y300681D01*
Y300319D01*
X667547Y300181D01*
Y292807D01*
X670471D01*
Y258145D01*
X670007Y257953D01*
X669181Y257319D01*
X668547Y256493D01*
X668337Y255986D01*
X529618D01*
Y258902D01*
X522891D01*
X505486Y276307D01*
Y315996D01*
X505370Y316581D01*
X505038Y317077D01*
X484534Y337581D01*
X484038Y337913D01*
X483453Y338029D01*
X482953D01*
Y340453D01*
X475047D01*
Y333269D01*
X474585Y333078D01*
X472659Y335004D01*
X472851Y335468D01*
X472987Y336500D01*
X472851Y337532D01*
X472453Y338493D01*
X471819Y339319D01*
X470993Y339953D01*
X470032Y340351D01*
X469000Y340487D01*
D02*
G37*
G36*
X393453Y275000D02*
X390000D01*
Y271547D01*
X390929D01*
X402090Y260387D01*
Y250453D01*
X400319D01*
X400181Y250453D01*
X399819D01*
X399681Y250453D01*
X397784D01*
Y259000D01*
X397784Y259000D01*
X397649Y259683D01*
X397262Y260262D01*
X393264Y264259D01*
X393351Y264468D01*
X393487Y265500D01*
X393351Y266532D01*
X392953Y267493D01*
X392319Y268319D01*
X391493Y268953D01*
X390532Y269351D01*
X389500Y269487D01*
X388468Y269351D01*
X387507Y268953D01*
X386681Y268319D01*
X386047Y267493D01*
X385649Y266532D01*
X385513Y265500D01*
X385649Y264468D01*
X386047Y263507D01*
X386681Y262681D01*
X387507Y262047D01*
X388468Y261649D01*
X389500Y261513D01*
X390532Y261649D01*
X390741Y261736D01*
X394216Y258261D01*
Y250453D01*
X392307D01*
Y242547D01*
X394216D01*
Y230453D01*
X392807D01*
Y222547D01*
X397187D01*
X397307Y222368D01*
X408937Y210738D01*
X409516Y210351D01*
X410199Y210216D01*
X410199Y210216D01*
X414776D01*
X415043Y209716D01*
X414975Y209614D01*
X414882Y209148D01*
Y207372D01*
X414975Y206906D01*
X415239Y206511D01*
X415634Y206246D01*
X415696Y206234D01*
Y198350D01*
X408600D01*
Y189650D01*
X412666D01*
Y176837D01*
X412802Y176155D01*
X413188Y175576D01*
X419130Y169634D01*
Y164842D01*
X429870D01*
Y171347D01*
X435262Y176738D01*
X435648Y177317D01*
X435784Y178000D01*
X435784Y178000D01*
Y180307D01*
X437953D01*
Y187681D01*
X437953Y187819D01*
Y188181D01*
X437953Y188319D01*
Y188908D01*
X458925D01*
Y187665D01*
X464075D01*
Y193209D01*
X458925D01*
Y191966D01*
X437953D01*
Y195693D01*
X435529D01*
Y202272D01*
X435413Y202857D01*
X435081Y203353D01*
X430118Y208317D01*
Y209148D01*
X430111Y209181D01*
X430561Y209481D01*
X430642Y209428D01*
X431000Y209356D01*
Y211500D01*
X431500D01*
Y212000D01*
X433644D01*
X433572Y212358D01*
X433086Y213086D01*
X432533Y213456D01*
X432684Y213956D01*
X445281D01*
X445807Y213429D01*
Y208047D01*
X453181D01*
X453319Y208047D01*
X453681D01*
X453819Y208047D01*
X461193D01*
Y210192D01*
X465284D01*
X475216Y200261D01*
Y156239D01*
X457732Y138756D01*
X452547D01*
Y136721D01*
X433453D01*
Y138693D01*
X431217D01*
Y150022D01*
X440780D01*
X441366Y150139D01*
X441862Y150470D01*
X458841Y167450D01*
X459173Y167946D01*
X459289Y168531D01*
Y179791D01*
X460335D01*
Y185335D01*
X455185D01*
Y179791D01*
X456230D01*
Y169165D01*
X440147Y153081D01*
X430427D01*
X429904Y153604D01*
Y158443D01*
X429870Y158615D01*
Y164008D01*
X419130D01*
Y156693D01*
X426336D01*
Y152865D01*
X426472Y152182D01*
X426858Y151603D01*
X427649Y150813D01*
Y138693D01*
X425547D01*
Y136721D01*
X409453D01*
Y138693D01*
X407284D01*
Y143307D01*
X408953D01*
Y150681D01*
X408953Y150819D01*
Y151181D01*
X408953Y151319D01*
Y158693D01*
X406784D01*
Y163701D01*
X408362D01*
Y170031D01*
X401638D01*
Y163701D01*
X403216D01*
Y158693D01*
X401047D01*
Y151319D01*
X401047Y151181D01*
Y150819D01*
X401047Y150681D01*
Y143307D01*
X403716D01*
Y138693D01*
X401547D01*
Y131319D01*
X401547Y131181D01*
Y130819D01*
X401547Y130681D01*
Y127563D01*
X405500D01*
Y127063D01*
X406000D01*
Y123307D01*
X409453D01*
Y125471D01*
X414876D01*
X414914Y125414D01*
X415642Y124928D01*
X416000Y124856D01*
Y127000D01*
Y129144D01*
X415642Y129072D01*
X414914Y128586D01*
X414876Y128529D01*
X409453D01*
Y130681D01*
X409453Y130819D01*
Y131181D01*
X409453Y131319D01*
Y133153D01*
X425547D01*
Y131319D01*
X425547Y131181D01*
Y130819D01*
X425547Y130681D01*
Y128529D01*
X418124D01*
X418086Y128586D01*
X417358Y129072D01*
X417000Y129144D01*
Y127000D01*
Y124856D01*
X417358Y124928D01*
X418086Y125414D01*
X418124Y125471D01*
X425547D01*
Y123307D01*
X429000D01*
Y127063D01*
X430000D01*
Y123307D01*
X433453D01*
Y125534D01*
X441660D01*
X441698Y125477D01*
X442425Y124991D01*
X442784Y124919D01*
Y127063D01*
Y129207D01*
X442425Y129135D01*
X441698Y128649D01*
X441660Y128592D01*
X433453D01*
Y130681D01*
X433453Y130819D01*
Y131181D01*
X433453Y131319D01*
Y133153D01*
X452547D01*
Y131382D01*
X452547Y131244D01*
Y130882D01*
X452547Y130744D01*
Y128592D01*
X444908D01*
X444870Y128649D01*
X444142Y129135D01*
X443784Y129207D01*
Y127063D01*
Y124919D01*
X444142Y124991D01*
X444870Y125477D01*
X444908Y125534D01*
X452547D01*
Y123370D01*
X456000D01*
Y127126D01*
X456500D01*
Y127626D01*
X460453D01*
Y130744D01*
X460453Y130882D01*
Y131244D01*
X460453Y131382D01*
Y136429D01*
X478262Y154238D01*
X478649Y154817D01*
X478784Y155500D01*
Y200261D01*
X480239Y201716D01*
X485211D01*
X485642Y201428D01*
X486500Y201257D01*
X487358Y201428D01*
X488086Y201914D01*
X488572Y202642D01*
X488743Y203500D01*
X488572Y204358D01*
X488086Y205086D01*
X487358Y205572D01*
X486500Y205743D01*
X485642Y205572D01*
X485211Y205284D01*
X479500D01*
X479500Y205284D01*
X478817Y205149D01*
X478238Y204762D01*
X478238Y204762D01*
X477000Y203523D01*
X467285Y213238D01*
X466706Y213625D01*
X466024Y213761D01*
X461193D01*
Y215953D01*
X453819D01*
X453681Y215953D01*
X453319D01*
X453181Y215953D01*
X451847D01*
Y229047D01*
X453693D01*
Y236953D01*
X446319D01*
X446181Y236953D01*
X445819D01*
X445681Y236953D01*
X442563D01*
Y233000D01*
Y229047D01*
X445681D01*
X445819Y229047D01*
X446181D01*
X446319Y229047D01*
X448279D01*
Y216658D01*
X447817Y216466D01*
X447281Y217002D01*
X446702Y217389D01*
X446020Y217524D01*
X429709D01*
X429366Y217754D01*
X428900Y217846D01*
X426140D01*
X425673Y217754D01*
X425278Y217489D01*
X425014Y217094D01*
X424922Y216628D01*
Y214852D01*
X425014Y214386D01*
X425112Y214240D01*
X425237Y213870D01*
X425112Y213501D01*
X425014Y213354D01*
X424922Y212888D01*
Y212500D01*
X427520D01*
Y211500D01*
X424922D01*
Y211112D01*
X425014Y210646D01*
X425112Y210499D01*
X425237Y210130D01*
X425112Y209760D01*
X425014Y209614D01*
X424922Y209148D01*
Y207372D01*
X425014Y206906D01*
X425278Y206511D01*
X425673Y206246D01*
X426140Y206154D01*
X427955D01*
X432471Y201638D01*
Y195693D01*
X430047D01*
Y188319D01*
X430047Y188181D01*
Y187819D01*
X430047Y187681D01*
Y180307D01*
X432216D01*
Y178739D01*
X425634Y172158D01*
X421653D01*
X416234Y177576D01*
Y189650D01*
X419300D01*
Y198350D01*
X419265D01*
Y206234D01*
X419326Y206246D01*
X419722Y206511D01*
X419986Y206906D01*
X420079Y207372D01*
Y209148D01*
X419986Y209614D01*
X419888Y209760D01*
X419763Y210130D01*
X419888Y210499D01*
X419986Y210646D01*
X420079Y211112D01*
Y212888D01*
X419986Y213354D01*
X419888Y213501D01*
X419763Y213870D01*
X419888Y214240D01*
X419986Y214386D01*
X420079Y214852D01*
Y216628D01*
X419986Y217094D01*
X419722Y217489D01*
X419326Y217754D01*
X418860Y217846D01*
X417406D01*
X415305Y219947D01*
X414726Y220334D01*
X414043Y220469D01*
X407788D01*
X406221Y222036D01*
Y222547D01*
X408193D01*
Y230453D01*
X400681D01*
X400681Y230453D01*
X400319D01*
Y230453D01*
X400181Y230453D01*
X397784D01*
Y242547D01*
X399681D01*
X399819Y242547D01*
X400181D01*
X400319Y242547D01*
X403437D01*
Y246500D01*
X403937D01*
Y247000D01*
X407693D01*
Y250453D01*
X405658D01*
Y261126D01*
X405522Y261809D01*
X405136Y262388D01*
X405136Y262388D01*
X393453Y274071D01*
Y275000D01*
D02*
G37*
G36*
X407693Y246000D02*
X404437D01*
Y242547D01*
X407693D01*
Y246000D01*
D02*
G37*
G36*
X441563Y236953D02*
X438307D01*
Y234784D01*
X437789D01*
X437358Y235072D01*
X437000Y235144D01*
Y233000D01*
Y230856D01*
X437358Y230928D01*
X437789Y231216D01*
X438307D01*
Y229047D01*
X441563D01*
Y233000D01*
Y236953D01*
D02*
G37*
G36*
X436000Y235144D02*
X435642Y235072D01*
X434914Y234586D01*
X434428Y233858D01*
X434356Y233500D01*
X436000D01*
Y235144D01*
D02*
G37*
G36*
Y232500D02*
X434356D01*
X434428Y232142D01*
X434914Y231414D01*
X435642Y230928D01*
X436000Y230856D01*
Y232500D01*
D02*
G37*
G36*
X498144Y225500D02*
X496500D01*
Y223856D01*
X496858Y223928D01*
X497586Y224414D01*
X498072Y225142D01*
X498144Y225500D01*
D02*
G37*
G36*
X495500D02*
X493856D01*
X493928Y225142D01*
X494414Y224414D01*
X495142Y223928D01*
X495500Y223856D01*
Y225500D01*
D02*
G37*
G36*
X511126Y217453D02*
X507870D01*
Y215029D01*
X506187D01*
X506149Y215086D01*
X505421Y215572D01*
X505063Y215644D01*
Y213500D01*
Y211356D01*
X505421Y211428D01*
X506149Y211914D01*
X506187Y211971D01*
X507870D01*
Y209547D01*
X511126D01*
Y213500D01*
Y217453D01*
D02*
G37*
G36*
X433644Y211000D02*
X432000D01*
Y209356D01*
X432358Y209428D01*
X433086Y209914D01*
X433572Y210642D01*
X433644Y211000D01*
D02*
G37*
G36*
X542000Y230743D02*
X541142Y230572D01*
X540414Y230086D01*
X539928Y229358D01*
X539757Y228500D01*
X539928Y227642D01*
X540414Y226914D01*
X541142Y226428D01*
X542000Y226257D01*
X542067Y226270D01*
X549919Y218419D01*
X550415Y218087D01*
X551000Y217971D01*
X551695D01*
X562833Y206833D01*
X566247Y203419D01*
X566743Y203087D01*
X567328Y202971D01*
X668355D01*
X668547Y202507D01*
X669181Y201681D01*
X670007Y201047D01*
X670968Y200649D01*
X672000Y200513D01*
X673032Y200649D01*
X673993Y201047D01*
X674819Y201681D01*
X675453Y202507D01*
X675851Y203468D01*
X675987Y204500D01*
X675851Y205532D01*
X675453Y206493D01*
X674819Y207319D01*
X673993Y207953D01*
X673032Y208351D01*
X672000Y208487D01*
X670968Y208351D01*
X670007Y207953D01*
X669181Y207319D01*
X668547Y206493D01*
X668355Y206029D01*
X567962D01*
X566077Y207914D01*
X566433Y208270D01*
X566500Y208257D01*
X567358Y208428D01*
X568086Y208914D01*
X568572Y209642D01*
X568743Y210500D01*
X568572Y211358D01*
X568086Y212086D01*
X567358Y212572D01*
X566500Y212743D01*
X565642Y212572D01*
X564914Y212086D01*
X564428Y211358D01*
X564257Y210500D01*
X564270Y210433D01*
X563914Y210077D01*
X553410Y220581D01*
X552914Y220913D01*
X552328Y221029D01*
X551634D01*
X544230Y228433D01*
X544243Y228500D01*
X544072Y229358D01*
X543586Y230086D01*
X542858Y230572D01*
X542000Y230743D01*
D02*
G37*
G36*
X404400Y198350D02*
X399550D01*
Y194500D01*
X404400D01*
Y198350D01*
D02*
G37*
G36*
X398550D02*
X393700D01*
Y194500D01*
X398550D01*
Y198350D01*
D02*
G37*
G36*
X530000Y226243D02*
X529142Y226072D01*
X528414Y225586D01*
X527928Y224858D01*
X527757Y224000D01*
X527928Y223142D01*
X528414Y222414D01*
X529142Y221928D01*
X530000Y221757D01*
X530067Y221770D01*
X558919Y192919D01*
X559415Y192587D01*
X560000Y192471D01*
X668575D01*
X669181Y191681D01*
X670007Y191047D01*
X670968Y190649D01*
X672000Y190513D01*
X673032Y190649D01*
X673993Y191047D01*
X674819Y191681D01*
X675453Y192507D01*
X675851Y193468D01*
X675987Y194500D01*
X675851Y195532D01*
X675453Y196493D01*
X674819Y197319D01*
X673993Y197953D01*
X673032Y198351D01*
X672000Y198487D01*
X670968Y198351D01*
X670007Y197953D01*
X669181Y197319D01*
X668547Y196493D01*
X668149Y195532D01*
X668149Y195529D01*
X565194D01*
X564958Y195970D01*
X565072Y196142D01*
X565243Y197000D01*
X565072Y197858D01*
X564586Y198586D01*
X563858Y199072D01*
X563000Y199243D01*
X562142Y199072D01*
X561414Y198586D01*
X560928Y197858D01*
X560757Y197000D01*
X560770Y196933D01*
X560000Y196163D01*
X532230Y223933D01*
X532243Y224000D01*
X532072Y224858D01*
X531586Y225586D01*
X530858Y226072D01*
X530000Y226243D01*
D02*
G37*
G36*
X530409Y219743D02*
X529551Y219572D01*
X528823Y219086D01*
X528337Y218358D01*
X528166Y217500D01*
X528337Y216642D01*
X528823Y215914D01*
X529551Y215428D01*
X530409Y215257D01*
X530476Y215270D01*
X533040Y212706D01*
X532830Y212209D01*
X532142Y212072D01*
X531414Y211586D01*
X530928Y210858D01*
X530757Y210000D01*
X530928Y209142D01*
X531414Y208414D01*
X531471Y208376D01*
Y160453D01*
X529307D01*
Y152547D01*
X529471D01*
Y132953D01*
X527547D01*
Y125047D01*
X535453D01*
Y132953D01*
X532529D01*
Y152547D01*
X536681D01*
X536819Y152547D01*
X537181D01*
X537319Y152547D01*
X544693D01*
Y156300D01*
X548633D01*
X549218Y156417D01*
X549715Y156748D01*
X550710Y157744D01*
X554290D01*
X555663Y156371D01*
X556159Y156040D01*
X556744Y155923D01*
X562807D01*
Y151047D01*
X570181D01*
X570319Y151047D01*
X570681D01*
X570819Y151047D01*
X573420D01*
X579909Y144559D01*
X579895Y144492D01*
X580066Y143633D01*
X580552Y142906D01*
X581280Y142419D01*
X582138Y142249D01*
X582205Y142262D01*
X587478Y136989D01*
Y135601D01*
X587377Y135449D01*
X587284Y134980D01*
Y134500D01*
X590866D01*
Y134000D01*
X591366D01*
Y131795D01*
X593224D01*
X593693Y131889D01*
X594090Y132154D01*
X594355Y132551D01*
X594449Y133020D01*
Y133865D01*
X594911Y134057D01*
X594990Y133978D01*
X595486Y133646D01*
X596071Y133530D01*
X596307D01*
X596933Y132904D01*
X596684Y132446D01*
X596307Y132371D01*
X595910Y132106D01*
X595645Y131709D01*
X595551Y131240D01*
Y129279D01*
X595645Y128811D01*
X595910Y128414D01*
X596307Y128148D01*
X596776Y128055D01*
X601492D01*
X601961Y128148D01*
X602358Y128414D01*
X602569Y128730D01*
X615547D01*
Y126744D01*
X623453D01*
Y132290D01*
X653633Y162471D01*
X655876D01*
X655914Y162414D01*
X656642Y161928D01*
X657500Y161757D01*
X658358Y161928D01*
X659086Y162414D01*
X659572Y163142D01*
X659724Y163906D01*
X660184Y164154D01*
X669341Y154996D01*
X669149Y154532D01*
X669013Y153500D01*
X669149Y152468D01*
X669547Y151507D01*
X670181Y150681D01*
X671007Y150047D01*
X671968Y149649D01*
X673000Y149513D01*
X674032Y149649D01*
X674993Y150047D01*
X675819Y150681D01*
X676453Y151507D01*
X676851Y152468D01*
X676987Y153500D01*
X676851Y154532D01*
X676453Y155493D01*
X675819Y156319D01*
X674993Y156953D01*
X674032Y157351D01*
X673000Y157487D01*
X671968Y157351D01*
X671504Y157159D01*
X646081Y182581D01*
X645948Y182671D01*
X646100Y183171D01*
X668047D01*
Y180547D01*
X675953D01*
Y188453D01*
X668047D01*
Y186229D01*
X560462D01*
X560310Y186729D01*
X560586Y186914D01*
X561072Y187642D01*
X561243Y188500D01*
X561072Y189358D01*
X560586Y190086D01*
X559858Y190572D01*
X559000Y190743D01*
X558142Y190572D01*
X557414Y190086D01*
X556928Y189358D01*
X556757Y188500D01*
X556770Y188433D01*
X555200Y186863D01*
X543529Y198533D01*
Y205909D01*
X543413Y206494D01*
X543081Y206991D01*
X532639Y217433D01*
X532652Y217500D01*
X532481Y218358D01*
X531995Y219086D01*
X531268Y219572D01*
X530409Y219743D01*
D02*
G37*
G36*
X467815Y185335D02*
X462665D01*
Y179791D01*
X467815D01*
Y185335D01*
D02*
G37*
G36*
X404400Y193500D02*
X399050D01*
X393700D01*
Y189650D01*
X397521D01*
Y185950D01*
X397637Y185365D01*
X397969Y184869D01*
X399770Y183067D01*
X399757Y183000D01*
X399928Y182142D01*
X400414Y181414D01*
X401142Y180928D01*
X402000Y180757D01*
X402067Y180770D01*
X403471Y179367D01*
Y178299D01*
X401638D01*
Y175634D01*
X408362D01*
Y178299D01*
X406529D01*
Y180000D01*
X406413Y180585D01*
X406081Y181081D01*
X404230Y182933D01*
X404243Y183000D01*
X404072Y183858D01*
X403586Y184586D01*
X402858Y185072D01*
X402000Y185243D01*
X401933Y185230D01*
X400579Y186583D01*
Y189650D01*
X404400D01*
Y193500D01*
D02*
G37*
G36*
X408362Y174634D02*
X405500D01*
Y171968D01*
X408362D01*
Y174634D01*
D02*
G37*
G36*
X404500D02*
X401638D01*
Y171968D01*
X404500D01*
Y174634D01*
D02*
G37*
G36*
X673000Y167487D02*
X671968Y167351D01*
X671007Y166953D01*
X670181Y166319D01*
X669547Y165493D01*
X669149Y164532D01*
X669013Y163500D01*
X669149Y162468D01*
X669547Y161507D01*
X670181Y160681D01*
X671007Y160047D01*
X671968Y159649D01*
X673000Y159513D01*
X674032Y159649D01*
X674993Y160047D01*
X675819Y160681D01*
X676453Y161507D01*
X676851Y162468D01*
X676987Y163500D01*
X676851Y164532D01*
X676453Y165493D01*
X675819Y166319D01*
X674993Y166953D01*
X674032Y167351D01*
X673000Y167487D01*
D02*
G37*
G36*
X676953Y147453D02*
X673500D01*
Y144000D01*
X676953D01*
Y147453D01*
D02*
G37*
G36*
X672500D02*
X669047D01*
Y144000D01*
X672500D01*
Y147453D01*
D02*
G37*
G36*
X676953Y143000D02*
X673500D01*
Y139547D01*
X676953D01*
Y143000D01*
D02*
G37*
G36*
X672500D02*
X669047D01*
Y139547D01*
X672500D01*
Y143000D01*
D02*
G37*
G36*
X590366Y133500D02*
X587284D01*
Y133020D01*
X587377Y132551D01*
X587642Y132154D01*
X588039Y131889D01*
X588508Y131795D01*
X590366D01*
Y133500D01*
D02*
G37*
G36*
X512000Y132921D02*
Y129500D01*
X515421D01*
X515351Y130032D01*
X514953Y130993D01*
X514319Y131819D01*
X513493Y132453D01*
X512532Y132851D01*
X512000Y132921D01*
D02*
G37*
G36*
X511000D02*
X510468Y132851D01*
X509507Y132453D01*
X508681Y131819D01*
X508047Y130993D01*
X507649Y130032D01*
X507579Y129500D01*
X511000D01*
Y132921D01*
D02*
G37*
G36*
X515421Y128500D02*
X512000D01*
Y125079D01*
X512532Y125149D01*
X513493Y125547D01*
X514319Y126181D01*
X514953Y127007D01*
X515351Y127968D01*
X515421Y128500D01*
D02*
G37*
G36*
X511000D02*
X507579D01*
X507649Y127968D01*
X508047Y127007D01*
X508681Y126181D01*
X509507Y125547D01*
X510468Y125149D01*
X511000Y125079D01*
Y128500D01*
D02*
G37*
G36*
X460453Y126626D02*
X457000D01*
Y123370D01*
X460453D01*
Y126626D01*
D02*
G37*
G36*
X405000Y126563D02*
X401547D01*
Y123307D01*
X405000D01*
Y126563D01*
D02*
G37*
%LPD*%
G36*
X502427Y315363D02*
Y305889D01*
X501965Y305697D01*
X475578Y332085D01*
X475769Y332547D01*
X482953D01*
Y334184D01*
X483415Y334375D01*
X502427Y315363D01*
D02*
G37*
G36*
X657654Y166683D02*
X657406Y166224D01*
X656642Y166072D01*
X655914Y165586D01*
X655876Y165529D01*
X653000D01*
X652415Y165413D01*
X651919Y165081D01*
X623915Y137078D01*
X623453Y137269D01*
Y137874D01*
X619500D01*
X615547D01*
Y134618D01*
X615547Y134618D01*
Y134256D01*
X615547D01*
X615547Y134118D01*
Y131789D01*
X602569D01*
X602358Y132106D01*
X601961Y132371D01*
X601492Y132465D01*
X600663D01*
Y132866D01*
X600547Y133451D01*
X600215Y133948D01*
X599089Y135074D01*
X599281Y135536D01*
X601492D01*
X601961Y135629D01*
X602358Y135894D01*
X602623Y136291D01*
X602716Y136760D01*
Y138721D01*
X602623Y139189D01*
X602358Y139586D01*
X601961Y139852D01*
X601492Y139945D01*
X600663D01*
Y157307D01*
X602953D01*
Y164819D01*
X602953D01*
Y165181D01*
X602953D01*
Y167408D01*
X615547D01*
Y164681D01*
X615547D01*
Y164319D01*
X615547D01*
Y161063D01*
X623453D01*
Y164319D01*
X623453D01*
Y164681D01*
X623453D01*
Y172193D01*
X615547D01*
Y170466D01*
X602953D01*
Y172693D01*
X595047D01*
Y170466D01*
X579628D01*
X570624Y179471D01*
X570831Y179971D01*
X644367D01*
X657654Y166683D01*
D02*
G37*
G36*
X578088Y159453D02*
X577881Y158953D01*
X574937D01*
Y155500D01*
X578193D01*
Y158641D01*
X578693Y158848D01*
X581970Y155571D01*
Y147631D01*
X581995Y147505D01*
X581534Y147259D01*
X578062Y150731D01*
X578193Y151047D01*
X578193D01*
Y154500D01*
X574437D01*
Y155000D01*
X573937D01*
Y158953D01*
X570819D01*
X570681Y158953D01*
X570319D01*
X570181Y158953D01*
X564455D01*
X564307Y158982D01*
X557378D01*
X556453Y159907D01*
Y165118D01*
X556453Y165256D01*
Y165618D01*
X556453Y165756D01*
Y167845D01*
X569697D01*
X578088Y159453D01*
D02*
G37*
G36*
X540471Y205276D02*
Y197900D01*
X540587Y197315D01*
X540919Y196819D01*
X553795Y183942D01*
X553732Y183298D01*
X553414Y183086D01*
X552928Y182358D01*
X552761Y181521D01*
X552620Y181063D01*
X552600Y181043D01*
X551742Y180872D01*
X551014Y180386D01*
X550528Y179658D01*
X550357Y178800D01*
X550528Y177942D01*
X551014Y177214D01*
X551742Y176728D01*
X552600Y176557D01*
X553458Y176728D01*
X554186Y177214D01*
X554224Y177271D01*
X568498D01*
X577913Y167856D01*
X578409Y167524D01*
X578995Y167408D01*
X595047D01*
Y165181D01*
X595047D01*
Y164819D01*
X595047D01*
Y157307D01*
X597605D01*
Y139945D01*
X596776D01*
X596307Y139852D01*
X595910Y139586D01*
X595645Y139189D01*
X595551Y138721D01*
Y138395D01*
X595089Y138204D01*
X585029Y148264D01*
Y156204D01*
X584913Y156790D01*
X584581Y157286D01*
X571411Y170456D01*
X570915Y170787D01*
X570330Y170903D01*
X556453D01*
Y173130D01*
X548547D01*
Y170784D01*
X540790D01*
X540358Y171072D01*
X539500Y171243D01*
X538642Y171072D01*
X537914Y170586D01*
X537428Y169858D01*
X537257Y169000D01*
X537428Y168142D01*
X537914Y167414D01*
X538642Y166928D01*
X539500Y166757D01*
X540358Y166928D01*
X540790Y167216D01*
X548547D01*
Y165756D01*
X548547Y165618D01*
Y165256D01*
X548547Y165118D01*
Y159907D01*
X547999Y159359D01*
X544693D01*
Y160453D01*
X537319D01*
X537181Y160453D01*
X536819D01*
X536681Y160453D01*
X534529D01*
Y208376D01*
X534586Y208414D01*
X535072Y209142D01*
X535209Y209830D01*
X535706Y210040D01*
X540471Y205276D01*
D02*
G37*
%LPC*%
G36*
X623453Y160063D02*
X615547D01*
Y156807D01*
X617971D01*
Y152624D01*
X617914Y152586D01*
X617428Y151858D01*
X617356Y151500D01*
X621644D01*
X621572Y151858D01*
X621086Y152586D01*
X621029Y152624D01*
Y156807D01*
X623453D01*
Y160063D01*
D02*
G37*
G36*
X621644Y150500D02*
X617356D01*
X617428Y150142D01*
X617914Y149414D01*
X617971Y149376D01*
Y142130D01*
X615547D01*
Y138874D01*
X619500D01*
X623453D01*
Y142130D01*
X621029D01*
Y149376D01*
X621086Y149414D01*
X621572Y150142D01*
X621644Y150500D01*
D02*
G37*
%LPD*%
D16*
X399050Y194000D02*
D03*
X413950D02*
D03*
D22*
X461500Y190437D02*
D03*
X465240Y182563D02*
D03*
X457760D02*
D03*
D23*
X590866Y134000D02*
D03*
X599134Y137740D02*
D03*
Y130260D02*
D03*
D28*
X424500Y168500D02*
D03*
Y160350D02*
D03*
D29*
X496827Y257016D02*
D03*
Y254457D02*
D03*
Y251898D02*
D03*
Y249339D02*
D03*
Y246779D02*
D03*
Y244220D02*
D03*
Y241661D02*
D03*
Y239102D02*
D03*
Y236543D02*
D03*
Y233984D02*
D03*
X525173Y257016D02*
D03*
Y254457D02*
D03*
Y251898D02*
D03*
Y249339D02*
D03*
Y246779D02*
D03*
Y244220D02*
D03*
Y241661D02*
D03*
Y239102D02*
D03*
Y236543D02*
D03*
Y233984D02*
D03*
D30*
X511626Y213500D02*
D03*
X519500D02*
D03*
X442063Y233000D02*
D03*
X449937D02*
D03*
X403937Y246500D02*
D03*
X396063D02*
D03*
X404437Y226500D02*
D03*
X396563D02*
D03*
X457437Y212000D02*
D03*
X449563D02*
D03*
X566563Y155000D02*
D03*
X574437D02*
D03*
X533063Y156500D02*
D03*
X540937D02*
D03*
D31*
X405000Y166866D02*
D03*
Y175134D02*
D03*
X519500Y321866D02*
D03*
Y330134D02*
D03*
X539000Y321866D02*
D03*
Y330134D02*
D03*
X561000Y321866D02*
D03*
Y330134D02*
D03*
X582500Y321866D02*
D03*
Y330134D02*
D03*
X603500Y321866D02*
D03*
Y330134D02*
D03*
X626000Y322366D02*
D03*
Y330634D02*
D03*
X648500Y321866D02*
D03*
Y330134D02*
D03*
X671500Y321866D02*
D03*
Y330134D02*
D03*
D32*
X405000Y154937D02*
D03*
Y147063D02*
D03*
X405500Y127063D02*
D03*
Y134937D02*
D03*
X456500Y127126D02*
D03*
Y135000D02*
D03*
X429500Y127063D02*
D03*
Y134937D02*
D03*
X434000Y184063D02*
D03*
Y191937D02*
D03*
X671500Y304437D02*
D03*
Y296563D02*
D03*
X648500Y304437D02*
D03*
Y296563D02*
D03*
X626000Y304437D02*
D03*
Y296563D02*
D03*
X603500Y304937D02*
D03*
Y297063D02*
D03*
X582500Y304874D02*
D03*
Y297000D02*
D03*
X561110Y304874D02*
D03*
Y297000D02*
D03*
X539000Y304874D02*
D03*
Y297000D02*
D03*
X599000Y161063D02*
D03*
Y168937D02*
D03*
X519500Y304437D02*
D03*
Y296563D02*
D03*
X552500Y161500D02*
D03*
Y169374D02*
D03*
X619500Y168437D02*
D03*
Y160563D02*
D03*
Y130500D02*
D03*
Y138374D02*
D03*
D33*
X427520Y208260D02*
D03*
Y212000D02*
D03*
Y215740D02*
D03*
X417480D02*
D03*
Y212000D02*
D03*
Y208260D02*
D03*
D34*
X525173Y249339D02*
X586161D01*
X601000Y234500D02*
X624000D01*
X586161Y249339D02*
X601000Y234500D01*
X399050Y185950D02*
Y194000D01*
X542000Y228500D02*
X551000Y219500D01*
X563914Y207914D02*
X566500Y210500D01*
X567328Y204500D02*
X672000D01*
X551000Y219500D02*
X552328D01*
X563914Y207914D01*
X567328Y204500D01*
X402000Y183000D02*
X405000Y180000D01*
X399050Y185950D02*
X402000Y183000D01*
X671500Y330134D02*
Y334000D01*
X648500Y330134D02*
Y334000D01*
X626000Y330634D02*
Y334500D01*
X603500Y330134D02*
Y334500D01*
X582500Y330134D02*
Y334500D01*
X561000Y333500D02*
X561086Y333586D01*
X561000Y334500D02*
X561086Y334414D01*
Y333586D02*
Y334414D01*
X561000Y330134D02*
Y333500D01*
X539000Y330134D02*
Y334500D01*
X519500Y330134D02*
Y334500D01*
X574437Y152193D02*
X582138Y144492D01*
X574437Y152193D02*
Y154803D01*
X582138Y144492D02*
X589008Y137622D01*
X589689Y134000D02*
X590866D01*
X589008Y134681D02*
X589689Y134000D01*
X589008Y134681D02*
Y137622D01*
X583500Y147631D02*
X596071Y135059D01*
X583500Y147631D02*
Y156204D01*
X427847Y211672D02*
X431328D01*
X429500Y127063D02*
X443284D01*
X455311D01*
X455874Y126500D01*
X429437Y127000D02*
X429500Y127063D01*
X416500Y127000D02*
X429437D01*
X405500Y127063D02*
X405563Y127000D01*
X416500D01*
X619500Y138374D02*
Y160563D01*
X405000Y175134D02*
Y180000D01*
X455874Y126500D02*
X456500Y127126D01*
X511250Y129250D02*
X511500Y129000D01*
X645000Y181500D02*
X671250Y155250D01*
X555000Y181500D02*
X645000D01*
X542000Y197900D02*
Y205909D01*
X530409Y217500D02*
X542000Y205909D01*
X604000Y229000D02*
Y230000D01*
X600000Y225000D02*
X604000Y229000D01*
X643500Y249000D02*
X649000D01*
X639000Y244500D02*
X643500Y249000D01*
X542000Y197900D02*
X555200Y184700D01*
X533000Y156563D02*
Y210000D01*
X525173Y219370D02*
Y233984D01*
X519500Y213697D02*
X525173Y219370D01*
X533000Y156563D02*
X533063Y156500D01*
X519500Y213500D02*
Y213697D01*
X530000Y224000D02*
X560000Y194000D01*
X653000Y164000D02*
X657500D01*
X619500Y130500D02*
X653000Y164000D01*
X403874Y246563D02*
X403937Y246500D01*
X479000Y336500D02*
X483453D01*
X503957Y315996D01*
Y275673D02*
Y315996D01*
Y275673D02*
X522614Y257016D01*
X525173D01*
X469000Y336500D02*
X501957Y303543D01*
Y255043D02*
Y303543D01*
X496827Y254457D02*
X501371D01*
X501957Y255043D01*
X399000Y336500D02*
X478484Y257016D01*
X496827D01*
X531000Y154437D02*
X533063Y156500D01*
X531000Y131500D02*
Y154437D01*
X540937Y156500D02*
X542267Y157830D01*
X548633D01*
X552303Y161500D02*
X552500D01*
X548633Y157830D02*
X552303Y161500D01*
X566563Y155000D02*
Y155197D01*
X564307Y157453D02*
X566563Y155197D01*
X556744Y157453D02*
X564307D01*
X552697Y161500D02*
X556744Y157453D01*
X596941Y135059D02*
X599134Y132866D01*
X596071Y135059D02*
X596941D01*
X570330Y169374D02*
X583500Y156204D01*
X552500Y169374D02*
X570330D01*
X604000Y271500D02*
Y296563D01*
X603500Y297063D02*
X604000Y296563D01*
X649500Y271000D02*
Y295563D01*
X648500Y296563D02*
X649500Y295563D01*
X625500Y271000D02*
Y296063D01*
X583000Y269500D02*
Y294500D01*
X582500Y295000D02*
X583000Y294500D01*
X561500Y272500D02*
Y295610D01*
X562000Y296110D01*
X582500Y295000D02*
X583500Y296000D01*
X582500Y297000D02*
X583500Y296000D01*
X561110Y297000D02*
X562000Y296110D01*
X539500Y280500D02*
Y296500D01*
X519000Y271500D02*
Y296063D01*
X491500Y235109D02*
X492761Y236370D01*
X496654D02*
X496827Y236543D01*
Y239102D02*
X497000Y238929D01*
X500893D01*
X501772Y238051D01*
X497000Y244047D02*
X500953D01*
X496827Y244220D02*
X497000Y244047D01*
X497000Y246606D02*
X501222D01*
X496827Y246779D02*
X497000Y246606D01*
X497000Y249165D02*
X501491D01*
X496827Y249339D02*
X497000Y249165D01*
X509921Y229200D02*
X510300D01*
X509000Y229939D02*
X509182D01*
X509921Y229200D01*
X507654Y226700D02*
X507854D01*
X506500Y227854D02*
X507654Y226700D01*
X525173Y239102D02*
X525347Y239276D01*
X525173Y251898D02*
X525276Y252000D01*
X525205Y252071D02*
X525276Y252000D01*
X521107Y252071D02*
X525205D01*
X536578Y236543D02*
X537121Y236000D01*
X537500D01*
X509000Y229939D02*
Y241657D01*
X504500Y225000D02*
Y240500D01*
X506500Y227854D02*
Y241328D01*
X519000Y221000D02*
Y240433D01*
X491500Y129000D02*
Y235109D01*
X501772Y129272D02*
Y238051D01*
X505063Y213500D02*
X511626D01*
X496000Y233598D02*
X496386Y233984D01*
X496827D01*
X492761Y236370D02*
X496654D01*
X500953Y244047D02*
X504500Y240500D01*
X501222Y246606D02*
X506500Y241328D01*
X525173Y236543D02*
X536578D01*
X520228Y241661D02*
X525173D01*
X501491Y249165D02*
X509000Y241657D01*
X519000Y240433D02*
X520228Y241661D01*
X496000Y226000D02*
Y233598D01*
X462339Y241661D02*
X496827D01*
X462602Y251898D02*
X496827D01*
X509000Y264178D02*
X521107Y252071D01*
X525347Y239276D02*
X549776D01*
X525173Y244220D02*
X554280D01*
X525173Y246779D02*
X558720D01*
X525173Y254457D02*
X671957D01*
X525173Y251898D02*
X596102D01*
X408000Y306500D02*
X462602Y251898D01*
X417000Y287000D02*
X462339Y241661D01*
X554280Y244220D02*
X581500Y217000D01*
X558720Y246779D02*
X581000Y224500D01*
X596102Y251898D02*
X603500Y244500D01*
X501500Y129000D02*
X501772Y129272D01*
X671957Y254457D02*
X672000Y254500D01*
X549776Y239276D02*
X550000Y239500D01*
X603500Y244500D02*
X639000D01*
X581000Y224500D02*
X600000D01*
X672000Y254500D02*
Y296063D01*
X671500Y296563D02*
X672000Y296063D01*
X519000D02*
X519500Y296563D01*
X539000Y297000D02*
X539500Y296500D01*
X440780Y151552D02*
X457760Y168531D01*
Y182563D01*
X435697Y190437D02*
X461500D01*
X434000Y192134D02*
X435697Y190437D01*
X429433Y151552D02*
X440780D01*
X519500Y304437D02*
Y321866D01*
X539000Y304874D02*
Y321866D01*
X561110Y304874D02*
Y321756D01*
X561000Y321866D02*
X561110Y321756D01*
X582500Y304874D02*
Y321866D01*
X603500Y304937D02*
Y321866D01*
X671500Y304437D02*
Y321866D01*
X648500Y304437D02*
Y321866D01*
X626000Y304437D02*
Y322366D01*
X625500Y296063D02*
X626000Y296563D01*
X625500Y236621D02*
Y237000D01*
X624000Y235121D02*
X625500Y236621D01*
X624000Y234500D02*
Y235121D01*
X581500Y217000D02*
X584000Y214500D01*
X583121Y218500D02*
X583500D01*
X581621Y217000D02*
X583121Y218500D01*
X581500Y217000D02*
X581621D01*
X552600Y178800D02*
X569132D01*
X578995Y168937D02*
X619000D01*
X619500Y168437D01*
X599000Y161063D02*
X599134Y160929D01*
Y137740D02*
Y160929D01*
X569132Y178800D02*
X578995Y168937D01*
X671800Y184700D02*
X672000Y184500D01*
X555200Y184700D02*
X671800D01*
X600000Y224500D02*
Y225000D01*
X584000Y214500D02*
X672000D01*
X560000Y194000D02*
X671500D01*
X560000D02*
X563000Y197000D01*
X555200Y184700D02*
X559000Y188500D01*
X600000Y224500D02*
X672000D01*
X671500Y194000D02*
X672000Y194500D01*
X429433Y135004D02*
X429500Y134937D01*
X521500Y129000D02*
Y130327D01*
X599134Y130260D02*
Y132866D01*
X434000Y192134D02*
Y202272D01*
Y191937D02*
Y192134D01*
X428012Y208260D02*
X434000Y202272D01*
X427520Y208260D02*
X428012D01*
X624000Y234500D02*
X672000D01*
X639000Y244500D02*
X672000D01*
X599134Y130260D02*
X619260D01*
X619500Y130500D01*
D35*
X424500Y160350D02*
X426213D01*
X428120Y158443D01*
Y152865D02*
Y158443D01*
Y152865D02*
X429433Y151552D01*
X424500Y168500D02*
X434000Y178000D01*
X414450Y176837D02*
Y193500D01*
Y176837D02*
X422787Y168500D01*
X424500D01*
X434000Y178000D02*
Y184063D01*
X508000Y204000D02*
X508244D01*
X508743Y203500D01*
X519924D01*
X574437Y154803D02*
Y155000D01*
X427520Y212000D02*
X427847Y211672D01*
X431328D02*
X431500Y211500D01*
X436500Y233000D02*
X442063D01*
X389500Y275500D02*
X403874Y261126D01*
X521365Y130327D02*
X521500D01*
X429500Y134937D02*
X456634D01*
X389500Y265500D02*
X396000Y259000D01*
Y246563D02*
Y259000D01*
Y246563D02*
X396063Y246500D01*
X403874Y246563D02*
Y261126D01*
X519500Y213500D02*
X519924Y213076D01*
Y203500D02*
Y213076D01*
Y132081D02*
Y203500D01*
X479500D02*
X486500D01*
X477000Y155500D02*
Y201000D01*
X457461Y211976D02*
X466024D01*
X477000Y201000D01*
X477000D01*
X519924Y132081D02*
X519985Y132020D01*
Y131707D02*
Y132020D01*
Y131707D02*
X521365Y130327D01*
X477000Y201000D02*
X479500Y203500D01*
X552126Y169000D02*
X552500Y169374D01*
X539500Y169000D02*
X552126D01*
X458703Y137203D02*
X477000Y155500D01*
X457437Y212000D02*
X457461Y211976D01*
X456634Y134937D02*
X458703Y137006D01*
Y137203D01*
X429433Y135004D02*
Y151552D01*
X405500Y134937D02*
Y146563D01*
X405000Y147063D02*
X405500Y146563D01*
Y134937D02*
X429500D01*
X396366Y226500D02*
X398569Y224297D01*
Y223630D02*
Y224297D01*
Y223630D02*
X410199Y212000D01*
X417480D01*
X396000Y227063D02*
Y246437D01*
Y227063D02*
X396563Y226500D01*
X396000Y246437D02*
X396063Y246500D01*
X404437Y221297D02*
Y226500D01*
Y221297D02*
X407049Y218685D01*
X414043D01*
X416655Y216073D01*
X417148D01*
X417480Y215740D01*
X413950Y194000D02*
X414880D01*
X417480Y196600D01*
Y208260D01*
X405000Y154937D02*
Y166866D01*
X449563Y212000D02*
X450063Y212500D01*
Y232874D01*
X449937Y233000D02*
X450063Y232874D01*
X427520Y215740D02*
X446020D01*
X449563Y212197D01*
Y212000D02*
Y212197D01*
D36*
X673000Y163500D02*
D03*
Y153500D02*
D03*
X389500Y265500D02*
D03*
X521500Y129000D02*
D03*
X511500D02*
D03*
X501500D02*
D03*
X491500D02*
D03*
X672000Y254500D02*
D03*
Y244500D02*
D03*
Y234500D02*
D03*
Y224500D02*
D03*
Y214500D02*
D03*
Y204500D02*
D03*
Y194500D02*
D03*
X469000Y336500D02*
D03*
X459000D02*
D03*
X439000D02*
D03*
X429000D02*
D03*
X419000D02*
D03*
X409000D02*
D03*
D37*
X673000Y143500D02*
D03*
X389500Y275500D02*
D03*
X672000Y184500D02*
D03*
D38*
X531500Y129000D02*
D03*
X479000Y336500D02*
D03*
X399000D02*
D03*
D39*
X390415Y159043D02*
D03*
X387915Y210043D02*
D03*
X391415Y290043D02*
D03*
X389415Y323543D02*
D03*
X512415Y249043D02*
D03*
X496415Y192543D02*
D03*
X495797Y209868D02*
D03*
X515301Y199657D02*
D03*
X526415Y171543D02*
D03*
X526233Y196043D02*
D03*
X546915Y229043D02*
D03*
X572415Y217043D02*
D03*
X661415Y298543D02*
D03*
Y258543D02*
D03*
Y218543D02*
D03*
Y178543D02*
D03*
Y138543D02*
D03*
X641415Y298543D02*
D03*
Y258543D02*
D03*
X651415Y238543D02*
D03*
X641415Y218543D02*
D03*
X651415Y198543D02*
D03*
X641415Y178543D02*
D03*
Y138543D02*
D03*
X631415Y318543D02*
D03*
Y278543D02*
D03*
X621415Y258543D02*
D03*
X631415Y238543D02*
D03*
X621415Y218543D02*
D03*
X631415Y198543D02*
D03*
X621415Y178543D02*
D03*
X631415Y158543D02*
D03*
X611415Y318543D02*
D03*
Y278543D02*
D03*
Y238543D02*
D03*
X601415Y218543D02*
D03*
X611415Y198543D02*
D03*
X601415Y178543D02*
D03*
X611415Y158543D02*
D03*
X591415Y318543D02*
D03*
Y278543D02*
D03*
Y238543D02*
D03*
Y198543D02*
D03*
X581415Y178543D02*
D03*
X591415Y158543D02*
D03*
X581415Y138543D02*
D03*
X571415Y318543D02*
D03*
Y278543D02*
D03*
Y238543D02*
D03*
Y198543D02*
D03*
X561415Y138543D02*
D03*
X551415Y318543D02*
D03*
Y278543D02*
D03*
X541415Y258543D02*
D03*
Y218543D02*
D03*
Y178543D02*
D03*
Y138543D02*
D03*
X531415Y318543D02*
D03*
Y278543D02*
D03*
X511415Y318543D02*
D03*
Y278543D02*
D03*
Y158543D02*
D03*
X491415Y318543D02*
D03*
X481415Y298543D02*
D03*
X491415Y278543D02*
D03*
X481415Y218543D02*
D03*
Y178543D02*
D03*
Y138543D02*
D03*
X471415Y318543D02*
D03*
X461415Y298543D02*
D03*
X471415Y278543D02*
D03*
X461415Y258543D02*
D03*
X471415Y238543D02*
D03*
X461415Y218543D02*
D03*
X471415Y198543D02*
D03*
X461415Y178543D02*
D03*
X471415Y158543D02*
D03*
X451415Y318543D02*
D03*
X441415Y298543D02*
D03*
X451415Y278543D02*
D03*
X441415Y258543D02*
D03*
X451415Y238543D02*
D03*
Y198543D02*
D03*
X441415Y178543D02*
D03*
Y138543D02*
D03*
X431415Y318543D02*
D03*
Y278543D02*
D03*
X421415Y258543D02*
D03*
X431415Y238543D02*
D03*
X421415Y218543D02*
D03*
Y178543D02*
D03*
X431415Y158543D02*
D03*
X421415Y138543D02*
D03*
X401415Y298543D02*
D03*
X411415Y278543D02*
D03*
Y238543D02*
D03*
Y158543D02*
D03*
X520500Y175000D02*
D03*
X508000Y204000D02*
D03*
X671500Y334000D02*
D03*
X648500D02*
D03*
X626000Y334500D02*
D03*
X603500D02*
D03*
X582500D02*
D03*
X561000D02*
D03*
X539000D02*
D03*
X519500D02*
D03*
X619500Y151000D02*
D03*
X582138Y144492D02*
D03*
X431500Y211500D02*
D03*
X436500Y233000D02*
D03*
X443284Y127063D02*
D03*
X402000Y183000D02*
D03*
X416500Y127000D02*
D03*
X566500Y210500D02*
D03*
X604000Y230000D02*
D03*
X649000Y249000D02*
D03*
X530409Y217500D02*
D03*
X533000Y210000D02*
D03*
X530000Y224000D02*
D03*
X657500Y164000D02*
D03*
X649500Y271000D02*
D03*
X625500D02*
D03*
X604000Y271500D02*
D03*
X583000Y269500D02*
D03*
X561500Y272500D02*
D03*
X539500Y280500D02*
D03*
X519000Y271500D02*
D03*
X510300Y229200D02*
D03*
X507854Y226700D02*
D03*
X486500Y203500D02*
D03*
X504563Y213500D02*
D03*
X496000Y226000D02*
D03*
X519000Y221000D02*
D03*
X537500Y236000D02*
D03*
X505500Y224000D02*
D03*
X542000Y228500D02*
D03*
X550000Y239500D02*
D03*
X539500Y169000D02*
D03*
X625500Y237000D02*
D03*
X583500Y218500D02*
D03*
X552600Y178800D02*
D03*
X563000Y197000D02*
D03*
X559000Y188500D02*
D03*
X555000Y181500D02*
D03*
X509000Y264000D02*
D03*
X417000Y287000D02*
D03*
X407500Y306000D02*
D03*
M02*
