M48
;Layer_Color=9474304
;FILE_FORMAT=2:4
INCH,TZ
;TYPE=PLATED
T1F00S00C0.0120
T2F00S00C0.0354
%
T01
X41650Y12700
X42141Y13854
X44142
X44328Y12706
X48141Y13854
X54142
X56142
X58141
X58214Y14449
X61950Y15100
X64142Y13854
X66142
X65750Y16400
X66142Y17854
X64142
X65142Y19854
X63141
X64142Y21854
X66142
X65142Y23854
X64900Y24900
X64142Y25854
X66142
X64950Y27100
X62550
X63141Y27854
X64142Y29854
X66142
X63141Y23854
X62550Y23700
X63141Y15854
X61142
X59142
X60142Y17854
X62141
X61142Y19854
X59142
X57141
X56300Y19700
X55900Y18850
X55500Y18150
X55260Y17880
X54142Y17854
X53950Y16900
X52642Y17154
X52050Y17500
X51142Y15854
X47141
X48141Y17854
X49641Y19254
X49580Y20987
X50456Y21350
X50550Y22400
X50785Y22670
X51030Y22920
X51900Y22100
X53000Y22400
X53041Y21750
X53300Y21000
X54142Y21854
X54200Y22850
X54692Y22904
X55000Y23950
X53750Y23600
X54142Y25854
X53950Y28050
X53141Y27854
X51900Y27150
X51142Y27854
X50900Y26400
X51241Y24904
X49600Y22600
X48141Y21854
X48650Y20350
X47141Y19854
Y23854
Y27854
X49142
X48141Y29854
X55142Y27854
X56150Y27250
X57141Y27854
X59142
X58300Y26950
X60400Y27150
X61142Y27854
X62141Y25854
X61142Y23854
X60400Y23000
X60142Y21854
X58350Y21850
X57242Y21704
X56650Y21050
X57141Y23854
X59142
X62141Y21854
X58141Y17854
X52623Y19604
X51530Y19966
X50800Y20400
X46142Y21854
X45142Y23854
X43141
X43650Y23300
X43150Y21150
X42141Y21854
X41142Y23854
X42141Y25854
X44142
X46142
X45142Y27854
X43141
X41142
X41700Y28700
X40142Y29854
X40750Y30600
X39141Y29004
X44142Y29854
X46142
X45142Y19854
X46142Y17854
X44142
X42141
X40200Y18300
X41142Y15854
X43141
X39042Y15904
X38791Y21004
X38942Y32354
X43141Y31854
X45142
X47141
X49142
X51142
X53141
X55142
X57141
X59142
X61142
X60350Y33450
X58250
X56100
X53900
X51950
X62600
X63141Y31854
X64850Y33400
X67150
T02
X49150Y12900
X50150
X51150
X52150
X53150
X67300Y14350
Y15350
Y16350
X67200Y18450
Y19450
Y20450
Y21450
Y22450
Y23450
Y24450
Y25450
X38950Y26550
Y27550
X39900Y33650
X40900
X41900
X42900
X43900
X45900
X46900
X47900
M30
