G04*
G04 #@! TF.GenerationSoftware,Altium Limited,Altium Designer,21.6.4 (81)*
G04*
G04 Layer_Color=8388736*
%FSLAX25Y25*%
%MOIN*%
G70*
G04*
G04 #@! TF.SameCoordinates,EA33D638-3998-4E8D-B273-0A36DB5C1B2A*
G04*
G04*
G04 #@! TF.FilePolarity,Negative*
G04*
G01*
G75*
%ADD15R,0.21300X0.11400*%
%ADD16R,0.01775X0.04375*%
%ADD27R,0.10600X0.10600*%
%ADD28R,0.01200X0.03200*%
%ADD29R,0.03200X0.01200*%
%ADD31R,0.02800X0.05900*%
%ADD32R,0.05900X0.02800*%
G04:AMPARAMS|DCode=34|XSize=51.18mil|YSize=23.62mil|CornerRadius=2.01mil|HoleSize=0mil|Usage=FLASHONLY|Rotation=90.000|XOffset=0mil|YOffset=0mil|HoleType=Round|Shape=RoundedRectangle|*
%AMROUNDEDRECTD34*
21,1,0.05118,0.01961,0,0,90.0*
21,1,0.04717,0.02362,0,0,90.0*
1,1,0.00402,0.00980,0.02358*
1,1,0.00402,0.00980,-0.02358*
1,1,0.00402,-0.00980,-0.02358*
1,1,0.00402,-0.00980,0.02358*
%
%ADD34ROUNDEDRECTD34*%
%ADD35R,0.02264X0.01378*%
%ADD36R,0.01378X0.02264*%
%ADD60R,0.01000X0.04200*%
%ADD61R,0.04200X0.01000*%
%ADD82R,0.03900X0.06100*%
%ADD84R,0.04375X0.01775*%
%ADD96R,0.01378X0.02264*%
%ADD97R,0.02264X0.01378*%
G04:AMPARAMS|DCode=98|XSize=51.18mil|YSize=23.62mil|CornerRadius=2.01mil|HoleSize=0mil|Usage=FLASHONLY|Rotation=0.000|XOffset=0mil|YOffset=0mil|HoleType=Round|Shape=RoundedRectangle|*
%AMROUNDEDRECTD98*
21,1,0.05118,0.01961,0,0,0.0*
21,1,0.04717,0.02362,0,0,0.0*
1,1,0.00402,0.02358,-0.00980*
1,1,0.00402,-0.02358,-0.00980*
1,1,0.00402,-0.02358,0.00980*
1,1,0.00402,0.02358,0.00980*
%
%ADD98ROUNDEDRECTD98*%
%ADD99R,0.04134X0.08661*%
%ADD100R,0.03937X0.04134*%
%ADD101R,0.03937X0.17953*%
%ADD102R,0.03347X0.17953*%
%ADD112C,0.08800*%
%ADD114C,0.06000*%
%ADD155R,0.13000X0.16500*%
%ADD156R,0.10000X0.07500*%
%ADD157R,0.08000X0.04000*%
%ADD158R,0.05000X0.10000*%
%ADD159R,0.11000X0.05500*%
%ADD160R,0.03000X0.12000*%
%ADD161R,0.19500X0.19500*%
%ADD162R,0.20500X0.20500*%
%ADD163R,0.16500X0.10000*%
%ADD164R,0.15500X0.16000*%
%ADD165R,0.18500X0.06000*%
%ADD166R,0.06000X0.18500*%
%ADD167R,0.19500X0.05500*%
%ADD168R,0.06500X0.18500*%
%ADD169R,0.13000X0.15000*%
%ADD170R,1.61500X0.44500*%
%ADD171R,0.06000X0.04200*%
%ADD172R,0.00500X0.02000*%
%ADD173R,0.03400X0.01000*%
%ADD174R,0.27000X0.19000*%
%ADD175R,0.19000X0.27000*%
%ADD176R,0.06000X0.08000*%
%ADD177R,0.03500X0.08000*%
%ADD178R,0.06000X0.03000*%
%ADD179R,0.19000X0.12000*%
%ADD180R,0.11000X0.19000*%
%ADD181R,0.27000X0.18000*%
%ADD182R,0.18000X0.27000*%
%ADD183R,0.23000X0.17000*%
%ADD184R,0.17000X0.23000*%
%ADD185R,0.02559X0.02953*%
%ADD186R,0.06890X0.03937*%
%ADD187R,0.02953X0.02559*%
%ADD188R,0.04665X0.03307*%
%ADD189R,0.02106X0.03307*%
%ADD190O,0.02762X0.06109*%
%ADD191R,0.04591X0.01791*%
%ADD192R,0.01791X0.04591*%
%ADD193R,0.17091X0.17091*%
%ADD194O,0.02953X0.01535*%
%ADD195O,0.01535X0.02953*%
%ADD196R,0.08661X0.08661*%
%ADD197R,0.03937X0.01693*%
%ADD198R,0.01693X0.03937*%
%ADD199R,0.10236X0.10236*%
%ADD200R,0.06496X0.06102*%
%ADD201R,0.06102X0.06496*%
%ADD202R,0.04921X0.03150*%
%ADD203O,0.02953X0.08465*%
%ADD204R,0.03937X0.01968*%
%ADD205R,0.06890X0.10039*%
%ADD206R,0.03740X0.04134*%
%ADD207R,0.04134X0.03740*%
%ADD208R,0.07284X0.04921*%
%ADD209R,0.06299X0.02953*%
%ADD210R,0.02191X0.04491*%
%ADD211R,0.04491X0.02191*%
%ADD212R,0.14091X0.10091*%
%ADD213R,0.30891X0.40591*%
%ADD214R,0.02559X0.40591*%
%ADD215R,0.04921X0.10827*%
%ADD216R,0.06693X0.05709*%
%ADD217R,0.00100X0.00100*%
%ADD218C,0.02362*%
%ADD219O,0.01575X0.03740*%
%ADD220O,0.03740X0.01575*%
%ADD221R,0.17520X0.17520*%
%ADD222R,0.03583X0.07087*%
%ADD223O,0.03150X0.02362*%
%ADD224R,0.13976X0.16339*%
%ADD225R,0.18701X0.18701*%
%ADD226O,0.04331X0.01378*%
%ADD227O,0.01378X0.04331*%
%ADD228R,0.02591X0.02591*%
%ADD229R,0.02284X0.02815*%
%ADD230R,0.01496X0.02815*%
%ADD231R,0.02815X0.01496*%
%ADD232R,0.02815X0.02284*%
%ADD233R,0.06496X0.06496*%
%ADD234O,0.04134X0.01575*%
%ADD235O,0.01575X0.04134*%
%ADD236R,0.03976X0.06221*%
%ADD237O,0.02165X0.01772*%
%ADD238O,0.06109X0.02762*%
G04:AMPARAMS|DCode=239|XSize=33.53mil|YSize=16.2mil|CornerRadius=3.95mil|HoleSize=0mil|Usage=FLASHONLY|Rotation=0.000|XOffset=0mil|YOffset=0mil|HoleType=Round|Shape=RoundedRectangle|*
%AMROUNDEDRECTD239*
21,1,0.03353,0.00830,0,0,0.0*
21,1,0.02562,0.01620,0,0,0.0*
1,1,0.00791,0.01281,-0.00415*
1,1,0.00791,-0.01281,-0.00415*
1,1,0.00791,-0.01281,0.00415*
1,1,0.00791,0.01281,0.00415*
%
%ADD239ROUNDEDRECTD239*%
G04:AMPARAMS|DCode=240|XSize=169.35mil|YSize=19.75mil|CornerRadius=3.97mil|HoleSize=0mil|Usage=FLASHONLY|Rotation=0.000|XOffset=0mil|YOffset=0mil|HoleType=Round|Shape=RoundedRectangle|*
%AMROUNDEDRECTD240*
21,1,0.16935,0.01181,0,0,0.0*
21,1,0.16142,0.01975,0,0,0.0*
1,1,0.00794,0.08071,-0.00591*
1,1,0.00794,-0.08071,-0.00591*
1,1,0.00794,-0.08071,0.00591*
1,1,0.00794,0.08071,0.00591*
%
%ADD240ROUNDEDRECTD240*%
G04:AMPARAMS|DCode=241|XSize=13.84mil|YSize=23.68mil|CornerRadius=3.97mil|HoleSize=0mil|Usage=FLASHONLY|Rotation=90.000|XOffset=0mil|YOffset=0mil|HoleType=Round|Shape=RoundedRectangle|*
%AMROUNDEDRECTD241*
21,1,0.01384,0.01575,0,0,90.0*
21,1,0.00591,0.02368,0,0,90.0*
1,1,0.00794,0.00787,0.00295*
1,1,0.00794,0.00787,-0.00295*
1,1,0.00794,-0.00787,-0.00295*
1,1,0.00794,-0.00787,0.00295*
%
%ADD241ROUNDEDRECTD241*%
G04:AMPARAMS|DCode=242|XSize=13.84mil|YSize=23.68mil|CornerRadius=3.97mil|HoleSize=0mil|Usage=FLASHONLY|Rotation=0.000|XOffset=0mil|YOffset=0mil|HoleType=Round|Shape=RoundedRectangle|*
%AMROUNDEDRECTD242*
21,1,0.01384,0.01575,0,0,0.0*
21,1,0.00591,0.02368,0,0,0.0*
1,1,0.00794,0.00295,-0.00787*
1,1,0.00794,-0.00295,-0.00787*
1,1,0.00794,-0.00295,0.00787*
1,1,0.00794,0.00295,0.00787*
%
%ADD242ROUNDEDRECTD242*%
G04:AMPARAMS|DCode=243|XSize=13.84mil|YSize=47.31mil|CornerRadius=3.97mil|HoleSize=0mil|Usage=FLASHONLY|Rotation=0.000|XOffset=0mil|YOffset=0mil|HoleType=Round|Shape=RoundedRectangle|*
%AMROUNDEDRECTD243*
21,1,0.01384,0.03937,0,0,0.0*
21,1,0.00591,0.04731,0,0,0.0*
1,1,0.00794,0.00295,-0.01968*
1,1,0.00794,-0.00295,-0.01968*
1,1,0.00794,-0.00295,0.01968*
1,1,0.00794,0.00295,0.01968*
%
%ADD243ROUNDEDRECTD243*%
G04:AMPARAMS|DCode=244|XSize=169.35mil|YSize=113.84mil|CornerRadius=4.2mil|HoleSize=0mil|Usage=FLASHONLY|Rotation=0.000|XOffset=0mil|YOffset=0mil|HoleType=Round|Shape=RoundedRectangle|*
%AMROUNDEDRECTD244*
21,1,0.16935,0.10545,0,0,0.0*
21,1,0.16096,0.11384,0,0,0.0*
1,1,0.00839,0.08048,-0.05272*
1,1,0.00839,-0.08048,-0.05272*
1,1,0.00839,-0.08048,0.05272*
1,1,0.00839,0.08048,0.05272*
%
%ADD244ROUNDEDRECTD244*%
%ADD245R,0.03504X0.11575*%
%ADD246R,0.03543X0.03347*%
%ADD247R,0.08491X0.05291*%
%ADD248O,0.08465X0.02953*%
%ADD249R,0.09646X0.09646*%
%ADD250R,0.02591X0.02591*%
%ADD251R,0.10827X0.04921*%
%ADD252C,0.13591*%
%ADD253C,0.05591*%
%ADD254C,0.06496*%
%ADD255R,0.06496X0.06496*%
%ADD256C,0.07991*%
%ADD257C,0.05091*%
G36*
X731101Y325763D02*
X731493Y325502D01*
X731754Y325110D01*
X731846Y324648D01*
X731754Y324186D01*
X731493Y323794D01*
X731101Y323532D01*
X730639Y323440D01*
X730177Y323532D01*
X729785Y323794D01*
X729523Y324186D01*
X729431Y324648D01*
X729523Y325110D01*
X729785Y325502D01*
X730177Y325763D01*
X730639Y325855D01*
X731101Y325763D01*
D02*
G37*
G36*
X734152Y322712D02*
X734544Y322450D01*
X734806Y322059D01*
X734898Y321597D01*
X734806Y321134D01*
X734544Y320743D01*
X734152Y320481D01*
X733690Y320389D01*
X733228Y320481D01*
X732836Y320743D01*
X732575Y321134D01*
X732483Y321597D01*
X732575Y322059D01*
X732836Y322450D01*
X733228Y322712D01*
X733690Y322804D01*
X734152Y322712D01*
D02*
G37*
G36*
X728050D02*
X728442Y322450D01*
X728703Y322059D01*
X728795Y321597D01*
X728703Y321134D01*
X728442Y320743D01*
X728050Y320481D01*
X727588Y320389D01*
X727126Y320481D01*
X726734Y320743D01*
X726472Y321134D01*
X726380Y321597D01*
X726472Y322059D01*
X726734Y322450D01*
X727126Y322712D01*
X727588Y322804D01*
X728050Y322712D01*
D02*
G37*
G36*
X731101Y319661D02*
X731493Y319399D01*
X731754Y319007D01*
X731846Y318545D01*
X731754Y318083D01*
X731493Y317692D01*
X731101Y317430D01*
X730639Y317338D01*
X730177Y317430D01*
X729785Y317692D01*
X729523Y318083D01*
X729431Y318545D01*
X729523Y319007D01*
X729785Y319399D01*
X730177Y319661D01*
X730639Y319753D01*
X731101Y319661D01*
D02*
G37*
G36*
X846160Y315720D02*
X846552Y315459D01*
X846814Y315067D01*
X846906Y314605D01*
X846814Y314143D01*
X846552Y313751D01*
X846160Y313489D01*
X845698Y313397D01*
X845236Y313489D01*
X844845Y313751D01*
X844583Y314143D01*
X844491Y314605D01*
X844583Y315067D01*
X844845Y315459D01*
X845236Y315720D01*
X845698Y315812D01*
X846160Y315720D01*
D02*
G37*
G36*
X707093Y314763D02*
X707485Y314502D01*
X707747Y314110D01*
X707839Y313648D01*
X707747Y313186D01*
X707485Y312794D01*
X707093Y312532D01*
X706631Y312440D01*
X706169Y312532D01*
X705777Y312794D01*
X705516Y313186D01*
X705424Y313648D01*
X705516Y314110D01*
X705777Y314502D01*
X706169Y314763D01*
X706631Y314855D01*
X707093Y314763D01*
D02*
G37*
G36*
X849212Y312669D02*
X849603Y312407D01*
X849865Y312016D01*
X849957Y311554D01*
X849865Y311092D01*
X849603Y310700D01*
X849212Y310438D01*
X848750Y310346D01*
X848287Y310438D01*
X847896Y310700D01*
X847634Y311092D01*
X847542Y311554D01*
X847634Y312016D01*
X847896Y312407D01*
X848287Y312669D01*
X848750Y312761D01*
X849212Y312669D01*
D02*
G37*
G36*
X843109D02*
X843501Y312407D01*
X843763Y312016D01*
X843855Y311554D01*
X843763Y311092D01*
X843501Y310700D01*
X843109Y310438D01*
X842647Y310346D01*
X842185Y310438D01*
X841793Y310700D01*
X841532Y311092D01*
X841440Y311554D01*
X841532Y312016D01*
X841793Y312407D01*
X842185Y312669D01*
X842647Y312761D01*
X843109Y312669D01*
D02*
G37*
G36*
X710144Y311712D02*
X710536Y311450D01*
X710798Y311059D01*
X710890Y310597D01*
X710798Y310135D01*
X710536Y309743D01*
X710144Y309481D01*
X709682Y309389D01*
X709220Y309481D01*
X708828Y309743D01*
X708567Y310135D01*
X708475Y310597D01*
X708567Y311059D01*
X708828Y311450D01*
X709220Y311712D01*
X709682Y311804D01*
X710144Y311712D01*
D02*
G37*
G36*
X704042D02*
X704434Y311450D01*
X704696Y311059D01*
X704787Y310597D01*
X704696Y310135D01*
X704434Y309743D01*
X704042Y309481D01*
X703580Y309389D01*
X703118Y309481D01*
X702726Y309743D01*
X702464Y310135D01*
X702373Y310597D01*
X702464Y311059D01*
X702726Y311450D01*
X703118Y311712D01*
X703580Y311804D01*
X704042Y311712D01*
D02*
G37*
G36*
X846160Y309618D02*
X846552Y309356D01*
X846814Y308964D01*
X846906Y308502D01*
X846814Y308040D01*
X846552Y307649D01*
X846160Y307387D01*
X845698Y307295D01*
X845236Y307387D01*
X844845Y307649D01*
X844583Y308040D01*
X844491Y308502D01*
X844583Y308964D01*
X844845Y309356D01*
X845236Y309618D01*
X845698Y309710D01*
X846160Y309618D01*
D02*
G37*
G36*
X707093Y308661D02*
X707485Y308399D01*
X707747Y308008D01*
X707839Y307545D01*
X707747Y307083D01*
X707485Y306692D01*
X707093Y306430D01*
X706631Y306338D01*
X706169Y306430D01*
X705777Y306692D01*
X705516Y307083D01*
X705424Y307545D01*
X705516Y308008D01*
X705777Y308399D01*
X706169Y308661D01*
X706631Y308753D01*
X707093Y308661D01*
D02*
G37*
G36*
X204780Y255937D02*
Y254363D01*
Y252837D01*
Y251263D01*
Y249737D01*
Y248163D01*
Y246637D01*
Y242650D01*
X189080D01*
Y245063D01*
Y246637D01*
Y248163D01*
Y249737D01*
Y251263D01*
Y252837D01*
Y254363D01*
Y255937D01*
Y258350D01*
X204780D01*
Y255937D01*
D02*
G37*
G36*
X352545Y211850D02*
X344646D01*
Y216550D01*
X352545D01*
Y211850D01*
D02*
G37*
G36*
X337245D02*
X329345D01*
Y216550D01*
X337245D01*
Y211850D01*
D02*
G37*
G36*
X352545Y202450D02*
X344646D01*
Y207150D01*
X352545D01*
Y202450D01*
D02*
G37*
G36*
X337245D02*
X329345D01*
Y207150D01*
X337245D01*
Y202450D01*
D02*
G37*
G36*
X927535Y191650D02*
X918735D01*
Y198450D01*
X927535D01*
Y191650D01*
D02*
G37*
G36*
X900035Y183150D02*
X893235D01*
Y191950D01*
X900035D01*
Y183150D01*
D02*
G37*
%LPC*%
G36*
X202367Y255937D02*
X200793D01*
Y254363D01*
X202367D01*
Y255937D01*
D02*
G37*
G36*
X199267D02*
X197693D01*
Y254363D01*
X199267D01*
Y255937D01*
D02*
G37*
G36*
X196167D02*
X194592D01*
Y254363D01*
X196167D01*
Y255937D01*
D02*
G37*
G36*
X193067D02*
X191492D01*
Y254363D01*
X193067D01*
Y255937D01*
D02*
G37*
G36*
X202367Y252837D02*
X200793D01*
Y251263D01*
X202367D01*
Y252837D01*
D02*
G37*
G36*
X199267D02*
X197693D01*
Y251263D01*
X199267D01*
Y252837D01*
D02*
G37*
G36*
X196167D02*
X194592D01*
Y251263D01*
X196167D01*
Y252837D01*
D02*
G37*
G36*
X193067D02*
X191492D01*
Y251263D01*
X193067D01*
Y252837D01*
D02*
G37*
G36*
X202367Y249737D02*
X200793D01*
Y248163D01*
X202367D01*
Y249737D01*
D02*
G37*
G36*
X199267D02*
X197693D01*
Y248163D01*
X199267D01*
Y249737D01*
D02*
G37*
G36*
X196167D02*
X194592D01*
Y248163D01*
X196167D01*
Y249737D01*
D02*
G37*
G36*
X193067D02*
X191492D01*
Y248163D01*
X193067D01*
Y249737D01*
D02*
G37*
G36*
X202367Y246637D02*
X200793D01*
Y245063D01*
X202367D01*
Y246637D01*
D02*
G37*
G36*
X199267D02*
X197693D01*
Y245063D01*
X199267D01*
Y246637D01*
D02*
G37*
G36*
X196167D02*
X194592D01*
Y245063D01*
X196167D01*
Y246637D01*
D02*
G37*
G36*
X193067D02*
X191492D01*
Y245063D01*
X193067D01*
Y246637D01*
D02*
G37*
%LPD*%
D15*
X801135Y289950D02*
D03*
Y328150D02*
D03*
X679635Y293450D02*
D03*
Y331650D02*
D03*
D16*
X878185Y354636D02*
D03*
X880941Y347550D02*
D03*
X875429D02*
D03*
D27*
X713477Y155219D02*
D03*
D28*
X717315Y147769D02*
D03*
X714756D02*
D03*
X712197D02*
D03*
X709638D02*
D03*
Y162669D02*
D03*
X712197D02*
D03*
X714756D02*
D03*
X717315D02*
D03*
D29*
X706027Y151381D02*
D03*
Y153940D02*
D03*
Y156499D02*
D03*
Y159058D02*
D03*
X720927D02*
D03*
Y156499D02*
D03*
Y153940D02*
D03*
Y151381D02*
D03*
D31*
X793385Y144959D02*
D03*
X775485D02*
D03*
X750985D02*
D03*
X768885D02*
D03*
D32*
X772935Y185409D02*
D03*
Y167509D02*
D03*
X759435Y177410D02*
D03*
Y159510D02*
D03*
D34*
X951905Y351343D02*
D03*
X955645Y343076D02*
D03*
X948165D02*
D03*
D35*
X1004393Y329548D02*
D03*
Y331517D02*
D03*
Y333485D02*
D03*
X1011578D02*
D03*
Y331517D02*
D03*
Y329548D02*
D03*
D36*
X1005033Y336093D02*
D03*
X1007001D02*
D03*
X1008970D02*
D03*
X1010938D02*
D03*
Y326940D02*
D03*
X1008970D02*
D03*
X1007001D02*
D03*
X1005033D02*
D03*
D60*
X204930Y239300D02*
D03*
X202930D02*
D03*
X200930D02*
D03*
X198930D02*
D03*
X196930D02*
D03*
X194930D02*
D03*
X192930D02*
D03*
X190930D02*
D03*
X188930D02*
D03*
Y261700D02*
D03*
X190930D02*
D03*
X192930D02*
D03*
X194930D02*
D03*
X196930D02*
D03*
X198930D02*
D03*
X200930D02*
D03*
X202930D02*
D03*
X204930D02*
D03*
D61*
X185730Y242500D02*
D03*
Y244500D02*
D03*
Y246500D02*
D03*
Y248500D02*
D03*
Y250500D02*
D03*
Y252500D02*
D03*
Y254500D02*
D03*
Y256500D02*
D03*
Y258500D02*
D03*
X208130D02*
D03*
Y256500D02*
D03*
Y254500D02*
D03*
Y252500D02*
D03*
Y250500D02*
D03*
Y248500D02*
D03*
Y246500D02*
D03*
Y244500D02*
D03*
Y242500D02*
D03*
D82*
X260646Y169665D02*
D03*
X273245D02*
D03*
Y190335D02*
D03*
X260646D02*
D03*
D84*
X294989Y359744D02*
D03*
Y365256D02*
D03*
X287902Y362500D02*
D03*
D96*
X442477Y356093D02*
D03*
X444446D02*
D03*
X446414D02*
D03*
Y348907D02*
D03*
X444446D02*
D03*
X442477D02*
D03*
D97*
X449022Y355453D02*
D03*
Y353484D02*
D03*
Y351516D02*
D03*
Y349547D02*
D03*
X439869D02*
D03*
Y351516D02*
D03*
Y353484D02*
D03*
Y355453D02*
D03*
D98*
X499079Y349500D02*
D03*
X490812Y345760D02*
D03*
Y353240D02*
D03*
D99*
X368638Y148000D02*
D03*
X380253D02*
D03*
X466437Y208000D02*
D03*
X454823D02*
D03*
D100*
X374446Y154004D02*
D03*
X460630Y201996D02*
D03*
D101*
X507315Y149177D02*
D03*
X527945D02*
D03*
X390631D02*
D03*
X411260D02*
D03*
D102*
X517630D02*
D03*
X400946D02*
D03*
D112*
X1010635Y159550D02*
D03*
X997635D02*
D03*
X1010635Y212550D02*
D03*
X997635D02*
D03*
D114*
X669635Y210250D02*
D03*
Y222050D02*
D03*
Y233850D02*
D03*
D155*
X730135Y321300D02*
D03*
D156*
X922635Y158800D02*
D03*
D157*
X890135Y153050D02*
D03*
D158*
X789635Y197550D02*
D03*
X905135Y187550D02*
D03*
D159*
X923635Y186300D02*
D03*
D160*
X903635Y149050D02*
D03*
D161*
X912385Y148800D02*
D03*
D162*
X713885Y154800D02*
D03*
D163*
X724885Y229550D02*
D03*
D164*
X845385Y311550D02*
D03*
D165*
X981385Y309050D02*
D03*
D166*
X992135Y319300D02*
D03*
D167*
X980885Y330300D02*
D03*
D168*
X970885Y319300D02*
D03*
D169*
X1008135Y331550D02*
D03*
D170*
X738135Y405050D02*
D03*
X243946Y405000D02*
D03*
D171*
X495635Y155900D02*
D03*
D172*
X487696Y310500D02*
D03*
D173*
X497625Y276500D02*
D03*
X492266D02*
D03*
D174*
X402446Y255500D02*
D03*
D175*
D03*
D176*
X444446Y351500D02*
D03*
D177*
X448696Y352500D02*
D03*
X440196D02*
D03*
D178*
X444446Y356000D02*
D03*
D179*
X404946Y183000D02*
D03*
D180*
D03*
D181*
X478445Y298000D02*
D03*
D182*
D03*
D183*
X353446Y174500D02*
D03*
D184*
D03*
D185*
X901954Y160927D02*
D03*
Y164864D02*
D03*
X983679Y337669D02*
D03*
Y341606D02*
D03*
X987986Y337548D02*
D03*
Y341485D02*
D03*
X979014Y337669D02*
D03*
Y341606D02*
D03*
X739601Y230981D02*
D03*
Y234918D02*
D03*
X689635Y353081D02*
D03*
Y357018D02*
D03*
X720135Y318518D02*
D03*
Y314581D02*
D03*
X742135Y324018D02*
D03*
Y320081D02*
D03*
X815635Y345081D02*
D03*
Y349018D02*
D03*
X834635Y308518D02*
D03*
Y304581D02*
D03*
X857635Y314518D02*
D03*
Y310581D02*
D03*
X923135Y135518D02*
D03*
Y131581D02*
D03*
X924293Y122297D02*
D03*
Y118360D02*
D03*
X928793Y122297D02*
D03*
Y118360D02*
D03*
X904135Y118581D02*
D03*
Y122518D02*
D03*
X919793Y118360D02*
D03*
Y122297D02*
D03*
X899793Y132297D02*
D03*
Y128360D02*
D03*
X930793Y156860D02*
D03*
Y160797D02*
D03*
X935293Y156860D02*
D03*
Y160797D02*
D03*
X899635Y122518D02*
D03*
Y118581D02*
D03*
X942645Y350544D02*
D03*
Y346607D02*
D03*
X961645Y341544D02*
D03*
Y337607D02*
D03*
X998014Y317074D02*
D03*
Y313137D02*
D03*
X1001985Y316985D02*
D03*
Y313048D02*
D03*
X739601Y221981D02*
D03*
Y225918D02*
D03*
X713101Y229481D02*
D03*
Y233418D02*
D03*
X720135Y310018D02*
D03*
Y306081D02*
D03*
X726635Y310018D02*
D03*
Y306081D02*
D03*
X834635Y300018D02*
D03*
Y296081D02*
D03*
X841635Y300018D02*
D03*
Y296081D02*
D03*
X929793Y148797D02*
D03*
Y144860D02*
D03*
X934793Y144797D02*
D03*
Y140860D02*
D03*
X906293Y135297D02*
D03*
Y131360D02*
D03*
X924293Y160797D02*
D03*
Y156860D02*
D03*
X210130Y277969D02*
D03*
Y274031D02*
D03*
X189130Y278468D02*
D03*
Y274532D02*
D03*
X185130Y186969D02*
D03*
Y183031D02*
D03*
X479130Y151031D02*
D03*
Y154969D02*
D03*
X297130Y318032D02*
D03*
Y321969D02*
D03*
X337130Y322969D02*
D03*
Y319032D02*
D03*
X460630Y189532D02*
D03*
Y193468D02*
D03*
X455130Y185531D02*
D03*
Y189469D02*
D03*
X440130Y185531D02*
D03*
Y189469D02*
D03*
X470130Y193468D02*
D03*
Y189532D02*
D03*
X508130Y191469D02*
D03*
Y187531D02*
D03*
X483630Y185468D02*
D03*
Y181532D02*
D03*
X478130Y182468D02*
D03*
Y178532D02*
D03*
X470130Y179032D02*
D03*
Y182968D02*
D03*
X483630Y176469D02*
D03*
Y172531D02*
D03*
X466630Y146531D02*
D03*
Y150469D02*
D03*
X310445Y299468D02*
D03*
Y295532D02*
D03*
X395946Y218724D02*
D03*
Y214787D02*
D03*
X373945Y160563D02*
D03*
Y164500D02*
D03*
X354446Y158468D02*
D03*
Y154532D02*
D03*
X338945Y182531D02*
D03*
Y186469D02*
D03*
X361445Y192032D02*
D03*
Y195968D02*
D03*
X344945Y155032D02*
D03*
Y158968D02*
D03*
X338946Y164469D02*
D03*
Y160531D02*
D03*
X351945Y192032D02*
D03*
Y195968D02*
D03*
X355445Y192032D02*
D03*
Y195968D02*
D03*
X357945Y158468D02*
D03*
Y154532D02*
D03*
X384945Y197031D02*
D03*
Y200969D02*
D03*
X380945Y197031D02*
D03*
Y200969D02*
D03*
X210130Y184031D02*
D03*
Y187969D02*
D03*
X277446Y306287D02*
D03*
Y310224D02*
D03*
X287445Y306031D02*
D03*
Y309968D02*
D03*
X282445Y306532D02*
D03*
Y310469D02*
D03*
X292445Y306031D02*
D03*
Y309968D02*
D03*
X321946Y217469D02*
D03*
Y213531D02*
D03*
X306945Y298031D02*
D03*
Y301969D02*
D03*
X404945Y206532D02*
D03*
Y210469D02*
D03*
X423945Y260531D02*
D03*
Y264469D02*
D03*
X424945Y196031D02*
D03*
Y199969D02*
D03*
X428445Y196031D02*
D03*
Y199969D02*
D03*
X481445Y275031D02*
D03*
Y278969D02*
D03*
X390946Y218969D02*
D03*
Y215032D02*
D03*
X418946Y218468D02*
D03*
Y214531D02*
D03*
X413945Y218468D02*
D03*
Y214531D02*
D03*
X477446Y271969D02*
D03*
Y268032D02*
D03*
X361445Y203468D02*
D03*
Y199531D02*
D03*
X345445Y193468D02*
D03*
Y189532D02*
D03*
X338946Y177969D02*
D03*
Y174031D02*
D03*
X341945Y193532D02*
D03*
Y197468D02*
D03*
X361445Y158468D02*
D03*
Y154532D02*
D03*
X395946Y210224D02*
D03*
Y206287D02*
D03*
X413945Y209469D02*
D03*
Y205532D02*
D03*
X427446Y185468D02*
D03*
Y181532D02*
D03*
X423446Y185468D02*
D03*
Y181532D02*
D03*
X484945Y272031D02*
D03*
Y275969D02*
D03*
X488445Y273031D02*
D03*
Y276969D02*
D03*
X501445Y280469D02*
D03*
Y276532D02*
D03*
X489630Y316968D02*
D03*
Y313032D02*
D03*
D186*
X922986Y166329D02*
D03*
X909600D02*
D03*
X867828Y116050D02*
D03*
X854442D02*
D03*
D187*
X924324Y170829D02*
D03*
X969954Y337517D02*
D03*
X966017D02*
D03*
X969858Y342399D02*
D03*
X973794D02*
D03*
X970017Y346517D02*
D03*
X973954D02*
D03*
X707070Y221450D02*
D03*
X703133D02*
D03*
X707070Y225450D02*
D03*
X703133D02*
D03*
X707070Y233450D02*
D03*
X703133D02*
D03*
X961614Y332576D02*
D03*
X957677D02*
D03*
X685104Y358050D02*
D03*
X681167D02*
D03*
X808603Y351050D02*
D03*
X804667D02*
D03*
X931261Y135829D02*
D03*
X927324D02*
D03*
X895824Y157329D02*
D03*
X899761D02*
D03*
X891324Y142329D02*
D03*
X895261D02*
D03*
X894761Y121329D02*
D03*
X890824D02*
D03*
X907324Y171329D02*
D03*
X911261D02*
D03*
X1020517Y335517D02*
D03*
X1024454D02*
D03*
X1020517Y330517D02*
D03*
X1024454D02*
D03*
X980667Y350550D02*
D03*
X984604D02*
D03*
X981517Y303017D02*
D03*
X985454D02*
D03*
X974104Y350550D02*
D03*
X970166D02*
D03*
X707070Y229450D02*
D03*
X703133D02*
D03*
X734938Y309050D02*
D03*
X738875D02*
D03*
X848666Y299050D02*
D03*
X852604D02*
D03*
X927324Y131329D02*
D03*
X931261D02*
D03*
X928261Y170829D02*
D03*
X894761Y132329D02*
D03*
X890824D02*
D03*
X911261Y175829D02*
D03*
X907324D02*
D03*
X223598Y263000D02*
D03*
X219661D02*
D03*
X211567Y267000D02*
D03*
X207630D02*
D03*
X185098Y265000D02*
D03*
X181161D02*
D03*
X183098Y269000D02*
D03*
X179161D02*
D03*
X181598Y273000D02*
D03*
X177661D02*
D03*
X181098Y277000D02*
D03*
X177161D02*
D03*
X226661Y252500D02*
D03*
X230598D02*
D03*
X226098Y247000D02*
D03*
X222161D02*
D03*
X222161Y243000D02*
D03*
X226098D02*
D03*
X205098Y233500D02*
D03*
X201161D02*
D03*
X217598Y257000D02*
D03*
X213661D02*
D03*
X313661Y307500D02*
D03*
X317598D02*
D03*
X187098Y177500D02*
D03*
X183161D02*
D03*
X460661Y189500D02*
D03*
X464598D02*
D03*
X449598Y189500D02*
D03*
X445661D02*
D03*
X503598Y166500D02*
D03*
X499661D02*
D03*
X492098Y166500D02*
D03*
X488161D02*
D03*
X488098Y161000D02*
D03*
X484161D02*
D03*
X466661Y155500D02*
D03*
X470598D02*
D03*
X456098Y164000D02*
D03*
X452161D02*
D03*
X435598Y189500D02*
D03*
X431661D02*
D03*
X430008Y205000D02*
D03*
X433946D02*
D03*
X377914Y164500D02*
D03*
X373977D02*
D03*
X369477Y187000D02*
D03*
X373414D02*
D03*
X379477Y176500D02*
D03*
X383414D02*
D03*
X369477Y183500D02*
D03*
X373414D02*
D03*
X369477Y180000D02*
D03*
X373414D02*
D03*
X380914Y180000D02*
D03*
X376977D02*
D03*
X376477Y206500D02*
D03*
X380414D02*
D03*
X393914Y235500D02*
D03*
X389977D02*
D03*
X392477Y198000D02*
D03*
X396414D02*
D03*
X402914Y232500D02*
D03*
X398977D02*
D03*
X290914Y208000D02*
D03*
X286977D02*
D03*
X308477Y219000D02*
D03*
X312414D02*
D03*
X323914Y302000D02*
D03*
X319977D02*
D03*
X429414Y255000D02*
D03*
X425477D02*
D03*
X399977Y200000D02*
D03*
X403914D02*
D03*
X411477Y236000D02*
D03*
X415414D02*
D03*
X415914Y196500D02*
D03*
X411977D02*
D03*
X402977Y236000D02*
D03*
X406914D02*
D03*
X411414Y200000D02*
D03*
X407477D02*
D03*
X407414Y196500D02*
D03*
X403477D02*
D03*
X427414Y189500D02*
D03*
X423477D02*
D03*
X484414Y345500D02*
D03*
X480477D02*
D03*
X499414Y301500D02*
D03*
X495477D02*
D03*
X380914Y183500D02*
D03*
X376977D02*
D03*
X356477Y210000D02*
D03*
X360414D02*
D03*
X373414Y176500D02*
D03*
X369477D02*
D03*
X373414Y173000D02*
D03*
X369477D02*
D03*
X394914Y201500D02*
D03*
X390977D02*
D03*
X429446Y251500D02*
D03*
X425508D02*
D03*
X415477Y200500D02*
D03*
X419414D02*
D03*
X403977Y171000D02*
D03*
X407914D02*
D03*
X371414Y168000D02*
D03*
X367477D02*
D03*
X462914Y312000D02*
D03*
X458977D02*
D03*
X490477Y282500D02*
D03*
X494414D02*
D03*
X494977Y290000D02*
D03*
X498914D02*
D03*
X493977Y286000D02*
D03*
X497914D02*
D03*
X473477Y275500D02*
D03*
X477414D02*
D03*
D188*
X889137Y152829D02*
D03*
D189*
X892728D02*
D03*
D190*
X870929Y332778D02*
D03*
X875929D02*
D03*
X880929D02*
D03*
X885929D02*
D03*
Y311321D02*
D03*
X880929D02*
D03*
X875929D02*
D03*
X870929D02*
D03*
D191*
X970267Y327194D02*
D03*
Y324635D02*
D03*
Y322076D02*
D03*
Y319517D02*
D03*
Y316958D02*
D03*
Y314399D02*
D03*
Y311840D02*
D03*
X992267Y311840D02*
D03*
Y314399D02*
D03*
Y316958D02*
D03*
Y319517D02*
D03*
Y322076D02*
D03*
Y324635D02*
D03*
Y327194D02*
D03*
D192*
X973590Y308517D02*
D03*
X976149D02*
D03*
X978708D02*
D03*
X981267D02*
D03*
X983826D02*
D03*
X986385D02*
D03*
X988944D02*
D03*
X988944Y330517D02*
D03*
X986385D02*
D03*
X983826D02*
D03*
X981267D02*
D03*
X978708D02*
D03*
X976149D02*
D03*
X973590D02*
D03*
D193*
X981267Y319517D02*
D03*
D194*
X737135Y324550D02*
D03*
X724143D02*
D03*
Y318644D02*
D03*
X737135D02*
D03*
X852194Y314507D02*
D03*
X839202D02*
D03*
Y308601D02*
D03*
X852194D02*
D03*
D195*
X734576Y328093D02*
D03*
X732607D02*
D03*
X730639D02*
D03*
X728670D02*
D03*
X726702D02*
D03*
Y315101D02*
D03*
X728670D02*
D03*
X730639D02*
D03*
X732607D02*
D03*
X734576D02*
D03*
X849635Y318050D02*
D03*
X847666D02*
D03*
X845698D02*
D03*
X843729D02*
D03*
X841761D02*
D03*
Y305058D02*
D03*
X843729D02*
D03*
X845698D02*
D03*
X847666D02*
D03*
X849635D02*
D03*
D196*
X730639Y321597D02*
D03*
X845698Y311554D02*
D03*
D197*
X904293Y153829D02*
D03*
Y151860D02*
D03*
Y149892D02*
D03*
Y147923D02*
D03*
Y145955D02*
D03*
Y143986D02*
D03*
X919844D02*
D03*
Y145955D02*
D03*
Y147923D02*
D03*
Y149892D02*
D03*
Y151860D02*
D03*
Y153829D02*
D03*
D198*
X907146Y141132D02*
D03*
X909115D02*
D03*
X911084D02*
D03*
X913053D02*
D03*
X915022D02*
D03*
X916991D02*
D03*
Y156683D02*
D03*
X915022D02*
D03*
X913053D02*
D03*
X911084D02*
D03*
X909115D02*
D03*
X907146D02*
D03*
D199*
X912068Y148907D02*
D03*
D200*
X942793Y146766D02*
D03*
Y138892D02*
D03*
X880293Y160766D02*
D03*
Y152892D02*
D03*
X728135Y344487D02*
D03*
Y336613D02*
D03*
X739135Y344487D02*
D03*
Y336613D02*
D03*
X843635Y335487D02*
D03*
Y327613D02*
D03*
X855635Y335487D02*
D03*
Y327613D02*
D03*
X966793Y146766D02*
D03*
Y138892D02*
D03*
X954793Y146766D02*
D03*
Y138892D02*
D03*
X487630Y144063D02*
D03*
Y151937D02*
D03*
X261630Y207937D02*
D03*
Y200063D02*
D03*
X272630Y207937D02*
D03*
Y200063D02*
D03*
X367946Y287563D02*
D03*
Y295437D02*
D03*
X343445Y287063D02*
D03*
Y294937D02*
D03*
D201*
X728038Y216950D02*
D03*
X720164D02*
D03*
X872900Y128394D02*
D03*
X880775D02*
D03*
X872900Y140894D02*
D03*
X880775D02*
D03*
X793872Y158959D02*
D03*
X785998D02*
D03*
X734998Y156959D02*
D03*
X742872D02*
D03*
X756040Y130719D02*
D03*
X763914D02*
D03*
X170193Y239500D02*
D03*
X178067D02*
D03*
X272382Y246000D02*
D03*
X264508D02*
D03*
X272382Y238500D02*
D03*
X264508D02*
D03*
X350008Y145500D02*
D03*
X357882D02*
D03*
X506001Y311500D02*
D03*
X498127D02*
D03*
D202*
X789711Y201200D02*
D03*
Y197459D02*
D03*
Y193719D02*
D03*
X799159D02*
D03*
Y201200D02*
D03*
D203*
X939326Y332115D02*
D03*
X934326D02*
D03*
X929326D02*
D03*
X924326D02*
D03*
X919326D02*
D03*
X914326D02*
D03*
X909326D02*
D03*
X904326D02*
D03*
X899326D02*
D03*
X939326Y296682D02*
D03*
X934326D02*
D03*
X929326D02*
D03*
X924326D02*
D03*
X919326D02*
D03*
X914326D02*
D03*
X909326D02*
D03*
X904326D02*
D03*
X899326D02*
D03*
D204*
X718987Y233450D02*
D03*
Y230891D02*
D03*
Y228332D02*
D03*
Y225773D02*
D03*
X730601D02*
D03*
Y228332D02*
D03*
Y230891D02*
D03*
Y233450D02*
D03*
D205*
X724794Y229611D02*
D03*
D206*
X889037Y126829D02*
D03*
X894549D02*
D03*
X731386Y140719D02*
D03*
X736898D02*
D03*
X731179Y126960D02*
D03*
X736691D02*
D03*
X766191Y197459D02*
D03*
X760679D02*
D03*
X695879Y365050D02*
D03*
X701391D02*
D03*
X821379Y359550D02*
D03*
X826891D02*
D03*
X896049Y137329D02*
D03*
X890537D02*
D03*
X695879Y359050D02*
D03*
X701391D02*
D03*
X821379Y353550D02*
D03*
X826891D02*
D03*
X797391Y358050D02*
D03*
X791879D02*
D03*
X881236Y303128D02*
D03*
X875724D02*
D03*
X875724Y297128D02*
D03*
X881236D02*
D03*
X887673Y347550D02*
D03*
X893185D02*
D03*
X679379Y353050D02*
D03*
X684891D02*
D03*
X804879Y345050D02*
D03*
X810391D02*
D03*
X783691Y197459D02*
D03*
X778179D02*
D03*
X731386Y133719D02*
D03*
X736898D02*
D03*
X736691Y120459D02*
D03*
X731179D02*
D03*
X672891Y366050D02*
D03*
X667379D02*
D03*
X221386Y252500D02*
D03*
X215874D02*
D03*
X216386Y235500D02*
D03*
X210874D02*
D03*
X177386Y246500D02*
D03*
X171874D02*
D03*
X509627Y299500D02*
D03*
X504115D02*
D03*
X250886Y286000D02*
D03*
X245374D02*
D03*
X160701Y353500D02*
D03*
X155190D02*
D03*
X160701Y358500D02*
D03*
X155190D02*
D03*
X160701Y363500D02*
D03*
X155190D02*
D03*
X500957Y305500D02*
D03*
X495445D02*
D03*
X144690Y353500D02*
D03*
X150201D02*
D03*
X144690Y358500D02*
D03*
X150201D02*
D03*
X144690Y363500D02*
D03*
X150201D02*
D03*
X287701Y212500D02*
D03*
X282190D02*
D03*
X306701Y289500D02*
D03*
X301190D02*
D03*
X375701Y191500D02*
D03*
X370190D02*
D03*
X384201Y170500D02*
D03*
X378690D02*
D03*
X294201Y372000D02*
D03*
X288690D02*
D03*
X287201Y220500D02*
D03*
X281690D02*
D03*
X293690Y352500D02*
D03*
X299201D02*
D03*
X442690Y342500D02*
D03*
X448201D02*
D03*
X496201Y359000D02*
D03*
X490690D02*
D03*
D207*
X721635Y169794D02*
D03*
Y175306D02*
D03*
X824666Y181114D02*
D03*
Y186625D02*
D03*
Y192113D02*
D03*
Y197625D02*
D03*
X747435Y182215D02*
D03*
Y176704D02*
D03*
X724977Y133964D02*
D03*
Y139475D02*
D03*
X730666Y197125D02*
D03*
Y191613D02*
D03*
X744977Y191964D02*
D03*
Y197475D02*
D03*
X716477Y186475D02*
D03*
Y180964D02*
D03*
X908793Y124085D02*
D03*
Y118573D02*
D03*
X914793Y124085D02*
D03*
Y118573D02*
D03*
X865635Y346306D02*
D03*
Y340794D02*
D03*
X879793Y169573D02*
D03*
Y175085D02*
D03*
X717642Y139475D02*
D03*
Y133964D02*
D03*
X830166Y192113D02*
D03*
Y197625D02*
D03*
X737856Y197275D02*
D03*
Y191763D02*
D03*
X225130Y268744D02*
D03*
Y274256D02*
D03*
X217130Y267744D02*
D03*
Y273256D02*
D03*
X285630Y289244D02*
D03*
Y294756D02*
D03*
X493630Y181244D02*
D03*
Y186756D02*
D03*
X384946Y205500D02*
D03*
Y211012D02*
D03*
X390946Y211012D02*
D03*
Y205500D02*
D03*
X400446Y205244D02*
D03*
Y210756D02*
D03*
X424945Y204744D02*
D03*
Y210256D02*
D03*
X418945Y210256D02*
D03*
Y204744D02*
D03*
X409445Y204244D02*
D03*
Y209756D02*
D03*
X277445Y320256D02*
D03*
Y314744D02*
D03*
X287445Y320256D02*
D03*
Y314744D02*
D03*
X282445Y320256D02*
D03*
Y314744D02*
D03*
X292445Y320256D02*
D03*
Y314744D02*
D03*
X317445Y212244D02*
D03*
Y217756D02*
D03*
X290445Y289244D02*
D03*
Y294756D02*
D03*
X273945Y259256D02*
D03*
Y253744D02*
D03*
X349945Y153244D02*
D03*
Y158756D02*
D03*
X333945Y187756D02*
D03*
Y182244D02*
D03*
X390946Y228512D02*
D03*
Y223000D02*
D03*
X395946Y228512D02*
D03*
Y223000D02*
D03*
X418945Y228256D02*
D03*
Y222744D02*
D03*
X413945Y228256D02*
D03*
Y222744D02*
D03*
X344945Y362756D02*
D03*
Y357244D02*
D03*
X339445Y359744D02*
D03*
Y365256D02*
D03*
X454945Y349256D02*
D03*
Y343744D02*
D03*
X479945Y356256D02*
D03*
Y350744D02*
D03*
D208*
X832166Y163054D02*
D03*
Y173684D02*
D03*
X752935Y202775D02*
D03*
Y192145D02*
D03*
X754977Y109404D02*
D03*
Y120034D02*
D03*
X763477Y109404D02*
D03*
Y120034D02*
D03*
X162130Y215815D02*
D03*
Y205185D02*
D03*
X230630Y215815D02*
D03*
Y205185D02*
D03*
D209*
X785809Y179200D02*
D03*
Y171719D02*
D03*
X795061Y175460D02*
D03*
X728977Y181719D02*
D03*
Y174239D02*
D03*
X738229Y177979D02*
D03*
D210*
X919296Y198425D02*
D03*
X921856D02*
D03*
X924415D02*
D03*
X926974D02*
D03*
Y186675D02*
D03*
X924415D02*
D03*
X921856D02*
D03*
X919296D02*
D03*
D211*
X893260Y183711D02*
D03*
Y186270D02*
D03*
Y188829D02*
D03*
Y191388D02*
D03*
X905010D02*
D03*
Y188829D02*
D03*
Y186270D02*
D03*
Y183711D02*
D03*
D212*
X955135Y189050D02*
D03*
Y166050D02*
D03*
D213*
X676735Y403325D02*
D03*
X724035D02*
D03*
X182545Y403275D02*
D03*
X229845D02*
D03*
D214*
X811785Y403325D02*
D03*
X808635D02*
D03*
X805485D02*
D03*
X802335D02*
D03*
X799185D02*
D03*
X796035D02*
D03*
X792885D02*
D03*
X786585D02*
D03*
X789735D02*
D03*
X783435D02*
D03*
X780285D02*
D03*
X777135D02*
D03*
X773985D02*
D03*
X770835D02*
D03*
X767685D02*
D03*
X764535D02*
D03*
X758235D02*
D03*
X755085D02*
D03*
X761385D02*
D03*
X814935D02*
D03*
X317596Y403275D02*
D03*
X314445D02*
D03*
X311296D02*
D03*
X308145D02*
D03*
X304995D02*
D03*
X301846D02*
D03*
X298695D02*
D03*
X292395D02*
D03*
X295546D02*
D03*
X289246D02*
D03*
X286095D02*
D03*
X282945D02*
D03*
X279796D02*
D03*
X276645D02*
D03*
X273496D02*
D03*
X270345D02*
D03*
X264046D02*
D03*
X260895D02*
D03*
X267196D02*
D03*
X320745D02*
D03*
D215*
X662320Y356550D02*
D03*
X672950D02*
D03*
X786320Y348550D02*
D03*
X796950D02*
D03*
X817750Y184959D02*
D03*
X807120D02*
D03*
X817750Y172459D02*
D03*
X807120D02*
D03*
X814750Y158459D02*
D03*
X804120D02*
D03*
X814750Y144959D02*
D03*
X804120D02*
D03*
D216*
X195299Y279650D02*
D03*
X203961D02*
D03*
X195299Y273350D02*
D03*
X203961D02*
D03*
D217*
X196930Y250500D02*
D03*
D218*
X332505Y231004D02*
D03*
X328568D02*
D03*
X324630D02*
D03*
X320693D02*
D03*
X316757D02*
D03*
X312820D02*
D03*
X308882D02*
D03*
X304945D02*
D03*
X301008D02*
D03*
X297071D02*
D03*
X293134D02*
D03*
X289197D02*
D03*
X285260D02*
D03*
X281323D02*
D03*
X332505Y234941D02*
D03*
X328568D02*
D03*
X324630D02*
D03*
X320693D02*
D03*
X316757D02*
D03*
X312820D02*
D03*
X308882D02*
D03*
X304945D02*
D03*
X301008D02*
D03*
X297071D02*
D03*
X293134D02*
D03*
X289197D02*
D03*
X285260D02*
D03*
X281323D02*
D03*
X332505Y238878D02*
D03*
X328568D02*
D03*
X324630D02*
D03*
X320693D02*
D03*
X316757D02*
D03*
X312820D02*
D03*
X308882D02*
D03*
X304945D02*
D03*
X301008D02*
D03*
X297071D02*
D03*
X293134D02*
D03*
X289197D02*
D03*
X285260D02*
D03*
X281323D02*
D03*
X332505Y242815D02*
D03*
X328568D02*
D03*
X324630D02*
D03*
X320693D02*
D03*
X316757D02*
D03*
X312820D02*
D03*
X308882D02*
D03*
X304945D02*
D03*
X301008D02*
D03*
X297071D02*
D03*
X293134D02*
D03*
X289197D02*
D03*
X285260D02*
D03*
X281323D02*
D03*
X332505Y246752D02*
D03*
X328568D02*
D03*
X324630D02*
D03*
X320693D02*
D03*
X316757D02*
D03*
X312820D02*
D03*
X308882D02*
D03*
X304945D02*
D03*
X301008D02*
D03*
X297071D02*
D03*
X293134D02*
D03*
X289197D02*
D03*
X285260D02*
D03*
X281323D02*
D03*
X332505Y250689D02*
D03*
X328568D02*
D03*
X324630D02*
D03*
X320693D02*
D03*
X316757D02*
D03*
X312820D02*
D03*
X308882D02*
D03*
X304945D02*
D03*
X301008D02*
D03*
X297071D02*
D03*
X293134D02*
D03*
X289197D02*
D03*
X285260D02*
D03*
X281323D02*
D03*
X332505Y254626D02*
D03*
X328568D02*
D03*
X324630D02*
D03*
X320693D02*
D03*
X316757D02*
D03*
X312820D02*
D03*
X308882D02*
D03*
X304945D02*
D03*
X301008D02*
D03*
X297071D02*
D03*
X293134D02*
D03*
X289197D02*
D03*
X285260D02*
D03*
X281323D02*
D03*
X332505Y258563D02*
D03*
X328568D02*
D03*
X324630D02*
D03*
X320693D02*
D03*
X316757D02*
D03*
X312820D02*
D03*
X308882D02*
D03*
X304945D02*
D03*
X301008D02*
D03*
X297071D02*
D03*
X293134D02*
D03*
X289197D02*
D03*
X285260D02*
D03*
X281323D02*
D03*
X332505Y262500D02*
D03*
X328568D02*
D03*
X324630D02*
D03*
X320693D02*
D03*
X316757D02*
D03*
X312820D02*
D03*
X308882D02*
D03*
X304945D02*
D03*
X301008D02*
D03*
X297071D02*
D03*
X293134D02*
D03*
X289197D02*
D03*
X285260D02*
D03*
X281323D02*
D03*
X332505Y266437D02*
D03*
X328568D02*
D03*
X324630D02*
D03*
X320693D02*
D03*
X316757D02*
D03*
X312820D02*
D03*
X308882D02*
D03*
X304945D02*
D03*
X301008D02*
D03*
X297071D02*
D03*
X293134D02*
D03*
X289197D02*
D03*
X285260D02*
D03*
X281323D02*
D03*
X332505Y270374D02*
D03*
X328568D02*
D03*
X324630D02*
D03*
X320693D02*
D03*
X316757D02*
D03*
X312820D02*
D03*
X308882D02*
D03*
X304945D02*
D03*
X301008D02*
D03*
X297071D02*
D03*
X293134D02*
D03*
X289197D02*
D03*
X285260D02*
D03*
X281323D02*
D03*
X332505Y274311D02*
D03*
X328568D02*
D03*
X324630D02*
D03*
X320693D02*
D03*
X316757D02*
D03*
X312820D02*
D03*
X308882D02*
D03*
X304945D02*
D03*
X301008D02*
D03*
X297071D02*
D03*
X293134D02*
D03*
X289197D02*
D03*
X285260D02*
D03*
X281323D02*
D03*
X332505Y278248D02*
D03*
X328568D02*
D03*
X324630D02*
D03*
X320693D02*
D03*
X316757D02*
D03*
X312820D02*
D03*
X308882D02*
D03*
X304945D02*
D03*
X301008D02*
D03*
X297071D02*
D03*
X293134D02*
D03*
X289197D02*
D03*
X285260D02*
D03*
X281323D02*
D03*
X332505Y282185D02*
D03*
X328568D02*
D03*
X324630D02*
D03*
X320693D02*
D03*
X316757D02*
D03*
X312820D02*
D03*
X308882D02*
D03*
X304945D02*
D03*
X301008D02*
D03*
X297071D02*
D03*
X293134D02*
D03*
X289197D02*
D03*
X285260D02*
D03*
X281323D02*
D03*
D219*
X411304Y267311D02*
D03*
X409335D02*
D03*
X407367D02*
D03*
X405398D02*
D03*
X403430D02*
D03*
X401461D02*
D03*
X399493D02*
D03*
X397524D02*
D03*
X395556D02*
D03*
X393587D02*
D03*
Y243689D02*
D03*
X395556D02*
D03*
X397524D02*
D03*
X399493D02*
D03*
X401461D02*
D03*
X403430D02*
D03*
X405398D02*
D03*
X407367D02*
D03*
X409335D02*
D03*
X411304D02*
D03*
D220*
X390634Y264358D02*
D03*
Y262390D02*
D03*
Y260421D02*
D03*
Y258453D02*
D03*
Y256484D02*
D03*
Y254516D02*
D03*
Y252547D02*
D03*
Y250579D02*
D03*
Y248610D02*
D03*
Y246642D02*
D03*
X414256D02*
D03*
Y248610D02*
D03*
Y250579D02*
D03*
Y252547D02*
D03*
Y254516D02*
D03*
Y256484D02*
D03*
Y258453D02*
D03*
Y260421D02*
D03*
Y262390D02*
D03*
Y264358D02*
D03*
D221*
X402446Y255500D02*
D03*
D222*
X179946Y193748D02*
D03*
X184945D02*
D03*
X189945D02*
D03*
X194946D02*
D03*
X199945D02*
D03*
X204945D02*
D03*
X209946D02*
D03*
X214946D02*
D03*
X179946Y227252D02*
D03*
X184945D02*
D03*
X189945D02*
D03*
X194946D02*
D03*
X199945D02*
D03*
X204945D02*
D03*
X209946D02*
D03*
X214946D02*
D03*
D223*
X325539Y313000D02*
D03*
Y318000D02*
D03*
Y323000D02*
D03*
Y328000D02*
D03*
X301720D02*
D03*
Y323000D02*
D03*
Y318000D02*
D03*
Y313000D02*
D03*
D224*
X313630Y320500D02*
D03*
D225*
X478445Y298000D02*
D03*
D226*
X490060Y306661D02*
D03*
Y305087D02*
D03*
Y303512D02*
D03*
Y301937D02*
D03*
Y300362D02*
D03*
Y298787D02*
D03*
Y297213D02*
D03*
Y295638D02*
D03*
Y294063D02*
D03*
Y292488D02*
D03*
Y290913D02*
D03*
Y289339D02*
D03*
X466831D02*
D03*
Y290913D02*
D03*
Y292488D02*
D03*
Y294063D02*
D03*
Y295638D02*
D03*
Y297213D02*
D03*
Y298787D02*
D03*
Y300362D02*
D03*
Y301937D02*
D03*
Y303512D02*
D03*
Y305087D02*
D03*
Y306661D02*
D03*
D227*
X487107Y286386D02*
D03*
X485532D02*
D03*
X483957D02*
D03*
X482382D02*
D03*
X480808D02*
D03*
X479233D02*
D03*
X477658D02*
D03*
X476083D02*
D03*
X474508D02*
D03*
X472934D02*
D03*
X471359D02*
D03*
X469784D02*
D03*
Y309614D02*
D03*
X471359D02*
D03*
X472934D02*
D03*
X474508D02*
D03*
X476083D02*
D03*
X477658D02*
D03*
X479233D02*
D03*
X480808D02*
D03*
X482382D02*
D03*
X483957D02*
D03*
X485532D02*
D03*
X487107D02*
D03*
D228*
X429130Y261500D02*
D03*
X420630Y269500D02*
D03*
X333630Y165500D02*
D03*
X358630Y189500D02*
D03*
X328630Y194500D02*
D03*
X325130Y188500D02*
D03*
X328130Y166500D02*
D03*
X502630Y189500D02*
D03*
X411446Y239500D02*
D03*
X393946D02*
D03*
X398945D02*
D03*
X406946D02*
D03*
X417446Y274621D02*
D03*
X413446Y276500D02*
D03*
X411945Y273000D02*
D03*
X400946Y276500D02*
D03*
X350945Y273000D02*
D03*
X349945Y269000D02*
D03*
X345946Y265500D02*
D03*
X358648Y266203D02*
D03*
X362946Y263000D02*
D03*
X369946D02*
D03*
X368196Y255250D02*
D03*
X375945Y240500D02*
D03*
D229*
X500949Y182947D02*
D03*
Y180053D02*
D03*
D230*
X502917Y180053D02*
D03*
Y182947D02*
D03*
D231*
X497077Y154713D02*
D03*
X494183D02*
D03*
D232*
X494183Y156681D02*
D03*
X497077D02*
D03*
D233*
X472130Y166000D02*
D03*
X692435Y121959D02*
D03*
D234*
X477543Y167968D02*
D03*
Y166000D02*
D03*
Y164032D02*
D03*
X466717D02*
D03*
Y166000D02*
D03*
Y167968D02*
D03*
X412445Y188000D02*
D03*
Y186031D02*
D03*
Y184063D02*
D03*
Y182095D02*
D03*
Y180126D02*
D03*
Y178157D02*
D03*
X397091D02*
D03*
Y180126D02*
D03*
Y182095D02*
D03*
Y184063D02*
D03*
Y186031D02*
D03*
Y188000D02*
D03*
D235*
X474098Y160587D02*
D03*
X472130D02*
D03*
X470161D02*
D03*
Y171413D02*
D03*
X472130D02*
D03*
X474098D02*
D03*
X399847Y190756D02*
D03*
X401816D02*
D03*
X403784D02*
D03*
X405753D02*
D03*
X407721D02*
D03*
X409690D02*
D03*
Y175402D02*
D03*
X407721D02*
D03*
X405753D02*
D03*
X403784D02*
D03*
X401816D02*
D03*
X399847D02*
D03*
D236*
X261630Y284000D02*
D03*
D237*
X257201Y285968D02*
D03*
Y284000D02*
D03*
Y282031D02*
D03*
X266059D02*
D03*
Y284000D02*
D03*
Y285968D02*
D03*
D238*
X332174Y355000D02*
D03*
Y360000D02*
D03*
Y365000D02*
D03*
Y370000D02*
D03*
X310717D02*
D03*
Y365000D02*
D03*
Y360000D02*
D03*
Y355000D02*
D03*
D239*
X354493Y166890D02*
D03*
D240*
X353508Y182047D02*
D03*
D241*
X343075Y182441D02*
D03*
Y180472D02*
D03*
Y178504D02*
D03*
Y176535D02*
D03*
Y174567D02*
D03*
Y172598D02*
D03*
Y170630D02*
D03*
Y168661D02*
D03*
Y166693D02*
D03*
X363942D02*
D03*
Y168661D02*
D03*
Y170630D02*
D03*
Y172598D02*
D03*
Y174567D02*
D03*
Y176535D02*
D03*
Y178504D02*
D03*
Y180472D02*
D03*
Y182441D02*
D03*
D242*
X345634Y164134D02*
D03*
X347603D02*
D03*
X353508D02*
D03*
X355477D02*
D03*
X357446D02*
D03*
X359414D02*
D03*
X361383D02*
D03*
Y185000D02*
D03*
X359414D02*
D03*
X357446D02*
D03*
X355477D02*
D03*
X353508D02*
D03*
X351540D02*
D03*
X349571D02*
D03*
X347603D02*
D03*
X345634D02*
D03*
D243*
X349571Y165315D02*
D03*
X351540D02*
D03*
D244*
X353508Y174173D02*
D03*
D245*
X445445Y317988D02*
D03*
X440446D02*
D03*
X435445D02*
D03*
X430445D02*
D03*
X425446D02*
D03*
Y334012D02*
D03*
X430445D02*
D03*
X435445D02*
D03*
X440446D02*
D03*
X445445D02*
D03*
D246*
X492288Y278468D02*
D03*
X497603D02*
D03*
X492288Y274532D02*
D03*
X497603D02*
D03*
D247*
X333295Y204800D02*
D03*
X348595D02*
D03*
Y214200D02*
D03*
X333295D02*
D03*
D248*
X392162Y328500D02*
D03*
Y333500D02*
D03*
Y338500D02*
D03*
Y343500D02*
D03*
Y348500D02*
D03*
Y353500D02*
D03*
Y358500D02*
D03*
Y363500D02*
D03*
Y368500D02*
D03*
X356729Y328500D02*
D03*
Y333500D02*
D03*
Y338500D02*
D03*
Y343500D02*
D03*
Y348500D02*
D03*
Y353500D02*
D03*
Y358500D02*
D03*
Y363500D02*
D03*
Y368500D02*
D03*
D249*
X404768Y183079D02*
D03*
D250*
X365946Y247000D02*
D03*
X374446Y251000D02*
D03*
Y246000D02*
D03*
D251*
X262946Y316870D02*
D03*
Y327500D02*
D03*
X268130Y215185D02*
D03*
Y225815D02*
D03*
X274446Y300815D02*
D03*
Y290185D02*
D03*
X355945Y296815D02*
D03*
Y286185D02*
D03*
D252*
X612185Y358000D02*
D03*
X1052185Y358000D02*
D03*
Y118000D02*
D03*
X612185D02*
D03*
X557996Y357950D02*
D03*
Y117950D02*
D03*
X117996D02*
D03*
Y357950D02*
D03*
D253*
X677335Y198150D02*
D03*
Y245950D02*
D03*
D254*
X1007179Y359637D02*
D03*
X997179D02*
D03*
X987179D02*
D03*
X977179D02*
D03*
X692435Y161960D02*
D03*
Y151960D02*
D03*
Y141960D02*
D03*
Y131959D02*
D03*
X327130Y157000D02*
D03*
X317130D02*
D03*
X307130D02*
D03*
X297130D02*
D03*
X287130D02*
D03*
D255*
X967179Y359637D02*
D03*
X277130Y157000D02*
D03*
D256*
X224945Y145000D02*
D03*
X165945D02*
D03*
D257*
X207945Y168000D02*
D03*
X212946Y158000D02*
D03*
X202945D02*
D03*
X197945Y168000D02*
D03*
X192946Y158000D02*
D03*
X187945Y168000D02*
D03*
X182946Y158000D02*
D03*
X177945Y168000D02*
D03*
M02*
