G04*
G04 #@! TF.GenerationSoftware,Altium Limited,Altium Designer,21.5.1 (32)*
G04*
G04 Layer_Physical_Order=2*
G04 Layer_Color=32768*
%FSLAX25Y25*%
%MOIN*%
G70*
G04*
G04 #@! TF.SameCoordinates,DFD27BC7-BC2E-4EA6-85E0-B657734EDDAB*
G04*
G04*
G04 #@! TF.FilePolarity,Negative*
G04*
G01*
G75*
%ADD52C,0.04000*%
%ADD121C,0.05000*%
%ADD122C,0.04800*%
%ADD123C,0.13700*%
%ADD124C,0.07500*%
%ADD125C,0.05700*%
G04:AMPARAMS|DCode=126|XSize=70.622mil|YSize=70.622mil|CornerRadius=0mil|HoleSize=0mil|Usage=FLASHONLY|Rotation=0.000|XOffset=0mil|YOffset=0mil|HoleType=Round|Shape=Relief|Width=3.5mil|Gap=3.5mil|Entries=4|*
%AMTHD126*
7,0,0,0.07062,0.06362,0.00350,45*
%
%ADD126THD126*%
%ADD127C,0.04700*%
G04:AMPARAMS|DCode=128|XSize=38.622mil|YSize=38.622mil|CornerRadius=0mil|HoleSize=0mil|Usage=FLASHONLY|Rotation=0.000|XOffset=0mil|YOffset=0mil|HoleType=Round|Shape=Relief|Width=3.5mil|Gap=3.5mil|Entries=4|*
%AMTHD128*
7,0,0,0.03862,0.03162,0.00350,45*
%
%ADD128THD128*%
%ADD129C,0.04243*%
G04:AMPARAMS|DCode=130|XSize=66.055mil|YSize=66.055mil|CornerRadius=0mil|HoleSize=0mil|Usage=FLASHONLY|Rotation=0.000|XOffset=0mil|YOffset=0mil|HoleType=Round|Shape=Relief|Width=3.5mil|Gap=3.5mil|Entries=4|*
%AMTHD130*
7,0,0,0.06606,0.05906,0.00350,45*
%
%ADD130THD130*%
%ADD131C,0.01500*%
G04:AMPARAMS|DCode=132|XSize=94.622mil|YSize=94.622mil|CornerRadius=0mil|HoleSize=0mil|Usage=FLASHONLY|Rotation=0.000|XOffset=0mil|YOffset=0mil|HoleType=Round|Shape=Relief|Width=3.5mil|Gap=3.5mil|Entries=4|*
%AMTHD132*
7,0,0,0.09462,0.08762,0.00350,45*
%
%ADD132THD132*%
%ADD133C,0.04200*%
%ADD134C,0.02200*%
%ADD135C,0.01700*%
G36*
X213195Y139500D02*
X217946D01*
Y126500D01*
X213195D01*
Y110800D01*
X225496D01*
Y104600D01*
X165395D01*
Y110800D01*
X177696D01*
Y126500D01*
X172945D01*
Y139500D01*
X177696D01*
Y151900D01*
X213195D01*
Y139500D01*
D02*
G37*
D52*
X100000Y100000D02*
Y425000D01*
X1075000D01*
Y100000D02*
Y425000D01*
X100000Y100000D02*
X1075000D01*
X594685Y100500D02*
X1069685D01*
Y375500D01*
X819022D02*
X1069685D01*
X819022D02*
Y425500D01*
X751521D02*
X819022D01*
X751521Y375500D02*
Y425500D01*
X744522Y375500D02*
X751521D01*
X744522D02*
Y425500D01*
X658021D02*
X744522D01*
X658021Y375500D02*
Y425500D01*
X594685Y375500D02*
X658021D01*
X594685Y100500D02*
Y375500D01*
X213195Y139500D02*
Y151900D01*
Y139500D02*
X217946D01*
Y126500D02*
Y139500D01*
X213195Y126500D02*
X217946D01*
X213195Y110800D02*
Y126500D01*
Y110800D02*
X225496D01*
Y104600D02*
Y110800D01*
X165395Y104600D02*
X225496D01*
X165395D02*
Y110800D01*
X177696D01*
Y126500D01*
X172945D02*
X177696D01*
X172945D02*
Y139500D01*
X177696D01*
Y151900D01*
X213195D01*
X325130Y375500D02*
Y425000D01*
X257630D02*
X325130D01*
X257630Y375500D02*
Y425000D01*
X250130Y375500D02*
X257630D01*
X250130D02*
Y425000D01*
X163630D02*
X250130D01*
X163630Y375500D02*
Y425000D01*
X100500Y375500D02*
X163630D01*
X100500Y100500D02*
Y375500D01*
Y100500D02*
X575130D01*
Y375500D01*
X325130D02*
X575130D01*
D121*
X246946Y100500D02*
Y209500D01*
X245946Y210500D02*
X246946Y209500D01*
X151945Y100500D02*
Y209500D01*
Y100500D02*
X246946D01*
X151945Y209500D02*
X152945Y210500D01*
X245946D01*
D122*
X576500Y311500D02*
D03*
Y314500D02*
D03*
Y317500D02*
D03*
Y320500D02*
D03*
Y323500D02*
D03*
X593000Y311500D02*
D03*
Y314500D02*
D03*
Y317500D02*
D03*
Y320500D02*
D03*
Y323500D02*
D03*
X576500Y227000D02*
D03*
Y230000D02*
D03*
Y233000D02*
D03*
Y236000D02*
D03*
Y239000D02*
D03*
X593000Y227500D02*
D03*
Y230500D02*
D03*
Y233500D02*
D03*
Y236500D02*
D03*
Y239500D02*
D03*
X593500Y145000D02*
D03*
Y148000D02*
D03*
Y151000D02*
D03*
Y154000D02*
D03*
Y157000D02*
D03*
X576000D02*
D03*
Y154000D02*
D03*
Y151000D02*
D03*
Y148000D02*
D03*
Y145000D02*
D03*
D123*
X612185Y358000D02*
D03*
X1052185Y358000D02*
D03*
Y118000D02*
D03*
X612185D02*
D03*
X217946Y133000D02*
D03*
X172945D02*
D03*
X557996Y357950D02*
D03*
Y117950D02*
D03*
X117996D02*
D03*
Y357950D02*
D03*
D124*
X1010635Y159550D02*
D03*
X997635D02*
D03*
X1010635Y212550D02*
D03*
X997635D02*
D03*
D125*
X677335Y198150D02*
D03*
Y245950D02*
D03*
D126*
X669635Y210250D02*
D03*
D127*
Y222050D02*
D03*
Y233850D02*
D03*
D128*
X730639Y318545D02*
D03*
X733690Y321597D02*
D03*
X730639Y324648D02*
D03*
X727588Y321597D02*
D03*
X845698Y308502D02*
D03*
X848750Y311554D02*
D03*
X845698Y314605D02*
D03*
X842647Y311554D02*
D03*
X706631Y307545D02*
D03*
X703580Y310597D02*
D03*
X706631Y313648D02*
D03*
X709682Y310597D02*
D03*
D129*
X1007179Y359637D02*
D03*
X997179D02*
D03*
X977179D02*
D03*
X967179D02*
D03*
X692435Y161960D02*
D03*
Y151960D02*
D03*
Y131959D02*
D03*
Y121959D02*
D03*
X327130Y157000D02*
D03*
X307130D02*
D03*
X297130D02*
D03*
X287130D02*
D03*
X277130D02*
D03*
D130*
X987179Y359637D02*
D03*
X692435Y141960D02*
D03*
X317130Y157000D02*
D03*
D131*
X861135Y167550D02*
D03*
X934635Y127550D02*
D03*
X716135Y169550D02*
D03*
X835635Y322050D02*
D03*
X920635Y126050D02*
D03*
X973635Y129050D02*
D03*
X802135Y120550D02*
D03*
X789635Y110550D02*
D03*
X748635Y334550D02*
D03*
X788135Y211550D02*
D03*
X811635Y370050D02*
D03*
X867135Y353050D02*
D03*
X889135Y294050D02*
D03*
X940135Y287550D02*
D03*
X1001135Y321050D02*
D03*
X1015635Y342050D02*
D03*
X964635Y350050D02*
D03*
X936135D02*
D03*
X843135Y116050D02*
D03*
X800135Y137050D02*
D03*
X719435Y199460D02*
D03*
X706435D02*
D03*
X728935Y147959D02*
D03*
X781435Y192459D02*
D03*
X965326Y343899D02*
D03*
X716135Y326050D02*
D03*
X992826Y340399D02*
D03*
X927326Y342399D02*
D03*
X920326Y338898D02*
D03*
X1006326Y320398D02*
D03*
X948826Y314898D02*
D03*
X973326Y302892D02*
D03*
X966826Y303398D02*
D03*
X955326Y312898D02*
D03*
X974645Y336576D02*
D03*
X966645Y332076D02*
D03*
X993486Y333017D02*
D03*
X997986Y327017D02*
D03*
Y337017D02*
D03*
X911135Y191050D02*
D03*
X896135Y147550D02*
D03*
X924293Y151104D02*
D03*
X914135Y135550D02*
D03*
X904135Y127050D02*
D03*
X911293Y162329D02*
D03*
X353945Y252000D02*
D03*
X318630Y252500D02*
D03*
X310786Y248647D02*
D03*
X338130Y256500D02*
D03*
X355130Y150500D02*
D03*
X340130Y319000D02*
D03*
X506630Y183500D02*
D03*
X258130Y231850D02*
D03*
Y223000D02*
D03*
X314684Y224554D02*
D03*
X358130Y205000D02*
D03*
X493130Y310000D02*
D03*
X302130Y178000D02*
D03*
Y187000D02*
D03*
X250630Y282000D02*
D03*
Y290000D02*
D03*
X297130Y325000D02*
D03*
X257130Y288000D02*
D03*
X266130Y288500D02*
D03*
X270630Y282000D02*
D03*
X500630Y157000D02*
D03*
X497130Y152500D02*
D03*
X500630Y186000D02*
D03*
X287228Y225282D02*
D03*
X252130Y219000D02*
D03*
X188130Y242000D02*
D03*
X184130Y260000D02*
D03*
Y257500D02*
D03*
X183981Y255007D02*
D03*
X184630Y252800D02*
D03*
Y250500D02*
D03*
Y246500D02*
D03*
X255630Y230000D02*
D03*
X258630Y226000D02*
D03*
X255130Y221000D02*
D03*
X261630Y233500D02*
D03*
X276130Y227000D02*
D03*
X277814Y207500D02*
D03*
X256314D02*
D03*
X267630Y209500D02*
D03*
X205630Y264500D02*
D03*
X191630Y236500D02*
D03*
X159130Y236000D02*
D03*
X149130D02*
D03*
X171130Y243500D02*
D03*
X148130Y249000D02*
D03*
X220630Y252500D02*
D03*
X210130Y221000D02*
D03*
X185130Y221500D02*
D03*
X435445Y223500D02*
D03*
X367445Y214000D02*
D03*
X337617Y244328D02*
D03*
X337445Y235000D02*
D03*
X314788Y240886D02*
D03*
X310851Y240807D02*
D03*
Y236870D02*
D03*
X302977Y240807D02*
D03*
X299040Y244744D02*
D03*
X299080Y232972D02*
D03*
X291166Y232933D02*
D03*
X298906Y252517D02*
D03*
X298966Y260458D02*
D03*
X299113Y268479D02*
D03*
X311103Y268119D02*
D03*
X306714Y268186D02*
D03*
X310925Y256668D02*
D03*
X422445Y257500D02*
D03*
X393445Y195000D02*
D03*
X399945Y196000D02*
D03*
X407894Y193616D02*
D03*
X413446Y192500D02*
D03*
X164945Y358000D02*
D03*
Y353500D02*
D03*
X350446Y330500D02*
D03*
X487396Y282257D02*
D03*
X489445Y286500D02*
D03*
X469945Y281000D02*
D03*
X459945Y293650D02*
D03*
X462946Y286500D02*
D03*
X465945Y284000D02*
D03*
X426945Y304150D02*
D03*
X435946Y306000D02*
D03*
X462946Y308000D02*
D03*
X440446D02*
D03*
X445445Y310000D02*
D03*
X350446Y368500D02*
D03*
X397945Y344500D02*
D03*
Y349000D02*
D03*
X490945Y363500D02*
D03*
X438945Y362650D02*
D03*
X443946Y362500D02*
D03*
X459945Y349000D02*
D03*
X450446Y332500D02*
D03*
X500946Y273500D02*
D03*
X337445Y355000D02*
D03*
X326446Y367000D02*
D03*
X467945Y187000D02*
D03*
X392946Y181500D02*
D03*
X416946Y188000D02*
D03*
X343630Y136500D02*
D03*
X322945Y173000D02*
D03*
X291946Y201500D02*
D03*
X327446Y175000D02*
D03*
X342946Y186000D02*
D03*
X386946Y176500D02*
D03*
X376945Y187000D02*
D03*
X297446Y213000D02*
D03*
X321946Y208500D02*
D03*
X255446Y327685D02*
D03*
X270445Y327185D02*
D03*
X388445Y196500D02*
D03*
X404117Y203350D02*
D03*
X421446Y196000D02*
D03*
X306945Y305500D02*
D03*
X310701Y223907D02*
D03*
X270445Y259000D02*
D03*
X289946Y286000D02*
D03*
X281945Y290000D02*
D03*
X319946Y305000D02*
D03*
X308446Y226500D02*
D03*
X303446Y284500D02*
D03*
X376446Y209500D02*
D03*
X423446Y242000D02*
D03*
X328945Y223000D02*
D03*
X418946Y258634D02*
D03*
X403445Y239500D02*
D03*
X324945Y222500D02*
D03*
X317445D02*
D03*
X320946D02*
D03*
X427446Y258000D02*
D03*
X420445Y263500D02*
D03*
X423946Y268500D02*
D03*
X399945Y270500D02*
D03*
X386445Y252500D02*
D03*
X337445Y240000D02*
D03*
X277364Y258419D02*
D03*
X287445Y216500D02*
D03*
X277446Y246000D02*
D03*
X306446Y286000D02*
D03*
X362946Y286500D02*
D03*
X348446D02*
D03*
X338445Y287000D02*
D03*
D132*
X224945Y145000D02*
D03*
X165945D02*
D03*
D133*
X207945Y168000D02*
D03*
X212946Y158000D02*
D03*
X202945D02*
D03*
X197945Y168000D02*
D03*
X192946Y158000D02*
D03*
X187945Y168000D02*
D03*
X182946Y158000D02*
D03*
X177945Y168000D02*
D03*
D134*
X193446Y372500D02*
D03*
X187945Y369000D02*
D03*
X171446Y372500D02*
D03*
X182446Y367500D02*
D03*
X175945Y369000D02*
D03*
X261946Y360000D02*
D03*
X266946Y354500D02*
D03*
X269445Y359500D02*
D03*
X265445Y365500D02*
D03*
X258446Y367000D02*
D03*
D135*
X184945Y177000D02*
D03*
X209946Y180766D02*
D03*
M02*
