G04*
G04 #@! TF.GenerationSoftware,Altium Limited,Altium Designer,21.6.4 (81)*
G04*
G04 Layer_Color=16711935*
%FSLAX25Y25*%
%MOIN*%
G70*
G04*
G04 #@! TF.SameCoordinates,EA33D638-3998-4E8D-B273-0A36DB5C1B2A*
G04*
G04*
G04 #@! TF.FilePolarity,Negative*
G04*
G01*
G75*
%ADD15R,0.21300X0.11400*%
%ADD101R,0.03937X0.17953*%
%ADD112C,0.08800*%
%ADD114C,0.06000*%
%ADD170R,1.61500X0.44500*%
%ADD185R,0.02559X0.02953*%
%ADD187R,0.02953X0.02559*%
%ADD194O,0.02953X0.01535*%
%ADD195O,0.01535X0.02953*%
%ADD196R,0.08661X0.08661*%
%ADD200R,0.06496X0.06102*%
%ADD201R,0.06102X0.06496*%
%ADD206R,0.03740X0.04134*%
%ADD207R,0.04134X0.03740*%
%ADD213R,0.30891X0.40591*%
%ADD214R,0.02559X0.40591*%
%ADD215R,0.04921X0.10827*%
%ADD233R,0.06496X0.06496*%
%ADD251R,0.10827X0.04921*%
%ADD252C,0.13591*%
%ADD253C,0.05591*%
%ADD254C,0.06496*%
%ADD255R,0.06496X0.06496*%
%ADD256C,0.07991*%
%ADD257C,0.05091*%
%ADD258R,0.04500X0.10000*%
%ADD259R,0.10500X0.17000*%
%ADD260R,0.01000X0.01500*%
%ADD261R,0.14173X0.07284*%
%ADD262R,0.05709X0.10827*%
%ADD263R,0.07284X0.14173*%
%ADD264R,0.10827X0.05709*%
%ADD265R,0.13583X0.09252*%
%ADD266R,0.06102X0.06102*%
%ADD267O,0.01772X0.01968*%
%ADD268R,0.06890X0.04528*%
%ADD269R,0.04921X0.07284*%
G36*
X731101Y325763D02*
X731493Y325502D01*
X731754Y325110D01*
X731846Y324648D01*
X731754Y324186D01*
X731493Y323794D01*
X731101Y323532D01*
X730639Y323440D01*
X730177Y323532D01*
X729785Y323794D01*
X729523Y324186D01*
X729431Y324648D01*
X729523Y325110D01*
X729785Y325502D01*
X730177Y325763D01*
X730639Y325855D01*
X731101Y325763D01*
D02*
G37*
G36*
X734152Y322712D02*
X734544Y322450D01*
X734806Y322059D01*
X734898Y321597D01*
X734806Y321134D01*
X734544Y320743D01*
X734152Y320481D01*
X733690Y320389D01*
X733228Y320481D01*
X732836Y320743D01*
X732575Y321134D01*
X732483Y321597D01*
X732575Y322059D01*
X732836Y322450D01*
X733228Y322712D01*
X733690Y322804D01*
X734152Y322712D01*
D02*
G37*
G36*
X728050D02*
X728442Y322450D01*
X728703Y322059D01*
X728795Y321597D01*
X728703Y321134D01*
X728442Y320743D01*
X728050Y320481D01*
X727588Y320389D01*
X727126Y320481D01*
X726734Y320743D01*
X726472Y321134D01*
X726380Y321597D01*
X726472Y322059D01*
X726734Y322450D01*
X727126Y322712D01*
X727588Y322804D01*
X728050Y322712D01*
D02*
G37*
G36*
X731101Y319661D02*
X731493Y319399D01*
X731754Y319007D01*
X731846Y318545D01*
X731754Y318083D01*
X731493Y317692D01*
X731101Y317430D01*
X730639Y317338D01*
X730177Y317430D01*
X729785Y317692D01*
X729523Y318083D01*
X729431Y318545D01*
X729523Y319007D01*
X729785Y319399D01*
X730177Y319661D01*
X730639Y319753D01*
X731101Y319661D01*
D02*
G37*
G36*
X846160Y315720D02*
X846552Y315459D01*
X846814Y315067D01*
X846906Y314605D01*
X846814Y314143D01*
X846552Y313751D01*
X846160Y313489D01*
X845698Y313397D01*
X845236Y313489D01*
X844845Y313751D01*
X844583Y314143D01*
X844491Y314605D01*
X844583Y315067D01*
X844845Y315459D01*
X845236Y315720D01*
X845698Y315812D01*
X846160Y315720D01*
D02*
G37*
G36*
X707093Y314763D02*
X707485Y314502D01*
X707747Y314110D01*
X707839Y313648D01*
X707747Y313186D01*
X707485Y312794D01*
X707093Y312532D01*
X706631Y312440D01*
X706169Y312532D01*
X705777Y312794D01*
X705516Y313186D01*
X705424Y313648D01*
X705516Y314110D01*
X705777Y314502D01*
X706169Y314763D01*
X706631Y314855D01*
X707093Y314763D01*
D02*
G37*
G36*
X849212Y312669D02*
X849603Y312407D01*
X849865Y312016D01*
X849957Y311554D01*
X849865Y311092D01*
X849603Y310700D01*
X849212Y310438D01*
X848750Y310346D01*
X848287Y310438D01*
X847896Y310700D01*
X847634Y311092D01*
X847542Y311554D01*
X847634Y312016D01*
X847896Y312407D01*
X848287Y312669D01*
X848750Y312761D01*
X849212Y312669D01*
D02*
G37*
G36*
X843109D02*
X843501Y312407D01*
X843763Y312016D01*
X843855Y311554D01*
X843763Y311092D01*
X843501Y310700D01*
X843109Y310438D01*
X842647Y310346D01*
X842185Y310438D01*
X841793Y310700D01*
X841532Y311092D01*
X841440Y311554D01*
X841532Y312016D01*
X841793Y312407D01*
X842185Y312669D01*
X842647Y312761D01*
X843109Y312669D01*
D02*
G37*
G36*
X710144Y311712D02*
X710536Y311450D01*
X710798Y311059D01*
X710890Y310597D01*
X710798Y310135D01*
X710536Y309743D01*
X710144Y309481D01*
X709682Y309389D01*
X709220Y309481D01*
X708828Y309743D01*
X708567Y310135D01*
X708475Y310597D01*
X708567Y311059D01*
X708828Y311450D01*
X709220Y311712D01*
X709682Y311804D01*
X710144Y311712D01*
D02*
G37*
G36*
X704042D02*
X704434Y311450D01*
X704696Y311059D01*
X704787Y310597D01*
X704696Y310135D01*
X704434Y309743D01*
X704042Y309481D01*
X703580Y309389D01*
X703118Y309481D01*
X702726Y309743D01*
X702464Y310135D01*
X702373Y310597D01*
X702464Y311059D01*
X702726Y311450D01*
X703118Y311712D01*
X703580Y311804D01*
X704042Y311712D01*
D02*
G37*
G36*
X846160Y309618D02*
X846552Y309356D01*
X846814Y308964D01*
X846906Y308502D01*
X846814Y308040D01*
X846552Y307649D01*
X846160Y307387D01*
X845698Y307295D01*
X845236Y307387D01*
X844845Y307649D01*
X844583Y308040D01*
X844491Y308502D01*
X844583Y308964D01*
X844845Y309356D01*
X845236Y309618D01*
X845698Y309710D01*
X846160Y309618D01*
D02*
G37*
G36*
X707093Y308661D02*
X707485Y308399D01*
X707747Y308008D01*
X707839Y307545D01*
X707747Y307083D01*
X707485Y306692D01*
X707093Y306430D01*
X706631Y306338D01*
X706169Y306430D01*
X705777Y306692D01*
X705516Y307083D01*
X705424Y307545D01*
X705516Y308008D01*
X705777Y308399D01*
X706169Y308661D01*
X706631Y308753D01*
X707093Y308661D01*
D02*
G37*
D15*
X757183Y284722D02*
D03*
Y322922D02*
D03*
D101*
X507315Y149177D02*
D03*
X527945D02*
D03*
X390631D02*
D03*
X411260D02*
D03*
D112*
X1010635Y159550D02*
D03*
X997635D02*
D03*
X1010635Y212550D02*
D03*
X997635D02*
D03*
D114*
X669635Y210250D02*
D03*
Y222050D02*
D03*
Y233850D02*
D03*
D170*
X738135Y405050D02*
D03*
X243946Y405000D02*
D03*
D185*
X746635Y345081D02*
D03*
Y349018D02*
D03*
X717135Y307518D02*
D03*
Y303581D02*
D03*
X694135Y313518D02*
D03*
Y309581D02*
D03*
X717135Y299018D02*
D03*
Y295081D02*
D03*
X710635Y299018D02*
D03*
Y295081D02*
D03*
X204630Y270031D02*
D03*
Y273969D02*
D03*
X201130Y270031D02*
D03*
Y273969D02*
D03*
X199130Y247969D02*
D03*
Y244032D02*
D03*
X203130Y247969D02*
D03*
Y244032D02*
D03*
X193534Y232336D02*
D03*
Y236273D02*
D03*
X194130Y184968D02*
D03*
Y181032D02*
D03*
X323446Y238531D02*
D03*
Y242469D02*
D03*
X311445Y230469D02*
D03*
Y226532D02*
D03*
X315445Y245031D02*
D03*
Y248969D02*
D03*
X396445Y266032D02*
D03*
Y269969D02*
D03*
X403445Y266531D02*
D03*
Y270468D02*
D03*
X402446Y233032D02*
D03*
Y236968D02*
D03*
X392946Y174031D02*
D03*
Y177969D02*
D03*
X416445Y194968D02*
D03*
Y191032D02*
D03*
D187*
X751666Y350550D02*
D03*
X755604D02*
D03*
X703604Y297050D02*
D03*
X699667D02*
D03*
X200161Y254500D02*
D03*
X204098D02*
D03*
X199161Y176500D02*
D03*
X203098D02*
D03*
X190130Y176500D02*
D03*
X194067D02*
D03*
X329598Y284000D02*
D03*
X325661D02*
D03*
X330977Y244500D02*
D03*
X334914D02*
D03*
X312477Y233000D02*
D03*
X316414D02*
D03*
X330977Y235000D02*
D03*
X334914D02*
D03*
X391414Y249500D02*
D03*
X387477D02*
D03*
X420946Y181500D02*
D03*
X417008D02*
D03*
X420914Y185000D02*
D03*
X416977D02*
D03*
X392977Y186500D02*
D03*
X396914D02*
D03*
D194*
X700135Y313550D02*
D03*
X713127D02*
D03*
Y307644D02*
D03*
X700135D02*
D03*
D195*
X702694Y317093D02*
D03*
X704663D02*
D03*
X706631D02*
D03*
X708600D02*
D03*
X710568D02*
D03*
Y304100D02*
D03*
X708600D02*
D03*
X706631D02*
D03*
X704663D02*
D03*
X702694D02*
D03*
D196*
X706631Y310597D02*
D03*
D200*
X708635Y333987D02*
D03*
Y326113D02*
D03*
X696635Y333987D02*
D03*
Y326113D02*
D03*
X367946Y287563D02*
D03*
Y295437D02*
D03*
X343445Y287063D02*
D03*
Y294937D02*
D03*
X353945Y287563D02*
D03*
Y295437D02*
D03*
D201*
X272382Y238500D02*
D03*
X264508D02*
D03*
X272382Y246000D02*
D03*
X264508D02*
D03*
D206*
X843879Y107050D02*
D03*
X849391D02*
D03*
X868879D02*
D03*
X874391D02*
D03*
X856379D02*
D03*
X861891D02*
D03*
X741391Y360050D02*
D03*
X735879D02*
D03*
X741391Y354550D02*
D03*
X735879D02*
D03*
X757455Y345250D02*
D03*
X751943D02*
D03*
X763879Y358050D02*
D03*
X769391D02*
D03*
X188374Y217000D02*
D03*
X193886D02*
D03*
X287701Y212500D02*
D03*
X282190D02*
D03*
X287201Y220500D02*
D03*
X281690D02*
D03*
X342190Y235000D02*
D03*
X347701D02*
D03*
X342190Y245000D02*
D03*
X347701D02*
D03*
X342190Y240000D02*
D03*
X347701D02*
D03*
X337690Y251500D02*
D03*
X343201D02*
D03*
X343190Y256500D02*
D03*
X348701D02*
D03*
X306701Y289500D02*
D03*
X301190D02*
D03*
X347874Y140500D02*
D03*
X353386D02*
D03*
X344201Y156000D02*
D03*
X338690D02*
D03*
D207*
X208130Y283756D02*
D03*
Y278244D02*
D03*
X201130Y284756D02*
D03*
Y279244D02*
D03*
X353945Y261756D02*
D03*
Y256244D02*
D03*
X341946Y230256D02*
D03*
Y224744D02*
D03*
X353446Y248756D02*
D03*
Y243244D02*
D03*
X316445Y218075D02*
D03*
Y212563D02*
D03*
X306446Y219575D02*
D03*
Y214063D02*
D03*
X274130Y259256D02*
D03*
Y253744D02*
D03*
X311445Y219575D02*
D03*
Y214063D02*
D03*
X290445Y289244D02*
D03*
Y294756D02*
D03*
D213*
X724035Y403325D02*
D03*
X676735D02*
D03*
X229845Y403275D02*
D03*
X182545D02*
D03*
D214*
X814935Y403325D02*
D03*
X811785D02*
D03*
X808635D02*
D03*
X805485D02*
D03*
X802335D02*
D03*
X799185D02*
D03*
X796035D02*
D03*
X792885D02*
D03*
X786585D02*
D03*
X789735D02*
D03*
X783435D02*
D03*
X780285D02*
D03*
X777135D02*
D03*
X773985D02*
D03*
X770835D02*
D03*
X767685D02*
D03*
X764535D02*
D03*
X758235D02*
D03*
X755085D02*
D03*
X761385D02*
D03*
X320745Y403275D02*
D03*
X317596D02*
D03*
X314445D02*
D03*
X311296D02*
D03*
X308145D02*
D03*
X304995D02*
D03*
X301846D02*
D03*
X298695D02*
D03*
X292395D02*
D03*
X295546D02*
D03*
X289246D02*
D03*
X286095D02*
D03*
X282945D02*
D03*
X279796D02*
D03*
X276645D02*
D03*
X273496D02*
D03*
X270345D02*
D03*
X264046D02*
D03*
X260895D02*
D03*
X267196D02*
D03*
D215*
X774514Y348750D02*
D03*
X763884D02*
D03*
D233*
X692435Y121959D02*
D03*
D251*
X268130Y215185D02*
D03*
Y225815D02*
D03*
D252*
X612185Y358000D02*
D03*
X1052185Y358000D02*
D03*
Y118000D02*
D03*
X612185D02*
D03*
X557996Y357950D02*
D03*
Y117950D02*
D03*
X117996D02*
D03*
Y357950D02*
D03*
D253*
X677335Y198150D02*
D03*
Y245950D02*
D03*
D254*
X1007179Y359637D02*
D03*
X997179D02*
D03*
X987179D02*
D03*
X977179D02*
D03*
X692435Y161960D02*
D03*
Y151960D02*
D03*
Y141960D02*
D03*
Y131959D02*
D03*
X327130Y157000D02*
D03*
X317130D02*
D03*
X307130D02*
D03*
X297130D02*
D03*
X287130D02*
D03*
D255*
X967179Y359637D02*
D03*
X277130Y157000D02*
D03*
D256*
X224945Y145000D02*
D03*
X165945D02*
D03*
D257*
X207945Y168000D02*
D03*
X212946Y158000D02*
D03*
X202945D02*
D03*
X197945Y168000D02*
D03*
X192946Y158000D02*
D03*
X187945Y168000D02*
D03*
X182946Y158000D02*
D03*
X177945Y168000D02*
D03*
D258*
X701385Y310050D02*
D03*
D259*
X706885D02*
D03*
D260*
X349945Y150750D02*
D03*
X347945D02*
D03*
X349945Y153250D02*
D03*
X347945D02*
D03*
D261*
X940513Y113451D02*
D03*
X981497D02*
D03*
X822619Y121550D02*
D03*
X781635D02*
D03*
D262*
X955375Y126050D02*
D03*
X967186D02*
D03*
X807757Y108951D02*
D03*
X795946D02*
D03*
D263*
X850537Y188223D02*
D03*
Y147239D02*
D03*
D264*
X863135Y173361D02*
D03*
Y161550D02*
D03*
D265*
X324730Y267500D02*
D03*
D266*
X329830Y257500D02*
D03*
X319630D02*
D03*
Y277500D02*
D03*
X329830D02*
D03*
D267*
X347571Y156000D02*
D03*
X350130D02*
D03*
X352689D02*
D03*
Y146748D02*
D03*
X350130D02*
D03*
X347571D02*
D03*
D268*
X350130Y151374D02*
D03*
D269*
X360760Y161000D02*
D03*
X350131D02*
D03*
M02*
