M48
;Layer_Color=9474304
;FILE_FORMAT=2:4
INCH,LZ
;TYPE=PLATED
T1F00S00C0.0079
T2F00S00C0.0080
T3F00S00C0.0150
T4F00S00C0.0350
T5F00S00C0.0354
T6F00S00C0.0400
T7F00S00C0.0500
T8F00S00C0.0640
T9F00S00C0.0680
;TYPE=NON_PLATED
T10F00S00C0.1300
%
T01
X047195Y02915
Y029583
Y030017
Y03045
X047628
Y030017
Y029583
Y02915
X048061
Y029583
Y030017
Y03045
X048494
Y030017
Y029583
Y02915
X040894Y0262
Y025767
Y025333
Y0249
X040461
Y025333
Y025767
Y0262
X040028
Y025767
Y025333
Y0249
X039595
Y025333
Y025767
Y0262
X04026Y018524
Y018091
X040693
Y018524
X03604Y017417
X035351Y017417
Y017007
Y017829
X034662Y017417
X03093Y0314
Y031833
Y032267
Y0327
X031363
Y032267
Y031833
Y0314
X031796
Y031833
Y032267
Y0327
T02
X015745Y013
X016695Y0121
X022445Y01195
X023745Y01115
X023495Y013
X023745Y01455
X034495Y0145
X034295Y01515
X034813
X035213
X035513Y01505
X036145Y0151
X038535Y01485
X041677Y014918
X034813Y01365
X034363
X049363Y0152
X049713Y01525
X050195Y0149
X053295
X0576Y0148
Y0151
Y0154
Y0145
X05935
Y0148
Y0151
Y0154
X071067Y015237
X071617
X071348Y015522
X072894Y014796
X07369Y014564
X074314Y013105
X071764Y012839
X078963Y011055
X080213Y012055
X080014Y013705
X084313Y011605
X083564Y010705
X08729Y013464
X088664Y012105
X090414Y012705
X090264Y013605
X091413Y013555
X091863Y013205
X092064Y012605
X093463Y012755
X092713Y011405
X092429Y01511
X091463Y015155
Y014655
X090963
Y015155
X089614Y014755
X093413Y014955
X096042Y014677
X094964Y012905
X097364
X097333Y030289
X096683Y03034
X098383Y02994
X100698Y031205
X094014Y028755
X088913Y029405
X087572Y029114
X085764Y030605
X084813Y030905
X08457Y03085
X08457Y031155
X084265Y031155
X084313Y030905
X084875Y031155
X083813Y029205
X083017Y020237
X080617Y019737
X078144Y019246
X078814Y021155
X079943Y016896
X082344Y017419
X083217Y015687
X086114Y016755
X086713Y016686
X087313Y017355
X090195Y016837
X091129Y016233
X093063Y016505
X091929Y017783
X091114Y019105
X077203Y019737
X076143Y020496
X07341Y022195
X07246Y022745
X069864Y022905
X070644Y019946
X071943
X071648Y019296
X072393Y019346
X071613Y016955
X071617Y015787
X071067
X074243Y016996
X071514Y028905
X072305Y03023
X070914Y030805
X070663Y030755
X070413Y030805
X070358Y03106
X070663Y03106
X070968Y03106
X069413Y030555
X0593Y03115
X05765
X051145Y0311
X050995Y0304
X049313Y031
X048945Y02865
X04874Y028226
X050095Y02835
Y02735
X049445Y02715
X048245Y0272
X048145Y02675
X048295Y02635
X048595Y02605
X048895Y02575
X049195Y02545
X049495Y02515
X049745Y0249
X049995Y02465
X050245Y0244
X050495Y02415
X050745Y0239
X050995Y02365
X051245Y0234
X051495Y0231
X051795Y02285
X052045Y02255
Y02215
Y0218
Y02145
Y02105
Y0207
Y02035
Y01995
Y01955
Y01915
Y01875
Y0183
Y0179
Y0175
Y0171
Y0167
Y0163
X052095Y016
X051445Y01605
Y01635
Y01665
Y017
Y0173
Y0176
Y01795
Y0183
Y01865
Y01895
Y0193
Y0197
Y02005
Y0204
Y02075
Y02115
Y02155
Y0219
Y0223
X051145Y0226
X050845Y0229
X050545Y0232
X050295Y02345
X050045Y02375
X049745Y02405
X049495Y0243
X049195Y02455
X048895Y0248
X048595Y0251
X048395Y02535
X048145Y0256
X047895Y02585
X047645Y02615
X047395Y02645
X047345Y02685
X047295Y0273
X046995Y0281
X047063Y01675
Y01645
X047363
Y01675
X050713Y01665
X050513Y01795
X050663Y01835
X050063Y0186
Y0157
X0576
X05935
X0593Y02275
Y02305
Y02335
Y02365
Y02395
X05765Y0239
Y0236
Y0233
Y023
Y0227
X043545Y02235
X041895Y0236
X042345Y0242
X042245Y02575
X041895Y025863
X042045Y02635
X042395Y02685
X042745Y0258
X043295Y0255
X040345Y02395
X040245Y0229
X040445Y0214
X040412Y020335
X039995Y0196
X039345Y0195
X039295Y01895
Y01815
X038445Y01835
X038695Y01765
X038795Y01725
X038695Y0167
X039195Y01675
X039545Y0171
X039745Y0175
X039695Y0165
X039445Y0163
X039045Y0162
X038645
X038245Y01615
X037845Y0161
X038145Y0167
X037495Y0168
X037645Y01745
X037695Y0187
X037745Y0197
X038845Y01965
X040789Y019362
X041345Y01925
X041995Y01915
X042145Y0196
X042545Y01925
X042995
X043445
X043195Y0196
X043745
X044495Y0194
X044945Y01925
X045445
X045813Y01915
X045795Y01865
X046295
X046795Y0187
X046495Y0193
X045263Y0186
X044713Y0187
X044395Y0186
X043495
X043095
Y01815
X041695Y0188
X041145Y01715
X036995Y0164
X037045Y0159
X036495Y0161
X034195Y0164
X033545Y0178
X032745Y0175
X032295Y0173
X033445Y0192
X033895Y01935
X034845
Y01995
X035813Y0205
X036295Y0207
X036745Y0214
X037645Y02095
X038645Y0233
Y02525
X039995Y02705
X036295Y02865
Y02965
X034845Y0296
Y02865
X033845Y0287
X033195
X032095Y02875
X031995Y0305
X033795Y0295
X033695Y026665
X033813Y02565
X033542Y024735
X033762Y024433
X033745Y024
Y0235
X033695Y02255
X034595Y0225
X035195Y02355
Y024
X035395Y0252
X034845
X031863Y02525
X031444Y025231
X031463Y0257
X032567Y026031
X032663Y02645
X032263
Y02685
X032663
X031862Y026829
X031885Y0241
X031479Y024089
X031467Y023674
X032262Y023297
X032095Y02225
X031745
X031468Y022455
X032495Y02225
X032895Y0223
X033995Y0214
X032195Y02085
X034295Y0186
X035005Y0182
X035645
X042695Y030415
X043595Y0306
X044045Y0308
X044545Y031
X045495Y0312
X046295Y0308
X045995Y029365
X046295Y02865
X046595Y0284
X031095Y028
X031107Y02721
X03111Y026812
X031085Y026447
X030668Y026421
X030671Y026819
X030715Y027256
X029911Y027242
X029911Y026848
X029897Y026439
Y026046
X029879Y025631
X029891Y025252
X029888Y024855
X029904Y024474
X030284Y024459
X030298Y024081
X031085
X031077Y024466
X031079Y024865
X031092Y025667
X030723Y025494
X030674Y023667
X031085Y023687
X029893Y02368
X029908Y023297
X029117Y023293
X029089Y023654
X029491Y024453
X028323Y02448
X027745Y0246
X027845Y02535
X027736Y025842
X027045Y0259
Y02535
X026445Y0251
X025895Y0246
X025745Y02385
X026063Y0215
X025631Y02075
X025613Y01995
X026695Y0202
X026763Y02095
X027781Y02075
X027763Y02
X029195Y02015
X029745Y0213
X028745Y02165
X028195
X027613Y0215
Y0227
X028113Y02275
X028723Y022528
X030845Y02265
X03107Y022391
X031095Y02105
X030213Y0187
Y0178
X023045
X023145Y0169
X023245Y0158
X022195Y0157
X022245Y0166
Y0174
Y0183
Y01915
X022195Y0201
X023063Y02
X023145Y01875
X020713Y0184
X019995Y01875
X019295Y0188
X018813Y01875
Y0183
X018213Y0187
X017195Y01885
X017245Y0178
X016095Y0183
X015895Y01725
X016645Y0165
X015795Y01565
X016213Y01985
X017245Y02005
X018295Y0203
X019695
X021045
X019863Y0217
X019613Y0232
X019063Y0236
X018863Y02385
X019283Y02415
X019213Y0245
X019613Y02455
X01973Y025087
X020213Y02505
X020303Y02415
X019883
X020713Y02365
X020463Y023011
X021495Y023168
X022063Y0235
X022963Y0243
X022913Y0247
X023363Y02545
X021963Y02555
X020813Y02545
X019713Y0256
X019213
Y0251
X018213Y02465
X016863
X017163Y02505
X017813Y0265
X017613Y0269
X017438Y027275
X017413Y02755
X020113Y0266
X020363Y026731
X020413Y028476
X022063Y027326
X02458Y028167
X025063Y0282
Y029
X024563
X025713Y0288
X026163Y02855
Y02825
X027063Y0282
X026613Y02885
X026695Y0301
X028195
Y029
X028322Y028029
X028716Y027621
X029124Y027635
X028995Y0286
X030095
X030345Y02845
X030645Y0286
X03029Y028029
X030395Y03015
X030695Y03055
X031063Y03075
X028993Y029748
X02873Y026454
Y026046
X027452Y026715
X023063Y02205
X018513Y02215
X016295Y02205
X021045Y01755
X014045Y03585
X016495Y0358
Y03535
X025545Y032768
Y031669
X027045
Y032719
X029713Y0325
X030445Y0355
X028095Y03625
X032645Y0361
Y0367
X033745Y0355
X035045Y03685
Y03305
X034013Y0319
X039795Y03445
Y0349
Y0369
X043895Y036265
X044395Y03625
X043745Y03425
X045495Y0338
X045045Y03325
X045995Y0349
X048045Y03605
X049095Y03635
X049745
X049313Y0319
X05765Y03175
Y03145
Y03205
Y03235
X0593
Y03205
Y03175
Y03145
X062414Y037055
X063113
X063713
X064363
X064963
X065613
Y035955
X064963
X064363
X063763
X063163
Y034855
X063814
X064363
X065013
X065714
Y033705
X065013Y033755
X064413
X063814
X063163
X062513
X066213Y036555
X068867Y036202
X069664Y034255
X069914Y031855
X070413Y031305
X070663Y031365
X070914Y031305
X071613Y032605
X072814Y032405
X072759Y03216
X073064Y03216
X073064Y032465
X073313Y032405
X073369Y03216
X073313Y031905
X073064Y031855
X072814Y031905
X074214Y031605
X074014Y032905
X074864Y033455
X074763Y035405
X072863Y035155
X077513Y035805
X078563Y035855
X081463Y035455
X081164Y037005
X080513Y037905
X084363Y034405
X083563Y032205
X084313Y031405
X08457Y03146
X084813Y031405
X085563Y031955
X086614Y033355
X086713Y035305
X088963Y035505
X090283Y03414
X092033Y03389
X092733Y03424
X093614Y035005
X095883Y03479
X096463Y035005
X096533Y03439
X096665Y033208
X097465Y033658
X097633Y03239
Y03194
Y03144
X098133
X098125Y031924
X098133Y03244
X098583
X098633Y03194
X098639Y03144
X100113Y032105
X100633Y03204
X100799Y033202
X099799Y032702
Y033702
X099349Y033302
X099283Y03404
X101564Y034205
X102433Y03394
X096083Y03564
X095533Y03129
X094883Y03149
T03
X016995Y03655
X016595Y03695
X017145Y03725
X017595Y0369
X017645Y03625
X018295Y03615
X018245Y03675
X018795Y0369
X018945Y03625
X019413Y036631
X019345Y03725
X019888Y037106
X025845Y0367
X026545Y03655
X026195Y036
X026945Y03595
X026695Y03545
X031395Y03745
T04
X018295Y0158
X019295
X020295
X021295
X020795Y0168
X019795
X018795
X017795
T05
X069243Y012196
Y013196
Y014196
Y015196
Y016196
X032713Y0157
X031713
X030713
X029713
X028713
X027713
X096718Y035964
X097718
X098718
X099718
X100718
T06
X066964Y021025
Y022205
Y023385
T07
X067733Y019815
Y024595
T08
X016595Y0145
X022495
T09
X099763Y015955
X101063
Y021255
X099763
T10
X0118Y011795
X0558
X061219Y0118
X105218
X0118Y035795
X0558
X061219Y0358
X105218Y0358
M30
