G04*
G04 #@! TF.GenerationSoftware,Altium Limited,Altium Designer,21.6.4 (81)*
G04*
G04 Layer_Color=65535*
%FSLAX25Y25*%
%MOIN*%
G70*
G04*
G04 #@! TF.SameCoordinates,EA33D638-3998-4E8D-B273-0A36DB5C1B2A*
G04*
G04*
G04 #@! TF.FilePolarity,Positive*
G04*
G01*
G75*
%ADD51C,0.02000*%
%ADD54C,0.01000*%
%ADD149C,0.00600*%
%ADD150C,0.00984*%
%ADD151C,0.02362*%
%ADD152C,0.00787*%
%ADD153C,0.00300*%
%ADD154C,0.00394*%
G36*
X281229Y286028D02*
X281355D01*
X277418Y282090D01*
Y282217D01*
X277386Y282185D01*
Y286122D01*
X281323D01*
X281229Y286028D01*
D02*
G37*
G36*
X703427Y155749D02*
X702427D01*
Y157249D01*
X703427D01*
Y155749D01*
D02*
G37*
D51*
X1012135Y143800D02*
G03*
X1012135Y143800I-1500J0D01*
G01*
X671135Y186250D02*
G03*
X671135Y186250I-1500J0D01*
G01*
D54*
X505630Y185500D02*
G03*
X505630Y185500I-500J0D01*
G01*
X500130Y152500D02*
G03*
X500130Y152500I-500J0D01*
G01*
X227730Y221600D02*
Y227598D01*
X230729D01*
X231729Y226598D01*
Y224599D01*
X230729Y223599D01*
X227730D01*
X229729D02*
X231729Y221600D01*
X237727Y227598D02*
X233728D01*
Y224599D01*
X235727Y225599D01*
X236727D01*
X237727Y224599D01*
Y222600D01*
X236727Y221600D01*
X234728D01*
X233728Y222600D01*
X243725Y221600D02*
X239726D01*
X243725Y225599D01*
Y226598D01*
X242725Y227598D01*
X240726D01*
X239726Y226598D01*
X174729Y256898D02*
X173729Y257898D01*
X171730D01*
X170730Y256898D01*
Y252900D01*
X171730Y251900D01*
X173729D01*
X174729Y252900D01*
X176728D02*
X177728Y251900D01*
X179727D01*
X180727Y252900D01*
Y256898D01*
X179727Y257898D01*
X177728D01*
X176728Y256898D01*
Y255899D01*
X177728Y254899D01*
X180727D01*
X423446Y345700D02*
Y351698D01*
X426444D01*
X427444Y350698D01*
Y348699D01*
X426444Y347699D01*
X423446D01*
X429444Y345700D02*
X431443D01*
X430443D01*
Y351698D01*
X429444Y350698D01*
D149*
X869354Y346762D02*
G03*
X869354Y346762I-500J0D01*
G01*
X775435Y334750D02*
X789533D01*
X826835Y283350D02*
Y334750D01*
X812737D02*
X826835D01*
X775435Y283350D02*
Y334750D01*
Y283350D02*
X789533D01*
X812737D02*
X826835D01*
X653935Y338250D02*
X668033D01*
X705335Y286850D02*
Y338250D01*
X691237D02*
X705335D01*
X653935Y286850D02*
Y338250D01*
Y286850D02*
X668033D01*
X691237D02*
X705335D01*
X873354Y350290D02*
Y354251D01*
X880383D02*
X883016D01*
Y350290D02*
Y354251D01*
X877627Y347936D02*
X878744D01*
X873354Y354251D02*
X875988D01*
X968967Y331817D02*
X971680D01*
X993567Y329104D02*
Y331817D01*
X990854Y307217D02*
X993567D01*
X968967D02*
X971680D01*
X993567D02*
Y309929D01*
X990854Y331817D02*
X993567D01*
X968967Y329104D02*
Y331817D01*
Y307217D02*
Y309929D01*
X902399Y158577D02*
X905303D01*
X921738Y155671D02*
Y158577D01*
X918833Y139238D02*
X921738D01*
X902399D02*
Y142144D01*
Y139238D02*
X905303D01*
X921738D02*
Y142144D01*
X918833Y158577D02*
X921738D01*
X902399Y155671D02*
Y158577D01*
X705127Y146869D02*
Y149471D01*
Y163569D02*
X707728D01*
X721827Y160968D02*
Y163569D01*
Y146869D02*
Y149471D01*
X705127Y146869D02*
X707728D01*
X705127Y160968D02*
Y163569D01*
X719226D02*
X721827D01*
X719226Y146869D02*
X721827D01*
X776635Y139559D02*
Y140700D01*
Y149220D02*
Y150359D01*
X792235D01*
Y139559D02*
Y140700D01*
X776635Y139559D02*
X792235D01*
Y149220D02*
Y150359D01*
X767735Y149220D02*
Y150359D01*
Y139559D02*
Y140700D01*
X752135Y139559D02*
X767735D01*
X752135Y149220D02*
Y150359D01*
X767735D01*
X752135Y139559D02*
Y140700D01*
X777195Y168659D02*
X778335D01*
X767535D02*
X768675D01*
X767535D02*
Y184259D01*
X777195D02*
X778335D01*
Y168659D02*
Y184259D01*
X767535D02*
X768675D01*
X763695Y160660D02*
X764835D01*
X754035D02*
X755175D01*
X754035D02*
Y176260D01*
X763695D02*
X764835D01*
Y160660D02*
Y176260D01*
X754035D02*
X755175D01*
X718093Y222910D02*
X731495D01*
X718093Y236312D02*
X731495D01*
X915935Y199250D02*
X917187D01*
X929084Y185850D02*
X930335D01*
X915935D02*
X917187D01*
X915935D02*
Y199250D01*
X929084D02*
X930335D01*
Y185850D02*
Y199250D01*
X892435Y180350D02*
Y181601D01*
X905835Y193498D02*
Y194750D01*
Y180350D02*
Y181601D01*
X892435Y180350D02*
X905835D01*
X892435Y193498D02*
Y194750D01*
X905835D01*
X953002Y179649D02*
Y176450D01*
X955135D01*
X956201D02*
X957268D01*
X956734D01*
Y179649D01*
X956201Y179116D01*
X922602Y203983D02*
Y206116D01*
X922069Y206649D01*
X921002D01*
X920469Y206116D01*
Y203983D01*
X921002Y203450D01*
X922069D01*
X921536Y204517D02*
X922602Y203450D01*
X922069D02*
X922602Y203983D01*
X925801Y203450D02*
X923668D01*
X925801Y205583D01*
Y206116D01*
X925268Y206649D01*
X924201D01*
X923668Y206116D01*
X897635Y197983D02*
Y200116D01*
X897102Y200649D01*
X896036D01*
X895502Y200116D01*
Y197983D01*
X896036Y197450D01*
X897102D01*
X896569Y198516D02*
X897635Y197450D01*
X897102D02*
X897635Y197983D01*
X898701Y197450D02*
X899768D01*
X899234D01*
Y200649D01*
X898701Y200116D01*
X945370Y358649D02*
Y355983D01*
X945903Y355450D01*
X946969D01*
X947502Y355983D01*
Y358649D01*
X950701Y355450D02*
X948569D01*
X950701Y357583D01*
Y358116D01*
X950168Y358649D01*
X949102D01*
X948569Y358116D01*
X953900Y358649D02*
X951768D01*
Y357050D01*
X952834Y357583D01*
X953367D01*
X953900Y357050D01*
Y355983D01*
X953367Y355450D01*
X952301D01*
X951768Y355983D01*
X1002870Y344149D02*
Y341483D01*
X1003403Y340950D01*
X1004469D01*
X1005002Y341483D01*
Y344149D01*
X1008201Y340950D02*
X1006069D01*
X1008201Y343083D01*
Y343616D01*
X1007668Y344149D01*
X1006602D01*
X1006069Y343616D01*
X1010867Y340950D02*
Y344149D01*
X1009268Y342550D01*
X1011400D01*
X793670Y209149D02*
Y206483D01*
X794203Y205950D01*
X795269D01*
X795802Y206483D01*
Y209149D01*
X796869Y205950D02*
X797935D01*
X797402D01*
Y209149D01*
X796869Y208616D01*
X799534Y205950D02*
X800601D01*
X800067D01*
Y209149D01*
X799534Y208616D01*
X907636Y342149D02*
Y339483D01*
X908169Y338950D01*
X909236D01*
X909769Y339483D01*
Y342149D01*
X910835Y338950D02*
X911902D01*
X911368D01*
Y342149D01*
X910835Y341616D01*
X913501D02*
X914034Y342149D01*
X915101D01*
X915634Y341616D01*
Y339483D01*
X915101Y338950D01*
X914034D01*
X913501Y339483D01*
Y341616D01*
X874969Y364149D02*
Y361483D01*
X875502Y360950D01*
X876569D01*
X877102Y361483D01*
Y364149D01*
X878168Y361483D02*
X878701Y360950D01*
X879768D01*
X880301Y361483D01*
Y363616D01*
X879768Y364149D01*
X878701D01*
X878168Y363616D01*
Y363083D01*
X878701Y362550D01*
X880301D01*
X888969Y334649D02*
Y331983D01*
X889502Y331450D01*
X890569D01*
X891102Y331983D01*
Y334649D01*
X892168Y334116D02*
X892701Y334649D01*
X893768D01*
X894301Y334116D01*
Y333583D01*
X893768Y333050D01*
X894301Y332517D01*
Y331983D01*
X893768Y331450D01*
X892701D01*
X892168Y331983D01*
Y332517D01*
X892701Y333050D01*
X892168Y333583D01*
Y334116D01*
X892701Y333050D02*
X893768D01*
X958969Y318149D02*
Y315483D01*
X959502Y314950D01*
X960569D01*
X961102Y315483D01*
Y318149D01*
X962168D02*
X964301D01*
Y317616D01*
X962168Y315483D01*
Y314950D01*
X722969Y241649D02*
Y238983D01*
X723502Y238450D01*
X724569D01*
X725102Y238983D01*
Y241649D01*
X728301D02*
X727235Y241116D01*
X726168Y240050D01*
Y238983D01*
X726701Y238450D01*
X727768D01*
X728301Y238983D01*
Y239516D01*
X727768Y240050D01*
X726168D01*
X716469Y333649D02*
Y330983D01*
X717002Y330450D01*
X718069D01*
X718602Y330983D01*
Y333649D01*
X721801D02*
X719668D01*
Y332050D01*
X720735Y332583D01*
X721268D01*
X721801Y332050D01*
Y330983D01*
X721268Y330450D01*
X720201D01*
X719668Y330983D01*
X828469Y317149D02*
Y314483D01*
X829002Y313950D01*
X830069D01*
X830602Y314483D01*
Y317149D01*
X833268Y313950D02*
Y317149D01*
X831668Y315550D01*
X833801D01*
X912969Y234149D02*
Y231483D01*
X913502Y230950D01*
X914569D01*
X915102Y231483D01*
Y234149D01*
X918301Y230950D02*
X916168D01*
X918301Y233083D01*
Y233616D01*
X917768Y234149D01*
X916701D01*
X916168Y233616D01*
X700002Y171649D02*
Y168983D01*
X700536Y168450D01*
X701602D01*
X702135Y168983D01*
Y171649D01*
X703201Y168450D02*
X704268D01*
X703734D01*
Y171649D01*
X703201Y171116D01*
X873903Y206950D02*
Y210149D01*
X875502D01*
X876035Y209616D01*
Y208550D01*
X875502Y208016D01*
X873903D01*
X874969D02*
X876035Y206950D01*
X877102Y210149D02*
X879235D01*
X878168D01*
Y206950D01*
X880301D02*
X881367D01*
X880834D01*
Y210149D01*
X880301Y209616D01*
X899870Y353450D02*
Y356649D01*
X901469D01*
X902002Y356116D01*
Y355050D01*
X901469Y354517D01*
X899870D01*
X900936D02*
X902002Y353450D01*
X905201Y356649D02*
X903069D01*
Y355050D01*
X904135Y355583D01*
X904668D01*
X905201Y355050D01*
Y353983D01*
X904668Y353450D01*
X903602D01*
X903069Y353983D01*
X908400Y356649D02*
X907334Y356116D01*
X906268Y355050D01*
Y353983D01*
X906801Y353450D01*
X907867D01*
X908400Y353983D01*
Y354517D01*
X907867Y355050D01*
X906268D01*
X904370Y358450D02*
Y361649D01*
X905969D01*
X906502Y361116D01*
Y360050D01*
X905969Y359517D01*
X904370D01*
X905436D02*
X906502Y358450D01*
X909701Y361649D02*
X907569D01*
Y360050D01*
X908635Y360583D01*
X909168D01*
X909701Y360050D01*
Y358983D01*
X909168Y358450D01*
X908102D01*
X907569Y358983D01*
X912900Y361649D02*
X910768D01*
Y360050D01*
X911834Y360583D01*
X912367D01*
X912900Y360050D01*
Y358983D01*
X912367Y358450D01*
X911301D01*
X910768Y358983D01*
X921036Y360315D02*
X924234D01*
Y358716D01*
X923701Y358182D01*
X922635D01*
X922102Y358716D01*
Y360315D01*
Y359249D02*
X921036Y358182D01*
X924234Y354983D02*
Y357116D01*
X922635D01*
X923168Y356050D01*
Y355517D01*
X922635Y354983D01*
X921569D01*
X921036Y355517D01*
Y356583D01*
X921569Y357116D01*
X921036Y352318D02*
X924234D01*
X922635Y353917D01*
Y351784D01*
X926036Y360315D02*
X929235D01*
Y358716D01*
X928701Y358182D01*
X927635D01*
X927102Y358716D01*
Y360315D01*
Y359249D02*
X926036Y358182D01*
X929235Y354983D02*
Y357116D01*
X927635D01*
X928168Y356050D01*
Y355517D01*
X927635Y354983D01*
X926569D01*
X926036Y355517D01*
Y356583D01*
X926569Y357116D01*
X928701Y353917D02*
X929235Y353384D01*
Y352318D01*
X928701Y351784D01*
X928168D01*
X927635Y352318D01*
Y352851D01*
Y352318D01*
X927102Y351784D01*
X926569D01*
X926036Y352318D01*
Y353384D01*
X926569Y353917D01*
X916036Y360315D02*
X919234D01*
Y358716D01*
X918701Y358182D01*
X917635D01*
X917102Y358716D01*
Y360315D01*
Y359249D02*
X916036Y358182D01*
X919234Y354983D02*
Y357116D01*
X917635D01*
X918168Y356050D01*
Y355517D01*
X917635Y354983D01*
X916569D01*
X916036Y355517D01*
Y356583D01*
X916569Y357116D01*
X916036Y351784D02*
Y353917D01*
X918168Y351784D01*
X918701D01*
X919234Y352318D01*
Y353384D01*
X918701Y353917D01*
X904903Y363450D02*
Y366649D01*
X906502D01*
X907036Y366116D01*
Y365050D01*
X906502Y364516D01*
X904903D01*
X905969D02*
X907036Y363450D01*
X910235Y366649D02*
X908102D01*
Y365050D01*
X909168Y365583D01*
X909701D01*
X910235Y365050D01*
Y363983D01*
X909701Y363450D01*
X908635D01*
X908102Y363983D01*
X911301Y363450D02*
X912367D01*
X911834D01*
Y366649D01*
X911301Y366116D01*
X700870Y214950D02*
Y218149D01*
X702469D01*
X703002Y217616D01*
Y216550D01*
X702469Y216017D01*
X700870D01*
X701936D02*
X703002Y214950D01*
X706201Y218149D02*
X704069D01*
Y216550D01*
X705135Y217083D01*
X705668D01*
X706201Y216550D01*
Y215483D01*
X705668Y214950D01*
X704602D01*
X704069Y215483D01*
X707268Y217616D02*
X707801Y218149D01*
X708867D01*
X709400Y217616D01*
Y215483D01*
X708867Y214950D01*
X707801D01*
X707268Y215483D01*
Y217616D01*
X688870Y222950D02*
Y226149D01*
X690469D01*
X691002Y225616D01*
Y224550D01*
X690469Y224016D01*
X688870D01*
X689936D02*
X691002Y222950D01*
X693668D02*
Y226149D01*
X692069Y224550D01*
X694201D01*
X695268Y225616D02*
X695801Y226149D01*
X696867D01*
X697400Y225616D01*
Y225083D01*
X696867Y224550D01*
X697400Y224016D01*
Y223483D01*
X696867Y222950D01*
X695801D01*
X695268Y223483D01*
Y224016D01*
X695801Y224550D01*
X695268Y225083D01*
Y225616D01*
X695801Y224550D02*
X696867D01*
X700870Y237950D02*
Y241149D01*
X702469D01*
X703002Y240616D01*
Y239550D01*
X702469Y239017D01*
X700870D01*
X701936D02*
X703002Y237950D01*
X705668D02*
Y241149D01*
X704069Y239550D01*
X706201D01*
X707268Y241149D02*
X709400D01*
Y240616D01*
X707268Y238483D01*
Y237950D01*
X743870Y230450D02*
Y233649D01*
X745469D01*
X746002Y233116D01*
Y232050D01*
X745469Y231517D01*
X743870D01*
X744936D02*
X746002Y230450D01*
X748668D02*
Y233649D01*
X747069Y232050D01*
X749201D01*
X752400Y233649D02*
X751334Y233116D01*
X750268Y232050D01*
Y230983D01*
X750801Y230450D01*
X751867D01*
X752400Y230983D01*
Y231517D01*
X751867Y232050D01*
X750268D01*
X954370Y326450D02*
Y329649D01*
X955969D01*
X956502Y329116D01*
Y328050D01*
X955969Y327517D01*
X954370D01*
X955436D02*
X956502Y326450D01*
X959168D02*
Y329649D01*
X957569Y328050D01*
X959701D01*
X962900Y329649D02*
X960768D01*
Y328050D01*
X961834Y328583D01*
X962367D01*
X962900Y328050D01*
Y326983D01*
X962367Y326450D01*
X961301D01*
X960768Y326983D01*
X695735Y346784D02*
X692535D01*
Y348384D01*
X693069Y348917D01*
X694135D01*
X694668Y348384D01*
Y346784D01*
Y347851D02*
X695735Y348917D01*
Y351583D02*
X692535D01*
X694135Y349983D01*
Y352116D01*
X695735Y354782D02*
X692535D01*
X694135Y353182D01*
Y355315D01*
X717235Y312284D02*
X714036D01*
Y313884D01*
X714569Y314417D01*
X715635D01*
X716168Y313884D01*
Y312284D01*
Y313351D02*
X717235Y314417D01*
Y317083D02*
X714036D01*
X715635Y315483D01*
Y317616D01*
X714569Y318682D02*
X714036Y319215D01*
Y320282D01*
X714569Y320815D01*
X715102D01*
X715635Y320282D01*
Y319749D01*
Y320282D01*
X716168Y320815D01*
X716701D01*
X717235Y320282D01*
Y319215D01*
X716701Y318682D01*
X678370Y360950D02*
Y364149D01*
X679969D01*
X680502Y363616D01*
Y362550D01*
X679969Y362017D01*
X678370D01*
X679436D02*
X680502Y360950D01*
X683168D02*
Y364149D01*
X681569Y362550D01*
X683701D01*
X686900Y360950D02*
X684768D01*
X686900Y363083D01*
Y363616D01*
X686367Y364149D01*
X685301D01*
X684768Y363616D01*
X744535Y325782D02*
X747734D01*
Y324182D01*
X747201Y323649D01*
X746135D01*
X745602Y324182D01*
Y325782D01*
Y324715D02*
X744535Y323649D01*
Y320983D02*
X747734D01*
X746135Y322583D01*
Y320450D01*
X744535Y319384D02*
Y318318D01*
Y318851D01*
X747734D01*
X747201Y319384D01*
X821735Y341284D02*
X818536D01*
Y342884D01*
X819069Y343417D01*
X820135D01*
X820668Y342884D01*
Y341284D01*
Y342351D02*
X821735Y343417D01*
Y346083D02*
X818536D01*
X820135Y344483D01*
Y346616D01*
X819069Y347682D02*
X818536Y348216D01*
Y349282D01*
X819069Y349815D01*
X821201D01*
X821735Y349282D01*
Y348216D01*
X821201Y347682D01*
X819069D01*
X831734Y302784D02*
X828535D01*
Y304384D01*
X829069Y304917D01*
X830135D01*
X830668Y304384D01*
Y302784D01*
Y303851D02*
X831734Y304917D01*
X829069Y305983D02*
X828535Y306517D01*
Y307583D01*
X829069Y308116D01*
X829602D01*
X830135Y307583D01*
Y307050D01*
Y307583D01*
X830668Y308116D01*
X831201D01*
X831734Y307583D01*
Y306517D01*
X831201Y305983D01*
Y309182D02*
X831734Y309716D01*
Y310782D01*
X831201Y311315D01*
X829069D01*
X828535Y310782D01*
Y309716D01*
X829069Y309182D01*
X829602D01*
X830135Y309716D01*
Y311315D01*
X801370Y354450D02*
Y357649D01*
X802969D01*
X803502Y357116D01*
Y356050D01*
X802969Y355517D01*
X801370D01*
X802436D02*
X803502Y354450D01*
X804569Y357116D02*
X805102Y357649D01*
X806168D01*
X806701Y357116D01*
Y356583D01*
X806168Y356050D01*
X805635D01*
X806168D01*
X806701Y355517D01*
Y354983D01*
X806168Y354450D01*
X805102D01*
X804569Y354983D01*
X807768Y357116D02*
X808301Y357649D01*
X809367D01*
X809900Y357116D01*
Y356583D01*
X809367Y356050D01*
X809900Y355517D01*
Y354983D01*
X809367Y354450D01*
X808301D01*
X807768Y354983D01*
Y355517D01*
X808301Y356050D01*
X807768Y356583D01*
Y357116D01*
X808301Y356050D02*
X809367D01*
X864235Y308784D02*
X861036D01*
Y310384D01*
X861569Y310917D01*
X862635D01*
X863168Y310384D01*
Y308784D01*
Y309851D02*
X864235Y310917D01*
X861569Y311983D02*
X861036Y312516D01*
Y313583D01*
X861569Y314116D01*
X862102D01*
X862635Y313583D01*
Y313050D01*
Y313583D01*
X863168Y314116D01*
X863701D01*
X864235Y313583D01*
Y312516D01*
X863701Y311983D01*
X861036Y315182D02*
Y317315D01*
X861569D01*
X863701Y315182D01*
X864235D01*
X942735Y213284D02*
X939536D01*
Y214884D01*
X940069Y215417D01*
X941135D01*
X941668Y214884D01*
Y213284D01*
Y214351D02*
X942735Y215417D01*
X940069Y216483D02*
X939536Y217017D01*
Y218083D01*
X940069Y218616D01*
X940602D01*
X941135Y218083D01*
Y217550D01*
Y218083D01*
X941668Y218616D01*
X942201D01*
X942735Y218083D01*
Y217017D01*
X942201Y216483D01*
X942735Y221815D02*
Y219682D01*
X940602Y221815D01*
X940069D01*
X939536Y221282D01*
Y220216D01*
X940069Y219682D01*
X945903Y218450D02*
Y221649D01*
X947502D01*
X948036Y221116D01*
Y220050D01*
X947502Y219516D01*
X945903D01*
X946969D02*
X948036Y218450D01*
X949102Y221116D02*
X949635Y221649D01*
X950701D01*
X951235Y221116D01*
Y220583D01*
X950701Y220050D01*
X950168D01*
X950701D01*
X951235Y219516D01*
Y218983D01*
X950701Y218450D01*
X949635D01*
X949102Y218983D01*
X952301Y218450D02*
X953367D01*
X952834D01*
Y221649D01*
X952301Y221116D01*
X938370Y128950D02*
Y132149D01*
X939969D01*
X940502Y131616D01*
Y130550D01*
X939969Y130017D01*
X938370D01*
X939436D02*
X940502Y128950D01*
X941569Y131616D02*
X942102Y132149D01*
X943168D01*
X943701Y131616D01*
Y131083D01*
X943168Y130550D01*
X942635D01*
X943168D01*
X943701Y130017D01*
Y129483D01*
X943168Y128950D01*
X942102D01*
X941569Y129483D01*
X944768Y131616D02*
X945301Y132149D01*
X946367D01*
X946900Y131616D01*
Y129483D01*
X946367Y128950D01*
X945301D01*
X944768Y129483D01*
Y131616D01*
X886870Y160950D02*
Y164149D01*
X888469D01*
X889002Y163616D01*
Y162550D01*
X888469Y162016D01*
X886870D01*
X887936D02*
X889002Y160950D01*
X892201D02*
X890069D01*
X892201Y163083D01*
Y163616D01*
X891668Y164149D01*
X890602D01*
X890069Y163616D01*
X893268Y161483D02*
X893801Y160950D01*
X894867D01*
X895400Y161483D01*
Y163616D01*
X894867Y164149D01*
X893801D01*
X893268Y163616D01*
Y163083D01*
X893801Y162550D01*
X895400D01*
X874734Y155784D02*
X871535D01*
Y157384D01*
X872069Y157917D01*
X873135D01*
X873668Y157384D01*
Y155784D01*
Y156851D02*
X874734Y157917D01*
Y161116D02*
Y158983D01*
X872602Y161116D01*
X872069D01*
X871535Y160583D01*
Y159517D01*
X872069Y158983D01*
Y162182D02*
X871535Y162715D01*
Y163782D01*
X872069Y164315D01*
X872602D01*
X873135Y163782D01*
X873668Y164315D01*
X874201D01*
X874734Y163782D01*
Y162715D01*
X874201Y162182D01*
X873668D01*
X873135Y162715D01*
X872602Y162182D01*
X872069D01*
X873135Y162715D02*
Y163782D01*
X923734Y104284D02*
X920535D01*
Y105884D01*
X921069Y106417D01*
X922135D01*
X922668Y105884D01*
Y104284D01*
Y105351D02*
X923734Y106417D01*
Y109616D02*
Y107483D01*
X921602Y109616D01*
X921069D01*
X920535Y109083D01*
Y108017D01*
X921069Y107483D01*
X920535Y110682D02*
Y112815D01*
X921069D01*
X923201Y110682D01*
X923734D01*
X932370Y119450D02*
Y122649D01*
X933969D01*
X934502Y122116D01*
Y121050D01*
X933969Y120517D01*
X932370D01*
X933436D02*
X934502Y119450D01*
X937701D02*
X935569D01*
X937701Y121583D01*
Y122116D01*
X937168Y122649D01*
X936102D01*
X935569Y122116D01*
X940900Y122649D02*
X939834Y122116D01*
X938768Y121050D01*
Y119983D01*
X939301Y119450D01*
X940367D01*
X940900Y119983D01*
Y120517D01*
X940367Y121050D01*
X938768D01*
X903734Y104784D02*
X900535D01*
Y106384D01*
X901069Y106917D01*
X902135D01*
X902668Y106384D01*
Y104784D01*
Y105851D02*
X903734Y106917D01*
Y110116D02*
Y107983D01*
X901602Y110116D01*
X901069D01*
X900535Y109583D01*
Y108517D01*
X901069Y107983D01*
X900535Y113315D02*
Y111182D01*
X902135D01*
X901602Y112249D01*
Y112782D01*
X902135Y113315D01*
X903201D01*
X903734Y112782D01*
Y111715D01*
X903201Y111182D01*
X918734Y103784D02*
X915536D01*
Y105384D01*
X916069Y105917D01*
X917135D01*
X917668Y105384D01*
Y103784D01*
Y104851D02*
X918734Y105917D01*
Y109116D02*
Y106983D01*
X916602Y109116D01*
X916069D01*
X915536Y108583D01*
Y107517D01*
X916069Y106983D01*
X918734Y111782D02*
X915536D01*
X917135Y110182D01*
Y112315D01*
X872370Y222450D02*
Y225649D01*
X873969D01*
X874502Y225116D01*
Y224050D01*
X873969Y223517D01*
X872370D01*
X873436D02*
X874502Y222450D01*
X877701D02*
X875569D01*
X877701Y224583D01*
Y225116D01*
X877168Y225649D01*
X876102D01*
X875569Y225116D01*
X878768D02*
X879301Y225649D01*
X880367D01*
X880900Y225116D01*
Y224583D01*
X880367Y224050D01*
X879834D01*
X880367D01*
X880900Y223517D01*
Y222983D01*
X880367Y222450D01*
X879301D01*
X878768Y222983D01*
X886870Y114950D02*
Y118149D01*
X888469D01*
X889002Y117616D01*
Y116550D01*
X888469Y116016D01*
X886870D01*
X887936D02*
X889002Y114950D01*
X892201D02*
X890069D01*
X892201Y117083D01*
Y117616D01*
X891668Y118149D01*
X890602D01*
X890069Y117616D01*
X895400Y114950D02*
X893268D01*
X895400Y117083D01*
Y117616D01*
X894867Y118149D01*
X893801D01*
X893268Y117616D01*
X887234Y207317D02*
X884035D01*
Y208917D01*
X884569Y209450D01*
X885635D01*
X886168Y208917D01*
Y207317D01*
Y208384D02*
X887234Y209450D01*
Y212649D02*
Y210517D01*
X885102Y212649D01*
X884569D01*
X884035Y212116D01*
Y211050D01*
X884569Y210517D01*
X887234Y213716D02*
Y214782D01*
Y214249D01*
X884035D01*
X884569Y213716D01*
X952234Y242784D02*
X949035D01*
Y244384D01*
X949569Y244917D01*
X950635D01*
X951168Y244384D01*
Y242784D01*
Y243851D02*
X952234Y244917D01*
Y248116D02*
Y245983D01*
X950102Y248116D01*
X949569D01*
X949035Y247583D01*
Y246516D01*
X949569Y245983D01*
Y249182D02*
X949035Y249715D01*
Y250782D01*
X949569Y251315D01*
X951701D01*
X952234Y250782D01*
Y249715D01*
X951701Y249182D01*
X949569D01*
X957234Y243051D02*
X954035D01*
Y244651D01*
X954569Y245184D01*
X955635D01*
X956168Y244651D01*
Y243051D01*
Y244117D02*
X957234Y245184D01*
Y246250D02*
Y247316D01*
Y246783D01*
X954035D01*
X954569Y246250D01*
X956701Y248916D02*
X957234Y249449D01*
Y250515D01*
X956701Y251048D01*
X954569D01*
X954035Y250515D01*
Y249449D01*
X954569Y248916D01*
X955102D01*
X955635Y249449D01*
Y251048D01*
X894636Y170450D02*
Y173649D01*
X896236D01*
X896769Y173116D01*
Y172050D01*
X896236Y171517D01*
X894636D01*
X895703D02*
X896769Y170450D01*
X897835D02*
X898902D01*
X898368D01*
Y173649D01*
X897835Y173116D01*
X900501D02*
X901034Y173649D01*
X902101D01*
X902634Y173116D01*
Y172583D01*
X902101Y172050D01*
X902634Y171517D01*
Y170983D01*
X902101Y170450D01*
X901034D01*
X900501Y170983D01*
Y171517D01*
X901034Y172050D01*
X900501Y172583D01*
Y173116D01*
X901034Y172050D02*
X902101D01*
X898234Y105051D02*
X895035D01*
Y106650D01*
X895569Y107184D01*
X896635D01*
X897168Y106650D01*
Y105051D01*
Y106117D02*
X898234Y107184D01*
Y108250D02*
Y109316D01*
Y108783D01*
X895035D01*
X895569Y108250D01*
X895035Y110916D02*
Y113048D01*
X895569D01*
X897701Y110916D01*
X898234D01*
X709294Y174281D02*
Y177480D01*
X710894D01*
X711427Y176946D01*
Y175880D01*
X710894Y175347D01*
X709294D01*
X710361D02*
X711427Y174281D01*
X712493D02*
X713560D01*
X713027D01*
Y177480D01*
X712493Y176946D01*
X717292Y177480D02*
X715159D01*
Y175880D01*
X716225Y176413D01*
X716759D01*
X717292Y175880D01*
Y174814D01*
X716759Y174281D01*
X715692D01*
X715159Y174814D01*
X828636Y182450D02*
Y185649D01*
X830236D01*
X830769Y185116D01*
Y184050D01*
X830236Y183517D01*
X828636D01*
X829703D02*
X830769Y182450D01*
X831835D02*
X832902D01*
X832368D01*
Y185649D01*
X831835Y185116D01*
X836101Y182450D02*
Y185649D01*
X834501Y184050D01*
X836634D01*
X825235Y201051D02*
X822036D01*
Y202650D01*
X822569Y203184D01*
X823635D01*
X824168Y202650D01*
Y201051D01*
Y202117D02*
X825235Y203184D01*
Y204250D02*
Y205316D01*
Y204783D01*
X822036D01*
X822569Y204250D01*
Y206916D02*
X822036Y207449D01*
Y208515D01*
X822569Y209048D01*
X823102D01*
X823635Y208515D01*
Y207982D01*
Y208515D01*
X824168Y209048D01*
X824701D01*
X825235Y208515D01*
Y207449D01*
X824701Y206916D01*
X744235Y139551D02*
X741036D01*
Y141150D01*
X741569Y141684D01*
X742635D01*
X743168Y141150D01*
Y139551D01*
Y140617D02*
X744235Y141684D01*
Y142750D02*
Y143816D01*
Y143283D01*
X741036D01*
X741569Y142750D01*
X744235Y147548D02*
Y145416D01*
X742102Y147548D01*
X741569D01*
X741036Y147015D01*
Y145949D01*
X741569Y145416D01*
X747169Y185450D02*
Y188649D01*
X748769D01*
X749302Y188116D01*
Y187050D01*
X748769Y186516D01*
X747169D01*
X748236D02*
X749302Y185450D01*
X750368D02*
X751435D01*
X750902D01*
Y188649D01*
X750368Y188116D01*
X753034Y185450D02*
X754101D01*
X753567D01*
Y188649D01*
X753034Y188116D01*
X739636Y122950D02*
Y126149D01*
X741236D01*
X741769Y125616D01*
Y124550D01*
X741236Y124016D01*
X739636D01*
X740703D02*
X741769Y122950D01*
X742835D02*
X743902D01*
X743368D01*
Y126149D01*
X742835Y125616D01*
X745501D02*
X746034Y126149D01*
X747101D01*
X747634Y125616D01*
Y123483D01*
X747101Y122950D01*
X746034D01*
X745501Y123483D01*
Y125616D01*
X721969Y126950D02*
Y130149D01*
X723569D01*
X724102Y129616D01*
Y128550D01*
X723569Y128016D01*
X721969D01*
X723036D02*
X724102Y126950D01*
X725168Y127483D02*
X725701Y126950D01*
X726768D01*
X727301Y127483D01*
Y129616D01*
X726768Y130149D01*
X725701D01*
X725168Y129616D01*
Y129083D01*
X725701Y128550D01*
X727301D01*
X765969Y202950D02*
Y206149D01*
X767569D01*
X768102Y205616D01*
Y204550D01*
X767569Y204016D01*
X765969D01*
X767036D02*
X768102Y202950D01*
X769168Y205616D02*
X769701Y206149D01*
X770768D01*
X771301Y205616D01*
Y205083D01*
X770768Y204550D01*
X771301Y204016D01*
Y203483D01*
X770768Y202950D01*
X769701D01*
X769168Y203483D01*
Y204016D01*
X769701Y204550D01*
X769168Y205083D01*
Y205616D01*
X769701Y204550D02*
X770768D01*
X837469Y165950D02*
Y169149D01*
X839069D01*
X839602Y168616D01*
Y167550D01*
X839069Y167016D01*
X837469D01*
X838536D02*
X839602Y165950D01*
X840668Y169149D02*
X842801D01*
Y168616D01*
X840668Y166483D01*
Y165950D01*
X727469Y200950D02*
Y204149D01*
X729069D01*
X729602Y203616D01*
Y202550D01*
X729069Y202016D01*
X727469D01*
X728536D02*
X729602Y200950D01*
X732801Y204149D02*
X731735Y203616D01*
X730668Y202550D01*
Y201483D01*
X731201Y200950D01*
X732268D01*
X732801Y201483D01*
Y202016D01*
X732268Y202550D01*
X730668D01*
X750469Y206950D02*
Y210149D01*
X752069D01*
X752602Y209616D01*
Y208550D01*
X752069Y208016D01*
X750469D01*
X751536D02*
X752602Y206950D01*
X755801Y210149D02*
X753668D01*
Y208550D01*
X754735Y209083D01*
X755268D01*
X755801Y208550D01*
Y207483D01*
X755268Y206950D01*
X754201D01*
X753668Y207483D01*
X742469Y200950D02*
Y204149D01*
X744069D01*
X744602Y203616D01*
Y202550D01*
X744069Y202016D01*
X742469D01*
X743536D02*
X744602Y200950D01*
X747268D02*
Y204149D01*
X745668Y202550D01*
X747801D01*
X695469Y368450D02*
Y371649D01*
X697069D01*
X697602Y371116D01*
Y370050D01*
X697069Y369516D01*
X695469D01*
X696536D02*
X697602Y368450D01*
X698668Y371116D02*
X699201Y371649D01*
X700268D01*
X700801Y371116D01*
Y370583D01*
X700268Y370050D01*
X699734D01*
X700268D01*
X700801Y369516D01*
Y368983D01*
X700268Y368450D01*
X699201D01*
X698668Y368983D01*
X822502Y362950D02*
Y366149D01*
X824102D01*
X824635Y365616D01*
Y364550D01*
X824102Y364017D01*
X822502D01*
X823569D02*
X824635Y362950D01*
X825701D02*
X826768D01*
X826235D01*
Y366149D01*
X825701Y365616D01*
X791602Y185483D02*
Y187616D01*
X791069Y188149D01*
X790002D01*
X789469Y187616D01*
Y185483D01*
X790002Y184950D01*
X791069D01*
X790536Y186016D02*
X791602Y184950D01*
X791069D02*
X791602Y185483D01*
X794268Y184950D02*
Y188149D01*
X792668Y186550D01*
X794801D01*
X740102Y184983D02*
Y187116D01*
X739569Y187649D01*
X738502D01*
X737969Y187116D01*
Y184983D01*
X738502Y184450D01*
X739569D01*
X739036Y185517D02*
X740102Y184450D01*
X739569D02*
X740102Y184983D01*
X741168Y187116D02*
X741701Y187649D01*
X742768D01*
X743301Y187116D01*
Y186583D01*
X742768Y186050D01*
X742235D01*
X742768D01*
X743301Y185517D01*
Y184983D01*
X742768Y184450D01*
X741701D01*
X741168Y184983D01*
X643469Y311149D02*
Y307950D01*
X645602D01*
X648268D02*
Y311149D01*
X646668Y309550D01*
X648801D01*
X825211Y310215D02*
X822012D01*
Y308083D01*
X824678Y307016D02*
X825211Y306483D01*
Y305417D01*
X824678Y304884D01*
X824145D01*
X823611Y305417D01*
Y305950D01*
Y305417D01*
X823078Y304884D01*
X822545D01*
X822012Y305417D01*
Y306483D01*
X822545Y307016D01*
X704053Y188069D02*
Y184870D01*
X705653D01*
X706186Y185403D01*
Y187536D01*
X705653Y188069D01*
X704053D01*
X707252Y184870D02*
X708318D01*
X707785D01*
Y188069D01*
X707252Y187536D01*
X711517Y184870D02*
Y188069D01*
X709918Y186469D01*
X712050D01*
X773636Y155649D02*
Y152450D01*
X775236D01*
X775769Y152983D01*
Y155116D01*
X775236Y155649D01*
X773636D01*
X776835Y152450D02*
X777902D01*
X777368D01*
Y155649D01*
X776835Y155116D01*
X779501D02*
X780034Y155649D01*
X781101D01*
X781634Y155116D01*
Y154583D01*
X781101Y154050D01*
X780567D01*
X781101D01*
X781634Y153516D01*
Y152983D01*
X781101Y152450D01*
X780034D01*
X779501Y152983D01*
X763136Y155649D02*
Y152450D01*
X764736D01*
X765269Y152983D01*
Y155116D01*
X764736Y155649D01*
X763136D01*
X766335Y152450D02*
X767402D01*
X766868D01*
Y155649D01*
X766335Y155116D01*
X771134Y152450D02*
X769001D01*
X771134Y154583D01*
Y155116D01*
X770601Y155649D01*
X769534D01*
X769001Y155116D01*
X761169Y192149D02*
Y188950D01*
X762769D01*
X763302Y189483D01*
Y191616D01*
X762769Y192149D01*
X761169D01*
X764368Y188950D02*
X765435D01*
X764902D01*
Y192149D01*
X764368Y191616D01*
X767034Y188950D02*
X768101D01*
X767567D01*
Y192149D01*
X767034Y191616D01*
X885136Y159149D02*
Y155950D01*
X886736D01*
X887269Y156483D01*
Y158616D01*
X886736Y159149D01*
X885136D01*
X888335Y155950D02*
X889402D01*
X888869D01*
Y159149D01*
X888335Y158616D01*
X891001D02*
X891534Y159149D01*
X892601D01*
X893134Y158616D01*
Y156483D01*
X892601Y155950D01*
X891534D01*
X891001Y156483D01*
Y158616D01*
X852969Y125149D02*
Y121950D01*
X854569D01*
X855102Y122483D01*
Y124616D01*
X854569Y125149D01*
X852969D01*
X856168Y122483D02*
X856701Y121950D01*
X857768D01*
X858301Y122483D01*
Y124616D01*
X857768Y125149D01*
X856701D01*
X856168Y124616D01*
Y124083D01*
X856701Y123550D01*
X858301D01*
X915969Y174649D02*
Y171450D01*
X917569D01*
X918102Y171983D01*
Y174116D01*
X917569Y174649D01*
X915969D01*
X919168Y174116D02*
X919701Y174649D01*
X920768D01*
X921301Y174116D01*
Y173583D01*
X920768Y173050D01*
X921301Y172517D01*
Y171983D01*
X920768Y171450D01*
X919701D01*
X919168Y171983D01*
Y172517D01*
X919701Y173050D01*
X919168Y173583D01*
Y174116D01*
X919701Y173050D02*
X920768D01*
X905536Y105384D02*
X908735D01*
Y106983D01*
X908201Y107517D01*
X906069D01*
X905536Y106983D01*
Y105384D01*
Y108583D02*
Y110715D01*
X906069D01*
X908201Y108583D01*
X908735D01*
X910536Y105884D02*
X913735D01*
Y107483D01*
X913201Y108017D01*
X911069D01*
X910536Y107483D01*
Y105884D01*
Y111215D02*
X911069Y110149D01*
X912135Y109083D01*
X913201D01*
X913735Y109616D01*
Y110682D01*
X913201Y111215D01*
X912668D01*
X912135Y110682D01*
Y109083D01*
X874969Y220649D02*
Y217450D01*
X876569D01*
X877102Y217983D01*
Y220116D01*
X876569Y220649D01*
X874969D01*
X880301D02*
X878168D01*
Y219050D01*
X879235Y219583D01*
X879768D01*
X880301Y219050D01*
Y217983D01*
X879768Y217450D01*
X878701D01*
X878168Y217983D01*
X746969Y167649D02*
Y164450D01*
X748569D01*
X749102Y164983D01*
Y167116D01*
X748569Y167649D01*
X746969D01*
X751768Y164450D02*
Y167649D01*
X750168Y166050D01*
X752301D01*
X697969Y355149D02*
Y351950D01*
X699569D01*
X700102Y352483D01*
Y354616D01*
X699569Y355149D01*
X697969D01*
X701168Y354616D02*
X701701Y355149D01*
X702768D01*
X703301Y354616D01*
Y354083D01*
X702768Y353550D01*
X702235D01*
X702768D01*
X703301Y353016D01*
Y352483D01*
X702768Y351950D01*
X701701D01*
X701168Y352483D01*
X824502Y350149D02*
Y346950D01*
X826102D01*
X826635Y347483D01*
Y349616D01*
X826102Y350149D01*
X824502D01*
X827701Y346950D02*
X828768D01*
X828234D01*
Y350149D01*
X827701Y349616D01*
X933669Y356116D02*
X933136Y356649D01*
X932070D01*
X931537Y356116D01*
Y353983D01*
X932070Y353450D01*
X933136D01*
X933669Y353983D01*
X934736Y353450D02*
X935802D01*
X935269D01*
Y356649D01*
X934736Y356116D01*
X939534Y356649D02*
X938468Y356116D01*
X937402Y355050D01*
Y353983D01*
X937935Y353450D01*
X939001D01*
X939534Y353983D01*
Y354517D01*
X939001Y355050D01*
X937402D01*
X940601Y356116D02*
X941134Y356649D01*
X942200D01*
X942733Y356116D01*
Y355583D01*
X942200Y355050D01*
X942733Y354517D01*
Y353983D01*
X942200Y353450D01*
X941134D01*
X940601Y353983D01*
Y354517D01*
X941134Y355050D01*
X940601Y355583D01*
Y356116D01*
X941134Y355050D02*
X942200D01*
X949669Y338116D02*
X949136Y338649D01*
X948070D01*
X947537Y338116D01*
Y335983D01*
X948070Y335450D01*
X949136D01*
X949669Y335983D01*
X950736Y335450D02*
X951802D01*
X951269D01*
Y338649D01*
X950736Y338116D01*
X955534Y338649D02*
X954468Y338116D01*
X953402Y337050D01*
Y335983D01*
X953935Y335450D01*
X955001D01*
X955534Y335983D01*
Y336516D01*
X955001Y337050D01*
X953402D01*
X956601Y338649D02*
X958733D01*
Y338116D01*
X956601Y335983D01*
Y335450D01*
X1030069Y333584D02*
X1029535Y333051D01*
Y331985D01*
X1030069Y331452D01*
X1032201D01*
X1032734Y331985D01*
Y333051D01*
X1032201Y333584D01*
X1032734Y334650D02*
Y335717D01*
Y335184D01*
X1029535D01*
X1030069Y334650D01*
X1029535Y339449D02*
X1030069Y338383D01*
X1031135Y337316D01*
X1032201D01*
X1032734Y337849D01*
Y338916D01*
X1032201Y339449D01*
X1031668D01*
X1031135Y338916D01*
Y337316D01*
X1029535Y342648D02*
X1030069Y341582D01*
X1031135Y340515D01*
X1032201D01*
X1032734Y341048D01*
Y342115D01*
X1032201Y342648D01*
X1031668D01*
X1031135Y342115D01*
Y340515D01*
X1021669Y327116D02*
X1021136Y327649D01*
X1020070D01*
X1019537Y327116D01*
Y324983D01*
X1020070Y324450D01*
X1021136D01*
X1021669Y324983D01*
X1022736Y324450D02*
X1023802D01*
X1023269D01*
Y327649D01*
X1022736Y327116D01*
X1027534Y327649D02*
X1026468Y327116D01*
X1025402Y326050D01*
Y324983D01*
X1025935Y324450D01*
X1027001D01*
X1027534Y324983D01*
Y325517D01*
X1027001Y326050D01*
X1025402D01*
X1030733Y327649D02*
X1028601D01*
Y326050D01*
X1029667Y326583D01*
X1030200D01*
X1030733Y326050D01*
Y324983D01*
X1030200Y324450D01*
X1029134D01*
X1028601Y324983D01*
X792502Y364616D02*
X791969Y365149D01*
X790903D01*
X790370Y364616D01*
Y362483D01*
X790903Y361950D01*
X791969D01*
X792502Y362483D01*
X793569Y365149D02*
X795701D01*
Y364616D01*
X793569Y362483D01*
Y361950D01*
X798900Y365149D02*
X797834Y364616D01*
X796768Y363550D01*
Y362483D01*
X797301Y361950D01*
X798367D01*
X798900Y362483D01*
Y363017D01*
X798367Y363550D01*
X796768D01*
X865502Y304116D02*
X864969Y304649D01*
X863903D01*
X863370Y304116D01*
Y301983D01*
X863903Y301450D01*
X864969D01*
X865502Y301983D01*
X866569Y304649D02*
X868701D01*
Y304116D01*
X866569Y301983D01*
Y301450D01*
X871900D02*
X869768D01*
X871900Y303583D01*
Y304116D01*
X871367Y304649D01*
X870301D01*
X869768Y304116D01*
X866535Y298116D02*
X866002Y298649D01*
X864936D01*
X864403Y298116D01*
Y295983D01*
X864936Y295450D01*
X866002D01*
X866535Y295983D01*
X867602Y298649D02*
X869734D01*
Y298116D01*
X867602Y295983D01*
Y295450D01*
X870801D02*
X871867D01*
X871334D01*
Y298649D01*
X870801Y298116D01*
X996569Y302417D02*
X996035Y301884D01*
Y300817D01*
X996569Y300284D01*
X998701D01*
X999234Y300817D01*
Y301884D01*
X998701Y302417D01*
X996035Y303483D02*
Y305616D01*
X996569D01*
X998701Y303483D01*
X999234D01*
X996569Y306682D02*
X996035Y307215D01*
Y308282D01*
X996569Y308815D01*
X998701D01*
X999234Y308282D01*
Y307215D01*
X998701Y306682D01*
X996569D01*
X889002Y342616D02*
X888469Y343149D01*
X887403D01*
X886870Y342616D01*
Y340483D01*
X887403Y339950D01*
X888469D01*
X889002Y340483D01*
X892201Y343149D02*
X891135Y342616D01*
X890069Y341550D01*
Y340483D01*
X890602Y339950D01*
X891668D01*
X892201Y340483D01*
Y341017D01*
X891668Y341550D01*
X890069D01*
X893268Y343149D02*
X895400D01*
Y342616D01*
X893268Y340483D01*
Y339950D01*
X991152Y350649D02*
X990619Y351182D01*
X989552D01*
X989019Y350649D01*
Y348516D01*
X989552Y347983D01*
X990619D01*
X991152Y348516D01*
X994351Y351182D02*
X993285Y350649D01*
X992218Y349583D01*
Y348516D01*
X992751Y347983D01*
X993818D01*
X994351Y348516D01*
Y349049D01*
X993818Y349583D01*
X992218D01*
X997550Y351182D02*
X996484Y350649D01*
X995417Y349583D01*
Y348516D01*
X995950Y347983D01*
X997017D01*
X997550Y348516D01*
Y349049D01*
X997017Y349583D01*
X995417D01*
X1002069Y302417D02*
X1001536Y301884D01*
Y300817D01*
X1002069Y300284D01*
X1004201D01*
X1004735Y300817D01*
Y301884D01*
X1004201Y302417D01*
X1001536Y305616D02*
X1002069Y304550D01*
X1003135Y303483D01*
X1004201D01*
X1004735Y304016D01*
Y305083D01*
X1004201Y305616D01*
X1003668D01*
X1003135Y305083D01*
Y303483D01*
X1001536Y308815D02*
Y306682D01*
X1003135D01*
X1002602Y307749D01*
Y308282D01*
X1003135Y308815D01*
X1004201D01*
X1004735Y308282D01*
Y307215D01*
X1004201Y306682D01*
X981502Y295116D02*
X980969Y295649D01*
X979903D01*
X979370Y295116D01*
Y292983D01*
X979903Y292450D01*
X980969D01*
X981502Y292983D01*
X984701Y295649D02*
X983635Y295116D01*
X982569Y294050D01*
Y292983D01*
X983102Y292450D01*
X984168D01*
X984701Y292983D01*
Y293516D01*
X984168Y294050D01*
X982569D01*
X987367Y292450D02*
Y295649D01*
X985768Y294050D01*
X987900D01*
X906502Y371116D02*
X905969Y371649D01*
X904903D01*
X904370Y371116D01*
Y368983D01*
X904903Y368450D01*
X905969D01*
X906502Y368983D01*
X909701Y371649D02*
X908635Y371116D01*
X907569Y370050D01*
Y368983D01*
X908102Y368450D01*
X909168D01*
X909701Y368983D01*
Y369516D01*
X909168Y370050D01*
X907569D01*
X910768Y371116D02*
X911301Y371649D01*
X912367D01*
X912900Y371116D01*
Y370583D01*
X912367Y370050D01*
X911834D01*
X912367D01*
X912900Y369516D01*
Y368983D01*
X912367Y368450D01*
X911301D01*
X910768Y368983D01*
X722002Y210616D02*
X721469Y211149D01*
X720403D01*
X719870Y210616D01*
Y208483D01*
X720403Y207950D01*
X721469D01*
X722002Y208483D01*
X725201Y211149D02*
X724135Y210616D01*
X723069Y209550D01*
Y208483D01*
X723602Y207950D01*
X724668D01*
X725201Y208483D01*
Y209016D01*
X724668Y209550D01*
X723069D01*
X728400Y207950D02*
X726268D01*
X728400Y210083D01*
Y210616D01*
X727867Y211149D01*
X726801D01*
X726268Y210616D01*
X745536Y224116D02*
X745002Y224649D01*
X743936D01*
X743403Y224116D01*
Y221983D01*
X743936Y221450D01*
X745002D01*
X745536Y221983D01*
X748735Y224649D02*
X747668Y224116D01*
X746602Y223050D01*
Y221983D01*
X747135Y221450D01*
X748201D01*
X748735Y221983D01*
Y222516D01*
X748201Y223050D01*
X746602D01*
X749801Y221450D02*
X750867D01*
X750334D01*
Y224649D01*
X749801Y224116D01*
X691002Y234116D02*
X690469Y234649D01*
X689403D01*
X688870Y234116D01*
Y231983D01*
X689403Y231450D01*
X690469D01*
X691002Y231983D01*
X694201Y234649D02*
X693135Y234116D01*
X692069Y233050D01*
Y231983D01*
X692602Y231450D01*
X693668D01*
X694201Y231983D01*
Y232517D01*
X693668Y233050D01*
X692069D01*
X695268Y234116D02*
X695801Y234649D01*
X696867D01*
X697400Y234116D01*
Y231983D01*
X696867Y231450D01*
X695801D01*
X695268Y231983D01*
Y234116D01*
X712069Y241417D02*
X711536Y240884D01*
Y239818D01*
X712069Y239284D01*
X714201D01*
X714735Y239818D01*
Y240884D01*
X714201Y241417D01*
X711536Y244616D02*
Y242483D01*
X713135D01*
X712602Y243550D01*
Y244083D01*
X713135Y244616D01*
X714201D01*
X714735Y244083D01*
Y243017D01*
X714201Y242483D01*
Y245682D02*
X714735Y246216D01*
Y247282D01*
X714201Y247815D01*
X712069D01*
X711536Y247282D01*
Y246216D01*
X712069Y245682D01*
X712602D01*
X713135Y246216D01*
Y247815D01*
X859569Y342917D02*
X859035Y342384D01*
Y341318D01*
X859569Y340784D01*
X861701D01*
X862234Y341318D01*
Y342384D01*
X861701Y342917D01*
X859035Y346116D02*
Y343983D01*
X860635D01*
X860102Y345050D01*
Y345583D01*
X860635Y346116D01*
X861701D01*
X862234Y345583D01*
Y344516D01*
X861701Y343983D01*
X859569Y347182D02*
X859035Y347715D01*
Y348782D01*
X859569Y349315D01*
X860102D01*
X860635Y348782D01*
X861168Y349315D01*
X861701D01*
X862234Y348782D01*
Y347715D01*
X861701Y347182D01*
X861168D01*
X860635Y347715D01*
X860102Y347182D01*
X859569D01*
X860635Y347715D02*
Y348782D01*
X714569Y303917D02*
X714036Y303384D01*
Y302318D01*
X714569Y301784D01*
X716701D01*
X717235Y302318D01*
Y303384D01*
X716701Y303917D01*
X714036Y307116D02*
Y304983D01*
X715635D01*
X715102Y306050D01*
Y306583D01*
X715635Y307116D01*
X716701D01*
X717235Y306583D01*
Y305517D01*
X716701Y304983D01*
X714036Y308182D02*
Y310315D01*
X714569D01*
X716701Y308182D01*
X717235D01*
X719069Y338917D02*
X718536Y338384D01*
Y337318D01*
X719069Y336784D01*
X721201D01*
X721735Y337318D01*
Y338384D01*
X721201Y338917D01*
X718536Y342116D02*
Y339983D01*
X720135D01*
X719602Y341050D01*
Y341583D01*
X720135Y342116D01*
X721201D01*
X721735Y341583D01*
Y340516D01*
X721201Y339983D01*
X718536Y345315D02*
X719069Y344249D01*
X720135Y343182D01*
X721201D01*
X721735Y343716D01*
Y344782D01*
X721201Y345315D01*
X720668D01*
X720135Y344782D01*
Y343182D01*
X746002Y332116D02*
X745469Y332649D01*
X744403D01*
X743870Y332116D01*
Y329983D01*
X744403Y329450D01*
X745469D01*
X746002Y329983D01*
X749201Y332649D02*
X747069D01*
Y331050D01*
X748135Y331583D01*
X748668D01*
X749201Y331050D01*
Y329983D01*
X748668Y329450D01*
X747602D01*
X747069Y329983D01*
X752400Y332649D02*
X750268D01*
Y331050D01*
X751334Y331583D01*
X751867D01*
X752400Y331050D01*
Y329983D01*
X751867Y329450D01*
X750801D01*
X750268Y329983D01*
X680002Y348116D02*
X679469Y348649D01*
X678403D01*
X677870Y348116D01*
Y345983D01*
X678403Y345450D01*
X679469D01*
X680002Y345983D01*
X683201Y348649D02*
X681069D01*
Y347050D01*
X682135Y347583D01*
X682668D01*
X683201Y347050D01*
Y345983D01*
X682668Y345450D01*
X681602D01*
X681069Y345983D01*
X685867Y345450D02*
Y348649D01*
X684268Y347050D01*
X686400D01*
X729569Y304917D02*
X729036Y304384D01*
Y303318D01*
X729569Y302784D01*
X731701D01*
X732234Y303318D01*
Y304384D01*
X731701Y304917D01*
X729036Y308116D02*
Y305983D01*
X730635D01*
X730102Y307050D01*
Y307583D01*
X730635Y308116D01*
X731701D01*
X732234Y307583D01*
Y306517D01*
X731701Y305983D01*
X729569Y309182D02*
X729036Y309716D01*
Y310782D01*
X729569Y311315D01*
X730102D01*
X730635Y310782D01*
Y310249D01*
Y310782D01*
X731168Y311315D01*
X731701D01*
X732234Y310782D01*
Y309716D01*
X731701Y309182D01*
X666002Y349116D02*
X665469Y349649D01*
X664403D01*
X663870Y349116D01*
Y346983D01*
X664403Y346450D01*
X665469D01*
X666002Y346983D01*
X669201Y349649D02*
X667069D01*
Y348050D01*
X668135Y348583D01*
X668668D01*
X669201Y348050D01*
Y346983D01*
X668668Y346450D01*
X667602D01*
X667069Y346983D01*
X672400Y346450D02*
X670268D01*
X672400Y348583D01*
Y349116D01*
X671867Y349649D01*
X670801D01*
X670268Y349116D01*
X739036Y306116D02*
X738502Y306649D01*
X737436D01*
X736903Y306116D01*
Y303983D01*
X737436Y303450D01*
X738502D01*
X739036Y303983D01*
X742235Y306649D02*
X740102D01*
Y305050D01*
X741168Y305583D01*
X741701D01*
X742235Y305050D01*
Y303983D01*
X741701Y303450D01*
X740635D01*
X740102Y303983D01*
X743301Y303450D02*
X744367D01*
X743834D01*
Y306649D01*
X743301Y306116D01*
X829069Y294417D02*
X828535Y293884D01*
Y292818D01*
X829069Y292284D01*
X831201D01*
X831734Y292818D01*
Y293884D01*
X831201Y294417D01*
X828535Y297616D02*
Y295483D01*
X830135D01*
X829602Y296550D01*
Y297083D01*
X830135Y297616D01*
X831201D01*
X831734Y297083D01*
Y296017D01*
X831201Y295483D01*
X829069Y298682D02*
X828535Y299216D01*
Y300282D01*
X829069Y300815D01*
X831201D01*
X831734Y300282D01*
Y299216D01*
X831201Y298682D01*
X829069D01*
X835069Y332417D02*
X834536Y331884D01*
Y330818D01*
X835069Y330284D01*
X837201D01*
X837735Y330818D01*
Y331884D01*
X837201Y332417D01*
X837735Y335083D02*
X834536D01*
X836135Y333483D01*
Y335616D01*
X837201Y336682D02*
X837735Y337215D01*
Y338282D01*
X837201Y338815D01*
X835069D01*
X834536Y338282D01*
Y337215D01*
X835069Y336682D01*
X835602D01*
X836135Y337215D01*
Y338815D01*
X863701Y328682D02*
X864235Y329216D01*
Y330282D01*
X863701Y330815D01*
X861569D01*
X861036Y330282D01*
Y329216D01*
X861569Y328682D01*
X861036Y326016D02*
X864235D01*
X862635Y327616D01*
Y325483D01*
X863701Y324417D02*
X864235Y323884D01*
Y322817D01*
X863701Y322284D01*
X863168D01*
X862635Y322817D01*
X862102Y322284D01*
X861569D01*
X861036Y322817D01*
Y323884D01*
X861569Y324417D01*
X862102D01*
X862635Y323884D01*
X863168Y324417D01*
X863701D01*
X862635Y323884D02*
Y322817D01*
X804002Y340116D02*
X803469Y340649D01*
X802403D01*
X801870Y340116D01*
Y337983D01*
X802403Y337450D01*
X803469D01*
X804002Y337983D01*
X806668Y337450D02*
Y340649D01*
X805069Y339050D01*
X807201D01*
X808268Y340649D02*
X810400D01*
Y340116D01*
X808268Y337983D01*
Y337450D01*
X842069Y284917D02*
X841535Y284384D01*
Y283318D01*
X842069Y282784D01*
X844201D01*
X844734Y283318D01*
Y284384D01*
X844201Y284917D01*
X844734Y287583D02*
X841535D01*
X843135Y285983D01*
Y288116D01*
X841535Y291315D02*
X842069Y290249D01*
X843135Y289182D01*
X844201D01*
X844734Y289716D01*
Y290782D01*
X844201Y291315D01*
X843668D01*
X843135Y290782D01*
Y289182D01*
X789502Y341116D02*
X788969Y341649D01*
X787903D01*
X787370Y341116D01*
Y338983D01*
X787903Y338450D01*
X788969D01*
X789502Y338983D01*
X792168Y338450D02*
Y341649D01*
X790569Y340050D01*
X792701D01*
X795900Y341649D02*
X793768D01*
Y340050D01*
X794834Y340583D01*
X795367D01*
X795900Y340050D01*
Y338983D01*
X795367Y338450D01*
X794301D01*
X793768Y338983D01*
X852502Y295616D02*
X851969Y296149D01*
X850903D01*
X850370Y295616D01*
Y293483D01*
X850903Y292950D01*
X851969D01*
X852502Y293483D01*
X855168Y292950D02*
Y296149D01*
X853569Y294550D01*
X855701D01*
X858367Y292950D02*
Y296149D01*
X856768Y294550D01*
X858900D01*
X949569Y230417D02*
X949035Y229884D01*
Y228818D01*
X949569Y228284D01*
X951701D01*
X952234Y228818D01*
Y229884D01*
X951701Y230417D01*
X949569Y231483D02*
X949035Y232016D01*
Y233083D01*
X949569Y233616D01*
X950102D01*
X950635Y233083D01*
Y232550D01*
Y233083D01*
X951168Y233616D01*
X951701D01*
X952234Y233083D01*
Y232016D01*
X951701Y231483D01*
X949035Y236815D02*
X949569Y235749D01*
X950635Y234682D01*
X951701D01*
X952234Y235215D01*
Y236282D01*
X951701Y236815D01*
X951168D01*
X950635Y236282D01*
Y234682D01*
X947502Y216116D02*
X946969Y216649D01*
X945903D01*
X945370Y216116D01*
Y213983D01*
X945903Y213450D01*
X946969D01*
X947502Y213983D01*
X948569Y216116D02*
X949102Y216649D01*
X950168D01*
X950701Y216116D01*
Y215583D01*
X950168Y215050D01*
X949635D01*
X950168D01*
X950701Y214516D01*
Y213983D01*
X950168Y213450D01*
X949102D01*
X948569Y213983D01*
X953900Y216649D02*
X951768D01*
Y215050D01*
X952834Y215583D01*
X953367D01*
X953900Y215050D01*
Y213983D01*
X953367Y213450D01*
X952301D01*
X951768Y213983D01*
X955569Y224917D02*
X955035Y224384D01*
Y223318D01*
X955569Y222784D01*
X957701D01*
X958235Y223318D01*
Y224384D01*
X957701Y224917D01*
X955569Y225983D02*
X955035Y226517D01*
Y227583D01*
X955569Y228116D01*
X956102D01*
X956635Y227583D01*
Y227050D01*
Y227583D01*
X957168Y228116D01*
X957701D01*
X958235Y227583D01*
Y226517D01*
X957701Y225983D01*
X958235Y230782D02*
X955035D01*
X956635Y229182D01*
Y231315D01*
X968569Y153417D02*
X968036Y152884D01*
Y151818D01*
X968569Y151284D01*
X970701D01*
X971235Y151818D01*
Y152884D01*
X970701Y153417D01*
X968569Y154483D02*
X968036Y155017D01*
Y156083D01*
X968569Y156616D01*
X969102D01*
X969635Y156083D01*
Y155550D01*
Y156083D01*
X970168Y156616D01*
X970701D01*
X971235Y156083D01*
Y155017D01*
X970701Y154483D01*
X968569Y157682D02*
X968036Y158215D01*
Y159282D01*
X968569Y159815D01*
X969102D01*
X969635Y159282D01*
Y158749D01*
Y159282D01*
X970168Y159815D01*
X970701D01*
X971235Y159282D01*
Y158215D01*
X970701Y157682D01*
X952002Y157116D02*
X951469Y157649D01*
X950403D01*
X949870Y157116D01*
Y154983D01*
X950403Y154450D01*
X951469D01*
X952002Y154983D01*
X953069Y157116D02*
X953602Y157649D01*
X954668D01*
X955201Y157116D01*
Y156583D01*
X954668Y156050D01*
X954135D01*
X954668D01*
X955201Y155517D01*
Y154983D01*
X954668Y154450D01*
X953602D01*
X953069Y154983D01*
X958400Y154450D02*
X956268D01*
X958400Y156583D01*
Y157116D01*
X957867Y157649D01*
X956801D01*
X956268Y157116D01*
X892069Y215950D02*
X891535Y215417D01*
Y214351D01*
X892069Y213818D01*
X894201D01*
X894734Y214351D01*
Y215417D01*
X894201Y215950D01*
X892069Y217017D02*
X891535Y217550D01*
Y218616D01*
X892069Y219149D01*
X892602D01*
X893135Y218616D01*
Y218083D01*
Y218616D01*
X893668Y219149D01*
X894201D01*
X894734Y218616D01*
Y217550D01*
X894201Y217017D01*
X894734Y220216D02*
Y221282D01*
Y220749D01*
X891535D01*
X892069Y220216D01*
X939569Y245417D02*
X939036Y244884D01*
Y243817D01*
X939569Y243284D01*
X941701D01*
X942235Y243817D01*
Y244884D01*
X941701Y245417D01*
X939569Y246483D02*
X939036Y247017D01*
Y248083D01*
X939569Y248616D01*
X940102D01*
X940635Y248083D01*
Y247550D01*
Y248083D01*
X941168Y248616D01*
X941701D01*
X942235Y248083D01*
Y247017D01*
X941701Y246483D01*
X939569Y249682D02*
X939036Y250216D01*
Y251282D01*
X939569Y251815D01*
X941701D01*
X942235Y251282D01*
Y250216D01*
X941701Y249682D01*
X939569D01*
X885664Y168183D02*
X885131Y168716D01*
X884064D01*
X883531Y168183D01*
Y166050D01*
X884064Y165517D01*
X885131D01*
X885664Y166050D01*
X888863Y165517D02*
X886730D01*
X888863Y167650D01*
Y168183D01*
X888330Y168716D01*
X887263D01*
X886730Y168183D01*
X889929Y166050D02*
X890462Y165517D01*
X891529D01*
X892062Y166050D01*
Y168183D01*
X891529Y168716D01*
X890462D01*
X889929Y168183D01*
Y167650D01*
X890462Y167117D01*
X892062D01*
X877002Y181616D02*
X876469Y182149D01*
X875403D01*
X874870Y181616D01*
Y179483D01*
X875403Y178950D01*
X876469D01*
X877002Y179483D01*
X880201Y178950D02*
X878069D01*
X880201Y181083D01*
Y181616D01*
X879668Y182149D01*
X878602D01*
X878069Y181616D01*
X881268D02*
X881801Y182149D01*
X882867D01*
X883400Y181616D01*
Y181083D01*
X882867Y180550D01*
X883400Y180017D01*
Y179483D01*
X882867Y178950D01*
X881801D01*
X881268Y179483D01*
Y180017D01*
X881801Y180550D01*
X881268Y181083D01*
Y181616D01*
X881801Y180550D02*
X882867D01*
X863569Y126417D02*
X863035Y125884D01*
Y124818D01*
X863569Y124284D01*
X865701D01*
X866234Y124818D01*
Y125884D01*
X865701Y126417D01*
X866234Y129616D02*
Y127483D01*
X864102Y129616D01*
X863569D01*
X863035Y129083D01*
Y128016D01*
X863569Y127483D01*
X863035Y130682D02*
Y132815D01*
X863569D01*
X865701Y130682D01*
X866234D01*
X863569Y138417D02*
X863035Y137884D01*
Y136818D01*
X863569Y136284D01*
X865701D01*
X866234Y136818D01*
Y137884D01*
X865701Y138417D01*
X866234Y141616D02*
Y139483D01*
X864102Y141616D01*
X863569D01*
X863035Y141083D01*
Y140016D01*
X863569Y139483D01*
X863035Y144815D02*
X863569Y143749D01*
X864635Y142682D01*
X865701D01*
X866234Y143216D01*
Y144282D01*
X865701Y144815D01*
X865168D01*
X864635Y144282D01*
Y142682D01*
X928502Y176116D02*
X927969Y176649D01*
X926903D01*
X926370Y176116D01*
Y173983D01*
X926903Y173450D01*
X927969D01*
X928502Y173983D01*
X931701Y173450D02*
X929569D01*
X931701Y175583D01*
Y176116D01*
X931168Y176649D01*
X930102D01*
X929569Y176116D01*
X934900Y176649D02*
X932768D01*
Y175050D01*
X933834Y175583D01*
X934367D01*
X934900Y175050D01*
Y173983D01*
X934367Y173450D01*
X933301D01*
X932768Y173983D01*
X875502Y215116D02*
X874969Y215649D01*
X873903D01*
X873370Y215116D01*
Y212983D01*
X873903Y212450D01*
X874969D01*
X875502Y212983D01*
X878701Y212450D02*
X876569D01*
X878701Y214583D01*
Y215116D01*
X878168Y215649D01*
X877102D01*
X876569Y215116D01*
X881367Y212450D02*
Y215649D01*
X879768Y214050D01*
X881900D01*
X896502Y178116D02*
X895969Y178649D01*
X894903D01*
X894370Y178116D01*
Y175983D01*
X894903Y175450D01*
X895969D01*
X896502Y175983D01*
X899701Y175450D02*
X897569D01*
X899701Y177583D01*
Y178116D01*
X899168Y178649D01*
X898102D01*
X897569Y178116D01*
X900768D02*
X901301Y178649D01*
X902367D01*
X902900Y178116D01*
Y177583D01*
X902367Y177050D01*
X901834D01*
X902367D01*
X902900Y176516D01*
Y175983D01*
X902367Y175450D01*
X901301D01*
X900768Y175983D01*
X707769Y137616D02*
X707236Y138149D01*
X706170D01*
X705636Y137616D01*
Y135483D01*
X706170Y134950D01*
X707236D01*
X707769Y135483D01*
X708835Y134950D02*
X709902D01*
X709369D01*
Y138149D01*
X708835Y137616D01*
X711501Y138149D02*
X713634D01*
Y137616D01*
X711501Y135483D01*
Y134950D01*
X836769Y196116D02*
X836236Y196649D01*
X835170D01*
X834636Y196116D01*
Y193983D01*
X835170Y193450D01*
X836236D01*
X836769Y193983D01*
X837835Y193450D02*
X838902D01*
X838369D01*
Y196649D01*
X837835Y196116D01*
X842634Y196649D02*
X841567Y196116D01*
X840501Y195050D01*
Y193983D01*
X841034Y193450D01*
X842101D01*
X842634Y193983D01*
Y194517D01*
X842101Y195050D01*
X840501D01*
X778769Y205616D02*
X778236Y206149D01*
X777170D01*
X776636Y205616D01*
Y203483D01*
X777170Y202950D01*
X778236D01*
X778769Y203483D01*
X779835Y202950D02*
X780902D01*
X780369D01*
Y206149D01*
X779835Y205616D01*
X784634Y206149D02*
X782501D01*
Y204550D01*
X783567Y205083D01*
X784101D01*
X784634Y204550D01*
Y203483D01*
X784101Y202950D01*
X783034D01*
X782501Y203483D01*
X742269Y137116D02*
X741736Y137649D01*
X740669D01*
X740136Y137116D01*
Y134983D01*
X740669Y134450D01*
X741736D01*
X742269Y134983D01*
X743335Y134450D02*
X744402D01*
X743868D01*
Y137649D01*
X743335Y137116D01*
X747601Y134450D02*
Y137649D01*
X746001Y136050D01*
X748134D01*
X722269Y121616D02*
X721736Y122149D01*
X720670D01*
X720136Y121616D01*
Y119483D01*
X720670Y118950D01*
X721736D01*
X722269Y119483D01*
X723335Y118950D02*
X724402D01*
X723869D01*
Y122149D01*
X723335Y121616D01*
X726001D02*
X726534Y122149D01*
X727601D01*
X728134Y121616D01*
Y121083D01*
X727601Y120550D01*
X727067D01*
X727601D01*
X728134Y120017D01*
Y119483D01*
X727601Y118950D01*
X726534D01*
X726001Y119483D01*
X783269Y166616D02*
X782736Y167149D01*
X781670D01*
X781136Y166616D01*
Y164483D01*
X781670Y163950D01*
X782736D01*
X783269Y164483D01*
X784335Y163950D02*
X785402D01*
X784868D01*
Y167149D01*
X784335Y166616D01*
X789134Y163950D02*
X787001D01*
X789134Y166083D01*
Y166616D01*
X788601Y167149D01*
X787534D01*
X787001Y166616D01*
X734802Y166116D02*
X734269Y166649D01*
X733203D01*
X732669Y166116D01*
Y163983D01*
X733203Y163450D01*
X734269D01*
X734802Y163983D01*
X735869Y163450D02*
X736935D01*
X736402D01*
Y166649D01*
X735869Y166116D01*
X738534Y163450D02*
X739601D01*
X739067D01*
Y166649D01*
X738534Y166116D01*
X744269Y115616D02*
X743736Y116149D01*
X742669D01*
X742136Y115616D01*
Y113483D01*
X742669Y112950D01*
X743736D01*
X744269Y113483D01*
X745335Y112950D02*
X746402D01*
X745868D01*
Y116149D01*
X745335Y115616D01*
X748001D02*
X748534Y116149D01*
X749601D01*
X750134Y115616D01*
Y113483D01*
X749601Y112950D01*
X748534D01*
X748001Y113483D01*
Y115616D01*
X737102Y203616D02*
X736569Y204149D01*
X735502D01*
X734969Y203616D01*
Y201483D01*
X735502Y200950D01*
X736569D01*
X737102Y201483D01*
X738168D02*
X738701Y200950D01*
X739768D01*
X740301Y201483D01*
Y203616D01*
X739768Y204149D01*
X738701D01*
X738168Y203616D01*
Y203083D01*
X738701Y202550D01*
X740301D01*
X815102Y194616D02*
X814569Y195149D01*
X813502D01*
X812969Y194616D01*
Y192483D01*
X813502Y191950D01*
X814569D01*
X815102Y192483D01*
X816168Y194616D02*
X816701Y195149D01*
X817768D01*
X818301Y194616D01*
Y194083D01*
X817768Y193550D01*
X818301Y193017D01*
Y192483D01*
X817768Y191950D01*
X816701D01*
X816168Y192483D01*
Y193017D01*
X816701Y193550D01*
X816168Y194083D01*
Y194616D01*
X816701Y193550D02*
X817768D01*
X799602Y180616D02*
X799069Y181149D01*
X798002D01*
X797469Y180616D01*
Y178483D01*
X798002Y177950D01*
X799069D01*
X799602Y178483D01*
X800668Y181149D02*
X802801D01*
Y180616D01*
X800668Y178483D01*
Y177950D01*
X821102Y158116D02*
X820569Y158649D01*
X819502D01*
X818969Y158116D01*
Y155983D01*
X819502Y155450D01*
X820569D01*
X821102Y155983D01*
X824301Y158649D02*
X823234Y158116D01*
X822168Y157050D01*
Y155983D01*
X822701Y155450D01*
X823768D01*
X824301Y155983D01*
Y156517D01*
X823768Y157050D01*
X822168D01*
X821602Y146116D02*
X821069Y146649D01*
X820002D01*
X819469Y146116D01*
Y143983D01*
X820002Y143450D01*
X821069D01*
X821602Y143983D01*
X824801Y146649D02*
X822668D01*
Y145050D01*
X823734Y145583D01*
X824268D01*
X824801Y145050D01*
Y143983D01*
X824268Y143450D01*
X823201D01*
X822668Y143983D01*
X772102Y135116D02*
X771569Y135649D01*
X770502D01*
X769969Y135116D01*
Y132983D01*
X770502Y132450D01*
X771569D01*
X772102Y132983D01*
X774768Y132450D02*
Y135649D01*
X773168Y134050D01*
X775301D01*
X771602Y116116D02*
X771069Y116649D01*
X770002D01*
X769469Y116116D01*
Y113983D01*
X770002Y113450D01*
X771069D01*
X771602Y113983D01*
X772668Y116116D02*
X773201Y116649D01*
X774268D01*
X774801Y116116D01*
Y115583D01*
X774268Y115050D01*
X773735D01*
X774268D01*
X774801Y114516D01*
Y113983D01*
X774268Y113450D01*
X773201D01*
X772668Y113983D01*
X668102Y373616D02*
X667569Y374149D01*
X666502D01*
X665969Y373616D01*
Y371483D01*
X666502Y370950D01*
X667569D01*
X668102Y371483D01*
X671301Y370950D02*
X669168D01*
X671301Y373083D01*
Y373616D01*
X670768Y374149D01*
X669701D01*
X669168Y373616D01*
X758635Y379649D02*
X757569D01*
X758102D01*
Y376983D01*
X757569Y376450D01*
X757036D01*
X756502Y376983D01*
X759701Y376450D02*
X760768D01*
X760234D01*
Y379649D01*
X759701Y379116D01*
X332746Y199000D02*
G03*
X332746Y199000I-300J0D01*
G01*
X184730Y238300D02*
Y240690D01*
Y262700D02*
X187120D01*
X209130Y260310D02*
Y262700D01*
Y238300D02*
Y240690D01*
X184730Y238300D02*
X187120D01*
X184730Y260310D02*
Y262700D01*
X206740D02*
X209130D01*
X206740Y238300D02*
X209130D01*
X276295Y173425D02*
Y186574D01*
X263906Y189350D02*
X269985D01*
X257595Y173425D02*
Y186574D01*
X263906Y170650D02*
X269985D01*
X288288Y357669D02*
Y360303D01*
X294603Y361942D02*
Y363058D01*
X288288Y367331D02*
X292248D01*
X288288Y364697D02*
Y367331D01*
Y357669D02*
X292248D01*
X352595Y208459D02*
Y210541D01*
X338029Y217600D02*
X343862D01*
X329295Y208459D02*
Y210541D01*
X338029Y201400D02*
X343862D01*
X288288Y357669D02*
Y360303D01*
X294603Y361942D02*
Y363058D01*
X288288Y367331D02*
X292248D01*
X288288Y364697D02*
Y367331D01*
Y357669D02*
X292248D01*
X276295Y177426D02*
Y190575D01*
X263906Y193350D02*
X269985D01*
X257595Y177426D02*
Y190575D01*
X263906Y174650D02*
X269985D01*
X299930Y338599D02*
Y335933D01*
X300463Y335400D01*
X301529D01*
X302063Y335933D01*
Y338599D01*
X305261Y335400D02*
X303129D01*
X305261Y337533D01*
Y338066D01*
X304728Y338599D01*
X303662D01*
X303129Y338066D01*
X338229Y326735D02*
X335030D01*
Y328334D01*
X335564Y328867D01*
X336630D01*
X337163Y328334D01*
Y326735D01*
Y327801D02*
X338229Y328867D01*
X335564Y329934D02*
X335030Y330467D01*
Y331533D01*
X335564Y332066D01*
X336097D01*
X336630Y331533D01*
Y331000D01*
Y331533D01*
X337163Y332066D01*
X337696D01*
X338229Y331533D01*
Y330467D01*
X337696Y329934D01*
X335030Y333133D02*
Y335265D01*
X335564D01*
X337696Y333133D01*
X338229D01*
X299229Y326235D02*
X296030D01*
Y327834D01*
X296564Y328367D01*
X297630D01*
X298163Y327834D01*
Y326235D01*
Y327301D02*
X299229Y328367D01*
X296564Y329434D02*
X296030Y329967D01*
Y331033D01*
X296564Y331566D01*
X297097D01*
X297630Y331033D01*
Y330500D01*
Y331033D01*
X298163Y331566D01*
X298696D01*
X299229Y331033D01*
Y329967D01*
X298696Y329434D01*
X296030Y334765D02*
X296564Y333699D01*
X297630Y332633D01*
X298696D01*
X299229Y333166D01*
Y334232D01*
X298696Y334765D01*
X298163D01*
X297630Y334232D01*
Y332633D01*
X325264Y308066D02*
X324731Y308599D01*
X323664D01*
X323131Y308066D01*
Y305934D01*
X323664Y305400D01*
X324731D01*
X325264Y305934D01*
X326330Y305400D02*
X327396D01*
X326863D01*
Y308599D01*
X326330Y308066D01*
X328996Y305934D02*
X329529Y305400D01*
X330595D01*
X331129Y305934D01*
Y308066D01*
X330595Y308599D01*
X329529D01*
X328996Y308066D01*
Y307533D01*
X329529Y307000D01*
X331129D01*
X286264Y302066D02*
X285731Y302600D01*
X284664D01*
X284131Y302066D01*
Y299934D01*
X284664Y299400D01*
X285731D01*
X286264Y299934D01*
X287330Y299400D02*
X288397D01*
X287863D01*
Y302600D01*
X287330Y302066D01*
X289996D02*
X290529Y302600D01*
X291596D01*
X292129Y302066D01*
Y301533D01*
X291596Y301000D01*
X292129Y300467D01*
Y299934D01*
X291596Y299400D01*
X290529D01*
X289996Y299934D01*
Y300467D01*
X290529Y301000D01*
X289996Y301533D01*
Y302066D01*
X290529Y301000D02*
X291596D01*
X234264Y286566D02*
X233731Y287100D01*
X232664D01*
X232131Y286566D01*
Y284434D01*
X232664Y283900D01*
X233731D01*
X234264Y284434D01*
X235330Y283900D02*
X236397D01*
X235863D01*
Y287100D01*
X235330Y286566D01*
X237996Y287100D02*
X240129D01*
Y286566D01*
X237996Y284434D01*
Y283900D01*
X494030Y141735D02*
X496696D01*
X497229Y142268D01*
Y143334D01*
X496696Y143867D01*
X494030D01*
X497229Y147066D02*
Y144934D01*
X495097Y147066D01*
X494564D01*
X494030Y146533D01*
Y145467D01*
X494564Y144934D01*
X494030Y150265D02*
Y148133D01*
X495630D01*
X495097Y149199D01*
Y149732D01*
X495630Y150265D01*
X496696D01*
X497229Y149732D01*
Y148666D01*
X496696Y148133D01*
X508030Y174235D02*
X510696D01*
X511229Y174768D01*
Y175834D01*
X510696Y176367D01*
X508030D01*
X511229Y179566D02*
Y177434D01*
X509097Y179566D01*
X508564D01*
X508030Y179033D01*
Y177967D01*
X508564Y177434D01*
X511229Y182232D02*
X508030D01*
X509630Y180633D01*
Y182765D01*
X458464Y175100D02*
Y172434D01*
X458997Y171900D01*
X460064D01*
X460597Y172434D01*
Y175100D01*
X461663Y174566D02*
X462196Y175100D01*
X463263D01*
X463796Y174566D01*
Y174033D01*
X463263Y173500D01*
X463796Y172967D01*
Y172434D01*
X463263Y171900D01*
X462196D01*
X461663Y172434D01*
Y172967D01*
X462196Y173500D01*
X461663Y174033D01*
Y174566D01*
X462196Y173500D02*
X463263D01*
X509729Y194735D02*
X506530D01*
Y196334D01*
X507064Y196867D01*
X508130D01*
X508663Y196334D01*
Y194735D01*
Y195801D02*
X509729Y196867D01*
X506530Y197934D02*
Y200066D01*
X507064D01*
X509196Y197934D01*
X509729D01*
X506530Y203265D02*
X507064Y202199D01*
X508130Y201133D01*
X509196D01*
X509729Y201666D01*
Y202732D01*
X509196Y203265D01*
X508663D01*
X508130Y202732D01*
Y201133D01*
X444164Y193401D02*
Y196599D01*
X445764D01*
X446297Y196066D01*
Y195000D01*
X445764Y194467D01*
X444164D01*
X445231D02*
X446297Y193401D01*
X447363D02*
X448430D01*
X447896D01*
Y196599D01*
X447363Y196066D01*
X450029Y193401D02*
X451095D01*
X450562D01*
Y196599D01*
X450029Y196066D01*
X477729Y186001D02*
X474530D01*
Y187601D01*
X475064Y188134D01*
X476130D01*
X476663Y187601D01*
Y186001D01*
Y187068D02*
X477729Y188134D01*
Y189200D02*
Y190267D01*
Y189733D01*
X474530D01*
X475064Y189200D01*
Y191866D02*
X474530Y192399D01*
Y193466D01*
X475064Y193999D01*
X477196D01*
X477729Y193466D01*
Y192399D01*
X477196Y191866D01*
X475064D01*
X489729Y174334D02*
X486530D01*
Y175934D01*
X487064Y176467D01*
X488130D01*
X488663Y175934D01*
Y174334D01*
Y175400D02*
X489729Y176467D01*
X489196Y177533D02*
X489729Y178066D01*
Y179133D01*
X489196Y179666D01*
X487064D01*
X486530Y179133D01*
Y178066D01*
X487064Y177533D01*
X487597D01*
X488130Y178066D01*
Y179666D01*
X461729Y180834D02*
X458530D01*
Y182434D01*
X459064Y182967D01*
X460130D01*
X460663Y182434D01*
Y180834D01*
Y181901D02*
X461729Y182967D01*
X459064Y184033D02*
X458530Y184566D01*
Y185633D01*
X459064Y186166D01*
X459597D01*
X460130Y185633D01*
X460663Y186166D01*
X461196D01*
X461729Y185633D01*
Y184566D01*
X461196Y184033D01*
X460663D01*
X460130Y184566D01*
X459597Y184033D01*
X459064D01*
X460130Y184566D02*
Y185633D01*
X463530Y198666D02*
X466729D01*
Y197066D01*
X466196Y196533D01*
X465130D01*
X464597Y197066D01*
Y198666D01*
Y197599D02*
X463530Y196533D01*
X466729Y193334D02*
X466196Y194401D01*
X465130Y195467D01*
X464064D01*
X463530Y194934D01*
Y193867D01*
X464064Y193334D01*
X464597D01*
X465130Y193867D01*
Y195467D01*
X487964Y172599D02*
Y169401D01*
X490097D01*
X493296D02*
X491163D01*
X493296Y171533D01*
Y172066D01*
X492763Y172599D01*
X491696D01*
X491163Y172066D01*
X492997Y163100D02*
Y159900D01*
X495130D01*
X496196D02*
X497263D01*
X496729D01*
Y163100D01*
X496196Y162566D01*
X450264Y171066D02*
X449731Y171599D01*
X448664D01*
X448131Y171066D01*
Y168934D01*
X448664Y168401D01*
X449731D01*
X450264Y168934D01*
X451330Y168401D02*
X452396D01*
X451863D01*
Y171599D01*
X451330Y171066D01*
X456129Y171599D02*
X455062Y171066D01*
X453996Y170000D01*
Y168934D01*
X454529Y168401D01*
X455595D01*
X456129Y168934D01*
Y169467D01*
X455595Y170000D01*
X453996D01*
X460564Y141634D02*
X460030Y141101D01*
Y140034D01*
X460564Y139501D01*
X462696D01*
X463229Y140034D01*
Y141101D01*
X462696Y141634D01*
X463229Y142700D02*
Y143767D01*
Y143233D01*
X460030D01*
X460564Y142700D01*
X460030Y147499D02*
Y145366D01*
X461630D01*
X461097Y146432D01*
Y146966D01*
X461630Y147499D01*
X462696D01*
X463229Y146966D01*
Y145899D01*
X462696Y145366D01*
X500264Y172566D02*
X499731Y173100D01*
X498664D01*
X498131Y172566D01*
Y170434D01*
X498664Y169901D01*
X499731D01*
X500264Y170434D01*
X501330Y169901D02*
X502396D01*
X501863D01*
Y173100D01*
X501330Y172566D01*
X505595Y169901D02*
Y173100D01*
X503996Y171500D01*
X506129D01*
X483064Y191134D02*
X482530Y190601D01*
Y189534D01*
X483064Y189001D01*
X485196D01*
X485729Y189534D01*
Y190601D01*
X485196Y191134D01*
X485729Y192200D02*
Y193267D01*
Y192733D01*
X482530D01*
X483064Y192200D01*
Y194866D02*
X482530Y195399D01*
Y196466D01*
X483064Y196999D01*
X483597D01*
X484130Y196466D01*
Y195932D01*
Y196466D01*
X484663Y196999D01*
X485196D01*
X485729Y196466D01*
Y195399D01*
X485196Y194866D01*
X492064Y192634D02*
X491530Y192101D01*
Y191034D01*
X492064Y190501D01*
X494196D01*
X494729Y191034D01*
Y192101D01*
X494196Y192634D01*
X494729Y193700D02*
Y194767D01*
Y194233D01*
X491530D01*
X492064Y193700D01*
X494729Y198499D02*
Y196366D01*
X492597Y198499D01*
X492064D01*
X491530Y197966D01*
Y196899D01*
X492064Y196366D01*
X486564Y132167D02*
X486030Y131634D01*
Y130568D01*
X486564Y130034D01*
X488696D01*
X489229Y130568D01*
Y131634D01*
X488696Y132167D01*
X489229Y133233D02*
Y134300D01*
Y133767D01*
X486030D01*
X486564Y133233D01*
X489229Y135899D02*
Y136966D01*
Y136432D01*
X486030D01*
X486564Y135899D01*
X477564Y139634D02*
X477030Y139101D01*
Y138034D01*
X477564Y137501D01*
X479696D01*
X480229Y138034D01*
Y139101D01*
X479696Y139634D01*
X480229Y140700D02*
Y141767D01*
Y141233D01*
X477030D01*
X477564Y140700D01*
Y143366D02*
X477030Y143899D01*
Y144966D01*
X477564Y145499D01*
X479696D01*
X480229Y144966D01*
Y143899D01*
X479696Y143366D01*
X477564D01*
X452229Y176735D02*
X449030D01*
Y178334D01*
X449564Y178867D01*
X450630D01*
X451163Y178334D01*
Y176735D01*
Y177801D02*
X452229Y178867D01*
X449030Y182066D02*
Y179934D01*
X450630D01*
X450097Y181000D01*
Y181533D01*
X450630Y182066D01*
X451696D01*
X452229Y181533D01*
Y180467D01*
X451696Y179934D01*
X449564Y183133D02*
X449030Y183666D01*
Y184732D01*
X449564Y185265D01*
X451696D01*
X452229Y184732D01*
Y183666D01*
X451696Y183133D01*
X449564D01*
X441229Y193735D02*
X438030D01*
Y195334D01*
X438564Y195867D01*
X439630D01*
X440163Y195334D01*
Y193735D01*
Y194801D02*
X441229Y195867D01*
Y198533D02*
X438030D01*
X439630Y196934D01*
Y199066D01*
X440696Y200133D02*
X441229Y200666D01*
Y201732D01*
X440696Y202265D01*
X438564D01*
X438030Y201732D01*
Y200666D01*
X438564Y200133D01*
X439097D01*
X439630Y200666D01*
Y202265D01*
X472131Y200099D02*
Y196900D01*
X474264D01*
X475330D02*
X476397D01*
X475863D01*
Y200099D01*
X475330Y199566D01*
X477996D02*
X478529Y200099D01*
X479596D01*
X480129Y199566D01*
Y199033D01*
X479596Y198500D01*
X480129Y197967D01*
Y197434D01*
X479596Y196900D01*
X478529D01*
X477996Y197434D01*
Y197967D01*
X478529Y198500D01*
X477996Y199033D01*
Y199566D01*
X478529Y198500D02*
X479596D01*
X453631Y157099D02*
Y153901D01*
X455764D01*
X456830D02*
X457897D01*
X457363D01*
Y157099D01*
X456830Y156566D01*
X459496Y157099D02*
X461629D01*
Y156566D01*
X459496Y154434D01*
Y153901D01*
X464030Y177001D02*
X467229D01*
Y179134D01*
Y180200D02*
Y181267D01*
Y180733D01*
X464030D01*
X464564Y180200D01*
X464030Y184999D02*
X464564Y183932D01*
X465630Y182866D01*
X466696D01*
X467229Y183399D01*
Y184466D01*
X466696Y184999D01*
X466163D01*
X465630Y184466D01*
Y182866D01*
X251379Y179901D02*
X250846Y179367D01*
Y178301D01*
X251379Y177768D01*
X251912D01*
X252445Y178301D01*
Y179367D01*
X252979Y179901D01*
X253512D01*
X254045Y179367D01*
Y178301D01*
X253512Y177768D01*
X250846Y180967D02*
X254045D01*
X252979Y182033D01*
X254045Y183099D01*
X250846D01*
X254045Y184166D02*
Y185232D01*
Y184699D01*
X250846D01*
X251379Y184166D01*
X467464Y317099D02*
Y314434D01*
X467997Y313900D01*
X469064D01*
X469597Y314434D01*
Y317099D01*
X470663Y314434D02*
X471196Y313900D01*
X472263D01*
X472796Y314434D01*
Y316566D01*
X472263Y317099D01*
X471196D01*
X470663Y316566D01*
Y316033D01*
X471196Y315500D01*
X472796D01*
X316780Y350600D02*
Y347934D01*
X317313Y347400D01*
X318379D01*
X318912Y347934D01*
Y350600D01*
X322111D02*
X321045Y350066D01*
X319979Y349000D01*
Y347934D01*
X320512Y347400D01*
X321578D01*
X322111Y347934D01*
Y348467D01*
X321578Y349000D01*
X319979D01*
X281280Y359599D02*
Y356934D01*
X281813Y356400D01*
X282879D01*
X283412Y356934D01*
Y359599D01*
X286078Y356400D02*
Y359599D01*
X284479Y358000D01*
X286611D01*
X381180Y161400D02*
Y164600D01*
X382780D01*
X383313Y164066D01*
Y163000D01*
X382780Y162467D01*
X381180D01*
X382246D02*
X383313Y161400D01*
X384379Y164600D02*
X386512D01*
Y164066D01*
X384379Y161934D01*
Y161400D01*
X389711Y164600D02*
X387578D01*
Y163000D01*
X388644Y163533D01*
X389178D01*
X389711Y163000D01*
Y161934D01*
X389178Y161400D01*
X388111D01*
X387578Y161934D01*
X430346Y215499D02*
X433545D01*
Y213899D01*
X433012Y213366D01*
X431946D01*
X431412Y213899D01*
Y215499D01*
Y214432D02*
X430346Y213366D01*
Y212300D02*
Y211233D01*
Y211767D01*
X433545D01*
X433012Y212300D01*
X430879Y209634D02*
X430346Y209101D01*
Y208034D01*
X430879Y207501D01*
X433012D01*
X433545Y208034D01*
Y209101D01*
X433012Y209634D01*
X432479D01*
X431946Y209101D01*
Y207501D01*
X515994Y300566D02*
X515461Y301099D01*
X514394D01*
X513861Y300566D01*
Y298434D01*
X514394Y297901D01*
X515461D01*
X515994Y298434D01*
X517060Y300566D02*
X517593Y301099D01*
X518660D01*
X519193Y300566D01*
Y300033D01*
X518660Y299500D01*
X518127D01*
X518660D01*
X519193Y298967D01*
Y298434D01*
X518660Y297901D01*
X517593D01*
X517060Y298434D01*
X521859Y297901D02*
Y301099D01*
X520259Y299500D01*
X522392D01*
X494811Y299099D02*
Y295901D01*
X496944D01*
X499610D02*
Y299099D01*
X498010Y297500D01*
X500143D01*
X380813Y241566D02*
X380280Y242099D01*
X379213D01*
X378680Y241566D01*
Y239434D01*
X379213Y238900D01*
X380280D01*
X380813Y239434D01*
X381879Y242099D02*
Y238900D01*
X384012D01*
X385078Y242099D02*
Y238900D01*
Y239967D01*
X387211Y242099D01*
X385611Y240500D01*
X387211Y238900D01*
X371045Y156235D02*
X367846D01*
Y157834D01*
X368379Y158367D01*
X369445D01*
X369979Y157834D01*
Y156235D01*
Y157301D02*
X371045Y158367D01*
X367846Y159434D02*
Y161566D01*
X368379D01*
X370512Y159434D01*
X371045D01*
Y164232D02*
X367846D01*
X369445Y162633D01*
Y164765D01*
X380346Y157599D02*
X379280D01*
X379813D01*
Y154934D01*
X379280Y154401D01*
X378747D01*
X378213Y154934D01*
X383545Y154401D02*
X381412D01*
X383545Y156533D01*
Y157066D01*
X383012Y157599D01*
X381945D01*
X381412Y157066D01*
X384611Y154401D02*
X385678D01*
X385144D01*
Y157599D01*
X384611Y157066D01*
X417346Y277402D02*
X420545D01*
Y279001D01*
X420012Y279535D01*
X417879D01*
X417346Y279001D01*
Y277402D01*
Y280601D02*
X420545D01*
Y282200D01*
X420012Y282733D01*
X419479D01*
X418946Y282200D01*
Y280601D01*
Y282200D01*
X418412Y282733D01*
X417879D01*
X417346Y282200D01*
Y280601D01*
X420545Y283800D02*
Y284866D01*
Y284333D01*
X417346D01*
X417879Y283800D01*
Y286466D02*
X417346Y286999D01*
Y288065D01*
X417879Y288598D01*
X418412D01*
X418946Y288065D01*
Y287532D01*
Y288065D01*
X419479Y288598D01*
X420012D01*
X420545Y288065D01*
Y286999D01*
X420012Y286466D01*
X411846Y278902D02*
X415045D01*
Y280501D01*
X414512Y281034D01*
X412379D01*
X411846Y280501D01*
Y278902D01*
Y282101D02*
X415045D01*
Y283700D01*
X414512Y284233D01*
X413979D01*
X413446Y283700D01*
Y282101D01*
Y283700D01*
X412912Y284233D01*
X412379D01*
X411846Y283700D01*
Y282101D01*
X415045Y285300D02*
Y286366D01*
Y285833D01*
X411846D01*
X412379Y285300D01*
X415045Y290098D02*
Y287965D01*
X412912Y290098D01*
X412379D01*
X411846Y289565D01*
Y288499D01*
X412379Y287965D01*
X406346Y271935D02*
X409545D01*
Y273534D01*
X409012Y274068D01*
X406879D01*
X406346Y273534D01*
Y271935D01*
Y275134D02*
X409545D01*
Y276733D01*
X409012Y277267D01*
X408479D01*
X407945Y276733D01*
Y275134D01*
Y276733D01*
X407412Y277267D01*
X406879D01*
X406346Y276733D01*
Y275134D01*
X409545Y278333D02*
Y279399D01*
Y278866D01*
X406346D01*
X406879Y278333D01*
X409545Y280999D02*
Y282065D01*
Y281532D01*
X406346D01*
X406879Y280999D01*
X387347Y278600D02*
Y275400D01*
X388947D01*
X389480Y275934D01*
Y278066D01*
X388947Y278600D01*
X387347D01*
X390546D02*
Y275400D01*
X392146D01*
X392679Y275934D01*
Y276467D01*
X392146Y277000D01*
X390546D01*
X392146D01*
X392679Y277533D01*
Y278066D01*
X392146Y278600D01*
X390546D01*
X393745Y275400D02*
X394812D01*
X394278D01*
Y278600D01*
X393745Y278066D01*
X396411D02*
X396944Y278600D01*
X398010D01*
X398544Y278066D01*
Y275934D01*
X398010Y275400D01*
X396944D01*
X396411Y275934D01*
Y278066D01*
X350180Y278600D02*
Y275400D01*
X351780D01*
X352313Y275934D01*
Y278066D01*
X351780Y278600D01*
X350180D01*
X353379D02*
Y275400D01*
X354979D01*
X355512Y275934D01*
Y276467D01*
X354979Y277000D01*
X353379D01*
X354979D01*
X355512Y277533D01*
Y278066D01*
X354979Y278600D01*
X353379D01*
X356578Y275934D02*
X357111Y275400D01*
X358178D01*
X358711Y275934D01*
Y278066D01*
X358178Y278600D01*
X357111D01*
X356578Y278066D01*
Y277533D01*
X357111Y277000D01*
X358711D01*
X344346Y268235D02*
X347545D01*
Y269834D01*
X347012Y270367D01*
X344879D01*
X344346Y269834D01*
Y268235D01*
Y271434D02*
X347545D01*
Y273033D01*
X347012Y273566D01*
X346479D01*
X345946Y273033D01*
Y271434D01*
Y273033D01*
X345412Y273566D01*
X344879D01*
X344346Y273033D01*
Y271434D01*
X344879Y274633D02*
X344346Y275166D01*
Y276232D01*
X344879Y276765D01*
X345412D01*
X345946Y276232D01*
X346479Y276765D01*
X347012D01*
X347545Y276232D01*
Y275166D01*
X347012Y274633D01*
X346479D01*
X345946Y275166D01*
X345412Y274633D01*
X344879D01*
X345946Y275166D02*
Y276232D01*
X339346Y262235D02*
X342545D01*
Y263834D01*
X342012Y264367D01*
X339879D01*
X339346Y263834D01*
Y262235D01*
Y265434D02*
X342545D01*
Y267033D01*
X342012Y267566D01*
X341479D01*
X340946Y267033D01*
Y265434D01*
Y267033D01*
X340412Y267566D01*
X339879D01*
X339346Y267033D01*
Y265434D01*
Y268633D02*
Y270765D01*
X339879D01*
X342012Y268633D01*
X342545D01*
X357680Y272099D02*
Y268900D01*
X359280D01*
X359813Y269434D01*
Y271566D01*
X359280Y272099D01*
X357680D01*
X360879D02*
Y268900D01*
X362479D01*
X363012Y269434D01*
Y269967D01*
X362479Y270500D01*
X360879D01*
X362479D01*
X363012Y271033D01*
Y271566D01*
X362479Y272099D01*
X360879D01*
X366211D02*
X365144Y271566D01*
X364078Y270500D01*
Y269434D01*
X364611Y268900D01*
X365678D01*
X366211Y269434D01*
Y269967D01*
X365678Y270500D01*
X364078D01*
X358180Y260599D02*
Y257400D01*
X359780D01*
X360313Y257934D01*
Y260066D01*
X359780Y260599D01*
X358180D01*
X361379D02*
Y257400D01*
X362979D01*
X363512Y257934D01*
Y258467D01*
X362979Y259000D01*
X361379D01*
X362979D01*
X363512Y259533D01*
Y260066D01*
X362979Y260599D01*
X361379D01*
X366711D02*
X364578D01*
Y259000D01*
X365644Y259533D01*
X366178D01*
X366711Y259000D01*
Y257934D01*
X366178Y257400D01*
X365111D01*
X364578Y257934D01*
X372680Y264599D02*
Y261401D01*
X374280D01*
X374813Y261934D01*
Y264066D01*
X374280Y264599D01*
X372680D01*
X375879D02*
Y261401D01*
X377479D01*
X378012Y261934D01*
Y262467D01*
X377479Y263000D01*
X375879D01*
X377479D01*
X378012Y263533D01*
Y264066D01*
X377479Y264599D01*
X375879D01*
X380678Y261401D02*
Y264599D01*
X379078Y263000D01*
X381211D01*
X370680Y257599D02*
Y254400D01*
X372280D01*
X372813Y254934D01*
Y257066D01*
X372280Y257599D01*
X370680D01*
X373879D02*
Y254400D01*
X375479D01*
X376012Y254934D01*
Y255467D01*
X375479Y256000D01*
X373879D01*
X375479D01*
X376012Y256533D01*
Y257066D01*
X375479Y257599D01*
X373879D01*
X377078Y257066D02*
X377611Y257599D01*
X378678D01*
X379211Y257066D01*
Y256533D01*
X378678Y256000D01*
X378144D01*
X378678D01*
X379211Y255467D01*
Y254934D01*
X378678Y254400D01*
X377611D01*
X377078Y254934D01*
X354680Y247099D02*
Y243900D01*
X356280D01*
X356813Y244434D01*
Y246566D01*
X356280Y247099D01*
X354680D01*
X357879D02*
Y243900D01*
X359479D01*
X360012Y244434D01*
Y244967D01*
X359479Y245500D01*
X357879D01*
X359479D01*
X360012Y246033D01*
Y246566D01*
X359479Y247099D01*
X357879D01*
X363211Y243900D02*
X361078D01*
X363211Y246033D01*
Y246566D01*
X362678Y247099D01*
X361611D01*
X361078Y246566D01*
X377213Y252600D02*
Y249400D01*
X378813D01*
X379346Y249934D01*
Y252066D01*
X378813Y252600D01*
X377213D01*
X380412D02*
Y249400D01*
X382012D01*
X382545Y249934D01*
Y250467D01*
X382012Y251000D01*
X380412D01*
X382012D01*
X382545Y251533D01*
Y252066D01*
X382012Y252600D01*
X380412D01*
X383611Y249400D02*
X384678D01*
X384144D01*
Y252600D01*
X383611Y252066D01*
X377180Y247600D02*
Y244401D01*
X378780D01*
X379313Y244934D01*
Y247066D01*
X378780Y247600D01*
X377180D01*
X380379D02*
Y244401D01*
X381979D01*
X382512Y244934D01*
Y245467D01*
X381979Y246000D01*
X380379D01*
X381979D01*
X382512Y246533D01*
Y247066D01*
X381979Y247600D01*
X380379D01*
X383578Y247066D02*
X384111Y247600D01*
X385178D01*
X385711Y247066D01*
Y244934D01*
X385178Y244401D01*
X384111D01*
X383578Y244934D01*
Y247066D01*
X338813Y222600D02*
Y222066D01*
X339879Y221000D01*
X340946Y222066D01*
Y222600D01*
X339879Y221000D02*
Y219401D01*
X342012D02*
X343078D01*
X342545D01*
Y222600D01*
X342012Y222066D01*
X387280Y273099D02*
Y270434D01*
X387813Y269900D01*
X388879D01*
X389412Y270434D01*
Y273099D01*
X390479D02*
X392611D01*
Y272566D01*
X390479Y270434D01*
Y269900D01*
X390346Y183334D02*
X393012D01*
X393545Y183867D01*
Y184934D01*
X393012Y185467D01*
X390346D01*
X390879Y186533D02*
X390346Y187066D01*
Y188133D01*
X390879Y188666D01*
X391412D01*
X391946Y188133D01*
Y187600D01*
Y188133D01*
X392479Y188666D01*
X393012D01*
X393545Y188133D01*
Y187066D01*
X393012Y186533D01*
X386346Y181765D02*
X389545D01*
Y180166D01*
X389012Y179633D01*
X387946D01*
X387412Y180166D01*
Y181765D01*
Y180699D02*
X386346Y179633D01*
X389545Y178566D02*
Y176434D01*
X389012D01*
X386879Y178566D01*
X386346D01*
X389012Y175367D02*
X389545Y174834D01*
Y173768D01*
X389012Y173235D01*
X386879D01*
X386346Y173768D01*
Y174834D01*
X386879Y175367D01*
X389012D01*
X342545Y149235D02*
X339346D01*
Y150834D01*
X339879Y151367D01*
X340946D01*
X341479Y150834D01*
Y149235D01*
Y150301D02*
X342545Y151367D01*
X339346Y154566D02*
X339879Y153500D01*
X340946Y152434D01*
X342012D01*
X342545Y152967D01*
Y154033D01*
X342012Y154566D01*
X341479D01*
X340946Y154033D01*
Y152434D01*
X339346Y155633D02*
Y157765D01*
X339879D01*
X342012Y155633D01*
X342545D01*
X336729Y150235D02*
X333530D01*
Y151834D01*
X334064Y152367D01*
X335130D01*
X335663Y151834D01*
Y150235D01*
Y151301D02*
X336729Y152367D01*
X333530Y155566D02*
X334064Y154500D01*
X335130Y153434D01*
X336196D01*
X336729Y153967D01*
Y155033D01*
X336196Y155566D01*
X335663D01*
X335130Y155033D01*
Y153434D01*
X333530Y158765D02*
X334064Y157699D01*
X335130Y156633D01*
X336196D01*
X336729Y157166D01*
Y158232D01*
X336196Y158765D01*
X335663D01*
X335130Y158232D01*
Y156633D01*
X372045Y203235D02*
X368846D01*
Y204834D01*
X369379Y205367D01*
X370445D01*
X370979Y204834D01*
Y203235D01*
Y204301D02*
X372045Y205367D01*
X368846Y208566D02*
X369379Y207500D01*
X370445Y206434D01*
X371512D01*
X372045Y206967D01*
Y208033D01*
X371512Y208566D01*
X370979D01*
X370445Y208033D01*
Y206434D01*
X369379Y209633D02*
X368846Y210166D01*
Y211232D01*
X369379Y211765D01*
X371512D01*
X372045Y211232D01*
Y210166D01*
X371512Y209633D01*
X369379D01*
X378045Y195235D02*
X374846D01*
Y196834D01*
X375379Y197367D01*
X376446D01*
X376979Y196834D01*
Y195235D01*
Y196301D02*
X378045Y197367D01*
X374846Y200566D02*
Y198434D01*
X376446D01*
X375912Y199500D01*
Y200033D01*
X376446Y200566D01*
X377512D01*
X378045Y200033D01*
Y198967D01*
X377512Y198434D01*
X375379Y201633D02*
X374846Y202166D01*
Y203232D01*
X375379Y203765D01*
X375912D01*
X376446Y203232D01*
X376979Y203765D01*
X377512D01*
X378045Y203232D01*
Y202166D01*
X377512Y201633D01*
X376979D01*
X376446Y202166D01*
X375912Y201633D01*
X375379D01*
X376446Y202166D02*
Y203232D01*
X378680Y233900D02*
Y237100D01*
X380280D01*
X380813Y236566D01*
Y235500D01*
X380280Y234967D01*
X378680D01*
X379747D02*
X380813Y233900D01*
X384012Y237100D02*
X381879D01*
Y235500D01*
X382945Y236033D01*
X383479D01*
X384012Y235500D01*
Y234434D01*
X383479Y233900D01*
X382412D01*
X381879Y234434D01*
X385078Y237100D02*
X387211D01*
Y236566D01*
X385078Y234434D01*
Y233900D01*
X378346Y210001D02*
X381545D01*
Y212134D01*
Y213200D02*
Y214267D01*
Y213733D01*
X378346D01*
X378879Y213200D01*
X378346Y217999D02*
Y215866D01*
X379945D01*
X379412Y216932D01*
Y217465D01*
X379945Y217999D01*
X381012D01*
X381545Y217465D01*
Y216399D01*
X381012Y215866D01*
X384346Y214001D02*
X387545D01*
Y216134D01*
Y217200D02*
Y218267D01*
Y217733D01*
X384346D01*
X384879Y217200D01*
X387545Y221465D02*
X384346D01*
X385946Y219866D01*
Y221999D01*
X254564Y200034D02*
X254030Y199501D01*
Y198435D01*
X254564Y197902D01*
X256696D01*
X257229Y198435D01*
Y199501D01*
X256696Y200034D01*
X257229Y201101D02*
Y202167D01*
Y201634D01*
X254030D01*
X254564Y201101D01*
X254030Y203767D02*
Y205899D01*
X254564D01*
X256696Y203767D01*
X257229D01*
X254564Y206966D02*
X254030Y207499D01*
Y208565D01*
X254564Y209098D01*
X255097D01*
X255630Y208565D01*
Y208032D01*
Y208565D01*
X256163Y209098D01*
X256696D01*
X257229Y208565D01*
Y207499D01*
X256696Y206966D01*
X293480Y215566D02*
X292947Y216100D01*
X291880D01*
X291347Y215566D01*
Y213434D01*
X291880Y212900D01*
X292947D01*
X293480Y213434D01*
X294546Y212900D02*
X295613D01*
X295079D01*
Y216100D01*
X294546Y215566D01*
X297212Y216100D02*
X299345D01*
Y215566D01*
X297212Y213434D01*
Y212900D01*
X300411Y215566D02*
X300944Y216100D01*
X302010D01*
X302544Y215566D01*
Y213434D01*
X302010Y212900D01*
X300944D01*
X300411Y213434D01*
Y215566D01*
X293912Y222066D02*
X293379Y222600D01*
X292313D01*
X291780Y222066D01*
Y219934D01*
X292313Y219401D01*
X293379D01*
X293912Y219934D01*
X297111Y222600D02*
X296045Y222066D01*
X294979Y221000D01*
Y219934D01*
X295512Y219401D01*
X296578D01*
X297111Y219934D01*
Y220467D01*
X296578Y221000D01*
X294979D01*
X493813Y271600D02*
X495946Y268401D01*
Y271600D02*
X493813Y268401D01*
X497012D02*
X498078D01*
X497545D01*
Y271600D01*
X497012Y271066D01*
X162131Y229099D02*
Y226434D01*
X162664Y225901D01*
X163731D01*
X164264Y226434D01*
Y229099D01*
X165330Y225901D02*
X166396D01*
X165863D01*
Y229099D01*
X165330Y228566D01*
X170129Y229099D02*
X167996D01*
Y227500D01*
X169062Y228033D01*
X169596D01*
X170129Y227500D01*
Y226434D01*
X169596Y225901D01*
X168529D01*
X167996Y226434D01*
X256131Y294099D02*
Y291434D01*
X256664Y290900D01*
X257731D01*
X258264Y291434D01*
Y294099D01*
X259330Y290900D02*
X260397D01*
X259863D01*
Y294099D01*
X259330Y293566D01*
X264129Y290900D02*
X261996D01*
X264129Y293033D01*
Y293566D01*
X263596Y294099D01*
X262529D01*
X261996Y293566D01*
X371780Y323099D02*
Y320434D01*
X372313Y319900D01*
X373379D01*
X373912Y320434D01*
Y323099D01*
X377111D02*
X374979D01*
Y321500D01*
X376045Y322033D01*
X376578D01*
X377111Y321500D01*
Y320434D01*
X376578Y319900D01*
X375512D01*
X374979Y320434D01*
X445447Y364599D02*
Y361934D01*
X445980Y361401D01*
X447046D01*
X447579Y361934D01*
Y364599D01*
X448646Y361401D02*
X449712D01*
X449179D01*
Y364599D01*
X448646Y364066D01*
X451311D02*
X451845Y364599D01*
X452911D01*
X453444Y364066D01*
Y361934D01*
X452911Y361401D01*
X451845D01*
X451311Y361934D01*
Y364066D01*
X505313Y351600D02*
Y348934D01*
X505846Y348400D01*
X506912D01*
X507445Y348934D01*
Y351600D01*
X508512Y348400D02*
X509578D01*
X509045D01*
Y351600D01*
X508512Y351066D01*
X179229Y180268D02*
X176030D01*
Y181867D01*
X176564Y182401D01*
X177630D01*
X178163Y181867D01*
Y180268D01*
Y181334D02*
X179229Y182401D01*
X176030Y185600D02*
Y183467D01*
X177630D01*
X177097Y184533D01*
Y185066D01*
X177630Y185600D01*
X178696D01*
X179229Y185066D01*
Y184000D01*
X178696Y183467D01*
X179229Y186666D02*
Y187732D01*
Y187199D01*
X176030D01*
X176564Y186666D01*
X206729Y179735D02*
X203530D01*
Y181334D01*
X204064Y181867D01*
X205130D01*
X205663Y181334D01*
Y179735D01*
Y180801D02*
X206729Y181867D01*
Y184533D02*
X203530D01*
X205130Y182934D01*
Y185066D01*
X203530Y188265D02*
X204064Y187199D01*
X205130Y186133D01*
X206196D01*
X206729Y186666D01*
Y187732D01*
X206196Y188265D01*
X205663D01*
X205130Y187732D01*
Y186133D01*
X295713Y207400D02*
Y210599D01*
X297313D01*
X297846Y210066D01*
Y209000D01*
X297313Y208467D01*
X295713D01*
X296780D02*
X297846Y207400D01*
X298912Y210066D02*
X299446Y210599D01*
X300512D01*
X301045Y210066D01*
Y209533D01*
X300512Y209000D01*
X299979D01*
X300512D01*
X301045Y208467D01*
Y207934D01*
X300512Y207400D01*
X299446D01*
X298912Y207934D01*
X302111Y207400D02*
X303178D01*
X302644D01*
Y210599D01*
X302111Y210066D01*
X307180Y221400D02*
Y224600D01*
X308780D01*
X309313Y224066D01*
Y223000D01*
X308780Y222467D01*
X307180D01*
X308246D02*
X309313Y221400D01*
X310379Y224066D02*
X310912Y224600D01*
X311979D01*
X312512Y224066D01*
Y223533D01*
X311979Y223000D01*
X311445D01*
X311979D01*
X312512Y222467D01*
Y221934D01*
X311979Y221400D01*
X310912D01*
X310379Y221934D01*
X313578Y224066D02*
X314111Y224600D01*
X315178D01*
X315711Y224066D01*
Y221934D01*
X315178Y221400D01*
X314111D01*
X313578Y221934D01*
Y224066D01*
X324346Y219765D02*
X327545D01*
Y218166D01*
X327012Y217633D01*
X325945D01*
X325412Y218166D01*
Y219765D01*
Y218699D02*
X324346Y217633D01*
Y214434D02*
Y216566D01*
X326479Y214434D01*
X327012D01*
X327545Y214967D01*
Y216033D01*
X327012Y216566D01*
X324879Y213367D02*
X324346Y212834D01*
Y211768D01*
X324879Y211235D01*
X327012D01*
X327545Y211768D01*
Y212834D01*
X327012Y213367D01*
X326479D01*
X325945Y212834D01*
Y211235D01*
X304545Y294735D02*
X301346D01*
Y296334D01*
X301879Y296867D01*
X302945D01*
X303479Y296334D01*
Y294735D01*
Y295801D02*
X304545Y296867D01*
Y300066D02*
Y297934D01*
X302412Y300066D01*
X301879D01*
X301346Y299533D01*
Y298467D01*
X301879Y297934D01*
Y301133D02*
X301346Y301666D01*
Y302732D01*
X301879Y303265D01*
X302412D01*
X302945Y302732D01*
X303479Y303265D01*
X304012D01*
X304545Y302732D01*
Y301666D01*
X304012Y301133D01*
X303479D01*
X302945Y301666D01*
X302412Y301133D01*
X301879D01*
X302945Y301666D02*
Y302732D01*
X319680Y296400D02*
Y299600D01*
X321280D01*
X321813Y299066D01*
Y298000D01*
X321280Y297467D01*
X319680D01*
X320746D02*
X321813Y296400D01*
X325012D02*
X322879D01*
X325012Y298533D01*
Y299066D01*
X324479Y299600D01*
X323412D01*
X322879Y299066D01*
X326078Y299600D02*
X328211D01*
Y299066D01*
X326078Y296934D01*
Y296400D01*
X433365Y256901D02*
Y260100D01*
X434964D01*
X435497Y259566D01*
Y258500D01*
X434964Y257967D01*
X433365D01*
X434431D02*
X435497Y256901D01*
X438696D02*
X436564D01*
X438696Y259033D01*
Y259566D01*
X438163Y260100D01*
X437097D01*
X436564Y259566D01*
X439763D02*
X440296Y260100D01*
X441362D01*
X441895Y259566D01*
Y259033D01*
X441362Y258500D01*
X440829D01*
X441362D01*
X441895Y257967D01*
Y257434D01*
X441362Y256901D01*
X440296D01*
X439763Y257434D01*
X424365Y268900D02*
Y272099D01*
X425964D01*
X426497Y271566D01*
Y270500D01*
X425964Y269967D01*
X424365D01*
X425431D02*
X426497Y268900D01*
X429696D02*
X427564D01*
X429696Y271033D01*
Y271566D01*
X429163Y272099D01*
X428097D01*
X427564Y271566D01*
X430763D02*
X431296Y272099D01*
X432362D01*
X432895Y271566D01*
Y269434D01*
X432362Y268900D01*
X431296D01*
X430763Y269434D01*
Y271566D01*
X430846Y201999D02*
X434045D01*
Y200399D01*
X433512Y199866D01*
X432445D01*
X431912Y200399D01*
Y201999D01*
Y200932D02*
X430846Y199866D01*
Y198800D02*
Y197733D01*
Y198267D01*
X434045D01*
X433512Y198800D01*
X434045Y196134D02*
Y194001D01*
X433512D01*
X431379Y196134D01*
X430846D01*
X418447Y232901D02*
Y236100D01*
X420046D01*
X420579Y235566D01*
Y234500D01*
X420046Y233967D01*
X418447D01*
X419513D02*
X420579Y232901D01*
X421646D02*
X422712D01*
X422179D01*
Y236100D01*
X421646Y235566D01*
X426444Y236100D02*
X425378Y235566D01*
X424311Y234500D01*
Y233434D01*
X424845Y232901D01*
X425911D01*
X426444Y233434D01*
Y233967D01*
X425911Y234500D01*
X424311D01*
X470780Y343900D02*
Y347099D01*
X472379D01*
X472912Y346566D01*
Y345500D01*
X472379Y344967D01*
X470780D01*
X471846D02*
X472912Y343900D01*
X475578D02*
Y347099D01*
X473979Y345500D01*
X476111D01*
X164280Y351901D02*
Y355100D01*
X165879D01*
X166412Y354566D01*
Y353500D01*
X165879Y352967D01*
X164280D01*
X165346D02*
X166412Y351901D01*
X167479Y354566D02*
X168012Y355100D01*
X169078D01*
X169611Y354566D01*
Y354033D01*
X169078Y353500D01*
X168545D01*
X169078D01*
X169611Y352967D01*
Y352434D01*
X169078Y351901D01*
X168012D01*
X167479Y352434D01*
X164280Y356901D02*
Y360100D01*
X165879D01*
X166412Y359566D01*
Y358500D01*
X165879Y357967D01*
X164280D01*
X165346D02*
X166412Y356901D01*
X169611D02*
X167479D01*
X169611Y359033D01*
Y359566D01*
X169078Y360100D01*
X168012D01*
X167479Y359566D01*
X164313Y361900D02*
Y365100D01*
X165912D01*
X166446Y364566D01*
Y363500D01*
X165912Y362967D01*
X164313D01*
X165379D02*
X166446Y361900D01*
X167512D02*
X168578D01*
X168045D01*
Y365100D01*
X167512Y364566D01*
X273464Y146400D02*
Y149600D01*
X275064D01*
X275597Y149066D01*
Y148000D01*
X275064Y147467D01*
X273464D01*
X278796Y146400D02*
X276663D01*
X278796Y148533D01*
Y149066D01*
X278263Y149600D01*
X277196D01*
X276663Y149066D01*
X312846Y303265D02*
X316045D01*
X312846Y301133D01*
X316045D01*
X312846Y300066D02*
X316045D01*
Y298467D01*
X315512Y297934D01*
X314445D01*
X313912Y298467D01*
Y300066D01*
X316045Y296867D02*
Y294735D01*
X315512D01*
X313379Y296867D01*
X312846D01*
X479846Y269765D02*
X483045D01*
X479846Y267633D01*
X483045D01*
X479846Y266566D02*
X483045D01*
Y264967D01*
X482512Y264434D01*
X481446D01*
X480912Y264967D01*
Y266566D01*
X482512Y263367D02*
X483045Y262834D01*
Y261768D01*
X482512Y261235D01*
X481979D01*
X481446Y261768D01*
Y262301D01*
Y261768D01*
X480912Y261235D01*
X480379D01*
X479846Y261768D01*
Y262834D01*
X480379Y263367D01*
X425045Y219166D02*
X421846D01*
Y217033D01*
X422379Y215967D02*
X421846Y215434D01*
Y214367D01*
X422379Y213834D01*
X424512D01*
X425045Y214367D01*
Y215434D01*
X424512Y215967D01*
X423979D01*
X423446Y215434D01*
Y213834D01*
X408346Y213334D02*
X411545D01*
Y215467D01*
X408346Y218666D02*
X408879Y217600D01*
X409945Y216533D01*
X411012D01*
X411545Y217066D01*
Y218133D01*
X411012Y218666D01*
X410479D01*
X409945Y218133D01*
Y216533D01*
X504780Y306599D02*
Y303400D01*
X506912D01*
X510111Y306599D02*
X507979D01*
Y305000D01*
X509045Y305533D01*
X509578D01*
X510111Y305000D01*
Y303934D01*
X509578Y303400D01*
X508512D01*
X507979Y303934D01*
X471846Y265334D02*
X475045D01*
Y267467D01*
X472379Y268533D02*
X471846Y269066D01*
Y270133D01*
X472379Y270666D01*
X472912D01*
X473446Y270133D01*
Y269600D01*
Y270133D01*
X473979Y270666D01*
X474512D01*
X475045Y270133D01*
Y269066D01*
X474512Y268533D01*
X473729Y208533D02*
Y209599D01*
Y209066D01*
X471064D01*
X470531Y209599D01*
Y210133D01*
X471064Y210666D01*
X473729Y205334D02*
Y207467D01*
X472130D01*
X472663Y206400D01*
Y205867D01*
X472130Y205334D01*
X471064D01*
X470531Y205867D01*
Y206934D01*
X471064Y207467D01*
X535097Y156599D02*
X534030D01*
X534564D01*
Y153934D01*
X534030Y153401D01*
X533497D01*
X532964Y153934D01*
X536163Y156066D02*
X536696Y156599D01*
X537763D01*
X538296Y156066D01*
Y155533D01*
X537763Y155000D01*
X537229D01*
X537763D01*
X538296Y154467D01*
Y153934D01*
X537763Y153401D01*
X536696D01*
X536163Y153934D01*
X418412Y158599D02*
X417346D01*
X417879D01*
Y155934D01*
X417346Y155401D01*
X416813D01*
X416280Y155934D01*
X421611Y155401D02*
X419479D01*
X421611Y157533D01*
Y158066D01*
X421078Y158599D01*
X420012D01*
X419479Y158066D01*
X275846Y323334D02*
X279045D01*
Y324934D01*
X278512Y325467D01*
X276379D01*
X275846Y324934D01*
Y323334D01*
X276379Y326533D02*
X275846Y327066D01*
Y328133D01*
X276379Y328666D01*
X276912D01*
X277446Y328133D01*
X277979Y328666D01*
X278512D01*
X279045Y328133D01*
Y327066D01*
X278512Y326533D01*
X277979D01*
X277446Y327066D01*
X276912Y326533D01*
X276379D01*
X277446Y327066D02*
Y328133D01*
X285846Y323334D02*
X289045D01*
Y324934D01*
X288512Y325467D01*
X286379D01*
X285846Y324934D01*
Y323334D01*
Y326533D02*
Y328666D01*
X286379D01*
X288512Y326533D01*
X289045D01*
X280846Y323334D02*
X284045D01*
Y324934D01*
X283512Y325467D01*
X281379D01*
X280846Y324934D01*
Y323334D01*
Y328666D02*
X281379Y327600D01*
X282446Y326533D01*
X283512D01*
X284045Y327066D01*
Y328133D01*
X283512Y328666D01*
X282979D01*
X282446Y328133D01*
Y326533D01*
X290846Y323334D02*
X294045D01*
Y324934D01*
X293512Y325467D01*
X291379D01*
X290846Y324934D01*
Y323334D01*
Y328666D02*
Y326533D01*
X292445D01*
X291912Y327600D01*
Y328133D01*
X292445Y328666D01*
X293512D01*
X294045Y328133D01*
Y327066D01*
X293512Y326533D01*
X310346Y210834D02*
X313545D01*
Y212434D01*
X313012Y212967D01*
X310879D01*
X310346Y212434D01*
Y210834D01*
X313545Y215633D02*
X310346D01*
X311946Y214033D01*
Y216166D01*
X136280Y355100D02*
Y351901D01*
X137879D01*
X138412Y352434D01*
Y354566D01*
X137879Y355100D01*
X136280D01*
X139479Y354566D02*
X140012Y355100D01*
X141078D01*
X141611Y354566D01*
Y354033D01*
X141078Y353500D01*
X140545D01*
X141078D01*
X141611Y352967D01*
Y352434D01*
X141078Y351901D01*
X140012D01*
X139479Y352434D01*
X136280Y360599D02*
Y357400D01*
X137879D01*
X138412Y357934D01*
Y360066D01*
X137879Y360599D01*
X136280D01*
X141611Y357400D02*
X139479D01*
X141611Y359533D01*
Y360066D01*
X141078Y360599D01*
X140012D01*
X139479Y360066D01*
X136313Y365599D02*
Y362401D01*
X137912D01*
X138445Y362934D01*
Y365066D01*
X137912Y365599D01*
X136313D01*
X139512Y362401D02*
X140578D01*
X140045D01*
Y365599D01*
X139512Y365066D01*
X366980Y303066D02*
X366447Y303600D01*
X365380D01*
X364847Y303066D01*
Y300934D01*
X365380Y300400D01*
X366447D01*
X366980Y300934D01*
X368046Y300400D02*
X369113D01*
X368579D01*
Y303600D01*
X368046Y303066D01*
X372845Y300400D02*
X370712D01*
X372845Y302533D01*
Y303066D01*
X372311Y303600D01*
X371245D01*
X370712Y303066D01*
X373911Y300934D02*
X374444Y300400D01*
X375511D01*
X376044Y300934D01*
Y303066D01*
X375511Y303600D01*
X374444D01*
X373911Y303066D01*
Y302533D01*
X374444Y302000D01*
X376044D01*
X253379Y318801D02*
X252846Y318268D01*
Y317202D01*
X253379Y316668D01*
X255512D01*
X256045Y317202D01*
Y318268D01*
X255512Y318801D01*
X256045Y319867D02*
Y320934D01*
Y320401D01*
X252846D01*
X253379Y319867D01*
X256045Y322533D02*
Y323600D01*
Y323066D01*
X252846D01*
X253379Y322533D01*
Y325199D02*
X252846Y325732D01*
Y326799D01*
X253379Y327332D01*
X253912D01*
X254446Y326799D01*
X254979Y327332D01*
X255512D01*
X256045Y326799D01*
Y325732D01*
X255512Y325199D01*
X254979D01*
X254446Y325732D01*
X253912Y325199D01*
X253379D01*
X254446Y325732D02*
Y326799D01*
X258564Y215301D02*
X258030Y214768D01*
Y213702D01*
X258564Y213168D01*
X260696D01*
X261229Y213702D01*
Y214768D01*
X260696Y215301D01*
X261229Y216367D02*
Y217434D01*
Y216900D01*
X258030D01*
X258564Y216367D01*
X261229Y219033D02*
Y220099D01*
Y219566D01*
X258030D01*
X258564Y219033D01*
X258030Y223832D02*
Y221699D01*
X259630D01*
X259097Y222765D01*
Y223299D01*
X259630Y223832D01*
X260696D01*
X261229Y223299D01*
Y222232D01*
X260696Y221699D01*
X264746Y309566D02*
X264213Y310100D01*
X263147D01*
X262614Y309566D01*
Y307434D01*
X263147Y306901D01*
X264213D01*
X264746Y307434D01*
X265813Y306901D02*
X266879D01*
X266346D01*
Y310100D01*
X265813Y309566D01*
X268479Y306901D02*
X269545D01*
X269012D01*
Y310100D01*
X268479Y309566D01*
X272744Y306901D02*
Y310100D01*
X271144Y308500D01*
X273277D01*
X352747Y303566D02*
X352213Y304099D01*
X351147D01*
X350614Y303566D01*
Y301434D01*
X351147Y300901D01*
X352213D01*
X352747Y301434D01*
X353813Y300901D02*
X354879D01*
X354346D01*
Y304099D01*
X353813Y303566D01*
X356479Y300901D02*
X357545D01*
X357012D01*
Y304099D01*
X356479Y303566D01*
X359144D02*
X359678Y304099D01*
X360744D01*
X361277Y303566D01*
Y303033D01*
X360744Y302500D01*
X360211D01*
X360744D01*
X361277Y301967D01*
Y301434D01*
X360744Y300901D01*
X359678D01*
X359144Y301434D01*
X336747Y302566D02*
X336213Y303099D01*
X335147D01*
X334614Y302566D01*
Y300434D01*
X335147Y299901D01*
X336213D01*
X336747Y300434D01*
X337813Y299901D02*
X338879D01*
X338346D01*
Y303099D01*
X337813Y302566D01*
X340479Y299901D02*
X341545D01*
X341012D01*
Y303099D01*
X340479Y302566D01*
X345277Y299901D02*
X343144D01*
X345277Y302033D01*
Y302566D01*
X344744Y303099D01*
X343678D01*
X343144Y302566D01*
X296512Y297465D02*
X297045Y297999D01*
Y299065D01*
X296512Y299598D01*
X294379D01*
X293846Y299065D01*
Y297999D01*
X294379Y297465D01*
X293846Y296399D02*
Y295333D01*
Y295866D01*
X297045D01*
X296512Y296399D01*
Y293733D02*
X297045Y293200D01*
Y292134D01*
X296512Y291601D01*
X294379D01*
X293846Y292134D01*
Y293200D01*
X294379Y293733D01*
X296512D01*
X297045Y290534D02*
Y288402D01*
X296512D01*
X294379Y290534D01*
X293846D01*
X311980Y290566D02*
X311447Y291100D01*
X310380D01*
X309847Y290566D01*
Y288434D01*
X310380Y287900D01*
X311447D01*
X311980Y288434D01*
X313046Y287900D02*
X314113D01*
X313579D01*
Y291100D01*
X313046Y290566D01*
X315712D02*
X316245Y291100D01*
X317312D01*
X317845Y290566D01*
Y288434D01*
X317312Y287900D01*
X316245D01*
X315712Y288434D01*
Y290566D01*
X321044Y291100D02*
X319977Y290566D01*
X318911Y289500D01*
Y288434D01*
X319444Y287900D01*
X320511D01*
X321044Y288434D01*
Y288967D01*
X320511Y289500D01*
X318911D01*
X267379Y253535D02*
X266846Y253001D01*
Y251935D01*
X267379Y251402D01*
X269512D01*
X270045Y251935D01*
Y253001D01*
X269512Y253535D01*
X270045Y254601D02*
Y255667D01*
Y255134D01*
X266846D01*
X267379Y254601D01*
Y257267D02*
X266846Y257800D01*
Y258866D01*
X267379Y259399D01*
X269512D01*
X270045Y258866D01*
Y257800D01*
X269512Y257267D01*
X267379D01*
X270045Y262065D02*
X266846D01*
X268445Y260466D01*
Y262598D01*
X250980Y247566D02*
X250447Y248099D01*
X249380D01*
X248847Y247566D01*
Y245434D01*
X249380Y244900D01*
X250447D01*
X250980Y245434D01*
X252046Y244900D02*
X253113D01*
X252579D01*
Y248099D01*
X252046Y247566D01*
X254712D02*
X255245Y248099D01*
X256311D01*
X256845Y247566D01*
Y245434D01*
X256311Y244900D01*
X255245D01*
X254712Y245434D01*
Y247566D01*
X260044Y244900D02*
X257911D01*
X260044Y247033D01*
Y247566D01*
X259510Y248099D01*
X258444D01*
X257911Y247566D01*
X256879Y234568D02*
X256346Y234034D01*
Y232968D01*
X256879Y232435D01*
X259012D01*
X259545Y232968D01*
Y234034D01*
X259012Y234568D01*
X259545Y235634D02*
Y236700D01*
Y236167D01*
X256346D01*
X256879Y235634D01*
Y238300D02*
X256346Y238833D01*
Y239899D01*
X256879Y240432D01*
X259012D01*
X259545Y239899D01*
Y238833D01*
X259012Y238300D01*
X256879D01*
X259545Y241499D02*
Y242565D01*
Y242032D01*
X256346D01*
X256879Y241499D01*
X364379Y191867D02*
X363846Y191334D01*
Y190268D01*
X364379Y189735D01*
X366512D01*
X367045Y190268D01*
Y191334D01*
X366512Y191867D01*
X363846Y192934D02*
Y195066D01*
X364379D01*
X366512Y192934D01*
X367045D01*
X364379Y196133D02*
X363846Y196666D01*
Y197732D01*
X364379Y198265D01*
X364912D01*
X365445Y197732D01*
X365979Y198265D01*
X366512D01*
X367045Y197732D01*
Y196666D01*
X366512Y196133D01*
X365979D01*
X365445Y196666D01*
X364912Y196133D01*
X364379D01*
X365445Y196666D02*
Y197732D01*
X327879Y183867D02*
X327346Y183334D01*
Y182268D01*
X327879Y181735D01*
X330012D01*
X330545Y182268D01*
Y183334D01*
X330012Y183867D01*
X327346Y184934D02*
Y187066D01*
X327879D01*
X330012Y184934D01*
X330545D01*
X327346Y188133D02*
Y190265D01*
X327879D01*
X330012Y188133D01*
X330545D01*
X389313Y171066D02*
X388780Y171599D01*
X387713D01*
X387180Y171066D01*
Y168934D01*
X387713Y168401D01*
X388780D01*
X389313Y168934D01*
X390379Y171599D02*
X392512D01*
Y171066D01*
X390379Y168934D01*
Y168401D01*
X395711Y171599D02*
X394644Y171066D01*
X393578Y170000D01*
Y168934D01*
X394111Y168401D01*
X395178D01*
X395711Y168934D01*
Y169467D01*
X395178Y170000D01*
X393578D01*
X356379Y200867D02*
X355846Y200334D01*
Y199268D01*
X356379Y198735D01*
X358512D01*
X359045Y199268D01*
Y200334D01*
X358512Y200867D01*
X355846Y201934D02*
Y204066D01*
X356379D01*
X358512Y201934D01*
X359045D01*
X355846Y207265D02*
Y205133D01*
X357446D01*
X356912Y206199D01*
Y206732D01*
X357446Y207265D01*
X358512D01*
X359045Y206732D01*
Y205666D01*
X358512Y205133D01*
X380313Y188566D02*
X379780Y189100D01*
X378713D01*
X378180Y188566D01*
Y186434D01*
X378713Y185900D01*
X379780D01*
X380313Y186434D01*
X381379Y189100D02*
X383512D01*
Y188566D01*
X381379Y186434D01*
Y185900D01*
X386178D02*
Y189100D01*
X384578Y187500D01*
X386711D01*
X333879Y172867D02*
X333346Y172334D01*
Y171268D01*
X333879Y170735D01*
X336012D01*
X336545Y171268D01*
Y172334D01*
X336012Y172867D01*
X333346Y173934D02*
Y176066D01*
X333879D01*
X336012Y173934D01*
X336545D01*
Y179265D02*
Y177133D01*
X334412Y179265D01*
X333879D01*
X333346Y178732D01*
Y177666D01*
X333879Y177133D01*
X336879Y192867D02*
X336346Y192334D01*
Y191268D01*
X336879Y190735D01*
X339012D01*
X339545Y191268D01*
Y192334D01*
X339012Y192867D01*
X336346Y193934D02*
Y196066D01*
X336879D01*
X339012Y193934D01*
X339545D01*
X336879Y197133D02*
X336346Y197666D01*
Y198732D01*
X336879Y199265D01*
X339012D01*
X339545Y198732D01*
Y197666D01*
X339012Y197133D01*
X336879D01*
X357813Y215066D02*
X357280Y215599D01*
X356213D01*
X355680Y215066D01*
Y212934D01*
X356213Y212401D01*
X357280D01*
X357813Y212934D01*
X361012Y215599D02*
X359946Y215066D01*
X358879Y214000D01*
Y212934D01*
X359412Y212401D01*
X360479D01*
X361012Y212934D01*
Y213467D01*
X360479Y214000D01*
X358879D01*
X362078Y212934D02*
X362611Y212401D01*
X363678D01*
X364211Y212934D01*
Y215066D01*
X363678Y215599D01*
X362611D01*
X362078Y215066D01*
Y214533D01*
X362611Y214000D01*
X364211D01*
X356078Y137934D02*
X356611Y137400D01*
X357678D01*
X358211Y137934D01*
Y140066D01*
X357678Y140600D01*
X356611D01*
X356078Y140066D01*
X352879Y137400D02*
X353945Y137934D01*
X355012Y139000D01*
Y140066D01*
X354479Y140600D01*
X353412D01*
X352879Y140066D01*
Y139533D01*
X353412Y139000D01*
X355012D01*
X351813Y137400D02*
X349680D01*
Y137934D01*
X351813Y140066D01*
Y140600D01*
X384879Y225867D02*
X384346Y225334D01*
Y224268D01*
X384879Y223735D01*
X387012D01*
X387545Y224268D01*
Y225334D01*
X387012Y225867D01*
X384346Y229066D02*
X384879Y228000D01*
X385946Y226934D01*
X387012D01*
X387545Y227467D01*
Y228533D01*
X387012Y229066D01*
X386479D01*
X385946Y228533D01*
Y226934D01*
X384879Y230133D02*
X384346Y230666D01*
Y231732D01*
X384879Y232265D01*
X385412D01*
X385946Y231732D01*
Y231199D01*
Y231732D01*
X386479Y232265D01*
X387012D01*
X387545Y231732D01*
Y230666D01*
X387012Y230133D01*
X402512Y227633D02*
X403045Y228166D01*
Y229232D01*
X402512Y229765D01*
X400379D01*
X399846Y229232D01*
Y228166D01*
X400379Y227633D01*
X403045Y224434D02*
Y226566D01*
X401445D01*
X401979Y225500D01*
Y224967D01*
X401445Y224434D01*
X400379D01*
X399846Y224967D01*
Y226033D01*
X400379Y226566D01*
X403045Y223367D02*
Y221235D01*
X402512D01*
X400379Y223367D01*
X399846D01*
X430078Y246434D02*
X430611Y245901D01*
X431678D01*
X432211Y246434D01*
Y248566D01*
X431678Y249099D01*
X430611D01*
X430078Y248566D01*
X426879Y245901D02*
X429012D01*
Y247500D01*
X427946Y246967D01*
X427412D01*
X426879Y247500D01*
Y248566D01*
X427412Y249099D01*
X428479D01*
X429012Y248566D01*
X423680Y245901D02*
X424747Y246434D01*
X425813Y247500D01*
Y248566D01*
X425280Y249099D01*
X424213D01*
X423680Y248566D01*
Y248033D01*
X424213Y247500D01*
X425813D01*
X425012Y227633D02*
X425545Y228166D01*
Y229232D01*
X425012Y229765D01*
X422879D01*
X422346Y229232D01*
Y228166D01*
X422879Y227633D01*
X425545Y224434D02*
Y226566D01*
X423946D01*
X424479Y225500D01*
Y224967D01*
X423946Y224434D01*
X422879D01*
X422346Y224967D01*
Y226033D01*
X422879Y226566D01*
X425545Y221235D02*
Y223367D01*
X423946D01*
X424479Y222301D01*
Y221768D01*
X423946Y221235D01*
X422879D01*
X422346Y221768D01*
Y222834D01*
X422879Y223367D01*
X407879Y222867D02*
X407346Y222334D01*
Y221268D01*
X407879Y220735D01*
X410012D01*
X410545Y221268D01*
Y222334D01*
X410012Y222867D01*
X407346Y226066D02*
Y223934D01*
X408946D01*
X408412Y225000D01*
Y225533D01*
X408946Y226066D01*
X410012D01*
X410545Y225533D01*
Y224467D01*
X410012Y223934D01*
X410545Y229265D02*
Y227133D01*
X408412Y229265D01*
X407879D01*
X407346Y228732D01*
Y227666D01*
X407879Y227133D01*
X408078Y165934D02*
X408611Y165401D01*
X409678D01*
X410211Y165934D01*
Y168066D01*
X409678Y168599D01*
X408611D01*
X408078Y168066D01*
X405412Y168599D02*
Y165401D01*
X407012Y167000D01*
X404879D01*
X403813Y168066D02*
X403280Y168599D01*
X402213D01*
X401680Y168066D01*
Y165934D01*
X402213Y165401D01*
X403280D01*
X403813Y165934D01*
Y166467D01*
X403280Y167000D01*
X401680D01*
X432512Y184633D02*
X433045Y185166D01*
Y186232D01*
X432512Y186765D01*
X430379D01*
X429846Y186232D01*
Y185166D01*
X430379Y184633D01*
X429846Y181967D02*
X433045D01*
X431446Y183566D01*
Y181434D01*
X432512Y180367D02*
X433045Y179834D01*
Y178768D01*
X432512Y178235D01*
X431979D01*
X431446Y178768D01*
X430912Y178235D01*
X430379D01*
X429846Y178768D01*
Y179834D01*
X430379Y180367D01*
X430912D01*
X431446Y179834D01*
X431979Y180367D01*
X432512D01*
X431446Y179834D02*
Y178768D01*
X418379Y181867D02*
X417846Y181334D01*
Y180268D01*
X418379Y179735D01*
X420512D01*
X421045Y180268D01*
Y181334D01*
X420512Y181867D01*
X421045Y184533D02*
X417846D01*
X419446Y182934D01*
Y185066D01*
X417846Y186133D02*
Y188265D01*
X418379D01*
X420512Y186133D01*
X421045D01*
X435564Y180367D02*
X435030Y179834D01*
Y178768D01*
X435564Y178235D01*
X437696D01*
X438229Y178768D01*
Y179834D01*
X437696Y180367D01*
X438229Y183033D02*
X435030D01*
X436630Y181434D01*
Y183566D01*
X435030Y186765D02*
X435564Y185699D01*
X436630Y184633D01*
X437696D01*
X438229Y185166D01*
Y186232D01*
X437696Y186765D01*
X437163D01*
X436630Y186232D01*
Y184633D01*
X487512Y265599D02*
X488045Y266133D01*
Y267199D01*
X487512Y267732D01*
X485379D01*
X484846Y267199D01*
Y266133D01*
X485379Y265599D01*
X484846Y262934D02*
X488045D01*
X486446Y264533D01*
Y262401D01*
X484846Y261334D02*
Y260268D01*
Y260801D01*
X488045D01*
X487512Y261334D01*
X513494Y312566D02*
X512961Y313100D01*
X511894D01*
X511361Y312566D01*
Y310434D01*
X511894Y309900D01*
X512961D01*
X513494Y310434D01*
X516160Y309900D02*
Y313100D01*
X514560Y311500D01*
X516693D01*
X517759Y312566D02*
X518292Y313100D01*
X519359D01*
X519892Y312566D01*
Y310434D01*
X519359Y309900D01*
X518292D01*
X517759Y310434D01*
Y312566D01*
X455313Y308566D02*
X454780Y309100D01*
X453713D01*
X453180Y308566D01*
Y306434D01*
X453713Y305901D01*
X454780D01*
X455313Y306434D01*
X456379Y308566D02*
X456912Y309100D01*
X457979D01*
X458512Y308566D01*
Y308033D01*
X457979Y307500D01*
X457445D01*
X457979D01*
X458512Y306967D01*
Y306434D01*
X457979Y305901D01*
X456912D01*
X456379Y306434D01*
X459578D02*
X460111Y305901D01*
X461178D01*
X461711Y306434D01*
Y308566D01*
X461178Y309100D01*
X460111D01*
X459578Y308566D01*
Y308033D01*
X460111Y307500D01*
X461711D01*
X503313Y294066D02*
X502780Y294600D01*
X501713D01*
X501180Y294066D01*
Y291934D01*
X501713Y291401D01*
X502780D01*
X503313Y291934D01*
X504379Y294066D02*
X504912Y294600D01*
X505979D01*
X506512Y294066D01*
Y293533D01*
X505979Y293000D01*
X505445D01*
X505979D01*
X506512Y292467D01*
Y291934D01*
X505979Y291401D01*
X504912D01*
X504379Y291934D01*
X509711Y294600D02*
X507578D01*
Y293000D01*
X508644Y293533D01*
X509178D01*
X509711Y293000D01*
Y291934D01*
X509178Y291401D01*
X508111D01*
X507578Y291934D01*
X503281Y288066D02*
X502748Y288599D01*
X501682D01*
X501149Y288066D01*
Y285934D01*
X501682Y285401D01*
X502748D01*
X503281Y285934D01*
X504348Y288066D02*
X504881Y288599D01*
X505947D01*
X506480Y288066D01*
Y287533D01*
X505947Y287000D01*
X505414D01*
X505947D01*
X506480Y286467D01*
Y285934D01*
X505947Y285401D01*
X504881D01*
X504348Y285934D01*
X507547Y288066D02*
X508080Y288599D01*
X509146D01*
X509679Y288066D01*
Y287533D01*
X509146Y287000D01*
X508613D01*
X509146D01*
X509679Y286467D01*
Y285934D01*
X509146Y285401D01*
X508080D01*
X507547Y285934D01*
X492512Y265133D02*
X493045Y265666D01*
Y266732D01*
X492512Y267265D01*
X490379D01*
X489846Y266732D01*
Y265666D01*
X490379Y265133D01*
X492512Y264066D02*
X493045Y263533D01*
Y262467D01*
X492512Y261934D01*
X491979D01*
X491445Y262467D01*
Y263000D01*
Y262467D01*
X490912Y261934D01*
X490379D01*
X489846Y262467D01*
Y263533D01*
X490379Y264066D01*
X489846Y258735D02*
Y260867D01*
X491979Y258735D01*
X492512D01*
X493045Y259268D01*
Y260334D01*
X492512Y260867D01*
X506488Y279677D02*
X505955Y280210D01*
X504889D01*
X504356Y279677D01*
Y277544D01*
X504889Y277011D01*
X505955D01*
X506488Y277544D01*
X507555Y279677D02*
X508088Y280210D01*
X509154D01*
X509687Y279677D01*
Y279144D01*
X509154Y278611D01*
X508621D01*
X509154D01*
X509687Y278078D01*
Y277544D01*
X509154Y277011D01*
X508088D01*
X507555Y277544D01*
X510753Y277011D02*
X511820D01*
X511287D01*
Y280210D01*
X510753Y279677D01*
X480497Y318098D02*
X479964Y318631D01*
X478898D01*
X478365Y318098D01*
Y315965D01*
X478898Y315432D01*
X479964D01*
X480497Y315965D01*
X481564Y318098D02*
X482097Y318631D01*
X483163D01*
X483696Y318098D01*
Y317565D01*
X483163Y317032D01*
X482630D01*
X483163D01*
X483696Y316498D01*
Y315965D01*
X483163Y315432D01*
X482097D01*
X481564Y315965D01*
X484763Y318098D02*
X485296Y318631D01*
X486362D01*
X486895Y318098D01*
Y315965D01*
X486362Y315432D01*
X485296D01*
X484763Y315965D01*
Y318098D01*
X465879Y269367D02*
X465346Y268834D01*
Y267768D01*
X465879Y267235D01*
X468012D01*
X468545Y267768D01*
Y268834D01*
X468012Y269367D01*
X468545Y272566D02*
Y270434D01*
X466412Y272566D01*
X465879D01*
X465346Y272033D01*
Y270967D01*
X465879Y270434D01*
X468012Y273633D02*
X468545Y274166D01*
Y275232D01*
X468012Y275765D01*
X465879D01*
X465346Y275232D01*
Y274166D01*
X465879Y273633D01*
X466412D01*
X466946Y274166D01*
Y275765D01*
X343313Y352066D02*
X342780Y352600D01*
X341713D01*
X341180Y352066D01*
Y349934D01*
X341713Y349400D01*
X342780D01*
X343313Y349934D01*
X344379Y352066D02*
X344912Y352600D01*
X345979D01*
X346512Y352066D01*
Y351533D01*
X345979Y351000D01*
X346512Y350467D01*
Y349934D01*
X345979Y349400D01*
X344912D01*
X344379Y349934D01*
Y350467D01*
X344912Y351000D01*
X344379Y351533D01*
Y352066D01*
X344912Y351000D02*
X345979D01*
X347578Y352600D02*
X349711D01*
Y352066D01*
X347578Y349934D01*
Y349400D01*
X338813Y371566D02*
X338280Y372099D01*
X337213D01*
X336680Y371566D01*
Y369434D01*
X337213Y368900D01*
X338280D01*
X338813Y369434D01*
X339879Y371566D02*
X340412Y372099D01*
X341479D01*
X342012Y371566D01*
Y371033D01*
X341479Y370500D01*
X342012Y369967D01*
Y369434D01*
X341479Y368900D01*
X340412D01*
X339879Y369434D01*
Y369967D01*
X340412Y370500D01*
X339879Y371033D01*
Y371566D01*
X340412Y370500D02*
X341479D01*
X345211Y372099D02*
X344144Y371566D01*
X343078Y370500D01*
Y369434D01*
X343611Y368900D01*
X344678D01*
X345211Y369434D01*
Y369967D01*
X344678Y370500D01*
X343078D01*
X289813Y378566D02*
X289280Y379099D01*
X288213D01*
X287680Y378566D01*
Y376434D01*
X288213Y375901D01*
X289280D01*
X289813Y376434D01*
X290879Y378566D02*
X291412Y379099D01*
X292479D01*
X293012Y378566D01*
Y378033D01*
X292479Y377500D01*
X293012Y376967D01*
Y376434D01*
X292479Y375901D01*
X291412D01*
X290879Y376434D01*
Y376967D01*
X291412Y377500D01*
X290879Y378033D01*
Y378566D01*
X291412Y377500D02*
X292479D01*
X296211Y379099D02*
X294078D01*
Y377500D01*
X295144Y378033D01*
X295678D01*
X296211Y377500D01*
Y376434D01*
X295678Y375901D01*
X294611D01*
X294078Y376434D01*
X296412Y348066D02*
X295879Y348600D01*
X294813D01*
X294280Y348066D01*
Y345934D01*
X294813Y345401D01*
X295879D01*
X296412Y345934D01*
X299611Y348600D02*
X297479D01*
Y347000D01*
X298545Y347533D01*
X299078D01*
X299611Y347000D01*
Y345934D01*
X299078Y345401D01*
X298012D01*
X297479Y345934D01*
X435412Y343566D02*
X434879Y344099D01*
X433813D01*
X433280Y343566D01*
Y341434D01*
X433813Y340900D01*
X434879D01*
X435412Y341434D01*
X438078Y340900D02*
Y344099D01*
X436479Y342500D01*
X438611D01*
X461412Y346066D02*
X460879Y346600D01*
X459813D01*
X459280Y346066D01*
Y343934D01*
X459813Y343401D01*
X460879D01*
X461412Y343934D01*
X462479Y346066D02*
X463012Y346600D01*
X464078D01*
X464611Y346066D01*
Y345533D01*
X464078Y345000D01*
X463545D01*
X464078D01*
X464611Y344467D01*
Y343934D01*
X464078Y343401D01*
X463012D01*
X462479Y343934D01*
X502412Y360566D02*
X501879Y361100D01*
X500813D01*
X500280Y360566D01*
Y358434D01*
X500813Y357901D01*
X501879D01*
X502412Y358434D01*
X505611Y357901D02*
X503479D01*
X505611Y360033D01*
Y360566D01*
X505078Y361100D01*
X504012D01*
X503479Y360566D01*
X473946Y355066D02*
X473412Y355599D01*
X472346D01*
X471813Y355066D01*
Y352934D01*
X472346Y352400D01*
X473412D01*
X473946Y352934D01*
X475012Y352400D02*
X476078D01*
X475545D01*
Y355599D01*
X475012Y355066D01*
D150*
X1005525Y322166D02*
G03*
X1005525Y322166I-492J0D01*
G01*
X790203Y204645D02*
G03*
X790203Y204645I-492J0D01*
G01*
X896472Y296682D02*
G03*
X896472Y296682I-492J0D01*
G01*
X786301Y182546D02*
G03*
X786301Y182546I-492J0D01*
G01*
X729469Y185066D02*
G03*
X729469Y185066I-492J0D01*
G01*
X274938Y282000D02*
G03*
X274938Y282000I-492J0D01*
G01*
X415044Y270756D02*
G03*
X415044Y270756I-492J0D01*
G01*
X223122Y231500D02*
G03*
X223122Y231500I-492J0D01*
G01*
X302114Y307311D02*
G03*
X302114Y307311I-492J0D01*
G01*
X492971Y314344D02*
G03*
X492996Y314189I-467J-156D01*
G01*
X478528Y175055D02*
G03*
X478528Y175055I-492J0D01*
G01*
X342438Y189000D02*
G03*
X342438Y189000I-492J0D01*
G01*
X274938Y282000D02*
G03*
X274938Y282000I-492J0D01*
G01*
X449938Y338500D02*
G03*
X449938Y338500I-492J0D01*
G01*
X357221Y371847D02*
G03*
X357221Y371847I-492J0D01*
G01*
X394040Y191150D02*
G03*
X394040Y191150I-492J0D01*
G01*
X435587Y355453D02*
G03*
X435587Y355453I-492J0D01*
G01*
X517925Y161047D02*
G03*
X517925Y161047I-492J0D01*
G01*
X401241D02*
G03*
X401241Y161047I-492J0D01*
G01*
D151*
X901216Y306131D02*
G03*
X901216Y306131I-1181J0D01*
G01*
X367359Y367791D02*
G03*
X367359Y367791I-1181J0D01*
G01*
D152*
X918261Y162785D02*
Y169872D01*
X868587Y309057D02*
Y325593D01*
X888272Y318506D02*
Y325593D01*
X738414Y326223D02*
Y329373D01*
X736702D02*
X738414D01*
Y313821D02*
Y315002D01*
X737233Y313821D02*
X738414D01*
X722864D02*
X724045D01*
X722864D02*
Y315002D01*
Y329372D02*
X724045D01*
X722864Y328191D02*
Y329372D01*
X853474Y316180D02*
Y319330D01*
X851761D02*
X853474D01*
Y303778D02*
Y304960D01*
X852293Y303778D02*
X853474D01*
X837923D02*
X839104D01*
X837923D02*
Y304960D01*
Y319329D02*
X839104D01*
X837923Y318148D02*
Y319329D01*
X963655Y336926D02*
Y338107D01*
X976157Y341808D02*
Y342989D01*
X983088Y343968D02*
X984269D01*
X987395Y343847D02*
X988576D01*
X978424Y343968D02*
X979605D01*
X976316Y345926D02*
Y347107D01*
X700771Y220859D02*
Y222040D01*
Y224859D02*
Y226040D01*
Y232859D02*
Y234040D01*
X739011Y237280D02*
X740192D01*
X955315Y331985D02*
Y333166D01*
X689045Y359380D02*
X690226D01*
X719545Y312219D02*
X720726D01*
X678804Y357459D02*
Y358640D01*
X741544Y317719D02*
X742726D01*
X815044Y351380D02*
X816226D01*
X834044Y302219D02*
X835226D01*
X802304Y350459D02*
Y351640D01*
X857045Y308219D02*
X858226D01*
X922544Y129219D02*
X923726D01*
X924962Y135238D02*
Y136419D01*
X940234Y142829D02*
X945352D01*
X902124Y156738D02*
Y157919D01*
X877734Y156829D02*
X882852D01*
X923702Y115998D02*
X924883D01*
X928202D02*
X929383D01*
X903545Y124880D02*
X904726D01*
X919202Y124659D02*
X920383D01*
X897624Y141738D02*
Y142919D01*
X888462Y120738D02*
Y121919D01*
X899202Y125998D02*
X900383D01*
X930202Y163159D02*
X931383D01*
X934702D02*
X935883D01*
X899045Y116219D02*
X900226D01*
X855426Y112506D02*
Y113294D01*
X866844Y112506D02*
Y113294D01*
Y118806D02*
Y119593D01*
X855426Y118806D02*
Y119593D01*
X859167Y112506D02*
Y119593D01*
X855426D02*
X866844D01*
X855426Y112506D02*
X866844D01*
X942055Y344245D02*
X943236D01*
X961055Y335245D02*
X962236D01*
X1026816Y334926D02*
Y336107D01*
Y329926D02*
Y331107D01*
X997424Y310775D02*
X998605D01*
X986966Y349959D02*
Y351140D01*
X1001395Y310686D02*
X1002576D01*
X987816Y302426D02*
Y303607D01*
X967804Y349959D02*
Y351140D01*
X724101Y214391D02*
Y219509D01*
X739011Y228280D02*
X740192D01*
X700771Y228859D02*
Y230040D01*
X712511Y235780D02*
X713692D01*
X719545Y303719D02*
X720726D01*
X725576Y340550D02*
X730694D01*
X736576D02*
X741694D01*
X726045Y303719D02*
X727226D01*
X741237Y308459D02*
Y309640D01*
X834044Y293719D02*
X835226D01*
X841076Y331550D02*
X846194D01*
X853076D02*
X858194D01*
X841045Y293719D02*
X842226D01*
X854966Y298459D02*
Y299640D01*
X929202Y142498D02*
X930383D01*
X933624Y130738D02*
Y131919D01*
X934202Y138498D02*
X935383D01*
X964234Y142829D02*
X969352D01*
X952234D02*
X957352D01*
X905702Y128998D02*
X906883D01*
X923702Y154498D02*
X924883D01*
X876838Y125835D02*
Y130953D01*
Y138335D02*
Y143453D01*
X930624Y170238D02*
Y171419D01*
X888462Y131738D02*
Y132919D01*
X904962Y175238D02*
Y176419D01*
X789935Y156401D02*
Y161519D01*
X738935Y154401D02*
Y159519D01*
X759977Y128160D02*
Y133278D01*
X950822Y344454D02*
X952988D01*
X957889Y347111D02*
Y349966D01*
X945921D02*
X949248D01*
X954562D02*
X957889D01*
X945921Y347111D02*
Y349966D01*
X1001785Y324332D02*
X1014186D01*
Y338702D01*
X1001785D02*
X1014186D01*
X1001785Y324332D02*
Y338702D01*
X793451Y203562D02*
X795419D01*
X793451Y191357D02*
X795419D01*
X793451D02*
Y203562D01*
X795419Y191357D02*
Y203562D01*
X942554Y302194D02*
Y326603D01*
X896098Y302194D02*
Y326603D01*
X942554D01*
X896098Y302194D02*
X942554D01*
X829214Y166795D02*
Y169944D01*
X835119Y166795D02*
Y169944D01*
X755888Y195885D02*
Y199034D01*
X749982Y195885D02*
Y199034D01*
X790041Y181365D02*
X793191D01*
Y178215D02*
Y181365D01*
X790041Y169554D02*
X793191D01*
Y172704D01*
X733209Y183885D02*
X736359D01*
Y180735D02*
Y183885D01*
X733209Y172074D02*
X736359D01*
Y175223D01*
X666060Y361274D02*
X669210D01*
X666060Y351825D02*
X669210D01*
X790060Y353274D02*
X793210D01*
X790060Y343825D02*
X793210D01*
X752024Y113145D02*
Y116294D01*
X757930Y113145D02*
Y116294D01*
X810860Y180235D02*
X814010D01*
X810860Y189684D02*
X814010D01*
X810860Y167735D02*
X814010D01*
X810860Y177184D02*
X814010D01*
X807860Y153735D02*
X811010D01*
X807860Y163184D02*
X811010D01*
X807860Y140235D02*
X811010D01*
X807860Y149684D02*
X811010D01*
X760524Y113145D02*
Y116294D01*
X766430Y113145D02*
Y116294D01*
X225961Y262409D02*
Y263591D01*
X213929Y266409D02*
Y267590D01*
X209539Y280331D02*
X210720D01*
X188539Y280831D02*
X189720D01*
X178799Y264409D02*
Y265591D01*
X176799Y268409D02*
Y269591D01*
X175299Y272410D02*
Y273591D01*
X174799Y276410D02*
Y277591D01*
X232961Y251909D02*
Y253091D01*
X228461Y246409D02*
Y247590D01*
X219799Y242409D02*
Y243591D01*
X165083Y208925D02*
Y212075D01*
X159177Y208925D02*
Y212075D01*
X174130Y236941D02*
Y242059D01*
X207461Y232909D02*
Y234090D01*
X277386Y227067D02*
X336441D01*
X277386Y286122D02*
X336441D01*
Y227067D02*
Y286122D01*
X277386Y227067D02*
Y286122D01*
Y282185D02*
X281323Y286122D01*
X211299Y256410D02*
Y257591D01*
X415142Y242803D02*
Y244575D01*
X413371Y242803D02*
X415142D01*
X389749D02*
Y244575D01*
Y242803D02*
X391520D01*
X389749Y266425D02*
Y268197D01*
X391520D01*
X415142Y266425D02*
Y268197D01*
X413371D02*
X415142D01*
X172445Y192606D02*
Y228394D01*
X218016D02*
X222446D01*
Y192606D02*
Y228394D01*
X218016Y192606D02*
X222446D01*
X172445D02*
X176875D01*
X172445Y228394D02*
X176875D01*
X233583Y208925D02*
Y212075D01*
X227677Y208925D02*
Y212075D01*
X184539Y180669D02*
X185721D01*
X301031Y309870D02*
X313669D01*
X301031D02*
Y310539D01*
Y330461D02*
Y331130D01*
X313669D01*
X313591D02*
X326228D01*
Y330461D02*
Y331130D01*
X313591Y309870D02*
X326228D01*
Y310539D01*
X466044Y308630D02*
Y310402D01*
X467815D01*
X466044Y285598D02*
Y287370D01*
Y285598D02*
X467815D01*
X489075D02*
X490847D01*
Y287370D01*
X272130Y152000D02*
X332130D01*
X272130Y162000D02*
X332130D01*
X272130Y152000D02*
Y162000D01*
X332130Y152000D02*
Y162000D01*
X465634Y170035D02*
Y172496D01*
X468094D01*
X465634Y159504D02*
Y161965D01*
Y159504D02*
X468094D01*
X476165D02*
X478626D01*
Y161965D01*
Y170035D02*
Y172496D01*
X476165D02*
X478626D01*
X262811Y288528D02*
X266158D01*
Y288134D02*
Y288528D01*
Y279472D02*
Y279866D01*
X262811Y279472D02*
X266158D01*
X257102D02*
X260449D01*
X257102D02*
Y279866D01*
Y288528D02*
X260449D01*
X257102Y288134D02*
Y288528D01*
X317902Y372342D02*
X324989D01*
X317902Y352500D02*
X324446D01*
X341501Y184508D02*
Y186575D01*
X343567D01*
X363449D02*
X365516D01*
Y184508D02*
Y186575D01*
Y162559D02*
Y164626D01*
X363449Y162559D02*
X365516D01*
X341501D02*
Y164626D01*
Y162559D02*
X343567D01*
X447945Y324659D02*
Y327341D01*
X422945Y324659D02*
Y327341D01*
X362241Y325272D02*
X386650D01*
X362241Y371728D02*
X386650D01*
Y325272D02*
Y371728D01*
X362241Y325272D02*
Y371728D01*
X396107Y190067D02*
Y191740D01*
X397780D01*
X396107Y174417D02*
Y176091D01*
Y174417D02*
X397780D01*
X413430D02*
Y176091D01*
X411757Y174417D02*
X413430D01*
Y190067D02*
Y191740D01*
X411757D02*
X413430D01*
X437260Y346299D02*
Y358701D01*
Y346299D02*
X451630D01*
Y358701D01*
X437260D02*
X451630D01*
X492190Y348417D02*
Y350583D01*
X494847Y343516D02*
X497701D01*
Y352157D02*
Y355484D01*
Y343516D02*
Y346843D01*
X494847Y355484D02*
X497701D01*
X372182Y142587D02*
X376709D01*
X458366Y213413D02*
X462894D01*
X510760Y140201D02*
X514480D01*
X520780D02*
X524500D01*
X394075D02*
X397796D01*
X404095D02*
X407816D01*
X258221Y320610D02*
Y323760D01*
X267670Y320610D02*
Y323760D01*
X263405Y218925D02*
Y222075D01*
X272854Y218925D02*
Y222075D01*
X279170Y293925D02*
Y297075D01*
X269721Y293925D02*
Y297075D01*
X360670Y289925D02*
Y293075D01*
X351221Y289925D02*
Y293075D01*
X466044Y308630D02*
Y310402D01*
X467815D01*
X466044Y285598D02*
Y287370D01*
Y285598D02*
X467815D01*
X489075D02*
X490847D01*
Y287370D01*
X422945Y324659D02*
Y327341D01*
X447945Y324659D02*
Y327341D01*
X277418Y226972D02*
X336473D01*
X277418Y286028D02*
X336473D01*
Y226972D02*
Y286028D01*
X277418Y226972D02*
Y286028D01*
Y282090D02*
X281355Y286028D01*
X341438Y162512D02*
X343505D01*
X341438D02*
Y164579D01*
X363386Y162512D02*
X365453D01*
Y164579D01*
Y184461D02*
Y186528D01*
X363386D02*
X365453D01*
X341438D02*
X343505D01*
X341438Y184461D02*
Y186528D01*
X317902Y372342D02*
X324989D01*
D153*
X966511Y331598D02*
Y329812D01*
X965767Y331151D02*
X967255Y330259D01*
Y331151D02*
X965767Y330259D01*
X718810Y242452D02*
Y240667D01*
X718067Y242006D02*
X719554Y241113D01*
Y242006D02*
X718067Y241113D01*
X215593Y239435D02*
X212261Y242767D01*
X215593D02*
X212261Y239435D01*
X215593Y241101D02*
X212261D01*
X213927Y242767D02*
Y239435D01*
D154*
X191559Y271185D02*
G03*
X191559Y271185I-197J0D01*
G01*
X266354Y290496D02*
G03*
X266354Y290496I-197J0D01*
G01*
M02*
