G04*
G04 #@! TF.GenerationSoftware,Altium Limited,Altium Designer,21.5.1 (32)*
G04*
G04 Layer_Physical_Order=3*
G04 Layer_Color=128*
%FSLAX25Y25*%
%MOIN*%
G70*
G04*
G04 #@! TF.SameCoordinates,DFD27BC7-BC2E-4EA6-85E0-B657734EDDAB*
G04*
G04*
G04 #@! TF.FilePolarity,Negative*
G04*
G01*
G75*
%ADD52C,0.04000*%
%ADD54C,0.01000*%
%ADD121C,0.05000*%
%ADD122C,0.04800*%
%ADD123C,0.13700*%
%ADD124C,0.07500*%
%ADD125C,0.05700*%
%ADD127C,0.04700*%
%ADD129C,0.04243*%
G04:AMPARAMS|DCode=130|XSize=66.055mil|YSize=66.055mil|CornerRadius=0mil|HoleSize=0mil|Usage=FLASHONLY|Rotation=0.000|XOffset=0mil|YOffset=0mil|HoleType=Round|Shape=Relief|Width=3.5mil|Gap=3.5mil|Entries=4|*
%AMTHD130*
7,0,0,0.06606,0.05906,0.00350,45*
%
%ADD130THD130*%
%ADD131C,0.01500*%
G04:AMPARAMS|DCode=132|XSize=94.622mil|YSize=94.622mil|CornerRadius=0mil|HoleSize=0mil|Usage=FLASHONLY|Rotation=0.000|XOffset=0mil|YOffset=0mil|HoleType=Round|Shape=Relief|Width=3.5mil|Gap=3.5mil|Entries=4|*
%AMTHD132*
7,0,0,0.09462,0.08762,0.00350,45*
%
%ADD132THD132*%
%ADD133C,0.04200*%
%ADD134C,0.02200*%
%ADD135C,0.01700*%
G04:AMPARAMS|DCode=136|XSize=98.622mil|YSize=98.622mil|CornerRadius=0mil|HoleSize=0mil|Usage=FLASHONLY|Rotation=0.000|XOffset=0mil|YOffset=0mil|HoleType=Round|Shape=Relief|Width=3.5mil|Gap=3.5mil|Entries=4|*
%AMTHD136*
7,0,0,0.09862,0.09162,0.00350,45*
%
%ADD136THD136*%
%ADD137C,0.01487*%
G36*
X213195Y139500D02*
X217946D01*
Y126500D01*
X213195D01*
Y110800D01*
X225496D01*
Y104600D01*
X165395D01*
Y110800D01*
X177696D01*
Y126500D01*
X172945D01*
Y139500D01*
X177696D01*
Y151900D01*
X213195D01*
Y139500D01*
D02*
G37*
D52*
X100000Y100000D02*
Y425000D01*
X1075000D01*
Y100000D02*
Y425000D01*
X100000Y100000D02*
X1075000D01*
X594685Y100500D02*
X1069685D01*
Y375500D01*
X819022D02*
X1069685D01*
X819022D02*
Y425500D01*
X751521D02*
X819022D01*
X751521Y375500D02*
Y425500D01*
X744522Y375500D02*
X751521D01*
X744522D02*
Y425500D01*
X658021D02*
X744522D01*
X658021Y375500D02*
Y425500D01*
X594685Y375500D02*
X658021D01*
X594685Y100500D02*
Y375500D01*
X213195Y139500D02*
Y151900D01*
Y139500D02*
X217946D01*
Y126500D02*
Y139500D01*
X213195Y126500D02*
X217946D01*
X213195Y110800D02*
Y126500D01*
Y110800D02*
X225496D01*
Y104600D02*
Y110800D01*
X165395Y104600D02*
X225496D01*
X165395D02*
Y110800D01*
X177696D01*
Y126500D01*
X172945D02*
X177696D01*
X172945D02*
Y139500D01*
X177696D01*
Y151900D01*
X213195D01*
X325130Y375500D02*
Y425000D01*
X257630D02*
X325130D01*
X257630Y375500D02*
Y425000D01*
X250130Y375500D02*
X257630D01*
X250130D02*
Y425000D01*
X163630D02*
X250130D01*
X163630Y375500D02*
Y425000D01*
X100500Y375500D02*
X163630D01*
X100500Y100500D02*
Y375500D01*
Y100500D02*
X575130D01*
Y375500D01*
X325130D02*
X575130D01*
D54*
X330446Y100500D02*
Y197500D01*
Y100500D02*
X575446D01*
X330446Y197500D02*
X334446Y201500D01*
X324945Y375500D02*
X575446D01*
X253945D02*
X257446D01*
Y425000D01*
X324446D01*
X324945Y425500D01*
Y375500D02*
Y425500D01*
X575446Y100500D02*
Y375500D01*
X334446Y201500D02*
X367946D01*
X412445Y157000D01*
X421446D01*
X443445Y179000D01*
Y259000D01*
X416946Y285500D02*
X443445Y259000D01*
X384446Y285500D02*
X416946D01*
X337946Y332000D02*
X384446Y285500D01*
X282945Y332000D02*
X337946D01*
X253945Y361000D02*
X282945Y332000D01*
X253945Y361000D02*
Y375500D01*
X268445Y226500D02*
X334446D01*
Y293000D01*
X268445D02*
X334446D01*
X268445Y226500D02*
Y293000D01*
D121*
X151945Y209500D02*
X152945Y210500D01*
X151945Y206500D02*
Y209500D01*
X152945Y210500D02*
X245946D01*
X246946Y209500D01*
Y100500D02*
Y209500D01*
X151945Y100500D02*
X246946D01*
X151945D02*
Y206500D01*
D122*
X576500Y311500D02*
D03*
Y314500D02*
D03*
Y317500D02*
D03*
Y320500D02*
D03*
Y323500D02*
D03*
X593000Y311500D02*
D03*
Y314500D02*
D03*
Y317500D02*
D03*
Y320500D02*
D03*
Y323500D02*
D03*
X576500Y227000D02*
D03*
Y230000D02*
D03*
Y233000D02*
D03*
Y236000D02*
D03*
Y239000D02*
D03*
X593000Y227500D02*
D03*
Y230500D02*
D03*
Y233500D02*
D03*
Y236500D02*
D03*
Y239500D02*
D03*
X593500Y145000D02*
D03*
Y148000D02*
D03*
Y151000D02*
D03*
Y154000D02*
D03*
Y157000D02*
D03*
X576000D02*
D03*
Y154000D02*
D03*
Y151000D02*
D03*
Y148000D02*
D03*
Y145000D02*
D03*
D123*
X612185Y358000D02*
D03*
X1052185Y358000D02*
D03*
Y118000D02*
D03*
X612185D02*
D03*
X217946Y133000D02*
D03*
X172945D02*
D03*
X557996Y357950D02*
D03*
Y117950D02*
D03*
X117996D02*
D03*
Y357950D02*
D03*
D124*
X1010635Y159550D02*
D03*
X997635D02*
D03*
D125*
X677335Y198150D02*
D03*
Y245950D02*
D03*
D127*
X669635Y210250D02*
D03*
Y222050D02*
D03*
Y233850D02*
D03*
D129*
X1007179Y359637D02*
D03*
X997179D02*
D03*
X987179D02*
D03*
X977179D02*
D03*
X967179D02*
D03*
X692435Y161960D02*
D03*
Y151960D02*
D03*
Y141960D02*
D03*
Y131959D02*
D03*
Y121959D02*
D03*
X317130Y157000D02*
D03*
X307130D02*
D03*
X297130D02*
D03*
X287130D02*
D03*
X277130D02*
D03*
D130*
X327130D02*
D03*
D131*
X730639Y318545D02*
D03*
X733690Y321597D02*
D03*
X730639Y324648D02*
D03*
X727588Y321597D02*
D03*
X845698Y308502D02*
D03*
X848750Y311554D02*
D03*
X845698Y314605D02*
D03*
X842647Y311554D02*
D03*
X706631Y307545D02*
D03*
X703580Y310597D02*
D03*
X706631Y313648D02*
D03*
X709682Y310597D02*
D03*
X901954Y168369D02*
D03*
X730639Y321597D02*
D03*
X861135Y167550D02*
D03*
X867135Y166861D02*
D03*
X835635Y107050D02*
D03*
X934635Y127550D02*
D03*
X716135Y169550D02*
D03*
X728135Y319050D02*
D03*
X733135D02*
D03*
Y324050D02*
D03*
X728135D02*
D03*
X848135Y309050D02*
D03*
X843135D02*
D03*
X845698Y311554D02*
D03*
X848135Y314050D02*
D03*
X843135D02*
D03*
X706631Y310597D02*
D03*
X704135Y308050D02*
D03*
X709135D02*
D03*
Y313050D02*
D03*
X704135D02*
D03*
X855635Y319550D02*
D03*
X650135Y337550D02*
D03*
X657135Y337050D02*
D03*
X740135Y329050D02*
D03*
X918635Y132050D02*
D03*
X920635Y126050D02*
D03*
X805135Y379050D02*
D03*
X949635Y129050D02*
D03*
X973635D02*
D03*
X802135Y120550D02*
D03*
X789635Y110550D02*
D03*
X743135Y131050D02*
D03*
X698635Y229050D02*
D03*
X788135Y211550D02*
D03*
X656135Y359550D02*
D03*
X649635D02*
D03*
X643635D02*
D03*
X637635D02*
D03*
X631635D02*
D03*
X656135Y370550D02*
D03*
X649635D02*
D03*
X643635D02*
D03*
X637135D02*
D03*
X631135D02*
D03*
X624135D02*
D03*
X644135Y337550D02*
D03*
X638135D02*
D03*
X631635D02*
D03*
X625135D02*
D03*
X657135Y348550D02*
D03*
X650135D02*
D03*
X643635D02*
D03*
X638135D02*
D03*
X631635D02*
D03*
X811635Y370050D02*
D03*
X867135Y353050D02*
D03*
X889135Y294050D02*
D03*
X940135Y287550D02*
D03*
X1006979Y312050D02*
D03*
X1001135Y321050D02*
D03*
X1015635Y342050D02*
D03*
X964635Y350050D02*
D03*
X936135D02*
D03*
X875724Y291139D02*
D03*
X843135Y116050D02*
D03*
X800135Y137050D02*
D03*
X719435Y199460D02*
D03*
X706435D02*
D03*
X736898Y145638D02*
D03*
X728935Y147959D02*
D03*
X713477Y155219D02*
D03*
X761435Y204960D02*
D03*
X716166Y157869D02*
D03*
X710666D02*
D03*
X830166Y202369D02*
D03*
X832166Y156869D02*
D03*
X806166Y197369D02*
D03*
X799435Y168959D02*
D03*
X781435Y192459D02*
D03*
X772025Y197369D02*
D03*
X742435Y169959D02*
D03*
X716477Y192964D02*
D03*
X723935Y193459D02*
D03*
X716166Y152369D02*
D03*
X710666D02*
D03*
X717642Y128394D02*
D03*
X823435Y174186D02*
D03*
X734101Y221950D02*
D03*
X985826Y324398D02*
D03*
X981326D02*
D03*
X986326Y319398D02*
D03*
X981246Y319241D02*
D03*
X986385Y314399D02*
D03*
X976326Y323899D02*
D03*
Y319398D02*
D03*
Y314399D02*
D03*
X981326D02*
D03*
X983826Y299398D02*
D03*
X902826Y341399D02*
D03*
X866135Y333550D02*
D03*
X889635Y355050D02*
D03*
X1024326Y339399D02*
D03*
X960826Y356399D02*
D03*
X958826Y347899D02*
D03*
X992826Y340399D02*
D03*
X927326Y342399D02*
D03*
X920326Y338898D02*
D03*
X1006326Y320398D02*
D03*
X948826Y314898D02*
D03*
X973326Y302892D02*
D03*
X966826Y303398D02*
D03*
X955326Y312898D02*
D03*
X974645Y336576D02*
D03*
X966645Y332076D02*
D03*
X993486Y333017D02*
D03*
X1007986Y332017D02*
D03*
X997986Y327017D02*
D03*
Y337017D02*
D03*
X911135Y191050D02*
D03*
X960419Y146766D02*
D03*
X896135Y147550D02*
D03*
X873135Y173550D02*
D03*
X872900Y134644D02*
D03*
X886635Y121050D02*
D03*
X930635Y165050D02*
D03*
X934135Y149550D02*
D03*
X914635Y151550D02*
D03*
Y146550D02*
D03*
X909635Y151550D02*
D03*
Y146550D02*
D03*
X924293Y151104D02*
D03*
X914135Y135550D02*
D03*
X927135Y114050D02*
D03*
X904135Y127050D02*
D03*
X902635Y136050D02*
D03*
X911293Y162329D02*
D03*
X919293Y177829D02*
D03*
X723049Y302298D02*
D03*
X838135Y292050D02*
D03*
X724601Y227450D02*
D03*
X857635Y306050D02*
D03*
X843635Y344050D02*
D03*
X814635Y354550D02*
D03*
X785635Y358550D02*
D03*
X694135Y305550D02*
D03*
X696635Y342550D02*
D03*
X699135Y318550D02*
D03*
X728635Y351550D02*
D03*
X742135Y316050D02*
D03*
X715135Y289050D02*
D03*
X775135Y358050D02*
D03*
X747635Y354050D02*
D03*
X688668Y362016D02*
D03*
X662135Y365550D02*
D03*
X325674Y260311D02*
D03*
X314630Y257000D02*
D03*
X314435Y252306D02*
D03*
X318630Y252500D02*
D03*
X307231Y254944D02*
D03*
X326630Y264500D02*
D03*
X322630D02*
D03*
Y268500D02*
D03*
X326630D02*
D03*
X348130Y151500D02*
D03*
X352130D02*
D03*
X355130Y150500D02*
D03*
X344946Y145000D02*
D03*
X506630Y183500D02*
D03*
X258130Y231850D02*
D03*
Y223000D02*
D03*
X509945Y304000D02*
D03*
X507130Y166500D02*
D03*
X314684Y224554D02*
D03*
X358130Y205000D02*
D03*
X505130Y179500D02*
D03*
X447130Y187000D02*
D03*
X493130Y319000D02*
D03*
X302130Y178000D02*
D03*
Y187000D02*
D03*
X310630Y307500D02*
D03*
X245630Y281500D02*
D03*
Y290000D02*
D03*
X261630Y282500D02*
D03*
Y285500D02*
D03*
X497130Y152500D02*
D03*
X493630Y152000D02*
D03*
X470630Y164500D02*
D03*
X473630D02*
D03*
Y167500D02*
D03*
X470630D02*
D03*
X458130Y191500D02*
D03*
X452630Y186000D02*
D03*
X252130Y219000D02*
D03*
X188130Y242000D02*
D03*
X184130Y260000D02*
D03*
Y257500D02*
D03*
X183981Y255007D02*
D03*
X184630Y252800D02*
D03*
Y250500D02*
D03*
Y246500D02*
D03*
X197130Y232500D02*
D03*
X255630Y230000D02*
D03*
X258630Y226000D02*
D03*
X255130Y221000D02*
D03*
X281130Y227500D02*
D03*
X261630Y233500D02*
D03*
X276130Y215000D02*
D03*
X260630D02*
D03*
X217630Y269000D02*
D03*
X209630Y234500D02*
D03*
X191630Y236500D02*
D03*
X220630Y265000D02*
D03*
X148630Y228000D02*
D03*
X159630Y227500D02*
D03*
X219630Y248500D02*
D03*
X235130Y247500D02*
D03*
X219130Y239000D02*
D03*
X180630Y233500D02*
D03*
X165130Y230500D02*
D03*
Y242500D02*
D03*
X210130Y221000D02*
D03*
X185130Y221500D02*
D03*
X198630Y217000D02*
D03*
X435445Y223500D02*
D03*
X367445Y214000D02*
D03*
X336946Y225500D02*
D03*
X335422Y247354D02*
D03*
X348446Y252000D02*
D03*
X283235Y244800D02*
D03*
X322622Y232972D02*
D03*
X314668Y236739D02*
D03*
X314788Y240886D02*
D03*
X310770Y244658D02*
D03*
X310851Y240807D02*
D03*
Y236870D02*
D03*
X306736Y236669D02*
D03*
X302977Y240807D02*
D03*
X302838Y244591D02*
D03*
X294912Y244527D02*
D03*
X290890Y236540D02*
D03*
X299080Y232972D02*
D03*
X291166Y232933D02*
D03*
X310851Y264469D02*
D03*
X298933Y236799D02*
D03*
X298883Y248553D02*
D03*
X298787Y256307D02*
D03*
X302903Y280290D02*
D03*
X298966Y264395D02*
D03*
X306680Y264206D02*
D03*
X318617Y268294D02*
D03*
X307149Y272555D02*
D03*
X311070Y272098D02*
D03*
X299114Y272416D02*
D03*
X291240Y276353D02*
D03*
X287155Y276206D02*
D03*
X283218Y280290D02*
D03*
X274520Y267150D02*
D03*
X287302Y264542D02*
D03*
Y260458D02*
D03*
X310946Y280000D02*
D03*
X318846Y241000D02*
D03*
X278446Y253500D02*
D03*
X422445Y257500D02*
D03*
X397446Y175000D02*
D03*
X393445Y195000D02*
D03*
X399945Y196000D02*
D03*
X407894Y193616D02*
D03*
X413446Y192500D02*
D03*
X462946Y186500D02*
D03*
X457945D02*
D03*
X443946Y186000D02*
D03*
X434945D02*
D03*
X430945D02*
D03*
X464946Y193000D02*
D03*
X454446Y192500D02*
D03*
X449445D02*
D03*
X444945Y194000D02*
D03*
X437445Y196000D02*
D03*
X434445Y192500D02*
D03*
X429946D02*
D03*
X425446D02*
D03*
X370445Y159000D02*
D03*
X369946Y164000D02*
D03*
X374945Y168000D02*
D03*
X395445Y171000D02*
D03*
X391946Y167500D02*
D03*
X386946Y167000D02*
D03*
X381446D02*
D03*
X396946Y165000D02*
D03*
X394445Y163000D02*
D03*
X390445Y162000D02*
D03*
X386445D02*
D03*
X382446Y161500D02*
D03*
X378446Y161000D02*
D03*
X473946Y264500D02*
D03*
X476445Y261500D02*
D03*
X478945Y258500D02*
D03*
X481446Y256000D02*
D03*
X483946Y253500D02*
D03*
X485946Y251000D02*
D03*
X488945Y248000D02*
D03*
X491946Y245500D02*
D03*
X494945Y243000D02*
D03*
X497445Y240500D02*
D03*
X500446Y237500D02*
D03*
X502946Y234500D02*
D03*
X505445Y232000D02*
D03*
X508446Y229000D02*
D03*
X511446Y226000D02*
D03*
X514445Y223000D02*
D03*
Y219000D02*
D03*
Y215500D02*
D03*
Y211500D02*
D03*
Y207500D02*
D03*
Y204000D02*
D03*
Y200500D02*
D03*
Y197000D02*
D03*
Y193000D02*
D03*
Y189500D02*
D03*
Y186500D02*
D03*
Y183000D02*
D03*
Y179500D02*
D03*
Y176000D02*
D03*
Y173000D02*
D03*
Y170000D02*
D03*
Y166500D02*
D03*
Y163500D02*
D03*
Y160500D02*
D03*
X520946Y160000D02*
D03*
X520445Y163000D02*
D03*
Y167000D02*
D03*
Y171000D02*
D03*
Y175000D02*
D03*
Y179000D02*
D03*
Y183000D02*
D03*
Y187500D02*
D03*
Y191500D02*
D03*
Y195500D02*
D03*
Y199500D02*
D03*
Y203500D02*
D03*
Y207000D02*
D03*
Y210500D02*
D03*
Y214500D02*
D03*
Y218000D02*
D03*
Y221500D02*
D03*
Y225500D02*
D03*
X517945Y228500D02*
D03*
X514946Y231000D02*
D03*
X512445Y234000D02*
D03*
X509945Y236500D02*
D03*
X507445Y239000D02*
D03*
X504946Y241500D02*
D03*
X502446Y244000D02*
D03*
X499945Y246500D02*
D03*
X497445Y249000D02*
D03*
X494945Y251500D02*
D03*
X491946Y254500D02*
D03*
X488945Y257500D02*
D03*
X485946Y260500D02*
D03*
X482945Y263500D02*
D03*
X481446Y267500D02*
D03*
X473446Y268500D02*
D03*
X164945Y358000D02*
D03*
X140445Y358500D02*
D03*
X289925Y297480D02*
D03*
X300945Y286000D02*
D03*
X419945Y191500D02*
D03*
X392946Y189500D02*
D03*
X500946Y283500D02*
D03*
X482445Y272000D02*
D03*
X487396Y282257D02*
D03*
X472945Y273000D02*
D03*
X469945Y281000D02*
D03*
X459945Y293650D02*
D03*
X462946Y286500D02*
D03*
X465945Y284000D02*
D03*
X426945Y304150D02*
D03*
X435946Y306000D02*
D03*
X454946Y312000D02*
D03*
X440446Y308000D02*
D03*
X445445Y310000D02*
D03*
X350446Y368500D02*
D03*
X397945Y344500D02*
D03*
Y369000D02*
D03*
Y349000D02*
D03*
X480445Y360500D02*
D03*
X497445Y363500D02*
D03*
X438945Y362650D02*
D03*
X443946Y362500D02*
D03*
X454946Y338000D02*
D03*
X437445Y342500D02*
D03*
X494446Y271500D02*
D03*
X500946Y273500D02*
D03*
X511446Y311000D02*
D03*
X337445Y355000D02*
D03*
X326446Y361000D02*
D03*
X304446Y355000D02*
D03*
X280945Y362500D02*
D03*
X385353Y148500D02*
D03*
X416768Y149177D02*
D03*
X532945Y149000D02*
D03*
X501945D02*
D03*
X430945Y181500D02*
D03*
X467945Y187000D02*
D03*
X392946Y181500D02*
D03*
X416946Y188000D02*
D03*
X431946Y196000D02*
D03*
X364946Y161000D02*
D03*
X384446Y183500D02*
D03*
X387946Y172500D02*
D03*
X356446Y182000D02*
D03*
X350046D02*
D03*
X376446Y174500D02*
D03*
X361445Y151000D02*
D03*
X362946Y207000D02*
D03*
X339946Y214000D02*
D03*
X348446Y199500D02*
D03*
Y193500D02*
D03*
X338946D02*
D03*
X334446Y192000D02*
D03*
X335445Y178000D02*
D03*
X341946Y164000D02*
D03*
X322945Y173000D02*
D03*
X291946Y201500D02*
D03*
X327446Y175000D02*
D03*
X342946Y186000D02*
D03*
X386946Y176500D02*
D03*
X376945Y187000D02*
D03*
X348130Y136500D02*
D03*
X342946Y151500D02*
D03*
X297446Y213000D02*
D03*
X255446Y316685D02*
D03*
X270445D02*
D03*
X411446Y171500D02*
D03*
X377446Y197000D02*
D03*
X404446Y214000D02*
D03*
X230446Y220500D02*
D03*
X162945D02*
D03*
X303945Y301500D02*
D03*
X266946Y301000D02*
D03*
X281945D02*
D03*
X320946Y287500D02*
D03*
X308446Y226500D02*
D03*
X303446Y284500D02*
D03*
X310946Y210500D02*
D03*
X386445Y233000D02*
D03*
X376446Y209500D02*
D03*
X418946Y236000D02*
D03*
X423446Y242000D02*
D03*
X328945Y223000D02*
D03*
X418946Y258634D02*
D03*
X324945Y222500D02*
D03*
X345946Y225000D02*
D03*
X317445Y222500D02*
D03*
X320946D02*
D03*
X402446Y229000D02*
D03*
X427446Y258000D02*
D03*
X420445Y263500D02*
D03*
X432945Y255000D02*
D03*
X336946Y266650D02*
D03*
X351945Y235500D02*
D03*
X331945Y287000D02*
D03*
X277630Y200000D02*
D03*
X266946Y202000D02*
D03*
X256130Y199500D02*
D03*
X281945Y216500D02*
D03*
X362946Y296500D02*
D03*
X351945Y240000D02*
D03*
X337946Y295000D02*
D03*
X348446Y296000D02*
D03*
X257446Y238500D02*
D03*
X258945Y246000D02*
D03*
X264445Y251000D02*
D03*
X270445Y253500D02*
D03*
D132*
X224945Y145000D02*
D03*
X165945D02*
D03*
D133*
X207945Y168000D02*
D03*
X212946Y158000D02*
D03*
X202945D02*
D03*
X197945Y168000D02*
D03*
X192946Y158000D02*
D03*
X187945Y168000D02*
D03*
X182946Y158000D02*
D03*
X177945Y168000D02*
D03*
D134*
X313946Y374500D02*
D03*
X198945Y371000D02*
D03*
X194946Y365500D02*
D03*
X189445Y362500D02*
D03*
X182946Y361500D02*
D03*
X176445Y362500D02*
D03*
X169946Y365500D02*
D03*
X165945Y369500D02*
D03*
D135*
X184945Y177000D02*
D03*
X209946Y180766D02*
D03*
D136*
X1010635Y212550D02*
D03*
X997635D02*
D03*
D137*
X556130Y346500D02*
D03*
X563630Y331500D02*
D03*
X556130Y316500D02*
D03*
X563630Y301500D02*
D03*
X556130Y286500D02*
D03*
X563630Y271500D02*
D03*
X556130Y256500D02*
D03*
X563630Y241500D02*
D03*
X556130Y226500D02*
D03*
X563630Y211500D02*
D03*
X556130Y196500D02*
D03*
X563630Y181500D02*
D03*
X556130Y166500D02*
D03*
X563630Y151500D02*
D03*
X556130Y136500D02*
D03*
Y106500D02*
D03*
X548630Y361500D02*
D03*
X541130Y346500D02*
D03*
X548630Y331500D02*
D03*
X541130Y316500D02*
D03*
X548630Y301500D02*
D03*
X541130Y286500D02*
D03*
X548630Y271500D02*
D03*
X541130Y256500D02*
D03*
X548630Y241500D02*
D03*
X541130Y226500D02*
D03*
X548630Y211500D02*
D03*
X541130Y196500D02*
D03*
X548630Y181500D02*
D03*
X541130Y166500D02*
D03*
X548630Y151500D02*
D03*
X541130Y136500D02*
D03*
X548630Y121500D02*
D03*
X541130Y106500D02*
D03*
X533630Y361500D02*
D03*
X526130Y346500D02*
D03*
X533630Y331500D02*
D03*
X526130Y316500D02*
D03*
X533630Y301500D02*
D03*
X526130Y286500D02*
D03*
X533630Y271500D02*
D03*
X526130Y256500D02*
D03*
X533630Y241500D02*
D03*
X526130Y226500D02*
D03*
X533630Y211500D02*
D03*
X526130Y196500D02*
D03*
X533630Y181500D02*
D03*
X526130Y166500D02*
D03*
X533630Y151500D02*
D03*
X518630Y361500D02*
D03*
X511130Y346500D02*
D03*
X518630Y331500D02*
D03*
X511130Y316500D02*
D03*
X518630Y301500D02*
D03*
X511130Y286500D02*
D03*
X518630Y271500D02*
D03*
X511130Y256500D02*
D03*
X518630Y241500D02*
D03*
X511130Y196500D02*
D03*
Y166500D02*
D03*
X503630Y361500D02*
D03*
X496130Y346500D02*
D03*
X503630Y331500D02*
D03*
X496130Y316500D02*
D03*
X503630Y271500D02*
D03*
X496130Y256500D02*
D03*
Y226500D02*
D03*
X503630Y211500D02*
D03*
X496130Y196500D02*
D03*
X503630Y151500D02*
D03*
X488630Y331500D02*
D03*
Y241500D02*
D03*
X481130Y226500D02*
D03*
X488630Y211500D02*
D03*
X481130Y196500D02*
D03*
Y136500D02*
D03*
X488630Y121500D02*
D03*
X481130Y106500D02*
D03*
X473630Y361500D02*
D03*
X466130Y346500D02*
D03*
X473630Y331500D02*
D03*
X466130Y286500D02*
D03*
Y256500D02*
D03*
X473630Y241500D02*
D03*
X466130Y226500D02*
D03*
X473630Y211500D02*
D03*
X466130Y196500D02*
D03*
X473630Y181500D02*
D03*
Y151500D02*
D03*
X466130Y136500D02*
D03*
X473630Y121500D02*
D03*
X466130Y106500D02*
D03*
X451130Y346500D02*
D03*
X458630Y331500D02*
D03*
X451130Y316500D02*
D03*
X458630Y271500D02*
D03*
X451130Y256500D02*
D03*
X458630Y241500D02*
D03*
Y211500D02*
D03*
X451130Y196500D02*
D03*
X458630Y181500D02*
D03*
X451130Y166500D02*
D03*
X458630Y151500D02*
D03*
X451130Y136500D02*
D03*
X458630Y121500D02*
D03*
X451130Y106500D02*
D03*
X436130Y346500D02*
D03*
Y286500D02*
D03*
X443630Y271500D02*
D03*
X436130Y256500D02*
D03*
X443630Y211500D02*
D03*
Y181500D02*
D03*
X436130Y166500D02*
D03*
X443630Y151500D02*
D03*
X436130Y136500D02*
D03*
X443630Y121500D02*
D03*
X436130Y106500D02*
D03*
X421130Y346500D02*
D03*
Y316500D02*
D03*
X428630Y271500D02*
D03*
Y241500D02*
D03*
Y211500D02*
D03*
X421130Y166500D02*
D03*
X428630Y151500D02*
D03*
Y121500D02*
D03*
X413630Y361500D02*
D03*
X406130Y346500D02*
D03*
X413630Y331500D02*
D03*
X406130Y316500D02*
D03*
Y286500D02*
D03*
Y226500D02*
D03*
Y166500D02*
D03*
X398630Y361500D02*
D03*
Y331500D02*
D03*
X391130Y286500D02*
D03*
X383630Y361500D02*
D03*
X376130Y346500D02*
D03*
Y316500D02*
D03*
Y286500D02*
D03*
Y226500D02*
D03*
Y136500D02*
D03*
Y106500D02*
D03*
X368630Y361500D02*
D03*
X361130Y346500D02*
D03*
Y316500D02*
D03*
X368630Y301500D02*
D03*
X361130Y256500D02*
D03*
Y226500D02*
D03*
Y136500D02*
D03*
X368630Y121500D02*
D03*
X361130Y106500D02*
D03*
X346130Y346500D02*
D03*
Y316500D02*
D03*
X353630Y301500D02*
D03*
Y121500D02*
D03*
X346130Y106500D02*
D03*
X331130Y346500D02*
D03*
Y316500D02*
D03*
X338630Y301500D02*
D03*
Y211500D02*
D03*
X331130Y196500D02*
D03*
X338630Y151500D02*
D03*
X331130Y136500D02*
D03*
X338630Y121500D02*
D03*
X331130Y106500D02*
D03*
X323630Y361500D02*
D03*
X316130Y346500D02*
D03*
X323630Y331500D02*
D03*
X316130Y196500D02*
D03*
Y166500D02*
D03*
X323630Y151500D02*
D03*
X316130Y136500D02*
D03*
X323630Y121500D02*
D03*
X316130Y106500D02*
D03*
X301130Y346500D02*
D03*
X308630Y331500D02*
D03*
Y181500D02*
D03*
X301130Y166500D02*
D03*
X308630Y151500D02*
D03*
X301130Y136500D02*
D03*
X308630Y121500D02*
D03*
X301130Y106500D02*
D03*
X286130Y346500D02*
D03*
X293630Y331500D02*
D03*
X286130Y196500D02*
D03*
X293630Y151500D02*
D03*
X286130Y136500D02*
D03*
X293630Y121500D02*
D03*
X286130Y106500D02*
D03*
X278630Y331500D02*
D03*
X271130Y286500D02*
D03*
X278630Y211500D02*
D03*
Y181500D02*
D03*
Y151500D02*
D03*
X271130Y136500D02*
D03*
X278630Y121500D02*
D03*
X271130Y106500D02*
D03*
X256130Y346500D02*
D03*
X263630Y331500D02*
D03*
Y301500D02*
D03*
X256130Y196500D02*
D03*
X263630Y181500D02*
D03*
X256130Y166500D02*
D03*
X263630Y151500D02*
D03*
X256130Y136500D02*
D03*
X263630Y121500D02*
D03*
X256130Y106500D02*
D03*
X241130Y346500D02*
D03*
X248630Y331500D02*
D03*
X241130Y316500D02*
D03*
X248630Y301500D02*
D03*
X241130Y286500D02*
D03*
X248630Y241500D02*
D03*
X226130Y346500D02*
D03*
X233630Y331500D02*
D03*
X226130Y316500D02*
D03*
X233630Y301500D02*
D03*
X226130Y286500D02*
D03*
X218630Y361500D02*
D03*
X211130Y346500D02*
D03*
X218630Y331500D02*
D03*
X211130Y316500D02*
D03*
X218630Y301500D02*
D03*
X211130Y286500D02*
D03*
X203630Y361500D02*
D03*
X196130Y346500D02*
D03*
X203630Y331500D02*
D03*
X196130Y316500D02*
D03*
X203630Y301500D02*
D03*
X196130Y286500D02*
D03*
X188630Y331500D02*
D03*
Y301500D02*
D03*
Y271500D02*
D03*
X166130Y346500D02*
D03*
X173630Y331500D02*
D03*
X166130Y316500D02*
D03*
X173630Y301500D02*
D03*
X166130Y286500D02*
D03*
X173630Y271500D02*
D03*
X166130Y256500D02*
D03*
Y226500D02*
D03*
X151130Y346500D02*
D03*
X158630Y331500D02*
D03*
X151130Y316500D02*
D03*
X158630Y301500D02*
D03*
X151130Y286500D02*
D03*
X158630Y271500D02*
D03*
X151130Y256500D02*
D03*
X158630Y241500D02*
D03*
X136130Y346500D02*
D03*
X143630Y331500D02*
D03*
X136130Y316500D02*
D03*
X143630Y301500D02*
D03*
X136130Y286500D02*
D03*
X143630Y271500D02*
D03*
X136130Y256500D02*
D03*
X143630Y241500D02*
D03*
X136130Y226500D02*
D03*
X143630Y211500D02*
D03*
X136130Y196500D02*
D03*
X143630Y181500D02*
D03*
X136130Y166500D02*
D03*
X143630Y151500D02*
D03*
X136130Y136500D02*
D03*
X143630Y121500D02*
D03*
X136130Y106500D02*
D03*
X128630Y361500D02*
D03*
X121130Y346500D02*
D03*
X128630Y331500D02*
D03*
X121130Y316500D02*
D03*
X128630Y301500D02*
D03*
X121130Y286500D02*
D03*
X128630Y271500D02*
D03*
X121130Y256500D02*
D03*
X128630Y241500D02*
D03*
X121130Y226500D02*
D03*
X128630Y211500D02*
D03*
X121130Y196500D02*
D03*
X128630Y181500D02*
D03*
X121130Y166500D02*
D03*
X128630Y151500D02*
D03*
X121130Y136500D02*
D03*
X128630Y121500D02*
D03*
X121130Y106500D02*
D03*
X106130Y346500D02*
D03*
X113630Y331500D02*
D03*
X106130Y316500D02*
D03*
X113630Y301500D02*
D03*
X106130Y286500D02*
D03*
X113630Y271500D02*
D03*
X106130Y256500D02*
D03*
X113630Y241500D02*
D03*
X106130Y226500D02*
D03*
X113630Y211500D02*
D03*
X106130Y196500D02*
D03*
X113630Y181500D02*
D03*
X106130Y166500D02*
D03*
X113630Y151500D02*
D03*
X106130Y136500D02*
D03*
Y106500D02*
D03*
X309299Y314004D02*
D03*
Y318335D02*
D03*
Y322665D02*
D03*
Y326996D02*
D03*
X313630Y314004D02*
D03*
Y318335D02*
D03*
Y322665D02*
D03*
Y326996D02*
D03*
X317961Y314004D02*
D03*
Y318335D02*
D03*
Y322665D02*
D03*
Y326996D02*
D03*
X471949Y291504D02*
D03*
Y295835D02*
D03*
Y300165D02*
D03*
Y304496D02*
D03*
X476280Y291504D02*
D03*
Y295835D02*
D03*
Y300165D02*
D03*
Y304496D02*
D03*
X480611Y291504D02*
D03*
Y295835D02*
D03*
Y300165D02*
D03*
Y304496D02*
D03*
X484941Y291504D02*
D03*
Y295835D02*
D03*
Y300165D02*
D03*
Y304496D02*
D03*
X202012Y255815D02*
D03*
Y251484D02*
D03*
Y247153D02*
D03*
X197681Y255815D02*
D03*
Y251484D02*
D03*
Y247153D02*
D03*
X193350Y255815D02*
D03*
Y251484D02*
D03*
Y247153D02*
D03*
X353508Y178289D02*
D03*
Y174171D02*
D03*
X346619Y174173D02*
D03*
X353508Y170069D02*
D03*
X360398Y174173D02*
D03*
X395949Y249004D02*
D03*
Y253335D02*
D03*
Y257665D02*
D03*
Y261996D02*
D03*
X400280Y249004D02*
D03*
Y253335D02*
D03*
Y257665D02*
D03*
Y261996D02*
D03*
X404611Y249004D02*
D03*
Y253335D02*
D03*
Y257665D02*
D03*
Y261996D02*
D03*
X408942Y249004D02*
D03*
Y253335D02*
D03*
Y257665D02*
D03*
Y261996D02*
D03*
X406934Y180913D02*
D03*
X402603D02*
D03*
X406934Y185244D02*
D03*
X402603D02*
D03*
M02*
