G04*
G04 #@! TF.GenerationSoftware,Altium Limited,Altium Designer,21.5.1 (32)*
G04*
G04 Layer_Physical_Order=3*
G04 Layer_Color=128*
%FSLAX25Y25*%
%MOIN*%
G70*
G04*
G04 #@! TF.SameCoordinates,9DB8949B-C02E-4DCA-B792-844CB0D99077*
G04*
G04*
G04 #@! TF.FilePolarity,Negative*
G04*
G01*
G75*
%ADD61C,0.04000*%
%ADD76C,0.07213*%
%ADD77C,0.07331*%
%ADD78C,0.05756*%
%ADD79C,0.08000*%
%ADD80C,0.11098*%
%ADD81C,0.06543*%
%ADD82C,0.14200*%
%ADD83C,0.03800*%
D61*
X225000Y-0D02*
Y225000D01*
X450000D01*
Y-0D02*
Y225000D01*
X225000Y-0D02*
X450000D01*
D76*
X426000Y48689D02*
D03*
X437811Y44988D02*
D03*
X414189D02*
D03*
D77*
X396912Y129386D02*
D03*
Y139386D02*
D03*
Y149386D02*
D03*
Y159386D02*
D03*
Y179386D02*
D03*
X396980Y103500D02*
D03*
Y93500D02*
D03*
D78*
X260000Y90000D02*
D03*
D79*
X248000Y134537D02*
D03*
Y144537D02*
D03*
Y154537D02*
D03*
Y164537D02*
D03*
D80*
X235598Y168738D02*
D03*
D81*
X322556Y190190D02*
D03*
X312556D02*
D03*
D82*
X250000Y25000D02*
D03*
Y200000D02*
D03*
X425000D02*
D03*
Y25000D02*
D03*
D83*
X397500Y67500D02*
D03*
X317050Y132983D02*
D03*
X323730Y150320D02*
D03*
X363000Y152000D02*
D03*
X361221Y155350D02*
D03*
X359721Y163350D02*
D03*
X330681Y158775D02*
D03*
X266331Y127227D02*
D03*
X270988Y155632D02*
D03*
X320563Y155563D02*
D03*
X315213Y160913D02*
D03*
X326386Y156759D02*
D03*
X330481Y161589D02*
D03*
X290039Y195768D02*
D03*
X358479Y99141D02*
D03*
X357986Y65098D02*
D03*
X362786Y165841D02*
D03*
X357806Y159091D02*
D03*
X358376Y134952D02*
D03*
X280486Y149805D02*
D03*
X279995Y142282D02*
D03*
X300253Y103994D02*
D03*
X301972Y108567D02*
D03*
M02*
