G04*
G04 #@! TF.GenerationSoftware,Altium Limited,Altium Designer,21.5.1 (32)*
G04*
G04 Layer_Physical_Order=1*
G04 Layer_Color=255*
%FSLAX25Y25*%
%MOIN*%
G70*
G04*
G04 #@! TF.SameCoordinates,9DB8949B-C02E-4DCA-B792-844CB0D99077*
G04*
G04*
G04 #@! TF.FilePolarity,Positive*
G04*
G01*
G75*
%ADD16C,0.00500*%
%ADD17C,0.01000*%
%ADD19R,0.07874X0.05512*%
%ADD25R,0.04747X0.12598*%
%ADD35R,0.03543X0.03150*%
%ADD45R,0.13386X0.09252*%
%ADD46R,0.05512X0.05906*%
%ADD47R,0.02756X0.02953*%
%ADD48R,0.03150X0.03543*%
%ADD49R,0.04331X0.06693*%
%ADD50R,0.07087X0.13386*%
%ADD51R,0.03150X0.01181*%
%ADD52R,0.02362X0.01968*%
%ADD53R,0.05906X0.05512*%
%ADD54R,0.01968X0.02362*%
%ADD55R,0.03819X0.02559*%
G04:AMPARAMS|DCode=56|XSize=21.65mil|YSize=31.5mil|CornerRadius=1.95mil|HoleSize=0mil|Usage=FLASHONLY|Rotation=90.000|XOffset=0mil|YOffset=0mil|HoleType=Round|Shape=RoundedRectangle|*
%AMROUNDEDRECTD56*
21,1,0.02165,0.02760,0,0,90.0*
21,1,0.01776,0.03150,0,0,90.0*
1,1,0.00390,0.01380,0.00888*
1,1,0.00390,0.01380,-0.00888*
1,1,0.00390,-0.01380,-0.00888*
1,1,0.00390,-0.01380,0.00888*
%
%ADD56ROUNDEDRECTD56*%
%ADD57R,0.10984X0.02913*%
%ADD58R,0.07874X0.20866*%
%ADD59C,0.01500*%
%ADD60C,0.03000*%
%ADD61C,0.04000*%
%ADD62C,0.05000*%
%ADD63C,0.02000*%
%ADD64C,0.06378*%
%ADD65C,0.06496*%
%ADD66R,0.06496X0.06496*%
%ADD67C,0.04724*%
%ADD68C,0.07500*%
%ADD69C,0.04047*%
%ADD70R,0.05906X0.05906*%
%ADD71C,0.05906*%
%ADD72C,0.11200*%
%ADD73C,0.01800*%
%ADD74C,0.03000*%
%ADD75C,0.01968*%
G36*
X243147Y200959D02*
X243400Y200650D01*
Y199350D01*
X243654Y198075D01*
X244151Y196874D01*
X244873Y195793D01*
X245793Y194873D01*
X246874Y194151D01*
X248075Y193654D01*
X249350Y193400D01*
X250650D01*
X251925Y193654D01*
X253126Y194151D01*
X254207Y194873D01*
X255127Y195793D01*
X255849Y196874D01*
X256346Y198075D01*
X256600Y199350D01*
Y200459D01*
X256972Y200959D01*
X418147Y200959D01*
X418400Y200650D01*
Y199350D01*
X418654Y198075D01*
X419151Y196874D01*
X419873Y195793D01*
X420793Y194873D01*
X421874Y194151D01*
X423075Y193654D01*
X424350Y193400D01*
X425650D01*
X426925Y193654D01*
X428126Y194151D01*
X429207Y194873D01*
X430126Y195793D01*
X430849Y196874D01*
X431346Y198075D01*
X431600Y199350D01*
Y200459D01*
X431972Y200959D01*
X450000D01*
X450000Y200959D01*
Y0D01*
X225000D01*
X225000Y0D01*
Y200959D01*
X243147D01*
D02*
G37*
%LPC*%
G36*
X303167Y200224D02*
X291182D01*
Y197892D01*
X290682Y197558D01*
X290417Y197668D01*
X289733D01*
X289583Y197767D01*
X289291Y197826D01*
X287143D01*
Y200224D01*
X275159D01*
Y196311D01*
X282284D01*
X282358Y196296D01*
X287577D01*
X287948Y195796D01*
X287937Y195758D01*
X287915Y195730D01*
X287643Y195724D01*
X287639Y195724D01*
X287286Y195724D01*
X281651D01*
Y193768D01*
X287643D01*
Y195224D01*
X287643Y195367D01*
X287653Y195379D01*
X288125Y195389D01*
X288175Y195302D01*
X288428Y194691D01*
X288963Y194157D01*
X289661Y193868D01*
X290417D01*
X290682Y193978D01*
X291182Y193644D01*
Y191311D01*
X298307D01*
X298381Y191296D01*
X302100D01*
X302672Y190724D01*
X302465Y190224D01*
X291182D01*
Y187392D01*
X290392Y186602D01*
X290226Y186354D01*
X290168Y186061D01*
Y183234D01*
X289922Y183032D01*
X289922Y183032D01*
X287643D01*
Y185311D01*
X287643Y185724D01*
X287643Y186224D01*
Y188330D01*
X287875Y188485D01*
Y190467D01*
Y192515D01*
X287643Y192718D01*
Y192768D01*
X281151D01*
X274659D01*
Y190811D01*
X274659D01*
Y190724D01*
X274659D01*
Y188768D01*
X281151D01*
Y187768D01*
X274659D01*
Y186224D01*
X274659Y185811D01*
X274659Y185311D01*
Y183768D01*
X281151D01*
Y182768D01*
X274659D01*
Y180811D01*
X274659D01*
Y180724D01*
X274659D01*
Y178768D01*
X281151D01*
X287643D01*
Y178936D01*
X287875Y179091D01*
Y181073D01*
X288875D01*
Y179223D01*
X289452Y179462D01*
X289668Y179678D01*
X290168Y179471D01*
Y176500D01*
X290226Y176208D01*
X290392Y175960D01*
X292392Y173959D01*
X292640Y173793D01*
X292933Y173735D01*
X306325D01*
X322965Y157095D01*
Y153651D01*
X322498Y153571D01*
Y153571D01*
X321926D01*
X321758Y154071D01*
X322173Y154486D01*
X322463Y155185D01*
Y155941D01*
X322173Y156639D01*
X321639Y157173D01*
X320941Y157463D01*
X320185D01*
X319486Y157173D01*
X318952Y156639D01*
X318663Y155941D01*
Y155185D01*
X318952Y154486D01*
X319368Y154071D01*
X319199Y153571D01*
X319136D01*
Y150602D01*
X321830D01*
Y149942D01*
X322119Y149244D01*
X322654Y148709D01*
X323352Y148420D01*
X324108D01*
X324806Y148709D01*
X325341Y149244D01*
X325630Y149942D01*
Y150698D01*
X325341Y151397D01*
X324806Y151931D01*
X324495Y152060D01*
Y155257D01*
X324995Y155464D01*
X325310Y155148D01*
X326008Y154859D01*
X326764D01*
X327463Y155148D01*
X327997Y155683D01*
X328286Y156381D01*
Y157137D01*
X328028Y157759D01*
X328226Y158259D01*
X328838D01*
X329070Y157699D01*
X329605Y157165D01*
X330303Y156875D01*
X331059D01*
X331757Y157165D01*
X332292Y157699D01*
X332581Y158397D01*
Y159153D01*
X332292Y159852D01*
X331861Y160282D01*
X332092Y160513D01*
X332381Y161211D01*
Y161967D01*
X332092Y162666D01*
X331558Y163200D01*
X330859Y163489D01*
X330103D01*
X329405Y163200D01*
X328871Y162666D01*
X328742Y162354D01*
X324112D01*
X306234Y180232D01*
Y194009D01*
X306176Y194301D01*
X306010Y194549D01*
X303167Y197392D01*
Y200224D01*
D02*
G37*
G36*
X379500Y196157D02*
Y194807D01*
X380849D01*
X380611Y195383D01*
X380076Y195918D01*
X379500Y196157D01*
D02*
G37*
G36*
X378500D02*
X377924Y195918D01*
X377389Y195383D01*
X377151Y194807D01*
X378500D01*
Y196157D01*
D02*
G37*
G36*
X280651Y195724D02*
X274659D01*
Y193768D01*
X280651D01*
Y195724D01*
D02*
G37*
G36*
X380849Y193807D02*
X379500D01*
Y192458D01*
X380076Y192696D01*
X380611Y193231D01*
X380849Y193807D01*
D02*
G37*
G36*
X378500D02*
X377151D01*
X377389Y193231D01*
X377924Y192696D01*
X378500Y192458D01*
Y193807D01*
D02*
G37*
G36*
X360865Y193393D02*
Y192043D01*
X362214D01*
X361976Y192620D01*
X361441Y193154D01*
X360865Y193393D01*
D02*
G37*
G36*
X359865D02*
X359289Y193154D01*
X358754Y192620D01*
X358515Y192043D01*
X359865D01*
Y193393D01*
D02*
G37*
G36*
X288875Y192316D02*
Y190967D01*
X290225D01*
X289986Y191543D01*
X289452Y192078D01*
X288875Y192316D01*
D02*
G37*
G36*
X336508Y194142D02*
X333056D01*
Y190690D01*
X336508D01*
Y194142D01*
D02*
G37*
G36*
X332056D02*
X328603D01*
Y190690D01*
X332056D01*
Y194142D01*
D02*
G37*
G36*
X362214Y191043D02*
X360865D01*
Y189694D01*
X361441Y189933D01*
X361976Y190467D01*
X362214Y191043D01*
D02*
G37*
G36*
X359865D02*
X358515D01*
X358754Y190467D01*
X359289Y189933D01*
X359865Y189694D01*
Y191043D01*
D02*
G37*
G36*
X290225Y189967D02*
X288875D01*
Y188617D01*
X289452Y188856D01*
X289986Y189391D01*
X290225Y189967D01*
D02*
G37*
G36*
X336508Y189690D02*
X333056D01*
Y186237D01*
X336508D01*
Y189690D01*
D02*
G37*
G36*
X332056D02*
X328603D01*
Y186237D01*
X332056D01*
Y189690D01*
D02*
G37*
G36*
X323076Y194142D02*
X322035D01*
X321030Y193873D01*
X320129Y193353D01*
X319393Y192617D01*
X318872Y191715D01*
X318603Y190710D01*
Y189669D01*
X318872Y188664D01*
X319393Y187763D01*
X320129Y187027D01*
X321030Y186506D01*
X322035Y186237D01*
X323076D01*
X324081Y186506D01*
X324983Y187027D01*
X325719Y187763D01*
X326239Y188664D01*
X326508Y189669D01*
Y190710D01*
X326239Y191715D01*
X325719Y192617D01*
X324983Y193353D01*
X324081Y193873D01*
X323076Y194142D01*
D02*
G37*
G36*
X313076D02*
X312035D01*
X311030Y193873D01*
X310129Y193353D01*
X309393Y192617D01*
X308872Y191715D01*
X308603Y190710D01*
Y189669D01*
X308872Y188664D01*
X309393Y187763D01*
X310129Y187027D01*
X311030Y186506D01*
X312035Y186237D01*
X313076D01*
X314081Y186506D01*
X314983Y187027D01*
X315719Y187763D01*
X316239Y188664D01*
X316509Y189669D01*
Y190710D01*
X316239Y191715D01*
X315719Y192617D01*
X314983Y193353D01*
X314081Y193873D01*
X313076Y194142D01*
D02*
G37*
G36*
X379986Y184447D02*
Y183098D01*
X381336D01*
X381097Y183674D01*
X380562Y184209D01*
X379986Y184447D01*
D02*
G37*
G36*
X378986D02*
X378410Y184209D01*
X377875Y183674D01*
X377637Y183098D01*
X378986D01*
Y184447D01*
D02*
G37*
G36*
X381336Y182098D02*
X379986D01*
Y180748D01*
X380562Y180987D01*
X381097Y181522D01*
X381336Y182098D01*
D02*
G37*
G36*
X378986D02*
X377637D01*
X377875Y181522D01*
X378410Y180987D01*
X378986Y180748D01*
Y182098D01*
D02*
G37*
G36*
X420500Y182499D02*
Y180500D01*
X422499D01*
X422119Y181416D01*
X421416Y182119D01*
X420500Y182499D01*
D02*
G37*
G36*
X419500D02*
X418584Y182119D01*
X417881Y181416D01*
X417501Y180500D01*
X419500D01*
Y182499D01*
D02*
G37*
G36*
X360500D02*
Y180500D01*
X362499D01*
X362119Y181416D01*
X361416Y182119D01*
X360500Y182499D01*
D02*
G37*
G36*
X359500D02*
X358584Y182119D01*
X357881Y181416D01*
X357501Y180500D01*
X359500D01*
Y182499D01*
D02*
G37*
G36*
X340500D02*
Y180500D01*
X342499D01*
X342119Y181416D01*
X341416Y182119D01*
X340500Y182499D01*
D02*
G37*
G36*
X339500D02*
X338584Y182119D01*
X337881Y181416D01*
X337501Y180500D01*
X339500D01*
Y182499D01*
D02*
G37*
G36*
X260500D02*
Y180500D01*
X262499D01*
X262119Y181416D01*
X261416Y182119D01*
X260500Y182499D01*
D02*
G37*
G36*
X259500D02*
X258584Y182119D01*
X257881Y181416D01*
X257501Y180500D01*
X259500D01*
Y182499D01*
D02*
G37*
G36*
X240500D02*
Y180500D01*
X242499D01*
X242119Y181416D01*
X241416Y182119D01*
X240500Y182499D01*
D02*
G37*
G36*
X239500D02*
X238584Y182119D01*
X237881Y181416D01*
X237501Y180500D01*
X239500D01*
Y182499D01*
D02*
G37*
G36*
X422499Y179500D02*
X420500D01*
Y177501D01*
X421416Y177881D01*
X422119Y178584D01*
X422499Y179500D01*
D02*
G37*
G36*
X419500D02*
X417501D01*
X417881Y178584D01*
X418584Y177881D01*
X419500Y177501D01*
Y179500D01*
D02*
G37*
G36*
X362499D02*
X360500D01*
Y177501D01*
X361416Y177881D01*
X362119Y178584D01*
X362499Y179500D01*
D02*
G37*
G36*
X359500D02*
X357501D01*
X357881Y178584D01*
X358584Y177881D01*
X359500Y177501D01*
Y179500D01*
D02*
G37*
G36*
X342499D02*
X340500D01*
Y177501D01*
X341416Y177881D01*
X342119Y178584D01*
X342499Y179500D01*
D02*
G37*
G36*
X339500D02*
X337501D01*
X337881Y178584D01*
X338584Y177881D01*
X339500Y177501D01*
Y179500D01*
D02*
G37*
G36*
X262499D02*
X260500D01*
Y177501D01*
X261416Y177881D01*
X262119Y178584D01*
X262499Y179500D01*
D02*
G37*
G36*
X259500D02*
X257501D01*
X257881Y178584D01*
X258584Y177881D01*
X259500Y177501D01*
Y179500D01*
D02*
G37*
G36*
X242499D02*
X240500D01*
Y177501D01*
X241416Y177881D01*
X242119Y178584D01*
X242499Y179500D01*
D02*
G37*
G36*
X239500D02*
X237501D01*
X237881Y178584D01*
X238584Y177881D01*
X239500Y177501D01*
Y179500D01*
D02*
G37*
G36*
X352391Y177624D02*
Y176274D01*
X353741D01*
X353502Y176851D01*
X352968Y177385D01*
X352391Y177624D01*
D02*
G37*
G36*
X351391D02*
X350815Y177385D01*
X350281Y176851D01*
X350042Y176274D01*
X351391D01*
Y177624D01*
D02*
G37*
G36*
X287643Y177768D02*
X281651D01*
Y175811D01*
X287643D01*
Y177768D01*
D02*
G37*
G36*
X280651D02*
X274659D01*
Y175811D01*
X280651D01*
Y177768D01*
D02*
G37*
G36*
X366004Y176809D02*
X364323D01*
Y175324D01*
X366004D01*
Y176809D01*
D02*
G37*
G36*
X353741Y175274D02*
X352391D01*
Y173925D01*
X352968Y174164D01*
X353502Y174698D01*
X353741Y175274D01*
D02*
G37*
G36*
X351391D02*
X350042D01*
X350281Y174698D01*
X350815Y174164D01*
X351391Y173925D01*
Y175274D01*
D02*
G37*
G36*
X397471Y173634D02*
X397412D01*
Y169886D01*
X401160D01*
Y169945D01*
X400870Y171025D01*
X400311Y171994D01*
X399520Y172785D01*
X398551Y173344D01*
X397471Y173634D01*
D02*
G37*
G36*
X396412D02*
X396353D01*
X395272Y173344D01*
X394303Y172785D01*
X393513Y171994D01*
X392953Y171025D01*
X392664Y169945D01*
Y169886D01*
X396412D01*
Y173634D01*
D02*
G37*
G36*
X368685Y176809D02*
X367004D01*
Y174825D01*
X366504D01*
Y174325D01*
X364323D01*
Y172840D01*
X364323D01*
X364371Y172768D01*
X364281Y172550D01*
X366130D01*
Y171550D01*
X364281D01*
X364304Y171494D01*
X364126Y171228D01*
X364126D01*
Y169252D01*
X366504D01*
Y168252D01*
X364126D01*
Y167841D01*
X363626Y167550D01*
X363164Y167742D01*
X362408D01*
X361709Y167452D01*
X361175Y166918D01*
X360886Y166219D01*
Y165464D01*
X360502Y165083D01*
X360099Y165250D01*
X359343D01*
X358645Y164961D01*
X358110Y164426D01*
X357821Y163728D01*
Y162972D01*
X358110Y162274D01*
X358645Y161739D01*
X359343Y161450D01*
X359974D01*
X360053Y161371D01*
X360384Y161150D01*
X360774Y161072D01*
X364059D01*
X364449Y161150D01*
X364780Y161371D01*
X364850Y161441D01*
X365485D01*
Y160098D01*
X364709D01*
Y157129D01*
X367748D01*
X367788Y156646D01*
X367788Y156646D01*
X367718Y156175D01*
X367713Y156146D01*
X367288Y156146D01*
X364351D01*
Y156115D01*
X362961D01*
X362831Y156426D01*
X362297Y156961D01*
X361599Y157250D01*
X360843D01*
X360144Y156961D01*
X359610Y156426D01*
X359321Y155728D01*
Y154972D01*
X359610Y154274D01*
X360144Y153739D01*
X360843Y153450D01*
X361056D01*
X361166Y153327D01*
X361337Y152950D01*
X361100Y152378D01*
Y151622D01*
X361389Y150924D01*
X361924Y150389D01*
X362622Y150100D01*
X363378D01*
X363851Y150296D01*
X364351Y150010D01*
Y149509D01*
X367713Y149509D01*
X367788Y149040D01*
Y149009D01*
X369469D01*
Y150993D01*
X369969D01*
Y151493D01*
X372150D01*
Y152677D01*
Y154161D01*
X369969D01*
Y155161D01*
X372150D01*
Y156629D01*
X372508D01*
Y158113D01*
X370327D01*
Y159113D01*
X372768D01*
X373008Y159270D01*
X373289Y159154D01*
Y161003D01*
Y162853D01*
X373235Y162830D01*
X373075Y162937D01*
X370441D01*
Y163437D01*
X369941D01*
Y165913D01*
X369436D01*
X369244Y166375D01*
X369645Y166776D01*
X372319D01*
Y170728D01*
X371461D01*
Y173340D01*
X372122D01*
Y176309D01*
X368760D01*
X368685Y176778D01*
Y176809D01*
D02*
G37*
G36*
X401160Y168886D02*
X397412D01*
Y165138D01*
X397471D01*
X398551Y165427D01*
X399520Y165986D01*
X400311Y166777D01*
X400870Y167746D01*
X401160Y168826D01*
Y168886D01*
D02*
G37*
G36*
X396412D02*
X392664D01*
Y168826D01*
X392953Y167746D01*
X393513Y166777D01*
X394303Y165986D01*
X395272Y165427D01*
X396353Y165138D01*
X396412D01*
Y168886D01*
D02*
G37*
G36*
X372819Y165913D02*
X370941D01*
Y163937D01*
X372819D01*
Y165913D01*
D02*
G37*
G36*
X236263Y173787D02*
X234934D01*
X233649Y173443D01*
X232498Y172778D01*
X231558Y171838D01*
X230893Y170687D01*
X230549Y169402D01*
Y168073D01*
X230893Y166789D01*
X231558Y165637D01*
X232498Y164697D01*
X233649Y164033D01*
X234934Y163689D01*
X236263D01*
X237547Y164033D01*
X238699Y164697D01*
X239639Y165637D01*
X240303Y166789D01*
X240648Y168073D01*
Y169402D01*
X240303Y170687D01*
X239639Y171838D01*
X238699Y172778D01*
X237547Y173443D01*
X236263Y173787D01*
D02*
G37*
G36*
X281651Y164775D02*
Y163426D01*
X283000D01*
X282762Y164002D01*
X282227Y164537D01*
X281651Y164775D01*
D02*
G37*
G36*
X276256Y165698D02*
X274181D01*
Y163426D01*
X276256D01*
Y165698D01*
D02*
G37*
G36*
X374289Y162853D02*
Y161503D01*
X375639D01*
X375400Y162080D01*
X374866Y162614D01*
X374289Y162853D01*
D02*
G37*
G36*
X283000Y162426D02*
X281651D01*
Y161076D01*
X282227Y161315D01*
X282762Y161850D01*
X283000Y162426D01*
D02*
G37*
G36*
X279331Y165698D02*
X277256D01*
Y162926D01*
Y160154D01*
X279331D01*
Y161352D01*
X279831Y161559D01*
X280075Y161315D01*
X280651Y161076D01*
Y162926D01*
Y164775D01*
X280075Y164537D01*
X279831Y164293D01*
X279331Y164500D01*
Y165698D01*
D02*
G37*
G36*
X430500Y162499D02*
Y160500D01*
X432499D01*
X432119Y161416D01*
X431416Y162119D01*
X430500Y162499D01*
D02*
G37*
G36*
X429500D02*
X428584Y162119D01*
X427881Y161416D01*
X427501Y160500D01*
X429500D01*
Y162499D01*
D02*
G37*
G36*
X276256Y162426D02*
X274181D01*
Y160154D01*
X276256D01*
Y162426D01*
D02*
G37*
G36*
X248625Y169287D02*
X247375D01*
X246167Y168963D01*
X245083Y168338D01*
X244199Y167454D01*
X243574Y166370D01*
X243250Y165162D01*
Y163912D01*
X243574Y162704D01*
X244199Y161620D01*
X245083Y160736D01*
X246167Y160111D01*
X247375Y159787D01*
X248625D01*
X249833Y160111D01*
X250917Y160736D01*
X251801Y161620D01*
X252426Y162704D01*
X252750Y163912D01*
Y165162D01*
X252426Y166370D01*
X251801Y167454D01*
X250917Y168338D01*
X249833Y168963D01*
X248625Y169287D01*
D02*
G37*
G36*
X375639Y160503D02*
X374289D01*
Y159154D01*
X374866Y159392D01*
X375400Y159927D01*
X375639Y160503D01*
D02*
G37*
G36*
X432499Y159500D02*
X430500D01*
Y157501D01*
X431416Y157881D01*
X432119Y158584D01*
X432499Y159500D01*
D02*
G37*
G36*
X429500D02*
X427501D01*
X427881Y158584D01*
X428584Y157881D01*
X429500Y157501D01*
Y159500D01*
D02*
G37*
G36*
X358184Y160991D02*
X357428D01*
X356730Y160701D01*
X356196Y160167D01*
X355906Y159468D01*
Y158713D01*
X356196Y158014D01*
X356730Y157480D01*
X357428Y157191D01*
X358184D01*
X358883Y157480D01*
X359417Y158014D01*
X359706Y158713D01*
Y159468D01*
X359417Y160167D01*
X358883Y160701D01*
X358184Y160991D01*
D02*
G37*
G36*
X310440Y163007D02*
X307566D01*
Y155743D01*
X305458D01*
X305415Y155847D01*
X304857Y156405D01*
X304233Y156664D01*
Y154723D01*
X303233D01*
Y156664D01*
X302609Y156405D01*
X302050Y155847D01*
X301838Y155334D01*
X301297D01*
X301084Y155847D01*
X300526Y156405D01*
X299902Y156664D01*
Y154723D01*
X298902D01*
Y156664D01*
X298278Y156405D01*
X297720Y155847D01*
X297507Y155334D01*
X296966D01*
X296753Y155847D01*
X296195Y156405D01*
X295571Y156664D01*
Y154723D01*
X295071D01*
Y154223D01*
X293131D01*
X293389Y153599D01*
X293947Y153041D01*
X294461Y152829D01*
Y152287D01*
X293947Y152075D01*
X293389Y151517D01*
X293131Y150893D01*
X295071D01*
Y149893D01*
X293131D01*
X293389Y149269D01*
X293947Y148711D01*
X294461Y148498D01*
Y147957D01*
X293947Y147744D01*
X293389Y147186D01*
X293131Y146562D01*
X295071D01*
Y145562D01*
X293131D01*
X293389Y144938D01*
X293947Y144380D01*
X294461Y144167D01*
Y143626D01*
X293947Y143413D01*
X293389Y142855D01*
X293131Y142231D01*
X295071D01*
Y141231D01*
X293131D01*
X293389Y140607D01*
X293947Y140049D01*
X294461Y139836D01*
Y139295D01*
X293947Y139083D01*
X293389Y138524D01*
X293131Y137900D01*
X295071D01*
Y137400D01*
X295571D01*
Y135460D01*
X296195Y135718D01*
X296753Y136276D01*
X296966Y136790D01*
X297507D01*
X297720Y136276D01*
X298278Y135718D01*
X298902Y135460D01*
Y137400D01*
X299902D01*
Y135460D01*
X300526Y135718D01*
X301084Y136276D01*
X301297Y136790D01*
X301838D01*
X302050Y136276D01*
X302609Y135718D01*
X303233Y135460D01*
Y137400D01*
X304233D01*
Y135460D01*
X304857Y135718D01*
X305415Y136276D01*
X305458Y136381D01*
X307348D01*
Y129117D01*
X310221D01*
Y136416D01*
Y143715D01*
X307348D01*
Y138420D01*
X305458D01*
X305415Y138524D01*
X304857Y139083D01*
X304343Y139295D01*
Y139836D01*
X304857Y140049D01*
X305415Y140607D01*
X305673Y141231D01*
X303733D01*
Y142231D01*
X305673D01*
X305415Y142855D01*
X304857Y143413D01*
X304343Y143626D01*
Y144167D01*
X304857Y144380D01*
X305415Y144938D01*
X305673Y145562D01*
X303733D01*
Y146562D01*
X305673D01*
X305415Y147186D01*
X304857Y147744D01*
X304343Y147957D01*
Y148498D01*
X304857Y148711D01*
X305415Y149269D01*
X305673Y149893D01*
X303733D01*
Y150893D01*
X305673D01*
X305415Y151517D01*
X304857Y152075D01*
X304343Y152287D01*
Y152829D01*
X304857Y153041D01*
X305415Y153599D01*
X305458Y153704D01*
X307566D01*
Y148408D01*
X310440D01*
Y155708D01*
Y163007D01*
D02*
G37*
G36*
X294571Y156664D02*
X293947Y156405D01*
X293389Y155847D01*
X293131Y155223D01*
X294571D01*
Y156664D01*
D02*
G37*
G36*
X397471Y163634D02*
X396353D01*
X395272Y163344D01*
X394303Y162785D01*
X393513Y161994D01*
X392953Y161025D01*
X392664Y159945D01*
Y158826D01*
X392953Y157746D01*
X393513Y156777D01*
X394303Y155986D01*
X395272Y155427D01*
X396353Y155138D01*
X397471D01*
X398551Y155427D01*
X399520Y155986D01*
X400311Y156777D01*
X400870Y157746D01*
X401160Y158826D01*
Y159945D01*
X400870Y161025D01*
X400311Y161994D01*
X399520Y162785D01*
X398551Y163344D01*
X397471Y163634D01*
D02*
G37*
G36*
X348996Y154212D02*
X348372Y153953D01*
X347814Y153395D01*
X347601Y152882D01*
X347060D01*
X346848Y153395D01*
X346289Y153953D01*
X345665Y154212D01*
Y152271D01*
X344665D01*
Y154212D01*
X344041Y153953D01*
X343483Y153395D01*
X343271Y152882D01*
X342729D01*
X342517Y153395D01*
X341959Y153953D01*
X341335Y154212D01*
Y152271D01*
X340335D01*
Y154212D01*
X339711Y153953D01*
X339153Y153395D01*
X338940Y152882D01*
X338399D01*
X338186Y153395D01*
X337628Y153953D01*
X337004Y154212D01*
Y152271D01*
X336504D01*
Y151771D01*
X334563D01*
X334822Y151147D01*
X335380Y150589D01*
X335893Y150376D01*
Y149835D01*
X335380Y149623D01*
X334822Y149065D01*
X334563Y148441D01*
X336504D01*
Y147441D01*
X334563D01*
X334822Y146817D01*
X335380Y146258D01*
X335893Y146046D01*
Y145505D01*
X335380Y145292D01*
X334822Y144734D01*
X334563Y144110D01*
X336504D01*
Y143110D01*
X334563D01*
X334822Y142486D01*
X335380Y141928D01*
X335893Y141715D01*
Y141174D01*
X335380Y140961D01*
X334822Y140403D01*
X334563Y139779D01*
X336504D01*
Y139279D01*
X337004D01*
Y137338D01*
X337628Y137597D01*
X338186Y138155D01*
X338399Y138668D01*
X338940D01*
X339153Y138155D01*
X339711Y137597D01*
X340335Y137338D01*
Y139279D01*
X341335D01*
Y137338D01*
X341959Y137597D01*
X342517Y138155D01*
X342729Y138668D01*
X343271D01*
X343483Y138155D01*
X344041Y137597D01*
X344665Y137338D01*
Y139279D01*
X345665D01*
Y137338D01*
X346289Y137597D01*
X346848Y138155D01*
X347060Y138668D01*
X347601D01*
X347814Y138155D01*
X348372Y137597D01*
X348996Y137338D01*
Y139279D01*
X349496D01*
Y139779D01*
X351437D01*
X351178Y140403D01*
X350620Y140961D01*
X350107Y141174D01*
Y141715D01*
X350620Y141928D01*
X351178Y142486D01*
X351437Y143110D01*
X349496D01*
Y144110D01*
X351437D01*
X351178Y144734D01*
X350620Y145292D01*
X350107Y145505D01*
Y146046D01*
X350620Y146258D01*
X351178Y146817D01*
X351437Y147441D01*
X349496D01*
Y148441D01*
X351437D01*
X351178Y149065D01*
X350620Y149623D01*
X350107Y149835D01*
Y150376D01*
X350620Y150589D01*
X351178Y151147D01*
X351437Y151771D01*
X349496D01*
Y152271D01*
X348996D01*
Y154212D01*
D02*
G37*
G36*
X349996D02*
Y152771D01*
X351437D01*
X351178Y153395D01*
X350620Y153953D01*
X349996Y154212D01*
D02*
G37*
G36*
X336004D02*
X335380Y153953D01*
X334822Y153395D01*
X334563Y152771D01*
X336004D01*
Y154212D01*
D02*
G37*
G36*
X290956Y162507D02*
X285210D01*
Y151000D01*
X281979D01*
X281562Y151416D01*
X280864Y151705D01*
X280108D01*
X279410Y151416D01*
X278875Y150882D01*
X278586Y150183D01*
Y149427D01*
X278875Y148729D01*
X279410Y148195D01*
X280108Y147905D01*
X280864D01*
X281562Y148195D01*
X282097Y148729D01*
X282193Y148960D01*
X285210D01*
Y148908D01*
X290956D01*
Y162507D01*
D02*
G37*
G36*
X248625Y159287D02*
X247375D01*
X246167Y158963D01*
X245083Y158338D01*
X244199Y157454D01*
X243574Y156370D01*
X243250Y155162D01*
Y153912D01*
X243574Y152703D01*
X244199Y151620D01*
X245083Y150736D01*
X246167Y150111D01*
X247375Y149787D01*
X248625D01*
X249833Y150111D01*
X250917Y150736D01*
X251801Y151620D01*
X252426Y152703D01*
X252750Y153912D01*
Y155162D01*
X252426Y156370D01*
X251801Y157454D01*
X250917Y158338D01*
X249833Y158963D01*
X248625Y159287D01*
D02*
G37*
G36*
X372150Y150493D02*
X370469D01*
Y149009D01*
X372150D01*
Y150493D01*
D02*
G37*
G36*
X314313Y155208D02*
X311440D01*
Y148408D01*
X314313D01*
Y155208D01*
D02*
G37*
G36*
X397471Y153634D02*
X396353D01*
X395272Y153344D01*
X394303Y152785D01*
X393513Y151994D01*
X392953Y151025D01*
X392664Y149945D01*
Y148826D01*
X392953Y147746D01*
X393513Y146777D01*
X394303Y145986D01*
X395272Y145427D01*
X396353Y145138D01*
X397471D01*
X398551Y145427D01*
X399520Y145986D01*
X400311Y146777D01*
X400870Y147746D01*
X401160Y148826D01*
Y149945D01*
X400870Y151025D01*
X400311Y151994D01*
X399520Y152785D01*
X398551Y153344D01*
X397471Y153634D01*
D02*
G37*
G36*
X240500Y142499D02*
Y140500D01*
X242499D01*
X242119Y141416D01*
X241416Y142119D01*
X240500Y142499D01*
D02*
G37*
G36*
X239500D02*
X238584Y142119D01*
X237881Y141416D01*
X237501Y140500D01*
X239500D01*
Y142499D01*
D02*
G37*
G36*
X248625Y149287D02*
X247375D01*
X246167Y148963D01*
X245083Y148338D01*
X244199Y147453D01*
X243574Y146370D01*
X243250Y145162D01*
Y143912D01*
X243574Y142703D01*
X244199Y141620D01*
X245083Y140736D01*
X246167Y140111D01*
X247375Y139787D01*
X248625D01*
X249833Y140111D01*
X250917Y140736D01*
X251801Y141620D01*
X252426Y142703D01*
X252750Y143912D01*
Y145162D01*
X252426Y146370D01*
X251801Y147453D01*
X250917Y148338D01*
X249833Y148963D01*
X248625Y149287D01*
D02*
G37*
G36*
X314313Y163007D02*
Y163007D01*
X311440D01*
Y156208D01*
X314313D01*
Y158779D01*
X314729Y159056D01*
X314835Y159012D01*
X315570D01*
X315840Y158742D01*
Y153571D01*
X315199D01*
Y150602D01*
X316051D01*
Y142338D01*
X315776D01*
Y138976D01*
X318744D01*
Y142338D01*
X318090D01*
Y150602D01*
X318561D01*
Y153571D01*
X317879D01*
Y159165D01*
X317801Y159555D01*
X317580Y159886D01*
X317060Y160406D01*
X317113Y160535D01*
Y161290D01*
X316824Y161989D01*
X316289Y162523D01*
X315591Y162812D01*
X314835D01*
X314692Y162753D01*
X314313Y163007D01*
D02*
G37*
G36*
X242499Y139500D02*
X240500D01*
Y137501D01*
X241416Y137881D01*
X242119Y138584D01*
X242499Y139500D01*
D02*
G37*
G36*
X239500D02*
X237501D01*
X237881Y138584D01*
X238584Y137881D01*
X239500Y137501D01*
Y139500D01*
D02*
G37*
G36*
X351437Y138779D02*
X349996D01*
Y137338D01*
X350620Y137597D01*
X351178Y138155D01*
X351437Y138779D01*
D02*
G37*
G36*
X336004D02*
X334563D01*
X334822Y138155D01*
X335380Y137597D01*
X336004Y137338D01*
Y138779D01*
D02*
G37*
G36*
X314094Y143715D02*
X311221D01*
Y136916D01*
X314094D01*
Y143715D01*
D02*
G37*
G36*
X294571Y136900D02*
X293131D01*
X293389Y136276D01*
X293947Y135718D01*
X294571Y135460D01*
Y136900D01*
D02*
G37*
G36*
X397471Y143634D02*
X396353D01*
X395272Y143344D01*
X394303Y142785D01*
X393513Y141994D01*
X392953Y141025D01*
X392664Y139945D01*
Y138826D01*
X392953Y137746D01*
X393513Y136777D01*
X394303Y135986D01*
X395272Y135427D01*
X396353Y135138D01*
X397471D01*
X398551Y135427D01*
X399520Y135986D01*
X400311Y136777D01*
X400870Y137746D01*
X401160Y138826D01*
Y139945D01*
X400870Y141025D01*
X400311Y141994D01*
X399520Y142785D01*
X398551Y143344D01*
X397471Y143634D01*
D02*
G37*
G36*
X358754Y136852D02*
X357998D01*
X357300Y136563D01*
X356766Y136028D01*
X356476Y135330D01*
Y134574D01*
X356766Y133876D01*
X357300Y133341D01*
X357998Y133052D01*
X358754D01*
X359453Y133341D01*
X359987Y133876D01*
X360276Y134574D01*
Y135330D01*
X359987Y136028D01*
X359453Y136563D01*
X358754Y136852D01*
D02*
G37*
G36*
X318744Y138401D02*
X315776D01*
Y135039D01*
X315776D01*
X315910Y134595D01*
X315918Y134539D01*
X315439Y134059D01*
X315150Y133361D01*
Y132605D01*
X315439Y131907D01*
X315973Y131372D01*
X316672Y131083D01*
X317427D01*
X318126Y131372D01*
X318660Y131907D01*
X318950Y132605D01*
Y133361D01*
X318660Y134059D01*
X318181Y134539D01*
X318221Y134797D01*
X318334Y135039D01*
X318744D01*
Y138401D01*
D02*
G37*
G36*
X248625Y139287D02*
X247375D01*
X246167Y138963D01*
X245083Y138338D01*
X244199Y137453D01*
X243574Y136370D01*
X243250Y135162D01*
Y133912D01*
X243574Y132703D01*
X244199Y131620D01*
X245083Y130736D01*
X246167Y130111D01*
X247375Y129787D01*
X248625D01*
X249833Y130111D01*
X250917Y130736D01*
X251801Y131620D01*
X252426Y132703D01*
X252750Y133912D01*
Y135162D01*
X252426Y136370D01*
X251801Y137453D01*
X250917Y138338D01*
X249833Y138963D01*
X248625Y139287D01*
D02*
G37*
G36*
X280373Y144182D02*
X279617D01*
X278918Y143893D01*
X278384Y143359D01*
X278095Y142660D01*
Y141904D01*
X278384Y141206D01*
X278918Y140672D01*
X279617Y140382D01*
X280373D01*
X281071Y140672D01*
X281595Y141196D01*
X284991D01*
Y129617D01*
X290737D01*
Y143215D01*
X286089D01*
X285991Y143235D01*
X281657D01*
X281605Y143359D01*
X281071Y143893D01*
X280373Y144182D01*
D02*
G37*
G36*
X314094Y135916D02*
X311221D01*
Y129117D01*
X314094D01*
Y135916D01*
D02*
G37*
G36*
X397471Y133634D02*
X396353D01*
X395272Y133344D01*
X394303Y132785D01*
X393513Y131994D01*
X392953Y131025D01*
X392664Y129945D01*
Y128826D01*
X392953Y127746D01*
X393513Y126777D01*
X394303Y125986D01*
X395272Y125427D01*
X396353Y125138D01*
X397471D01*
X398551Y125427D01*
X399520Y125986D01*
X400311Y126777D01*
X400870Y127746D01*
X401160Y128826D01*
Y129945D01*
X400870Y131025D01*
X400311Y131994D01*
X399520Y132785D01*
X398551Y133344D01*
X397471Y133634D01*
D02*
G37*
G36*
X369935Y125556D02*
Y124206D01*
X371285D01*
X371046Y124782D01*
X370512Y125317D01*
X369935Y125556D01*
D02*
G37*
G36*
X368935D02*
X368359Y125317D01*
X367825Y124782D01*
X367586Y124206D01*
X368935D01*
Y125556D01*
D02*
G37*
G36*
X371285Y123206D02*
X369935D01*
Y121857D01*
X370512Y122095D01*
X371046Y122630D01*
X371285Y123206D01*
D02*
G37*
G36*
X368935D02*
X367586D01*
X367825Y122630D01*
X368359Y122095D01*
X368935Y121857D01*
Y123206D01*
D02*
G37*
G36*
X430500Y122499D02*
Y120500D01*
X432499D01*
X432119Y121416D01*
X431416Y122119D01*
X430500Y122499D01*
D02*
G37*
G36*
X429500D02*
X428584Y122119D01*
X427881Y121416D01*
X427501Y120500D01*
X429500D01*
Y122499D01*
D02*
G37*
G36*
X410500D02*
Y120500D01*
X412499D01*
X412119Y121416D01*
X411416Y122119D01*
X410500Y122499D01*
D02*
G37*
G36*
X409500D02*
X408584Y122119D01*
X407881Y121416D01*
X407501Y120500D01*
X409500D01*
Y122499D01*
D02*
G37*
G36*
X310500D02*
Y120500D01*
X312499D01*
X312119Y121416D01*
X311416Y122119D01*
X310500Y122499D01*
D02*
G37*
G36*
X309500D02*
X308584Y122119D01*
X307881Y121416D01*
X307501Y120500D01*
X309500D01*
Y122499D01*
D02*
G37*
G36*
X290500D02*
Y120500D01*
X292499D01*
X292119Y121416D01*
X291416Y122119D01*
X290500Y122499D01*
D02*
G37*
G36*
X289500D02*
X288584Y122119D01*
X287881Y121416D01*
X287501Y120500D01*
X289500D01*
Y122499D01*
D02*
G37*
G36*
X250500D02*
Y120500D01*
X252499D01*
X252119Y121416D01*
X251416Y122119D01*
X250500Y122499D01*
D02*
G37*
G36*
X249500D02*
X248584Y122119D01*
X247881Y121416D01*
X247501Y120500D01*
X249500D01*
Y122499D01*
D02*
G37*
G36*
X274817Y122772D02*
X272742D01*
Y120500D01*
X274817D01*
Y122772D01*
D02*
G37*
G36*
X271742D02*
X269667D01*
Y120500D01*
X271742D01*
Y122772D01*
D02*
G37*
G36*
X432499Y119500D02*
X430500D01*
Y117501D01*
X431416Y117881D01*
X432119Y118584D01*
X432499Y119500D01*
D02*
G37*
G36*
X429500D02*
X427501D01*
X427881Y118584D01*
X428584Y117881D01*
X429500Y117501D01*
Y119500D01*
D02*
G37*
G36*
X412499D02*
X410500D01*
Y117501D01*
X411416Y117881D01*
X412119Y118584D01*
X412499Y119500D01*
D02*
G37*
G36*
X409500D02*
X407501D01*
X407881Y118584D01*
X408584Y117881D01*
X409500Y117501D01*
Y119500D01*
D02*
G37*
G36*
X312499D02*
X310500D01*
Y117501D01*
X311416Y117881D01*
X312119Y118584D01*
X312499Y119500D01*
D02*
G37*
G36*
X309500D02*
X307501D01*
X307881Y118584D01*
X308584Y117881D01*
X309500Y117501D01*
Y119500D01*
D02*
G37*
G36*
X292499D02*
X290500D01*
Y117501D01*
X291416Y117881D01*
X292119Y118584D01*
X292499Y119500D01*
D02*
G37*
G36*
X289500D02*
X287501D01*
X287881Y118584D01*
X288584Y117881D01*
X289500Y117501D01*
Y119500D01*
D02*
G37*
G36*
X252499D02*
X250500D01*
Y117501D01*
X251416Y117881D01*
X252119Y118584D01*
X252499Y119500D01*
D02*
G37*
G36*
X249500D02*
X247501D01*
X247881Y118584D01*
X248584Y117881D01*
X249500Y117501D01*
Y119500D01*
D02*
G37*
G36*
X274817Y119500D02*
X272742D01*
Y117228D01*
X274817D01*
Y119500D01*
D02*
G37*
G36*
X271742D02*
X269667D01*
Y117228D01*
X271742D01*
Y119500D01*
D02*
G37*
G36*
X401428Y116707D02*
Y115358D01*
X402777D01*
X402538Y115934D01*
X402004Y116469D01*
X401428Y116707D01*
D02*
G37*
G36*
X400428D02*
X399851Y116469D01*
X399317Y115934D01*
X399078Y115358D01*
X400428D01*
Y116707D01*
D02*
G37*
G36*
X402777Y114358D02*
X401428D01*
Y113008D01*
X402004Y113247D01*
X402538Y113782D01*
X402777Y114358D01*
D02*
G37*
G36*
X400428D02*
X399078D01*
X399317Y113782D01*
X399851Y113247D01*
X400428Y113008D01*
Y114358D01*
D02*
G37*
G36*
X308693Y113849D02*
Y112500D01*
X310042D01*
X309804Y113076D01*
X309269Y113611D01*
X308693Y113849D01*
D02*
G37*
G36*
X307693D02*
X307117Y113611D01*
X306582Y113076D01*
X306343Y112500D01*
X307693D01*
Y113849D01*
D02*
G37*
G36*
X310042Y111500D02*
X308693D01*
Y110151D01*
X309269Y110389D01*
X309804Y110924D01*
X310042Y111500D01*
D02*
G37*
G36*
X307693D02*
X306343D01*
X306582Y110924D01*
X307117Y110389D01*
X307693Y110151D01*
Y111500D01*
D02*
G37*
G36*
X302350Y110467D02*
X301594D01*
X300895Y110177D01*
X300361Y109643D01*
X300072Y108944D01*
Y108189D01*
X300361Y107490D01*
X300895Y106956D01*
X301594Y106667D01*
X302350D01*
X303048Y106956D01*
X303583Y107490D01*
X303872Y108189D01*
Y108944D01*
X303583Y109643D01*
X303048Y110177D01*
X302350Y110467D01*
D02*
G37*
G36*
X442500Y106349D02*
Y105000D01*
X443849D01*
X443611Y105576D01*
X443076Y106111D01*
X442500Y106349D01*
D02*
G37*
G36*
X441500D02*
X440924Y106111D01*
X440389Y105576D01*
X440151Y105000D01*
X441500D01*
Y106349D01*
D02*
G37*
G36*
X443849Y104000D02*
X442500D01*
Y102651D01*
X443076Y102889D01*
X443611Y103424D01*
X443849Y104000D01*
D02*
G37*
G36*
X441500D02*
X440151D01*
X440389Y103424D01*
X440924Y102889D01*
X441500Y102651D01*
Y104000D01*
D02*
G37*
G36*
X300631Y105894D02*
X299875D01*
X299177Y105605D01*
X298642Y105071D01*
X298353Y104372D01*
Y103616D01*
X298642Y102918D01*
X299177Y102384D01*
X299875Y102094D01*
X300631D01*
X301329Y102384D01*
X301864Y102918D01*
X302153Y103616D01*
Y104372D01*
X301864Y105071D01*
X301329Y105605D01*
X300631Y105894D01*
D02*
G37*
G36*
X313474Y102890D02*
Y101540D01*
X314824D01*
X314585Y102117D01*
X314051Y102651D01*
X313474Y102890D01*
D02*
G37*
G36*
X312474D02*
X311898Y102651D01*
X311364Y102117D01*
X311125Y101540D01*
X312474D01*
Y102890D01*
D02*
G37*
G36*
X280500Y102499D02*
Y100500D01*
X282499D01*
X282119Y101416D01*
X281416Y102119D01*
X280500Y102499D01*
D02*
G37*
G36*
X279500D02*
X278584Y102119D01*
X277881Y101416D01*
X277501Y100500D01*
X279500D01*
Y102499D01*
D02*
G37*
G36*
X260500D02*
Y100500D01*
X262499D01*
X262119Y101416D01*
X261416Y102119D01*
X260500Y102499D01*
D02*
G37*
G36*
X259500D02*
X258584Y102119D01*
X257881Y101416D01*
X257501Y100500D01*
X259500D01*
Y102499D01*
D02*
G37*
G36*
X240500D02*
Y100500D01*
X242499D01*
X242119Y101416D01*
X241416Y102119D01*
X240500Y102499D01*
D02*
G37*
G36*
X239500D02*
X238584Y102119D01*
X237881Y101416D01*
X237501Y100500D01*
X239500D01*
Y102499D01*
D02*
G37*
G36*
X358857Y101041D02*
X358101D01*
X357403Y100752D01*
X356868Y100217D01*
X356825Y100114D01*
X355993D01*
Y100532D01*
X352631D01*
Y97563D01*
X355993D01*
Y98075D01*
X356864D01*
X356868Y98065D01*
X357403Y97530D01*
X358101Y97241D01*
X358857D01*
X359555Y97530D01*
X360090Y98065D01*
X360379Y98763D01*
Y99519D01*
X360090Y100217D01*
X359555Y100752D01*
X358857Y101041D01*
D02*
G37*
G36*
X314824Y100540D02*
X313474D01*
Y99191D01*
X314051Y99430D01*
X314585Y99964D01*
X314824Y100540D01*
D02*
G37*
G36*
X312474D02*
X311125D01*
X311364Y99964D01*
X311898Y99430D01*
X312474Y99191D01*
Y100540D01*
D02*
G37*
G36*
X331511Y101371D02*
X329436D01*
Y99099D01*
X331511D01*
Y101371D01*
D02*
G37*
G36*
X328436D02*
X326361D01*
Y99099D01*
X328436D01*
Y101371D01*
D02*
G37*
G36*
X369163Y100156D02*
Y98807D01*
X370513D01*
X370274Y99383D01*
X369740Y99917D01*
X369163Y100156D01*
D02*
G37*
G36*
X368163D02*
X367587Y99917D01*
X367053Y99383D01*
X366814Y98807D01*
X368163D01*
Y100156D01*
D02*
G37*
G36*
X336523Y100871D02*
X332373D01*
Y96328D01*
X336523D01*
Y98028D01*
X348694D01*
Y97563D01*
X352056D01*
Y100532D01*
X348694D01*
Y100067D01*
X336523D01*
Y100871D01*
D02*
G37*
G36*
X282499Y99500D02*
X280500D01*
Y97501D01*
X281416Y97881D01*
X282119Y98584D01*
X282499Y99500D01*
D02*
G37*
G36*
X279500D02*
X277501D01*
X277881Y98584D01*
X278584Y97881D01*
X279500Y97501D01*
Y99500D01*
D02*
G37*
G36*
X262499D02*
X260500D01*
Y97501D01*
X261416Y97881D01*
X262119Y98584D01*
X262499Y99500D01*
D02*
G37*
G36*
X259500D02*
X257501D01*
X257881Y98584D01*
X258584Y97881D01*
X259500Y97501D01*
Y99500D01*
D02*
G37*
G36*
X242499D02*
X240500D01*
Y97501D01*
X241416Y97881D01*
X242119Y98584D01*
X242499Y99500D01*
D02*
G37*
G36*
X239500D02*
X237501D01*
X237881Y98584D01*
X238584Y97881D01*
X239500Y97501D01*
Y99500D01*
D02*
G37*
G36*
X370513Y97807D02*
X369163D01*
Y96457D01*
X369740Y96696D01*
X370274Y97230D01*
X370513Y97807D01*
D02*
G37*
G36*
X368163D02*
X366814D01*
X367053Y97230D01*
X367587Y96696D01*
X368163Y96457D01*
Y97807D01*
D02*
G37*
G36*
X401160Y183634D02*
X392664D01*
Y176579D01*
X388763Y172679D01*
X388542Y172348D01*
X388465Y171958D01*
Y110996D01*
X388542Y110606D01*
X388763Y110275D01*
X392732Y106306D01*
Y100694D01*
X386840Y94802D01*
X355993D01*
Y95267D01*
X352631D01*
Y92298D01*
X355993D01*
Y92763D01*
X387263D01*
X387653Y92840D01*
X387984Y93062D01*
X394174Y99252D01*
X401228D01*
Y107748D01*
X394174D01*
X390504Y111418D01*
Y171536D01*
X394106Y175138D01*
X401160D01*
Y183634D01*
D02*
G37*
G36*
X331511Y98099D02*
X328936D01*
X326361D01*
Y95828D01*
Y93692D01*
X328936D01*
X331511D01*
Y95828D01*
Y98099D01*
D02*
G37*
G36*
X273319Y165198D02*
X269169D01*
Y160654D01*
X269213D01*
Y156310D01*
X269088Y156010D01*
Y155895D01*
X265250Y152056D01*
X264918Y151560D01*
X264802Y150975D01*
X264852Y150725D01*
X264802Y150475D01*
Y128385D01*
X264721Y128303D01*
X264431Y127605D01*
Y126849D01*
X264721Y126151D01*
X264802Y126069D01*
Y122272D01*
X264655D01*
Y117728D01*
X264971D01*
Y97133D01*
X261039Y93202D01*
X260443Y93362D01*
X259557D01*
X258702Y93133D01*
X257936Y92690D01*
X257310Y92064D01*
X256867Y91298D01*
X256638Y90443D01*
Y89557D01*
X256867Y88702D01*
X257310Y87936D01*
X257936Y87310D01*
X258702Y86867D01*
X259557Y86638D01*
X260443D01*
X261298Y86867D01*
X261319Y86879D01*
X274658Y73540D01*
Y37627D01*
X273938D01*
X273938Y34659D01*
X273540Y34412D01*
X273438D01*
Y32928D01*
X275619D01*
Y31928D01*
X273438D01*
Y30443D01*
X274482D01*
X274689Y29943D01*
X274381Y29635D01*
X274143Y29059D01*
X275992D01*
Y28559D01*
X276492D01*
Y26710D01*
X276886Y26873D01*
X277386Y26612D01*
Y25346D01*
X279567D01*
Y24346D01*
X277386D01*
Y22862D01*
X279071D01*
X279170Y22362D01*
X278584Y22119D01*
X277881Y21416D01*
X277501Y20500D01*
X282499D01*
X282119Y21416D01*
X281416Y22119D01*
X280830Y22362D01*
X280929Y22862D01*
X281748D01*
Y22893D01*
X281823Y23362D01*
X282248Y23362D01*
X285185D01*
Y26331D01*
X284269D01*
Y27075D01*
X285185D01*
Y28962D01*
X285327Y29104D01*
X287020D01*
Y28778D01*
X289791D01*
X289998Y28278D01*
X288554Y26834D01*
X288388Y26586D01*
X288380Y26543D01*
X287110D01*
Y24862D01*
X289094D01*
Y23862D01*
X287110D01*
Y22181D01*
X287141D01*
X287610Y22106D01*
X287610Y21681D01*
Y18744D01*
X290579D01*
Y19660D01*
X291315D01*
Y18744D01*
X294284D01*
Y22106D01*
X291733Y22106D01*
X291582Y22352D01*
X291781Y22681D01*
X294284D01*
Y24848D01*
X294516Y25030D01*
X295016Y24798D01*
Y22681D01*
X296304D01*
X296571Y22181D01*
X296521Y22106D01*
X295016D01*
Y18744D01*
X297984D01*
Y21025D01*
X298528Y21568D01*
X299028Y21482D01*
Y19138D01*
X305933D01*
Y20864D01*
X314488D01*
Y18374D01*
X325990D01*
X332806Y11558D01*
X333468Y11116D01*
X334248Y10961D01*
X391441D01*
X392221Y11116D01*
X392883Y11558D01*
X398005Y16680D01*
X398447Y17342D01*
X398602Y18122D01*
Y30859D01*
X398583Y30956D01*
X398602Y31054D01*
Y53889D01*
X399228D01*
Y61582D01*
X397583D01*
Y65600D01*
X397878D01*
X398576Y65889D01*
X399111Y66424D01*
X399400Y67122D01*
Y67878D01*
X399111Y68576D01*
X398576Y69111D01*
X397878Y69400D01*
X397122D01*
X396424Y69111D01*
X395889Y68576D01*
X395600Y67878D01*
Y67122D01*
X395664Y66968D01*
X395621Y66904D01*
X395543Y66514D01*
Y61582D01*
X393898D01*
Y53889D01*
X394524D01*
Y32073D01*
X392732D01*
Y34310D01*
X385827D01*
Y31286D01*
X383809D01*
Y31947D01*
X380841D01*
Y31138D01*
X379395D01*
X379247Y31360D01*
X379017Y31513D01*
X378746Y31567D01*
X375986D01*
X375715Y31513D01*
X375485Y31360D01*
X375332Y31130D01*
X375278Y30859D01*
Y29083D01*
X375332Y28812D01*
X375485Y28582D01*
X375715Y28429D01*
X375986Y28375D01*
X378746D01*
X379017Y28429D01*
X379247Y28582D01*
X379401Y28812D01*
X379454Y29083D01*
Y29099D01*
X380841D01*
Y28585D01*
X383809D01*
Y29247D01*
X385827D01*
Y27798D01*
X392732D01*
Y30034D01*
X394524D01*
Y18967D01*
X390596Y15039D01*
X335093D01*
X328874Y21258D01*
Y28626D01*
X315930D01*
X310030Y34527D01*
X309699Y34748D01*
X309309Y34825D01*
X309269D01*
X309062Y35325D01*
X310759Y37022D01*
X312727Y38990D01*
X315930Y42193D01*
X327950D01*
X328157Y41693D01*
X327881Y41416D01*
X327501Y40500D01*
X329500D01*
Y42499D01*
X329290Y42412D01*
X328874Y42690D01*
Y52445D01*
X317676D01*
Y53045D01*
X319437D01*
Y59557D01*
X310563D01*
Y53045D01*
X314617D01*
Y52445D01*
X314488D01*
Y43635D01*
X311584Y40731D01*
X302980D01*
Y42770D01*
X301670D01*
Y44399D01*
X301670Y44399D01*
X301612Y44692D01*
X301446Y44940D01*
X299831Y46556D01*
Y50017D01*
X295681D01*
Y45474D01*
X298749D01*
X300141Y44082D01*
Y42770D01*
X299543D01*
Y43467D01*
X296950D01*
X296742Y43606D01*
X296352Y43683D01*
X295961Y43606D01*
X295754Y43467D01*
X295500D01*
Y35774D01*
X294500D01*
Y43467D01*
X293819D01*
Y43984D01*
X293819Y43984D01*
Y44974D01*
X294819D01*
Y47246D01*
X292244D01*
X289669D01*
Y44974D01*
X291780D01*
Y43984D01*
X291780Y43984D01*
Y43467D01*
X290457D01*
Y43270D01*
X289595D01*
Y41680D01*
X289094D01*
Y41180D01*
X286520D01*
Y40476D01*
X285685D01*
Y41892D01*
X284201D01*
Y39711D01*
X283701D01*
Y39211D01*
X281716D01*
Y38030D01*
X281716Y37678D01*
X281237Y37627D01*
X280800Y37627D01*
X280800D01*
X280799Y37627D01*
X277875D01*
Y35073D01*
X277615Y34929D01*
X277300Y35120D01*
Y37627D01*
X276187D01*
Y73106D01*
X296109D01*
Y71630D01*
X293661D01*
Y64725D01*
X296258D01*
Y63953D01*
X293618D01*
Y57047D01*
X296258D01*
Y56034D01*
X295457D01*
Y51491D01*
X299607D01*
Y56034D01*
X298807D01*
Y57047D01*
X300130D01*
Y63953D01*
X298807D01*
Y64725D01*
X300173D01*
Y71630D01*
X298658D01*
Y73106D01*
X310563D01*
Y70368D01*
X319437D01*
Y74738D01*
X349512D01*
X350000Y74835D01*
X350413Y75111D01*
X356576Y81274D01*
X356852Y81687D01*
X356949Y82175D01*
Y83046D01*
X359537D01*
Y89952D01*
X353025D01*
Y83046D01*
X354037D01*
X354244Y82546D01*
X348984Y77287D01*
X331289D01*
X331189Y77787D01*
X331416Y77881D01*
X332119Y78584D01*
X332499Y79500D01*
X327501D01*
X327881Y78584D01*
X328584Y77881D01*
X328811Y77787D01*
X328711Y77287D01*
X317600D01*
X317112Y77190D01*
X316699Y76913D01*
X316665Y76880D01*
X310563D01*
Y75655D01*
X276147D01*
X263121Y88681D01*
X263133Y88702D01*
X263362Y89557D01*
Y90443D01*
X263202Y91039D01*
X267581Y95419D01*
X267913Y95915D01*
X268029Y96500D01*
Y117728D01*
X268805D01*
Y122272D01*
X267861D01*
Y126069D01*
X267942Y126151D01*
X268231Y126849D01*
Y127605D01*
X267942Y128303D01*
X267861Y128385D01*
Y150341D01*
X271251Y153732D01*
X271366D01*
X272064Y154021D01*
X272599Y154555D01*
X272888Y155254D01*
Y156010D01*
X272599Y156708D01*
X272271Y157035D01*
Y160654D01*
X273319D01*
Y165198D01*
D02*
G37*
G36*
X336523Y95464D02*
X332373D01*
Y90920D01*
X336523D01*
Y92763D01*
X348694D01*
Y92298D01*
X352056D01*
Y95267D01*
X348694D01*
Y94802D01*
X336523D01*
Y95464D01*
D02*
G37*
G36*
X250500Y93347D02*
Y90500D01*
X253347D01*
X253133Y91298D01*
X252690Y92064D01*
X252064Y92690D01*
X251298Y93133D01*
X250500Y93347D01*
D02*
G37*
G36*
X249500Y93347D02*
X248702Y93133D01*
X247936Y92690D01*
X247310Y92064D01*
X246867Y91298D01*
X246653Y90500D01*
X249500D01*
Y93347D01*
D02*
G37*
G36*
X397540Y97748D02*
X396421D01*
X395341Y97458D01*
X394372Y96899D01*
X393581Y96108D01*
X393022Y95140D01*
X392732Y94059D01*
Y92941D01*
X393022Y91860D01*
X393581Y90892D01*
X394372Y90101D01*
X395341Y89541D01*
X396421Y89252D01*
X397540D01*
X398620Y89541D01*
X399589Y90101D01*
X400380Y90892D01*
X400939Y91860D01*
X401228Y92941D01*
Y94059D01*
X400939Y95140D01*
X400380Y96108D01*
X399589Y96899D01*
X398620Y97458D01*
X397540Y97748D01*
D02*
G37*
G36*
X351663Y89952D02*
X345151D01*
Y88354D01*
X336523D01*
Y89606D01*
X332373D01*
Y85063D01*
X336523D01*
Y86315D01*
X345151D01*
Y83046D01*
X351663D01*
Y89952D01*
D02*
G37*
G36*
X331511Y92692D02*
X328936D01*
X326361D01*
Y90420D01*
X326361D01*
Y90106D01*
X326361D01*
Y87835D01*
X328936D01*
X331511D01*
Y90106D01*
X331511D01*
Y90420D01*
X331511D01*
Y92692D01*
D02*
G37*
G36*
X253347Y89500D02*
X250500D01*
Y86653D01*
X251298Y86867D01*
X252064Y87310D01*
X252690Y87936D01*
X253133Y88702D01*
X253347Y89500D01*
D02*
G37*
G36*
X249500D02*
X246653D01*
X246867Y88702D01*
X247310Y87936D01*
X247936Y87310D01*
X248702Y86867D01*
X249500Y86653D01*
Y89500D01*
D02*
G37*
G36*
X331511Y86835D02*
X329436D01*
Y84563D01*
X331511D01*
Y86835D01*
D02*
G37*
G36*
X328436D02*
X326361D01*
Y84563D01*
X328436D01*
Y86835D01*
D02*
G37*
G36*
X430500Y82499D02*
Y80500D01*
X432499D01*
X432119Y81416D01*
X431416Y82119D01*
X430500Y82499D01*
D02*
G37*
G36*
X429500D02*
X428584Y82119D01*
X427881Y81416D01*
X427501Y80500D01*
X429500D01*
Y82499D01*
D02*
G37*
G36*
X390500D02*
Y80500D01*
X392499D01*
X392119Y81416D01*
X391416Y82119D01*
X390500Y82499D01*
D02*
G37*
G36*
X389500D02*
X388584Y82119D01*
X387881Y81416D01*
X387501Y80500D01*
X389500D01*
Y82499D01*
D02*
G37*
G36*
X370500D02*
Y80500D01*
X372499D01*
X372119Y81416D01*
X371416Y82119D01*
X370500Y82499D01*
D02*
G37*
G36*
X369500D02*
X368584Y82119D01*
X367881Y81416D01*
X367501Y80500D01*
X369500D01*
Y82499D01*
D02*
G37*
G36*
X330500D02*
Y80500D01*
X332499D01*
X332119Y81416D01*
X331416Y82119D01*
X330500Y82499D01*
D02*
G37*
G36*
X329500D02*
X328584Y82119D01*
X327881Y81416D01*
X327501Y80500D01*
X329500D01*
Y82499D01*
D02*
G37*
G36*
X310500D02*
Y80500D01*
X312499D01*
X312119Y81416D01*
X311416Y82119D01*
X310500Y82499D01*
D02*
G37*
G36*
X309500D02*
X308584Y82119D01*
X307881Y81416D01*
X307501Y80500D01*
X309500D01*
Y82499D01*
D02*
G37*
G36*
X290500D02*
Y80500D01*
X292499D01*
X292119Y81416D01*
X291416Y82119D01*
X290500Y82499D01*
D02*
G37*
G36*
X289500D02*
X288584Y82119D01*
X287881Y81416D01*
X287501Y80500D01*
X289500D01*
Y82499D01*
D02*
G37*
G36*
X250500D02*
Y80500D01*
X252499D01*
X252119Y81416D01*
X251416Y82119D01*
X250500Y82499D01*
D02*
G37*
G36*
X249500D02*
X248584Y82119D01*
X247881Y81416D01*
X247501Y80500D01*
X249500D01*
Y82499D01*
D02*
G37*
G36*
X432499Y79500D02*
X430500D01*
Y77501D01*
X431416Y77881D01*
X432119Y78584D01*
X432499Y79500D01*
D02*
G37*
G36*
X429500D02*
X427501D01*
X427881Y78584D01*
X428584Y77881D01*
X429500Y77501D01*
Y79500D01*
D02*
G37*
G36*
X392499D02*
X390500D01*
Y77501D01*
X391416Y77881D01*
X392119Y78584D01*
X392499Y79500D01*
D02*
G37*
G36*
X389500D02*
X387501D01*
X387881Y78584D01*
X388584Y77881D01*
X389500Y77501D01*
Y79500D01*
D02*
G37*
G36*
X312499D02*
X310500D01*
Y77501D01*
X311416Y77881D01*
X312119Y78584D01*
X312499Y79500D01*
D02*
G37*
G36*
X309500D02*
X307501D01*
X307881Y78584D01*
X308584Y77881D01*
X309500Y77501D01*
Y79500D01*
D02*
G37*
G36*
X292499D02*
X290500D01*
Y77501D01*
X291416Y77881D01*
X292119Y78584D01*
X292499Y79500D01*
D02*
G37*
G36*
X289500D02*
X287501D01*
X287881Y78584D01*
X288584Y77881D01*
X289500Y77501D01*
Y79500D01*
D02*
G37*
G36*
X252499D02*
X250500D01*
Y77501D01*
X251416Y77881D01*
X252119Y78584D01*
X252499Y79500D01*
D02*
G37*
G36*
X249500D02*
X247501D01*
X247881Y78584D01*
X248584Y77881D01*
X249500Y77501D01*
Y79500D01*
D02*
G37*
G36*
X372499D02*
X367501D01*
X367881Y78584D01*
X368584Y77881D01*
X368828Y77780D01*
X368728Y77280D01*
X366621D01*
Y76020D01*
X365251D01*
X365062Y76209D01*
X364486Y76447D01*
Y74598D01*
Y72748D01*
X365062Y72987D01*
X365597Y73522D01*
X365787Y73980D01*
X366621D01*
Y72720D01*
X369030D01*
Y75000D01*
X369530D01*
Y75500D01*
X372440D01*
Y77280D01*
X371272D01*
X371172Y77780D01*
X371416Y77881D01*
X372119Y78584D01*
X372499Y79500D01*
D02*
G37*
G36*
X363486Y76447D02*
X362910Y76209D01*
X362375Y75674D01*
X362137Y75098D01*
X363486D01*
Y76447D01*
D02*
G37*
G36*
Y74098D02*
X362137D01*
X362375Y73522D01*
X362910Y72987D01*
X363486Y72748D01*
Y74098D01*
D02*
G37*
G36*
X372440Y74500D02*
X370030D01*
Y72720D01*
X372440D01*
Y74500D01*
D02*
G37*
G36*
X292799Y72130D02*
X289543D01*
Y68678D01*
X292799D01*
Y72130D01*
D02*
G37*
G36*
X288543D02*
X285287D01*
Y68678D01*
X288543D01*
Y72130D01*
D02*
G37*
G36*
X352925Y67192D02*
Y65842D01*
X354275D01*
X354036Y66419D01*
X353502Y66953D01*
X352925Y67192D01*
D02*
G37*
G36*
X351925D02*
X351349Y66953D01*
X350814Y66419D01*
X350576Y65842D01*
X351925D01*
Y67192D01*
D02*
G37*
G36*
X354275Y64842D02*
X350576D01*
X350778Y64353D01*
X350574Y63853D01*
X349850D01*
Y61582D01*
X352425D01*
X355000D01*
Y63853D01*
X354276D01*
X354072Y64353D01*
X354275Y64842D01*
D02*
G37*
G36*
X426551Y64689D02*
X426500D01*
Y61000D01*
X430189D01*
Y61051D01*
X429904Y62117D01*
X429352Y63072D01*
X428572Y63852D01*
X427617Y64403D01*
X426551Y64689D01*
D02*
G37*
G36*
X425500D02*
X425449D01*
X424383Y64403D01*
X423428Y63852D01*
X422648Y63072D01*
X422096Y62117D01*
X421811Y61051D01*
Y61000D01*
X425500D01*
Y64689D01*
D02*
G37*
G36*
X292799Y67678D02*
X289043D01*
X285287D01*
Y64453D01*
X285244D01*
Y61000D01*
X289000D01*
X292756D01*
Y64225D01*
X292799D01*
Y67678D01*
D02*
G37*
G36*
X340500Y62499D02*
Y60500D01*
X342499D01*
X342119Y61416D01*
X341416Y62119D01*
X340500Y62499D01*
D02*
G37*
G36*
X339500D02*
X338584Y62119D01*
X337881Y61416D01*
X337501Y60500D01*
X339500D01*
Y62499D01*
D02*
G37*
G36*
X280500D02*
Y60500D01*
X282499D01*
X282119Y61416D01*
X281416Y62119D01*
X280500Y62499D01*
D02*
G37*
G36*
X279500D02*
X278584Y62119D01*
X277881Y61416D01*
X277501Y60500D01*
X279500D01*
Y62499D01*
D02*
G37*
G36*
X260500D02*
Y60500D01*
X262499D01*
X262119Y61416D01*
X261416Y62119D01*
X260500Y62499D01*
D02*
G37*
G36*
X259500D02*
X258584Y62119D01*
X257881Y61416D01*
X257501Y60500D01*
X259500D01*
Y62499D01*
D02*
G37*
G36*
X240500D02*
Y60500D01*
X242499D01*
X242119Y61416D01*
X241416Y62119D01*
X240500Y62499D01*
D02*
G37*
G36*
X239500D02*
X238584Y62119D01*
X237881Y61416D01*
X237501Y60500D01*
X239500D01*
Y62499D01*
D02*
G37*
G36*
X342499Y59500D02*
X340500D01*
Y57501D01*
X341416Y57881D01*
X342119Y58584D01*
X342499Y59500D01*
D02*
G37*
G36*
X339500D02*
X337501D01*
X337881Y58584D01*
X338584Y57881D01*
X339500Y57501D01*
Y59500D01*
D02*
G37*
G36*
X282499D02*
X280500D01*
Y57501D01*
X281416Y57881D01*
X282119Y58584D01*
X282499Y59500D01*
D02*
G37*
G36*
X279500D02*
X277501D01*
X277881Y58584D01*
X278584Y57881D01*
X279500Y57501D01*
Y59500D01*
D02*
G37*
G36*
X262499D02*
X260500D01*
Y57501D01*
X261416Y57881D01*
X262119Y58584D01*
X262499Y59500D01*
D02*
G37*
G36*
X259500D02*
X257501D01*
X257881Y58584D01*
X258584Y57881D01*
X259500Y57501D01*
Y59500D01*
D02*
G37*
G36*
X242499D02*
X240500D01*
Y57501D01*
X241416Y57881D01*
X242119Y58584D01*
X242499Y59500D01*
D02*
G37*
G36*
X239500D02*
X237501D01*
X237881Y58584D01*
X238584Y57881D01*
X239500Y57501D01*
Y59500D01*
D02*
G37*
G36*
X355000Y60582D02*
X352425D01*
X349850D01*
Y58310D01*
Y56837D01*
X352425D01*
X355000D01*
Y58310D01*
Y60582D01*
D02*
G37*
G36*
X430189Y60000D02*
X426500D01*
Y56311D01*
X426551D01*
X427617Y56596D01*
X428572Y57148D01*
X429352Y57928D01*
X429904Y58883D01*
X430189Y59948D01*
Y60000D01*
D02*
G37*
G36*
X425500D02*
X421811D01*
Y59948D01*
X422096Y58883D01*
X422648Y57928D01*
X423428Y57148D01*
X424383Y56596D01*
X425449Y56311D01*
X425500D01*
Y60000D01*
D02*
G37*
G36*
X292756Y60000D02*
X289000D01*
X285244D01*
Y56547D01*
X288951D01*
X289445Y56534D01*
X289445Y56047D01*
Y54262D01*
X292020D01*
X294595D01*
Y56534D01*
X293250D01*
X292756Y56547D01*
X292756Y57034D01*
Y60000D01*
D02*
G37*
G36*
X294595Y53262D02*
X292020D01*
X289445D01*
Y52433D01*
X289110Y52097D01*
X288658Y52285D01*
Y50436D01*
Y48586D01*
X289169Y48798D01*
X289447Y48692D01*
X289669Y48553D01*
Y48246D01*
X292244D01*
X294819D01*
Y50517D01*
X294660D01*
X294595Y50991D01*
X294595D01*
Y53262D01*
D02*
G37*
G36*
X355000Y55837D02*
X352425D01*
X349850D01*
Y54454D01*
X347488D01*
Y51001D01*
X351244D01*
X355000D01*
Y53566D01*
X355000D01*
Y55837D01*
D02*
G37*
G36*
X287658Y52285D02*
X287082Y52046D01*
X286547Y51512D01*
X286308Y50936D01*
X287658D01*
Y52285D01*
D02*
G37*
G36*
Y49935D02*
X286308D01*
X286547Y49359D01*
X287082Y48825D01*
X287658Y48586D01*
Y49935D01*
D02*
G37*
G36*
X350744Y50001D02*
X347488D01*
Y46549D01*
X350744D01*
Y50001D01*
D02*
G37*
G36*
X358364Y66998D02*
X357608D01*
X356910Y66709D01*
X356375Y66174D01*
X356086Y65476D01*
Y64720D01*
X356375Y64022D01*
X356544Y63853D01*
X356337Y63353D01*
X355862D01*
Y58810D01*
X355862D01*
Y58609D01*
X355862D01*
Y54066D01*
X355862D01*
Y53954D01*
X355862D01*
Y48490D01*
X355462Y48090D01*
X355000Y48281D01*
Y50001D01*
X351744D01*
Y46549D01*
X353016D01*
X353223Y46049D01*
X351215Y44040D01*
X350994Y43710D01*
X350917Y43319D01*
Y42774D01*
X349665D01*
Y39869D01*
X348444Y38649D01*
X348223Y38318D01*
X348145Y37928D01*
Y30819D01*
X348223Y30429D01*
X348444Y30098D01*
X349367Y29174D01*
Y26889D01*
X348706D01*
Y23920D01*
X352068D01*
Y26889D01*
X351407D01*
Y29597D01*
X351329Y29987D01*
X351108Y30318D01*
X350743Y30682D01*
X350935Y31144D01*
X354208D01*
Y35294D01*
X350184D01*
Y37505D01*
X351303Y38625D01*
X354208D01*
Y42774D01*
X353540D01*
X353333Y43274D01*
X354779Y44720D01*
X354888Y44742D01*
X355219Y44963D01*
X357304Y47049D01*
X362374D01*
Y52512D01*
X364342Y54480D01*
X365350D01*
Y44567D01*
X374224D01*
Y66433D01*
X365350D01*
Y56520D01*
X363920D01*
X363530Y56442D01*
X363199Y56221D01*
X360932Y53954D01*
X360466D01*
X360012Y54066D01*
Y58609D01*
X360012D01*
Y58810D01*
X360012D01*
Y63353D01*
X359636D01*
X359429Y63853D01*
X359597Y64022D01*
X359886Y64720D01*
Y65476D01*
X359597Y66174D01*
X359062Y66709D01*
X358364Y66998D01*
D02*
G37*
G36*
X409858Y61582D02*
X404528D01*
Y59652D01*
X404270Y59030D01*
X404167Y58247D01*
Y57735D01*
X404270Y56952D01*
X404528Y56331D01*
Y53889D01*
X409858D01*
Y55186D01*
X415898D01*
X421818Y49266D01*
X421811Y49240D01*
Y48138D01*
X422096Y47072D01*
X422648Y46117D01*
X423428Y45337D01*
X424383Y44785D01*
X425449Y44500D01*
X426551D01*
X427617Y44785D01*
X428572Y45337D01*
X429352Y46117D01*
X429904Y47072D01*
X430189Y48138D01*
Y49240D01*
X429904Y50306D01*
X429352Y51261D01*
X428572Y52041D01*
X427617Y52592D01*
X426551Y52878D01*
X425449D01*
X425423Y52871D01*
X418756Y59538D01*
X417929Y60090D01*
X416954Y60284D01*
X409858D01*
Y61582D01*
D02*
G37*
G36*
X288595Y43270D02*
X286520D01*
Y42180D01*
X288595D01*
Y43270D01*
D02*
G37*
G36*
X438363Y49177D02*
X437259D01*
X436194Y48892D01*
X435239Y48340D01*
X434459Y47560D01*
X433908Y46605D01*
X433622Y45540D01*
Y44437D01*
X433908Y43371D01*
X434459Y42416D01*
X435239Y41636D01*
X436194Y41085D01*
X437259Y40799D01*
X438363D01*
X439428Y41085D01*
X440383Y41636D01*
X441163Y42416D01*
X441714Y43371D01*
X442000Y44437D01*
Y45540D01*
X441714Y46605D01*
X441163Y47560D01*
X440383Y48340D01*
X439428Y48892D01*
X438363Y49177D01*
D02*
G37*
G36*
X414741D02*
X413637D01*
X412572Y48892D01*
X411617Y48340D01*
X410837Y47560D01*
X410286Y46605D01*
X410000Y45540D01*
Y44437D01*
X410286Y43371D01*
X410501Y42999D01*
X410211Y42500D01*
X409503D01*
X408584Y42119D01*
X407881Y41416D01*
X407501Y40500D01*
X412499D01*
X412459Y40598D01*
X412826Y41017D01*
X413637Y40799D01*
X414741D01*
X415806Y41085D01*
X416761Y41636D01*
X417541Y42416D01*
X418092Y43371D01*
X418378Y44437D01*
Y45540D01*
X418092Y46605D01*
X417541Y47560D01*
X416761Y48340D01*
X415806Y48892D01*
X414741Y49177D01*
D02*
G37*
G36*
X430500Y42499D02*
Y40500D01*
X432499D01*
X432119Y41416D01*
X431416Y42119D01*
X430500Y42499D01*
D02*
G37*
G36*
X429500D02*
X428584Y42119D01*
X427881Y41416D01*
X427501Y40500D01*
X429500D01*
Y42499D01*
D02*
G37*
G36*
X390500D02*
Y40500D01*
X392499D01*
X392119Y41416D01*
X391416Y42119D01*
X390500Y42499D01*
D02*
G37*
G36*
X389500D02*
X388584Y42119D01*
X387881Y41416D01*
X387501Y40500D01*
X389500D01*
Y42499D01*
D02*
G37*
G36*
X330500D02*
Y40500D01*
X332499D01*
X332119Y41416D01*
X331416Y42119D01*
X330500Y42499D01*
D02*
G37*
G36*
X270500D02*
Y40500D01*
X272499D01*
X272119Y41416D01*
X271416Y42119D01*
X270500Y42499D01*
D02*
G37*
G36*
X269500D02*
X268584Y42119D01*
X267881Y41416D01*
X267501Y40500D01*
X269500D01*
Y42499D01*
D02*
G37*
G36*
X250500D02*
Y40500D01*
X252499D01*
X252119Y41416D01*
X251416Y42119D01*
X250500Y42499D01*
D02*
G37*
G36*
X249500D02*
X248584Y42119D01*
X247881Y41416D01*
X247501Y40500D01*
X249500D01*
Y42499D01*
D02*
G37*
G36*
X283201Y41892D02*
X281716D01*
Y40211D01*
X283201D01*
Y41892D01*
D02*
G37*
G36*
X374713Y40908D02*
X371350D01*
Y40443D01*
X362472D01*
X362082Y40366D01*
X361751Y40145D01*
X360640Y39034D01*
X357539D01*
Y34884D01*
X360640D01*
X362534Y32990D01*
X362865Y32769D01*
X363255Y32691D01*
X365265D01*
X365292Y32552D01*
X365356Y32457D01*
X365414Y32237D01*
X365266Y31841D01*
X365085Y31720D01*
X364821Y31325D01*
X364755Y30990D01*
X364055D01*
X364032Y31047D01*
X363497Y31582D01*
X362921Y31820D01*
Y29971D01*
Y28122D01*
X363497Y28360D01*
X364032Y28895D01*
X364055Y28951D01*
X364755D01*
X364821Y28617D01*
X365085Y28222D01*
X365266Y28101D01*
X365414Y27705D01*
X365356Y27485D01*
X365292Y27390D01*
X365238Y27119D01*
Y26837D01*
X360642D01*
Y27086D01*
X357673D01*
Y26424D01*
X356005D01*
Y26889D01*
X352643D01*
Y23920D01*
X356005D01*
Y24385D01*
X357320D01*
X357502Y24202D01*
X357339Y23670D01*
X357204Y23649D01*
X357173D01*
Y21967D01*
X359157D01*
Y21467D01*
X359657D01*
Y19286D01*
X361142D01*
Y19961D01*
X361642Y20060D01*
X361681Y19966D01*
X362215Y19432D01*
X362791Y19193D01*
Y21042D01*
Y22892D01*
X362215Y22653D01*
X361777Y22215D01*
X361142D01*
Y23649D01*
X361111D01*
X360642Y23723D01*
X360642Y24444D01*
X360995Y24798D01*
X365512D01*
X365676Y24688D01*
X365947Y24634D01*
X368707D01*
X368978Y24688D01*
X369208Y24842D01*
X369361Y25072D01*
X369415Y25343D01*
Y27119D01*
X369361Y27390D01*
X369297Y27485D01*
X369239Y27705D01*
X369387Y28101D01*
X369568Y28222D01*
X369832Y28617D01*
X369925Y29083D01*
Y29102D01*
X370147Y29250D01*
X370368Y29581D01*
X370445Y29971D01*
X370368Y30361D01*
X370147Y30692D01*
X369925Y30840D01*
Y30859D01*
X369832Y31325D01*
X369568Y31720D01*
X369387Y31841D01*
X369239Y32237D01*
X369297Y32457D01*
X369361Y32552D01*
X369415Y32823D01*
Y34599D01*
X369361Y34870D01*
X369208Y35100D01*
X368978Y35253D01*
X368707Y35307D01*
X365947D01*
X365676Y35253D01*
X365446Y35100D01*
X365292Y34870D01*
X365265Y34731D01*
X363678D01*
X362082Y36326D01*
Y37592D01*
X362894Y38404D01*
X371350D01*
Y37940D01*
X374713D01*
Y40908D01*
D02*
G37*
G36*
X432499Y39500D02*
X430500D01*
Y37501D01*
X431416Y37881D01*
X432119Y38584D01*
X432499Y39500D01*
D02*
G37*
G36*
X429500D02*
X427501D01*
X427881Y38584D01*
X428584Y37881D01*
X429500Y37501D01*
Y39500D01*
D02*
G37*
G36*
X412499D02*
X410500D01*
Y37501D01*
X411416Y37881D01*
X412119Y38584D01*
X412499Y39500D01*
D02*
G37*
G36*
X409500D02*
X407501D01*
X407881Y38584D01*
X408584Y37881D01*
X409500Y37501D01*
Y39500D01*
D02*
G37*
G36*
X392499D02*
X390500D01*
Y37501D01*
X391416Y37881D01*
X392119Y38584D01*
X392499Y39500D01*
D02*
G37*
G36*
X389500D02*
X387501D01*
X387881Y38584D01*
X388584Y37881D01*
X389500Y37501D01*
Y39500D01*
D02*
G37*
G36*
X332499D02*
X330500D01*
Y37501D01*
X331416Y37881D01*
X332119Y38584D01*
X332499Y39500D01*
D02*
G37*
G36*
X329500D02*
X327501D01*
X327881Y38584D01*
X328584Y37881D01*
X329500Y37501D01*
Y39500D01*
D02*
G37*
G36*
X272499D02*
X270500D01*
Y37501D01*
X271416Y37881D01*
X272119Y38584D01*
X272499Y39500D01*
D02*
G37*
G36*
X269500D02*
X267501D01*
X267881Y38584D01*
X268584Y37881D01*
X269500Y37501D01*
Y39500D01*
D02*
G37*
G36*
X252499D02*
X250500D01*
Y37501D01*
X251416Y37881D01*
X252119Y38584D01*
X252499Y39500D01*
D02*
G37*
G36*
X249500D02*
X247501D01*
X247881Y38584D01*
X248584Y37881D01*
X249500Y37501D01*
Y39500D01*
D02*
G37*
G36*
X385640Y76780D02*
X380821D01*
Y73220D01*
X382547D01*
Y66433D01*
X379130D01*
Y46009D01*
X376248Y43126D01*
X376027Y42796D01*
X375949Y42406D01*
Y40908D01*
X375287D01*
Y37940D01*
X376148D01*
Y35307D01*
X375986D01*
X375715Y35253D01*
X375485Y35100D01*
X375332Y34870D01*
X375278Y34599D01*
Y32823D01*
X375332Y32552D01*
X375485Y32322D01*
X375715Y32169D01*
X375986Y32115D01*
X378746D01*
X379017Y32169D01*
X379247Y32322D01*
X379401Y32552D01*
X379454Y32823D01*
Y34599D01*
X379401Y34870D01*
X379247Y35100D01*
X379017Y35253D01*
X378746Y35307D01*
X378187D01*
Y37940D01*
X378650D01*
Y40908D01*
X377988D01*
Y41983D01*
X380572Y44567D01*
X388004D01*
Y66433D01*
X384587D01*
Y73220D01*
X385640D01*
Y76780D01*
D02*
G37*
G36*
X361921Y31820D02*
X361345Y31582D01*
X360810Y31047D01*
X360572Y30471D01*
X361921D01*
Y31820D01*
D02*
G37*
G36*
Y29471D02*
X360572D01*
X360810Y28895D01*
X361345Y28360D01*
X361921Y28122D01*
Y29471D01*
D02*
G37*
G36*
X383809Y28010D02*
X380841D01*
Y27349D01*
X379409D01*
X379401Y27390D01*
X379247Y27619D01*
X379017Y27773D01*
X378746Y27827D01*
X375986D01*
X375715Y27773D01*
X375485Y27619D01*
X375332Y27390D01*
X375278Y27119D01*
Y25343D01*
X375332Y25072D01*
X375485Y24842D01*
X375715Y24688D01*
X375986Y24634D01*
X378746D01*
X379017Y24688D01*
X379247Y24842D01*
X379401Y25072D01*
X379448Y25310D01*
X380841D01*
Y24648D01*
X383809D01*
Y28010D01*
D02*
G37*
G36*
X275492Y28059D02*
X274143D01*
X274381Y27483D01*
X274916Y26948D01*
X275492Y26710D01*
Y28059D01*
D02*
G37*
G36*
X388779Y26935D02*
X385327D01*
Y23823D01*
X384329D01*
X384021Y23762D01*
X383809Y23849D01*
Y22000D01*
Y20151D01*
X384386Y20389D01*
X384827Y20830D01*
X385265Y20715D01*
X385327Y20677D01*
Y19424D01*
X388779D01*
Y23180D01*
Y26935D01*
D02*
G37*
G36*
X393232D02*
X389779D01*
Y23680D01*
X393232D01*
Y26935D01*
D02*
G37*
G36*
X382809Y23849D02*
X382233Y23611D01*
X381699Y23076D01*
X381409Y22378D01*
X381173Y22220D01*
X380500Y22499D01*
Y20000D01*
Y17501D01*
X381416Y17881D01*
X382119Y18584D01*
X382500Y19503D01*
Y19829D01*
X382809Y20035D01*
Y22000D01*
Y23849D01*
D02*
G37*
G36*
X363791Y22892D02*
Y21542D01*
X365141D01*
X364902Y22119D01*
X364368Y22653D01*
X363791Y22892D01*
D02*
G37*
G36*
X379500Y22499D02*
X378584Y22119D01*
X377881Y21416D01*
X377501Y20500D01*
X379500D01*
Y22499D01*
D02*
G37*
G36*
X340500D02*
Y20500D01*
X342499D01*
X342119Y21416D01*
X341416Y22119D01*
X340500Y22499D01*
D02*
G37*
G36*
X339500D02*
X338584Y22119D01*
X337881Y21416D01*
X337501Y20500D01*
X339500D01*
Y22499D01*
D02*
G37*
G36*
X260500D02*
Y20500D01*
X262499D01*
X262119Y21416D01*
X261416Y22119D01*
X260500Y22499D01*
D02*
G37*
G36*
X259500D02*
X258584Y22119D01*
X257881Y21416D01*
X257501Y20500D01*
X259500D01*
Y22499D01*
D02*
G37*
G36*
X240500D02*
Y20500D01*
X242499D01*
X242119Y21416D01*
X241416Y22119D01*
X240500Y22499D01*
D02*
G37*
G36*
X239500D02*
X238584Y22119D01*
X237881Y21416D01*
X237501Y20500D01*
X239500D01*
Y22499D01*
D02*
G37*
G36*
X393232Y22680D02*
X389779D01*
Y19424D01*
X393232D01*
Y22680D01*
D02*
G37*
G36*
X358657Y20967D02*
X357173D01*
Y19286D01*
X358657D01*
Y20967D01*
D02*
G37*
G36*
X365141Y20542D02*
X363791D01*
Y19193D01*
X364368Y19432D01*
X364902Y19966D01*
X365141Y20542D01*
D02*
G37*
G36*
X425650Y31600D02*
X424350D01*
X423075Y31346D01*
X421874Y30849D01*
X420793Y30127D01*
X419873Y29207D01*
X419151Y28126D01*
X418654Y26925D01*
X418400Y25650D01*
Y24350D01*
X418654Y23075D01*
X419151Y21874D01*
X419873Y20793D01*
X420793Y19873D01*
X421874Y19151D01*
X423075Y18654D01*
X424350Y18400D01*
X425650D01*
X426925Y18654D01*
X428126Y19151D01*
X429207Y19873D01*
X430126Y20793D01*
X430849Y21874D01*
X431346Y23075D01*
X431600Y24350D01*
Y25650D01*
X431346Y26925D01*
X430849Y28126D01*
X430126Y29207D01*
X429207Y30127D01*
X428126Y30849D01*
X426925Y31346D01*
X425650Y31600D01*
D02*
G37*
G36*
X250650D02*
X249350D01*
X248075Y31346D01*
X246874Y30849D01*
X245793Y30127D01*
X244873Y29207D01*
X244151Y28126D01*
X243654Y26925D01*
X243400Y25650D01*
Y24350D01*
X243654Y23075D01*
X244151Y21874D01*
X244873Y20793D01*
X245793Y19873D01*
X246874Y19151D01*
X248075Y18654D01*
X249350Y18400D01*
X250650D01*
X251925Y18654D01*
X253126Y19151D01*
X254207Y19873D01*
X255127Y20793D01*
X255849Y21874D01*
X256346Y23075D01*
X256600Y24350D01*
Y25650D01*
X256346Y26925D01*
X255849Y28126D01*
X255127Y29207D01*
X254207Y30127D01*
X253126Y30849D01*
X251925Y31346D01*
X250650Y31600D01*
D02*
G37*
G36*
X379500Y19500D02*
X377501D01*
X377881Y18584D01*
X378584Y17881D01*
X379500Y17501D01*
Y19500D01*
D02*
G37*
G36*
X342499D02*
X340500D01*
Y17501D01*
X341416Y17881D01*
X342119Y18584D01*
X342499Y19500D01*
D02*
G37*
G36*
X339500D02*
X337501D01*
X337881Y18584D01*
X338584Y17881D01*
X339500Y17501D01*
Y19500D01*
D02*
G37*
G36*
X282499D02*
X280500D01*
Y17501D01*
X281416Y17881D01*
X282119Y18584D01*
X282499Y19500D01*
D02*
G37*
G36*
X279500D02*
X277501D01*
X277881Y18584D01*
X278584Y17881D01*
X279500Y17501D01*
Y19500D01*
D02*
G37*
G36*
X262499D02*
X260500D01*
Y17501D01*
X261416Y17881D01*
X262119Y18584D01*
X262499Y19500D01*
D02*
G37*
G36*
X259500D02*
X257501D01*
X257881Y18584D01*
X258584Y17881D01*
X259500Y17501D01*
Y19500D01*
D02*
G37*
G36*
X242499D02*
X240500D01*
Y17501D01*
X241416Y17881D01*
X242119Y18584D01*
X242499Y19500D01*
D02*
G37*
G36*
X239500D02*
X237501D01*
X237881Y18584D01*
X238584Y17881D01*
X239500Y17501D01*
Y19500D01*
D02*
G37*
G36*
X306433Y18276D02*
X302980D01*
Y15020D01*
X306433D01*
Y18276D01*
D02*
G37*
G36*
X301980D02*
X298528D01*
Y15020D01*
X301980D01*
Y18276D01*
D02*
G37*
G36*
X306433Y14020D02*
X302980D01*
Y10764D01*
X306433D01*
Y14020D01*
D02*
G37*
G36*
X301980D02*
X298528D01*
Y10764D01*
X301980D01*
Y14020D01*
D02*
G37*
%LPD*%
G36*
X314488Y27184D02*
Y23923D01*
X305933D01*
Y25650D01*
X301701D01*
X301494Y26150D01*
X303771Y28427D01*
X303771Y28427D01*
X303937Y28675D01*
X303995Y28967D01*
Y30770D01*
X303937Y31062D01*
X303771Y31310D01*
X303332Y31750D01*
X303084Y31916D01*
X302980Y31936D01*
Y32786D01*
X308886D01*
X314488Y27184D01*
D02*
G37*
D16*
X317050Y132983D02*
Y136510D01*
X317260Y136720D01*
X306642Y174500D02*
X323730Y157412D01*
Y150320D02*
Y157412D01*
X366130Y169458D02*
X366504Y169084D01*
X366130Y174451D02*
X366504Y174825D01*
X366130Y169458D02*
Y174451D01*
X370441Y163339D02*
X372777Y161003D01*
X373789D01*
X371258Y159348D02*
Y159545D01*
X372586Y160873D01*
X370524Y158613D02*
X371258Y159348D01*
X370327Y158613D02*
X370524D01*
X370441Y163339D02*
Y163437D01*
X301210Y198268D02*
X305469Y194009D01*
Y179915D02*
X323795Y161589D01*
X305469Y179915D02*
Y194009D01*
X297175Y193268D02*
X298381Y192061D01*
X302417D02*
X304288Y190190D01*
Y179682D02*
Y190190D01*
X298381Y192061D02*
X302417D01*
X304288Y179682D02*
X324946Y159024D01*
X290932Y176500D02*
X292933Y174500D01*
X306642D01*
X323795Y161589D02*
X330481D01*
X324946Y159024D02*
X330432D01*
X326137Y157008D02*
X326386Y156759D01*
X304288Y178268D02*
X325548Y157008D01*
X297175Y178268D02*
X304288D01*
X325548Y157008D02*
X326137D01*
X297175Y198268D02*
X301210D01*
X292881Y188010D02*
X293494D01*
X290932Y186061D02*
X292881Y188010D01*
X290932Y176500D02*
Y186061D01*
X330432Y159024D02*
X330681Y158775D01*
X361221Y155350D02*
X365343D01*
X366032Y154661D01*
X362786Y165841D02*
X367629D01*
X370441Y168654D01*
Y168752D01*
X363000Y152000D02*
X363352D01*
X363624Y151728D01*
X365298D01*
X366032Y150993D01*
X275992Y28559D02*
Y32055D01*
Y28559D02*
X279567D01*
X275619Y32428D02*
X275992Y32055D01*
X297175Y189356D02*
X298381Y188149D01*
X320563Y152341D02*
Y155563D01*
Y152341D02*
X320817Y152087D01*
X287828Y189919D02*
Y190663D01*
X281151Y188268D02*
X282075Y189192D01*
X287385Y190466D02*
Y191069D01*
X285186Y193268D02*
X287385Y191069D01*
Y190466D02*
X288375D01*
X288375Y190467D01*
X285186Y188268D02*
X287385Y190466D01*
X281151Y188268D02*
X285186D01*
X285936Y190466D02*
X288375D01*
X285186Y178268D02*
X287743Y180824D01*
X288127D02*
X288375Y181073D01*
X281151Y178268D02*
X285186D01*
X287743Y180824D02*
X288127D01*
X281151Y178268D02*
X282923Y177159D01*
X283079Y177061D02*
X286152Y177520D01*
X283079Y177061D02*
X286152Y177520D01*
X281151Y178268D02*
X283079Y177061D01*
X286152Y177520D02*
X286393Y178348D01*
X287651Y182268D02*
X288127Y181792D01*
X288375Y181073D02*
X288727D01*
X286500Y182268D02*
X289922D01*
X288727Y181073D02*
X289922Y182268D01*
X281151Y183268D02*
X286393Y182363D01*
X295968Y187061D02*
X297175Y188268D01*
X282358Y197061D02*
X289291D01*
X289486Y196865D01*
X281151Y198268D02*
X282358Y197061D01*
X298381Y188149D02*
X302680D01*
X317260Y136523D02*
Y136720D01*
X328936Y98599D02*
Y98796D01*
X275422Y36340D02*
X275619Y36143D01*
X275422Y36340D02*
Y74578D01*
X283701Y39711D02*
X289094D01*
X283701Y39711D02*
X283701Y39711D01*
X279567Y24846D02*
Y28559D01*
X289094Y20425D02*
X292800D01*
X289094Y26293D02*
X291707Y28905D01*
Y32481D02*
X295000Y35774D01*
X289094Y24362D02*
Y26293D01*
X291707Y28905D02*
Y32481D01*
X298272Y22394D02*
X302480D01*
X296500Y20622D02*
X298272Y22394D01*
X296500Y20425D02*
Y20622D01*
X298441Y26500D02*
X300763D01*
X296500Y24559D02*
X298441Y26500D01*
X296500Y24362D02*
Y24559D01*
X300905Y31837D02*
X301890D01*
X302518Y31209D01*
X302791D01*
X303230Y30770D01*
Y28967D02*
Y30770D01*
X300763Y26500D02*
X303230Y28967D01*
X295741Y27500D02*
X298023D01*
X292800Y24559D02*
X295741Y27500D01*
X292800Y24362D02*
Y24559D01*
X299921Y29869D02*
X300905D01*
X299581Y29528D02*
X299921Y29869D01*
X299581Y29058D02*
Y29528D01*
X298023Y27500D02*
X299581Y29058D01*
X283504Y24846D02*
Y28559D01*
X283701D02*
X285010Y29869D01*
X289094D01*
X283504Y28559D02*
X283701D01*
X279556Y32428D02*
X287520D01*
X279556Y32428D02*
X279556Y32428D01*
X288110Y31837D02*
X289094D01*
X287520Y32428D02*
X288110Y31837D01*
X283701Y35577D02*
Y35774D01*
Y35577D02*
X285472Y33806D01*
X289094D01*
X297756Y47549D02*
X300905Y44399D01*
Y41680D02*
Y44399D01*
X297756Y47549D02*
Y47746D01*
X289094Y35774D02*
X295000D01*
X293032Y37743D02*
X295000Y35774D01*
X289094Y37743D02*
X293032D01*
X291707Y39711D02*
X295000Y36418D01*
X289094Y39711D02*
X291707D01*
X295000Y35774D02*
Y36418D01*
X289094Y41680D02*
X292128D01*
X292800Y42351D01*
X380523Y304734D02*
X380963Y304295D01*
Y304219D02*
Y304295D01*
Y304219D02*
X381000Y304181D01*
D17*
X300996Y33715D02*
X301087Y33806D01*
X396563Y57735D02*
Y66514D01*
X397500Y67451D02*
Y67500D01*
X396563Y66514D02*
X397500Y67451D01*
X347571Y87335D02*
X348407Y86499D01*
X334448Y87335D02*
X347571D01*
X334448Y87335D02*
X334448Y87335D01*
X335038Y93782D02*
X350375D01*
X334448Y93192D02*
X335038Y93782D01*
X354312Y93782D02*
X387263D01*
X354312Y93782D02*
X354312Y93782D01*
X387263D02*
X396980Y103500D01*
X334896Y99047D02*
X350375D01*
X334448Y98599D02*
X334896Y99047D01*
X317070Y140847D02*
X317260Y140657D01*
X317070Y140847D02*
Y151602D01*
X317456D01*
X316972Y152087D02*
X317456Y151602D01*
X316880Y152087D02*
X316972D01*
X316859Y152108D02*
X316880Y152087D01*
X389484Y110996D02*
Y171958D01*
X396912Y179386D01*
X389484Y110996D02*
X396980Y103500D01*
X389280Y31054D02*
X396563D01*
X359721Y163145D02*
Y163350D01*
Y163145D02*
X359785Y163081D01*
X360774Y162092D01*
X364059D01*
X364428Y162461D01*
X365626D01*
X366504Y163339D01*
Y163437D01*
X277821Y162111D02*
Y162916D01*
X277831Y162926D02*
X281151D01*
X277821Y162916D02*
X277831Y162926D01*
X364203Y74598D02*
X364605Y75000D01*
X369530D01*
X363986Y74598D02*
X364203D01*
X288311Y50282D02*
X289904D01*
X292244Y47746D02*
Y47943D01*
X289904Y50282D02*
X292244Y47943D01*
X288158Y50436D02*
X288311Y50282D01*
X289043Y50589D02*
X292020Y53565D01*
X288158Y50436D02*
X288311Y50589D01*
X292020Y53565D02*
Y53762D01*
X288311Y50589D02*
X289043D01*
X289000Y60500D02*
Y60697D01*
X289043Y67981D02*
Y68178D01*
X316859Y152108D02*
Y159165D01*
X315213Y160811D02*
X316859Y159165D01*
X315213Y160811D02*
Y160913D01*
X388492Y30266D02*
X389280Y31054D01*
X354312Y99047D02*
X354359Y99094D01*
X358432D02*
X358479Y99141D01*
X354359Y99094D02*
X358432D01*
X357937Y61082D02*
Y65342D01*
X352425Y61082D02*
Y65342D01*
Y56337D02*
Y61082D01*
X351244Y50501D02*
X352425Y51682D01*
Y56337D01*
X366504Y159098D02*
Y163437D01*
X370441Y174825D02*
X370441Y174825D01*
X370441Y168752D02*
Y174825D01*
X366390Y158613D02*
Y158984D01*
X366504Y159098D01*
X369969Y150993D02*
Y154661D01*
X286210Y149980D02*
X288083Y151853D01*
X280500Y149980D02*
X280521Y149959D01*
X280856D02*
X280877Y149980D01*
X288083Y151853D02*
Y153148D01*
X280877Y149980D02*
X286210D01*
X280521Y149959D02*
X280856D01*
X303733Y154723D02*
X309955D01*
X310940Y155708D01*
X303733Y137400D02*
X309737D01*
X310721Y136416D01*
X285991Y142215D02*
X287864Y140342D01*
X279995Y142282D02*
X280062Y142215D01*
X287864Y136416D02*
Y140342D01*
X280062Y142215D02*
X285991D01*
X382325Y30266D02*
X388492D01*
X377465Y26329D02*
X382325D01*
X377366Y26231D02*
X377465Y26329D01*
X382177Y30119D02*
X382325Y30266D01*
X377514Y30119D02*
X382177D01*
X377366Y29971D02*
X377514Y30119D01*
X362472Y39424D02*
X373031D01*
X360007Y36959D02*
X362472Y39424D01*
X376969D02*
X377167Y39225D01*
Y34294D02*
Y39225D01*
Y34294D02*
X377366Y34095D01*
Y33711D02*
Y34095D01*
X376969Y42406D02*
X383567Y49004D01*
X376969Y39424D02*
Y42406D01*
X383567Y49004D02*
Y74664D01*
X359810Y36959D02*
X360007D01*
X359909Y37058D02*
X363255Y33711D01*
X328936Y93192D02*
Y98599D01*
Y87335D02*
Y93192D01*
X384329Y22804D02*
X388510D01*
X383309Y22000D02*
X383526D01*
X384329Y22804D01*
X388510D02*
X389280Y23573D01*
X383231Y75000D02*
X383567Y74664D01*
X350665Y39625D02*
X351739Y40699D01*
X349165Y37928D02*
X350665Y39428D01*
X351739Y40699D02*
X351936D01*
X349165Y30819D02*
Y37928D01*
X351936Y40699D02*
Y43319D01*
X350665Y39428D02*
Y39625D01*
X349165Y30819D02*
X350387Y29597D01*
Y25404D02*
Y29597D01*
X354498Y45684D02*
X359118Y50304D01*
X351936Y43319D02*
X354301Y45684D01*
X359118Y50304D02*
Y50501D01*
X354301Y45684D02*
X354498D01*
X359118Y50698D02*
X363920Y55500D01*
X369787D01*
X359118Y50501D02*
Y50698D01*
X357937Y56337D02*
Y61082D01*
Y51682D02*
Y56337D01*
Y51682D02*
X359118Y50501D01*
X315000Y57512D02*
X316146Y56366D01*
X319943Y47648D02*
X320272Y47319D01*
X316146Y51445D02*
X319943Y47648D01*
X312006Y39711D02*
X319614Y47319D01*
X310038Y37743D02*
X312006Y39711D01*
X308069Y35774D02*
X310038Y37743D01*
X319614Y47319D02*
X320272D01*
X300905Y35774D02*
X308069D01*
X300905Y39711D02*
X312006D01*
X300905Y37743D02*
X310038D01*
X292800Y42351D02*
Y43984D01*
X292800Y43984D02*
Y47190D01*
X292244Y47746D02*
X292800Y47190D01*
Y43984D02*
X292800Y43984D01*
X309309Y33806D02*
X319614Y23500D01*
X321681D01*
X301087Y33806D02*
X309309D01*
X297576Y37743D02*
Y40487D01*
X296352Y42664D02*
X296895Y42121D01*
X363255Y33711D02*
X367327D01*
X366914Y25818D02*
X367327Y26231D01*
X359571Y25818D02*
X366914D01*
X359157Y25404D02*
X359571Y25818D01*
X354324Y25404D02*
X359157D01*
X359157Y25404D01*
X362421Y29971D02*
X369426D01*
X359429Y21195D02*
X363138D01*
X359157Y21467D02*
X359429Y21195D01*
X363138D02*
X363291Y21042D01*
D19*
X315000Y56301D02*
D03*
Y73624D02*
D03*
D25*
X310940Y155708D02*
D03*
X288083D02*
D03*
X310721Y136416D02*
D03*
X287864D02*
D03*
D35*
X359810Y36959D02*
D03*
X351936Y33219D02*
D03*
Y40699D02*
D03*
D45*
X321681Y23500D02*
D03*
Y47319D02*
D03*
D46*
X289000Y60500D02*
D03*
X296874D02*
D03*
X348407Y86499D02*
D03*
X356281D02*
D03*
X289043Y68178D02*
D03*
X296917D02*
D03*
X359118Y50501D02*
D03*
X351244D02*
D03*
D47*
X370441Y168752D02*
D03*
Y163437D02*
D03*
X366504Y168752D02*
D03*
Y163437D02*
D03*
D48*
X276756Y162926D02*
D03*
X271244D02*
D03*
X334448Y93192D02*
D03*
X328936D02*
D03*
X334448Y87335D02*
D03*
X328936D02*
D03*
X292020Y53762D02*
D03*
X297532D02*
D03*
X328936Y98599D02*
D03*
X334448D02*
D03*
X266730Y120000D02*
D03*
X272242D02*
D03*
X297756Y47746D02*
D03*
X292244D02*
D03*
X357937Y61082D02*
D03*
X352425D02*
D03*
X357937Y56337D02*
D03*
X352425D02*
D03*
D49*
X407193Y57735D02*
D03*
X396563D02*
D03*
D50*
X295000Y35774D02*
D03*
D51*
X289094Y29869D02*
D03*
Y31837D02*
D03*
Y33806D02*
D03*
Y35774D02*
D03*
Y37743D02*
D03*
Y39711D02*
D03*
Y41680D02*
D03*
X300905D02*
D03*
Y39711D02*
D03*
Y37743D02*
D03*
Y35774D02*
D03*
Y33806D02*
D03*
Y31837D02*
D03*
Y29869D02*
D03*
D52*
X354312Y93782D02*
D03*
X350375D02*
D03*
X283504Y24846D02*
D03*
X279567D02*
D03*
X279556Y32428D02*
D03*
X275619D02*
D03*
X316880Y152087D02*
D03*
X320817D02*
D03*
X350375Y99047D02*
D03*
X354312D02*
D03*
X279556Y36143D02*
D03*
X275619D02*
D03*
X350387Y25404D02*
D03*
X354324D02*
D03*
X279567Y28559D02*
D03*
X283504D02*
D03*
X376969Y39424D02*
D03*
X373031D02*
D03*
X366504Y174825D02*
D03*
X370441D02*
D03*
X370327Y158613D02*
D03*
X366390D02*
D03*
X366032Y150993D02*
D03*
X369969D02*
D03*
X366032Y154661D02*
D03*
X369969D02*
D03*
D53*
X302480Y14520D02*
D03*
Y22394D02*
D03*
X389280Y31054D02*
D03*
Y23180D02*
D03*
D54*
X283701Y35774D02*
D03*
Y39711D02*
D03*
X289094Y24362D02*
D03*
Y20425D02*
D03*
X317260Y140657D02*
D03*
Y136720D02*
D03*
X296500Y24362D02*
D03*
Y20425D02*
D03*
X359157Y21467D02*
D03*
Y25404D02*
D03*
X382325Y26329D02*
D03*
Y30266D02*
D03*
X292800Y20425D02*
D03*
Y24362D02*
D03*
D55*
X369530Y75000D02*
D03*
X383231D02*
D03*
D56*
X367327Y33711D02*
D03*
Y29971D02*
D03*
Y26231D02*
D03*
X377366D02*
D03*
Y29971D02*
D03*
Y33711D02*
D03*
D57*
X297175Y198268D02*
D03*
Y193268D02*
D03*
Y188268D02*
D03*
Y183268D02*
D03*
Y178268D02*
D03*
X281151D02*
D03*
Y183268D02*
D03*
Y188268D02*
D03*
Y193268D02*
D03*
Y198268D02*
D03*
D58*
X383567Y55500D02*
D03*
X369787D02*
D03*
D59*
X296874Y68134D02*
X297383Y68643D01*
Y74381D01*
X296874Y68062D02*
Y68134D01*
X297532Y60500D02*
Y67404D01*
X296874Y68062D02*
X297532Y67404D01*
X355675Y85893D02*
X356281Y86499D01*
X349512Y76012D02*
X355675Y82175D01*
Y85893D01*
X317600Y76012D02*
X349512D01*
X315000Y73412D02*
X317600Y76012D01*
X315000Y72412D02*
Y73412D01*
X275422Y74578D02*
X275619Y74381D01*
X260000Y90000D02*
X275422Y74578D01*
X275619Y74381D02*
X297383D01*
X313032D01*
X314500Y72912D01*
X279556Y36143D02*
X279556Y36143D01*
Y32428D02*
Y36143D01*
X297532Y53762D02*
X297794Y54024D01*
Y54221D01*
X296874Y60500D02*
X297532Y59842D01*
Y54482D02*
Y59842D01*
Y54482D02*
X297794Y54221D01*
D60*
X396563Y18122D02*
Y30859D01*
X391441Y13000D02*
X396563Y18122D01*
Y31054D02*
Y57735D01*
X323748Y23500D02*
X334248Y13000D01*
X391441D01*
X321681Y23500D02*
X323748D01*
D61*
X416954Y57735D02*
X426777Y47912D01*
X407193Y57735D02*
X416954D01*
D62*
X407193D02*
Y58247D01*
X425328Y48953D02*
X425592Y48689D01*
D63*
X266331Y120399D02*
Y127227D01*
Y120399D02*
X266730Y120000D01*
X266500Y96500D02*
Y119770D01*
X266730Y120000D01*
X260000Y90000D02*
X266500Y96500D01*
X266331Y150975D02*
X270988Y155632D01*
X266331Y127227D02*
Y150475D01*
X270742Y162424D02*
X271244Y162926D01*
X270742Y155878D02*
Y162424D01*
X316146Y51445D02*
Y56366D01*
X302480Y22394D02*
X320575D01*
X321681Y23500D01*
D64*
X426000Y60500D02*
D03*
Y48689D02*
D03*
X437811Y44988D02*
D03*
X414189D02*
D03*
D65*
X396912Y129386D02*
D03*
Y139386D02*
D03*
Y149386D02*
D03*
Y159386D02*
D03*
Y169386D02*
D03*
X396980Y93500D02*
D03*
D66*
X396912Y179386D02*
D03*
X396980Y103500D02*
D03*
D67*
X260000Y90000D02*
D03*
X250000D02*
D03*
D68*
X248000Y134537D02*
D03*
Y144537D02*
D03*
Y154537D02*
D03*
Y164537D02*
D03*
D69*
X235598Y168738D02*
D03*
D70*
X332556Y190190D02*
D03*
D71*
X322556D02*
D03*
X312556D02*
D03*
D72*
X250000Y25000D02*
D03*
Y200000D02*
D03*
X425000D02*
D03*
Y25000D02*
D03*
D73*
X442000Y104500D02*
D03*
X312975Y101040D02*
D03*
X397500Y67500D02*
D03*
X360365Y191543D02*
D03*
X317050Y132983D02*
D03*
X323730Y150320D02*
D03*
X351891Y175774D02*
D03*
X366130Y172050D02*
D03*
X373789Y161003D02*
D03*
X369435Y123706D02*
D03*
X363000Y152000D02*
D03*
X361221Y155350D02*
D03*
X359721Y163350D02*
D03*
X330681Y158775D02*
D03*
X266331Y127227D02*
D03*
X281151Y162926D02*
D03*
X270988Y155632D02*
D03*
X379486Y182598D02*
D03*
X400928Y114858D02*
D03*
X363986Y74598D02*
D03*
X288158Y50436D02*
D03*
X294608Y31250D02*
D03*
X295986Y36565D02*
D03*
X293786Y40244D02*
D03*
X275992Y28559D02*
D03*
X368663Y98307D02*
D03*
X320563Y155563D02*
D03*
X315213Y160913D02*
D03*
X326386Y156759D02*
D03*
X330481Y161589D02*
D03*
X290039Y195768D02*
D03*
X379000Y194307D02*
D03*
X362000Y204500D02*
D03*
X358479Y99141D02*
D03*
X357986Y65098D02*
D03*
X352425Y65342D02*
D03*
X288375Y181073D02*
D03*
Y190467D02*
D03*
X362786Y165841D02*
D03*
X357806Y159091D02*
D03*
X358376Y134952D02*
D03*
X280486Y149805D02*
D03*
X279995Y142282D02*
D03*
X300253Y103994D02*
D03*
X383309Y22000D02*
D03*
X308193Y112000D02*
D03*
X301972Y108567D02*
D03*
X362421Y29971D02*
D03*
X363291Y21042D02*
D03*
D74*
X420000Y180000D02*
D03*
X430000Y160000D02*
D03*
Y120000D02*
D03*
Y80000D02*
D03*
Y40000D02*
D03*
X410000Y120000D02*
D03*
Y40000D02*
D03*
X390000Y80000D02*
D03*
Y40000D02*
D03*
X380000Y20000D02*
D03*
X360000Y180000D02*
D03*
X370000Y80000D02*
D03*
X340000Y180000D02*
D03*
Y60000D02*
D03*
Y20000D02*
D03*
X330000Y80000D02*
D03*
Y40000D02*
D03*
X310000Y120000D02*
D03*
Y80000D02*
D03*
X290000Y120000D02*
D03*
X280000Y100000D02*
D03*
X290000Y80000D02*
D03*
X280000Y60000D02*
D03*
Y20000D02*
D03*
X260000Y180000D02*
D03*
Y100000D02*
D03*
Y60000D02*
D03*
X270000Y40000D02*
D03*
X260000Y20000D02*
D03*
X240000Y180000D02*
D03*
Y140000D02*
D03*
X250000Y120000D02*
D03*
X240000Y100000D02*
D03*
X250000Y80000D02*
D03*
X240000Y60000D02*
D03*
X250000Y40000D02*
D03*
X240000Y20000D02*
D03*
D75*
X295071Y137400D02*
D03*
X299402D02*
D03*
X303733D02*
D03*
X295071Y141731D02*
D03*
X299402D02*
D03*
X303733D02*
D03*
X295071Y146062D02*
D03*
X299402D02*
D03*
X303733D02*
D03*
X295071Y150393D02*
D03*
X299402D02*
D03*
X303733D02*
D03*
X295071Y154723D02*
D03*
X299402D02*
D03*
X303733D02*
D03*
X349496Y139279D02*
D03*
Y143610D02*
D03*
Y147941D02*
D03*
Y152271D02*
D03*
X345165Y139279D02*
D03*
Y143610D02*
D03*
Y147941D02*
D03*
Y152271D02*
D03*
X340835Y139279D02*
D03*
Y143610D02*
D03*
Y147941D02*
D03*
Y152271D02*
D03*
X336504Y139279D02*
D03*
Y143610D02*
D03*
Y147941D02*
D03*
Y152271D02*
D03*
M02*
