G04*
G04 #@! TF.GenerationSoftware,Altium Limited,Altium Designer,21.5.1 (32)*
G04*
G04 Layer_Color=16711935*
%FSLAX25Y25*%
%MOIN*%
G70*
G04*
G04 #@! TF.SameCoordinates,9DB8949B-C02E-4DCA-B792-844CB0D99077*
G04*
G04*
G04 #@! TF.FilePolarity,Negative*
G04*
G01*
G75*
%ADD21R,0.05912X0.06306*%
%ADD23R,0.03550X0.03943*%
%ADD28R,0.02762X0.02368*%
%ADD30R,0.02368X0.02762*%
%ADD36C,0.06778*%
%ADD37C,0.06896*%
%ADD38R,0.06896X0.06896*%
%ADD39C,0.05124*%
%ADD40C,0.07900*%
%ADD41C,0.04447*%
%ADD42R,0.06306X0.06306*%
%ADD43C,0.06306*%
%ADD44C,0.11600*%
%ADD86R,0.05906X0.12992*%
%ADD87R,0.05906X0.04724*%
%ADD91R,0.01378X0.02264*%
%ADD92R,0.02264X0.01378*%
G04:AMPARAMS|DCode=93|XSize=51.18mil|YSize=23.62mil|CornerRadius=2.01mil|HoleSize=0mil|Usage=FLASHONLY|Rotation=270.000|XOffset=0mil|YOffset=0mil|HoleType=Round|Shape=RoundedRectangle|*
%AMROUNDEDRECTD93*
21,1,0.05118,0.01961,0,0,270.0*
21,1,0.04717,0.02362,0,0,270.0*
1,1,0.00402,-0.00980,-0.02358*
1,1,0.00402,-0.00980,0.02358*
1,1,0.00402,0.00980,0.02358*
1,1,0.00402,0.00980,-0.02358*
%
%ADD93ROUNDEDRECTD93*%
%ADD97R,0.08661X0.04134*%
%ADD98R,0.04134X0.03937*%
%ADD100R,0.05796X0.36507*%
%ADD101R,0.06709X0.36228*%
%ADD102R,0.11417X0.09998*%
%ADD103R,0.19603X0.05060*%
%ADD104R,0.04706X0.19658*%
%ADD105R,0.20676X0.04830*%
%ADD106R,0.04776X0.18799*%
%ADD107R,0.03943X0.03550*%
%ADD108R,0.06306X0.06306*%
G04:AMPARAMS|DCode=109|XSize=17.78mil|YSize=53.21mil|CornerRadius=4mil|HoleSize=0mil|Usage=FLASHONLY|Rotation=270.000|XOffset=0mil|YOffset=0mil|HoleType=Round|Shape=RoundedRectangle|*
%AMROUNDEDRECTD109*
21,1,0.01778,0.04522,0,0,270.0*
21,1,0.00978,0.05321,0,0,270.0*
1,1,0.00800,-0.02261,-0.00489*
1,1,0.00800,-0.02261,0.00489*
1,1,0.00800,0.02261,0.00489*
1,1,0.00800,0.02261,-0.00489*
%
%ADD109ROUNDEDRECTD109*%
G04:AMPARAMS|DCode=110|XSize=126.05mil|YSize=207.94mil|CornerRadius=3.83mil|HoleSize=0mil|Usage=FLASHONLY|Rotation=0.000|XOffset=0mil|YOffset=0mil|HoleType=Round|Shape=RoundedRectangle|*
%AMROUNDEDRECTD110*
21,1,0.12605,0.20028,0,0,0.0*
21,1,0.11839,0.20794,0,0,0.0*
1,1,0.00766,0.05919,-0.10014*
1,1,0.00766,-0.05919,-0.10014*
1,1,0.00766,-0.05919,0.10014*
1,1,0.00766,0.05919,0.10014*
%
%ADD110ROUNDEDRECTD110*%
%ADD111O,0.01187X0.04140*%
%ADD112O,0.04140X0.01187*%
%ADD113R,0.18510X0.18510*%
D21*
X374553Y131000D02*
D03*
X366679D02*
D03*
D23*
X404816Y114500D02*
D03*
X410328D02*
D03*
X271061Y126515D02*
D03*
X276573D02*
D03*
X312556Y170000D02*
D03*
X307044D02*
D03*
X363374Y139176D02*
D03*
X368886D02*
D03*
X315731Y89500D02*
D03*
X310219D02*
D03*
X368886Y159133D02*
D03*
X363374D02*
D03*
X291259Y109258D02*
D03*
X296771D02*
D03*
X353043Y125478D02*
D03*
X358555D02*
D03*
D28*
X276573Y131987D02*
D03*
X272636D02*
D03*
X288375Y170000D02*
D03*
X292312D02*
D03*
X301833D02*
D03*
X297896D02*
D03*
X380736Y102634D02*
D03*
X384673D02*
D03*
X351406Y183077D02*
D03*
X355343D02*
D03*
X355343Y191543D02*
D03*
X351406D02*
D03*
X341819Y165895D02*
D03*
X345756D02*
D03*
D30*
Y197642D02*
D03*
Y193705D02*
D03*
X282500Y132027D02*
D03*
Y128090D02*
D03*
X373370Y98697D02*
D03*
Y102634D02*
D03*
X345756Y177959D02*
D03*
Y181896D02*
D03*
X343340Y101106D02*
D03*
Y105043D02*
D03*
X419500Y134861D02*
D03*
Y130923D02*
D03*
X419500Y154897D02*
D03*
Y150960D02*
D03*
X415007Y134939D02*
D03*
Y131002D02*
D03*
X415007Y154897D02*
D03*
Y150960D02*
D03*
X419500Y145244D02*
D03*
Y141307D02*
D03*
X419500Y165291D02*
D03*
Y161354D02*
D03*
X415007Y145244D02*
D03*
Y141307D02*
D03*
Y165291D02*
D03*
Y161354D02*
D03*
X381924Y141354D02*
D03*
Y137417D02*
D03*
X345756Y170000D02*
D03*
Y173937D02*
D03*
X350513Y168032D02*
D03*
Y171968D02*
D03*
X345756Y189969D02*
D03*
Y186031D02*
D03*
D36*
X426000Y60500D02*
D03*
Y48689D02*
D03*
X437811Y44988D02*
D03*
X414189D02*
D03*
D37*
X396912Y129386D02*
D03*
Y139386D02*
D03*
Y149386D02*
D03*
Y159386D02*
D03*
Y169386D02*
D03*
X396980Y93500D02*
D03*
D38*
X396912Y179386D02*
D03*
X396980Y103500D02*
D03*
D39*
X260000Y90000D02*
D03*
X250000D02*
D03*
D40*
X248000Y134537D02*
D03*
Y144537D02*
D03*
Y154537D02*
D03*
Y164537D02*
D03*
D41*
X235598Y168738D02*
D03*
D42*
X332556Y190190D02*
D03*
D43*
X322556D02*
D03*
X312556D02*
D03*
D44*
X250000Y25000D02*
D03*
Y200000D02*
D03*
X425000D02*
D03*
Y25000D02*
D03*
D86*
X406402Y97500D02*
D03*
D87*
X431598Y88445D02*
D03*
Y97500D02*
D03*
Y106555D02*
D03*
D91*
X314500Y104633D02*
D03*
X312531D02*
D03*
X310563D02*
D03*
Y97448D02*
D03*
X312531D02*
D03*
X314500D02*
D03*
D92*
X307955Y103993D02*
D03*
Y102024D02*
D03*
Y100056D02*
D03*
Y98088D02*
D03*
X317108D02*
D03*
Y100056D02*
D03*
Y102024D02*
D03*
Y103993D02*
D03*
D93*
X339600Y84334D02*
D03*
X343340Y92601D02*
D03*
X335859D02*
D03*
D97*
X370638Y194307D02*
D03*
Y182693D02*
D03*
D98*
X364634Y188500D02*
D03*
D100*
X288627Y146914D02*
D03*
D101*
X310491Y147053D02*
D03*
D102*
X312979Y100726D02*
D03*
D103*
X343080Y155954D02*
D03*
D104*
X354312Y145801D02*
D03*
D105*
X343732Y133923D02*
D03*
D106*
X332041Y144262D02*
D03*
D107*
X442000Y100256D02*
D03*
Y94744D02*
D03*
X300155Y99664D02*
D03*
Y94152D02*
D03*
X327361Y87335D02*
D03*
Y92846D02*
D03*
X338419Y99138D02*
D03*
Y104650D02*
D03*
X355539Y173806D02*
D03*
Y168294D02*
D03*
X376378Y141701D02*
D03*
Y147213D02*
D03*
D108*
X345756Y218779D02*
D03*
Y205000D02*
D03*
D109*
X288083Y129428D02*
D03*
Y131987D02*
D03*
Y134546D02*
D03*
Y137105D02*
D03*
Y139664D02*
D03*
Y142223D02*
D03*
Y144782D02*
D03*
Y147341D02*
D03*
Y149900D02*
D03*
Y152460D02*
D03*
Y155019D02*
D03*
Y157578D02*
D03*
Y160137D02*
D03*
Y162696D02*
D03*
X310721Y129428D02*
D03*
Y131987D02*
D03*
Y134546D02*
D03*
Y137105D02*
D03*
Y139664D02*
D03*
Y142223D02*
D03*
Y144782D02*
D03*
Y147341D02*
D03*
Y149900D02*
D03*
Y152460D02*
D03*
Y155019D02*
D03*
Y157578D02*
D03*
Y160137D02*
D03*
Y162696D02*
D03*
D110*
X299402Y146062D02*
D03*
D111*
X351661Y134161D02*
D03*
X350087D02*
D03*
X348512D02*
D03*
X346937D02*
D03*
X345362D02*
D03*
X343787D02*
D03*
X342213D02*
D03*
X340638D02*
D03*
X339063D02*
D03*
X337488D02*
D03*
X335913D02*
D03*
X334339D02*
D03*
Y157389D02*
D03*
X335913D02*
D03*
X337488D02*
D03*
X339063D02*
D03*
X340638D02*
D03*
X342213D02*
D03*
X343787D02*
D03*
X345362D02*
D03*
X346937D02*
D03*
X348512D02*
D03*
X350087D02*
D03*
X351661D02*
D03*
D112*
X331386Y137114D02*
D03*
Y138689D02*
D03*
Y140263D02*
D03*
Y141838D02*
D03*
Y143413D02*
D03*
Y144988D02*
D03*
Y146563D02*
D03*
Y148137D02*
D03*
Y149712D02*
D03*
Y151287D02*
D03*
Y152862D02*
D03*
Y154437D02*
D03*
X354614D02*
D03*
Y152862D02*
D03*
Y151287D02*
D03*
Y149712D02*
D03*
Y148137D02*
D03*
Y146563D02*
D03*
Y144988D02*
D03*
Y143413D02*
D03*
Y141838D02*
D03*
Y140263D02*
D03*
Y138689D02*
D03*
Y137114D02*
D03*
D113*
X343000Y145775D02*
D03*
M02*
