M48
;Layer_Color=9474304
;FILE_FORMAT=2:4
INCH,LZ
;TYPE=PLATED
T1F00S00C0.0079
T2F00S00C0.0080
T3F00S00C0.0150
T4F00S00C0.0276
T5F00S00C0.0354
T6F00S00C0.0421
T7F00S00C0.0433
T8F00S00C0.0500
;TYPE=NON_PLATED
T9F00S00C0.0810
T10F00S00C0.1120
%
T01
X029507Y01374
X02994
X030373
Y014173
X02994
X029507
Y014606
X02994
X030373
Y015039
X02994
X029507
Y015472
X02994
X030373
X03365Y015227
X034083
X034517
X03495
Y014794
Y014361
Y013928
X034517
Y014361
Y014794
X034083
Y014361
Y013928
X03365
Y014361
Y014794
T02
X027599Y002856
X029461Y003125
X029599Y003656
X029379Y004024
X028816Y005044
X030025Y010399
X030197Y010857
X030819Y0112
X026633Y012723
X027999Y014228
X028049Y014981
X027099Y015563
X032056Y015556
X032373Y015032
X031705Y013298
X031297Y010104
X035848Y009914
X036866Y009831
X036944Y012371
X035838Y013495
X0363Y0152
X036122Y015535
X040093Y011486
X03975Y00675
X036399Y00746
X035799Y00651
X035243Y006534
X036242Y002997
X036329Y002104
X038331Y0022
X0442Y01045
X037379Y0161
X036279Y016584
X035972Y016335
X035781Y015909
X036613Y017205
X035189Y017577
X036036Y019154
X0362Y02045
X0379Y019431
X037949Y01826
X033048Y016159
X033068Y015878
X032639Y015676
X031521Y016091
X028115Y016293
X028838Y018107
Y019047
X029004Y019577
T03
X024Y002
X026
X028
X027Y004
X025
X026Y006
X028
X029Y008
X031
Y012
X029
X028Y01
X026
X024
X025Y012
X024Y014
X025Y008
X024Y006
X034
X033Y008
X037
X039
X043
Y012
X041
Y004
X043
X039
X038Y002
X034
X033Y004
X034Y018
X036
X042
X043Y016
X026Y018
X024
T04
X025Y009
X026
T05
X031256Y019019
X032256
X033256
T06
X041419Y004499
X0426Y004869
Y00605
X043781Y004499
T07
X039698Y00935
Y01035
X039691Y012939
Y013939
Y014939
Y015939
Y016939
Y017939
T08
X0248Y013454
Y014454
Y015454
Y016454
T09
X02356Y016874
T10
X025Y0025
X0425
Y02
X025
M30
