G04*
G04 #@! TF.GenerationSoftware,Altium Limited,Altium Designer,21.5.1 (32)*
G04*
G04 Layer_Color=32896*
%FSLAX25Y25*%
%MOIN*%
G70*
G04*
G04 #@! TF.SameCoordinates,9DB8949B-C02E-4DCA-B792-844CB0D99077*
G04*
G04*
G04 #@! TF.FilePolarity,Positive*
G04*
G01*
G75*
%ADD10C,0.00984*%
%ADD11C,0.00787*%
%ADD12C,0.00600*%
%ADD16C,0.00500*%
%ADD17C,0.01000*%
%ADD114C,0.02362*%
D10*
X437996Y106752D02*
G03*
X437996Y106752I-492J0D01*
G01*
X288575Y126574D02*
G03*
X288575Y126574I-492J0D01*
G01*
X322374Y103993D02*
G03*
X322374Y103993I-492J0D01*
G01*
X355303Y130815D02*
G03*
X355303Y130815I-492J0D01*
G01*
D11*
X426284Y84311D02*
Y110689D01*
X411717Y84311D02*
X426284D01*
X411717D02*
Y110689D01*
X426284D01*
X341228Y200472D02*
Y207953D01*
X350284Y200472D02*
Y207953D01*
X341228Y200472D02*
X350284D01*
X342803Y224488D02*
X348709D01*
X341228Y215827D02*
Y222520D01*
X348709Y224488D02*
X350284Y222520D01*
X341228D02*
X342803Y224488D01*
X350284Y215827D02*
Y222520D01*
X345165Y200004D02*
X346346D01*
X292119Y126771D02*
X306685D01*
X292119Y165353D02*
X306685D01*
X319717Y94840D02*
Y107241D01*
X305346Y94840D02*
X319717D01*
X305346D02*
Y107241D01*
X319717D01*
X338517Y91223D02*
X340682D01*
X345584Y85712D02*
Y88566D01*
X333615Y85712D02*
X336942D01*
X342257D02*
X345584D01*
X333615D02*
Y88566D01*
X353630Y133374D02*
X355402D01*
Y135145D01*
Y156405D02*
Y158177D01*
X353630D02*
X355402D01*
X330598D02*
X332370D01*
X330598Y156405D02*
Y158177D01*
Y133374D02*
X332370D01*
X330598D02*
Y135145D01*
X376051Y186236D02*
Y190764D01*
D12*
X440800Y87899D02*
X440201Y88499D01*
Y89699D01*
X440800Y90298D01*
X443200D01*
X443799Y89699D01*
Y88499D01*
X443200Y87899D01*
X440800Y86700D02*
X440201Y86100D01*
Y84900D01*
X440800Y84300D01*
X441400D01*
X442000Y84900D01*
Y85500D01*
Y84900D01*
X442600Y84300D01*
X443200D01*
X443799Y84900D01*
Y86100D01*
X443200Y86700D01*
X443799Y80702D02*
Y83101D01*
X441400Y80702D01*
X440800D01*
X440201Y81301D01*
Y82501D01*
X440800Y83101D01*
X343109Y176359D02*
Y179558D01*
X341510D01*
X340976Y179025D01*
Y177959D01*
X341510Y177425D01*
X343109D01*
X342043D02*
X340976Y176359D01*
X339910Y179025D02*
X339377Y179558D01*
X338311D01*
X337777Y179025D01*
Y178492D01*
X338311Y177959D01*
X338844D01*
X338311D01*
X337777Y177425D01*
Y176892D01*
X338311Y176359D01*
X339377D01*
X339910Y176892D01*
X334578Y176359D02*
X336711D01*
X334578Y178492D01*
Y179025D01*
X335112Y179558D01*
X336178D01*
X336711Y179025D01*
X357500Y185613D02*
Y188812D01*
X355900D01*
X355367Y188279D01*
Y187213D01*
X355900Y186679D01*
X357500D01*
X356434D02*
X355367Y185613D01*
X354301Y188279D02*
X353768Y188812D01*
X352701D01*
X352168Y188279D01*
Y187746D01*
X352701Y187213D01*
X353235D01*
X352701D01*
X352168Y186679D01*
Y186146D01*
X352701Y185613D01*
X353768D01*
X354301Y186146D01*
X351102Y185613D02*
X350036D01*
X350569D01*
Y188812D01*
X351102Y188279D01*
X295825Y105249D02*
X296358Y105782D01*
X297425D01*
X297958Y105249D01*
Y103116D01*
X297425Y102583D01*
X296358D01*
X295825Y103116D01*
X294759Y102583D02*
X293692D01*
X294226D01*
Y105782D01*
X294759Y105249D01*
X292093D02*
X291560Y105782D01*
X290493D01*
X289960Y105249D01*
Y103116D01*
X290493Y102583D01*
X291560D01*
X292093Y103116D01*
Y105249D01*
X322950Y170566D02*
X323483Y171099D01*
X324549D01*
X325082Y170566D01*
Y168434D01*
X324549Y167901D01*
X323483D01*
X322950Y168434D01*
X320284Y167901D02*
Y171099D01*
X321884Y169500D01*
X319751D01*
X316552Y171099D02*
X318685D01*
Y169500D01*
X317618Y170033D01*
X317085D01*
X316552Y169500D01*
Y168434D01*
X317085Y167901D01*
X318151D01*
X318685Y168434D01*
X294058Y98520D02*
X293525Y99053D01*
Y100119D01*
X294058Y100653D01*
X296191D01*
X296724Y100119D01*
Y99053D01*
X296191Y98520D01*
X296724Y97453D02*
Y96387D01*
Y96920D01*
X293525D01*
X294058Y97453D01*
X296191Y94788D02*
X296724Y94254D01*
Y93188D01*
X296191Y92655D01*
X294058D01*
X293525Y93188D01*
Y94254D01*
X294058Y94788D01*
X294591D01*
X295124Y94254D01*
Y92655D01*
X374396Y95219D02*
X377595D01*
Y96818D01*
X377062Y97352D01*
X375995D01*
X375462Y96818D01*
Y95219D01*
Y96285D02*
X374396Y97352D01*
Y100550D02*
Y98418D01*
X376529Y100550D01*
X377062D01*
X377595Y100017D01*
Y98951D01*
X377062Y98418D01*
Y101617D02*
X377595Y102150D01*
Y103216D01*
X377062Y103750D01*
X376529D01*
X375995Y103216D01*
X375462Y103750D01*
X374929D01*
X374396Y103216D01*
Y102150D01*
X374929Y101617D01*
X375462D01*
X375995Y102150D01*
X376529Y101617D01*
X377062D01*
X375995Y102150D02*
Y103216D01*
X381004Y99927D02*
Y96728D01*
X382604D01*
X383137Y97261D01*
Y98327D01*
X382604Y98860D01*
X381004D01*
X382071D02*
X383137Y99927D01*
X386336D02*
X384203D01*
X386336Y97794D01*
Y97261D01*
X385803Y96728D01*
X384736D01*
X384203Y97261D01*
X387402Y96728D02*
X389535D01*
Y97261D01*
X387402Y99394D01*
Y99927D01*
X307651Y121900D02*
Y124566D01*
X308184Y125100D01*
X309251D01*
X309784Y124566D01*
Y121900D01*
X310850Y124566D02*
X311383Y125100D01*
X312450D01*
X312983Y124566D01*
Y122434D01*
X312450Y121900D01*
X311383D01*
X310850Y122434D01*
Y122967D01*
X311383Y123500D01*
X312983D01*
X361857Y147073D02*
X359191D01*
X358658Y147606D01*
Y148673D01*
X359191Y149206D01*
X361857D01*
X358658Y150272D02*
Y151339D01*
Y150805D01*
X361857D01*
X361324Y150272D01*
X268444Y130388D02*
Y133587D01*
X266845D01*
X266312Y133053D01*
Y131987D01*
X266845Y131454D01*
X268444D01*
X267378D02*
X266312Y130388D01*
X263113D02*
X265246D01*
X263113Y132520D01*
Y133053D01*
X263646Y133587D01*
X264712D01*
X265246Y133053D01*
X259914Y133587D02*
X260980Y133053D01*
X262047Y131987D01*
Y130921D01*
X261513Y130388D01*
X260447D01*
X259914Y130921D01*
Y131454D01*
X260447Y131987D01*
X262047D01*
X294251Y173400D02*
Y176600D01*
X292652D01*
X292119Y176066D01*
Y175000D01*
X292652Y174467D01*
X294251D01*
X293185D02*
X292119Y173400D01*
X288920D02*
X291052D01*
X288920Y175533D01*
Y176066D01*
X289453Y176600D01*
X290519D01*
X291052Y176066D01*
X285721Y176600D02*
X287853D01*
Y175000D01*
X286787Y175533D01*
X286254D01*
X285721Y175000D01*
Y173934D01*
X286254Y173400D01*
X287320D01*
X287853Y173934D01*
X306730Y173400D02*
Y176600D01*
X305131D01*
X304597Y176066D01*
Y175000D01*
X305131Y174467D01*
X306730D01*
X305664D02*
X304597Y173400D01*
X301398D02*
X303531D01*
X301398Y175533D01*
Y176066D01*
X301932Y176600D01*
X302998D01*
X303531Y176066D01*
X298733Y173400D02*
Y176600D01*
X300332Y175000D01*
X298200D01*
X342124Y109503D02*
X345322D01*
Y111103D01*
X344789Y111636D01*
X343723D01*
X343190Y111103D01*
Y109503D01*
Y110570D02*
X342124Y111636D01*
Y112702D02*
Y113768D01*
Y113235D01*
X345322D01*
X344789Y112702D01*
Y115368D02*
X345322Y115901D01*
Y116967D01*
X344789Y117501D01*
X342657D01*
X342124Y116967D01*
Y115901D01*
X342657Y115368D01*
X344789D01*
X427666Y131293D02*
Y134492D01*
X426066D01*
X425533Y133958D01*
Y132892D01*
X426066Y132359D01*
X427666D01*
X426600D02*
X425533Y131293D01*
X424467Y131826D02*
X423934Y131293D01*
X422867D01*
X422334Y131826D01*
Y133958D01*
X422867Y134492D01*
X423934D01*
X424467Y133958D01*
Y133425D01*
X423934Y132892D01*
X422334D01*
X427666Y151330D02*
Y154528D01*
X426066D01*
X425533Y153995D01*
Y152929D01*
X426066Y152396D01*
X427666D01*
X426600D02*
X425533Y151330D01*
X424467Y153995D02*
X423934Y154528D01*
X422867D01*
X422334Y153995D01*
Y153462D01*
X422867Y152929D01*
X422334Y152396D01*
Y151863D01*
X422867Y151330D01*
X423934D01*
X424467Y151863D01*
Y152396D01*
X423934Y152929D01*
X424467Y153462D01*
Y153995D01*
X423934Y152929D02*
X422867D01*
X412134Y131371D02*
Y134570D01*
X410535D01*
X410002Y134037D01*
Y132970D01*
X410535Y132437D01*
X412134D01*
X411068D02*
X410002Y131371D01*
X408935Y134570D02*
X406803D01*
Y134037D01*
X408935Y131904D01*
Y131371D01*
X412134Y152117D02*
Y155316D01*
X410535D01*
X410002Y154783D01*
Y153716D01*
X410535Y153183D01*
X412134D01*
X411068D02*
X410002Y152117D01*
X406803Y155316D02*
X407869Y154783D01*
X408935Y153716D01*
Y152650D01*
X408402Y152117D01*
X407336D01*
X406803Y152650D01*
Y153183D01*
X407336Y153716D01*
X408935D01*
X427666Y141676D02*
Y144875D01*
X426066D01*
X425533Y144342D01*
Y143276D01*
X426066Y142743D01*
X427666D01*
X426599D02*
X425533Y141676D01*
X422334Y144875D02*
X424467D01*
Y143276D01*
X423400Y143809D01*
X422867D01*
X422334Y143276D01*
Y142209D01*
X422867Y141676D01*
X423934D01*
X424467Y142209D01*
X412134Y161723D02*
Y164922D01*
X410535D01*
X410002Y164389D01*
Y163323D01*
X410535Y162789D01*
X412134D01*
X411068D02*
X410002Y161723D01*
X407336D02*
Y164922D01*
X408935Y163323D01*
X406803D01*
X412134Y142464D02*
Y145663D01*
X410535D01*
X410002Y145130D01*
Y144063D01*
X410535Y143530D01*
X412134D01*
X411068D02*
X410002Y142464D01*
X408935Y145130D02*
X408402Y145663D01*
X407336D01*
X406803Y145130D01*
Y144596D01*
X407336Y144063D01*
X407869D01*
X407336D01*
X406803Y143530D01*
Y142997D01*
X407336Y142464D01*
X408402D01*
X408935Y142997D01*
X427666Y161723D02*
Y164922D01*
X426066D01*
X425533Y164389D01*
Y163323D01*
X426066Y162789D01*
X427666D01*
X426599D02*
X425533Y161723D01*
X422334D02*
X424467D01*
X422334Y163856D01*
Y164389D01*
X422867Y164922D01*
X423934D01*
X424467Y164389D01*
X343166Y197273D02*
Y194074D01*
X341033D01*
X337834Y197273D02*
X338900Y196739D01*
X339967Y195673D01*
Y194607D01*
X339434Y194074D01*
X338367D01*
X337834Y194607D01*
Y195140D01*
X338367Y195673D01*
X339967D01*
X368698Y146194D02*
Y142995D01*
X366565D01*
X363899D02*
Y146194D01*
X365499Y144594D01*
X363366D01*
X387480Y136720D02*
X384282D01*
Y138853D01*
X386947Y139919D02*
X387480Y140452D01*
Y141518D01*
X386947Y142051D01*
X386414D01*
X385881Y141518D01*
Y140985D01*
Y141518D01*
X385348Y142051D01*
X384815D01*
X384282Y141518D01*
Y140452D01*
X384815Y139919D01*
X356040Y197767D02*
Y194568D01*
X353907D01*
X350708D02*
X352841D01*
X350708Y196700D01*
Y197234D01*
X351241Y197767D01*
X352308D01*
X352841Y197234D01*
X341764Y173568D02*
Y170369D01*
X339631D01*
X338565D02*
X337498D01*
X338032D01*
Y173568D01*
X338565Y173035D01*
X260345Y126582D02*
X260878Y127115D01*
X261945D01*
X262478Y126582D01*
Y124449D01*
X261945Y123916D01*
X260878D01*
X260345Y124449D01*
X259279Y126582D02*
X258746Y127115D01*
X257679D01*
X257146Y126582D01*
Y126048D01*
X257679Y125515D01*
X258213D01*
X257679D01*
X257146Y124982D01*
Y124449D01*
X257679Y123916D01*
X258746D01*
X259279Y124449D01*
X256080D02*
X255547Y123916D01*
X254481D01*
X253947Y124449D01*
Y126582D01*
X254481Y127115D01*
X255547D01*
X256080Y126582D01*
Y126048D01*
X255547Y125515D01*
X253947D01*
X277302Y136931D02*
X277835Y137465D01*
X278901D01*
X279435Y136931D01*
Y134799D01*
X278901Y134266D01*
X277835D01*
X277302Y134799D01*
X276236Y136931D02*
X275702Y137465D01*
X274636D01*
X274103Y136931D01*
Y136398D01*
X274636Y135865D01*
X275169D01*
X274636D01*
X274103Y135332D01*
Y134799D01*
X274636Y134266D01*
X275702D01*
X276236Y134799D01*
X273037Y136931D02*
X272503Y137465D01*
X271437D01*
X270904Y136931D01*
Y136398D01*
X271437Y135865D01*
X270904Y135332D01*
Y134799D01*
X271437Y134266D01*
X272503D01*
X273037Y134799D01*
Y135332D01*
X272503Y135865D01*
X273037Y136398D01*
Y136931D01*
X272503Y135865D02*
X271437D01*
X404652Y108800D02*
X404119Y108267D01*
X403052D01*
X402519Y108800D01*
Y110933D01*
X403052Y111466D01*
X404119D01*
X404652Y110933D01*
X405718Y108800D02*
X406251Y108267D01*
X407318D01*
X407851Y108800D01*
Y109333D01*
X407318Y109866D01*
X406784D01*
X407318D01*
X407851Y110400D01*
Y110933D01*
X407318Y111466D01*
X406251D01*
X405718Y110933D01*
X408917Y108800D02*
X409450Y108267D01*
X410517D01*
X411050Y108800D01*
Y109333D01*
X410517Y109866D01*
X409983D01*
X410517D01*
X411050Y110400D01*
Y110933D01*
X410517Y111466D01*
X409450D01*
X408917Y110933D01*
X314656Y85682D02*
X315190Y86215D01*
X316256D01*
X316789Y85682D01*
Y83550D01*
X316256Y83017D01*
X315190D01*
X314656Y83550D01*
X311457Y83017D02*
X313590D01*
X311457Y85149D01*
Y85682D01*
X311991Y86215D01*
X313057D01*
X313590Y85682D01*
X310391D02*
X309858Y86215D01*
X308792D01*
X308259Y85682D01*
Y83550D01*
X308792Y83017D01*
X309858D01*
X310391Y83550D01*
Y85682D01*
X328245Y100114D02*
X328779Y100647D01*
X329845D01*
X330378Y100114D01*
Y97981D01*
X329845Y97448D01*
X328779D01*
X328245Y97981D01*
X327179Y97448D02*
X326113D01*
X326646D01*
Y100647D01*
X327179Y100114D01*
X324513D02*
X323980Y100647D01*
X322914D01*
X322381Y100114D01*
Y99580D01*
X322914Y99047D01*
X322381Y98514D01*
Y97981D01*
X322914Y97448D01*
X323980D01*
X324513Y97981D01*
Y98514D01*
X323980Y99047D01*
X324513Y99580D01*
Y100114D01*
X323980Y99047D02*
X322914D01*
X338692Y110061D02*
X339226Y109528D01*
Y108462D01*
X338692Y107928D01*
X336560D01*
X336027Y108462D01*
Y109528D01*
X336560Y110061D01*
X336027Y111127D02*
Y112194D01*
Y111661D01*
X339226D01*
X338692Y111127D01*
X339226Y113793D02*
Y115926D01*
X338692D01*
X336560Y113793D01*
X336027D01*
X381815Y128856D02*
X382348Y128323D01*
Y127257D01*
X381815Y126724D01*
X379682D01*
X379149Y127257D01*
Y128323D01*
X379682Y128856D01*
X379149Y129923D02*
Y130989D01*
Y130456D01*
X382348D01*
X381815Y129923D01*
X382348Y134721D02*
X381815Y133655D01*
X380749Y132588D01*
X379682D01*
X379149Y133122D01*
Y134188D01*
X379682Y134721D01*
X380216D01*
X380749Y134188D01*
Y132588D01*
X354649Y180206D02*
X355183Y180739D01*
X356249D01*
X356782Y180206D01*
Y178073D01*
X356249Y177540D01*
X355183D01*
X354649Y178073D01*
X353583Y177540D02*
X352517D01*
X353050D01*
Y180739D01*
X353583Y180206D01*
X349318Y177540D02*
Y180739D01*
X350917Y179140D01*
X348785D01*
X364984Y173035D02*
X365517Y173568D01*
X366583D01*
X367116Y173035D01*
Y170902D01*
X366583Y170369D01*
X365517D01*
X364984Y170902D01*
X363917Y170369D02*
X362851D01*
X363384D01*
Y173568D01*
X363917Y173035D01*
X361252D02*
X360718Y173568D01*
X359652D01*
X359119Y173035D01*
Y172502D01*
X359652Y171968D01*
X360185D01*
X359652D01*
X359119Y171435D01*
Y170902D01*
X359652Y170369D01*
X360718D01*
X361252Y170902D01*
X376911Y154626D02*
X377444Y155159D01*
X378511D01*
X379044Y154626D01*
Y152493D01*
X378511Y151960D01*
X377444D01*
X376911Y152493D01*
X375845Y154626D02*
X375312Y155159D01*
X374245D01*
X373712Y154626D01*
Y154093D01*
X374245Y153559D01*
X373712Y153026D01*
Y152493D01*
X374245Y151960D01*
X375312D01*
X375845Y152493D01*
Y153026D01*
X375312Y153559D01*
X375845Y154093D01*
Y154626D01*
X375312Y153559D02*
X374245D01*
X347470Y126544D02*
X348003Y127077D01*
X349070D01*
X349603Y126544D01*
Y124411D01*
X349070Y123878D01*
X348003D01*
X347470Y124411D01*
X344804Y123878D02*
Y127077D01*
X346404Y125478D01*
X344271D01*
X336725Y167392D02*
X337258Y167925D01*
X338324D01*
X338858Y167392D01*
Y165259D01*
X338324Y164726D01*
X337258D01*
X336725Y165259D01*
X335659Y167392D02*
X335125Y167925D01*
X334059D01*
X333526Y167392D01*
Y166859D01*
X334059Y166325D01*
X334592D01*
X334059D01*
X333526Y165792D01*
Y165259D01*
X334059Y164726D01*
X335125D01*
X335659Y165259D01*
X340965Y189066D02*
X341498Y189600D01*
X342564D01*
X343097Y189066D01*
Y186934D01*
X342564Y186400D01*
X341498D01*
X340965Y186934D01*
X339898Y186400D02*
X338832D01*
X339365D01*
Y189600D01*
X339898Y189066D01*
D16*
X310454Y112040D02*
Y109540D01*
X309954Y109041D01*
X308954D01*
X308455Y109540D01*
Y112040D01*
X307455Y111540D02*
X306955Y112040D01*
X305955D01*
X305455Y111540D01*
Y111040D01*
X305955Y110540D01*
X306455D01*
X305955D01*
X305455Y110040D01*
Y109540D01*
X305955Y109041D01*
X306955D01*
X307455Y109540D01*
X351073Y83212D02*
X348574D01*
X348074Y83712D01*
Y84712D01*
X348574Y85212D01*
X351073D01*
X348074Y88211D02*
Y86211D01*
X350073Y88211D01*
X350573D01*
X351073Y87711D01*
Y86711D01*
X350573Y86211D01*
X369061Y164726D02*
X369561Y165226D01*
X370560D01*
X371060Y164726D01*
Y162727D01*
X370560Y162227D01*
X369561D01*
X369061Y162727D01*
X368061Y162227D02*
X367061D01*
X367561D01*
Y165226D01*
X368061Y164726D01*
X363562Y165226D02*
X365562D01*
Y163727D01*
X364562Y164226D01*
X364062D01*
X363562Y163727D01*
Y162727D01*
X364062Y162227D01*
X365062D01*
X365562Y162727D01*
D17*
X410000Y23695D02*
Y27694D01*
X408001Y29693D01*
X406001Y27694D01*
Y23695D01*
Y26694D01*
X410000D01*
X404002Y23695D02*
X402003D01*
X403002D01*
Y27694D01*
X404002D01*
X399004D02*
Y23695D01*
Y25695D01*
X398004Y26694D01*
X397004Y27694D01*
X396005D01*
X393005Y29693D02*
Y23695D01*
X390006D01*
X389007Y24695D01*
Y25695D01*
Y26694D01*
X390006Y27694D01*
X393005D01*
X387007D02*
Y23695D01*
Y25695D01*
X386008Y26694D01*
X385008Y27694D01*
X384008D01*
X380010D02*
X378010D01*
X377011Y26694D01*
Y23695D01*
X380010D01*
X381009Y24695D01*
X380010Y25695D01*
X377011D01*
X375011Y23695D02*
Y29693D01*
Y25695D02*
X372012Y27694D01*
X375011Y25695D02*
X372012Y23695D01*
X366014D02*
X368014D01*
X369013Y24695D01*
Y26694D01*
X368014Y27694D01*
X366014D01*
X365015Y26694D01*
Y25695D01*
X369013D01*
X351019Y23695D02*
Y29693D01*
X349020Y27694D01*
X347020Y29693D01*
Y23695D01*
X344021D02*
X342022D01*
X341022Y24695D01*
Y26694D01*
X342022Y27694D01*
X344021D01*
X345021Y26694D01*
Y24695D01*
X344021Y23695D01*
X338023Y28694D02*
Y27694D01*
X339023D01*
X337024D01*
X338023D01*
Y24695D01*
X337024Y23695D01*
X333025D02*
X331026D01*
X330026Y24695D01*
Y26694D01*
X331026Y27694D01*
X333025D01*
X334025Y26694D01*
Y24695D01*
X333025Y23695D01*
X328027Y27694D02*
Y23695D01*
Y25695D01*
X327027Y26694D01*
X326027Y27694D01*
X325027D01*
X406001Y19096D02*
X407001Y20096D01*
X409000D01*
X410000Y19096D01*
Y15097D01*
X409000Y14098D01*
X407001D01*
X406001Y15097D01*
X403002Y14098D02*
X401003D01*
X400003Y15097D01*
Y17097D01*
X401003Y18096D01*
X403002D01*
X404002Y17097D01*
Y15097D01*
X403002Y14098D01*
X398004D02*
Y18096D01*
X395005D01*
X394005Y17097D01*
Y14098D01*
X391006Y19096D02*
Y18096D01*
X392006D01*
X390006D01*
X391006D01*
Y15097D01*
X390006Y14098D01*
X387007Y18096D02*
Y14098D01*
Y16097D01*
X386008Y17097D01*
X385008Y18096D01*
X384008D01*
X380010Y14098D02*
X378010D01*
X377011Y15097D01*
Y17097D01*
X378010Y18096D01*
X380010D01*
X381009Y17097D01*
Y15097D01*
X380010Y14098D01*
X375011D02*
X373012D01*
X374012D01*
Y20096D01*
X375011D01*
X370013Y14098D02*
X368014D01*
X369013D01*
Y20096D01*
X370013D01*
X362016Y14098D02*
X364015D01*
X365015Y15097D01*
Y17097D01*
X364015Y18096D01*
X362016D01*
X361016Y17097D01*
Y16097D01*
X365015D01*
X359016Y18096D02*
Y14098D01*
Y16097D01*
X358017Y17097D01*
X357017Y18096D01*
X356017D01*
X410000Y4500D02*
Y10498D01*
X407001D01*
X406001Y9498D01*
Y7499D01*
X407001Y6499D01*
X410000D01*
X408001D02*
X406001Y4500D01*
X401003D02*
X403002D01*
X404002Y5500D01*
Y7499D01*
X403002Y8499D01*
X401003D01*
X400003Y7499D01*
Y6499D01*
X404002D01*
X398004Y8499D02*
X396005Y4500D01*
X394005Y8499D01*
X392006D02*
X391006D01*
Y7499D01*
X392006D01*
Y8499D01*
Y5500D02*
X391006D01*
Y4500D01*
X392006D01*
Y5500D01*
X387007Y4500D02*
X385008D01*
X386008D01*
Y10498D01*
X387007Y9498D01*
X382009Y4500D02*
Y5500D01*
X381009D01*
Y4500D01*
X382009D01*
X377011D02*
X375011D01*
X376011D01*
Y10498D01*
X377011Y9498D01*
X413700Y120498D02*
Y115500D01*
X412700Y114500D01*
X410701D01*
X409701Y115500D01*
Y120498D01*
X403703D02*
X407702D01*
Y117499D01*
X405703Y118499D01*
X404703D01*
X403703Y117499D01*
Y115500D01*
X404703Y114500D01*
X406702D01*
X407702Y115500D01*
X345801Y233898D02*
X349800D01*
Y227900D01*
X345801D01*
X349800Y230899D02*
X347801D01*
X343802Y227900D02*
X341803D01*
X342802D01*
Y233898D01*
X343802Y232898D01*
X371801Y206198D02*
X373801D01*
X372801D01*
Y201200D01*
X373801Y200200D01*
X374800D01*
X375800Y201200D01*
X365803Y206198D02*
X369802D01*
Y203199D01*
X367803Y204199D01*
X366803D01*
X365803Y203199D01*
Y201200D01*
X366803Y200200D01*
X368802D01*
X369802Y201200D01*
D114*
X297237Y130708D02*
G03*
X297237Y130708I-1181J0D01*
G01*
M02*
