G04*
G04 #@! TF.GenerationSoftware,Altium Limited,Altium Designer,21.5.1 (32)*
G04*
G04 Layer_Physical_Order=1*
G04 Layer_Color=255*
%FSLAX25Y25*%
%MOIN*%
G70*
G04*
G04 #@! TF.SameCoordinates,9AD95912-260A-4B2D-9037-AC9445484B82*
G04*
G04*
G04 #@! TF.FilePolarity,Positive*
G04*
G01*
G75*
%ADD14C,0.01000*%
%ADD21R,0.01378X0.02264*%
%ADD22R,0.02264X0.01378*%
%ADD33O,0.05709X0.02362*%
%ADD34R,0.03543X0.03150*%
%ADD35R,0.01968X0.02362*%
%ADD36R,0.03150X0.03543*%
%ADD37R,0.02362X0.01968*%
%ADD38R,0.05906X0.01968*%
%ADD39R,0.07874X0.02756*%
%ADD40R,0.07874X0.03150*%
%ADD41R,0.07874X0.03543*%
%ADD42C,0.00500*%
%ADD43C,0.02000*%
%ADD44C,0.02500*%
%ADD45C,0.01500*%
%ADD46C,0.04047*%
%ADD47C,0.07500*%
%ADD48R,0.05906X0.05906*%
%ADD49C,0.05906*%
%ADD50C,0.06500*%
%ADD51O,0.06693X0.03937*%
%ADD52C,0.01800*%
%ADD53C,0.05000*%
%ADD54C,0.01772*%
%ADD55C,0.01968*%
D14*
X105000Y215500D02*
X105200Y215700D01*
X46500Y215500D02*
X105000D01*
X46500Y213000D02*
X104775D01*
X105225Y212550D01*
X71150Y274150D02*
X78650D01*
X71000Y274000D02*
X71150Y274150D01*
X78650D02*
X78800Y274300D01*
X73500Y277500D02*
X73525Y277475D01*
X78750D02*
X78775Y277450D01*
X73525Y277475D02*
X78750D01*
X23200Y215700D02*
X23275Y215775D01*
X28275D01*
X28350Y215850D01*
X28450Y212550D02*
X28500Y212500D01*
X23225Y212550D02*
X28450D01*
X164431Y162500D02*
X165216D01*
X173604Y170889D02*
Y263464D01*
X165216Y162500D02*
X173604Y170889D01*
X165216Y162500D02*
X166000D01*
Y163737D01*
X160775Y277450D02*
X161259Y276966D01*
X163280D01*
X174959Y265287D01*
Y161459D02*
Y265287D01*
X166000Y152500D02*
X174959Y161459D01*
X160800Y274300D02*
X162769D01*
X173604Y263464D01*
X108532Y211239D02*
X113646Y206124D01*
Y167519D02*
Y206124D01*
Y167519D02*
X120533Y160631D01*
X157869D01*
X106000Y211239D02*
X108532D01*
X157869Y160631D02*
X166000Y152500D01*
X105200Y215700D02*
X111714D01*
X115000Y212414D01*
Y168080D02*
Y212414D01*
Y168080D02*
X117652Y165428D01*
X161503D01*
X164431Y162500D01*
X55297Y181331D02*
X55425D01*
X45725D02*
X55297D01*
X55425D02*
X56500Y180256D01*
X44056Y183000D02*
X45725Y181331D01*
X44000Y183000D02*
X44056D01*
X44000D02*
Y191500D01*
X45000Y192500D01*
X47756D02*
X48000Y192744D01*
X45000Y192500D02*
X47756D01*
D21*
X60953Y195077D02*
D03*
X58984D02*
D03*
X57016D02*
D03*
X55047D02*
D03*
Y185923D02*
D03*
X57016D02*
D03*
X58984D02*
D03*
X60953D02*
D03*
D22*
X54408Y192469D02*
D03*
Y190500D02*
D03*
Y188531D02*
D03*
X61593D02*
D03*
Y190500D02*
D03*
Y192469D02*
D03*
D33*
X167228Y219000D02*
D03*
Y214000D02*
D03*
Y209000D02*
D03*
Y204000D02*
D03*
X145772D02*
D03*
Y209000D02*
D03*
Y214000D02*
D03*
Y219000D02*
D03*
D34*
X140000Y208744D02*
D03*
Y214256D02*
D03*
X135000Y214256D02*
D03*
Y208744D02*
D03*
X52000Y242744D02*
D03*
Y248256D02*
D03*
X56500Y174744D02*
D03*
Y180256D02*
D03*
X48000Y198256D02*
D03*
Y192744D02*
D03*
D35*
X54000Y234032D02*
D03*
Y237968D02*
D03*
X50500Y237968D02*
D03*
Y234032D02*
D03*
D36*
X34756Y248500D02*
D03*
X29244D02*
D03*
D37*
X24468Y250000D02*
D03*
X20531D02*
D03*
X20563Y246500D02*
D03*
X24500D02*
D03*
D38*
X37775Y228300D02*
D03*
X23225Y199950D02*
D03*
Y225150D02*
D03*
X23255Y222000D02*
D03*
X23280Y218850D02*
D03*
X23200Y215700D02*
D03*
X23225Y212550D02*
D03*
Y209400D02*
D03*
Y206250D02*
D03*
Y203100D02*
D03*
Y171600D02*
D03*
Y196800D02*
D03*
X23255Y193650D02*
D03*
X23280Y190500D02*
D03*
X23200Y187350D02*
D03*
X23225Y184200D02*
D03*
Y181050D02*
D03*
Y177900D02*
D03*
Y174750D02*
D03*
Y168450D02*
D03*
Y228300D02*
D03*
X37775Y199950D02*
D03*
Y225150D02*
D03*
X37805Y222000D02*
D03*
X37830Y218850D02*
D03*
X37750Y215700D02*
D03*
X37775Y212550D02*
D03*
Y209400D02*
D03*
Y206250D02*
D03*
Y203100D02*
D03*
Y171600D02*
D03*
Y196800D02*
D03*
X37805Y193650D02*
D03*
X37830Y190500D02*
D03*
X37750Y187350D02*
D03*
X37775Y184200D02*
D03*
Y181050D02*
D03*
Y177900D02*
D03*
Y174750D02*
D03*
Y168450D02*
D03*
X146225Y321550D02*
D03*
Y315250D02*
D03*
Y312100D02*
D03*
Y308950D02*
D03*
Y305800D02*
D03*
X146250Y302650D02*
D03*
X146170Y299500D02*
D03*
X146195Y296350D02*
D03*
X146225Y293200D02*
D03*
Y318400D02*
D03*
Y286900D02*
D03*
Y283750D02*
D03*
Y280600D02*
D03*
Y277450D02*
D03*
X146250Y274300D02*
D03*
X146170Y271150D02*
D03*
X146195Y268000D02*
D03*
X146225Y264850D02*
D03*
Y290050D02*
D03*
X160775Y261700D02*
D03*
Y321550D02*
D03*
Y315250D02*
D03*
Y312100D02*
D03*
Y308950D02*
D03*
Y305800D02*
D03*
X160800Y302650D02*
D03*
X160720Y299500D02*
D03*
X160745Y296350D02*
D03*
X160775Y293200D02*
D03*
Y318400D02*
D03*
Y286900D02*
D03*
Y283750D02*
D03*
Y280600D02*
D03*
Y277450D02*
D03*
X160800Y274300D02*
D03*
X160720Y271150D02*
D03*
X160745Y268000D02*
D03*
X160775Y264850D02*
D03*
Y290050D02*
D03*
X146225Y261700D02*
D03*
X64225D02*
D03*
X78775Y290050D02*
D03*
Y264850D02*
D03*
X78745Y268000D02*
D03*
X78720Y271150D02*
D03*
X78800Y274300D02*
D03*
X78775Y277450D02*
D03*
Y280600D02*
D03*
Y283750D02*
D03*
Y286900D02*
D03*
Y318400D02*
D03*
Y293200D02*
D03*
X78745Y296350D02*
D03*
X78720Y299500D02*
D03*
X78800Y302650D02*
D03*
X78775Y305800D02*
D03*
Y308950D02*
D03*
Y312100D02*
D03*
Y315250D02*
D03*
Y321550D02*
D03*
Y261700D02*
D03*
X64225Y290050D02*
D03*
Y264850D02*
D03*
X64195Y268000D02*
D03*
X64170Y271150D02*
D03*
X64250Y274300D02*
D03*
X64225Y277450D02*
D03*
Y280600D02*
D03*
Y283750D02*
D03*
Y286900D02*
D03*
Y318400D02*
D03*
Y293200D02*
D03*
X64195Y296350D02*
D03*
X64170Y299500D02*
D03*
X64250Y302650D02*
D03*
X64225Y305800D02*
D03*
Y308950D02*
D03*
Y312100D02*
D03*
Y315250D02*
D03*
Y321550D02*
D03*
X119775Y228300D02*
D03*
X105225Y199950D02*
D03*
Y225150D02*
D03*
X105255Y222000D02*
D03*
X105280Y218850D02*
D03*
X105200Y215700D02*
D03*
X105225Y212550D02*
D03*
Y209400D02*
D03*
Y206250D02*
D03*
Y203100D02*
D03*
Y171600D02*
D03*
Y196800D02*
D03*
X105255Y193650D02*
D03*
X105280Y190500D02*
D03*
X105200Y187350D02*
D03*
X105225Y184200D02*
D03*
Y181050D02*
D03*
Y177900D02*
D03*
Y174750D02*
D03*
Y168450D02*
D03*
Y228300D02*
D03*
X119775Y199950D02*
D03*
Y225150D02*
D03*
X119805Y222000D02*
D03*
X119830Y218850D02*
D03*
X119750Y215700D02*
D03*
X119775Y212550D02*
D03*
Y209400D02*
D03*
Y206250D02*
D03*
Y203100D02*
D03*
Y171600D02*
D03*
Y196800D02*
D03*
X119805Y193650D02*
D03*
X119830Y190500D02*
D03*
X119750Y187350D02*
D03*
X119775Y184200D02*
D03*
Y181050D02*
D03*
Y177900D02*
D03*
Y174750D02*
D03*
Y168450D02*
D03*
D39*
X30000Y405500D02*
D03*
Y409437D02*
D03*
D40*
X30000Y401484D02*
D03*
Y413453D02*
D03*
D41*
Y396642D02*
D03*
Y418295D02*
D03*
D42*
X64170Y261755D02*
Y264850D01*
Y261755D02*
X64500Y261425D01*
X64170Y268000D02*
Y271150D01*
Y264850D02*
Y268000D01*
X64500Y257500D02*
Y261425D01*
X64000Y195077D02*
Y207500D01*
X145772Y209000D02*
X146941D01*
X165805Y211775D02*
Y213140D01*
X145520Y218749D02*
X145772Y219000D01*
X140772Y199000D02*
X145772Y204000D01*
X167000Y219228D02*
X167228Y219000D01*
X130599Y218749D02*
X145520D01*
X161646Y203354D02*
Y207615D01*
X130350Y218500D02*
X130599Y218749D01*
X165555Y209000D02*
X167228D01*
X162500Y203708D02*
Y205945D01*
X146941Y209000D02*
X147801Y209860D01*
X161646Y207615D02*
X165805Y211775D01*
Y213140D02*
X166494Y213828D01*
X146941Y209000D02*
X152000D01*
X130350Y199000D02*
X140772D01*
X167000Y219228D02*
Y225000D01*
X162500Y205945D02*
X165555Y209000D01*
X166494Y213828D02*
X167057D01*
X167228Y214000D01*
X140256D02*
X145772D01*
X140000Y214256D02*
X140256Y214000D01*
X167228D02*
Y215931D01*
X140256Y209000D02*
X145772D01*
X167228D02*
Y210931D01*
X140000Y208744D02*
X140256Y209000D01*
X167228Y210931D02*
X167866Y211569D01*
X169909D01*
X172500Y214160D01*
Y226000D01*
X164500Y234000D02*
X172500Y226000D01*
X164500Y234000D02*
Y259720D01*
X164978Y260198D01*
Y263202D01*
X164064Y264116D02*
X164978Y263202D01*
X161509Y264116D02*
X164064D01*
X160775Y264850D02*
X161509Y264116D01*
X167228Y215931D02*
X167866Y216569D01*
X169909D01*
X171333Y217993D01*
Y225167D01*
X162000Y234500D02*
X171333Y225167D01*
X162000Y234500D02*
Y260966D01*
X161266Y261700D02*
X162000Y260966D01*
X160775Y261700D02*
X161266D01*
X56500Y174744D02*
X56500Y174744D01*
Y171000D02*
Y174744D01*
X53500Y240000D02*
Y241419D01*
Y240000D02*
X53893Y239607D01*
Y238075D02*
X54000Y237968D01*
X53893Y238075D02*
Y239607D01*
X54000Y228500D02*
Y234032D01*
X54000Y228500D02*
X54000Y228500D01*
X78775Y261700D02*
X78975Y261500D01*
X78720Y271150D02*
X78870Y271000D01*
X78775Y264850D02*
X78905Y264980D01*
X78745Y268000D02*
X78766Y267980D01*
X146170Y261755D02*
Y271150D01*
X133700Y258000D02*
Y288300D01*
X130500Y291500D02*
X133700Y288300D01*
X130100Y258000D02*
Y287400D01*
X126000Y291500D02*
X130100Y287400D01*
X143500Y257500D02*
Y260944D01*
X144311Y261755D01*
X146170D01*
X153500Y261500D02*
X160575D01*
X160775Y261700D01*
X153500Y268000D02*
X160745D01*
X153500Y265000D02*
X160625D01*
X160775Y264850D01*
X153500Y271000D02*
X160570D01*
X160720Y271150D01*
X37830Y218850D02*
Y228245D01*
X20563Y230962D02*
X23225Y228300D01*
X20563Y230962D02*
Y246500D01*
X23255Y222000D02*
X28500D01*
X23430Y219000D02*
X28500D01*
X23525Y228000D02*
X28500D01*
X23225Y228300D02*
X23525Y228000D01*
X40500Y229057D02*
Y232500D01*
X37775Y228300D02*
X39744D01*
X40500Y229057D01*
X18132Y227688D02*
X19936Y225884D01*
X19797Y249266D02*
X20531Y250000D01*
X18132Y248207D02*
X19191Y249266D01*
X19797D01*
X18132Y227688D02*
Y248207D01*
X23375Y225000D02*
X28500D01*
X22491Y225884D02*
X23225Y225150D01*
X19936Y225884D02*
X22491D01*
X23800Y142150D02*
X23950Y142300D01*
X37775Y228300D02*
X37830Y228245D01*
X23280Y218850D02*
X23430Y219000D01*
X23225Y225150D02*
X23375Y225000D01*
X55297Y181331D02*
X56372Y180256D01*
X55047Y181581D02*
X55297Y181331D01*
X44350Y227150D02*
Y232350D01*
X46000Y234000D01*
X50468D01*
X116500Y280500D02*
X122100Y274900D01*
Y258000D02*
Y274900D01*
X126500Y258000D02*
Y266046D01*
X127150Y266696D01*
Y285850D01*
X121500Y291500D02*
X127150Y285850D01*
X119775Y228300D02*
X120475Y229000D01*
X126000D01*
X119830Y218850D02*
Y228245D01*
X91000Y209500D02*
Y211000D01*
X41000Y308500D02*
X43703Y311203D01*
X56297D01*
X57500Y310000D01*
X118500Y273000D02*
X119000Y273500D01*
X118500Y258000D02*
Y273000D01*
X71500Y168000D02*
Y179067D01*
X61593Y188531D02*
X62035D01*
X71500Y179067D01*
X68000Y186500D02*
X73000D01*
X86500Y225000D02*
X105075D01*
X104130Y218000D02*
X105130Y219000D01*
X119775Y228300D02*
X119830Y228245D01*
X93000Y218000D02*
X104130D01*
X46500Y221500D02*
X89500D01*
X104755D02*
X105255Y222000D01*
X89500Y221500D02*
X104755D01*
X105130Y219000D02*
X105280Y218850D01*
X46500Y218000D02*
X93000D01*
X105075Y225000D02*
X105225Y225150D01*
X105800Y272300D02*
X107000Y273500D01*
X105800Y258000D02*
Y272300D01*
X110000Y258000D02*
Y273500D01*
X114500Y258000D02*
Y273500D01*
X96000Y269804D02*
X100000Y273804D01*
X96000Y237500D02*
Y269804D01*
X86500Y231500D02*
Y262459D01*
X84000Y228500D02*
Y261350D01*
X46500Y225000D02*
X86500D01*
X73000Y191500D02*
X91000Y209500D01*
X83850Y261500D02*
X84000Y261350D01*
X83980Y264980D02*
X86500Y262459D01*
X58000Y200648D02*
Y201000D01*
Y200648D02*
X58984Y199664D01*
X24468Y250000D02*
X24969Y249500D01*
X28419D02*
X29244Y248675D01*
X24969Y249500D02*
X28419D01*
X29244Y248303D02*
Y248675D01*
X27212Y247712D02*
X28653D01*
X25000Y247000D02*
X26500D01*
X24500Y246500D02*
X25000Y247000D01*
X26500D02*
X27212Y247712D01*
X28653D02*
X29244Y248303D01*
X52675Y242244D02*
X53500Y241419D01*
X51825Y242244D02*
X52675D01*
X50500Y237968D02*
X50607Y238075D01*
Y239607D01*
X51000Y240000D01*
Y241419D01*
X51825Y242244D01*
X50468Y234000D02*
X50500Y234032D01*
X60953Y195077D02*
X64000D01*
X66577D01*
X51756Y248500D02*
X52000Y248256D01*
X43000Y248500D02*
X51756D01*
X34756Y248500D02*
X34756Y248500D01*
X43000D01*
X54000Y228500D02*
X84000D01*
X46500D02*
X54000D01*
X44350Y227150D02*
X46500Y225000D01*
X52000Y248256D02*
X52256Y248000D01*
X34500Y248756D02*
X34756Y248500D01*
X84000Y271000D02*
X93000Y262000D01*
Y231500D02*
Y262000D01*
X83980Y267980D02*
X84020D01*
X89500Y262500D01*
Y231500D02*
Y262500D01*
X78975Y261500D02*
X83850D01*
X84000Y228500D02*
X103425D01*
X103925Y229000D01*
X104925Y228000D01*
X78905Y264980D02*
X83980D01*
X104925Y228000D02*
X105225Y228300D01*
X78766Y267980D02*
X83980D01*
X78870Y271000D02*
X84000D01*
X64906Y367256D02*
X64950Y367300D01*
X64000Y190500D02*
X68000Y186500D01*
X67648Y191500D02*
X73000D01*
X68000Y196500D02*
X73000D01*
X66577Y195077D02*
X68000Y196500D01*
X61593Y190500D02*
X64000D01*
X61593Y192469D02*
X66680D01*
X67648Y191500D01*
X54392Y188516D02*
X54408Y188531D01*
X48016Y188516D02*
X54392D01*
X48000Y188500D02*
X48016Y188516D01*
X54408Y188531D02*
Y190500D01*
X58984Y195077D02*
Y199664D01*
X57016Y195077D02*
X58984D01*
X48000Y198256D02*
X48000Y198256D01*
X48000Y198256D02*
Y202000D01*
X48276Y192469D02*
X54408D01*
X48000Y192744D02*
X48276Y192469D01*
X55047Y181581D02*
Y185923D01*
X56372Y180256D02*
X56500D01*
X140000Y208744D02*
X140000Y208744D01*
X135000Y208744D02*
X140000D01*
X135000Y214256D02*
X140000D01*
X135000Y214256D02*
X135000Y214256D01*
X133675Y212931D02*
X135000Y214256D01*
X131283Y212931D02*
X133675D01*
X130352Y212000D02*
X131283Y212931D01*
X130000Y212000D02*
X130352D01*
D43*
X29622Y405878D02*
X30000Y405500D01*
X23101Y405878D02*
X29622D01*
X22671Y406308D02*
X23101Y405878D01*
X30031Y409469D02*
X38469D01*
X30000Y409437D02*
X30031Y409469D01*
X38469D02*
X38500Y409500D01*
X30000Y405500D02*
Y409437D01*
X30000Y418295D02*
X32165D01*
X32937Y419067D01*
Y424067D01*
X33150Y424279D01*
X32937Y390870D02*
Y395870D01*
Y390870D02*
X33150Y390657D01*
X30000Y396642D02*
X32165D01*
X32937Y395870D01*
D44*
X6500Y375000D02*
Y445000D01*
X29992Y401492D02*
X30000Y401484D01*
X20008Y401492D02*
X29992D01*
X20000Y401500D02*
X20008Y401492D01*
X6500Y132000D02*
Y375000D01*
X21524Y413476D02*
X29976D01*
X30000Y413453D01*
X21500Y413500D02*
X21524Y413476D01*
X6500Y445000D02*
X29500Y468000D01*
X10000Y76000D02*
X24000Y62000D01*
X92550D01*
X10000Y76000D02*
Y85200D01*
X23950D01*
X160050Y367300D02*
X168000Y375250D01*
Y446000D01*
X146000Y468000D02*
X168000Y446000D01*
X160050Y414600D02*
Y440950D01*
X138500Y462500D02*
X160050Y440950D01*
X10000Y378217D02*
Y443000D01*
Y378217D02*
X71067D01*
X10000Y85200D02*
Y378217D01*
X71067D02*
X78050Y385200D01*
X92550Y62000D02*
X105950Y75400D01*
X29500Y468000D02*
X146000D01*
X29500Y462500D02*
X138500D01*
X10000Y443000D02*
X29500Y462500D01*
D45*
X32650Y114000D02*
X97250D01*
X105950Y122700D01*
X23950D02*
X32650Y114000D01*
X160050Y337900D02*
Y347700D01*
X146950Y337900D02*
Y347700D01*
X160050Y404800D02*
Y414600D01*
X146950Y395000D02*
Y404800D01*
Y357500D02*
Y367300D01*
Y385200D02*
Y395000D01*
X160050Y385200D02*
Y395000D01*
Y347700D02*
Y357500D01*
X146950Y347700D02*
Y357500D01*
X160050Y395000D02*
Y404800D01*
Y357500D02*
Y367300D01*
X146950Y404800D02*
Y414600D01*
X37050Y142300D02*
Y152100D01*
X23950Y85200D02*
Y95000D01*
X37050Y75400D02*
Y85200D01*
Y122700D02*
Y132500D01*
Y95000D02*
Y104800D01*
X23950Y142300D02*
Y152100D01*
Y95000D02*
Y104800D01*
Y132500D02*
Y142300D01*
Y75400D02*
Y85200D01*
X37050Y132500D02*
Y142300D01*
Y85200D02*
Y95000D01*
X23950Y122700D02*
Y132500D01*
X119050Y95000D02*
Y104800D01*
Y75400D02*
Y85200D01*
X105950Y122700D02*
Y132500D01*
X119050Y85200D02*
Y95000D01*
Y132500D02*
Y142300D01*
X105950Y95000D02*
Y104800D01*
X119050Y122700D02*
Y132500D01*
X105950D02*
Y142300D01*
Y152100D01*
X119050Y142300D02*
Y152100D01*
X105950Y75400D02*
Y85200D01*
Y95000D01*
X78050Y385200D02*
Y395000D01*
X64950Y385200D02*
Y395000D01*
Y404800D01*
Y414600D01*
X78050Y395000D02*
Y404800D01*
X64950Y347700D02*
Y357500D01*
X78050D02*
Y367300D01*
X77925Y414725D02*
X78050Y414600D01*
Y337900D02*
Y347700D01*
Y357500D01*
X64950Y337900D02*
Y347700D01*
Y357500D02*
Y367300D01*
X78050Y404800D02*
Y414600D01*
X119050Y152100D02*
X119687Y151463D01*
D46*
X153598Y186701D02*
D03*
D47*
X166000Y182500D02*
D03*
Y172500D02*
D03*
Y162500D02*
D03*
Y152500D02*
D03*
D48*
X49500Y307000D02*
D03*
D49*
Y297000D02*
D03*
Y287000D02*
D03*
Y277000D02*
D03*
Y267000D02*
D03*
D50*
X37050Y75400D02*
D03*
Y85200D02*
D03*
Y95000D02*
D03*
Y104800D02*
D03*
X23950Y75400D02*
D03*
Y85200D02*
D03*
Y95000D02*
D03*
Y104800D02*
D03*
X37050Y122700D02*
D03*
Y132500D02*
D03*
Y142300D02*
D03*
Y152100D02*
D03*
X23950Y122700D02*
D03*
Y132500D02*
D03*
Y142300D02*
D03*
Y152100D02*
D03*
X160050Y337900D02*
D03*
Y347700D02*
D03*
Y357500D02*
D03*
Y367300D02*
D03*
X146950Y337900D02*
D03*
Y347700D02*
D03*
Y357500D02*
D03*
Y367300D02*
D03*
X160050Y385200D02*
D03*
Y395000D02*
D03*
Y404800D02*
D03*
Y414600D02*
D03*
X146950Y385200D02*
D03*
Y395000D02*
D03*
Y404800D02*
D03*
Y414600D02*
D03*
X64950D02*
D03*
Y404800D02*
D03*
Y395000D02*
D03*
Y385200D02*
D03*
X78050Y414600D02*
D03*
Y404800D02*
D03*
Y395000D02*
D03*
Y385200D02*
D03*
X64950Y367300D02*
D03*
Y357500D02*
D03*
Y347700D02*
D03*
Y337900D02*
D03*
X78050Y367300D02*
D03*
Y357500D02*
D03*
Y347700D02*
D03*
Y337900D02*
D03*
X119050Y75400D02*
D03*
Y85200D02*
D03*
Y95000D02*
D03*
Y104800D02*
D03*
X105950Y75400D02*
D03*
Y85200D02*
D03*
Y95000D02*
D03*
Y104800D02*
D03*
X119050Y122700D02*
D03*
Y132500D02*
D03*
Y142300D02*
D03*
Y152100D02*
D03*
X105950Y122700D02*
D03*
Y132500D02*
D03*
Y142300D02*
D03*
Y152100D02*
D03*
D51*
X33150Y424279D02*
D03*
Y390657D02*
D03*
D52*
X64500Y257500D02*
D03*
X71000Y274000D02*
D03*
X73500Y277500D02*
D03*
X46500Y215500D02*
D03*
X75000Y209500D02*
D03*
X28350Y215850D02*
D03*
X28500Y212500D02*
D03*
X46500D02*
D03*
X64000Y207500D02*
D03*
X130350Y199000D02*
D03*
X167000Y225000D02*
D03*
X152000Y209000D02*
D03*
X130350Y218500D02*
D03*
X14500Y322500D02*
D03*
X56500Y171000D02*
D03*
X43500Y319500D02*
D03*
X133700Y258000D02*
D03*
X130100D02*
D03*
X153500Y261500D02*
D03*
Y265000D02*
D03*
Y268000D02*
D03*
Y271000D02*
D03*
X138000Y295500D02*
D03*
X143500Y257500D02*
D03*
X28500Y228000D02*
D03*
X95500Y289500D02*
D03*
X91000Y326500D02*
D03*
X44000Y183000D02*
D03*
X14650Y309000D02*
D03*
X54000Y323000D02*
D03*
X130500Y291500D02*
D03*
X125000Y273500D02*
D03*
X126000Y291500D02*
D03*
X126500Y258000D02*
D03*
X121500Y291500D02*
D03*
X126000Y229000D02*
D03*
X91000Y211000D02*
D03*
X57500Y310000D02*
D03*
X41000Y308500D02*
D03*
X116500Y280500D02*
D03*
X122100Y258000D02*
D03*
X118500D02*
D03*
X71500Y168000D02*
D03*
X73000Y186500D02*
D03*
X46500Y221500D02*
D03*
Y218000D02*
D03*
X86500Y225000D02*
D03*
X89500Y221500D02*
D03*
X93000Y218000D02*
D03*
X107000Y273500D02*
D03*
X110000D02*
D03*
X105800Y258000D02*
D03*
X110000D02*
D03*
X114500Y273500D02*
D03*
Y258000D02*
D03*
X119000Y273500D02*
D03*
X100000Y273804D02*
D03*
X96000Y237500D02*
D03*
X86500Y231500D02*
D03*
X94850Y275000D02*
D03*
X58000Y201000D02*
D03*
X43000Y248500D02*
D03*
X28500Y222000D02*
D03*
Y225000D02*
D03*
Y219000D02*
D03*
X40500Y232500D02*
D03*
X83850Y261500D02*
D03*
X93000Y231500D02*
D03*
X89500D02*
D03*
X46500Y225000D02*
D03*
Y228500D02*
D03*
X83980Y264980D02*
D03*
Y267980D02*
D03*
X84000Y271000D02*
D03*
X73000Y191500D02*
D03*
Y196500D02*
D03*
X102500Y332000D02*
D03*
X48000Y188500D02*
D03*
Y202000D02*
D03*
X130000Y212000D02*
D03*
X28000Y302500D02*
D03*
D53*
X22671Y406308D02*
D03*
X38500Y409500D02*
D03*
X5750Y401500D02*
D03*
X20000D02*
D03*
X5750Y413500D02*
D03*
X21500D02*
D03*
D54*
X6500Y375000D02*
D03*
Y132000D02*
D03*
D55*
X102331Y301669D02*
D03*
Y306000D02*
D03*
Y310331D02*
D03*
X98000Y301669D02*
D03*
Y306000D02*
D03*
Y310331D02*
D03*
X93669Y301669D02*
D03*
Y306000D02*
D03*
Y310331D02*
D03*
M02*
