G04*
G04 #@! TF.GenerationSoftware,Altium Limited,Altium Designer,21.5.1 (32)*
G04*
G04 Layer_Physical_Order=3*
G04 Layer_Color=128*
%FSLAX25Y25*%
%MOIN*%
G70*
G04*
G04 #@! TF.SameCoordinates,8ECF54D6-24D7-40A2-BC74-F39D26A59D2B*
G04*
G04*
G04 #@! TF.FilePolarity,Negative*
G04*
G01*
G75*
%ADD56C,0.04000*%
%ADD57C,0.08798*%
G04:AMPARAMS|DCode=58|XSize=80.622mil|YSize=80.622mil|CornerRadius=0mil|HoleSize=0mil|Usage=FLASHONLY|Rotation=0.000|XOffset=0mil|YOffset=0mil|HoleType=Round|Shape=Relief|Width=3.5mil|Gap=3.5mil|Entries=4|*
%AMTHD58*
7,0,0,0.08062,0.07362,0.00350,45*
%
%ADD58THD58*%
%ADD59C,0.05700*%
%ADD60C,0.04243*%
G04:AMPARAMS|DCode=61|XSize=66.055mil|YSize=66.055mil|CornerRadius=0mil|HoleSize=0mil|Usage=FLASHONLY|Rotation=0.000|XOffset=0mil|YOffset=0mil|HoleType=Round|Shape=Relief|Width=3.5mil|Gap=3.5mil|Entries=4|*
%AMTHD61*
7,0,0,0.06606,0.05906,0.00350,45*
%
%ADD61THD61*%
%ADD62C,0.06015*%
G04:AMPARAMS|DCode=63|XSize=68.622mil|YSize=68.622mil|CornerRadius=0mil|HoleSize=0mil|Usage=FLASHONLY|Rotation=0.000|XOffset=0mil|YOffset=0mil|HoleType=Round|Shape=Relief|Width=3.5mil|Gap=3.5mil|Entries=4|*
%AMTHD63*
7,0,0,0.06862,0.06162,0.00350,45*
%
%ADD63THD63*%
%ADD64C,0.04500*%
%ADD66C,0.01500*%
%ADD67C,0.03500*%
%ADD68O,0.05424X0.02865*%
%ADD69C,0.01487*%
D56*
Y490000D01*
X184000D01*
Y0D02*
Y490000D01*
X0Y0D02*
X184000D01*
D57*
X153598Y186701D02*
D03*
D58*
X166000Y172500D02*
D03*
D59*
Y182500D02*
D03*
Y162500D02*
D03*
Y152500D02*
D03*
D60*
X49500Y307000D02*
D03*
Y287000D02*
D03*
Y277000D02*
D03*
Y267000D02*
D03*
D61*
Y297000D02*
D03*
D62*
X30500Y162500D02*
D03*
Y234200D02*
D03*
X153500Y255800D02*
D03*
Y327500D02*
D03*
X71500D02*
D03*
Y255800D02*
D03*
X112500Y162500D02*
D03*
Y234200D02*
D03*
D63*
X37050Y122700D02*
D03*
Y132500D02*
D03*
Y142300D02*
D03*
Y152100D02*
D03*
X146950Y337900D02*
D03*
Y347700D02*
D03*
Y357500D02*
D03*
Y367300D02*
D03*
X64950D02*
D03*
Y357500D02*
D03*
Y347700D02*
D03*
Y337900D02*
D03*
X119050Y122700D02*
D03*
Y132500D02*
D03*
Y142300D02*
D03*
Y152100D02*
D03*
D64*
X37050Y75400D02*
D03*
Y85200D02*
D03*
Y95000D02*
D03*
Y104800D02*
D03*
X23950Y75400D02*
D03*
Y85200D02*
D03*
Y95000D02*
D03*
Y104800D02*
D03*
Y122700D02*
D03*
Y132500D02*
D03*
Y142300D02*
D03*
Y152100D02*
D03*
X160050Y337900D02*
D03*
Y347700D02*
D03*
Y357500D02*
D03*
Y367300D02*
D03*
Y385200D02*
D03*
Y395000D02*
D03*
Y404800D02*
D03*
Y414600D02*
D03*
X146950Y385200D02*
D03*
Y395000D02*
D03*
Y404800D02*
D03*
Y414600D02*
D03*
X64950D02*
D03*
Y404800D02*
D03*
Y395000D02*
D03*
Y385200D02*
D03*
X78050Y414600D02*
D03*
Y404800D02*
D03*
Y395000D02*
D03*
Y385200D02*
D03*
Y367300D02*
D03*
Y357500D02*
D03*
Y347700D02*
D03*
Y337900D02*
D03*
X119050Y75400D02*
D03*
Y85200D02*
D03*
Y95000D02*
D03*
Y104800D02*
D03*
X105950Y75400D02*
D03*
Y85200D02*
D03*
Y95000D02*
D03*
Y104800D02*
D03*
Y122700D02*
D03*
Y132500D02*
D03*
Y142300D02*
D03*
Y152100D02*
D03*
D66*
X64500Y257500D02*
D03*
X71000Y274000D02*
D03*
X73500Y277500D02*
D03*
X46500Y215500D02*
D03*
X75000Y209500D02*
D03*
X28350Y215850D02*
D03*
X28500Y212500D02*
D03*
X46500D02*
D03*
X64000Y207500D02*
D03*
X130350Y199000D02*
D03*
X167000Y225000D02*
D03*
X130350Y218500D02*
D03*
X56500Y171000D02*
D03*
X6500Y375000D02*
D03*
Y132000D02*
D03*
X133700Y258000D02*
D03*
X130100D02*
D03*
X153500Y261500D02*
D03*
Y265000D02*
D03*
Y268000D02*
D03*
Y271000D02*
D03*
X138000Y295500D02*
D03*
X143500Y257500D02*
D03*
X28500Y228000D02*
D03*
X14650Y309000D02*
D03*
X54000Y323000D02*
D03*
X130500Y291500D02*
D03*
X125000Y273500D02*
D03*
X126000Y291500D02*
D03*
X126500Y258000D02*
D03*
X121500Y291500D02*
D03*
X126000Y229000D02*
D03*
X91000Y211000D02*
D03*
X57500Y310000D02*
D03*
X41000Y308500D02*
D03*
X116500Y280500D02*
D03*
X122100Y258000D02*
D03*
X118500D02*
D03*
X71500Y168000D02*
D03*
X73000Y186500D02*
D03*
X46500Y221500D02*
D03*
Y218000D02*
D03*
X86500Y225000D02*
D03*
X89500Y221500D02*
D03*
X93000Y218000D02*
D03*
X107000Y273500D02*
D03*
X110000D02*
D03*
X105800Y258000D02*
D03*
X110000D02*
D03*
X114500Y273500D02*
D03*
Y258000D02*
D03*
X119000Y273500D02*
D03*
X100000Y273804D02*
D03*
X96000Y237500D02*
D03*
X86500Y231500D02*
D03*
X94850Y275000D02*
D03*
X58000Y201000D02*
D03*
X43000Y248500D02*
D03*
X28500Y222000D02*
D03*
Y225000D02*
D03*
Y219000D02*
D03*
X40500Y232500D02*
D03*
X83850Y261500D02*
D03*
X93000Y231500D02*
D03*
X89500D02*
D03*
X46500Y225000D02*
D03*
Y228500D02*
D03*
X83980Y264980D02*
D03*
Y267980D02*
D03*
X84000Y271000D02*
D03*
X73000Y191500D02*
D03*
Y196500D02*
D03*
X102500Y332000D02*
D03*
X48000Y188500D02*
D03*
Y202000D02*
D03*
X130000Y212000D02*
D03*
X28000Y302500D02*
D03*
D67*
X22671Y406308D02*
D03*
X38500Y409500D02*
D03*
X5750Y401500D02*
D03*
X20000D02*
D03*
X5750Y413500D02*
D03*
X21500D02*
D03*
D68*
X33150Y424279D02*
D03*
Y390657D02*
D03*
D69*
X172500Y480000D02*
D03*
X165000Y465000D02*
D03*
X172500Y450000D02*
D03*
X165000Y435000D02*
D03*
X172500Y420000D02*
D03*
X165000Y405000D02*
D03*
X172500Y390000D02*
D03*
Y360000D02*
D03*
X165000Y345000D02*
D03*
X172500Y330000D02*
D03*
Y300000D02*
D03*
X165000Y195000D02*
D03*
X172500Y150000D02*
D03*
X165000Y135000D02*
D03*
X172500Y120000D02*
D03*
X165000Y105000D02*
D03*
X172500Y90000D02*
D03*
X165000Y75000D02*
D03*
X172500Y60000D02*
D03*
X165000Y45000D02*
D03*
X172500Y30000D02*
D03*
X165000Y15000D02*
D03*
X157500Y480000D02*
D03*
Y450000D02*
D03*
X150000Y435000D02*
D03*
X157500Y390000D02*
D03*
X150000Y375000D02*
D03*
X157500Y330000D02*
D03*
Y240000D02*
D03*
X150000Y225000D02*
D03*
X157500Y210000D02*
D03*
X150000Y195000D02*
D03*
X157500Y180000D02*
D03*
Y150000D02*
D03*
X150000Y135000D02*
D03*
X157500Y120000D02*
D03*
X150000Y105000D02*
D03*
X157500Y90000D02*
D03*
X150000Y75000D02*
D03*
X157500Y60000D02*
D03*
X150000Y45000D02*
D03*
X157500Y30000D02*
D03*
X150000Y15000D02*
D03*
X142500Y480000D02*
D03*
Y450000D02*
D03*
X135000Y435000D02*
D03*
X142500Y420000D02*
D03*
X135000Y405000D02*
D03*
X142500Y390000D02*
D03*
X135000Y375000D02*
D03*
X142500Y360000D02*
D03*
X135000Y345000D02*
D03*
X142500Y330000D02*
D03*
X135000Y315000D02*
D03*
Y255000D02*
D03*
X142500Y240000D02*
D03*
X135000Y225000D02*
D03*
Y195000D02*
D03*
X142500Y180000D02*
D03*
Y150000D02*
D03*
X135000Y135000D02*
D03*
X142500Y120000D02*
D03*
X135000Y105000D02*
D03*
X142500Y90000D02*
D03*
X135000Y75000D02*
D03*
X142500Y60000D02*
D03*
X135000Y45000D02*
D03*
X142500Y30000D02*
D03*
X135000Y15000D02*
D03*
X127500Y480000D02*
D03*
Y450000D02*
D03*
X120000Y435000D02*
D03*
X127500Y420000D02*
D03*
X120000Y405000D02*
D03*
X127500Y390000D02*
D03*
X120000Y375000D02*
D03*
X127500Y360000D02*
D03*
X120000Y345000D02*
D03*
X127500Y330000D02*
D03*
X120000Y315000D02*
D03*
X127500Y300000D02*
D03*
X120000Y285000D02*
D03*
X127500Y240000D02*
D03*
Y210000D02*
D03*
Y180000D02*
D03*
Y150000D02*
D03*
Y120000D02*
D03*
Y90000D02*
D03*
Y60000D02*
D03*
X120000Y45000D02*
D03*
X127500Y30000D02*
D03*
X120000Y15000D02*
D03*
X112500Y480000D02*
D03*
Y450000D02*
D03*
X105000Y435000D02*
D03*
X112500Y420000D02*
D03*
X105000Y405000D02*
D03*
X112500Y390000D02*
D03*
X105000Y375000D02*
D03*
X112500Y360000D02*
D03*
X105000Y345000D02*
D03*
X112500Y330000D02*
D03*
Y240000D02*
D03*
X105000Y165000D02*
D03*
X112500Y150000D02*
D03*
Y120000D02*
D03*
Y90000D02*
D03*
Y60000D02*
D03*
X105000Y45000D02*
D03*
X112500Y30000D02*
D03*
X105000Y15000D02*
D03*
X97500Y480000D02*
D03*
Y450000D02*
D03*
X90000Y435000D02*
D03*
X97500Y420000D02*
D03*
X90000Y405000D02*
D03*
X97500Y390000D02*
D03*
X90000Y375000D02*
D03*
X97500Y360000D02*
D03*
X90000Y345000D02*
D03*
Y195000D02*
D03*
Y165000D02*
D03*
X97500Y150000D02*
D03*
X90000Y135000D02*
D03*
X97500Y120000D02*
D03*
X90000Y105000D02*
D03*
X97500Y90000D02*
D03*
X90000Y75000D02*
D03*
X97500Y60000D02*
D03*
X90000Y45000D02*
D03*
X97500Y30000D02*
D03*
X90000Y15000D02*
D03*
X82500Y480000D02*
D03*
Y450000D02*
D03*
X75000Y435000D02*
D03*
X82500Y420000D02*
D03*
Y390000D02*
D03*
X75000Y375000D02*
D03*
X82500Y360000D02*
D03*
Y330000D02*
D03*
X75000Y165000D02*
D03*
X82500Y150000D02*
D03*
X75000Y135000D02*
D03*
X82500Y120000D02*
D03*
X75000Y105000D02*
D03*
X82500Y90000D02*
D03*
X75000Y75000D02*
D03*
Y45000D02*
D03*
X82500Y30000D02*
D03*
X75000Y15000D02*
D03*
X67500Y480000D02*
D03*
Y450000D02*
D03*
X60000Y435000D02*
D03*
X67500Y420000D02*
D03*
X60000Y405000D02*
D03*
X67500Y390000D02*
D03*
X60000Y345000D02*
D03*
X67500Y330000D02*
D03*
Y240000D02*
D03*
Y180000D02*
D03*
X60000Y165000D02*
D03*
X67500Y150000D02*
D03*
X60000Y135000D02*
D03*
X67500Y120000D02*
D03*
X60000Y105000D02*
D03*
X67500Y90000D02*
D03*
X60000Y75000D02*
D03*
Y45000D02*
D03*
X67500Y30000D02*
D03*
X60000Y15000D02*
D03*
X52500Y480000D02*
D03*
Y450000D02*
D03*
X45000Y435000D02*
D03*
X52500Y420000D02*
D03*
X45000Y405000D02*
D03*
X52500Y390000D02*
D03*
Y360000D02*
D03*
X45000Y345000D02*
D03*
X52500Y330000D02*
D03*
X45000Y285000D02*
D03*
Y255000D02*
D03*
X52500Y210000D02*
D03*
X45000Y195000D02*
D03*
Y165000D02*
D03*
X52500Y150000D02*
D03*
X45000Y135000D02*
D03*
X52500Y120000D02*
D03*
X45000Y105000D02*
D03*
X52500Y90000D02*
D03*
X45000Y75000D02*
D03*
Y45000D02*
D03*
X52500Y30000D02*
D03*
X45000Y15000D02*
D03*
X37500Y480000D02*
D03*
Y450000D02*
D03*
X30000Y435000D02*
D03*
X37500Y420000D02*
D03*
Y360000D02*
D03*
X30000Y345000D02*
D03*
X37500Y330000D02*
D03*
X30000Y285000D02*
D03*
X37500Y270000D02*
D03*
X30000Y255000D02*
D03*
X37500Y240000D02*
D03*
X30000Y195000D02*
D03*
Y135000D02*
D03*
Y105000D02*
D03*
Y75000D02*
D03*
Y45000D02*
D03*
X37500Y30000D02*
D03*
X30000Y15000D02*
D03*
X22500Y480000D02*
D03*
X15000Y465000D02*
D03*
X22500Y450000D02*
D03*
X15000Y435000D02*
D03*
X22500Y420000D02*
D03*
X15000Y405000D02*
D03*
X22500Y390000D02*
D03*
Y360000D02*
D03*
X15000Y345000D02*
D03*
X22500Y330000D02*
D03*
Y300000D02*
D03*
X15000Y285000D02*
D03*
X22500Y270000D02*
D03*
X15000Y255000D02*
D03*
X22500Y240000D02*
D03*
X15000Y225000D02*
D03*
Y195000D02*
D03*
Y165000D02*
D03*
Y135000D02*
D03*
Y105000D02*
D03*
Y75000D02*
D03*
Y45000D02*
D03*
X22500Y30000D02*
D03*
X15000Y15000D02*
D03*
X102331Y301669D02*
D03*
Y306000D02*
D03*
Y310331D02*
D03*
X98000Y301669D02*
D03*
Y306000D02*
D03*
Y310331D02*
D03*
X93669Y301669D02*
D03*
Y306000D02*
D03*
Y310331D02*
D03*
M02*
