G04*
G04 #@! TF.GenerationSoftware,Altium Limited,Altium Designer,21.5.1 (32)*
G04*
G04 Layer_Color=16711935*
%FSLAX25Y25*%
%MOIN*%
G70*
G04*
G04 #@! TF.SameCoordinates,9AD95912-260A-4B2D-9037-AC9445484B82*
G04*
G04*
G04 #@! TF.FilePolarity,Negative*
G04*
G01*
G75*
%ADD16R,0.04134X0.03740*%
%ADD17R,0.02559X0.02953*%
%ADD18R,0.03740X0.04134*%
%ADD19R,0.02953X0.02559*%
%ADD26C,0.04638*%
%ADD27C,0.08091*%
%ADD28R,0.06496X0.06496*%
%ADD29C,0.06496*%
%ADD30C,0.00591*%
%ADD31C,0.07091*%
%ADD32O,0.07284X0.04528*%
G04:AMPARAMS|DCode=71|XSize=51.18mil|YSize=23.62mil|CornerRadius=2.01mil|HoleSize=0mil|Usage=FLASHONLY|Rotation=270.000|XOffset=0mil|YOffset=0mil|HoleType=Round|Shape=RoundedRectangle|*
%AMROUNDEDRECTD71*
21,1,0.05118,0.01961,0,0,270.0*
21,1,0.04717,0.02362,0,0,270.0*
1,1,0.00402,-0.00980,-0.02358*
1,1,0.00402,-0.00980,0.02358*
1,1,0.00402,0.00980,0.02358*
1,1,0.00402,0.00980,-0.02358*
%
%ADD71ROUNDEDRECTD71*%
%ADD76R,0.04375X0.01775*%
%ADD77O,0.08465X0.02953*%
%ADD78R,0.06496X0.06102*%
%ADD79O,0.01378X0.03740*%
%ADD80O,0.03740X0.01378*%
%ADD81R,0.15158X0.15158*%
D16*
X37000Y308256D02*
D03*
Y302744D02*
D03*
X14500Y318756D02*
D03*
Y313244D02*
D03*
X95500Y279988D02*
D03*
Y285500D02*
D03*
X138000Y274244D02*
D03*
Y279756D02*
D03*
X138000Y290756D02*
D03*
Y285244D02*
D03*
X99000Y326744D02*
D03*
Y332256D02*
D03*
D17*
X37000Y314531D02*
D03*
Y318468D02*
D03*
D18*
X53756Y319000D02*
D03*
X48244D02*
D03*
D19*
X44032Y314000D02*
D03*
X47969D02*
D03*
X52031D02*
D03*
X55968D02*
D03*
D26*
X153598Y186701D02*
D03*
D27*
X166000Y182500D02*
D03*
Y172500D02*
D03*
Y162500D02*
D03*
Y152500D02*
D03*
D28*
X49500Y307000D02*
D03*
D29*
Y297000D02*
D03*
Y287000D02*
D03*
Y277000D02*
D03*
Y267000D02*
D03*
D30*
X30500Y162500D02*
D03*
Y234200D02*
D03*
X153500Y255800D02*
D03*
Y327500D02*
D03*
X71500D02*
D03*
Y255800D02*
D03*
X112500Y162500D02*
D03*
Y234200D02*
D03*
D31*
X37050Y75400D02*
D03*
Y85200D02*
D03*
Y95000D02*
D03*
Y104800D02*
D03*
X23950Y75400D02*
D03*
Y85200D02*
D03*
Y95000D02*
D03*
Y104800D02*
D03*
X37050Y122700D02*
D03*
Y132500D02*
D03*
Y142300D02*
D03*
Y152100D02*
D03*
X23950Y122700D02*
D03*
Y132500D02*
D03*
Y142300D02*
D03*
Y152100D02*
D03*
X160050Y337900D02*
D03*
Y347700D02*
D03*
Y357500D02*
D03*
Y367300D02*
D03*
X146950Y337900D02*
D03*
Y347700D02*
D03*
Y357500D02*
D03*
Y367300D02*
D03*
X160050Y385200D02*
D03*
Y395000D02*
D03*
Y404800D02*
D03*
Y414600D02*
D03*
X146950Y385200D02*
D03*
Y395000D02*
D03*
Y404800D02*
D03*
Y414600D02*
D03*
X64950D02*
D03*
Y404800D02*
D03*
Y395000D02*
D03*
Y385200D02*
D03*
X78050Y414600D02*
D03*
Y404800D02*
D03*
Y395000D02*
D03*
Y385200D02*
D03*
X64950Y367300D02*
D03*
Y357500D02*
D03*
Y347700D02*
D03*
Y337900D02*
D03*
X78050Y367300D02*
D03*
Y357500D02*
D03*
Y347700D02*
D03*
Y337900D02*
D03*
X119050Y75400D02*
D03*
Y85200D02*
D03*
Y95000D02*
D03*
Y104800D02*
D03*
X105950Y75400D02*
D03*
Y85200D02*
D03*
Y95000D02*
D03*
Y104800D02*
D03*
X119050Y122700D02*
D03*
Y132500D02*
D03*
Y142300D02*
D03*
Y152100D02*
D03*
X105950Y122700D02*
D03*
Y132500D02*
D03*
Y142300D02*
D03*
Y152100D02*
D03*
D32*
X33150Y424279D02*
D03*
Y390657D02*
D03*
D71*
X22500Y318500D02*
D03*
X29980D02*
D03*
X26240Y310232D02*
D03*
D76*
X122957Y282500D02*
D03*
X130043Y279744D02*
D03*
Y285256D02*
D03*
D77*
X116717Y211500D02*
D03*
Y206500D02*
D03*
Y201500D02*
D03*
Y196500D02*
D03*
Y191500D02*
D03*
Y186500D02*
D03*
Y181500D02*
D03*
Y176500D02*
D03*
Y171500D02*
D03*
X81283Y211500D02*
D03*
Y206500D02*
D03*
Y201500D02*
D03*
Y196500D02*
D03*
Y191500D02*
D03*
Y186500D02*
D03*
Y181500D02*
D03*
Y176500D02*
D03*
Y171500D02*
D03*
D78*
X89000Y277063D02*
D03*
Y284937D02*
D03*
D79*
X105087Y296453D02*
D03*
X103512D02*
D03*
X101937D02*
D03*
X100362D02*
D03*
X98787D02*
D03*
X97213D02*
D03*
X95638D02*
D03*
X94063D02*
D03*
X92488D02*
D03*
X90913D02*
D03*
Y315547D02*
D03*
X92488D02*
D03*
X94063D02*
D03*
X95638D02*
D03*
X97213D02*
D03*
X98787D02*
D03*
X100362D02*
D03*
X101937D02*
D03*
X103512D02*
D03*
X105087D02*
D03*
D80*
X88453Y298913D02*
D03*
Y300488D02*
D03*
Y302063D02*
D03*
Y303638D02*
D03*
Y305213D02*
D03*
Y306787D02*
D03*
Y308362D02*
D03*
Y309937D02*
D03*
Y311512D02*
D03*
Y313087D02*
D03*
X107547D02*
D03*
Y311512D02*
D03*
Y309937D02*
D03*
Y308362D02*
D03*
Y306787D02*
D03*
Y305213D02*
D03*
Y303638D02*
D03*
Y302063D02*
D03*
Y300488D02*
D03*
Y298913D02*
D03*
D81*
X98000Y306000D02*
D03*
M02*
