G04*
G04 #@! TF.GenerationSoftware,Altium Limited,Altium Designer,21.5.1 (32)*
G04*
G04 Layer_Physical_Order=3*
G04 Layer_Color=128*
%FSLAX25Y25*%
%MOIN*%
G70*
G04*
G04 #@! TF.SameCoordinates,9AD95912-260A-4B2D-9037-AC9445484B82*
G04*
G04*
G04 #@! TF.FilePolarity,Negative*
G04*
G01*
G75*
%ADD56C,0.04000*%
%ADD57C,0.08798*%
G04:AMPARAMS|DCode=58|XSize=80.622mil|YSize=80.622mil|CornerRadius=0mil|HoleSize=0mil|Usage=FLASHONLY|Rotation=0.000|XOffset=0mil|YOffset=0mil|HoleType=Round|Shape=Relief|Width=3.5mil|Gap=3.5mil|Entries=4|*
%AMTHD58*
7,0,0,0.08062,0.07362,0.00350,45*
%
%ADD58THD58*%
%ADD59C,0.05700*%
%ADD60C,0.04243*%
G04:AMPARAMS|DCode=61|XSize=66.055mil|YSize=66.055mil|CornerRadius=0mil|HoleSize=0mil|Usage=FLASHONLY|Rotation=0.000|XOffset=0mil|YOffset=0mil|HoleType=Round|Shape=Relief|Width=3.5mil|Gap=3.5mil|Entries=4|*
%AMTHD61*
7,0,0,0.06606,0.05906,0.00350,45*
%
%ADD61THD61*%
%ADD62C,0.06015*%
G04:AMPARAMS|DCode=63|XSize=68.622mil|YSize=68.622mil|CornerRadius=0mil|HoleSize=0mil|Usage=FLASHONLY|Rotation=0.000|XOffset=0mil|YOffset=0mil|HoleType=Round|Shape=Relief|Width=3.5mil|Gap=3.5mil|Entries=4|*
%AMTHD63*
7,0,0,0.06862,0.06162,0.00350,45*
%
%ADD63THD63*%
%ADD64C,0.04500*%
%ADD66C,0.01500*%
%ADD67C,0.03500*%
%ADD68O,0.05424X0.02865*%
%ADD69C,0.01487*%
D56*
Y490000D01*
X184000D01*
Y0D02*
Y490000D01*
X0Y0D02*
X184000D01*
D57*
X153598Y186701D02*
D03*
D58*
X166000Y172500D02*
D03*
D59*
Y182500D02*
D03*
Y162500D02*
D03*
Y152500D02*
D03*
D60*
X49500Y307000D02*
D03*
Y287000D02*
D03*
Y277000D02*
D03*
Y267000D02*
D03*
D61*
Y297000D02*
D03*
D62*
X30500Y162500D02*
D03*
Y234200D02*
D03*
X153500Y255800D02*
D03*
Y327500D02*
D03*
X71500D02*
D03*
Y255800D02*
D03*
X112500Y162500D02*
D03*
Y234200D02*
D03*
D63*
X37050Y122700D02*
D03*
Y132500D02*
D03*
Y142300D02*
D03*
Y152100D02*
D03*
X146950Y337900D02*
D03*
Y347700D02*
D03*
Y357500D02*
D03*
Y367300D02*
D03*
X64950D02*
D03*
Y357500D02*
D03*
Y347700D02*
D03*
Y337900D02*
D03*
X119050Y122700D02*
D03*
Y132500D02*
D03*
Y142300D02*
D03*
Y152100D02*
D03*
D64*
X37050Y75400D02*
D03*
Y85200D02*
D03*
Y95000D02*
D03*
Y104800D02*
D03*
X23950Y75400D02*
D03*
Y85200D02*
D03*
Y95000D02*
D03*
Y104800D02*
D03*
Y122700D02*
D03*
Y132500D02*
D03*
Y142300D02*
D03*
Y152100D02*
D03*
X160050Y337900D02*
D03*
Y347700D02*
D03*
Y357500D02*
D03*
Y367300D02*
D03*
Y385200D02*
D03*
Y395000D02*
D03*
Y404800D02*
D03*
Y414600D02*
D03*
X146950Y385200D02*
D03*
Y395000D02*
D03*
Y404800D02*
D03*
Y414600D02*
D03*
X64950D02*
D03*
Y404800D02*
D03*
Y395000D02*
D03*
Y385200D02*
D03*
X78050Y414600D02*
D03*
Y404800D02*
D03*
Y395000D02*
D03*
Y385200D02*
D03*
Y367300D02*
D03*
Y357500D02*
D03*
Y347700D02*
D03*
Y337900D02*
D03*
X119050Y75400D02*
D03*
Y85200D02*
D03*
Y95000D02*
D03*
Y104800D02*
D03*
X105950Y75400D02*
D03*
Y85200D02*
D03*
Y95000D02*
D03*
Y104800D02*
D03*
Y122700D02*
D03*
Y132500D02*
D03*
Y142300D02*
D03*
Y152100D02*
D03*
D66*
X64500Y257500D02*
D03*
X71000Y274000D02*
D03*
X73500Y277500D02*
D03*
X46500Y215500D02*
D03*
X75000Y209500D02*
D03*
X28350Y215850D02*
D03*
X28500Y212500D02*
D03*
X46500D02*
D03*
X64000Y207500D02*
D03*
X130350Y199000D02*
D03*
X167000Y225000D02*
D03*
X130350Y218500D02*
D03*
X56500Y171000D02*
D03*
X6500Y375000D02*
D03*
Y132000D02*
D03*
X133700Y258000D02*
D03*
X130100D02*
D03*
X153500Y261500D02*
D03*
Y265000D02*
D03*
Y268000D02*
D03*
Y271000D02*
D03*
X138000Y295500D02*
D03*
X143500Y257500D02*
D03*
X28500Y228000D02*
D03*
X14650Y309000D02*
D03*
X54000Y323000D02*
D03*
X130500Y291500D02*
D03*
X125000Y273500D02*
D03*
X126000Y291500D02*
D03*
X126500Y258000D02*
D03*
X121500Y291500D02*
D03*
X126000Y229000D02*
D03*
X91000Y211000D02*
D03*
X57500Y310000D02*
D03*
X41000Y308500D02*
D03*
X116500Y280500D02*
D03*
X122100Y258000D02*
D03*
X118500D02*
D03*
X71500Y168000D02*
D03*
X73000Y186500D02*
D03*
X46500Y221500D02*
D03*
Y218000D02*
D03*
X86500Y225000D02*
D03*
X89500Y221500D02*
D03*
X93000Y218000D02*
D03*
X107000Y273500D02*
D03*
X110000D02*
D03*
X105800Y258000D02*
D03*
X110000D02*
D03*
X114500Y273500D02*
D03*
Y258000D02*
D03*
X119000Y273500D02*
D03*
X100000Y273804D02*
D03*
X96000Y237500D02*
D03*
X86500Y231500D02*
D03*
X94850Y275000D02*
D03*
X58000Y201000D02*
D03*
X43000Y248500D02*
D03*
X28500Y222000D02*
D03*
Y225000D02*
D03*
Y219000D02*
D03*
X40500Y232500D02*
D03*
X83850Y261500D02*
D03*
X93000Y231500D02*
D03*
X89500D02*
D03*
X46500Y225000D02*
D03*
Y228500D02*
D03*
X83980Y264980D02*
D03*
Y267980D02*
D03*
X84000Y271000D02*
D03*
X73000Y191500D02*
D03*
Y196500D02*
D03*
X102500Y332000D02*
D03*
X48000Y188500D02*
D03*
Y202000D02*
D03*
X130000Y212000D02*
D03*
X28000Y302500D02*
D03*
D67*
X22671Y406308D02*
D03*
X38500Y409500D02*
D03*
X5750Y401500D02*
D03*
X20000D02*
D03*
X5750Y413500D02*
D03*
X21500D02*
D03*
D68*
X33150Y424279D02*
D03*
Y390657D02*
D03*
D69*
X102331Y301669D02*
D03*
Y306000D02*
D03*
Y310331D02*
D03*
X98000Y301669D02*
D03*
Y306000D02*
D03*
Y310331D02*
D03*
X93669Y301669D02*
D03*
Y306000D02*
D03*
Y310331D02*
D03*
M02*
