G04*
G04 #@! TF.GenerationSoftware,Altium Limited,Altium Designer,21.5.1 (32)*
G04*
G04 Layer_Color=65535*
%FSLAX25Y25*%
%MOIN*%
G70*
G04*
G04 #@! TF.SameCoordinates,8ECF54D6-24D7-40A2-BC74-F39D26A59D2B*
G04*
G04*
G04 #@! TF.FilePolarity,Positive*
G04*
G01*
G75*
%ADD10C,0.00787*%
%ADD11C,0.00984*%
%ADD12C,0.00394*%
%ADD13C,0.00600*%
%ADD14C,0.01000*%
D10*
X166000Y139902D02*
G03*
X166787Y139902I394J0D01*
G01*
D02*
G03*
X166000Y139902I-394J0D01*
G01*
X143508Y221342D02*
X160043D01*
X152957Y201658D02*
X160043D01*
X44500Y262000D02*
X54500D01*
X44500D02*
Y312000D01*
X54500Y262000D02*
Y312000D01*
X44500D02*
X54500D01*
X64201Y183315D02*
Y197685D01*
X51799Y183315D02*
X64201D01*
X51799D02*
Y197685D01*
X64201D01*
D11*
X61445Y199850D02*
G03*
X61445Y199850I-492J0D01*
G01*
D12*
X158126Y191693D02*
X181748D01*
Y143307D02*
Y191693D01*
X150350Y143307D02*
X181748D01*
X150350D02*
Y182028D01*
D13*
X144401Y164967D02*
Y163900D01*
Y164434D01*
X147066D01*
X147599Y163900D01*
Y163367D01*
X147066Y162834D01*
X144401Y168166D02*
X144934Y167099D01*
X146000Y166033D01*
X147066D01*
X147599Y166566D01*
Y167633D01*
X147066Y168166D01*
X146533D01*
X146000Y167633D01*
Y166033D01*
X154834Y227099D02*
Y224434D01*
X155367Y223901D01*
X156434D01*
X156967Y224434D01*
Y227099D01*
X160166D02*
X159099Y226566D01*
X158033Y225500D01*
Y224434D01*
X158566Y223901D01*
X159633D01*
X160166Y224434D01*
Y224967D01*
X159633Y225500D01*
X158033D01*
X58001Y206100D02*
Y203434D01*
X58534Y202901D01*
X59601D01*
X60134Y203434D01*
Y206100D01*
X61200Y202901D02*
X62267D01*
X61733D01*
Y206100D01*
X61200Y205566D01*
X63866D02*
X64399Y206100D01*
X65465D01*
X65999Y205566D01*
Y203434D01*
X65465Y202901D01*
X64399D01*
X63866Y203434D01*
Y205566D01*
X16235Y252901D02*
Y256100D01*
X17834D01*
X18367Y255566D01*
Y254500D01*
X17834Y253967D01*
X16235D01*
X17301D02*
X18367Y252901D01*
X21566D02*
X19434D01*
X21566Y255033D01*
Y255566D01*
X21033Y256100D01*
X19967D01*
X19434Y255566D01*
X24765Y252901D02*
X22633D01*
X24765Y255033D01*
Y255566D01*
X24232Y256100D01*
X23166D01*
X22633Y255566D01*
X47600Y230268D02*
X44401D01*
Y231867D01*
X44934Y232400D01*
X46000D01*
X46533Y231867D01*
Y230268D01*
Y231334D02*
X47600Y232400D01*
Y235599D02*
Y233467D01*
X45467Y235599D01*
X44934D01*
X44401Y235066D01*
Y234000D01*
X44934Y233467D01*
X47600Y236666D02*
Y237732D01*
Y237199D01*
X44401D01*
X44934Y236666D01*
X18235Y241401D02*
Y244600D01*
X19834D01*
X20367Y244066D01*
Y243000D01*
X19834Y242467D01*
X18235D01*
X19301D02*
X20367Y241401D01*
X23566D02*
X21434D01*
X23566Y243533D01*
Y244066D01*
X23033Y244600D01*
X21967D01*
X21434Y244066D01*
X24633D02*
X25166Y244600D01*
X26232D01*
X26765Y244066D01*
Y241934D01*
X26232Y241401D01*
X25166D01*
X24633Y241934D01*
Y244066D01*
X60100Y232001D02*
X56901D01*
Y233601D01*
X57434Y234134D01*
X58500D01*
X59033Y233601D01*
Y232001D01*
Y233068D02*
X60100Y234134D01*
Y235200D02*
Y236267D01*
Y235733D01*
X56901D01*
X57434Y235200D01*
X59566Y237866D02*
X60100Y238399D01*
Y239465D01*
X59566Y239999D01*
X57434D01*
X56901Y239465D01*
Y238399D01*
X57434Y237866D01*
X57967D01*
X58500Y238399D01*
Y239999D01*
X40600Y282867D02*
X37400D01*
Y284467D01*
X37934Y285000D01*
X39000D01*
X39533Y284467D01*
Y282867D01*
X40600Y286066D02*
Y287133D01*
Y286599D01*
X37400D01*
X37934Y286066D01*
X28533Y432699D02*
X27466D01*
X27999D01*
Y430033D01*
X27466Y429500D01*
X26933D01*
X26400Y430033D01*
X31732Y432699D02*
X29599D01*
Y431100D01*
X30665Y431633D01*
X31198D01*
X31732Y431100D01*
Y430033D01*
X31198Y429500D01*
X30132D01*
X29599Y430033D01*
X31867Y255066D02*
X31334Y255599D01*
X30268D01*
X29735Y255066D01*
Y252934D01*
X30268Y252400D01*
X31334D01*
X31867Y252934D01*
X35066Y252400D02*
X32934D01*
X35066Y254533D01*
Y255066D01*
X34533Y255599D01*
X33467D01*
X32934Y255066D01*
X36133Y252934D02*
X36666Y252400D01*
X37732D01*
X38265Y252934D01*
Y255066D01*
X37732Y255599D01*
X36666D01*
X36133Y255066D01*
Y254533D01*
X36666Y254000D01*
X38265D01*
X45934Y243367D02*
X45401Y242834D01*
Y241768D01*
X45934Y241235D01*
X48066D01*
X48599Y241768D01*
Y242834D01*
X48066Y243367D01*
X48599Y246566D02*
Y244434D01*
X46467Y246566D01*
X45934D01*
X45401Y246033D01*
Y244967D01*
X45934Y244434D01*
Y247633D02*
X45401Y248166D01*
Y249232D01*
X45934Y249765D01*
X46467D01*
X47000Y249232D01*
X47533Y249765D01*
X48066D01*
X48599Y249232D01*
Y248166D01*
X48066Y247633D01*
X47533D01*
X47000Y248166D01*
X46467Y247633D01*
X45934D01*
X47000Y248166D02*
Y249232D01*
X127434Y208867D02*
X126900Y208334D01*
Y207268D01*
X127434Y206735D01*
X129566D01*
X130099Y207268D01*
Y208334D01*
X129566Y208867D01*
X127434Y209934D02*
X126900Y210467D01*
Y211533D01*
X127434Y212066D01*
X127967D01*
X128500Y211533D01*
Y211000D01*
Y211533D01*
X129033Y212066D01*
X129566D01*
X130099Y211533D01*
Y210467D01*
X129566Y209934D01*
X130099Y215265D02*
Y213133D01*
X127967Y215265D01*
X127434D01*
X126900Y214732D01*
Y213666D01*
X127434Y213133D01*
X135400Y221066D02*
X134867Y221600D01*
X133801D01*
X133268Y221066D01*
Y218934D01*
X133801Y218401D01*
X134867D01*
X135400Y218934D01*
X136467Y221066D02*
X137000Y221600D01*
X138066D01*
X138600Y221066D01*
Y220533D01*
X138066Y220000D01*
X137533D01*
X138066D01*
X138600Y219467D01*
Y218934D01*
X138066Y218401D01*
X137000D01*
X136467Y218934D01*
X139666Y218401D02*
X140732D01*
X140199D01*
Y221600D01*
X139666Y221066D01*
X63066Y177033D02*
X63599Y177566D01*
Y178633D01*
X63066Y179166D01*
X60934D01*
X60400Y178633D01*
Y177566D01*
X60934Y177033D01*
X60400Y174367D02*
X63599D01*
X62000Y175967D01*
Y173834D01*
X45967Y206566D02*
X45434Y207100D01*
X44367D01*
X43834Y206566D01*
Y204434D01*
X44367Y203901D01*
X45434D01*
X45967Y204434D01*
X47033Y206566D02*
X47566Y207100D01*
X48633D01*
X49166Y206566D01*
Y206033D01*
X48633Y205500D01*
X48099D01*
X48633D01*
X49166Y204967D01*
Y204434D01*
X48633Y203901D01*
X47566D01*
X47033Y204434D01*
X58533Y430499D02*
X57466D01*
X57999D01*
Y427833D01*
X57466Y427300D01*
X56933D01*
X56400Y427833D01*
X61199Y427300D02*
Y430499D01*
X59599Y428899D01*
X61732D01*
X140533Y430499D02*
X139466D01*
X139999D01*
Y427833D01*
X139466Y427300D01*
X138933D01*
X138400Y427833D01*
X143732Y427300D02*
X141599D01*
X143732Y429433D01*
Y429966D01*
X143199Y430499D01*
X142132D01*
X141599Y429966D01*
X17000Y236100D02*
X15934D01*
X16467D01*
Y233434D01*
X15934Y232901D01*
X15401D01*
X14867Y233434D01*
X18066Y232901D02*
X19133D01*
X18599D01*
Y236100D01*
X18066Y235566D01*
D14*
X101799Y247898D02*
X99799D01*
X100799D01*
Y242900D01*
X99799Y241900D01*
X98800D01*
X97800Y242900D01*
X103798Y246898D02*
X104798Y247898D01*
X106797D01*
X107797Y246898D01*
Y245899D01*
X106797Y244899D01*
X105797D01*
X106797D01*
X107797Y243899D01*
Y242900D01*
X106797Y241900D01*
X104798D01*
X103798Y242900D01*
M02*
