M48
;Layer_Color=9474304
;FILE_FORMAT=2:4
INCH,LZ
;TYPE=PLATED
T1F00S00C0.0079
T2F00S00C0.0080
T4F00S00C0.0280
T5F00S00C0.0354
T6F00S00C0.0380
T7F00S00C0.0500
;TYPE=NON_PLATED
T8F00S00C0.0532
T9F00S00C0.0810
%
T01
X009367Y030167
Y0306
X0098
X010233
Y030167
X0098
Y031033
X010233
X009367
T02
X00065Y0132
X0167Y0225
X0152Y0209
X013Y0212
X013035Y02185
X0126Y0229
X01265Y0258
X01301
X01337
X01435Y02575
X01535Y02615
Y0265
Y0268
Y0271
X0125Y02735
X0119
X01145
X011
X0107
X01Y02738
X009485Y0275
X0084Y0271
X008398Y026798
Y026498
X008385Y02615
X00645Y02575
X0071Y0274
X00735Y02775
X00955Y02895
X01215Y02915
X0126
X01305
X0138Y02955
X01165Y02805
X01185Y0258
X01221
X01145
X011
X01058
X0096Y02375
X0093Y02315
X00895
X00865
Y0225
X00895Y02215
X0093Y0218
X0091Y0211
X0075Y02095
X0064Y02075
X0058Y0201
X0048Y0202
X00465Y02125
Y02155
Y0218
Y02215
Y0225
Y02285
X00405Y02325
X00285Y0228
Y0225
Y0222
Y0219
X002835Y021585
X00285Y02125
X0048Y01885
X0044Y0183
X00565Y0171
X00715Y0168
X0073Y01865
Y01915
Y01965
X013035Y0199
X0043Y02485
X0041Y03085
X00575Y031
X0028Y03025
X001465Y0309
X00145Y03225
X00435Y03195
X0054Y0323
X0091Y03265
X01025Y0332
X00065Y0375
T04
X000575Y04015
Y04135
X00215
X002267Y040631
X002Y04015
X00385Y04095
T05
X00495Y0267
Y0277
Y0287
Y0297
Y0307
T06
X002395Y00754
Y00852
Y0095
Y01048
X003705
Y0095
Y00852
Y00754
Y01227
Y01325
Y01423
Y01521
X002395
Y01423
Y01325
Y01227
X010595
Y01325
Y01423
Y01521
X011905
Y01423
Y01325
Y01227
Y01048
Y0095
Y00852
Y00754
X010595
Y00852
Y0095
Y01048
X007805Y03379
Y03477
Y03575
Y03673
X006495
Y03575
Y03477
Y03379
Y03852
Y0395
Y04048
Y04146
X007805
Y04048
Y0395
Y03852
X014695
Y0395
Y04048
Y04146
Y03673
Y03575
Y03477
Y03379
X016005
Y03477
Y03575
Y03673
Y03852
Y0395
Y04048
Y04146
T07
X0166Y01525
Y01625
Y01725
Y01825
T08
X00305Y01625
Y02342
X00715Y02558
X01125Y02342
X01535Y02558
X01125Y01625
X01535Y03275
X00715
T09
X01536Y01867
M30
