G04*
G04 #@! TF.GenerationSoftware,Altium Limited,Altium Designer,21.5.1 (32)*
G04*
G04 Layer_Physical_Order=4*
G04 Layer_Color=16711680*
%FSLAX25Y25*%
%MOIN*%
G70*
G04*
G04 #@! TF.SameCoordinates,2FE26025-303F-4DC1-B2D2-7F731E1EADFF*
G04*
G04*
G04 #@! TF.FilePolarity,Positive*
G04*
G01*
G75*
%ADD12C,0.01000*%
%ADD81R,0.03937X0.17953*%
%ADD94R,0.01968X0.02362*%
%ADD95R,0.03150X0.03543*%
%ADD100R,0.02362X0.01968*%
%ADD101R,0.03543X0.03150*%
%ADD106R,0.05512X0.05906*%
%ADD107R,0.05906X0.05512*%
%ADD125C,0.01772*%
%ADD135R,0.30300X0.40000*%
%ADD136R,0.01968X0.40000*%
%ADD138R,0.10236X0.04331*%
%ADD139C,0.00500*%
%ADD141C,0.00679*%
%ADD142C,0.00451*%
%ADD143C,0.01500*%
%ADD144C,0.02000*%
%ADD145C,0.30000*%
%ADD146C,0.05906*%
%ADD147R,0.05906X0.05906*%
%ADD148C,0.07400*%
%ADD149C,0.04500*%
%ADD150C,0.13000*%
%ADD151C,0.01800*%
%ADD152C,0.01968*%
%ADD153C,0.03000*%
%ADD154C,0.02000*%
%ADD166R,0.05512X0.05512*%
%ADD167R,0.12992X0.08661*%
%ADD168O,0.01181X0.01378*%
%ADD169R,0.06299X0.03937*%
%ADD170R,0.04331X0.06693*%
%ADD171C,0.20000*%
%ADD172R,0.30500X0.09000*%
G36*
X263258Y313693D02*
X263432Y313432D01*
X263693Y313258D01*
X264000Y313197D01*
X513197D01*
Y39803D01*
X477000D01*
Y78500D01*
X469134D01*
Y87502D01*
X466815D01*
X464497D01*
Y78500D01*
X448503D01*
Y87502D01*
X446185D01*
X443866D01*
Y78500D01*
X434500D01*
Y39803D01*
X361000D01*
Y78500D01*
X352449D01*
Y87502D01*
X350131D01*
X347812D01*
Y78500D01*
X331819D01*
Y87502D01*
X329501D01*
X327182D01*
Y78500D01*
X319000D01*
Y39803D01*
X188500D01*
Y148500D01*
X185500Y151500D01*
X91000D01*
X88500Y149000D01*
Y39803D01*
X40173D01*
Y313197D01*
X102500D01*
X102807Y313258D01*
X103068Y313432D01*
X103242Y313693D01*
X103303Y314000D01*
X105932D01*
Y313000D01*
X106044Y312729D01*
X106316Y312616D01*
X108450D01*
X108642Y312155D01*
X108620Y312133D01*
X108316Y311398D01*
Y310602D01*
X108620Y309867D01*
X109183Y309304D01*
X109918Y309000D01*
X110713D01*
X111448Y309304D01*
X112011Y309867D01*
X112315Y310602D01*
Y311398D01*
X112011Y312133D01*
X111989Y312155D01*
X112181Y312616D01*
X130450D01*
X130642Y312155D01*
X130620Y312133D01*
X130315Y311398D01*
Y310602D01*
X130620Y309867D01*
X131183Y309304D01*
X131918Y309000D01*
X132713D01*
X133448Y309304D01*
X134011Y309867D01*
X134316Y310602D01*
Y311398D01*
X134011Y312133D01*
X133989Y312155D01*
X134181Y312616D01*
X136816D01*
X137087Y312729D01*
X137199Y313000D01*
Y314000D01*
X147430D01*
X147622Y313538D01*
X130164Y296080D01*
X129621Y296244D01*
X129620Y296248D01*
X129431Y296530D01*
X128846Y297116D01*
X128563Y297305D01*
X128230Y297371D01*
X104924D01*
X104609Y297687D01*
X104094Y297900D01*
X103537D01*
X103023Y297687D01*
X102629Y297293D01*
X102416Y296778D01*
Y296221D01*
X102629Y295707D01*
X103023Y295313D01*
X103537Y295100D01*
X104094D01*
X104609Y295313D01*
X104924Y295629D01*
X118129D01*
Y184756D01*
X118195Y184423D01*
X118384Y184140D01*
X119874Y182650D01*
Y179827D01*
X124126D01*
Y183685D01*
X124249Y183795D01*
X124293Y183813D01*
X124687Y184207D01*
X124744Y184346D01*
X128729D01*
X131421Y181654D01*
X131214Y181154D01*
X128244D01*
X128187Y181293D01*
X127793Y181687D01*
X127278Y181900D01*
X126722D01*
X126207Y181687D01*
X125813Y181293D01*
X125600Y180779D01*
Y180221D01*
X125813Y179707D01*
X126207Y179313D01*
X126722Y179100D01*
X127278D01*
X127793Y179313D01*
X128187Y179707D01*
X128244Y179846D01*
X131229D01*
X134109Y176966D01*
X133918Y176504D01*
X132161D01*
Y175954D01*
X131789Y175828D01*
X131661Y175819D01*
X131293Y176187D01*
X130779Y176400D01*
X130221D01*
X129707Y176187D01*
X129313Y175793D01*
X129256Y175654D01*
X124126D01*
Y178173D01*
X119874D01*
Y176154D01*
X116047D01*
Y178807D01*
X109827D01*
Y172193D01*
X116047D01*
Y174846D01*
X119874D01*
Y174315D01*
X124126D01*
Y174346D01*
X129256D01*
X129313Y174207D01*
X129707Y173813D01*
X130221Y173600D01*
X130779D01*
X131293Y173813D01*
X131661Y174181D01*
X131789Y174172D01*
X132161Y174046D01*
Y173433D01*
X134839D01*
Y175583D01*
X135301Y175774D01*
X137038Y174038D01*
X137500Y173846D01*
X138021D01*
X152329Y159537D01*
X152792Y159346D01*
X160229D01*
X162688Y156887D01*
X163150Y156696D01*
X189824D01*
X190207Y156313D01*
X190721Y156100D01*
X191279D01*
X191793Y156313D01*
X192187Y156707D01*
X192400Y157221D01*
Y157779D01*
X192187Y158293D01*
X192143Y158337D01*
X192321Y158768D01*
X192803D01*
X192825Y158715D01*
X193215Y158325D01*
X193724Y158114D01*
X194276D01*
X194785Y158325D01*
X195175Y158715D01*
X195386Y159224D01*
Y159776D01*
X195175Y160285D01*
X195114Y160346D01*
X195309Y160817D01*
X195783D01*
X195825Y160715D01*
X196215Y160325D01*
X196724Y160114D01*
X197276D01*
X197785Y160325D01*
X198175Y160715D01*
X198386Y161224D01*
Y161776D01*
X198175Y162285D01*
X197825Y162635D01*
X197815Y162733D01*
X197825Y162843D01*
X197903Y163167D01*
X198285Y163325D01*
X198675Y163715D01*
X198886Y164224D01*
Y164776D01*
X198675Y165285D01*
X198285Y165675D01*
X197776Y165886D01*
X197224D01*
X196715Y165675D01*
X196325Y165285D01*
X196271Y165154D01*
X154938D01*
X135471Y184621D01*
Y185510D01*
X135280Y185972D01*
X132539Y188713D01*
X132077Y188904D01*
X129760D01*
X126902Y191762D01*
X126439Y191954D01*
X124744D01*
X124687Y192093D01*
X124427Y192352D01*
X124618Y192852D01*
X130305D01*
X131902Y191256D01*
X132364Y191064D01*
X136999D01*
X138062Y190000D01*
Y189697D01*
X138254Y189234D01*
X140563Y186925D01*
X141026Y186734D01*
X141341D01*
X160038Y168037D01*
X160500Y167846D01*
X193256D01*
X193313Y167707D01*
X193707Y167313D01*
X194221Y167100D01*
X194779D01*
X195293Y167313D01*
X195687Y167707D01*
X195900Y168221D01*
Y168779D01*
X195894Y168793D01*
X196020Y168941D01*
X196297Y169126D01*
X196721Y168950D01*
X197278D01*
X197793Y169163D01*
X198187Y169557D01*
X198400Y170071D01*
Y170628D01*
X198310Y170846D01*
X198637Y171346D01*
X199256D01*
X199313Y171207D01*
X199707Y170813D01*
X200221Y170600D01*
X200779D01*
X201293Y170813D01*
X201687Y171207D01*
X201900Y171721D01*
Y172278D01*
X201687Y172793D01*
X201293Y173187D01*
X201268Y173197D01*
X201367Y173697D01*
X203204D01*
Y177000D01*
Y180303D01*
X200273D01*
Y177654D01*
X196316D01*
X195853Y177462D01*
X195661Y177000D01*
X195853Y176538D01*
X196316Y176346D01*
X200273D01*
Y173862D01*
X200251Y173666D01*
X200002Y173309D01*
X199707Y173187D01*
X199313Y172793D01*
X199256Y172654D01*
X173271D01*
X161213Y184713D01*
X160750Y184904D01*
X157521D01*
X143463Y198962D01*
X143000Y199154D01*
X124244D01*
X124187Y199293D01*
X123793Y199687D01*
X123278Y199900D01*
X122722D01*
X122207Y199687D01*
X121813Y199293D01*
X121600Y198778D01*
Y198222D01*
X121813Y197707D01*
X121943Y197577D01*
X122164Y197250D01*
X121943Y196923D01*
X121813Y196793D01*
X121600Y196279D01*
Y195721D01*
X121813Y195207D01*
X121866Y195154D01*
X122058Y194693D01*
X121664Y194300D01*
X121451Y193785D01*
Y193228D01*
X121664Y192713D01*
X122058Y192320D01*
X122176Y191763D01*
X122100Y191578D01*
Y191022D01*
X122313Y190507D01*
X122670Y190150D01*
X122313Y189793D01*
X122100Y189278D01*
Y188722D01*
X122313Y188207D01*
X122707Y187813D01*
X123222Y187600D01*
X123778D01*
X124293Y187813D01*
X124687Y188207D01*
X124744Y188346D01*
X126151D01*
X128380Y186116D01*
X128189Y185654D01*
X124744D01*
X124687Y185793D01*
X124293Y186187D01*
X123778Y186400D01*
X123222D01*
X122707Y186187D01*
X122313Y185793D01*
X122100Y185278D01*
Y184722D01*
X122313Y184207D01*
X122335Y184185D01*
X122128Y183685D01*
X121303D01*
X119871Y185117D01*
Y295629D01*
X127869D01*
X127945Y295553D01*
Y293500D01*
X128011Y293167D01*
X128200Y292884D01*
X128482Y292695D01*
X128815Y292629D01*
X129149Y292695D01*
X129431Y292884D01*
X150547Y314000D01*
X158329D01*
Y307100D01*
X158457Y305475D01*
X158837Y303890D01*
X159461Y302385D01*
X160313Y300995D01*
X161371Y299756D01*
X169971Y291156D01*
X171211Y290097D01*
X172600Y289246D01*
X174106Y288622D01*
X175691Y288242D01*
X177315Y288114D01*
X202315D01*
X203940Y288242D01*
X205525Y288622D01*
X207031Y289246D01*
X208420Y290097D01*
X209660Y291156D01*
X210718Y292395D01*
X211570Y293785D01*
X212193Y295290D01*
X212574Y296875D01*
X212702Y298500D01*
X212574Y300125D01*
X212193Y301710D01*
X211570Y303215D01*
X210718Y304605D01*
X209660Y305844D01*
X208420Y306903D01*
X207031Y307754D01*
X205525Y308378D01*
X203940Y308758D01*
X202315Y308886D01*
X181618D01*
X179102Y311402D01*
Y314000D01*
X188197D01*
X188258Y313693D01*
X188432Y313432D01*
X188693Y313258D01*
X189000Y313197D01*
X196500D01*
X196807Y313258D01*
X197068Y313432D01*
X197242Y313693D01*
X197303Y314000D01*
X250133D01*
X251509Y312624D01*
X251540Y312472D01*
X251839Y312024D01*
X252287Y311724D01*
X252816Y311619D01*
X253344Y311724D01*
X253473Y311810D01*
X257107D01*
X257107Y311810D01*
X257635Y311916D01*
X258083Y312215D01*
X259868Y314000D01*
X263197D01*
X263258Y313693D01*
D02*
G37*
G36*
X156788Y183788D02*
X157250Y183596D01*
X160479D01*
X172538Y171537D01*
X173000Y171346D01*
X194844D01*
X195142Y170846D01*
X195120Y170804D01*
X171621D01*
X161462Y180963D01*
X161000Y181154D01*
X157771D01*
X142413Y196512D01*
X141951Y196703D01*
X124224D01*
X124187Y196793D01*
X124056Y196923D01*
X123836Y197250D01*
X124056Y197577D01*
X124187Y197707D01*
X124244Y197846D01*
X142729D01*
X156788Y183788D01*
D02*
G37*
G36*
X157037Y180037D02*
X157500Y179846D01*
X160729D01*
X170887Y169687D01*
X170968Y169654D01*
X170869Y169154D01*
X160771D01*
X142075Y187850D01*
X141612Y188042D01*
X141297D01*
X139371Y189968D01*
Y190271D01*
X139179Y190734D01*
X137732Y192181D01*
X137269Y192373D01*
X132635D01*
X131039Y193969D01*
X130576Y194161D01*
X124095D01*
X124038Y194300D01*
X123985Y194352D01*
X123793Y194813D01*
X124187Y195207D01*
X124265Y195395D01*
X141680D01*
X157037Y180037D01*
D02*
G37*
G36*
X129489Y187596D02*
X131806D01*
X134163Y185239D01*
Y184350D01*
X134354Y183887D01*
X154087Y164154D01*
X153922Y163654D01*
X152692D01*
X129152Y187194D01*
X129436Y187618D01*
X129489Y187596D01*
D02*
G37*
G36*
X196325Y163715D02*
X196675Y163365D01*
X196685Y163268D01*
X196675Y163157D01*
X196597Y162833D01*
X196215Y162675D01*
X195825Y162285D01*
X195771Y162154D01*
X186442D01*
X185980Y161962D01*
X185807Y161790D01*
X176135D01*
X174579Y163346D01*
X174744Y163846D01*
X196271D01*
X196325Y163715D01*
D02*
G37*
G36*
X174615Y159037D02*
X175078Y158846D01*
X189580D01*
X189793Y158401D01*
X189554Y158004D01*
X163421D01*
X161079Y160346D01*
X161244Y160846D01*
X172807D01*
X174615Y159037D01*
D02*
G37*
G36*
X183500Y45000D02*
X165168D01*
Y49300D01*
X165107Y49607D01*
X164933Y49868D01*
X164673Y50042D01*
X164365Y50103D01*
X152868D01*
Y64197D01*
X155166D01*
X156078Y64016D01*
X157553D01*
X158999Y64303D01*
X160361Y64868D01*
X161586Y65687D01*
X162629Y66729D01*
X163448Y67955D01*
X164012Y69317D01*
X164300Y70763D01*
Y72237D01*
X164012Y73683D01*
X163448Y75045D01*
X162629Y76271D01*
X161586Y77313D01*
X160361Y78132D01*
X158999Y78697D01*
X157553Y78984D01*
X156078D01*
X155166Y78803D01*
X152868D01*
Y90400D01*
X152807Y90707D01*
X152633Y90968D01*
X152373Y91142D01*
X152066Y91203D01*
X116566D01*
X116258Y91142D01*
X115998Y90968D01*
X115824Y90707D01*
X115763Y90400D01*
Y78803D01*
X113465D01*
X112553Y78984D01*
X111078D01*
X109633Y78697D01*
X108270Y78132D01*
X107045Y77313D01*
X106002Y76271D01*
X105183Y75045D01*
X104619Y73683D01*
X104331Y72237D01*
Y70763D01*
X104619Y69317D01*
X105183Y67955D01*
X106002Y66729D01*
X107045Y65687D01*
X108270Y64868D01*
X109633Y64303D01*
X111078Y64016D01*
X112553D01*
X113465Y64197D01*
X115763D01*
Y50103D01*
X104265D01*
X103958Y50042D01*
X103698Y49868D01*
X103524Y49607D01*
X103463Y49300D01*
Y45000D01*
X93500D01*
Y146500D01*
X183500D01*
Y45000D01*
D02*
G37*
%LPC*%
G36*
X127213Y309500D02*
X126418D01*
X125683Y309195D01*
X125120Y308633D01*
X124815Y307898D01*
Y307102D01*
X125120Y306367D01*
X125683Y305804D01*
X126418Y305500D01*
X127213D01*
X127948Y305804D01*
X128511Y306367D01*
X128815Y307102D01*
Y307898D01*
X128511Y308633D01*
X127948Y309195D01*
X127213Y309500D01*
D02*
G37*
G36*
X115213D02*
X114418D01*
X113683Y309195D01*
X113120Y308633D01*
X112815Y307898D01*
Y307102D01*
X113120Y306367D01*
X113683Y305804D01*
X114418Y305500D01*
X115213D01*
X115948Y305804D01*
X116511Y306367D01*
X116815Y307102D01*
Y307898D01*
X116511Y308633D01*
X115948Y309195D01*
X115213Y309500D01*
D02*
G37*
G36*
X265594Y306900D02*
X265037D01*
X264523Y306687D01*
X264129Y306293D01*
X263915Y305779D01*
Y305222D01*
X264129Y304707D01*
X264523Y304313D01*
X265037Y304100D01*
X265594D01*
X266109Y304313D01*
X266502Y304707D01*
X266716Y305222D01*
Y305779D01*
X266502Y306293D01*
X266109Y306687D01*
X265594Y306900D01*
D02*
G37*
G36*
X121713Y308000D02*
X120918D01*
X120183Y307696D01*
X119620Y307133D01*
X119316Y306398D01*
Y305602D01*
X119620Y304867D01*
X120183Y304305D01*
X120918Y304000D01*
X121713D01*
X122448Y304305D01*
X123011Y304867D01*
X123316Y305602D01*
Y306398D01*
X123011Y307133D01*
X122448Y307696D01*
X121713Y308000D01*
D02*
G37*
G36*
X430094Y303400D02*
X429537D01*
X429023Y303187D01*
X428629Y302793D01*
X428415Y302278D01*
Y301722D01*
X428629Y301207D01*
X429023Y300813D01*
X429537Y300600D01*
X430094D01*
X430609Y300813D01*
X431002Y301207D01*
X431215Y301722D01*
Y302278D01*
X431002Y302793D01*
X430609Y303187D01*
X430094Y303400D01*
D02*
G37*
G36*
X289594Y308400D02*
X289037D01*
X288523Y308187D01*
X288129Y307793D01*
X287915Y307278D01*
Y306721D01*
X288046Y306406D01*
X276540Y294900D01*
X276037D01*
X275522Y294687D01*
X275129Y294293D01*
X274916Y293778D01*
Y293221D01*
X275129Y292707D01*
X275522Y292313D01*
X276037Y292100D01*
X276594D01*
X277109Y292313D01*
X277502Y292707D01*
X277715Y293221D01*
Y293778D01*
X277585Y294094D01*
X289091Y305600D01*
X289594D01*
X290109Y305813D01*
X290502Y306207D01*
X290716Y306721D01*
Y307278D01*
X290502Y307793D01*
X290109Y308187D01*
X289594Y308400D01*
D02*
G37*
G36*
X104094Y293400D02*
X103537D01*
X103023Y293187D01*
X102629Y292793D01*
X102416Y292279D01*
Y291722D01*
X102629Y291207D01*
X103023Y290813D01*
X103537Y290600D01*
X104094D01*
X104609Y290813D01*
X105002Y291207D01*
X105216Y291722D01*
Y292279D01*
X105002Y292793D01*
X104609Y293187D01*
X104094Y293400D01*
D02*
G37*
G36*
X497603Y303935D02*
X496128D01*
X494683Y303647D01*
X493320Y303083D01*
X492095Y302264D01*
X491052Y301221D01*
X490233Y299995D01*
X489669Y298633D01*
X489381Y297187D01*
Y295713D01*
X489669Y294267D01*
X490233Y292905D01*
X491052Y291679D01*
X492095Y290637D01*
X493320Y289818D01*
X494683Y289254D01*
X496128Y288966D01*
X497603D01*
X499049Y289254D01*
X500411Y289818D01*
X501637Y290637D01*
X502679Y291679D01*
X503498Y292905D01*
X504062Y294267D01*
X504350Y295713D01*
Y297187D01*
X504062Y298633D01*
X503498Y299995D01*
X502679Y301221D01*
X501637Y302264D01*
X500411Y303083D01*
X499049Y303647D01*
X497603Y303935D01*
D02*
G37*
G36*
X57603D02*
X56128D01*
X54682Y303647D01*
X53320Y303083D01*
X52095Y302264D01*
X51052Y301221D01*
X50233Y299995D01*
X49669Y298633D01*
X49381Y297187D01*
Y295713D01*
X49669Y294267D01*
X50233Y292905D01*
X51052Y291679D01*
X52095Y290637D01*
X53320Y289818D01*
X54682Y289254D01*
X56128Y288966D01*
X57603D01*
X59049Y289254D01*
X60411Y289818D01*
X61637Y290637D01*
X62679Y291679D01*
X63498Y292905D01*
X64062Y294267D01*
X64350Y295713D01*
Y297187D01*
X64062Y298633D01*
X63498Y299995D01*
X62679Y301221D01*
X61637Y302264D01*
X60411Y303083D01*
X59049Y303647D01*
X57603Y303935D01*
D02*
G37*
G36*
X399094Y288900D02*
X398537D01*
X398023Y288687D01*
X397629Y288293D01*
X397415Y287778D01*
Y287222D01*
X397629Y286707D01*
X398023Y286313D01*
X398537Y286100D01*
X399094D01*
X399609Y286313D01*
X400002Y286707D01*
X400215Y287222D01*
Y287778D01*
X400002Y288293D01*
X399609Y288687D01*
X399094Y288900D01*
D02*
G37*
G36*
X378094Y302550D02*
X377537D01*
X377023Y302337D01*
X376629Y301943D01*
X376415Y301429D01*
Y301154D01*
X369316D01*
X368853Y300962D01*
X356045Y288154D01*
X338060D01*
X338002Y288293D01*
X337609Y288687D01*
X337094Y288900D01*
X336537D01*
X336022Y288687D01*
X335629Y288293D01*
X335416Y287778D01*
Y287222D01*
X335629Y286707D01*
X336022Y286313D01*
X336537Y286100D01*
X337094D01*
X337609Y286313D01*
X338002Y286707D01*
X338060Y286846D01*
X356315D01*
X356778Y287037D01*
X369586Y299846D01*
X370571D01*
X370736Y299346D01*
X355045Y283654D01*
X338060D01*
X338002Y283793D01*
X337609Y284187D01*
X337094Y284400D01*
X336537D01*
X336022Y284187D01*
X335629Y283793D01*
X335416Y283278D01*
Y282721D01*
X335629Y282207D01*
X336022Y281813D01*
X336537Y281600D01*
X337094D01*
X337609Y281813D01*
X338002Y282207D01*
X338060Y282346D01*
X355315D01*
X355778Y282538D01*
X371586Y298346D01*
X381897D01*
X382359Y298537D01*
X383029Y299208D01*
X383212Y299649D01*
X383609Y299813D01*
X384002Y300207D01*
X384215Y300722D01*
Y301278D01*
X384002Y301793D01*
X383609Y302187D01*
X383094Y302400D01*
X382537D01*
X382023Y302187D01*
X381629Y301793D01*
X381416Y301278D01*
Y300722D01*
X381629Y300207D01*
X381721Y300115D01*
X381474Y299654D01*
X379007D01*
X378800Y300154D01*
X379002Y300357D01*
X379216Y300871D01*
Y301429D01*
X379002Y301943D01*
X378609Y302337D01*
X378094Y302550D01*
D02*
G37*
G36*
X389594Y272400D02*
X389037D01*
X388523Y272187D01*
X388129Y271793D01*
X387915Y271279D01*
Y270722D01*
X388129Y270207D01*
X388523Y269813D01*
X389037Y269600D01*
X389594D01*
X390109Y269813D01*
X390502Y270207D01*
X390716Y270722D01*
Y271279D01*
X390502Y271793D01*
X390109Y272187D01*
X389594Y272400D01*
D02*
G37*
G36*
X289594Y270400D02*
X289037D01*
X288523Y270187D01*
X288129Y269793D01*
X287915Y269279D01*
Y268722D01*
X288129Y268207D01*
X288523Y267813D01*
X289037Y267600D01*
X289594D01*
X290109Y267813D01*
X290502Y268207D01*
X290716Y268722D01*
Y269279D01*
X290502Y269793D01*
X290109Y270187D01*
X289594Y270400D01*
D02*
G37*
G36*
X194594Y267585D02*
X194037D01*
X193523Y267372D01*
X193129Y266978D01*
X192915Y266463D01*
Y265907D01*
X193129Y265392D01*
X193523Y264998D01*
X194037Y264785D01*
X194594D01*
X195109Y264998D01*
X195502Y265392D01*
X195715Y265907D01*
Y266463D01*
X195502Y266978D01*
X195109Y267372D01*
X194594Y267585D01*
D02*
G37*
G36*
X209594Y267085D02*
X209037D01*
X208523Y266872D01*
X208129Y266478D01*
X207915Y265964D01*
Y265407D01*
X208129Y264892D01*
X208523Y264498D01*
X209037Y264285D01*
X209594D01*
X210109Y264498D01*
X210502Y264892D01*
X210716Y265407D01*
Y265964D01*
X210502Y266478D01*
X210109Y266872D01*
X209594Y267085D01*
D02*
G37*
G36*
X236279Y264900D02*
X235721D01*
X235207Y264687D01*
X234813Y264293D01*
X234600Y263778D01*
Y263222D01*
X234813Y262707D01*
X235207Y262313D01*
X235721Y262100D01*
X236279D01*
X236793Y262313D01*
X237187Y262707D01*
X237400Y263222D01*
Y263778D01*
X237187Y264293D01*
X236793Y264687D01*
X236279Y264900D01*
D02*
G37*
G36*
X279278Y258900D02*
X278721D01*
X278207Y258687D01*
X277813Y258293D01*
X277600Y257779D01*
Y257222D01*
X277813Y256707D01*
X278207Y256313D01*
X278721Y256100D01*
X279278D01*
X279793Y256313D01*
X280187Y256707D01*
X280400Y257222D01*
Y257779D01*
X280187Y258293D01*
X279793Y258687D01*
X279278Y258900D01*
D02*
G37*
G36*
X432278Y249900D02*
X431721D01*
X431207Y249687D01*
X430813Y249293D01*
X430600Y248779D01*
Y248221D01*
X430813Y247707D01*
X431207Y247313D01*
X431721Y247100D01*
X432278D01*
X432793Y247313D01*
X433187Y247707D01*
X433400Y248221D01*
Y248779D01*
X433187Y249293D01*
X432793Y249687D01*
X432278Y249900D01*
D02*
G37*
G36*
X384594D02*
X384037D01*
X383523Y249687D01*
X383140Y249304D01*
X365051D01*
X364589Y249113D01*
X359560Y244084D01*
X359368Y243621D01*
Y242379D01*
X359560Y241916D01*
X382439Y219038D01*
X382901Y218846D01*
X407571D01*
X407629Y218707D01*
X408022Y218313D01*
X408537Y218100D01*
X409094D01*
X409609Y218313D01*
X410002Y218707D01*
X410216Y219221D01*
Y219778D01*
X410002Y220293D01*
X409609Y220687D01*
X409094Y220900D01*
X408537D01*
X408022Y220687D01*
X407629Y220293D01*
X407571Y220154D01*
X383172D01*
X381942Y221384D01*
X382134Y221846D01*
X403571D01*
X403629Y221707D01*
X404023Y221313D01*
X404537Y221100D01*
X405094D01*
X405609Y221313D01*
X406002Y221707D01*
X406215Y222221D01*
Y222779D01*
X406002Y223293D01*
X405609Y223687D01*
X405094Y223900D01*
X404537D01*
X404023Y223687D01*
X403629Y223293D01*
X403571Y223154D01*
X402324D01*
X402225Y223654D01*
X402609Y223813D01*
X403002Y224207D01*
X403216Y224722D01*
Y225278D01*
X403002Y225793D01*
X402609Y226187D01*
X402094Y226400D01*
X401537D01*
X401022Y226187D01*
X400629Y225793D01*
X400571Y225654D01*
X383736D01*
X367158Y242233D01*
X367215Y242372D01*
Y242929D01*
X367002Y243443D01*
X366609Y243837D01*
X366094Y244050D01*
X365537D01*
X365022Y243837D01*
X364629Y243443D01*
X364416Y242929D01*
Y242372D01*
X364629Y241857D01*
X365022Y241463D01*
X365537Y241250D01*
X366094D01*
X366233Y241307D01*
X383003Y224537D01*
X383466Y224346D01*
X400571D01*
X400629Y224207D01*
X401022Y223813D01*
X401406Y223654D01*
X401307Y223154D01*
X381587D01*
X363498Y241243D01*
X363498Y241243D01*
X361741Y243000D01*
X364737Y245996D01*
X373624D01*
X373832Y245496D01*
X373629Y245293D01*
X373415Y244778D01*
Y244221D01*
X373629Y243707D01*
X374023Y243313D01*
X374537Y243100D01*
X375094D01*
X375587Y243304D01*
X387353Y231538D01*
X387815Y231346D01*
X397640D01*
X398023Y230963D01*
X398537Y230750D01*
X399094D01*
X399609Y230963D01*
X400002Y231357D01*
X400215Y231872D01*
Y232429D01*
X400002Y232943D01*
X399609Y233337D01*
X399094Y233550D01*
X398537D01*
X398023Y233337D01*
X397629Y232943D01*
X397509Y232654D01*
X388087D01*
X376216Y244525D01*
Y244778D01*
X376002Y245293D01*
X375799Y245496D01*
X376007Y245996D01*
X378009D01*
X378129Y245707D01*
X378522Y245313D01*
X379037Y245100D01*
X379594D01*
X380109Y245313D01*
X380502Y245707D01*
X380715Y246221D01*
Y246778D01*
X380502Y247293D01*
X380299Y247496D01*
X380507Y247996D01*
X383009D01*
X383129Y247707D01*
X383523Y247313D01*
X384037Y247100D01*
X384594D01*
X385109Y247313D01*
X385502Y247707D01*
X385716Y248221D01*
Y248779D01*
X385502Y249293D01*
X385109Y249687D01*
X384594Y249900D01*
D02*
G37*
G36*
X402094Y247900D02*
X401537D01*
X401022Y247687D01*
X400629Y247293D01*
X400416Y246778D01*
Y246221D01*
X400629Y245707D01*
X401022Y245313D01*
X401537Y245100D01*
X402094D01*
X402609Y245313D01*
X403002Y245707D01*
X403216Y246221D01*
Y246778D01*
X403002Y247293D01*
X402609Y247687D01*
X402094Y247900D01*
D02*
G37*
G36*
X246094Y245400D02*
X245537D01*
X245023Y245187D01*
X244629Y244793D01*
X244415Y244279D01*
Y243722D01*
X244629Y243207D01*
X245023Y242813D01*
X245537Y242600D01*
X246094D01*
X246609Y242813D01*
X247002Y243207D01*
X247216Y243722D01*
Y244279D01*
X247002Y244793D01*
X246609Y245187D01*
X246094Y245400D01*
D02*
G37*
G36*
X259094Y244900D02*
X258537D01*
X258022Y244687D01*
X257629Y244293D01*
X257416Y243778D01*
Y243221D01*
X257629Y242707D01*
X258022Y242313D01*
X258537Y242100D01*
X259094D01*
X259609Y242313D01*
X260002Y242707D01*
X260215Y243221D01*
Y243778D01*
X260002Y244293D01*
X259609Y244687D01*
X259094Y244900D01*
D02*
G37*
G36*
X292640Y237043D02*
X289513D01*
Y235154D01*
X285618D01*
Y236543D01*
X282490D01*
Y233612D01*
X285618D01*
Y233846D01*
X289513D01*
Y230831D01*
X292640D01*
Y233937D01*
Y237043D01*
D02*
G37*
G36*
X310118D02*
X306991D01*
Y234112D01*
X310118D01*
Y237043D01*
D02*
G37*
G36*
X296118D02*
X292990D01*
Y234112D01*
X296118D01*
Y237043D01*
D02*
G37*
G36*
X306641D02*
X303513D01*
Y235654D01*
X301816D01*
X301353Y235462D01*
X301161Y235000D01*
X301353Y234538D01*
X301816Y234346D01*
X303513D01*
Y234112D01*
X306641D01*
Y237043D01*
D02*
G37*
G36*
X228795Y236634D02*
X228333Y236442D01*
X228141Y235980D01*
Y235181D01*
X227194D01*
Y233431D01*
X229315D01*
X231437D01*
Y235181D01*
X229449D01*
Y235980D01*
X229258Y236442D01*
X228795Y236634D01*
D02*
G37*
G36*
X231437Y233081D02*
X229490D01*
Y231331D01*
X231437D01*
Y233081D01*
D02*
G37*
G36*
X229140D02*
X227194D01*
Y231331D01*
X229140D01*
Y233081D01*
D02*
G37*
G36*
X310118Y233762D02*
X306991D01*
Y230831D01*
X310118D01*
Y233762D01*
D02*
G37*
G36*
X306641D02*
X303513D01*
Y230831D01*
X306641D01*
Y233762D01*
D02*
G37*
G36*
X296118D02*
X292990D01*
Y230831D01*
X296118D01*
Y233762D01*
D02*
G37*
G36*
X285618Y233262D02*
X282490D01*
Y230331D01*
X285618D01*
Y233262D01*
D02*
G37*
G36*
X282140Y236543D02*
X279013D01*
Y234154D01*
X276816D01*
X276353Y233962D01*
X276161Y233500D01*
X276353Y233037D01*
X276816Y232846D01*
X279013D01*
Y230331D01*
X282140D01*
Y233437D01*
Y236543D01*
D02*
G37*
G36*
X241984Y230122D02*
X240235D01*
Y228175D01*
X241984D01*
Y230122D01*
D02*
G37*
G36*
X239885D02*
X238135D01*
Y228175D01*
X239885D01*
Y230122D01*
D02*
G37*
G36*
X221094Y229900D02*
X220537D01*
X220023Y229687D01*
X219629Y229293D01*
X219415Y228779D01*
Y228222D01*
X219629Y227707D01*
X220023Y227313D01*
X220537Y227100D01*
X221094D01*
X221609Y227313D01*
X222002Y227707D01*
X222216Y228222D01*
Y228779D01*
X222002Y229293D01*
X221609Y229687D01*
X221094Y229900D01*
D02*
G37*
G36*
X189778D02*
X189222D01*
X188707Y229687D01*
X188313Y229293D01*
X188100Y228779D01*
Y228222D01*
X188313Y227707D01*
X188707Y227313D01*
X189222Y227100D01*
X189778D01*
X190293Y227313D01*
X190687Y227707D01*
X190900Y228222D01*
Y228779D01*
X190687Y229293D01*
X190293Y229687D01*
X189778Y229900D01*
D02*
G37*
G36*
X310123Y229173D02*
X303508D01*
Y225878D01*
X303008Y225778D01*
X303002Y225793D01*
X302609Y226187D01*
X302094Y226400D01*
X301537D01*
X301023Y226187D01*
X300629Y225793D01*
X300415Y225278D01*
Y224722D01*
X300629Y224207D01*
X301023Y223813D01*
X301537Y223600D01*
X302094D01*
X302609Y223813D01*
X303002Y224207D01*
X303008Y224222D01*
X303508Y224122D01*
Y222953D01*
X310123D01*
Y229173D01*
D02*
G37*
G36*
X296123D02*
X289508D01*
Y225654D01*
X288560D01*
X288502Y225793D01*
X288109Y226187D01*
X287594Y226400D01*
X287037D01*
X286523Y226187D01*
X286508Y226173D01*
X286401Y226217D01*
X285623D01*
Y228673D01*
X279008D01*
Y226378D01*
X278508Y226278D01*
X278502Y226293D01*
X278109Y226687D01*
X277594Y226900D01*
X277037D01*
X276522Y226687D01*
X276129Y226293D01*
X275916Y225779D01*
Y225221D01*
X276129Y224707D01*
X276522Y224313D01*
X276661Y224256D01*
Y220481D01*
X275811Y219630D01*
X275537Y219903D01*
X275075Y220094D01*
X272140D01*
X271678Y219903D01*
X270885Y219110D01*
X269123D01*
Y221161D01*
X270004D01*
Y223839D01*
X266933D01*
Y221161D01*
X267814D01*
Y219110D01*
X265590D01*
Y214654D01*
X262090D01*
X262013Y214809D01*
X262220Y215347D01*
X262450Y215500D01*
X262603Y215729D01*
X262657Y216000D01*
Y219625D01*
X264190Y221158D01*
X264190Y221158D01*
X264195Y221166D01*
X264356D01*
Y222325D01*
X263000D01*
Y221969D01*
X261449Y220418D01*
X261296Y220189D01*
X261242Y219918D01*
X261242Y219918D01*
Y219110D01*
X255390D01*
Y212890D01*
X261610D01*
Y213346D01*
X265590D01*
Y212890D01*
X271810D01*
Y218185D01*
X272411Y218786D01*
X274804D01*
X275141Y218449D01*
X275603Y218258D01*
X276018D01*
X276480Y218449D01*
X277778Y219747D01*
X277970Y220210D01*
Y224256D01*
X278109Y224313D01*
X278502Y224707D01*
X278508Y224722D01*
X279008Y224622D01*
Y222453D01*
X285623D01*
Y224122D01*
X286123Y224222D01*
X286129Y224207D01*
X286523Y223813D01*
X287037Y223600D01*
X287594D01*
X288109Y223813D01*
X288502Y224207D01*
X288560Y224346D01*
X289508D01*
Y222953D01*
X296123D01*
Y229173D01*
D02*
G37*
G36*
X205278Y228400D02*
X204721D01*
X204207Y228187D01*
X203813Y227793D01*
X203600Y227278D01*
Y226722D01*
X203813Y226207D01*
X204207Y225813D01*
X204721Y225600D01*
X205278D01*
X205793Y225813D01*
X206187Y226207D01*
X206400Y226722D01*
Y227278D01*
X206187Y227793D01*
X205793Y228187D01*
X205278Y228400D01*
D02*
G37*
G36*
X196279Y227900D02*
X195721D01*
X195207Y227687D01*
X194813Y227293D01*
X194600Y226779D01*
Y226221D01*
X194813Y225707D01*
X195207Y225313D01*
X195721Y225100D01*
X196279D01*
X196793Y225313D01*
X197187Y225707D01*
X197400Y226221D01*
Y226779D01*
X197187Y227293D01*
X196793Y227687D01*
X196279Y227900D01*
D02*
G37*
G36*
X241984Y227825D02*
X240060D01*
X238135D01*
Y225878D01*
X239161D01*
Y224500D01*
X239353Y224038D01*
X239815Y223846D01*
X240278Y224038D01*
X240470Y224500D01*
Y225878D01*
X241984D01*
Y227825D01*
D02*
G37*
G36*
X428594Y226400D02*
X428037D01*
X427523Y226187D01*
X427129Y225793D01*
X426916Y225278D01*
Y224722D01*
X427129Y224207D01*
X427523Y223813D01*
X428037Y223600D01*
X428594D01*
X429109Y223813D01*
X429502Y224207D01*
X429715Y224722D01*
Y225278D01*
X429502Y225793D01*
X429109Y226187D01*
X428594Y226400D01*
D02*
G37*
G36*
X247501Y230126D02*
X243642D01*
Y225874D01*
X244003D01*
X244210Y225374D01*
X244129Y225293D01*
X243916Y224779D01*
Y224221D01*
X244129Y223707D01*
X244523Y223313D01*
X245037Y223100D01*
X245594D01*
X246109Y223313D01*
X246502Y223707D01*
X246715Y224221D01*
Y224779D01*
X246502Y225293D01*
X246421Y225374D01*
X246628Y225874D01*
X247501D01*
Y230126D01*
D02*
G37*
G36*
X231441Y229673D02*
X227189D01*
Y225815D01*
X227444D01*
X227651Y225315D01*
X227629Y225293D01*
X227415Y224779D01*
Y224221D01*
X227629Y223707D01*
X228023Y223313D01*
X228537Y223100D01*
X229094D01*
X229609Y223313D01*
X230002Y223707D01*
X230216Y224221D01*
Y224779D01*
X230002Y225293D01*
X229980Y225315D01*
X230188Y225815D01*
X231441D01*
Y229673D01*
D02*
G37*
G36*
X266063Y223834D02*
X264706D01*
Y222675D01*
X266063D01*
Y223834D01*
D02*
G37*
G36*
X264356D02*
X263000D01*
Y222675D01*
X264356D01*
Y223834D01*
D02*
G37*
G36*
X266063Y222325D02*
X264706D01*
Y221166D01*
X266063D01*
Y222325D01*
D02*
G37*
G36*
X209778Y221900D02*
X209222D01*
X208707Y221687D01*
X208313Y221293D01*
X208100Y220778D01*
Y220221D01*
X208313Y219707D01*
X208707Y219313D01*
X209222Y219100D01*
X209778D01*
X210293Y219313D01*
X210687Y219707D01*
X210900Y220221D01*
Y220778D01*
X210687Y221293D01*
X210293Y221687D01*
X209778Y221900D01*
D02*
G37*
G36*
X189778D02*
X189222D01*
X188707Y221687D01*
X188313Y221293D01*
X188100Y220778D01*
Y220221D01*
X188313Y219707D01*
X188707Y219313D01*
X189222Y219100D01*
X189778D01*
X190293Y219313D01*
X190687Y219707D01*
X190900Y220221D01*
Y220778D01*
X190687Y221293D01*
X190293Y221687D01*
X189778Y221900D01*
D02*
G37*
G36*
X426544Y222157D02*
X425987D01*
X425473Y221944D01*
X425079Y221550D01*
X424866Y221035D01*
Y220478D01*
X425079Y219964D01*
X425473Y219570D01*
X425987Y219357D01*
X426544D01*
X427059Y219570D01*
X427335Y219846D01*
X435547D01*
X439161Y216232D01*
Y213244D01*
X439022Y213187D01*
X438629Y212793D01*
X438415Y212279D01*
Y211721D01*
X438629Y211207D01*
X439022Y210813D01*
X439537Y210600D01*
X440094D01*
X440609Y210813D01*
X441002Y211207D01*
X441216Y211721D01*
Y212279D01*
X441002Y212793D01*
X440609Y213187D01*
X440470Y213244D01*
Y216503D01*
X440278Y216965D01*
X436281Y220963D01*
X435818Y221154D01*
X427617D01*
X427453Y221550D01*
X427059Y221944D01*
X426544Y222157D01*
D02*
G37*
G36*
X343654Y210504D02*
X340977D01*
Y209654D01*
X340060D01*
X340002Y209793D01*
X339609Y210187D01*
X339094Y210400D01*
X338537D01*
X338022Y210187D01*
X337629Y209793D01*
X337416Y209278D01*
Y209123D01*
X336654D01*
Y210004D01*
X333977D01*
Y206933D01*
X336654D01*
Y207814D01*
X337932D01*
X337995Y207840D01*
X338022Y207813D01*
X338537Y207600D01*
X339094D01*
X339609Y207813D01*
X340002Y208207D01*
X340060Y208346D01*
X340977D01*
Y207433D01*
X343654D01*
Y210504D01*
D02*
G37*
G36*
X242594Y224400D02*
X242037D01*
X241523Y224187D01*
X241129Y223793D01*
X240915Y223278D01*
Y222722D01*
X241129Y222207D01*
X241523Y221813D01*
X242037Y221600D01*
X242594D01*
X242733Y221657D01*
X243311Y221079D01*
Y211962D01*
X239596Y208245D01*
X239535Y208099D01*
X238950Y207993D01*
X238777Y208166D01*
X238262Y208379D01*
X237705D01*
X237191Y208166D01*
X236797Y207772D01*
X236584Y207258D01*
Y206701D01*
X236797Y206186D01*
X237191Y205792D01*
X237705Y205579D01*
X238262D01*
X238777Y205792D01*
X238904Y205920D01*
X239404Y205712D01*
Y200039D01*
X238904Y199870D01*
X238630Y200145D01*
X238115Y200358D01*
X237558D01*
X237043Y200145D01*
X236650Y199751D01*
X236436Y199236D01*
Y198679D01*
X236650Y198165D01*
X237043Y197771D01*
X237558Y197558D01*
X238115D01*
X238630Y197771D01*
X238904Y198046D01*
X239404Y197877D01*
Y192022D01*
X239182Y191915D01*
X238904Y191869D01*
X238569Y192203D01*
X238054Y192417D01*
X237497D01*
X236983Y192203D01*
X236589Y191810D01*
X236376Y191295D01*
Y190738D01*
X236589Y190224D01*
X236983Y189830D01*
X237497Y189617D01*
X238054D01*
X238569Y189830D01*
X238904Y190165D01*
X239182Y190118D01*
X239404Y190011D01*
Y184437D01*
X238904Y184230D01*
X238703Y184430D01*
X238189Y184644D01*
X237632D01*
X237117Y184430D01*
X236723Y184037D01*
X236510Y183522D01*
Y182965D01*
X236723Y182450D01*
X237117Y182057D01*
X237632Y181844D01*
X238189D01*
X238703Y182057D01*
X238942Y182296D01*
X239487Y182197D01*
X239493Y182193D01*
X239596Y181945D01*
X241046Y180494D01*
X241047Y180487D01*
X240660Y180100D01*
X240579Y179904D01*
X237853D01*
X237391Y179712D01*
X230453Y172775D01*
X230314Y172833D01*
X229757D01*
X229243Y172619D01*
X228849Y172226D01*
X228636Y171711D01*
Y171154D01*
X228849Y170640D01*
X229243Y170246D01*
X229757Y170033D01*
X230314D01*
X230829Y170246D01*
X231223Y170640D01*
X231436Y171154D01*
Y171711D01*
X231379Y171850D01*
X238124Y178596D01*
X240626D01*
X240660Y178514D01*
X241054Y178120D01*
X241568Y177907D01*
X242126D01*
X242640Y178120D01*
X243034Y178514D01*
X243124Y178731D01*
X243709Y178853D01*
X244161Y178401D01*
Y178271D01*
X238606Y172716D01*
X238228Y172872D01*
X237671D01*
X237157Y172659D01*
X236763Y172266D01*
X236550Y171751D01*
Y171194D01*
X236763Y170679D01*
X237157Y170286D01*
X237671Y170072D01*
X238228D01*
X238743Y170286D01*
X239137Y170679D01*
X239350Y171194D01*
Y171609D01*
X245278Y177538D01*
X245470Y178000D01*
Y178672D01*
X245278Y179134D01*
X242993Y181419D01*
X242530Y181611D01*
X241779D01*
X240712Y182678D01*
Y207512D01*
X244428Y211228D01*
X244620Y211690D01*
Y221350D01*
X244428Y221813D01*
X243658Y222583D01*
X243716Y222722D01*
Y223278D01*
X243502Y223793D01*
X243109Y224187D01*
X242594Y224400D01*
D02*
G37*
G36*
X270446Y210681D02*
X263775D01*
Y206175D01*
X270446D01*
Y210681D01*
D02*
G37*
G36*
X263425D02*
X256754D01*
Y206175D01*
X263425D01*
Y210681D01*
D02*
G37*
G36*
X363094Y208400D02*
X362537D01*
X362022Y208187D01*
X361629Y207793D01*
X361416Y207278D01*
Y206721D01*
X361629Y206207D01*
X362022Y205813D01*
X362537Y205600D01*
X363094D01*
X363609Y205813D01*
X364002Y206207D01*
X364215Y206721D01*
Y207278D01*
X364002Y207793D01*
X363609Y208187D01*
X363094Y208400D01*
D02*
G37*
G36*
X245863Y208086D02*
X245306D01*
X244791Y207873D01*
X244398Y207480D01*
X244184Y206965D01*
Y206408D01*
X244398Y205893D01*
X244791Y205500D01*
X245306Y205286D01*
X245863D01*
X246377Y205500D01*
X246771Y205893D01*
X246985Y206408D01*
Y206965D01*
X246771Y207480D01*
X246377Y207873D01*
X245863Y208086D01*
D02*
G37*
G36*
X250252Y208019D02*
X249695D01*
X249180Y207806D01*
X248786Y207412D01*
X248573Y206898D01*
Y206341D01*
X248786Y205826D01*
X249180Y205433D01*
X249695Y205219D01*
X250252D01*
X250766Y205433D01*
X251160Y205826D01*
X251373Y206341D01*
Y206898D01*
X251160Y207412D01*
X250766Y207806D01*
X250252Y208019D01*
D02*
G37*
G36*
X343650Y206563D02*
X342491D01*
Y205206D01*
X343650D01*
Y206563D01*
D02*
G37*
G36*
X342141D02*
X340981D01*
Y205206D01*
X342141D01*
Y206563D01*
D02*
G37*
G36*
X336650Y206063D02*
X335490D01*
Y204707D01*
X336650D01*
Y206063D01*
D02*
G37*
G36*
X335140D02*
X333981D01*
Y204707D01*
X335140D01*
Y206063D01*
D02*
G37*
G36*
X144776Y204386D02*
X144224D01*
X143715Y204175D01*
X143325Y203785D01*
X143114Y203276D01*
Y202724D01*
X143325Y202215D01*
X143715Y201825D01*
X144224Y201614D01*
X144776D01*
X145285Y201825D01*
X145675Y202215D01*
X145886Y202724D01*
Y203276D01*
X145675Y203785D01*
X145285Y204175D01*
X144776Y204386D01*
D02*
G37*
G36*
X359594Y203400D02*
X359037D01*
X358523Y203187D01*
X358129Y202793D01*
X357915Y202278D01*
Y201722D01*
X357973Y201583D01*
X353353Y196962D01*
X353161Y196500D01*
Y187271D01*
X352045Y186154D01*
X348967D01*
X348505Y185962D01*
X348196Y185654D01*
X325194D01*
X324732Y185462D01*
X300423Y161154D01*
X283369D01*
X282937Y161319D01*
X282937Y161654D01*
Y162846D01*
X284816D01*
X285278Y163038D01*
X285470Y163500D01*
X285278Y163962D01*
X284816Y164154D01*
X282937D01*
Y165169D01*
X280991D01*
Y163244D01*
X280641D01*
Y165169D01*
X278694D01*
Y164654D01*
X275816D01*
X275353Y164462D01*
X275161Y164000D01*
X275353Y163538D01*
X275816Y163346D01*
X278694D01*
X278694Y161319D01*
X278262Y161154D01*
X269688D01*
X269215Y161635D01*
Y161778D01*
X269002Y162293D01*
X268609Y162687D01*
X268094Y162900D01*
X267537D01*
X267022Y162687D01*
X266629Y162293D01*
X266416Y161778D01*
Y161222D01*
X266629Y160707D01*
X267022Y160313D01*
X267406Y160154D01*
X267307Y159654D01*
X266087D01*
X265158Y160583D01*
X265215Y160722D01*
Y161278D01*
X265002Y161793D01*
X264609Y162187D01*
X264094Y162400D01*
X263537D01*
X263022Y162187D01*
X262629Y161793D01*
X262416Y161278D01*
Y160722D01*
X262629Y160207D01*
X263022Y159813D01*
X263537Y159600D01*
X264094D01*
X264233Y159658D01*
X265236Y158654D01*
X265071Y158154D01*
X263586D01*
X261158Y160583D01*
X261215Y160722D01*
Y161278D01*
X261002Y161793D01*
X260609Y162187D01*
X260094Y162400D01*
X259537D01*
X259022Y162187D01*
X258629Y161793D01*
X258544Y161588D01*
X258186Y161447D01*
X257954Y161423D01*
X257594Y161572D01*
X257502Y161793D01*
X257109Y162187D01*
X256594Y162400D01*
X256037D01*
X255522Y162187D01*
X255129Y161793D01*
X254825Y161852D01*
X254741Y162261D01*
X254954Y162776D01*
Y163333D01*
X254741Y163847D01*
X254347Y164241D01*
X253833Y164454D01*
X253276D01*
X252761Y164241D01*
X252367Y163847D01*
X252154Y163333D01*
Y162776D01*
X252367Y162261D01*
X252761Y161867D01*
X252924Y161800D01*
Y161404D01*
X253115Y160942D01*
X255053Y159004D01*
X254846Y158504D01*
X253190D01*
Y157410D01*
X252442D01*
Y160004D01*
X250225D01*
Y161163D01*
X250364Y161221D01*
X250758Y161615D01*
X250971Y162129D01*
Y162686D01*
X250843Y162995D01*
X250970Y163301D01*
Y163496D01*
X251654D01*
Y166567D01*
X248977D01*
Y165954D01*
X248604Y165828D01*
X248477Y165819D01*
X248109Y166187D01*
X247594Y166400D01*
X247037D01*
X246522Y166187D01*
X246129Y165793D01*
X245916Y165278D01*
Y164722D01*
X246129Y164207D01*
X246522Y163813D01*
X247037Y163600D01*
X247594D01*
X248109Y163813D01*
X248257Y163962D01*
X248768Y163766D01*
X248778Y163594D01*
X248384Y163200D01*
X248171Y162686D01*
Y162129D01*
X248384Y161615D01*
X248778Y161221D01*
X248917Y161163D01*
Y160004D01*
X248190D01*
Y158910D01*
X247442D01*
Y160004D01*
X243190D01*
Y156146D01*
X247442D01*
Y157602D01*
X248190D01*
Y156146D01*
X251529D01*
X251635Y156102D01*
X253190D01*
Y154646D01*
X257441D01*
Y158346D01*
X258003D01*
X261666Y154683D01*
X262128Y154492D01*
X285083D01*
X295657Y143917D01*
X295600Y143779D01*
Y143221D01*
X295813Y142707D01*
X296207Y142313D01*
X296722Y142100D01*
X297278D01*
X297793Y142313D01*
X298187Y142707D01*
X298400Y143221D01*
Y143779D01*
X298187Y144293D01*
X297793Y144687D01*
X297278Y144900D01*
X296722D01*
X296583Y144843D01*
X286541Y154884D01*
X286733Y155346D01*
X303315D01*
X303778Y155537D01*
X328086Y179846D01*
X341807D01*
X341906Y179346D01*
X341523Y179187D01*
X341129Y178793D01*
X340915Y178279D01*
Y177722D01*
X341006Y177504D01*
X340678Y177004D01*
X339977D01*
Y173933D01*
X342654D01*
Y176083D01*
X342704Y176203D01*
Y176646D01*
X343109Y176813D01*
X343502Y177207D01*
X343716Y177722D01*
Y178279D01*
X343502Y178793D01*
X343109Y179187D01*
X342725Y179346D01*
X342824Y179846D01*
X355816D01*
X356278Y180037D01*
X366778Y190538D01*
X366970Y191000D01*
Y195256D01*
X367109Y195313D01*
X367502Y195707D01*
X367716Y196221D01*
Y196779D01*
X367502Y197293D01*
X367109Y197687D01*
X366594Y197900D01*
X366037D01*
X365523Y197687D01*
X365129Y197293D01*
X364915Y196779D01*
Y196221D01*
X365129Y195707D01*
X365523Y195313D01*
X365661Y195256D01*
Y191271D01*
X362242Y187852D01*
X361819Y188135D01*
X361970Y188500D01*
Y194756D01*
X362109Y194813D01*
X362502Y195207D01*
X362716Y195721D01*
Y196279D01*
X362502Y196793D01*
X362109Y197187D01*
X361594Y197400D01*
X361037D01*
X360523Y197187D01*
X360129Y196793D01*
X359915Y196279D01*
Y195721D01*
X360129Y195207D01*
X360523Y194813D01*
X360661Y194756D01*
Y188771D01*
X358940Y187049D01*
X358470Y187286D01*
Y195890D01*
X358609Y195947D01*
X359002Y196341D01*
X359215Y196856D01*
Y197413D01*
X359002Y197927D01*
X358609Y198321D01*
X358094Y198534D01*
X357537D01*
X357443Y198495D01*
X357160Y198919D01*
X358898Y200658D01*
X359037Y200600D01*
X359594D01*
X360109Y200813D01*
X360502Y201207D01*
X360716Y201722D01*
Y202278D01*
X360502Y202793D01*
X360109Y203187D01*
X359594Y203400D01*
D02*
G37*
G36*
X294937Y202181D02*
X292990D01*
Y200431D01*
X294937D01*
Y202181D01*
D02*
G37*
G36*
X343650Y204856D02*
X340981D01*
Y203500D01*
X341661D01*
Y201783D01*
X341853Y201321D01*
X342932Y200242D01*
X343018Y200033D01*
X343481Y199842D01*
X343943Y200033D01*
X344135Y200496D01*
Y200618D01*
X343943Y201080D01*
X342970Y202054D01*
Y203500D01*
X343650D01*
Y204856D01*
D02*
G37*
G36*
X336650Y204357D02*
X333981D01*
Y203000D01*
X334661D01*
Y201660D01*
X334357Y201356D01*
X334165Y200893D01*
Y200496D01*
X334357Y200033D01*
X334820Y199842D01*
X335282Y200033D01*
X335474Y200496D01*
Y200623D01*
X335778Y200927D01*
X335970Y201390D01*
Y203000D01*
X336650D01*
Y204357D01*
D02*
G37*
G36*
X215126Y199685D02*
X210874D01*
Y198603D01*
X210374Y198421D01*
X210109Y198687D01*
X209594Y198900D01*
X209037D01*
X208523Y198687D01*
X208129Y198293D01*
X207915Y197778D01*
Y197222D01*
X208129Y196707D01*
X208523Y196313D01*
X209037Y196100D01*
X209594D01*
X210109Y196313D01*
X210374Y196579D01*
X210874Y196397D01*
Y195827D01*
X215126D01*
X215126Y195827D01*
X215565Y195681D01*
X215956Y195519D01*
X216513D01*
X217028Y195732D01*
X217422Y196126D01*
X217635Y196641D01*
Y197197D01*
X217422Y197712D01*
X217028Y198106D01*
X216513Y198319D01*
X215956D01*
X215626Y198182D01*
X215126Y198375D01*
Y199685D01*
D02*
G37*
G36*
X294937Y200081D02*
X292990D01*
Y198331D01*
X294937D01*
Y200081D01*
D02*
G37*
G36*
X292640Y202181D02*
X290694D01*
Y200910D01*
X290294D01*
X289831Y200718D01*
X287103Y197990D01*
X286911Y197528D01*
Y197122D01*
X285647D01*
Y195175D01*
X287571D01*
Y195000D01*
D01*
Y195175D01*
X289496D01*
Y197122D01*
X288792D01*
X288585Y197622D01*
X290194Y199231D01*
X290694Y199024D01*
Y198331D01*
X292640D01*
Y200256D01*
Y202181D01*
D02*
G37*
G36*
X261606Y199106D02*
X258675D01*
Y196175D01*
X261606D01*
Y199106D01*
D02*
G37*
G36*
X283989Y197126D02*
X280131D01*
Y195654D01*
X278244D01*
X278187Y195793D01*
X277793Y196187D01*
X277278Y196400D01*
X276722D01*
X276207Y196187D01*
X275813Y195793D01*
X275600Y195279D01*
Y194721D01*
X275813Y194207D01*
X276155Y193865D01*
Y193621D01*
X276097Y193562D01*
X275905Y193100D01*
Y192126D01*
X274630D01*
Y187874D01*
X278489D01*
Y192126D01*
X277214D01*
Y192829D01*
X277272Y192887D01*
X277464Y193350D01*
Y193677D01*
X277793Y193813D01*
X278187Y194207D01*
X278244Y194346D01*
X280131D01*
Y192874D01*
X283989D01*
Y197126D01*
D02*
G37*
G36*
X250073Y196568D02*
X249516D01*
X249002Y196355D01*
X248608Y195961D01*
X248395Y195447D01*
Y194890D01*
X248608Y194375D01*
X249002Y193981D01*
X249516Y193768D01*
X250073D01*
X250588Y193981D01*
X250981Y194375D01*
X251195Y194890D01*
Y195447D01*
X250981Y195961D01*
X250588Y196355D01*
X250073Y196568D01*
D02*
G37*
G36*
X261606Y195825D02*
X258675D01*
Y192894D01*
X261606D01*
Y195825D01*
D02*
G37*
G36*
X289496Y194825D02*
X287746D01*
Y192878D01*
X289496D01*
Y194825D01*
D02*
G37*
G36*
X287396D02*
X285647D01*
Y192878D01*
X287396D01*
Y194825D01*
D02*
G37*
G36*
X270446Y205825D02*
X263775D01*
Y201319D01*
X270446D01*
Y201914D01*
X270908Y202106D01*
X271873Y201141D01*
Y199584D01*
X271810Y199110D01*
X271373Y199110D01*
X265590D01*
Y193815D01*
X263429Y191654D01*
X258744D01*
X258687Y191793D01*
X258293Y192187D01*
X257779Y192400D01*
X257793Y192894D01*
X258325D01*
Y196000D01*
Y199106D01*
X256173D01*
X255966Y199606D01*
X257679Y201319D01*
X263425D01*
Y205825D01*
X256754D01*
Y202244D01*
X254353Y199843D01*
X254161Y199381D01*
Y196533D01*
X254259Y196297D01*
X254161Y196061D01*
Y189000D01*
X252981D01*
Y187644D01*
X255650D01*
Y189000D01*
X255470D01*
Y192894D01*
X257207D01*
X257222Y192400D01*
X256707Y192187D01*
X256313Y191793D01*
X256100Y191279D01*
Y190721D01*
X256313Y190207D01*
X256707Y189813D01*
X257222Y189600D01*
X257779D01*
X258293Y189813D01*
X258687Y190207D01*
X258744Y190346D01*
X263700D01*
X264162Y190538D01*
X266515Y192890D01*
X271810D01*
Y194579D01*
X272310Y194847D01*
X272580Y194793D01*
X272851Y194847D01*
X273080Y195000D01*
X273234Y195229D01*
X273288Y195500D01*
Y201433D01*
X273288Y201434D01*
X273234Y201704D01*
X273080Y201934D01*
X273080Y201934D01*
X270514Y204500D01*
X270446Y204545D01*
Y205825D01*
D02*
G37*
G36*
X215122Y194169D02*
X213175D01*
Y192244D01*
Y190319D01*
X215122D01*
Y191346D01*
X217316D01*
X217778Y191537D01*
X217970Y192000D01*
X217778Y192463D01*
X217316Y192654D01*
X215122D01*
Y194169D01*
D02*
G37*
G36*
X212825D02*
X210878D01*
Y192654D01*
X209315D01*
X208853Y192463D01*
X208661Y192000D01*
X208853Y191537D01*
X209315Y191346D01*
X210878D01*
Y190319D01*
X212825D01*
Y192244D01*
Y194169D01*
D02*
G37*
G36*
X281896Y192122D02*
X280147D01*
Y190175D01*
X281896D01*
Y192122D01*
D02*
G37*
G36*
X159778Y192400D02*
X159221D01*
X158707Y192187D01*
X158313Y191793D01*
X158100Y191279D01*
Y190721D01*
X158313Y190207D01*
X158707Y189813D01*
X159221Y189600D01*
X159778D01*
X160293Y189813D01*
X160687Y190207D01*
X160900Y190721D01*
Y191279D01*
X160687Y191793D01*
X160293Y192187D01*
X159778Y192400D01*
D02*
G37*
G36*
X330109Y189334D02*
X328753D01*
Y188175D01*
X330109D01*
Y189334D01*
D02*
G37*
G36*
X283996Y192122D02*
X282246D01*
Y190000D01*
Y187878D01*
X283996D01*
Y189346D01*
X285982D01*
X286445Y189538D01*
X286504Y189597D01*
X287067D01*
X287529Y189789D01*
X287778Y190038D01*
X287970Y190500D01*
X287778Y190963D01*
X287316Y191154D01*
X286853Y190963D01*
X286796Y190905D01*
X286233D01*
X285771Y190714D01*
X285711Y190654D01*
X283996D01*
Y192122D01*
D02*
G37*
G36*
X281896Y189825D02*
X280147D01*
Y187878D01*
X281896D01*
Y189825D01*
D02*
G37*
G36*
X331815Y189334D02*
X330459D01*
Y188000D01*
Y186666D01*
X331815D01*
Y187346D01*
X333655D01*
X333960Y187041D01*
X334422Y186850D01*
X334820D01*
X335282Y187041D01*
X335474Y187504D01*
X335282Y187967D01*
X334820Y188158D01*
X334693D01*
X334388Y188462D01*
X333926Y188654D01*
X331815D01*
Y189334D01*
D02*
G37*
G36*
X330109Y187825D02*
X328753D01*
Y186666D01*
X330109D01*
Y187825D01*
D02*
G37*
G36*
X325594Y192400D02*
X325037D01*
X324522Y192187D01*
X324129Y191793D01*
X323916Y191279D01*
Y190721D01*
X324129Y190207D01*
X324522Y189813D01*
X324762Y189714D01*
Y188734D01*
X324812Y188614D01*
Y186661D01*
X327883D01*
Y189339D01*
X326270D01*
X326143Y189711D01*
X326134Y189839D01*
X326502Y190207D01*
X326715Y190721D01*
Y191279D01*
X326502Y191793D01*
X326109Y192187D01*
X325594Y192400D01*
D02*
G37*
G36*
X87278Y188900D02*
X86721D01*
X86207Y188687D01*
X85813Y188293D01*
X85600Y187778D01*
Y187222D01*
X85813Y186707D01*
X86207Y186313D01*
X86721Y186100D01*
X87278D01*
X87793Y186313D01*
X88187Y186707D01*
X88400Y187222D01*
Y187778D01*
X88187Y188293D01*
X87793Y188687D01*
X87278Y188900D01*
D02*
G37*
G36*
X255650Y187294D02*
X254490D01*
Y185937D01*
X255650D01*
Y187294D01*
D02*
G37*
G36*
X254140D02*
X252981D01*
Y185937D01*
X254140D01*
Y187294D01*
D02*
G37*
G36*
X249934Y188547D02*
X249377D01*
X248863Y188334D01*
X248469Y187940D01*
X248256Y187425D01*
Y186868D01*
X248469Y186354D01*
X248863Y185960D01*
X249377Y185747D01*
X249934D01*
X250449Y185960D01*
X250843Y186354D01*
X251056Y186868D01*
Y187425D01*
X250843Y187940D01*
X250449Y188334D01*
X249934Y188547D01*
D02*
G37*
G36*
X294941Y196673D02*
X290689D01*
Y192815D01*
X292161D01*
Y191729D01*
X292031Y191675D01*
X291641Y191285D01*
X291430Y190776D01*
Y190224D01*
X291641Y189715D01*
X291661Y189694D01*
Y189185D01*
X290190D01*
Y185327D01*
X294442D01*
Y189185D01*
X294167D01*
X293960Y189685D01*
X293990Y189715D01*
X294201Y190224D01*
Y190776D01*
X293990Y191285D01*
X293601Y191675D01*
X293470Y191729D01*
Y192815D01*
X294941D01*
Y196673D01*
D02*
G37*
G36*
X203315Y190154D02*
X202853Y189962D01*
X202661Y189500D01*
Y187803D01*
X200273D01*
Y184675D01*
X203379D01*
X206484D01*
Y187803D01*
X203970D01*
Y189500D01*
X203778Y189962D01*
X203315Y190154D01*
D02*
G37*
G36*
X288496Y185622D02*
X286746D01*
Y183675D01*
X288496D01*
Y185622D01*
D02*
G37*
G36*
X286396D02*
X284647D01*
Y183675D01*
X286396D01*
Y185622D01*
D02*
G37*
G36*
X282989Y185626D02*
X279131D01*
Y183482D01*
X277732D01*
X277674Y183621D01*
X277280Y184015D01*
X276766Y184228D01*
X276209D01*
X275819Y184067D01*
X275320Y184293D01*
Y184339D01*
X272249D01*
Y181661D01*
X275320D01*
X275320Y181661D01*
X275794Y181600D01*
X276209Y181428D01*
X276766D01*
X277280Y181641D01*
X277674Y182035D01*
X277732Y182174D01*
X279131D01*
Y181374D01*
X282989D01*
Y185626D01*
D02*
G37*
G36*
X214363Y187807D02*
X208142D01*
Y181193D01*
X210598D01*
Y180307D01*
X208142D01*
Y173693D01*
X214363D01*
Y180307D01*
X211907D01*
Y181193D01*
X214363D01*
Y183846D01*
X215071D01*
X215129Y183707D01*
X215523Y183313D01*
X216037Y183100D01*
X216594D01*
X217109Y183313D01*
X217502Y183707D01*
X217716Y184221D01*
Y184778D01*
X217502Y185293D01*
X217109Y185687D01*
X216594Y185900D01*
X216037D01*
X215523Y185687D01*
X215129Y185293D01*
X215071Y185154D01*
X214363D01*
Y187807D01*
D02*
G37*
G36*
X294437Y183669D02*
X292491D01*
Y181919D01*
X294437D01*
Y183669D01*
D02*
G37*
G36*
X292141D02*
X290194D01*
Y181919D01*
X292141D01*
Y183669D01*
D02*
G37*
G36*
X255654Y185067D02*
X252977D01*
Y182921D01*
X250532Y180476D01*
X250514Y180493D01*
X249999Y180707D01*
X249443D01*
X248928Y180493D01*
X248534Y180100D01*
X248321Y179585D01*
Y179028D01*
X248534Y178514D01*
X248928Y178120D01*
X249443Y177907D01*
X249999D01*
X250514Y178120D01*
X250908Y178514D01*
X251121Y179028D01*
Y179215D01*
X251820Y179914D01*
X252202Y179697D01*
X252258Y179645D01*
Y179108D01*
X252471Y178593D01*
X252865Y178200D01*
X253380Y177986D01*
X253937D01*
X254075Y178044D01*
X255202Y176918D01*
X255664Y176726D01*
X260977D01*
Y175496D01*
X262926D01*
X265385Y173037D01*
X265847Y172846D01*
X268312D01*
Y172161D01*
X271382D01*
Y174839D01*
X268312D01*
Y174154D01*
X266118D01*
X263709Y176563D01*
X263654Y176586D01*
Y178567D01*
X261480D01*
X261351Y178923D01*
X261339Y179067D01*
X261708Y179436D01*
X261712Y179437D01*
X262140D01*
Y180968D01*
X262316D01*
Y181143D01*
X263650D01*
Y182156D01*
X263934Y182346D01*
X264000Y182346D01*
X268312D01*
Y181661D01*
X271382D01*
Y184339D01*
X268312D01*
Y183654D01*
X264205D01*
X264197Y183662D01*
X263735Y183854D01*
X255654D01*
Y185067D01*
D02*
G37*
G36*
X206484Y184325D02*
X203554D01*
Y181197D01*
X206484D01*
Y184325D01*
D02*
G37*
G36*
X203204D02*
X200273D01*
Y181197D01*
X203204D01*
Y184325D01*
D02*
G37*
G36*
X110278Y183400D02*
X109722D01*
X109207Y183187D01*
X108813Y182793D01*
X108600Y182279D01*
Y181721D01*
X108813Y181207D01*
X109207Y180813D01*
X109722Y180600D01*
X110278D01*
X110793Y180813D01*
X111187Y181207D01*
X111400Y181721D01*
Y182279D01*
X111187Y182793D01*
X110793Y183187D01*
X110278Y183400D01*
D02*
G37*
G36*
X263650Y180793D02*
X262491D01*
Y179437D01*
X263650D01*
Y180793D01*
D02*
G37*
G36*
X282989Y180626D02*
X279131D01*
Y179154D01*
X277560D01*
X277502Y179293D01*
X277109Y179687D01*
X276594Y179900D01*
X276037D01*
X275522Y179687D01*
X275129Y179293D01*
X274916Y178779D01*
Y178221D01*
X275129Y177707D01*
X275522Y177313D01*
X276037Y177100D01*
X276594D01*
X277109Y177313D01*
X277502Y177707D01*
X277560Y177846D01*
X279131D01*
Y176374D01*
X282989D01*
Y180626D01*
D02*
G37*
G36*
X362594Y181900D02*
X362037D01*
X361523Y181687D01*
X361129Y181293D01*
X360915Y180779D01*
Y180221D01*
X360973Y180083D01*
X358195Y177304D01*
X353506D01*
X353044Y177112D01*
X324585Y148654D01*
X316560D01*
X316502Y148793D01*
X316109Y149187D01*
X315594Y149400D01*
X315037D01*
X314523Y149187D01*
X314129Y148793D01*
X313915Y148278D01*
Y147722D01*
X314129Y147207D01*
X314523Y146813D01*
X315037Y146600D01*
X315594D01*
X316109Y146813D01*
X316502Y147207D01*
X316560Y147346D01*
X324856D01*
X325319Y147538D01*
X353777Y175996D01*
X358466D01*
X358928Y176188D01*
X361898Y179157D01*
X362037Y179100D01*
X362594D01*
X363109Y179313D01*
X363502Y179707D01*
X363716Y180221D01*
Y180779D01*
X363502Y181293D01*
X363109Y181687D01*
X362594Y181900D01*
D02*
G37*
G36*
X206484Y180303D02*
X203554D01*
Y177175D01*
X206484D01*
Y180303D01*
D02*
G37*
G36*
X288496Y183325D02*
X286571D01*
X284647D01*
Y181378D01*
X285917D01*
Y180622D01*
X284647D01*
Y178675D01*
X286571D01*
Y178500D01*
X286746D01*
Y176378D01*
X288496D01*
Y177846D01*
X290815D01*
X291278Y178038D01*
X292278Y179037D01*
X292470Y179500D01*
Y179819D01*
X294437D01*
Y181569D01*
X290194D01*
Y179819D01*
X290194D01*
X290352Y179319D01*
X290237Y179154D01*
X288496D01*
Y180622D01*
X287226D01*
Y181378D01*
X288496D01*
Y183325D01*
D02*
G37*
G36*
X286396Y178325D02*
X284647D01*
Y176378D01*
X286396D01*
Y178325D01*
D02*
G37*
G36*
X104000Y181654D02*
X103537Y181463D01*
X103346Y181000D01*
Y178803D01*
X101957D01*
Y175675D01*
X104888D01*
Y178803D01*
X104654D01*
Y181000D01*
X104463Y181463D01*
X104000Y181654D01*
D02*
G37*
G36*
X282989Y175626D02*
X279131D01*
Y174654D01*
X277167D01*
X277149Y174646D01*
X277109Y174687D01*
X276594Y174900D01*
X276037D01*
X275819Y174810D01*
X275320Y174839D01*
X275320Y174839D01*
X275320Y174839D01*
X272249D01*
Y172161D01*
X275320D01*
X275320Y172161D01*
Y172161D01*
X275819Y172190D01*
X276037Y172100D01*
X276349D01*
X278690Y169760D01*
Y166827D01*
X282942D01*
Y170685D01*
X279889D01*
X279749Y170874D01*
X280002Y171374D01*
X282989D01*
Y175626D01*
D02*
G37*
G36*
X206484Y176825D02*
X203554D01*
Y173697D01*
X206484D01*
Y176825D01*
D02*
G37*
G36*
X286396Y175622D02*
X284647D01*
Y173675D01*
X286396D01*
Y175622D01*
D02*
G37*
G36*
X98278Y175900D02*
X97721D01*
X97207Y175687D01*
X96813Y175293D01*
X96600Y174778D01*
Y174222D01*
X96813Y173707D01*
X97207Y173313D01*
X97721Y173100D01*
X98278D01*
X98793Y173313D01*
X99187Y173707D01*
X99400Y174222D01*
Y174778D01*
X99187Y175293D01*
X98793Y175687D01*
X98278Y175900D01*
D02*
G37*
G36*
X88279D02*
X87722D01*
X87207Y175687D01*
X86813Y175293D01*
X86600Y174778D01*
Y174222D01*
X86813Y173707D01*
X87207Y173313D01*
X87722Y173100D01*
X88279D01*
X88793Y173313D01*
X89187Y173707D01*
X89400Y174222D01*
Y174778D01*
X89187Y175293D01*
X88793Y175687D01*
X88279Y175900D01*
D02*
G37*
G36*
X108169Y178803D02*
X105238D01*
Y175500D01*
Y172197D01*
X108169D01*
Y175369D01*
X108223Y175500D01*
X108169Y175631D01*
Y178803D01*
D02*
G37*
G36*
X342650Y173063D02*
X341491D01*
Y171706D01*
X342650D01*
Y173063D01*
D02*
G37*
G36*
X341141D02*
X339981D01*
Y171706D01*
X341141D01*
Y173063D01*
D02*
G37*
G36*
X253577Y175893D02*
X253538D01*
X253076Y175701D01*
X252884Y175239D01*
X253076Y174776D01*
X253141Y174749D01*
X254556Y173334D01*
X254452Y172834D01*
X253753D01*
Y171675D01*
X255284D01*
X256815D01*
Y172834D01*
X255938D01*
Y173531D01*
X255747Y173994D01*
X254039Y175701D01*
X253577Y175893D01*
D02*
G37*
G36*
X288496Y175622D02*
X286746D01*
Y173500D01*
Y171378D01*
X288496D01*
Y173346D01*
X290815D01*
X291278Y173538D01*
X291470Y174000D01*
X291278Y174462D01*
X290815Y174654D01*
X288496D01*
Y175622D01*
D02*
G37*
G36*
X286396Y173325D02*
X284647D01*
Y171378D01*
X286396D01*
Y173325D01*
D02*
G37*
G36*
X133325Y172563D02*
X132166D01*
Y171206D01*
X133325D01*
Y172563D01*
D02*
G37*
G36*
X256815Y171325D02*
X255459D01*
Y170166D01*
X256815D01*
Y171325D01*
D02*
G37*
G36*
X255109D02*
X253753D01*
Y170166D01*
X255109D01*
Y171325D01*
D02*
G37*
G36*
X134834Y172563D02*
X133675D01*
Y171031D01*
Y169500D01*
X134834D01*
Y170346D01*
X136000D01*
X136462Y170537D01*
X136654Y171000D01*
X136462Y171463D01*
X136000Y171654D01*
X134834D01*
Y172563D01*
D02*
G37*
G36*
X133325Y170856D02*
X132166D01*
Y169500D01*
X133325D01*
Y170856D01*
D02*
G37*
G36*
X104888Y175325D02*
X101957D01*
Y172197D01*
X103346D01*
Y169000D01*
X103537Y168537D01*
X104000Y168346D01*
X104463Y168537D01*
X104654Y169000D01*
Y172197D01*
X104888D01*
Y175325D01*
D02*
G37*
G36*
X249999Y176770D02*
X249443D01*
X248928Y176556D01*
X248534Y176163D01*
X248321Y175648D01*
Y175091D01*
X248534Y174576D01*
X248928Y174183D01*
X249098Y174112D01*
Y173094D01*
X249290Y172632D01*
X249812Y172110D01*
Y170504D01*
X248977D01*
Y167433D01*
X251654D01*
Y170161D01*
X252883D01*
Y172839D01*
X250901D01*
X250879Y172894D01*
X250407Y173365D01*
Y174138D01*
X250514Y174183D01*
X250908Y174576D01*
X251121Y175091D01*
Y175648D01*
X250908Y176163D01*
X250514Y176556D01*
X249999Y176770D01*
D02*
G37*
G36*
X342650Y171356D02*
X339981D01*
Y170000D01*
X340661D01*
Y167500D01*
X340853Y167037D01*
X341316Y166846D01*
X341778Y167037D01*
X341970Y167500D01*
Y170000D01*
X342650D01*
Y171356D01*
D02*
G37*
G36*
X215279Y166900D02*
X214721D01*
X214207Y166687D01*
X213813Y166293D01*
X213756Y166154D01*
X212472D01*
Y166835D01*
X201528D01*
Y161795D01*
X212472D01*
Y164846D01*
X213756D01*
X213813Y164707D01*
X214207Y164313D01*
X214721Y164100D01*
X215279D01*
X215793Y164313D01*
X216187Y164707D01*
X216400Y165222D01*
Y165779D01*
X216187Y166293D01*
X215793Y166687D01*
X215279Y166900D01*
D02*
G37*
G36*
X226376Y165182D02*
X225819D01*
X225305Y164969D01*
X224911Y164575D01*
X224698Y164061D01*
Y163504D01*
X224911Y162989D01*
X225305Y162595D01*
X225819Y162382D01*
X226376D01*
X226891Y162595D01*
X227285Y162989D01*
X227498Y163504D01*
Y164061D01*
X227285Y164575D01*
X226891Y164969D01*
X226376Y165182D01*
D02*
G37*
G36*
X222484Y161122D02*
X220735D01*
Y159175D01*
X222484D01*
Y161122D01*
D02*
G37*
G36*
X220385D02*
X218635D01*
Y159175D01*
X220385D01*
Y161122D01*
D02*
G37*
G36*
X143569Y157622D02*
X141819D01*
Y156154D01*
X134681D01*
Y157622D01*
X132931D01*
Y155500D01*
Y153378D01*
X134681D01*
Y154846D01*
X141819D01*
Y153378D01*
X143569D01*
Y155500D01*
Y157622D01*
D02*
G37*
G36*
X145669D02*
X143919D01*
Y155675D01*
X145669D01*
Y157622D01*
D02*
G37*
G36*
X132581Y157622D02*
X130831D01*
Y155675D01*
X132581D01*
Y157622D01*
D02*
G37*
G36*
X250141Y154488D02*
X248194D01*
Y153398D01*
X247437D01*
Y154488D01*
X245491D01*
Y152563D01*
Y150638D01*
X247437D01*
Y152090D01*
X248194D01*
Y150638D01*
X249161D01*
Y149000D01*
X249353Y148538D01*
X249560Y148330D01*
X250023Y148139D01*
X253045D01*
X253508Y148330D01*
X254256Y149079D01*
X254281Y149138D01*
X255140D01*
Y150888D01*
X253194D01*
Y149869D01*
X253192Y149865D01*
X252775Y149447D01*
X250470D01*
Y150638D01*
X252437D01*
Y152388D01*
X250315D01*
Y152563D01*
X250141D01*
Y154488D01*
D02*
G37*
G36*
X145669Y155325D02*
X143919D01*
Y153378D01*
X145669D01*
Y155325D01*
D02*
G37*
G36*
X132581Y155325D02*
X130831D01*
Y153378D01*
X132581D01*
Y155325D01*
D02*
G37*
G36*
X149278Y160900D02*
X148722D01*
X148207Y160687D01*
X147813Y160293D01*
X147600Y159778D01*
Y159221D01*
X147813Y158707D01*
X148207Y158313D01*
X148346Y158256D01*
Y157626D01*
X147327D01*
Y153374D01*
X151185D01*
Y157626D01*
X149654D01*
Y158256D01*
X149793Y158313D01*
X150187Y158707D01*
X150400Y159221D01*
Y159778D01*
X150187Y160293D01*
X149793Y160687D01*
X149278Y160900D01*
D02*
G37*
G36*
X124276Y161386D02*
X123724D01*
X123215Y161175D01*
X122825Y160785D01*
X122614Y160276D01*
Y159724D01*
X122825Y159215D01*
X123215Y158825D01*
X123642Y158648D01*
X123809Y158245D01*
X125315Y156739D01*
Y153374D01*
X129173D01*
Y157626D01*
X126202D01*
X124894Y158934D01*
X125175Y159215D01*
X125386Y159724D01*
Y160276D01*
X125175Y160785D01*
X124785Y161175D01*
X124276Y161386D01*
D02*
G37*
G36*
X252437Y154488D02*
X250490D01*
Y152738D01*
X252437D01*
Y154488D01*
D02*
G37*
G36*
X245141D02*
X243194D01*
Y152738D01*
X245141D01*
Y154488D01*
D02*
G37*
G36*
X257437Y152988D02*
X255490D01*
Y151238D01*
X257437D01*
Y152988D01*
D02*
G37*
G36*
X255140D02*
X253194D01*
Y151238D01*
X255140D01*
Y152988D01*
D02*
G37*
G36*
X222484Y158825D02*
X220560D01*
X218635D01*
Y156878D01*
X220161D01*
Y153122D01*
X219135D01*
Y151175D01*
X221060D01*
X222984D01*
Y153122D01*
X221470D01*
Y156878D01*
X222484D01*
Y158825D01*
D02*
G37*
G36*
X207315Y156254D02*
X207185Y156200D01*
X207175D01*
Y153685D01*
Y151170D01*
X212468D01*
Y152846D01*
X215000D01*
X215462Y153038D01*
X215654Y153500D01*
X215462Y153963D01*
X215000Y154154D01*
X212468D01*
Y156200D01*
X207446D01*
X207315Y156254D01*
D02*
G37*
G36*
X206825Y156200D02*
X201532D01*
Y154154D01*
X199500D01*
X199038Y153963D01*
X198846Y153500D01*
X199038Y153038D01*
X199500Y152846D01*
X201532D01*
Y151170D01*
X206825D01*
Y153685D01*
Y156200D01*
D02*
G37*
G36*
X245141Y152388D02*
X243194D01*
Y150638D01*
X245141D01*
Y152388D01*
D02*
G37*
G36*
X257437Y150888D02*
X255490D01*
Y149138D01*
X257437D01*
Y150888D01*
D02*
G37*
G36*
X222984Y150825D02*
X221235D01*
Y148878D01*
X222984D01*
Y150825D01*
D02*
G37*
G36*
X220885D02*
X219135D01*
Y148878D01*
X220885D01*
Y150825D01*
D02*
G37*
G36*
X228001Y161126D02*
X224142D01*
Y156874D01*
X225661D01*
Y156244D01*
X225522Y156187D01*
X225129Y155793D01*
X224916Y155279D01*
Y154721D01*
X225129Y154207D01*
X225522Y153813D01*
X225661Y153756D01*
Y153126D01*
X224642D01*
Y148874D01*
X228501D01*
Y153126D01*
X226970D01*
Y153756D01*
X227109Y153813D01*
X227502Y154207D01*
X227715Y154721D01*
Y155279D01*
X227502Y155793D01*
X227109Y156187D01*
X226970Y156244D01*
Y156874D01*
X228001D01*
Y161126D01*
D02*
G37*
G36*
X206779Y149400D02*
X206222D01*
X205707Y149187D01*
X205313Y148793D01*
X205100Y148278D01*
Y147722D01*
X205313Y147207D01*
X205707Y146813D01*
X206222Y146600D01*
X206779D01*
X207293Y146813D01*
X207687Y147207D01*
X207900Y147722D01*
Y148278D01*
X207687Y148793D01*
X207293Y149187D01*
X206779Y149400D01*
D02*
G37*
G36*
X261094Y148400D02*
X260537D01*
X260022Y148187D01*
X259629Y147793D01*
X259416Y147278D01*
Y146721D01*
X259629Y146207D01*
X260022Y145813D01*
X260537Y145600D01*
X261094D01*
X261609Y145813D01*
X262002Y146207D01*
X262215Y146721D01*
Y147278D01*
X262002Y147793D01*
X261609Y148187D01*
X261094Y148400D01*
D02*
G37*
G36*
X216963Y147400D02*
X216406D01*
X215891Y147187D01*
X215498Y146793D01*
X215284Y146279D01*
Y145721D01*
X215498Y145207D01*
X215891Y144813D01*
X216406Y144600D01*
X216963D01*
X217477Y144813D01*
X217871Y145207D01*
X218085Y145721D01*
Y146279D01*
X217871Y146793D01*
X217477Y147187D01*
X216963Y147400D01*
D02*
G37*
G36*
X195463D02*
X194906D01*
X194391Y147187D01*
X193998Y146793D01*
X193784Y146279D01*
Y145721D01*
X193998Y145207D01*
X194391Y144813D01*
X194906Y144600D01*
X195463D01*
X195977Y144813D01*
X196371Y145207D01*
X196584Y145721D01*
Y146279D01*
X196371Y146793D01*
X195977Y147187D01*
X195463Y147400D01*
D02*
G37*
G36*
X343266Y143250D02*
X342709D01*
X342194Y143037D01*
X341800Y142643D01*
X341587Y142129D01*
Y141571D01*
X341800Y141057D01*
X342194Y140663D01*
X342709Y140450D01*
X343266D01*
X343780Y140663D01*
X344174Y141057D01*
X344387Y141571D01*
Y142129D01*
X344174Y142643D01*
X343780Y143037D01*
X343266Y143250D01*
D02*
G37*
G36*
X339094Y135900D02*
X338537D01*
X338022Y135687D01*
X337629Y135293D01*
X337416Y134778D01*
Y134359D01*
X337211Y134154D01*
X333560D01*
X333502Y134293D01*
X333109Y134687D01*
X332594Y134900D01*
X332037D01*
X331522Y134687D01*
X331129Y134293D01*
X330915Y133779D01*
Y133221D01*
X331129Y132707D01*
X331522Y132313D01*
X332037Y132100D01*
X332594D01*
X333109Y132313D01*
X333502Y132707D01*
X333560Y132846D01*
X337482D01*
X337945Y133037D01*
X338162Y133255D01*
X338537Y133100D01*
X339094D01*
X339609Y133313D01*
X340002Y133707D01*
X340215Y134221D01*
Y134778D01*
X340002Y135293D01*
X339609Y135687D01*
X339094Y135900D01*
D02*
G37*
G36*
X356650Y135000D02*
X355490D01*
Y133643D01*
X356650D01*
Y135000D01*
D02*
G37*
G36*
X355140D02*
X353981D01*
Y133643D01*
X355140D01*
Y135000D01*
D02*
G37*
G36*
X327594Y136400D02*
X327037D01*
X326522Y136187D01*
X326129Y135793D01*
X325916Y135278D01*
Y134722D01*
X326129Y134207D01*
X326522Y133813D01*
X327037Y133600D01*
X327594D01*
X328109Y133813D01*
X328502Y134207D01*
X328715Y134722D01*
Y135278D01*
X328502Y135793D01*
X328109Y136187D01*
X327594Y136400D01*
D02*
G37*
G36*
X360594Y135900D02*
X360037D01*
X359523Y135687D01*
X359129Y135293D01*
X358915Y134778D01*
Y134221D01*
X359129Y133707D01*
X359523Y133313D01*
X360037Y133100D01*
X360594D01*
X361109Y133313D01*
X361502Y133707D01*
X361716Y134221D01*
Y134778D01*
X361502Y135293D01*
X361109Y135687D01*
X360594Y135900D01*
D02*
G37*
G36*
X355140Y133293D02*
X353981D01*
Y131937D01*
X355140D01*
Y133293D01*
D02*
G37*
G36*
X316094Y126900D02*
X315537D01*
X315022Y126687D01*
X314629Y126293D01*
X314571Y126154D01*
X282816D01*
X282353Y125962D01*
X282233Y125842D01*
X282094Y125900D01*
X281537D01*
X281023Y125687D01*
X280629Y125293D01*
X280416Y124778D01*
Y124222D01*
X280629Y123707D01*
X280661Y123674D01*
Y109500D01*
X280853Y109037D01*
X286273Y103618D01*
X286481Y103201D01*
X286481D01*
X286481Y103201D01*
Y96882D01*
X286443Y96866D01*
X285978Y96402D01*
X285787Y95939D01*
Y95298D01*
X285760Y95280D01*
X285676Y95154D01*
X285001D01*
Y96626D01*
X281142D01*
Y92374D01*
X285001D01*
Y93846D01*
X285676D01*
X285760Y93720D01*
X286072Y93511D01*
X286441Y93438D01*
X286810Y93511D01*
X287122Y93720D01*
X287331Y94033D01*
X287404Y94402D01*
Y94598D01*
X287331Y94967D01*
X287122Y95280D01*
X287179Y95752D01*
X287226Y95799D01*
X288196D01*
X288348Y95299D01*
X288319Y95280D01*
X288110Y94967D01*
X288037Y94598D01*
Y94402D01*
X288110Y94033D01*
X288319Y93720D01*
X288631Y93511D01*
X289000Y93438D01*
X289369Y93511D01*
X289681Y93720D01*
X289890Y94033D01*
X289963Y94402D01*
Y94598D01*
X289890Y94967D01*
X289681Y95280D01*
X289652Y95299D01*
X289804Y95799D01*
X290763D01*
X290804Y95755D01*
X290886Y95345D01*
X290881Y95276D01*
X290673Y94965D01*
X290615Y94675D01*
X291559D01*
Y94325D01*
X290615D01*
X290673Y94035D01*
X290852Y93767D01*
Y92193D01*
X289175D01*
Y89874D01*
Y87555D01*
X292500D01*
Y87813D01*
X293000Y88020D01*
X293207Y87813D01*
X293722Y87600D01*
X294279D01*
X294793Y87813D01*
X295187Y88207D01*
X295400Y88722D01*
Y89279D01*
X295187Y89793D01*
X294793Y90187D01*
X294654Y90244D01*
Y91650D01*
X294462Y92113D01*
X293970Y92606D01*
Y94532D01*
X293778Y94994D01*
X292516Y96256D01*
X291906Y96866D01*
X291520Y97026D01*
Y103201D01*
X288540D01*
X281970Y109771D01*
Y123100D01*
X282094D01*
X282609Y123313D01*
X283002Y123707D01*
X283215Y124222D01*
Y124778D01*
X283261Y124846D01*
X314571D01*
X314629Y124707D01*
X315022Y124313D01*
X315537Y124100D01*
X315791D01*
X324473Y115417D01*
X324415Y115278D01*
Y114722D01*
X324629Y114207D01*
X325023Y113813D01*
X325537Y113600D01*
X326094D01*
X326609Y113813D01*
X327002Y114207D01*
X327216Y114722D01*
Y115278D01*
X327002Y115793D01*
X326609Y116187D01*
X326094Y116400D01*
X325537D01*
X325398Y116342D01*
X317011Y124729D01*
X317215Y125222D01*
Y125778D01*
X317002Y126293D01*
X316609Y126687D01*
X316094Y126900D01*
D02*
G37*
G36*
X401500Y166654D02*
X361816D01*
X361353Y166463D01*
X336045Y141154D01*
X318586D01*
X307658Y152083D01*
X307716Y152222D01*
Y152778D01*
X307502Y153293D01*
X307109Y153687D01*
X306594Y153900D01*
X306037D01*
X305522Y153687D01*
X305129Y153293D01*
X304915Y152778D01*
Y152222D01*
X305129Y151707D01*
X305522Y151313D01*
X306037Y151100D01*
X306594D01*
X306733Y151157D01*
X317853Y140038D01*
X318316Y139846D01*
X336315D01*
X336778Y140038D01*
X362087Y165346D01*
X401229D01*
X440385Y126190D01*
X440102Y125766D01*
X439779Y125900D01*
X439221D01*
X438707Y125687D01*
X438313Y125293D01*
X438100Y124778D01*
Y124222D01*
X438313Y123707D01*
X438707Y123313D01*
X439221Y123100D01*
X439779D01*
X440293Y123313D01*
X440687Y123707D01*
X440900Y124222D01*
Y124778D01*
X440766Y125102D01*
X441190Y125385D01*
X444158Y122417D01*
X444100Y122278D01*
Y121721D01*
X444158Y121583D01*
X440855Y118280D01*
X440126D01*
X439663Y118088D01*
X435537Y113962D01*
X435346Y113500D01*
Y92244D01*
X435207Y92187D01*
X434813Y91793D01*
X434600Y91278D01*
Y90721D01*
X434813Y90207D01*
X435207Y89813D01*
X435721Y89600D01*
X436278D01*
X436793Y89813D01*
X437187Y90207D01*
X437400Y90721D01*
Y91278D01*
X437187Y91793D01*
X436793Y92187D01*
X436654Y92244D01*
Y113229D01*
X440397Y116972D01*
X441126D01*
X441588Y117163D01*
X445083Y120658D01*
X445222Y120600D01*
X445779D01*
X446293Y120813D01*
X446687Y121207D01*
X446900Y121721D01*
Y122278D01*
X446687Y122793D01*
X446293Y123187D01*
X445779Y123400D01*
X445222D01*
X445083Y123343D01*
X401963Y166463D01*
X401500Y166654D01*
D02*
G37*
G36*
X331816Y128654D02*
X331353Y128463D01*
X331161Y128000D01*
Y126334D01*
X330316D01*
Y125175D01*
X331847D01*
X333378D01*
Y126334D01*
X332470D01*
Y128000D01*
X332278Y128463D01*
X331816Y128654D01*
D02*
G37*
G36*
X407094Y126900D02*
X406537D01*
X406023Y126687D01*
X405629Y126293D01*
X405415Y125778D01*
Y125222D01*
X405629Y124707D01*
X406023Y124313D01*
X406537Y124100D01*
X407094D01*
X407609Y124313D01*
X408002Y124707D01*
X408216Y125222D01*
Y125778D01*
X408002Y126293D01*
X407609Y126687D01*
X407094Y126900D01*
D02*
G37*
G36*
X374594Y163400D02*
X374037D01*
X373522Y163187D01*
X373129Y162793D01*
X372916Y162278D01*
Y162192D01*
X346615Y135892D01*
X345666D01*
X345235Y135806D01*
X344870Y135562D01*
X342469Y133161D01*
X342225Y132796D01*
X342140Y132365D01*
Y131416D01*
X338349Y127626D01*
X338316D01*
X337885Y127540D01*
X337519Y127296D01*
X336562Y126339D01*
X334249D01*
Y124025D01*
X333871Y123647D01*
X333378Y123862D01*
X333378Y124084D01*
Y124825D01*
X332022D01*
Y123666D01*
X332926D01*
X333182Y123666D01*
X333397Y123173D01*
X331623Y121400D01*
X331537D01*
X331023Y121187D01*
X330629Y120793D01*
X330416Y120279D01*
Y119721D01*
X330629Y119207D01*
X330690Y119146D01*
Y118004D01*
X330477D01*
Y114933D01*
X333154D01*
Y118004D01*
X332942D01*
Y119146D01*
X333002Y119207D01*
X333215Y119721D01*
Y119808D01*
X337069Y123661D01*
X337319D01*
Y123912D01*
X338782Y125374D01*
X354705D01*
Y124839D01*
X354312D01*
Y122161D01*
X354737D01*
Y121339D01*
X354343D01*
Y118661D01*
X357414D01*
Y121339D01*
X356989D01*
Y122161D01*
X357382D01*
Y124839D01*
X356957D01*
Y125662D01*
X357002Y125707D01*
X357215Y126222D01*
Y126778D01*
X357002Y127293D01*
X356676Y127620D01*
Y129297D01*
X356654Y129406D01*
Y130355D01*
X357116Y130546D01*
X358125Y129537D01*
X358224Y129496D01*
X358353Y129186D01*
X359130Y128409D01*
Y124834D01*
X358253D01*
Y123675D01*
X359784D01*
X361315D01*
Y124834D01*
X360438D01*
Y128680D01*
X360247Y129142D01*
X359470Y129919D01*
Y130000D01*
X359278Y130463D01*
X358888Y130624D01*
X356650Y132862D01*
Y133293D01*
X355490D01*
Y131937D01*
X355725D01*
X356133Y131529D01*
X355942Y131067D01*
X354157D01*
X353843Y131217D01*
X353652Y131432D01*
X353502Y131793D01*
X353109Y132187D01*
X352594Y132400D01*
X352037D01*
X351522Y132187D01*
X351129Y131793D01*
X351071Y131654D01*
X348626D01*
X348164Y131837D01*
Y132394D01*
X347951Y132909D01*
X347619Y133241D01*
X347592Y133364D01*
X347595Y133542D01*
X347639Y133810D01*
X347877Y133970D01*
X374508Y160600D01*
X374594D01*
X375109Y160813D01*
X375502Y161207D01*
X375715Y161722D01*
Y162278D01*
X375502Y162793D01*
X375109Y163187D01*
X374594Y163400D01*
D02*
G37*
G36*
X331672Y124825D02*
X330316D01*
Y123666D01*
X331672D01*
Y124825D01*
D02*
G37*
G36*
X361315Y123325D02*
X359784D01*
X358253D01*
Y122166D01*
X359161D01*
Y121334D01*
X358284D01*
Y120175D01*
X359816D01*
Y120000D01*
D01*
Y120175D01*
X361347D01*
Y121334D01*
X360470D01*
Y122166D01*
X361315D01*
Y123325D01*
D02*
G37*
G36*
X361347Y119825D02*
X359991D01*
Y118666D01*
X361347D01*
Y119825D01*
D02*
G37*
G36*
X359641D02*
X358284D01*
Y118666D01*
X359641D01*
Y119825D01*
D02*
G37*
G36*
X241279Y126900D02*
X240722D01*
X240207Y126687D01*
X239813Y126293D01*
X239600Y125778D01*
Y125222D01*
X239813Y124707D01*
X240207Y124313D01*
X240722Y124100D01*
X241279D01*
X241417Y124158D01*
X241996Y123579D01*
Y118137D01*
X241496Y117810D01*
X241279Y117900D01*
X240722D01*
X240207Y117687D01*
X239813Y117293D01*
X239600Y116779D01*
Y116221D01*
X239657Y116083D01*
X225537Y101962D01*
X225346Y101500D01*
Y98748D01*
X224724Y98582D01*
X223969Y98146D01*
X223354Y97531D01*
X222918Y96776D01*
X222693Y95935D01*
Y95065D01*
X222918Y94223D01*
X223354Y93469D01*
X223969Y92854D01*
X224724Y92418D01*
X225565Y92193D01*
X226435D01*
X227276Y92418D01*
X228031Y92854D01*
X228646Y93469D01*
X229082Y94223D01*
X229307Y95065D01*
Y95935D01*
X229082Y96776D01*
X228646Y97531D01*
X228031Y98146D01*
X227276Y98582D01*
X226654Y98748D01*
Y101229D01*
X240583Y115157D01*
X240722Y115100D01*
X241279D01*
X241496Y115190D01*
X241996Y114863D01*
Y102421D01*
X237835Y98260D01*
X237277Y98582D01*
X236435Y98807D01*
X235565D01*
X234723Y98582D01*
X233969Y98146D01*
X233354Y97531D01*
X232918Y96776D01*
X232693Y95935D01*
Y95065D01*
X232918Y94223D01*
X233354Y93469D01*
X233969Y92854D01*
X234723Y92418D01*
X235565Y92193D01*
X236435D01*
X237277Y92418D01*
X238031Y92854D01*
X238646Y93469D01*
X239082Y94223D01*
X239307Y95065D01*
Y95935D01*
X239082Y96776D01*
X238759Y97334D01*
X243112Y101688D01*
X243304Y102150D01*
Y123850D01*
X243112Y124312D01*
X242342Y125083D01*
X242400Y125222D01*
Y125778D01*
X242187Y126293D01*
X241793Y126687D01*
X241279Y126900D01*
D02*
G37*
G36*
X333150Y114063D02*
X331991D01*
Y112706D01*
X333150D01*
Y114063D01*
D02*
G37*
G36*
X236594Y152900D02*
X236037D01*
X235523Y152687D01*
X235129Y152293D01*
X234915Y151778D01*
Y151222D01*
X235129Y150707D01*
X235523Y150313D01*
X235661Y150256D01*
Y145000D01*
X235853Y144537D01*
X265297Y115094D01*
X265285Y114449D01*
X265129Y114293D01*
X264915Y113778D01*
Y113222D01*
X265129Y112707D01*
X265523Y112313D01*
X266037Y112100D01*
X266594D01*
X267109Y112313D01*
X267502Y112707D01*
X267716Y113222D01*
Y113778D01*
X267502Y114293D01*
X267109Y114687D01*
X266970Y114744D01*
Y115000D01*
X266778Y115463D01*
X236970Y145271D01*
Y150256D01*
X237109Y150313D01*
X237502Y150707D01*
X237716Y151222D01*
Y151778D01*
X237502Y152293D01*
X237109Y152687D01*
X236594Y152900D01*
D02*
G37*
G36*
X333150Y112356D02*
X331991D01*
Y111000D01*
X333150D01*
Y112356D01*
D02*
G37*
G36*
X331641Y114063D02*
X330481D01*
Y113186D01*
X328347D01*
X327885Y112994D01*
X326353Y111462D01*
X326161Y111000D01*
X326353Y110538D01*
X326816Y110346D01*
X327278Y110538D01*
X328618Y111877D01*
X330481D01*
Y111000D01*
X331641D01*
Y112531D01*
Y114063D01*
D02*
G37*
G36*
X231094Y141400D02*
X230537D01*
X230023Y141187D01*
X229629Y140793D01*
X229415Y140278D01*
Y139722D01*
X229629Y139207D01*
X230023Y138813D01*
X230537Y138600D01*
X231094D01*
X231609Y138813D01*
X232002Y139207D01*
X232060Y139346D01*
X233045D01*
X260473Y111917D01*
X260416Y111778D01*
Y111222D01*
X260629Y110707D01*
X261022Y110313D01*
X261537Y110100D01*
X262094D01*
X262609Y110313D01*
X263002Y110707D01*
X263215Y111222D01*
Y111778D01*
X263002Y112293D01*
X262609Y112687D01*
X262094Y112900D01*
X261537D01*
X261398Y112843D01*
X233778Y140463D01*
X233315Y140654D01*
X232060D01*
X232002Y140793D01*
X231609Y141187D01*
X231094Y141400D01*
D02*
G37*
G36*
X299455Y103197D02*
X297115D01*
Y99675D01*
X299455D01*
Y103197D01*
D02*
G37*
G36*
X302146D02*
X299805D01*
Y99500D01*
Y95803D01*
X302146D01*
Y98846D01*
X303816D01*
X304278Y99037D01*
X304470Y99500D01*
X304278Y99963D01*
X303816Y100154D01*
X302146D01*
Y103197D01*
D02*
G37*
G36*
X299455Y99325D02*
X297115D01*
Y95803D01*
X299455D01*
Y99325D01*
D02*
G37*
G36*
X256435Y98803D02*
X256175D01*
Y95675D01*
X259303D01*
Y95935D01*
X259078Y96775D01*
X258643Y97528D01*
X258028Y98143D01*
X257275Y98578D01*
X256435Y98803D01*
D02*
G37*
G36*
X255825D02*
X255565D01*
X254725Y98578D01*
X253972Y98143D01*
X253357Y97528D01*
X252922Y96775D01*
X252697Y95935D01*
Y95675D01*
X255825D01*
Y98803D01*
D02*
G37*
G36*
X279484Y96622D02*
X277735D01*
Y94675D01*
X279484D01*
Y96622D01*
D02*
G37*
G36*
X277385D02*
X275635D01*
Y94675D01*
X277385D01*
Y96622D01*
D02*
G37*
G36*
X439779Y96900D02*
X439221D01*
X438707Y96687D01*
X438313Y96293D01*
X438100Y95779D01*
Y95222D01*
X438313Y94707D01*
X438707Y94313D01*
X439221Y94100D01*
X439779D01*
X440293Y94313D01*
X440687Y94707D01*
X440900Y95222D01*
Y95779D01*
X440687Y96293D01*
X440293Y96687D01*
X439779Y96900D01*
D02*
G37*
G36*
X277385Y94325D02*
X275635D01*
Y92378D01*
X277385D01*
Y94325D01*
D02*
G37*
G36*
X259303Y95325D02*
X256175D01*
Y92197D01*
X256435D01*
X257275Y92422D01*
X258028Y92857D01*
X258643Y93472D01*
X259078Y94225D01*
X259303Y95065D01*
Y95325D01*
D02*
G37*
G36*
X255825D02*
X252697D01*
Y95065D01*
X252922Y94225D01*
X253357Y93472D01*
X253972Y92857D01*
X254725Y92422D01*
X255565Y92197D01*
X255825D01*
Y95325D01*
D02*
G37*
G36*
X266435Y98807D02*
X265565D01*
X264723Y98582D01*
X263969Y98146D01*
X263354Y97531D01*
X262918Y96776D01*
X262693Y95935D01*
Y95065D01*
X262918Y94223D01*
X263354Y93469D01*
X263969Y92854D01*
X264723Y92418D01*
X265565Y92193D01*
X266435D01*
X267277Y92418D01*
X268031Y92854D01*
X268646Y93469D01*
X269082Y94223D01*
X269307Y95065D01*
Y95935D01*
X269082Y96776D01*
X268646Y97531D01*
X268031Y98146D01*
X267277Y98582D01*
X266435Y98807D01*
D02*
G37*
G36*
X246435D02*
X245565D01*
X244724Y98582D01*
X243969Y98146D01*
X243354Y97531D01*
X242918Y96776D01*
X242693Y95935D01*
Y95065D01*
X242918Y94223D01*
X243354Y93469D01*
X243969Y92854D01*
X244724Y92418D01*
X245565Y92193D01*
X246435D01*
X247276Y92418D01*
X248031Y92854D01*
X248646Y93469D01*
X249082Y94223D01*
X249307Y95065D01*
Y95935D01*
X249082Y96776D01*
X248646Y97531D01*
X248031Y98146D01*
X247276Y98582D01*
X246435Y98807D01*
D02*
G37*
G36*
X219307D02*
X212693D01*
Y92193D01*
X219307D01*
Y98807D01*
D02*
G37*
G36*
X448503Y97004D02*
X446360D01*
Y87852D01*
X448503D01*
Y97004D01*
D02*
G37*
G36*
X469134D02*
X466990D01*
Y87852D01*
X469134D01*
Y97004D01*
D02*
G37*
G36*
X352449D02*
X350306D01*
Y87852D01*
X352449D01*
Y97004D01*
D02*
G37*
G36*
X331819D02*
X329676D01*
Y87852D01*
X331819D01*
Y97004D01*
D02*
G37*
G36*
X349956D02*
X347812D01*
Y87852D01*
X349956D01*
Y97004D01*
D02*
G37*
G36*
X329326D02*
X327182D01*
Y87852D01*
X329326D01*
Y97004D01*
D02*
G37*
G36*
X446010D02*
X443866D01*
Y87852D01*
X446010D01*
Y97004D01*
D02*
G37*
G36*
X466640D02*
X464497D01*
Y87852D01*
X466640D01*
Y97004D01*
D02*
G37*
G36*
X279484Y94325D02*
X277735D01*
Y92378D01*
X278559D01*
X281320Y89618D01*
X281353Y89538D01*
X281816Y89346D01*
X285500D01*
Y87555D01*
X288825D01*
Y89874D01*
Y92193D01*
X285500D01*
Y90654D01*
X282134D01*
X279484Y93303D01*
Y94325D01*
D02*
G37*
G36*
X289000Y86310D02*
X288631Y86237D01*
X288319Y86028D01*
X288110Y85715D01*
X288037Y85347D01*
Y85150D01*
X288110Y84781D01*
X288319Y84468D01*
X288631Y84260D01*
X289000Y84186D01*
X289369Y84260D01*
X289681Y84468D01*
X289890Y84781D01*
X289963Y85150D01*
Y85347D01*
X289890Y85715D01*
X289681Y86028D01*
X289369Y86237D01*
X289000Y86310D01*
D02*
G37*
G36*
X291559D02*
X291190Y86237D01*
X290878Y86028D01*
X290669Y85715D01*
X290596Y85347D01*
Y85150D01*
X290669Y84781D01*
X290878Y84468D01*
X290816Y83997D01*
X289589Y82770D01*
X289253Y82631D01*
X287898Y81276D01*
X287398Y81483D01*
Y84662D01*
X287337Y84810D01*
X287404Y85150D01*
Y85347D01*
X287331Y85715D01*
X287122Y86028D01*
X286810Y86237D01*
X286441Y86310D01*
X286072Y86237D01*
X285760Y86028D01*
X285551Y85715D01*
X285478Y85347D01*
Y85150D01*
X285551Y84781D01*
X285760Y84468D01*
X286072Y84260D01*
X286090Y84256D01*
Y81126D01*
X284815D01*
Y77799D01*
X283229Y76213D01*
X282779Y76400D01*
X282222D01*
X281707Y76187D01*
X281313Y75793D01*
X281100Y75279D01*
Y74721D01*
X281313Y74207D01*
X281707Y73813D01*
X282222Y73600D01*
X282779D01*
X283293Y73813D01*
X283687Y74207D01*
X283900Y74721D01*
Y75034D01*
X285740Y76874D01*
X288024D01*
X288231Y76374D01*
X287760Y75903D01*
X287249D01*
X286786Y75711D01*
X286538Y75463D01*
X286346Y75000D01*
X286538Y74537D01*
X287000Y74346D01*
X287462Y74537D01*
X287520Y74595D01*
X288031D01*
X288494Y74786D01*
X290586Y76878D01*
X292081D01*
Y78825D01*
X290331D01*
Y78454D01*
X290298Y78441D01*
X289173Y77316D01*
X288673Y77523D01*
Y80201D01*
X290039Y81567D01*
X290375Y81706D01*
X292022Y83352D01*
X292213Y83815D01*
Y84450D01*
X292240Y84468D01*
X292449Y84781D01*
X292522Y85150D01*
Y85347D01*
X292449Y85715D01*
X292240Y86028D01*
X291928Y86237D01*
X291559Y86310D01*
D02*
G37*
G36*
X294181Y81122D02*
X292431D01*
Y79175D01*
X294181D01*
Y81122D01*
D02*
G37*
G36*
X292081D02*
X290331D01*
Y79175D01*
X292081D01*
Y81122D01*
D02*
G37*
G36*
X294181Y78825D02*
X292431D01*
Y76878D01*
X294181D01*
Y78825D01*
D02*
G37*
G36*
X497603Y63935D02*
X496128D01*
X494683Y63647D01*
X493320Y63083D01*
X492095Y62264D01*
X491052Y61221D01*
X490233Y59995D01*
X489669Y58633D01*
X489381Y57187D01*
Y55713D01*
X489669Y54267D01*
X490233Y52905D01*
X491052Y51679D01*
X492095Y50637D01*
X493320Y49818D01*
X494683Y49254D01*
X496128Y48966D01*
X497603D01*
X499049Y49254D01*
X500411Y49818D01*
X501637Y50637D01*
X502679Y51679D01*
X503498Y52905D01*
X504062Y54267D01*
X504350Y55713D01*
Y57187D01*
X504062Y58633D01*
X503498Y59995D01*
X502679Y61221D01*
X501637Y62264D01*
X500411Y63083D01*
X499049Y63647D01*
X497603Y63935D01*
D02*
G37*
G36*
X57603D02*
X56128D01*
X54682Y63647D01*
X53320Y63083D01*
X52095Y62264D01*
X51052Y61221D01*
X50233Y59995D01*
X49669Y58633D01*
X49381Y57187D01*
Y55713D01*
X49669Y54267D01*
X50233Y52905D01*
X51052Y51679D01*
X52095Y50637D01*
X53320Y49818D01*
X54682Y49254D01*
X56128Y48966D01*
X57603D01*
X59049Y49254D01*
X60411Y49818D01*
X61637Y50637D01*
X62679Y51679D01*
X63498Y52905D01*
X64062Y54267D01*
X64350Y55713D01*
Y57187D01*
X64062Y58633D01*
X63498Y59995D01*
X62679Y61221D01*
X61637Y62264D01*
X60411Y63083D01*
X59049Y63647D01*
X57603Y63935D01*
D02*
G37*
%LPD*%
G36*
X356454Y197507D02*
X356416Y197413D01*
Y196856D01*
X356629Y196341D01*
X357023Y195947D01*
X357161Y195890D01*
Y187392D01*
X353923Y184154D01*
X349585D01*
X349341Y184654D01*
X349491Y184846D01*
X352315D01*
X352778Y185038D01*
X354278Y186538D01*
X354470Y187000D01*
Y196229D01*
X356031Y197790D01*
X356454Y197507D01*
D02*
G37*
G36*
X345364Y132164D02*
Y131837D01*
X345577Y131323D01*
X345971Y130929D01*
X346485Y130716D01*
X347042D01*
X347253Y130803D01*
X347519Y130537D01*
X347982Y130346D01*
X351071D01*
X351129Y130207D01*
X351522Y129813D01*
X352037Y129600D01*
X352594D01*
X353109Y129813D01*
X353477Y130182D01*
X353605Y130172D01*
X353977Y130046D01*
Y127996D01*
X353663Y127626D01*
X342187D01*
X341996Y128088D01*
X344062Y130154D01*
X344306Y130519D01*
X344391Y130950D01*
Y131899D01*
X344864Y132371D01*
X345364Y132164D01*
D02*
G37*
%LPC*%
G36*
X134654Y124004D02*
X131977D01*
Y122192D01*
X131853D01*
X131390Y122000D01*
X125630Y116240D01*
X125106Y116303D01*
X125087Y116350D01*
X124665Y116772D01*
X124114Y117000D01*
X123517D01*
X122966Y116772D01*
X122544Y116350D01*
X122316Y115798D01*
Y115202D01*
X122544Y114650D01*
X122966Y114228D01*
X123517Y114000D01*
X124114D01*
X124665Y114228D01*
X125087Y114650D01*
X125168Y114846D01*
X125815D01*
X126278Y115038D01*
X131323Y120082D01*
X131502Y120083D01*
X131981Y119608D01*
X131981Y119575D01*
Y118707D01*
X133316D01*
Y118532D01*
X133491D01*
Y117000D01*
X134650D01*
Y117645D01*
X135316D01*
Y117166D01*
X136672D01*
Y118500D01*
X136847D01*
Y118675D01*
X138378D01*
Y119834D01*
X137807D01*
Y120469D01*
X137829Y120503D01*
X137895Y120836D01*
X137829Y121169D01*
X137711Y121346D01*
X137839Y121720D01*
X137932Y121846D01*
X144045D01*
X146853Y119037D01*
X147316Y118846D01*
X147366D01*
X147544Y118416D01*
X147966Y117994D01*
X148517Y117766D01*
X149114D01*
X149665Y117994D01*
X150087Y118416D01*
X150315Y118967D01*
Y119564D01*
X150087Y120115D01*
X149665Y120537D01*
X149114Y120766D01*
X148517D01*
X147966Y120537D01*
X147584Y120156D01*
X144778Y122962D01*
X144316Y123154D01*
X136816D01*
X136740Y123123D01*
X134654D01*
Y124004D01*
D02*
G37*
G36*
X138378Y118325D02*
X137022D01*
Y117166D01*
X138378D01*
Y118325D01*
D02*
G37*
G36*
X133141Y118357D02*
X131981D01*
Y117000D01*
X133141D01*
Y118357D01*
D02*
G37*
G36*
X142320Y119839D02*
X139249D01*
Y117161D01*
X140130D01*
Y116339D01*
X138343D01*
Y115654D01*
X137820D01*
Y116339D01*
X134749D01*
Y113661D01*
X137820D01*
Y114346D01*
X138343D01*
Y113661D01*
X141414D01*
Y115676D01*
X141438Y115734D01*
Y117161D01*
X142320D01*
Y119839D01*
D02*
G37*
G36*
X133882Y116339D02*
X130812D01*
Y115654D01*
X128315D01*
X127853Y115463D01*
X119895Y107504D01*
X119616Y107531D01*
X119318Y107634D01*
X119003Y108179D01*
X118494Y108688D01*
X117871Y109048D01*
X117175Y109234D01*
X116456D01*
X115760Y109048D01*
X115137Y108688D01*
X114628Y108179D01*
X114268Y107555D01*
X114081Y106860D01*
Y106140D01*
X114268Y105445D01*
X114628Y104821D01*
X115137Y104312D01*
X115760Y103952D01*
X116456Y103766D01*
X117175D01*
X117871Y103952D01*
X118494Y104312D01*
X119003Y104821D01*
X119363Y105445D01*
X119471Y105846D01*
X119816D01*
X120278Y106037D01*
X128586Y114346D01*
X130812D01*
Y113661D01*
X133882D01*
Y116339D01*
D02*
G37*
G36*
X145351Y116339D02*
X142280D01*
Y113661D01*
X142399D01*
X142590Y113199D01*
X138231Y108840D01*
X137871Y109048D01*
X137176Y109234D01*
X136456D01*
X135760Y109048D01*
X135137Y108688D01*
X134628Y108179D01*
X134268Y107555D01*
X134081Y106860D01*
Y106140D01*
X134268Y105445D01*
X134628Y104821D01*
X135137Y104312D01*
X135760Y103952D01*
X136161Y103845D01*
Y101771D01*
X133231Y98840D01*
X132871Y99048D01*
X132176Y99234D01*
X131456D01*
X130760Y99048D01*
X130137Y98688D01*
X129628Y98179D01*
X129268Y97555D01*
X129081Y96860D01*
Y96140D01*
X129268Y95445D01*
X129628Y94821D01*
X130137Y94312D01*
X130760Y93952D01*
X131456Y93766D01*
X132176D01*
X132871Y93952D01*
X133494Y94312D01*
X134003Y94821D01*
X134363Y95445D01*
X134550Y96140D01*
Y96860D01*
X134363Y97555D01*
X134156Y97915D01*
X137278Y101038D01*
X137470Y101500D01*
Y103845D01*
X137871Y103952D01*
X138494Y104312D01*
X139004Y104821D01*
X139363Y105445D01*
X139550Y106140D01*
Y106860D01*
X139363Y107555D01*
X139156Y107915D01*
X144278Y113038D01*
X144470Y113500D01*
Y113661D01*
X145351D01*
Y116339D01*
D02*
G37*
G36*
X147176Y109234D02*
X146456D01*
X145760Y109048D01*
X145137Y108688D01*
X144628Y108179D01*
X144268Y107555D01*
X144081Y106860D01*
Y106140D01*
X144268Y105445D01*
X144628Y104821D01*
X145137Y104312D01*
X145760Y103952D01*
X146456Y103766D01*
X147176D01*
X147871Y103952D01*
X148494Y104312D01*
X149004Y104821D01*
X149363Y105445D01*
X149550Y106140D01*
Y106860D01*
X149363Y107555D01*
X149004Y108179D01*
X148494Y108688D01*
X147871Y109048D01*
X147176Y109234D01*
D02*
G37*
G36*
X127175D02*
X126456D01*
X125760Y109048D01*
X125137Y108688D01*
X124628Y108179D01*
X124268Y107555D01*
X124081Y106860D01*
Y106140D01*
X124268Y105445D01*
X124628Y104821D01*
X125137Y104312D01*
X125760Y103952D01*
X126456Y103766D01*
X127175D01*
X127871Y103952D01*
X128494Y104312D01*
X129004Y104821D01*
X129363Y105445D01*
X129550Y106140D01*
Y106860D01*
X129363Y107555D01*
X129004Y108179D01*
X128494Y108688D01*
X127871Y109048D01*
X127175Y109234D01*
D02*
G37*
G36*
X152175Y99234D02*
X151456D01*
X150760Y99048D01*
X150137Y98688D01*
X149628Y98179D01*
X149268Y97555D01*
X149081Y96860D01*
Y96140D01*
X149268Y95445D01*
X149628Y94821D01*
X150137Y94312D01*
X150760Y93952D01*
X151456Y93766D01*
X152175D01*
X152871Y93952D01*
X153494Y94312D01*
X154004Y94821D01*
X154363Y95445D01*
X154550Y96140D01*
Y96860D01*
X154363Y97555D01*
X154004Y98179D01*
X153494Y98688D01*
X152871Y99048D01*
X152175Y99234D01*
D02*
G37*
G36*
X142175D02*
X141456D01*
X140760Y99048D01*
X140137Y98688D01*
X139628Y98179D01*
X139268Y97555D01*
X139081Y96860D01*
Y96140D01*
X139268Y95445D01*
X139628Y94821D01*
X140137Y94312D01*
X140760Y93952D01*
X141456Y93766D01*
X142175D01*
X142871Y93952D01*
X143494Y94312D01*
X144003Y94821D01*
X144363Y95445D01*
X144550Y96140D01*
Y96860D01*
X144363Y97555D01*
X144003Y98179D01*
X143494Y98688D01*
X142871Y99048D01*
X142175Y99234D01*
D02*
G37*
G36*
X122176D02*
X121456D01*
X120760Y99048D01*
X120137Y98688D01*
X119628Y98179D01*
X119268Y97555D01*
X119081Y96860D01*
Y96140D01*
X119268Y95445D01*
X119628Y94821D01*
X120137Y94312D01*
X120760Y93952D01*
X121456Y93766D01*
X122176D01*
X122871Y93952D01*
X123494Y94312D01*
X124004Y94821D01*
X124363Y95445D01*
X124550Y96140D01*
Y96860D01*
X124363Y97555D01*
X124004Y98179D01*
X123494Y98688D01*
X122871Y99048D01*
X122176Y99234D01*
D02*
G37*
G36*
X164349Y87550D02*
X163990D01*
Y83675D01*
X167866D01*
Y84033D01*
X167589Y85063D01*
X167056Y85987D01*
X166302Y86741D01*
X165379Y87274D01*
X164349Y87550D01*
D02*
G37*
G36*
X105349D02*
X104990D01*
Y83675D01*
X108865D01*
Y84033D01*
X108589Y85063D01*
X108056Y85987D01*
X107302Y86741D01*
X106379Y87274D01*
X105349Y87550D01*
D02*
G37*
G36*
X163640D02*
X163282D01*
X162252Y87274D01*
X161329Y86741D01*
X160575Y85987D01*
X160041Y85063D01*
X159766Y84033D01*
Y83675D01*
X163640D01*
Y87550D01*
D02*
G37*
G36*
X104640D02*
X104282D01*
X103252Y87274D01*
X102329Y86741D01*
X101575Y85987D01*
X101041Y85063D01*
X100766Y84033D01*
Y83675D01*
X104640D01*
Y87550D01*
D02*
G37*
G36*
X167866Y83325D02*
X163990D01*
Y79450D01*
X164349D01*
X165379Y79726D01*
X166302Y80259D01*
X167056Y81013D01*
X167589Y81937D01*
X167866Y82967D01*
Y83325D01*
D02*
G37*
G36*
X163640D02*
X159766D01*
Y82967D01*
X160041Y81937D01*
X160575Y81013D01*
X161329Y80259D01*
X162252Y79726D01*
X163282Y79450D01*
X163640D01*
Y83325D01*
D02*
G37*
G36*
X108865D02*
X104990D01*
Y79450D01*
X105349D01*
X106379Y79726D01*
X107302Y80259D01*
X108056Y81013D01*
X108589Y81937D01*
X108865Y82967D01*
Y83325D01*
D02*
G37*
G36*
X104640D02*
X100766D01*
Y82967D01*
X101041Y81937D01*
X101575Y81013D01*
X102329Y80259D01*
X103252Y79726D01*
X104282Y79450D01*
X104640D01*
Y83325D01*
D02*
G37*
%LPD*%
D12*
X136831Y118516D02*
X136936Y118620D01*
Y120747D01*
X137024Y120836D01*
X119000Y184756D02*
Y296500D01*
X128230D01*
X119000Y184756D02*
X122000Y181756D01*
X103815Y296500D02*
X119000D01*
X133316Y118532D02*
X133331Y118516D01*
X136831D01*
X128230Y296500D02*
X128815Y295914D01*
Y293500D02*
Y295914D01*
X156176Y329236D02*
X168716Y341775D01*
X156176Y320861D02*
Y329236D01*
X128815Y293500D02*
X156176Y320861D01*
D81*
X446185Y87677D02*
D03*
X466815D02*
D03*
X329501D02*
D03*
X350131D02*
D03*
D94*
X133500Y174969D02*
D03*
Y171031D02*
D03*
X262316Y177032D02*
D03*
Y180968D02*
D03*
X250315Y168968D02*
D03*
Y165032D02*
D03*
X254315Y183531D02*
D03*
Y187469D02*
D03*
X133316Y122468D02*
D03*
Y118532D02*
D03*
X335315Y204532D02*
D03*
Y208469D02*
D03*
X342316Y205031D02*
D03*
Y208968D02*
D03*
X341316Y171531D02*
D03*
Y175469D02*
D03*
X331816Y112531D02*
D03*
Y116469D02*
D03*
X355315Y133468D02*
D03*
Y129532D02*
D03*
D95*
X149256Y155500D02*
D03*
X143744D02*
D03*
X127244Y155500D02*
D03*
X132756D02*
D03*
X226571Y151000D02*
D03*
X221060D02*
D03*
X226071Y159000D02*
D03*
X220560D02*
D03*
X281060Y173500D02*
D03*
X286571D02*
D03*
X281060Y183500D02*
D03*
X286571D02*
D03*
X281060Y178500D02*
D03*
X286571D02*
D03*
X276560Y190000D02*
D03*
X282071D02*
D03*
X282060Y195000D02*
D03*
X287571D02*
D03*
X245571Y228000D02*
D03*
X240060D02*
D03*
X286744Y79000D02*
D03*
X292256D02*
D03*
X283071Y94500D02*
D03*
X277560D02*
D03*
D100*
X264531Y222500D02*
D03*
X268468D02*
D03*
X143816Y115000D02*
D03*
X139878D02*
D03*
X132347Y115000D02*
D03*
X136284D02*
D03*
X269847Y183000D02*
D03*
X273784D02*
D03*
X251347Y171500D02*
D03*
X255284D02*
D03*
X269847Y173500D02*
D03*
X273784D02*
D03*
X140784Y118500D02*
D03*
X136847D02*
D03*
X330284Y188000D02*
D03*
X326347D02*
D03*
X359816Y120000D02*
D03*
X355878D02*
D03*
X359784Y123500D02*
D03*
X355847D02*
D03*
X331847Y125000D02*
D03*
X335784D02*
D03*
D101*
X122000Y176244D02*
D03*
Y181756D02*
D03*
X292815Y200256D02*
D03*
Y194744D02*
D03*
X280816Y168756D02*
D03*
Y163244D02*
D03*
X292316Y187256D02*
D03*
Y181744D02*
D03*
X255315Y156575D02*
D03*
Y151063D02*
D03*
X245316Y158075D02*
D03*
Y152563D02*
D03*
X213000Y197756D02*
D03*
Y192244D02*
D03*
X250315Y158075D02*
D03*
Y152563D02*
D03*
X229315Y227744D02*
D03*
Y233256D02*
D03*
D106*
X112937Y175500D02*
D03*
X105063D02*
D03*
X211252Y177000D02*
D03*
X203379D02*
D03*
X211252Y184500D02*
D03*
X203379D02*
D03*
D107*
X306816Y226063D02*
D03*
Y233937D02*
D03*
X282315Y225563D02*
D03*
Y233437D02*
D03*
X292815Y226063D02*
D03*
Y233937D02*
D03*
D125*
X495000Y285000D02*
D03*
X502500Y270000D02*
D03*
X495000Y255000D02*
D03*
X502500Y240000D02*
D03*
X495000Y225000D02*
D03*
X502500Y210000D02*
D03*
X495000Y195000D02*
D03*
X502500Y180000D02*
D03*
X495000Y165000D02*
D03*
X502500Y150000D02*
D03*
X495000Y135000D02*
D03*
X502500Y120000D02*
D03*
X495000Y105000D02*
D03*
X502500Y90000D02*
D03*
X495000Y75000D02*
D03*
Y45000D02*
D03*
X487500Y300000D02*
D03*
X480000Y285000D02*
D03*
X487500Y270000D02*
D03*
X480000Y255000D02*
D03*
X487500Y240000D02*
D03*
X480000Y225000D02*
D03*
X487500Y210000D02*
D03*
X480000Y195000D02*
D03*
X487500Y180000D02*
D03*
X480000Y165000D02*
D03*
X487500Y150000D02*
D03*
X480000Y135000D02*
D03*
X487500Y120000D02*
D03*
X480000Y105000D02*
D03*
X487500Y90000D02*
D03*
X480000Y75000D02*
D03*
X487500Y60000D02*
D03*
X480000Y45000D02*
D03*
X472500Y300000D02*
D03*
X465000Y285000D02*
D03*
X472500Y270000D02*
D03*
X465000Y255000D02*
D03*
X472500Y240000D02*
D03*
X465000Y225000D02*
D03*
X472500Y210000D02*
D03*
X465000Y195000D02*
D03*
X472500Y180000D02*
D03*
X465000Y165000D02*
D03*
X472500Y150000D02*
D03*
X465000Y135000D02*
D03*
X472500Y120000D02*
D03*
X465000Y105000D02*
D03*
X472500Y90000D02*
D03*
X457500Y300000D02*
D03*
X450000Y285000D02*
D03*
X457500Y270000D02*
D03*
X450000Y255000D02*
D03*
X457500Y240000D02*
D03*
X450000Y225000D02*
D03*
X457500Y210000D02*
D03*
X450000Y195000D02*
D03*
X457500Y180000D02*
D03*
X450000Y135000D02*
D03*
Y105000D02*
D03*
X442500Y300000D02*
D03*
X435000Y285000D02*
D03*
X442500Y270000D02*
D03*
X435000Y255000D02*
D03*
X442500Y210000D02*
D03*
X435000Y195000D02*
D03*
Y165000D02*
D03*
X442500Y150000D02*
D03*
X435000Y135000D02*
D03*
X442500Y90000D02*
D03*
X427500Y270000D02*
D03*
Y180000D02*
D03*
X420000Y165000D02*
D03*
X427500Y150000D02*
D03*
X420000Y135000D02*
D03*
Y75000D02*
D03*
X427500Y60000D02*
D03*
X420000Y45000D02*
D03*
X412500Y300000D02*
D03*
X405000Y285000D02*
D03*
X412500Y270000D02*
D03*
X405000Y225000D02*
D03*
Y195000D02*
D03*
X412500Y180000D02*
D03*
X405000Y165000D02*
D03*
X412500Y150000D02*
D03*
X405000Y135000D02*
D03*
X412500Y120000D02*
D03*
Y90000D02*
D03*
X405000Y75000D02*
D03*
X412500Y60000D02*
D03*
X405000Y45000D02*
D03*
X390000Y285000D02*
D03*
X397500Y270000D02*
D03*
X390000Y255000D02*
D03*
X397500Y210000D02*
D03*
X390000Y195000D02*
D03*
X397500Y180000D02*
D03*
Y150000D02*
D03*
X390000Y135000D02*
D03*
X397500Y120000D02*
D03*
X390000Y105000D02*
D03*
X397500Y90000D02*
D03*
X390000Y75000D02*
D03*
X397500Y60000D02*
D03*
X390000Y45000D02*
D03*
X375000Y285000D02*
D03*
Y225000D02*
D03*
X382500Y210000D02*
D03*
X375000Y195000D02*
D03*
X382500Y150000D02*
D03*
Y120000D02*
D03*
X375000Y105000D02*
D03*
X382500Y90000D02*
D03*
X375000Y75000D02*
D03*
X382500Y60000D02*
D03*
X375000Y45000D02*
D03*
X360000Y285000D02*
D03*
Y255000D02*
D03*
X367500Y210000D02*
D03*
Y180000D02*
D03*
Y150000D02*
D03*
X360000Y105000D02*
D03*
X367500Y90000D02*
D03*
Y60000D02*
D03*
X352500Y300000D02*
D03*
X345000Y285000D02*
D03*
X352500Y270000D02*
D03*
X345000Y255000D02*
D03*
Y225000D02*
D03*
Y165000D02*
D03*
Y105000D02*
D03*
X337500Y300000D02*
D03*
Y270000D02*
D03*
X330000Y225000D02*
D03*
X322500Y300000D02*
D03*
X315000Y285000D02*
D03*
Y255000D02*
D03*
Y225000D02*
D03*
Y165000D02*
D03*
Y75000D02*
D03*
Y45000D02*
D03*
X307500Y300000D02*
D03*
X300000Y285000D02*
D03*
Y255000D02*
D03*
X307500Y240000D02*
D03*
X300000Y195000D02*
D03*
Y165000D02*
D03*
Y75000D02*
D03*
X307500Y60000D02*
D03*
X300000Y45000D02*
D03*
X285000Y285000D02*
D03*
Y255000D02*
D03*
X292500Y240000D02*
D03*
Y60000D02*
D03*
X285000Y45000D02*
D03*
X270000Y285000D02*
D03*
Y255000D02*
D03*
X277500Y240000D02*
D03*
Y150000D02*
D03*
X270000Y135000D02*
D03*
X277500Y90000D02*
D03*
X270000Y75000D02*
D03*
X277500Y60000D02*
D03*
X270000Y45000D02*
D03*
X262500Y300000D02*
D03*
X255000Y285000D02*
D03*
X262500Y270000D02*
D03*
X255000Y135000D02*
D03*
Y105000D02*
D03*
X262500Y90000D02*
D03*
X255000Y75000D02*
D03*
X262500Y60000D02*
D03*
X255000Y45000D02*
D03*
X240000Y285000D02*
D03*
X247500Y270000D02*
D03*
Y120000D02*
D03*
X240000Y105000D02*
D03*
X247500Y90000D02*
D03*
X240000Y75000D02*
D03*
X247500Y60000D02*
D03*
X240000Y45000D02*
D03*
X225000Y285000D02*
D03*
X232500Y270000D02*
D03*
X225000Y135000D02*
D03*
X232500Y90000D02*
D03*
X225000Y75000D02*
D03*
X232500Y60000D02*
D03*
X225000Y45000D02*
D03*
X217500Y270000D02*
D03*
X210000Y225000D02*
D03*
X217500Y150000D02*
D03*
Y120000D02*
D03*
Y90000D02*
D03*
X210000Y75000D02*
D03*
X217500Y60000D02*
D03*
X210000Y45000D02*
D03*
X195000Y285000D02*
D03*
X202500Y270000D02*
D03*
Y240000D02*
D03*
X195000Y135000D02*
D03*
X202500Y120000D02*
D03*
X195000Y105000D02*
D03*
X202500Y90000D02*
D03*
X195000Y75000D02*
D03*
X202500Y60000D02*
D03*
X195000Y45000D02*
D03*
X180000Y285000D02*
D03*
X187500Y270000D02*
D03*
X180000Y255000D02*
D03*
X187500Y240000D02*
D03*
X180000Y225000D02*
D03*
X187500Y180000D02*
D03*
X165000Y285000D02*
D03*
X172500Y270000D02*
D03*
X165000Y255000D02*
D03*
X172500Y240000D02*
D03*
X165000Y225000D02*
D03*
X157500Y300000D02*
D03*
X150000Y285000D02*
D03*
X157500Y270000D02*
D03*
X150000Y255000D02*
D03*
X157500Y240000D02*
D03*
X150000Y225000D02*
D03*
X142500Y300000D02*
D03*
X135000Y285000D02*
D03*
X142500Y270000D02*
D03*
X135000Y255000D02*
D03*
X142500Y240000D02*
D03*
X135000Y225000D02*
D03*
X127500Y270000D02*
D03*
Y240000D02*
D03*
Y210000D02*
D03*
X105000Y285000D02*
D03*
X112500Y270000D02*
D03*
X105000Y255000D02*
D03*
X112500Y240000D02*
D03*
X105000Y225000D02*
D03*
X112500Y210000D02*
D03*
X105000Y195000D02*
D03*
Y165000D02*
D03*
X90000Y285000D02*
D03*
X97500Y270000D02*
D03*
X90000Y255000D02*
D03*
X97500Y240000D02*
D03*
X90000Y225000D02*
D03*
X97500Y210000D02*
D03*
X90000Y195000D02*
D03*
X97500Y180000D02*
D03*
X75000Y285000D02*
D03*
X82500Y270000D02*
D03*
X75000Y255000D02*
D03*
X82500Y240000D02*
D03*
X75000Y225000D02*
D03*
X82500Y210000D02*
D03*
X75000Y195000D02*
D03*
X82500Y180000D02*
D03*
X75000Y165000D02*
D03*
X82500Y150000D02*
D03*
X75000Y135000D02*
D03*
X82500Y120000D02*
D03*
X75000Y105000D02*
D03*
X82500Y90000D02*
D03*
X75000Y75000D02*
D03*
X82500Y60000D02*
D03*
X75000Y45000D02*
D03*
X67500Y300000D02*
D03*
X60000Y285000D02*
D03*
X67500Y270000D02*
D03*
X60000Y255000D02*
D03*
X67500Y240000D02*
D03*
X60000Y225000D02*
D03*
X67500Y210000D02*
D03*
X60000Y195000D02*
D03*
X67500Y180000D02*
D03*
X60000Y165000D02*
D03*
X67500Y150000D02*
D03*
X60000Y135000D02*
D03*
X67500Y120000D02*
D03*
X60000Y105000D02*
D03*
X67500Y90000D02*
D03*
X60000Y75000D02*
D03*
X67500Y60000D02*
D03*
X60000Y45000D02*
D03*
X45000Y285000D02*
D03*
X52500Y270000D02*
D03*
X45000Y255000D02*
D03*
X52500Y240000D02*
D03*
X45000Y225000D02*
D03*
X52500Y210000D02*
D03*
X45000Y195000D02*
D03*
X52500Y180000D02*
D03*
X45000Y165000D02*
D03*
X52500Y150000D02*
D03*
X45000Y135000D02*
D03*
X52500Y120000D02*
D03*
X45000Y105000D02*
D03*
X52500Y90000D02*
D03*
X45000Y75000D02*
D03*
Y45000D02*
D03*
X292815Y190500D02*
D03*
X265500Y203000D02*
D03*
X261500D02*
D03*
Y207000D02*
D03*
X265500D02*
D03*
X287000Y90000D02*
D03*
X291000D02*
D03*
X197000Y161500D02*
D03*
X200500Y221000D02*
D03*
Y224000D02*
D03*
X409500Y103000D02*
D03*
X412500D02*
D03*
Y106000D02*
D03*
X409500D02*
D03*
X197500Y164500D02*
D03*
X194000Y159500D02*
D03*
X144500Y203000D02*
D03*
X124000Y160000D02*
D03*
D135*
X168716Y341775D02*
D03*
X121415D02*
D03*
D136*
X259615D02*
D03*
X256466D02*
D03*
X253315D02*
D03*
X250166D02*
D03*
X247016D02*
D03*
X243865D02*
D03*
X240716D02*
D03*
X237565D02*
D03*
X231265D02*
D03*
X234416D02*
D03*
X228116D02*
D03*
X224966D02*
D03*
X221815D02*
D03*
X218666D02*
D03*
X215515D02*
D03*
X212366D02*
D03*
X209215D02*
D03*
X202916D02*
D03*
X199766D02*
D03*
X206066D02*
D03*
D138*
X207000Y153685D02*
D03*
Y164315D02*
D03*
D139*
X292316Y190000D02*
X292815Y190500D01*
X292316Y187256D02*
Y190000D01*
X268700Y216000D02*
X272140Y219440D01*
X266700Y214000D02*
X268700Y216000D01*
X268468Y216231D02*
X268700Y216000D01*
X268468Y216231D02*
Y222500D01*
X275603Y218912D02*
X276018D01*
X275075Y219440D02*
X275603Y218912D01*
X272140Y219440D02*
X275075D01*
X276018Y218912D02*
X277315Y220210D01*
X263700Y191000D02*
X268700Y196000D01*
X257500Y191000D02*
X263700D01*
X255108Y196354D02*
X258146D01*
X254994D02*
X255108D01*
X254816Y196533D02*
X254994Y196354D01*
X254816Y196533D02*
Y199381D01*
X258254Y202819D01*
Y203000D01*
X254816Y196061D02*
X255108Y196354D01*
X258500Y216000D02*
X260500Y214000D01*
X266700D01*
X258146Y196354D02*
X258500Y196000D01*
X254816Y187969D02*
Y196061D01*
X254315Y187469D02*
X254816Y187969D01*
X277315Y220210D02*
Y225500D01*
X257500Y191000D02*
Y191014D01*
X240058Y207783D02*
X243966Y211690D01*
X240058Y182407D02*
Y207783D01*
Y182407D02*
X241509Y180957D01*
X242530D01*
X244815Y178672D01*
Y178000D02*
Y178672D01*
X276560Y193100D02*
X276810Y193350D01*
Y194810D01*
X277000Y195000D01*
X276560Y190000D02*
Y193100D01*
X277000Y195000D02*
X282060D01*
X292054Y95793D02*
X292054D01*
X289001Y98847D02*
Y99500D01*
Y98319D02*
X290916Y96403D01*
X291444D02*
X292054Y95793D01*
X289001Y98319D02*
Y98847D01*
Y98319D02*
Y98847D01*
X290916Y96403D02*
X291444D01*
X292054Y95793D02*
X293316Y94532D01*
X287085Y96403D02*
X289001Y98319D01*
X288874Y90000D02*
X289000Y89874D01*
X281816Y90000D02*
X288874D01*
X293316Y92335D02*
Y94532D01*
X286906Y96403D02*
X287085D01*
X286441Y94500D02*
Y95939D01*
X286906Y96403D01*
X283071Y94500D02*
X283071Y94500D01*
X286441D01*
X286744Y79197D02*
Y84662D01*
Y79197D02*
X289716Y82168D01*
X289912D01*
X291559Y83815D01*
Y85248D01*
X286744Y79000D02*
Y79197D01*
X286441Y84965D02*
Y85248D01*
Y84965D02*
X286744Y84662D01*
X294000Y89000D02*
Y91650D01*
X293316Y92335D02*
X294000Y91650D01*
X440126Y117626D02*
X441126D01*
X436000Y113500D02*
X440126Y117626D01*
X441126D02*
X445500Y122000D01*
X401500Y166000D02*
X445500Y122000D01*
X123244Y175000D02*
X130500D01*
X122000Y176244D02*
X123244Y175000D01*
X196800Y170150D02*
X197000Y170350D01*
X171350Y170150D02*
X196800D01*
X186442Y161500D02*
X197000D01*
X175864Y161136D02*
X186078D01*
X186442Y161500D01*
X236000Y95500D02*
X242650Y102150D01*
Y123850D01*
X226000Y95500D02*
Y101500D01*
X241000Y116500D01*
Y125500D02*
X242650Y123850D01*
X255982Y159000D02*
X258274D01*
X262128Y155146D01*
X253578Y161404D02*
X255982Y159000D01*
X262128Y155146D02*
X285354D01*
X262500Y156000D02*
X303315D01*
X259150Y159350D02*
X262500Y156000D01*
X256315Y161000D02*
X256390Y160925D01*
X258166Y160317D02*
X259132Y159350D01*
X258166Y160317D02*
Y160335D01*
X259132Y159350D02*
X259150D01*
X256390Y160925D02*
X257575D01*
X258166Y160335D01*
X253554Y163054D02*
X253578Y163031D01*
Y161404D02*
Y163031D01*
X285354Y155146D02*
X297000Y143500D01*
X233315Y140000D02*
X261816Y111500D01*
X230816Y140000D02*
X233315D01*
X236315Y145000D02*
X266316Y115000D01*
Y113500D02*
Y115000D01*
X436000Y91000D02*
Y113500D01*
X361816Y166000D02*
X401500D01*
X160500Y160000D02*
X163150Y157350D01*
X190850D01*
X191000Y157500D01*
X152792Y160000D02*
X160500D01*
X137500Y174500D02*
X138292D01*
X152792Y160000D01*
X131500Y180500D02*
X137500Y174500D01*
X127000Y180500D02*
X131500D01*
X152500Y161500D02*
X173078D01*
X123500Y185000D02*
X129000D01*
X152500Y161500D01*
X123000Y198500D02*
X143000D01*
X157250Y184250D01*
X160750D01*
X173000Y172000D01*
X200500D01*
X123000Y196000D02*
X123049Y196049D01*
X141951D01*
X157500Y180500D01*
X161000D01*
X171350Y170150D01*
X122851Y193507D02*
X130576D01*
X132364Y191718D01*
X137269D01*
X138716Y190271D01*
Y189697D02*
Y190271D01*
Y189697D02*
X141026Y187388D01*
X141612D01*
X160500Y168500D01*
X194500D01*
X123500Y191300D02*
X126439D01*
X129489Y188250D01*
X132077D01*
X134817Y185510D01*
Y184350D02*
Y185510D01*
Y184350D02*
X154667Y164500D01*
X197500D01*
X174000Y163000D02*
X175864Y161136D01*
X152421Y163000D02*
X174000D01*
X126421Y189000D02*
X152421Y163000D01*
X123500Y189000D02*
X126421D01*
X173078Y161500D02*
X175078Y159500D01*
X133500Y171031D02*
X133531Y171000D01*
X136000D01*
X130699Y175199D02*
X130898Y175000D01*
X133468D01*
X133500Y174969D01*
X130500Y175000D02*
X130699Y175199D01*
X133500Y171031D02*
Y171228D01*
X112937Y175500D02*
X122000D01*
X175078Y159500D02*
X194000D01*
X205215Y153500D02*
X207315Y155600D01*
X209416Y153500D01*
X209315Y197500D02*
X212744D01*
X213000Y197756D01*
X213256Y197500D02*
X215942D01*
X213000Y197756D02*
X213256Y197500D01*
X215942D02*
X216235Y197207D01*
X209315Y192000D02*
X212756D01*
X213000Y192244D01*
X213244Y192000D02*
X217316D01*
X213000Y192244D02*
X213244Y192000D01*
X216235Y196919D02*
Y197207D01*
X211252Y177000D02*
Y184500D01*
X209416Y153500D02*
X215000D01*
X208185Y165500D02*
X215000D01*
X207000Y164315D02*
X208185Y165500D01*
X199500Y153500D02*
X205215D01*
X207315Y153685D02*
Y155600D01*
X207000Y153685D02*
X207315D01*
X253794Y149541D02*
Y149738D01*
X253045Y148793D02*
X253794Y149541D01*
X250023Y148793D02*
X253045D01*
X255119Y151063D02*
X255315D01*
X253794Y149738D02*
X255119Y151063D01*
X104000Y172797D02*
X106703Y175500D01*
X104386Y177817D02*
X107183D01*
X106703Y175500D02*
X107569D01*
X104000Y169000D02*
Y172797D01*
X107183Y175886D02*
X107569Y175500D01*
X104000Y178203D02*
Y181000D01*
Y178203D02*
X104386Y177817D01*
X107183Y175886D02*
Y177817D01*
X149000Y155756D02*
Y159500D01*
Y155756D02*
X149256Y155500D01*
X137500Y155500D02*
X143744D01*
X143744Y155500D01*
X132756Y155500D02*
X132756Y155500D01*
X137500D01*
X336315Y140500D02*
X361816Y166000D01*
X318316Y140500D02*
X336315D01*
X306315Y152500D02*
X318316Y140500D01*
X280060Y164000D02*
X280816Y163244D01*
X275816Y164000D02*
X280060D01*
X276487Y182828D02*
X280388D01*
X273956D02*
X276487D01*
X249723Y162408D02*
Y162708D01*
X250134Y158256D02*
X250315Y158075D01*
X249571Y158819D02*
X250134Y158256D01*
X287067Y190251D02*
X287316Y190500D01*
X273784Y173500D02*
X276315D01*
X276564Y173251D01*
Y172810D02*
Y173251D01*
X273784Y173500D02*
X273784Y173500D01*
X286233Y190251D02*
X287067D01*
X285982Y190000D02*
X286233Y190251D01*
X292815Y194744D02*
X292815Y194744D01*
Y190500D02*
Y194744D01*
X290294Y200256D02*
X292815D01*
X287565Y197528D02*
X290294Y200256D01*
X287565Y195006D02*
Y197528D01*
X253577Y175239D02*
X255284Y173531D01*
X253538Y175239D02*
X253577D01*
X255664Y177380D02*
X261967D01*
X262316Y177032D01*
X253658Y179386D02*
X255664Y177380D01*
X249721Y179307D02*
X249970Y179555D01*
X250536D01*
X254164Y183183D01*
X254664D01*
X249752Y173094D02*
Y175338D01*
X249721Y175370D02*
X249752Y175338D01*
X241791Y179250D02*
X241847Y179307D01*
X237853Y179250D02*
X241791D01*
X237950Y171472D02*
X238288D01*
X244815Y178000D01*
X230036Y171433D02*
X237853Y179250D01*
X242316Y223000D02*
X243966Y221350D01*
Y211690D02*
Y221350D01*
X257816Y179500D02*
X260847D01*
X261384Y180037D01*
X261581D01*
X250416Y172234D02*
X251150Y171500D01*
X250416Y172234D02*
Y172431D01*
X249752Y173094D02*
X250416Y172431D01*
X254315Y183531D02*
X254490Y183357D01*
X254647Y183200D01*
X263735D01*
X263934Y183000D02*
X269847D01*
X263735Y183200D02*
X263934Y183000D01*
X255135Y156756D02*
X255315Y156575D01*
X251635Y156756D02*
X255135D01*
X250315Y158075D02*
X251635Y156756D01*
X249816Y149000D02*
X250023Y148793D01*
X245497Y158256D02*
X250134D01*
X245316Y158075D02*
X245497Y158256D01*
X250134Y152744D02*
X250315Y152563D01*
X245497Y152744D02*
X250134D01*
X245316Y152563D02*
X245497Y152744D01*
X249571Y158819D02*
Y162408D01*
X249816Y149000D02*
Y152063D01*
X250315Y152563D01*
X282500Y75000D02*
X282749Y75249D01*
X283190D01*
X286744Y78803D01*
Y79000D01*
X290761Y77978D02*
X291234D01*
X292256Y79000D01*
X288031Y75249D02*
X290761Y77978D01*
X287249Y75249D02*
X288031D01*
X287000Y75000D02*
X287249Y75249D01*
X133316Y122468D02*
X136784D01*
X148581Y119500D02*
X148816Y119266D01*
X147316Y119500D02*
X148581D01*
X144316Y122500D02*
X147316Y119500D01*
X136816Y122500D02*
X144316D01*
X136784Y122468D02*
X136816Y122500D01*
X131853Y121537D02*
X132581D01*
X133316Y122272D01*
Y122468D01*
X125815Y115500D02*
X131853Y121537D01*
X123816Y115500D02*
X125815D01*
X276564Y172810D02*
X280619Y168756D01*
X280816D01*
X281071Y163500D02*
X284816D01*
X280816Y163244D02*
X281071Y163500D01*
X277167Y174000D02*
X280560D01*
X281060Y173500D01*
X287071Y174000D02*
X290815D01*
X286571Y173500D02*
X287071Y174000D01*
X280388Y182828D02*
X281060Y183500D01*
X286571Y178500D02*
Y183500D01*
X361315Y188500D02*
Y196000D01*
X342284Y209000D02*
X342316Y208968D01*
X338815Y209000D02*
X342284D01*
X338464D02*
X338815D01*
X337932Y208469D02*
X338464Y209000D01*
X335315Y208469D02*
X337932D01*
X342316Y201783D02*
Y205031D01*
Y201783D02*
X343481Y200618D01*
Y200496D02*
Y200618D01*
X334422Y187504D02*
X334820D01*
X333926Y188000D02*
X334422Y187504D01*
X330284Y188000D02*
X333926D01*
X326150D02*
X326347D01*
X325416Y188734D02*
X326150Y188000D01*
X325416Y188734D02*
Y190900D01*
X325315Y191000D02*
X325416Y190900D01*
X342316Y177648D02*
Y178000D01*
X342050Y177383D02*
X342316Y177648D01*
X342050Y176203D02*
Y177383D01*
X341316Y175469D02*
X342050Y176203D01*
X335315Y201390D02*
Y204532D01*
X334820Y200893D02*
X335315Y201390D01*
X334820Y200496D02*
Y200893D01*
X136816Y101500D02*
Y106500D01*
X131816Y96500D02*
X136816Y101500D01*
X338482Y134500D02*
X338815D01*
X337482Y133500D02*
X338482Y134500D01*
X332315Y133500D02*
X337482D01*
X346764Y132116D02*
X346866D01*
X347982Y131000D01*
X352315D01*
X228795Y233776D02*
X229315Y233256D01*
X228795Y233776D02*
Y235980D01*
X239815Y224500D02*
Y227756D01*
X240060Y228000D01*
X228816Y224500D02*
Y227244D01*
X229315Y227744D01*
X328347Y112531D02*
X331816D01*
X326816Y111000D02*
X328347Y112531D01*
X359816Y120000D02*
Y123468D01*
X359784Y123500D02*
X359816Y123468D01*
X355315Y133272D02*
Y133468D01*
Y133272D02*
X358587Y130000D01*
X358816D01*
X359784Y123500D02*
Y128680D01*
X358816Y129648D02*
X359784Y128680D01*
X358816Y129648D02*
Y130000D01*
X331816Y125031D02*
X331847Y125000D01*
X331816Y125031D02*
Y128000D01*
X426523Y220500D02*
X435818D01*
X426266Y220757D02*
X426523Y220500D01*
X363035Y240780D02*
X381315Y222500D01*
X404815D01*
X382901Y219500D02*
X408815D01*
X387815Y232000D02*
X398665D01*
X398815Y232150D01*
X383466Y225000D02*
X401816D01*
X365815Y242650D02*
X383466Y225000D01*
X360023Y242379D02*
X382901Y219500D01*
X365051Y248650D02*
X384166D01*
X384315Y248500D01*
X360023Y243621D02*
X365051Y248650D01*
X360023Y242379D02*
Y243621D01*
X375315Y244500D02*
X387815Y232000D01*
X379166Y246650D02*
X379315Y246500D01*
X374816Y244500D02*
X375315D01*
X364465Y246650D02*
X379166D01*
X361023Y243207D02*
X364465Y246650D01*
X363035Y240780D02*
Y240780D01*
X361023Y242793D02*
X363035Y240780D01*
X361023Y242793D02*
Y243207D01*
X336816Y283000D02*
X355315D01*
X336816Y287500D02*
X356315D01*
X371316Y299000D02*
X381897D01*
X355315Y283000D02*
X371316Y299000D01*
X382567Y300751D02*
X382816Y301000D01*
X381897Y299000D02*
X382567Y299670D01*
Y300751D01*
X276315Y293750D02*
X289316Y306750D01*
X276315Y293500D02*
Y293750D01*
X369316Y300500D02*
X376964D01*
X356315Y287500D02*
X369316Y300500D01*
X376964D02*
X377464Y301000D01*
X377665D01*
X377816Y301150D01*
X289316Y306750D02*
Y307000D01*
X439816Y212000D02*
Y216503D01*
X435818Y220500D02*
X439816Y216503D01*
X406815Y125500D02*
X407167D01*
X299630Y99500D02*
X303816D01*
X281315Y109500D02*
X289751Y101065D01*
X277560Y94303D02*
X281816Y90047D01*
Y90000D02*
Y90047D01*
X277560Y94303D02*
Y94500D01*
X281816Y124500D02*
X282816Y125500D01*
X281315Y124000D02*
X281816Y124500D01*
X281315Y109500D02*
Y124000D01*
X282816Y125500D02*
X315815D01*
Y125000D02*
Y125500D01*
Y125000D02*
X325816Y115000D01*
X236315Y145000D02*
Y151500D01*
X273784Y183000D02*
X273956Y182828D01*
X249723Y162708D02*
X250315Y163301D01*
Y165032D01*
X250613Y169266D02*
Y170766D01*
X250315Y168968D02*
X250613Y169266D01*
Y170766D02*
X251347Y171500D01*
X263247Y176100D02*
X265847Y173500D01*
X269847D01*
X262316Y176835D02*
Y177032D01*
Y176835D02*
X263050Y176100D01*
X263247D01*
X255284Y171500D02*
Y173531D01*
X251150Y171500D02*
X251347D01*
X261581Y180037D02*
X262316Y180772D01*
Y180968D01*
X358466Y176650D02*
X362316Y180500D01*
X353506Y176650D02*
X358466D01*
X324856Y148000D02*
X353506Y176650D01*
X315316Y148000D02*
X324856D01*
X341316Y171531D02*
X341316Y171531D01*
X341316Y167500D02*
Y171531D01*
X300694Y160500D02*
X325194Y185000D01*
X267815Y161500D02*
X268815Y160500D01*
X300694D01*
X263815Y161000D02*
X265815Y159000D01*
X259816Y161000D02*
X263316Y157500D01*
X301937D01*
X301315Y159000D02*
X325816Y183500D01*
X265815Y159000D02*
X301315D01*
X301937Y157500D02*
X326437Y182000D01*
X303315Y156000D02*
X327816Y180500D01*
X325194Y185000D02*
X348467D01*
X355816Y180500D02*
X366316Y191000D01*
X354194Y183500D02*
X357816Y187121D01*
X354816Y182000D02*
X361315Y188500D01*
X348467Y185000D02*
X348967Y185500D01*
X352315D01*
X325816Y183500D02*
X354194D01*
X326437Y182000D02*
X354816D01*
X327816Y180500D02*
X355816D01*
X353816Y187000D02*
Y196500D01*
X352315Y185500D02*
X353816Y187000D01*
Y196500D02*
X359315Y202000D01*
X357816Y187121D02*
Y197134D01*
X366316Y191000D02*
Y196500D01*
X276315Y178500D02*
X281060D01*
X281060Y178500D01*
X286571D02*
X286571Y178500D01*
X290815D01*
X291815Y179500D01*
Y181244D02*
X292316Y181744D01*
X291815Y179500D02*
Y181244D01*
X220815Y151244D02*
X221060Y151000D01*
X220815Y151244D02*
Y155000D01*
X226315Y151256D02*
X226571Y151000D01*
X226315Y151256D02*
Y155000D01*
X220560Y159000D02*
X220815Y158744D01*
Y155000D02*
Y158744D01*
X220316Y159244D02*
X220560Y159000D01*
X226071D02*
X226315Y158756D01*
Y155000D02*
Y158756D01*
X226071Y159000D02*
X226098Y159026D01*
X211252Y184500D02*
X216316D01*
X245316Y227744D02*
X245571Y228000D01*
X245316Y224500D02*
Y227744D01*
X282060Y195000D02*
X282060Y195000D01*
X305752Y225000D02*
X306816Y226063D01*
X301816Y225000D02*
X305752D01*
Y235000D02*
X306816Y233937D01*
X301816Y235000D02*
X305752D01*
X291753Y225000D02*
X292815Y226063D01*
X287316Y225000D02*
X291753D01*
X292252Y234500D02*
X292815Y233937D01*
X287316Y234500D02*
X292252D01*
X282315Y225563D02*
X286401D01*
X286964Y225000D01*
X287316D01*
X282253Y225500D02*
X282315Y225563D01*
X277315Y225500D02*
X282253D01*
X282315Y233437D02*
X283379Y234500D01*
X287316D01*
X282253Y233500D02*
X282315Y233437D01*
X276816Y233500D02*
X282253D01*
X282071Y190000D02*
X285982D01*
X196316Y177000D02*
X203379D01*
X203315Y184563D02*
X203379Y184500D01*
X203315Y184563D02*
Y189500D01*
X140784Y115734D02*
Y118500D01*
X140050Y115000D02*
X140784Y115734D01*
X139878Y115000D02*
X140050D01*
X136284D02*
X139878D01*
X136284Y115000D02*
X136284Y115000D01*
X143816Y113500D02*
Y115000D01*
X136816Y106500D02*
X143816Y113500D01*
X128315Y115000D02*
X132347D01*
X119816Y106500D02*
X128315Y115000D01*
X116815Y106500D02*
X119816D01*
D141*
X261949Y216000D02*
Y219918D01*
X263690Y221855D02*
X264335Y222500D01*
X261949Y219918D02*
X263690Y221658D01*
X264335Y222500D02*
X264531D01*
X263690Y221658D02*
Y221855D01*
X258254Y203000D02*
X261500D01*
X265600Y204000D02*
X270014D01*
X263600Y206000D02*
X265600Y204000D01*
X272580Y195500D02*
Y201434D01*
X270014Y204000D02*
X272580Y201434D01*
X289930Y89874D02*
X291559Y91503D01*
Y94500D01*
X289000Y89874D02*
X289930D01*
D142*
X124000Y160000D02*
X124253Y159747D01*
Y158688D02*
X127244Y155697D01*
X124253Y158688D02*
Y159747D01*
X127244Y155500D02*
Y155697D01*
D143*
X347081Y134766D02*
X374316Y162000D01*
X331816Y120000D02*
X336398Y124583D01*
X345666Y134766D02*
X347081D01*
X336398Y124583D02*
X338316Y126500D01*
X338815D02*
X355816D01*
X338316D02*
X338815D01*
X343266Y132365D02*
X345666Y134766D01*
X338815Y126500D02*
X343266Y130950D01*
Y132365D01*
X331816Y116469D02*
X331816Y116469D01*
X331816Y116469D02*
Y120000D01*
X355847Y123500D02*
X355863Y123484D01*
Y120016D02*
Y123484D01*
Y120016D02*
X355878Y120000D01*
X355315Y129532D02*
X355550Y129297D01*
Y126847D02*
Y129297D01*
Y126847D02*
X355816Y126581D01*
Y126500D02*
Y126581D01*
X355831Y123516D02*
X355847Y123500D01*
X355831Y123516D02*
Y126484D01*
X355816Y126500D02*
X355831Y126484D01*
D144*
X202900Y322775D02*
Y341759D01*
X199781Y322775D02*
X202900D01*
X199766Y322791D02*
X199781Y322775D01*
X199766Y322791D02*
Y341775D01*
X202900Y341759D02*
X202916Y341775D01*
X252816Y313000D02*
X253007Y313191D01*
X257107D01*
X259615Y315700D01*
X253007Y313191D02*
X256315Y316500D01*
Y317000D01*
X253007Y313191D02*
Y315341D01*
X253315Y315650D01*
X252816Y313000D02*
Y313271D01*
X250166Y315921D02*
X252816Y313271D01*
X250166Y315921D02*
Y341775D01*
X253315Y315650D02*
Y341775D01*
X256466Y317150D02*
Y341775D01*
X256315Y317000D02*
X256466Y317150D01*
X259615Y315700D02*
Y341775D01*
D145*
X121316Y341675D02*
X121415Y341775D01*
D146*
X266000Y95500D02*
D03*
X256000D02*
D03*
X246000D02*
D03*
X236000D02*
D03*
X226000D02*
D03*
D147*
X216000D02*
D03*
D148*
X163815Y83500D02*
D03*
X104815D02*
D03*
X156816Y71500D02*
D03*
X111816D02*
D03*
D149*
X146816Y106500D02*
D03*
X151815Y96500D02*
D03*
X141815D02*
D03*
X136816Y106500D02*
D03*
X131816Y96500D02*
D03*
X126815Y106500D02*
D03*
X121816Y96500D02*
D03*
X116815Y106500D02*
D03*
D150*
X496866Y296450D02*
D03*
Y56450D02*
D03*
X56866D02*
D03*
Y296450D02*
D03*
D151*
X264544Y198811D02*
D03*
X253500Y195500D02*
D03*
X253306Y190806D02*
D03*
X257500Y191000D02*
D03*
X249656Y187147D02*
D03*
X246101Y193444D02*
D03*
X277000Y195000D02*
D03*
X294000Y89000D02*
D03*
X283816Y83500D02*
D03*
X279000Y257500D02*
D03*
X445500Y122000D02*
D03*
X197000Y170350D02*
D03*
X137024Y120836D02*
D03*
X448815Y242500D02*
D03*
X446000Y105000D02*
D03*
X253554Y163054D02*
D03*
X297000Y143500D02*
D03*
X444000Y118000D02*
D03*
X386000Y125500D02*
D03*
X432000Y257500D02*
D03*
Y248500D02*
D03*
X241000Y116500D02*
D03*
Y125500D02*
D03*
X249500Y246000D02*
D03*
X189500Y220500D02*
D03*
Y228500D02*
D03*
X184500Y220000D02*
D03*
Y228500D02*
D03*
X236000Y263500D02*
D03*
X196000Y226500D02*
D03*
X205000Y227000D02*
D03*
X209500Y220500D02*
D03*
X439500Y95500D02*
D03*
X436000Y91000D02*
D03*
X432500Y90500D02*
D03*
X439500Y124500D02*
D03*
X397000Y130000D02*
D03*
X391500Y124500D02*
D03*
X226098Y163782D02*
D03*
X191000Y157500D02*
D03*
X127000Y180500D02*
D03*
X123000Y198500D02*
D03*
Y196000D02*
D03*
X122851Y193507D02*
D03*
X123500Y191300D02*
D03*
Y189000D02*
D03*
X131816Y126500D02*
D03*
X123500Y185000D02*
D03*
X136000Y171000D02*
D03*
X194500Y168500D02*
D03*
X220000Y166000D02*
D03*
X200500Y172000D02*
D03*
X215000Y153500D02*
D03*
Y165500D02*
D03*
X199500Y153500D02*
D03*
X216685Y146000D02*
D03*
X195185D02*
D03*
X206500Y148000D02*
D03*
X156500Y207500D02*
D03*
X148500Y173000D02*
D03*
X130500Y175000D02*
D03*
X159500Y203500D02*
D03*
X87500Y166500D02*
D03*
X98500Y166000D02*
D03*
X98000Y174500D02*
D03*
X88000D02*
D03*
X110000Y182000D02*
D03*
X87000Y187500D02*
D03*
X159500Y191000D02*
D03*
X158500Y187000D02*
D03*
X174000Y186000D02*
D03*
X158000Y177500D02*
D03*
X119500Y172000D02*
D03*
X104000Y169000D02*
D03*
Y181000D02*
D03*
X149000Y159500D02*
D03*
X137500Y155500D02*
D03*
X374316Y162000D02*
D03*
X306315Y152500D02*
D03*
X275816Y164000D02*
D03*
X274292Y185854D02*
D03*
X287316Y190500D02*
D03*
X276487Y182828D02*
D03*
X276315Y173500D02*
D03*
X222105Y183300D02*
D03*
X261492Y171472D02*
D03*
X253538Y175239D02*
D03*
X253658Y179386D02*
D03*
X249640Y183158D02*
D03*
X249721Y179307D02*
D03*
Y175370D02*
D03*
X245606Y175169D02*
D03*
X241847Y179307D02*
D03*
X241708Y183091D02*
D03*
X237910Y183244D02*
D03*
X233782Y183027D02*
D03*
X229760Y175040D02*
D03*
X237950Y171472D02*
D03*
X230036Y171433D02*
D03*
X249721Y202969D02*
D03*
X237803Y175299D02*
D03*
X237753Y187053D02*
D03*
X237657Y194807D02*
D03*
X237776Y191017D02*
D03*
X241774Y218790D02*
D03*
X237836Y198958D02*
D03*
X237984Y206979D02*
D03*
X237836Y202895D02*
D03*
X249973Y206619D02*
D03*
X245585Y206686D02*
D03*
X245550Y202706D02*
D03*
X249795Y195168D02*
D03*
X257487Y206794D02*
D03*
X246020Y211055D02*
D03*
X249940Y210598D02*
D03*
X237984Y210916D02*
D03*
X230110Y214853D02*
D03*
X226025Y214706D02*
D03*
X222088Y218790D02*
D03*
X213390Y205650D02*
D03*
X226173Y203042D02*
D03*
Y198958D02*
D03*
X249816Y218500D02*
D03*
X257716Y179500D02*
D03*
X217316Y192000D02*
D03*
X361315Y196000D02*
D03*
X336315Y113500D02*
D03*
X332315Y133500D02*
D03*
X338815Y134500D02*
D03*
X346764Y132116D02*
D03*
X352315Y131000D02*
D03*
X401816Y125000D02*
D03*
X396815D02*
D03*
X382816Y124500D02*
D03*
X373815D02*
D03*
X369815D02*
D03*
X403816Y131500D02*
D03*
X393316Y131000D02*
D03*
X388316D02*
D03*
X383816Y132500D02*
D03*
X376315Y134500D02*
D03*
X373316Y131000D02*
D03*
X368815D02*
D03*
X364316D02*
D03*
X309315Y97500D02*
D03*
X308816Y102500D02*
D03*
X313815Y106500D02*
D03*
X334315Y109500D02*
D03*
X330816Y106000D02*
D03*
X325816Y105500D02*
D03*
X320316D02*
D03*
X335816Y103500D02*
D03*
X333315Y101500D02*
D03*
X329315Y100500D02*
D03*
X325315D02*
D03*
X321316Y100000D02*
D03*
X317316Y99500D02*
D03*
X149316Y114000D02*
D03*
X121316Y125500D02*
D03*
X126315Y126000D02*
D03*
X138815D02*
D03*
X97816Y111000D02*
D03*
X96816Y95000D02*
D03*
X96315Y68500D02*
D03*
X105815Y59500D02*
D03*
X163315Y58000D02*
D03*
X176315Y50000D02*
D03*
X173816Y68500D02*
D03*
X176315Y84000D02*
D03*
X171316Y96500D02*
D03*
X170316Y107500D02*
D03*
X169316Y116500D02*
D03*
X170316Y126000D02*
D03*
X105315Y103500D02*
D03*
X99815Y121500D02*
D03*
X111316Y116500D02*
D03*
X110816Y127000D02*
D03*
X111316Y139000D02*
D03*
X121816Y141500D02*
D03*
X135816D02*
D03*
X149316D02*
D03*
X160816Y139500D02*
D03*
X161316Y130000D02*
D03*
Y121500D02*
D03*
Y112500D02*
D03*
Y104500D02*
D03*
X160816Y95500D02*
D03*
X412816Y203000D02*
D03*
X415315Y200000D02*
D03*
X417815Y197000D02*
D03*
X420316Y194500D02*
D03*
X422816Y192000D02*
D03*
X424816Y189500D02*
D03*
X427815Y186500D02*
D03*
X430816Y184000D02*
D03*
X433815Y181500D02*
D03*
X436315Y179000D02*
D03*
X439316Y176000D02*
D03*
X441816Y173000D02*
D03*
X444315Y170500D02*
D03*
X447316Y167500D02*
D03*
X450316Y164500D02*
D03*
X453315Y161500D02*
D03*
Y157500D02*
D03*
Y154000D02*
D03*
Y150000D02*
D03*
Y146000D02*
D03*
Y142500D02*
D03*
Y139000D02*
D03*
Y135500D02*
D03*
Y131500D02*
D03*
Y128000D02*
D03*
Y125000D02*
D03*
Y121500D02*
D03*
Y118000D02*
D03*
Y114500D02*
D03*
Y111500D02*
D03*
Y108500D02*
D03*
Y105000D02*
D03*
Y102000D02*
D03*
Y99000D02*
D03*
X459816Y98500D02*
D03*
X459315Y101500D02*
D03*
Y105500D02*
D03*
Y109500D02*
D03*
Y113500D02*
D03*
Y117500D02*
D03*
Y121500D02*
D03*
Y126000D02*
D03*
Y130000D02*
D03*
Y134000D02*
D03*
Y138000D02*
D03*
Y142000D02*
D03*
Y145500D02*
D03*
Y149000D02*
D03*
Y153000D02*
D03*
Y156500D02*
D03*
Y160000D02*
D03*
Y164000D02*
D03*
X456815Y167000D02*
D03*
X453816Y169500D02*
D03*
X451315Y172500D02*
D03*
X448815Y175000D02*
D03*
X446315Y177500D02*
D03*
X443816Y180000D02*
D03*
X441316Y182500D02*
D03*
X438815Y185000D02*
D03*
X436315Y187500D02*
D03*
X433815Y190000D02*
D03*
X430816Y193000D02*
D03*
X427815Y196000D02*
D03*
X424816Y199000D02*
D03*
X421815Y202000D02*
D03*
X420316Y206000D02*
D03*
X412316Y207000D02*
D03*
X103815Y296500D02*
D03*
Y292000D02*
D03*
X79316Y297000D02*
D03*
X228795Y235980D02*
D03*
X239815Y224500D02*
D03*
X358816Y130000D02*
D03*
X331816Y128000D02*
D03*
X289316Y269000D02*
D03*
X439816Y222000D02*
D03*
X421315Y210500D02*
D03*
X426266Y220757D02*
D03*
X428315Y225000D02*
D03*
X411816Y211500D02*
D03*
X408815Y219500D02*
D03*
X398815Y232150D02*
D03*
X401816Y225000D02*
D03*
X404815Y222500D02*
D03*
X365815Y242650D02*
D03*
X374816Y244500D02*
D03*
X393815Y250500D02*
D03*
X401816Y246500D02*
D03*
X379315D02*
D03*
X384315Y248500D02*
D03*
X289316Y307000D02*
D03*
X336816Y283000D02*
D03*
Y307500D02*
D03*
Y287500D02*
D03*
X419315Y299000D02*
D03*
X429815Y302000D02*
D03*
X436315D02*
D03*
X377816Y301150D02*
D03*
X382816Y301000D02*
D03*
X398815Y287500D02*
D03*
X389316Y271000D02*
D03*
X393815Y276500D02*
D03*
X376315Y281000D02*
D03*
X433316Y210000D02*
D03*
X439816Y212000D02*
D03*
X450316Y249500D02*
D03*
X276315Y293500D02*
D03*
X265316Y305500D02*
D03*
Y299500D02*
D03*
X243316Y293500D02*
D03*
X219815Y301000D02*
D03*
X324223Y87000D02*
D03*
X355638Y87677D02*
D03*
X471815Y87500D02*
D03*
X440815D02*
D03*
X369815Y120000D02*
D03*
X406815Y125500D02*
D03*
X331816Y120000D02*
D03*
X355816Y126500D02*
D03*
X370815Y134500D02*
D03*
X303816Y99500D02*
D03*
X323316Y122000D02*
D03*
X326816Y111000D02*
D03*
X295316Y120500D02*
D03*
X288916D02*
D03*
X315316Y113000D02*
D03*
X300315Y89500D02*
D03*
X282500Y75000D02*
D03*
X301816Y145500D02*
D03*
X278816Y152500D02*
D03*
X287316Y138000D02*
D03*
Y132000D02*
D03*
X277816D02*
D03*
X273316Y130500D02*
D03*
X274316Y116500D02*
D03*
X280816Y102500D02*
D03*
X261816Y111500D02*
D03*
X230816Y140000D02*
D03*
X266316Y113500D02*
D03*
X281816Y124500D02*
D03*
X325816Y115000D02*
D03*
X315815Y125500D02*
D03*
X287000Y75000D02*
D03*
X281816Y90000D02*
D03*
X236315Y151500D02*
D03*
X260816Y147000D02*
D03*
X194316Y255185D02*
D03*
Y266185D02*
D03*
X209315Y265685D02*
D03*
Y255185D02*
D03*
X350315Y110000D02*
D03*
X327315Y135000D02*
D03*
X316316Y135500D02*
D03*
X342987Y141850D02*
D03*
X360315Y134500D02*
D03*
X343316Y152500D02*
D03*
X169316Y159000D02*
D03*
X101815D02*
D03*
X245815Y244000D02*
D03*
X242815Y240000D02*
D03*
X249571Y162408D02*
D03*
X209315Y197500D02*
D03*
X228816Y224500D02*
D03*
X220815Y228500D02*
D03*
X205816Y239500D02*
D03*
X258816Y243500D02*
D03*
X220815Y239500D02*
D03*
X259816Y226000D02*
D03*
X247316Y165000D02*
D03*
X242316Y223000D02*
D03*
X249816Y149000D02*
D03*
X325315Y171500D02*
D03*
X315316Y148000D02*
D03*
X357816Y174500D02*
D03*
X362316Y180500D02*
D03*
X267815Y161500D02*
D03*
X357816Y197134D02*
D03*
X342316Y178000D02*
D03*
X263815Y161000D02*
D03*
X284816Y163500D02*
D03*
X256315Y161000D02*
D03*
X259816D02*
D03*
X341316Y167500D02*
D03*
X366316Y196500D02*
D03*
X359315Y202000D02*
D03*
X371815Y193500D02*
D03*
X362815Y207000D02*
D03*
X275816Y205150D02*
D03*
X338815Y209000D02*
D03*
X325315Y191000D02*
D03*
X276315Y178500D02*
D03*
X290815Y174000D02*
D03*
X270815Y225500D02*
D03*
X216500Y138500D02*
D03*
X205816Y140500D02*
D03*
X195000Y138000D02*
D03*
X216235Y196919D02*
D03*
X220815Y155000D02*
D03*
X226315D02*
D03*
X216316Y184500D02*
D03*
X245316Y224500D02*
D03*
X301816Y225000D02*
D03*
Y235000D02*
D03*
X290815Y178500D02*
D03*
X276816Y233500D02*
D03*
X287316Y234500D02*
D03*
Y225000D02*
D03*
X277315Y225500D02*
D03*
X196316Y177000D02*
D03*
X197816Y184500D02*
D03*
X203315Y189500D02*
D03*
X209315Y192000D02*
D03*
D152*
X248169Y252504D02*
D03*
Y256835D02*
D03*
Y261165D02*
D03*
Y265496D02*
D03*
X252500Y252504D02*
D03*
Y256835D02*
D03*
Y261165D02*
D03*
Y265496D02*
D03*
X256831Y252504D02*
D03*
Y256835D02*
D03*
Y261165D02*
D03*
Y265496D02*
D03*
X410819Y230004D02*
D03*
Y234335D02*
D03*
Y238665D02*
D03*
Y242996D02*
D03*
X415150Y230004D02*
D03*
Y234335D02*
D03*
Y238665D02*
D03*
Y242996D02*
D03*
X419481Y230004D02*
D03*
Y234335D02*
D03*
Y238665D02*
D03*
Y242996D02*
D03*
X423812Y230004D02*
D03*
Y234335D02*
D03*
Y238665D02*
D03*
Y242996D02*
D03*
X140882Y194315D02*
D03*
Y189984D02*
D03*
Y185653D02*
D03*
X136551Y194315D02*
D03*
Y189984D02*
D03*
Y185653D02*
D03*
X132220Y194315D02*
D03*
Y189984D02*
D03*
Y185653D02*
D03*
X292378Y116789D02*
D03*
Y112671D02*
D03*
X285489Y112673D02*
D03*
X292378Y108569D02*
D03*
X299268Y112673D02*
D03*
X334820Y187504D02*
D03*
Y191835D02*
D03*
Y196165D02*
D03*
Y200496D02*
D03*
X339150Y187504D02*
D03*
Y191835D02*
D03*
Y196165D02*
D03*
Y200496D02*
D03*
X343481Y187504D02*
D03*
Y191835D02*
D03*
Y196165D02*
D03*
Y200496D02*
D03*
X347812Y187504D02*
D03*
Y191835D02*
D03*
Y196165D02*
D03*
Y200496D02*
D03*
X345804Y119413D02*
D03*
X341473D02*
D03*
X345804Y123744D02*
D03*
X341473D02*
D03*
D153*
X132316Y311000D02*
D03*
X126815Y307500D02*
D03*
X110316Y311000D02*
D03*
X121316Y306000D02*
D03*
X114815Y307500D02*
D03*
X252816Y313000D02*
D03*
X200816Y298500D02*
D03*
X205816Y293000D02*
D03*
X208315Y298000D02*
D03*
X204315Y304000D02*
D03*
X197316Y305500D02*
D03*
X137815Y309500D02*
D03*
X133816Y304000D02*
D03*
X128315Y301000D02*
D03*
X121816Y300000D02*
D03*
X115315Y301000D02*
D03*
X108816Y304000D02*
D03*
X104815Y308000D02*
D03*
D154*
X168816Y137500D02*
D03*
X101315D02*
D03*
X123816Y115500D02*
D03*
X148816Y119266D02*
D03*
D166*
X268700Y216000D02*
D03*
X258500D02*
D03*
Y196000D02*
D03*
X268700D02*
D03*
D167*
X263600Y206000D02*
D03*
D168*
X286441Y94500D02*
D03*
X289000D02*
D03*
X291559D02*
D03*
Y85248D02*
D03*
X289000D02*
D03*
X286441D02*
D03*
D169*
X289000Y89874D02*
D03*
D170*
X299630Y99500D02*
D03*
X289001D02*
D03*
D171*
X200816Y298500D02*
X202315D01*
X177315D02*
X200816D01*
X168716Y307100D02*
X177315Y298500D01*
X168716Y307100D02*
Y341775D01*
D172*
X121565Y317500D02*
D03*
M02*
