M48
;Layer_Color=9474304
;FILE_FORMAT=2:4
INCH,LZ
;TYPE=PLATED
T1F00S00C0.0079
T2F00S00C0.0080
T3F00S00C0.0100
T4F00S00C0.0150
T5F00S00C0.0350
T6F00S00C0.0354
T7F00S00C0.0640
;TYPE=NON_PLATED
T8F00S00C0.1300
%
T01
X0045Y0045
X006
X0075
X00825Y006
X00675
X0075Y0075
X006
X0045
X00525Y009
X00675
X00825
X0075Y0105
X006
X0045
X00525Y012
X00675
X00825
X0075Y0135
X006
X0045
X00525Y015
X00675
X00825
X0195Y0135
X02025Y012
X02175
X0225Y0135
X02175Y015
X0255Y0135
X027
X02775Y015
X028549Y011267
X029238Y011267
Y010857
Y011679
X029927Y011267
X03Y0075
X03075Y006
X02925
X02775
X02625
X02475
X02325
X02175
X02025
X021Y0075
X0225
X024
X0255
X027
X02775Y009
X02625
X02475
X02325
X02175
X02025
X0195Y0105
Y0075
Y0045
X021
X0225
X024
X0255
X027
X0285
X03
X0255Y0105
X024
X02475Y012
X034147Y011941
X03458
Y012374
X034147
X0345Y0105
X036
X0375
X039
X03975Y012
X04125
X042Y0135
X0435
X045
X0465
Y0105
X045
X04425Y009
X04125
X03975
X03825
X03675
X0375Y0075
X039
X0405
X042
X04275Y006
X04125
X03975
X03825
X03675
X0375Y0045
X039
X0405
X042
X0405Y0135
X039
X03975Y015
X04125
X04275
X04425
X03825
X03675
X03825Y012
X0315Y0075
Y0045
X048
X0495
X04875Y006
X0495Y0075
X048
X04875Y009
X05025
X0495Y0105
X048
X04875Y012
X05025
X0495Y0135
X048
X04875Y015
X05025
X04725
Y012
Y009
X048Y0165
X0495
X05025Y018
X04875
X04725
X048Y0195
X0495
X05025Y021
X04875
X04725
X048Y0225
X0495
X05025Y024
X04875
X04725
X048Y0255
X0495
X05025Y027
X04875
X04725
X048Y0285
X0495
X04875Y03
X04725
X04575
X04425
X045Y0285
X0465
X04575Y027
X04425
X04275
X04125
X03975
X0405Y0285
X039
X0375
X036
X0345
X03525Y03
X03375
X03225
X0315Y0285
Y0255
X0345
X036
X03525Y027
X03375
X0345Y0225
X033
X0315
X033482Y02005
Y019617
Y019183
Y01875
X033915
Y019183
Y019617
Y02005
X034348
Y019617
Y019183
Y01875
X034781
Y019183
Y019617
Y02005
X03675Y021
X03825
X03975
X0405Y0225
X041082Y023
Y023433
Y023867
Y0243
X041515
Y023867
Y023433
Y023
X041948
Y023433
Y023867
Y0243
X042381
Y023867
Y023433
Y023
X045Y0225
X0465
X04575Y024
X0465Y0255
X045
X0435
Y0285
X04125Y03
X039Y0255
X0375Y0225
Y0195
X039
X0405
X04125Y018
X04275
X0435Y0195
X045
X0465
X04575Y021
X04425
X04575Y018
X0465Y0165
X0435
X042
X0405
X03975Y018
X03675
X0345Y0165
X0315
X03
Y0195
X03075Y024
X02925
X02775
X0285Y0255
X03
Y0285
X0285
X027
X0255
X024
X0225
X02325Y027
X02475
X024817Y02655
Y026117
Y025683
Y02525
X02525
Y025683
Y026117
Y02655
X025683
Y026117
Y025683
Y02525
X027Y0255
X02625Y027
Y03
X03075
X02175Y027
X02025
X01875
X01725
X01575
X0165Y0285
X018
X0195
X018Y0255
X0165
X01725Y024
X01875
X02025
X021Y0225
X018
X0165
X01575Y024
Y03
X01875Y018
X014088Y018565
Y018998
Y019432
X013655
Y018998
Y018565
X013222
Y018998
Y019432
X01275Y021
X01125
X00975
X00825
X00675
X00525
X006Y0225
X0075
X009
X0105
X01125Y024
X01275
X01425
X015Y0255
X0135
X01425Y027
X01275
X01125
X00975
X00825
X00675
X00525
X006Y0285
X0075
X009
X0105
X0135
X015
X01425Y03
X00675
X0045Y0285
Y0255
X006
X0075
X009
X0105
X00975Y024
X00825
X00675
X00525
X0045Y0225
Y0195
X006
X0075
X009
X0105
X00975Y018
X00825
X00675
X00525
X006Y0165
X0075
X0105
X0045
X0135Y0225
X015
T02
X009632Y00685
X010582Y00595
X009682Y0095
X009782Y0111
X009982Y01215
X011132Y01165
X011082Y0127
X012132Y01255
X012632Y0126
X013182Y01265
X013882Y0126
X013702Y012084
X014932Y0114
Y01415
X013582
X012182
X011132Y0139
X010532Y01035
X01375Y01555
X016082Y01395
X016132Y013
Y01215
Y01125
Y01045
X016082Y00955
X017132Y00965
X017032Y01075
X016932Y01165
X017032Y0126
X0195Y0138
X019518Y0146
X01995Y01535
X02065Y0148
X020582Y01405
X02165Y01385
X021668Y0146
X0215Y01535
X022082Y0155
X022632
X023632Y01515
X024982Y0149
X026082Y0147
X027882Y01525
X027782Y0132
X027332Y01305
X028182Y01245
X028892Y01205
X029532
X028732Y0132
Y0138
X0297Y01435
X030182Y01455
X030632Y01525
X030882Y01025
X030932Y00975
X030382Y00995
X030032Y00895
X0294Y0089
X0291Y009
X0287
X028182
X028382Y00835
X02825Y0075
X0287
X028082Y01025
X027432Y01165
X026632Y01135
X026182Y01115
X0241Y01165
Y01255
X023082Y014
X017632Y0084
X017382Y00685
X016332Y0058
X017632Y005
X032422Y0087
X032532Y01005
X032932
X033332Y01015
X033582Y01035
X033432Y01095
X033632Y01135
X033182Y012
Y0128
X033232Y01335
X032732Y0135
X031632Y01355
X031582Y01255
X032332Y0122
X032582Y0115
X032682Y0111
X032582Y01055
X033082Y0106
X032032Y01055
X032132Y01
X031732Y00995
X031382Y01065
X031532Y0113
Y0148
X034332Y01525
X034299Y014185
X033882Y01345
X034676Y013212
X035232Y0131
X035882Y013
X036032Y01345
X036432Y0131
X036882
X037332
X037082Y01345
X037632
X038382Y01325
X038832Y0131
X039332
X0397Y013
X039682Y0125
X040182
X040682Y01255
X040382Y01315
X03915Y01245
X0386Y01255
X038282Y01245
X037382
X036982
Y012
X035582Y01265
X035032Y011
X035564Y008768
X04095Y0103
X04125
Y0106
X04095
X0446Y0105
X045332
Y0102
Y0099
X045982Y00985
X045932Y01015
Y01055
Y01095
Y01135
Y01175
Y01215
Y0126
Y013
Y0134
Y0138
Y0142
Y01455
Y0149
Y0153
X045332Y0154
Y015
Y0146
Y01425
Y0139
Y01355
Y01315
Y0128
Y0125
Y01215
Y0118
Y01145
Y01115
Y01085
X0444Y0118
X04455Y0122
X04395Y01245
Y00955
X0436Y0091
X04325Y00905
X044082Y00875
X047182
X045932Y01565
Y016
Y0164
X045682Y0167
X045382Y01695
X045132Y01725
X044882Y0175
X044632Y01775
X044382Y018
X044132Y01825
X043882Y0185
X043632Y01875
X043382Y019
X043082Y0193
X042782Y0196
X042482Y0199
X042182Y0202
X042032Y0206
X042132Y02105
X041182Y02115
X041232Y0207
X041282Y0203
X041532Y02
X041782Y0197
X042032Y01945
X042282Y0192
X042482Y01895
X042782Y01865
X043082Y0184
X043382Y01815
X043632Y0179
X043932Y0176
X044182Y0173
X044432Y01705
X044732Y01675
X045032Y01645
X045332Y01615
Y01575
X043982Y0212
X043332Y021
X042627Y022076
X042832Y0225
X043982Y0222
X044882Y02425
X045032Y02495
X0432Y02485
Y02575
X040182Y02465
X039382Y02505
X038432Y02485
X037932Y02465
X037482Y02445
X036582Y024265
X036282Y0207
X035932Y0202
X035782Y019713
X036132Y0196
X036632Y01965
X037182Y01935
X036232Y01805
X035782Y01745
X034232Y0178
X034132Y01675
X032532Y01715
Y0191
X033882Y0209
X033682Y0283
Y02875
Y03075
X037782Y030115
X038282Y0301
X037632Y0281
X039382Y02765
X038932Y0271
X039882Y02875
X041932Y0299
X042982Y0302
X043632
X039882Y023215
X040182Y0225
X040482Y02225
X040882Y02195
X037432Y0162
X028482Y01635
X027582Y0164
X027632Y01735
Y01785
X027649Y018283
X027429Y018585
X0277Y0195
X027582Y020515
X02655Y0207
Y0203
X02615
Y0207
X025749Y020679
X024997Y020662
X024972Y020297
X024555Y020271
X024558Y020669
X024602Y021106
X024994Y02106
X024982Y02185
X024177Y021879
X024232Y0223
X023982Y02245
X024532
X025982Y0226
X027082Y02255
X027732
X027682Y02335
X028732Y02345
Y0225
X030182
Y0235
X0279Y02575
X028932Y0269
X027632Y02935
X026532Y02995
Y03055
X028932Y0307
X024332Y02935
X021982Y0301
X020932Y026569
Y025519
X019432
Y026618
X020582Y02395
X0205Y0227
X02005Y0224
Y0221
X02095Y02205
X022209Y021879
X022603Y021471
X023011Y021485
X022882Y02245
X02288Y023598
X022082Y02395
Y02285
X0196Y02265
X01895Y02285
X01845
Y022
X01895Y02205
X021339Y020565
X021623Y019692
X021732Y0192
X020932
Y01975
X020332Y01895
X019782Y01845
X019632Y0177
X0197Y017035
X01945Y01685
X01975Y01645
X0197Y01615
X0194Y01595
X0191Y01575
X016932Y0159
X0158Y01775
X01585Y0187
X01595Y0191
Y02035
X01565Y02075
X0174Y0186
X02005Y0172
X0215Y01655
X022Y0166
X02261Y016378
X023004Y017143
X022976Y017504
X02378Y01753
X023795Y017147
X024561Y017517
X024972Y017537
Y017931
X024964Y018316
X024966Y018715
X025331Y019081
X02575Y0191
X02535Y01955
X024979Y019517
X02461Y019344
X023766Y019481
X023778Y019102
X023775Y018705
X023791Y018324
X024171Y018309
X024185Y017931
X023378Y018303
X02221Y01833
X021632Y01845
X022617Y019896
Y020304
X023784Y020289
Y019896
X023798Y020698
X023798Y021092
X024282Y024
X024582Y0244
X02495Y0246
X025882Y02435
X0236Y02635
X026454Y019881
X025772Y01795
X025366Y017939
X025354Y017524
X026149Y017147
X025982Y0161
X025632
X025355Y016305
X024957Y016241
X024732Y0165
X026382Y0161
X026782Y01615
X029082Y0174
Y01785
X029282Y01905
X028732
X01445Y0203
X0123Y01985
Y0196
X012285Y019351
X01235Y01913
Y0189
Y0185
X0127Y01805
X01305Y0175
X0136Y0171
X01485Y0173
X0149Y01595
X0124Y016
X01195Y0172
X0104Y0169
X00985Y0166
X0098Y01745
X0088
X00875Y01665
X0087Y01875
X0104Y0181
X011Y0182
X010182Y0159
X010382Y0292
Y02965
X007932Y0297
T03
X010132Y01375
X012382Y01155
X014882Y011927
X016882Y01375
T04
X020582Y0293
X020832Y0298
X020082Y02985
X020432Y0304
X019732Y03055
X013782Y03095
X013232Y0311
X013382Y0304
X012832Y0301
X012182Y03
X012132Y0306
X012682Y03075
X011482
X011532Y0301
X010882Y0304
X010482Y0308
X011032Y0311
X025282Y0313
T05
X012182Y00965
X013182
X014182
X015182
X014682Y01065
X013682
X012682
X011682
T06
X0216Y00955
X0226
X0236
X0246
X0256
X0266
T07
X010482Y00835
X016382
T08
X005687Y005645
X011182Y00715
X015682
X049687Y005645
Y029645
X005687
M30
