G04*
G04 #@! TF.GenerationSoftware,Altium Limited,Altium Designer,21.5.1 (32)*
G04*
G04 Layer_Color=8388736*
%FSLAX25Y25*%
%MOIN*%
G70*
G04*
G04 #@! TF.SameCoordinates,2FE26025-303F-4DC1-B2D2-7F731E1EADFF*
G04*
G04*
G04 #@! TF.FilePolarity,Negative*
G04*
G01*
G75*
%ADD16R,0.06000X0.04200*%
%ADD17R,1.61500X0.44500*%
%ADD18R,0.00500X0.02000*%
%ADD19R,0.03400X0.01000*%
%ADD20R,0.27000X0.19000*%
%ADD21R,0.19000X0.27000*%
%ADD22R,0.06000X0.08000*%
%ADD23R,0.03500X0.08000*%
%ADD24R,0.06000X0.03000*%
%ADD25R,0.19000X0.12000*%
%ADD26R,0.11000X0.19000*%
%ADD27R,0.27000X0.18000*%
%ADD28R,0.18000X0.27000*%
%ADD29R,0.23000X0.17000*%
%ADD30R,0.17000X0.23000*%
%ADD31O,0.03150X0.02362*%
%ADD32R,0.13976X0.16339*%
%ADD33R,0.02559X0.02953*%
%ADD34R,0.03740X0.04134*%
%ADD35R,0.18701X0.18701*%
%ADD36O,0.04331X0.01378*%
%ADD37O,0.01378X0.04331*%
%ADD38R,0.02591X0.02591*%
%ADD39R,0.02953X0.02559*%
%ADD40R,0.04134X0.03740*%
%ADD41R,0.05709X0.06693*%
%ADD42R,0.12795X0.12795*%
%ADD43O,0.03937X0.01575*%
%ADD44O,0.01575X0.03937*%
%ADD45R,0.06102X0.06496*%
%ADD46R,0.06496X0.06102*%
%ADD47R,0.02284X0.02815*%
%ADD48R,0.01496X0.02815*%
%ADD49R,0.02815X0.01496*%
%ADD50R,0.02815X0.02284*%
%ADD51R,0.06496X0.06496*%
%ADD52O,0.04134X0.01575*%
%ADD53O,0.01575X0.04134*%
%ADD54R,0.03976X0.06221*%
%ADD55O,0.02165X0.01772*%
%ADD56R,0.03583X0.07087*%
%ADD57R,0.03900X0.06100*%
%ADD58O,0.06109X0.02762*%
%ADD59R,0.04375X0.01775*%
G04:AMPARAMS|DCode=60|XSize=33.53mil|YSize=16.2mil|CornerRadius=3.95mil|HoleSize=0mil|Usage=FLASHONLY|Rotation=0.000|XOffset=0mil|YOffset=0mil|HoleType=Round|Shape=RoundedRectangle|*
%AMROUNDEDRECTD60*
21,1,0.03353,0.00830,0,0,0.0*
21,1,0.02562,0.01620,0,0,0.0*
1,1,0.00791,0.01281,-0.00415*
1,1,0.00791,-0.01281,-0.00415*
1,1,0.00791,-0.01281,0.00415*
1,1,0.00791,0.01281,0.00415*
%
%ADD60ROUNDEDRECTD60*%
G04:AMPARAMS|DCode=61|XSize=169.35mil|YSize=19.75mil|CornerRadius=3.97mil|HoleSize=0mil|Usage=FLASHONLY|Rotation=0.000|XOffset=0mil|YOffset=0mil|HoleType=Round|Shape=RoundedRectangle|*
%AMROUNDEDRECTD61*
21,1,0.16935,0.01181,0,0,0.0*
21,1,0.16142,0.01975,0,0,0.0*
1,1,0.00794,0.08071,-0.00591*
1,1,0.00794,-0.08071,-0.00591*
1,1,0.00794,-0.08071,0.00591*
1,1,0.00794,0.08071,0.00591*
%
%ADD61ROUNDEDRECTD61*%
G04:AMPARAMS|DCode=62|XSize=13.84mil|YSize=23.68mil|CornerRadius=3.97mil|HoleSize=0mil|Usage=FLASHONLY|Rotation=90.000|XOffset=0mil|YOffset=0mil|HoleType=Round|Shape=RoundedRectangle|*
%AMROUNDEDRECTD62*
21,1,0.01384,0.01575,0,0,90.0*
21,1,0.00591,0.02368,0,0,90.0*
1,1,0.00794,0.00787,0.00295*
1,1,0.00794,0.00787,-0.00295*
1,1,0.00794,-0.00787,-0.00295*
1,1,0.00794,-0.00787,0.00295*
%
%ADD62ROUNDEDRECTD62*%
G04:AMPARAMS|DCode=63|XSize=13.84mil|YSize=23.68mil|CornerRadius=3.97mil|HoleSize=0mil|Usage=FLASHONLY|Rotation=0.000|XOffset=0mil|YOffset=0mil|HoleType=Round|Shape=RoundedRectangle|*
%AMROUNDEDRECTD63*
21,1,0.01384,0.01575,0,0,0.0*
21,1,0.00591,0.02368,0,0,0.0*
1,1,0.00794,0.00295,-0.00787*
1,1,0.00794,-0.00295,-0.00787*
1,1,0.00794,-0.00295,0.00787*
1,1,0.00794,0.00295,0.00787*
%
%ADD63ROUNDEDRECTD63*%
G04:AMPARAMS|DCode=64|XSize=13.84mil|YSize=47.31mil|CornerRadius=3.97mil|HoleSize=0mil|Usage=FLASHONLY|Rotation=0.000|XOffset=0mil|YOffset=0mil|HoleType=Round|Shape=RoundedRectangle|*
%AMROUNDEDRECTD64*
21,1,0.01384,0.03937,0,0,0.0*
21,1,0.00591,0.04731,0,0,0.0*
1,1,0.00794,0.00295,-0.01968*
1,1,0.00794,-0.00295,-0.01968*
1,1,0.00794,-0.00295,0.01968*
1,1,0.00794,0.00295,0.01968*
%
%ADD64ROUNDEDRECTD64*%
G04:AMPARAMS|DCode=65|XSize=169.35mil|YSize=113.84mil|CornerRadius=4.2mil|HoleSize=0mil|Usage=FLASHONLY|Rotation=0.000|XOffset=0mil|YOffset=0mil|HoleType=Round|Shape=RoundedRectangle|*
%AMROUNDEDRECTD65*
21,1,0.16935,0.10545,0,0,0.0*
21,1,0.16096,0.11384,0,0,0.0*
1,1,0.00839,0.08048,-0.05272*
1,1,0.00839,-0.08048,-0.05272*
1,1,0.00839,-0.08048,0.05272*
1,1,0.00839,0.08048,0.05272*
%
%ADD65ROUNDEDRECTD65*%
%ADD66C,0.02362*%
%ADD67R,0.03504X0.11575*%
%ADD68R,0.03543X0.03347*%
%ADD69R,0.08491X0.05291*%
%ADD70R,0.17520X0.17520*%
%ADD71O,0.03740X0.01575*%
%ADD72O,0.01575X0.03740*%
%ADD73O,0.08465X0.02953*%
%ADD74R,0.09646X0.09646*%
%ADD75R,0.01378X0.02264*%
%ADD76R,0.02264X0.01378*%
G04:AMPARAMS|DCode=77|XSize=51.18mil|YSize=23.62mil|CornerRadius=2.01mil|HoleSize=0mil|Usage=FLASHONLY|Rotation=0.000|XOffset=0mil|YOffset=0mil|HoleType=Round|Shape=RoundedRectangle|*
%AMROUNDEDRECTD77*
21,1,0.05118,0.01961,0,0,0.0*
21,1,0.04717,0.02362,0,0,0.0*
1,1,0.00402,0.02358,-0.00980*
1,1,0.00402,-0.02358,-0.00980*
1,1,0.00402,-0.02358,0.00980*
1,1,0.00402,0.02358,0.00980*
%
%ADD77ROUNDEDRECTD77*%
%ADD78R,0.07284X0.04921*%
%ADD79R,0.04134X0.08661*%
%ADD80R,0.03937X0.04134*%
%ADD81R,0.03937X0.17953*%
%ADD82R,0.03347X0.17953*%
%ADD83R,0.30891X0.40591*%
%ADD84R,0.02559X0.40591*%
%ADD85R,0.02591X0.02591*%
%ADD86R,0.10827X0.04921*%
%ADD87C,0.06496*%
%ADD88R,0.06496X0.06496*%
%ADD89C,0.07991*%
%ADD90C,0.05091*%
%ADD91C,0.13591*%
G36*
X268215Y145650D02*
Y140950D01*
X276115D01*
Y145650D01*
X268215D01*
D02*
G37*
G36*
Y155050D02*
Y150350D01*
X276115D01*
Y155050D01*
X268215D01*
D02*
G37*
G36*
X283516Y145650D02*
Y140950D01*
X291416D01*
Y145650D01*
X283516D01*
D02*
G37*
G36*
Y155050D02*
Y150350D01*
X291416D01*
Y155050D01*
X283516D01*
D02*
G37*
D16*
X434505Y94400D02*
D03*
D17*
X182816Y343500D02*
D03*
D18*
X426566Y249000D02*
D03*
D19*
X436495Y215000D02*
D03*
X431136D02*
D03*
D20*
X341316Y194000D02*
D03*
D21*
D03*
D22*
X383315Y290000D02*
D03*
D23*
X387565Y291000D02*
D03*
X379065D02*
D03*
D24*
X383315Y294500D02*
D03*
D25*
X343815Y121500D02*
D03*
D26*
D03*
D27*
X417315Y236500D02*
D03*
D28*
D03*
D29*
X292316Y113000D02*
D03*
D30*
D03*
D31*
X264409Y251500D02*
D03*
Y256500D02*
D03*
Y261500D02*
D03*
Y266500D02*
D03*
X240591D02*
D03*
Y261500D02*
D03*
Y256500D02*
D03*
Y251500D02*
D03*
D32*
X252500Y259000D02*
D03*
D33*
X418000Y89531D02*
D03*
Y93468D02*
D03*
X236000Y256532D02*
D03*
Y260469D02*
D03*
X276000Y261469D02*
D03*
Y257531D02*
D03*
X151500Y172531D02*
D03*
Y176469D02*
D03*
X155000Y182968D02*
D03*
Y179032D02*
D03*
X399500Y128032D02*
D03*
Y131968D02*
D03*
X394000Y124031D02*
D03*
Y127969D02*
D03*
X379000Y124031D02*
D03*
Y127969D02*
D03*
X409000Y131968D02*
D03*
Y128032D02*
D03*
X447000Y129969D02*
D03*
Y126031D02*
D03*
X422500Y123969D02*
D03*
Y120031D02*
D03*
X417000Y120968D02*
D03*
Y117032D02*
D03*
X409000Y117532D02*
D03*
Y121468D02*
D03*
X422500Y114969D02*
D03*
Y111031D02*
D03*
X405500Y85031D02*
D03*
Y88968D02*
D03*
X249316Y237968D02*
D03*
Y234032D02*
D03*
X334816Y157224D02*
D03*
Y153287D02*
D03*
X312815Y99063D02*
D03*
Y103000D02*
D03*
X293316Y96969D02*
D03*
Y93032D02*
D03*
X277816Y121031D02*
D03*
Y124969D02*
D03*
X300315Y130532D02*
D03*
Y134468D02*
D03*
X283816Y93532D02*
D03*
Y97469D02*
D03*
X277816Y102969D02*
D03*
Y99032D02*
D03*
X290815Y130532D02*
D03*
Y134468D02*
D03*
X294316Y130532D02*
D03*
Y134468D02*
D03*
X296815Y96969D02*
D03*
Y93032D02*
D03*
X323815Y135531D02*
D03*
Y139469D02*
D03*
X319815Y135531D02*
D03*
Y139469D02*
D03*
X123816Y118532D02*
D03*
Y122468D02*
D03*
X148816Y122000D02*
D03*
Y125937D02*
D03*
X216316Y244787D02*
D03*
Y248724D02*
D03*
X226315Y244531D02*
D03*
Y248468D02*
D03*
X221316Y245031D02*
D03*
Y248969D02*
D03*
X231315Y244531D02*
D03*
Y248468D02*
D03*
X260816Y155968D02*
D03*
Y152032D02*
D03*
X245815Y236531D02*
D03*
Y240469D02*
D03*
X343815Y145031D02*
D03*
Y148969D02*
D03*
X362815Y199031D02*
D03*
Y202969D02*
D03*
X363815Y134531D02*
D03*
Y138469D02*
D03*
X367316Y134531D02*
D03*
Y138469D02*
D03*
X420316Y213531D02*
D03*
Y217469D02*
D03*
X329816Y157468D02*
D03*
Y153532D02*
D03*
X357816Y156968D02*
D03*
Y153032D02*
D03*
X352816Y156968D02*
D03*
Y153032D02*
D03*
X416316Y210469D02*
D03*
Y206532D02*
D03*
X300315Y141969D02*
D03*
Y138031D02*
D03*
X284315Y131968D02*
D03*
Y128032D02*
D03*
X277816Y116469D02*
D03*
Y112531D02*
D03*
X280816Y132032D02*
D03*
Y135968D02*
D03*
X300315Y96969D02*
D03*
Y93032D02*
D03*
X334816Y148724D02*
D03*
Y144787D02*
D03*
X352816Y147968D02*
D03*
Y144032D02*
D03*
X366316Y123969D02*
D03*
Y120031D02*
D03*
X362316Y123969D02*
D03*
Y120031D02*
D03*
X423815Y210531D02*
D03*
Y214469D02*
D03*
X427316Y211531D02*
D03*
Y215469D02*
D03*
X440315Y218969D02*
D03*
Y215032D02*
D03*
X428500Y255469D02*
D03*
Y251532D02*
D03*
D34*
X448497Y238000D02*
D03*
X442985D02*
D03*
X189756Y224500D02*
D03*
X184244D02*
D03*
X92244Y187500D02*
D03*
X97756D02*
D03*
X99571Y292000D02*
D03*
X94060D02*
D03*
X99571Y297000D02*
D03*
X94060D02*
D03*
X99571Y302000D02*
D03*
X94060D02*
D03*
X439827Y244000D02*
D03*
X434315D02*
D03*
X83560Y292000D02*
D03*
X89071D02*
D03*
X83560Y297000D02*
D03*
X89071D02*
D03*
X83560Y302000D02*
D03*
X89071D02*
D03*
X226571Y151000D02*
D03*
X221060D02*
D03*
X245571Y228000D02*
D03*
X240060D02*
D03*
X314571Y130000D02*
D03*
X309060D02*
D03*
X323071Y109000D02*
D03*
X317560D02*
D03*
X233071Y310500D02*
D03*
X227560D02*
D03*
X226071Y159000D02*
D03*
X220560D02*
D03*
X232560Y291000D02*
D03*
X238071D02*
D03*
X381560Y281000D02*
D03*
X387071D02*
D03*
X435071Y297500D02*
D03*
X429560D02*
D03*
D35*
X417315Y236500D02*
D03*
D36*
X428930Y245161D02*
D03*
Y243587D02*
D03*
Y242012D02*
D03*
Y240437D02*
D03*
Y238862D02*
D03*
Y237287D02*
D03*
Y235713D02*
D03*
Y234138D02*
D03*
Y232563D02*
D03*
Y230988D02*
D03*
Y229413D02*
D03*
Y227839D02*
D03*
X405701D02*
D03*
Y229413D02*
D03*
Y230988D02*
D03*
Y232563D02*
D03*
Y234138D02*
D03*
Y235713D02*
D03*
Y237287D02*
D03*
Y238862D02*
D03*
Y240437D02*
D03*
Y242012D02*
D03*
Y243587D02*
D03*
Y245161D02*
D03*
D37*
X425977Y224886D02*
D03*
X424402D02*
D03*
X422827D02*
D03*
X421252D02*
D03*
X419678D02*
D03*
X418103D02*
D03*
X416528D02*
D03*
X414953D02*
D03*
X413378D02*
D03*
X411804D02*
D03*
X410229D02*
D03*
X408654D02*
D03*
Y248114D02*
D03*
X410229D02*
D03*
X411804D02*
D03*
X413378D02*
D03*
X414953D02*
D03*
X416528D02*
D03*
X418103D02*
D03*
X419678D02*
D03*
X421252D02*
D03*
X422827D02*
D03*
X424402D02*
D03*
X425977D02*
D03*
D38*
X368000Y200000D02*
D03*
X359500Y208000D02*
D03*
X272500Y104000D02*
D03*
X297500Y128000D02*
D03*
X267500Y133000D02*
D03*
X264000Y127000D02*
D03*
X267000Y105000D02*
D03*
X441500Y128000D02*
D03*
X350315Y178000D02*
D03*
X332816D02*
D03*
X337815D02*
D03*
X345815D02*
D03*
X356315Y213121D02*
D03*
X352315Y215000D02*
D03*
X350816Y211500D02*
D03*
X339815Y215000D02*
D03*
X289815Y211500D02*
D03*
X288815Y207500D02*
D03*
X284816Y204000D02*
D03*
X297518Y204703D02*
D03*
X301816Y201500D02*
D03*
X308816D02*
D03*
X307066Y193750D02*
D03*
X314815Y179000D02*
D03*
D39*
X252532Y246000D02*
D03*
X256469D02*
D03*
X152032Y187000D02*
D03*
X155968D02*
D03*
X155968Y191000D02*
D03*
X152032D02*
D03*
X156468Y204000D02*
D03*
X152532D02*
D03*
X149031Y207500D02*
D03*
X152969D02*
D03*
X117968Y182000D02*
D03*
X114032D02*
D03*
X107937Y187500D02*
D03*
X104000D02*
D03*
X120031Y179000D02*
D03*
X123969D02*
D03*
X120031Y175500D02*
D03*
X123969D02*
D03*
X399532Y128000D02*
D03*
X403469D02*
D03*
X388469Y128000D02*
D03*
X384531D02*
D03*
X442469Y105000D02*
D03*
X438531D02*
D03*
X430969Y105000D02*
D03*
X427032D02*
D03*
X426968Y99500D02*
D03*
X423032D02*
D03*
X405532Y94000D02*
D03*
X409469D02*
D03*
X394969Y102500D02*
D03*
X391032D02*
D03*
X374468Y128000D02*
D03*
X370532D02*
D03*
X368879Y143500D02*
D03*
X372815D02*
D03*
X316784Y103000D02*
D03*
X312847D02*
D03*
X308347Y125500D02*
D03*
X312284D02*
D03*
X318347Y115000D02*
D03*
X322284D02*
D03*
X308347Y122000D02*
D03*
X312284D02*
D03*
X308347Y118500D02*
D03*
X312284D02*
D03*
X319784Y118500D02*
D03*
X315847D02*
D03*
X315347Y145000D02*
D03*
X319284D02*
D03*
X332784Y174000D02*
D03*
X328847D02*
D03*
X331347Y136500D02*
D03*
X335284D02*
D03*
X341784Y171000D02*
D03*
X337847D02*
D03*
X229784Y146500D02*
D03*
X225847D02*
D03*
X247347Y157500D02*
D03*
X251284D02*
D03*
X262784Y240500D02*
D03*
X258847D02*
D03*
X368284Y193500D02*
D03*
X364347D02*
D03*
X338847Y138500D02*
D03*
X342784D02*
D03*
X350347Y174500D02*
D03*
X354284D02*
D03*
X354784Y135000D02*
D03*
X350847D02*
D03*
X341847Y174500D02*
D03*
X345784D02*
D03*
X350284Y138500D02*
D03*
X346347D02*
D03*
X346284Y135000D02*
D03*
X342347D02*
D03*
X366284Y128000D02*
D03*
X362347D02*
D03*
X423284Y284000D02*
D03*
X419347D02*
D03*
X438284Y240000D02*
D03*
X434347D02*
D03*
X319784Y122000D02*
D03*
X315847D02*
D03*
X295347Y148500D02*
D03*
X299284D02*
D03*
X312284Y115000D02*
D03*
X308347D02*
D03*
X312284Y111500D02*
D03*
X308347D02*
D03*
X333784Y140000D02*
D03*
X329847D02*
D03*
X368316Y190000D02*
D03*
X364378D02*
D03*
X354347Y139000D02*
D03*
X358284D02*
D03*
X342847Y109500D02*
D03*
X346784D02*
D03*
X310284Y106500D02*
D03*
X306347D02*
D03*
X401784Y250500D02*
D03*
X397847D02*
D03*
X429347Y221000D02*
D03*
X433284D02*
D03*
X433847Y228500D02*
D03*
X437784D02*
D03*
X432847Y224500D02*
D03*
X436784D02*
D03*
X412347Y214000D02*
D03*
X416284D02*
D03*
D40*
X224500Y227744D02*
D03*
Y233256D02*
D03*
X432500Y119744D02*
D03*
Y125256D02*
D03*
X323815Y144000D02*
D03*
Y149512D02*
D03*
X329816Y149512D02*
D03*
Y144000D02*
D03*
X339316Y143744D02*
D03*
Y149256D02*
D03*
X363815Y143244D02*
D03*
Y148756D02*
D03*
X357816Y148756D02*
D03*
Y143244D02*
D03*
X348316Y142744D02*
D03*
Y148256D02*
D03*
X216316Y258756D02*
D03*
Y253244D02*
D03*
X226315Y258756D02*
D03*
Y253244D02*
D03*
X221316Y258756D02*
D03*
Y253244D02*
D03*
X231315Y258756D02*
D03*
Y253244D02*
D03*
X256315Y150744D02*
D03*
Y156256D02*
D03*
X229315Y227744D02*
D03*
Y233256D02*
D03*
X212815Y197756D02*
D03*
Y192244D02*
D03*
X288815Y91744D02*
D03*
Y97256D02*
D03*
X272815Y126256D02*
D03*
Y120744D02*
D03*
X329816Y167012D02*
D03*
Y161500D02*
D03*
X334816Y167012D02*
D03*
Y161500D02*
D03*
X357816Y166756D02*
D03*
Y161244D02*
D03*
X352816Y166756D02*
D03*
Y161244D02*
D03*
X283816Y301256D02*
D03*
Y295744D02*
D03*
X278315Y298244D02*
D03*
Y303756D02*
D03*
X393815Y287756D02*
D03*
Y282244D02*
D03*
X418816Y294756D02*
D03*
Y289244D02*
D03*
D41*
X169150Y185831D02*
D03*
Y177169D02*
D03*
X162850Y185831D02*
D03*
Y177169D02*
D03*
D42*
X136551Y189984D02*
D03*
D43*
X127102Y183095D02*
D03*
Y185063D02*
D03*
Y187031D02*
D03*
Y189000D02*
D03*
Y190969D02*
D03*
Y192937D02*
D03*
Y194905D02*
D03*
Y196874D02*
D03*
X146000D02*
D03*
Y194905D02*
D03*
Y192937D02*
D03*
Y190969D02*
D03*
Y189000D02*
D03*
Y187031D02*
D03*
Y185063D02*
D03*
Y183095D02*
D03*
D44*
X129661Y199433D02*
D03*
X131630D02*
D03*
X133598D02*
D03*
X135567D02*
D03*
X137535D02*
D03*
X139504D02*
D03*
X141472D02*
D03*
X143441D02*
D03*
Y180535D02*
D03*
X141472D02*
D03*
X139504D02*
D03*
X137535D02*
D03*
X135567D02*
D03*
X133598D02*
D03*
X131630D02*
D03*
X129661D02*
D03*
D45*
X105063Y175500D02*
D03*
X112937D02*
D03*
X211252Y184500D02*
D03*
X203379D02*
D03*
X211252Y177000D02*
D03*
X203379D02*
D03*
X288878Y84000D02*
D03*
X296753D02*
D03*
X444871Y250000D02*
D03*
X436997D02*
D03*
D46*
X93000Y166563D02*
D03*
Y174437D02*
D03*
X426500Y82563D02*
D03*
Y90437D02*
D03*
X200500Y146437D02*
D03*
Y138563D02*
D03*
X211500Y146437D02*
D03*
Y138563D02*
D03*
X306816Y226063D02*
D03*
Y233937D02*
D03*
X282315Y225563D02*
D03*
Y233437D02*
D03*
D47*
X439819Y121447D02*
D03*
Y118553D02*
D03*
D48*
X441787Y118553D02*
D03*
Y121447D02*
D03*
D49*
X435947Y93213D02*
D03*
X433053D02*
D03*
D50*
X433053Y95181D02*
D03*
X435947D02*
D03*
D51*
X411000Y104500D02*
D03*
D52*
X416413Y106468D02*
D03*
Y104500D02*
D03*
Y102532D02*
D03*
X405587D02*
D03*
Y104500D02*
D03*
Y106468D02*
D03*
X351315Y126500D02*
D03*
Y124531D02*
D03*
Y122563D02*
D03*
Y120595D02*
D03*
Y118626D02*
D03*
Y116657D02*
D03*
X335961D02*
D03*
Y118626D02*
D03*
Y120595D02*
D03*
Y122563D02*
D03*
Y124531D02*
D03*
Y126500D02*
D03*
D53*
X412968Y99087D02*
D03*
X411000D02*
D03*
X409031D02*
D03*
Y109913D02*
D03*
X411000D02*
D03*
X412968D02*
D03*
X338717Y129256D02*
D03*
X340686D02*
D03*
X342654D02*
D03*
X344623D02*
D03*
X346591D02*
D03*
X348560D02*
D03*
Y113902D02*
D03*
X346591D02*
D03*
X344623D02*
D03*
X342654D02*
D03*
X340686D02*
D03*
X338717D02*
D03*
D54*
X200500Y222500D02*
D03*
D55*
X196071Y224468D02*
D03*
Y222500D02*
D03*
Y220532D02*
D03*
X204929D02*
D03*
Y222500D02*
D03*
Y224468D02*
D03*
D56*
X153815Y165752D02*
D03*
X148816D02*
D03*
X143816D02*
D03*
X138815D02*
D03*
X133816D02*
D03*
X128815D02*
D03*
X123816D02*
D03*
X118816D02*
D03*
X153815Y132248D02*
D03*
X148816D02*
D03*
X143816D02*
D03*
X138815D02*
D03*
X133816D02*
D03*
X128815D02*
D03*
X123816D02*
D03*
X118816D02*
D03*
D57*
X199516Y108165D02*
D03*
X212115D02*
D03*
Y128835D02*
D03*
X199516D02*
D03*
D58*
X271044Y293500D02*
D03*
Y298500D02*
D03*
Y303500D02*
D03*
Y308500D02*
D03*
X249587D02*
D03*
Y303500D02*
D03*
Y298500D02*
D03*
Y293500D02*
D03*
D59*
X233859Y298244D02*
D03*
Y303756D02*
D03*
X226772Y301000D02*
D03*
D60*
X293363Y105390D02*
D03*
D61*
X292378Y120547D02*
D03*
D62*
X281945Y120941D02*
D03*
Y118972D02*
D03*
Y117004D02*
D03*
Y115035D02*
D03*
Y113067D02*
D03*
Y111098D02*
D03*
Y109130D02*
D03*
Y107161D02*
D03*
Y105193D02*
D03*
X302812D02*
D03*
Y107161D02*
D03*
Y109130D02*
D03*
Y111098D02*
D03*
Y113067D02*
D03*
Y115035D02*
D03*
Y117004D02*
D03*
Y118972D02*
D03*
Y120941D02*
D03*
D63*
X284505Y102634D02*
D03*
X286473D02*
D03*
X292378D02*
D03*
X294347D02*
D03*
X296316D02*
D03*
X298284D02*
D03*
X300253D02*
D03*
Y123500D02*
D03*
X298284D02*
D03*
X296316D02*
D03*
X294347D02*
D03*
X292378D02*
D03*
X290410D02*
D03*
X288441D02*
D03*
X286473D02*
D03*
X284505D02*
D03*
D64*
X288441Y103815D02*
D03*
X290410D02*
D03*
D65*
X292378Y112673D02*
D03*
D66*
X220194Y220685D02*
D03*
X224131D02*
D03*
X228067D02*
D03*
X232004D02*
D03*
X235942D02*
D03*
X239879D02*
D03*
X243815D02*
D03*
X247752D02*
D03*
X251690D02*
D03*
X255627D02*
D03*
X259564D02*
D03*
X263501D02*
D03*
X267438D02*
D03*
X271375D02*
D03*
X220194Y216748D02*
D03*
X224131D02*
D03*
X228067D02*
D03*
X232004D02*
D03*
X235942D02*
D03*
X239879D02*
D03*
X243815D02*
D03*
X247752D02*
D03*
X251690D02*
D03*
X255627D02*
D03*
X259564D02*
D03*
X263501D02*
D03*
X267438D02*
D03*
X271375D02*
D03*
X220194Y212811D02*
D03*
X224131D02*
D03*
X228067D02*
D03*
X232004D02*
D03*
X235942D02*
D03*
X239879D02*
D03*
X243815D02*
D03*
X247752D02*
D03*
X251690D02*
D03*
X255627D02*
D03*
X259564D02*
D03*
X263501D02*
D03*
X267438D02*
D03*
X271375D02*
D03*
X220194Y208874D02*
D03*
X224131D02*
D03*
X228067D02*
D03*
X232004D02*
D03*
X235942D02*
D03*
X239879D02*
D03*
X243815D02*
D03*
X247752D02*
D03*
X251690D02*
D03*
X255627D02*
D03*
X259564D02*
D03*
X263501D02*
D03*
X267438D02*
D03*
X271375D02*
D03*
X220194Y204937D02*
D03*
X224131D02*
D03*
X228067D02*
D03*
X232004D02*
D03*
X235942D02*
D03*
X239879D02*
D03*
X243815D02*
D03*
X247752D02*
D03*
X251690D02*
D03*
X255627D02*
D03*
X259564D02*
D03*
X263501D02*
D03*
X267438D02*
D03*
X271375D02*
D03*
X220194Y201000D02*
D03*
X224131D02*
D03*
X228067D02*
D03*
X232004D02*
D03*
X235942D02*
D03*
X239879D02*
D03*
X243815D02*
D03*
X247752D02*
D03*
X251690D02*
D03*
X255627D02*
D03*
X259564D02*
D03*
X263501D02*
D03*
X267438D02*
D03*
X271375D02*
D03*
X220194Y197063D02*
D03*
X224131D02*
D03*
X228067D02*
D03*
X232004D02*
D03*
X235942D02*
D03*
X239879D02*
D03*
X243815D02*
D03*
X247752D02*
D03*
X251690D02*
D03*
X255627D02*
D03*
X259564D02*
D03*
X263501D02*
D03*
X267438D02*
D03*
X271375D02*
D03*
X220194Y193126D02*
D03*
X224131D02*
D03*
X228067D02*
D03*
X232004D02*
D03*
X235942D02*
D03*
X239879D02*
D03*
X243815D02*
D03*
X247752D02*
D03*
X251690D02*
D03*
X255627D02*
D03*
X259564D02*
D03*
X263501D02*
D03*
X267438D02*
D03*
X271375D02*
D03*
X220194Y189189D02*
D03*
X224131D02*
D03*
X228067D02*
D03*
X232004D02*
D03*
X235942D02*
D03*
X239879D02*
D03*
X243815D02*
D03*
X247752D02*
D03*
X251690D02*
D03*
X255627D02*
D03*
X259564D02*
D03*
X263501D02*
D03*
X267438D02*
D03*
X271375D02*
D03*
X220194Y185252D02*
D03*
X224131D02*
D03*
X228067D02*
D03*
X232004D02*
D03*
X235942D02*
D03*
X239879D02*
D03*
X243815D02*
D03*
X247752D02*
D03*
X251690D02*
D03*
X255627D02*
D03*
X259564D02*
D03*
X263501D02*
D03*
X267438D02*
D03*
X271375D02*
D03*
X220194Y181315D02*
D03*
X224131D02*
D03*
X228067D02*
D03*
X232004D02*
D03*
X235942D02*
D03*
X239879D02*
D03*
X243815D02*
D03*
X247752D02*
D03*
X251690D02*
D03*
X255627D02*
D03*
X259564D02*
D03*
X263501D02*
D03*
X267438D02*
D03*
X271375D02*
D03*
X220194Y177378D02*
D03*
X224131D02*
D03*
X228067D02*
D03*
X232004D02*
D03*
X235942D02*
D03*
X239879D02*
D03*
X243815D02*
D03*
X247752D02*
D03*
X251690D02*
D03*
X255627D02*
D03*
X259564D02*
D03*
X263501D02*
D03*
X267438D02*
D03*
X271375D02*
D03*
X220194Y173441D02*
D03*
X224131D02*
D03*
X228067D02*
D03*
X232004D02*
D03*
X235942D02*
D03*
X239879D02*
D03*
X243815D02*
D03*
X247752D02*
D03*
X251690D02*
D03*
X255627D02*
D03*
X259564D02*
D03*
X263501D02*
D03*
X267438D02*
D03*
X271375D02*
D03*
X220194Y169504D02*
D03*
X224131D02*
D03*
X228067D02*
D03*
X232004D02*
D03*
X235942D02*
D03*
X239879D02*
D03*
X243815D02*
D03*
X247752D02*
D03*
X251690D02*
D03*
X255627D02*
D03*
X259564D02*
D03*
X263501D02*
D03*
X267438D02*
D03*
X271375D02*
D03*
D67*
X384315Y256488D02*
D03*
X379315D02*
D03*
X374316D02*
D03*
X369316D02*
D03*
X364316D02*
D03*
Y272512D02*
D03*
X369316D02*
D03*
X374316D02*
D03*
X379315D02*
D03*
X384315D02*
D03*
D68*
X431158Y216968D02*
D03*
X436473D02*
D03*
X431158Y213032D02*
D03*
X436473D02*
D03*
D69*
X272165Y143300D02*
D03*
X287466D02*
D03*
Y152700D02*
D03*
X272165D02*
D03*
D70*
X341316Y194000D02*
D03*
D71*
X353127Y202858D02*
D03*
Y200890D02*
D03*
Y198921D02*
D03*
Y196953D02*
D03*
Y194984D02*
D03*
Y193016D02*
D03*
Y191047D02*
D03*
Y189079D02*
D03*
Y187110D02*
D03*
Y185142D02*
D03*
X329504D02*
D03*
Y187110D02*
D03*
Y189079D02*
D03*
Y191047D02*
D03*
Y193016D02*
D03*
Y194984D02*
D03*
Y196953D02*
D03*
Y198921D02*
D03*
Y200890D02*
D03*
Y202858D02*
D03*
D72*
X350174Y182189D02*
D03*
X348205D02*
D03*
X346237D02*
D03*
X344268D02*
D03*
X342300D02*
D03*
X340331D02*
D03*
X338363D02*
D03*
X336394D02*
D03*
X334426D02*
D03*
X332457D02*
D03*
Y205811D02*
D03*
X334426D02*
D03*
X336394D02*
D03*
X338363D02*
D03*
X340331D02*
D03*
X342300D02*
D03*
X344268D02*
D03*
X346237D02*
D03*
X348205D02*
D03*
X350174D02*
D03*
D73*
X331032Y267000D02*
D03*
Y272000D02*
D03*
Y277000D02*
D03*
Y282000D02*
D03*
Y287000D02*
D03*
Y292000D02*
D03*
Y297000D02*
D03*
Y302000D02*
D03*
Y307000D02*
D03*
X295599Y267000D02*
D03*
Y272000D02*
D03*
Y277000D02*
D03*
Y282000D02*
D03*
Y287000D02*
D03*
Y292000D02*
D03*
Y297000D02*
D03*
Y302000D02*
D03*
Y307000D02*
D03*
D74*
X343638Y121579D02*
D03*
D75*
X381347Y294592D02*
D03*
X383315D02*
D03*
X385284D02*
D03*
Y287407D02*
D03*
X383315D02*
D03*
X381347D02*
D03*
D76*
X387892Y293953D02*
D03*
Y291984D02*
D03*
Y290016D02*
D03*
Y288047D02*
D03*
X378739D02*
D03*
Y290016D02*
D03*
Y291984D02*
D03*
Y293953D02*
D03*
D77*
X437949Y288000D02*
D03*
X429682Y284260D02*
D03*
Y291740D02*
D03*
D78*
X101815Y143685D02*
D03*
Y154315D02*
D03*
X169316D02*
D03*
Y143685D02*
D03*
D79*
X307508Y86500D02*
D03*
X319123D02*
D03*
X405307Y146500D02*
D03*
X393693D02*
D03*
D80*
X313316Y92504D02*
D03*
X399500Y140496D02*
D03*
D81*
X446185Y87677D02*
D03*
X466815D02*
D03*
X329501D02*
D03*
X350131D02*
D03*
D82*
X456500D02*
D03*
X339815D02*
D03*
D83*
X121415Y341775D02*
D03*
X168716D02*
D03*
D84*
X256466D02*
D03*
X253315D02*
D03*
X250166D02*
D03*
X247016D02*
D03*
X243865D02*
D03*
X240716D02*
D03*
X237565D02*
D03*
X231265D02*
D03*
X234416D02*
D03*
X228116D02*
D03*
X224966D02*
D03*
X221815D02*
D03*
X218666D02*
D03*
X215515D02*
D03*
X212366D02*
D03*
X209215D02*
D03*
X202916D02*
D03*
X199766D02*
D03*
X206066D02*
D03*
X259615D02*
D03*
D85*
X304816Y185500D02*
D03*
X313316Y189500D02*
D03*
Y184500D02*
D03*
D86*
X201816Y255370D02*
D03*
Y266000D02*
D03*
X207000Y153685D02*
D03*
Y164315D02*
D03*
X213316Y239315D02*
D03*
Y228685D02*
D03*
X294815Y235315D02*
D03*
Y224685D02*
D03*
D87*
X266000Y95500D02*
D03*
X256000D02*
D03*
X246000D02*
D03*
X236000D02*
D03*
X226000D02*
D03*
D88*
X216000D02*
D03*
D89*
X163815Y83500D02*
D03*
X104815D02*
D03*
X156816Y71500D02*
D03*
X111816D02*
D03*
D90*
X146816Y106500D02*
D03*
X151815Y96500D02*
D03*
X141815D02*
D03*
X136816Y106500D02*
D03*
X131816Y96500D02*
D03*
X126815Y106500D02*
D03*
X121816Y96500D02*
D03*
X116815Y106500D02*
D03*
D91*
X496866Y296450D02*
D03*
Y56450D02*
D03*
X56866D02*
D03*
Y296450D02*
D03*
M02*
