G04*
G04 #@! TF.GenerationSoftware,Altium Limited,Altium Designer,21.5.1 (32)*
G04*
G04 Layer_Physical_Order=2*
G04 Layer_Color=32768*
%FSLAX25Y25*%
%MOIN*%
G70*
G04*
G04 #@! TF.SameCoordinates,2FE26025-303F-4DC1-B2D2-7F731E1EADFF*
G04*
G04*
G04 #@! TF.FilePolarity,Negative*
G04*
G01*
G75*
%ADD155C,0.04000*%
%ADD156C,0.05000*%
%ADD157C,0.04243*%
G04:AMPARAMS|DCode=158|XSize=66.055mil|YSize=66.055mil|CornerRadius=0mil|HoleSize=0mil|Usage=FLASHONLY|Rotation=0.000|XOffset=0mil|YOffset=0mil|HoleType=Round|Shape=Relief|Width=3.5mil|Gap=3.5mil|Entries=4|*
%AMTHD158*
7,0,0,0.06606,0.05906,0.00350,45*
%
%ADD158THD158*%
G04:AMPARAMS|DCode=159|XSize=94.622mil|YSize=94.622mil|CornerRadius=0mil|HoleSize=0mil|Usage=FLASHONLY|Rotation=0.000|XOffset=0mil|YOffset=0mil|HoleType=Round|Shape=Relief|Width=3.5mil|Gap=3.5mil|Entries=4|*
%AMTHD159*
7,0,0,0.09462,0.08762,0.00350,45*
%
%ADD159THD159*%
%ADD160C,0.04200*%
%ADD161C,0.13700*%
%ADD162C,0.01500*%
%ADD163C,0.02200*%
%ADD164C,0.01700*%
G36*
X152066Y78000D02*
X156816D01*
Y65000D01*
X152066D01*
Y49300D01*
X164365D01*
Y43100D01*
X104265D01*
Y49300D01*
X116566D01*
Y65000D01*
X111816D01*
Y78000D01*
X116566D01*
Y90400D01*
X152066D01*
Y78000D01*
D02*
G37*
D155*
Y90400D01*
Y78000D02*
X156816D01*
Y65000D02*
Y78000D01*
X152066Y65000D02*
X156816D01*
X152066Y49300D02*
Y65000D01*
Y49300D02*
X164365D01*
Y43100D02*
Y49300D01*
X104265Y43100D02*
X164365D01*
X104265D02*
Y49300D01*
X116566D01*
Y65000D01*
X111816D02*
X116566D01*
X111816D02*
Y78000D01*
X116566D01*
Y90400D01*
X152066D01*
X264000Y314000D02*
Y363500D01*
X196500D02*
X264000D01*
X196500Y314000D02*
Y363500D01*
X189000Y314000D02*
X196500D01*
X189000D02*
Y363500D01*
X102500D02*
X189000D01*
X102500Y314000D02*
Y363500D01*
X39370Y314000D02*
X102500D01*
X39370Y39000D02*
Y314000D01*
Y39000D02*
X514000D01*
Y314000D01*
X264000D02*
X514000D01*
D156*
X185816Y39000D02*
Y148000D01*
X184816Y149000D02*
X185816Y148000D01*
X90816Y39000D02*
Y148000D01*
Y39000D02*
X185816D01*
X90816Y148000D02*
X91816Y149000D01*
X184816D01*
D157*
X266000Y95500D02*
D03*
X246000D02*
D03*
X236000D02*
D03*
X226000D02*
D03*
X216000D02*
D03*
D158*
X256000D02*
D03*
D159*
X163815Y83500D02*
D03*
X104815D02*
D03*
D160*
X146816Y106500D02*
D03*
X151815Y96500D02*
D03*
X141815D02*
D03*
X136816Y106500D02*
D03*
X131816Y96500D02*
D03*
X126815Y106500D02*
D03*
X121816Y96500D02*
D03*
X116815Y106500D02*
D03*
D161*
X156816Y71500D02*
D03*
X111816D02*
D03*
X496866Y296450D02*
D03*
Y56450D02*
D03*
X56866D02*
D03*
Y296450D02*
D03*
D162*
X292815Y190500D02*
D03*
X257500Y191000D02*
D03*
X249656Y187147D02*
D03*
X277000Y195000D02*
D03*
X294000Y89000D02*
D03*
X279000Y257500D02*
D03*
X445500Y122000D02*
D03*
X197000Y170350D02*
D03*
Y161500D02*
D03*
X253554Y163054D02*
D03*
X297000Y143500D02*
D03*
X432000Y248500D02*
D03*
X241000Y116500D02*
D03*
Y125500D02*
D03*
X189500Y220500D02*
D03*
Y228500D02*
D03*
X236000Y263500D02*
D03*
X196000Y226500D02*
D03*
X205000Y227000D02*
D03*
X209500Y220500D02*
D03*
X439500Y95500D02*
D03*
X436000Y91000D02*
D03*
X439500Y124500D02*
D03*
X226098Y163782D02*
D03*
X191000Y157500D02*
D03*
X127000Y180500D02*
D03*
X123000Y198500D02*
D03*
Y196000D02*
D03*
X122851Y193507D02*
D03*
X123500Y191300D02*
D03*
Y189000D02*
D03*
Y185000D02*
D03*
X194500Y168500D02*
D03*
X197500Y164500D02*
D03*
X194000Y159500D02*
D03*
X200500Y172000D02*
D03*
X215000Y165500D02*
D03*
X216685Y146000D02*
D03*
X195185D02*
D03*
X206500Y148000D02*
D03*
X144500Y203000D02*
D03*
X130500Y175000D02*
D03*
X98000Y174500D02*
D03*
X88000D02*
D03*
X110000Y182000D02*
D03*
X87000Y187500D02*
D03*
X159500Y191000D02*
D03*
X149000Y159500D02*
D03*
X124000Y160000D02*
D03*
X374316Y162000D02*
D03*
X306315Y152500D02*
D03*
X276487Y182828D02*
D03*
X276315Y173500D02*
D03*
X253658Y179386D02*
D03*
X249721Y179307D02*
D03*
Y175370D02*
D03*
X241847Y179307D02*
D03*
X237910Y183244D02*
D03*
X237950Y171472D02*
D03*
X230036Y171433D02*
D03*
X237776Y191017D02*
D03*
X237836Y198958D02*
D03*
X237984Y206979D02*
D03*
X249973Y206619D02*
D03*
X245585Y206686D02*
D03*
X249795Y195168D02*
D03*
X361315Y196000D02*
D03*
X332315Y133500D02*
D03*
X338815Y134500D02*
D03*
X346764Y132116D02*
D03*
X352315Y131000D02*
D03*
X103815Y296500D02*
D03*
Y292000D02*
D03*
X289316Y269000D02*
D03*
X426266Y220757D02*
D03*
X428315Y225000D02*
D03*
X408815Y219500D02*
D03*
X398815Y232150D02*
D03*
X401816Y225000D02*
D03*
X404815Y222500D02*
D03*
X365815Y242650D02*
D03*
X374816Y244500D02*
D03*
X401816Y246500D02*
D03*
X379315D02*
D03*
X384315Y248500D02*
D03*
X289316Y307000D02*
D03*
X336816Y283000D02*
D03*
Y287500D02*
D03*
X429815Y302000D02*
D03*
X377816Y301150D02*
D03*
X382816Y301000D02*
D03*
X398815Y287500D02*
D03*
X389316Y271000D02*
D03*
X439816Y212000D02*
D03*
X276315Y293500D02*
D03*
X265316Y305500D02*
D03*
X406815Y125500D02*
D03*
X331816Y120000D02*
D03*
X355816Y126500D02*
D03*
X282500Y75000D02*
D03*
X261816Y111500D02*
D03*
X230816Y140000D02*
D03*
X266316Y113500D02*
D03*
X281816Y124500D02*
D03*
X325816Y115000D02*
D03*
X315815Y125500D02*
D03*
X236315Y151500D02*
D03*
X260816Y147000D02*
D03*
X194316Y266185D02*
D03*
X209315Y265685D02*
D03*
X327315Y135000D02*
D03*
X342987Y141850D02*
D03*
X360315Y134500D02*
D03*
X245815Y244000D02*
D03*
X249571Y162408D02*
D03*
X209315Y197500D02*
D03*
X228816Y224500D02*
D03*
X220815Y228500D02*
D03*
X258816Y243500D02*
D03*
X247316Y165000D02*
D03*
X242316Y223000D02*
D03*
X315316Y148000D02*
D03*
X362316Y180500D02*
D03*
X267815Y161500D02*
D03*
X357816Y197134D02*
D03*
X342316Y178000D02*
D03*
X263815Y161000D02*
D03*
X256315D02*
D03*
X259816D02*
D03*
X366316Y196500D02*
D03*
X359315Y202000D02*
D03*
X362815Y207000D02*
D03*
X338815Y209000D02*
D03*
X325315Y191000D02*
D03*
X276315Y178500D02*
D03*
X216235Y196919D02*
D03*
X226315Y155000D02*
D03*
X216316Y184500D02*
D03*
X245316Y224500D02*
D03*
X301816Y225000D02*
D03*
X287316D02*
D03*
X277315Y225500D02*
D03*
D163*
X132316Y311000D02*
D03*
X126815Y307500D02*
D03*
X110316Y311000D02*
D03*
X121316Y306000D02*
D03*
X114815Y307500D02*
D03*
X200816Y298500D02*
D03*
X205816Y293000D02*
D03*
X208315Y298000D02*
D03*
X204315Y304000D02*
D03*
X197316Y305500D02*
D03*
D164*
X123816Y115500D02*
D03*
X148816Y119266D02*
D03*
M02*
