M48
;Layer_Color=9474304
;FILE_FORMAT=2:4
INCH,LZ
;TYPE=PLATED
T1F00S00C0.0079
T2F00S00C0.0080
T3F00S00C0.0150
T4F00S00C0.0276
T5F00S00C0.0354
T6F00S00C0.0421
T7F00S00C0.0433
T8F00S00C0.0500
;TYPE=NON_PLATED
T9F00S00C0.0810
T10F00S00C0.1120
%
T01
X029507Y01374
X02994
X030373
Y014173
X02994
X029507
Y014606
X02994
X030373
Y015039
X02994
X029507
Y015472
X02994
X030373
X03365Y015227
X034083
X034517
X03495
Y014794
Y014361
Y013928
X034517
Y014361
Y014794
X034083
Y014361
Y013928
X03365
Y014361
Y014794
T02
X027599Y002856
X029461Y003125
X029599Y003656
X029379Y004024
X028816Y005044
X030025Y010399
X030197Y010857
X030819Y0112
X026633Y012723
X027999Y014228
X028049Y014981
X027099Y015563
X032056Y015556
X032597Y015547
X032331Y014903
X032755Y013592
X031705Y013298
X031297Y010104
X03172Y009277
X035848Y009914
X036914Y009787
X038743Y009393
X038775Y010495
X039107Y007866
X03975Y00675
X036399Y00746
X035799Y00651
X035243Y006534
X036242Y002997
X036329Y002104
X038331Y0022
X036944Y012371
X035838Y013495
X0363Y0152
X036122Y015535
X035781Y015909
X035972Y016335
X036279Y016584
X036613Y017205
X035189Y017577
X036036Y019154
X0379Y019431
X037949Y01826
X037379Y0161
X034024Y016241
X033048Y016159
X033068Y015878
X031521Y016091
X028115Y016293
X028796Y017978
Y018918
X028962Y019448
T03
X024Y0015
X0255
X027
X0285
Y0045
X027
X0255
X024
X02475Y006
X02625
X027Y0075
X0255
X024
Y0105
X0255
X027
X0285
X02925Y012
X03075
X02775
X02625
X02475
X0255Y0135
X027
X024
X02775Y009
X02925
X03075Y006
Y003
X02625
X0315Y0015
X03375Y003
X0345Y0045
X036
X039
X0405
X042
X04125Y003
X042Y0015
X0435
X04425Y003
Y006
X0435Y0075
X04125Y009
X03975
X03825
X03675
X0375Y0075
X039
X036
X03375Y006
X03225
Y009
X033Y0105
X03375Y012
X03825
X03975
X04125
X04275
X04425
X0435Y0135
X042
X0405
X039
X042Y0105
X0405Y0015
X04125Y018
X03975
X03825
X0375Y0165
X03525Y018
X03375
X0435Y0165
X03
X0255
X02625Y018
X02475
T04
X025Y009
X026
T05
X031256Y019019
X032256
X033256
T06
X041436Y004481
X042618Y004851
Y006033
X043799Y004481
T07
X04395Y00925
Y01025
Y01285
Y01385
Y01485
Y01585
Y01685
Y01785
T08
X0248Y013454
Y014454
Y015454
Y016454
T09
X02356Y016874
T10
X025Y0025
X0425
Y02
X025
M30
