G04*
G04 #@! TF.GenerationSoftware,Altium Limited,Altium Designer,21.5.1 (32)*
G04*
G04 Layer_Color=32896*
%FSLAX25Y25*%
%MOIN*%
G70*
G04*
G04 #@! TF.SameCoordinates,C11210EE-706E-4053-A979-2A702EC27353*
G04*
G04*
G04 #@! TF.FilePolarity,Positive*
G04*
G01*
G75*
%ADD10C,0.00787*%
%ADD11C,0.00984*%
%ADD12C,0.00600*%
%ADD16C,0.01000*%
%ADD17C,0.00500*%
%ADD116C,0.02362*%
D10*
X364461Y118008D02*
Y119190D01*
X364645Y111394D02*
Y112575D01*
X384831Y101909D02*
Y103091D01*
X350284Y214827D02*
Y221520D01*
X341228Y221520D02*
X342803Y223488D01*
X348709D02*
X350284Y221520D01*
X341228Y214827D02*
Y221520D01*
X342803Y223488D02*
X348709D01*
X341228Y199472D02*
X350284D01*
Y206953D01*
X341228Y199472D02*
Y206953D01*
X407717Y110689D02*
X422284D01*
X407717Y84311D02*
Y110689D01*
Y84311D02*
X422284D01*
Y110689D01*
X345165Y198898D02*
X346346D01*
X292119Y126771D02*
X306685D01*
X292119Y165353D02*
X306685D01*
X319717Y94840D02*
Y107241D01*
X305346Y94840D02*
X319717D01*
X305346D02*
Y107241D01*
X319717D01*
X338517Y91223D02*
X340682D01*
X345584Y85712D02*
Y88566D01*
X333615Y85712D02*
X336942D01*
X342257D02*
X345584D01*
X333615D02*
Y88566D01*
X353630Y133374D02*
X355402D01*
Y135145D01*
Y156405D02*
Y158177D01*
X353630D02*
X355402D01*
X330598D02*
X332370D01*
X330598Y156405D02*
Y158177D01*
Y133374D02*
X332370D01*
X330598D02*
Y135145D01*
X376051Y186236D02*
Y190764D01*
D11*
X433996Y106752D02*
G03*
X433996Y106752I-492J0D01*
G01*
X288575Y126574D02*
G03*
X288575Y126574I-492J0D01*
G01*
X322374Y103993D02*
G03*
X322374Y103993I-492J0D01*
G01*
X355303Y130815D02*
G03*
X355303Y130815I-492J0D01*
G01*
D12*
X355961Y110185D02*
Y113784D01*
X354162D01*
X353562Y113184D01*
Y111984D01*
X354162Y111384D01*
X355961D01*
X354762D02*
X353562Y110185D01*
X352362Y113184D02*
X351762Y113784D01*
X350563D01*
X349963Y113184D01*
Y112584D01*
X350563Y111984D01*
X351163D01*
X350563D01*
X349963Y111384D01*
Y110785D01*
X350563Y110185D01*
X351762D01*
X352362Y110785D01*
X348763Y113184D02*
X348164Y113784D01*
X346964D01*
X346364Y113184D01*
Y112584D01*
X346964Y111984D01*
X347564D01*
X346964D01*
X346364Y111384D01*
Y110785D01*
X346964Y110185D01*
X348164D01*
X348763Y110785D01*
X384511Y105201D02*
Y108799D01*
X382712D01*
X382112Y108200D01*
Y107000D01*
X382712Y106400D01*
X384511D01*
X383311D02*
X382112Y105201D01*
X378513D02*
X380912D01*
X378513Y107600D01*
Y108200D01*
X379113Y108799D01*
X380312D01*
X380912Y108200D01*
X377313Y108799D02*
X374914D01*
Y108200D01*
X377313Y105800D01*
Y105201D01*
X354743Y116681D02*
Y120280D01*
X352943D01*
X352344Y119680D01*
Y118480D01*
X352943Y117880D01*
X354743D01*
X353543D02*
X352344Y116681D01*
X351144D02*
X349944D01*
X350544D01*
Y120280D01*
X351144Y119680D01*
X385468Y110208D02*
Y113807D01*
X383668D01*
X383068Y113207D01*
Y110808D01*
X383668Y110208D01*
X385468D01*
X381869Y110808D02*
X381269Y110208D01*
X380069D01*
X379469Y110808D01*
Y111408D01*
X380069Y112008D01*
X379469Y112608D01*
Y113207D01*
X380069Y113807D01*
X381269D01*
X381869Y113207D01*
Y112608D01*
X381269Y112008D01*
X381869Y111408D01*
Y110808D01*
X381269Y112008D02*
X380069D01*
X384923Y120398D02*
Y116800D01*
X383124D01*
X382524Y117399D01*
Y119799D01*
X383124Y120398D01*
X384923D01*
X381325D02*
X378925D01*
Y119799D01*
X381325Y117399D01*
Y116800D01*
X412156Y79499D02*
X412756Y80099D01*
X413955D01*
X414555Y79499D01*
Y77100D01*
X413955Y76500D01*
X412756D01*
X412156Y77100D01*
X410956Y79499D02*
X410357Y80099D01*
X409157D01*
X408557Y79499D01*
Y78899D01*
X409157Y78300D01*
X409757D01*
X409157D01*
X408557Y77700D01*
Y77100D01*
X409157Y76500D01*
X410357D01*
X410956Y77100D01*
X404958Y76500D02*
X407358D01*
X404958Y78899D01*
Y79499D01*
X405558Y80099D01*
X406758D01*
X407358Y79499D01*
X343109Y175572D02*
Y178771D01*
X341510D01*
X340976Y178237D01*
Y177171D01*
X341510Y176638D01*
X343109D01*
X342043D02*
X340976Y175572D01*
X339910Y178237D02*
X339377Y178771D01*
X338311D01*
X337777Y178237D01*
Y177704D01*
X338311Y177171D01*
X338844D01*
X338311D01*
X337777Y176638D01*
Y176105D01*
X338311Y175572D01*
X339377D01*
X339910Y176105D01*
X334578Y175572D02*
X336711D01*
X334578Y177704D01*
Y178237D01*
X335112Y178771D01*
X336178D01*
X336711Y178237D01*
X357500Y185613D02*
Y188812D01*
X355900D01*
X355367Y188279D01*
Y187213D01*
X355900Y186679D01*
X357500D01*
X356434D02*
X355367Y185613D01*
X354301Y188279D02*
X353768Y188812D01*
X352701D01*
X352168Y188279D01*
Y187746D01*
X352701Y187213D01*
X353235D01*
X352701D01*
X352168Y186679D01*
Y186146D01*
X352701Y185613D01*
X353768D01*
X354301Y186146D01*
X351102Y185613D02*
X350036D01*
X350569D01*
Y188812D01*
X351102Y188279D01*
X295825Y105249D02*
X296358Y105782D01*
X297425D01*
X297958Y105249D01*
Y103116D01*
X297425Y102583D01*
X296358D01*
X295825Y103116D01*
X294759Y102583D02*
X293692D01*
X294226D01*
Y105782D01*
X294759Y105249D01*
X292093D02*
X291560Y105782D01*
X290493D01*
X289960Y105249D01*
Y103116D01*
X290493Y102583D01*
X291560D01*
X292093Y103116D01*
Y105249D01*
X322950Y170566D02*
X323483Y171099D01*
X324549D01*
X325082Y170566D01*
Y168434D01*
X324549Y167901D01*
X323483D01*
X322950Y168434D01*
X320284Y167901D02*
Y171099D01*
X321884Y169500D01*
X319751D01*
X316552Y171099D02*
X318685D01*
Y169500D01*
X317618Y170033D01*
X317085D01*
X316552Y169500D01*
Y168434D01*
X317085Y167901D01*
X318151D01*
X318685Y168434D01*
X294058Y98520D02*
X293525Y99053D01*
Y100119D01*
X294058Y100653D01*
X296191D01*
X296724Y100119D01*
Y99053D01*
X296191Y98520D01*
X296724Y97453D02*
Y96387D01*
Y96920D01*
X293525D01*
X294058Y97453D01*
X296191Y94788D02*
X296724Y94254D01*
Y93188D01*
X296191Y92655D01*
X294058D01*
X293525Y93188D01*
Y94254D01*
X294058Y94788D01*
X294591D01*
X295124Y94254D01*
Y92655D01*
X380376Y91592D02*
Y94791D01*
X378777D01*
X378243Y94258D01*
Y93192D01*
X378777Y92659D01*
X380376D01*
X379310D02*
X378243Y91592D01*
X375044D02*
X377177D01*
X375044Y93725D01*
Y94258D01*
X375577Y94791D01*
X376644D01*
X377177Y94258D01*
X373978D02*
X373445Y94791D01*
X372379D01*
X371845Y94258D01*
Y93725D01*
X372379Y93192D01*
X371845Y92659D01*
Y92126D01*
X372379Y91592D01*
X373445D01*
X373978Y92126D01*
Y92659D01*
X373445Y93192D01*
X373978Y93725D01*
Y94258D01*
X373445Y93192D02*
X372379D01*
X307651Y121900D02*
Y124566D01*
X308184Y125100D01*
X309251D01*
X309784Y124566D01*
Y121900D01*
X310850Y124566D02*
X311383Y125100D01*
X312450D01*
X312983Y124566D01*
Y122434D01*
X312450Y121900D01*
X311383D01*
X310850Y122434D01*
Y122967D01*
X311383Y123500D01*
X312983D01*
X361857Y147073D02*
X359191D01*
X358658Y147606D01*
Y148673D01*
X359191Y149206D01*
X361857D01*
X358658Y150272D02*
Y151339D01*
Y150805D01*
X361857D01*
X361324Y150272D01*
X268444Y130388D02*
Y133587D01*
X266845D01*
X266312Y133053D01*
Y131987D01*
X266845Y131454D01*
X268444D01*
X267378D02*
X266312Y130388D01*
X263113D02*
X265246D01*
X263113Y132520D01*
Y133053D01*
X263646Y133587D01*
X264712D01*
X265246Y133053D01*
X259914Y133587D02*
X260980Y133053D01*
X262047Y131987D01*
Y130921D01*
X261513Y130388D01*
X260447D01*
X259914Y130921D01*
Y131454D01*
X260447Y131987D01*
X262047D01*
X294251Y173400D02*
Y176600D01*
X292652D01*
X292119Y176066D01*
Y175000D01*
X292652Y174467D01*
X294251D01*
X293185D02*
X292119Y173400D01*
X288920D02*
X291052D01*
X288920Y175533D01*
Y176066D01*
X289453Y176600D01*
X290519D01*
X291052Y176066D01*
X285721Y176600D02*
X287853D01*
Y175000D01*
X286787Y175533D01*
X286254D01*
X285721Y175000D01*
Y173934D01*
X286254Y173400D01*
X287320D01*
X287853Y173934D01*
X306730Y173400D02*
Y176600D01*
X305131D01*
X304597Y176066D01*
Y175000D01*
X305131Y174467D01*
X306730D01*
X305664D02*
X304597Y173400D01*
X301398D02*
X303531D01*
X301398Y175533D01*
Y176066D01*
X301932Y176600D01*
X302998D01*
X303531Y176066D01*
X298733Y173400D02*
Y176600D01*
X300332Y175000D01*
X298200D01*
X355161Y103996D02*
Y107195D01*
X353562D01*
X353029Y106662D01*
Y105595D01*
X353562Y105062D01*
X355161D01*
X354095D02*
X353029Y103996D01*
X351962D02*
X350896D01*
X351429D01*
Y107195D01*
X351962Y106662D01*
X349296D02*
X348763Y107195D01*
X347697D01*
X347164Y106662D01*
Y104529D01*
X347697Y103996D01*
X348763D01*
X349296Y104529D01*
Y106662D01*
X410834Y180207D02*
Y177008D01*
X412434D01*
X412967Y177542D01*
Y178608D01*
X412434Y179141D01*
X410834D01*
X411901D02*
X412967Y180207D01*
X414033Y179674D02*
X414566Y180207D01*
X415633D01*
X416166Y179674D01*
Y177542D01*
X415633Y177008D01*
X414566D01*
X414033Y177542D01*
Y178075D01*
X414566Y178608D01*
X416166D01*
X410834Y160170D02*
Y156972D01*
X412434D01*
X412967Y157505D01*
Y158571D01*
X412434Y159104D01*
X410834D01*
X411901D02*
X412967Y160170D01*
X414033Y157505D02*
X414566Y156972D01*
X415633D01*
X416166Y157505D01*
Y158038D01*
X415633Y158571D01*
X416166Y159104D01*
Y159637D01*
X415633Y160170D01*
X414566D01*
X414033Y159637D01*
Y159104D01*
X414566Y158571D01*
X414033Y158038D01*
Y157505D01*
X414566Y158571D02*
X415633D01*
X426366Y180129D02*
Y176930D01*
X427965D01*
X428498Y177463D01*
Y178530D01*
X427965Y179063D01*
X426366D01*
X427432D02*
X428498Y180129D01*
X429565Y176930D02*
X431697D01*
Y177463D01*
X429565Y179596D01*
Y180129D01*
X426366Y159383D02*
Y156184D01*
X427965D01*
X428498Y156717D01*
Y157784D01*
X427965Y158317D01*
X426366D01*
X427432D02*
X428498Y159383D01*
X431697Y156184D02*
X430631Y156717D01*
X429565Y157784D01*
Y158850D01*
X430098Y159383D01*
X431164D01*
X431697Y158850D01*
Y158317D01*
X431164Y157784D01*
X429565D01*
X410834Y169824D02*
Y166625D01*
X412434D01*
X412967Y167158D01*
Y168224D01*
X412434Y168757D01*
X410834D01*
X411901D02*
X412967Y169824D01*
X416166Y166625D02*
X414033D01*
Y168224D01*
X415100Y167691D01*
X415633D01*
X416166Y168224D01*
Y169290D01*
X415633Y169824D01*
X414566D01*
X414033Y169290D01*
X426366Y149777D02*
Y146578D01*
X427965D01*
X428498Y147111D01*
Y148177D01*
X427965Y148711D01*
X426366D01*
X427432D02*
X428498Y149777D01*
X431164D02*
Y146578D01*
X429565Y148177D01*
X431697D01*
X426366Y169036D02*
Y165837D01*
X427965D01*
X428498Y166370D01*
Y167437D01*
X427965Y167970D01*
X426366D01*
X427432D02*
X428498Y169036D01*
X429565Y166370D02*
X430098Y165837D01*
X431164D01*
X431697Y166370D01*
Y166904D01*
X431164Y167437D01*
X430631D01*
X431164D01*
X431697Y167970D01*
Y168503D01*
X431164Y169036D01*
X430098D01*
X429565Y168503D01*
X410834Y149777D02*
Y146578D01*
X412434D01*
X412967Y147111D01*
Y148177D01*
X412434Y148711D01*
X410834D01*
X411901D02*
X412967Y149777D01*
X416166D02*
X414033D01*
X416166Y147644D01*
Y147111D01*
X415633Y146578D01*
X414566D01*
X414033Y147111D01*
X343166Y196167D02*
Y192968D01*
X341033D01*
X337834Y196167D02*
X338900Y195634D01*
X339967Y194568D01*
Y193501D01*
X339434Y192968D01*
X338367D01*
X337834Y193501D01*
Y194035D01*
X338367Y194568D01*
X339967D01*
X368698Y146194D02*
Y142995D01*
X366565D01*
X363899D02*
Y146194D01*
X365499Y144594D01*
X363366D01*
X387480Y136720D02*
X384282D01*
Y138853D01*
X386947Y139919D02*
X387480Y140452D01*
Y141518D01*
X386947Y142051D01*
X386414D01*
X385881Y141518D01*
Y140985D01*
Y141518D01*
X385348Y142051D01*
X384815D01*
X384282Y141518D01*
Y140452D01*
X384815Y139919D01*
X356040Y197767D02*
Y194568D01*
X353907D01*
X350708D02*
X352841D01*
X350708Y196700D01*
Y197234D01*
X351241Y197767D01*
X352308D01*
X352841Y197234D01*
X341764Y172781D02*
Y169582D01*
X339631D01*
X338565D02*
X337498D01*
X338032D01*
Y172781D01*
X338565Y172247D01*
X260345Y126582D02*
X260878Y127115D01*
X261945D01*
X262478Y126582D01*
Y124449D01*
X261945Y123916D01*
X260878D01*
X260345Y124449D01*
X259279Y126582D02*
X258746Y127115D01*
X257679D01*
X257146Y126582D01*
Y126048D01*
X257679Y125515D01*
X258213D01*
X257679D01*
X257146Y124982D01*
Y124449D01*
X257679Y123916D01*
X258746D01*
X259279Y124449D01*
X256080D02*
X255547Y123916D01*
X254481D01*
X253947Y124449D01*
Y126582D01*
X254481Y127115D01*
X255547D01*
X256080Y126582D01*
Y126048D01*
X255547Y125515D01*
X253947D01*
X277302Y136931D02*
X277835Y137465D01*
X278901D01*
X279435Y136931D01*
Y134799D01*
X278901Y134266D01*
X277835D01*
X277302Y134799D01*
X276236Y136931D02*
X275702Y137465D01*
X274636D01*
X274103Y136931D01*
Y136398D01*
X274636Y135865D01*
X275169D01*
X274636D01*
X274103Y135332D01*
Y134799D01*
X274636Y134266D01*
X275702D01*
X276236Y134799D01*
X273037Y136931D02*
X272503Y137465D01*
X271437D01*
X270904Y136931D01*
Y136398D01*
X271437Y135865D01*
X270904Y135332D01*
Y134799D01*
X271437Y134266D01*
X272503D01*
X273037Y134799D01*
Y135332D01*
X272503Y135865D01*
X273037Y136398D01*
Y136931D01*
X272503Y135865D02*
X271437D01*
X394796Y72600D02*
X394263Y72067D01*
X393197D01*
X392664Y72600D01*
Y74732D01*
X393197Y75266D01*
X394263D01*
X394796Y74732D01*
X395863Y72600D02*
X396396Y72067D01*
X397462D01*
X397995Y72600D01*
Y73133D01*
X397462Y73666D01*
X396929D01*
X397462D01*
X397995Y74199D01*
Y74732D01*
X397462Y75266D01*
X396396D01*
X395863Y74732D01*
X399062Y72600D02*
X399595Y72067D01*
X400661D01*
X401194Y72600D01*
Y73133D01*
X400661Y73666D01*
X400128D01*
X400661D01*
X401194Y74199D01*
Y74732D01*
X400661Y75266D01*
X399595D01*
X399062Y74732D01*
X314656Y85682D02*
X315190Y86215D01*
X316256D01*
X316789Y85682D01*
Y83550D01*
X316256Y83017D01*
X315190D01*
X314656Y83550D01*
X311457Y83017D02*
X313590D01*
X311457Y85149D01*
Y85682D01*
X311991Y86215D01*
X313057D01*
X313590Y85682D01*
X310391D02*
X309858Y86215D01*
X308792D01*
X308259Y85682D01*
Y83550D01*
X308792Y83017D01*
X309858D01*
X310391Y83550D01*
Y85682D01*
X328245Y100114D02*
X328779Y100647D01*
X329845D01*
X330378Y100114D01*
Y97981D01*
X329845Y97448D01*
X328779D01*
X328245Y97981D01*
X327179Y97448D02*
X326113D01*
X326646D01*
Y100647D01*
X327179Y100114D01*
X324513D02*
X323980Y100647D01*
X322914D01*
X322381Y100114D01*
Y99580D01*
X322914Y99047D01*
X322381Y98514D01*
Y97981D01*
X322914Y97448D01*
X323980D01*
X324513Y97981D01*
Y98514D01*
X323980Y99047D01*
X324513Y99580D01*
Y100114D01*
X323980Y99047D02*
X322914D01*
X338692Y110061D02*
X339226Y109528D01*
Y108462D01*
X338692Y107928D01*
X336560D01*
X336027Y108462D01*
Y109528D01*
X336560Y110061D01*
X336027Y111127D02*
Y112194D01*
Y111661D01*
X339226D01*
X338692Y111127D01*
X339226Y113793D02*
Y115926D01*
X338692D01*
X336560Y113793D01*
X336027D01*
X381815Y128856D02*
X382348Y128323D01*
Y127257D01*
X381815Y126724D01*
X379682D01*
X379149Y127257D01*
Y128323D01*
X379682Y128856D01*
X379149Y129923D02*
Y130989D01*
Y130456D01*
X382348D01*
X381815Y129923D01*
X382348Y134721D02*
X381815Y133655D01*
X380749Y132588D01*
X379682D01*
X379149Y133122D01*
Y134188D01*
X379682Y134721D01*
X380216D01*
X380749Y134188D01*
Y132588D01*
X354649Y180206D02*
X355183Y180739D01*
X356249D01*
X356782Y180206D01*
Y178073D01*
X356249Y177540D01*
X355183D01*
X354649Y178073D01*
X353583Y177540D02*
X352517D01*
X353050D01*
Y180739D01*
X353583Y180206D01*
X349318Y177540D02*
Y180739D01*
X350917Y179140D01*
X348785D01*
X364984Y173035D02*
X365517Y173568D01*
X366583D01*
X367116Y173035D01*
Y170902D01*
X366583Y170369D01*
X365517D01*
X364984Y170902D01*
X363917Y170369D02*
X362851D01*
X363384D01*
Y173568D01*
X363917Y173035D01*
X361252D02*
X360718Y173568D01*
X359652D01*
X359119Y173035D01*
Y172502D01*
X359652Y171968D01*
X360185D01*
X359652D01*
X359119Y171435D01*
Y170902D01*
X359652Y170369D01*
X360718D01*
X361252Y170902D01*
X376911Y154626D02*
X377444Y155159D01*
X378511D01*
X379044Y154626D01*
Y152493D01*
X378511Y151960D01*
X377444D01*
X376911Y152493D01*
X375845Y154626D02*
X375312Y155159D01*
X374245D01*
X373712Y154626D01*
Y154093D01*
X374245Y153559D01*
X373712Y153026D01*
Y152493D01*
X374245Y151960D01*
X375312D01*
X375845Y152493D01*
Y153026D01*
X375312Y153559D01*
X375845Y154093D01*
Y154626D01*
X375312Y153559D02*
X374245D01*
X348540Y126544D02*
X349073Y127077D01*
X350140D01*
X350673Y126544D01*
Y124411D01*
X350140Y123878D01*
X349073D01*
X348540Y124411D01*
X345874Y123878D02*
Y127077D01*
X347474Y125478D01*
X345341D01*
X336725Y166551D02*
X337258Y167084D01*
X338324D01*
X338858Y166551D01*
Y164418D01*
X338324Y163885D01*
X337258D01*
X336725Y164418D01*
X335659Y166551D02*
X335125Y167084D01*
X334059D01*
X333526Y166551D01*
Y166018D01*
X334059Y165485D01*
X334592D01*
X334059D01*
X333526Y164951D01*
Y164418D01*
X334059Y163885D01*
X335125D01*
X335659Y164418D01*
X340965Y187991D02*
X341498Y188525D01*
X342564D01*
X343097Y187991D01*
Y185859D01*
X342564Y185326D01*
X341498D01*
X340965Y185859D01*
X339898Y185326D02*
X338832D01*
X339365D01*
Y188525D01*
X339898Y187991D01*
D16*
X410000Y23695D02*
Y27694D01*
X408001Y29693D01*
X406001Y27694D01*
Y23695D01*
Y26694D01*
X410000D01*
X404002Y23695D02*
X402003D01*
X403002D01*
Y27694D01*
X404002D01*
X399004D02*
Y23695D01*
Y25695D01*
X398004Y26694D01*
X397004Y27694D01*
X396005D01*
X393005Y29693D02*
Y23695D01*
X390006D01*
X389007Y24695D01*
Y25695D01*
Y26694D01*
X390006Y27694D01*
X393005D01*
X387007D02*
Y23695D01*
Y25695D01*
X386008Y26694D01*
X385008Y27694D01*
X384008D01*
X380010D02*
X378010D01*
X377011Y26694D01*
Y23695D01*
X380010D01*
X381009Y24695D01*
X380010Y25695D01*
X377011D01*
X375011Y23695D02*
Y29693D01*
Y25695D02*
X372012Y27694D01*
X375011Y25695D02*
X372012Y23695D01*
X366014D02*
X368014D01*
X369013Y24695D01*
Y26694D01*
X368014Y27694D01*
X366014D01*
X365015Y26694D01*
Y25695D01*
X369013D01*
X351019Y23695D02*
Y29693D01*
X349020Y27694D01*
X347020Y29693D01*
Y23695D01*
X344021D02*
X342022D01*
X341022Y24695D01*
Y26694D01*
X342022Y27694D01*
X344021D01*
X345021Y26694D01*
Y24695D01*
X344021Y23695D01*
X338023Y28694D02*
Y27694D01*
X339023D01*
X337024D01*
X338023D01*
Y24695D01*
X337024Y23695D01*
X333025D02*
X331026D01*
X330026Y24695D01*
Y26694D01*
X331026Y27694D01*
X333025D01*
X334025Y26694D01*
Y24695D01*
X333025Y23695D01*
X328027Y27694D02*
Y23695D01*
Y25695D01*
X327027Y26694D01*
X326027Y27694D01*
X325027D01*
X406001Y19096D02*
X407001Y20096D01*
X409000D01*
X410000Y19096D01*
Y15097D01*
X409000Y14098D01*
X407001D01*
X406001Y15097D01*
X403002Y14098D02*
X401003D01*
X400003Y15097D01*
Y17097D01*
X401003Y18096D01*
X403002D01*
X404002Y17097D01*
Y15097D01*
X403002Y14098D01*
X398004D02*
Y18096D01*
X395005D01*
X394005Y17097D01*
Y14098D01*
X391006Y19096D02*
Y18096D01*
X392006D01*
X390006D01*
X391006D01*
Y15097D01*
X390006Y14098D01*
X387007Y18096D02*
Y14098D01*
Y16097D01*
X386008Y17097D01*
X385008Y18096D01*
X384008D01*
X380010Y14098D02*
X378010D01*
X377011Y15097D01*
Y17097D01*
X378010Y18096D01*
X380010D01*
X381009Y17097D01*
Y15097D01*
X380010Y14098D01*
X375011D02*
X373012D01*
X374012D01*
Y20096D01*
X375011D01*
X370013Y14098D02*
X368014D01*
X369013D01*
Y20096D01*
X370013D01*
X362016Y14098D02*
X364015D01*
X365015Y15097D01*
Y17097D01*
X364015Y18096D01*
X362016D01*
X361016Y17097D01*
Y16097D01*
X365015D01*
X359016Y18096D02*
Y14098D01*
Y16097D01*
X358017Y17097D01*
X357017Y18096D01*
X356017D01*
X410000Y4500D02*
Y10498D01*
X407001D01*
X406001Y9498D01*
Y7499D01*
X407001Y6499D01*
X410000D01*
X408001D02*
X406001Y4500D01*
X401003D02*
X403002D01*
X404002Y5500D01*
Y7499D01*
X403002Y8499D01*
X401003D01*
X400003Y7499D01*
Y6499D01*
X404002D01*
X398004Y8499D02*
X396005Y4500D01*
X394005Y8499D01*
X392006D02*
X391006D01*
Y7499D01*
X392006D01*
Y8499D01*
Y5500D02*
X391006D01*
Y4500D01*
X392006D01*
Y5500D01*
X387007Y4500D02*
X385008D01*
X386008D01*
Y10498D01*
X387007Y9498D01*
X382009Y4500D02*
Y5500D01*
X381009D01*
Y4500D01*
X382009D01*
X377011D02*
X375011D01*
X376011D01*
Y10498D01*
X377011Y9498D01*
X418030Y120495D02*
Y115497D01*
X417030Y114497D01*
X415031D01*
X414031Y115497D01*
Y120495D01*
X408033D02*
X412032D01*
Y117496D01*
X410033Y118496D01*
X409033D01*
X408033Y117496D01*
Y115497D01*
X409033Y114497D01*
X411032D01*
X412032Y115497D01*
X359000Y214999D02*
X362999D01*
Y209001D01*
X359000D01*
X362999Y212000D02*
X360999D01*
X357001Y209001D02*
X355001D01*
X356001D01*
Y214999D01*
X357001Y213999D01*
X371801Y206198D02*
X373801D01*
X372801D01*
Y201200D01*
X373801Y200200D01*
X374800D01*
X375800Y201200D01*
X365803Y206198D02*
X369802D01*
Y203199D01*
X367803Y204199D01*
X366803D01*
X365803Y203199D01*
Y201200D01*
X366803Y200200D01*
X368802D01*
X369802Y201200D01*
D17*
X310454Y112040D02*
Y109540D01*
X309954Y109041D01*
X308954D01*
X308455Y109540D01*
Y112040D01*
X307455Y111540D02*
X306955Y112040D01*
X305955D01*
X305455Y111540D01*
Y111040D01*
X305955Y110540D01*
X306455D01*
X305955D01*
X305455Y110040D01*
Y109540D01*
X305955Y109041D01*
X306955D01*
X307455Y109540D01*
X351073Y83212D02*
X348574D01*
X348074Y83712D01*
Y84712D01*
X348574Y85212D01*
X351073D01*
X348074Y88211D02*
Y86211D01*
X350073Y88211D01*
X350573D01*
X351073Y87711D01*
Y86711D01*
X350573Y86211D01*
X369061Y164726D02*
X369561Y165226D01*
X370560D01*
X371060Y164726D01*
Y162727D01*
X370560Y162227D01*
X369561D01*
X369061Y162727D01*
X368061Y162227D02*
X367061D01*
X367561D01*
Y165226D01*
X368061Y164726D01*
X363562Y165226D02*
X365562D01*
Y163727D01*
X364562Y164226D01*
X364062D01*
X363562Y163727D01*
Y162727D01*
X364062Y162227D01*
X365062D01*
X365562Y162727D01*
D116*
X297237Y130708D02*
G03*
X297237Y130708I-1181J0D01*
G01*
M02*
