G04*
G04 #@! TF.GenerationSoftware,Altium Limited,Altium Designer,21.5.1 (32)*
G04*
G04 Layer_Physical_Order=1*
G04 Layer_Color=255*
%FSLAX25Y25*%
%MOIN*%
G70*
G04*
G04 #@! TF.SameCoordinates,C11210EE-706E-4053-A979-2A702EC27353*
G04*
G04*
G04 #@! TF.FilePolarity,Positive*
G04*
G01*
G75*
%ADD16C,0.01000*%
%ADD17C,0.00500*%
%ADD19R,0.07874X0.05512*%
%ADD25R,0.04747X0.12598*%
%ADD35R,0.03543X0.03150*%
%ADD45R,0.13386X0.09252*%
%ADD46R,0.05512X0.05906*%
%ADD47R,0.02756X0.02953*%
%ADD48R,0.03150X0.03543*%
%ADD49R,0.04331X0.06693*%
%ADD50R,0.07087X0.13386*%
%ADD51R,0.03150X0.01181*%
%ADD52R,0.02362X0.01968*%
%ADD53R,0.05906X0.05512*%
%ADD54R,0.01968X0.02362*%
%ADD55R,0.03819X0.02559*%
G04:AMPARAMS|DCode=56|XSize=21.65mil|YSize=31.5mil|CornerRadius=1.95mil|HoleSize=0mil|Usage=FLASHONLY|Rotation=90.000|XOffset=0mil|YOffset=0mil|HoleType=Round|Shape=RoundedRectangle|*
%AMROUNDEDRECTD56*
21,1,0.02165,0.02760,0,0,90.0*
21,1,0.01776,0.03150,0,0,90.0*
1,1,0.00390,0.01380,0.00888*
1,1,0.00390,0.01380,-0.00888*
1,1,0.00390,-0.01380,-0.00888*
1,1,0.00390,-0.01380,0.00888*
%
%ADD56ROUNDEDRECTD56*%
%ADD57R,0.10984X0.02913*%
%ADD58R,0.07874X0.20866*%
%ADD59C,0.04000*%
%ADD60C,0.01500*%
%ADD61C,0.03000*%
%ADD62C,0.05000*%
%ADD63C,0.02000*%
%ADD64C,0.06378*%
%ADD65C,0.06496*%
%ADD66R,0.06496X0.06496*%
%ADD67C,0.04724*%
%ADD68C,0.07500*%
%ADD69C,0.04047*%
%ADD70R,0.05906X0.05906*%
%ADD71C,0.05906*%
%ADD72C,0.11200*%
%ADD73C,0.03000*%
%ADD74C,0.01800*%
%ADD75C,0.01968*%
G36*
X243416Y200116D02*
Y199352D01*
X243669Y198079D01*
X244165Y196881D01*
X244886Y195803D01*
X245803Y194886D01*
X246881Y194165D01*
X248079Y193669D01*
X249352Y193416D01*
X250648D01*
X251921Y193669D01*
X253119Y194165D01*
X254197Y194886D01*
X255114Y195803D01*
X255835Y196881D01*
X256331Y198079D01*
X256584Y199352D01*
Y200116D01*
X418416Y200116D01*
Y199352D01*
X418669Y198079D01*
X419165Y196881D01*
X419886Y195803D01*
X420803Y194886D01*
X421881Y194165D01*
X423079Y193669D01*
X424352Y193416D01*
X425648D01*
X426921Y193669D01*
X428119Y194165D01*
X429197Y194886D01*
X430114Y195803D01*
X430835Y196881D01*
X431331Y198079D01*
X431584Y199352D01*
Y200116D01*
X449197D01*
Y803D01*
X225803D01*
Y200116D01*
X243416D01*
D02*
G37*
%LPC*%
G36*
X302604Y198791D02*
X290911D01*
Y195877D01*
X290415Y195667D01*
X289900Y195880D01*
X289343D01*
X289204Y195822D01*
X288791Y196236D01*
X288328Y196427D01*
X286580D01*
Y198791D01*
X274887D01*
Y195169D01*
X281820D01*
X281940Y195119D01*
X287847D01*
X288221Y194758D01*
Y194201D01*
X288435Y193687D01*
X288828Y193293D01*
X289343Y193080D01*
X289900D01*
X290415Y193293D01*
X290911Y193082D01*
Y190169D01*
X302604D01*
Y190296D01*
X303066Y190487D01*
X303634Y189919D01*
Y177771D01*
X303542Y177634D01*
X302604D01*
Y178791D01*
X291169D01*
Y180169D01*
X302604D01*
Y183791D01*
X291169D01*
Y184502D01*
X291836Y185169D01*
X295430D01*
X295551Y185119D01*
X295671Y185169D01*
X302604D01*
Y186348D01*
X302725Y186398D01*
X302917Y186861D01*
X302725Y187323D01*
X302604Y187374D01*
Y188791D01*
X290911D01*
Y186094D01*
X290053Y185236D01*
X289861Y184773D01*
Y181872D01*
X289505Y181634D01*
X286576D01*
Y181805D01*
X280909D01*
Y180173D01*
X286330D01*
X286537Y179673D01*
X285651Y178786D01*
X280909D01*
Y176980D01*
Y175173D01*
X282571D01*
X282759Y175126D01*
X283073Y175173D01*
X286576D01*
Y176780D01*
X286604Y176877D01*
X286576Y177132D01*
Y177861D01*
X287596Y178882D01*
X287709D01*
X288172Y179074D01*
X288229Y179131D01*
X288310D01*
X288772Y179322D01*
X289399Y179949D01*
X289861Y179758D01*
Y175212D01*
X290053Y174750D01*
X292053Y172749D01*
X292515Y172558D01*
X305953D01*
X315775Y162736D01*
X315492Y162312D01*
X315491Y162312D01*
X314934D01*
X314420Y162099D01*
X314163Y161842D01*
X313663Y162036D01*
Y162357D01*
X311115D01*
Y155883D01*
X313663D01*
Y159789D01*
X314163Y159983D01*
X314420Y159726D01*
X314934Y159512D01*
X315280D01*
X315988Y158804D01*
Y153425D01*
X315345D01*
Y150748D01*
X316199D01*
Y142192D01*
X315921D01*
Y139122D01*
X318599D01*
Y142192D01*
X317941D01*
Y150748D01*
X318416D01*
Y153425D01*
X317730D01*
Y159165D01*
X317664Y159498D01*
X317475Y159781D01*
X316613Y160643D01*
Y161191D01*
X316613Y161191D01*
X317037Y161475D01*
X321125Y157386D01*
X320842Y156963D01*
X320841Y156963D01*
X320284D01*
X319770Y156749D01*
X319376Y156356D01*
X319163Y155841D01*
Y155284D01*
X319376Y154770D01*
X319770Y154376D01*
X319909Y154318D01*
Y153425D01*
X319282D01*
Y150748D01*
X322159D01*
X322353Y150748D01*
X322388Y150706D01*
X322519Y150219D01*
X322126Y149825D01*
X321913Y149311D01*
Y148754D01*
X322126Y148239D01*
X322519Y147845D01*
X323034Y147632D01*
X323591D01*
X324106Y147845D01*
X324499Y148239D01*
X324713Y148754D01*
Y149311D01*
X324499Y149825D01*
X324106Y150219D01*
X323967Y150277D01*
Y154856D01*
X324467Y155224D01*
X324569Y155193D01*
X324782Y154678D01*
X325176Y154284D01*
X325691Y154071D01*
X326247D01*
X326762Y154284D01*
X327156Y154678D01*
X327369Y155193D01*
Y155750D01*
X327156Y156264D01*
X326762Y156658D01*
X326247Y156871D01*
X325691D01*
X325176Y156658D01*
X325147Y156629D01*
X323868Y157908D01*
X324059Y158370D01*
X329334D01*
X329494Y157982D01*
X329888Y157588D01*
X330403Y157375D01*
X330960D01*
X331474Y157588D01*
X331868Y157982D01*
X332081Y158497D01*
Y159054D01*
X331868Y159568D01*
X331474Y159962D01*
X331442Y160034D01*
X331404Y160532D01*
X331668Y160796D01*
X331881Y161311D01*
Y161868D01*
X331668Y162382D01*
X331275Y162776D01*
X330760Y162989D01*
X330203D01*
X329688Y162776D01*
X329295Y162382D01*
X329237Y162243D01*
X321948D01*
X306123Y178069D01*
Y194009D01*
X305932Y194471D01*
X304167Y196236D01*
X303705Y196427D01*
X302604D01*
Y198791D01*
D02*
G37*
G36*
X286576Y193786D02*
X280909D01*
Y192155D01*
X286576D01*
Y193786D01*
D02*
G37*
G36*
X280559D02*
X274891D01*
Y192155D01*
X280559D01*
Y193786D01*
D02*
G37*
G36*
X335858Y193492D02*
X332731D01*
Y190365D01*
X335858D01*
Y193492D01*
D02*
G37*
G36*
X332381D02*
X329253D01*
Y190365D01*
X332381D01*
Y193492D01*
D02*
G37*
G36*
X280559Y191805D02*
X274891D01*
Y190173D01*
X280559D01*
Y191805D01*
D02*
G37*
G36*
X286576D02*
X280909D01*
Y190173D01*
X285651D01*
X286314Y189510D01*
Y189450D01*
X285651Y188786D01*
X280909D01*
Y187155D01*
X286576D01*
Y187836D01*
X286948Y188169D01*
X287410Y187977D01*
X287873Y188169D01*
X288421Y188716D01*
X288612Y189179D01*
X288421Y189641D01*
X287958Y189833D01*
X287600D01*
X287430Y190243D01*
X286576Y191098D01*
Y191805D01*
D02*
G37*
G36*
X280559Y188786D02*
X274891D01*
Y187155D01*
X280559D01*
Y188786D01*
D02*
G37*
G36*
X335858Y190015D02*
X332731D01*
Y186887D01*
X335858D01*
Y190015D01*
D02*
G37*
G36*
X332381D02*
X329253D01*
Y186887D01*
X332381D01*
Y190015D01*
D02*
G37*
G36*
X322991Y193497D02*
X322120D01*
X321279Y193271D01*
X320525Y192836D01*
X319909Y192220D01*
X319474Y191466D01*
X319249Y190625D01*
Y189754D01*
X319474Y188913D01*
X319909Y188159D01*
X320525Y187543D01*
X321279Y187108D01*
X322120Y186883D01*
X322991D01*
X323832Y187108D01*
X324586Y187543D01*
X325202Y188159D01*
X325637Y188913D01*
X325863Y189754D01*
Y190625D01*
X325637Y191466D01*
X325202Y192220D01*
X324586Y192836D01*
X323832Y193271D01*
X322991Y193497D01*
D02*
G37*
G36*
X312991D02*
X312120D01*
X311279Y193271D01*
X310525Y192836D01*
X309909Y192220D01*
X309474Y191466D01*
X309249Y190625D01*
Y189754D01*
X309474Y188913D01*
X309909Y188159D01*
X310525Y187543D01*
X311279Y187108D01*
X312120Y186883D01*
X312991D01*
X313832Y187108D01*
X314586Y187543D01*
X315202Y188159D01*
X315637Y188913D01*
X315863Y189754D01*
Y190625D01*
X315637Y191466D01*
X315202Y192220D01*
X314586Y192836D01*
X313832Y193271D01*
X312991Y193497D01*
D02*
G37*
G36*
X286576Y186805D02*
X280909D01*
Y185173D01*
X286576D01*
Y186805D01*
D02*
G37*
G36*
X280559D02*
X274891D01*
Y185173D01*
X280559D01*
Y186805D01*
D02*
G37*
G36*
X286576Y183786D02*
X280909D01*
Y182155D01*
X286576D01*
Y183786D01*
D02*
G37*
G36*
X280559D02*
X274891D01*
Y182155D01*
X280559D01*
Y183786D01*
D02*
G37*
G36*
Y181805D02*
X274891D01*
Y180173D01*
X280559D01*
Y181805D01*
D02*
G37*
G36*
Y178786D02*
X274891D01*
Y177155D01*
X280559D01*
Y178786D01*
D02*
G37*
G36*
Y176805D02*
X274891D01*
Y175173D01*
X280559D01*
Y176805D01*
D02*
G37*
G36*
X368035Y176159D02*
X366679D01*
Y174999D01*
X368035D01*
Y176159D01*
D02*
G37*
G36*
X366329D02*
X364973D01*
Y174999D01*
X366329D01*
Y176159D01*
D02*
G37*
G36*
X439974Y182102D02*
X439026D01*
X438109Y181857D01*
X437288Y181383D01*
X436617Y180712D01*
X436143Y179891D01*
X435898Y178974D01*
Y178026D01*
X436143Y177110D01*
X436617Y176288D01*
X437288Y175617D01*
X438109Y175143D01*
X439026Y174898D01*
X439974D01*
X440891Y175143D01*
X441712Y175617D01*
X442383Y176288D01*
X442857Y177110D01*
X443102Y178026D01*
Y178974D01*
X442857Y179891D01*
X442383Y180712D01*
X441712Y181383D01*
X440891Y181857D01*
X439974Y182102D01*
D02*
G37*
G36*
X371977Y176163D02*
X368906D01*
Y173486D01*
X369570D01*
Y170583D01*
X368730D01*
X368709Y170583D01*
Y170583D01*
X368232Y170579D01*
Y170578D01*
X366784D01*
Y173490D01*
X368035D01*
Y174650D01*
X366504D01*
X364973D01*
Y173490D01*
X365476D01*
Y170578D01*
X364776D01*
Y168927D01*
X366504D01*
Y168577D01*
X364776D01*
Y166926D01*
X364776D01*
X364607Y166496D01*
X364030D01*
X363972Y166635D01*
X363579Y167028D01*
X363064Y167242D01*
X362507D01*
X361993Y167028D01*
X361599Y166635D01*
X361386Y166120D01*
Y165563D01*
X361599Y165049D01*
X361993Y164655D01*
X362507Y164442D01*
X363064D01*
X363579Y164655D01*
X363972Y165049D01*
X364030Y165187D01*
X364772D01*
Y163332D01*
X364428D01*
X364095Y163265D01*
X363812Y163077D01*
X363698Y162963D01*
X361583D01*
X361121Y163072D01*
Y163628D01*
X360908Y164143D01*
X360514Y164537D01*
X359999Y164750D01*
X359442D01*
X358928Y164537D01*
X358534Y164143D01*
X358321Y163628D01*
Y163072D01*
X358534Y162557D01*
X358928Y162163D01*
X359442Y161950D01*
X359684D01*
X360158Y161476D01*
X360441Y161287D01*
X360774Y161221D01*
X364059D01*
X364392Y161287D01*
X364675Y161476D01*
X364789Y161590D01*
X365626D01*
X365633Y161584D01*
Y159952D01*
X364855D01*
Y157275D01*
X367926D01*
Y159952D01*
X367375D01*
Y161606D01*
X368215D01*
X368236Y161606D01*
X368735Y161611D01*
X370266D01*
Y163437D01*
Y165263D01*
X368774D01*
X368678Y165267D01*
X368532Y165485D01*
X368478Y165766D01*
X369634Y166921D01*
X372174D01*
Y170583D01*
X371312D01*
Y173486D01*
X371977D01*
Y176163D01*
D02*
G37*
G36*
X439974Y172102D02*
X439026D01*
X438109Y171857D01*
X437288Y171383D01*
X436617Y170712D01*
X436143Y169890D01*
X435898Y168974D01*
Y168026D01*
X436143Y167110D01*
X436617Y166288D01*
X437288Y165617D01*
X438109Y165143D01*
X439026Y164898D01*
X439974D01*
X440891Y165143D01*
X441712Y165617D01*
X442383Y166288D01*
X442857Y167110D01*
X443102Y168026D01*
Y168974D01*
X442857Y169890D01*
X442383Y170712D01*
X441712Y171383D01*
X440891Y171857D01*
X439974Y172102D01*
D02*
G37*
G36*
X236261Y173771D02*
X234936D01*
X233656Y173428D01*
X232508Y172766D01*
X231571Y171828D01*
X230908Y170680D01*
X230565Y169400D01*
Y168075D01*
X230908Y166795D01*
X231571Y165647D01*
X232508Y164710D01*
X233656Y164047D01*
X234936Y163704D01*
X236261D01*
X237541Y164047D01*
X238689Y164710D01*
X239626Y165647D01*
X240289Y166795D01*
X240632Y168075D01*
Y169400D01*
X240289Y170680D01*
X239626Y171828D01*
X238689Y172766D01*
X237541Y173428D01*
X236261Y173771D01*
D02*
G37*
G36*
X370616Y165263D02*
Y163612D01*
X372169D01*
Y165263D01*
X370616D01*
D02*
G37*
G36*
X276581Y165048D02*
X274831D01*
Y163101D01*
X276581D01*
Y165048D01*
D02*
G37*
G36*
X278681D02*
X276931D01*
Y162926D01*
Y160804D01*
X278681D01*
Y162053D01*
X278681Y162055D01*
X281151D01*
X281484Y162121D01*
X281767Y162310D01*
X281956Y162593D01*
X282022Y162926D01*
X281956Y163259D01*
X281767Y163542D01*
X281484Y163731D01*
X281151Y163797D01*
X278681D01*
Y165048D01*
D02*
G37*
G36*
X276581Y162751D02*
X274831D01*
Y160804D01*
X276581D01*
Y162751D01*
D02*
G37*
G36*
X248540Y168641D02*
X247460D01*
X246416Y168361D01*
X245480Y167821D01*
X244716Y167057D01*
X244175Y166121D01*
X243896Y165077D01*
Y163997D01*
X244175Y162953D01*
X244716Y162017D01*
X245480Y161253D01*
X246416Y160712D01*
X247460Y160433D01*
X248540D01*
X249584Y160712D01*
X250520Y161253D01*
X251284Y162017D01*
X251825Y162953D01*
X252104Y163997D01*
Y165077D01*
X251825Y166121D01*
X251284Y167057D01*
X250520Y167821D01*
X249584Y168361D01*
X248540Y168641D01*
D02*
G37*
G36*
X372169Y163262D02*
X370616D01*
Y161611D01*
X371244D01*
X371822Y161033D01*
X370796Y160007D01*
X370771Y159948D01*
X370502D01*
Y158788D01*
X371858D01*
Y159217D01*
X371860Y159221D01*
X372988Y160349D01*
X373789D01*
X374252Y160541D01*
X374443Y161003D01*
X374252Y161466D01*
X373789Y161657D01*
X373047D01*
X372169Y162536D01*
Y163262D01*
D02*
G37*
G36*
X370152Y159948D02*
X368796D01*
Y158788D01*
X370152D01*
Y159948D01*
D02*
G37*
G36*
X358085Y160491D02*
X357528D01*
X357013Y160277D01*
X356620Y159884D01*
X356406Y159369D01*
Y158812D01*
X356620Y158298D01*
X357013Y157904D01*
X357528Y157691D01*
X358085D01*
X358599Y157904D01*
X358993Y158298D01*
X359206Y158812D01*
Y159369D01*
X358993Y159884D01*
X358599Y160277D01*
X358085Y160491D01*
D02*
G37*
G36*
X371858Y158438D02*
X370502D01*
Y157279D01*
X371858D01*
Y158438D01*
D02*
G37*
G36*
X370152D02*
X368796D01*
Y157279D01*
X370152D01*
Y158438D01*
D02*
G37*
G36*
X439974Y162102D02*
X439026D01*
X438109Y161857D01*
X437288Y161383D01*
X436617Y160712D01*
X436143Y159890D01*
X435898Y158974D01*
Y158026D01*
X436143Y157109D01*
X436617Y156288D01*
X437288Y155617D01*
X438109Y155143D01*
X439026Y154898D01*
X439974D01*
X440891Y155143D01*
X441712Y155617D01*
X442383Y156288D01*
X442857Y157109D01*
X443102Y158026D01*
Y158974D01*
X442857Y159890D01*
X442383Y160712D01*
X441712Y161383D01*
X440891Y161857D01*
X439974Y162102D01*
D02*
G37*
G36*
X371500Y155996D02*
X370144D01*
Y154836D01*
X371500D01*
Y155996D01*
D02*
G37*
G36*
X369794D02*
X368438D01*
Y154836D01*
X369794D01*
Y155996D01*
D02*
G37*
G36*
X361499Y156750D02*
X360942D01*
X360428Y156537D01*
X360034Y156143D01*
X359821Y155629D01*
Y155071D01*
X360034Y154557D01*
X360428Y154163D01*
X360942Y153950D01*
X361499D01*
X362014Y154163D01*
X362408Y154557D01*
X362465Y154696D01*
X364496D01*
Y153323D01*
X367567D01*
Y156000D01*
X365353D01*
X365343Y156004D01*
X362465D01*
X362408Y156143D01*
X362014Y156537D01*
X361499Y156750D01*
D02*
G37*
G36*
X371500Y154486D02*
X369969D01*
X368438D01*
Y153327D01*
X369098D01*
Y152328D01*
X368438D01*
Y151168D01*
X369969D01*
X371500D01*
Y152328D01*
X370840D01*
Y153327D01*
X371500D01*
Y154486D01*
D02*
G37*
G36*
X290811Y162361D02*
X285355D01*
Y150851D01*
X281420D01*
X281279Y150992D01*
X280765Y151205D01*
X280208D01*
X279693Y150992D01*
X279299Y150598D01*
X279086Y150084D01*
Y149527D01*
X279299Y149012D01*
X279693Y148618D01*
X280208Y148405D01*
X280765D01*
X281279Y148618D01*
X281673Y149012D01*
X281713Y149109D01*
X285355D01*
Y149054D01*
X290811D01*
Y162361D01*
D02*
G37*
G36*
X248540Y158641D02*
X247460D01*
X246416Y158361D01*
X245480Y157821D01*
X244716Y157057D01*
X244175Y156121D01*
X243896Y155077D01*
Y153997D01*
X244175Y152953D01*
X244716Y152017D01*
X245480Y151253D01*
X246416Y150712D01*
X247460Y150433D01*
X248540D01*
X249584Y150712D01*
X250520Y151253D01*
X251284Y152017D01*
X251825Y152953D01*
X252104Y153997D01*
Y155077D01*
X251825Y156121D01*
X251284Y157057D01*
X250520Y157821D01*
X249584Y158361D01*
X248540Y158641D01*
D02*
G37*
G36*
X371500Y150818D02*
X370144D01*
Y149659D01*
X371500D01*
Y150818D01*
D02*
G37*
G36*
X369794D02*
X368438D01*
Y149659D01*
X369794D01*
Y150818D01*
D02*
G37*
G36*
X363279Y153400D02*
X362721D01*
X362207Y153187D01*
X361813Y152793D01*
X361600Y152278D01*
Y151722D01*
X361813Y151207D01*
X362207Y150813D01*
X362721Y150600D01*
X363279D01*
X363793Y150813D01*
X363996Y151016D01*
X364496Y150936D01*
Y149655D01*
X367567D01*
Y152332D01*
X365418D01*
X365298Y152382D01*
X364357D01*
X364187Y152793D01*
X363793Y153187D01*
X363279Y153400D01*
D02*
G37*
G36*
X313663Y155533D02*
X311115D01*
Y149058D01*
X313663D01*
Y155533D01*
D02*
G37*
G36*
X310765Y162357D02*
X308216D01*
Y155594D01*
X303733D01*
X303399Y155528D01*
X303117Y155339D01*
X302928Y155057D01*
X302862Y154723D01*
X302928Y154390D01*
X303117Y154107D01*
X303399Y153919D01*
X303733Y153852D01*
X308216D01*
Y149058D01*
X310765D01*
Y155708D01*
Y162357D01*
D02*
G37*
G36*
X439974Y152102D02*
X439026D01*
X438109Y151857D01*
X437288Y151383D01*
X436617Y150712D01*
X436143Y149890D01*
X435898Y148974D01*
Y148026D01*
X436143Y147109D01*
X436617Y146288D01*
X437288Y145617D01*
X438109Y145143D01*
X439026Y144898D01*
X439974D01*
X440891Y145143D01*
X441712Y145617D01*
X442383Y146288D01*
X442857Y147109D01*
X443102Y148026D01*
Y148974D01*
X442857Y149890D01*
X442383Y150712D01*
X441712Y151383D01*
X440891Y151857D01*
X439974Y152102D01*
D02*
G37*
G36*
X248540Y148641D02*
X247460D01*
X246416Y148362D01*
X245480Y147821D01*
X244716Y147057D01*
X244175Y146121D01*
X243896Y145077D01*
Y143997D01*
X244175Y142953D01*
X244716Y142017D01*
X245480Y141253D01*
X246416Y140712D01*
X247460Y140433D01*
X248540D01*
X249584Y140712D01*
X250520Y141253D01*
X251284Y142017D01*
X251825Y142953D01*
X252104Y143997D01*
Y145077D01*
X251825Y146121D01*
X251284Y147057D01*
X250520Y147821D01*
X249584Y148362D01*
X248540Y148641D01*
D02*
G37*
G36*
X439974Y142098D02*
X439675D01*
Y138675D01*
X443098D01*
Y138974D01*
X442853Y139889D01*
X442379Y140709D01*
X441709Y141379D01*
X440889Y141853D01*
X439974Y142098D01*
D02*
G37*
G36*
X439325D02*
X439026D01*
X438111Y141853D01*
X437291Y141379D01*
X436621Y140709D01*
X436147Y139889D01*
X435902Y138974D01*
Y138675D01*
X439325D01*
Y142098D01*
D02*
G37*
G36*
X313444Y143065D02*
X310896D01*
Y136591D01*
X313444D01*
Y143065D01*
D02*
G37*
G36*
X443098Y138325D02*
X439675D01*
Y134902D01*
X439974D01*
X440889Y135147D01*
X441709Y135621D01*
X442379Y136291D01*
X442853Y137111D01*
X443098Y138026D01*
Y138325D01*
D02*
G37*
G36*
X439325D02*
X435902D01*
Y138026D01*
X436147Y137111D01*
X436621Y136291D01*
X437291Y135621D01*
X438111Y135147D01*
X439026Y134902D01*
X439325D01*
Y138325D01*
D02*
G37*
G36*
X327826Y137316D02*
X327269D01*
X326754Y137103D01*
X326360Y136709D01*
X326147Y136194D01*
Y135637D01*
X326360Y135123D01*
X326754Y134729D01*
X327269Y134516D01*
X327826D01*
X328340Y134729D01*
X328734Y135123D01*
X328947Y135637D01*
Y136194D01*
X328734Y136709D01*
X328340Y137103D01*
X327826Y137316D01*
D02*
G37*
G36*
X358655Y136352D02*
X358098D01*
X357583Y136139D01*
X357189Y135745D01*
X356976Y135230D01*
Y134673D01*
X357189Y134159D01*
X357583Y133765D01*
X358098Y133552D01*
X358655D01*
X359169Y133765D01*
X359563Y134159D01*
X359776Y134673D01*
Y135230D01*
X359563Y135745D01*
X359169Y136139D01*
X358655Y136352D01*
D02*
G37*
G36*
X318599Y138256D02*
X315921D01*
Y135185D01*
X316395D01*
Y134228D01*
X316257Y134170D01*
X315863Y133776D01*
X315650Y133262D01*
Y132705D01*
X315863Y132190D01*
X316257Y131796D01*
X316771Y131583D01*
X317328D01*
X317843Y131796D01*
X318236Y132190D01*
X318450Y132705D01*
Y133262D01*
X318236Y133776D01*
X317843Y134170D01*
X317704Y134228D01*
Y135185D01*
X318599D01*
Y138256D01*
D02*
G37*
G36*
X248540Y138641D02*
X247460D01*
X246416Y138362D01*
X245480Y137821D01*
X244716Y137057D01*
X244175Y136121D01*
X243896Y135077D01*
Y133997D01*
X244175Y132953D01*
X244716Y132017D01*
X245480Y131253D01*
X246416Y130712D01*
X247460Y130433D01*
X248540D01*
X249584Y130712D01*
X250520Y131253D01*
X251284Y132017D01*
X251825Y132953D01*
X252104Y133997D01*
Y135077D01*
X251825Y136121D01*
X251284Y137057D01*
X250520Y137821D01*
X249584Y138362D01*
X248540Y138641D01*
D02*
G37*
G36*
X313444Y136241D02*
X310896D01*
Y129767D01*
X313444D01*
Y136241D01*
D02*
G37*
G36*
X310546Y143065D02*
X307998D01*
Y138272D01*
X303733D01*
X303399Y138205D01*
X303117Y138016D01*
X302928Y137734D01*
X302862Y137400D01*
X302928Y137067D01*
X303117Y136785D01*
X303399Y136596D01*
X303733Y136529D01*
X307998D01*
Y129767D01*
X310546D01*
Y136416D01*
Y143065D01*
D02*
G37*
G36*
X280273Y143682D02*
X279716D01*
X279202Y143469D01*
X278808Y143075D01*
X278595Y142561D01*
Y142004D01*
X278808Y141489D01*
X279202Y141095D01*
X279716Y140882D01*
X280273D01*
X280788Y141095D01*
X281036Y141344D01*
X285137D01*
Y129763D01*
X290592D01*
Y143070D01*
X286075D01*
X285991Y143087D01*
X281170D01*
X280788Y143469D01*
X280273Y143682D01*
D02*
G37*
G36*
X443102Y132102D02*
X435898D01*
Y124898D01*
X443102D01*
Y132102D01*
D02*
G37*
G36*
X274167Y122122D02*
X272417D01*
Y120175D01*
X274167D01*
Y122122D01*
D02*
G37*
G36*
X272067D02*
X270317D01*
Y120175D01*
X272067D01*
Y122122D01*
D02*
G37*
G36*
X274167Y119825D02*
X272417D01*
Y117878D01*
X274167D01*
Y119825D01*
D02*
G37*
G36*
X272067D02*
X270317D01*
Y117878D01*
X272067D01*
Y119825D01*
D02*
G37*
G36*
X302250Y109967D02*
X301693D01*
X301179Y109754D01*
X300785Y109360D01*
X300572Y108845D01*
Y108288D01*
X300785Y107774D01*
X301179Y107380D01*
X301693Y107167D01*
X302250D01*
X302765Y107380D01*
X303159Y107774D01*
X303372Y108288D01*
Y108845D01*
X303159Y109360D01*
X302765Y109754D01*
X302250Y109967D01*
D02*
G37*
G36*
X300532Y105394D02*
X299975D01*
X299460Y105181D01*
X299066Y104787D01*
X298853Y104273D01*
Y103716D01*
X299066Y103201D01*
X299460Y102807D01*
X299975Y102594D01*
X300532D01*
X301046Y102807D01*
X301440Y103201D01*
X301653Y103716D01*
Y104273D01*
X301440Y104787D01*
X301046Y105181D01*
X300532Y105394D01*
D02*
G37*
G36*
X358758Y100541D02*
X358201D01*
X357686Y100328D01*
X357323Y99965D01*
X355848D01*
Y100386D01*
X352777D01*
Y97709D01*
X355848D01*
Y98223D01*
X357417D01*
X357686Y97954D01*
X358201Y97741D01*
X358758D01*
X359272Y97954D01*
X359666Y98348D01*
X359879Y98863D01*
Y99420D01*
X359666Y99934D01*
X359272Y100328D01*
X358758Y100541D01*
D02*
G37*
G36*
X388029Y106346D02*
X387472D01*
X386957Y106132D01*
X386563Y105739D01*
X386350Y105224D01*
Y104667D01*
X386563Y104153D01*
X386957Y103759D01*
X387472Y103546D01*
X387918D01*
X389580Y101884D01*
X389862Y101695D01*
X390195Y101629D01*
X436004D01*
X436143Y101110D01*
X436617Y100288D01*
X437288Y99617D01*
X438109Y99143D01*
X439026Y98898D01*
X439974D01*
X440891Y99143D01*
X441712Y99617D01*
X442383Y100288D01*
X442857Y101110D01*
X443102Y102026D01*
Y102974D01*
X442857Y103891D01*
X442383Y104712D01*
X441712Y105383D01*
X440891Y105857D01*
X439974Y106102D01*
X439026D01*
X438109Y105857D01*
X437288Y105383D01*
X436617Y104712D01*
X436143Y103891D01*
X436004Y103371D01*
X390556D01*
X389150Y104777D01*
Y105224D01*
X388937Y105739D01*
X388543Y106132D01*
X388029Y106346D01*
D02*
G37*
G36*
X330861Y100721D02*
X329111D01*
Y98774D01*
X330861D01*
Y100721D01*
D02*
G37*
G36*
X328761D02*
X327011D01*
Y98774D01*
X328761D01*
Y100721D01*
D02*
G37*
G36*
X336377Y100725D02*
X332519D01*
Y96473D01*
X336377D01*
Y98176D01*
X348840D01*
Y97709D01*
X351911D01*
Y100386D01*
X348840D01*
Y99918D01*
X336377D01*
Y100725D01*
D02*
G37*
G36*
X387713Y95329D02*
X387156D01*
X386641Y95116D01*
X386247Y94722D01*
X386219Y94653D01*
X355848D01*
Y95121D01*
X352777D01*
Y92444D01*
X355848D01*
Y92911D01*
X386472D01*
X386641Y92742D01*
X387156Y92529D01*
X387713D01*
X388227Y92742D01*
X388621Y93136D01*
X388834Y93650D01*
Y94207D01*
X388621Y94722D01*
X388227Y95116D01*
X387713Y95329D01*
D02*
G37*
G36*
X330861Y98425D02*
X328936D01*
X327011D01*
Y96478D01*
X328065D01*
Y95314D01*
X327011D01*
Y93367D01*
X328936D01*
X330861D01*
Y95314D01*
X329807D01*
Y96478D01*
X330861D01*
Y98425D01*
D02*
G37*
G36*
X273173Y165052D02*
X269315D01*
Y160800D01*
X269361D01*
Y155958D01*
X265355Y151951D01*
X265055Y151503D01*
X264950Y150975D01*
X265000Y150725D01*
X264950Y150475D01*
Y127552D01*
X264931Y127506D01*
Y126949D01*
X264950Y126902D01*
Y122126D01*
X264801D01*
Y117874D01*
X265119D01*
Y97072D01*
X260678Y92631D01*
X260358Y92716D01*
X259642D01*
X258951Y92531D01*
X258332Y92174D01*
X257826Y91668D01*
X257469Y91049D01*
X257283Y90358D01*
Y89642D01*
X257469Y88951D01*
X257826Y88332D01*
X258332Y87826D01*
X258951Y87469D01*
X259642Y87283D01*
X260358D01*
X260962Y87445D01*
X274768Y73639D01*
Y37482D01*
X274084D01*
Y34804D01*
X277155D01*
Y37482D01*
X276077D01*
Y73255D01*
X296257D01*
Y71485D01*
X293807D01*
Y64871D01*
X296406D01*
Y63807D01*
X293764D01*
Y57193D01*
X296406D01*
Y55888D01*
X295603D01*
Y51636D01*
X299461D01*
Y55888D01*
X298658D01*
Y57193D01*
X299984D01*
Y63807D01*
X298658D01*
Y64871D01*
X300028D01*
Y71485D01*
X298509D01*
Y73255D01*
X310709D01*
Y70513D01*
X319291D01*
Y74886D01*
X349512D01*
X349943Y74972D01*
X350308Y75216D01*
X356471Y81379D01*
X356715Y81744D01*
X356801Y82175D01*
Y83192D01*
X359391D01*
Y89806D01*
X353170D01*
Y83192D01*
X354549D01*
Y82641D01*
X349046Y77138D01*
X317600D01*
X317169Y77052D01*
X316804Y76808D01*
X316729Y76734D01*
X310709D01*
Y75507D01*
X276086D01*
X262555Y89038D01*
X262717Y89642D01*
Y90358D01*
X262631Y90678D01*
X267476Y95524D01*
X267476Y95524D01*
X267776Y95972D01*
X267881Y96500D01*
Y117874D01*
X268659D01*
Y122126D01*
X267712D01*
Y126902D01*
X267731Y126949D01*
Y127506D01*
X267712Y127552D01*
Y150403D01*
X271735Y154426D01*
X271781Y154445D01*
X272175Y154839D01*
X272388Y155353D01*
Y155910D01*
X272175Y156425D01*
X272123Y156477D01*
Y160800D01*
X273173D01*
Y165052D01*
D02*
G37*
G36*
X336377Y95318D02*
X332519D01*
Y91066D01*
X336377D01*
Y92911D01*
X348840D01*
Y92444D01*
X351911D01*
Y95121D01*
X348840D01*
Y94653D01*
X336377D01*
Y95318D01*
D02*
G37*
G36*
X317483Y94171D02*
X316926D01*
X316412Y93957D01*
X316018Y93564D01*
X315805Y93049D01*
Y92492D01*
X316018Y91978D01*
X316412Y91584D01*
X316926Y91371D01*
X317483D01*
X317998Y91584D01*
X318392Y91978D01*
X318605Y92492D01*
Y93049D01*
X318392Y93564D01*
X317998Y93957D01*
X317483Y94171D01*
D02*
G37*
G36*
X250357Y92712D02*
X250175D01*
Y90175D01*
X252712D01*
Y90357D01*
X252527Y91047D01*
X252170Y91665D01*
X251665Y92170D01*
X251047Y92527D01*
X250357Y92712D01*
D02*
G37*
G36*
X249825D02*
X249643D01*
X248953Y92527D01*
X248335Y92170D01*
X247830Y91665D01*
X247473Y91047D01*
X247288Y90357D01*
Y90175D01*
X249825D01*
Y92712D01*
D02*
G37*
G36*
X443102Y96102D02*
X435898D01*
Y88898D01*
X443102D01*
Y96102D01*
D02*
G37*
G36*
X351517Y89806D02*
X345297D01*
Y88206D01*
X336377D01*
Y89461D01*
X332519D01*
Y85209D01*
X336377D01*
Y86463D01*
X345297D01*
Y83192D01*
X351517D01*
Y89806D01*
D02*
G37*
G36*
X330861Y93017D02*
X328936D01*
X327011D01*
Y91070D01*
X328065D01*
Y89456D01*
X327011D01*
Y87510D01*
X328936D01*
X330861D01*
Y89456D01*
X329807D01*
Y91070D01*
X330861D01*
Y93017D01*
D02*
G37*
G36*
X252712Y89825D02*
X250175D01*
Y87288D01*
X250357D01*
X251047Y87473D01*
X251665Y87830D01*
X252170Y88335D01*
X252527Y88953D01*
X252712Y89643D01*
Y89825D01*
D02*
G37*
G36*
X249825D02*
X247288D01*
Y89643D01*
X247473Y88953D01*
X247830Y88335D01*
X248335Y87830D01*
X248953Y87473D01*
X249643Y87288D01*
X249825D01*
Y89825D01*
D02*
G37*
G36*
X330861Y87160D02*
X329111D01*
Y85213D01*
X330861D01*
Y87160D01*
D02*
G37*
G36*
X328761D02*
X327011D01*
Y85213D01*
X328761D01*
Y87160D01*
D02*
G37*
G36*
X371790Y76630D02*
X369705D01*
Y75175D01*
X371790D01*
Y76630D01*
D02*
G37*
G36*
Y74825D02*
X369705D01*
Y73370D01*
X371790D01*
Y74825D01*
D02*
G37*
G36*
X369355Y76630D02*
X367271D01*
Y75871D01*
X364605D01*
X364271Y75805D01*
X363989Y75616D01*
X363806Y75433D01*
X363653Y75403D01*
X363370Y75214D01*
X363181Y74931D01*
X363115Y74598D01*
X363181Y74265D01*
X363370Y73982D01*
X363653Y73793D01*
X363986Y73727D01*
X364203D01*
X364536Y73793D01*
X364819Y73982D01*
X364966Y74129D01*
X367271D01*
Y73370D01*
X369355D01*
Y75000D01*
Y76630D01*
D02*
G37*
G36*
X292149Y71480D02*
X289218D01*
Y68353D01*
X292149D01*
Y71480D01*
D02*
G37*
G36*
X288868D02*
X285938D01*
Y68353D01*
X288868D01*
Y71480D01*
D02*
G37*
G36*
X292149Y68003D02*
X289218D01*
Y64875D01*
X292149D01*
Y68003D01*
D02*
G37*
G36*
X288868D02*
X285938D01*
Y64875D01*
X288868D01*
Y68003D01*
D02*
G37*
G36*
X352425Y66214D02*
X352092Y66147D01*
X351809Y65958D01*
X351620Y65676D01*
X351554Y65342D01*
Y63203D01*
X350500D01*
Y61257D01*
X352425D01*
X354350D01*
Y63203D01*
X353296D01*
Y65342D01*
X353230Y65676D01*
X353041Y65958D01*
X352759Y66147D01*
X352425Y66214D01*
D02*
G37*
G36*
X292106Y63803D02*
X289175D01*
Y60675D01*
X292106D01*
Y63803D01*
D02*
G37*
G36*
X288825D02*
X285894D01*
Y60675D01*
X288825D01*
Y63803D01*
D02*
G37*
G36*
X426641Y63864D02*
X426350D01*
Y60500D01*
X429714D01*
Y60791D01*
X429473Y61691D01*
X429007Y62498D01*
X428348Y63157D01*
X427541Y63623D01*
X426641Y63864D01*
D02*
G37*
G36*
X426000D02*
X425709D01*
X424809Y63623D01*
X424002Y63157D01*
X423343Y62498D01*
X422877Y61691D01*
X422636Y60791D01*
Y60500D01*
X426000D01*
Y63864D01*
D02*
G37*
G36*
X292106Y60325D02*
X289175D01*
Y57197D01*
X292106D01*
Y60325D01*
D02*
G37*
G36*
X288825D02*
X285894D01*
Y57197D01*
X288825D01*
Y60325D01*
D02*
G37*
G36*
X429714Y60150D02*
X426350D01*
Y56786D01*
X426641D01*
X427541Y57027D01*
X428348Y57493D01*
X429007Y58152D01*
X429473Y58959D01*
X429714Y59859D01*
Y60150D01*
D02*
G37*
G36*
X426000D02*
X422636D01*
Y59859D01*
X422877Y58959D01*
X423343Y58152D01*
X424002Y57493D01*
X424809Y57027D01*
X425709Y56786D01*
X426000D01*
Y60150D01*
D02*
G37*
G36*
X354350Y60907D02*
X352425D01*
X350500D01*
Y58960D01*
X351554D01*
Y58459D01*
X350500D01*
Y56512D01*
X352425D01*
X354350D01*
Y58459D01*
X353296D01*
Y58960D01*
X354350D01*
Y60907D01*
D02*
G37*
G36*
X293945Y55884D02*
X292195D01*
Y53937D01*
X293945D01*
Y55884D01*
D02*
G37*
G36*
X291845D02*
X290095D01*
Y53937D01*
X291845D01*
Y55884D01*
D02*
G37*
G36*
X293945Y53587D02*
X292195D01*
Y51641D01*
X293945D01*
Y53587D01*
D02*
G37*
G36*
X354350Y56162D02*
X352425D01*
X350500D01*
Y54216D01*
X350287Y53804D01*
X348138D01*
Y50676D01*
X351244D01*
X354350D01*
Y53804D01*
X354350D01*
X354350Y54216D01*
X354350D01*
Y56162D01*
D02*
G37*
G36*
X294169Y49867D02*
X292419D01*
Y47921D01*
X294169D01*
Y49867D01*
D02*
G37*
G36*
X291845Y53587D02*
X290095D01*
Y52873D01*
X288683Y51460D01*
X288311D01*
X287978Y51393D01*
X287695Y51205D01*
X287542Y51051D01*
X287353Y50769D01*
X287287Y50436D01*
X287353Y50102D01*
X287542Y49819D01*
X287695Y49667D01*
X287978Y49478D01*
X288311Y49411D01*
X289544D01*
X290319Y48636D01*
Y47921D01*
X292069D01*
Y49867D01*
X291551D01*
X290553Y50866D01*
X291327Y51641D01*
X291845D01*
Y53587D01*
D02*
G37*
G36*
X351069Y50326D02*
X348138D01*
Y47199D01*
X351069D01*
Y50326D01*
D02*
G37*
G36*
X409713Y61436D02*
X404673D01*
Y59623D01*
X404412Y58992D01*
X404314Y58247D01*
Y57735D01*
X404412Y56990D01*
X404673Y56360D01*
Y54035D01*
X409713D01*
Y55335D01*
X415959D01*
X422632Y48662D01*
Y48048D01*
X422873Y47146D01*
X423340Y46338D01*
X423999Y45679D01*
X424807Y45212D01*
X425708Y44971D01*
X426642D01*
X427543Y45212D01*
X428351Y45679D01*
X429010Y46338D01*
X429477Y47146D01*
X429718Y48048D01*
Y48981D01*
X429477Y49882D01*
X429010Y50690D01*
X428351Y51349D01*
X427543Y51816D01*
X426642Y52057D01*
X426026D01*
X418651Y59433D01*
X417872Y59953D01*
X416954Y60136D01*
X409713D01*
Y61436D01*
D02*
G37*
G36*
X358265Y66498D02*
X357708D01*
X357193Y66285D01*
X356799Y65891D01*
X356586Y65376D01*
Y64819D01*
X356799Y64305D01*
X357066Y64038D01*
Y63208D01*
X356008D01*
Y58956D01*
X356008D01*
Y58463D01*
X356008D01*
Y54211D01*
X356008D01*
Y53808D01*
X356008D01*
Y48426D01*
X354850Y47268D01*
X354350Y47475D01*
X354350Y47575D01*
X354350Y47575D01*
X354350Y47584D01*
Y50326D01*
X351419D01*
Y47199D01*
X353741D01*
X354041Y46781D01*
X354054Y46698D01*
X353967Y46489D01*
X353685Y46300D01*
X351320Y43935D01*
X351132Y43653D01*
X351065Y43319D01*
Y42628D01*
X349810D01*
Y39805D01*
X348549Y38543D01*
X348360Y38261D01*
X348294Y37928D01*
Y30819D01*
X348360Y30486D01*
X348549Y30203D01*
X349516Y29236D01*
Y26743D01*
X348851D01*
Y24066D01*
X351922D01*
Y26743D01*
X351258D01*
Y29597D01*
X351192Y29930D01*
X351003Y30213D01*
X350426Y30790D01*
X350633Y31290D01*
X354062D01*
Y35148D01*
X350036D01*
Y37567D01*
X351239Y38770D01*
X354062D01*
Y42628D01*
X353184D01*
X352977Y43128D01*
X354702Y44854D01*
X354831Y44879D01*
X355114Y45068D01*
X357240Y47194D01*
X362228D01*
Y52576D01*
X364281Y54629D01*
X365496D01*
Y44713D01*
X374079D01*
Y66287D01*
X365496D01*
Y56371D01*
X363920D01*
X363587Y56305D01*
X363304Y56116D01*
X360997Y53808D01*
X360100D01*
X359866Y54211D01*
Y58463D01*
X359866D01*
Y58956D01*
X359866D01*
Y63208D01*
X358808D01*
Y63940D01*
X359173Y64305D01*
X359386Y64819D01*
Y65376D01*
X359173Y65891D01*
X358779Y66285D01*
X358265Y66498D01*
D02*
G37*
G36*
X288919Y42620D02*
X287170D01*
Y41855D01*
X288919D01*
Y42620D01*
D02*
G37*
G36*
X438452Y48357D02*
X437520D01*
X436618Y48115D01*
X435810Y47649D01*
X435151Y46989D01*
X434684Y46181D01*
X434443Y45280D01*
Y44347D01*
X434684Y43446D01*
X435151Y42638D01*
X435810Y41978D01*
X436618Y41511D01*
X437520Y41270D01*
X438452D01*
X439354Y41511D01*
X440162Y41978D01*
X440821Y42638D01*
X441288Y43446D01*
X441529Y44347D01*
Y45280D01*
X441288Y46181D01*
X440821Y46989D01*
X440162Y47649D01*
X439354Y48115D01*
X438452Y48357D01*
D02*
G37*
G36*
X414830D02*
X413898D01*
X412996Y48115D01*
X412188Y47649D01*
X411529Y46989D01*
X411062Y46181D01*
X410821Y45280D01*
Y44347D01*
X411062Y43446D01*
X411529Y42638D01*
X412188Y41978D01*
X412996Y41511D01*
X413898Y41270D01*
X414830D01*
X415732Y41511D01*
X416540Y41978D01*
X417199Y42638D01*
X417666Y43446D01*
X417907Y44347D01*
Y45280D01*
X417666Y46181D01*
X417199Y46989D01*
X416540Y47649D01*
X415732Y48115D01*
X414830Y48357D01*
D02*
G37*
G36*
X294169Y47571D02*
X292244D01*
X290319D01*
Y45624D01*
X291929D01*
Y43984D01*
X291929Y43984D01*
Y42817D01*
X291107D01*
X291019Y42620D01*
X289269D01*
Y41680D01*
X289094D01*
Y41505D01*
X287170D01*
Y40739D01*
X286865Y40365D01*
X285035D01*
Y41242D01*
X283876D01*
Y39711D01*
Y38180D01*
X285035D01*
Y39057D01*
X286865D01*
X287170Y38683D01*
Y37918D01*
X289094D01*
Y37568D01*
X287170D01*
Y36802D01*
X287170D01*
Y36715D01*
X287170D01*
Y35949D01*
X289094D01*
Y35599D01*
X287170D01*
Y35248D01*
X287166Y34829D01*
X286865Y34460D01*
X285743D01*
X285039Y35164D01*
Y37310D01*
X282362D01*
Y34239D01*
X284114D01*
X284771Y33582D01*
X284564Y33082D01*
X281092D01*
Y33766D01*
X280682D01*
Y34804D01*
X281092D01*
Y37482D01*
X278021D01*
Y34804D01*
X278430D01*
Y33766D01*
X278021D01*
Y31089D01*
X281092D01*
Y31773D01*
X286812D01*
X287165Y31420D01*
X287165Y30892D01*
X286850Y30523D01*
X285010D01*
X284548Y30331D01*
X284114Y29898D01*
X281968D01*
Y27220D01*
X282850D01*
Y26185D01*
X281968D01*
Y23508D01*
X285039D01*
Y26185D01*
X284158D01*
Y27220D01*
X285039D01*
Y28973D01*
X285281Y29214D01*
X287165D01*
Y28924D01*
X290146D01*
X290338Y28462D01*
X288632Y26756D01*
X288440Y26293D01*
Y25893D01*
X287760D01*
Y24537D01*
X289094D01*
X290429D01*
Y25893D01*
X290327D01*
X290120Y26393D01*
X292169Y28443D01*
X292289Y28731D01*
X294825D01*
Y35774D01*
Y42817D01*
X293671D01*
Y43984D01*
X293671Y43984D01*
Y45624D01*
X294169D01*
Y47571D01*
D02*
G37*
G36*
X283526Y41242D02*
X282366D01*
Y39886D01*
X283526D01*
Y41242D01*
D02*
G37*
G36*
Y39536D02*
X282366D01*
Y38180D01*
X283526D01*
Y39536D01*
D02*
G37*
G36*
X374567Y40762D02*
X371496D01*
Y40295D01*
X362472D01*
X362139Y40229D01*
X361856Y40040D01*
X360704Y38888D01*
X357684D01*
Y35030D01*
X360704D01*
X362639Y33095D01*
X362922Y32906D01*
X363255Y32840D01*
X365352D01*
Y32823D01*
X365527Y32403D01*
X365947Y32229D01*
X368707D01*
X369127Y32403D01*
X369301Y32823D01*
Y34599D01*
X369127Y35019D01*
X368707Y35193D01*
X365947D01*
X365527Y35019D01*
X365352Y34599D01*
Y34582D01*
X363616D01*
X361936Y36262D01*
Y37656D01*
X362833Y38553D01*
X371496D01*
Y38085D01*
X374567D01*
Y40762D01*
D02*
G37*
G36*
X277150Y33762D02*
X275794D01*
Y32603D01*
X277150D01*
Y33762D01*
D02*
G37*
G36*
X275444D02*
X274088D01*
Y32603D01*
X275444D01*
Y33762D01*
D02*
G37*
G36*
X385495Y76634D02*
X380967D01*
Y73366D01*
X382696D01*
Y66287D01*
X379276D01*
Y45944D01*
X376353Y43021D01*
X376164Y42739D01*
X376097Y42406D01*
Y40762D01*
X375433D01*
Y38085D01*
X376296D01*
Y35193D01*
X375986D01*
X375566Y35019D01*
X375392Y34599D01*
Y32823D01*
X375566Y32403D01*
X375986Y32229D01*
X378746D01*
X379166Y32403D01*
X379341Y32823D01*
Y34599D01*
X379166Y35019D01*
X378746Y35193D01*
X378038D01*
Y38085D01*
X378504D01*
Y40762D01*
X377840D01*
Y42045D01*
X380507Y44713D01*
X387858D01*
Y66287D01*
X384438D01*
Y73366D01*
X385495D01*
Y76634D01*
D02*
G37*
G36*
X397779Y68900D02*
X397221D01*
X396707Y68687D01*
X396313Y68293D01*
X396100Y67778D01*
Y67283D01*
X395947Y67130D01*
X395758Y66848D01*
X395692Y66514D01*
Y61436D01*
X394043D01*
Y54035D01*
X394672D01*
Y31925D01*
X392587D01*
Y34164D01*
X385972D01*
Y31137D01*
X383664D01*
Y31802D01*
X380986D01*
Y30990D01*
X379286D01*
X379166Y31279D01*
X378746Y31453D01*
X375986D01*
X375566Y31279D01*
X375392Y30859D01*
Y29083D01*
X375566Y28663D01*
X375986Y28489D01*
X378746D01*
X379166Y28663D01*
X379341Y29083D01*
Y29247D01*
X380986D01*
Y28731D01*
X383664D01*
Y29395D01*
X385972D01*
Y27943D01*
X392587D01*
Y30182D01*
X394672D01*
Y18905D01*
X390658Y14891D01*
X335031D01*
X328728Y21193D01*
Y28480D01*
X315866D01*
X309925Y34422D01*
X309642Y34610D01*
X309309Y34677D01*
X308865D01*
X308708Y35097D01*
X308704Y35177D01*
X310654Y37127D01*
X312622Y39095D01*
X315866Y42339D01*
X328728D01*
Y52299D01*
X317527D01*
Y53191D01*
X319291D01*
Y59411D01*
X310709D01*
Y53191D01*
X314766D01*
Y52299D01*
X314634D01*
Y43571D01*
X311646Y40582D01*
X303272D01*
X302835Y40735D01*
X302835Y41156D01*
Y42625D01*
X301560D01*
Y44399D01*
X301368Y44862D01*
X299685Y46545D01*
Y49872D01*
X295827D01*
Y45620D01*
X298760D01*
X300251Y44128D01*
Y42978D01*
X299898Y42625D01*
X299313D01*
X298893Y42817D01*
X298556Y42817D01*
X297430D01*
X296968Y43280D01*
X296685Y43469D01*
X296352Y43535D01*
X296018Y43469D01*
X295736Y43280D01*
X295547Y42997D01*
X295511Y42817D01*
X295175D01*
Y35774D01*
Y28731D01*
X297158D01*
X297425Y28231D01*
X297373Y28154D01*
X295741D01*
X295278Y27962D01*
X293213Y25898D01*
X291461D01*
Y22827D01*
X294138D01*
Y24973D01*
X294661Y25496D01*
X295161Y25289D01*
Y22827D01*
X297126D01*
X297318Y22365D01*
X296914Y21961D01*
X295161D01*
Y18890D01*
X297839D01*
Y21036D01*
X298543Y21740D01*
X299173D01*
Y19284D01*
X305787D01*
Y21013D01*
X314634D01*
Y18520D01*
X326055D01*
X332911Y11663D01*
X333524Y11253D01*
X334248Y11109D01*
X391441D01*
X392164Y11253D01*
X392778Y11663D01*
X397900Y16785D01*
X398310Y17399D01*
X398454Y18122D01*
Y30859D01*
X398434Y30956D01*
X398454Y31054D01*
Y54035D01*
X399083D01*
Y61436D01*
X397434D01*
Y66100D01*
X397779D01*
X398293Y66313D01*
X398687Y66707D01*
X398900Y67221D01*
Y67778D01*
X398687Y68293D01*
X398293Y68687D01*
X397779Y68900D01*
D02*
G37*
G36*
X368707Y31449D02*
X367502D01*
Y30146D01*
X369296D01*
Y30859D01*
X369124Y31276D01*
X368707Y31449D01*
D02*
G37*
G36*
X281098Y29893D02*
X279742D01*
Y28734D01*
X281098D01*
Y29893D01*
D02*
G37*
G36*
X369296Y29796D02*
X367502D01*
Y28493D01*
X368707D01*
X369124Y28666D01*
X369296Y29083D01*
Y29796D01*
D02*
G37*
G36*
X367152Y31449D02*
X365947D01*
X365530Y31276D01*
X365357Y30859D01*
Y30842D01*
X362421D01*
X362088Y30776D01*
X361805Y30587D01*
X361616Y30304D01*
X361550Y29971D01*
X361616Y29638D01*
X361805Y29355D01*
X362088Y29166D01*
X362421Y29100D01*
X365357D01*
Y29083D01*
X365530Y28666D01*
X365947Y28493D01*
X367152D01*
Y29971D01*
Y31449D01*
D02*
G37*
G36*
X383664Y27865D02*
X380986D01*
Y27200D01*
X379307D01*
X379166Y27539D01*
X378746Y27713D01*
X375986D01*
X375566Y27539D01*
X375392Y27119D01*
Y25343D01*
X375566Y24923D01*
X375986Y24748D01*
X378746D01*
X379166Y24923D01*
X379341Y25343D01*
Y25458D01*
X380986D01*
Y24794D01*
X383664D01*
Y27865D01*
D02*
G37*
G36*
X368707Y27713D02*
X365947D01*
X365527Y27539D01*
X365352Y27119D01*
Y26689D01*
X360496D01*
Y26940D01*
X357819D01*
Y26276D01*
X355859D01*
Y26743D01*
X352788D01*
Y24066D01*
X355859D01*
Y24533D01*
X357819D01*
Y23869D01*
X360496D01*
Y24947D01*
X365517D01*
X365527Y24923D01*
X365947Y24748D01*
X368707D01*
X369127Y24923D01*
X369301Y25343D01*
Y27119D01*
X369127Y27539D01*
X368707Y27713D01*
D02*
G37*
G36*
X277150Y32253D02*
X275619D01*
X274088D01*
Y31093D01*
X275338D01*
Y28559D01*
X275530Y28097D01*
X275992Y27905D01*
X278036D01*
Y27225D01*
X278913D01*
Y26181D01*
X278036D01*
Y25021D01*
X279567D01*
X281098D01*
Y26181D01*
X280221D01*
Y27225D01*
X281098D01*
Y28384D01*
X279567D01*
Y28559D01*
X279392D01*
Y29893D01*
X278036D01*
Y29213D01*
X276646D01*
Y31093D01*
X277150D01*
Y32253D01*
D02*
G37*
G36*
X281098Y24671D02*
X279742D01*
Y23512D01*
X281098D01*
Y24671D01*
D02*
G37*
G36*
X279392D02*
X278036D01*
Y23512D01*
X279392D01*
Y24671D01*
D02*
G37*
G36*
X392582Y26285D02*
X389455D01*
Y23355D01*
X392582D01*
Y26285D01*
D02*
G37*
G36*
X290429Y24187D02*
X289269D01*
Y22831D01*
X290429D01*
Y24187D01*
D02*
G37*
G36*
X288919D02*
X287760D01*
Y22831D01*
X288919D01*
Y24187D01*
D02*
G37*
G36*
X358982Y22998D02*
X357823D01*
Y21642D01*
X358982D01*
Y22998D01*
D02*
G37*
G36*
X294138Y21961D02*
X291461D01*
Y21079D01*
X290433D01*
Y21961D01*
X287756D01*
Y18890D01*
X290433D01*
Y19771D01*
X291461D01*
Y18890D01*
X294138D01*
Y21961D01*
D02*
G37*
G36*
X360492Y22998D02*
X359332D01*
Y21467D01*
Y19936D01*
X360492D01*
Y20324D01*
X362828D01*
X362958Y20238D01*
X363291Y20171D01*
X363625Y20238D01*
X363907Y20426D01*
X364096Y20709D01*
X364162Y21042D01*
X364096Y21376D01*
X363907Y21658D01*
X363754Y21811D01*
X363472Y22000D01*
X363138Y22066D01*
X360492D01*
Y22998D01*
D02*
G37*
G36*
X392582Y23005D02*
X389455D01*
Y20074D01*
X392582D01*
Y23005D01*
D02*
G37*
G36*
X389105Y26285D02*
X385977D01*
Y23675D01*
X384329D01*
X383996Y23608D01*
X383714Y23419D01*
X383129Y22835D01*
X382976Y22805D01*
X382693Y22616D01*
X382505Y22333D01*
X382438Y22000D01*
X382505Y21667D01*
X382693Y21384D01*
X382976Y21195D01*
X383309Y21129D01*
X383526D01*
X383859Y21195D01*
X384142Y21384D01*
X384690Y21933D01*
X385977D01*
Y20074D01*
X389105D01*
Y23180D01*
Y26285D01*
D02*
G37*
G36*
X358982Y21292D02*
X357823D01*
Y19936D01*
X358982D01*
Y21292D01*
D02*
G37*
G36*
X425648Y31584D02*
X424352D01*
X423079Y31331D01*
X421881Y30835D01*
X420803Y30114D01*
X419886Y29197D01*
X419165Y28119D01*
X418669Y26921D01*
X418416Y25648D01*
Y24351D01*
X418669Y23079D01*
X419165Y21881D01*
X419886Y20803D01*
X420803Y19886D01*
X421881Y19165D01*
X423079Y18669D01*
X424352Y18416D01*
X425648D01*
X426921Y18669D01*
X428119Y19165D01*
X429197Y19886D01*
X430114Y20803D01*
X430835Y21881D01*
X431331Y23079D01*
X431584Y24351D01*
Y25648D01*
X431331Y26921D01*
X430835Y28119D01*
X430114Y29197D01*
X429197Y30114D01*
X428119Y30835D01*
X426921Y31331D01*
X425648Y31584D01*
D02*
G37*
G36*
X250648D02*
X249352D01*
X248079Y31331D01*
X246881Y30835D01*
X245803Y30114D01*
X244886Y29197D01*
X244165Y28119D01*
X243669Y26921D01*
X243416Y25648D01*
Y24351D01*
X243669Y23079D01*
X244165Y21881D01*
X244886Y20803D01*
X245803Y19886D01*
X246881Y19165D01*
X248079Y18669D01*
X249352Y18416D01*
X250648D01*
X251921Y18669D01*
X253119Y19165D01*
X254197Y19886D01*
X255114Y20803D01*
X255835Y21881D01*
X256331Y23079D01*
X256584Y24351D01*
Y25648D01*
X256331Y26921D01*
X255835Y28119D01*
X255114Y29197D01*
X254197Y30114D01*
X253119Y30835D01*
X251921Y31331D01*
X250648Y31584D01*
D02*
G37*
G36*
X305783Y17626D02*
X302655D01*
Y14695D01*
X305783D01*
Y17626D01*
D02*
G37*
G36*
X302305D02*
X299178D01*
Y14695D01*
X302305D01*
Y17626D01*
D02*
G37*
G36*
X305783Y14345D02*
X302655D01*
Y11414D01*
X305783D01*
Y14345D01*
D02*
G37*
G36*
X302305D02*
X299178D01*
Y11414D01*
X302305D01*
Y14345D01*
D02*
G37*
%LPD*%
G36*
X314634Y27248D02*
Y23775D01*
X305787D01*
Y25504D01*
X301244D01*
X301145Y26004D01*
X301225Y26037D01*
X303693Y28505D01*
X303884Y28967D01*
Y30770D01*
X303693Y31232D01*
X303254Y31672D01*
X302835Y31845D01*
Y32782D01*
X303271Y32934D01*
X308948D01*
X314634Y27248D01*
D02*
G37*
D16*
X362421Y29971D02*
X367327D01*
X366504Y163339D02*
X366504Y163339D01*
X365626Y162461D02*
X366504Y163339D01*
Y163437D01*
Y159098D02*
Y163339D01*
X387750Y104946D02*
X390195Y102500D01*
X439500D01*
X300996Y33715D02*
X301087Y33806D01*
X396563Y57735D02*
Y66514D01*
X397500Y67451D02*
Y67500D01*
X396563Y66514D02*
X397500Y67451D01*
X347571Y87335D02*
X348407Y86499D01*
X334448Y87335D02*
X347571D01*
X334448Y87335D02*
X334448Y87335D01*
X335038Y93782D02*
X350375D01*
X334448Y93192D02*
X335038Y93782D01*
X354312Y93782D02*
X387263D01*
X354312Y93782D02*
X354312Y93782D01*
X334896Y99047D02*
X350375D01*
X334448Y98599D02*
X334896Y99047D01*
X317070Y140847D02*
X317260Y140657D01*
X317070Y140847D02*
Y151602D01*
X317456D01*
X316972Y152087D02*
X317456Y151602D01*
X316880Y152087D02*
X316972D01*
X316859Y152108D02*
X316880Y152087D01*
X389280Y31054D02*
X396563D01*
X359721Y163145D02*
Y163350D01*
Y163145D02*
X360774Y162092D01*
X364059D01*
X364428Y162461D01*
X365626D01*
X366504Y163339D02*
Y163437D01*
X277821Y162111D02*
Y162916D01*
X277831Y162926D02*
X281151D01*
X277821Y162916D02*
X277831Y162926D01*
X364203Y74598D02*
X364605Y75000D01*
X369530D01*
X363986Y74598D02*
X364203D01*
X288311Y50282D02*
X289904D01*
X292244Y47746D02*
Y47943D01*
X289904Y50282D02*
X292244Y47943D01*
X288158Y50436D02*
X288311Y50282D01*
X289043Y50589D02*
X292020Y53565D01*
X288158Y50436D02*
X288311Y50589D01*
X292020Y53565D02*
Y53762D01*
X288311Y50589D02*
X289043D01*
X289000Y60500D02*
Y60697D01*
X289043Y67981D02*
Y68178D01*
X316859Y152108D02*
Y159165D01*
X315213Y160811D02*
X316859Y159165D01*
X315213Y160811D02*
Y160913D01*
X388492Y30266D02*
X389280Y31054D01*
X354312Y99047D02*
X354359Y99094D01*
X358432D02*
X358479Y99141D01*
X354359Y99094D02*
X358432D01*
X357937Y61082D02*
Y65342D01*
X352425Y61082D02*
Y65342D01*
Y56337D02*
Y61082D01*
X351244Y50501D02*
X352425Y51682D01*
Y56337D01*
X370441Y174825D02*
X370441Y174825D01*
X370441Y168752D02*
Y174825D01*
X366390Y158613D02*
Y158984D01*
X366504Y159098D01*
X369969Y150993D02*
Y154661D01*
X286210Y149980D02*
X288083Y151853D01*
X280500Y149980D02*
X280521Y149959D01*
X280856D02*
X280877Y149980D01*
X288083Y151853D02*
Y153148D01*
X280877Y149980D02*
X286210D01*
X280521Y149959D02*
X280856D01*
X303733Y154723D02*
X309955D01*
X310940Y155708D01*
X303733Y137400D02*
X309737D01*
X310721Y136416D01*
X285991Y142215D02*
X287864Y140342D01*
X279995Y142282D02*
X280062Y142215D01*
X287864Y136416D02*
Y140342D01*
X280062Y142215D02*
X285991D01*
X382325Y30266D02*
X388492D01*
X377465Y26329D02*
X382325D01*
X377366Y26231D02*
X377465Y26329D01*
X382177Y30119D02*
X382325Y30266D01*
X377514Y30119D02*
X382177D01*
X377366Y29971D02*
X377514Y30119D01*
X362472Y39424D02*
X373031D01*
X360007Y36959D02*
X362472Y39424D01*
X376969D02*
X377167Y39225D01*
Y34294D02*
Y39225D01*
Y34294D02*
X377366Y34095D01*
Y33711D02*
Y34095D01*
X376969Y42406D02*
X383567Y49004D01*
X376969Y39424D02*
Y42406D01*
X383567Y49004D02*
Y74664D01*
X359810Y36959D02*
X360007D01*
X359909Y37058D02*
X363255Y33711D01*
X328936Y93192D02*
Y98599D01*
Y87335D02*
Y93192D01*
X384329Y22804D02*
X388510D01*
X383309Y22000D02*
X383526D01*
X384329Y22804D01*
X388510D02*
X389280Y23573D01*
X383231Y75000D02*
X383567Y74664D01*
X350665Y39625D02*
X351739Y40699D01*
X349165Y37928D02*
X350665Y39428D01*
X351739Y40699D02*
X351936D01*
X349165Y30819D02*
Y37928D01*
X351936Y40699D02*
Y43319D01*
X350665Y39428D02*
Y39625D01*
X349165Y30819D02*
X350387Y29597D01*
Y25404D02*
Y29597D01*
X354498Y45684D02*
X359118Y50304D01*
X351936Y43319D02*
X354301Y45684D01*
X359118Y50304D02*
Y50501D01*
X354301Y45684D02*
X354498D01*
X359118Y50698D02*
X363920Y55500D01*
X369787D01*
X359118Y50501D02*
Y50698D01*
X357937Y56337D02*
Y61082D01*
Y51682D02*
Y56337D01*
Y51682D02*
X359118Y50501D01*
X315000Y57512D02*
X316146Y56366D01*
X319943Y47648D02*
X320272Y47319D01*
X316146Y51445D02*
X319943Y47648D01*
X312006Y39711D02*
X319614Y47319D01*
X310038Y37743D02*
X312006Y39711D01*
X308069Y35774D02*
X310038Y37743D01*
X319614Y47319D02*
X320272D01*
X300905Y35774D02*
X308069D01*
X300905Y39711D02*
X312006D01*
X300905Y37743D02*
X310038D01*
X292800Y42351D02*
Y43984D01*
X292800Y43984D02*
Y47190D01*
X292244Y47746D02*
X292800Y47190D01*
Y43984D02*
X292800Y43984D01*
X309309Y33806D02*
X319614Y23500D01*
X321681D01*
X301087Y33806D02*
X309309D01*
X297576Y37743D02*
Y40487D01*
X296352Y42664D02*
X296895Y42121D01*
X363255Y33711D02*
X367327D01*
X366914Y25818D02*
X367327Y26231D01*
X359571Y25818D02*
X366914D01*
X359157Y25404D02*
X359571Y25818D01*
X354324Y25404D02*
X359157D01*
X359157Y25404D01*
X359429Y21195D02*
X363138D01*
X359157Y21467D02*
X359429Y21195D01*
X363138D02*
X363291Y21042D01*
D17*
X305469Y177798D02*
Y194009D01*
Y177798D02*
X321677Y161589D01*
X330481D01*
X304288Y177771D02*
Y190190D01*
Y177771D02*
X323035Y159024D01*
X330432D01*
X296838Y192061D02*
X302417D01*
X296757Y191980D02*
X296838Y192061D01*
X330432Y159024D02*
X330681Y158775D01*
X302417Y192061D02*
X304288Y190190D01*
X303705Y195773D02*
X305469Y194009D01*
X297964Y195773D02*
X303705D01*
X296757Y196980D02*
X297964Y195773D01*
X286968Y189179D02*
X287958D01*
X287410Y188631D02*
X287958Y189179D01*
X288328Y195773D02*
X289621Y194480D01*
X281940Y195773D02*
X288328D01*
X280734Y196980D02*
X281940Y195773D01*
X288310Y179785D02*
X289505Y180980D01*
X287958Y179785D02*
X288310D01*
X287709Y179536D02*
X287958Y179785D01*
X287325Y179536D02*
X287709D01*
X284769Y176980D02*
X287325Y179536D01*
X280734Y176980D02*
X284769D01*
X286083Y180980D02*
X287234D01*
X289505D01*
X287234D02*
X289505D01*
X286968Y189179D02*
Y189781D01*
X317050Y132983D02*
Y136510D01*
X317260Y136720D01*
X306224Y173212D02*
X323313Y156124D01*
Y149032D02*
Y156124D01*
X366130Y169458D02*
X366504Y169084D01*
X366130Y174451D02*
X366504Y174825D01*
X366130Y169458D02*
Y174451D01*
X370441Y163339D02*
X372777Y161003D01*
X373789D01*
X371258Y159348D02*
Y159545D01*
X372586Y160873D01*
X370524Y158613D02*
X371258Y159348D01*
X370327Y158613D02*
X370524D01*
X370441Y163339D02*
Y163437D01*
X290515Y175212D02*
X292515Y173212D01*
X306224D01*
X325720Y155720D02*
X325969Y155471D01*
X303871Y176980D02*
X325131Y155720D01*
X296757Y176980D02*
X303871D01*
X325131Y155720D02*
X325720D01*
X292464Y186722D02*
X293076D01*
X290515Y184773D02*
X292464Y186722D01*
X290515Y175212D02*
Y184773D01*
X361221Y155350D02*
X365343D01*
X366032Y154661D01*
X362786Y165841D02*
X367629D01*
X370441Y168654D01*
Y168752D01*
X363000Y152000D02*
X363352D01*
X363624Y151728D01*
X365298D01*
X366032Y150993D01*
X275992Y28559D02*
Y32055D01*
Y28559D02*
X279567D01*
X275619Y32428D02*
X275992Y32055D01*
X296757Y188068D02*
X297964Y186861D01*
X320563Y152341D02*
Y155563D01*
Y152341D02*
X320817Y152087D01*
X280734Y186980D02*
X281658Y187904D01*
X284769Y191980D02*
X286968Y189781D01*
X284769Y186980D02*
X286968Y189179D01*
X280734Y186980D02*
X284769D01*
X280734Y176980D02*
X282505Y175871D01*
X282662Y175773D02*
X285735Y176232D01*
X282662Y175773D02*
X285735Y176232D01*
X280734Y176980D02*
X282662Y175773D01*
X285735Y176232D02*
X285976Y177059D01*
X287234Y180980D02*
X287709Y180504D01*
X280734Y181980D02*
X285976Y181075D01*
X295551Y185773D02*
X296757Y186980D01*
X297964Y186861D02*
X302262D01*
X317260Y136523D02*
Y136720D01*
X328936Y98599D02*
Y98796D01*
X275422Y36340D02*
X275619Y36143D01*
X275422Y36340D02*
Y74578D01*
X283701Y39711D02*
X289094D01*
X283701Y39711D02*
X283701Y39711D01*
X279567Y24846D02*
Y28559D01*
X289094Y20425D02*
X292800D01*
X289094Y26293D02*
X291707Y28905D01*
Y32481D02*
X295000Y35774D01*
X289094Y24362D02*
Y26293D01*
X291707Y28905D02*
Y32481D01*
X298272Y22394D02*
X302480D01*
X296500Y20622D02*
X298272Y22394D01*
X296500Y20425D02*
Y20622D01*
X298441Y26500D02*
X300763D01*
X296500Y24559D02*
X298441Y26500D01*
X296500Y24362D02*
Y24559D01*
X300905Y31837D02*
X301890D01*
X302518Y31209D01*
X302791D01*
X303230Y30770D01*
Y28967D02*
Y30770D01*
X300763Y26500D02*
X303230Y28967D01*
X295741Y27500D02*
X298023D01*
X292800Y24559D02*
X295741Y27500D01*
X292800Y24362D02*
Y24559D01*
X299921Y29869D02*
X300905D01*
X299581Y29528D02*
X299921Y29869D01*
X299581Y29058D02*
Y29528D01*
X298023Y27500D02*
X299581Y29058D01*
X283504Y24846D02*
Y28559D01*
X283701D02*
X285010Y29869D01*
X289094D01*
X283504Y28559D02*
X283701D01*
X279556Y32428D02*
X287520D01*
X279556Y32428D02*
X279556Y32428D01*
X288110Y31837D02*
X289094D01*
X287520Y32428D02*
X288110Y31837D01*
X283701Y35577D02*
Y35774D01*
Y35577D02*
X285472Y33806D01*
X289094D01*
X297756Y47549D02*
X300905Y44399D01*
Y41680D02*
Y44399D01*
X297756Y47549D02*
Y47746D01*
X289094Y35774D02*
X295000D01*
X293032Y37743D02*
X295000Y35774D01*
X289094Y37743D02*
X293032D01*
X291707Y39711D02*
X295000Y36418D01*
X289094Y39711D02*
X291707D01*
X295000Y35774D02*
Y36418D01*
X289094Y41680D02*
X292128D01*
X292800Y42351D01*
D19*
X315000Y56301D02*
D03*
Y73624D02*
D03*
D25*
X310940Y155708D02*
D03*
X288083D02*
D03*
X310721Y136416D02*
D03*
X287864D02*
D03*
D35*
X359810Y36959D02*
D03*
X351936Y33219D02*
D03*
Y40699D02*
D03*
D45*
X321681Y23500D02*
D03*
Y47319D02*
D03*
D46*
X289000Y60500D02*
D03*
X296874D02*
D03*
X348407Y86499D02*
D03*
X356281D02*
D03*
X289043Y68178D02*
D03*
X296917D02*
D03*
X359118Y50501D02*
D03*
X351244D02*
D03*
D47*
X370441Y168752D02*
D03*
Y163437D02*
D03*
X366504Y168752D02*
D03*
Y163437D02*
D03*
D48*
X276756Y162926D02*
D03*
X271244D02*
D03*
X334448Y93192D02*
D03*
X328936D02*
D03*
X334448Y87335D02*
D03*
X328936D02*
D03*
X292020Y53762D02*
D03*
X297532D02*
D03*
X328936Y98599D02*
D03*
X334448D02*
D03*
X266730Y120000D02*
D03*
X272242D02*
D03*
X297756Y47746D02*
D03*
X292244D02*
D03*
X357937Y61082D02*
D03*
X352425D02*
D03*
X357937Y56337D02*
D03*
X352425D02*
D03*
D49*
X407193Y57735D02*
D03*
X396563D02*
D03*
D50*
X295000Y35774D02*
D03*
D51*
X289094Y29869D02*
D03*
Y31837D02*
D03*
Y33806D02*
D03*
Y35774D02*
D03*
Y37743D02*
D03*
Y39711D02*
D03*
Y41680D02*
D03*
X300905D02*
D03*
Y39711D02*
D03*
Y37743D02*
D03*
Y35774D02*
D03*
Y33806D02*
D03*
Y31837D02*
D03*
Y29869D02*
D03*
D52*
X354312Y93782D02*
D03*
X350375D02*
D03*
X283504Y24846D02*
D03*
X279567D02*
D03*
X279556Y32428D02*
D03*
X275619D02*
D03*
X316880Y152087D02*
D03*
X320817D02*
D03*
X350375Y99047D02*
D03*
X354312D02*
D03*
X279556Y36143D02*
D03*
X275619D02*
D03*
X350387Y25404D02*
D03*
X354324D02*
D03*
X279567Y28559D02*
D03*
X283504D02*
D03*
X376969Y39424D02*
D03*
X373031D02*
D03*
X366504Y174825D02*
D03*
X370441D02*
D03*
X370327Y158613D02*
D03*
X366390D02*
D03*
X366032Y150993D02*
D03*
X369969D02*
D03*
X366032Y154661D02*
D03*
X369969D02*
D03*
D53*
X302480Y14520D02*
D03*
Y22394D02*
D03*
X389280Y31054D02*
D03*
Y23180D02*
D03*
D54*
X283701Y35774D02*
D03*
Y39711D02*
D03*
X289094Y24362D02*
D03*
Y20425D02*
D03*
X317260Y140657D02*
D03*
Y136720D02*
D03*
X296500Y24362D02*
D03*
Y20425D02*
D03*
X359157Y21467D02*
D03*
Y25404D02*
D03*
X382325Y26329D02*
D03*
Y30266D02*
D03*
X292800Y20425D02*
D03*
Y24362D02*
D03*
D55*
X369530Y75000D02*
D03*
X383231D02*
D03*
D56*
X367327Y33711D02*
D03*
Y29971D02*
D03*
Y26231D02*
D03*
X377366D02*
D03*
Y29971D02*
D03*
Y33711D02*
D03*
D57*
X296757Y196980D02*
D03*
Y191980D02*
D03*
Y186980D02*
D03*
Y181980D02*
D03*
Y176980D02*
D03*
X280734D02*
D03*
Y181980D02*
D03*
Y186980D02*
D03*
Y191980D02*
D03*
Y196980D02*
D03*
D58*
X383567Y55500D02*
D03*
X369787D02*
D03*
D59*
X416954Y57735D02*
X426175Y48514D01*
Y48514D02*
Y48514D01*
X407193Y57735D02*
X416954D01*
D60*
X296874Y68134D02*
X297383Y68643D01*
Y74381D01*
X296874Y68062D02*
Y68134D01*
X297532Y60500D02*
Y67404D01*
X296874Y68062D02*
X297532Y67404D01*
X355675Y85893D02*
X356281Y86499D01*
X349512Y76012D02*
X355675Y82175D01*
Y85893D01*
X317600Y76012D02*
X349512D01*
X315000Y73412D02*
X317600Y76012D01*
X315000Y72412D02*
Y73412D01*
X275422Y74578D02*
X275619Y74381D01*
X260000Y90000D02*
X275422Y74578D01*
X275619Y74381D02*
X297383D01*
X313032D01*
X314500Y72912D01*
X279556Y36143D02*
X279556Y36143D01*
Y32428D02*
Y36143D01*
X297532Y53762D02*
X297794Y54024D01*
Y54221D01*
X296874Y60500D02*
X297532Y59842D01*
Y54482D02*
Y59842D01*
Y54482D02*
X297794Y54221D01*
D61*
X396563Y18122D02*
Y30859D01*
X391441Y13000D02*
X396563Y18122D01*
Y31054D02*
Y57735D01*
X323748Y23500D02*
X334248Y13000D01*
X391441D01*
X321681Y23500D02*
X323748D01*
D62*
X407193Y57735D02*
Y58247D01*
D63*
X266331Y120399D02*
Y127227D01*
Y120399D02*
X266730Y120000D01*
X266500Y96500D02*
Y119770D01*
X266730Y120000D01*
X260000Y90000D02*
X266500Y96500D01*
X266331Y150975D02*
X270988Y155632D01*
X266331Y127227D02*
Y150475D01*
X270742Y162424D02*
X271244Y162926D01*
X270742Y155878D02*
Y162424D01*
X316146Y51445D02*
Y56366D01*
X302480Y22394D02*
X320575D01*
X321681Y23500D01*
D64*
X414364Y44813D02*
D03*
X437986D02*
D03*
X426175Y48514D02*
D03*
Y60325D02*
D03*
D65*
X439500Y178500D02*
D03*
Y168500D02*
D03*
Y158500D02*
D03*
Y148500D02*
D03*
Y138500D02*
D03*
Y102500D02*
D03*
D66*
Y128500D02*
D03*
Y92500D02*
D03*
D67*
X260000Y90000D02*
D03*
X250000D02*
D03*
D68*
X248000Y134537D02*
D03*
Y144537D02*
D03*
Y154537D02*
D03*
Y164537D02*
D03*
D69*
X235598Y168738D02*
D03*
D70*
X332556Y190190D02*
D03*
D71*
X322556D02*
D03*
X312556D02*
D03*
D72*
X250000Y25000D02*
D03*
Y200000D02*
D03*
X425000D02*
D03*
Y25000D02*
D03*
D73*
X435000Y165000D02*
D03*
Y135000D02*
D03*
X442500Y120000D02*
D03*
X435000Y75000D02*
D03*
X442500Y60000D02*
D03*
Y30000D02*
D03*
X435000Y15000D02*
D03*
X420000Y135000D02*
D03*
X427500Y120000D02*
D03*
X420000Y105000D02*
D03*
Y45000D02*
D03*
Y15000D02*
D03*
X412500Y180000D02*
D03*
X405000Y135000D02*
D03*
X412500Y120000D02*
D03*
Y90000D02*
D03*
X405000Y45000D02*
D03*
X412500Y30000D02*
D03*
X405000Y15000D02*
D03*
X397500Y180000D02*
D03*
X390000Y135000D02*
D03*
X397500Y120000D02*
D03*
Y90000D02*
D03*
X390000Y75000D02*
D03*
Y45000D02*
D03*
X382500Y180000D02*
D03*
X375000Y165000D02*
D03*
X382500Y120000D02*
D03*
Y90000D02*
D03*
X375000Y75000D02*
D03*
X367500Y90000D02*
D03*
X360000Y75000D02*
D03*
Y45000D02*
D03*
X352500Y180000D02*
D03*
X345000Y45000D02*
D03*
X337500Y180000D02*
D03*
Y120000D02*
D03*
X330000Y105000D02*
D03*
X337500Y60000D02*
D03*
Y30000D02*
D03*
X322500Y90000D02*
D03*
Y60000D02*
D03*
X315000Y15000D02*
D03*
X300000Y165000D02*
D03*
X307500Y120000D02*
D03*
Y60000D02*
D03*
Y30000D02*
D03*
X292500Y120000D02*
D03*
X285000Y105000D02*
D03*
X292500Y90000D02*
D03*
X285000Y45000D02*
D03*
Y15000D02*
D03*
X270000Y135000D02*
D03*
X277500Y120000D02*
D03*
X270000Y105000D02*
D03*
X277500Y90000D02*
D03*
X270000Y75000D02*
D03*
Y45000D02*
D03*
Y15000D02*
D03*
X262500Y180000D02*
D03*
X255000Y165000D02*
D03*
Y135000D02*
D03*
X262500Y120000D02*
D03*
X255000Y105000D02*
D03*
Y75000D02*
D03*
X262500Y60000D02*
D03*
X255000Y45000D02*
D03*
X262500Y30000D02*
D03*
X255000Y15000D02*
D03*
X247500Y180000D02*
D03*
X240000Y135000D02*
D03*
X247500Y120000D02*
D03*
X240000Y105000D02*
D03*
Y75000D02*
D03*
X247500Y60000D02*
D03*
X240000Y45000D02*
D03*
Y15000D02*
D03*
D74*
X317205Y92771D02*
D03*
X387750Y104946D02*
D03*
X340242Y162407D02*
D03*
X327547Y135916D02*
D03*
X387434Y93929D02*
D03*
X312975Y101040D02*
D03*
X397500Y67500D02*
D03*
X360365Y191543D02*
D03*
X317050Y132983D02*
D03*
X323313Y149032D02*
D03*
X351891Y175774D02*
D03*
X366130Y172050D02*
D03*
X373789Y161003D02*
D03*
X369435Y123706D02*
D03*
X363000Y152000D02*
D03*
X361221Y155350D02*
D03*
X359721Y163350D02*
D03*
X330681Y158775D02*
D03*
X266331Y127227D02*
D03*
X281151Y162926D02*
D03*
X270988Y155632D02*
D03*
X379486Y182598D02*
D03*
X391072Y78658D02*
D03*
X363986Y74598D02*
D03*
X288158Y50436D02*
D03*
X294608Y31250D02*
D03*
X295986Y36565D02*
D03*
X293786Y40244D02*
D03*
X275992Y28559D02*
D03*
X369140Y97869D02*
D03*
X320563Y155563D02*
D03*
X315213Y160913D02*
D03*
X325969Y155471D02*
D03*
X330481Y161589D02*
D03*
X289621Y194480D02*
D03*
X379000Y194307D02*
D03*
X358479Y99141D02*
D03*
X357986Y65098D02*
D03*
X352425Y65342D02*
D03*
X287958Y179785D02*
D03*
Y189179D02*
D03*
X362786Y165841D02*
D03*
X357806Y159091D02*
D03*
X358376Y134952D02*
D03*
X280486Y149805D02*
D03*
X279995Y142282D02*
D03*
X300253Y103994D02*
D03*
X383309Y22000D02*
D03*
X308193Y112000D02*
D03*
X301972Y108567D02*
D03*
X362421Y29971D02*
D03*
X363291Y21042D02*
D03*
D75*
X295071Y137400D02*
D03*
X299402D02*
D03*
X303733D02*
D03*
X295071Y141731D02*
D03*
X299402D02*
D03*
X303733D02*
D03*
X295071Y146062D02*
D03*
X299402D02*
D03*
X303733D02*
D03*
X295071Y150393D02*
D03*
X299402D02*
D03*
X303733D02*
D03*
X295071Y154723D02*
D03*
X299402D02*
D03*
X303733D02*
D03*
X349496Y139279D02*
D03*
Y143610D02*
D03*
Y147941D02*
D03*
Y152271D02*
D03*
X345165Y139279D02*
D03*
Y143610D02*
D03*
Y147941D02*
D03*
Y152271D02*
D03*
X340835Y139279D02*
D03*
Y143610D02*
D03*
Y147941D02*
D03*
Y152271D02*
D03*
X336504Y139279D02*
D03*
Y143610D02*
D03*
Y147941D02*
D03*
Y152271D02*
D03*
M02*
