G04*
G04 #@! TF.GenerationSoftware,Altium Limited,Altium Designer,21.5.1 (32)*
G04*
G04 Layer_Color=8388736*
%FSLAX25Y25*%
%MOIN*%
G70*
G04*
G04 #@! TF.SameCoordinates,C11210EE-706E-4053-A979-2A702EC27353*
G04*
G04*
G04 #@! TF.FilePolarity,Negative*
G04*
G01*
G75*
%ADD18R,0.07382X0.09874*%
%ADD19R,0.07874X0.05512*%
%ADD20R,0.13976X0.09843*%
%ADD21R,0.06102X0.06496*%
%ADD22R,0.03347X0.03543*%
%ADD23R,0.03740X0.04134*%
%ADD24R,0.04921X0.07284*%
%ADD25R,0.04747X0.12598*%
%ADD26R,0.07677X0.13976*%
%ADD27R,0.03740X0.01772*%
%ADD28R,0.02953X0.02559*%
%ADD29R,0.06496X0.06102*%
%ADD30R,0.02559X0.02953*%
%ADD31R,0.04410X0.03150*%
G04:AMPARAMS|DCode=32|XSize=27.56mil|YSize=37.4mil|CornerRadius=4.9mil|HoleSize=0mil|Usage=FLASHONLY|Rotation=90.000|XOffset=0mil|YOffset=0mil|HoleType=Round|Shape=RoundedRectangle|*
%AMROUNDEDRECTD32*
21,1,0.02756,0.02760,0,0,90.0*
21,1,0.01776,0.03740,0,0,90.0*
1,1,0.00980,0.01380,0.00888*
1,1,0.00980,0.01380,-0.00888*
1,1,0.00980,-0.01380,-0.00888*
1,1,0.00980,-0.01380,0.00888*
%
%ADD32ROUNDEDRECTD32*%
%ADD33R,0.11575X0.03504*%
%ADD34R,0.08465X0.21457*%
%ADD35R,0.03543X0.03150*%
%ADD36C,0.06969*%
%ADD37C,0.07087*%
%ADD38R,0.07087X0.07087*%
%ADD39C,0.05315*%
%ADD40C,0.08091*%
%ADD41C,0.04638*%
%ADD42R,0.06496X0.06496*%
%ADD43C,0.06496*%
%ADD44C,0.11791*%
D18*
X367931Y166323D02*
D03*
D19*
X315000Y56301D02*
D03*
Y73624D02*
D03*
D20*
X321681Y23500D02*
D03*
Y47319D02*
D03*
D21*
X289000Y60500D02*
D03*
X296874D02*
D03*
X348407Y86499D02*
D03*
X356281D02*
D03*
X289043Y68178D02*
D03*
X296917D02*
D03*
X359118Y50501D02*
D03*
X351244D02*
D03*
D22*
X370441Y168752D02*
D03*
Y163437D02*
D03*
X366504Y168752D02*
D03*
Y163437D02*
D03*
D23*
X276756Y162926D02*
D03*
X271244D02*
D03*
X334448Y93192D02*
D03*
X328936D02*
D03*
X334448Y87335D02*
D03*
X328936D02*
D03*
X292020Y53762D02*
D03*
X297532D02*
D03*
X328936Y98599D02*
D03*
X334448D02*
D03*
X266730Y120000D02*
D03*
X272242D02*
D03*
X297756Y47746D02*
D03*
X292244D02*
D03*
X357937Y61082D02*
D03*
X352425D02*
D03*
X357937Y56337D02*
D03*
X352425D02*
D03*
D24*
X407193Y57735D02*
D03*
X396563D02*
D03*
D25*
X310940Y155708D02*
D03*
X288083D02*
D03*
X310721Y136416D02*
D03*
X287864D02*
D03*
D26*
X295000Y35774D02*
D03*
D27*
X289094Y29869D02*
D03*
Y31837D02*
D03*
Y33806D02*
D03*
Y35774D02*
D03*
Y37743D02*
D03*
Y39711D02*
D03*
Y41680D02*
D03*
X300905D02*
D03*
Y39711D02*
D03*
Y37743D02*
D03*
Y35774D02*
D03*
Y33806D02*
D03*
Y31837D02*
D03*
Y29869D02*
D03*
D28*
X354312Y93782D02*
D03*
X350375D02*
D03*
X283504Y24846D02*
D03*
X279567D02*
D03*
X279556Y32428D02*
D03*
X275619D02*
D03*
X316880Y152087D02*
D03*
X320817D02*
D03*
X350375Y99047D02*
D03*
X354312D02*
D03*
X279556Y36143D02*
D03*
X275619D02*
D03*
X350387Y25404D02*
D03*
X354324D02*
D03*
X279567Y28559D02*
D03*
X283504D02*
D03*
X376969Y39424D02*
D03*
X373031D02*
D03*
X366504Y174825D02*
D03*
X370441D02*
D03*
X370327Y158613D02*
D03*
X366390D02*
D03*
X366032Y150993D02*
D03*
X369969D02*
D03*
X366032Y154661D02*
D03*
X369969D02*
D03*
D29*
X302480Y14520D02*
D03*
Y22394D02*
D03*
X389280Y31054D02*
D03*
Y23180D02*
D03*
D30*
X283701Y35774D02*
D03*
Y39711D02*
D03*
X289094Y24362D02*
D03*
Y20425D02*
D03*
X317260Y140657D02*
D03*
Y136720D02*
D03*
X296500Y24362D02*
D03*
Y20425D02*
D03*
X359157Y21467D02*
D03*
Y25404D02*
D03*
X382325Y26329D02*
D03*
Y30266D02*
D03*
X292800Y20425D02*
D03*
Y24362D02*
D03*
D31*
X369530Y75000D02*
D03*
X383231D02*
D03*
D32*
X367327Y33711D02*
D03*
Y29971D02*
D03*
Y26231D02*
D03*
X377366D02*
D03*
Y29971D02*
D03*
Y33711D02*
D03*
D33*
X296757Y196980D02*
D03*
Y191980D02*
D03*
Y186980D02*
D03*
Y181980D02*
D03*
Y176980D02*
D03*
X280734D02*
D03*
Y181980D02*
D03*
Y186980D02*
D03*
Y191980D02*
D03*
Y196980D02*
D03*
D34*
X383567Y55500D02*
D03*
X369787D02*
D03*
D35*
X359810Y36959D02*
D03*
X351936Y33219D02*
D03*
Y40699D02*
D03*
D36*
X414364Y44813D02*
D03*
X437986D02*
D03*
X426175Y48514D02*
D03*
Y60325D02*
D03*
D37*
X439500Y178500D02*
D03*
Y168500D02*
D03*
Y158500D02*
D03*
Y148500D02*
D03*
Y138500D02*
D03*
Y102500D02*
D03*
D38*
Y128500D02*
D03*
Y92500D02*
D03*
D39*
X260000Y90000D02*
D03*
X250000D02*
D03*
D40*
X248000Y134537D02*
D03*
Y144537D02*
D03*
Y154537D02*
D03*
Y164537D02*
D03*
D41*
X235598Y168738D02*
D03*
D42*
X332556Y190190D02*
D03*
D43*
X322556D02*
D03*
X312556D02*
D03*
D44*
X250000Y25000D02*
D03*
Y200000D02*
D03*
X425000D02*
D03*
Y25000D02*
D03*
M02*
