G04*
G04 #@! TF.GenerationSoftware,Altium Limited,Altium Designer,21.5.1 (32)*
G04*
G04 Layer_Physical_Order=4*
G04 Layer_Color=16711680*
%FSLAX25Y25*%
%MOIN*%
G70*
G04*
G04 #@! TF.SameCoordinates,C11210EE-706E-4053-A979-2A702EC27353*
G04*
G04*
G04 #@! TF.FilePolarity,Positive*
G04*
G01*
G75*
%ADD16C,0.01000*%
%ADD17C,0.00500*%
%ADD35R,0.03543X0.03150*%
%ADD46R,0.05512X0.05906*%
%ADD48R,0.03150X0.03543*%
%ADD52R,0.02362X0.01968*%
%ADD54R,0.01968X0.02362*%
%ADD64C,0.06378*%
%ADD65C,0.06496*%
%ADD66R,0.06496X0.06496*%
%ADD67C,0.04724*%
%ADD68C,0.07500*%
%ADD69C,0.04047*%
%ADD70R,0.05906X0.05906*%
%ADD71C,0.05906*%
%ADD72C,0.11200*%
%ADD73C,0.03000*%
%ADD74C,0.01800*%
%ADD75C,0.01968*%
%ADD90R,0.05906X0.05906*%
%ADD91R,0.05906X0.04724*%
%ADD92R,0.05906X0.12992*%
G04:AMPARAMS|DCode=93|XSize=13.78mil|YSize=49.21mil|CornerRadius=2mil|HoleSize=0mil|Usage=FLASHONLY|Rotation=270.000|XOffset=0mil|YOffset=0mil|HoleType=Round|Shape=RoundedRectangle|*
%AMROUNDEDRECTD93*
21,1,0.01378,0.04522,0,0,270.0*
21,1,0.00978,0.04921,0,0,270.0*
1,1,0.00400,-0.02261,-0.00489*
1,1,0.00400,-0.02261,0.00489*
1,1,0.00400,0.02261,0.00489*
1,1,0.00400,0.02261,-0.00489*
%
%ADD93ROUNDEDRECTD93*%
G04:AMPARAMS|DCode=94|XSize=122.05mil|YSize=203.94mil|CornerRadius=1.83mil|HoleSize=0mil|Usage=FLASHONLY|Rotation=0.000|XOffset=0mil|YOffset=0mil|HoleType=Round|Shape=RoundedRectangle|*
%AMROUNDEDRECTD94*
21,1,0.12205,0.20028,0,0,0.0*
21,1,0.11839,0.20394,0,0,0.0*
1,1,0.00366,0.05919,-0.10014*
1,1,0.00366,-0.05919,-0.10014*
1,1,0.00366,-0.05919,0.10014*
1,1,0.00366,0.05919,0.10014*
%
%ADD94ROUNDEDRECTD94*%
%ADD95R,0.01378X0.02264*%
%ADD96R,0.02264X0.01378*%
G04:AMPARAMS|DCode=97|XSize=51.18mil|YSize=23.62mil|CornerRadius=2.01mil|HoleSize=0mil|Usage=FLASHONLY|Rotation=270.000|XOffset=0mil|YOffset=0mil|HoleType=Round|Shape=RoundedRectangle|*
%AMROUNDEDRECTD97*
21,1,0.05118,0.01961,0,0,270.0*
21,1,0.04717,0.02362,0,0,270.0*
1,1,0.00402,-0.00980,-0.02358*
1,1,0.00402,-0.00980,0.02358*
1,1,0.00402,0.00980,0.02358*
1,1,0.00402,0.00980,-0.02358*
%
%ADD97ROUNDEDRECTD97*%
%ADD98O,0.00787X0.03740*%
%ADD99O,0.03740X0.00787*%
%ADD100R,0.18110X0.18110*%
%ADD101R,0.08661X0.04134*%
%ADD102R,0.04134X0.03937*%
%ADD103C,0.00578*%
G36*
X243416Y200116D02*
Y199352D01*
X243669Y198079D01*
X244165Y196881D01*
X244886Y195803D01*
X245803Y194886D01*
X246881Y194165D01*
X248079Y193669D01*
X249352Y193416D01*
X250648D01*
X251921Y193669D01*
X253119Y194165D01*
X254197Y194886D01*
X255114Y195803D01*
X255835Y196881D01*
X256331Y198079D01*
X256584Y199352D01*
Y200116D01*
X345100Y200116D01*
Y198072D01*
X344417D01*
Y195001D01*
X347094D01*
Y198072D01*
X346412D01*
Y200116D01*
X418416Y200116D01*
Y199352D01*
X418669Y198079D01*
X419165Y196881D01*
X419886Y195803D01*
X420803Y194886D01*
X421881Y194165D01*
X423079Y193669D01*
X424352Y193416D01*
X425648D01*
X426921Y193669D01*
X428119Y194165D01*
X429197Y194886D01*
X430114Y195803D01*
X430835Y196881D01*
X431331Y198079D01*
X431584Y199352D01*
Y200116D01*
X449197D01*
Y803D01*
X225803D01*
Y200116D01*
X243416D01*
D02*
G37*
%LPC*%
G36*
X370463Y196724D02*
X365957D01*
Y194482D01*
X370463D01*
Y196724D01*
D02*
G37*
G36*
X289900Y195880D02*
X289343D01*
X288828Y195667D01*
X288435Y195273D01*
X288221Y194758D01*
Y194201D01*
X288435Y193687D01*
X288828Y193293D01*
X289343Y193080D01*
X289900D01*
X290415Y193293D01*
X290808Y193687D01*
X291021Y194201D01*
Y194758D01*
X290808Y195273D01*
X290415Y195667D01*
X289900Y195880D01*
D02*
G37*
G36*
X375319Y196724D02*
X370813D01*
Y194307D01*
Y191890D01*
X375319D01*
Y193436D01*
X379000D01*
X379333Y193502D01*
X379616Y193691D01*
X379805Y193974D01*
X379871Y194307D01*
X379805Y194640D01*
X379616Y194923D01*
X379333Y195112D01*
X379000Y195178D01*
X375319D01*
Y196724D01*
D02*
G37*
G36*
X370463Y194132D02*
X365957D01*
Y191890D01*
X370463D01*
Y194132D01*
D02*
G37*
G36*
X355168Y192878D02*
X353811D01*
Y191718D01*
X355168D01*
Y192878D01*
D02*
G37*
G36*
X335858Y193492D02*
X332731D01*
Y190365D01*
X335858D01*
Y193492D01*
D02*
G37*
G36*
X332381D02*
X329253D01*
Y190365D01*
X332381D01*
Y193492D01*
D02*
G37*
G36*
X356874Y192878D02*
X355518D01*
Y191543D01*
Y190209D01*
X356874D01*
Y190889D01*
X360365D01*
X360827Y191081D01*
X361019Y191543D01*
X360827Y192006D01*
X360365Y192197D01*
X356874D01*
Y192878D01*
D02*
G37*
G36*
X355168Y191368D02*
X353811D01*
Y190209D01*
X355168D01*
Y191368D01*
D02*
G37*
G36*
X347094Y194135D02*
X344417D01*
Y191064D01*
X345100D01*
Y190429D01*
X344417D01*
Y187358D01*
X347094D01*
Y189502D01*
X347785Y190192D01*
X350710D01*
X350774Y190205D01*
X352941D01*
Y192882D01*
X349870D01*
Y191504D01*
X347513D01*
X347094Y191897D01*
Y194135D01*
D02*
G37*
G36*
X335858Y190015D02*
X332731D01*
Y186887D01*
X335858D01*
Y190015D01*
D02*
G37*
G36*
X332381D02*
X329253D01*
Y186887D01*
X332381D01*
Y190015D01*
D02*
G37*
G36*
X367055Y190823D02*
X362213D01*
Y187105D01*
X358841Y183733D01*
X356878D01*
Y184415D01*
X353807D01*
Y181738D01*
X356878D01*
Y182421D01*
X359112D01*
X359363Y182471D01*
X359576Y182613D01*
X363141Y186177D01*
X367055D01*
Y190823D01*
D02*
G37*
G36*
X370463Y185110D02*
X365957D01*
Y182868D01*
X370463D01*
Y185110D01*
D02*
G37*
G36*
X439974Y182102D02*
X439026D01*
X438109Y181857D01*
X437288Y181383D01*
X436825Y180920D01*
X436631Y181114D01*
X436348Y181303D01*
X436015Y181369D01*
X424832D01*
Y182034D01*
X422155D01*
Y178963D01*
X424832D01*
Y179627D01*
X435654D01*
X435984Y179297D01*
X435898Y178974D01*
Y178026D01*
X436143Y177110D01*
X436617Y176288D01*
X437288Y175617D01*
X438109Y175143D01*
X439026Y174898D01*
X439974D01*
X440891Y175143D01*
X441712Y175617D01*
X442383Y176288D01*
X442857Y177110D01*
X443102Y178026D01*
Y178974D01*
X442857Y179891D01*
X442383Y180712D01*
X441712Y181383D01*
X440891Y181857D01*
X439974Y182102D01*
D02*
G37*
G36*
X420334Y182108D02*
X419175D01*
Y180752D01*
X420334D01*
Y182108D01*
D02*
G37*
G36*
X418825D02*
X417666D01*
Y180752D01*
X418825D01*
Y182108D01*
D02*
G37*
G36*
X375319Y185110D02*
X370813D01*
Y182693D01*
Y180276D01*
X375319D01*
Y181727D01*
X379486D01*
X379819Y181793D01*
X380102Y181982D01*
X380291Y182264D01*
X380357Y182598D01*
X380291Y182931D01*
X380102Y183214D01*
X379819Y183403D01*
X379486Y183469D01*
X375319D01*
Y185110D01*
D02*
G37*
G36*
X370463Y182518D02*
X365957D01*
Y180276D01*
X370463D01*
Y182518D01*
D02*
G37*
G36*
X420334Y180402D02*
X419175D01*
Y179045D01*
X420334D01*
Y180402D01*
D02*
G37*
G36*
X418825D02*
X417666D01*
Y179045D01*
X418825D01*
Y180402D01*
D02*
G37*
G36*
X322991Y193497D02*
X322120D01*
X321279Y193271D01*
X320525Y192836D01*
X319909Y192220D01*
X319474Y191466D01*
X319249Y190625D01*
Y189754D01*
X319474Y188913D01*
X319909Y188159D01*
X320525Y187543D01*
X321279Y187108D01*
X321902Y186941D01*
Y178725D01*
X321440Y178533D01*
X314154Y185819D01*
Y187294D01*
X314586Y187543D01*
X315202Y188159D01*
X315637Y188913D01*
X315863Y189754D01*
Y190625D01*
X315637Y191466D01*
X315202Y192220D01*
X314586Y192836D01*
X313832Y193271D01*
X312991Y193497D01*
X312120D01*
X311279Y193271D01*
X310525Y192836D01*
X309909Y192220D01*
X309474Y191466D01*
X309249Y190625D01*
Y189754D01*
X309474Y188913D01*
X309909Y188159D01*
X310525Y187543D01*
X311279Y187108D01*
X312120Y186883D01*
X312846D01*
Y185548D01*
X313037Y185085D01*
X333229Y164893D01*
X333022Y164393D01*
X326221D01*
X325758Y164202D01*
X320973Y159417D01*
X316404D01*
X316197Y159917D01*
X316400Y160119D01*
X316613Y160634D01*
Y161191D01*
X316400Y161706D01*
X316006Y162099D01*
X315491Y162312D01*
X315248D01*
X315004Y162635D01*
X314959Y162675D01*
X314925Y162726D01*
X314339Y163312D01*
X314057Y163500D01*
X313723Y163567D01*
X313423D01*
X313406Y163609D01*
X312982Y163785D01*
X310718D01*
Y164299D01*
X310652Y164632D01*
X310463Y164915D01*
X308004Y167374D01*
X308130Y167874D01*
X308973D01*
Y172126D01*
X305115D01*
Y170871D01*
X303368D01*
Y171339D01*
X300297D01*
Y168661D01*
X303368D01*
Y169129D01*
X305115D01*
Y167874D01*
X306173D01*
Y167102D01*
X306239Y166769D01*
X306428Y166486D01*
X308630Y164285D01*
X308460Y163785D01*
X308036Y163609D01*
X307860Y163185D01*
Y162207D01*
X308036Y161783D01*
X308267Y161687D01*
Y161146D01*
X308036Y161050D01*
X307860Y160626D01*
Y159648D01*
X308036Y159223D01*
X308267Y159128D01*
Y158587D01*
X308036Y158491D01*
X307860Y158067D01*
Y157088D01*
X308036Y156664D01*
X308267Y156569D01*
Y156027D01*
X308036Y155932D01*
X307860Y155508D01*
Y154529D01*
X308036Y154105D01*
X308267Y154010D01*
Y153469D01*
X308036Y153373D01*
X307860Y152949D01*
Y151970D01*
X308036Y151546D01*
X308267Y151451D01*
Y150909D01*
X308036Y150814D01*
X307860Y150390D01*
Y149411D01*
X308036Y148987D01*
X308267Y148892D01*
Y148350D01*
X308036Y148255D01*
X307860Y147831D01*
Y146852D01*
X308036Y146428D01*
X308267Y146333D01*
Y145791D01*
X308036Y145696D01*
X307860Y145272D01*
Y144293D01*
X308036Y143869D01*
X308267Y143773D01*
Y143232D01*
X308036Y143137D01*
X307860Y142712D01*
Y141734D01*
X308036Y141310D01*
X308267Y141214D01*
Y140673D01*
X308036Y140578D01*
X307860Y140153D01*
Y139175D01*
X308036Y138751D01*
X308267Y138655D01*
Y138114D01*
X308036Y138019D01*
X307860Y137594D01*
Y136616D01*
X308036Y136192D01*
X308267Y136096D01*
Y135555D01*
X308036Y135459D01*
X307860Y135035D01*
Y134057D01*
X308036Y133633D01*
X308267Y133537D01*
Y132996D01*
X308036Y132900D01*
X307860Y132476D01*
Y131498D01*
X308036Y131074D01*
X308276Y130974D01*
Y130436D01*
X308039Y130338D01*
X307865Y129917D01*
Y129603D01*
X310721D01*
X313577D01*
Y129917D01*
X313403Y130338D01*
X313165Y130436D01*
Y130974D01*
X313406Y131074D01*
X313536Y131388D01*
X316107D01*
X316569Y131579D01*
X316631Y131641D01*
X316771Y131583D01*
X317328D01*
X317843Y131796D01*
X318236Y132190D01*
X318450Y132705D01*
Y133127D01*
X318830Y133507D01*
X333576D01*
Y132685D01*
X333634Y132393D01*
X333799Y132145D01*
X333852Y131548D01*
X327240Y124936D01*
X327240Y124936D01*
X309855Y107551D01*
X309663Y107088D01*
Y106119D01*
X309520D01*
Y105504D01*
X309441Y105036D01*
X309020Y105036D01*
X306469D01*
Y102950D01*
Y98641D01*
X302437D01*
X302281Y98797D01*
Y101593D01*
X300907D01*
Y102750D01*
X301046Y102807D01*
X301440Y103201D01*
X301653Y103716D01*
Y104273D01*
X301440Y104787D01*
X301046Y105181D01*
X300532Y105394D01*
X299975D01*
X299460Y105181D01*
X299066Y104787D01*
X298853Y104273D01*
Y103716D01*
X299066Y103201D01*
X299460Y102807D01*
X299599Y102750D01*
Y101593D01*
X298029D01*
Y97734D01*
X301493D01*
X301704Y97524D01*
X302166Y97332D01*
X306469D01*
Y97044D01*
X309441Y97044D01*
X309524Y96579D01*
Y95966D01*
X310088D01*
X310219Y95912D01*
X310349Y95966D01*
X310388D01*
Y97448D01*
Y98930D01*
X309941D01*
X309524Y98930D01*
X309441Y99395D01*
Y102679D01*
X309490Y102973D01*
X309859Y103147D01*
X309941D01*
X315543D01*
X315626Y102681D01*
Y102199D01*
X317108D01*
X318590D01*
Y102950D01*
X318595D01*
Y105036D01*
X317516D01*
Y108633D01*
X330332Y121448D01*
X330332Y121448D01*
X340847Y131964D01*
X340930Y131980D01*
X341177Y132145D01*
X341673D01*
X341921Y131980D01*
X342213Y131922D01*
X342505Y131980D01*
X342752Y132145D01*
X343248D01*
X343495Y131980D01*
X343787Y131922D01*
X344079Y131980D01*
X344208Y132066D01*
X344614Y131919D01*
X344708Y131845D01*
Y107067D01*
X344678Y106579D01*
X342001D01*
Y105304D01*
X340581D01*
X340545Y105340D01*
Y106579D01*
X336293D01*
Y102720D01*
X340545D01*
Y103996D01*
X342001D01*
Y103508D01*
X344678D01*
Y104669D01*
X345825Y105816D01*
X346016Y106278D01*
Y119715D01*
X346322Y119846D01*
X346516Y119869D01*
X363720Y102665D01*
X364182Y102474D01*
X372508D01*
Y100662D01*
X375185D01*
Y102474D01*
X376996D01*
Y101161D01*
X380067D01*
Y103839D01*
X376996D01*
Y103782D01*
X374581D01*
X374461Y103732D01*
X373233D01*
X373113Y103782D01*
X364453D01*
X358051Y110184D01*
X358243Y110646D01*
X359881D01*
Y113323D01*
X357732D01*
X357612Y113373D01*
X356517D01*
X349166Y120724D01*
Y124646D01*
X349472Y124776D01*
X349666Y124799D01*
X355594Y118871D01*
X356057Y118679D01*
X356626D01*
Y117261D01*
X359697D01*
Y119938D01*
X357547D01*
X357427Y119987D01*
X356328D01*
X353425Y122890D01*
X353617Y123352D01*
X356043D01*
Y127604D01*
X352373D01*
Y132427D01*
X352424Y132685D01*
Y135637D01*
X352378Y135870D01*
X352405Y136370D01*
X352905Y136397D01*
X353138Y136351D01*
X355747D01*
X356976Y135122D01*
Y134673D01*
X357189Y134159D01*
X357583Y133765D01*
X358098Y133552D01*
X358655D01*
X358794Y133609D01*
X359163Y133240D01*
X359625Y133049D01*
X363569D01*
Y127693D01*
X369790D01*
Y134307D01*
X364294D01*
X364174Y134357D01*
X360187D01*
X359776Y134673D01*
Y135230D01*
X359563Y135745D01*
X359169Y136139D01*
X358655Y136352D01*
X358098D01*
X357744Y136205D01*
X356850Y137099D01*
X356853Y137114D01*
X356795Y137406D01*
X356709Y137534D01*
X356856Y137940D01*
X356931Y138034D01*
X361445D01*
Y137050D01*
X365303D01*
Y141302D01*
X365737Y141463D01*
X366524D01*
X366957Y141302D01*
X366957Y140963D01*
Y137050D01*
X369877D01*
X369961Y137033D01*
X380586D01*
Y135882D01*
X383263D01*
Y138953D01*
X380586D01*
Y138775D01*
X370815D01*
X370815Y141302D01*
X371249Y141463D01*
X374252D01*
Y139772D01*
X378504D01*
Y141047D01*
X380586D01*
Y139819D01*
X383263D01*
Y142890D01*
X380586D01*
Y142355D01*
X378504D01*
Y143630D01*
X374252D01*
Y142771D01*
X360015D01*
X359552Y142579D01*
X357891Y140918D01*
X356925D01*
X356846Y141019D01*
X356704Y141418D01*
X356791Y141548D01*
X356814Y141663D01*
X354614D01*
Y142013D01*
X356814D01*
X356791Y142128D01*
X356675Y142302D01*
X356628Y142543D01*
X356630Y142874D01*
X356795Y143121D01*
X356853Y143413D01*
X356795Y143705D01*
X356709Y143834D01*
X356856Y144240D01*
X356931Y144334D01*
X369022D01*
X369485Y144525D01*
X373756Y148797D01*
X374256Y148590D01*
Y147388D01*
X376203D01*
Y149138D01*
X374804D01*
X374597Y149638D01*
X374992Y150033D01*
X375129D01*
X375140Y150028D01*
X414256D01*
X417606Y146677D01*
X417662Y146655D01*
Y144673D01*
X420339D01*
Y145555D01*
X422008D01*
X422155Y145093D01*
Y144673D01*
X424832D01*
Y146876D01*
X424882Y146996D01*
X424832Y147116D01*
Y147744D01*
X422155D01*
Y146863D01*
X422008D01*
X422008Y146863D01*
X420339D01*
Y147744D01*
X418390D01*
X418019Y148115D01*
X418226Y148615D01*
X418825D01*
Y149971D01*
X417666D01*
Y149175D01*
X417166Y148968D01*
X414989Y151145D01*
X414527Y151336D01*
X376226D01*
X376034Y151798D01*
X379253Y155017D01*
X418266D01*
X418386Y155067D01*
X420339D01*
Y155948D01*
X422155D01*
Y155067D01*
X424832D01*
Y158138D01*
X422155D01*
Y157257D01*
X420339D01*
Y158138D01*
X417662D01*
Y156326D01*
X379069D01*
X378900Y156565D01*
X378824Y156788D01*
X387638Y165602D01*
X417662D01*
Y164720D01*
X420339D01*
Y165602D01*
X422155D01*
Y164720D01*
X424832D01*
Y166923D01*
X424882Y167043D01*
X424832Y167163D01*
Y167791D01*
X422155D01*
Y166910D01*
X420339D01*
Y167791D01*
X417662D01*
Y166910D01*
X388115D01*
X387924Y167372D01*
X395606Y175054D01*
X418266D01*
X418386Y175104D01*
X420339D01*
Y175907D01*
X422155D01*
Y175026D01*
X424832D01*
Y178096D01*
X422155D01*
Y177215D01*
X420339D01*
Y178175D01*
X417662D01*
Y176363D01*
X395335D01*
X394873Y176171D01*
X369068Y150366D01*
X364000D01*
X363884Y150617D01*
X363846Y150866D01*
X364187Y151207D01*
X364400Y151722D01*
Y152278D01*
X364187Y152793D01*
X363793Y153187D01*
X363279Y153400D01*
X362721D01*
X362493Y153305D01*
X362057Y153486D01*
X361585D01*
X361499Y153950D01*
X362014Y154163D01*
X362408Y154557D01*
X362621Y155071D01*
Y155629D01*
X362408Y156143D01*
X362043Y156507D01*
X362056Y156652D01*
X362185Y157007D01*
X365303D01*
Y161259D01*
X361445D01*
Y159745D01*
X359051D01*
X358993Y159884D01*
X358599Y160277D01*
X358085Y160491D01*
X357528D01*
X357013Y160277D01*
X356620Y159884D01*
X356406Y159369D01*
Y158812D01*
X356464Y158673D01*
X355834Y158044D01*
X352424D01*
Y158866D01*
X352366Y159158D01*
X352201Y159405D01*
X352214Y159990D01*
X354672Y162447D01*
X358644D01*
X358928Y162163D01*
X359442Y161950D01*
X359999D01*
X360514Y162163D01*
X360908Y162557D01*
X361121Y163072D01*
Y163628D01*
X360908Y164143D01*
X360514Y164537D01*
X360278Y164635D01*
X360378Y165135D01*
X361563D01*
X361599Y165049D01*
X361993Y164655D01*
X362507Y164442D01*
X363064D01*
X363579Y164655D01*
X363972Y165049D01*
X364186Y165563D01*
Y166120D01*
X363972Y166635D01*
X363579Y167028D01*
X363064Y167242D01*
X362507D01*
X361993Y167028D01*
X361599Y166635D01*
X361519Y166443D01*
X357665D01*
Y170223D01*
X353413D01*
Y167290D01*
X346811Y160688D01*
X346785Y160681D01*
X346278Y160862D01*
X346266Y160983D01*
X351779Y166496D01*
X351852D01*
Y166620D01*
X352007Y166995D01*
X351852Y167370D01*
Y169567D01*
X349175D01*
Y166496D01*
X349276D01*
X349467Y166034D01*
X347753Y164320D01*
X347291Y164511D01*
Y166393D01*
X346412D01*
Y167677D01*
X347094D01*
Y170748D01*
X344417D01*
Y167677D01*
X345100D01*
Y166393D01*
X344220D01*
Y163716D01*
X345100D01*
Y163170D01*
X341789Y159859D01*
X341782Y159849D01*
X341625Y159841D01*
X341243Y159942D01*
X341100Y160287D01*
X340168Y161219D01*
X339917Y161323D01*
X323210Y178031D01*
Y186941D01*
X323832Y187108D01*
X324586Y187543D01*
X325202Y188159D01*
X325637Y188913D01*
X325863Y189754D01*
Y190625D01*
X325637Y191466D01*
X325202Y192220D01*
X324586Y192836D01*
X323832Y193271D01*
X322991Y193497D01*
D02*
G37*
G36*
X356328Y175950D02*
X355995Y175884D01*
X355765Y175731D01*
X355714D01*
Y173981D01*
X357661D01*
Y175731D01*
X356890D01*
X356661Y175884D01*
X356328Y175950D01*
D02*
G37*
G36*
X353571Y176645D02*
X351891D01*
X351558Y176579D01*
X351275Y176390D01*
X349898Y175012D01*
X349709Y174730D01*
X349642Y174396D01*
Y173500D01*
X349179D01*
Y172143D01*
X351848D01*
Y173500D01*
X351384D01*
Y174036D01*
X352252Y174903D01*
X353210D01*
X353418Y174696D01*
Y173981D01*
X355364D01*
Y175731D01*
X354846D01*
X354187Y176390D01*
X353904Y176579D01*
X353571Y176645D01*
D02*
G37*
G36*
X357661Y173631D02*
X355714D01*
Y171881D01*
X357661D01*
Y173631D01*
D02*
G37*
G36*
X355364D02*
X353418D01*
Y171881D01*
X355364D01*
Y173631D01*
D02*
G37*
G36*
X347094Y186492D02*
X344417D01*
Y183421D01*
X345100D01*
Y182644D01*
X344417D01*
Y179573D01*
X345488D01*
X345765Y179158D01*
X345609Y178707D01*
X344417D01*
Y175636D01*
X345100D01*
Y174685D01*
X344417D01*
Y171614D01*
X347094D01*
Y174685D01*
X346412D01*
Y175636D01*
X347094D01*
Y177803D01*
X347107Y177866D01*
Y178219D01*
X347234Y178245D01*
X347446Y178387D01*
X350798Y181738D01*
X352941D01*
Y184415D01*
X349870D01*
Y182666D01*
X347556Y180352D01*
X347094Y180543D01*
Y182644D01*
X346412D01*
Y183421D01*
X347094D01*
Y186492D01*
D02*
G37*
G36*
X299431Y171339D02*
X296360D01*
Y170871D01*
X293848D01*
Y171339D01*
X290777D01*
Y168661D01*
X291658D01*
Y163080D01*
X291439Y162914D01*
X290939Y163163D01*
Y163185D01*
X290765Y163606D01*
X290344Y163780D01*
X288737D01*
Y168666D01*
X289906D01*
Y169825D01*
X288375D01*
X286844D01*
Y168666D01*
X287429D01*
Y163780D01*
X285822D01*
X285401Y163606D01*
X285391Y163580D01*
X281001D01*
X280962Y163619D01*
X280500Y163810D01*
X280037Y163619D01*
X279846Y163156D01*
X280037Y162694D01*
X280268Y162463D01*
X280730Y162272D01*
X285227D01*
Y162207D01*
X285401Y161786D01*
X285638Y161688D01*
Y161150D01*
X285398Y161050D01*
X285222Y160626D01*
Y159648D01*
X285398Y159223D01*
X285629Y159128D01*
Y158587D01*
X285398Y158491D01*
X285222Y158067D01*
Y157088D01*
X285398Y156664D01*
X285431Y156109D01*
X285186Y155890D01*
X272388D01*
Y155910D01*
X272175Y156425D01*
X271781Y156819D01*
X271267Y157032D01*
X270710D01*
X270195Y156819D01*
X269801Y156425D01*
X269588Y155910D01*
Y155353D01*
X269801Y154839D01*
X270195Y154445D01*
X270710Y154232D01*
X271267D01*
X271384Y154281D01*
X271484Y154214D01*
X271818Y154148D01*
X285381D01*
X285398Y154105D01*
X285431Y153550D01*
X285186Y153331D01*
X262257D01*
X251996Y163592D01*
X252104Y163997D01*
Y165077D01*
X251825Y166121D01*
X251284Y167057D01*
X250520Y167821D01*
X249584Y168361D01*
X248540Y168641D01*
X247460D01*
X246416Y168361D01*
X245480Y167821D01*
X244716Y167057D01*
X244175Y166121D01*
X243896Y165077D01*
Y163997D01*
X244175Y162953D01*
X244716Y162017D01*
X245480Y161253D01*
X246416Y160712D01*
X247460Y160433D01*
X248540D01*
X249584Y160712D01*
X250520Y161253D01*
X251196Y161928D01*
X261280Y151844D01*
X261563Y151655D01*
X261896Y151588D01*
X279826D01*
X279925Y151089D01*
X279693Y150992D01*
X279299Y150598D01*
X279086Y150084D01*
Y149527D01*
X279299Y149012D01*
X279599Y148713D01*
X279482Y148272D01*
X279446Y148213D01*
X257375D01*
X251996Y153592D01*
X252104Y153997D01*
Y155077D01*
X251825Y156121D01*
X251284Y157057D01*
X250520Y157821D01*
X249584Y158361D01*
X248540Y158641D01*
X247460D01*
X246416Y158361D01*
X245480Y157821D01*
X244716Y157057D01*
X244175Y156121D01*
X243896Y155077D01*
Y153997D01*
X244175Y152953D01*
X244716Y152017D01*
X245480Y151253D01*
X246416Y150712D01*
X247460Y150433D01*
X248540D01*
X249584Y150712D01*
X250520Y151253D01*
X251196Y151928D01*
X256399Y146725D01*
X256681Y146537D01*
X257014Y146470D01*
X285381D01*
X285398Y146428D01*
X285509Y146382D01*
X285563Y145871D01*
X285227Y145553D01*
X251977D01*
X251825Y146121D01*
X251284Y147057D01*
X250520Y147821D01*
X249584Y148362D01*
X248540Y148641D01*
X247460D01*
X246416Y148362D01*
X245480Y147821D01*
X244716Y147057D01*
X244175Y146121D01*
X243896Y145077D01*
Y143997D01*
X244175Y142953D01*
X244716Y142017D01*
X245480Y141253D01*
X246416Y140712D01*
X247460Y140433D01*
X248540D01*
X249584Y140712D01*
X250520Y141253D01*
X251284Y142017D01*
X251825Y142953D01*
X252055Y143811D01*
X278836D01*
X279044Y143311D01*
X278808Y143075D01*
X278595Y142561D01*
Y142004D01*
X278808Y141489D01*
X279202Y141095D01*
X279347Y141035D01*
X279247Y140535D01*
X255143D01*
X254810Y140469D01*
X254527Y140280D01*
X251644Y137397D01*
X250944Y137398D01*
X250520Y137821D01*
X249584Y138362D01*
X248540Y138641D01*
X247460D01*
X246416Y138362D01*
X245480Y137821D01*
X244716Y137057D01*
X244175Y136121D01*
X243896Y135077D01*
Y133997D01*
X244175Y132953D01*
X244716Y132017D01*
X245480Y131253D01*
X246416Y130712D01*
X247460Y130433D01*
X248540D01*
X249584Y130712D01*
X250520Y131253D01*
X251284Y132017D01*
X251825Y132953D01*
X252104Y133997D01*
Y135077D01*
X252038Y135327D01*
X255504Y138793D01*
X285381D01*
X285398Y138751D01*
X285431Y138196D01*
X285186Y137976D01*
X277754D01*
X277421Y137910D01*
X277138Y137721D01*
X272743Y133326D01*
X271100D01*
Y131684D01*
X270445Y131028D01*
X270256Y130746D01*
X270190Y130412D01*
Y128641D01*
X269132D01*
Y127457D01*
X267731D01*
Y127506D01*
X267518Y128020D01*
X267124Y128414D01*
X266610Y128627D01*
X266053D01*
X265538Y128414D01*
X265144Y128020D01*
X264931Y127506D01*
Y126949D01*
X265144Y126434D01*
X265538Y126040D01*
X266053Y125827D01*
X266610D01*
X266719Y125872D01*
X266855Y125781D01*
X267189Y125715D01*
X269132D01*
Y124389D01*
X272990D01*
Y128641D01*
X271932D01*
Y130052D01*
X272529Y130649D01*
X274171D01*
Y132291D01*
X274575Y132695D01*
X275037Y132503D01*
Y130649D01*
X275702D01*
Y128641D01*
X274644D01*
Y124389D01*
X278502D01*
Y128641D01*
X277444D01*
Y130649D01*
X278108D01*
Y131769D01*
X278238Y131855D01*
X280058Y133675D01*
X280708D01*
X281161Y133562D01*
X281161Y133175D01*
Y130492D01*
X283839D01*
Y131333D01*
X285291D01*
X285398Y131074D01*
X285629Y130978D01*
Y130437D01*
X285398Y130341D01*
X285222Y129917D01*
Y129264D01*
X284702Y128744D01*
X283839D01*
Y129625D01*
X281161D01*
Y126555D01*
X283839D01*
Y127436D01*
X284973D01*
X285436Y127628D01*
X286147Y128339D01*
X290344D01*
X290768Y128515D01*
X290944Y128939D01*
Y129917D01*
X290768Y130341D01*
X290537Y130437D01*
Y130978D01*
X290768Y131074D01*
X290944Y131498D01*
Y132476D01*
X290768Y132900D01*
X290537Y132996D01*
Y133537D01*
X290768Y133633D01*
X290944Y134057D01*
Y135035D01*
X290768Y135459D01*
X290537Y135555D01*
Y136096D01*
X290768Y136192D01*
X290944Y136616D01*
Y137594D01*
X290768Y138019D01*
X290537Y138114D01*
Y138655D01*
X290768Y138751D01*
X290944Y139175D01*
Y140153D01*
X290768Y140578D01*
X290537Y140673D01*
Y141214D01*
X290768Y141310D01*
X290944Y141734D01*
Y142712D01*
X290768Y143137D01*
X290537Y143232D01*
Y143773D01*
X290768Y143869D01*
X290944Y144293D01*
Y145272D01*
X290768Y145696D01*
X290537Y145791D01*
Y146333D01*
X290768Y146428D01*
X290944Y146852D01*
Y147831D01*
X290768Y148255D01*
X290537Y148350D01*
Y148892D01*
X290768Y148987D01*
X290944Y149411D01*
Y150390D01*
X290768Y150814D01*
X290537Y150909D01*
Y151451D01*
X290768Y151546D01*
X290944Y151970D01*
Y152949D01*
X290768Y153373D01*
X290537Y153469D01*
Y154010D01*
X290768Y154105D01*
X290944Y154529D01*
Y155508D01*
X290768Y155932D01*
X290537Y156027D01*
Y156569D01*
X290768Y156664D01*
X290944Y157088D01*
Y158067D01*
X290768Y158491D01*
X290748Y158499D01*
Y159215D01*
X290768Y159223D01*
X290944Y159648D01*
Y160301D01*
X292775Y162132D01*
X292967Y162594D01*
Y168661D01*
X293848D01*
Y169129D01*
X296360D01*
Y168661D01*
X299431D01*
Y171339D01*
D02*
G37*
G36*
X351848Y171793D02*
X350688D01*
Y170437D01*
X351848D01*
Y171793D01*
D02*
G37*
G36*
X350338D02*
X349179D01*
Y170437D01*
X350338D01*
Y171793D01*
D02*
G37*
G36*
X439974Y172102D02*
X439026D01*
X438109Y171857D01*
X437288Y171383D01*
X436617Y170712D01*
X436427Y170383D01*
X424832D01*
Y171728D01*
X422155D01*
Y168657D01*
X423893D01*
X423978Y168640D01*
X435898D01*
Y168026D01*
X436143Y167110D01*
X436617Y166288D01*
X437288Y165617D01*
X438109Y165143D01*
X439026Y164898D01*
X439974D01*
X440891Y165143D01*
X441712Y165617D01*
X442383Y166288D01*
X442857Y167110D01*
X443102Y168026D01*
Y168974D01*
X442857Y169890D01*
X442383Y170712D01*
X441712Y171383D01*
X440891Y171857D01*
X439974Y172102D01*
D02*
G37*
G36*
X420334Y171724D02*
X419175D01*
Y170368D01*
X420334D01*
Y171724D01*
D02*
G37*
G36*
X418825D02*
X417666D01*
Y170368D01*
X418825D01*
Y171724D01*
D02*
G37*
G36*
X314480Y172122D02*
X312731D01*
Y170175D01*
X314480D01*
Y172122D01*
D02*
G37*
G36*
X312381D02*
X310631D01*
Y170175D01*
X312381D01*
Y172122D01*
D02*
G37*
G36*
X289906Y171334D02*
X288550D01*
Y170175D01*
X289906D01*
Y171334D01*
D02*
G37*
G36*
X288200D02*
X286844D01*
Y170175D01*
X288200D01*
Y171334D01*
D02*
G37*
G36*
X420334Y170018D02*
X419175D01*
Y168662D01*
X420334D01*
Y170018D01*
D02*
G37*
G36*
X418825D02*
X417666D01*
Y168662D01*
X418825D01*
Y170018D01*
D02*
G37*
G36*
X314480Y169825D02*
X312731D01*
Y167878D01*
X314480D01*
Y169825D01*
D02*
G37*
G36*
X312381D02*
X310631D01*
Y167878D01*
X312381D01*
Y169825D01*
D02*
G37*
G36*
X343350Y166389D02*
X341994D01*
Y165229D01*
X343350D01*
Y166389D01*
D02*
G37*
G36*
X341644D02*
X340288D01*
Y165229D01*
X341644D01*
Y166389D01*
D02*
G37*
G36*
X343350Y164879D02*
X341994D01*
Y163720D01*
X343350D01*
Y164879D01*
D02*
G37*
G36*
X236261Y173771D02*
X234936D01*
X233656Y173428D01*
X232508Y172766D01*
X231571Y171828D01*
X230908Y170680D01*
X230565Y169400D01*
Y168075D01*
X230908Y166795D01*
X231571Y165647D01*
X232508Y164710D01*
X233656Y164047D01*
X234936Y163704D01*
X236261D01*
X237541Y164047D01*
X238689Y164710D01*
X239626Y165647D01*
X240289Y166795D01*
X240632Y168075D01*
Y169400D01*
X240289Y170680D01*
X239626Y171828D01*
X238689Y172766D01*
X237541Y173428D01*
X236261Y173771D01*
D02*
G37*
G36*
X341644Y164879D02*
X340288D01*
Y164451D01*
X340286Y164447D01*
X339897Y164057D01*
X339705Y163595D01*
Y162898D01*
X339897Y162436D01*
X340359Y162244D01*
X340822Y162436D01*
X341014Y162898D01*
Y163324D01*
X341350Y163661D01*
X341375Y163720D01*
X341644D01*
Y164879D01*
D02*
G37*
G36*
X439974Y162102D02*
X439026D01*
X438109Y161857D01*
X437288Y161383D01*
X436825Y160920D01*
X436589Y161155D01*
X436306Y161344D01*
X435973Y161411D01*
X424832D01*
Y162075D01*
X422155D01*
Y159004D01*
X424832D01*
Y159669D01*
X435612D01*
X435984Y159297D01*
X435898Y158974D01*
Y158026D01*
X436143Y157109D01*
X436617Y156288D01*
X437288Y155617D01*
X438109Y155143D01*
X439026Y154898D01*
X439974D01*
X440891Y155143D01*
X441712Y155617D01*
X442383Y156288D01*
X442857Y157109D01*
X443102Y158026D01*
Y158974D01*
X442857Y159890D01*
X442383Y160712D01*
X441712Y161383D01*
X440891Y161857D01*
X439974Y162102D01*
D02*
G37*
G36*
X420334Y162071D02*
X419175D01*
Y160715D01*
X420334D01*
Y162071D01*
D02*
G37*
G36*
X418825D02*
X417666D01*
Y160715D01*
X418825D01*
Y162071D01*
D02*
G37*
G36*
X370811Y161255D02*
X369061D01*
Y159308D01*
X370811D01*
Y161255D01*
D02*
G37*
G36*
X368711D02*
X366961D01*
Y159308D01*
X368711D01*
Y161255D01*
D02*
G37*
G36*
X420334Y160365D02*
X419175D01*
Y159009D01*
X420334D01*
Y160365D01*
D02*
G37*
G36*
X418825D02*
X417666D01*
Y159009D01*
X418825D01*
Y160365D01*
D02*
G37*
G36*
X370811Y158958D02*
X369061D01*
Y157011D01*
X370811D01*
Y158958D01*
D02*
G37*
G36*
X368711D02*
X366961D01*
Y157011D01*
X368711D01*
Y158958D01*
D02*
G37*
G36*
X439974Y152102D02*
X439026D01*
X438109Y151857D01*
X437288Y151383D01*
X436617Y150712D01*
X436400Y150336D01*
X424832D01*
Y151681D01*
X422155D01*
Y148610D01*
X423893D01*
X423978Y148594D01*
X435898D01*
Y148026D01*
X436143Y147109D01*
X436617Y146288D01*
X437288Y145617D01*
X438109Y145143D01*
X439026Y144898D01*
X439974D01*
X440891Y145143D01*
X441712Y145617D01*
X442383Y146288D01*
X442857Y147109D01*
X443102Y148026D01*
Y148974D01*
X442857Y149890D01*
X442383Y150712D01*
X441712Y151383D01*
X440891Y151857D01*
X439974Y152102D01*
D02*
G37*
G36*
X420334Y151677D02*
X419175D01*
Y150321D01*
X420334D01*
Y151677D01*
D02*
G37*
G36*
X418825D02*
X417666D01*
Y150321D01*
X418825D01*
Y151677D01*
D02*
G37*
G36*
X420334Y149971D02*
X419175D01*
Y148615D01*
X420334D01*
Y149971D01*
D02*
G37*
G36*
X378500Y149138D02*
X376553D01*
Y147388D01*
X378500D01*
Y149138D01*
D02*
G37*
G36*
X305321Y156653D02*
X299577D01*
Y146237D01*
X305898D01*
Y156076D01*
X305729Y156484D01*
X305321Y156653D01*
D02*
G37*
G36*
X299227D02*
X293483D01*
X293075Y156484D01*
X292906Y156076D01*
Y146237D01*
X299227D01*
Y156653D01*
D02*
G37*
G36*
X378500Y147038D02*
X376553D01*
Y145288D01*
X378500D01*
Y147038D01*
D02*
G37*
G36*
X376203D02*
X374256D01*
Y145288D01*
X376203D01*
Y147038D01*
D02*
G37*
G36*
X439974Y142098D02*
X439675D01*
Y138675D01*
X443098D01*
Y138974D01*
X442853Y139889D01*
X442379Y140709D01*
X441709Y141379D01*
X440889Y141853D01*
X439974Y142098D01*
D02*
G37*
G36*
X439325D02*
X439026D01*
X438111Y141853D01*
X437291Y141379D01*
X436621Y140709D01*
X436147Y139889D01*
X435902Y138974D01*
Y138675D01*
X439325D01*
Y142098D01*
D02*
G37*
G36*
X305898Y145887D02*
X299577D01*
Y135471D01*
X305321D01*
X305729Y135640D01*
X305898Y136048D01*
Y145887D01*
D02*
G37*
G36*
X299227D02*
X292906D01*
Y136048D01*
X293075Y135640D01*
X293483Y135471D01*
X299227D01*
Y145887D01*
D02*
G37*
G36*
X443098Y138325D02*
X439675D01*
Y134902D01*
X439974D01*
X440889Y135147D01*
X441709Y135621D01*
X442379Y136291D01*
X442853Y137111D01*
X443098Y138026D01*
Y138325D01*
D02*
G37*
G36*
X439325D02*
X435902D01*
Y138026D01*
X436147Y137111D01*
X436621Y136291D01*
X437291Y135621D01*
X438111Y135147D01*
X439026Y134902D01*
X439325D01*
Y138325D01*
D02*
G37*
G36*
X377659Y134303D02*
X374728D01*
Y131175D01*
X377659D01*
Y134303D01*
D02*
G37*
G36*
X374378D02*
X371447D01*
Y131175D01*
X374378D01*
Y134303D01*
D02*
G37*
G36*
X313577Y129253D02*
X310896D01*
Y128344D01*
X312982D01*
X313403Y128518D01*
X313577Y128939D01*
Y129253D01*
D02*
G37*
G36*
X310546D02*
X307865D01*
Y128939D01*
X308039Y128518D01*
X308460Y128344D01*
X310546D01*
Y129253D01*
D02*
G37*
G36*
X377659Y130825D02*
X374728D01*
Y127697D01*
X377659D01*
Y130825D01*
D02*
G37*
G36*
X359450Y127600D02*
X357701D01*
Y125653D01*
X359450D01*
Y127600D01*
D02*
G37*
G36*
X374378Y130825D02*
X371447D01*
Y127697D01*
X371487D01*
X371694Y127197D01*
X371292Y126795D01*
X371292Y126795D01*
X369435Y124938D01*
X368280Y126094D01*
X367997Y126283D01*
X367664Y126349D01*
X361550D01*
Y127600D01*
X359800D01*
Y125478D01*
Y123356D01*
X361550D01*
Y124607D01*
X367303D01*
X368819Y123090D01*
X369102Y122901D01*
X369435Y122835D01*
X369769Y122901D01*
X370051Y123090D01*
X372524Y125563D01*
X372524Y125563D01*
X373478Y126517D01*
X373667Y126800D01*
X373733Y127133D01*
Y127697D01*
X374378D01*
Y130825D01*
D02*
G37*
G36*
X359450Y125303D02*
X357701D01*
Y123356D01*
X359450D01*
Y125303D01*
D02*
G37*
G36*
X371839Y120606D02*
X367981D01*
Y119253D01*
X363634D01*
Y119938D01*
X360563D01*
Y117261D01*
X363634D01*
Y117945D01*
X367981D01*
Y116354D01*
X371839D01*
Y120606D01*
D02*
G37*
G36*
X377346Y120602D02*
X375597D01*
Y118655D01*
X377346D01*
Y120602D01*
D02*
G37*
G36*
X375247D02*
X373497D01*
Y118655D01*
X375247D01*
Y120602D01*
D02*
G37*
G36*
X377346Y118305D02*
X375597D01*
Y116359D01*
X377346D01*
Y118305D01*
D02*
G37*
G36*
X375247D02*
X373497D01*
Y116359D01*
X375247D01*
Y118305D01*
D02*
G37*
G36*
X371839Y114110D02*
X367981D01*
Y112638D01*
X363818D01*
Y113323D01*
X360747D01*
Y110646D01*
X363818D01*
Y111330D01*
X367981D01*
Y109858D01*
X371839D01*
Y114110D01*
D02*
G37*
G36*
X377346Y114106D02*
X375597D01*
Y112159D01*
X377346D01*
Y114106D01*
D02*
G37*
G36*
X375247D02*
X373497D01*
Y112159D01*
X375247D01*
Y114106D01*
D02*
G37*
G36*
X377346Y111809D02*
X375597D01*
Y109863D01*
X377346D01*
Y111809D01*
D02*
G37*
G36*
X375247D02*
X373497D01*
Y109863D01*
X375247D01*
Y111809D01*
D02*
G37*
G36*
X293184Y111380D02*
X291434D01*
Y109433D01*
X293184D01*
Y111380D01*
D02*
G37*
G36*
X291084D02*
X289334D01*
Y109433D01*
X291084D01*
Y111380D01*
D02*
G37*
G36*
X298700Y111384D02*
X294842D01*
Y107132D01*
X298700D01*
Y107913D01*
X300727D01*
X300785Y107774D01*
X301179Y107380D01*
X301693Y107167D01*
X302250D01*
X302765Y107380D01*
X303159Y107774D01*
X303372Y108288D01*
Y108845D01*
X303159Y109360D01*
X302765Y109754D01*
X302250Y109967D01*
X301693D01*
X301179Y109754D01*
X300785Y109360D01*
X300727Y109221D01*
X298700D01*
Y111384D01*
D02*
G37*
G36*
X293184Y109083D02*
X291434D01*
Y107136D01*
X293184D01*
Y109083D01*
D02*
G37*
G36*
X291084D02*
X289334D01*
Y107136D01*
X291084D01*
Y109083D01*
D02*
G37*
G36*
X430901Y109267D02*
X427773D01*
Y106730D01*
X430901D01*
Y109267D01*
D02*
G37*
G36*
X427423D02*
X424296D01*
Y106730D01*
X427423D01*
Y109267D01*
D02*
G37*
G36*
X430901Y106380D02*
X427773D01*
Y103843D01*
X430901D01*
Y106380D01*
D02*
G37*
G36*
X427423D02*
X424296D01*
Y103843D01*
X427423D01*
Y106380D01*
D02*
G37*
G36*
X388029Y106346D02*
X387472D01*
X386957Y106132D01*
X386563Y105739D01*
X386411Y105372D01*
X384666D01*
X384333Y105306D01*
X384050Y105117D01*
X382772Y103839D01*
X380933D01*
Y101161D01*
X384004D01*
Y102607D01*
X385027Y103630D01*
X387263D01*
X387266Y103631D01*
X387472Y103546D01*
X388029D01*
X388543Y103759D01*
X388937Y104153D01*
X389150Y104667D01*
Y105224D01*
X388937Y105739D01*
X388543Y106132D01*
X388029Y106346D01*
D02*
G37*
G36*
X318590Y101849D02*
X317108D01*
X315626D01*
Y100231D01*
X317108D01*
X318590D01*
Y101849D01*
D02*
G37*
G36*
X340540Y101063D02*
X338594D01*
Y99313D01*
X340540D01*
Y101063D01*
D02*
G37*
G36*
X338244D02*
X336297D01*
Y99313D01*
X338244D01*
Y101063D01*
D02*
G37*
G36*
X318590Y99881D02*
X317108D01*
X315626D01*
Y99400D01*
X315574Y99108D01*
X315204Y98934D01*
X313457D01*
Y98930D01*
X312706D01*
Y97448D01*
Y95966D01*
X313457D01*
Y95962D01*
X314000D01*
Y95026D01*
X314191Y94563D01*
X315805Y92949D01*
Y92492D01*
X315956Y92126D01*
X315716Y91626D01*
X313801D01*
Y87374D01*
X317660D01*
Y90705D01*
X317709Y90825D01*
Y91464D01*
X317998Y91584D01*
X318392Y91978D01*
X318605Y92492D01*
Y93049D01*
X318689Y93174D01*
X325235D01*
Y90917D01*
X329487D01*
Y91730D01*
X334278D01*
Y90243D01*
X334454Y89818D01*
X334879Y89642D01*
X336840D01*
X337265Y89818D01*
X337441Y90243D01*
Y94960D01*
X337265Y95385D01*
X336840Y95560D01*
X334879D01*
X334454Y95385D01*
X334278Y94960D01*
Y93472D01*
X329487D01*
Y94775D01*
X325235D01*
Y94482D01*
X318259D01*
X317797Y94291D01*
X317620Y94114D01*
X317483Y94171D01*
X316926D01*
X316578Y94026D01*
X315308Y95297D01*
Y95962D01*
X315543D01*
Y96577D01*
X315622Y97044D01*
X316043Y97044D01*
X318595D01*
Y99131D01*
X318590D01*
Y99881D01*
D02*
G37*
G36*
X443102Y132102D02*
X435898D01*
Y124898D01*
X438629D01*
Y109762D01*
X429435Y100569D01*
X429246Y100286D01*
X429233Y100216D01*
X424291D01*
Y98371D01*
X405709D01*
Y104350D01*
X399095D01*
Y94800D01*
X388543D01*
X388227Y95116D01*
X387713Y95329D01*
X387156D01*
X386641Y95116D01*
X386247Y94722D01*
X386034Y94207D01*
Y93650D01*
X386247Y93136D01*
X386641Y92742D01*
X387156Y92529D01*
X387713D01*
X388227Y92742D01*
X388543Y93058D01*
X399095D01*
Y90650D01*
X402578D01*
Y80853D01*
X402401Y80426D01*
X398543D01*
Y76174D01*
X402401D01*
Y78506D01*
X402863D01*
X403196Y78572D01*
X403479Y78761D01*
X404065Y79347D01*
X404254Y79629D01*
X404320Y79962D01*
Y90643D01*
X404326Y90650D01*
X405709D01*
Y96629D01*
X424291D01*
Y94784D01*
X430905D01*
Y96629D01*
X434139D01*
X435898Y94871D01*
Y88898D01*
X443102D01*
Y96102D01*
X437129D01*
X435116Y98116D01*
X434833Y98305D01*
X434500Y98371D01*
X430905D01*
Y99278D01*
X430922Y99362D01*
Y99592D01*
X436037Y104707D01*
X436437Y104400D01*
X436143Y103891D01*
X435898Y102974D01*
Y102026D01*
X436143Y101110D01*
X436617Y100288D01*
X437288Y99617D01*
X438109Y99143D01*
X439026Y98898D01*
X439974D01*
X440891Y99143D01*
X441712Y99617D01*
X442383Y100288D01*
X442857Y101110D01*
X443102Y102026D01*
Y102974D01*
X442857Y103891D01*
X442383Y104712D01*
X441712Y105383D01*
X440891Y105857D01*
X439974Y106102D01*
X439026D01*
X438109Y105857D01*
X437600Y105563D01*
X437293Y105963D01*
X440116Y108786D01*
X440305Y109068D01*
X440371Y109402D01*
Y124898D01*
X443102D01*
Y132102D01*
D02*
G37*
G36*
X375181Y99791D02*
X374022D01*
Y98435D01*
X375181D01*
Y99791D01*
D02*
G37*
G36*
X358758Y100541D02*
X358201D01*
X357686Y100328D01*
X357292Y99934D01*
X357079Y99420D01*
Y98863D01*
X357292Y98348D01*
X357686Y97954D01*
X358201Y97741D01*
X358758D01*
X359272Y97954D01*
X359666Y98348D01*
X359879Y98863D01*
Y99420D01*
X359666Y99934D01*
X359272Y100328D01*
X358758Y100541D01*
D02*
G37*
G36*
X375181Y98085D02*
X374022D01*
Y96729D01*
X375181D01*
Y98085D01*
D02*
G37*
G36*
X373672Y99791D02*
X372513D01*
Y98894D01*
X369293D01*
X368960Y98827D01*
X368677Y98638D01*
X368524Y98485D01*
X368335Y98203D01*
X368269Y97869D01*
X368335Y97536D01*
X368524Y97254D01*
X368807Y97065D01*
X369140Y96999D01*
X369474Y97065D01*
X369603Y97151D01*
X372513D01*
Y96729D01*
X373672D01*
Y98260D01*
Y99791D01*
D02*
G37*
G36*
X310738Y98930D02*
Y97448D01*
Y95966D01*
X312356D01*
Y97448D01*
Y98930D01*
X310738D01*
D02*
G37*
G36*
X302276Y96077D02*
X300330D01*
Y94327D01*
X302276D01*
Y96077D01*
D02*
G37*
G36*
X299980D02*
X298033D01*
Y94327D01*
X299980D01*
Y96077D01*
D02*
G37*
G36*
X302276Y93977D02*
X300330D01*
Y92227D01*
X302276D01*
Y93977D01*
D02*
G37*
G36*
X299980D02*
X298033D01*
Y92227D01*
X299980D01*
Y93977D01*
D02*
G37*
G36*
X250357Y92712D02*
X250175D01*
Y90175D01*
X252712D01*
Y90357D01*
X252527Y91047D01*
X252170Y91665D01*
X251665Y92170D01*
X251047Y92527D01*
X250357Y92712D01*
D02*
G37*
G36*
X249825D02*
X249643D01*
X248953Y92527D01*
X248335Y92170D01*
X247830Y91665D01*
X247473Y91047D01*
X247288Y90357D01*
Y90175D01*
X249825D01*
Y92712D01*
D02*
G37*
G36*
X312143Y91622D02*
X310394D01*
Y89675D01*
X312143D01*
Y91622D01*
D02*
G37*
G36*
X309399Y91678D02*
X309114Y91622D01*
X308294D01*
Y89675D01*
X310044D01*
Y91622D01*
X309684D01*
X309399Y91678D01*
D02*
G37*
G36*
X344678Y102642D02*
X342001D01*
Y99571D01*
X342686D01*
Y95560D01*
X342359D01*
X341935Y95385D01*
X341759Y94960D01*
Y90243D01*
X341935Y89818D01*
X342359Y89642D01*
X344320D01*
X344745Y89818D01*
X344921Y90243D01*
Y94960D01*
X344745Y95385D01*
X344320Y95560D01*
X343994D01*
Y99571D01*
X344678D01*
Y102642D01*
D02*
G37*
G36*
X329483Y89259D02*
X327536D01*
Y87510D01*
X329483D01*
Y89259D01*
D02*
G37*
G36*
X327186D02*
X325240D01*
Y87510D01*
X327186D01*
Y89259D01*
D02*
G37*
G36*
X312143Y89325D02*
X310394D01*
Y87378D01*
X312143D01*
Y89325D01*
D02*
G37*
G36*
X310044D02*
X308294D01*
Y87378D01*
X310044D01*
Y89325D01*
D02*
G37*
G36*
X252712Y89825D02*
X250175D01*
Y87288D01*
X250357D01*
X251047Y87473D01*
X251665Y87830D01*
X252170Y88335D01*
X252527Y88953D01*
X252712Y89643D01*
Y89825D01*
D02*
G37*
G36*
X249825D02*
X247288D01*
Y89643D01*
X247473Y88953D01*
X247830Y88335D01*
X248335Y87830D01*
X248953Y87473D01*
X249643Y87288D01*
X249825D01*
Y89825D01*
D02*
G37*
G36*
X260358Y92716D02*
X259642D01*
X258951Y92531D01*
X258332Y92174D01*
X257826Y91668D01*
X257469Y91049D01*
X257283Y90358D01*
Y89642D01*
X257469Y88951D01*
X257826Y88332D01*
X258332Y87826D01*
X258951Y87469D01*
X259642Y87283D01*
X260358D01*
X261049Y87469D01*
X261668Y87826D01*
X262174Y88332D01*
X262531Y88951D01*
X262717Y89642D01*
Y90358D01*
X262531Y91049D01*
X262174Y91668D01*
X261668Y92174D01*
X261049Y92531D01*
X260358Y92716D01*
D02*
G37*
G36*
X430905Y91161D02*
X424291D01*
Y89167D01*
X418734D01*
X418400Y89101D01*
X418118Y88912D01*
X411679Y82474D01*
X411679Y82474D01*
X398010Y68804D01*
X397779Y68900D01*
X397221D01*
X396707Y68687D01*
X396313Y68293D01*
X396100Y67778D01*
Y67221D01*
X396313Y66707D01*
X396707Y66313D01*
X397221Y66100D01*
X397779D01*
X398293Y66313D01*
X398687Y66707D01*
X398900Y67221D01*
Y67248D01*
X398953Y67284D01*
X412911Y81242D01*
X412911Y81242D01*
X418463Y86794D01*
X418925Y86602D01*
Y79926D01*
X417867D01*
Y75674D01*
X421725D01*
Y79926D01*
X420667D01*
Y87425D01*
X424291D01*
Y85728D01*
X430905D01*
Y91161D01*
D02*
G37*
G36*
X329483Y87160D02*
X327536D01*
Y85410D01*
X329483D01*
Y87160D01*
D02*
G37*
G36*
X327186D02*
X325240D01*
Y85410D01*
X327186D01*
Y87160D01*
D02*
G37*
G36*
X340540Y98963D02*
X338419D01*
X336297D01*
Y97213D01*
X338215D01*
Y87121D01*
X338198Y87113D01*
X338023Y86692D01*
Y84509D01*
X339600D01*
X341176D01*
Y86692D01*
X341002Y87113D01*
X340580Y87288D01*
X339524D01*
Y97213D01*
X340540D01*
Y98963D01*
D02*
G37*
G36*
X341176Y84159D02*
X339775D01*
Y81379D01*
X340580D01*
X341002Y81554D01*
X341176Y81975D01*
Y84159D01*
D02*
G37*
G36*
X339425D02*
X338023D01*
Y81975D01*
X338198Y81554D01*
X338619Y81379D01*
X339425D01*
Y84159D01*
D02*
G37*
G36*
X394786Y80421D02*
X393036D01*
Y79220D01*
X391959D01*
X391905Y79273D01*
X391622Y79462D01*
X391289Y79529D01*
X391072D01*
X390739Y79462D01*
X390456Y79273D01*
X390268Y78991D01*
X390201Y78658D01*
X390268Y78324D01*
X390456Y78042D01*
X390739Y77853D01*
X390892Y77822D01*
X390982Y77733D01*
X391265Y77544D01*
X391598Y77477D01*
X393036D01*
Y76178D01*
X394786D01*
Y78300D01*
Y80421D01*
D02*
G37*
G36*
X396885D02*
X395136D01*
Y78475D01*
X396885D01*
Y80421D01*
D02*
G37*
G36*
X427233Y79921D02*
X425483D01*
Y77975D01*
X427233D01*
Y79921D01*
D02*
G37*
G36*
X425133D02*
X423383D01*
Y77975D01*
X425133D01*
Y79921D01*
D02*
G37*
G36*
X396885Y78125D02*
X395136D01*
Y76178D01*
X396885D01*
Y78125D01*
D02*
G37*
G36*
X427233Y77625D02*
X425483D01*
Y75678D01*
X427233D01*
Y77625D01*
D02*
G37*
G36*
X425133D02*
X423383D01*
Y75678D01*
X425133D01*
Y77625D01*
D02*
G37*
G36*
X358265Y66498D02*
X357708D01*
X357193Y66285D01*
X356799Y65891D01*
X356586Y65376D01*
Y64819D01*
X356799Y64305D01*
X357193Y63911D01*
X357708Y63698D01*
X358265D01*
X358779Y63911D01*
X359173Y64305D01*
X359386Y64819D01*
Y65376D01*
X359173Y65891D01*
X358779Y66285D01*
X358265Y66498D01*
D02*
G37*
G36*
X426641Y63864D02*
X426350D01*
Y60500D01*
X429714D01*
Y60791D01*
X429473Y61691D01*
X429007Y62498D01*
X428348Y63157D01*
X427541Y63623D01*
X426641Y63864D01*
D02*
G37*
G36*
X426000D02*
X425709D01*
X424809Y63623D01*
X424002Y63157D01*
X423343Y62498D01*
X422877Y61691D01*
X422636Y60791D01*
Y60500D01*
X426000D01*
Y63864D01*
D02*
G37*
G36*
X429714Y60150D02*
X426350D01*
Y56786D01*
X426641D01*
X427541Y57027D01*
X428348Y57493D01*
X429007Y58152D01*
X429473Y58959D01*
X429714Y59859D01*
Y60150D01*
D02*
G37*
G36*
X426000D02*
X422636D01*
Y59859D01*
X422877Y58959D01*
X423343Y58152D01*
X424002Y57493D01*
X424809Y57027D01*
X425709Y56786D01*
X426000D01*
Y60150D01*
D02*
G37*
G36*
X426642Y52057D02*
X425708D01*
X424807Y51816D01*
X423999Y51349D01*
X423340Y50690D01*
X422873Y49882D01*
X422632Y48981D01*
Y48048D01*
X422873Y47146D01*
X423340Y46338D01*
X423999Y45679D01*
X424807Y45212D01*
X425708Y44971D01*
X426642D01*
X427543Y45212D01*
X428351Y45679D01*
X429010Y46338D01*
X429477Y47146D01*
X429718Y48048D01*
Y48981D01*
X429477Y49882D01*
X429010Y50690D01*
X428351Y51349D01*
X427543Y51816D01*
X426642Y52057D01*
D02*
G37*
G36*
X438452Y48357D02*
X437520D01*
X436618Y48115D01*
X435810Y47649D01*
X435151Y46989D01*
X434684Y46181D01*
X434443Y45280D01*
Y44347D01*
X434684Y43446D01*
X435151Y42638D01*
X435810Y41978D01*
X436618Y41511D01*
X437520Y41270D01*
X438452D01*
X439354Y41511D01*
X440162Y41978D01*
X440821Y42638D01*
X441288Y43446D01*
X441529Y44347D01*
Y45280D01*
X441288Y46181D01*
X440821Y46989D01*
X440162Y47649D01*
X439354Y48115D01*
X438452Y48357D01*
D02*
G37*
G36*
X414830D02*
X413898D01*
X412996Y48115D01*
X412188Y47649D01*
X411529Y46989D01*
X411062Y46181D01*
X410821Y45280D01*
Y44347D01*
X411062Y43446D01*
X411529Y42638D01*
X412188Y41978D01*
X412996Y41511D01*
X413898Y41270D01*
X414830D01*
X415732Y41511D01*
X416540Y41978D01*
X417199Y42638D01*
X417666Y43446D01*
X417907Y44347D01*
Y45280D01*
X417666Y46181D01*
X417199Y46989D01*
X416540Y47649D01*
X415732Y48115D01*
X414830Y48357D01*
D02*
G37*
G36*
X425648Y31584D02*
X424352D01*
X423079Y31331D01*
X421881Y30835D01*
X420803Y30114D01*
X419886Y29197D01*
X419165Y28119D01*
X418669Y26921D01*
X418416Y25648D01*
Y24351D01*
X418669Y23079D01*
X419165Y21881D01*
X419886Y20803D01*
X420803Y19886D01*
X421881Y19165D01*
X423079Y18669D01*
X424352Y18416D01*
X425648D01*
X426921Y18669D01*
X428119Y19165D01*
X429197Y19886D01*
X430114Y20803D01*
X430835Y21881D01*
X431331Y23079D01*
X431584Y24351D01*
Y25648D01*
X431331Y26921D01*
X430835Y28119D01*
X430114Y29197D01*
X429197Y30114D01*
X428119Y30835D01*
X426921Y31331D01*
X425648Y31584D01*
D02*
G37*
G36*
X250648D02*
X249352D01*
X248079Y31331D01*
X246881Y30835D01*
X245803Y30114D01*
X244886Y29197D01*
X244165Y28119D01*
X243669Y26921D01*
X243416Y25648D01*
Y24351D01*
X243669Y23079D01*
X244165Y21881D01*
X244886Y20803D01*
X245803Y19886D01*
X246881Y19165D01*
X248079Y18669D01*
X249352Y18416D01*
X250648D01*
X251921Y18669D01*
X253119Y19165D01*
X254197Y19886D01*
X255114Y20803D01*
X255835Y21881D01*
X256331Y23079D01*
X256584Y24351D01*
Y25648D01*
X256331Y26921D01*
X255835Y28119D01*
X255114Y29197D01*
X254197Y30114D01*
X253119Y30835D01*
X251921Y31331D01*
X250648Y31584D01*
D02*
G37*
%LPD*%
G36*
X329497Y162585D02*
X329295Y162382D01*
X329081Y161868D01*
Y161311D01*
X329295Y160796D01*
X329688Y160403D01*
X329721Y160331D01*
X329758Y159832D01*
X329494Y159568D01*
X329281Y159054D01*
Y158497D01*
X329494Y157982D01*
X329888Y157588D01*
X330403Y157375D01*
X330960D01*
X331474Y157588D01*
X331854Y157968D01*
X333576D01*
Y155913D01*
X333622Y155680D01*
X333595Y155180D01*
X333095Y155153D01*
X332862Y155199D01*
X329909D01*
X329618Y155141D01*
X329542Y155091D01*
X327539D01*
X327369Y155261D01*
Y155750D01*
X327156Y156264D01*
X326762Y156658D01*
X326247Y156871D01*
X325691D01*
X325176Y156658D01*
X324782Y156264D01*
X324692Y156047D01*
X324107Y155925D01*
X323874Y156158D01*
X323832Y156259D01*
X322075Y158016D01*
X321916Y158175D01*
X322062Y158656D01*
X326492Y163085D01*
X329290D01*
X329497Y162585D01*
D02*
G37*
G36*
X325299Y150866D02*
X325276Y150672D01*
X325146Y150366D01*
X324344D01*
X324047Y150243D01*
X323591Y150432D01*
X323034D01*
X322519Y150219D01*
X322126Y149825D01*
X321913Y149311D01*
Y148754D01*
X322003Y148536D01*
X321675Y148036D01*
X317841D01*
X313581Y152296D01*
Y152949D01*
X313406Y153373D01*
X313175Y153469D01*
Y154006D01*
X313181Y154012D01*
X313406Y154105D01*
X313506Y154348D01*
X313523Y154365D01*
X319795D01*
X320284Y154163D01*
X320841D01*
X321356Y154376D01*
X321573Y154593D01*
X325299Y150866D01*
D02*
G37*
G36*
X328101Y137540D02*
X327836Y137311D01*
X327826Y137316D01*
X327269D01*
X326754Y137103D01*
X326360Y136709D01*
X326147Y136194D01*
Y135637D01*
X326281Y135315D01*
X326015Y134815D01*
X318559D01*
X318096Y134624D01*
X317701Y134229D01*
X317328Y134383D01*
X316771D01*
X316257Y134170D01*
X315863Y133776D01*
X315650Y133262D01*
Y132705D01*
X315644Y132696D01*
X313490D01*
X313406Y132900D01*
X313175Y132996D01*
Y133537D01*
X313406Y133633D01*
X313581Y134057D01*
Y134491D01*
X313657Y134523D01*
X317169Y138034D01*
X327922D01*
X328101Y137540D01*
D02*
G37*
D16*
X384666Y104501D02*
X387263D01*
X382665Y102500D02*
X384666Y104501D01*
X382469Y102500D02*
X382665D01*
X399949Y93929D02*
X402402Y96382D01*
Y97500D01*
X387434Y93929D02*
X399949D01*
X428189Y97500D02*
X434500D01*
X428189D02*
X430051Y99362D01*
Y99953D01*
X439500Y109402D02*
Y128500D01*
X427598Y97500D02*
X428189D01*
X430051Y99953D02*
X439500Y109402D01*
X434500Y97500D02*
X439500Y92500D01*
X402402Y97500D02*
X427598D01*
X402402Y93957D02*
Y97500D01*
Y93957D02*
X404402Y91957D01*
X403449Y91004D02*
X404402Y91957D01*
X403449Y79962D02*
Y91004D01*
X402863Y79377D02*
X403449Y79962D01*
X401547Y79377D02*
X402863D01*
X400472Y78302D02*
X401547Y79377D01*
X400472Y78300D02*
Y78302D01*
X419796Y88296D02*
X427450D01*
X427598Y88445D01*
X367664Y125478D02*
X369435Y123706D01*
X359625Y125478D02*
X367664D01*
X438488Y169512D02*
X439500Y168500D01*
X423978Y169512D02*
X438488D01*
X423493Y169996D02*
X423978Y169512D01*
X423493Y169996D02*
Y170193D01*
X438013Y178500D02*
X439500D01*
X436015Y180498D02*
X438013Y178500D01*
X423493Y180498D02*
X436015D01*
X438013Y158500D02*
X439500D01*
X435973Y160540D02*
X438013Y158500D01*
X423493Y160540D02*
X435973D01*
X438535Y149465D02*
X439500Y148500D01*
X423978Y149465D02*
X438535D01*
X423493Y149949D02*
X423978Y149465D01*
X423493Y149949D02*
Y150146D01*
X418734Y88296D02*
X419796D01*
Y77800D02*
Y88296D01*
X412295Y81858D02*
X418734Y88296D01*
X412295Y81858D02*
X412295D01*
X397500Y67500D02*
X397716D01*
X398337Y67900D02*
X412295Y81858D01*
X398116Y67900D02*
X398337D01*
X397716Y67500D02*
X398116Y67900D01*
X381924Y137417D02*
Y137420D01*
X381440Y137904D02*
X381924Y137420D01*
X369961Y137904D02*
X381440D01*
X368886Y138979D02*
X369961Y137904D01*
X368886Y138979D02*
Y139176D01*
X350513Y171968D02*
Y174396D01*
X351891Y175774D01*
X355343Y173806D02*
X355539D01*
X354268Y174881D02*
Y175077D01*
X351891Y175774D02*
X353571D01*
X354268Y174881D02*
X355343Y173806D01*
X353571Y175774D02*
X354268Y175077D01*
X355539Y173806D02*
X356328Y174594D01*
X372862Y127133D02*
Y129309D01*
X369435Y123706D02*
X371908Y126179D01*
X372862Y129309D02*
X374553Y131000D01*
X371908Y126179D02*
X372862Y127133D01*
X371908Y126179D02*
Y126179D01*
X267189Y126586D02*
X270990D01*
X266548Y127227D02*
X267189Y126586D01*
X266331Y127227D02*
X266548D01*
X270990Y126586D02*
X271061Y126515D01*
X272636Y131987D02*
X272833D01*
X272439D02*
X272636D01*
X271818Y155019D02*
X288083D01*
X271205Y155632D02*
X271818Y155019D01*
X270988Y155632D02*
X271205D01*
X248000Y154537D02*
X248098Y154438D01*
X249918D01*
X257014Y147341D02*
X288083D01*
X249918Y154438D02*
X257014Y147341D01*
X248000Y144537D02*
X248098Y144439D01*
X249918D01*
X287983Y144682D02*
X288083Y144782D01*
X250161Y144682D02*
X287983D01*
X249918Y144439D02*
X250161Y144682D01*
X248000Y164537D02*
X248098Y164438D01*
X249918D01*
X261896Y152460D02*
X288083D01*
X249918Y164438D02*
X261896Y152460D01*
X248000Y134537D02*
X248098Y134439D01*
X249918D01*
X255143Y139664D02*
X288083D01*
X249918Y134439D02*
X255143Y139664D01*
X370733Y182598D02*
X379486D01*
X370638Y182693D02*
X370733Y182598D01*
X370638Y194307D02*
X379000D01*
X391072Y78658D02*
X391289D01*
X391598Y78348D01*
X395699D01*
X395748Y78300D01*
X369293Y98023D02*
X373610D01*
X373847Y98260D01*
X369140Y97869D02*
X369293Y98023D01*
X313723Y162696D02*
X314309Y162110D01*
X315213Y160913D01*
X310721Y162696D02*
X313723D01*
X356328Y174594D02*
Y175079D01*
X310721Y162885D02*
X310815Y162790D01*
X309847Y162885D02*
X310721D01*
X307044Y167102D02*
X309847Y164299D01*
X307044Y167102D02*
Y170000D01*
X309847Y162885D02*
Y164299D01*
X271061Y126515D02*
Y130412D01*
X271955Y131306D01*
Y131503D02*
X272439Y131987D01*
X271955Y131306D02*
Y131503D01*
X276573Y126515D02*
Y131503D01*
X277057Y131987D01*
Y132471D02*
X277622D01*
X276573Y131987D02*
X277057Y132471D01*
X279697Y134546D02*
X288083D01*
X277622Y132471D02*
X279697Y134546D01*
X272833Y131987D02*
X273317Y132471D01*
Y132668D02*
X277754Y137105D01*
X288083D01*
X273317Y132471D02*
Y132668D01*
X279995Y142282D02*
X290030D01*
X280579Y149980D02*
X288003D01*
X288083Y149900D01*
X280500Y150059D02*
X280579Y149980D01*
X338222Y99138D02*
X338419D01*
X327606Y92601D02*
X335859D01*
X327361Y92846D02*
X327606Y92601D01*
X310219Y89500D02*
Y89988D01*
X309399Y90807D02*
X310219Y89988D01*
X300155Y94152D02*
X300352D01*
X312531Y97448D02*
X312811D01*
X292312Y170000D02*
X297896D01*
X307044D02*
X307044Y170000D01*
X301833Y170000D02*
X307044D01*
D17*
X322556Y177760D02*
Y190190D01*
Y177760D02*
X339559Y160757D01*
X339705D02*
X340638Y159824D01*
X339559Y160757D02*
X339705D01*
X325969Y155471D02*
X326233D01*
X327268Y154437D01*
X331896D01*
X323313Y149032D02*
X323664D01*
X324344Y149712D01*
X331386D01*
X312492Y149900D02*
X315865Y146528D01*
X326245Y152862D02*
X331386D01*
X312492Y152460D02*
X317570Y147382D01*
X315865Y146528D02*
X324350D01*
X324385Y146563D01*
X331386D01*
X317570Y147382D02*
X323996D01*
X324751Y148137D01*
X331386D01*
X323369Y155737D02*
X326245Y152862D01*
X323369Y155737D02*
Y155797D01*
X321453Y157713D02*
X323369Y155797D01*
X419078Y176561D02*
X423493D01*
X354309Y165789D02*
X363118D01*
X348512Y157389D02*
Y159991D01*
X354309Y165789D01*
X354401Y163101D02*
X360185D01*
X350308Y159010D02*
X350309D01*
X354401Y163101D01*
X350087Y157389D02*
Y158788D01*
X350308Y159010D01*
X369791Y118599D02*
X369910Y118480D01*
X362099Y118599D02*
X369791D01*
X346937Y120373D02*
Y134161D01*
Y120373D02*
X364182Y103128D01*
X373113D01*
X373847Y102394D01*
Y102197D02*
Y102394D01*
X377904Y103128D02*
X378532Y102500D01*
X377600Y103128D02*
X377904D01*
X373847Y102197D02*
Y102394D01*
X374581Y103128D01*
X377600D01*
X378228Y102500D01*
X378532D01*
X374307Y151687D02*
X374998D01*
X378982Y155672D01*
X418266D01*
X354614Y146563D02*
X369183D01*
X374307Y151687D01*
X369249Y148137D02*
X387367Y166256D01*
X354614Y148137D02*
X369249D01*
X387367Y166256D02*
X419000D01*
X354614Y149712D02*
X369339D01*
X395335Y175708D01*
X418266D01*
X419000Y166256D02*
X419000Y166256D01*
X418266Y175708D02*
X419000Y176443D01*
Y176639D01*
X419000Y156406D02*
Y156603D01*
X418266Y155672D02*
X419000Y156406D01*
X375140Y150682D02*
X414527D01*
X418266Y147140D02*
X419000Y146406D01*
X418069Y147140D02*
X418266D01*
X414527Y150682D02*
X418069Y147140D01*
X419000Y146209D02*
Y146406D01*
X343787Y146563D02*
Y157389D01*
X343000Y145775D02*
X343787Y146563D01*
X340888Y164320D02*
X341622Y165054D01*
X340359Y163595D02*
X340888Y164123D01*
X341622Y165054D02*
X341819D01*
X340888Y164123D02*
Y164320D01*
X340359Y162898D02*
Y163595D01*
X327547Y135916D02*
X328745Y137114D01*
X331386D01*
X310317Y104879D02*
Y107088D01*
X327702Y124474D01*
X327702D01*
X335913Y132685D01*
X312286Y107482D02*
X337394Y132591D01*
X312286Y104879D02*
Y107482D01*
X314254Y107876D02*
X338969Y132591D01*
X314254Y104879D02*
Y107876D01*
X316862Y104239D02*
Y108904D01*
X329869Y121911D02*
X329869D01*
X316862Y108904D02*
X329869Y121911D01*
X369910Y111984D02*
X369910Y111984D01*
X362283Y111984D02*
X369910D01*
X348512Y120453D02*
X356246Y112718D01*
X357612D01*
X358346Y111984D01*
X348512Y120453D02*
Y134161D01*
X350087Y125304D02*
X356057Y119333D01*
X357427D02*
X358161Y118599D01*
X350087Y125304D02*
Y134161D01*
X356057Y119333D02*
X357427D01*
X351719Y126803D02*
X352789D01*
X354114Y125478D01*
X351661Y132607D02*
Y134161D01*
Y132607D02*
X351719Y132550D01*
Y126803D02*
Y132550D01*
X345362Y106278D02*
Y134161D01*
X329869Y121911D02*
X340547Y132588D01*
Y134070D01*
X340638Y134161D01*
X338969Y132591D02*
Y134067D01*
X339063Y134161D01*
X337394Y132591D02*
Y134067D01*
X337488Y134161D01*
X335913Y132685D02*
Y134161D01*
X346937Y157389D02*
Y159889D01*
X355343Y168294D01*
X425308Y77800D02*
X425381Y77873D01*
X307371Y98088D02*
X307955D01*
X307270Y97987D02*
X307371Y98088D01*
X302166Y97987D02*
X307270D01*
X301814Y98339D02*
X302166Y97987D01*
X301676Y98339D02*
X301814D01*
X300322Y99693D02*
X301676Y98339D01*
X310317Y104879D02*
X310563Y104633D01*
X316862Y104239D02*
X317108Y103993D01*
X314254Y97202D02*
X314500Y97448D01*
X314254Y96908D02*
Y97202D01*
X314654Y95026D02*
X317055Y92624D01*
X314654Y95026D02*
Y96508D01*
X314254Y96908D02*
X314654Y96508D01*
X310438Y96785D02*
X310465D01*
X310219Y96566D02*
X310438Y96785D01*
X312286Y104879D02*
X312531Y104633D01*
X314254Y104879D02*
X314500Y104633D01*
X419000Y180380D02*
Y180577D01*
X419000Y170193D02*
Y170389D01*
X419000Y160343D02*
Y160540D01*
X419000Y150146D02*
Y150343D01*
X355343Y191543D02*
X360365D01*
X313500Y185548D02*
X339063Y159985D01*
X312556Y190190D02*
X313500Y189245D01*
Y185548D02*
Y189245D01*
X339063Y157389D02*
Y159985D01*
X340638Y157389D02*
Y159824D01*
X316107Y132042D02*
X317048Y132983D01*
X310776Y132042D02*
X316107D01*
X317048Y132983D02*
X317381D01*
X318559Y134161D01*
X334339D01*
X310721Y131987D02*
X310776Y132042D01*
X310721Y134546D02*
X311160Y134985D01*
X313194D02*
X316898Y138689D01*
X311160Y134985D02*
X313194D01*
X316898Y138689D02*
X331386D01*
X310721Y137105D02*
X311160Y137544D01*
X316044Y140263D02*
X331386D01*
X313325Y137544D02*
X316044Y140263D01*
X311160Y137544D02*
X313325D01*
X312931Y140103D02*
Y140341D01*
X312492Y139664D02*
X312931Y140103D01*
Y140341D02*
X314429Y141838D01*
X331386D01*
X310721Y139664D02*
X312492D01*
X325804Y151287D02*
X331386D01*
X321016Y155526D02*
X321163Y155379D01*
X321712D02*
X325804Y151287D01*
X321016Y155526D02*
Y155563D01*
X321163Y155379D02*
X321712D01*
X320563Y155563D02*
X321016D01*
X343734Y104650D02*
X345362Y106278D01*
X423493Y146262D02*
X424228Y146996D01*
X423493Y146209D02*
Y146262D01*
X422008Y146209D02*
X423493D01*
X376378Y141701D02*
X381577D01*
X381924Y141354D01*
X360015Y142117D02*
X375962D01*
X376378Y141701D01*
X358161Y140263D02*
X360015Y142117D01*
X354614Y140263D02*
X358161D01*
X423493Y166309D02*
X424228Y167043D01*
X423493Y166256D02*
Y166309D01*
X419000Y166256D02*
X423493D01*
X423126Y156970D02*
X423493Y156603D01*
X369022Y144988D02*
X374721Y150687D01*
X375135D01*
X375140Y150682D01*
X362887Y138689D02*
X363374Y139176D01*
X354614Y138689D02*
X362887D01*
X360278Y154437D02*
X361191Y155350D01*
X361221D01*
X354614Y154437D02*
X360278D01*
X362057Y152831D02*
X362889Y152000D01*
X354644Y152831D02*
X362057D01*
X362889Y152000D02*
X363000D01*
X355343Y168294D02*
X355539D01*
X350513Y167835D02*
Y168032D01*
Y167835D02*
X351353Y166995D01*
X345362Y161004D02*
X351353Y166995D01*
X345362Y157389D02*
Y161004D01*
X333261Y163739D02*
X337488Y159512D01*
X326221Y163739D02*
X333261D01*
X335913Y157627D02*
Y159672D01*
X330730Y161838D02*
X333748D01*
X335913Y159672D01*
X337488Y157389D02*
Y159512D01*
X354614Y144988D02*
X369022D01*
X422759Y156603D02*
X423126Y156970D01*
X419000Y176639D02*
X419078Y176561D01*
X422008Y146209D02*
X422008Y146209D01*
X419000Y146209D02*
X422008D01*
X358529Y134800D02*
X359625Y133703D01*
X313862Y143413D02*
X331386D01*
X312492Y144782D02*
X313862Y143413D01*
X310721Y144782D02*
X312492D01*
X321244Y158763D02*
X326221Y163739D01*
X313867Y158763D02*
X321244D01*
X314846Y144988D02*
X331386D01*
X312492Y147341D02*
X314846Y144988D01*
X310721Y147341D02*
X312492D01*
X310721Y152460D02*
X312492D01*
Y160137D02*
X313867Y158763D01*
X310721Y160137D02*
X312492D01*
X356105Y157389D02*
X357806Y159091D01*
X351661Y157389D02*
X356105D01*
X317260Y157713D02*
X321453D01*
X317125Y157578D02*
X317260Y157713D01*
X310721Y157578D02*
X317125D01*
X310721Y149900D02*
X312492D01*
X359625Y133703D02*
X364174D01*
X366679Y131197D01*
Y131000D02*
Y131197D01*
X355910Y137114D02*
X358224Y134800D01*
X363118Y165789D02*
X363171Y165841D01*
X354614Y137114D02*
X355910D01*
X330834Y158623D02*
X334123D01*
X330681Y158775D02*
X330834Y158623D01*
X423126Y156970D02*
X423126D01*
X419000Y156603D02*
X422759D01*
X354614Y152862D02*
X354644Y152831D01*
X280500Y163156D02*
X280730Y162926D01*
X287853D01*
X288083Y162696D01*
X321016Y155019D02*
Y155563D01*
X330481Y161589D02*
X330730Y161838D01*
X320987Y155019D02*
X321000Y155033D01*
X310722Y155019D02*
X320987D01*
X310721Y155019D02*
X310722Y155019D01*
X334339Y157389D02*
Y158483D01*
X363199Y159309D02*
X363374Y159133D01*
X362214Y159309D02*
X363199D01*
X361996Y159091D02*
X362214Y159309D01*
X357806Y159091D02*
X361996D01*
X343340Y105043D02*
X343734Y104650D01*
X340310D02*
X342485D01*
X343734D01*
X343340Y92601D02*
Y101106D01*
X343340Y101106D01*
X338615Y104650D02*
X340310D01*
X339463Y105497D02*
X340310Y104650D01*
X339364Y105595D02*
X339463Y105497D01*
X338419Y104650D02*
X339364Y105595D01*
X339561D01*
X338615Y104650D02*
X339463Y105497D01*
X338419Y104650D02*
X338615D01*
X338869Y85064D02*
Y98687D01*
X338419Y99138D02*
X338869Y98687D01*
Y85064D02*
X339600Y84334D01*
X318259Y93828D02*
X326379D01*
X327361Y92846D01*
X317055Y92624D02*
X318259Y93828D01*
X300253Y99899D02*
X300322Y99831D01*
X300155Y99664D02*
Y99899D01*
X300253D02*
Y103994D01*
X300322Y99693D02*
Y99831D01*
X317055Y90825D02*
Y92624D01*
X315731Y89500D02*
X317055Y90825D01*
X310465Y96785D02*
X311127Y97448D01*
X310563D02*
X311127D01*
X284973Y128090D02*
X286311Y129428D01*
X282500Y128090D02*
X284973D01*
X286311Y129428D02*
X288083D01*
X282540Y131987D02*
X288083D01*
X282500Y132027D02*
X282540Y131987D01*
X290094Y158017D02*
Y160376D01*
X292312Y162594D01*
X288083Y157578D02*
X289655D01*
X290094Y158017D01*
X292312Y162594D02*
Y170000D01*
X288083Y162696D02*
Y169708D01*
X288375Y170000D01*
X297462Y108567D02*
X301972D01*
X296771Y109258D02*
X297462Y108567D01*
D35*
X300155Y99664D02*
D03*
Y94152D02*
D03*
X327361Y87335D02*
D03*
Y92846D02*
D03*
X338419Y99138D02*
D03*
Y104650D02*
D03*
X355539Y173806D02*
D03*
Y168294D02*
D03*
X376378Y141701D02*
D03*
Y147213D02*
D03*
D46*
X374553Y131000D02*
D03*
X366679D02*
D03*
D48*
X369910Y111984D02*
D03*
X375422D02*
D03*
X369910Y118480D02*
D03*
X375422D02*
D03*
X419796Y77800D02*
D03*
X425308D02*
D03*
X394961Y78300D02*
D03*
X400472D02*
D03*
X271061Y126515D02*
D03*
X276573D02*
D03*
X312556Y170000D02*
D03*
X307044D02*
D03*
X363374Y139176D02*
D03*
X368886D02*
D03*
X315731Y89500D02*
D03*
X310219D02*
D03*
X368886Y159133D02*
D03*
X363374D02*
D03*
X291259Y109258D02*
D03*
X296771D02*
D03*
X354114Y125478D02*
D03*
X359625D02*
D03*
D52*
X358161Y118599D02*
D03*
X362099D02*
D03*
X358346Y111984D02*
D03*
X362283D02*
D03*
X378532Y102500D02*
D03*
X382469D02*
D03*
X276573Y131987D02*
D03*
X272636D02*
D03*
X288375Y170000D02*
D03*
X292312D02*
D03*
X301833D02*
D03*
X297896D02*
D03*
X351406Y183077D02*
D03*
X355343D02*
D03*
X355343Y191543D02*
D03*
X351406D02*
D03*
X341819Y165054D02*
D03*
X345756D02*
D03*
D54*
X345756Y196536D02*
D03*
Y192599D02*
D03*
X282500Y132027D02*
D03*
Y128090D02*
D03*
X373847Y98260D02*
D03*
Y102197D02*
D03*
X345756Y177171D02*
D03*
Y181108D02*
D03*
X343340Y101106D02*
D03*
Y105043D02*
D03*
X419000Y176639D02*
D03*
Y180577D02*
D03*
X419000Y156603D02*
D03*
Y160540D02*
D03*
X423493Y176561D02*
D03*
Y180498D02*
D03*
X423493Y156603D02*
D03*
Y160540D02*
D03*
X419000Y166256D02*
D03*
Y170193D02*
D03*
X419000Y146209D02*
D03*
Y150146D02*
D03*
X423493Y166256D02*
D03*
Y170193D02*
D03*
Y146209D02*
D03*
Y150146D02*
D03*
X381924Y141354D02*
D03*
Y137417D02*
D03*
X345756Y169213D02*
D03*
Y173150D02*
D03*
X350513Y168032D02*
D03*
Y171968D02*
D03*
X345756Y188894D02*
D03*
Y184957D02*
D03*
D64*
X414364Y44813D02*
D03*
X437986D02*
D03*
X426175Y48514D02*
D03*
Y60325D02*
D03*
D65*
X439500Y178500D02*
D03*
Y168500D02*
D03*
Y158500D02*
D03*
Y148500D02*
D03*
Y138500D02*
D03*
Y102500D02*
D03*
D66*
Y128500D02*
D03*
Y92500D02*
D03*
D67*
X260000Y90000D02*
D03*
X250000D02*
D03*
D68*
X248000Y134537D02*
D03*
Y144537D02*
D03*
Y154537D02*
D03*
Y164537D02*
D03*
D69*
X235598Y168738D02*
D03*
D70*
X332556Y190190D02*
D03*
D71*
X322556D02*
D03*
X312556D02*
D03*
D72*
X250000Y25000D02*
D03*
Y200000D02*
D03*
X425000D02*
D03*
Y25000D02*
D03*
D73*
X435000Y165000D02*
D03*
Y135000D02*
D03*
X442500Y120000D02*
D03*
X435000Y75000D02*
D03*
X442500Y60000D02*
D03*
Y30000D02*
D03*
X435000Y15000D02*
D03*
X420000Y135000D02*
D03*
X427500Y120000D02*
D03*
X420000Y105000D02*
D03*
Y45000D02*
D03*
Y15000D02*
D03*
X412500Y180000D02*
D03*
X405000Y135000D02*
D03*
X412500Y120000D02*
D03*
Y90000D02*
D03*
X405000Y45000D02*
D03*
X412500Y30000D02*
D03*
X405000Y15000D02*
D03*
X397500Y180000D02*
D03*
X390000Y135000D02*
D03*
X397500Y120000D02*
D03*
Y90000D02*
D03*
X390000Y75000D02*
D03*
Y45000D02*
D03*
X382500Y180000D02*
D03*
X375000Y165000D02*
D03*
X382500Y120000D02*
D03*
Y90000D02*
D03*
X375000Y75000D02*
D03*
X367500Y90000D02*
D03*
X360000Y75000D02*
D03*
Y45000D02*
D03*
X352500Y180000D02*
D03*
X345000Y45000D02*
D03*
X337500Y180000D02*
D03*
Y120000D02*
D03*
X330000Y105000D02*
D03*
X337500Y60000D02*
D03*
Y30000D02*
D03*
X322500Y90000D02*
D03*
Y60000D02*
D03*
X315000Y15000D02*
D03*
X300000Y165000D02*
D03*
X307500Y120000D02*
D03*
Y60000D02*
D03*
Y30000D02*
D03*
X292500Y120000D02*
D03*
X285000Y105000D02*
D03*
X292500Y90000D02*
D03*
X285000Y45000D02*
D03*
Y15000D02*
D03*
X270000Y135000D02*
D03*
X277500Y120000D02*
D03*
X270000Y105000D02*
D03*
X277500Y90000D02*
D03*
X270000Y75000D02*
D03*
Y45000D02*
D03*
Y15000D02*
D03*
X262500Y180000D02*
D03*
X255000Y165000D02*
D03*
Y135000D02*
D03*
X262500Y120000D02*
D03*
X255000Y105000D02*
D03*
Y75000D02*
D03*
X262500Y60000D02*
D03*
X255000Y45000D02*
D03*
X262500Y30000D02*
D03*
X255000Y15000D02*
D03*
X247500Y180000D02*
D03*
X240000Y135000D02*
D03*
X247500Y120000D02*
D03*
X240000Y105000D02*
D03*
Y75000D02*
D03*
X247500Y60000D02*
D03*
X240000Y45000D02*
D03*
Y15000D02*
D03*
D74*
X317205Y92771D02*
D03*
X387750Y104946D02*
D03*
X340242Y162407D02*
D03*
X327547Y135916D02*
D03*
X387434Y93929D02*
D03*
X312975Y101040D02*
D03*
X397500Y67500D02*
D03*
X360365Y191543D02*
D03*
X317050Y132983D02*
D03*
X323313Y149032D02*
D03*
X351891Y175774D02*
D03*
X366130Y172050D02*
D03*
X373789Y161003D02*
D03*
X369435Y123706D02*
D03*
X363000Y152000D02*
D03*
X361221Y155350D02*
D03*
X359721Y163350D02*
D03*
X330681Y158775D02*
D03*
X266331Y127227D02*
D03*
X281151Y162926D02*
D03*
X270988Y155632D02*
D03*
X379486Y182598D02*
D03*
X391072Y78658D02*
D03*
X363986Y74598D02*
D03*
X288158Y50436D02*
D03*
X294608Y31250D02*
D03*
X295986Y36565D02*
D03*
X293786Y40244D02*
D03*
X275992Y28559D02*
D03*
X369140Y97869D02*
D03*
X320563Y155563D02*
D03*
X315213Y160913D02*
D03*
X325969Y155471D02*
D03*
X330481Y161589D02*
D03*
X289621Y194480D02*
D03*
X379000Y194307D02*
D03*
X358479Y99141D02*
D03*
X357986Y65098D02*
D03*
X352425Y65342D02*
D03*
X287958Y179785D02*
D03*
Y189179D02*
D03*
X362786Y165841D02*
D03*
X357806Y159091D02*
D03*
X358376Y134952D02*
D03*
X280486Y149805D02*
D03*
X279995Y142282D02*
D03*
X300253Y103994D02*
D03*
X383309Y22000D02*
D03*
X308193Y112000D02*
D03*
X301972Y108567D02*
D03*
X362421Y29971D02*
D03*
X363291Y21042D02*
D03*
D75*
X295071Y137400D02*
D03*
X299402D02*
D03*
X303733D02*
D03*
X295071Y141731D02*
D03*
X299402D02*
D03*
X303733D02*
D03*
X295071Y146062D02*
D03*
X299402D02*
D03*
X303733D02*
D03*
X295071Y150393D02*
D03*
X299402D02*
D03*
X303733D02*
D03*
X295071Y154723D02*
D03*
X299402D02*
D03*
X303733D02*
D03*
X349496Y139279D02*
D03*
Y143610D02*
D03*
Y147941D02*
D03*
Y152271D02*
D03*
X345165Y139279D02*
D03*
Y143610D02*
D03*
Y147941D02*
D03*
Y152271D02*
D03*
X340835Y139279D02*
D03*
Y143610D02*
D03*
Y147941D02*
D03*
Y152271D02*
D03*
X336504Y139279D02*
D03*
Y143610D02*
D03*
Y147941D02*
D03*
Y152271D02*
D03*
D90*
X345756Y204000D02*
D03*
Y217779D02*
D03*
D91*
X427598Y106555D02*
D03*
Y97500D02*
D03*
Y88445D02*
D03*
D92*
X402402Y97500D02*
D03*
D93*
X288083Y129428D02*
D03*
Y131987D02*
D03*
Y134546D02*
D03*
Y137105D02*
D03*
Y139664D02*
D03*
Y142223D02*
D03*
Y144782D02*
D03*
Y147341D02*
D03*
Y149900D02*
D03*
Y152460D02*
D03*
Y155019D02*
D03*
Y157578D02*
D03*
Y160137D02*
D03*
Y162696D02*
D03*
X310721Y129428D02*
D03*
Y131987D02*
D03*
Y134546D02*
D03*
Y137105D02*
D03*
Y139664D02*
D03*
Y142223D02*
D03*
Y144782D02*
D03*
Y147341D02*
D03*
Y149900D02*
D03*
Y152460D02*
D03*
Y155019D02*
D03*
Y157578D02*
D03*
Y160137D02*
D03*
Y162696D02*
D03*
D94*
X299402Y146062D02*
D03*
D95*
X314500Y104633D02*
D03*
X312531D02*
D03*
X310563D02*
D03*
Y97448D02*
D03*
X312531D02*
D03*
X314500D02*
D03*
D96*
X307955Y103993D02*
D03*
Y102024D02*
D03*
Y100056D02*
D03*
Y98088D02*
D03*
X317108D02*
D03*
Y100056D02*
D03*
Y102024D02*
D03*
Y103993D02*
D03*
D97*
X339600Y84334D02*
D03*
X343340Y92601D02*
D03*
X335859D02*
D03*
D98*
X351661Y134161D02*
D03*
X350087D02*
D03*
X348512D02*
D03*
X346937D02*
D03*
X345362D02*
D03*
X343787D02*
D03*
X342213D02*
D03*
X340638D02*
D03*
X339063D02*
D03*
X337488D02*
D03*
X335913D02*
D03*
X334339D02*
D03*
Y157389D02*
D03*
X335913D02*
D03*
X337488D02*
D03*
X339063D02*
D03*
X340638D02*
D03*
X342213D02*
D03*
X343787D02*
D03*
X345362D02*
D03*
X346937D02*
D03*
X348512D02*
D03*
X350087D02*
D03*
X351661D02*
D03*
D99*
X331386Y137114D02*
D03*
Y138689D02*
D03*
Y140263D02*
D03*
Y141838D02*
D03*
Y143413D02*
D03*
Y144988D02*
D03*
Y146563D02*
D03*
Y148137D02*
D03*
Y149712D02*
D03*
Y151287D02*
D03*
Y152862D02*
D03*
Y154437D02*
D03*
X354614D02*
D03*
Y152862D02*
D03*
Y151287D02*
D03*
Y149712D02*
D03*
Y148137D02*
D03*
Y146563D02*
D03*
Y144988D02*
D03*
Y143413D02*
D03*
Y141838D02*
D03*
Y140263D02*
D03*
Y138689D02*
D03*
Y137114D02*
D03*
D100*
X343000Y145775D02*
D03*
D101*
X370638Y194307D02*
D03*
Y182693D02*
D03*
D102*
X364634Y188500D02*
D03*
D103*
X345756Y203644D02*
X346112Y204000D01*
X345756Y203644D02*
Y204000D01*
Y196536D02*
Y203644D01*
X345756Y196536D02*
X345756Y196536D01*
X345756Y190106D02*
Y192599D01*
X345756Y192599D02*
X345756Y192599D01*
X347513Y190848D02*
X350710D01*
X345756Y189091D02*
X347513Y190848D01*
X345756Y188894D02*
Y189091D01*
X350710Y190848D02*
X351406Y191543D01*
X345756Y184957D02*
X345756Y184957D01*
Y181108D02*
Y184957D01*
Y181108D02*
X345756Y181108D01*
X342213Y157389D02*
X342253Y157429D01*
Y159395D01*
X345756Y162898D02*
Y165054D01*
X342253Y159395D02*
X345756Y162898D01*
Y165054D02*
X345756Y165054D01*
Y169213D01*
X345756Y169213D01*
Y173150D02*
Y177171D01*
X346451Y177866D01*
Y178851D01*
X351209Y183077D02*
X351406D01*
X346983Y178851D02*
X351209Y183077D01*
X346451Y178851D02*
X346983D01*
X359112Y183077D02*
X364536Y188500D01*
X355343Y183077D02*
X359112D01*
X364536Y188500D02*
X364634D01*
X345165Y196859D02*
Y197056D01*
M02*
