G04*
G04 #@! TF.GenerationSoftware,Altium Limited,Altium Designer,21.5.1 (32)*
G04*
G04 Layer_Physical_Order=2*
G04 Layer_Color=32768*
%FSLAX25Y25*%
%MOIN*%
G70*
G04*
G04 #@! TF.SameCoordinates,C11210EE-706E-4053-A979-2A702EC27353*
G04*
G04*
G04 #@! TF.FilePolarity,Negative*
G04*
G01*
G75*
%ADD59C,0.04000*%
%ADD76C,0.04913*%
%ADD77C,0.05031*%
%ADD78C,0.03456*%
%ADD79C,0.05700*%
%ADD80C,0.08798*%
%ADD81C,0.04243*%
%ADD82C,0.11900*%
%ADD83C,0.02200*%
%ADD84C,0.01500*%
%ADD85C,0.01487*%
D59*
X225000Y-0D02*
Y225000D01*
X450000D01*
Y-0D02*
Y225000D01*
X225000Y-0D02*
X450000D01*
D76*
X414364Y44813D02*
D03*
X437986D02*
D03*
X426175Y48514D02*
D03*
Y60325D02*
D03*
D77*
X439500Y178500D02*
D03*
Y168500D02*
D03*
Y158500D02*
D03*
Y148500D02*
D03*
Y138500D02*
D03*
Y128500D02*
D03*
Y92500D02*
D03*
Y102500D02*
D03*
D78*
X260000Y90000D02*
D03*
X250000D02*
D03*
D79*
X248000Y134537D02*
D03*
Y144537D02*
D03*
Y154537D02*
D03*
Y164537D02*
D03*
D80*
X235598Y168738D02*
D03*
D81*
X332556Y190190D02*
D03*
X322556D02*
D03*
X312556D02*
D03*
D82*
X250000Y25000D02*
D03*
Y200000D02*
D03*
X425000D02*
D03*
Y25000D02*
D03*
D83*
X435000Y165000D02*
D03*
Y135000D02*
D03*
X442500Y120000D02*
D03*
X435000Y75000D02*
D03*
X442500Y60000D02*
D03*
Y30000D02*
D03*
X435000Y15000D02*
D03*
X420000Y135000D02*
D03*
X427500Y120000D02*
D03*
X420000Y105000D02*
D03*
Y45000D02*
D03*
Y15000D02*
D03*
X412500Y180000D02*
D03*
X405000Y135000D02*
D03*
X412500Y120000D02*
D03*
Y90000D02*
D03*
X405000Y45000D02*
D03*
X412500Y30000D02*
D03*
X405000Y15000D02*
D03*
X397500Y180000D02*
D03*
X390000Y135000D02*
D03*
X397500Y120000D02*
D03*
Y90000D02*
D03*
X390000Y75000D02*
D03*
Y45000D02*
D03*
X382500Y180000D02*
D03*
X375000Y165000D02*
D03*
X382500Y120000D02*
D03*
Y90000D02*
D03*
X375000Y75000D02*
D03*
X367500Y90000D02*
D03*
X360000Y75000D02*
D03*
Y45000D02*
D03*
X352500Y180000D02*
D03*
X345000Y45000D02*
D03*
X337500Y180000D02*
D03*
Y120000D02*
D03*
X330000Y105000D02*
D03*
X337500Y60000D02*
D03*
Y30000D02*
D03*
X322500Y90000D02*
D03*
Y60000D02*
D03*
X315000Y15000D02*
D03*
X300000Y165000D02*
D03*
X307500Y120000D02*
D03*
Y60000D02*
D03*
Y30000D02*
D03*
X292500Y120000D02*
D03*
X285000Y105000D02*
D03*
X292500Y90000D02*
D03*
X285000Y45000D02*
D03*
Y15000D02*
D03*
X270000Y135000D02*
D03*
X277500Y120000D02*
D03*
X270000Y105000D02*
D03*
X277500Y90000D02*
D03*
X270000Y75000D02*
D03*
Y45000D02*
D03*
Y15000D02*
D03*
X262500Y180000D02*
D03*
X255000Y165000D02*
D03*
Y135000D02*
D03*
X262500Y120000D02*
D03*
X255000Y105000D02*
D03*
Y75000D02*
D03*
X262500Y60000D02*
D03*
X255000Y45000D02*
D03*
X262500Y30000D02*
D03*
X255000Y15000D02*
D03*
X247500Y180000D02*
D03*
X240000Y135000D02*
D03*
X247500Y120000D02*
D03*
X240000Y105000D02*
D03*
Y75000D02*
D03*
X247500Y60000D02*
D03*
X240000Y45000D02*
D03*
Y15000D02*
D03*
D84*
X387750Y104946D02*
D03*
X340242Y162407D02*
D03*
X387434Y93929D02*
D03*
X312975Y101040D02*
D03*
X397500Y67500D02*
D03*
X360365Y191543D02*
D03*
X317050Y132983D02*
D03*
X323313Y149032D02*
D03*
X351891Y175774D02*
D03*
X366130Y172050D02*
D03*
X373789Y161003D02*
D03*
X369435Y123706D02*
D03*
X363000Y152000D02*
D03*
X361221Y155350D02*
D03*
X359721Y163350D02*
D03*
X330681Y158775D02*
D03*
X266331Y127227D02*
D03*
X281151Y162926D02*
D03*
X270988Y155632D02*
D03*
X379486Y182598D02*
D03*
X391072Y78658D02*
D03*
X363986Y74598D02*
D03*
X288158Y50436D02*
D03*
X294608Y31250D02*
D03*
X295986Y36565D02*
D03*
X293786Y40244D02*
D03*
X275992Y28559D02*
D03*
X369140Y97869D02*
D03*
X320563Y155563D02*
D03*
X315213Y160913D02*
D03*
X325969Y155471D02*
D03*
X330481Y161589D02*
D03*
X379000Y194307D02*
D03*
X352425Y65342D02*
D03*
X287958Y179785D02*
D03*
Y189179D02*
D03*
X362786Y165841D02*
D03*
X280486Y149805D02*
D03*
X279995Y142282D02*
D03*
X383309Y22000D02*
D03*
X308193Y112000D02*
D03*
X362421Y29971D02*
D03*
X363291Y21042D02*
D03*
D85*
X295071Y137400D02*
D03*
X299402D02*
D03*
X303733D02*
D03*
X295071Y141731D02*
D03*
X299402D02*
D03*
X303733D02*
D03*
X295071Y146062D02*
D03*
X299402D02*
D03*
X303733D02*
D03*
X295071Y150393D02*
D03*
X299402D02*
D03*
X303733D02*
D03*
X295071Y154723D02*
D03*
X299402D02*
D03*
X303733D02*
D03*
X349496Y139279D02*
D03*
Y143610D02*
D03*
Y147941D02*
D03*
Y152271D02*
D03*
X345165Y139279D02*
D03*
Y143610D02*
D03*
Y147941D02*
D03*
Y152271D02*
D03*
X340835Y139279D02*
D03*
Y143610D02*
D03*
Y147941D02*
D03*
Y152271D02*
D03*
X336504Y139279D02*
D03*
Y143610D02*
D03*
Y147941D02*
D03*
Y152271D02*
D03*
M02*
