G04*
G04 #@! TF.GenerationSoftware,Altium Limited,Altium Designer,21.5.1 (32)*
G04*
G04 Layer_Color=16711935*
%FSLAX25Y25*%
%MOIN*%
G70*
G04*
G04 #@! TF.SameCoordinates,C11210EE-706E-4053-A979-2A702EC27353*
G04*
G04*
G04 #@! TF.FilePolarity,Negative*
G04*
G01*
G75*
%ADD21R,0.06102X0.06496*%
%ADD23R,0.03740X0.04134*%
%ADD28R,0.02953X0.02559*%
%ADD30R,0.02559X0.02953*%
%ADD36C,0.06969*%
%ADD37C,0.07087*%
%ADD38R,0.07087X0.07087*%
%ADD39C,0.05315*%
%ADD40C,0.08091*%
%ADD41C,0.04638*%
%ADD42R,0.06496X0.06496*%
%ADD43C,0.06496*%
%ADD44C,0.11791*%
%ADD91R,0.05906X0.04724*%
%ADD92R,0.05906X0.12992*%
%ADD95R,0.01378X0.02264*%
%ADD96R,0.02264X0.01378*%
G04:AMPARAMS|DCode=97|XSize=51.18mil|YSize=23.62mil|CornerRadius=2.01mil|HoleSize=0mil|Usage=FLASHONLY|Rotation=270.000|XOffset=0mil|YOffset=0mil|HoleType=Round|Shape=RoundedRectangle|*
%AMROUNDEDRECTD97*
21,1,0.05118,0.01961,0,0,270.0*
21,1,0.04717,0.02362,0,0,270.0*
1,1,0.00402,-0.00980,-0.02358*
1,1,0.00402,-0.00980,0.02358*
1,1,0.00402,0.00980,0.02358*
1,1,0.00402,0.00980,-0.02358*
%
%ADD97ROUNDEDRECTD97*%
%ADD101R,0.08661X0.04134*%
%ADD102R,0.04134X0.03937*%
%ADD104R,0.05796X0.36507*%
%ADD105R,0.06709X0.36228*%
%ADD106R,0.11417X0.09998*%
%ADD107R,0.04706X0.19658*%
%ADD108R,0.04776X0.18799*%
%ADD109R,0.06496X0.06496*%
G04:AMPARAMS|DCode=110|XSize=19.68mil|YSize=55.12mil|CornerRadius=4.95mil|HoleSize=0mil|Usage=FLASHONLY|Rotation=270.000|XOffset=0mil|YOffset=0mil|HoleType=Round|Shape=RoundedRectangle|*
%AMROUNDEDRECTD110*
21,1,0.01968,0.04522,0,0,270.0*
21,1,0.00978,0.05512,0,0,270.0*
1,1,0.00990,-0.02261,-0.00489*
1,1,0.00990,-0.02261,0.00489*
1,1,0.00990,0.02261,0.00489*
1,1,0.00990,0.02261,-0.00489*
%
%ADD110ROUNDEDRECTD110*%
G04:AMPARAMS|DCode=111|XSize=127.95mil|YSize=209.84mil|CornerRadius=4.78mil|HoleSize=0mil|Usage=FLASHONLY|Rotation=0.000|XOffset=0mil|YOffset=0mil|HoleType=Round|Shape=RoundedRectangle|*
%AMROUNDEDRECTD111*
21,1,0.12795,0.20028,0,0,0.0*
21,1,0.11839,0.20984,0,0,0.0*
1,1,0.00957,0.05919,-0.10014*
1,1,0.00957,-0.05919,-0.10014*
1,1,0.00957,-0.05919,0.10014*
1,1,0.00957,0.05919,0.10014*
%
%ADD111ROUNDEDRECTD111*%
%ADD112O,0.01378X0.04331*%
%ADD113O,0.04331X0.01378*%
%ADD114R,0.18701X0.18701*%
%ADD115R,0.04134X0.03740*%
D21*
X374553Y131000D02*
D03*
X366679D02*
D03*
D23*
X369910Y111984D02*
D03*
X375422D02*
D03*
X369910Y118480D02*
D03*
X375422D02*
D03*
X419796Y77800D02*
D03*
X425308D02*
D03*
X394961Y78300D02*
D03*
X400472D02*
D03*
X271061Y126515D02*
D03*
X276573D02*
D03*
X312556Y170000D02*
D03*
X307044D02*
D03*
X363374Y139176D02*
D03*
X368886D02*
D03*
X315731Y89500D02*
D03*
X310219D02*
D03*
X368886Y159133D02*
D03*
X363374D02*
D03*
X291259Y109258D02*
D03*
X296771D02*
D03*
X354114Y125478D02*
D03*
X359625D02*
D03*
D28*
X358161Y118599D02*
D03*
X362099D02*
D03*
X358346Y111984D02*
D03*
X362283D02*
D03*
X378532Y102500D02*
D03*
X382469D02*
D03*
X276573Y131987D02*
D03*
X272636D02*
D03*
X288375Y170000D02*
D03*
X292312D02*
D03*
X301833D02*
D03*
X297896D02*
D03*
X351406Y183077D02*
D03*
X355343D02*
D03*
X355343Y191543D02*
D03*
X351406D02*
D03*
X341819Y165054D02*
D03*
X345756D02*
D03*
D30*
X345756Y196536D02*
D03*
Y192599D02*
D03*
X282500Y132027D02*
D03*
Y128090D02*
D03*
X373847Y98260D02*
D03*
Y102197D02*
D03*
X345756Y177171D02*
D03*
Y181108D02*
D03*
X343340Y101106D02*
D03*
Y105043D02*
D03*
X419000Y176639D02*
D03*
Y180577D02*
D03*
X419000Y156603D02*
D03*
Y160540D02*
D03*
X423493Y176561D02*
D03*
Y180498D02*
D03*
X423493Y156603D02*
D03*
Y160540D02*
D03*
X419000Y166256D02*
D03*
Y170193D02*
D03*
X419000Y146209D02*
D03*
Y150146D02*
D03*
X423493Y166256D02*
D03*
Y170193D02*
D03*
Y146209D02*
D03*
Y150146D02*
D03*
X381924Y141354D02*
D03*
Y137417D02*
D03*
X345756Y169213D02*
D03*
Y173150D02*
D03*
X350513Y168032D02*
D03*
Y171968D02*
D03*
X345756Y188894D02*
D03*
Y184957D02*
D03*
D36*
X414364Y44813D02*
D03*
X437986D02*
D03*
X426175Y48514D02*
D03*
Y60325D02*
D03*
D37*
X439500Y178500D02*
D03*
Y168500D02*
D03*
Y158500D02*
D03*
Y148500D02*
D03*
Y138500D02*
D03*
Y102500D02*
D03*
D38*
Y128500D02*
D03*
Y92500D02*
D03*
D39*
X260000Y90000D02*
D03*
X250000D02*
D03*
D40*
X248000Y134537D02*
D03*
Y144537D02*
D03*
Y154537D02*
D03*
Y164537D02*
D03*
D41*
X235598Y168738D02*
D03*
D42*
X332556Y190190D02*
D03*
D43*
X322556D02*
D03*
X312556D02*
D03*
D44*
X250000Y25000D02*
D03*
Y200000D02*
D03*
X425000D02*
D03*
Y25000D02*
D03*
D91*
X427598Y106555D02*
D03*
Y97500D02*
D03*
Y88445D02*
D03*
D92*
X402402Y97500D02*
D03*
D95*
X314500Y104633D02*
D03*
X312531D02*
D03*
X310563D02*
D03*
Y97448D02*
D03*
X312531D02*
D03*
X314500D02*
D03*
D96*
X307955Y103993D02*
D03*
Y102024D02*
D03*
Y100056D02*
D03*
Y98088D02*
D03*
X317108D02*
D03*
Y100056D02*
D03*
Y102024D02*
D03*
Y103993D02*
D03*
D97*
X339600Y84334D02*
D03*
X343340Y92601D02*
D03*
X335859D02*
D03*
D101*
X370638Y194307D02*
D03*
Y182693D02*
D03*
D102*
X364634Y188500D02*
D03*
D104*
X288627Y146914D02*
D03*
D105*
X310491Y147053D02*
D03*
D106*
X312979Y100726D02*
D03*
D107*
X354312Y145801D02*
D03*
D108*
X332041Y144262D02*
D03*
D109*
X345756Y204000D02*
D03*
Y217779D02*
D03*
D110*
X288083Y129428D02*
D03*
Y131987D02*
D03*
Y134546D02*
D03*
Y137105D02*
D03*
Y139664D02*
D03*
Y142223D02*
D03*
Y144782D02*
D03*
Y147341D02*
D03*
Y149900D02*
D03*
Y152460D02*
D03*
Y155019D02*
D03*
Y157578D02*
D03*
Y160137D02*
D03*
Y162696D02*
D03*
X310721Y129428D02*
D03*
Y131987D02*
D03*
Y134546D02*
D03*
Y137105D02*
D03*
Y139664D02*
D03*
Y142223D02*
D03*
Y144782D02*
D03*
Y147341D02*
D03*
Y149900D02*
D03*
Y152460D02*
D03*
Y155019D02*
D03*
Y157578D02*
D03*
Y160137D02*
D03*
Y162696D02*
D03*
D111*
X299402Y146062D02*
D03*
D112*
X351661Y134161D02*
D03*
X350087D02*
D03*
X348512D02*
D03*
X346937D02*
D03*
X345362D02*
D03*
X343787D02*
D03*
X342213D02*
D03*
X340638D02*
D03*
X339063D02*
D03*
X337488D02*
D03*
X335913D02*
D03*
X334339D02*
D03*
Y157389D02*
D03*
X335913D02*
D03*
X337488D02*
D03*
X339063D02*
D03*
X340638D02*
D03*
X342213D02*
D03*
X343787D02*
D03*
X345362D02*
D03*
X346937D02*
D03*
X348512D02*
D03*
X350087D02*
D03*
X351661D02*
D03*
D113*
X331386Y137114D02*
D03*
Y138689D02*
D03*
Y140263D02*
D03*
Y141838D02*
D03*
Y143413D02*
D03*
Y144988D02*
D03*
Y146563D02*
D03*
Y148137D02*
D03*
Y149712D02*
D03*
Y151287D02*
D03*
Y152862D02*
D03*
Y154437D02*
D03*
X354614D02*
D03*
Y152862D02*
D03*
Y151287D02*
D03*
Y149712D02*
D03*
Y148137D02*
D03*
Y146563D02*
D03*
Y144988D02*
D03*
Y143413D02*
D03*
Y141838D02*
D03*
Y140263D02*
D03*
Y138689D02*
D03*
Y137114D02*
D03*
D114*
X343000Y145775D02*
D03*
D115*
X300155Y99664D02*
D03*
Y94152D02*
D03*
X327361Y87335D02*
D03*
Y92846D02*
D03*
X338419Y99138D02*
D03*
Y104650D02*
D03*
X355539Y173806D02*
D03*
Y168294D02*
D03*
X376378Y141701D02*
D03*
Y147213D02*
D03*
M02*
