G04*
G04 #@! TF.GenerationSoftware,Altium Limited,Altium Designer,21.5.1 (32)*
G04*
G04 Layer_Color=65535*
%FSLAX25Y25*%
%MOIN*%
G70*
G04*
G04 #@! TF.SameCoordinates,9DB8949B-C02E-4DCA-B792-844CB0D99077*
G04*
G04*
G04 #@! TF.FilePolarity,Positive*
G04*
G01*
G75*
%ADD10C,0.00984*%
%ADD11C,0.00787*%
%ADD12C,0.00600*%
%ADD13C,0.00394*%
%ADD14C,0.01575*%
%ADD15C,0.00800*%
%ADD16C,0.00500*%
%ADD17C,0.01000*%
D10*
X315492Y78545D02*
G03*
X315492Y78545I-492J0D01*
G01*
X302972Y27310D02*
G03*
X302972Y27310I-492J0D01*
G01*
X367819Y36959D02*
G03*
X367819Y36959I-492J0D01*
G01*
X273986Y198268D02*
G03*
X273986Y198268I-492J0D01*
G01*
D11*
X321701Y15795D02*
G03*
X321701Y15795I-169J0D01*
G01*
X426305Y71870D02*
G03*
X426305Y71870I-290J0D01*
G01*
X248787Y121939D02*
G03*
X248000Y121939I-394J0D01*
G01*
D02*
G03*
X248787Y121939I394J0D01*
G01*
X309685Y60533D02*
Y69391D01*
X320315Y60533D02*
Y69391D01*
X308591Y21236D02*
Y49583D01*
X334772Y21236D02*
Y49583D01*
X308591Y21236D02*
X314130D01*
X308591Y49583D02*
X314130D01*
X329232Y21236D02*
X334551D01*
X329232Y49583D02*
X334551D01*
X292937Y57941D02*
Y63059D01*
X412910Y41209D02*
X439090D01*
X412910Y70224D02*
X439090D01*
Y49134D02*
Y70224D01*
X412910Y49134D02*
Y70224D01*
X394156Y119366D02*
X447660D01*
Y189405D01*
X396912D02*
X447660D01*
X400303Y54782D02*
X403453D01*
X400303Y60688D02*
X403453D01*
X348013Y93192D02*
Y94373D01*
X277205Y24256D02*
Y25437D01*
X299921Y18457D02*
X305039D01*
X283110Y42073D02*
X284291D01*
X245000Y85000D02*
X265000D01*
Y95000D01*
X245000D02*
X265000D01*
X245000Y85000D02*
Y95000D01*
X396980Y113008D02*
X447728D01*
Y83992D02*
Y113008D01*
X394224Y83992D02*
X447728D01*
X371065Y78051D02*
X381695D01*
X371065Y71949D02*
X381695D01*
X288504Y18063D02*
X289685D01*
X352344Y83940D02*
Y89058D01*
X292980Y65618D02*
Y70737D01*
X273257Y31837D02*
Y33018D01*
X370378Y36073D02*
X374315D01*
X370378Y23868D02*
X374315D01*
X370378D02*
Y36073D01*
X374315Y23868D02*
Y36073D01*
X307556Y195190D02*
X337556D01*
X307556Y185190D02*
Y195190D01*
Y185190D02*
X337556D01*
Y195190D01*
X287822Y200768D02*
X290504D01*
X287822Y175768D02*
X290504D01*
X376087Y45658D02*
X377268D01*
X376087Y65342D02*
X377268D01*
X353117Y36270D02*
Y37648D01*
X355184Y31054D02*
X358629D01*
Y40010D02*
Y42865D01*
Y31054D02*
Y33908D01*
X355184Y42865D02*
X358629D01*
D12*
X291667Y162507D02*
X307356D01*
X291667Y148908D02*
X307356D01*
X291448Y143215D02*
X307137D01*
X291448Y129617D02*
X307137D01*
X311606Y100507D02*
X312206Y101107D01*
X313405D01*
X314005Y100507D01*
Y99907D01*
X313405Y99307D01*
X312806D01*
X313405D01*
X314005Y98707D01*
Y98107D01*
X313405Y97508D01*
X312206D01*
X311606Y98107D01*
X315205Y101107D02*
Y98707D01*
X316405Y97508D01*
X317604Y98707D01*
Y101107D01*
X318804Y100507D02*
X319404Y101107D01*
X320603D01*
X321203Y100507D01*
Y99907D01*
X320603Y99307D01*
X320003D01*
X320603D01*
X321203Y98707D01*
Y98107D01*
X320603Y97508D01*
X319404D01*
X318804Y98107D01*
X314160Y95557D02*
X311761D01*
Y93758D01*
X312960Y94358D01*
X313560D01*
X314160Y93758D01*
Y92558D01*
X313560Y91958D01*
X312360D01*
X311761Y92558D01*
X315359Y95557D02*
Y93158D01*
X316559Y91958D01*
X317759Y93158D01*
Y95557D01*
X318958Y94957D02*
X319558Y95557D01*
X320758D01*
X321357Y94957D01*
Y92558D01*
X320758Y91958D01*
X319558D01*
X318958Y92558D01*
Y94957D01*
X311761Y85604D02*
X312960D01*
X312360D01*
Y89203D01*
X311761Y88603D01*
X317159Y85604D02*
X314760D01*
X317159Y88003D01*
Y88603D01*
X316559Y89203D01*
X315359D01*
X314760Y88603D01*
X318358Y89203D02*
Y86804D01*
X319558Y85604D01*
X320758Y86804D01*
Y89203D01*
X321957Y88603D02*
X322557Y89203D01*
X323757D01*
X324357Y88603D01*
Y86204D01*
X323757Y85604D01*
X322557D01*
X321957Y86204D01*
Y88603D01*
X266737Y20594D02*
Y24193D01*
X268536D01*
X269136Y23593D01*
Y22394D01*
X268536Y21794D01*
X266737D01*
X267936D02*
X269136Y20594D01*
X270336Y23593D02*
X270936Y24193D01*
X272135D01*
X272735Y23593D01*
Y22994D01*
X272135Y22394D01*
X271535D01*
X272135D01*
X272735Y21794D01*
Y21194D01*
X272135Y20594D01*
X270936D01*
X270336Y21194D01*
X275734Y20594D02*
Y24193D01*
X273935Y22394D01*
X276334D01*
X329501Y56267D02*
Y52668D01*
X331900D01*
X333100Y56267D02*
X335499D01*
Y55667D01*
X333100Y53268D01*
Y52668D01*
X414981Y54782D02*
Y56915D01*
X413382D01*
Y55849D01*
Y56915D01*
X411782D01*
Y53716D02*
Y52650D01*
Y53183D01*
X414981D01*
X414448Y53716D01*
X359556Y173183D02*
X359023Y172649D01*
Y171583D01*
X359556Y171050D01*
X361689D01*
X362222Y171583D01*
Y172649D01*
X361689Y173183D01*
X362222Y174249D02*
Y175315D01*
Y174782D01*
X359023D01*
X359556Y174249D01*
X362222Y179047D02*
Y176915D01*
X360089Y179047D01*
X359556D01*
X359023Y178514D01*
Y177448D01*
X359556Y176915D01*
X345212Y141282D02*
Y138083D01*
X343613D01*
X343079Y138616D01*
Y139682D01*
X343613Y140215D01*
X345212D01*
X344146D02*
X343079Y141282D01*
X342013Y138616D02*
X341480Y138083D01*
X340414D01*
X339880Y138616D01*
Y139149D01*
X340414Y139682D01*
X340947D01*
X340414D01*
X339880Y140215D01*
Y140748D01*
X340414Y141282D01*
X341480D01*
X342013Y140748D01*
X338814Y138616D02*
X338281Y138083D01*
X337215D01*
X336682Y138616D01*
Y140748D01*
X337215Y141282D01*
X338281D01*
X338814Y140748D01*
Y138616D01*
X319517Y135410D02*
Y138609D01*
X321116D01*
X321650Y138076D01*
Y137010D01*
X321116Y136477D01*
X319517D01*
X320583D02*
X321650Y135410D01*
X324849D02*
X322716D01*
X324849Y137543D01*
Y138076D01*
X324316Y138609D01*
X323249D01*
X322716Y138076D01*
X325915Y135943D02*
X326448Y135410D01*
X327514D01*
X328048Y135943D01*
Y138076D01*
X327514Y138609D01*
X326448D01*
X325915Y138076D01*
Y137543D01*
X326448Y137010D01*
X328048D01*
X292909Y164400D02*
Y167599D01*
X294509D01*
X295042Y167066D01*
Y166000D01*
X294509Y165467D01*
X292909D01*
X293976D02*
X295042Y164400D01*
X298241D02*
X296108D01*
X298241Y166533D01*
Y167066D01*
X297708Y167599D01*
X296641D01*
X296108Y167066D01*
X299307D02*
X299840Y167599D01*
X300907D01*
X301440Y167066D01*
Y166533D01*
X300907Y166000D01*
X300374D01*
X300907D01*
X301440Y165467D01*
Y164934D01*
X300907Y164400D01*
X299840D01*
X299307Y164934D01*
X342334Y37870D02*
Y34671D01*
X343934D01*
X344467Y35204D01*
Y37336D01*
X343934Y37870D01*
X342334D01*
X347666D02*
X346600Y37336D01*
X345533Y36270D01*
Y35204D01*
X346066Y34671D01*
X347133D01*
X347666Y35204D01*
Y35737D01*
X347133Y36270D01*
X345533D01*
X258066Y121066D02*
X257533Y121599D01*
X256467D01*
X255934Y121066D01*
Y118934D01*
X256467Y118401D01*
X257533D01*
X258066Y118934D01*
X260732Y118401D02*
Y121599D01*
X259133Y120000D01*
X261265D01*
X263931Y118401D02*
Y121599D01*
X262332Y120000D01*
X264464D01*
X298099Y9001D02*
X294900D01*
Y10601D01*
X295434Y11134D01*
X296500D01*
X297033Y10601D01*
Y9001D01*
Y10068D02*
X298099Y11134D01*
Y12200D02*
Y13267D01*
Y12733D01*
X294900D01*
X295434Y12200D01*
X294900Y14866D02*
Y16999D01*
X295434D01*
X297566Y14866D01*
X298099D01*
X295924Y125171D02*
Y128370D01*
X297524D01*
X298057Y127837D01*
Y126771D01*
X297524Y126237D01*
X295924D01*
X296991D02*
X298057Y125171D01*
X301256D02*
X299124D01*
X301256Y127304D01*
Y127837D01*
X300723Y128370D01*
X299657D01*
X299124Y127837D01*
X304455Y125171D02*
X302323D01*
X304455Y127304D01*
Y127837D01*
X303922Y128370D01*
X302856D01*
X302323Y127837D01*
X302834Y67218D02*
Y64019D01*
X304434D01*
X304967Y64552D01*
Y66685D01*
X304434Y67218D01*
X302834D01*
X306033Y66685D02*
X306566Y67218D01*
X307633D01*
X308166Y66685D01*
Y66152D01*
X307633Y65618D01*
X307100D01*
X307633D01*
X308166Y65085D01*
Y64552D01*
X307633Y64019D01*
X306566D01*
X306033Y64552D01*
X338115Y88934D02*
Y85735D01*
X339714D01*
X340248Y86268D01*
Y88401D01*
X339714Y88934D01*
X338115D01*
X343446Y85735D02*
X341314D01*
X343446Y87868D01*
Y88401D01*
X342913Y88934D01*
X341847D01*
X341314Y88401D01*
X412376Y33099D02*
X411310D01*
X411843D01*
Y30434D01*
X411310Y29901D01*
X410777D01*
X410244Y30434D01*
X415575Y29901D02*
X413443D01*
X415575Y32033D01*
Y32566D01*
X415042Y33099D01*
X413976D01*
X413443Y32566D01*
X246867Y98566D02*
X246334Y99099D01*
X245268D01*
X244735Y98566D01*
Y96434D01*
X245268Y95900D01*
X246334D01*
X246867Y96434D01*
X249533Y95900D02*
Y99099D01*
X247934Y97500D01*
X250066D01*
X251133Y98566D02*
X251666Y99099D01*
X252732D01*
X253265Y98566D01*
Y96434D01*
X252732Y95900D01*
X251666D01*
X251133Y96434D01*
Y98566D01*
X362932Y91592D02*
Y94791D01*
X364532D01*
X365065Y94258D01*
Y93192D01*
X364532Y92659D01*
X362932D01*
X363998D02*
X365065Y91592D01*
X366131D02*
X367197D01*
X366664D01*
Y94791D01*
X366131Y94258D01*
X368797Y91592D02*
X369863D01*
X369330D01*
Y94791D01*
X368797Y94258D01*
X251967Y159970D02*
X250901D01*
X251434D01*
Y157304D01*
X250901Y156771D01*
X250367D01*
X249834Y157304D01*
X254633Y156771D02*
Y159970D01*
X253033Y158370D01*
X255166D01*
X337918Y94446D02*
Y91247D01*
X339518D01*
X340051Y91780D01*
Y93913D01*
X339518Y94446D01*
X337918D01*
X343250D02*
X341117D01*
Y92846D01*
X342183Y93380D01*
X342717D01*
X343250Y92846D01*
Y91780D01*
X342717Y91247D01*
X341650D01*
X341117Y91780D01*
X370862Y22069D02*
Y19403D01*
X371395Y18869D01*
X372461D01*
X372994Y19403D01*
Y22069D01*
X375660Y18869D02*
Y22069D01*
X374061Y20469D01*
X376193D01*
X361747Y97097D02*
Y100296D01*
X363347D01*
X363880Y99763D01*
Y98697D01*
X363347Y98164D01*
X361747D01*
X362813D02*
X363880Y97097D01*
X367079D02*
X364946D01*
X367079Y99230D01*
Y99763D01*
X366546Y100296D01*
X365479D01*
X364946Y99763D01*
X368145Y97097D02*
X369211D01*
X368678D01*
Y100296D01*
X368145Y99763D01*
X348467Y77399D02*
Y80598D01*
X350066D01*
X350600Y80065D01*
Y78999D01*
X350066Y78466D01*
X348467D01*
X349533D02*
X350600Y77399D01*
X353799D02*
X351666D01*
X353799Y79532D01*
Y80065D01*
X353265Y80598D01*
X352199D01*
X351666Y80065D01*
X354865D02*
X355398Y80598D01*
X356464D01*
X356998Y80065D01*
Y77933D01*
X356464Y77399D01*
X355398D01*
X354865Y77933D01*
Y80065D01*
X263589Y31419D02*
Y34618D01*
X265189D01*
X265722Y34084D01*
Y33018D01*
X265189Y32485D01*
X263589D01*
X264655D02*
X265722Y31419D01*
X266788D02*
X267854D01*
X267321D01*
Y34618D01*
X266788Y34084D01*
X269454Y31952D02*
X269987Y31419D01*
X271053D01*
X271586Y31952D01*
Y34084D01*
X271053Y34618D01*
X269987D01*
X269454Y34084D01*
Y33551D01*
X269987Y33018D01*
X271586D01*
X263589Y36512D02*
Y39711D01*
X265189D01*
X265722Y39178D01*
Y38112D01*
X265189Y37578D01*
X263589D01*
X264655D02*
X265722Y36512D01*
X266788D02*
X267854D01*
X267321D01*
Y39711D01*
X266788Y39178D01*
X269454D02*
X269987Y39711D01*
X271053D01*
X271586Y39178D01*
Y38645D01*
X271053Y38112D01*
X271586Y37578D01*
Y37045D01*
X271053Y36512D01*
X269987D01*
X269454Y37045D01*
Y37578D01*
X269987Y38112D01*
X269454Y38645D01*
Y39178D01*
X269987Y38112D02*
X271053D01*
X355431Y15110D02*
Y18309D01*
X357030D01*
X357563Y17776D01*
Y16710D01*
X357030Y16176D01*
X355431D01*
X356497D02*
X357563Y15110D01*
X358630D02*
X359696D01*
X359163D01*
Y18309D01*
X358630Y17776D01*
X363428Y18309D02*
X362362Y17776D01*
X361296Y16710D01*
Y15643D01*
X361829Y15110D01*
X362895D01*
X363428Y15643D01*
Y16176D01*
X362895Y16710D01*
X361296D01*
X340001Y23805D02*
Y27004D01*
X341601D01*
X342134Y26471D01*
Y25404D01*
X341601Y24871D01*
X340001D01*
X341068D02*
X342134Y23805D01*
X343200D02*
X344267D01*
X343733D01*
Y27004D01*
X343200Y26471D01*
X347999Y27004D02*
X345866D01*
Y25404D01*
X346932Y25938D01*
X347465D01*
X347999Y25404D01*
Y24338D01*
X347465Y23805D01*
X346399D01*
X345866Y24338D01*
X267037Y26101D02*
Y29700D01*
X268836D01*
X269436Y29100D01*
Y27900D01*
X268836Y27300D01*
X267037D01*
X268236D02*
X269436Y26101D01*
X270636D02*
X271835D01*
X271235D01*
Y29700D01*
X270636Y29100D01*
X275434Y26101D02*
Y29700D01*
X273635Y27900D01*
X276034D01*
X374151Y18687D02*
Y21886D01*
X375750D01*
X376284Y21353D01*
Y20286D01*
X375750Y19753D01*
X374151D01*
X375217D02*
X376284Y18687D01*
X377350D02*
X378416D01*
X377883D01*
Y21886D01*
X377350Y21353D01*
X380016D02*
X380549Y21886D01*
X381615D01*
X382148Y21353D01*
Y20820D01*
X381615Y20286D01*
X381082D01*
X381615D01*
X382148Y19753D01*
Y19220D01*
X381615Y18687D01*
X380549D01*
X380016Y19220D01*
X291777Y9001D02*
X288578D01*
Y10601D01*
X289111Y11134D01*
X290178D01*
X290711Y10601D01*
Y9001D01*
Y10068D02*
X291777Y11134D01*
Y12200D02*
Y13267D01*
Y12733D01*
X288578D01*
X289111Y12200D01*
X291777Y16999D02*
Y14866D01*
X289645Y16999D01*
X289111D01*
X288578Y16465D01*
Y15399D01*
X289111Y14866D01*
X273100Y203900D02*
Y207099D01*
X274699D01*
X275233Y206566D01*
Y205500D01*
X274699Y204966D01*
X273100D01*
X276299Y203900D02*
X277365D01*
X276832D01*
Y207099D01*
X276299Y206566D01*
X376380Y70888D02*
Y67689D01*
X378513D01*
X381712Y70888D02*
X379579D01*
Y69289D01*
X380646Y69822D01*
X381179D01*
X381712Y69289D01*
Y68223D01*
X381179Y67689D01*
X380113D01*
X379579Y68223D01*
X337918Y100647D02*
Y97448D01*
X339518D01*
X340051Y97981D01*
Y100114D01*
X339518Y100647D01*
X337918D01*
X342717Y97448D02*
Y100647D01*
X341117Y99047D01*
X343250D01*
X272400Y168825D02*
X271867Y169359D01*
X270801D01*
X270268Y168825D01*
Y166693D01*
X270801Y166160D01*
X271867D01*
X272400Y166693D01*
X275066Y166160D02*
Y169359D01*
X273467Y167759D01*
X275600D01*
X276666Y166160D02*
X277732D01*
X277199D01*
Y169359D01*
X276666Y168825D01*
X282889Y55287D02*
X282355Y55820D01*
X281289D01*
X280756Y55287D01*
Y53154D01*
X281289Y52621D01*
X282355D01*
X282889Y53154D01*
X283955Y55287D02*
X284488Y55820D01*
X285554D01*
X286088Y55287D01*
Y54754D01*
X285554Y54221D01*
X285021D01*
X285554D01*
X286088Y53688D01*
Y53154D01*
X285554Y52621D01*
X284488D01*
X283955Y53154D01*
X287154Y52621D02*
X288220D01*
X287687D01*
Y55820D01*
X287154Y55287D01*
X277741Y69047D02*
X277208Y69580D01*
X276142D01*
X275608Y69047D01*
Y66914D01*
X276142Y66381D01*
X277208D01*
X277741Y66914D01*
X278807Y69047D02*
X279341Y69580D01*
X280407D01*
X280940Y69047D01*
Y68514D01*
X280407Y67981D01*
X279874D01*
X280407D01*
X280940Y67448D01*
Y66914D01*
X280407Y66381D01*
X279341D01*
X278807Y66914D01*
X282007Y69047D02*
X282540Y69580D01*
X283606D01*
X284139Y69047D01*
Y66914D01*
X283606Y66381D01*
X282540D01*
X282007Y66914D01*
Y69047D01*
X283340Y48812D02*
X282807Y49345D01*
X281740D01*
X281207Y48812D01*
Y46679D01*
X281740Y46146D01*
X282807D01*
X283340Y46679D01*
X286539Y46146D02*
X284406D01*
X286539Y48279D01*
Y48812D01*
X286005Y49345D01*
X284939D01*
X284406Y48812D01*
X287605D02*
X288138Y49345D01*
X289205D01*
X289738Y48812D01*
Y48279D01*
X289205Y47746D01*
X289738Y47213D01*
Y46679D01*
X289205Y46146D01*
X288138D01*
X287605Y46679D01*
Y47213D01*
X288138Y47746D01*
X287605Y48279D01*
Y48812D01*
X288138Y47746D02*
X289205D01*
X342867Y62066D02*
X342334Y62599D01*
X341268D01*
X340735Y62066D01*
Y59934D01*
X341268Y59400D01*
X342334D01*
X342867Y59934D01*
X346066Y59400D02*
X343934D01*
X346066Y61533D01*
Y62066D01*
X345533Y62599D01*
X344467D01*
X343934Y62066D01*
X347133Y62599D02*
X349265D01*
Y62066D01*
X347133Y59934D01*
Y59400D01*
X339867Y51566D02*
X339334Y52100D01*
X338268D01*
X337735Y51566D01*
Y49434D01*
X338268Y48900D01*
X339334D01*
X339867Y49434D01*
X343066Y48900D02*
X340934D01*
X343066Y51033D01*
Y51566D01*
X342533Y52100D01*
X341467D01*
X340934Y51566D01*
X346265Y52100D02*
X345199Y51566D01*
X344133Y50500D01*
Y49434D01*
X344666Y48900D01*
X345732D01*
X346265Y49434D01*
Y49967D01*
X345732Y50500D01*
X344133D01*
X342867Y57404D02*
X342334Y57937D01*
X341268D01*
X340735Y57404D01*
Y55271D01*
X341268Y54738D01*
X342334D01*
X342867Y55271D01*
X346066Y54738D02*
X343934D01*
X346066Y56871D01*
Y57404D01*
X345533Y57937D01*
X344467D01*
X343934Y57404D01*
X349265Y57937D02*
X347133D01*
Y56337D01*
X348199Y56871D01*
X348732D01*
X349265Y56337D01*
Y55271D01*
X348732Y54738D01*
X347666D01*
X347133Y55271D01*
X274668Y43417D02*
X274134Y43951D01*
X273068D01*
X272535Y43417D01*
Y41285D01*
X273068Y40751D01*
X274134D01*
X274668Y41285D01*
X277867Y40751D02*
X275734D01*
X277867Y42884D01*
Y43417D01*
X277333Y43951D01*
X276267D01*
X275734Y43417D01*
X280533Y40751D02*
Y43951D01*
X278933Y42351D01*
X281066D01*
X284028Y10867D02*
X283495Y10334D01*
Y9268D01*
X284028Y8735D01*
X286161D01*
X286694Y9268D01*
Y10334D01*
X286161Y10867D01*
X286694Y14066D02*
Y11934D01*
X284561Y14066D01*
X284028D01*
X283495Y13533D01*
Y12467D01*
X284028Y11934D01*
Y15133D02*
X283495Y15666D01*
Y16732D01*
X284028Y17265D01*
X284561D01*
X285094Y16732D01*
Y16199D01*
Y16732D01*
X285628Y17265D01*
X286161D01*
X286694Y16732D01*
Y15666D01*
X286161Y15133D01*
X383497Y40414D02*
X382964Y40947D01*
X381898D01*
X381365Y40414D01*
Y38281D01*
X381898Y37748D01*
X382964D01*
X383497Y38281D01*
X386696Y37748D02*
X384564D01*
X386696Y39881D01*
Y40414D01*
X386163Y40947D01*
X385097D01*
X384564Y40414D01*
X389895Y37748D02*
X387763D01*
X389895Y39881D01*
Y40414D01*
X389362Y40947D01*
X388296D01*
X387763Y40414D01*
X397400Y28066D02*
X396867Y28600D01*
X395801D01*
X395268Y28066D01*
Y25934D01*
X395801Y25401D01*
X396867D01*
X397400Y25934D01*
X400599Y25401D02*
X398467D01*
X400599Y27533D01*
Y28066D01*
X400066Y28600D01*
X399000D01*
X398467Y28066D01*
X401666Y25401D02*
X402732D01*
X402199D01*
Y28600D01*
X401666Y28066D01*
X376841Y160004D02*
X376308Y160537D01*
X375241D01*
X374708Y160004D01*
Y157871D01*
X375241Y157338D01*
X376308D01*
X376841Y157871D01*
X377907Y157338D02*
X378974D01*
X378440D01*
Y160537D01*
X377907Y160004D01*
X380573Y157338D02*
X381639D01*
X381106D01*
Y160537D01*
X380573Y160004D01*
X374188Y150272D02*
X373655Y150805D01*
X372589D01*
X372055Y150272D01*
Y148140D01*
X372589Y147606D01*
X373655D01*
X374188Y148140D01*
X375254D02*
X375787Y147606D01*
X376854D01*
X377387Y148140D01*
Y150272D01*
X376854Y150805D01*
X375787D01*
X375254Y150272D01*
Y149739D01*
X375787Y149206D01*
X377387D01*
X374959Y155728D02*
X374426Y156261D01*
X373360D01*
X372827Y155728D01*
Y153595D01*
X373360Y153062D01*
X374426D01*
X374959Y153595D01*
X378158Y156261D02*
X376026D01*
Y154661D01*
X377092Y155195D01*
X377625D01*
X378158Y154661D01*
Y153595D01*
X377625Y153062D01*
X376559D01*
X376026Y153595D01*
X309305Y15032D02*
X308772Y15565D01*
X307706D01*
X307173Y15032D01*
Y12900D01*
X307706Y12366D01*
X308772D01*
X309305Y12900D01*
X312504Y12366D02*
X310372D01*
X312504Y14499D01*
Y15032D01*
X311971Y15565D01*
X310905D01*
X310372Y15032D01*
D13*
X232350Y125344D02*
Y164065D01*
Y125344D02*
X263748D01*
Y173730D01*
X240126D02*
X263748D01*
D14*
X387109Y71949D02*
Y78051D01*
D15*
X405368Y61808D02*
X404701Y61142D01*
Y59809D01*
X405368Y59143D01*
X408034D01*
X408700Y59809D01*
Y61142D01*
X408034Y61808D01*
X406701D01*
Y60475D01*
X408700Y63141D02*
X404701D01*
X408700Y65807D01*
X404701D01*
Y67140D02*
X408700D01*
Y69139D01*
X408034Y69806D01*
X405368D01*
X404701Y69139D01*
Y67140D01*
Y40800D02*
Y43466D01*
X405368D01*
X408034Y40800D01*
X408700D01*
X404701Y44799D02*
X407367D01*
X408700Y46132D01*
X407367Y47464D01*
X404701D01*
X408700Y50797D02*
X404701D01*
X406701Y48797D01*
Y51463D01*
D16*
X277874Y61696D02*
X277375Y62196D01*
X276375D01*
X275875Y61696D01*
Y59697D01*
X276375Y59197D01*
X277375D01*
X277874Y59697D01*
X280873Y59197D02*
X278874D01*
X280873Y61197D01*
Y61696D01*
X280374Y62196D01*
X279374D01*
X278874Y61696D01*
X281873Y59697D02*
X282373Y59197D01*
X283373D01*
X283873Y59697D01*
Y61696D01*
X283373Y62196D01*
X282373D01*
X281873Y61696D01*
Y61197D01*
X282373Y60697D01*
X283873D01*
X307700Y198100D02*
Y201099D01*
X309200D01*
X309699Y200599D01*
Y199600D01*
X309200Y199100D01*
X307700D01*
X312698Y198100D02*
X310699D01*
X312698Y200099D01*
Y200599D01*
X312198Y201099D01*
X311199D01*
X310699Y200599D01*
X374381Y81422D02*
Y78423D01*
X375881D01*
X376380Y78922D01*
Y80922D01*
X375881Y81422D01*
X374381D01*
X377380Y78423D02*
X378380D01*
X377880D01*
Y81422D01*
X377380Y80922D01*
D17*
X415599Y81598D02*
X413599D01*
X414599D01*
Y76600D01*
X413599Y75600D01*
X412600D01*
X411600Y76600D01*
X417598Y75600D02*
X419597D01*
X418598D01*
Y81598D01*
X417598Y80598D01*
X373789Y170999D02*
X377788Y165001D01*
Y170999D02*
X373789Y165001D01*
X383786D02*
X379787D01*
X383786Y169000D01*
Y169999D01*
X382786Y170999D01*
X380787D01*
X379787Y169999D01*
X441500Y111501D02*
X443499D01*
X442499D01*
Y116499D01*
X443499Y117499D01*
X444499D01*
X445498Y116499D01*
X435502Y111501D02*
X437501Y112501D01*
X439500Y114500D01*
Y116499D01*
X438501Y117499D01*
X436501D01*
X435502Y116499D01*
Y115500D01*
X436501Y114500D01*
X439500D01*
X253502Y55499D02*
X255502D01*
X254502D01*
Y49501D01*
X253502D01*
X255502D01*
X262499Y54499D02*
X261500Y55499D01*
X259500D01*
X258501Y54499D01*
Y50501D01*
X259500Y49501D01*
X261500D01*
X262499Y50501D01*
X264498Y49501D02*
X266498D01*
X265498D01*
Y55499D01*
X264498Y54499D01*
M02*
