M48
;Layer_Color=9474304
;FILE_FORMAT=2:5
INCH,LZ
;TYPE=PLATED
T1F00S00C0.00787
T2F00S00C0.00800
T3F00S00C0.01000
T4F00S00C0.01500
T5F00S00C0.02800
T6F00S00C0.03500
T7F00S00C0.03543
T8F00S00C0.03900
T9F00S00C0.06693
;TYPE=NON_PLATED
T10F00S00C0.11200
%
T01
X0063213Y0144664
Y0148995
Y0153325
X0067543
X0071874
Y0148995
X0067543
Y0144664
X0071874
X012772Y014368
X0132051
X0136382
X0140712
Y014801
Y0152341
X0136382
Y014801
X0132051
Y0152341
X012772
Y014801
Y0156672
X0132051
X0136382
X0140712
X0071874Y0157656
Y0161987
X0067543
X0063213
Y0157656
X0067543
T02
X0021Y00445
X0036383Y004519
X0039909
X0040286Y0041287
X0036366
X0011463Y0055207
X0016314Y0061239
X0004293Y0081409
X0011043Y0115652
X0021543Y0108052
X0043838Y0132101
X0057227Y0131289
X0048925Y0149
X0085076Y0146762
X0087487Y0149262
X0085381Y0151762
X0087684Y0154365
X0089046Y0139471
X0087375Y0136502
X009736Y0141621
X0104741Y0136191
X0119158Y0136406
X0121764Y0119691
X0125012Y0119423
X0124385Y0101463
X0123393Y0094148
X0132097Y0092302
X013024Y0074638
X01375Y0074625
X0152055Y0074089
X0151092Y0080024
X0118612Y0080636
X0106805Y0077813
X0111109Y0099504
X0112248Y0108835
X009705Y010296
X0074357Y0106589
X0084195Y0116542
X0089153Y0064636
X0078605
X0068287
X0125337Y002941
X0127677Y0020536
X0152043Y0125987
X0148624Y0137752
X0169553Y0130723
X0164204Y0121459
X0164102Y0111616
X0157802Y0095636
X0156952Y0074461
X0172609Y0075557
X0173043Y0068435
X0173109Y0061849
X0168059Y0051302
X0173043Y0083577
X0200275Y0069136
X0197774Y0061636
X0214543Y0064191
X0210712Y00695
X0220129Y0057876
X0214251Y0087045
X0218846Y011423
X0202593Y0108486
X0198274Y0155156
X0172695Y0146191
X0159657Y0015459
X0161478Y0168585
X0158903Y017278
X0160405Y0185152
X0170642Y0191193
X017049Y0202565
X0198274Y0177227
Y0165892
X0151504Y0162995
X0152642Y0159837
X0153465Y0156606
X0147012Y0165268
X0143043Y0167105
X0141303Y0169802
X0122175Y0167266
X0117768Y0165479
X0112707Y0164352
X0107488Y0169278
X010183Y01749
X0096347Y0167128
X0084554Y0164896
X0086543Y0162191
X0084554Y0159762
X0105103Y0160041
X0060585Y01674
X0059831Y0192
X0046905Y0193594
X0074617Y0193423
Y0201
X0075445Y0183692
X0124263Y0198201
X0150688Y0183595
T03
X0110716Y0123357
X0127685Y0109341
T04
X004Y002
X006
X007Y004
X009
X01Y006
Y002
X012
X014
Y01
X012
X008
X009Y012
X007
X005
X004Y01
X002
Y014
X006Y006
X005Y004
X018Y006
X019Y008
X021
Y012
X019
X017
X018Y014
Y01
X017Y016
X016Y018
X002
T05
X0046978Y0012483
X0026866Y0054191
X003181Y0138117
X0173565Y0009225
X0030935Y0173161
T06
X0181Y0108648
Y0118491
X01805Y0187821
Y0197664
T07
X00955Y0201
X01055
X01155
T08
X0013043Y0144662
Y0154505
X0214098Y0149672
Y0139829
Y0129987
Y0159514
Y0169357
Y0179199
X0013043Y0174191
Y0164348
T09
X02055Y0048
Y0063748
T10
X0025Y0025
X02
Y02
X0025
M30
