G04*
G04 #@! TF.GenerationSoftware,Altium Limited,Altium Designer,21.0.8 (223)*
G04*
G04 Layer_Physical_Order=3*
G04 Layer_Color=128*
%FSLAX25Y25*%
%MOIN*%
G70*
G04*
G04 #@! TF.SameCoordinates,5411D855-6831-4FB7-8657-0D58C5C57482*
G04*
G04*
G04 #@! TF.FilePolarity,Negative*
G04*
G01*
G75*
%ADD19C,0.04724*%
%ADD45C,0.04000*%
%ADD56C,0.05000*%
%ADD59C,0.07900*%
%ADD60C,0.15200*%
%ADD61C,0.10693*%
%ADD62C,0.07543*%
%ADD63C,0.07500*%
%ADD64C,0.06800*%
%ADD65C,0.04800*%
G04:AMPARAMS|DCode=66|XSize=68mil|YSize=68mil|CornerRadius=0mil|HoleSize=0mil|Usage=FLASHONLY|Rotation=0.000|XOffset=0mil|YOffset=0mil|HoleType=Round|Shape=Relief|Width=10mil|Gap=10mil|Entries=4|*
%AMTHD66*
7,0,0,0.06800,0.04800,0.01000,45*
%
%ADD66THD66*%
G04:AMPARAMS|DCode=69|XSize=99mil|YSize=99mil|CornerRadius=0mil|HoleSize=0mil|Usage=FLASHONLY|Rotation=0.000|XOffset=0mil|YOffset=0mil|HoleType=Round|Shape=Relief|Width=10mil|Gap=10mil|Entries=4|*
%AMTHD69*
7,0,0,0.09900,0.07900,0.01000,45*
%
%ADD69THD69*%
G04:AMPARAMS|DCode=70|XSize=126.929mil|YSize=126.929mil|CornerRadius=0mil|HoleSize=0mil|Usage=FLASHONLY|Rotation=0.000|XOffset=0mil|YOffset=0mil|HoleType=Round|Shape=Relief|Width=10mil|Gap=10mil|Entries=4|*
%AMTHD70*
7,0,0,0.12693,0.10693,0.01000,45*
%
%ADD70THD70*%
G04:AMPARAMS|DCode=71|XSize=95.433mil|YSize=95.433mil|CornerRadius=0mil|HoleSize=0mil|Usage=FLASHONLY|Rotation=0.000|XOffset=0mil|YOffset=0mil|HoleType=Round|Shape=Relief|Width=10mil|Gap=10mil|Entries=4|*
%AMTHD71*
7,0,0,0.09543,0.07543,0.01000,45*
%
%ADD71THD71*%
G04:AMPARAMS|DCode=72|XSize=75mil|YSize=75mil|CornerRadius=0mil|HoleSize=0mil|Usage=FLASHONLY|Rotation=0.000|XOffset=0mil|YOffset=0mil|HoleType=Round|Shape=Relief|Width=10mil|Gap=10mil|Entries=4|*
%AMTHD72*
7,0,0,0.07500,0.05500,0.01000,45*
%
%ADD72THD72*%
G04:AMPARAMS|DCode=73|XSize=67.874mil|YSize=67.874mil|CornerRadius=0mil|HoleSize=0mil|Usage=FLASHONLY|Rotation=0.000|XOffset=0mil|YOffset=0mil|HoleType=Round|Shape=Relief|Width=10mil|Gap=10mil|Entries=4|*
%AMTHD73*
7,0,0,0.06787,0.04787,0.01000,45*
%
%ADD73THD73*%
D19*
Y225000D01*
X225000D01*
Y0D02*
Y225000D01*
X0Y0D02*
X225000D01*
D45*
X0D02*
Y225000D01*
X225000D01*
Y0D02*
Y225000D01*
X0Y0D02*
X225000D01*
D56*
X110716Y123357D02*
D03*
X127685Y109341D02*
D03*
D59*
X214098Y179199D02*
D03*
Y169357D02*
D03*
Y159514D02*
D03*
Y149672D02*
D03*
Y129987D02*
D03*
X13043Y144662D02*
D03*
Y154505D02*
D03*
Y164348D02*
D03*
Y174191D02*
D03*
D60*
X25000Y25000D02*
D03*
Y200000D02*
D03*
X200000D02*
D03*
Y25000D02*
D03*
D61*
X205500Y48000D02*
D03*
D62*
X95500Y201000D02*
D03*
X105500D02*
D03*
D63*
X181000Y108648D02*
D03*
Y118491D02*
D03*
X180500Y197664D02*
D03*
Y187821D02*
D03*
D64*
X46978Y12483D02*
D03*
X30935Y173161D02*
D03*
X173565Y9225D02*
D03*
X31810Y138117D02*
D03*
X26866Y54191D02*
D03*
D65*
X101830Y174900D02*
D03*
X112707Y164352D02*
D03*
X107488Y169278D02*
D03*
X153465Y156606D02*
D03*
X141303Y169802D02*
D03*
X147012Y165268D02*
D03*
X152642Y159837D02*
D03*
X143043Y167105D02*
D03*
X122175Y167266D02*
D03*
X132097Y92302D02*
D03*
X137500Y74625D02*
D03*
X105103Y160041D02*
D03*
X117768Y165479D02*
D03*
X96347Y167128D02*
D03*
X151504Y162995D02*
D03*
X148624Y137752D02*
D03*
X97360Y141621D02*
D03*
X74617Y201000D02*
D03*
X60585Y167400D02*
D03*
X74357Y106589D02*
D03*
X48925Y149000D02*
D03*
X152055Y74089D02*
D03*
X119158Y136406D02*
D03*
X111109Y99504D02*
D03*
X220129Y57876D02*
D03*
X89046Y139471D02*
D03*
X87375Y136502D02*
D03*
X123393Y94148D02*
D03*
X86543Y162191D02*
D03*
X84554Y159762D02*
D03*
Y164896D02*
D03*
X87684Y154365D02*
D03*
X85381Y151762D02*
D03*
X87487Y149262D02*
D03*
X85076Y146762D02*
D03*
D66*
X172695Y146191D02*
D03*
X170642Y191193D02*
D03*
X130240Y74638D02*
D03*
X156952Y74461D02*
D03*
X74617Y193423D02*
D03*
X75445Y183692D02*
D03*
X127677Y20536D02*
D03*
X124263Y198201D02*
D03*
X160405Y185152D02*
D03*
X150688Y183595D02*
D03*
X218846Y114230D02*
D03*
X214251Y87045D02*
D03*
X112248Y108835D02*
D03*
X97050Y102960D02*
D03*
X4293Y81409D02*
D03*
X170490Y202565D02*
D03*
X21000Y44500D02*
D03*
X46905Y193594D02*
D03*
X59831Y192000D02*
D03*
X210712Y69500D02*
D03*
X11463Y55207D02*
D03*
X36366Y41287D02*
D03*
X40286D02*
D03*
X39909Y45190D02*
D03*
X36383D02*
D03*
X151092Y80024D02*
D03*
X125012Y119423D02*
D03*
X157802Y95636D02*
D03*
X104741Y136191D02*
D03*
X158903Y172780D02*
D03*
X124385Y101463D02*
D03*
X121764Y119691D02*
D03*
X202593Y108486D02*
D03*
X84195Y116542D02*
D03*
X43838Y132101D02*
D03*
X21543Y108052D02*
D03*
X11043Y115652D02*
D03*
X161478Y168585D02*
D03*
X16314Y61239D02*
D03*
X152043Y125987D02*
D03*
X169553Y130723D02*
D03*
X198274Y155156D02*
D03*
Y177227D02*
D03*
Y165892D02*
D03*
X125337Y29410D02*
D03*
X106805Y77813D02*
D03*
X118612Y80636D02*
D03*
X57227Y131289D02*
D03*
X89153Y64636D02*
D03*
X68287D02*
D03*
X78605D02*
D03*
X159657Y15459D02*
D03*
X168059Y51302D02*
D03*
X214543Y64191D02*
D03*
X197774Y61636D02*
D03*
X200275Y69136D02*
D03*
X173109Y61849D02*
D03*
X172609Y75557D02*
D03*
X173043Y68435D02*
D03*
Y83577D02*
D03*
X164102Y111616D02*
D03*
X164204Y121459D02*
D03*
D69*
X214098Y139829D02*
D03*
D70*
X205500Y63748D02*
D03*
D71*
X115500Y201000D02*
D03*
D72*
X210000Y120000D02*
D03*
Y80000D02*
D03*
X180000Y140000D02*
D03*
X190000Y120000D02*
D03*
X180000Y100000D02*
D03*
X190000Y80000D02*
D03*
X180000Y60000D02*
D03*
X160000Y180000D02*
D03*
X170000Y160000D02*
D03*
Y120000D02*
D03*
X140000Y100000D02*
D03*
Y20000D02*
D03*
X120000Y100000D02*
D03*
Y20000D02*
D03*
X100000Y60000D02*
D03*
Y20000D02*
D03*
X90000Y120000D02*
D03*
X80000Y100000D02*
D03*
X90000Y40000D02*
D03*
X70000Y120000D02*
D03*
X60000Y60000D02*
D03*
X70000Y40000D02*
D03*
X60000Y20000D02*
D03*
X50000Y120000D02*
D03*
X40000Y100000D02*
D03*
X50000Y40000D02*
D03*
X40000Y20000D02*
D03*
X20000Y180000D02*
D03*
Y140000D02*
D03*
Y100000D02*
D03*
D73*
X140712Y143680D02*
D03*
Y148010D02*
D03*
Y152341D02*
D03*
Y156672D02*
D03*
X136382Y143680D02*
D03*
Y148010D02*
D03*
Y152341D02*
D03*
Y156672D02*
D03*
X132051Y143680D02*
D03*
Y148010D02*
D03*
Y152341D02*
D03*
Y156672D02*
D03*
X127720Y143680D02*
D03*
Y148010D02*
D03*
Y152341D02*
D03*
Y156672D02*
D03*
X63213Y161987D02*
D03*
X67543D02*
D03*
X71874D02*
D03*
X63213Y157656D02*
D03*
X67543D02*
D03*
X71874D02*
D03*
X63213Y153325D02*
D03*
X67543D02*
D03*
X71874D02*
D03*
X63213Y148995D02*
D03*
X67543D02*
D03*
X71874D02*
D03*
X63213Y144664D02*
D03*
X67543D02*
D03*
X71874D02*
D03*
M02*
