G04*
G04 #@! TF.GenerationSoftware,Altium Limited,Altium Designer,21.0.8 (223)*
G04*
G04 Layer_Physical_Order=1*
G04 Layer_Color=255*
%FSLAX25Y25*%
%MOIN*%
G70*
G04*
G04 #@! TF.SameCoordinates,5411D855-6831-4FB7-8657-0D58C5C57482*
G04*
G04*
G04 #@! TF.FilePolarity,Positive*
G04*
G01*
G75*
%ADD10C,0.02000*%
%ADD12C,0.00500*%
%ADD18C,0.01000*%
%ADD19C,0.04724*%
%ADD20R,0.21260X0.11417*%
%ADD21R,0.03150X0.03543*%
%ADD22R,0.10984X0.02913*%
%ADD23R,0.02362X0.01968*%
%ADD24R,0.05512X0.05906*%
%ADD25R,0.05906X0.05512*%
%ADD26R,0.01968X0.02362*%
%ADD27R,0.03543X0.03150*%
%ADD28R,0.02756X0.02953*%
%ADD29O,0.00787X0.03347*%
%ADD30O,0.03347X0.00787*%
G04:AMPARAMS|DCode=31|XSize=21.65mil|YSize=31.5mil|CornerRadius=1.95mil|HoleSize=0mil|Usage=FLASHONLY|Rotation=90.000|XOffset=0mil|YOffset=0mil|HoleType=Round|Shape=RoundedRectangle|*
%AMROUNDEDRECTD31*
21,1,0.02165,0.02760,0,0,90.0*
21,1,0.01776,0.03150,0,0,90.0*
1,1,0.00390,0.01380,0.00888*
1,1,0.00390,0.01380,-0.00888*
1,1,0.00390,-0.01380,-0.00888*
1,1,0.00390,-0.01380,0.00888*
%
%ADD31ROUNDEDRECTD31*%
G04:AMPARAMS|DCode=32|XSize=13.78mil|YSize=49.21mil|CornerRadius=2mil|HoleSize=0mil|Usage=FLASHONLY|Rotation=90.000|XOffset=0mil|YOffset=0mil|HoleType=Round|Shape=RoundedRectangle|*
%AMROUNDEDRECTD32*
21,1,0.01378,0.04522,0,0,90.0*
21,1,0.00978,0.04921,0,0,90.0*
1,1,0.00400,0.02261,0.00489*
1,1,0.00400,0.02261,-0.00489*
1,1,0.00400,-0.02261,-0.00489*
1,1,0.00400,-0.02261,0.00489*
%
%ADD32ROUNDEDRECTD32*%
G04:AMPARAMS|DCode=33|XSize=122.05mil|YSize=203.94mil|CornerRadius=1.83mil|HoleSize=0mil|Usage=FLASHONLY|Rotation=0.000|XOffset=0mil|YOffset=0mil|HoleType=Round|Shape=RoundedRectangle|*
%AMROUNDEDRECTD33*
21,1,0.12205,0.20028,0,0,0.0*
21,1,0.11839,0.20394,0,0,0.0*
1,1,0.00366,0.05919,-0.10014*
1,1,0.00366,-0.05919,-0.10014*
1,1,0.00366,-0.05919,0.10014*
1,1,0.00366,0.05919,0.10014*
%
%ADD33ROUNDEDRECTD33*%
%ADD34O,0.01181X0.03347*%
%ADD35O,0.03347X0.01181*%
%ADD36R,0.06535X0.06535*%
%ADD37R,0.05118X0.01575*%
%ADD38R,0.01181X0.03347*%
%ADD39R,0.03347X0.01181*%
%ADD40R,0.13800X0.05900*%
%ADD41R,0.20866X0.07874*%
%ADD42R,0.08700X0.06700*%
G04:AMPARAMS|DCode=43|XSize=55.4mil|YSize=22.67mil|CornerRadius=11.34mil|HoleSize=0mil|Usage=FLASHONLY|Rotation=180.000|XOffset=0mil|YOffset=0mil|HoleType=Round|Shape=RoundedRectangle|*
%AMROUNDEDRECTD43*
21,1,0.05540,0.00000,0,0,180.0*
21,1,0.03273,0.02267,0,0,180.0*
1,1,0.02267,-0.01636,0.00000*
1,1,0.02267,0.01636,0.00000*
1,1,0.02267,0.01636,0.00000*
1,1,0.02267,-0.01636,0.00000*
%
%ADD43ROUNDEDRECTD43*%
%ADD44R,0.05540X0.02267*%
%ADD45C,0.04000*%
%ADD46C,0.01500*%
%ADD47C,0.03000*%
%ADD48C,0.00700*%
%ADD49C,0.05900*%
%ADD50C,0.11200*%
%ADD51C,0.10039*%
%ADD52C,0.05906*%
%ADD53R,0.05906X0.05906*%
%ADD54C,0.05500*%
%ADD55C,0.03000*%
%ADD56C,0.05000*%
%ADD57C,0.01800*%
%ADD58C,0.01968*%
G36*
X20440Y205480D02*
X20647Y204980D01*
X19873Y204207D01*
X19151Y203126D01*
X18654Y201925D01*
X18400Y200650D01*
Y199350D01*
X18654Y198075D01*
X19151Y196874D01*
X19873Y195793D01*
X20793Y194873D01*
X21874Y194151D01*
X23075Y193654D01*
X24350Y193400D01*
X25650D01*
X26925Y193654D01*
X28126Y194151D01*
X29207Y194873D01*
X30127Y195793D01*
X30849Y196874D01*
X31346Y198075D01*
X31600Y199350D01*
Y200650D01*
X31346Y201925D01*
X30849Y203126D01*
X30127Y204207D01*
X29353Y204980D01*
X29560Y205480D01*
X195440Y205480D01*
X195647Y204980D01*
X194873Y204207D01*
X194151Y203126D01*
X193654Y201925D01*
X193400Y200650D01*
Y199350D01*
X193654Y198075D01*
X194151Y196874D01*
X194873Y195793D01*
X195793Y194873D01*
X196874Y194151D01*
X198075Y193654D01*
X199350Y193400D01*
X200650D01*
X201925Y193654D01*
X203126Y194151D01*
X204207Y194873D01*
X205127Y195793D01*
X205849Y196874D01*
X206346Y198075D01*
X206600Y199350D01*
Y200650D01*
X206346Y201925D01*
X205849Y203126D01*
X205127Y204207D01*
X204353Y204980D01*
X204560Y205480D01*
X225000D01*
X225000Y205480D01*
Y500D01*
X225038Y462D01*
X224847Y0D01*
X0D01*
Y204980D01*
X500Y205480D01*
X20440D01*
D02*
G37*
%LPC*%
G36*
X170990Y204415D02*
Y203065D01*
X172339D01*
X172100Y203642D01*
X171566Y204176D01*
X170990Y204415D01*
D02*
G37*
G36*
X169990D02*
X169413Y204176D01*
X168879Y203642D01*
X168640Y203065D01*
X169990D01*
Y204415D01*
D02*
G37*
G36*
X119453Y204953D02*
X116000D01*
Y201500D01*
X119453D01*
Y204953D01*
D02*
G37*
G36*
X115000D02*
X111547D01*
Y201500D01*
X115000D01*
Y204953D01*
D02*
G37*
G36*
X172339Y202065D02*
X170990D01*
Y200716D01*
X171566Y200955D01*
X172100Y201489D01*
X172339Y202065D01*
D02*
G37*
G36*
X169990D02*
X168640D01*
X168879Y201489D01*
X169413Y200955D01*
X169990Y200716D01*
Y202065D01*
D02*
G37*
G36*
X96020Y204953D02*
X94980D01*
X93974Y204683D01*
X93073Y204163D01*
X92337Y203427D01*
X91817Y202526D01*
X91547Y201520D01*
Y200480D01*
X91575Y200376D01*
X91127Y200117D01*
X90362Y200881D01*
X90004Y201121D01*
Y203457D01*
X77020D01*
Y198957D01*
X77020Y198543D01*
X77020D01*
Y198457D01*
X77020D01*
Y193957D01*
X77020Y193543D01*
X77020D01*
Y193457D01*
X77020D01*
Y188543D01*
X77020D01*
Y188457D01*
X77020D01*
Y185457D01*
X76558Y185265D01*
X76521Y185302D01*
X75823Y185591D01*
X75748D01*
X75214Y186125D01*
X74718Y186456D01*
X74133Y186573D01*
X73980Y186725D01*
X73980Y188457D01*
X73980Y188957D01*
Y190707D01*
X74232Y190875D01*
X74880Y191524D01*
X74995D01*
X75694Y191813D01*
X76228Y192347D01*
X76467Y192923D01*
X74617D01*
Y193923D01*
X76467D01*
X76228Y194500D01*
X75694Y195034D01*
X74995Y195324D01*
X74880D01*
X74225Y195978D01*
X73980Y196142D01*
X73980Y198707D01*
X74409Y199100D01*
X74995D01*
X75694Y199389D01*
X76228Y199924D01*
X76517Y200622D01*
Y201378D01*
X76228Y202076D01*
X75694Y202611D01*
X74995Y202900D01*
X74239D01*
X73980Y203073D01*
Y203457D01*
X60996D01*
Y198957D01*
X60996Y198543D01*
X60996Y198043D01*
Y196500D01*
X67488D01*
Y195500D01*
X60996D01*
Y194115D01*
X60496Y193781D01*
X60331Y193849D01*
Y192000D01*
Y190151D01*
X60496Y190219D01*
X60996Y189885D01*
X60996Y188543D01*
X60996Y188043D01*
Y186500D01*
X67488D01*
Y185500D01*
X60996D01*
Y183543D01*
X60996D01*
Y183457D01*
X60996D01*
Y181500D01*
X67488D01*
Y181000D01*
X67988D01*
Y178543D01*
X73980D01*
Y180481D01*
X74295Y180544D01*
X74791Y180875D01*
X75708Y181791D01*
X75823D01*
X76521Y182081D01*
X76558Y182118D01*
X77020Y181926D01*
Y178543D01*
X82287D01*
X82334Y178306D01*
X82611Y177892D01*
X86503Y173999D01*
X86917Y173723D01*
X87405Y173626D01*
X89177D01*
X89559Y173341D01*
X89559Y173126D01*
Y168929D01*
X82749D01*
X82338Y169429D01*
X82344Y169459D01*
X78862D01*
Y169959D01*
X78362D01*
Y171672D01*
X76601D01*
X76133Y171579D01*
X75736Y171313D01*
X75698Y171256D01*
X75332Y171183D01*
X74836Y170852D01*
X72131Y168147D01*
X71799Y167651D01*
X71683Y167065D01*
Y164545D01*
X68043D01*
Y153825D01*
X74669D01*
Y158627D01*
X74742Y158994D01*
Y166171D01*
X74932Y166321D01*
X75528Y166173D01*
X75607Y166001D01*
X75471Y165798D01*
X75378Y165330D01*
Y164352D01*
X75471Y163884D01*
X75686Y163561D01*
X75471Y163239D01*
X75378Y162771D01*
Y161793D01*
X75471Y161325D01*
X75686Y161002D01*
X75471Y160680D01*
X75378Y160212D01*
Y159234D01*
X75471Y158766D01*
X75686Y158443D01*
X75471Y158121D01*
X75378Y157653D01*
Y156675D01*
X75471Y156207D01*
X75686Y155884D01*
X75471Y155562D01*
X75378Y155094D01*
Y154116D01*
X75471Y153647D01*
X75686Y153325D01*
X75471Y153003D01*
X75378Y152535D01*
Y151557D01*
X75471Y151088D01*
X75686Y150766D01*
X75471Y150444D01*
X75378Y149976D01*
Y148997D01*
X75471Y148529D01*
X75686Y148207D01*
X75471Y147885D01*
X75378Y147417D01*
Y146438D01*
X75471Y145970D01*
X75686Y145648D01*
X75471Y145326D01*
X75378Y144858D01*
Y143879D01*
X75471Y143411D01*
X75686Y143089D01*
X75471Y142767D01*
X75378Y142299D01*
Y141320D01*
X75471Y140852D01*
X75686Y140530D01*
X75471Y140208D01*
X75378Y139740D01*
Y138761D01*
X75471Y138293D01*
X75686Y137971D01*
X75471Y137649D01*
X75378Y137181D01*
Y136202D01*
X75471Y135734D01*
X75736Y135337D01*
X76133Y135072D01*
X76601Y134979D01*
X78575D01*
Y130835D01*
X78445Y130705D01*
X77996D01*
X77848Y130676D01*
X71394D01*
Y130221D01*
X68193D01*
Y130676D01*
X67541D01*
Y133794D01*
X67425Y134379D01*
X67093Y134875D01*
X61826Y140143D01*
X59708Y142260D01*
Y142299D01*
X59615Y142767D01*
X59400Y143089D01*
X59615Y143411D01*
X59708Y143879D01*
Y144858D01*
X59615Y145326D01*
X59400Y145648D01*
X59615Y145970D01*
X59708Y146438D01*
Y147417D01*
X59615Y147885D01*
X59400Y148207D01*
X59615Y148529D01*
X59708Y148997D01*
Y149976D01*
X59615Y150444D01*
X59400Y150766D01*
X59615Y151088D01*
X59708Y151557D01*
Y152535D01*
X59615Y153003D01*
X59400Y153325D01*
X59615Y153647D01*
X59708Y154116D01*
Y155094D01*
X59615Y155562D01*
X59400Y155884D01*
X59615Y156207D01*
X59665Y156455D01*
X59918Y156607D01*
X60398Y156361D01*
X60418Y156335D01*
Y153825D01*
X67043D01*
Y164545D01*
X61970D01*
Y166098D01*
X62196Y166324D01*
X62485Y167022D01*
Y167778D01*
X62196Y168476D01*
X61661Y169011D01*
X60963Y169300D01*
X60207D01*
X60124Y169266D01*
X59708Y169635D01*
Y170448D01*
X59615Y170916D01*
X59350Y171313D01*
X58953Y171579D01*
X58485Y171672D01*
X54903D01*
X54255Y172320D01*
X53758Y172652D01*
X53173Y172768D01*
X51711D01*
Y173619D01*
X47743D01*
Y169257D01*
Y166370D01*
X46800D01*
Y169541D01*
X45659D01*
Y171169D01*
X46311D01*
Y175137D01*
X38012D01*
Y171926D01*
X37550Y171735D01*
X34704Y174581D01*
X33877Y175133D01*
X33832Y175142D01*
X33735Y175310D01*
X33084Y175962D01*
X32285Y176422D01*
X31395Y176661D01*
X30474D01*
X29583Y176422D01*
X28785Y175962D01*
X28134Y175310D01*
X27673Y174512D01*
X27435Y173622D01*
Y172700D01*
X27673Y171810D01*
X28134Y171012D01*
X28785Y170360D01*
X29583Y169899D01*
X30474Y169661D01*
X31395D01*
X32199Y169876D01*
X36139Y165936D01*
Y163998D01*
X37783D01*
X37890Y163459D01*
X38277Y162880D01*
X39958Y161199D01*
X39750Y160699D01*
X28941D01*
X27211Y162429D01*
X26974Y162784D01*
X26974Y162784D01*
X16802Y172956D01*
X16993Y173671D01*
Y174711D01*
X16724Y175716D01*
X16204Y176617D01*
X15469Y177352D01*
X14568Y177872D01*
X13563Y178141D01*
X12523D01*
X11519Y177872D01*
X10618Y177352D01*
X9883Y176617D01*
X9362Y175716D01*
X9093Y174711D01*
Y173671D01*
X9362Y172667D01*
X9883Y171766D01*
X10618Y171031D01*
X11519Y170511D01*
X12523Y170241D01*
X13563D01*
X14278Y170433D01*
X23977Y160734D01*
X23978Y160687D01*
X23480Y160478D01*
X18503Y165454D01*
X17924Y165841D01*
X17242Y165977D01*
X16664D01*
X16204Y166774D01*
X15469Y167509D01*
X14568Y168029D01*
X13563Y168298D01*
X12523D01*
X11519Y168029D01*
X10618Y167509D01*
X9883Y166774D01*
X9362Y165873D01*
X9093Y164868D01*
Y163828D01*
X9362Y162824D01*
X9883Y161923D01*
X10618Y161188D01*
X11519Y160668D01*
X12523Y160398D01*
X13563D01*
X14568Y160668D01*
X15469Y161188D01*
X16204Y161923D01*
X16232Y161972D01*
X16857Y162054D01*
X22160Y156752D01*
X21968Y156290D01*
X16574D01*
X16204Y156931D01*
X15469Y157666D01*
X14568Y158186D01*
X13563Y158455D01*
X12523D01*
X11519Y158186D01*
X10618Y157666D01*
X9883Y156931D01*
X9362Y156030D01*
X9093Y155025D01*
Y153985D01*
X9362Y152981D01*
X9883Y152080D01*
X10618Y151345D01*
X11519Y150825D01*
X12523Y150555D01*
X13563D01*
X14568Y150825D01*
X15469Y151345D01*
X16204Y152080D01*
X16574Y152721D01*
X22655D01*
X24787Y150588D01*
X24787Y150588D01*
X25366Y150201D01*
X26049Y150066D01*
X46860D01*
X47138Y149650D01*
X47025Y149378D01*
Y148622D01*
X47165Y148284D01*
X46831Y147784D01*
X42679D01*
X42679Y147784D01*
X42530Y147754D01*
X15541D01*
X15538Y147754D01*
X15469Y147823D01*
X14568Y148343D01*
X13563Y148612D01*
X12523D01*
X11519Y148343D01*
X10618Y147823D01*
X9883Y147088D01*
X9362Y146187D01*
X9093Y145182D01*
Y144142D01*
X9362Y143138D01*
X9883Y142237D01*
X10618Y141502D01*
X11519Y140982D01*
X12523Y140712D01*
X13563D01*
X14568Y140982D01*
X15469Y141502D01*
X16204Y142237D01*
X16724Y143138D01*
X16993Y144142D01*
Y144185D01*
X42649D01*
X42798Y144215D01*
X49822D01*
X50013Y143753D01*
X49475Y143215D01*
X46138D01*
Y142680D01*
X42565D01*
Y143215D01*
X37022D01*
Y143115D01*
X34800D01*
X33825Y142921D01*
X32998Y142368D01*
X32247Y141617D01*
X31350D01*
X30459Y141378D01*
X29661Y140918D01*
X29010Y140266D01*
X28549Y139468D01*
X28310Y138578D01*
Y137656D01*
X28549Y136766D01*
X29010Y135968D01*
X29494Y135483D01*
Y112591D01*
X29507Y112528D01*
X29190Y112141D01*
X28543D01*
Y106404D01*
X25489Y103350D01*
X25158Y102854D01*
X25041Y102269D01*
Y83394D01*
X20453D01*
Y82939D01*
X16831D01*
Y84772D01*
X11819D01*
X11681Y84772D01*
X11319D01*
X11181Y84772D01*
X9244D01*
Y82000D01*
Y79228D01*
X11181D01*
X11319Y79228D01*
X11681D01*
X11819Y79228D01*
X16831D01*
Y79880D01*
X20453D01*
Y79425D01*
X28237D01*
X28444Y78925D01*
X6559Y57040D01*
X6227Y56544D01*
X6111Y55959D01*
Y43875D01*
X6227Y43290D01*
X6559Y42794D01*
X8210Y41143D01*
X8706Y40811D01*
X8775Y40798D01*
Y36416D01*
X15568D01*
X16523Y35461D01*
X16936Y35185D01*
X17424Y35088D01*
X23168D01*
X23656Y35185D01*
X24069Y35461D01*
X27619Y39011D01*
X30588D01*
X30923Y38788D01*
X31543Y38664D01*
X33279D01*
X33714Y38618D01*
X33760Y38183D01*
Y36447D01*
X33884Y35827D01*
X34107Y35492D01*
Y32793D01*
X34204Y32305D01*
X34481Y31892D01*
X34773Y31599D01*
X35169Y31334D01*
Y30516D01*
X40787D01*
Y32500D01*
X41287D01*
Y33000D01*
X43468D01*
Y34484D01*
X42562D01*
Y35492D01*
X42786Y35827D01*
X42909Y36447D01*
Y37030D01*
X41287D01*
Y38030D01*
X42909D01*
Y38183D01*
X42956Y38618D01*
X43390Y38664D01*
X43543D01*
Y40286D01*
X44043D01*
Y40786D01*
X46648D01*
X46624Y40907D01*
X46381Y41270D01*
X46624Y41634D01*
X46648Y41754D01*
X44043D01*
Y42601D01*
X45126D01*
X45747Y42724D01*
X45791Y42754D01*
X46994D01*
X47120Y42943D01*
X47160Y42951D01*
X47607Y43250D01*
X48017Y43660D01*
X48315Y44106D01*
X48420Y44633D01*
Y52750D01*
X63875D01*
X64511Y52325D01*
X65291Y52170D01*
X65870D01*
Y46479D01*
X89130D01*
Y59896D01*
X65870D01*
Y56975D01*
X65370Y56697D01*
X64711Y56828D01*
X46960D01*
X45485Y58302D01*
X39572Y64215D01*
Y71136D01*
X43938D01*
Y79836D01*
X34334D01*
X34143Y80298D01*
X38256Y84412D01*
X45362D01*
Y83957D01*
X53661D01*
Y84412D01*
X60081D01*
X64335Y80158D01*
Y78071D01*
X58838D01*
Y79836D01*
X48138D01*
Y71136D01*
X58838D01*
Y75012D01*
X63981D01*
X64335Y74658D01*
X64335Y74250D01*
X64335Y74112D01*
Y70994D01*
X72240D01*
Y74112D01*
X72240Y74250D01*
Y74612D01*
X72240Y74750D01*
Y76329D01*
X74652D01*
Y74750D01*
X74652Y74612D01*
Y74250D01*
X74652Y74112D01*
Y70994D01*
X82558D01*
Y74112D01*
X82558Y74250D01*
Y74612D01*
X82558Y74750D01*
Y76329D01*
X85200D01*
Y74750D01*
X85200Y74612D01*
Y74250D01*
X85200Y74112D01*
Y70994D01*
X93106D01*
Y74112D01*
X93106Y74250D01*
Y74612D01*
X93106Y74750D01*
Y79240D01*
X97359Y83494D01*
X100842D01*
X101618Y83339D01*
X102394Y83494D01*
X102693D01*
X103182Y83591D01*
X105177D01*
Y87528D01*
Y92678D01*
X102543D01*
X102398Y92774D01*
X101618Y92929D01*
X100838Y92774D01*
X100693Y92678D01*
X98059D01*
Y91355D01*
X76507D01*
X58228Y109633D01*
X57566Y110075D01*
X56786Y110231D01*
X44343D01*
Y112141D01*
X36098D01*
X34592Y113647D01*
Y135949D01*
X34611Y135968D01*
X35072Y136766D01*
X35243Y137403D01*
X35856Y138017D01*
X36651D01*
X37022Y137704D01*
Y135629D01*
X39793D01*
Y135129D01*
X40293D01*
Y132554D01*
X40762D01*
X41778Y131539D01*
X42105Y131320D01*
X42228Y131024D01*
X42762Y130490D01*
X43338Y130251D01*
Y132101D01*
X44338D01*
Y130251D01*
X44494Y130316D01*
X44496Y130315D01*
X45429D01*
X46014Y130431D01*
X46510Y130763D01*
X48301Y132554D01*
X48410D01*
Y135129D01*
X49410D01*
Y132554D01*
X51682D01*
Y135162D01*
X53361D01*
X53495Y135072D01*
X53964Y134979D01*
X54695D01*
Y132508D01*
X54811Y131923D01*
X55143Y131426D01*
X55327Y131243D01*
Y130911D01*
X55616Y130213D01*
X56150Y129678D01*
X56849Y129389D01*
X56964D01*
X58743Y127610D01*
X59239Y127278D01*
X59824Y127162D01*
X59894D01*
Y126707D01*
X61575D01*
Y128691D01*
Y130676D01*
X60003D01*
X59127Y131552D01*
Y131667D01*
X58837Y132365D01*
X58303Y132900D01*
X57778Y133117D01*
X57754Y133141D01*
Y134979D01*
X58485D01*
X58953Y135072D01*
X59350Y135337D01*
X59615Y135734D01*
X59706Y136191D01*
X56224D01*
Y137191D01*
X59717D01*
X59759Y137241D01*
X60360Y137283D01*
X64482Y133160D01*
Y130676D01*
X62575D01*
Y128691D01*
Y126707D01*
X68193D01*
Y127162D01*
X71394D01*
Y126707D01*
X79693D01*
Y127640D01*
X79813Y127760D01*
X80128Y127939D01*
X80543Y127662D01*
X81128Y127546D01*
X81272D01*
Y125510D01*
X81272Y125373D01*
Y125010D01*
X81272Y124873D01*
Y122935D01*
X84043D01*
X86815D01*
Y124873D01*
X86815Y125010D01*
Y125373D01*
X86815Y125510D01*
Y126418D01*
X96865D01*
X97451Y126534D01*
X97947Y126866D01*
X102125Y131044D01*
X102456Y131540D01*
X102573Y132125D01*
Y135154D01*
X103073Y135254D01*
X103130Y135115D01*
X103664Y134581D01*
X104241Y134342D01*
Y136191D01*
Y138041D01*
X103664Y137802D01*
X103130Y137268D01*
X103073Y137129D01*
X102573Y137229D01*
Y142384D01*
X103281D01*
Y146353D01*
X102573D01*
Y165826D01*
X102456Y166411D01*
X102125Y166907D01*
X96791Y172241D01*
X96294Y172573D01*
X95709Y172689D01*
X93881D01*
X93670Y172900D01*
X93701Y173471D01*
X93909Y173626D01*
X100417D01*
X100753Y173290D01*
X101452Y173001D01*
X102208D01*
X102906Y173290D01*
X103329Y173713D01*
X103829Y173555D01*
Y161454D01*
X103492Y161118D01*
X103203Y160419D01*
Y159663D01*
X103492Y158965D01*
X104027Y158431D01*
X104725Y158141D01*
X105481D01*
X106179Y158431D01*
X106714Y158965D01*
X107003Y159663D01*
Y160419D01*
X106714Y161118D01*
X106378Y161454D01*
Y167140D01*
X106878Y167475D01*
X107110Y167378D01*
X107732D01*
X110807Y164303D01*
Y163974D01*
X111097Y163276D01*
X111631Y162741D01*
X112329Y162452D01*
X113085D01*
X113784Y162741D01*
X114318Y163276D01*
X114607Y163974D01*
Y164730D01*
X114318Y165428D01*
X113784Y165963D01*
X113085Y166252D01*
X112463D01*
X109388Y169327D01*
Y169656D01*
X109099Y170355D01*
X108564Y170889D01*
X107866Y171178D01*
X107110D01*
X106878Y171082D01*
X106378Y171416D01*
Y175651D01*
X106311Y175986D01*
X106772Y176232D01*
X116303Y166701D01*
X116157Y166556D01*
X115868Y165857D01*
Y165102D01*
X116157Y164403D01*
X116692Y163869D01*
X117390Y163579D01*
X118146D01*
X118844Y163869D01*
X119379Y164403D01*
X119668Y165102D01*
Y165857D01*
X119379Y166556D01*
X118951Y166983D01*
Y167129D01*
X118854Y167617D01*
X118578Y168031D01*
X90914Y195694D01*
X90501Y195971D01*
X90013Y196068D01*
X90004D01*
Y196982D01*
X90466Y197173D01*
X120275Y167364D01*
Y166888D01*
X120564Y166190D01*
X121098Y165656D01*
X121797Y165366D01*
X122553D01*
X123251Y165656D01*
X123785Y166190D01*
X124075Y166888D01*
Y167644D01*
X123785Y168343D01*
X123251Y168877D01*
X122553Y169166D01*
X122077D01*
X94617Y196627D01*
X94876Y197075D01*
X94980Y197047D01*
X96020D01*
X97026Y197317D01*
X97927Y197837D01*
X98663Y198573D01*
X99183Y199474D01*
X99453Y200480D01*
Y201520D01*
X99183Y202526D01*
X98663Y203427D01*
X97927Y204163D01*
X97026Y204683D01*
X96020Y204953D01*
D02*
G37*
G36*
X124763Y200050D02*
Y198700D01*
X126112D01*
X125874Y199277D01*
X125339Y199811D01*
X124763Y200050D01*
D02*
G37*
G36*
X123763D02*
X123187Y199811D01*
X122652Y199277D01*
X122414Y198700D01*
X123763D01*
Y200050D01*
D02*
G37*
G36*
X119453Y200500D02*
X116000D01*
Y197047D01*
X119453D01*
Y200500D01*
D02*
G37*
G36*
X115000D02*
X111547D01*
Y197047D01*
X115000D01*
Y200500D01*
D02*
G37*
G36*
X106020Y204953D02*
X104980D01*
X103974Y204683D01*
X103073Y204163D01*
X102337Y203427D01*
X101817Y202526D01*
X101547Y201520D01*
Y200480D01*
X101817Y199474D01*
X102337Y198573D01*
X103073Y197837D01*
X103974Y197317D01*
X104980Y197047D01*
X106020D01*
X107026Y197317D01*
X107927Y197837D01*
X108663Y198573D01*
X109183Y199474D01*
X109453Y200480D01*
Y201520D01*
X109183Y202526D01*
X108663Y203427D01*
X107927Y204163D01*
X107026Y204683D01*
X106020Y204953D01*
D02*
G37*
G36*
X126112Y197701D02*
X124763D01*
Y196351D01*
X125339Y196590D01*
X125874Y197124D01*
X126112Y197701D01*
D02*
G37*
G36*
X123763D02*
X122414D01*
X122652Y197124D01*
X123187Y196590D01*
X123763Y196351D01*
Y197701D01*
D02*
G37*
G36*
X47405Y195444D02*
Y194094D01*
X48754D01*
X48515Y194670D01*
X47981Y195205D01*
X47405Y195444D01*
D02*
G37*
G36*
X46405D02*
X45828Y195205D01*
X45294Y194670D01*
X45055Y194094D01*
X46405D01*
Y195444D01*
D02*
G37*
G36*
X180994Y201414D02*
X180006D01*
X179052Y201158D01*
X178198Y200665D01*
X177499Y199966D01*
X177006Y199111D01*
X176750Y198158D01*
Y197170D01*
X177006Y196216D01*
X177499Y195361D01*
X177530Y195331D01*
X173042Y190843D01*
X172542Y191050D01*
Y191571D01*
X172252Y192269D01*
X171718Y192804D01*
X171142Y193042D01*
Y191193D01*
X170642D01*
Y190693D01*
X168792D01*
X169031Y190117D01*
X169565Y189582D01*
X170264Y189293D01*
X170785D01*
X170992Y188793D01*
X169839Y187640D01*
X167673D01*
Y182797D01*
X166326D01*
Y184939D01*
X164342D01*
Y185439D01*
X163842D01*
Y187620D01*
X162358D01*
Y186570D01*
X161674D01*
X161481Y186762D01*
X160905Y187001D01*
Y185152D01*
Y183302D01*
X161481Y183541D01*
X161858Y183917D01*
X162358Y183771D01*
Y179321D01*
X166326D01*
Y180248D01*
X167673D01*
Y179341D01*
X168383D01*
Y165185D01*
X163316Y160119D01*
X162854Y160310D01*
Y161821D01*
X162854D01*
Y162191D01*
X162854D01*
Y163676D01*
X160673D01*
Y164676D01*
X162854D01*
Y166160D01*
X162854Y166160D01*
X162929Y166629D01*
X163008Y167025D01*
Y167427D01*
X163089Y167509D01*
X163328Y168085D01*
X161478D01*
Y168585D01*
X160978D01*
Y170434D01*
X160402Y170196D01*
X160366Y170160D01*
X157226D01*
X156916Y170547D01*
X157031Y170793D01*
X157032Y170793D01*
X157031Y170793D01*
Y171408D01*
X157531Y171465D01*
X157827Y171170D01*
X158403Y170931D01*
Y172780D01*
Y174630D01*
X157827Y174391D01*
X157531Y174095D01*
X157031Y174153D01*
Y175745D01*
X157031Y175745D01*
Y176108D01*
X157031D01*
X157031Y176245D01*
Y180128D01*
X157327D01*
Y184065D01*
Y185747D01*
X153237D01*
X152484Y184994D01*
X151976D01*
X151764Y185205D01*
X151188Y185444D01*
Y183595D01*
X150688D01*
Y183095D01*
X148838D01*
X149077Y182518D01*
X149413Y182182D01*
Y181061D01*
X148338D01*
Y179084D01*
X150716D01*
Y178084D01*
X148338D01*
Y176770D01*
X146996D01*
X146509Y176673D01*
X146095Y176397D01*
X141401Y171702D01*
X140925D01*
X140227Y171413D01*
X139692Y170878D01*
X139403Y170180D01*
Y169424D01*
X139692Y168726D01*
X140227Y168191D01*
X140925Y167902D01*
X141167Y167540D01*
X141143Y167483D01*
Y166727D01*
X141432Y166029D01*
X141967Y165495D01*
X142665Y165205D01*
X143421D01*
X144120Y165495D01*
X144402Y165777D01*
X144984Y165700D01*
X145112Y165545D01*
Y164890D01*
X145401Y164192D01*
X145936Y163657D01*
X146634Y163368D01*
X147390D01*
X148088Y163657D01*
X148623Y164192D01*
X148912Y164890D01*
Y165646D01*
X148686Y166191D01*
X148884Y166599D01*
X148979Y166691D01*
X154154D01*
Y168676D01*
X155154D01*
Y166691D01*
X156835D01*
Y167101D01*
X158902D01*
X159196Y166638D01*
X159044Y166160D01*
X154555D01*
Y165450D01*
X152685D01*
X152197Y165353D01*
X151784Y165077D01*
X151602Y164894D01*
X151126D01*
X150428Y164605D01*
X149893Y164071D01*
X149604Y163373D01*
Y162617D01*
X149893Y161918D01*
X150428Y161384D01*
X150687Y161276D01*
X151031Y160913D01*
X150742Y160215D01*
Y159459D01*
X151031Y158761D01*
X151566Y158226D01*
X151762Y158145D01*
X151766Y158128D01*
X151813Y157582D01*
X151565Y156984D01*
Y156228D01*
X151854Y155529D01*
X152389Y154995D01*
X153087Y154706D01*
X153843D01*
X154541Y154995D01*
X154878Y155331D01*
X161606D01*
X162093Y155428D01*
X162507Y155705D01*
X170559Y163756D01*
X170835Y164170D01*
X170932Y164657D01*
Y179341D01*
X171642D01*
Y183278D01*
Y185838D01*
X179779Y193975D01*
X180006Y193914D01*
X180994D01*
X181948Y194169D01*
X182802Y194663D01*
X183501Y195361D01*
X183994Y196216D01*
X184250Y197170D01*
Y198158D01*
X183994Y199111D01*
X183501Y199966D01*
X182802Y200665D01*
X181948Y201158D01*
X180994Y201414D01*
D02*
G37*
G36*
X59331Y193849D02*
X58754Y193611D01*
X58220Y193076D01*
X57981Y192500D01*
X59331D01*
Y193849D01*
D02*
G37*
G36*
X48754Y193094D02*
X47405D01*
Y191745D01*
X47981Y191983D01*
X48515Y192518D01*
X48754Y193094D01*
D02*
G37*
G36*
X46405D02*
X45055D01*
X45294Y192518D01*
X45828Y191983D01*
X46405Y191745D01*
Y193094D01*
D02*
G37*
G36*
X170142Y193042D02*
X169565Y192804D01*
X169031Y192269D01*
X168792Y191693D01*
X170142D01*
Y193042D01*
D02*
G37*
G36*
X59331Y191500D02*
X57981D01*
X58220Y190924D01*
X58754Y190389D01*
X59331Y190151D01*
Y191500D01*
D02*
G37*
G36*
X157327Y188428D02*
X155842D01*
Y186747D01*
X157327D01*
Y188428D01*
D02*
G37*
G36*
X154842D02*
X153358D01*
Y186747D01*
X154842D01*
Y188428D01*
D02*
G37*
G36*
X166326Y187620D02*
X164842D01*
Y185939D01*
X166326D01*
Y187620D01*
D02*
G37*
G36*
X159905Y187001D02*
X159329Y186762D01*
X158794Y186228D01*
X158555Y185652D01*
X159905D01*
Y187001D01*
D02*
G37*
G36*
X150188Y185444D02*
X149611Y185205D01*
X149077Y184671D01*
X148838Y184095D01*
X150188D01*
Y185444D01*
D02*
G37*
G36*
X159905Y184652D02*
X158555D01*
X158794Y184075D01*
X159329Y183541D01*
X159905Y183302D01*
Y184652D01*
D02*
G37*
G36*
X66988Y180500D02*
X60996D01*
Y178543D01*
X66988D01*
Y180500D01*
D02*
G37*
G36*
X197774Y176727D02*
X196424D01*
X196663Y176150D01*
X197197Y175616D01*
X197774Y175377D01*
Y176727D01*
D02*
G37*
G36*
X214618Y183149D02*
X213578D01*
X212573Y182880D01*
X211672Y182360D01*
X210937Y181624D01*
X210417Y180724D01*
X210148Y179719D01*
Y178679D01*
X210417Y177674D01*
X210937Y176774D01*
X211672Y176038D01*
X212573Y175518D01*
X213578Y175249D01*
X214618D01*
X215622Y175518D01*
X216523Y176038D01*
X217259Y176774D01*
X217779Y177674D01*
X218048Y178679D01*
Y179719D01*
X217779Y180724D01*
X217259Y181624D01*
X216523Y182360D01*
X215622Y182880D01*
X214618Y183149D01*
D02*
G37*
G36*
X159403Y174630D02*
Y173280D01*
X160753D01*
X160514Y173857D01*
X159980Y174391D01*
X159403Y174630D01*
D02*
G37*
G36*
X160753Y172280D02*
X159403D01*
Y170931D01*
X159980Y171170D01*
X160514Y171704D01*
X160753Y172280D01*
D02*
G37*
G36*
X81123Y171672D02*
X79362D01*
Y170459D01*
X82344D01*
X82253Y170916D01*
X81988Y171313D01*
X81591Y171579D01*
X81123Y171672D01*
D02*
G37*
G36*
X161978Y170434D02*
Y169085D01*
X163328D01*
X163089Y169661D01*
X162555Y170196D01*
X161978Y170434D01*
D02*
G37*
G36*
X198774Y167741D02*
Y166392D01*
X200123D01*
X199884Y166968D01*
X199350Y167503D01*
X198774Y167741D01*
D02*
G37*
G36*
X197774D02*
X197197Y167503D01*
X196663Y166968D01*
X196424Y166392D01*
X197774D01*
Y167741D01*
D02*
G37*
G36*
X214618Y173307D02*
X213578D01*
X212573Y173038D01*
X211672Y172517D01*
X210937Y171782D01*
X210417Y170881D01*
X210148Y169877D01*
Y168837D01*
X210417Y167832D01*
X210937Y166931D01*
X211672Y166196D01*
X212573Y165676D01*
X213578Y165407D01*
X214618D01*
X215622Y165676D01*
X216523Y166196D01*
X217259Y166931D01*
X217779Y167832D01*
X218048Y168837D01*
Y169877D01*
X217779Y170881D01*
X217259Y171782D01*
X216523Y172517D01*
X215622Y173038D01*
X214618Y173307D01*
D02*
G37*
G36*
X200123Y165392D02*
X198774D01*
Y164042D01*
X199350Y164281D01*
X199884Y164816D01*
X200123Y165392D01*
D02*
G37*
G36*
X197774D02*
X196424D01*
X196663Y164816D01*
X197197Y164281D01*
X197774Y164042D01*
Y165392D01*
D02*
G37*
G36*
X140213Y158612D02*
X139588Y158354D01*
X139030Y157796D01*
X138818Y157282D01*
X138277D01*
X138064Y157796D01*
X137506Y158354D01*
X136882Y158612D01*
Y156672D01*
X135882D01*
Y158612D01*
X135258Y158354D01*
X134700Y157796D01*
X134487Y157282D01*
X133946D01*
X133733Y157796D01*
X133175Y158354D01*
X132551Y158612D01*
Y156672D01*
X131551D01*
Y158612D01*
X130927Y158354D01*
X130369Y157796D01*
X130156Y157282D01*
X129615D01*
X129403Y157796D01*
X128844Y158354D01*
X128220Y158612D01*
Y156672D01*
X127720D01*
Y156172D01*
X125780D01*
X126038Y155548D01*
X126596Y154990D01*
X127110Y154777D01*
Y154236D01*
X126596Y154023D01*
X126038Y153465D01*
X125780Y152841D01*
X127720D01*
Y151841D01*
X125780D01*
X126038Y151217D01*
X126596Y150659D01*
X127110Y150446D01*
Y149905D01*
X126596Y149692D01*
X126038Y149134D01*
X125780Y148510D01*
X127720D01*
Y147510D01*
X125780D01*
X126038Y146886D01*
X126596Y146328D01*
X127110Y146116D01*
Y145574D01*
X126596Y145362D01*
X126038Y144804D01*
X125780Y144180D01*
X127720D01*
Y143680D01*
X128220D01*
Y141739D01*
X128844Y141997D01*
X129403Y142556D01*
X129615Y143069D01*
X130156D01*
X130369Y142556D01*
X130927Y141997D01*
X131551Y141739D01*
Y143680D01*
X132551D01*
Y141739D01*
X133175Y141997D01*
X133733Y142556D01*
X133946Y143069D01*
X134487D01*
X134700Y142556D01*
X135258Y141997D01*
X135882Y141739D01*
Y143680D01*
X136882D01*
Y141739D01*
X137506Y141997D01*
X138064Y142556D01*
X138277Y143069D01*
X138818D01*
X139030Y142556D01*
X139588Y141997D01*
X140213Y141739D01*
Y143680D01*
X140712D01*
Y144180D01*
X142653D01*
X142395Y144804D01*
X141837Y145362D01*
X141323Y145574D01*
Y146116D01*
X141837Y146328D01*
X142395Y146886D01*
X142653Y147510D01*
X140712D01*
Y148510D01*
X142653D01*
X142395Y149134D01*
X141837Y149692D01*
X141323Y149905D01*
Y150446D01*
X141837Y150659D01*
X142395Y151217D01*
X142653Y151841D01*
X140712D01*
Y152841D01*
X142653D01*
X142395Y153465D01*
X141837Y154023D01*
X141323Y154236D01*
Y154777D01*
X141837Y154990D01*
X142395Y155548D01*
X142653Y156172D01*
X140712D01*
Y156672D01*
X140213D01*
Y158612D01*
D02*
G37*
G36*
X141212D02*
Y157172D01*
X142653D01*
X142395Y157796D01*
X141837Y158354D01*
X141212Y158612D01*
D02*
G37*
G36*
X127220D02*
X126596Y158354D01*
X126038Y157796D01*
X125780Y157172D01*
X127220D01*
Y158612D01*
D02*
G37*
G36*
X198774Y157005D02*
Y155656D01*
X200123D01*
X199884Y156232D01*
X199350Y156766D01*
X198774Y157005D01*
D02*
G37*
G36*
X197774D02*
X197197Y156766D01*
X196663Y156232D01*
X196424Y155656D01*
X197774D01*
Y157005D01*
D02*
G37*
G36*
X214618Y163464D02*
X213578D01*
X212573Y163195D01*
X211672Y162675D01*
X210937Y161940D01*
X210417Y161039D01*
X210148Y160034D01*
Y158994D01*
X210417Y157990D01*
X210937Y157089D01*
X211672Y156353D01*
X212573Y155833D01*
X213578Y155564D01*
X214618D01*
X215622Y155833D01*
X216523Y156353D01*
X217259Y157089D01*
X217779Y157990D01*
X218048Y158994D01*
Y160034D01*
X217779Y161039D01*
X217259Y161940D01*
X216523Y162675D01*
X215622Y163195D01*
X214618Y163464D01*
D02*
G37*
G36*
X200123Y154656D02*
X198774D01*
Y153306D01*
X199350Y153545D01*
X199884Y154079D01*
X200123Y154656D01*
D02*
G37*
G36*
X197774D02*
X196424D01*
X196663Y154079D01*
X197197Y153545D01*
X197774Y153306D01*
Y154656D01*
D02*
G37*
G36*
X173195Y148041D02*
Y146691D01*
X174544D01*
X174305Y147268D01*
X173771Y147802D01*
X173195Y148041D01*
D02*
G37*
G36*
X172195D02*
X171618Y147802D01*
X171084Y147268D01*
X170845Y146691D01*
X172195D01*
Y148041D01*
D02*
G37*
G36*
X214618Y153622D02*
X213578D01*
X212573Y153352D01*
X211672Y152832D01*
X210937Y152097D01*
X210417Y151196D01*
X210148Y150192D01*
Y149152D01*
X210417Y148147D01*
X210937Y147246D01*
X211672Y146511D01*
X212573Y145991D01*
X213578Y145722D01*
X214618D01*
X215622Y145991D01*
X216523Y146511D01*
X217259Y147246D01*
X217779Y148147D01*
X218048Y149152D01*
Y150192D01*
X217779Y151196D01*
X217259Y152097D01*
X216523Y152832D01*
X215622Y153352D01*
X214618Y153622D01*
D02*
G37*
G36*
X174544Y145691D02*
X173195D01*
Y144342D01*
X173771Y144581D01*
X174305Y145115D01*
X174544Y145691D01*
D02*
G37*
G36*
X172195D02*
X170845D01*
X171084Y145115D01*
X171618Y144581D01*
X172195Y144342D01*
Y145691D01*
D02*
G37*
G36*
X74669Y152825D02*
X68043D01*
Y142105D01*
X73462D01*
X73924Y142197D01*
X74316Y142458D01*
X74577Y142850D01*
X74669Y143312D01*
Y152825D01*
D02*
G37*
G36*
X67043D02*
X60418D01*
Y143312D01*
X60510Y142850D01*
X60771Y142458D01*
X61162Y142197D01*
X61624Y142105D01*
X67043D01*
Y152825D01*
D02*
G37*
G36*
X142653Y143180D02*
X141212D01*
Y141739D01*
X141837Y141997D01*
X142395Y142556D01*
X142653Y143180D01*
D02*
G37*
G36*
X127220D02*
X125780D01*
X126038Y142556D01*
X126596Y141997D01*
X127220Y141739D01*
Y143180D01*
D02*
G37*
G36*
X214618Y143779D02*
X214598D01*
Y140329D01*
X218048D01*
Y140349D01*
X217779Y141354D01*
X217259Y142254D01*
X216523Y142990D01*
X215622Y143510D01*
X214618Y143779D01*
D02*
G37*
G36*
X213598D02*
X213578D01*
X212573Y143510D01*
X211672Y142990D01*
X210937Y142254D01*
X210417Y141354D01*
X210148Y140349D01*
Y140329D01*
X213598D01*
Y143779D01*
D02*
G37*
G36*
X105241Y138041D02*
Y136691D01*
X106590D01*
X106351Y137268D01*
X105817Y137802D01*
X105241Y138041D01*
D02*
G37*
G36*
X218048Y139329D02*
X214598D01*
Y135879D01*
X214618D01*
X215622Y136148D01*
X216523Y136668D01*
X217259Y137404D01*
X217779Y138304D01*
X218048Y139309D01*
Y139329D01*
D02*
G37*
G36*
X213598D02*
X210148D01*
Y139309D01*
X210417Y138304D01*
X210937Y137404D01*
X211672Y136668D01*
X212573Y136148D01*
X213578Y135879D01*
X213598D01*
Y139329D01*
D02*
G37*
G36*
X149002Y139652D02*
X148246D01*
X147548Y139363D01*
X147014Y138828D01*
X146724Y138130D01*
Y137374D01*
X147014Y136676D01*
X147548Y136142D01*
X148246Y135852D01*
X149002D01*
X149701Y136142D01*
X150235Y136676D01*
X150524Y137374D01*
Y138130D01*
X150235Y138828D01*
X149701Y139363D01*
X149002Y139652D01*
D02*
G37*
G36*
X119536Y138306D02*
X118780D01*
X118081Y138016D01*
X117547Y137482D01*
X117258Y136784D01*
Y136028D01*
X117547Y135329D01*
X118081Y134795D01*
X118780Y134506D01*
X119536D01*
X120234Y134795D01*
X120768Y135329D01*
X121058Y136028D01*
Y136784D01*
X120768Y137482D01*
X120234Y138016D01*
X119536Y138306D01*
D02*
G37*
G36*
X106590Y135691D02*
X105241D01*
Y134342D01*
X105817Y134581D01*
X106351Y135115D01*
X106590Y135691D01*
D02*
G37*
G36*
X39293Y134629D02*
X37022D01*
Y132554D01*
X39293D01*
Y134629D01*
D02*
G37*
G36*
X170053Y132572D02*
Y131223D01*
X171403D01*
X171164Y131799D01*
X170629Y132333D01*
X170053Y132572D01*
D02*
G37*
G36*
X169053D02*
X168477Y132333D01*
X167942Y131799D01*
X167704Y131223D01*
X169053D01*
Y132572D01*
D02*
G37*
G36*
X171403Y130223D02*
X170053D01*
Y128873D01*
X170629Y129112D01*
X171164Y129646D01*
X171403Y130223D01*
D02*
G37*
G36*
X169053D02*
X167704D01*
X167942Y129646D01*
X168477Y129112D01*
X169053Y128873D01*
Y130223D01*
D02*
G37*
G36*
X152543Y127836D02*
Y126487D01*
X153893D01*
X153654Y127063D01*
X153120Y127597D01*
X152543Y127836D01*
D02*
G37*
G36*
X151543D02*
X150967Y127597D01*
X150433Y127063D01*
X150194Y126487D01*
X151543D01*
Y127836D01*
D02*
G37*
G36*
X180994Y191571D02*
X180006D01*
X179052Y191316D01*
X178198Y190822D01*
X177499Y190124D01*
X177006Y189269D01*
X176750Y188315D01*
Y187328D01*
X177006Y186374D01*
X177499Y185519D01*
X178198Y184820D01*
X179052Y184327D01*
X180006Y184071D01*
X180994D01*
X181948Y184327D01*
X182802Y184820D01*
X183321Y185339D01*
X191392D01*
X197372Y179360D01*
X197274Y178869D01*
X197197Y178837D01*
X196663Y178303D01*
X196424Y177727D01*
X198274D01*
Y177227D01*
X198774D01*
Y175377D01*
X199350Y175616D01*
X199879Y176145D01*
X199981Y176240D01*
X200407Y176325D01*
X205802Y170929D01*
Y131516D01*
X199468D01*
X198882Y131400D01*
X198386Y131068D01*
X193421Y126103D01*
X193089Y125607D01*
X192973Y125021D01*
Y110003D01*
X192511Y109812D01*
X184660Y117663D01*
X184750Y117997D01*
Y118984D01*
X184494Y119938D01*
X184001Y120793D01*
X183302Y121492D01*
X182448Y121985D01*
X181494Y122241D01*
X180506D01*
X179552Y121985D01*
X178698Y121492D01*
X177999Y120793D01*
X177506Y119938D01*
X177250Y118984D01*
Y117997D01*
X177506Y117043D01*
X177999Y116188D01*
X178698Y115490D01*
X179552Y114996D01*
X180506Y114741D01*
X181494D01*
X182448Y114996D01*
X182798Y115199D01*
X192726Y105271D01*
X193222Y104940D01*
X193807Y104823D01*
X195092D01*
X195097Y104815D01*
X195803Y104343D01*
X196282Y104248D01*
Y102176D01*
X195631D01*
Y100370D01*
X193974Y98714D01*
X193643Y98218D01*
X193526Y97632D01*
Y95766D01*
X191300D01*
Y87860D01*
X198812D01*
Y87860D01*
X199174D01*
Y87860D01*
X206686D01*
Y89199D01*
X208767D01*
Y89042D01*
X212875D01*
Y88356D01*
X212640Y88121D01*
X212402Y87545D01*
X216100D01*
X215933Y87948D01*
Y88533D01*
X216354Y88953D01*
Y91813D01*
Y94585D01*
X214417D01*
X214279Y94585D01*
Y94585D01*
X213917D01*
Y94585D01*
X208767D01*
Y92258D01*
X206686D01*
Y95766D01*
X199174D01*
Y95766D01*
X198812D01*
Y95766D01*
X196585D01*
Y96999D01*
X197794Y98207D01*
X201249D01*
Y100191D01*
X201749D01*
Y100691D01*
X203930D01*
Y102176D01*
X203868D01*
Y104219D01*
X211101D01*
Y104823D01*
X213759D01*
X214566Y104016D01*
X215063Y103685D01*
X215648Y103568D01*
X216075D01*
Y102465D01*
X218589D01*
Y95866D01*
X218600Y95810D01*
Y94585D01*
X217354D01*
Y91813D01*
Y89042D01*
X218600D01*
Y59034D01*
X218518Y58952D01*
X218229Y58254D01*
Y57498D01*
X218518Y56800D01*
X219053Y56265D01*
X219751Y55976D01*
X220507D01*
X221205Y56265D01*
X221740Y56800D01*
X222029Y57498D01*
Y58254D01*
X221740Y58952D01*
X221658Y59034D01*
Y95855D01*
X221647Y95910D01*
Y103965D01*
X221618Y104113D01*
Y107477D01*
X221618Y107615D01*
Y107977D01*
X221618Y108115D01*
Y110052D01*
X216075D01*
Y108115D01*
X216075Y108017D01*
X215996Y107941D01*
X215575Y107749D01*
X215508Y107794D01*
Y111456D01*
X215392Y112041D01*
X215060Y112537D01*
X212683Y114915D01*
X212187Y115246D01*
X211601Y115363D01*
X210512D01*
X210506Y115371D01*
X209800Y115843D01*
X208968Y116008D01*
X205695D01*
X204863Y115843D01*
X204157Y115371D01*
X203685Y114666D01*
X203520Y113833D01*
X203685Y113001D01*
X204157Y112295D01*
X204279Y112213D01*
Y111713D01*
X204157Y111631D01*
X203685Y110925D01*
X203609Y110540D01*
X203168Y110305D01*
X203093Y110336D01*
Y108486D01*
X202093D01*
Y110336D01*
X201517Y110097D01*
X200982Y109563D01*
X200693Y108864D01*
Y108766D01*
X200307Y108449D01*
X199908Y108528D01*
X196636D01*
X196625Y108526D01*
X196031Y109120D01*
Y111384D01*
X196418Y111701D01*
X196636Y111658D01*
X199908D01*
X200741Y111823D01*
X201447Y112295D01*
X201918Y113001D01*
X202084Y113833D01*
X201918Y114666D01*
X201447Y115371D01*
X200741Y115843D01*
X199908Y116008D01*
X196636D01*
X196418Y115965D01*
X196031Y116282D01*
Y124388D01*
X200101Y128457D01*
X210420D01*
X210937Y127561D01*
X211672Y126826D01*
X212573Y126306D01*
X213578Y126037D01*
X214618D01*
X215622Y126306D01*
X216523Y126826D01*
X217259Y127561D01*
X217779Y128462D01*
X218048Y129467D01*
Y130507D01*
X217779Y131511D01*
X217259Y132412D01*
X216523Y133147D01*
X215622Y133667D01*
X214618Y133937D01*
X213578D01*
X212573Y133667D01*
X211672Y133147D01*
X210937Y132412D01*
X210420Y131516D01*
X208861D01*
Y171563D01*
X208745Y172148D01*
X208413Y172644D01*
X193107Y187950D01*
X192611Y188282D01*
X192025Y188398D01*
X184228D01*
X183994Y189269D01*
X183501Y190124D01*
X182802Y190822D01*
X181948Y191316D01*
X180994Y191571D01*
D02*
G37*
G36*
X153893Y125487D02*
X152543D01*
Y124137D01*
X153120Y124376D01*
X153654Y124910D01*
X153893Y125487D01*
D02*
G37*
G36*
X151543D02*
X150194D01*
X150433Y124910D01*
X150967Y124376D01*
X151543Y124137D01*
Y125487D01*
D02*
G37*
G36*
X164704Y123308D02*
Y121959D01*
X166053D01*
X165815Y122535D01*
X165280Y123070D01*
X164704Y123308D01*
D02*
G37*
G36*
X163704D02*
X163128Y123070D01*
X162593Y122535D01*
X162355Y121959D01*
X163704D01*
Y123308D01*
D02*
G37*
G36*
X111093Y125257D02*
X110338D01*
X109639Y124968D01*
X109105Y124433D01*
X108816Y123735D01*
Y122979D01*
X109105Y122281D01*
X109639Y121746D01*
X110338Y121457D01*
X111093D01*
X111792Y121746D01*
X112326Y122281D01*
X112616Y122979D01*
Y123735D01*
X112326Y124433D01*
X111792Y124968D01*
X111093Y125257D01*
D02*
G37*
G36*
X121264Y121541D02*
X120687Y121302D01*
X120153Y120768D01*
X119914Y120191D01*
X121264D01*
Y121541D01*
D02*
G37*
G36*
X125512Y121273D02*
Y119923D01*
X126861D01*
X126622Y120500D01*
X126088Y121034D01*
X125512Y121273D01*
D02*
G37*
G36*
X166053Y120959D02*
X164704D01*
Y119609D01*
X165280Y119848D01*
X165815Y120383D01*
X166053Y120959D01*
D02*
G37*
G36*
X163704D02*
X162355D01*
X162593Y120383D01*
X163128Y119848D01*
X163704Y119609D01*
Y120959D01*
D02*
G37*
G36*
X121264Y119191D02*
X119914D01*
X120153Y118615D01*
X120687Y118081D01*
X121264Y117842D01*
Y119191D01*
D02*
G37*
G36*
X126861Y118923D02*
X125512D01*
Y117574D01*
X126088Y117813D01*
X126622Y118347D01*
X126861Y118923D01*
D02*
G37*
G36*
X122264Y121541D02*
Y119691D01*
Y117842D01*
X122840Y118081D01*
X123155Y118396D01*
X123401Y118347D01*
X123935Y117813D01*
X124512Y117574D01*
Y119423D01*
Y121273D01*
X123935Y121034D01*
X123620Y120719D01*
X123374Y120768D01*
X122840Y121302D01*
X122264Y121541D01*
D02*
G37*
G36*
X86815Y121935D02*
X84043D01*
X81272D01*
Y119861D01*
X82514D01*
Y117448D01*
X82346Y117042D01*
X86045D01*
X85806Y117618D01*
X85573Y117851D01*
Y119861D01*
X86815D01*
Y121935D01*
D02*
G37*
G36*
X11543Y117501D02*
Y116152D01*
X12893D01*
X12654Y116728D01*
X12120Y117263D01*
X11543Y117501D01*
D02*
G37*
G36*
X10543D02*
X9967Y117263D01*
X9432Y116728D01*
X9194Y116152D01*
X10543D01*
Y117501D01*
D02*
G37*
G36*
X219346Y116080D02*
Y114730D01*
X220696D01*
X220457Y115306D01*
X219923Y115841D01*
X219346Y116080D01*
D02*
G37*
G36*
X218346D02*
X217770Y115841D01*
X217236Y115306D01*
X216997Y114730D01*
X218346D01*
Y116080D01*
D02*
G37*
G36*
X86045Y116042D02*
X84695D01*
Y114692D01*
X85271Y114931D01*
X85806Y115466D01*
X86045Y116042D01*
D02*
G37*
G36*
X83695D02*
X82346D01*
X82584Y115466D01*
X83119Y114931D01*
X83695Y114692D01*
Y116042D01*
D02*
G37*
G36*
X164602Y113466D02*
Y112116D01*
X165951D01*
X165712Y112693D01*
X165178Y113227D01*
X164602Y113466D01*
D02*
G37*
G36*
X163602D02*
X163025Y113227D01*
X162491Y112693D01*
X162252Y112116D01*
X163602D01*
Y113466D01*
D02*
G37*
G36*
X220696Y113730D02*
X216997D01*
X217040Y113626D01*
X216706Y113126D01*
X216075D01*
Y111052D01*
X221618D01*
Y113126D01*
X220987D01*
X220653Y113626D01*
X220696Y113730D01*
D02*
G37*
G36*
X165951Y111116D02*
X164602D01*
Y109767D01*
X165178Y110006D01*
X165712Y110540D01*
X165951Y111116D01*
D02*
G37*
G36*
X163602D02*
X162252D01*
X162491Y110540D01*
X163025Y110006D01*
X163602Y109767D01*
Y111116D01*
D02*
G37*
G36*
X112748Y110685D02*
Y109335D01*
X114097D01*
X113859Y109911D01*
X113324Y110446D01*
X112748Y110685D01*
D02*
G37*
G36*
X111748D02*
X111172Y110446D01*
X110637Y109911D01*
X110398Y109335D01*
X111748D01*
Y110685D01*
D02*
G37*
G36*
X94329Y109253D02*
X94181Y109224D01*
X93754D01*
Y106952D01*
X95829D01*
Y107576D01*
X95858Y107724D01*
X95829Y107872D01*
Y109224D01*
X94476D01*
X94329Y109253D01*
D02*
G37*
G36*
X22043Y109901D02*
Y108552D01*
X23393D01*
X23154Y109128D01*
X22619Y109663D01*
X22043Y109901D01*
D02*
G37*
G36*
X90679Y109224D02*
X90317D01*
X90179Y109224D01*
X85167D01*
Y108118D01*
X84413D01*
Y108573D01*
X76113D01*
Y108227D01*
X75613Y108020D01*
X75434Y108200D01*
X74735Y108489D01*
X73980D01*
X73281Y108200D01*
X72747Y107665D01*
X72457Y106967D01*
Y106211D01*
X72747Y105513D01*
X73281Y104978D01*
X73980Y104689D01*
X74735D01*
X75434Y104978D01*
X75613Y105158D01*
X76113Y104951D01*
Y104605D01*
X84413D01*
Y105060D01*
X85167D01*
Y103681D01*
X90179D01*
X90317Y103681D01*
X90679D01*
X90817Y103681D01*
X92754D01*
Y106452D01*
Y109224D01*
X90817D01*
X90679Y109224D01*
D02*
G37*
G36*
X128063Y111241D02*
X127307D01*
X126609Y110951D01*
X126074Y110417D01*
X125785Y109719D01*
Y108963D01*
X126074Y108265D01*
X126609Y107730D01*
X127307Y107441D01*
X128063D01*
X128761Y107730D01*
X129296Y108265D01*
X129585Y108963D01*
Y109719D01*
X129296Y110417D01*
X128761Y110951D01*
X128063Y111241D01*
D02*
G37*
G36*
X114097Y108335D02*
X112748D01*
Y106986D01*
X113324Y107224D01*
X113859Y107759D01*
X114097Y108335D01*
D02*
G37*
G36*
X111748D02*
X110398D01*
X110637Y107759D01*
X111172Y107224D01*
X111748Y106986D01*
Y108335D01*
D02*
G37*
G36*
X23393Y107552D02*
X22043D01*
Y106202D01*
X22619Y106441D01*
X23154Y106975D01*
X23393Y107552D01*
D02*
G37*
G36*
X12893Y115152D02*
X9194D01*
X9432Y114576D01*
X9514Y114494D01*
Y112141D01*
X1743D01*
Y108691D01*
X9643D01*
Y108191D01*
X10143D01*
Y104241D01*
X17543D01*
Y106662D01*
X20246D01*
X20467Y106441D01*
X21043Y106202D01*
Y108052D01*
Y109901D01*
X20607Y109721D01*
X17543D01*
Y112141D01*
X12573D01*
Y114494D01*
X12654Y114576D01*
X12893Y115152D01*
D02*
G37*
G36*
X181494Y112398D02*
X180506D01*
X179552Y112143D01*
X178698Y111649D01*
X177999Y110951D01*
X177506Y110096D01*
X177250Y109142D01*
Y108155D01*
X177506Y107201D01*
X177999Y106346D01*
X178698Y105648D01*
X179552Y105154D01*
X180506Y104898D01*
X181494D01*
X182448Y105154D01*
X183302Y105648D01*
X184001Y106346D01*
X184494Y107201D01*
X184750Y108155D01*
Y109142D01*
X184494Y110096D01*
X184001Y110951D01*
X183302Y111649D01*
X182448Y112143D01*
X181494Y112398D01*
D02*
G37*
G36*
X9143Y107691D02*
X1743D01*
Y104241D01*
X9143D01*
Y107691D01*
D02*
G37*
G36*
X124885Y103313D02*
Y101963D01*
X126234D01*
X125996Y102539D01*
X125461Y103074D01*
X124885Y103313D01*
D02*
G37*
G36*
X123885D02*
X123309Y103074D01*
X122774Y102539D01*
X122536Y101963D01*
X123885D01*
Y103313D01*
D02*
G37*
G36*
X95829Y105952D02*
X93754D01*
Y103593D01*
X95315Y102031D01*
X95403Y101973D01*
X95440Y101883D01*
X95974Y101349D01*
X96672Y101059D01*
X96709D01*
X97468Y100300D01*
Y100191D01*
X99543D01*
Y102551D01*
X98950Y103144D01*
Y103337D01*
X98661Y104036D01*
X98127Y104570D01*
X97550Y104809D01*
Y102960D01*
X96551D01*
Y105122D01*
X95829Y105843D01*
Y105952D01*
D02*
G37*
G36*
X203930Y99691D02*
X202249D01*
Y98207D01*
X203930D01*
Y99691D01*
D02*
G37*
G36*
X126234Y100963D02*
X122536D01*
X122774Y100387D01*
X123309Y99852D01*
X123545Y99755D01*
X123732Y99473D01*
X125045Y98161D01*
Y97691D01*
X127120D01*
Y99963D01*
X126848D01*
X126121Y100690D01*
X126234Y100963D01*
D02*
G37*
G36*
X102980Y102463D02*
X102618D01*
X102480Y102463D01*
X100543D01*
Y99691D01*
Y96920D01*
X102480D01*
X102618Y96920D01*
X102980D01*
X103118Y96920D01*
X104352D01*
Y95485D01*
X104469Y94899D01*
X104800Y94403D01*
X105933Y93271D01*
Y91170D01*
X109575D01*
Y89496D01*
Y85099D01*
X107901D01*
Y82426D01*
X107524D01*
Y81926D01*
X105933D01*
Y79752D01*
X105667Y79362D01*
X105194Y78889D01*
X104955Y78313D01*
X108966D01*
X109053Y78748D01*
Y79752D01*
X111083D01*
Y83591D01*
X114921D01*
Y85559D01*
Y89812D01*
X115756D01*
Y88290D01*
X115756Y88152D01*
Y87790D01*
X115756Y87652D01*
Y85715D01*
X121299D01*
Y87652D01*
X121299Y87790D01*
Y88152D01*
X121299Y88290D01*
Y90371D01*
X121658Y90610D01*
X123295Y92248D01*
X123771D01*
X124469Y92537D01*
X125004Y93072D01*
X125293Y93770D01*
Y94420D01*
X127120D01*
Y96691D01*
X125045D01*
Y95890D01*
X124545Y95682D01*
X124469Y95758D01*
X123771Y96048D01*
X123015D01*
X122317Y95758D01*
X121782Y95224D01*
X121493Y94526D01*
Y94050D01*
X120744Y93302D01*
X115756D01*
Y92361D01*
X114921D01*
Y92678D01*
X111083D01*
Y96516D01*
X108363D01*
X108130Y96920D01*
Y98162D01*
X109765D01*
X110033Y97893D01*
X110731Y97604D01*
X111487D01*
X112186Y97893D01*
X112720Y98428D01*
X113009Y99126D01*
Y99882D01*
X112720Y100580D01*
X112186Y101115D01*
X111487Y101404D01*
X110731D01*
X110289Y101221D01*
X108130D01*
Y102463D01*
X103118D01*
X102980Y102463D01*
D02*
G37*
G36*
X99543Y99191D02*
X97468D01*
Y96920D01*
X99543D01*
Y99191D01*
D02*
G37*
G36*
X158302Y97486D02*
Y96136D01*
X159652D01*
X159413Y96712D01*
X158879Y97247D01*
X158302Y97486D01*
D02*
G37*
G36*
X157302D02*
X156726Y97247D01*
X156192Y96712D01*
X155953Y96136D01*
X157302D01*
Y97486D01*
D02*
G37*
G36*
X159652Y95136D02*
X158302D01*
Y93787D01*
X158879Y94025D01*
X159413Y94560D01*
X159652Y95136D01*
D02*
G37*
G36*
X157302D02*
X155953D01*
X156192Y94560D01*
X156726Y94025D01*
X157302Y93787D01*
Y95136D01*
D02*
G37*
G36*
X216100Y86545D02*
X214751D01*
Y85195D01*
X215327Y85434D01*
X215862Y85969D01*
X216100Y86545D01*
D02*
G37*
G36*
X213751D02*
X212402D01*
X212640Y85969D01*
X213175Y85434D01*
X213751Y85195D01*
Y86545D01*
D02*
G37*
G36*
X173543Y85427D02*
Y84077D01*
X174893D01*
X174654Y84653D01*
X174119Y85188D01*
X173543Y85427D01*
D02*
G37*
G36*
X8244Y84772D02*
X6169D01*
Y82939D01*
X5451D01*
X5370Y83020D01*
X4793Y83259D01*
Y81409D01*
Y79560D01*
X5370Y79799D01*
X5451Y79880D01*
X6169D01*
Y79228D01*
X8244D01*
Y82000D01*
Y84772D01*
D02*
G37*
G36*
X107024Y85099D02*
X105933D01*
Y82926D01*
X107024D01*
Y85099D01*
D02*
G37*
G36*
X3793Y83259D02*
X3217Y83020D01*
X2682Y82486D01*
X2444Y81909D01*
X3793D01*
Y83259D01*
D02*
G37*
G36*
X174893Y83077D02*
X173543D01*
Y81728D01*
X174119Y81966D01*
X174654Y82501D01*
X174893Y83077D01*
D02*
G37*
G36*
X167929Y86349D02*
Y83577D01*
Y80805D01*
X170004D01*
Y82048D01*
X171886D01*
X171967Y81966D01*
X172543Y81728D01*
Y83577D01*
Y85427D01*
X171967Y85188D01*
X171886Y85107D01*
X170004D01*
Y86349D01*
X167929D01*
D02*
G37*
G36*
X121299Y84715D02*
X115756D01*
Y82640D01*
X117083D01*
Y81794D01*
X117001Y81712D01*
X116763Y81136D01*
X120461D01*
X120223Y81712D01*
X120141Y81794D01*
Y82640D01*
X121299D01*
Y84715D01*
D02*
G37*
G36*
X130557Y99963D02*
X130195D01*
Y99963D01*
X128120D01*
Y97191D01*
Y94420D01*
X129210D01*
X129243Y94380D01*
Y93881D01*
X129340Y93394D01*
X129616Y92980D01*
X130197Y92399D01*
Y91924D01*
X130487Y91225D01*
X131021Y90691D01*
X131054Y90677D01*
X131152Y90187D01*
X129660Y88695D01*
X129641D01*
X129154Y88598D01*
X128740Y88321D01*
X128418Y87999D01*
X128125Y87941D01*
X127664Y87633D01*
X127356Y87172D01*
X127248Y86628D01*
Y84069D01*
X127122Y83916D01*
X126110D01*
X125566Y83807D01*
X125105Y83499D01*
X124797Y83038D01*
X124794Y83024D01*
X123665Y81894D01*
X123389Y81481D01*
X123292Y80993D01*
Y79345D01*
X123389Y78857D01*
X123665Y78444D01*
X124944Y77164D01*
X125358Y76888D01*
X125846Y76791D01*
X127248D01*
Y76786D01*
X127356Y76242D01*
X127664Y75781D01*
X128125Y75473D01*
X128305Y75138D01*
X132250D01*
X132457Y75365D01*
X132828Y75488D01*
X132850Y75473D01*
X133394Y75365D01*
X133937Y75473D01*
X134398Y75781D01*
X134706Y76242D01*
X134815Y76786D01*
Y77192D01*
X140894D01*
Y76482D01*
X141800D01*
Y75625D01*
X140980D01*
Y74915D01*
X139400D01*
Y75002D01*
X139111Y75701D01*
X138576Y76235D01*
X137878Y76525D01*
X137122D01*
X136424Y76235D01*
X135889Y75701D01*
X135600Y75002D01*
Y74247D01*
X135889Y73548D01*
X136424Y73014D01*
X137122Y72724D01*
X137878D01*
X137928Y72745D01*
X137935Y72739D01*
X138348Y72463D01*
X138836Y72366D01*
X140980D01*
Y71656D01*
X146598D01*
Y73640D01*
X147098D01*
Y74140D01*
X149279D01*
Y75625D01*
X148584D01*
Y76482D01*
X149193D01*
Y78530D01*
X149693Y78737D01*
X150016Y78414D01*
X150592Y78175D01*
Y80024D01*
X151092D01*
Y80524D01*
X152942D01*
X152703Y81101D01*
X152169Y81635D01*
X151875Y81757D01*
X151745Y81952D01*
X150094Y83603D01*
X150301Y84103D01*
X159229D01*
X159343Y83989D01*
Y80805D01*
X160388D01*
Y78463D01*
X159343D01*
Y74861D01*
X158852Y74839D01*
X158562Y75537D01*
X158028Y76072D01*
X157452Y76310D01*
Y74461D01*
Y72612D01*
X158028Y72850D01*
X158562Y73385D01*
X158852Y74083D01*
X159343Y74061D01*
Y72920D01*
X160388D01*
Y71207D01*
X159343D01*
Y65664D01*
X160388D01*
Y64463D01*
X159343D01*
Y58920D01*
X159342D01*
X159492Y58559D01*
X156077Y55144D01*
X153418D01*
X153113Y55601D01*
X146598Y62116D01*
Y69827D01*
X123732D01*
Y65628D01*
X123233Y65529D01*
X122737Y65197D01*
X118919Y61379D01*
X118587Y60883D01*
X118471Y60298D01*
Y43219D01*
X117709D01*
Y41341D01*
X117209Y41241D01*
X116713Y40910D01*
X115840Y40037D01*
X115378Y40228D01*
Y43219D01*
X110228D01*
Y37676D01*
X112826D01*
X113017Y37214D01*
X111525Y35722D01*
X111193Y35225D01*
X111077Y34640D01*
Y27132D01*
X110425D01*
Y23164D01*
X118724D01*
Y23369D01*
X121559D01*
Y21461D01*
X123543D01*
Y20961D01*
X124043D01*
Y18780D01*
X125528D01*
Y19160D01*
X126366D01*
X126601Y18925D01*
X127177Y18687D01*
Y20536D01*
Y22386D01*
X126774Y22219D01*
X125528D01*
Y23369D01*
X127449D01*
X127799Y23135D01*
X128266Y23042D01*
X131026D01*
X131492Y23135D01*
X131887Y23399D01*
X132151Y23794D01*
X132244Y24260D01*
Y26036D01*
X132151Y26502D01*
X131887Y26897D01*
Y27139D01*
X132151Y27534D01*
X132244Y28001D01*
Y28388D01*
X129646D01*
Y29388D01*
X132244D01*
Y29776D01*
X132151Y30242D01*
X132053Y30389D01*
X131928Y30758D01*
X132053Y31128D01*
X132151Y31274D01*
X132244Y31741D01*
Y33516D01*
X132151Y33982D01*
X131887Y34378D01*
X131839Y34867D01*
X132678Y35707D01*
X138815D01*
Y36162D01*
X140935D01*
Y34740D01*
X140268D01*
X140237Y34734D01*
X138305D01*
X137839Y34642D01*
X137444Y34378D01*
X137180Y33982D01*
X137087Y33516D01*
Y31741D01*
X137180Y31274D01*
X137277Y31128D01*
X137403Y30758D01*
X137277Y30389D01*
X137180Y30242D01*
X137087Y29776D01*
Y28001D01*
X137180Y27534D01*
X137444Y27139D01*
Y26897D01*
X137180Y26502D01*
X137087Y26036D01*
Y24260D01*
X137180Y23794D01*
X137444Y23399D01*
X137839Y23135D01*
X138305Y23042D01*
X141065D01*
X141531Y23135D01*
X141926Y23399D01*
X141942Y23422D01*
X143902D01*
Y22573D01*
X147870D01*
Y27162D01*
X156474D01*
Y24876D01*
X156474Y24739D01*
Y24376D01*
X156474Y24239D01*
Y21121D01*
X160427D01*
X164380D01*
Y24239D01*
X164380Y24376D01*
Y24739D01*
X164380Y24876D01*
Y26062D01*
X167996D01*
X171525Y22532D01*
Y13526D01*
X161118D01*
X160911Y14026D01*
X161268Y14383D01*
X161507Y14959D01*
X157808D01*
X158046Y14383D01*
X158403Y14026D01*
X158196Y13526D01*
X89130D01*
Y20920D01*
X65870D01*
Y15700D01*
X48406D01*
X48329Y15744D01*
X47439Y15983D01*
X46518D01*
X45627Y15744D01*
X44829Y15284D01*
X44178Y14632D01*
X43717Y13834D01*
X43478Y12944D01*
Y12022D01*
X43717Y11132D01*
X44178Y10334D01*
X44829Y9682D01*
X45627Y9222D01*
X46518Y8983D01*
X47439D01*
X48329Y9222D01*
X49069Y9648D01*
X65870D01*
Y7503D01*
X81012D01*
X81209Y7477D01*
X81209Y7477D01*
X88453D01*
X88473Y7474D01*
X170534D01*
X170764Y7076D01*
X171415Y6425D01*
X172214Y5964D01*
X173104Y5725D01*
X174025D01*
X174916Y5964D01*
X175714Y6425D01*
X176365Y7076D01*
X176826Y7875D01*
X177065Y8765D01*
Y9686D01*
X176826Y10576D01*
X176365Y11374D01*
X175714Y12026D01*
X175604Y12090D01*
Y23376D01*
X175604Y23376D01*
X175449Y24157D01*
X175006Y24818D01*
X170282Y29543D01*
X169621Y29985D01*
X168840Y30140D01*
X164380D01*
Y32250D01*
X156474D01*
Y30221D01*
X147870D01*
Y30872D01*
X143902D01*
Y30319D01*
X142139D01*
X142093Y30389D01*
X141967Y30758D01*
X142093Y31128D01*
X142190Y31274D01*
X142283Y31741D01*
Y31789D01*
X142329Y31798D01*
X142825Y32130D01*
X143546Y32850D01*
X143877Y33346D01*
X143994Y33931D01*
Y37058D01*
X144598Y37662D01*
X150293D01*
Y34341D01*
X160993D01*
Y43041D01*
X150293D01*
Y40721D01*
X143965D01*
X143379Y40604D01*
X142883Y40273D01*
X142464Y39854D01*
X136695Y45624D01*
Y46173D01*
X146598D01*
Y56047D01*
X123732D01*
Y46173D01*
X133636D01*
Y44991D01*
X133752Y44405D01*
X134084Y43909D01*
X137855Y40138D01*
X137664Y39676D01*
X130516D01*
Y37870D01*
X128564Y35919D01*
X128233Y35422D01*
X128116Y34837D01*
Y34705D01*
X127799Y34642D01*
X127404Y34378D01*
X127257Y34158D01*
X119118D01*
Y35345D01*
X116127D01*
X115936Y35807D01*
X117805Y37676D01*
X122858D01*
Y43219D01*
X121529D01*
Y59664D01*
X123270Y61405D01*
X123732Y61214D01*
Y59953D01*
X144435D01*
X150502Y53886D01*
Y53644D01*
X150531Y53496D01*
Y47239D01*
X157905D01*
X158043Y47239D01*
Y47239D01*
X158405D01*
Y47239D01*
X161661D01*
Y51191D01*
Y55144D01*
X161056D01*
X160865Y55606D01*
X162999Y57740D01*
X163330Y58236D01*
X163447Y58821D01*
Y58920D01*
X164354D01*
X164492Y58920D01*
X164854D01*
X164992Y58920D01*
X166929D01*
Y61691D01*
Y64463D01*
X164992D01*
X164854Y64463D01*
X164492D01*
X164354Y64463D01*
X163447D01*
Y65664D01*
X164354D01*
X164492Y65664D01*
X164854D01*
X164992Y65664D01*
X166929D01*
Y68435D01*
Y71207D01*
X164992D01*
X164854Y71207D01*
X164492D01*
X164354Y71207D01*
X163447D01*
Y72920D01*
X164354D01*
X164492Y72920D01*
X164854D01*
X164992Y72920D01*
X166929D01*
Y75691D01*
Y78463D01*
X164992D01*
X164854Y78463D01*
X164492D01*
X164354Y78463D01*
X163447D01*
Y80805D01*
X164354D01*
X164492Y80805D01*
X164854D01*
X164992Y80805D01*
X166929D01*
Y83577D01*
Y86349D01*
X164992D01*
X164854Y86349D01*
X164492D01*
X164354Y86349D01*
X161309D01*
X160944Y86714D01*
X160447Y87045D01*
X159862Y87162D01*
X138744D01*
X138159Y87045D01*
X137663Y86714D01*
X135315Y84366D01*
X134815Y84573D01*
Y86628D01*
X134706Y87172D01*
X134668Y87230D01*
Y90626D01*
Y94420D01*
X135707D01*
Y99963D01*
X130695D01*
X130557Y99963D01*
Y99963D01*
D02*
G37*
G36*
X3793Y80909D02*
X2444D01*
X2682Y80333D01*
X3217Y79799D01*
X3793Y79560D01*
Y80909D01*
D02*
G37*
G36*
X120461Y80136D02*
X119112D01*
Y78787D01*
X119688Y79025D01*
X120223Y79560D01*
X120461Y80136D01*
D02*
G37*
G36*
X118112D02*
X116763D01*
X117001Y79560D01*
X117536Y79025D01*
X118112Y78787D01*
Y80136D01*
D02*
G37*
G36*
X152942Y79524D02*
X151592D01*
Y78175D01*
X152169Y78414D01*
X152703Y78948D01*
X152942Y79524D01*
D02*
G37*
G36*
X173109Y77407D02*
Y76057D01*
X174459D01*
X174220Y76634D01*
X173686Y77168D01*
X173109Y77407D01*
D02*
G37*
G36*
X108654Y77313D02*
X107305D01*
Y75963D01*
X107881Y76202D01*
X108415Y76737D01*
X108654Y77313D01*
D02*
G37*
G36*
X106305D02*
X104955D01*
X105194Y76737D01*
X105728Y76202D01*
X106305Y75963D01*
Y77313D01*
D02*
G37*
G36*
X156452Y76310D02*
X155875Y76072D01*
X155341Y75537D01*
X155102Y74961D01*
X156452D01*
Y76310D01*
D02*
G37*
G36*
X174459Y75057D02*
X173109D01*
Y73708D01*
X173686Y73947D01*
X174220Y74481D01*
X174459Y75057D01*
D02*
G37*
G36*
X167929Y78463D02*
Y75691D01*
Y72920D01*
X170004D01*
Y74028D01*
X171452D01*
X171533Y73947D01*
X172109Y73708D01*
Y75557D01*
Y77407D01*
X171533Y77168D01*
X171452Y77087D01*
X170004D01*
Y78463D01*
X167929D01*
D02*
G37*
G36*
X132089Y74138D02*
X130740D01*
Y72788D01*
X131316Y73027D01*
X131850Y73561D01*
X132089Y74138D01*
D02*
G37*
G36*
X129740D02*
X128390D01*
X128629Y73561D01*
X129163Y73027D01*
X129740Y72788D01*
Y74138D01*
D02*
G37*
G36*
X156452Y73961D02*
X155102D01*
X155341Y73385D01*
X155875Y72850D01*
X156452Y72612D01*
Y73961D01*
D02*
G37*
G36*
X152433Y75989D02*
X151677D01*
X150978Y75699D01*
X150444Y75165D01*
X150154Y74467D01*
Y73711D01*
X150444Y73012D01*
X150978Y72478D01*
X151677Y72189D01*
X152433D01*
X153131Y72478D01*
X153665Y73012D01*
X153955Y73711D01*
Y74467D01*
X153665Y75165D01*
X153131Y75699D01*
X152433Y75989D01*
D02*
G37*
G36*
X149279Y73140D02*
X147598D01*
Y71656D01*
X149279D01*
Y73140D01*
D02*
G37*
G36*
X211212Y71349D02*
Y70000D01*
X212561D01*
X212323Y70576D01*
X211788Y71111D01*
X211212Y71349D01*
D02*
G37*
G36*
X199775Y70986D02*
X199199Y70747D01*
X198664Y70212D01*
X198426Y69636D01*
X199775D01*
Y70986D01*
D02*
G37*
G36*
X210212Y71349D02*
X209636Y71111D01*
X209101Y70576D01*
X208812Y69878D01*
Y69546D01*
X208349Y69083D01*
X207256Y69536D01*
X206093Y69768D01*
X206000D01*
Y63748D01*
Y57728D01*
X206093D01*
X207256Y57960D01*
X208351Y58413D01*
X209337Y59072D01*
X210176Y59911D01*
X210835Y60897D01*
X211288Y61992D01*
X211422Y62662D01*
X213386D01*
X213467Y62581D01*
X214043Y62342D01*
Y64191D01*
Y66041D01*
X213467Y65802D01*
X213386Y65721D01*
X211198D01*
X210835Y66599D01*
X210577Y66985D01*
X211263Y67672D01*
X211788Y67889D01*
X212323Y68424D01*
X212561Y69000D01*
X210712D01*
Y69500D01*
X210212D01*
Y71349D01*
D02*
G37*
G36*
X173543Y70285D02*
Y68935D01*
X174893D01*
X174654Y69512D01*
X174119Y70046D01*
X173543Y70285D01*
D02*
G37*
G36*
X174893Y67935D02*
X173543D01*
Y66586D01*
X174119Y66825D01*
X174654Y67359D01*
X174893Y67935D01*
D02*
G37*
G36*
X167929Y71207D02*
Y68435D01*
Y65664D01*
X170004D01*
Y66906D01*
X171886D01*
X171967Y66825D01*
X172543Y66586D01*
Y68435D01*
Y70285D01*
X171967Y70046D01*
X171886Y69965D01*
X170004D01*
Y71207D01*
X167929D01*
D02*
G37*
G36*
X93106Y69994D02*
X85200D01*
Y66738D01*
X87624D01*
Y65794D01*
X87542Y65712D01*
X87304Y65136D01*
X91002D01*
X90764Y65712D01*
X90682Y65794D01*
Y66738D01*
X93106D01*
Y69994D01*
D02*
G37*
G36*
X82558D02*
X74652D01*
Y66738D01*
X77076D01*
Y65794D01*
X76994Y65712D01*
X76756Y65136D01*
X80454D01*
X80216Y65712D01*
X80134Y65794D01*
Y66738D01*
X82558D01*
Y69994D01*
D02*
G37*
G36*
X72240D02*
X64335D01*
Y66738D01*
X66758D01*
Y65794D01*
X66677Y65712D01*
X66438Y65136D01*
X70137D01*
X69898Y65712D01*
X69817Y65794D01*
Y66738D01*
X72240D01*
Y69994D01*
D02*
G37*
G36*
X215043Y66041D02*
Y64691D01*
X216393D01*
X216154Y65268D01*
X215619Y65802D01*
X215043Y66041D01*
D02*
G37*
G36*
X91002Y64136D02*
X89653D01*
Y62787D01*
X90229Y63025D01*
X90764Y63560D01*
X91002Y64136D01*
D02*
G37*
G36*
X88653D02*
X87304D01*
X87542Y63560D01*
X88077Y63025D01*
X88653Y62787D01*
Y64136D01*
D02*
G37*
G36*
X80454D02*
X79105D01*
Y62787D01*
X79681Y63025D01*
X80216Y63560D01*
X80454Y64136D01*
D02*
G37*
G36*
X78105D02*
X76756D01*
X76994Y63560D01*
X77529Y63025D01*
X78105Y62787D01*
Y64136D01*
D02*
G37*
G36*
X70137D02*
X68787D01*
Y62787D01*
X69364Y63025D01*
X69898Y63560D01*
X70137Y64136D01*
D02*
G37*
G36*
X67787D02*
X66438D01*
X66677Y63560D01*
X67211Y63025D01*
X67787Y62787D01*
Y64136D01*
D02*
G37*
G36*
X173609Y63698D02*
Y62349D01*
X174959D01*
X174720Y62925D01*
X174186Y63459D01*
X173609Y63698D01*
D02*
G37*
G36*
X216393Y63691D02*
X215043D01*
Y62342D01*
X215619Y62581D01*
X216154Y63115D01*
X216393Y63691D01*
D02*
G37*
G36*
X174959Y61349D02*
X173609D01*
Y59999D01*
X174186Y60238D01*
X174720Y60772D01*
X174959Y61349D01*
D02*
G37*
G36*
X167929Y64463D02*
Y61691D01*
Y58920D01*
X170004D01*
Y60319D01*
X171952D01*
X172033Y60238D01*
X172609Y59999D01*
Y61849D01*
Y63698D01*
X172033Y63459D01*
X171952Y63378D01*
X170004D01*
Y64463D01*
X167929D01*
D02*
G37*
G36*
X197274Y61136D02*
X195924D01*
X196163Y60560D01*
X196697Y60025D01*
X197274Y59787D01*
Y61136D01*
D02*
G37*
G36*
X200775Y70986D02*
Y69136D01*
X200275D01*
Y68636D01*
X198426D01*
X198664Y68060D01*
X199199Y67525D01*
X199897Y67236D01*
X199931D01*
X200326Y66840D01*
X200165Y66599D01*
X199712Y65504D01*
X199480Y64341D01*
Y64156D01*
X198980D01*
X198395Y64039D01*
X197899Y63708D01*
X197727Y63536D01*
X197396D01*
X196697Y63247D01*
X196163Y62712D01*
X195924Y62136D01*
X197774D01*
Y61636D01*
X198274D01*
Y59787D01*
X198850Y60025D01*
X199384Y60560D01*
X199602Y61085D01*
X199614Y61097D01*
X200082D01*
X200165Y60897D01*
X200824Y59911D01*
X201663Y59072D01*
X202649Y58413D01*
X203744Y57960D01*
X204907Y57728D01*
X205000D01*
Y63748D01*
Y69768D01*
X204907D01*
X203744Y69536D01*
X202649Y69083D01*
X202551Y69017D01*
X202175Y69324D01*
Y69514D01*
X201886Y70212D01*
X201351Y70747D01*
X200775Y70986D01*
D02*
G37*
G36*
X168559Y53152D02*
Y51802D01*
X169909D01*
X169670Y52379D01*
X169136Y52913D01*
X168559Y53152D01*
D02*
G37*
G36*
X206093Y54020D02*
X204907D01*
X203744Y53788D01*
X202649Y53335D01*
X201663Y52676D01*
X200824Y51837D01*
X200165Y50851D01*
X199712Y49756D01*
X199480Y48593D01*
Y47407D01*
X199712Y46244D01*
X200165Y45149D01*
X200824Y44163D01*
X201663Y43324D01*
X202649Y42665D01*
X203744Y42212D01*
X204907Y41980D01*
X206093D01*
X207256Y42212D01*
X208351Y42665D01*
X209337Y43324D01*
X210176Y44163D01*
X210835Y45149D01*
X211288Y46244D01*
X211520Y47407D01*
Y48593D01*
X211288Y49756D01*
X210835Y50851D01*
X210176Y51837D01*
X209337Y52676D01*
X208351Y53335D01*
X207256Y53788D01*
X206093Y54020D01*
D02*
G37*
G36*
X175893Y43041D02*
X171043D01*
Y39191D01*
X175893D01*
Y43041D01*
D02*
G37*
G36*
X165917Y55144D02*
X162661D01*
Y51191D01*
Y47239D01*
X165917D01*
Y49662D01*
X166670D01*
Y43041D01*
X165193D01*
Y39191D01*
X170043D01*
Y43041D01*
X169728D01*
Y50367D01*
X169909Y50803D01*
X168059D01*
Y51302D01*
X167559D01*
Y53152D01*
X166983Y52913D01*
X166791Y52721D01*
X165917D01*
Y55144D01*
D02*
G37*
G36*
X46648Y39786D02*
X44543D01*
Y38664D01*
X45126D01*
X45746Y38788D01*
X46273Y39139D01*
X46624Y39665D01*
X46648Y39786D01*
D02*
G37*
G36*
X175893Y38191D02*
X171043D01*
Y34341D01*
X175893D01*
Y38191D01*
D02*
G37*
G36*
X170043D02*
X165193D01*
Y34341D01*
X170043D01*
Y38191D01*
D02*
G37*
G36*
X43468Y32000D02*
X41787D01*
Y30516D01*
X43468D01*
Y32000D01*
D02*
G37*
G36*
X128177Y22386D02*
Y21036D01*
X129526D01*
X129288Y21612D01*
X128753Y22147D01*
X128177Y22386D01*
D02*
G37*
G36*
X123043Y20461D02*
X121559D01*
Y18780D01*
X123043D01*
Y20461D01*
D02*
G37*
G36*
X129526Y20036D02*
X128177D01*
Y18687D01*
X128753Y18925D01*
X129288Y19460D01*
X129526Y20036D01*
D02*
G37*
G36*
X200650Y31600D02*
X199350D01*
X198075Y31346D01*
X196874Y30849D01*
X195793Y30127D01*
X194873Y29207D01*
X194151Y28126D01*
X193654Y26925D01*
X193400Y25650D01*
Y24350D01*
X193654Y23075D01*
X194151Y21874D01*
X194873Y20793D01*
X195793Y19873D01*
X196874Y19151D01*
X198075Y18654D01*
X199350Y18400D01*
X200650D01*
X201925Y18654D01*
X203126Y19151D01*
X204207Y19873D01*
X205127Y20793D01*
X205849Y21874D01*
X206346Y23075D01*
X206600Y24350D01*
Y25650D01*
X206346Y26925D01*
X205849Y28126D01*
X205127Y29207D01*
X204207Y30127D01*
X203126Y30849D01*
X201925Y31346D01*
X200650Y31600D01*
D02*
G37*
G36*
X25650D02*
X24350D01*
X23075Y31346D01*
X21874Y30849D01*
X20793Y30127D01*
X19873Y29207D01*
X19151Y28126D01*
X18654Y26925D01*
X18400Y25650D01*
Y24350D01*
X18654Y23075D01*
X19151Y21874D01*
X19873Y20793D01*
X20793Y19873D01*
X21874Y19151D01*
X23075Y18654D01*
X24350Y18400D01*
X25650D01*
X26925Y18654D01*
X28126Y19151D01*
X29207Y19873D01*
X30127Y20793D01*
X30849Y21874D01*
X31346Y23075D01*
X31600Y24350D01*
Y25650D01*
X31346Y26925D01*
X30849Y28126D01*
X30127Y29207D01*
X29207Y30127D01*
X28126Y30849D01*
X26925Y31346D01*
X25650Y31600D01*
D02*
G37*
G36*
X164380Y20121D02*
X160427D01*
X156474D01*
Y16865D01*
X157683D01*
X157756Y16798D01*
X157976Y16365D01*
X157808Y15959D01*
X161507D01*
X161338Y16365D01*
X161558Y16798D01*
X161631Y16865D01*
X164380D01*
Y20121D01*
D02*
G37*
%LPD*%
G36*
X101689Y177262D02*
X101498Y176801D01*
X101452D01*
X100753Y176511D01*
X100417Y176175D01*
X87932D01*
X86026Y178081D01*
X86217Y178543D01*
X90004D01*
Y183457D01*
X90004D01*
Y183543D01*
X90004D01*
Y188241D01*
X90504Y188448D01*
X101689Y177262D01*
D02*
G37*
G36*
X99514Y165192D02*
Y146353D01*
X98217D01*
X98094Y146377D01*
X97971Y146353D01*
X94982D01*
Y145643D01*
X87211D01*
X86876Y146143D01*
X86976Y146384D01*
Y146900D01*
X87057Y147180D01*
X87426Y147362D01*
X87865D01*
X88564Y147652D01*
X89098Y148186D01*
X89387Y148884D01*
Y149640D01*
X89098Y150338D01*
X88564Y150873D01*
X87865Y151162D01*
X87429D01*
X87281Y151384D01*
Y152003D01*
X87289Y152146D01*
X87688Y152465D01*
X88062D01*
X88761Y152754D01*
X89295Y153288D01*
X89584Y153987D01*
Y154743D01*
X89295Y155441D01*
X88761Y155975D01*
X88062Y156265D01*
X87306D01*
X86608Y155975D01*
X86392Y155759D01*
X82556D01*
X82285Y156159D01*
X82264Y156259D01*
X82346Y156675D01*
Y157653D01*
X82284Y157968D01*
X82521Y158372D01*
X82623Y158468D01*
X83161D01*
X83478Y158151D01*
X84176Y157862D01*
X84932D01*
X85631Y158151D01*
X86165Y158686D01*
X86454Y159384D01*
Y160140D01*
X86555Y160291D01*
X86921D01*
X87620Y160581D01*
X88154Y161115D01*
X88443Y161813D01*
Y162569D01*
X88154Y163268D01*
X87620Y163802D01*
X86921Y164091D01*
X86727D01*
X86450Y164507D01*
X86454Y164518D01*
Y165274D01*
X86379Y165455D01*
X86657Y165871D01*
X89559D01*
Y165042D01*
X93528D01*
Y165646D01*
X95142D01*
X95270Y165518D01*
X95969Y165228D01*
X96725D01*
X97423Y165518D01*
X97957Y166052D01*
X97989Y166129D01*
X98480Y166227D01*
X99514Y165192D01*
D02*
G37*
G36*
X52740Y157653D02*
Y156675D01*
X52506Y156389D01*
X27569D01*
X26837Y157121D01*
X27155Y157510D01*
X27519Y157266D01*
X28202Y157131D01*
X28202Y157131D01*
X41151D01*
X41833Y157266D01*
X42412Y157653D01*
X42698Y157939D01*
X52506D01*
X52740Y157653D01*
D02*
G37*
G36*
X94982Y142384D02*
X95202D01*
X95460Y141998D01*
Y141243D01*
X95749Y140544D01*
X96283Y140010D01*
X96982Y139720D01*
X97737D01*
X98436Y140010D01*
X98970Y140544D01*
X99014Y140649D01*
X99514Y140550D01*
Y132758D01*
X96232Y129477D01*
X86815D01*
Y130522D01*
X83116D01*
X82968Y130552D01*
X82451D01*
X82186Y130604D01*
X81762D01*
X81634Y130732D01*
Y135100D01*
X81988Y135337D01*
X82253Y135734D01*
X82346Y136202D01*
Y137181D01*
X82288Y137476D01*
X82541Y137895D01*
X82636Y137976D01*
X84099D01*
X85475Y136600D01*
Y136125D01*
X85764Y135426D01*
X86299Y134892D01*
X86997Y134602D01*
X87753D01*
X88451Y134892D01*
X88986Y135426D01*
X89275Y136125D01*
Y136880D01*
X89156Y137169D01*
X89265Y137332D01*
X89515Y137608D01*
X90123Y137860D01*
X90657Y138394D01*
X90946Y139093D01*
Y139848D01*
X90657Y140547D01*
X90123Y141081D01*
X89424Y141370D01*
X88949D01*
X87725Y142594D01*
X87877Y143054D01*
X87908Y143094D01*
X94982D01*
Y142384D01*
D02*
G37*
G36*
X74220Y87874D02*
X74220Y87874D01*
X74882Y87431D01*
X75662Y87276D01*
X75662Y87276D01*
X94667D01*
X94874Y86776D01*
X90222Y82124D01*
X85200D01*
Y80407D01*
X82558D01*
Y82124D01*
X74652D01*
Y80407D01*
X72240D01*
Y82124D01*
X66694D01*
X61796Y87023D01*
X61299Y87354D01*
X60714Y87471D01*
X53661D01*
Y87926D01*
X45362D01*
Y87471D01*
X37623D01*
X37038Y87354D01*
X36541Y87023D01*
X29252Y79733D01*
X28752Y79940D01*
Y83394D01*
X28100D01*
Y101636D01*
X30706Y104241D01*
X44343D01*
Y106152D01*
X55941D01*
X74220Y87874D01*
D02*
G37*
G36*
X33238Y78741D02*
Y71136D01*
X35494D01*
Y63371D01*
X35649Y62590D01*
X36091Y61929D01*
X39911Y58109D01*
Y53382D01*
X39449Y53190D01*
X38962Y53677D01*
X39234Y54084D01*
X39390Y54865D01*
X39234Y55645D01*
X38792Y56306D01*
X34559Y60540D01*
Y66250D01*
X27047D01*
Y66250D01*
X26685D01*
Y66250D01*
X23429D01*
Y62298D01*
Y58345D01*
X26685D01*
Y58345D01*
X26957D01*
X27061Y58212D01*
X27112Y57729D01*
X27083Y57691D01*
X26405D01*
X25515Y57453D01*
X24717Y56992D01*
X24065Y56340D01*
X23605Y55542D01*
X23418Y54846D01*
X22899Y54657D01*
X22432Y55124D01*
Y57214D01*
X16814D01*
Y55229D01*
X15814D01*
Y57214D01*
X14133D01*
Y56759D01*
X12598D01*
X12539Y56818D01*
X11841Y57107D01*
X11659D01*
X11451Y57607D01*
X14181Y60337D01*
X14672Y60239D01*
X14703Y60162D01*
X15238Y59628D01*
X15936Y59339D01*
X16051D01*
X16626Y58763D01*
X17123Y58432D01*
X17708Y58315D01*
X20673D01*
X20821Y58345D01*
X22429D01*
Y62298D01*
Y66250D01*
X20748D01*
X20557Y66712D01*
X32776Y78932D01*
X33238Y78741D01*
D02*
G37*
G36*
X123838Y30599D02*
X123726Y30486D01*
X123487Y29910D01*
X125337D01*
Y28910D01*
X123487D01*
X123726Y28334D01*
X124260Y27799D01*
X124792Y27579D01*
X124692Y27079D01*
X121559D01*
Y26428D01*
X118724D01*
Y27132D01*
X114136D01*
Y29802D01*
X119118D01*
Y31099D01*
X123631D01*
X123838Y30599D01*
D02*
G37*
D10*
X37533Y63371D02*
X44043Y56860D01*
X67867Y54209D02*
X72575Y49500D01*
X77500D01*
X65291Y54209D02*
X67867D01*
X64711Y54789D02*
X65291Y54209D01*
X47043Y54789D02*
X64711D01*
X173565Y9225D02*
Y10524D01*
Y23376D01*
X46115Y54789D02*
X47043D01*
X36443Y108191D02*
X56786D01*
X75662Y89315D02*
X101618D01*
X56786Y108191D02*
X75662Y89315D01*
X168840Y28101D02*
X173565Y23376D01*
X37533Y74431D02*
X38588Y75486D01*
X37533Y63371D02*
Y74431D01*
X160427Y28101D02*
X168840D01*
X30976Y61239D02*
X37350Y54865D01*
X101618Y89315D02*
Y90890D01*
X102751Y85591D02*
Y85696D01*
X102693Y85533D02*
X102751Y85591D01*
X101618Y85533D02*
X102693D01*
X101618Y85378D02*
Y85533D01*
X89153Y78368D02*
X89350D01*
X96514Y85533D02*
X101618D01*
X89350Y78368D02*
X96514Y85533D01*
X78605Y78368D02*
X89350D01*
X33615Y108191D02*
X36443D01*
X39793Y140641D02*
X48910D01*
X68287Y78368D02*
X78605D01*
X44043Y56860D02*
X46115Y54789D01*
D12*
X87405Y174900D02*
X101830D01*
X107634Y169278D02*
X112561Y164352D01*
X112707D01*
X107488Y169278D02*
X107634D01*
X169657Y164657D02*
Y181522D01*
X161606Y156606D02*
X169657Y164657D01*
X213065Y178166D02*
X214098Y179199D01*
X164342Y181502D02*
X164539Y181305D01*
X164539D01*
X164756Y181522D02*
X169657D01*
X164539Y181305D02*
X164756Y181522D01*
X150844Y80273D02*
X151092Y80024D01*
X148943Y82952D02*
X150844Y81051D01*
Y80273D02*
Y81051D01*
X147012Y82952D02*
X148943D01*
X153465Y156606D02*
X161606D01*
X141303Y169802D02*
X146996Y175496D01*
X143043Y167105D02*
X143184Y167246D01*
X144693D02*
X149490Y172043D01*
X149589D01*
X143184Y167246D02*
X144693D01*
X149589Y172043D02*
X150372Y172826D01*
Y172925D01*
X152642Y159837D02*
X156736D01*
X122175Y167266D02*
X122175D01*
X83512Y201000D02*
X84532Y199980D01*
X89461D02*
X122175Y167266D01*
X84532Y199980D02*
X89461D01*
X146996Y175496D02*
X151663D01*
X133394Y78065D02*
Y78334D01*
X133526Y78466D02*
X143075D01*
X133394Y78334D02*
X133526Y78466D01*
X130240Y74638D02*
X130242Y74640D01*
Y78063D02*
X130244Y78065D01*
X130242Y74640D02*
Y78063D01*
X131819Y82494D02*
X134673D01*
X127390D02*
X131819D01*
Y78065D02*
Y82494D01*
X128669Y76743D02*
Y78065D01*
X131819Y76743D02*
Y78065D01*
X134604Y82426D02*
X134673Y82494D01*
X125846Y78065D02*
X128669D01*
X124566Y80993D02*
X126067Y82494D01*
X124566Y79345D02*
X125846Y78065D01*
X124566Y79345D02*
Y80993D01*
X119509Y91511D02*
X120756D01*
X123393Y94148D02*
X123393D01*
X118724Y90727D02*
X119509Y91511D01*
X120756D02*
X123393Y94148D01*
X130517Y93881D02*
X132097Y92302D01*
X130517Y93881D02*
Y94380D01*
X133132Y96995D01*
Y97191D01*
X133394Y90626D02*
Y96930D01*
X133132Y97191D02*
X133394Y96930D01*
X128669Y85349D02*
Y86551D01*
X128891Y86772D02*
X128993D01*
X130174Y87420D02*
X130230Y87476D01*
X128993Y86772D02*
X129641Y87420D01*
X128669Y86551D02*
X128891Y86772D01*
X129641Y87420D02*
X130174D01*
X130244Y85349D02*
Y87476D01*
X130230D02*
X130244D01*
X131819Y89051D01*
X133394Y90626D01*
Y85349D02*
Y90626D01*
X137852Y74625D02*
X138836Y73640D01*
X137500Y74625D02*
X137852D01*
X138836Y73640D02*
X143161D01*
X201749Y100191D02*
X201859D01*
X202593Y100926D01*
Y108486D01*
X105103Y160041D02*
Y175651D01*
X89754Y191000D02*
X105103Y175651D01*
X117677Y165570D02*
Y167129D01*
X90013Y194793D02*
X117677Y167129D01*
Y165570D02*
X117768Y165479D01*
X84719Y194793D02*
X90013D01*
X83512Y196000D02*
X84719Y194793D01*
X97360Y141621D02*
Y144369D01*
X97163D02*
X97360D01*
Y144929D01*
Y144369D02*
X98094Y145103D01*
X151504Y162995D02*
X152685Y164176D01*
X156736D01*
X83512Y191000D02*
X89754D01*
X154654Y178486D02*
Y178584D01*
X151663Y175496D02*
X154654Y178486D01*
X160549Y185295D02*
X164198D01*
X150688Y178613D02*
Y183595D01*
X150812Y183719D02*
X153012D01*
X150688Y178613D02*
X150716Y178584D01*
X150688Y183595D02*
X150812Y183719D01*
X153012D02*
X155342Y186050D01*
X218846Y110552D02*
Y114230D01*
X43838Y131844D02*
X44496D01*
X43243Y132440D02*
X43838Y131844D01*
X147012Y78466D02*
Y82952D01*
X143075Y73727D02*
Y78466D01*
Y73727D02*
X143161Y73640D01*
X138744Y82952D02*
X143075D01*
X134673Y80920D02*
X136712D01*
X138744Y82952D01*
X74357Y106589D02*
X78294D01*
X20251Y55229D02*
X20334Y55147D01*
X20607D01*
X26807Y48947D02*
X35382D01*
X20607Y55147D02*
X26807Y48947D01*
X25581Y45283D02*
X26169D01*
X23416Y47447D02*
X25581Y45283D01*
X23220Y47447D02*
X23416D01*
X29099Y42254D02*
X32626D01*
X26169Y45185D02*
X29099Y42254D01*
X26169Y45185D02*
Y45283D01*
X180500Y196499D02*
Y197664D01*
X169657Y185656D02*
X180500Y196499D01*
X169657Y185459D02*
Y185656D01*
X83512Y178793D02*
Y181000D01*
Y178793D02*
X87405Y174900D01*
X12531Y40369D02*
X16037D01*
X16399Y40006D01*
Y37388D02*
Y40006D01*
Y37388D02*
X17424Y36363D01*
X23168D01*
X27091Y40286D01*
X32626D01*
X41287Y32500D02*
Y37530D01*
X35382Y32793D02*
Y37530D01*
Y32793D02*
X35675Y32500D01*
X37350D01*
X110716Y99691D02*
X110912Y99888D01*
X154654Y173269D02*
X155142Y172780D01*
X158903D01*
X127620Y97191D02*
Y97388D01*
X124634Y100375D02*
X127620Y97388D01*
X124634Y100375D02*
Y101214D01*
X124385Y101463D02*
X124634Y101214D01*
X205695Y110093D02*
X207331D01*
X204243Y108641D02*
X205695Y110093D01*
X202748Y108641D02*
X204243D01*
X202593Y108486D02*
X202748Y108641D01*
X71874Y157656D02*
X73212Y158994D01*
X67543Y153325D02*
X71874Y157656D01*
X42679Y132440D02*
X43243D01*
X39793Y135129D02*
X39990D01*
X42679Y132440D01*
X86707Y141809D02*
X89046Y139471D01*
X78862Y141809D02*
X86707D01*
X84627Y139251D02*
X87375Y136502D01*
X79122Y139251D02*
X84627D01*
X78992Y139120D02*
X79122Y139251D01*
X96500Y144369D02*
X97163D01*
X96500Y144369D02*
X96500Y144369D01*
X78862Y144369D02*
X96500D01*
X112248Y91087D02*
X118167D01*
X118528Y90727D01*
X105555Y99691D02*
X105882Y99365D01*
X380523Y304734D02*
X380963Y304295D01*
Y304219D02*
Y304295D01*
Y304219D02*
X381000Y304181D01*
X78872Y162272D02*
X86543D01*
X96500Y144369D02*
X96831Y144037D01*
X97163Y144369D01*
X86543Y162191D02*
Y162272D01*
X78862Y164841D02*
X78890Y164869D01*
X84527D01*
X84554Y164896D01*
X78862Y162282D02*
X78872Y162272D01*
X78862Y159723D02*
X78882Y159743D01*
X84535D01*
X84554Y159762D01*
X78862Y154605D02*
X78982Y154485D01*
X87564D01*
X87684Y154365D01*
X78862Y152046D02*
X79004Y151904D01*
X85239D01*
X85381Y151762D01*
X78862Y149487D02*
X78974Y149374D01*
X87375D01*
X87487Y149262D01*
X78862Y146928D02*
X78945Y146845D01*
X84994D01*
X85076Y146762D01*
X39319Y48947D02*
Y51518D01*
X37350Y53487D02*
X39319Y51518D01*
X37350Y48947D02*
Y53487D01*
X131819Y85349D02*
Y89051D01*
D18*
X145402Y28790D02*
X145500Y28691D01*
X139783Y28790D02*
X145402D01*
X145886Y28691D02*
X160033D01*
X213350Y140577D02*
X214098Y139829D01*
X213789Y179508D02*
X214098Y179199D01*
X213240Y168498D02*
X214098Y169357D01*
X207331Y129987D02*
X214098D01*
X161478Y167025D02*
Y168585D01*
X160673Y166220D02*
X161478Y167025D01*
X160673Y159837D02*
Y166220D01*
X153085Y52590D02*
X155686D01*
X161917Y83577D02*
Y83774D01*
Y75691D02*
Y83577D01*
Y61691D02*
Y68435D01*
Y58821D02*
Y61691D01*
X120283Y40447D02*
X120295Y40459D01*
X119665Y39828D02*
X120283Y40447D01*
X215648Y105098D02*
X218985D01*
X214393Y106353D02*
X215648Y105098D01*
X214393Y106353D02*
X214393D01*
X218985Y105098D02*
X220118Y103965D01*
X213979Y106353D02*
X214393D01*
X213979Y106767D02*
Y111456D01*
Y106767D02*
X214393Y106353D01*
X207331D02*
X213979D01*
X211601Y113833D02*
X213979Y111456D01*
X207331Y113833D02*
X211601D01*
X207331Y129987D02*
X207331Y129987D01*
X207331Y129987D02*
Y171563D01*
X199468Y129987D02*
X207331D01*
X192025Y186869D02*
X207331Y171563D01*
X194502Y125021D02*
X199468Y129987D01*
X194502Y108486D02*
Y125021D01*
Y108486D02*
X196222Y106767D01*
Y106488D02*
Y106767D01*
Y106488D02*
X196357Y106353D01*
X182619Y186869D02*
X192025D01*
X182107Y187380D02*
X182619Y186869D01*
X180941Y187380D02*
X182107D01*
X180500Y187821D02*
X180941Y187380D01*
X95709Y171160D02*
X101043Y165826D01*
Y144425D02*
Y165826D01*
X91543Y171160D02*
X95709D01*
X91590Y167176D02*
X96299D01*
X96347Y167128D01*
X91366Y167400D02*
X91543Y167223D01*
X91590Y167176D01*
X67488Y201000D02*
X74617D01*
X68445Y191957D02*
X73151D01*
X74617Y193423D01*
X67488Y191000D02*
X68445Y191957D01*
X72480Y195043D02*
X72920D01*
X73066Y194897D02*
X73144D01*
X72920Y195043D02*
X73066Y194897D01*
X71524Y196000D02*
X72480Y195043D01*
X73144Y194897D02*
X74617Y193423D01*
X67488Y196000D02*
X71524D01*
X75445Y183692D02*
Y183732D01*
X67488Y181000D02*
X68445Y181957D01*
X73710D01*
X75445Y183692D01*
X68445Y185043D02*
X74133D01*
X75445Y183732D01*
X67488Y186000D02*
X68445Y185043D01*
X49727Y167400D02*
Y167501D01*
Y167400D02*
X56224D01*
X49927Y171239D02*
X53173D01*
X49727Y171438D02*
X49927Y171239D01*
X54453Y169959D02*
X56224D01*
X53173Y171239D02*
X54453Y169959D01*
X44130Y166668D02*
Y173153D01*
Y166668D02*
X44225Y166573D01*
Y166770D01*
X39788Y167894D02*
Y172748D01*
X40193Y173153D01*
X39590Y167695D02*
X39788Y167894D01*
X44225Y166573D02*
X45957Y164841D01*
X56224D01*
X60441Y167256D02*
X60585Y167400D01*
X60441Y159493D02*
Y167256D01*
X58982Y158034D02*
X60441Y159493D01*
X58866Y158034D02*
X58982D01*
X57996Y157164D02*
X58866Y158034D01*
X56224Y157164D02*
X57996D01*
X56224D02*
X56352Y157291D01*
X123818Y64116D02*
X134391D01*
X120000Y60298D02*
X123818Y64116D01*
X120000Y40731D02*
X120283Y40447D01*
X120000Y40731D02*
Y60298D01*
X134391Y64116D02*
X135165Y64890D01*
X141661D01*
X155686Y52590D02*
X161917Y58821D01*
X145098Y61453D02*
X152031Y54520D01*
Y53644D02*
Y54520D01*
X145098Y61453D02*
Y61453D01*
X152031Y53644D02*
X153085Y52590D01*
X141661Y64890D02*
X145098Y61453D01*
X135165Y44991D02*
X142464Y37691D01*
X135165Y44991D02*
Y51110D01*
X142464Y37691D02*
Y37691D01*
X123815Y20689D02*
X127524D01*
X123543Y20961D02*
X123815Y20689D01*
X127524D02*
X127677Y20536D01*
X164198Y185295D02*
X164342Y185439D01*
X160405Y185152D02*
X160549Y185295D01*
X155342Y182113D02*
Y182309D01*
X154752Y181522D02*
X155342Y182113D01*
X154752Y178683D02*
Y181522D01*
X154654Y178584D02*
X154752Y178683D01*
X150716Y168676D02*
Y173048D01*
Y173269D02*
X150716Y173269D01*
X216854Y91616D02*
Y91813D01*
X214404Y87198D02*
Y89166D01*
X216854Y91616D01*
X214251Y87045D02*
X214404Y87198D01*
X203958Y62626D02*
Y65372D01*
X161768Y51191D02*
X168171D01*
X159657Y20245D02*
X160427Y21014D01*
X73212Y158994D02*
Y167065D01*
X39319Y42254D02*
X44043D01*
X10282Y51605D02*
Y53809D01*
X9643Y108191D02*
X21543D01*
X7776Y81409D02*
X8850Y82484D01*
X10267Y51590D02*
X10282Y51605D01*
X37350Y43239D02*
X37842Y43731D01*
X39319Y37530D02*
Y42254D01*
X37350Y37530D02*
Y43239D01*
X32626Y44223D02*
X37350D01*
X19852Y39816D02*
Y40369D01*
X147012Y78466D02*
X147055Y78423D01*
Y73684D02*
Y78423D01*
Y73684D02*
X147098Y73640D01*
X160842Y84849D02*
X161917Y83774D01*
X159862Y85632D02*
X160646Y84849D01*
X135925Y82813D02*
X138744Y85632D01*
X159862D01*
X160646Y84849D02*
X160842D01*
X181000Y118491D02*
X181669D01*
X193807Y106353D02*
X196222D01*
X181669Y118491D02*
X193807Y106353D01*
X203958Y62626D02*
X204378D01*
X198980D02*
X203958D01*
X205500Y64072D02*
X210712Y69283D01*
X205500Y63748D02*
Y64072D01*
X210712Y69283D02*
Y69500D01*
X4293Y81409D02*
X7776D01*
X97050Y102881D02*
X100043Y99888D01*
X97050Y102881D02*
Y102960D01*
X93254Y106255D02*
X96397Y103113D01*
X93254Y106255D02*
Y106452D01*
X82231Y106589D02*
X87605D01*
X87742Y106452D01*
X202930Y91813D02*
X204015Y90728D01*
X210267D01*
Y90738D02*
X211342Y91813D01*
X210267Y90728D02*
Y90738D01*
X211342Y91813D01*
X195056Y91813D02*
Y97632D01*
Y91813D02*
X195056Y91813D01*
X197615Y100191D02*
X197812D01*
X195056Y97632D02*
X197615Y100191D01*
X196978Y106353D02*
X197812D01*
X198205D01*
X197812Y100191D02*
Y105959D01*
X198205Y106353D01*
X14256Y82000D02*
X14846Y81409D01*
X22634D01*
X26571D02*
Y102269D01*
Y81011D02*
Y81409D01*
X32493Y108191D02*
X33615D01*
X26571Y102269D02*
X32493Y108191D01*
X155342Y186050D02*
Y186247D01*
X48925Y149000D02*
X49142D01*
X49628Y149487D01*
X56224D01*
X11463Y55207D02*
X11485Y55229D01*
X16314D01*
X14204Y47447D02*
X19283D01*
X14219Y47462D02*
Y51590D01*
X14204Y47447D02*
X14219Y47462D01*
X10267Y47447D02*
Y51590D01*
X21000Y40964D02*
Y44500D01*
X20405Y40369D02*
X21000Y40964D01*
X10267Y51605D02*
X10282D01*
X11463Y54991D02*
Y55207D01*
X10282Y53809D02*
X11463Y54991D01*
X14204Y51605D02*
X14219Y51590D01*
X211342Y91803D02*
Y91813D01*
X210267Y90728D02*
X211342Y91803D01*
X220129Y57876D02*
Y95855D01*
X220118Y95866D02*
X220129Y95855D01*
X93254Y106452D02*
Y106649D01*
X94329Y107724D01*
X200275Y69054D02*
Y69136D01*
Y69054D02*
X203958Y65372D01*
X205500Y63748D02*
X207102D01*
X207545Y64191D01*
X214543D01*
X197774Y61636D02*
X197990D01*
X198980Y62626D01*
X204378D02*
X205500Y63748D01*
X9291Y42224D02*
X10675D01*
X12531Y40369D01*
X37623Y85941D02*
X47543D01*
X7640Y55959D02*
X37623Y85941D01*
X7640Y43875D02*
Y55959D01*
Y43875D02*
X9291Y42224D01*
X41287Y37530D02*
X41287Y37530D01*
X40286Y41287D02*
X41253Y40321D01*
X39319Y42254D02*
X40286Y41287D01*
X36383Y45190D02*
X37350Y44223D01*
X35416Y46157D02*
X36383Y45190D01*
X18149Y38113D02*
X19852Y39816D01*
X41091Y32500D02*
X41287D01*
X220118Y95866D02*
Y103965D01*
X41287Y40286D02*
X44043D01*
X41253Y40321D02*
X41287Y40286D01*
X41253Y37565D02*
X41287Y37530D01*
X41253Y37565D02*
Y40321D01*
X37350Y44223D02*
X37842Y43731D01*
X32626Y46191D02*
X32661Y46157D01*
X35416D01*
X66461Y76541D02*
X68287Y78368D01*
X54543Y76541D02*
X66461D01*
X53488Y75486D02*
X54543Y76541D01*
X154654Y168676D02*
X154699Y168630D01*
X161433D01*
X161478Y168585D01*
X112606Y25148D02*
Y34640D01*
X117794Y39828D02*
X119665D01*
X112606Y34640D02*
X117794Y39828D01*
X142464Y33931D02*
Y37691D01*
X139685Y32628D02*
X140268Y33211D01*
X141744D01*
X142464Y33931D01*
X143965Y39191D02*
X155143D01*
X142464Y37691D02*
X143965Y39191D01*
X84043Y127947D02*
X96865D01*
X101043Y132125D02*
Y144312D01*
X96865Y127947D02*
X101043Y132125D01*
X196357Y106353D02*
X196978D01*
X78673Y169770D02*
X78862Y169959D01*
X75917Y169770D02*
X78673D01*
X73212Y167065D02*
X75917Y169770D01*
X105555Y99691D02*
X110716D01*
X100043D02*
Y99888D01*
X84043Y117191D02*
Y122435D01*
Y117191D02*
X84043Y117191D01*
X9643Y108191D02*
X11043Y109591D01*
Y115652D01*
X150372Y172925D02*
X150716Y173269D01*
X17708Y59845D02*
X20673D01*
X16314Y61239D02*
X17708Y59845D01*
X155143Y39191D02*
X155643Y38691D01*
X168199Y41036D02*
Y51163D01*
Y41036D02*
X170543Y38691D01*
X168171Y51191D02*
X168199Y51163D01*
X161917Y68435D02*
Y75691D01*
X22929Y62101D02*
Y62298D01*
X20673Y59845D02*
X22929Y62101D01*
X198256Y177209D02*
X198274Y177227D01*
X198256Y165874D02*
X198274Y165892D01*
X198057Y155156D02*
X198274D01*
X126075Y28888D02*
X129646D01*
X125553Y29410D02*
X126075Y28888D01*
X125337Y29410D02*
X125553D01*
X181000Y108648D02*
X182218D01*
X118528Y85215D02*
X118612Y85131D01*
Y80636D02*
Y85131D01*
X107524Y78748D02*
Y82426D01*
X106805Y78029D02*
X107524Y78748D01*
X106805Y77813D02*
Y78029D01*
X59824Y128691D02*
X62075D01*
X57227Y131289D02*
X59824Y128691D01*
X56224Y132508D02*
Y136691D01*
Y132508D02*
X57227Y131506D01*
Y131289D02*
Y131506D01*
X50669Y136691D02*
X56224D01*
X89153Y64636D02*
Y70494D01*
X78605Y64636D02*
Y70494D01*
X68287Y64636D02*
Y70494D01*
X167429Y83577D02*
X173043D01*
X159657Y15459D02*
Y20245D01*
X167429Y61691D02*
X167586Y61849D01*
X173109D01*
X167429Y68435D02*
X173043D01*
X167429Y75691D02*
X167563Y75557D01*
X172609D01*
X44496Y131844D02*
X45429D01*
X48713Y135129D02*
X48910D01*
X45429Y131844D02*
X48713Y135129D01*
X101043Y144425D02*
X101100Y144369D01*
X101043Y144312D02*
X101100Y144369D01*
X105882Y95485D02*
X107524Y93843D01*
X105882Y95485D02*
Y99365D01*
X78862Y167400D02*
X91366D01*
X78862Y139251D02*
X78992Y139120D01*
X97163Y144369D02*
X97163Y144369D01*
X82968Y129022D02*
X83699Y128292D01*
X82239Y129022D02*
X82968D01*
X80001Y130099D02*
X80104D01*
X77512Y128691D02*
X77996Y129176D01*
X79078D01*
X80001Y130099D01*
X80104Y130099D02*
X80104D01*
X81128Y129075D01*
X82186D02*
X82239Y129022D01*
X81128Y129075D02*
X82186D01*
X66012Y128691D02*
X73575D01*
X66012Y128691D02*
X66012Y128691D01*
X80104Y130099D02*
X80104Y130099D01*
X79915Y136691D02*
X80104Y136502D01*
Y130099D02*
Y136502D01*
X78862Y136691D02*
X79915D01*
X37350Y53487D02*
Y54865D01*
X116793Y24898D02*
X129396D01*
X116543Y25148D02*
X116793Y24898D01*
X129396D02*
X129646Y25148D01*
X139685D02*
X139882Y24951D01*
X145689D01*
X145886Y24754D01*
X116543Y32573D02*
X116598Y32628D01*
X129646D01*
X139685Y28888D02*
X139783Y28790D01*
X129646Y32628D02*
Y34837D01*
X132500Y37691D01*
X132697D01*
X51480Y85941D02*
X60714D01*
X65835Y80821D01*
X66012Y128691D02*
Y133794D01*
X60744Y139061D02*
X66012Y133794D01*
X56413Y139061D02*
X60744D01*
X57996Y141809D02*
X60744Y139061D01*
X56224Y139251D02*
X56413Y139061D01*
X56224Y141809D02*
X57996D01*
X49107Y135129D02*
X50669Y136691D01*
X48910Y135129D02*
X49107D01*
X65835Y80624D02*
Y80821D01*
Y80624D02*
X68090Y78368D01*
X68287D01*
X44043Y46191D02*
Y56860D01*
X118528Y90727D02*
X118724D01*
X136634Y37691D02*
X142464D01*
D19*
X0Y0D02*
Y225000D01*
X225000D01*
Y0D02*
Y225000D01*
X0Y0D02*
X225000D01*
D20*
X77500Y14211D02*
D03*
Y53188D02*
D03*
D21*
X120283Y40447D02*
D03*
X112803D02*
D03*
X116543Y32573D02*
D03*
X216854Y91813D02*
D03*
X211342D02*
D03*
X14256Y82000D02*
D03*
X8744D02*
D03*
X87742Y106452D02*
D03*
X93254D02*
D03*
X44225Y166770D02*
D03*
X38714D02*
D03*
X127620Y97191D02*
D03*
X133132D02*
D03*
X105555Y99691D02*
D03*
X100043D02*
D03*
X161917Y83577D02*
D03*
X167429D02*
D03*
Y75691D02*
D03*
X161917D02*
D03*
Y61691D02*
D03*
X167429D02*
D03*
X161917Y68435D02*
D03*
X167429D02*
D03*
D22*
X83512Y201000D02*
D03*
Y196000D02*
D03*
Y191000D02*
D03*
Y186000D02*
D03*
Y181000D02*
D03*
X67488D02*
D03*
Y186000D02*
D03*
Y191000D02*
D03*
Y196000D02*
D03*
Y201000D02*
D03*
D23*
X14204Y47447D02*
D03*
X10267D02*
D03*
X26571Y81409D02*
D03*
X22634D02*
D03*
X19283Y47447D02*
D03*
X23220D02*
D03*
X44130Y173153D02*
D03*
X40193D02*
D03*
X143161Y73640D02*
D03*
X147098D02*
D03*
X154654Y168676D02*
D03*
X150716D02*
D03*
X156736Y159837D02*
D03*
X160673D02*
D03*
X156736Y164176D02*
D03*
X160673D02*
D03*
X78294Y106589D02*
D03*
X82231D02*
D03*
X37350Y32500D02*
D03*
X41287D02*
D03*
X143075Y78466D02*
D03*
X147012D02*
D03*
X136634Y37691D02*
D03*
X132697D02*
D03*
X147012Y82952D02*
D03*
X143075D02*
D03*
X97163Y144369D02*
D03*
X101100D02*
D03*
X77512Y128691D02*
D03*
X73575D02*
D03*
X47543Y85941D02*
D03*
X51480D02*
D03*
X20251Y55229D02*
D03*
X16314D02*
D03*
X197812Y100191D02*
D03*
X201749D02*
D03*
X62075Y128691D02*
D03*
X66012D02*
D03*
X112606Y25148D02*
D03*
X116543D02*
D03*
X14204Y51605D02*
D03*
X10267D02*
D03*
D24*
X12531Y40369D02*
D03*
X20405D02*
D03*
X202930Y91813D02*
D03*
X195056D02*
D03*
X162161Y51191D02*
D03*
X154287D02*
D03*
X22929Y62298D02*
D03*
X30803D02*
D03*
D25*
X160427Y20620D02*
D03*
Y28495D02*
D03*
X68287Y78368D02*
D03*
Y70494D02*
D03*
X89153Y78368D02*
D03*
Y70494D02*
D03*
X78605Y78368D02*
D03*
Y70494D02*
D03*
D26*
X169657Y181522D02*
D03*
Y185459D02*
D03*
X164342Y185439D02*
D03*
Y181502D02*
D03*
X155342Y186247D02*
D03*
Y182309D02*
D03*
X91543Y167223D02*
D03*
Y171160D02*
D03*
X49727Y171438D02*
D03*
Y167501D02*
D03*
X145886Y24754D02*
D03*
Y28691D02*
D03*
X123543Y20961D02*
D03*
Y24898D02*
D03*
D27*
X84043Y127947D02*
D03*
Y122435D02*
D03*
X118528Y85215D02*
D03*
Y90727D02*
D03*
X39793Y140641D02*
D03*
Y135129D02*
D03*
X48910Y135129D02*
D03*
Y140641D02*
D03*
X218846Y110552D02*
D03*
Y105040D02*
D03*
D28*
X150716Y173269D02*
D03*
Y178584D02*
D03*
X154654Y173269D02*
D03*
Y178584D02*
D03*
D29*
X128669Y78065D02*
D03*
X130244D02*
D03*
X131819D02*
D03*
X133394D02*
D03*
Y85349D02*
D03*
X131819D02*
D03*
X130244D02*
D03*
X128669D02*
D03*
D30*
X134673Y80920D02*
D03*
Y82494D02*
D03*
X127390D02*
D03*
Y80920D02*
D03*
D31*
X139685Y32628D02*
D03*
Y28888D02*
D03*
Y25148D02*
D03*
X129646D02*
D03*
Y28888D02*
D03*
Y32628D02*
D03*
D32*
X56224Y169959D02*
D03*
Y167400D02*
D03*
Y164841D02*
D03*
Y162282D02*
D03*
Y159723D02*
D03*
Y157164D02*
D03*
Y154605D02*
D03*
Y152046D02*
D03*
Y149487D02*
D03*
Y146928D02*
D03*
Y144369D02*
D03*
Y141809D02*
D03*
Y139251D02*
D03*
Y136691D02*
D03*
X78862Y169959D02*
D03*
Y167400D02*
D03*
Y164841D02*
D03*
Y162282D02*
D03*
Y159723D02*
D03*
Y157164D02*
D03*
Y154605D02*
D03*
Y152046D02*
D03*
Y149487D02*
D03*
Y146928D02*
D03*
Y144369D02*
D03*
Y141809D02*
D03*
Y139251D02*
D03*
Y136691D02*
D03*
D33*
X67543Y153325D02*
D03*
D34*
X41287Y48947D02*
D03*
X39319D02*
D03*
X37350D02*
D03*
X35382D02*
D03*
Y37530D02*
D03*
X37350D02*
D03*
X39319D02*
D03*
X41287D02*
D03*
D35*
X32626Y46191D02*
D03*
Y44223D02*
D03*
Y42254D02*
D03*
Y40286D02*
D03*
X44043D02*
D03*
Y42254D02*
D03*
Y44223D02*
D03*
Y46191D02*
D03*
D36*
X38335Y43239D02*
D03*
D37*
X101618Y90890D02*
D03*
Y86953D02*
D03*
Y89315D02*
D03*
Y85378D02*
D03*
D38*
X107524Y82426D02*
D03*
X109492D02*
D03*
Y93843D02*
D03*
X107524D02*
D03*
D39*
X112248Y85181D02*
D03*
Y87150D02*
D03*
Y89118D02*
D03*
Y91087D02*
D03*
D40*
X36443Y108191D02*
D03*
X9643D02*
D03*
D41*
X135165Y64890D02*
D03*
Y51110D02*
D03*
D42*
X170543Y38691D02*
D03*
X155643D02*
D03*
X38588Y75486D02*
D03*
X53488D02*
D03*
D43*
X198272Y106353D02*
D03*
Y113833D02*
D03*
X207331D02*
D03*
Y110093D02*
D03*
D44*
Y106353D02*
D03*
D45*
X46978Y12483D02*
X47170Y12674D01*
X72363D02*
X74001Y14312D01*
X47170Y12674D02*
X72363D01*
X77500Y14211D02*
X81209Y10503D01*
X173294Y9225D02*
X173565D01*
X172019Y10500D02*
X173294Y9225D01*
X88473Y10500D02*
X172019D01*
X88470Y10503D02*
X88473Y10500D01*
X81209Y10503D02*
X88470D01*
X30803Y56808D02*
Y62298D01*
X26866Y54191D02*
X27057Y54383D01*
X28377D02*
X30803Y56808D01*
X27057Y54383D02*
X28377D01*
D46*
X39538Y164142D02*
X41398Y162282D01*
X39538Y164142D02*
Y166043D01*
X41398Y162282D02*
X56224D01*
X13043Y174191D02*
X25712Y161522D01*
X41151Y158915D02*
X41959Y159723D01*
X28202Y158915D02*
X41151D01*
X25712Y161405D02*
Y161522D01*
Y161405D02*
X28202Y158915D01*
X41959Y159723D02*
X56224D01*
X13043Y154505D02*
X23393D01*
X26049Y151850D02*
X54133D01*
X23393Y154505D02*
X26049Y151850D01*
X13043Y164348D02*
X13199Y164193D01*
X17242D02*
X26830Y154605D01*
X56224D01*
X13199Y164193D02*
X17242D01*
X48910Y140641D02*
X49735Y141465D01*
X50249D02*
X53091Y144307D01*
X49735Y141465D02*
X50249D01*
X56163Y144307D02*
X56224Y144369D01*
X53091Y144307D02*
X56163D01*
X13043Y144662D02*
X14234D01*
X15541Y145970D02*
X42649D01*
X14234Y144662D02*
X15541Y145970D01*
X42649D02*
X42679Y145999D01*
X51247D01*
X52114Y146867D01*
X54514D01*
X54575Y146928D01*
X56224D01*
X54133Y151850D02*
X54268Y151985D01*
X56163D01*
X56224Y152046D01*
D47*
X32902Y172778D02*
X38714Y166966D01*
X30935Y173161D02*
X31317Y172778D01*
X38714Y166770D02*
Y166966D01*
X31317Y172778D02*
X32902D01*
X39718Y140566D02*
X39793Y140641D01*
X34800Y140566D02*
X39718D01*
X32352Y138117D02*
X34800Y140566D01*
X31810Y138117D02*
X32352D01*
X31810Y137549D02*
Y138117D01*
Y137549D02*
X32043Y137316D01*
Y112591D02*
X36443Y108191D01*
X32043Y112591D02*
Y137316D01*
X30803Y62101D02*
Y62298D01*
D48*
X44043Y44223D02*
X46633D01*
X47043Y44633D01*
Y54789D01*
X41287Y48947D02*
Y58522D01*
D49*
X214098Y179199D02*
D03*
Y169357D02*
D03*
Y159514D02*
D03*
Y149672D02*
D03*
Y139829D02*
D03*
Y129987D02*
D03*
X13043Y144662D02*
D03*
Y154505D02*
D03*
Y164348D02*
D03*
Y174191D02*
D03*
D50*
X25000Y25000D02*
D03*
Y200000D02*
D03*
X200000D02*
D03*
Y25000D02*
D03*
D51*
X205500Y63748D02*
D03*
Y48000D02*
D03*
D52*
X95500Y201000D02*
D03*
X105500D02*
D03*
D53*
X115500D02*
D03*
D54*
X181000Y108648D02*
D03*
Y118491D02*
D03*
X180500Y197664D02*
D03*
Y187821D02*
D03*
D55*
X210000Y120000D02*
D03*
Y80000D02*
D03*
X180000Y140000D02*
D03*
X190000Y120000D02*
D03*
X180000Y100000D02*
D03*
X190000Y80000D02*
D03*
X180000Y60000D02*
D03*
X160000Y180000D02*
D03*
X170000Y160000D02*
D03*
Y120000D02*
D03*
X140000Y100000D02*
D03*
Y20000D02*
D03*
X120000Y100000D02*
D03*
Y20000D02*
D03*
X100000Y60000D02*
D03*
Y20000D02*
D03*
X90000Y120000D02*
D03*
X80000Y100000D02*
D03*
X90000Y40000D02*
D03*
X70000Y120000D02*
D03*
X60000Y60000D02*
D03*
X70000Y40000D02*
D03*
X60000Y20000D02*
D03*
X50000Y120000D02*
D03*
X40000Y100000D02*
D03*
X50000Y40000D02*
D03*
X40000Y20000D02*
D03*
X20000Y180000D02*
D03*
Y140000D02*
D03*
Y100000D02*
D03*
D56*
X46978Y12483D02*
D03*
X30935Y173161D02*
D03*
X173565Y9225D02*
D03*
X31810Y138117D02*
D03*
X26866Y54191D02*
D03*
D57*
X101830Y174900D02*
D03*
X112707Y164352D02*
D03*
X107488Y169278D02*
D03*
X172695Y146191D02*
D03*
X170642Y191193D02*
D03*
X153465Y156606D02*
D03*
X141303Y169802D02*
D03*
X147012Y165268D02*
D03*
X152642Y159837D02*
D03*
X143043Y167105D02*
D03*
X122175Y167266D02*
D03*
X130240Y74638D02*
D03*
X132097Y92302D02*
D03*
X156952Y74461D02*
D03*
X137500Y74625D02*
D03*
X105103Y160041D02*
D03*
X117768Y165479D02*
D03*
X96347Y167128D02*
D03*
X151504Y162995D02*
D03*
X148624Y137752D02*
D03*
X97360Y141621D02*
D03*
X74617Y201000D02*
D03*
Y193423D02*
D03*
X75445Y183692D02*
D03*
X60585Y167400D02*
D03*
X127677Y20536D02*
D03*
X124263Y198201D02*
D03*
X160405Y185152D02*
D03*
X150688Y183595D02*
D03*
X218846Y114230D02*
D03*
X214251Y87045D02*
D03*
X112248Y108835D02*
D03*
X97050Y102960D02*
D03*
X74357Y106589D02*
D03*
X4293Y81409D02*
D03*
X170490Y202565D02*
D03*
X21000Y44500D02*
D03*
X46905Y193594D02*
D03*
X59831Y192000D02*
D03*
X48925Y149000D02*
D03*
X210712Y69500D02*
D03*
X11463Y55207D02*
D03*
X152055Y74089D02*
D03*
X36366Y41287D02*
D03*
X40286D02*
D03*
X39909Y45190D02*
D03*
X36383D02*
D03*
X151092Y80024D02*
D03*
X125012Y119423D02*
D03*
X110716Y123357D02*
D03*
X127685Y109341D02*
D03*
X157802Y95636D02*
D03*
X104741Y136191D02*
D03*
X158903Y172780D02*
D03*
X124385Y101463D02*
D03*
X121764Y119691D02*
D03*
X119158Y136406D02*
D03*
X202593Y108486D02*
D03*
X111109Y99504D02*
D03*
X84195Y116542D02*
D03*
X43838Y132101D02*
D03*
X21543Y108052D02*
D03*
X11043Y115652D02*
D03*
X161478Y168585D02*
D03*
X16314Y61239D02*
D03*
X220129Y57876D02*
D03*
X152043Y125987D02*
D03*
X169553Y130723D02*
D03*
X198274Y155156D02*
D03*
Y177227D02*
D03*
Y165892D02*
D03*
X125337Y29410D02*
D03*
X106805Y77813D02*
D03*
X118612Y80636D02*
D03*
X57227Y131289D02*
D03*
X89153Y64636D02*
D03*
X68287D02*
D03*
X78605D02*
D03*
X159657Y15459D02*
D03*
X168059Y51302D02*
D03*
X214543Y64191D02*
D03*
X197774Y61636D02*
D03*
X200275Y69136D02*
D03*
X173109Y61849D02*
D03*
X172609Y75557D02*
D03*
X173043Y68435D02*
D03*
Y83577D02*
D03*
X164102Y111616D02*
D03*
X164204Y121459D02*
D03*
X89046Y139471D02*
D03*
X87375Y136502D02*
D03*
X123393Y94148D02*
D03*
X86543Y162191D02*
D03*
X84554Y159762D02*
D03*
Y164896D02*
D03*
X87684Y154365D02*
D03*
X85381Y151762D02*
D03*
X87487Y149262D02*
D03*
X85076Y146762D02*
D03*
D58*
X140712Y143680D02*
D03*
Y148010D02*
D03*
Y152341D02*
D03*
Y156672D02*
D03*
X136382Y143680D02*
D03*
Y148010D02*
D03*
Y152341D02*
D03*
Y156672D02*
D03*
X132051Y143680D02*
D03*
Y148010D02*
D03*
Y152341D02*
D03*
Y156672D02*
D03*
X127720Y143680D02*
D03*
Y148010D02*
D03*
Y152341D02*
D03*
Y156672D02*
D03*
X63213Y161987D02*
D03*
X67543D02*
D03*
X71874D02*
D03*
X63213Y157656D02*
D03*
X67543D02*
D03*
X71874D02*
D03*
X63213Y153325D02*
D03*
X67543D02*
D03*
X71874D02*
D03*
X63213Y148995D02*
D03*
X67543D02*
D03*
X71874D02*
D03*
X63213Y144664D02*
D03*
X67543D02*
D03*
X71874D02*
D03*
M02*
