G04*
G04 #@! TF.GenerationSoftware,Altium Limited,Altium Designer,21.0.8 (223)*
G04*
G04 Layer_Color=65535*
%FSLAX25Y25*%
%MOIN*%
G70*
G04*
G04 #@! TF.SameCoordinates,5411D855-6831-4FB7-8657-0D58C5C57482*
G04*
G04*
G04 #@! TF.FilePolarity,Positive*
G04*
G01*
G75*
%ADD10C,0.02000*%
%ADD11C,0.00984*%
%ADD12C,0.00500*%
%ADD13C,0.02362*%
%ADD14C,0.00591*%
%ADD15C,0.00787*%
%ADD16C,0.00600*%
%ADD17C,0.00800*%
%ADD18C,0.01000*%
%ADD19C,0.04724*%
D10*
X215598Y112841D02*
G03*
X215598Y112841I-1500J0D01*
G01*
X171520Y118491D02*
G03*
X171520Y118491I-1000J0D01*
G01*
X191980Y187821D02*
G03*
X191980Y187821I-1000J0D01*
G01*
X14543Y191327D02*
G03*
X14543Y191327I-1500J0D01*
G01*
D11*
X60323Y201000D02*
G03*
X60323Y201000I-492J0D01*
G01*
X127390Y74424D02*
G03*
X127390Y74424I-492J0D01*
G01*
X130138Y35876D02*
G03*
X130138Y35876I-492J0D01*
G01*
X56717Y172813D02*
G03*
X56717Y172813I-492J0D01*
G01*
X45028Y52589D02*
G03*
X45028Y52589I-492J0D01*
G01*
X213054Y106353D02*
G03*
X213054Y106353I-492J0D01*
G01*
D12*
X198500Y48374D02*
G03*
X198500Y48374I-500J0D01*
G01*
X134713Y74049D02*
X134213Y74549D01*
X133213D01*
X132713Y74049D01*
Y72050D01*
X133213Y71550D01*
X134213D01*
X134713Y72050D01*
X137212Y71550D02*
Y74549D01*
X135712Y73050D01*
X137712D01*
X140711Y74549D02*
X139711Y74049D01*
X138711Y73050D01*
Y72050D01*
X139211Y71550D01*
X140211D01*
X140711Y72050D01*
Y72550D01*
X140211Y73050D01*
X138711D01*
X142787Y87813D02*
X142287Y88313D01*
X141287D01*
X140787Y87813D01*
Y85814D01*
X141287Y85314D01*
X142287D01*
X142787Y85814D01*
X145786Y85314D02*
X143786D01*
X145786Y87313D01*
Y87813D01*
X145286Y88313D01*
X144286D01*
X143786Y87813D01*
X146785Y85814D02*
X147285Y85314D01*
X148285D01*
X148785Y85814D01*
Y87813D01*
X148285Y88313D01*
X147285D01*
X146785Y87813D01*
Y87313D01*
X147285Y86813D01*
X148785D01*
X90600Y208900D02*
Y211899D01*
X92099D01*
X92599Y211399D01*
Y210400D01*
X92099Y209900D01*
X90600D01*
X95598Y208900D02*
X93599D01*
X95598Y210899D01*
Y211399D01*
X95099Y211899D01*
X94099D01*
X93599Y211399D01*
X88400Y111952D02*
Y108953D01*
X89900D01*
X90399Y109453D01*
Y111452D01*
X89900Y111952D01*
X88400D01*
X91399Y108953D02*
X92399D01*
X91899D01*
Y111952D01*
X91399Y111452D01*
D13*
X65378Y168680D02*
G03*
X65378Y168680I-1181J0D01*
G01*
D14*
X97386Y90890D02*
G03*
X97386Y90890I-295J0D01*
G01*
D15*
X52894Y9093D02*
Y58306D01*
X102106Y9093D02*
Y58306D01*
X52894Y9093D02*
X65295D01*
X52894Y58306D02*
X65295D01*
X89705Y9093D02*
X102106D01*
X89705Y58306D02*
X102106D01*
X122449Y33754D02*
Y37199D01*
X110638Y33754D02*
X113492D01*
X119594D02*
X122449D01*
X110638D02*
Y37199D01*
X115854Y39266D02*
X117232D01*
X74159Y203500D02*
X76841D01*
X74159Y178500D02*
X76841D01*
X16566Y46856D02*
Y48038D01*
X20272Y80819D02*
Y82000D01*
X25582Y46856D02*
Y48038D01*
X16468Y37810D02*
Y42928D01*
X198993Y89254D02*
Y94372D01*
X158224Y48632D02*
Y53750D01*
X157868Y24557D02*
X162986D01*
X120500Y196000D02*
Y206000D01*
X90500Y196000D02*
X120500D01*
X90500D02*
Y206000D01*
X120500D01*
X37831Y172563D02*
Y173744D01*
X169067Y187821D02*
X170248D01*
X163751Y179140D02*
X164933D01*
X149461Y73050D02*
Y74231D01*
X157016Y168085D02*
Y169266D01*
X154374Y159247D02*
Y160428D01*
Y163585D02*
Y164766D01*
X126307Y76983D02*
X126701D01*
X126307D02*
Y78951D01*
Y84463D02*
Y86431D01*
X126701D01*
X135362D02*
X135756D01*
Y84463D02*
Y86431D01*
X135362Y76983D02*
X135756D01*
Y78951D01*
X26866Y59739D02*
Y64857D01*
X154752Y188609D02*
X155933D01*
X75932Y105998D02*
Y107179D01*
X34988Y31909D02*
Y33091D01*
X149374Y77876D02*
Y79057D01*
X138996Y37101D02*
Y38282D01*
X136634Y22786D02*
Y34991D01*
X132697Y22786D02*
Y34991D01*
Y22786D02*
X136634D01*
X132697Y34991D02*
X136634D01*
X149374Y82361D02*
Y83542D01*
X60260Y172617D02*
X74827D01*
X60260Y134034D02*
X74827D01*
X90953Y173522D02*
X92134D01*
X103462Y143778D02*
Y144959D01*
X71213Y128101D02*
Y129282D01*
X49136Y173801D02*
X50317D01*
X65728Y74431D02*
X70846D01*
X86594D02*
X91712D01*
X76046D02*
X81164D01*
X53842Y85351D02*
Y86532D01*
X22613Y54639D02*
Y55820D01*
X43453Y50030D02*
X45126D01*
Y48357D02*
Y50030D01*
Y36447D02*
Y38120D01*
X43453Y36447D02*
X45126D01*
X31543D02*
X33217D01*
X31543D02*
Y38120D01*
Y50030D02*
X33217D01*
X31543Y48357D02*
Y50030D01*
X204111Y99601D02*
Y100782D01*
X68374Y128101D02*
Y129282D01*
X145008Y57410D02*
Y58591D01*
X125323Y57410D02*
Y58591D01*
X145295Y22392D02*
X146476D01*
X122953Y18599D02*
X124134D01*
X110244Y24558D02*
Y25739D01*
X202593Y104187D02*
Y115998D01*
X203011D01*
Y104187D02*
Y115998D01*
X202593Y104187D02*
X203011D01*
X16566Y51014D02*
Y52195D01*
D16*
X200015Y119841D02*
X223815D01*
X200015D02*
Y189541D01*
X223815D01*
Y119841D02*
Y189541D01*
X173020Y128833D02*
X188980D01*
Y98306D02*
Y128833D01*
X173020Y98306D02*
X188980D01*
X173020D02*
Y128833D01*
X172520Y177479D02*
X188480D01*
X172520D02*
Y208006D01*
X188480D01*
Y177479D02*
Y208006D01*
X101028Y92859D02*
Y94040D01*
X105752D01*
X111264D02*
X112838D01*
Y92859D02*
Y94040D01*
X101028Y82229D02*
Y83410D01*
Y82229D02*
X105752D01*
X111264D02*
X112838D01*
Y83410D01*
X3329Y184327D02*
X26929D01*
Y134527D02*
Y184327D01*
X3329Y134527D02*
X26929D01*
X3329D02*
Y184327D01*
X5793Y90941D02*
Y103931D01*
X46243Y108191D02*
X49243D01*
X47743Y106691D02*
Y109691D01*
X5793Y125441D02*
X40293D01*
X5793Y112451D02*
Y125441D01*
Y90941D02*
X40293D01*
Y103931D01*
Y112451D02*
Y125441D01*
X151393Y32491D02*
Y34031D01*
Y43351D02*
Y44891D01*
X174793D01*
Y32491D02*
Y34031D01*
X151393Y32491D02*
X174793D01*
X148893Y36191D02*
Y41191D01*
X145893Y38691D02*
X148893Y38191D01*
X145893Y38691D02*
X148893Y37691D01*
X145893Y38691D02*
X148893Y37191D01*
X145893Y38691D02*
X148893Y36691D01*
X145893Y38691D02*
X148893Y36191D01*
X145893Y38691D02*
X148893Y39191D01*
X145893Y38691D02*
X148893Y39691D01*
X145893Y38691D02*
X148893Y40191D01*
X145893Y38691D02*
X148893Y40691D01*
X145893Y38691D02*
X148893Y41191D01*
X145893Y36191D02*
Y41191D01*
X144893Y38691D02*
X149893D01*
X174793Y43351D02*
Y44891D01*
X57738Y80146D02*
Y81686D01*
Y69286D02*
Y70826D01*
X34338Y69286D02*
X57738D01*
X34338Y80146D02*
Y81686D01*
X57738D01*
X60238Y72986D02*
Y77986D01*
Y75986D02*
X63238Y75486D01*
X60238Y76486D02*
X63238Y75486D01*
X60238Y76986D02*
X63238Y75486D01*
X60238Y77486D02*
X63238Y75486D01*
X60238Y77986D02*
X63238Y75486D01*
X60238Y74986D02*
X63238Y75486D01*
X60238Y74486D02*
X63238Y75486D01*
X60238Y73986D02*
X63238Y75486D01*
X60238Y73486D02*
X63238Y75486D01*
X60238Y72986D02*
X63238Y75486D01*
Y72986D02*
Y77986D01*
X59238Y75486D02*
X64238D01*
X34338Y69286D02*
Y70826D01*
X97334Y63099D02*
Y59900D01*
X99467D01*
X102666Y63099D02*
X101600Y62566D01*
X100533Y61500D01*
Y60434D01*
X101066Y59900D01*
X102133D01*
X102666Y60434D01*
Y60967D01*
X102133Y61500D01*
X100533D01*
X211152Y194614D02*
X210086D01*
X210619D01*
Y191948D01*
X210086Y191415D01*
X209552D01*
X209019Y191948D01*
X214351Y191415D02*
X212218D01*
X214351Y193547D01*
Y194080D01*
X213818Y194614D01*
X212751D01*
X212218Y194080D01*
X111712Y46748D02*
Y43549D01*
X113312D01*
X113845Y44082D01*
Y46215D01*
X113312Y46748D01*
X111712D01*
X117044D02*
X115977Y46215D01*
X114911Y45149D01*
Y44082D01*
X115444Y43549D01*
X116510D01*
X117044Y44082D01*
Y44616D01*
X116510Y45149D01*
X114911D01*
X3919Y42367D02*
X3386Y41834D01*
Y40768D01*
X3919Y40235D01*
X6052D01*
X6585Y40768D01*
Y41834D01*
X6052Y42367D01*
X6585Y45033D02*
X3386D01*
X4985Y43434D01*
Y45566D01*
X3386Y46633D02*
Y48765D01*
X3919D01*
X6052Y46633D01*
X6585D01*
X153701Y193194D02*
X153167Y193728D01*
X152101D01*
X151568Y193194D01*
Y191062D01*
X152101Y190529D01*
X153167D01*
X153701Y191062D01*
X154767Y190529D02*
X155833D01*
X155300D01*
Y193728D01*
X154767Y193194D01*
X159565Y190529D02*
X157433D01*
X159565Y192661D01*
Y193194D01*
X159032Y193728D01*
X157966D01*
X157433Y193194D01*
X94866Y147198D02*
Y150397D01*
X96465D01*
X96999Y149864D01*
Y148798D01*
X96465Y148265D01*
X94866D01*
X95932D02*
X96999Y147198D01*
X98065Y149864D02*
X98598Y150397D01*
X99664D01*
X100198Y149864D01*
Y149331D01*
X99664Y148798D01*
X99131D01*
X99664D01*
X100198Y148265D01*
Y147731D01*
X99664Y147198D01*
X98598D01*
X98065Y147731D01*
X101264Y149864D02*
X101797Y150397D01*
X102863D01*
X103396Y149864D01*
Y147731D01*
X102863Y147198D01*
X101797D01*
X101264Y147731D01*
Y149864D01*
X95778Y168990D02*
Y172189D01*
X97377D01*
X97911Y171656D01*
Y170590D01*
X97377Y170056D01*
X95778D01*
X96844D02*
X97911Y168990D01*
X101110D02*
X98977D01*
X101110Y171123D01*
Y171656D01*
X100576Y172189D01*
X99510D01*
X98977Y171656D01*
X102176Y169523D02*
X102709Y168990D01*
X103775D01*
X104308Y169523D01*
Y171656D01*
X103775Y172189D01*
X102709D01*
X102176Y171656D01*
Y171123D01*
X102709Y170590D01*
X104308D01*
X89402Y124388D02*
X88869Y124921D01*
X87802D01*
X87269Y124388D01*
Y122255D01*
X87802Y121722D01*
X88869D01*
X89402Y122255D01*
X92068Y121722D02*
Y124921D01*
X90468Y123321D01*
X92601D01*
X95800Y124921D02*
X93667D01*
Y123321D01*
X94734Y123854D01*
X95267D01*
X95800Y123321D01*
Y122255D01*
X95267Y121722D01*
X94200D01*
X93667Y122255D01*
X37661Y131258D02*
X37127Y131791D01*
X36061D01*
X35528Y131258D01*
Y129125D01*
X36061Y128592D01*
X37127D01*
X37661Y129125D01*
X40326Y128592D02*
Y131791D01*
X38727Y130191D01*
X40859D01*
X43525Y128592D02*
Y131791D01*
X41926Y130191D01*
X44058D01*
X36097Y27360D02*
Y30559D01*
X37697D01*
X38230Y30026D01*
Y28960D01*
X37697Y28427D01*
X36097D01*
X37164D02*
X38230Y27360D01*
X39296D02*
X40363D01*
X39829D01*
Y30559D01*
X39296Y30026D01*
X41962Y30559D02*
X44095D01*
Y30026D01*
X41962Y27893D01*
Y27360D01*
X117704Y97567D02*
X117171Y98100D01*
X116104D01*
X115571Y97567D01*
Y95434D01*
X116104Y94901D01*
X117171D01*
X117704Y95434D01*
X118770Y97567D02*
X119303Y98100D01*
X120370D01*
X120903Y97567D01*
Y97034D01*
X120370Y96500D01*
X119837D01*
X120370D01*
X120903Y95967D01*
Y95434D01*
X120370Y94901D01*
X119303D01*
X118770Y95434D01*
X121969Y98100D02*
X124102D01*
Y97567D01*
X121969Y95434D01*
Y94901D01*
X166335Y188063D02*
X163136D01*
Y189663D01*
X163669Y190196D01*
X164736D01*
X165269Y189663D01*
Y188063D01*
Y189130D02*
X166335Y190196D01*
Y193395D02*
Y191262D01*
X164202Y193395D01*
X163669D01*
X163136Y192862D01*
Y191796D01*
X163669Y191262D01*
Y194461D02*
X163136Y194994D01*
Y196061D01*
X163669Y196594D01*
X164202D01*
X164736Y196061D01*
X165269Y196594D01*
X165802D01*
X166335Y196061D01*
Y194994D01*
X165802Y194461D01*
X165269D01*
X164736Y194994D01*
X164202Y194461D01*
X163669D01*
X164736Y194994D02*
Y196061D01*
X170523Y170566D02*
X167324D01*
Y172166D01*
X167857Y172699D01*
X168923D01*
X169456Y172166D01*
Y170566D01*
Y171633D02*
X170523Y172699D01*
Y175898D02*
Y173765D01*
X168390Y175898D01*
X167857D01*
X167324Y175365D01*
Y174299D01*
X167857Y173765D01*
X167324Y176964D02*
Y179097D01*
X167857D01*
X169990Y176964D01*
X170523D01*
X38183Y87218D02*
Y84019D01*
X39782D01*
X40315Y84552D01*
Y86685D01*
X39782Y87218D01*
X38183D01*
X41381Y86685D02*
X41915Y87218D01*
X42981D01*
X43514Y86685D01*
Y86152D01*
X42981Y85619D01*
X42448D01*
X42981D01*
X43514Y85085D01*
Y84552D01*
X42981Y84019D01*
X41915D01*
X41381Y84552D01*
X143227Y45816D02*
Y42617D01*
X144827D01*
X145360Y43150D01*
Y45283D01*
X144827Y45816D01*
X143227D01*
X148559Y42617D02*
X146426D01*
X148559Y44750D01*
Y45283D01*
X148026Y45816D01*
X146960D01*
X146426Y45283D01*
X5010Y192926D02*
X3944D01*
X4477D01*
Y190261D01*
X3944Y189727D01*
X3411D01*
X2877Y190261D01*
X6076Y192393D02*
X6610Y192926D01*
X7676D01*
X8209Y192393D01*
Y191860D01*
X7676Y191327D01*
X7143D01*
X7676D01*
X8209Y190794D01*
Y190261D01*
X7676Y189727D01*
X6610D01*
X6076Y190261D01*
X46580Y117633D02*
X46047Y118166D01*
X44981D01*
X44448Y117633D01*
Y115500D01*
X44981Y114967D01*
X46047D01*
X46580Y115500D01*
X49246Y114967D02*
Y118166D01*
X47647Y116566D01*
X49779D01*
X50846Y117633D02*
X51379Y118166D01*
X52445D01*
X52978Y117633D01*
Y115500D01*
X52445Y114967D01*
X51379D01*
X50846Y115500D01*
Y117633D01*
X34685Y55838D02*
Y53172D01*
X35218Y52639D01*
X36284D01*
X36817Y53172D01*
Y55838D01*
X40016D02*
X38950Y55305D01*
X37883Y54239D01*
Y53172D01*
X38417Y52639D01*
X39483D01*
X40016Y53172D01*
Y53706D01*
X39483Y54239D01*
X37883D01*
X183535Y90214D02*
Y93413D01*
X185134D01*
X185667Y92879D01*
Y91813D01*
X185134Y91280D01*
X183535D01*
X184601D02*
X185667Y90214D01*
X186733D02*
X187800D01*
X187267D01*
Y93413D01*
X186733Y92879D01*
X189399Y90214D02*
X190466D01*
X189932D01*
Y93413D01*
X189399Y92879D01*
X184467Y213254D02*
X183400D01*
X183934D01*
Y210588D01*
X183400Y210055D01*
X182867D01*
X182334Y210588D01*
X187133Y210055D02*
Y213254D01*
X185533Y211655D01*
X187666D01*
X211432Y98084D02*
Y94885D01*
X213032D01*
X213565Y95418D01*
Y97550D01*
X213032Y98084D01*
X211432D01*
X216764D02*
X214631D01*
Y96484D01*
X215697Y97017D01*
X216231D01*
X216764Y96484D01*
Y95418D01*
X216231Y94885D01*
X215164D01*
X214631Y95418D01*
X87020Y86380D02*
X86487Y86913D01*
X85421D01*
X84888Y86380D01*
Y84247D01*
X85421Y83714D01*
X86487D01*
X87020Y84247D01*
X88087Y86380D02*
X88620Y86913D01*
X89686D01*
X90219Y86380D01*
Y85847D01*
X89686Y85313D01*
X89153D01*
X89686D01*
X90219Y84780D01*
Y84247D01*
X89686Y83714D01*
X88620D01*
X88087Y84247D01*
X93418Y86913D02*
X91286D01*
Y85313D01*
X92352Y85847D01*
X92885D01*
X93418Y85313D01*
Y84247D01*
X92885Y83714D01*
X91819D01*
X91286Y84247D01*
X66155Y86204D02*
X65622Y86737D01*
X64555D01*
X64022Y86204D01*
Y84071D01*
X64555Y83538D01*
X65622D01*
X66155Y84071D01*
X68821Y83538D02*
Y86737D01*
X67221Y85138D01*
X69354D01*
X70420Y86204D02*
X70953Y86737D01*
X72019D01*
X72553Y86204D01*
Y85671D01*
X72019Y85138D01*
X71486D01*
X72019D01*
X72553Y84605D01*
Y84071D01*
X72019Y83538D01*
X70953D01*
X70420Y84071D01*
X76348Y86380D02*
X75814Y86913D01*
X74748D01*
X74215Y86380D01*
Y84247D01*
X74748Y83714D01*
X75814D01*
X76348Y84247D01*
X79013Y83714D02*
Y86913D01*
X77414Y85313D01*
X79547D01*
X82745Y83714D02*
X80613D01*
X82745Y85847D01*
Y86380D01*
X82212Y86913D01*
X81146D01*
X80613Y86380D01*
X104139Y76031D02*
Y73365D01*
X104672Y72832D01*
X105738D01*
X106271Y73365D01*
Y76031D01*
X107338Y75498D02*
X107871Y76031D01*
X108937D01*
X109470Y75498D01*
Y74964D01*
X108937Y74431D01*
X109470Y73898D01*
Y73365D01*
X108937Y72832D01*
X107871D01*
X107338Y73365D01*
Y73898D01*
X107871Y74431D01*
X107338Y74964D01*
Y75498D01*
X107871Y74431D02*
X108937D01*
X189834Y57473D02*
X191967Y54274D01*
Y57473D02*
X189834Y54274D01*
X193033Y56940D02*
X193566Y57473D01*
X194633D01*
X195166Y56940D01*
Y56407D01*
X194633Y55874D01*
X194099D01*
X194633D01*
X195166Y55341D01*
Y54808D01*
X194633Y54274D01*
X193566D01*
X193033Y54808D01*
X142027Y177897D02*
X144160Y174698D01*
Y177897D02*
X142027Y174698D01*
X147359D02*
X145226D01*
X147359Y176831D01*
Y177364D01*
X146826Y177897D01*
X145760D01*
X145226Y177364D01*
X69208Y176866D02*
Y174200D01*
X69741Y173667D01*
X70808D01*
X71341Y174200D01*
Y176866D01*
X72407Y174200D02*
X72940Y173667D01*
X74007D01*
X74540Y174200D01*
Y176332D01*
X74007Y176866D01*
X72940D01*
X72407Y176332D01*
Y175799D01*
X72940Y175266D01*
X74540D01*
X194705Y123131D02*
Y120465D01*
X195238Y119932D01*
X196304D01*
X196838Y120465D01*
Y123131D01*
X197904D02*
X200037D01*
Y122598D01*
X197904Y120465D01*
Y119932D01*
X127381Y92744D02*
Y90078D01*
X127915Y89545D01*
X128981D01*
X129514Y90078D01*
Y92744D01*
X132713D02*
X130580D01*
Y91144D01*
X131647Y91677D01*
X132180D01*
X132713Y91144D01*
Y90078D01*
X132180Y89545D01*
X131114D01*
X130580Y90078D01*
X133181Y20986D02*
Y18320D01*
X133714Y17787D01*
X134780D01*
X135313Y18320D01*
Y20986D01*
X137979Y17787D02*
Y20986D01*
X136380Y19386D01*
X138512D01*
X37407Y175689D02*
Y178888D01*
X39007D01*
X39540Y178355D01*
Y177289D01*
X39007Y176755D01*
X37407D01*
X38473D02*
X39540Y175689D01*
X42739D02*
X40606D01*
X42739Y177822D01*
Y178355D01*
X42206Y178888D01*
X41139D01*
X40606Y178355D01*
X45938Y178888D02*
X44871Y178355D01*
X43805Y177289D01*
Y176222D01*
X44338Y175689D01*
X45404D01*
X45938Y176222D01*
Y176755D01*
X45404Y177289D01*
X43805D01*
X60959Y122592D02*
Y125791D01*
X62559D01*
X63092Y125258D01*
Y124191D01*
X62559Y123658D01*
X60959D01*
X62025D02*
X63092Y122592D01*
X66291D02*
X64158D01*
X66291Y124724D01*
Y125258D01*
X65758Y125791D01*
X64691D01*
X64158Y125258D01*
X69490Y125791D02*
X67357D01*
Y124191D01*
X68423Y124724D01*
X68957D01*
X69490Y124191D01*
Y123125D01*
X68957Y122592D01*
X67890D01*
X67357Y123125D01*
X71278Y122548D02*
Y125747D01*
X72877D01*
X73411Y125214D01*
Y124148D01*
X72877Y123615D01*
X71278D01*
X72344D02*
X73411Y122548D01*
X76609D02*
X74477D01*
X76609Y124681D01*
Y125214D01*
X76076Y125747D01*
X75010D01*
X74477Y125214D01*
X79275Y122548D02*
Y125747D01*
X77676Y124148D01*
X79808D01*
X20870Y85310D02*
Y88509D01*
X22470D01*
X23003Y87976D01*
Y86909D01*
X22470Y86376D01*
X20870D01*
X21937D02*
X23003Y85310D01*
X26202D02*
X24069D01*
X26202Y87443D01*
Y87976D01*
X25669Y88509D01*
X24602D01*
X24069Y87976D01*
X27268Y85310D02*
X28334D01*
X27801D01*
Y88509D01*
X27268Y87976D01*
X45246Y88842D02*
Y92041D01*
X46846D01*
X47379Y91508D01*
Y90441D01*
X46846Y89908D01*
X45246D01*
X46313D02*
X47379Y88842D01*
X50578D02*
X48445D01*
X50578Y90974D01*
Y91508D01*
X50045Y92041D01*
X48979D01*
X48445Y91508D01*
X51644D02*
X52178Y92041D01*
X53244D01*
X53777Y91508D01*
Y89375D01*
X53244Y88842D01*
X52178D01*
X51644Y89375D01*
Y91508D01*
X11780Y31193D02*
Y34392D01*
X13380D01*
X13913Y33859D01*
Y32793D01*
X13380Y32260D01*
X11780D01*
X12846D02*
X13913Y31193D01*
X14979D02*
X16045D01*
X15512D01*
Y34392D01*
X14979Y33859D01*
X17645Y31727D02*
X18178Y31193D01*
X19244D01*
X19778Y31727D01*
Y33859D01*
X19244Y34392D01*
X18178D01*
X17645Y33859D01*
Y33326D01*
X18178Y32793D01*
X19778D01*
X17253Y49898D02*
Y53097D01*
X18852D01*
X19385Y52564D01*
Y51497D01*
X18852Y50964D01*
X17253D01*
X18319D02*
X19385Y49898D01*
X20451D02*
X21518D01*
X20985D01*
Y53097D01*
X20451Y52564D01*
X23117D02*
X23650Y53097D01*
X24717D01*
X25250Y52564D01*
Y52030D01*
X24717Y51497D01*
X25250Y50964D01*
Y50431D01*
X24717Y49898D01*
X23650D01*
X23117Y50431D01*
Y50964D01*
X23650Y51497D01*
X23117Y52030D01*
Y52564D01*
X23650Y51497D02*
X24717D01*
X119817Y14604D02*
Y17803D01*
X121416D01*
X121949Y17269D01*
Y16203D01*
X121416Y15670D01*
X119817D01*
X120883D02*
X121949Y14604D01*
X123015D02*
X124082D01*
X123549D01*
Y17803D01*
X123015Y17269D01*
X127814Y17803D02*
X126748Y17269D01*
X125681Y16203D01*
Y15137D01*
X126215Y14604D01*
X127281D01*
X127814Y15137D01*
Y15670D01*
X127281Y16203D01*
X125681D01*
X110320Y19049D02*
Y22248D01*
X111920D01*
X112453Y21714D01*
Y20648D01*
X111920Y20115D01*
X110320D01*
X111386D02*
X112453Y19049D01*
X113519D02*
X114585D01*
X114052D01*
Y22248D01*
X113519Y21714D01*
X118317Y22248D02*
X116185D01*
Y20648D01*
X117251Y21181D01*
X117784D01*
X118317Y20648D01*
Y19582D01*
X117784Y19049D01*
X116718D01*
X116185Y19582D01*
X149945Y77268D02*
Y80467D01*
X151544D01*
X152077Y79934D01*
Y78867D01*
X151544Y78334D01*
X149945D01*
X151011D02*
X152077Y77268D01*
X153144D02*
X154210D01*
X153677D01*
Y80467D01*
X153144Y79934D01*
X157409Y77268D02*
Y80467D01*
X155809Y78867D01*
X157942D01*
X143265Y17592D02*
Y20791D01*
X144864D01*
X145398Y20258D01*
Y19191D01*
X144864Y18658D01*
X143265D01*
X144331D02*
X145398Y17592D01*
X146464D02*
X147530D01*
X146997D01*
Y20791D01*
X146464Y20258D01*
X149130D02*
X149663Y20791D01*
X150729D01*
X151262Y20258D01*
Y19725D01*
X150729Y19191D01*
X150196D01*
X150729D01*
X151262Y18658D01*
Y18125D01*
X150729Y17592D01*
X149663D01*
X149130Y18125D01*
X76027Y108990D02*
Y112188D01*
X77627D01*
X78160Y111655D01*
Y110589D01*
X77627Y110056D01*
X76027D01*
X77094D02*
X78160Y108990D01*
X79226D02*
X80293D01*
X79759D01*
Y112188D01*
X79226Y111655D01*
X84025Y108990D02*
X81892D01*
X84025Y111122D01*
Y111655D01*
X83491Y112188D01*
X82425D01*
X81892Y111655D01*
X59400Y206600D02*
Y209799D01*
X61000D01*
X61533Y209266D01*
Y208200D01*
X61000Y207666D01*
X59400D01*
X62599Y206600D02*
X63665D01*
X63132D01*
Y209799D01*
X62599Y209266D01*
X120259Y54744D02*
X123458D01*
Y56876D01*
X120259Y60075D02*
Y57943D01*
X121858D01*
X121325Y59009D01*
Y59542D01*
X121858Y60075D01*
X122924D01*
X123458Y59542D01*
Y58476D01*
X122924Y57943D01*
X182505Y135166D02*
X181439D01*
X181972D01*
Y132500D01*
X181439Y131967D01*
X180906D01*
X180373Y132500D01*
X183572Y131967D02*
X184638D01*
X184105D01*
Y135166D01*
X183572Y134632D01*
X8834Y88509D02*
Y85310D01*
X10434D01*
X10967Y85843D01*
Y87976D01*
X10434Y88509D01*
X8834D01*
X13633Y85310D02*
Y88509D01*
X12033Y86909D01*
X14166D01*
X43420Y141707D02*
X42887Y142240D01*
X41820D01*
X41287Y141707D01*
Y139574D01*
X41820Y139041D01*
X42887D01*
X43420Y139574D01*
X46086Y139041D02*
Y142240D01*
X44486Y140641D01*
X46619D01*
X47685Y139041D02*
X48752D01*
X48218D01*
Y142240D01*
X47685Y141707D01*
X38848Y162715D02*
X38315Y163248D01*
X37248D01*
X36715Y162715D01*
Y160582D01*
X37248Y160049D01*
X38315D01*
X38848Y160582D01*
X39914Y162715D02*
X40447Y163248D01*
X41514D01*
X42047Y162715D01*
Y162182D01*
X41514Y161648D01*
X40980D01*
X41514D01*
X42047Y161115D01*
Y160582D01*
X41514Y160049D01*
X40447D01*
X39914Y160582D01*
X43113D02*
X43646Y160049D01*
X44713D01*
X45246Y160582D01*
Y162715D01*
X44713Y163248D01*
X43646D01*
X43113Y162715D01*
Y162182D01*
X43646Y161648D01*
X45246D01*
X50933Y179466D02*
X50400Y179999D01*
X49333D01*
X48800Y179466D01*
Y177333D01*
X49333Y176800D01*
X50400D01*
X50933Y177333D01*
X51999Y179466D02*
X52532Y179999D01*
X53598D01*
X54132Y179466D01*
Y178933D01*
X53598Y178400D01*
X53065D01*
X53598D01*
X54132Y177866D01*
Y177333D01*
X53598Y176800D01*
X52532D01*
X51999Y177333D01*
X55198Y179466D02*
X55731Y179999D01*
X56797D01*
X57331Y179466D01*
Y178933D01*
X56797Y178400D01*
X57331Y177866D01*
Y177333D01*
X56797Y176800D01*
X55731D01*
X55198Y177333D01*
Y177866D01*
X55731Y178400D01*
X55198Y178933D01*
Y179466D01*
X55731Y178400D02*
X56797D01*
X99911Y106258D02*
X99377Y106791D01*
X98311D01*
X97778Y106258D01*
Y104125D01*
X98311Y103592D01*
X99377D01*
X99911Y104125D01*
X100977Y106258D02*
X101510Y106791D01*
X102576D01*
X103110Y106258D01*
Y105725D01*
X102576Y105191D01*
X102043D01*
X102576D01*
X103110Y104658D01*
Y104125D01*
X102576Y103592D01*
X101510D01*
X100977Y104125D01*
X106308Y106791D02*
X105242Y106258D01*
X104176Y105191D01*
Y104125D01*
X104709Y103592D01*
X105775D01*
X106308Y104125D01*
Y104658D01*
X105775Y105191D01*
X104176D01*
X37963Y64437D02*
X37430Y64970D01*
X36364D01*
X35831Y64437D01*
Y62304D01*
X36364Y61771D01*
X37430D01*
X37963Y62304D01*
X39030Y64437D02*
X39563Y64970D01*
X40629D01*
X41162Y64437D01*
Y63904D01*
X40629Y63371D01*
X40096D01*
X40629D01*
X41162Y62837D01*
Y62304D01*
X40629Y61771D01*
X39563D01*
X39030Y62304D01*
X43828Y61771D02*
Y64970D01*
X42229Y63371D01*
X44361D01*
X191234Y101059D02*
X190700Y100526D01*
Y99459D01*
X191234Y98926D01*
X193366D01*
X193900Y99459D01*
Y100526D01*
X193366Y101059D01*
X191234Y102125D02*
X190700Y102658D01*
Y103725D01*
X191234Y104258D01*
X191767D01*
X192300Y103725D01*
Y103191D01*
Y103725D01*
X192833Y104258D01*
X193366D01*
X193900Y103725D01*
Y102658D01*
X193366Y102125D01*
X191234Y105324D02*
X190700Y105857D01*
Y106923D01*
X191234Y107457D01*
X191767D01*
X192300Y106923D01*
Y106390D01*
Y106923D01*
X192833Y107457D01*
X193366D01*
X193900Y106923D01*
Y105857D01*
X193366Y105324D01*
X216034Y116033D02*
X215500Y116566D01*
X214434D01*
X213901Y116033D01*
Y113900D01*
X214434Y113367D01*
X215500D01*
X216034Y113900D01*
X217100Y116033D02*
X217633Y116566D01*
X218700D01*
X219233Y116033D01*
Y115500D01*
X218700Y114967D01*
X218166D01*
X218700D01*
X219233Y114434D01*
Y113900D01*
X218700Y113367D01*
X217633D01*
X217100Y113900D01*
X222432Y113367D02*
X220299D01*
X222432Y115500D01*
Y116033D01*
X221898Y116566D01*
X220832D01*
X220299Y116033D01*
X3919Y52449D02*
X3386Y51916D01*
Y50849D01*
X3919Y50316D01*
X6052D01*
X6585Y50849D01*
Y51916D01*
X6052Y52449D01*
X3919Y53515D02*
X3386Y54048D01*
Y55115D01*
X3919Y55648D01*
X4452D01*
X4985Y55115D01*
Y54581D01*
Y55115D01*
X5518Y55648D01*
X6052D01*
X6585Y55115D01*
Y54048D01*
X6052Y53515D01*
X6585Y56714D02*
Y57780D01*
Y57247D01*
X3386D01*
X3919Y56714D01*
X12350Y58197D02*
X11817Y57663D01*
Y56597D01*
X12350Y56064D01*
X14483D01*
X15016Y56597D01*
Y57663D01*
X14483Y58197D01*
X12350Y59263D02*
X11817Y59796D01*
Y60862D01*
X12350Y61396D01*
X12883D01*
X13417Y60862D01*
Y60329D01*
Y60862D01*
X13950Y61396D01*
X14483D01*
X15016Y60862D01*
Y59796D01*
X14483Y59263D01*
X12350Y62462D02*
X11817Y62995D01*
Y64061D01*
X12350Y64595D01*
X14483D01*
X15016Y64061D01*
Y62995D01*
X14483Y62462D01*
X12350D01*
X173411Y84758D02*
X172877Y85291D01*
X171811D01*
X171278Y84758D01*
Y82625D01*
X171811Y82092D01*
X172877D01*
X173411Y82625D01*
X176610Y82092D02*
X174477D01*
X176610Y84224D01*
Y84758D01*
X176076Y85291D01*
X175010D01*
X174477Y84758D01*
X177676D02*
X178209Y85291D01*
X179275D01*
X179808Y84758D01*
Y84224D01*
X179275Y83691D01*
X179808Y83158D01*
Y82625D01*
X179275Y82092D01*
X178209D01*
X177676Y82625D01*
Y83158D01*
X178209Y83691D01*
X177676Y84224D01*
Y84758D01*
X178209Y83691D02*
X179275D01*
X152312Y69895D02*
X151779Y70429D01*
X150713D01*
X150180Y69895D01*
Y67763D01*
X150713Y67230D01*
X151779D01*
X152312Y67763D01*
X155511Y67230D02*
X153378D01*
X155511Y69362D01*
Y69895D01*
X154978Y70429D01*
X153912D01*
X153378Y69895D01*
X156577Y70429D02*
X158710D01*
Y69895D01*
X156577Y67763D01*
Y67230D01*
X168411Y52369D02*
X167877Y52902D01*
X166811D01*
X166278Y52369D01*
Y50236D01*
X166811Y49703D01*
X167877D01*
X168411Y50236D01*
X171609Y49703D02*
X169477D01*
X171609Y51836D01*
Y52369D01*
X171076Y52902D01*
X170010D01*
X169477Y52369D01*
X174809Y52902D02*
X173742Y52369D01*
X172676Y51302D01*
Y50236D01*
X173209Y49703D01*
X174275D01*
X174809Y50236D01*
Y50769D01*
X174275Y51302D01*
X172676D01*
X152312Y62519D02*
X151779Y63052D01*
X150713D01*
X150180Y62519D01*
Y60386D01*
X150713Y59853D01*
X151779D01*
X152312Y60386D01*
X155511Y59853D02*
X153378D01*
X155511Y61986D01*
Y62519D01*
X154978Y63052D01*
X153912D01*
X153378Y62519D01*
X158710Y63052D02*
X156577D01*
Y61453D01*
X157644Y61986D01*
X158177D01*
X158710Y61453D01*
Y60386D01*
X158177Y59853D01*
X157111D01*
X156577Y60386D01*
X128220Y104801D02*
X127687Y105334D01*
X126621D01*
X126088Y104801D01*
Y102668D01*
X126621Y102135D01*
X127687D01*
X128220Y102668D01*
X131419Y102135D02*
X129287D01*
X131419Y104268D01*
Y104801D01*
X130886Y105334D01*
X129820D01*
X129287Y104801D01*
X134085Y102135D02*
Y105334D01*
X132486Y103735D01*
X134618D01*
X172911Y76899D02*
X172377Y77433D01*
X171311D01*
X170778Y76899D01*
Y74767D01*
X171311Y74234D01*
X172377D01*
X172911Y74767D01*
X176110Y74234D02*
X173977D01*
X176110Y76366D01*
Y76899D01*
X175576Y77433D01*
X174510D01*
X173977Y76899D01*
X177176D02*
X177709Y77433D01*
X178775D01*
X179308Y76899D01*
Y76366D01*
X178775Y75833D01*
X178242D01*
X178775D01*
X179308Y75300D01*
Y74767D01*
X178775Y74234D01*
X177709D01*
X177176Y74767D01*
X132533Y42758D02*
X132000Y43291D01*
X130933D01*
X130400Y42758D01*
Y40625D01*
X130933Y40092D01*
X132000D01*
X132533Y40625D01*
X135732Y40092D02*
X133599D01*
X135732Y42224D01*
Y42758D01*
X135198Y43291D01*
X134132D01*
X133599Y42758D01*
X138931Y40092D02*
X136798D01*
X138931Y42224D01*
Y42758D01*
X138397Y43291D01*
X137331D01*
X136798Y42758D01*
X159400Y14566D02*
X158867Y15100D01*
X157801D01*
X157268Y14566D01*
Y12434D01*
X157801Y11901D01*
X158867D01*
X159400Y12434D01*
X162600Y11901D02*
X160467D01*
X162600Y14033D01*
Y14566D01*
X162066Y15100D01*
X161000D01*
X160467Y14566D01*
X163666Y11901D02*
X164732D01*
X164199D01*
Y15100D01*
X163666Y14566D01*
X160915Y169742D02*
X160382Y170275D01*
X159316D01*
X158782Y169742D01*
Y167609D01*
X159316Y167076D01*
X160382D01*
X160915Y167609D01*
X161981Y167076D02*
X163048D01*
X162515D01*
Y170275D01*
X161981Y169742D01*
X164647Y167076D02*
X165714D01*
X165180D01*
Y170275D01*
X164647Y169742D01*
X165845Y160651D02*
X165312Y161185D01*
X164245D01*
X163712Y160651D01*
Y158519D01*
X164245Y157986D01*
X165312D01*
X165845Y158519D01*
X166911D02*
X167444Y157986D01*
X168510D01*
X169044Y158519D01*
Y160651D01*
X168510Y161185D01*
X167444D01*
X166911Y160651D01*
Y160118D01*
X167444Y159585D01*
X169044D01*
X165664Y165242D02*
X165130Y165775D01*
X164064D01*
X163531Y165242D01*
Y163109D01*
X164064Y162576D01*
X165130D01*
X165664Y163109D01*
X168863Y165775D02*
X166730D01*
Y164176D01*
X167796Y164709D01*
X168329D01*
X168863Y164176D01*
Y163109D01*
X168329Y162576D01*
X167263D01*
X166730Y163109D01*
D17*
X185815Y36189D02*
Y75559D01*
X224004D01*
X185815Y36189D02*
X224004D01*
Y75559D01*
X180368Y61808D02*
X179701Y61142D01*
Y59809D01*
X180368Y59143D01*
X183034D01*
X183700Y59809D01*
Y61142D01*
X183034Y61808D01*
X181701D01*
Y60475D01*
X183700Y63141D02*
X179701D01*
X183700Y65807D01*
X179701D01*
Y67140D02*
X183700D01*
Y69139D01*
X183034Y69806D01*
X180368D01*
X179701Y69139D01*
Y67140D01*
Y40800D02*
Y43466D01*
X180368D01*
X183034Y40800D01*
X183700D01*
X179701Y44799D02*
X182367D01*
X183700Y46132D01*
X182367Y47464D01*
X179701D01*
X183700Y50797D02*
X179701D01*
X181701Y48797D01*
Y51463D01*
D18*
X197999Y85498D02*
X194000D01*
Y82499D01*
X195999Y83499D01*
X196999D01*
X197999Y82499D01*
Y80500D01*
X196999Y79500D01*
X195000D01*
X194000Y80500D01*
X199998Y85498D02*
Y81499D01*
X201997Y79500D01*
X203997Y81499D01*
Y85498D01*
X205996Y84498D02*
X206996Y85498D01*
X208995D01*
X209995Y84498D01*
Y80500D01*
X208995Y79500D01*
X206996D01*
X205996Y80500D01*
Y84498D01*
X76652Y100836D02*
X77652Y101836D01*
X79651D01*
X80651Y100836D01*
Y99836D01*
X79651Y98836D01*
X78652D01*
X79651D01*
X80651Y97837D01*
Y96837D01*
X79651Y95837D01*
X77652D01*
X76652Y96837D01*
X82650Y101836D02*
Y97837D01*
X84650Y95837D01*
X86649Y97837D01*
Y101836D01*
X88648Y100836D02*
X89648Y101836D01*
X91647D01*
X92647Y100836D01*
Y99836D01*
X91647Y98836D01*
X90648D01*
X91647D01*
X92647Y97837D01*
Y96837D01*
X91647Y95837D01*
X89648D01*
X88648Y96837D01*
X7500Y70500D02*
X9499D01*
X8500D01*
Y76498D01*
X7500Y75498D01*
X16497Y70500D02*
X12498D01*
X16497Y74499D01*
Y75498D01*
X15497Y76498D01*
X13498D01*
X12498Y75498D01*
X18496Y76498D02*
Y72499D01*
X20496Y70500D01*
X22495Y72499D01*
Y76498D01*
X24495Y75498D02*
X25494Y76498D01*
X27494D01*
X28493Y75498D01*
Y71500D01*
X27494Y70500D01*
X25494D01*
X24495Y71500D01*
Y75498D01*
D19*
X0Y0D02*
Y225000D01*
X225000D01*
Y0D02*
Y225000D01*
X0Y0D02*
X225000D01*
M02*
