G04*
G04 #@! TF.GenerationSoftware,Altium Limited,Altium Designer,21.0.8 (223)*
G04*
G04 Layer_Physical_Order=4*
G04 Layer_Color=16711680*
%FSLAX25Y25*%
%MOIN*%
G70*
G04*
G04 #@! TF.SameCoordinates,5411D855-6831-4FB7-8657-0D58C5C57482*
G04*
G04*
G04 #@! TF.FilePolarity,Positive*
G04*
G01*
G75*
%ADD12C,0.00500*%
%ADD18C,0.01000*%
%ADD19C,0.04724*%
%ADD21R,0.03150X0.03543*%
%ADD23R,0.02362X0.01968*%
%ADD24R,0.05512X0.05906*%
%ADD26R,0.01968X0.02362*%
%ADD27R,0.03543X0.03150*%
%ADD45C,0.04000*%
%ADD47C,0.03000*%
%ADD49C,0.05900*%
%ADD50C,0.11200*%
%ADD51C,0.10039*%
%ADD52C,0.05906*%
%ADD53R,0.05906X0.05906*%
%ADD54C,0.05500*%
%ADD55C,0.03000*%
%ADD56C,0.05000*%
%ADD57C,0.01800*%
%ADD58C,0.01968*%
%ADD74O,0.00787X0.03740*%
%ADD75O,0.03740X0.00787*%
%ADD76R,0.18110X0.18110*%
%ADD77R,0.07087X0.03937*%
%ADD78R,0.06299X0.03150*%
%ADD79R,0.12598X0.04747*%
%ADD80R,0.08661X0.04134*%
%ADD81R,0.04134X0.03937*%
G04:AMPARAMS|DCode=82|XSize=51.18mil|YSize=23.62mil|CornerRadius=2.01mil|HoleSize=0mil|Usage=FLASHONLY|Rotation=0.000|XOffset=0mil|YOffset=0mil|HoleType=Round|Shape=RoundedRectangle|*
%AMROUNDEDRECTD82*
21,1,0.05118,0.01961,0,0,0.0*
21,1,0.04717,0.02362,0,0,0.0*
1,1,0.00402,0.02358,-0.00980*
1,1,0.00402,-0.02358,-0.00980*
1,1,0.00402,-0.02358,0.00980*
1,1,0.00402,0.02358,0.00980*
%
%ADD82ROUNDEDRECTD82*%
%ADD83R,0.06693X0.04331*%
%ADD84R,0.02264X0.01378*%
%ADD85R,0.01378X0.02264*%
%ADD86C,0.00578*%
%ADD87C,0.05000*%
G36*
X120847Y169260D02*
X120993Y168772D01*
X120564Y168343D01*
X120275Y167644D01*
Y166888D01*
X120564Y166190D01*
X121098Y165656D01*
X121797Y165366D01*
X122553D01*
X123251Y165656D01*
X123368Y165772D01*
X124349Y164791D01*
X124142Y164291D01*
X120794D01*
X119668Y165417D01*
Y165857D01*
X119379Y166556D01*
X118844Y167090D01*
X118146Y167379D01*
X117390D01*
X116692Y167090D01*
X116157Y166556D01*
X115868Y165857D01*
Y165102D01*
X116157Y164403D01*
X116692Y163869D01*
X117390Y163579D01*
X117901D01*
X119365Y162115D01*
X119778Y161839D01*
X120266Y161742D01*
X124134D01*
Y160740D01*
X124084Y160308D01*
X123652Y160258D01*
X121126D01*
X120582Y160150D01*
X120525Y160111D01*
X118750D01*
X114607Y164254D01*
Y164730D01*
X114318Y165428D01*
X113784Y165963D01*
X113476Y166090D01*
X113359Y166680D01*
X115951Y169272D01*
X120840D01*
X120847Y169260D01*
D02*
G37*
G36*
X165772Y146691D02*
X168543D01*
Y145691D01*
X165726D01*
X165310Y145519D01*
X165263Y145565D01*
X164850Y145841D01*
X164362Y145938D01*
X148975D01*
X148728Y146239D01*
X148620Y146782D01*
X148457Y147026D01*
X148620Y147270D01*
X148728Y147813D01*
X149036Y148188D01*
X165772D01*
Y146691D01*
D02*
G37*
G36*
X103411Y138187D02*
X103558Y137696D01*
X103130Y137268D01*
X102891Y136691D01*
X104741D01*
Y136191D01*
X105241D01*
Y134342D01*
X105817Y134581D01*
X105898Y134662D01*
X106712D01*
Y133420D01*
X108787D01*
Y136191D01*
X109787D01*
Y133420D01*
X111724D01*
X111862Y133420D01*
X112224D01*
X112362Y133420D01*
X117374D01*
Y134820D01*
X117874Y135002D01*
X118081Y134795D01*
X118780Y134506D01*
X118990D01*
X119197Y134006D01*
X117581Y132390D01*
X97449D01*
X92436Y137404D01*
X92022Y137680D01*
X91941Y137696D01*
X91990Y138196D01*
X103405D01*
X103411Y138187D01*
D02*
G37*
G36*
X20440Y205480D02*
X20647Y204980D01*
X19873Y204207D01*
X19151Y203126D01*
X18654Y201925D01*
X18400Y200650D01*
Y199350D01*
X18654Y198075D01*
X19151Y196874D01*
X19873Y195793D01*
X20793Y194873D01*
X21874Y194151D01*
X23075Y193654D01*
X24350Y193400D01*
X25650D01*
X26925Y193654D01*
X28126Y194151D01*
X29207Y194873D01*
X30127Y195793D01*
X30849Y196874D01*
X31346Y198075D01*
X31600Y199350D01*
Y200650D01*
X31346Y201925D01*
X30849Y203126D01*
X30127Y204207D01*
X29353Y204980D01*
X29560Y205480D01*
X121885Y205480D01*
Y204601D01*
X124066D01*
Y203601D01*
X121885D01*
Y202117D01*
X122949D01*
Y199573D01*
X122652Y199277D01*
X122414Y198700D01*
X126112D01*
X125874Y199277D01*
X125577Y199573D01*
Y202117D01*
X130184D01*
Y202787D01*
X130963D01*
Y199816D01*
Y195879D01*
X131632D01*
Y194678D01*
X130657D01*
Y194678D01*
X130381Y194481D01*
X125577D01*
Y196828D01*
X125874Y197124D01*
X126112Y197701D01*
X122414D01*
X122652Y197124D01*
X122949Y196828D01*
Y194481D01*
X122082D01*
Y192997D01*
X124263D01*
Y192497D01*
X124763D01*
Y190513D01*
X130381D01*
X130657Y190127D01*
Y186379D01*
X131042D01*
Y185278D01*
X130372D01*
Y180916D01*
Y176979D01*
X129939Y176816D01*
X129673D01*
Y172847D01*
X132115D01*
Y168962D01*
X131653Y168771D01*
X107712Y192712D01*
Y197713D01*
X107927Y197837D01*
X108663Y198573D01*
X109183Y199474D01*
X109453Y200480D01*
Y201520D01*
X109183Y202526D01*
X108663Y203427D01*
X107927Y204163D01*
X107026Y204683D01*
X106020Y204953D01*
X104980D01*
X103974Y204683D01*
X103073Y204163D01*
X102337Y203427D01*
X101817Y202526D01*
X101547Y201520D01*
Y200480D01*
X101817Y199474D01*
X102337Y198573D01*
X103073Y197837D01*
X103974Y197317D01*
X104980Y197047D01*
X105163D01*
Y193793D01*
X104701Y193602D01*
X99053Y199249D01*
X99183Y199474D01*
X99453Y200480D01*
Y201520D01*
X99183Y202526D01*
X98663Y203427D01*
X97927Y204163D01*
X97026Y204683D01*
X96020Y204953D01*
X94980D01*
X93974Y204683D01*
X93073Y204163D01*
X92337Y203427D01*
X91817Y202526D01*
X91547Y201520D01*
Y200480D01*
X91817Y199474D01*
X92337Y198573D01*
X93073Y197837D01*
X93974Y197317D01*
X94980Y197047D01*
X96020D01*
X97026Y197317D01*
X97251Y197447D01*
X122415Y172283D01*
X122224Y171821D01*
X115423D01*
X114935Y171724D01*
X114522Y171447D01*
X111477Y168403D01*
X109632D01*
X109354Y168819D01*
X109388Y168901D01*
Y169656D01*
X109099Y170355D01*
X108564Y170889D01*
X107866Y171178D01*
X107390D01*
X103730Y174839D01*
Y175278D01*
X103440Y175977D01*
X102906Y176511D01*
X102208Y176801D01*
X101452D01*
X100753Y176511D01*
X100219Y175977D01*
X99930Y175278D01*
Y174523D01*
X100219Y173824D01*
X100753Y173290D01*
X101452Y173001D01*
X101963D01*
X105588Y169376D01*
Y168901D01*
X105622Y168819D01*
X105344Y168403D01*
X97759D01*
X97423Y168739D01*
X96725Y169028D01*
X95969D01*
X95270Y168739D01*
X94736Y168205D01*
X94447Y167506D01*
Y166751D01*
X94705Y166126D01*
X94508Y165626D01*
X86308D01*
X86165Y165972D01*
X85631Y166507D01*
X84932Y166796D01*
X84176D01*
X83478Y166507D01*
X82944Y165972D01*
X82654Y165274D01*
Y164518D01*
X82944Y163820D01*
X83478Y163285D01*
X84176Y162996D01*
X84370D01*
X84648Y162580D01*
X84643Y162569D01*
Y161813D01*
X84542Y161662D01*
X84176D01*
X83478Y161373D01*
X82944Y160838D01*
X82654Y160140D01*
Y159384D01*
X82944Y158686D01*
X83478Y158151D01*
X84176Y157862D01*
X84932D01*
X85631Y158151D01*
X85967Y158488D01*
X98990D01*
X101377Y156101D01*
X101186Y155639D01*
X89097D01*
X88761Y155975D01*
X88062Y156265D01*
X87306D01*
X86608Y155975D01*
X86073Y155441D01*
X85784Y154743D01*
Y154124D01*
X85776Y153980D01*
X85377Y153662D01*
X85003D01*
X84305Y153373D01*
X83770Y152839D01*
X83481Y152140D01*
Y151384D01*
X83770Y150686D01*
X84305Y150152D01*
X85003Y149862D01*
X85439D01*
X85587Y149640D01*
Y149124D01*
X85507Y148845D01*
X85138Y148662D01*
X84698D01*
X84000Y148373D01*
X83466Y147838D01*
X83176Y147140D01*
Y146384D01*
X83466Y145686D01*
X84000Y145151D01*
X84698Y144862D01*
X85454D01*
X86153Y145151D01*
X86489Y145488D01*
X103505D01*
X103656Y145337D01*
X104069Y145061D01*
X104537Y144968D01*
X104663Y144783D01*
X104779Y144502D01*
X103361Y143084D01*
X98583D01*
X98436Y143231D01*
X97737Y143520D01*
X96982D01*
X96283Y143231D01*
X95749Y142697D01*
X95460Y141999D01*
Y141243D01*
X95494Y141161D01*
X95216Y140745D01*
X90459D01*
X90123Y141081D01*
X89424Y141370D01*
X88669D01*
X87970Y141081D01*
X87436Y140547D01*
X87146Y139848D01*
Y139093D01*
X87266Y138804D01*
X87156Y138641D01*
X86907Y138365D01*
X86299Y138113D01*
X85764Y137579D01*
X85475Y136880D01*
Y136125D01*
X85764Y135426D01*
X86299Y134892D01*
X86997Y134602D01*
X87753D01*
X88451Y134892D01*
X88788Y135228D01*
X91007D01*
X96020Y130215D01*
X96433Y129938D01*
X96921Y129841D01*
X118109D01*
X118597Y129938D01*
X119011Y130215D01*
X124746Y135950D01*
X125011Y135772D01*
X125555Y135664D01*
X125855Y135418D01*
Y131644D01*
X120174Y125962D01*
X119897Y125549D01*
X119871Y125416D01*
X119386D01*
Y124333D01*
X116335D01*
Y119201D01*
X115835Y118993D01*
X115072Y119756D01*
X114658Y120032D01*
X114171Y120129D01*
X113684D01*
Y121430D01*
X112245D01*
Y122199D01*
X112326Y122281D01*
X112616Y122979D01*
Y123735D01*
X112326Y124433D01*
X111792Y124968D01*
X111093Y125257D01*
X110338D01*
X109639Y124968D01*
X109105Y124433D01*
X108816Y123735D01*
Y122979D01*
X109105Y122281D01*
X109186Y122199D01*
Y121430D01*
X108141D01*
Y116280D01*
X108141Y116280D01*
Y115918D01*
X108141D01*
X108141Y115780D01*
Y113843D01*
X110912D01*
Y112843D01*
X108141D01*
Y110768D01*
X109580D01*
Y110190D01*
X109696Y109605D01*
X110028Y109109D01*
X110319Y108818D01*
X110279Y108618D01*
X110395Y108033D01*
X110727Y107537D01*
X111125Y107272D01*
X111172Y107224D01*
X111748Y106986D01*
Y108835D01*
X112748D01*
Y106986D01*
X112998Y107089D01*
X114957D01*
Y105847D01*
X117816D01*
X118007Y105385D01*
X113401Y100779D01*
X112522D01*
X112186Y101115D01*
X111487Y101404D01*
X110731D01*
X110033Y101115D01*
X109499Y100580D01*
X109209Y99882D01*
Y99126D01*
X109499Y98428D01*
X110033Y97893D01*
X110731Y97604D01*
X111487D01*
X112186Y97893D01*
X112522Y98230D01*
X113929D01*
X114417Y98327D01*
X114830Y98603D01*
X122074Y105847D01*
X125618D01*
Y107811D01*
X126527D01*
X126609Y107730D01*
X127307Y107441D01*
X128063D01*
X128761Y107730D01*
X129296Y108265D01*
X129585Y108963D01*
Y109719D01*
X129296Y110417D01*
X128761Y110951D01*
X128063Y111241D01*
X127307D01*
X126609Y110951D01*
X126527Y110870D01*
X125618D01*
Y111390D01*
X124975D01*
X124784Y111852D01*
X125913Y112981D01*
X126189Y113395D01*
X126286Y113882D01*
Y113967D01*
X126701D01*
Y115050D01*
X129752D01*
Y118428D01*
X127620D01*
Y119207D01*
X129752D01*
Y120176D01*
X127620D01*
Y120955D01*
X129752D01*
Y122531D01*
X131693Y124471D01*
X132155Y124280D01*
Y104712D01*
X123491Y96048D01*
X123015D01*
X122317Y95758D01*
X121782Y95224D01*
X121493Y94526D01*
Y93770D01*
X121782Y93072D01*
X122317Y92537D01*
X123015Y92248D01*
X123771D01*
X124469Y92537D01*
X125004Y93072D01*
X125293Y93770D01*
Y94245D01*
X133267Y102220D01*
X133729Y102029D01*
Y94064D01*
X133229Y93856D01*
X133174Y93912D01*
X132475Y94202D01*
X131719D01*
X131021Y93912D01*
X130487Y93378D01*
X130197Y92680D01*
Y91924D01*
X130487Y91225D01*
X131021Y90691D01*
X131719Y90402D01*
X132475D01*
X133174Y90691D01*
X133229Y90747D01*
X133729Y90540D01*
Y77121D01*
X133826Y76633D01*
X134103Y76219D01*
X135600Y74722D01*
Y74247D01*
X135889Y73548D01*
X136424Y73014D01*
X137122Y72724D01*
X137878D01*
X138576Y73014D01*
X139111Y73548D01*
X139400Y74247D01*
Y75002D01*
X139111Y75701D01*
X138576Y76235D01*
X137878Y76525D01*
X137402D01*
X136278Y77649D01*
Y91440D01*
X136740Y91631D01*
X137221Y91150D01*
X137516Y90953D01*
Y88939D01*
Y85002D01*
X139682D01*
X141467Y83217D01*
X141881Y82941D01*
X142369Y82844D01*
X143376D01*
Y82407D01*
X143469Y81939D01*
X143734Y81542D01*
X144132Y81276D01*
X144600Y81183D01*
X148974D01*
X149309Y80683D01*
X149243Y80524D01*
X150592D01*
Y82285D01*
X150566Y82311D01*
X150537Y82386D01*
X150541Y82407D01*
Y84368D01*
X150448Y84837D01*
X150182Y85234D01*
X149785Y85499D01*
X149317Y85592D01*
X144600D01*
X144132Y85499D01*
X143972Y85392D01*
X142897D01*
X141484Y86805D01*
Y89846D01*
X144187D01*
Y88740D01*
X149336D01*
Y88740D01*
X149699D01*
Y88740D01*
X151773D01*
Y91512D01*
Y94284D01*
X149699D01*
Y94284D01*
X149336D01*
Y94284D01*
X144187D01*
Y92395D01*
X141484D01*
Y93302D01*
X138889D01*
X138766Y93326D01*
X138650D01*
X137853Y94123D01*
Y105477D01*
X138315Y105668D01*
X141693Y102290D01*
X142107Y102014D01*
X142594Y101917D01*
X155559D01*
Y99754D01*
X157543D01*
X159528D01*
Y101917D01*
X176212D01*
X176700Y102014D01*
X177113Y102290D01*
X179887Y105064D01*
X180506Y104898D01*
X181494D01*
X182448Y105154D01*
X183302Y105648D01*
X184001Y106346D01*
X184494Y107201D01*
X184750Y108155D01*
Y109142D01*
X184494Y110096D01*
X184001Y110951D01*
X183302Y111649D01*
X182448Y112143D01*
X181494Y112398D01*
X180506D01*
X179552Y112143D01*
X178698Y111649D01*
X177999Y110951D01*
X177506Y110096D01*
X177250Y109142D01*
Y108155D01*
X177506Y107201D01*
X177840Y106622D01*
X175684Y104466D01*
X159528D01*
Y105373D01*
X155559D01*
Y104466D01*
X143122D01*
X139428Y108160D01*
Y116674D01*
X139890Y116865D01*
X142465Y114290D01*
X142465Y114290D01*
X143827Y112928D01*
Y108794D01*
X152913D01*
Y110488D01*
X153555D01*
Y109778D01*
X159173D01*
Y111762D01*
Y113746D01*
X153555D01*
Y113037D01*
X152913D01*
Y114731D01*
X145629D01*
X144268Y116092D01*
X144268Y116092D01*
X141003Y119357D01*
Y124942D01*
X141465Y125133D01*
X143827Y122771D01*
Y118636D01*
X152913D01*
Y120330D01*
X153657D01*
Y119620D01*
X159275D01*
Y121605D01*
Y123589D01*
X153657D01*
Y122879D01*
X152913D01*
Y124291D01*
X153120Y124376D01*
X153654Y124910D01*
X153893Y125487D01*
X152043D01*
Y126487D01*
X153893D01*
X153752Y126825D01*
X154045Y127325D01*
X158610D01*
Y127325D01*
X158972D01*
Y127325D01*
X162228D01*
Y131278D01*
X163228D01*
Y127325D01*
X166484D01*
Y130003D01*
X167794D01*
X167942Y129646D01*
X168477Y129112D01*
X169053Y128873D01*
Y130723D01*
Y132572D01*
X168889Y132504D01*
X168646Y132553D01*
X166484D01*
Y135002D01*
X173016D01*
Y134350D01*
X176984D01*
Y138287D01*
Y142650D01*
X173016D01*
Y142189D01*
X171315D01*
Y143117D01*
X171315Y143254D01*
X171315D01*
Y143617D01*
X171315D01*
Y144231D01*
X171815Y144499D01*
X172195Y144342D01*
Y146191D01*
X172695D01*
Y146691D01*
X174544D01*
X174305Y147268D01*
X173885Y147688D01*
X174045Y148188D01*
X182856D01*
X185371Y145673D01*
X185784Y145397D01*
X186272Y145300D01*
X187736D01*
Y144590D01*
X189300D01*
Y143594D01*
X187799D01*
Y139626D01*
X193417D01*
Y141610D01*
Y143594D01*
X191849D01*
Y144590D01*
X196035D01*
Y145045D01*
X202539D01*
X203125Y145162D01*
X203621Y145493D01*
X205598Y147471D01*
X210808D01*
X210937Y147246D01*
X211672Y146511D01*
X212573Y145991D01*
X213578Y145722D01*
X214618D01*
X215622Y145991D01*
X216523Y146511D01*
X217259Y147246D01*
X217779Y148147D01*
X218048Y149152D01*
Y150192D01*
X217779Y151196D01*
X217259Y152097D01*
X216523Y152832D01*
X215622Y153352D01*
X214618Y153622D01*
X213578D01*
X212573Y153352D01*
X211672Y152832D01*
X210937Y152097D01*
X210417Y151196D01*
X210238Y150529D01*
X204965D01*
X204379Y150413D01*
X203883Y150081D01*
X201906Y148104D01*
X196035D01*
Y148559D01*
X187736D01*
Y147849D01*
X186800D01*
X184436Y150213D01*
X187337Y153113D01*
X187799Y152922D01*
Y150748D01*
X193417D01*
Y152732D01*
X194417D01*
Y150748D01*
X196098D01*
Y151523D01*
X196504Y151604D01*
X197000Y151936D01*
X198320Y153256D01*
X198651D01*
X199350Y153545D01*
X199884Y154079D01*
X200123Y154656D01*
X198274D01*
Y155156D01*
X197774D01*
Y157005D01*
X197197Y156766D01*
X196663Y156232D01*
X196598Y156075D01*
X196098Y156175D01*
Y157183D01*
X196646Y157731D01*
X210566D01*
X210937Y157089D01*
X211672Y156353D01*
X212573Y155833D01*
X213578Y155564D01*
X214618D01*
X215622Y155833D01*
X216523Y156353D01*
X217259Y157089D01*
X217779Y157990D01*
X218048Y158994D01*
Y160034D01*
X217779Y161039D01*
X217259Y161940D01*
X216523Y162675D01*
X215622Y163195D01*
X214618Y163464D01*
X213578D01*
X212573Y163195D01*
X211672Y162675D01*
X210937Y161940D01*
X210417Y161039D01*
X210350Y160790D01*
X196012D01*
X195427Y160673D01*
X194931Y160342D01*
X193935Y159346D01*
X187799D01*
Y157180D01*
X182856Y152237D01*
X156714D01*
X156523Y152699D01*
X171443Y167619D01*
X187736D01*
Y166909D01*
X189103D01*
Y166043D01*
X187736D01*
Y162075D01*
X193354D01*
Y164059D01*
X194354D01*
Y162075D01*
X196035D01*
Y163903D01*
X196476Y164345D01*
X197134D01*
X197197Y164281D01*
X197774Y164042D01*
Y165892D01*
X198274D01*
Y166392D01*
X200123D01*
X199884Y166968D01*
X199757Y167096D01*
X199964Y167596D01*
X210554D01*
X210937Y166931D01*
X211672Y166196D01*
X212573Y165676D01*
X213578Y165407D01*
X214618D01*
X215622Y165676D01*
X216523Y166196D01*
X217259Y166931D01*
X217779Y167832D01*
X218048Y168837D01*
Y169877D01*
X217779Y170881D01*
X217259Y171782D01*
X216523Y172517D01*
X215622Y173038D01*
X214618Y173307D01*
X213578D01*
X212573Y173038D01*
X211672Y172517D01*
X210937Y171782D01*
X210417Y170881D01*
X210356Y170654D01*
X196035D01*
Y170878D01*
X187736D01*
Y170168D01*
X172524D01*
X172332Y170630D01*
X180261Y178558D01*
X189300D01*
Y177378D01*
X188720D01*
Y173409D01*
X194338D01*
Y175394D01*
X195338D01*
Y173409D01*
X197019D01*
Y175215D01*
X197348Y175544D01*
X197370D01*
X197774Y175377D01*
Y177227D01*
X198274D01*
Y177727D01*
X200123D01*
X199884Y178303D01*
X199650Y178538D01*
X199857Y179038D01*
X210108D01*
X210148Y179011D01*
Y178679D01*
X210417Y177674D01*
X210937Y176774D01*
X211672Y176038D01*
X212573Y175518D01*
X213578Y175249D01*
X214618D01*
X215622Y175518D01*
X216523Y176038D01*
X217259Y176774D01*
X217779Y177674D01*
X218048Y178679D01*
Y179719D01*
X217779Y180724D01*
X217259Y181624D01*
X216523Y182360D01*
X215622Y182880D01*
X214618Y183149D01*
X213578D01*
X212573Y182880D01*
X211672Y182360D01*
X211297Y181984D01*
X210733Y182096D01*
X196890D01*
Y182551D01*
X188591D01*
Y181107D01*
X179733D01*
X179245Y181010D01*
X178831Y180734D01*
X155600Y157503D01*
X155110Y157600D01*
X155076Y157682D01*
X154541Y158217D01*
X154344Y158298D01*
X154341Y158315D01*
X154294Y158860D01*
X154542Y159459D01*
Y160215D01*
X154253Y160913D01*
X153718Y161448D01*
X153459Y161555D01*
X153115Y161918D01*
X153404Y162617D01*
Y163373D01*
X153115Y164071D01*
X152580Y164605D01*
X151882Y164894D01*
X151126D01*
X150428Y164605D01*
X149893Y164071D01*
X149604Y163373D01*
Y162917D01*
X146945Y160258D01*
X144781D01*
X144349Y160308D01*
X144299Y160740D01*
Y161742D01*
X144760D01*
X145248Y161839D01*
X145661Y162115D01*
X146914Y163368D01*
X147390D01*
X148088Y163657D01*
X148623Y164192D01*
X148899Y164859D01*
X149944Y165904D01*
X153154D01*
X153291Y165904D01*
X153654D01*
X153791Y165904D01*
X155728D01*
Y168676D01*
Y171447D01*
X153791D01*
X153654Y171447D01*
X153291D01*
X153154Y171447D01*
X148142D01*
Y167706D01*
X147541Y167105D01*
X147390Y167168D01*
X146634D01*
X145936Y166879D01*
X145401Y166344D01*
X145112Y165646D01*
Y165170D01*
X144232Y164291D01*
X143853D01*
X143422Y164579D01*
X143264Y165120D01*
X143317Y165204D01*
X143322Y165205D01*
X143421D01*
X144120Y165495D01*
X144654Y166029D01*
X144943Y166727D01*
Y167483D01*
X144654Y168182D01*
X144120Y168716D01*
X143456Y168991D01*
X143203Y169424D01*
Y170180D01*
X142914Y170878D01*
X142379Y171413D01*
X141681Y171702D01*
X141581D01*
X141390Y172164D01*
X144252Y175025D01*
X144491Y175384D01*
X147465D01*
Y180533D01*
X147465D01*
Y180896D01*
X147465D01*
Y182320D01*
X149275D01*
X149611Y181984D01*
X150188Y181745D01*
Y183595D01*
Y185444D01*
X149611Y185205D01*
X149275Y184869D01*
X147465D01*
Y186045D01*
X145193D01*
Y183470D01*
X144193D01*
Y186045D01*
X141922D01*
Y184904D01*
X141712Y184491D01*
X140840D01*
X140692Y184520D01*
X140228D01*
Y182309D01*
X139728D01*
Y181809D01*
X137744D01*
Y180128D01*
Y176816D01*
X136291D01*
Y174832D01*
X135291D01*
Y176816D01*
X134773D01*
X134341Y176979D01*
Y180916D01*
Y185278D01*
X133670D01*
Y186379D01*
X134626D01*
Y190846D01*
X140642D01*
Y190236D01*
X148941D01*
Y190906D01*
X153800D01*
X153800Y190906D01*
X154303Y191006D01*
X154730Y191291D01*
X157470Y194032D01*
X159352D01*
Y191693D01*
X164182D01*
Y194260D01*
X161746D01*
Y199740D01*
X164182D01*
Y202307D01*
X159352D01*
Y199969D01*
X155612D01*
Y195890D01*
X153256Y193534D01*
X148941D01*
Y194204D01*
X140642D01*
Y193491D01*
X140555Y193474D01*
X134626D01*
Y194678D01*
X134261D01*
Y195879D01*
X134931D01*
Y199816D01*
Y204178D01*
X134358D01*
Y205480D01*
X159352D01*
Y203307D01*
X164682D01*
Y202807D01*
X165182D01*
Y199740D01*
X170013D01*
Y200600D01*
X170112Y200665D01*
X170868D01*
X171566Y200955D01*
X172100Y201489D01*
X172339Y202065D01*
X170490D01*
Y203065D01*
X172339D01*
X172100Y203642D01*
X171566Y204176D01*
X170868Y204465D01*
X170112D01*
X170013Y204531D01*
Y205480D01*
X195440D01*
X195647Y204980D01*
X194873Y204207D01*
X194151Y203126D01*
X193654Y201925D01*
X193400Y200650D01*
Y199350D01*
X193654Y198075D01*
X194151Y196874D01*
X194873Y195793D01*
X195793Y194873D01*
X196874Y194151D01*
X198075Y193654D01*
X199350Y193400D01*
X200650D01*
X201925Y193654D01*
X203126Y194151D01*
X204207Y194873D01*
X205127Y195793D01*
X205849Y196874D01*
X206346Y198075D01*
X206600Y199350D01*
Y200650D01*
X206346Y201925D01*
X205849Y203126D01*
X205127Y204207D01*
X204353Y204980D01*
X204560Y205480D01*
X225000D01*
X225000Y204980D01*
X225000Y0D01*
X0D01*
Y204980D01*
X500Y205480D01*
X20440D01*
D02*
G37*
%LPC*%
G36*
X104241Y135691D02*
X102891D01*
X103130Y135115D01*
X103664Y134581D01*
X104241Y134342D01*
Y135691D01*
D02*
G37*
G36*
X119453Y204953D02*
X116000D01*
Y201500D01*
X119453D01*
Y204953D01*
D02*
G37*
G36*
X115000D02*
X111547D01*
Y201500D01*
X115000D01*
Y204953D01*
D02*
G37*
G36*
X71496Y203493D02*
X64697D01*
Y200620D01*
X71496D01*
Y203493D01*
D02*
G37*
G36*
X54204D02*
X47405D01*
Y200620D01*
X54204D01*
Y203493D01*
D02*
G37*
G36*
X63697D02*
X56898D01*
Y200620D01*
X63697D01*
Y203493D01*
D02*
G37*
G36*
X46405D02*
X39606D01*
Y200620D01*
X46405D01*
Y203493D01*
D02*
G37*
G36*
X74995Y202900D02*
X74239D01*
X73541Y202611D01*
X73007Y202076D01*
X72717Y201378D01*
Y200622D01*
X73007Y199924D01*
X73541Y199389D01*
X74239Y199100D01*
X74995D01*
X75694Y199389D01*
X76228Y199924D01*
X76517Y200622D01*
Y201378D01*
X76228Y202076D01*
X75694Y202611D01*
X74995Y202900D01*
D02*
G37*
G36*
X119453Y200500D02*
X116000D01*
Y197047D01*
X119453D01*
Y200500D01*
D02*
G37*
G36*
X115000D02*
X111547D01*
Y197047D01*
X115000D01*
Y200500D01*
D02*
G37*
G36*
X54204Y199620D02*
X46905D01*
X39606D01*
Y196747D01*
X45375D01*
Y194752D01*
X45294Y194670D01*
X45055Y194094D01*
X48754D01*
X48515Y194670D01*
X48434Y194752D01*
Y196747D01*
X54204D01*
Y199620D01*
D02*
G37*
G36*
X75117Y195273D02*
Y193923D01*
X76467D01*
X76228Y194500D01*
X75694Y195034D01*
X75117Y195273D01*
D02*
G37*
G36*
X74117D02*
X73541Y195034D01*
X73007Y194500D01*
X72768Y193923D01*
X74117D01*
Y195273D01*
D02*
G37*
G36*
X180994Y201414D02*
X180006D01*
X179052Y201158D01*
X178198Y200665D01*
X177499Y199966D01*
X177006Y199111D01*
X176750Y198158D01*
Y197170D01*
X177006Y196216D01*
X177499Y195361D01*
X178198Y194663D01*
X179052Y194169D01*
X180006Y193914D01*
X180994D01*
X181948Y194169D01*
X182802Y194663D01*
X183501Y195361D01*
X183994Y196216D01*
X184250Y197170D01*
Y198158D01*
X183994Y199111D01*
X183501Y199966D01*
X182802Y200665D01*
X181948Y201158D01*
X180994Y201414D01*
D02*
G37*
G36*
X48754Y193094D02*
X47405D01*
Y191745D01*
X47981Y191983D01*
X48515Y192518D01*
X48754Y193094D01*
D02*
G37*
G36*
X46405D02*
X45055D01*
X45294Y192518D01*
X45828Y191983D01*
X46405Y191745D01*
Y193094D01*
D02*
G37*
G36*
X171142Y193042D02*
Y191693D01*
X172491D01*
X172252Y192269D01*
X171718Y192804D01*
X171142Y193042D01*
D02*
G37*
G36*
X76467Y192923D02*
X75117D01*
Y191574D01*
X75694Y191813D01*
X76228Y192347D01*
X76467Y192923D01*
D02*
G37*
G36*
X74117D02*
X72768D01*
X73007Y192347D01*
X73541Y191813D01*
X74117Y191574D01*
Y192923D01*
D02*
G37*
G36*
X123763Y191997D02*
X122082D01*
Y190513D01*
X123763D01*
Y191997D01*
D02*
G37*
G36*
X71496Y199620D02*
X64197D01*
X56898D01*
Y196747D01*
X61761D01*
X61952Y196284D01*
X59568Y193900D01*
X59453D01*
X58754Y193611D01*
X58220Y193076D01*
X57981Y192500D01*
X59831D01*
Y192000D01*
X60331D01*
Y190151D01*
X60907Y190389D01*
X61441Y190924D01*
X61731Y191622D01*
Y191737D01*
X65278Y195285D01*
X65610Y195781D01*
X65726Y196366D01*
Y196747D01*
X71496D01*
Y199620D01*
D02*
G37*
G36*
X59331Y191500D02*
X57981D01*
X58220Y190924D01*
X58754Y190389D01*
X59331Y190151D01*
Y191500D01*
D02*
G37*
G36*
X172491Y190693D02*
X171142D01*
Y189344D01*
X171718Y189582D01*
X172252Y190117D01*
X172491Y190693D01*
D02*
G37*
G36*
X170013Y194260D02*
X165182D01*
Y191193D01*
Y188126D01*
X170013D01*
Y189126D01*
X170142Y189211D01*
Y191193D01*
Y193175D01*
X170013Y193260D01*
Y194260D01*
D02*
G37*
G36*
X164182Y190693D02*
X159352D01*
Y188126D01*
X164182D01*
Y190693D01*
D02*
G37*
G36*
X160905Y187001D02*
Y185652D01*
X162254D01*
X162016Y186228D01*
X161481Y186762D01*
X160905Y187001D01*
D02*
G37*
G36*
X159905D02*
X159329Y186762D01*
X158794Y186228D01*
X158555Y185652D01*
X159905D01*
Y187001D01*
D02*
G37*
G36*
X75945Y185541D02*
Y184192D01*
X77294D01*
X77055Y184768D01*
X76521Y185302D01*
X75945Y185541D01*
D02*
G37*
G36*
X74945D02*
X74368Y185302D01*
X73834Y184768D01*
X73595Y184192D01*
X74945D01*
Y185541D01*
D02*
G37*
G36*
X151188Y185444D02*
Y184095D01*
X152537D01*
X152298Y184671D01*
X151764Y185205D01*
X151188Y185444D01*
D02*
G37*
G36*
X180994Y191571D02*
X180006D01*
X179052Y191316D01*
X178198Y190822D01*
X177499Y190124D01*
X177006Y189269D01*
X176750Y188315D01*
Y187328D01*
X177006Y186374D01*
X177499Y185519D01*
X178198Y184820D01*
X179052Y184327D01*
X180006Y184071D01*
X180994D01*
X181948Y184327D01*
X182802Y184820D01*
X183501Y185519D01*
X183994Y186374D01*
X184250Y187328D01*
Y188315D01*
X183994Y189269D01*
X183501Y190124D01*
X182802Y190822D01*
X181948Y191316D01*
X180994Y191571D01*
D02*
G37*
G36*
X162254Y184652D02*
X160905D01*
Y183302D01*
X161481Y183541D01*
X162016Y184075D01*
X162254Y184652D01*
D02*
G37*
G36*
X159905D02*
X158555D01*
X158794Y184075D01*
X159329Y183541D01*
X159905Y183302D01*
Y184652D01*
D02*
G37*
G36*
X139228Y184491D02*
X137744D01*
Y182809D01*
X139228D01*
Y184491D01*
D02*
G37*
G36*
X77294Y183192D02*
X75945D01*
Y181842D01*
X76521Y182081D01*
X77055Y182615D01*
X77294Y183192D01*
D02*
G37*
G36*
X74945D02*
X73595D01*
X73834Y182615D01*
X74368Y182081D01*
X74945Y181842D01*
Y183192D01*
D02*
G37*
G36*
X152537Y183095D02*
X151188D01*
Y181745D01*
X151764Y181984D01*
X152298Y182518D01*
X152537Y183095D01*
D02*
G37*
G36*
X200123Y176727D02*
X198774D01*
Y175377D01*
X199350Y175616D01*
X199884Y176150D01*
X200123Y176727D01*
D02*
G37*
G36*
X159403Y174630D02*
Y173280D01*
X160753D01*
X160514Y173857D01*
X159980Y174391D01*
X159403Y174630D01*
D02*
G37*
G36*
X158403D02*
X157827Y174391D01*
X157293Y173857D01*
X157054Y173280D01*
X158403D01*
Y174630D01*
D02*
G37*
G36*
X160753Y172280D02*
X157054D01*
X157192Y171947D01*
X156896Y171447D01*
X156728D01*
Y168676D01*
Y165904D01*
X158803D01*
Y167056D01*
X160321D01*
X160402Y166974D01*
X160978Y166736D01*
Y168585D01*
Y170434D01*
X160402Y170196D01*
X160321Y170114D01*
X158803D01*
Y170880D01*
X159281D01*
X159980Y171170D01*
X160514Y171704D01*
X160753Y172280D01*
D02*
G37*
G36*
X13563Y178141D02*
X12523D01*
X11519Y177872D01*
X10618Y177352D01*
X9883Y176617D01*
X9362Y175716D01*
X9093Y174711D01*
Y173671D01*
X9362Y172667D01*
X9883Y171766D01*
X10618Y171031D01*
X11519Y170511D01*
X12523Y170241D01*
X13563D01*
X14568Y170511D01*
X15469Y171031D01*
X16204Y171766D01*
X16724Y172667D01*
X16993Y173671D01*
Y174711D01*
X16724Y175716D01*
X16204Y176617D01*
X15469Y177352D01*
X14568Y177872D01*
X13563Y178141D01*
D02*
G37*
G36*
X161978Y170434D02*
Y169085D01*
X163328D01*
X163089Y169661D01*
X162555Y170196D01*
X161978Y170434D01*
D02*
G37*
G36*
X163328Y168085D02*
X161978D01*
Y166736D01*
X162555Y166974D01*
X163089Y167509D01*
X163328Y168085D01*
D02*
G37*
G36*
X71496Y180636D02*
X56898D01*
Y173890D01*
X59056D01*
Y168558D01*
X58974Y168476D01*
X58685Y167778D01*
Y167022D01*
X58974Y166324D01*
X59509Y165789D01*
X60207Y165500D01*
X60963D01*
X61661Y165789D01*
X62196Y166324D01*
X62485Y167022D01*
Y167778D01*
X62196Y168476D01*
X62114Y168558D01*
Y173890D01*
X71496D01*
Y180636D01*
D02*
G37*
G36*
X200123Y165392D02*
X198774D01*
Y164042D01*
X199350Y164281D01*
X199884Y164816D01*
X200123Y165392D01*
D02*
G37*
G36*
X71374Y163927D02*
X70750Y163669D01*
X70192Y163111D01*
X69979Y162597D01*
X69438D01*
X69225Y163111D01*
X68667Y163669D01*
X68043Y163927D01*
Y161987D01*
X67043D01*
Y163927D01*
X66419Y163669D01*
X65861Y163111D01*
X65649Y162597D01*
X65107D01*
X64895Y163111D01*
X64337Y163669D01*
X63713Y163927D01*
Y161987D01*
X63213D01*
Y161487D01*
X61272D01*
X61530Y160863D01*
X62089Y160304D01*
X62602Y160092D01*
Y159551D01*
X62089Y159338D01*
X61530Y158780D01*
X61272Y158156D01*
X63213D01*
Y157156D01*
X61272D01*
X61530Y156532D01*
X62089Y155974D01*
X62602Y155761D01*
Y155220D01*
X62089Y155007D01*
X61530Y154449D01*
X61272Y153825D01*
X63213D01*
Y152825D01*
X61272D01*
X61530Y152201D01*
X62089Y151643D01*
X62602Y151430D01*
Y150889D01*
X62089Y150677D01*
X61530Y150119D01*
X61272Y149495D01*
X63213D01*
Y148495D01*
X61272D01*
X61530Y147871D01*
X62089Y147312D01*
X62602Y147100D01*
Y146559D01*
X62089Y146346D01*
X61530Y145788D01*
X61272Y145164D01*
X63213D01*
Y144664D01*
X63713D01*
Y142723D01*
X64337Y142982D01*
X64895Y143540D01*
X65107Y144053D01*
X65649D01*
X65861Y143540D01*
X66419Y142982D01*
X67043Y142723D01*
Y144664D01*
X68043D01*
Y142723D01*
X68667Y142982D01*
X69225Y143540D01*
X69438Y144053D01*
X69979D01*
X70192Y143540D01*
X70750Y142982D01*
X71374Y142723D01*
Y144664D01*
X71874D01*
Y145164D01*
X73815D01*
X73556Y145788D01*
X72998Y146346D01*
X72485Y146559D01*
Y147100D01*
X72998Y147312D01*
X73556Y147871D01*
X73815Y148495D01*
X71874D01*
Y149495D01*
X73815D01*
X73556Y150119D01*
X72998Y150677D01*
X72485Y150889D01*
Y151430D01*
X72998Y151643D01*
X73556Y152201D01*
X73815Y152825D01*
X71874D01*
Y153825D01*
X73815D01*
X73556Y154449D01*
X72998Y155007D01*
X72485Y155220D01*
Y155761D01*
X72998Y155974D01*
X73556Y156532D01*
X73815Y157156D01*
X71874D01*
Y158156D01*
X73815D01*
X73556Y158780D01*
X72998Y159338D01*
X72485Y159551D01*
Y160092D01*
X72998Y160304D01*
X73556Y160863D01*
X73815Y161487D01*
X71874D01*
Y161987D01*
X71374D01*
Y163927D01*
D02*
G37*
G36*
X72374D02*
Y162487D01*
X73815D01*
X73556Y163111D01*
X72998Y163669D01*
X72374Y163927D01*
D02*
G37*
G36*
X62713D02*
X62089Y163669D01*
X61530Y163111D01*
X61272Y162487D01*
X62713D01*
Y163927D01*
D02*
G37*
G36*
X13563Y168298D02*
X12523D01*
X11519Y168029D01*
X10618Y167509D01*
X9883Y166774D01*
X9362Y165873D01*
X9093Y164868D01*
Y163828D01*
X9362Y162824D01*
X9883Y161923D01*
X10618Y161188D01*
X11519Y160668D01*
X12523Y160398D01*
X13563D01*
X14568Y160668D01*
X15469Y161188D01*
X16204Y161923D01*
X16724Y162824D01*
X16993Y163828D01*
Y164868D01*
X16724Y165873D01*
X16204Y166774D01*
X15469Y167509D01*
X14568Y168029D01*
X13563Y168298D01*
D02*
G37*
G36*
X198774Y157005D02*
Y155656D01*
X200123D01*
X199884Y156232D01*
X199350Y156766D01*
X198774Y157005D01*
D02*
G37*
G36*
X13563Y158455D02*
X12523D01*
X11519Y158186D01*
X10618Y157666D01*
X9883Y156931D01*
X9362Y156030D01*
X9093Y155025D01*
Y153985D01*
X9362Y152981D01*
X9883Y152080D01*
X10618Y151345D01*
X11519Y150825D01*
X12523Y150555D01*
X13563D01*
X14568Y150825D01*
X15469Y151345D01*
X16204Y152080D01*
X16724Y152981D01*
X16993Y153985D01*
Y155025D01*
X16724Y156030D01*
X16204Y156931D01*
X15469Y157666D01*
X14568Y158186D01*
X13563Y158455D01*
D02*
G37*
G36*
X54204Y180636D02*
X39606D01*
Y173890D01*
X47396D01*
Y150158D01*
X47314Y150076D01*
X47025Y149378D01*
Y148622D01*
X47314Y147924D01*
X47849Y147389D01*
X48547Y147100D01*
X49303D01*
X50001Y147389D01*
X50536Y147924D01*
X50825Y148622D01*
Y149378D01*
X50536Y150076D01*
X50455Y150158D01*
Y173890D01*
X54204D01*
Y180636D01*
D02*
G37*
G36*
X174544Y145691D02*
X173195D01*
Y144342D01*
X173771Y144581D01*
X174305Y145115D01*
X174544Y145691D01*
D02*
G37*
G36*
X213598Y143779D02*
X213578D01*
X212573Y143510D01*
X211672Y142990D01*
X211654Y142971D01*
X211577Y143023D01*
X210991Y143139D01*
X196098D01*
Y143594D01*
X194417D01*
Y141610D01*
Y139626D01*
X196098D01*
Y140080D01*
X210148D01*
Y139309D01*
X210417Y138304D01*
X210937Y137404D01*
X211672Y136668D01*
X212573Y136148D01*
X213578Y135879D01*
X213598D01*
Y139829D01*
Y143779D01*
D02*
G37*
G36*
X73815Y144164D02*
X72374D01*
Y142723D01*
X72998Y142982D01*
X73556Y143540D01*
X73815Y144164D01*
D02*
G37*
G36*
X62713D02*
X61272D01*
X61530Y143540D01*
X62089Y142982D01*
X62713Y142723D01*
Y144164D01*
D02*
G37*
G36*
X13563Y148612D02*
X12523D01*
X11519Y148343D01*
X10618Y147823D01*
X9883Y147088D01*
X9362Y146187D01*
X9093Y145182D01*
Y144142D01*
X9362Y143138D01*
X9883Y142237D01*
X10618Y141502D01*
X11519Y140982D01*
X12523Y140712D01*
X13563D01*
X14568Y140982D01*
X15469Y141502D01*
X16204Y142237D01*
X16724Y143138D01*
X16993Y144142D01*
Y145182D01*
X16724Y146187D01*
X16204Y147088D01*
X15469Y147823D01*
X14568Y148343D01*
X13563Y148612D01*
D02*
G37*
G36*
X214618Y143779D02*
X214598D01*
Y140329D01*
X218048D01*
Y140349D01*
X217779Y141354D01*
X217259Y142254D01*
X216523Y142990D01*
X215622Y143510D01*
X214618Y143779D01*
D02*
G37*
G36*
X218048Y139329D02*
X214598D01*
Y135879D01*
X214618D01*
X215622Y136148D01*
X216523Y136668D01*
X217259Y137404D01*
X217779Y138304D01*
X218048Y139309D01*
Y139329D01*
D02*
G37*
G36*
X31395Y176661D02*
X30474D01*
X29583Y176422D01*
X28785Y175962D01*
X28134Y175310D01*
X27673Y174512D01*
X27435Y173622D01*
Y172700D01*
X27673Y171810D01*
X28134Y171012D01*
X28785Y170360D01*
X29261Y170085D01*
Y140518D01*
X29010Y140266D01*
X28549Y139468D01*
X28310Y138578D01*
Y137656D01*
X28549Y136766D01*
X29010Y135968D01*
X29661Y135316D01*
X30459Y134855D01*
X31350Y134617D01*
X32271D01*
X33161Y134855D01*
X33959Y135316D01*
X34611Y135968D01*
X35072Y136766D01*
X35310Y137656D01*
Y138578D01*
X35072Y139468D01*
X34611Y140266D01*
X34359Y140518D01*
Y171744D01*
X34282Y172132D01*
X34435Y172700D01*
Y173622D01*
X34196Y174512D01*
X33735Y175310D01*
X33084Y175962D01*
X32285Y176422D01*
X31395Y176661D01*
D02*
G37*
G36*
X44338Y133950D02*
Y132601D01*
X45688D01*
X45449Y133177D01*
X44915Y133711D01*
X44338Y133950D01*
D02*
G37*
G36*
X43338D02*
X42762Y133711D01*
X42228Y133177D01*
X41989Y132601D01*
X43338D01*
Y133950D01*
D02*
G37*
G36*
X57727Y133139D02*
Y131789D01*
X59076D01*
X58837Y132365D01*
X58303Y132900D01*
X57727Y133139D01*
D02*
G37*
G36*
X56727D02*
X56150Y132900D01*
X55616Y132365D01*
X55377Y131789D01*
X56727D01*
Y133139D01*
D02*
G37*
G36*
X170053Y132572D02*
Y131223D01*
X171403D01*
X171164Y131799D01*
X170629Y132333D01*
X170053Y132572D01*
D02*
G37*
G36*
X45688Y131601D02*
X44338D01*
Y130251D01*
X44915Y130490D01*
X45449Y131024D01*
X45688Y131601D01*
D02*
G37*
G36*
X43338D02*
X41989D01*
X42228Y131024D01*
X42762Y130490D01*
X43338Y130251D01*
Y131601D01*
D02*
G37*
G36*
X59076Y130789D02*
X57727D01*
Y129440D01*
X58303Y129678D01*
X58837Y130213D01*
X59076Y130789D01*
D02*
G37*
G36*
X56727D02*
X55377D01*
X55616Y130213D01*
X56150Y129678D01*
X56727Y129440D01*
Y130789D01*
D02*
G37*
G36*
X171403Y130223D02*
X170053D01*
Y128873D01*
X170629Y129112D01*
X171164Y129646D01*
X171403Y130223D01*
D02*
G37*
G36*
X214618Y133937D02*
X213578D01*
X212573Y133667D01*
X211672Y133147D01*
X210937Y132412D01*
X210417Y131511D01*
X210148Y130507D01*
Y129467D01*
X210417Y128462D01*
X210937Y127561D01*
X211672Y126826D01*
X212573Y126306D01*
X213578Y126037D01*
X214618D01*
X215622Y126306D01*
X216523Y126826D01*
X217259Y127561D01*
X217779Y128462D01*
X218048Y129467D01*
Y130507D01*
X217779Y131511D01*
X217259Y132412D01*
X216523Y133147D01*
X215622Y133667D01*
X214618Y133937D01*
D02*
G37*
G36*
X164704Y123308D02*
Y121959D01*
X166053D01*
X165815Y122535D01*
X165280Y123070D01*
X164704Y123308D01*
D02*
G37*
G36*
X166053Y120959D02*
X164704D01*
Y119609D01*
X165280Y119848D01*
X165815Y120383D01*
X166053Y120959D01*
D02*
G37*
G36*
X161957Y123589D02*
X160275D01*
Y121605D01*
Y119620D01*
X161957D01*
Y120002D01*
X162973D01*
X163128Y119848D01*
X163704Y119609D01*
Y121459D01*
Y123308D01*
X163128Y123070D01*
X163119Y123061D01*
X161957D01*
Y123589D01*
D02*
G37*
G36*
X84695Y118391D02*
Y117042D01*
X86045D01*
X85806Y117618D01*
X85271Y118153D01*
X84695Y118391D01*
D02*
G37*
G36*
X83695D02*
X83119Y118153D01*
X82584Y117618D01*
X82346Y117042D01*
X83695D01*
Y118391D01*
D02*
G37*
G36*
X11543Y117501D02*
Y116152D01*
X12893D01*
X12654Y116728D01*
X12120Y117263D01*
X11543Y117501D01*
D02*
G37*
G36*
X10543D02*
X9967Y117263D01*
X9432Y116728D01*
X9194Y116152D01*
X10543D01*
Y117501D01*
D02*
G37*
G36*
X181494Y122241D02*
X180506D01*
X179552Y121985D01*
X178698Y121492D01*
X177999Y120793D01*
X177506Y119938D01*
X177250Y118984D01*
Y117997D01*
X177506Y117043D01*
X177999Y116188D01*
X178698Y115490D01*
X179552Y114996D01*
X180506Y114741D01*
X181494D01*
X182448Y114996D01*
X183302Y115490D01*
X184001Y116188D01*
X184494Y117043D01*
X184750Y117997D01*
Y118984D01*
X184494Y119938D01*
X184001Y120793D01*
X183302Y121492D01*
X182448Y121985D01*
X181494Y122241D01*
D02*
G37*
G36*
X219346Y116080D02*
Y114730D01*
X220696D01*
X220457Y115306D01*
X219923Y115841D01*
X219346Y116080D01*
D02*
G37*
G36*
X218346D02*
X217770Y115841D01*
X217236Y115306D01*
X216997Y114730D01*
X218346D01*
Y116080D01*
D02*
G37*
G36*
X86045Y116042D02*
X84695D01*
Y114692D01*
X85271Y114931D01*
X85806Y115466D01*
X86045Y116042D01*
D02*
G37*
G36*
X83695D02*
X82346D01*
X82584Y115466D01*
X83119Y114931D01*
X83695Y114692D01*
Y116042D01*
D02*
G37*
G36*
X12893Y115152D02*
X11543D01*
Y113802D01*
X12120Y114041D01*
X12654Y114576D01*
X12893Y115152D01*
D02*
G37*
G36*
X10543D02*
X9194D01*
X9432Y114576D01*
X9967Y114041D01*
X10543Y113802D01*
Y115152D01*
D02*
G37*
G36*
X220696Y113730D02*
X219346D01*
Y112381D01*
X219923Y112619D01*
X220457Y113154D01*
X220696Y113730D01*
D02*
G37*
G36*
X218346D02*
X216997D01*
X217236Y113154D01*
X217770Y112619D01*
X218346Y112381D01*
Y113730D01*
D02*
G37*
G36*
X164602Y113466D02*
Y112116D01*
X165951D01*
X165712Y112693D01*
X165178Y113227D01*
X164602Y113466D01*
D02*
G37*
G36*
X165951Y111116D02*
X164602D01*
Y109767D01*
X165178Y110006D01*
X165712Y110540D01*
X165951Y111116D01*
D02*
G37*
G36*
X161854Y113746D02*
X160173D01*
Y111762D01*
Y109778D01*
X161854D01*
Y110160D01*
X162871D01*
X163025Y110006D01*
X163602Y109767D01*
Y111616D01*
Y113466D01*
X163025Y113227D01*
X163017Y113219D01*
X161854D01*
Y113746D01*
D02*
G37*
G36*
X203093Y110336D02*
Y108986D01*
X204443D01*
X204204Y109563D01*
X203669Y110097D01*
X203093Y110336D01*
D02*
G37*
G36*
X202093D02*
X201517Y110097D01*
X200982Y109563D01*
X200744Y108986D01*
X202093D01*
Y110336D01*
D02*
G37*
G36*
X22043Y109901D02*
Y108552D01*
X23393D01*
X23154Y109128D01*
X22619Y109663D01*
X22043Y109901D01*
D02*
G37*
G36*
X21043D02*
X20467Y109663D01*
X19932Y109128D01*
X19694Y108552D01*
X21043D01*
Y109901D01*
D02*
G37*
G36*
X204443Y107986D02*
X203093D01*
Y106637D01*
X203669Y106876D01*
X204204Y107410D01*
X204443Y107986D01*
D02*
G37*
G36*
X202093D02*
X200744D01*
X200982Y107410D01*
X201517Y106876D01*
X202093Y106637D01*
Y107986D01*
D02*
G37*
G36*
X23393Y107552D02*
X22043D01*
Y106202D01*
X22619Y106441D01*
X23154Y106975D01*
X23393Y107552D01*
D02*
G37*
G36*
X21043D02*
X19694D01*
X19932Y106975D01*
X20467Y106441D01*
X21043Y106202D01*
Y107552D01*
D02*
G37*
G36*
X74735Y108489D02*
X73980D01*
X73281Y108200D01*
X72747Y107665D01*
X72457Y106967D01*
Y106211D01*
X72747Y105513D01*
X73281Y104978D01*
X73980Y104689D01*
X74735D01*
X75434Y104978D01*
X75968Y105513D01*
X76257Y106211D01*
Y106967D01*
X75968Y107665D01*
X75434Y108200D01*
X74735Y108489D01*
D02*
G37*
G36*
X97550Y104809D02*
Y103460D01*
X98900D01*
X98661Y104036D01*
X98127Y104570D01*
X97550Y104809D01*
D02*
G37*
G36*
X96551D02*
X95974Y104570D01*
X95440Y104036D01*
X95201Y103460D01*
X96551D01*
Y104809D01*
D02*
G37*
G36*
X124885Y103313D02*
Y101963D01*
X126234D01*
X125996Y102539D01*
X125461Y103074D01*
X124885Y103313D01*
D02*
G37*
G36*
X123885D02*
X123309Y103074D01*
X122774Y102539D01*
X122536Y101963D01*
X123885D01*
Y103313D01*
D02*
G37*
G36*
X98900Y102460D02*
X97550D01*
Y101110D01*
X98127Y101349D01*
X98661Y101883D01*
X98900Y102460D01*
D02*
G37*
G36*
X96551D02*
X95201D01*
X95440Y101883D01*
X95974Y101349D01*
X96551Y101110D01*
Y102460D01*
D02*
G37*
G36*
X126234Y100963D02*
X124885D01*
Y99614D01*
X125461Y99852D01*
X125996Y100387D01*
X126234Y100963D01*
D02*
G37*
G36*
X123885D02*
X122536D01*
X122774Y100387D01*
X123309Y99852D01*
X123885Y99614D01*
Y100963D01*
D02*
G37*
G36*
X159528Y98754D02*
X157543D01*
X155559D01*
Y97073D01*
X156143D01*
Y96596D01*
X155902Y96014D01*
Y95956D01*
X154230Y94284D01*
X152773D01*
Y91512D01*
Y88740D01*
X154848D01*
Y91075D01*
X155267Y91159D01*
X155763Y91490D01*
X158009Y93736D01*
X158180D01*
X158879Y94025D01*
X159413Y94560D01*
X159652Y95136D01*
X157802D01*
Y96136D01*
X159652D01*
X159471Y96573D01*
X159528Y97073D01*
X159528Y97073D01*
X159528Y97073D01*
Y98754D01*
D02*
G37*
G36*
X214751Y88894D02*
Y87545D01*
X216100D01*
X215862Y88121D01*
X215327Y88656D01*
X214751Y88894D01*
D02*
G37*
G36*
X213751D02*
X213175Y88656D01*
X212640Y88121D01*
X212402Y87545D01*
X213751D01*
Y88894D01*
D02*
G37*
G36*
X216100Y86545D02*
X214751D01*
Y85195D01*
X215327Y85434D01*
X215862Y85969D01*
X216100Y86545D01*
D02*
G37*
G36*
X213751D02*
X212402D01*
X212640Y85969D01*
X213175Y85434D01*
X213751Y85195D01*
Y86545D01*
D02*
G37*
G36*
X173543Y85427D02*
Y84077D01*
X174893D01*
X174654Y84653D01*
X174119Y85188D01*
X173543Y85427D01*
D02*
G37*
G36*
X172543D02*
X171967Y85188D01*
X171432Y84653D01*
X171194Y84077D01*
X172543D01*
Y85427D01*
D02*
G37*
G36*
X4793Y83259D02*
Y81909D01*
X6143D01*
X5904Y82486D01*
X5370Y83020D01*
X4793Y83259D01*
D02*
G37*
G36*
X3793D02*
X3217Y83020D01*
X2682Y82486D01*
X2444Y81909D01*
X3793D01*
Y83259D01*
D02*
G37*
G36*
X174893Y83077D02*
X173543D01*
Y81728D01*
X174119Y81966D01*
X174654Y82501D01*
X174893Y83077D01*
D02*
G37*
G36*
X172543D02*
X171194D01*
X171432Y82501D01*
X171967Y81966D01*
X172543Y81728D01*
Y83077D01*
D02*
G37*
G36*
X119112Y82486D02*
Y81136D01*
X120461D01*
X120223Y81712D01*
X119688Y82247D01*
X119112Y82486D01*
D02*
G37*
G36*
X118112D02*
X117536Y82247D01*
X117001Y81712D01*
X116763Y81136D01*
X118112D01*
Y82486D01*
D02*
G37*
G36*
X157584Y81852D02*
X155726D01*
Y80147D01*
X158809D01*
Y80628D01*
X158715Y81096D01*
X158450Y81494D01*
X158053Y81759D01*
X157584Y81852D01*
D02*
G37*
G36*
X6143Y80909D02*
X4793D01*
Y79560D01*
X5370Y79799D01*
X5904Y80333D01*
X6143Y80909D01*
D02*
G37*
G36*
X3793D02*
X2444D01*
X2682Y80333D01*
X3217Y79799D01*
X3793Y79560D01*
Y80909D01*
D02*
G37*
G36*
X120461Y80136D02*
X119112D01*
Y78787D01*
X119688Y79025D01*
X120223Y79560D01*
X120461Y80136D01*
D02*
G37*
G36*
X118112D02*
X116763D01*
X117001Y79560D01*
X117536Y79025D01*
X118112Y78787D01*
Y80136D01*
D02*
G37*
G36*
X107305Y79662D02*
Y78313D01*
X108654D01*
X108415Y78889D01*
X107881Y79424D01*
X107305Y79662D01*
D02*
G37*
G36*
X106305D02*
X105728Y79424D01*
X105194Y78889D01*
X104955Y78313D01*
X106305D01*
Y79662D01*
D02*
G37*
G36*
X151592Y81874D02*
Y80024D01*
X151092D01*
Y79524D01*
X149243D01*
X149481Y78948D01*
X149978Y78451D01*
X149906Y78290D01*
X149741Y78028D01*
X149317Y78112D01*
X144600D01*
X144132Y78019D01*
X143734Y77753D01*
X143469Y77356D01*
X143376Y76888D01*
Y74927D01*
X143469Y74458D01*
X143734Y74061D01*
X144132Y73796D01*
X144600Y73703D01*
X145995D01*
X146358Y73373D01*
Y67829D01*
X151508D01*
X151508Y67829D01*
X151870D01*
Y67829D01*
X152008Y67829D01*
X153945D01*
Y70601D01*
X154445D01*
Y71101D01*
X157020D01*
Y71210D01*
X157880Y72070D01*
X158212Y72566D01*
X158328Y73150D01*
X158562Y73385D01*
X158801Y73961D01*
X156952D01*
Y74961D01*
X158801D01*
X158562Y75537D01*
X158481Y75619D01*
Y77848D01*
X158715Y78199D01*
X158809Y78667D01*
Y79147D01*
X155226D01*
Y79647D01*
X154726D01*
Y81852D01*
X152868D01*
X152399Y81759D01*
X152187Y81617D01*
X152169Y81635D01*
X151592Y81874D01*
D02*
G37*
G36*
X173109Y77407D02*
Y76057D01*
X174459D01*
X174220Y76634D01*
X173686Y77168D01*
X173109Y77407D01*
D02*
G37*
G36*
X172109D02*
X171533Y77168D01*
X170999Y76634D01*
X170760Y76057D01*
X172109D01*
Y77407D01*
D02*
G37*
G36*
X108654Y77313D02*
X107305D01*
Y75963D01*
X107881Y76202D01*
X108415Y76737D01*
X108654Y77313D01*
D02*
G37*
G36*
X106305D02*
X104955D01*
X105194Y76737D01*
X105728Y76202D01*
X106305Y75963D01*
Y77313D01*
D02*
G37*
G36*
X130740Y76487D02*
Y75138D01*
X132089D01*
X131850Y75714D01*
X131316Y76248D01*
X130740Y76487D01*
D02*
G37*
G36*
X129740D02*
X129163Y76248D01*
X128629Y75714D01*
X128390Y75138D01*
X129740D01*
Y76487D01*
D02*
G37*
G36*
X174459Y75057D02*
X173109D01*
Y73708D01*
X173686Y73947D01*
X174220Y74481D01*
X174459Y75057D01*
D02*
G37*
G36*
X172109D02*
X170760D01*
X170999Y74481D01*
X171533Y73947D01*
X172109Y73708D01*
Y75057D01*
D02*
G37*
G36*
X132089Y74138D02*
X130740D01*
Y72788D01*
X131316Y73027D01*
X131850Y73561D01*
X132089Y74138D01*
D02*
G37*
G36*
X129740D02*
X128390D01*
X128629Y73561D01*
X129163Y73027D01*
X129740Y72788D01*
Y74138D01*
D02*
G37*
G36*
X211212Y71349D02*
Y70000D01*
X212561D01*
X212323Y70576D01*
X211788Y71111D01*
X211212Y71349D01*
D02*
G37*
G36*
X199775Y70986D02*
X199199Y70747D01*
X198664Y70212D01*
X198426Y69636D01*
X199775D01*
Y70986D01*
D02*
G37*
G36*
X210212Y71349D02*
X209636Y71111D01*
X209101Y70576D01*
X208812Y69878D01*
Y69376D01*
X208433Y69135D01*
X208324Y69094D01*
X207256Y69536D01*
X206093Y69768D01*
X206000D01*
Y64248D01*
X211520D01*
Y64341D01*
X211288Y65504D01*
X210835Y66599D01*
X210500Y67100D01*
X210767Y67600D01*
X211090D01*
X211788Y67889D01*
X212323Y68424D01*
X212561Y69000D01*
X210712D01*
Y69500D01*
X210212D01*
Y71349D01*
D02*
G37*
G36*
X173543Y70285D02*
Y68935D01*
X174893D01*
X174654Y69512D01*
X174119Y70046D01*
X173543Y70285D01*
D02*
G37*
G36*
X172543D02*
X171967Y70046D01*
X171432Y69512D01*
X171194Y68935D01*
X172543D01*
Y70285D01*
D02*
G37*
G36*
X157020Y70101D02*
X154945D01*
Y67829D01*
X157020D01*
Y70101D01*
D02*
G37*
G36*
X174893Y67935D02*
X173543D01*
Y66586D01*
X174119Y66825D01*
X174654Y67359D01*
X174893Y67935D01*
D02*
G37*
G36*
X172543D02*
X171194D01*
X171432Y67359D01*
X171967Y66825D01*
X172543Y66586D01*
Y67935D01*
D02*
G37*
G36*
X89653Y66486D02*
Y65136D01*
X91002D01*
X90764Y65712D01*
X90229Y66247D01*
X89653Y66486D01*
D02*
G37*
G36*
X88653D02*
X88077Y66247D01*
X87542Y65712D01*
X87304Y65136D01*
X88653D01*
Y66486D01*
D02*
G37*
G36*
X79105D02*
Y65136D01*
X80454D01*
X80216Y65712D01*
X79681Y66247D01*
X79105Y66486D01*
D02*
G37*
G36*
X78105D02*
X77529Y66247D01*
X76994Y65712D01*
X76756Y65136D01*
X78105D01*
Y66486D01*
D02*
G37*
G36*
X68787D02*
Y65136D01*
X70137D01*
X69898Y65712D01*
X69364Y66247D01*
X68787Y66486D01*
D02*
G37*
G36*
X67787D02*
X67211Y66247D01*
X66677Y65712D01*
X66438Y65136D01*
X67787D01*
Y66486D01*
D02*
G37*
G36*
X215043Y66041D02*
Y64691D01*
X216393D01*
X216154Y65268D01*
X215619Y65802D01*
X215043Y66041D01*
D02*
G37*
G36*
X214043D02*
X213467Y65802D01*
X212932Y65268D01*
X212694Y64691D01*
X214043D01*
Y66041D01*
D02*
G37*
G36*
X200775Y70986D02*
Y69136D01*
X200275D01*
Y68636D01*
X198426D01*
X198664Y68060D01*
X199199Y67525D01*
X199897Y67236D01*
X200061D01*
X200296Y66795D01*
X200165Y66599D01*
X199712Y65504D01*
X199480Y64341D01*
Y64248D01*
X205000D01*
Y69768D01*
X204907D01*
X203744Y69536D01*
X202649Y69083D01*
X202616Y69061D01*
X202175Y69297D01*
Y69514D01*
X201886Y70212D01*
X201351Y70747D01*
X200775Y70986D01*
D02*
G37*
G36*
X91002Y64136D02*
X89653D01*
Y62787D01*
X90229Y63025D01*
X90764Y63560D01*
X91002Y64136D01*
D02*
G37*
G36*
X88653D02*
X87304D01*
X87542Y63560D01*
X88077Y63025D01*
X88653Y62787D01*
Y64136D01*
D02*
G37*
G36*
X80454D02*
X79105D01*
Y62787D01*
X79681Y63025D01*
X80216Y63560D01*
X80454Y64136D01*
D02*
G37*
G36*
X78105D02*
X76756D01*
X76994Y63560D01*
X77529Y63025D01*
X78105Y62787D01*
Y64136D01*
D02*
G37*
G36*
X70137D02*
X68787D01*
Y62787D01*
X69364Y63025D01*
X69898Y63560D01*
X70137Y64136D01*
D02*
G37*
G36*
X67787D02*
X66438D01*
X66677Y63560D01*
X67211Y63025D01*
X67787Y62787D01*
Y64136D01*
D02*
G37*
G36*
X173609Y63698D02*
Y62349D01*
X174959D01*
X174720Y62925D01*
X174186Y63459D01*
X173609Y63698D01*
D02*
G37*
G36*
X172609D02*
X172033Y63459D01*
X171499Y62925D01*
X171260Y62349D01*
X172609D01*
Y63698D01*
D02*
G37*
G36*
X216393Y63691D02*
X215043D01*
Y62342D01*
X215619Y62581D01*
X216154Y63115D01*
X216393Y63691D01*
D02*
G37*
G36*
X214043D02*
X212694D01*
X212932Y63115D01*
X213467Y62581D01*
X214043Y62342D01*
Y63691D01*
D02*
G37*
G36*
X197274Y63485D02*
X196697Y63247D01*
X196163Y62712D01*
X195924Y62136D01*
X197274D01*
Y63485D01*
D02*
G37*
G36*
X16814Y63088D02*
Y61739D01*
X18164D01*
X17925Y62315D01*
X17390Y62849D01*
X16814Y63088D01*
D02*
G37*
G36*
X15814D02*
X15238Y62849D01*
X14703Y62315D01*
X14465Y61739D01*
X15814D01*
Y63088D01*
D02*
G37*
G36*
X174959Y61349D02*
X173609D01*
Y59999D01*
X174186Y60238D01*
X174720Y60772D01*
X174959Y61349D01*
D02*
G37*
G36*
X172609D02*
X171260D01*
X171499Y60772D01*
X172033Y60238D01*
X172609Y59999D01*
Y61349D01*
D02*
G37*
G36*
X197274Y61136D02*
X195924D01*
X196163Y60560D01*
X196697Y60025D01*
X197274Y59787D01*
Y61136D01*
D02*
G37*
G36*
X18164Y60739D02*
X16814D01*
Y59389D01*
X17390Y59628D01*
X17925Y60162D01*
X18164Y60739D01*
D02*
G37*
G36*
X15814D02*
X14465D01*
X14703Y60162D01*
X15238Y59628D01*
X15814Y59389D01*
Y60739D01*
D02*
G37*
G36*
X211520Y63248D02*
X206000D01*
Y57728D01*
X206093D01*
X207256Y57960D01*
X208351Y58413D01*
X209337Y59072D01*
X210176Y59911D01*
X210835Y60897D01*
X211288Y61992D01*
X211520Y63155D01*
Y63248D01*
D02*
G37*
G36*
X198274Y63485D02*
Y61636D01*
Y59787D01*
X198850Y60025D01*
X199384Y60560D01*
X199574Y61018D01*
X200115D01*
X200165Y60897D01*
X200824Y59911D01*
X201663Y59072D01*
X202649Y58413D01*
X203744Y57960D01*
X204907Y57728D01*
X205000D01*
Y63248D01*
X199329D01*
X199037Y63103D01*
X198998Y63099D01*
X198850Y63247D01*
X198274Y63485D01*
D02*
G37*
G36*
X11963Y57056D02*
Y55707D01*
X13312D01*
X13074Y56283D01*
X12539Y56818D01*
X11963Y57056D01*
D02*
G37*
G36*
X10963D02*
X10387Y56818D01*
X9852Y56283D01*
X9613Y55707D01*
X10963D01*
Y57056D01*
D02*
G37*
G36*
X13312Y54707D02*
X11963D01*
Y53358D01*
X12539Y53596D01*
X13074Y54131D01*
X13312Y54707D01*
D02*
G37*
G36*
X10963D02*
X9613D01*
X9852Y54131D01*
X10387Y53596D01*
X10963Y53358D01*
Y54707D01*
D02*
G37*
G36*
X168559Y53152D02*
Y51802D01*
X169909D01*
X169670Y52379D01*
X169136Y52913D01*
X168559Y53152D01*
D02*
G37*
G36*
X167559D02*
X166983Y52913D01*
X166449Y52379D01*
X166210Y51802D01*
X167559D01*
Y53152D01*
D02*
G37*
G36*
X169909Y50803D02*
X168559D01*
Y49453D01*
X169136Y49692D01*
X169670Y50226D01*
X169909Y50803D01*
D02*
G37*
G36*
X167559D02*
X166210D01*
X166449Y50226D01*
X166983Y49692D01*
X167559Y49453D01*
Y50803D01*
D02*
G37*
G36*
X39409Y47039D02*
X38833Y46801D01*
X38466Y46433D01*
X38146Y46320D01*
X37827Y46433D01*
X37460Y46801D01*
X36883Y47039D01*
Y45190D01*
X36383D01*
Y44690D01*
X34534D01*
X34773Y44113D01*
X35307Y43579D01*
X35467Y43513D01*
Y42972D01*
X35290Y42898D01*
X34755Y42364D01*
X34517Y41787D01*
X36366D01*
Y41287D01*
X36866D01*
Y39438D01*
X37442Y39677D01*
X37977Y40211D01*
X38055Y40401D01*
X38596D01*
X38675Y40211D01*
X39209Y39677D01*
X39786Y39438D01*
Y41287D01*
X40286D01*
Y41787D01*
X42135D01*
X41897Y42364D01*
X41362Y42898D01*
X41005Y43046D01*
X40986Y43579D01*
X41520Y44113D01*
X41759Y44690D01*
X39909D01*
Y45190D01*
X39409D01*
Y47039D01*
D02*
G37*
G36*
X40409D02*
Y45690D01*
X41759D01*
X41520Y46266D01*
X40986Y46801D01*
X40409Y47039D01*
D02*
G37*
G36*
X35883D02*
X35307Y46801D01*
X34773Y46266D01*
X34534Y45690D01*
X35883D01*
Y47039D01*
D02*
G37*
G36*
X21500Y46349D02*
Y45000D01*
X22849D01*
X22611Y45576D01*
X22076Y46111D01*
X21500Y46349D01*
D02*
G37*
G36*
X20500D02*
X19924Y46111D01*
X19389Y45576D01*
X19151Y45000D01*
X20500D01*
Y46349D01*
D02*
G37*
G36*
X22849Y44000D02*
X21500D01*
Y42651D01*
X22076Y42889D01*
X22611Y43424D01*
X22849Y44000D01*
D02*
G37*
G36*
X20500D02*
X19151D01*
X19389Y43424D01*
X19924Y42889D01*
X20500Y42651D01*
Y44000D01*
D02*
G37*
G36*
X220507Y59776D02*
X219751D01*
X219053Y59487D01*
X218518Y58952D01*
X218229Y58254D01*
Y57498D01*
X218518Y56800D01*
X218600Y56719D01*
Y46605D01*
X213524Y41529D01*
X206389D01*
X206340Y42029D01*
X207256Y42212D01*
X208351Y42665D01*
X209337Y43324D01*
X210176Y44163D01*
X210835Y45149D01*
X211288Y46244D01*
X211520Y47407D01*
Y48593D01*
X211288Y49756D01*
X210835Y50851D01*
X210176Y51837D01*
X209337Y52676D01*
X208351Y53335D01*
X207256Y53788D01*
X206093Y54020D01*
X204907D01*
X203744Y53788D01*
X202649Y53335D01*
X201663Y52676D01*
X200824Y51837D01*
X200165Y50851D01*
X200047Y50566D01*
X198734D01*
X197821Y50446D01*
X196969Y50093D01*
X196238Y49532D01*
X182247Y35540D01*
X181686Y34809D01*
X181333Y33958D01*
X181213Y33044D01*
Y27483D01*
X180396D01*
Y21152D01*
X183239D01*
X183829Y20908D01*
X184743Y20787D01*
X185656Y20908D01*
X186247Y21152D01*
X188971D01*
X189089Y21152D01*
X189471Y20865D01*
Y19397D01*
X186926Y16853D01*
X180396D01*
Y14801D01*
X178038Y12443D01*
X174992D01*
X174916Y12487D01*
X174025Y12725D01*
X173104D01*
X172214Y12487D01*
X171415Y12026D01*
X170764Y11374D01*
X170303Y10576D01*
X170064Y9686D01*
Y8765D01*
X170303Y7875D01*
X170764Y7076D01*
X171415Y6425D01*
X172214Y5964D01*
X173104Y5725D01*
X174025D01*
X174916Y5964D01*
X175655Y6391D01*
X179291D01*
X180074Y6494D01*
X180804Y6796D01*
X181431Y7277D01*
X184676Y10522D01*
X189089D01*
Y14690D01*
X192081Y17682D01*
X192413Y18178D01*
X192529Y18764D01*
Y27966D01*
X203033Y38471D01*
X214158D01*
X214743Y38587D01*
X215239Y38919D01*
X221211Y44890D01*
X221542Y45386D01*
X221658Y45971D01*
Y56719D01*
X221740Y56800D01*
X222029Y57498D01*
Y58254D01*
X221740Y58952D01*
X221205Y59487D01*
X220507Y59776D01*
D02*
G37*
G36*
X42135Y40788D02*
X40786D01*
Y39438D01*
X41362Y39677D01*
X41897Y40211D01*
X42135Y40788D01*
D02*
G37*
G36*
X125837Y31260D02*
Y29910D01*
X127186D01*
X126947Y30486D01*
X126413Y31021D01*
X125837Y31260D01*
D02*
G37*
G36*
X124837D02*
X124260Y31021D01*
X123726Y30486D01*
X123487Y29910D01*
X124837D01*
Y31260D01*
D02*
G37*
G36*
X127186Y28910D02*
X125837D01*
Y27561D01*
X126413Y27799D01*
X126947Y28334D01*
X127186Y28910D01*
D02*
G37*
G36*
X124837D02*
X123487D01*
X123726Y28334D01*
X124260Y27799D01*
X124837Y27561D01*
Y28910D01*
D02*
G37*
G36*
X128177Y22386D02*
Y21036D01*
X129526D01*
X129288Y21612D01*
X128753Y22147D01*
X128177Y22386D01*
D02*
G37*
G36*
X127177D02*
X126601Y22147D01*
X126066Y21612D01*
X125828Y21036D01*
X127177D01*
Y22386D01*
D02*
G37*
G36*
X129526Y20036D02*
X128177D01*
Y18687D01*
X128753Y18925D01*
X129288Y19460D01*
X129526Y20036D01*
D02*
G37*
G36*
X127177D02*
X125828D01*
X126066Y19460D01*
X126601Y18925D01*
X127177Y18687D01*
Y20036D01*
D02*
G37*
G36*
X200650Y31600D02*
X199350D01*
X198075Y31346D01*
X196874Y30849D01*
X195793Y30127D01*
X194873Y29207D01*
X194151Y28126D01*
X193654Y26925D01*
X193400Y25650D01*
Y24350D01*
X193654Y23075D01*
X194151Y21874D01*
X194873Y20793D01*
X195793Y19873D01*
X196874Y19151D01*
X198075Y18654D01*
X199350Y18400D01*
X200650D01*
X201925Y18654D01*
X203126Y19151D01*
X204207Y19873D01*
X205127Y20793D01*
X205849Y21874D01*
X206346Y23075D01*
X206600Y24350D01*
Y25650D01*
X206346Y26925D01*
X205849Y28126D01*
X205127Y29207D01*
X204207Y30127D01*
X203126Y30849D01*
X201925Y31346D01*
X200650Y31600D01*
D02*
G37*
G36*
X25650D02*
X24350D01*
X23075Y31346D01*
X21874Y30849D01*
X20793Y30127D01*
X19873Y29207D01*
X19151Y28126D01*
X18654Y26925D01*
X18400Y25650D01*
Y24350D01*
X18654Y23075D01*
X19151Y21874D01*
X19873Y20793D01*
X20793Y19873D01*
X21874Y19151D01*
X23075Y18654D01*
X24350Y18400D01*
X25650D01*
X26925Y18654D01*
X28126Y19151D01*
X29207Y19873D01*
X30127Y20793D01*
X30849Y21874D01*
X31346Y23075D01*
X31600Y24350D01*
Y25650D01*
X31346Y26925D01*
X30849Y28126D01*
X30127Y29207D01*
X29207Y30127D01*
X28126Y30849D01*
X26925Y31346D01*
X25650Y31600D01*
D02*
G37*
G36*
X160157Y17308D02*
Y15959D01*
X161507D01*
X161268Y16535D01*
X160733Y17070D01*
X160157Y17308D01*
D02*
G37*
G36*
X159157D02*
X158581Y17070D01*
X158046Y16535D01*
X157808Y15959D01*
X159157D01*
Y17308D01*
D02*
G37*
G36*
X161507Y14959D02*
X160157D01*
Y13610D01*
X160733Y13848D01*
X161268Y14383D01*
X161507Y14959D01*
D02*
G37*
G36*
X159157D02*
X157808D01*
X158046Y14383D01*
X158581Y13848D01*
X159157Y13610D01*
Y14959D01*
D02*
G37*
G36*
X27327Y57691D02*
X26405D01*
X25515Y57453D01*
X24717Y56992D01*
X24065Y56340D01*
X23605Y55542D01*
X23366Y54652D01*
Y53731D01*
X23605Y52840D01*
X23840Y52432D01*
Y43591D01*
X23943Y42808D01*
X24246Y42079D01*
X24726Y41452D01*
X43952Y22226D01*
Y14242D01*
X43717Y13834D01*
X43478Y12944D01*
Y12022D01*
X43717Y11132D01*
X44178Y10334D01*
X44829Y9682D01*
X45627Y9222D01*
X46518Y8983D01*
X47439D01*
X48329Y9222D01*
X49127Y9682D01*
X49779Y10334D01*
X50240Y11132D01*
X50478Y12022D01*
Y12944D01*
X50240Y13834D01*
X50004Y14242D01*
Y23479D01*
X50004Y23479D01*
X49901Y24262D01*
X49599Y24992D01*
X49118Y25619D01*
X49118Y25619D01*
X35811Y38925D01*
X35866Y39069D01*
Y40788D01*
X34147D01*
X34004Y40733D01*
X29892Y44845D01*
Y52432D01*
X30128Y52840D01*
X30366Y53731D01*
Y54652D01*
X30128Y55542D01*
X29667Y56340D01*
X29015Y56992D01*
X28217Y57453D01*
X27327Y57691D01*
D02*
G37*
%LPD*%
G36*
X201663Y43324D02*
X202649Y42665D01*
X203744Y42212D01*
X204660Y42029D01*
X204611Y41529D01*
X202400D01*
X201815Y41413D01*
X201319Y41081D01*
X189919Y29681D01*
X189587Y29185D01*
X189471Y28600D01*
Y27769D01*
X189089Y27483D01*
X188971Y27483D01*
X188273D01*
Y31582D01*
X200197Y43506D01*
X201481D01*
X201663Y43324D01*
D02*
G37*
D12*
X101830Y174900D02*
X101866D01*
X107488Y169278D01*
X112707Y164352D02*
X118222Y158837D01*
X122602D01*
X145886Y149443D02*
X147565D01*
X147585Y149463D02*
X183384D01*
X186272Y146575D02*
X189917D01*
X183384Y149463D02*
X186272Y146575D01*
X145831Y149388D02*
X145886Y149443D01*
X147565D02*
X147585Y149463D01*
X168543Y146191D02*
X172695D01*
X144213Y182991D02*
X144693Y183470D01*
X140692Y182991D02*
X144213D01*
X140692D02*
X140798Y183097D01*
X150139Y155687D02*
X151233Y156782D01*
X153289D02*
X153465Y156606D01*
X151233Y156782D02*
X153289D01*
X141217Y169802D02*
X141303D01*
X139728Y168313D02*
X141217Y169802D01*
X139728Y161790D02*
Y168313D01*
X147261Y165517D02*
X147754D01*
X150716Y168479D01*
X147012Y165268D02*
X147261Y165517D01*
X144760Y163016D02*
X147012Y165268D01*
X145831Y157262D02*
X148057D01*
X150632Y159837D02*
X152642D01*
X148057Y157262D02*
X150632Y159837D01*
X145831Y155687D02*
X150139D01*
X143011Y163016D02*
X144760D01*
X141303Y165451D02*
X142957Y167105D01*
X143043D01*
X141303Y161790D02*
Y165451D01*
X122323Y167118D02*
X123825D01*
X127075Y161845D02*
Y163868D01*
X123825Y167118D02*
X127075Y163868D01*
X122175Y167266D02*
X122323Y167118D01*
X150716Y168479D02*
Y168676D01*
X146370Y91120D02*
X146762Y91512D01*
X139500Y91120D02*
X146370D01*
X138122Y92052D02*
X138766D01*
X136579Y93595D02*
Y138561D01*
Y93595D02*
X138122Y92052D01*
X138766D02*
X139500Y91317D01*
Y91120D02*
Y91317D01*
Y86987D02*
Y87183D01*
Y86987D02*
X142369Y84118D01*
X146228D01*
X146958Y83388D01*
X151387Y74756D02*
X152055Y74089D01*
X148933Y70601D02*
X149461Y71129D01*
X149975Y76169D02*
X151387Y74756D01*
X152055Y74089D02*
Y74089D01*
X146958Y75907D02*
X147220Y76169D01*
X149461Y71129D02*
Y72830D01*
X151387Y74756D01*
X147220Y76169D02*
X149975D01*
X135004Y77121D02*
Y138561D01*
Y77121D02*
X137500Y74625D01*
X134216Y150176D02*
X135004Y150963D01*
Y161790D01*
X138154Y146239D02*
X145831D01*
X136382Y148010D02*
X138154Y146239D01*
X134216Y150176D02*
X136382Y148010D01*
X127075Y161845D02*
X127130Y161790D01*
X139728Y118829D02*
X143367Y115191D01*
Y115191D02*
Y115191D01*
X139728Y118829D02*
Y126900D01*
X143367Y115191D02*
X146795Y111762D01*
Y121605D02*
X154642D01*
X141303Y127097D02*
Y138561D01*
Y127097D02*
X146795Y121605D01*
X139728Y126900D02*
X139728Y126900D01*
X139728Y126900D02*
Y138561D01*
X106437Y192184D02*
X131854Y166767D01*
Y161790D02*
Y166767D01*
X85450Y164352D02*
X106885D01*
X113975Y157262D02*
X122602D01*
X106885Y164352D02*
X113975Y157262D01*
X86543Y162191D02*
X106924D01*
X113428Y155687D01*
X122602D01*
X105103Y160041D02*
X111032Y154113D01*
X122602D01*
X117803Y165479D02*
X120266Y163016D01*
X117768Y165479D02*
X117803D01*
X120266Y163016D02*
X125422D01*
X125555Y161790D02*
Y162883D01*
X125422Y163016D02*
X125555Y162883D01*
X151484Y162995D02*
X151504D01*
X123476Y170546D02*
X128705Y165317D01*
X96347Y167128D02*
X112005D01*
X97360Y141621D02*
X97549Y141809D01*
X145831Y158837D02*
X147327D01*
X103888Y141809D02*
X106743Y144664D01*
X115423Y170546D02*
X123476D01*
X147327Y158837D02*
X151484Y162995D01*
X112005Y167128D02*
X115423Y170546D01*
X128705Y161790D02*
Y165317D01*
X97549Y141809D02*
X103888D01*
X106743Y144664D02*
X122602D01*
X128705Y131357D02*
Y138561D01*
X123043Y123284D02*
X123482Y123723D01*
Y124368D01*
X128630Y130494D02*
Y131282D01*
X123482Y124368D02*
X123573Y124459D01*
Y125437D01*
X128630Y130494D01*
Y131282D02*
X128705Y131357D01*
X106196Y150963D02*
X122602D01*
X87684Y154365D02*
X102795D01*
X106196Y150963D01*
X136653Y163544D02*
Y171351D01*
X139728Y174426D01*
Y178373D01*
X95500Y201000D02*
X130280Y166220D01*
X107811Y143089D02*
X122602D01*
X89046Y139471D02*
X104192D01*
X107811Y143089D01*
X145831D02*
X149475D01*
X153463Y139101D02*
X156823D01*
X149475Y143089D02*
X153463Y139101D01*
X142878Y137085D02*
X145695Y134268D01*
Y133512D02*
Y134268D01*
Y133512D02*
X147020Y132187D01*
X105103Y147813D02*
X122602D01*
X103655Y149262D02*
X105103Y147813D01*
X87487Y149262D02*
X103655D01*
X145831Y150963D02*
X183384D01*
X189783Y157362D01*
X145831Y154113D02*
X154013D01*
X190575Y180370D02*
X190772Y180567D01*
X190037Y179833D02*
X190575Y180370D01*
X179733Y179833D02*
X190037D01*
X154013Y154113D02*
X179733Y179833D01*
X106437Y192184D02*
Y200063D01*
X105500Y201000D02*
X106437Y200063D01*
X135004Y161790D02*
Y174097D01*
X135738Y174832D02*
X135791D01*
X135004Y174097D02*
X135738Y174832D01*
X146795Y111762D02*
X148370D01*
X155736D01*
X145831Y144664D02*
X164362D01*
X168346Y140680D01*
X131854Y126435D02*
Y138561D01*
X128063Y122644D02*
X131854Y126435D01*
X133429Y104184D02*
Y138561D01*
X123393Y94148D02*
X133429Y104184D01*
X104557Y146239D02*
X122602D01*
X104033Y146762D02*
X104557Y146239D01*
X85076Y146762D02*
X104033D01*
X170915Y168894D02*
X189917D01*
X99518Y159762D02*
X106743Y152538D01*
X84554Y159762D02*
X99518D01*
X138154Y170730D02*
X143350Y175927D01*
X144675Y177959D02*
X144693D01*
X143350Y176634D02*
X144675Y177959D01*
X143350Y175927D02*
Y176634D01*
X138154Y107632D02*
X142594Y103191D01*
X157543D01*
X176212D01*
X114799Y136406D02*
Y139546D01*
Y136191D02*
Y136406D01*
X118109Y131116D02*
X124704Y137711D01*
X125555Y137843D02*
Y138561D01*
X125422Y137711D02*
X125555Y137843D01*
X91535Y136502D02*
X96921Y131116D01*
X124704Y137711D02*
X125422D01*
X96921Y131116D02*
X118109D01*
X87375Y136502D02*
X91535D01*
X85381Y151762D02*
X103276D01*
X121075Y125061D02*
X127130Y131116D01*
X121075Y123284D02*
Y125061D01*
X130280Y128995D02*
Y138561D01*
X125012Y123727D02*
X130280Y128995D01*
X84554Y164896D02*
X84906D01*
X85450Y164352D01*
X142878Y137085D02*
Y138561D01*
X127130Y131116D02*
Y138561D01*
X130280Y161790D02*
Y166220D01*
X138154Y107632D02*
Y138561D01*
X136579Y161790D02*
X136634Y161845D01*
Y163524D01*
X136653Y163544D01*
X138154Y161790D02*
Y170730D01*
X106743Y152538D02*
X122602D01*
X142878Y161790D02*
Y162883D01*
X143011Y163016D01*
X103276Y151762D02*
X105650Y149388D01*
X122602D01*
X145831Y152538D02*
X154559D01*
X170915Y168894D01*
X114799Y139546D02*
X116768Y141514D01*
X122602D01*
X125012Y123284D02*
Y123727D01*
X127620Y122644D02*
X128063D01*
X168346Y140680D02*
X168543D01*
X189783Y157362D02*
X189980D01*
X147020Y132187D02*
X147216D01*
X124066Y204101D02*
X124263Y203904D01*
X144818Y183595D02*
X150688D01*
X176212Y103191D02*
X181000Y107979D01*
Y108648D01*
X189917Y168894D02*
X190378Y168432D01*
X162728Y131278D02*
X168646D01*
X169201Y130723D01*
X169553D01*
X189980Y141610D02*
X190575Y142205D01*
Y145917D01*
X189917Y146575D02*
X190575Y145917D01*
X189980Y157362D02*
X190606Y156736D01*
Y153359D02*
Y156736D01*
X189980Y152732D02*
X190606Y153359D01*
X190575Y175720D02*
X190901Y175394D01*
X190575Y175720D02*
Y180370D01*
X190772Y180567D01*
X189917Y164059D02*
X190378Y164520D01*
Y168432D01*
X123043Y108422D02*
Y108618D01*
X121718Y107097D02*
X123043Y108422D01*
X121522Y107097D02*
X121718D01*
X113929Y99504D02*
X121522Y107097D01*
X111109Y99504D02*
X113929D01*
X114799Y136191D02*
X115014Y136406D01*
X119158D01*
X123043Y108618D02*
Y111914D01*
X125012Y113882D01*
Y116099D01*
X110912Y118855D02*
X114171D01*
X116287Y116739D01*
X118466D01*
X155240Y122203D02*
X155839Y121605D01*
X154642Y121605D02*
X155240Y122203D01*
X155240D01*
D18*
X212772Y139829D02*
X214098D01*
X210991Y141610D02*
X212772Y139829D01*
X193917Y141610D02*
X210991D01*
X213160Y180137D02*
X214098Y179199D01*
X194709Y180567D02*
X210733D01*
X211163Y180137D01*
X213160D01*
X193854Y168894D02*
X194085Y169125D01*
X213866D01*
X214098Y169357D01*
X196012Y159260D02*
X213844D01*
X214098Y159514D01*
X193854Y146575D02*
X202539D01*
X213426Y149000D02*
X214098Y149672D01*
X202539Y146575D02*
X204965Y149000D01*
X213426D01*
X193854Y146575D02*
X193854Y146575D01*
X194114Y157362D02*
X196012Y159260D01*
X193917Y157362D02*
X194114D01*
X174809Y140660D02*
X175000Y140469D01*
X169425Y140660D02*
X174809D01*
X162335Y138904D02*
X164707Y136531D01*
X175000D01*
X162335Y138904D02*
Y139101D01*
X139728Y182506D02*
X140213Y182991D01*
X139728Y182309D02*
Y182506D01*
X140213Y182991D02*
X140692D01*
X144320Y183097D02*
X144818Y183595D01*
X157746Y95636D02*
X157802D01*
X154681Y92572D02*
X157746Y95636D01*
X152273Y91512D02*
X153333Y92572D01*
X154681D01*
X154445Y70601D02*
Y70798D01*
X156271Y79647D02*
X156952Y78966D01*
X156799Y74308D02*
X156952Y74461D01*
X156799Y73151D02*
Y74308D01*
X155226Y79647D02*
X156271D01*
X154445Y70798D02*
X156799Y73151D01*
X156952Y74461D02*
Y78966D01*
X146150Y140180D02*
Y141195D01*
Y140180D02*
X148577Y137752D01*
X148624D01*
Y137705D02*
Y137752D01*
Y137705D02*
X154854Y131475D01*
Y131278D02*
Y131475D01*
X62458Y177263D02*
X64197D01*
X60585Y167400D02*
Y175390D01*
X62458Y177263D01*
X46905D02*
X47052D01*
X48925Y149000D02*
Y175390D01*
X47052Y177263D02*
X48925Y175390D01*
X191000Y28600D02*
X202400Y40000D01*
X214158D02*
X220129Y45971D01*
X202400Y40000D02*
X214158D01*
X121192Y116217D02*
Y118904D01*
X121764Y119475D02*
Y119691D01*
X121075Y116099D02*
X121192Y116217D01*
Y118904D02*
X121764Y119475D01*
X123232Y115845D02*
Y117554D01*
X118606Y111219D02*
X123232Y115845D01*
X111808Y108618D02*
X117531D01*
X155002Y79871D02*
X155226Y79647D01*
X151245Y79871D02*
X155002D01*
X151092Y80024D02*
X151245Y79871D01*
X111109Y110190D02*
Y113146D01*
X112248Y108835D02*
Y109052D01*
X111109Y110190D02*
X112248Y109052D01*
X157543Y99223D02*
Y99254D01*
X157673Y95766D02*
X157802Y95636D01*
X157673Y95766D02*
Y99093D01*
X157543Y99223D02*
X157673Y99093D01*
X191000Y18764D02*
Y28600D01*
X185924Y13687D02*
X191000Y18764D01*
X46905Y193594D02*
Y200120D01*
X64197Y196366D02*
Y200120D01*
X59831Y192000D02*
X64197Y196366D01*
X164682Y202807D02*
X164924Y202565D01*
X164682Y191193D02*
X165356Y190519D01*
X125012Y119423D02*
X126904D01*
X127620Y118707D01*
X125012Y119334D02*
Y119423D01*
X123232Y117554D02*
X125012Y119334D01*
X147216Y126676D02*
X151138D01*
X151827Y125987D01*
X152043D01*
X123043Y108618D02*
X123766Y109341D01*
X127685D01*
X110716Y119052D02*
X110912Y118855D01*
X110716Y119052D02*
Y123357D01*
X195843Y165874D02*
X198256D01*
X194051Y164059D02*
X194535Y164543D01*
X193854Y164059D02*
X194051D01*
X194535Y164543D02*
Y164566D01*
X195843Y165874D01*
X193917Y152732D02*
X194202Y153017D01*
X195918D02*
X198057Y155156D01*
X194202Y153017D02*
X195918D01*
X184743Y13687D02*
X185924D01*
X220129Y45971D02*
Y57876D01*
X104741Y136191D02*
X109287D01*
X198120Y177074D02*
X198256Y177209D01*
X196715Y177074D02*
X198120D01*
X195035Y175394D02*
X196715Y177074D01*
X194838Y175394D02*
X195035D01*
X128200Y192497D02*
X128498Y192795D01*
X156319Y168585D02*
X161478D01*
X156228Y168676D02*
X156319Y168585D01*
X159775Y121605D02*
X159848Y121532D01*
X164131D01*
X164204Y121459D01*
X159673Y111762D02*
X159746Y111689D01*
X164029D01*
X164102Y111616D01*
X127620Y118707D02*
Y120676D01*
X118606Y109693D02*
Y111219D01*
X117531Y108618D02*
X118606Y109693D01*
X110912Y113343D02*
X111987Y114418D01*
X110912Y113343D02*
X111109Y113146D01*
D19*
X0Y0D02*
Y225000D01*
X225000D01*
Y0D02*
Y225000D01*
X0Y0D02*
X225000D01*
D21*
X156228Y168676D02*
D03*
X150716D02*
D03*
X114799Y136191D02*
D03*
X109287D02*
D03*
X156823Y139101D02*
D03*
X162335D02*
D03*
X123043Y108618D02*
D03*
X117531D02*
D03*
X148933Y70601D02*
D03*
X154445D02*
D03*
X146762Y91512D02*
D03*
X152273D02*
D03*
D23*
X155736Y111762D02*
D03*
X159673D02*
D03*
X155839Y121605D02*
D03*
X159775D02*
D03*
X146760Y192220D02*
D03*
X142823D02*
D03*
X124263Y192497D02*
D03*
X128200D02*
D03*
X124066Y204101D02*
D03*
X128003D02*
D03*
X189980Y141610D02*
D03*
X193917D02*
D03*
X189917Y146575D02*
D03*
X193854D02*
D03*
X193917Y152732D02*
D03*
X189980D02*
D03*
Y157362D02*
D03*
X193917D02*
D03*
X193854Y164059D02*
D03*
X189917D02*
D03*
X193854Y168894D02*
D03*
X189917D02*
D03*
X190901Y175394D02*
D03*
X194838D02*
D03*
X190772Y180567D02*
D03*
X194709D02*
D03*
X131854Y174832D02*
D03*
X135791D02*
D03*
D24*
X154854Y131278D02*
D03*
X162728D02*
D03*
D26*
X175000Y136531D02*
D03*
Y140469D02*
D03*
X132642Y192497D02*
D03*
Y188560D02*
D03*
X157543Y103191D02*
D03*
Y99254D02*
D03*
X132356Y179160D02*
D03*
Y183097D02*
D03*
X132947Y198060D02*
D03*
Y201997D02*
D03*
X139728Y178373D02*
D03*
Y182309D02*
D03*
X139500Y91120D02*
D03*
Y87183D02*
D03*
D27*
X168543Y146191D02*
D03*
Y140680D02*
D03*
X147216Y132187D02*
D03*
Y126676D02*
D03*
X110912Y118855D02*
D03*
Y113343D02*
D03*
X144693Y183470D02*
D03*
Y177959D02*
D03*
D45*
X46978Y12483D02*
Y23479D01*
X26866Y43591D02*
X46978Y23479D01*
X26866Y43591D02*
Y54191D01*
X179291Y9417D02*
X183562Y13687D01*
X173565Y9225D02*
X173756Y9417D01*
X179291D01*
X183562Y13687D02*
X184743D01*
D47*
X30935Y172620D02*
Y173161D01*
Y172620D02*
X31810Y171744D01*
Y138117D02*
Y171744D01*
D49*
X214098Y179199D02*
D03*
Y169357D02*
D03*
Y159514D02*
D03*
Y149672D02*
D03*
Y139829D02*
D03*
Y129987D02*
D03*
X13043Y144662D02*
D03*
Y154505D02*
D03*
Y164348D02*
D03*
Y174191D02*
D03*
D50*
X25000Y25000D02*
D03*
Y200000D02*
D03*
X200000D02*
D03*
Y25000D02*
D03*
D51*
X205500Y63748D02*
D03*
Y48000D02*
D03*
D52*
X95500Y201000D02*
D03*
X105500D02*
D03*
D53*
X115500D02*
D03*
D54*
X181000Y108648D02*
D03*
Y118491D02*
D03*
X180500Y197664D02*
D03*
Y187821D02*
D03*
D55*
X210000Y120000D02*
D03*
Y80000D02*
D03*
X180000Y140000D02*
D03*
X190000Y120000D02*
D03*
X180000Y100000D02*
D03*
X190000Y80000D02*
D03*
X180000Y60000D02*
D03*
X160000Y180000D02*
D03*
X170000Y160000D02*
D03*
Y120000D02*
D03*
X140000Y100000D02*
D03*
Y20000D02*
D03*
X120000Y100000D02*
D03*
Y20000D02*
D03*
X100000Y60000D02*
D03*
Y20000D02*
D03*
X90000Y120000D02*
D03*
X80000Y100000D02*
D03*
X90000Y40000D02*
D03*
X70000Y120000D02*
D03*
X60000Y60000D02*
D03*
X70000Y40000D02*
D03*
X60000Y20000D02*
D03*
X50000Y120000D02*
D03*
X40000Y100000D02*
D03*
X50000Y40000D02*
D03*
X40000Y20000D02*
D03*
X20000Y180000D02*
D03*
Y140000D02*
D03*
Y100000D02*
D03*
D56*
X46978Y12483D02*
D03*
X30935Y173161D02*
D03*
X173565Y9225D02*
D03*
X31810Y138117D02*
D03*
X26866Y54191D02*
D03*
D57*
X101830Y174900D02*
D03*
X112707Y164352D02*
D03*
X107488Y169278D02*
D03*
X172695Y146191D02*
D03*
X170642Y191193D02*
D03*
X153465Y156606D02*
D03*
X141303Y169802D02*
D03*
X147012Y165268D02*
D03*
X152642Y159837D02*
D03*
X143043Y167105D02*
D03*
X122175Y167266D02*
D03*
X130240Y74638D02*
D03*
X132097Y92302D02*
D03*
X156952Y74461D02*
D03*
X137500Y74625D02*
D03*
X105103Y160041D02*
D03*
X117768Y165479D02*
D03*
X96347Y167128D02*
D03*
X151504Y162995D02*
D03*
X148624Y137752D02*
D03*
X97360Y141621D02*
D03*
X74617Y201000D02*
D03*
Y193423D02*
D03*
X75445Y183692D02*
D03*
X60585Y167400D02*
D03*
X127677Y20536D02*
D03*
X124263Y198201D02*
D03*
X160405Y185152D02*
D03*
X150688Y183595D02*
D03*
X218846Y114230D02*
D03*
X214251Y87045D02*
D03*
X112248Y108835D02*
D03*
X97050Y102960D02*
D03*
X74357Y106589D02*
D03*
X4293Y81409D02*
D03*
X170490Y202565D02*
D03*
X21000Y44500D02*
D03*
X46905Y193594D02*
D03*
X59831Y192000D02*
D03*
X48925Y149000D02*
D03*
X210712Y69500D02*
D03*
X11463Y55207D02*
D03*
X152055Y74089D02*
D03*
X36366Y41287D02*
D03*
X40286D02*
D03*
X39909Y45190D02*
D03*
X36383D02*
D03*
X151092Y80024D02*
D03*
X125012Y119423D02*
D03*
X110716Y123357D02*
D03*
X127685Y109341D02*
D03*
X157802Y95636D02*
D03*
X104741Y136191D02*
D03*
X158903Y172780D02*
D03*
X124385Y101463D02*
D03*
X121764Y119691D02*
D03*
X119158Y136406D02*
D03*
X202593Y108486D02*
D03*
X111109Y99504D02*
D03*
X84195Y116542D02*
D03*
X43838Y132101D02*
D03*
X21543Y108052D02*
D03*
X11043Y115652D02*
D03*
X161478Y168585D02*
D03*
X16314Y61239D02*
D03*
X220129Y57876D02*
D03*
X152043Y125987D02*
D03*
X169553Y130723D02*
D03*
X198274Y155156D02*
D03*
Y177227D02*
D03*
Y165892D02*
D03*
X125337Y29410D02*
D03*
X106805Y77813D02*
D03*
X118612Y80636D02*
D03*
X57227Y131289D02*
D03*
X89153Y64636D02*
D03*
X68287D02*
D03*
X78605D02*
D03*
X159657Y15459D02*
D03*
X168059Y51302D02*
D03*
X214543Y64191D02*
D03*
X197774Y61636D02*
D03*
X200275Y69136D02*
D03*
X173109Y61849D02*
D03*
X172609Y75557D02*
D03*
X173043Y68435D02*
D03*
Y83577D02*
D03*
X164102Y111616D02*
D03*
X164204Y121459D02*
D03*
X89046Y139471D02*
D03*
X87375Y136502D02*
D03*
X123393Y94148D02*
D03*
X86543Y162191D02*
D03*
X84554Y159762D02*
D03*
Y164896D02*
D03*
X87684Y154365D02*
D03*
X85381Y151762D02*
D03*
X87487Y149262D02*
D03*
X85076Y146762D02*
D03*
D58*
X140712Y143680D02*
D03*
Y148010D02*
D03*
Y152341D02*
D03*
Y156672D02*
D03*
X136382Y143680D02*
D03*
Y148010D02*
D03*
Y152341D02*
D03*
Y156672D02*
D03*
X132051Y143680D02*
D03*
Y148010D02*
D03*
Y152341D02*
D03*
Y156672D02*
D03*
X127720Y143680D02*
D03*
Y148010D02*
D03*
Y152341D02*
D03*
Y156672D02*
D03*
X63213Y161987D02*
D03*
X67543D02*
D03*
X71874D02*
D03*
X63213Y157656D02*
D03*
X67543D02*
D03*
X71874D02*
D03*
X63213Y153325D02*
D03*
X67543D02*
D03*
X71874D02*
D03*
X63213Y148995D02*
D03*
X67543D02*
D03*
X71874D02*
D03*
X63213Y144664D02*
D03*
X67543D02*
D03*
X71874D02*
D03*
D74*
X142878Y138561D02*
D03*
X141303D02*
D03*
X139728D02*
D03*
X138154D02*
D03*
X136579D02*
D03*
X135004D02*
D03*
X133429D02*
D03*
X131854D02*
D03*
X130280D02*
D03*
X128705D02*
D03*
X127130D02*
D03*
X125555D02*
D03*
Y161790D02*
D03*
X127130D02*
D03*
X128705D02*
D03*
X130280D02*
D03*
X131854D02*
D03*
X133429D02*
D03*
X135004D02*
D03*
X136579D02*
D03*
X138154D02*
D03*
X139728D02*
D03*
X141303D02*
D03*
X142878D02*
D03*
D75*
X122602Y141514D02*
D03*
Y143089D02*
D03*
Y144664D02*
D03*
Y146239D02*
D03*
Y147813D02*
D03*
Y149388D02*
D03*
Y150963D02*
D03*
Y152538D02*
D03*
Y154113D02*
D03*
Y155687D02*
D03*
Y157262D02*
D03*
Y158837D02*
D03*
X145831D02*
D03*
Y157262D02*
D03*
Y155687D02*
D03*
Y154113D02*
D03*
Y152538D02*
D03*
Y150963D02*
D03*
Y149388D02*
D03*
Y147813D02*
D03*
Y146239D02*
D03*
Y144664D02*
D03*
Y143089D02*
D03*
Y141514D02*
D03*
D76*
X134216Y150176D02*
D03*
D77*
X148370Y121605D02*
D03*
Y111762D02*
D03*
D78*
X133043Y208998D02*
D03*
Y222384D02*
D03*
D79*
X64197Y177263D02*
D03*
Y200120D02*
D03*
X46905D02*
D03*
Y177263D02*
D03*
D80*
X164682Y202807D02*
D03*
Y191193D02*
D03*
D81*
X158679Y197000D02*
D03*
D82*
X146958Y75907D02*
D03*
Y83388D02*
D03*
X155226Y79647D02*
D03*
D83*
X184743Y24317D02*
D03*
Y13687D02*
D03*
D84*
X127620Y122644D02*
D03*
Y120676D02*
D03*
Y118707D02*
D03*
Y116739D02*
D03*
X118466D02*
D03*
Y118707D02*
D03*
Y120676D02*
D03*
Y122644D02*
D03*
D85*
X125012Y116099D02*
D03*
X123043D02*
D03*
X121075D02*
D03*
Y123284D02*
D03*
X123043D02*
D03*
X125012D02*
D03*
D86*
X153800Y192220D02*
X158580Y197000D01*
X146760Y192220D02*
X153800D01*
X165356Y190519D02*
X166030Y191193D01*
X170642D01*
X133429Y161790D02*
Y173454D01*
X132051Y174832D02*
X133429Y173454D01*
X124263Y192497D02*
Y203904D01*
X132493Y192646D02*
X132642Y192497D01*
X128349Y192646D02*
X132493D01*
X132642Y192497D02*
X132979Y192160D01*
X132642Y192497D02*
X132947Y192802D01*
Y198060D01*
X132979Y192160D02*
X140798D01*
X140859Y192220D02*
X142823D01*
X140798Y192160D02*
X140859Y192220D01*
X132356Y188275D02*
X132642Y188560D01*
X132356Y183097D02*
Y188275D01*
X132356Y183097D02*
X132356Y183097D01*
X133043Y202094D02*
Y204101D01*
X132947Y201997D02*
X133043Y202094D01*
X158580Y197000D02*
X158679D01*
X164924Y202565D02*
X170490D01*
X132356Y179160D02*
X132356Y179160D01*
X132356Y175334D02*
Y179160D01*
X131854Y174832D02*
X132356Y175334D01*
X128003Y204101D02*
X133043D01*
Y208998D01*
D87*
X204536Y47036D02*
X205500Y48000D01*
X198734Y47036D02*
X204536D01*
X184743Y33044D02*
X198734Y47036D01*
X184743Y24317D02*
Y33044D01*
M02*
