G04*
G04 #@! TF.GenerationSoftware,Altium Limited,Altium Designer,21.5.1 (32)*
G04*
G04 Layer_Color=65535*
%FSLAX25Y25*%
%MOIN*%
G70*
G04*
G04 #@! TF.SameCoordinates,64746D64-8A43-43D4-A90E-1700155CBDCF*
G04*
G04*
G04 #@! TF.FilePolarity,Positive*
G04*
G01*
G75*
%ADD10C,0.00787*%
%ADD11C,0.01575*%
%ADD12C,0.00984*%
%ADD13C,0.00500*%
%ADD14C,0.01000*%
%ADD15C,0.00600*%
D10*
X408831Y235685D02*
G03*
X408831Y235685I-394J0D01*
G01*
X385803Y313661D02*
G03*
X385803Y313661I-394J0D01*
G01*
X458776Y440925D02*
Y444075D01*
X468224Y440925D02*
Y444075D01*
X471276Y440925D02*
Y444075D01*
X480724Y440925D02*
Y444075D01*
X438000Y333941D02*
Y339059D01*
X366500Y292941D02*
Y298059D01*
X361669Y308409D02*
Y309591D01*
X470941Y216500D02*
X476059D01*
X479358Y250402D02*
X497469D01*
X511642D02*
X517941D01*
X529752Y238591D01*
Y200008D02*
Y238591D01*
X479358Y200008D02*
Y250402D01*
Y200008D02*
X497469D01*
X511642D02*
X529752D01*
X380441Y273000D02*
X385559D01*
X369941D02*
X375059D01*
X449941Y227000D02*
X455059D01*
X427000Y228441D02*
Y233559D01*
X410406Y254244D02*
Y257394D01*
X407256Y254244D02*
X410406D01*
X398594D02*
Y257394D01*
Y254244D02*
X401744D01*
X427000Y217941D02*
Y223059D01*
X423000Y191441D02*
Y196559D01*
X447000Y186441D02*
Y191559D01*
X414595Y254244D02*
X417744D01*
X414595D02*
Y257394D01*
X423256Y254244D02*
X426406D01*
Y257394D01*
X416000Y238941D02*
Y244059D01*
X481441Y421500D02*
X486559D01*
X494500Y402441D02*
Y407559D01*
X433441Y408500D02*
X438559D01*
X491941Y421500D02*
X497059D01*
X452941Y379000D02*
X458059D01*
X431941D02*
X437059D01*
X421441D02*
X426559D01*
X471941Y363000D02*
X477059D01*
X442441Y379000D02*
X447559D01*
X449941Y425500D02*
X455059D01*
X439441Y443500D02*
X444559D01*
X449941D02*
X455059D01*
X444500Y391941D02*
Y397059D01*
X461441Y354000D02*
X466559D01*
X480618Y393496D02*
Y396646D01*
X483768D01*
X480618Y384835D02*
Y387984D01*
Y384835D02*
X483768D01*
X332500Y304941D02*
Y310059D01*
X450441Y354000D02*
X455559D01*
X361441Y320500D02*
X366559D01*
D11*
X513849Y195676D02*
G03*
X513849Y195676I-894J0D01*
G01*
D12*
X408339Y251685D02*
G03*
X408339Y251685I-492J0D01*
G01*
X424339D02*
G03*
X424339Y251685I-492J0D01*
G01*
X478551Y387394D02*
G03*
X478551Y387394I-492J0D01*
G01*
D13*
X398398Y221315D02*
Y225252D01*
Y229583D02*
Y233520D01*
X410602Y221315D02*
Y225252D01*
Y229583D02*
Y233520D01*
X389189Y315354D02*
Y316811D01*
Y293189D02*
Y294646D01*
X412811Y315354D02*
Y316811D01*
Y293189D02*
Y294646D01*
X389189Y316811D02*
X390646D01*
X389189Y293189D02*
X390646D01*
X411354Y316811D02*
X412811D01*
X411354Y293189D02*
X412811D01*
D14*
X449720Y199594D02*
Y214594D01*
X435720Y199594D02*
Y214594D01*
X434500Y199500D02*
Y214500D01*
X420500Y199500D02*
Y214500D01*
X463000Y420000D02*
X478000D01*
X463000Y406000D02*
X478000D01*
X442000Y401000D02*
X457000D01*
X442000Y415000D02*
X457000D01*
X403000Y212501D02*
Y216499D01*
X402001Y217499D01*
X400001D01*
X399002Y216499D01*
Y212501D01*
X400001Y211501D01*
X402001D01*
X401001Y213500D02*
X403000Y211501D01*
X402001D02*
X403000Y212501D01*
X407999Y211501D02*
Y217499D01*
X405000Y214500D01*
X408998D01*
D15*
X422434Y351967D02*
X421901Y351434D01*
Y350367D01*
X422434Y349834D01*
X424566D01*
X425100Y350367D01*
Y351434D01*
X424566Y351967D01*
X425100Y355166D02*
Y353033D01*
X422967Y355166D01*
X422434D01*
X421901Y354633D01*
Y353566D01*
X422434Y353033D01*
X364434Y335367D02*
X363900Y334834D01*
Y333768D01*
X364434Y333235D01*
X366566D01*
X367099Y333768D01*
Y334834D01*
X366566Y335367D01*
X367099Y338566D02*
Y336434D01*
X364967Y338566D01*
X364434D01*
X363900Y338033D01*
Y336967D01*
X364434Y336434D01*
Y339633D02*
X363900Y340166D01*
Y341232D01*
X364434Y341765D01*
X364967D01*
X365500Y341232D01*
Y340699D01*
Y341232D01*
X366033Y341765D01*
X366566D01*
X367099Y341232D01*
Y340166D01*
X366566Y339633D01*
X500768Y263599D02*
Y260401D01*
X502901D01*
X506100Y263066D02*
X505566Y263599D01*
X504500D01*
X503967Y263066D01*
Y262533D01*
X504500Y262000D01*
X505566D01*
X506100Y261467D01*
Y260934D01*
X505566Y260401D01*
X504500D01*
X503967Y260934D01*
X507166Y260401D02*
X508232D01*
X507699D01*
Y263599D01*
X507166Y263066D01*
X424367Y316599D02*
Y313934D01*
X424900Y313401D01*
X425967D01*
X426500Y313934D01*
Y316599D01*
X427566Y313401D02*
X428633D01*
X428099D01*
Y316599D01*
X427566Y316066D01*
X454400Y245265D02*
X457599D01*
Y243666D01*
X457066Y243133D01*
X456000D01*
X455467Y243666D01*
Y245265D01*
Y244199D02*
X454400Y243133D01*
X457066Y242066D02*
X457599Y241533D01*
Y240467D01*
X457066Y239934D01*
X456533D01*
X456000Y240467D01*
Y241000D01*
Y240467D01*
X455467Y239934D01*
X454934D01*
X454400Y240467D01*
Y241533D01*
X454934Y242066D01*
X457066Y238867D02*
X457599Y238334D01*
Y237268D01*
X457066Y236735D01*
X456533D01*
X456000Y237268D01*
X455467Y236735D01*
X454934D01*
X454400Y237268D01*
Y238334D01*
X454934Y238867D01*
X455467D01*
X456000Y238334D01*
X456533Y238867D01*
X457066D01*
X456000Y238334D02*
Y237268D01*
X452735Y195401D02*
Y198600D01*
X454334D01*
X454867Y198066D01*
Y197000D01*
X454334Y196467D01*
X452735D01*
X453801D02*
X454867Y195401D01*
X455934Y198066D02*
X456467Y198600D01*
X457533D01*
X458066Y198066D01*
Y197533D01*
X457533Y197000D01*
X457000D01*
X457533D01*
X458066Y196467D01*
Y195934D01*
X457533Y195401D01*
X456467D01*
X455934Y195934D01*
X459133Y198600D02*
X461265D01*
Y198066D01*
X459133Y195934D01*
Y195401D01*
X445735Y177901D02*
Y181099D01*
X447334D01*
X447867Y180566D01*
Y179500D01*
X447334Y178967D01*
X445735D01*
X446801D02*
X447867Y177901D01*
X448934Y180566D02*
X449467Y181099D01*
X450533D01*
X451066Y180566D01*
Y180033D01*
X450533Y179500D01*
X450000D01*
X450533D01*
X451066Y178967D01*
Y178434D01*
X450533Y177901D01*
X449467D01*
X448934Y178434D01*
X454265Y181099D02*
X453199Y180566D01*
X452133Y179500D01*
Y178434D01*
X452666Y177901D01*
X453732D01*
X454265Y178434D01*
Y178967D01*
X453732Y179500D01*
X452133D01*
X406337Y279949D02*
X409536D01*
Y278350D01*
X409003Y277817D01*
X407937D01*
X407404Y278350D01*
Y279949D01*
Y278883D02*
X406337Y277817D01*
X409003Y276750D02*
X409536Y276217D01*
Y275151D01*
X409003Y274618D01*
X408470D01*
X407937Y275151D01*
Y275684D01*
Y275151D01*
X407404Y274618D01*
X406871D01*
X406337Y275151D01*
Y276217D01*
X406871Y276750D01*
X409536Y271419D02*
Y273552D01*
X407937D01*
X408470Y272485D01*
Y271952D01*
X407937Y271419D01*
X406871D01*
X406337Y271952D01*
Y273018D01*
X406871Y273552D01*
X390235Y283900D02*
Y287100D01*
X391834D01*
X392367Y286566D01*
Y285500D01*
X391834Y284967D01*
X390235D01*
X391301D02*
X392367Y283900D01*
X393434Y286566D02*
X393967Y287100D01*
X395033D01*
X395566Y286566D01*
Y286033D01*
X395033Y285500D01*
X394500D01*
X395033D01*
X395566Y284967D01*
Y284434D01*
X395033Y283900D01*
X393967D01*
X393434Y284434D01*
X398232Y283900D02*
Y287100D01*
X396633Y285500D01*
X398765D01*
X389047Y270306D02*
X392246D01*
Y268707D01*
X391713Y268174D01*
X390647D01*
X390113Y268707D01*
Y270306D01*
Y269240D02*
X389047Y268174D01*
X391713Y267108D02*
X392246Y266574D01*
Y265508D01*
X391713Y264975D01*
X391180D01*
X390647Y265508D01*
Y266041D01*
Y265508D01*
X390113Y264975D01*
X389580D01*
X389047Y265508D01*
Y266574D01*
X389580Y267108D01*
X391713Y263909D02*
X392246Y263375D01*
Y262309D01*
X391713Y261776D01*
X391180D01*
X390647Y262309D01*
Y262842D01*
Y262309D01*
X390113Y261776D01*
X389580D01*
X389047Y262309D01*
Y263375D01*
X389580Y263909D01*
X436701Y178373D02*
X433502D01*
Y179973D01*
X434036Y180506D01*
X435102D01*
X435635Y179973D01*
Y178373D01*
Y179439D02*
X436701Y180506D01*
X434036Y181572D02*
X433502Y182105D01*
Y183171D01*
X434036Y183705D01*
X434569D01*
X435102Y183171D01*
Y182638D01*
Y183171D01*
X435635Y183705D01*
X436168D01*
X436701Y183171D01*
Y182105D01*
X436168Y181572D01*
X436701Y186904D02*
Y184771D01*
X434569Y186904D01*
X434036D01*
X433502Y186370D01*
Y185304D01*
X434036Y184771D01*
X418268Y183400D02*
Y186600D01*
X419867D01*
X420400Y186066D01*
Y185000D01*
X419867Y184467D01*
X418268D01*
X419334D02*
X420400Y183400D01*
X421467Y186066D02*
X422000Y186600D01*
X423066D01*
X423599Y186066D01*
Y185533D01*
X423066Y185000D01*
X422533D01*
X423066D01*
X423599Y184467D01*
Y183934D01*
X423066Y183400D01*
X422000D01*
X421467Y183934D01*
X424666Y183400D02*
X425732D01*
X425199D01*
Y186600D01*
X424666Y186066D01*
X384401Y263765D02*
X387599D01*
Y262166D01*
X387066Y261633D01*
X386000D01*
X385467Y262166D01*
Y263765D01*
Y262699D02*
X384401Y261633D01*
X387066Y260566D02*
X387599Y260033D01*
Y258967D01*
X387066Y258434D01*
X386533D01*
X386000Y258967D01*
Y259500D01*
Y258967D01*
X385467Y258434D01*
X384934D01*
X384401Y258967D01*
Y260033D01*
X384934Y260566D01*
X387066Y257367D02*
X387599Y256834D01*
Y255768D01*
X387066Y255235D01*
X384934D01*
X384401Y255768D01*
Y256834D01*
X384934Y257367D01*
X387066D01*
X468735Y203901D02*
Y207100D01*
X470334D01*
X470867Y206566D01*
Y205500D01*
X470334Y204967D01*
X468735D01*
X469801D02*
X470867Y203901D01*
X474066D02*
X471934D01*
X474066Y206033D01*
Y206566D01*
X473533Y207100D01*
X472467D01*
X471934Y206566D01*
X475133Y204434D02*
X475666Y203901D01*
X476732D01*
X477265Y204434D01*
Y206566D01*
X476732Y207100D01*
X475666D01*
X475133Y206566D01*
Y206033D01*
X475666Y205500D01*
X477265D01*
X367827Y259225D02*
Y262424D01*
X369426D01*
X369959Y261891D01*
Y260825D01*
X369426Y260292D01*
X367827D01*
X368893D02*
X369959Y259225D01*
X373159D02*
X371026D01*
X373159Y261358D01*
Y261891D01*
X372625Y262424D01*
X371559D01*
X371026Y261891D01*
X374225D02*
X374758Y262424D01*
X375824D01*
X376358Y261891D01*
Y261358D01*
X375824Y260825D01*
X376358Y260292D01*
Y259758D01*
X375824Y259225D01*
X374758D01*
X374225Y259758D01*
Y260292D01*
X374758Y260825D01*
X374225Y261358D01*
Y261891D01*
X374758Y260825D02*
X375824D01*
X420235Y271901D02*
Y275099D01*
X421834D01*
X422367Y274566D01*
Y273500D01*
X421834Y272967D01*
X420235D01*
X421301D02*
X422367Y271901D01*
X425566D02*
X423434D01*
X425566Y274033D01*
Y274566D01*
X425033Y275099D01*
X423967D01*
X423434Y274566D01*
X426633Y275099D02*
X428765D01*
Y274566D01*
X426633Y272434D01*
Y271901D01*
X383100Y244735D02*
X379901D01*
Y246334D01*
X380434Y246867D01*
X381500D01*
X382033Y246334D01*
Y244735D01*
Y245801D02*
X383100Y246867D01*
Y250066D02*
Y247934D01*
X380967Y250066D01*
X380434D01*
X379901Y249533D01*
Y248467D01*
X380434Y247934D01*
X379901Y253265D02*
X380434Y252199D01*
X381500Y251133D01*
X382566D01*
X383100Y251666D01*
Y252732D01*
X382566Y253265D01*
X382033D01*
X381500Y252732D01*
Y251133D01*
X388735Y188900D02*
Y192099D01*
X390334D01*
X390867Y191566D01*
Y190500D01*
X390334Y189967D01*
X388735D01*
X389801D02*
X390867Y188900D01*
X394066D02*
X391934D01*
X394066Y191033D01*
Y191566D01*
X393533Y192099D01*
X392467D01*
X391934Y191566D01*
X397265Y192099D02*
X395133D01*
Y190500D01*
X396199Y191033D01*
X396732D01*
X397265Y190500D01*
Y189434D01*
X396732Y188900D01*
X395666D01*
X395133Y189434D01*
X377235Y291900D02*
Y295099D01*
X378834D01*
X379367Y294566D01*
Y293500D01*
X378834Y292967D01*
X377235D01*
X378301D02*
X379367Y291900D01*
X382566D02*
X380434D01*
X382566Y294033D01*
Y294566D01*
X382033Y295099D01*
X380967D01*
X380434Y294566D01*
X385232Y291900D02*
Y295099D01*
X383633Y293500D01*
X385765D01*
X356235Y303400D02*
Y306599D01*
X357834D01*
X358367Y306066D01*
Y305000D01*
X357834Y304467D01*
X356235D01*
X357301D02*
X358367Y303400D01*
X361566D02*
X359434D01*
X361566Y305533D01*
Y306066D01*
X361033Y306599D01*
X359967D01*
X359434Y306066D01*
X362633D02*
X363166Y306599D01*
X364232D01*
X364765Y306066D01*
Y305533D01*
X364232Y305000D01*
X363699D01*
X364232D01*
X364765Y304467D01*
Y303934D01*
X364232Y303400D01*
X363166D01*
X362633Y303934D01*
X387100Y189735D02*
X383900D01*
Y191334D01*
X384434Y191867D01*
X385500D01*
X386033Y191334D01*
Y189735D01*
Y190801D02*
X387100Y191867D01*
Y195066D02*
Y192934D01*
X384967Y195066D01*
X384434D01*
X383900Y194533D01*
Y193467D01*
X384434Y192934D01*
X387100Y198265D02*
Y196133D01*
X384967Y198265D01*
X384434D01*
X383900Y197732D01*
Y196666D01*
X384434Y196133D01*
X393099Y180268D02*
X389900D01*
Y181867D01*
X390434Y182401D01*
X391500D01*
X392033Y181867D01*
Y180268D01*
Y181334D02*
X393099Y182401D01*
Y185600D02*
Y183467D01*
X390967Y185600D01*
X390434D01*
X389900Y185066D01*
Y184000D01*
X390434Y183467D01*
X393099Y186666D02*
Y187732D01*
Y187199D01*
X389900D01*
X390434Y186666D01*
X396099Y237735D02*
X392900D01*
Y239334D01*
X393434Y239867D01*
X394500D01*
X395033Y239334D01*
Y237735D01*
Y238801D02*
X396099Y239867D01*
Y243066D02*
Y240934D01*
X393967Y243066D01*
X393434D01*
X392900Y242533D01*
Y241467D01*
X393434Y240934D01*
Y244133D02*
X392900Y244666D01*
Y245732D01*
X393434Y246265D01*
X395566D01*
X396099Y245732D01*
Y244666D01*
X395566Y244133D01*
X393434D01*
X430038Y395196D02*
Y391997D01*
X428438D01*
X427905Y392530D01*
Y393596D01*
X428438Y394129D01*
X430038D01*
X428971D02*
X427905Y395196D01*
X426839D02*
X425772D01*
X426306D01*
Y391997D01*
X426839Y392530D01*
X424173Y394663D02*
X423640Y395196D01*
X422574D01*
X422040Y394663D01*
Y392530D01*
X422574Y391997D01*
X423640D01*
X424173Y392530D01*
Y393063D01*
X423640Y393596D01*
X422040D01*
X515901Y408499D02*
X519100D01*
Y406899D01*
X518566Y406366D01*
X517500D01*
X516967Y406899D01*
Y408499D01*
Y407432D02*
X515901Y406366D01*
Y405300D02*
Y404233D01*
Y404767D01*
X519100D01*
X518566Y405300D01*
Y402634D02*
X519100Y402101D01*
Y401034D01*
X518566Y400501D01*
X518033D01*
X517500Y401034D01*
X516967Y400501D01*
X516434D01*
X515901Y401034D01*
Y402101D01*
X516434Y402634D01*
X516967D01*
X517500Y402101D01*
X518033Y402634D01*
X518566D01*
X517500Y402101D02*
Y401034D01*
X503900Y408999D02*
X507099D01*
Y407399D01*
X506566Y406866D01*
X505500D01*
X504967Y407399D01*
Y408999D01*
Y407932D02*
X503900Y406866D01*
Y405800D02*
Y404733D01*
Y405267D01*
X507099D01*
X506566Y405800D01*
X507099Y403134D02*
Y401001D01*
X506566D01*
X504434Y403134D01*
X503900D01*
X424600Y397501D02*
X421400D01*
Y399101D01*
X421934Y399634D01*
X423000D01*
X423533Y399101D01*
Y397501D01*
Y398568D02*
X424600Y399634D01*
Y400700D02*
Y401767D01*
Y401233D01*
X421400D01*
X421934Y400700D01*
X421400Y405499D02*
X421934Y404432D01*
X423000Y403366D01*
X424066D01*
X424600Y403899D01*
Y404965D01*
X424066Y405499D01*
X423533D01*
X423000Y404965D01*
Y403366D01*
X378501Y333401D02*
Y336599D01*
X380101D01*
X380634Y336066D01*
Y335000D01*
X380101Y334467D01*
X378501D01*
X379568D02*
X380634Y333401D01*
X381700D02*
X382767D01*
X382233D01*
Y336599D01*
X381700Y336066D01*
X386499Y336599D02*
X384366D01*
Y335000D01*
X385432Y335533D01*
X385965D01*
X386499Y335000D01*
Y333934D01*
X385965Y333401D01*
X384899D01*
X384366Y333934D01*
X430099Y409501D02*
X426900D01*
Y411101D01*
X427434Y411634D01*
X428500D01*
X429033Y411101D01*
Y409501D01*
Y410568D02*
X430099Y411634D01*
Y412700D02*
Y413767D01*
Y413233D01*
X426900D01*
X427434Y412700D01*
X430099Y416965D02*
X426900D01*
X428500Y415366D01*
Y417499D01*
X390599Y341001D02*
X387401D01*
Y342601D01*
X387934Y343134D01*
X389000D01*
X389533Y342601D01*
Y341001D01*
Y342068D02*
X390599Y343134D01*
Y344200D02*
Y345267D01*
Y344733D01*
X387401D01*
X387934Y344200D01*
Y346866D02*
X387401Y347399D01*
Y348465D01*
X387934Y348999D01*
X388467D01*
X389000Y348465D01*
Y347932D01*
Y348465D01*
X389533Y348999D01*
X390066D01*
X390599Y348465D01*
Y347399D01*
X390066Y346866D01*
X487501Y367401D02*
Y370600D01*
X489101D01*
X489634Y370066D01*
Y369000D01*
X489101Y368467D01*
X487501D01*
X488568D02*
X489634Y367401D01*
X490700D02*
X491767D01*
X491233D01*
Y370600D01*
X490700Y370066D01*
X495499Y367401D02*
X493366D01*
X495499Y369533D01*
Y370066D01*
X494966Y370600D01*
X493899D01*
X493366Y370066D01*
X496901Y370465D02*
X500100D01*
Y368866D01*
X499566Y368333D01*
X498500D01*
X497967Y368866D01*
Y370465D01*
Y369399D02*
X496901Y368333D01*
Y367267D02*
Y366200D01*
Y366733D01*
X500100D01*
X499566Y367267D01*
X496901Y364601D02*
Y363534D01*
Y364068D01*
X500100D01*
X499566Y364601D01*
X502400Y370499D02*
X505599D01*
Y368899D01*
X505066Y368366D01*
X504000D01*
X503467Y368899D01*
Y370499D01*
Y369432D02*
X502400Y368366D01*
Y367300D02*
Y366233D01*
Y366767D01*
X505599D01*
X505066Y367300D01*
Y364634D02*
X505599Y364101D01*
Y363035D01*
X505066Y362501D01*
X502934D01*
X502400Y363035D01*
Y364101D01*
X502934Y364634D01*
X505066D01*
X469436Y388665D02*
X472635D01*
Y387065D01*
X472102Y386532D01*
X471035D01*
X470502Y387065D01*
Y388665D01*
Y387598D02*
X469436Y386532D01*
X469969Y385466D02*
X469436Y384932D01*
Y383866D01*
X469969Y383333D01*
X472102D01*
X472635Y383866D01*
Y384932D01*
X472102Y385466D01*
X471569D01*
X471035Y384932D01*
Y383333D01*
X459334Y428900D02*
Y432099D01*
X460934D01*
X461467Y431566D01*
Y430500D01*
X460934Y429967D01*
X459334D01*
X460400D02*
X461467Y428900D01*
X462533Y431566D02*
X463066Y432099D01*
X464133D01*
X464666Y431566D01*
Y431033D01*
X464133Y430500D01*
X464666Y429967D01*
Y429434D01*
X464133Y428900D01*
X463066D01*
X462533Y429434D01*
Y429967D01*
X463066Y430500D01*
X462533Y431033D01*
Y431566D01*
X463066Y430500D02*
X464133D01*
X440334Y453401D02*
Y456600D01*
X441934D01*
X442467Y456066D01*
Y455000D01*
X441934Y454467D01*
X440334D01*
X441400D02*
X442467Y453401D01*
X443533Y456600D02*
X445666D01*
Y456066D01*
X443533Y453934D01*
Y453401D01*
X492666Y365599D02*
Y362401D01*
X491066D01*
X490533Y362934D01*
Y364000D01*
X491066Y364533D01*
X492666D01*
X491600D02*
X490533Y365599D01*
X487334Y362401D02*
X488401Y362934D01*
X489467Y364000D01*
Y365066D01*
X488934Y365599D01*
X487867D01*
X487334Y365066D01*
Y364533D01*
X487867Y364000D01*
X489467D01*
X449834Y454400D02*
Y457599D01*
X451434D01*
X451967Y457066D01*
Y456000D01*
X451434Y455467D01*
X449834D01*
X450901D02*
X451967Y454400D01*
X455166Y457599D02*
X453033D01*
Y456000D01*
X454100Y456533D01*
X454633D01*
X455166Y456000D01*
Y454934D01*
X454633Y454400D01*
X453566D01*
X453033Y454934D01*
X479901Y361166D02*
X483100D01*
Y359566D01*
X482566Y359033D01*
X481500D01*
X480967Y359566D01*
Y361166D01*
Y360100D02*
X479901Y359033D01*
Y356367D02*
X483100D01*
X481500Y357967D01*
Y355834D01*
X451900Y343166D02*
X455099D01*
Y341566D01*
X454566Y341033D01*
X453500D01*
X452967Y341566D01*
Y343166D01*
Y342099D02*
X451900Y341033D01*
X454566Y339967D02*
X455099Y339434D01*
Y338367D01*
X454566Y337834D01*
X454033D01*
X453500Y338367D01*
Y338900D01*
Y338367D01*
X452967Y337834D01*
X452434D01*
X451900Y338367D01*
Y339434D01*
X452434Y339967D01*
X470504Y352091D02*
X473703D01*
Y350491D01*
X473170Y349958D01*
X472103D01*
X471570Y350491D01*
Y352091D01*
Y351024D02*
X470504Y349958D01*
Y346759D02*
Y348892D01*
X472636Y346759D01*
X473170D01*
X473703Y347292D01*
Y348358D01*
X473170Y348892D01*
X441050Y358949D02*
X437851D01*
Y360548D01*
X438384Y361082D01*
X439450D01*
X439983Y360548D01*
Y358949D01*
Y360015D02*
X441050Y361082D01*
Y362148D02*
Y363214D01*
Y362681D01*
X437851D01*
X438384Y362148D01*
X453434Y206033D02*
X455566D01*
X456100Y206566D01*
Y207633D01*
X455566Y208166D01*
X453434D01*
X452901Y207633D01*
Y206566D01*
X453967Y207100D02*
X452901Y206033D01*
Y206566D02*
X453434Y206033D01*
X455566Y204967D02*
X456100Y204434D01*
Y203367D01*
X455566Y202834D01*
X455033D01*
X454500Y203367D01*
X453967Y202834D01*
X453434D01*
X452901Y203367D01*
Y204434D01*
X453434Y204967D01*
X453967D01*
X454500Y204434D01*
X455033Y204967D01*
X455566D01*
X454500Y204434D02*
Y203367D01*
X415967Y200434D02*
Y202566D01*
X415434Y203099D01*
X414367D01*
X413834Y202566D01*
Y200434D01*
X414367Y199900D01*
X415434D01*
X414900Y200967D02*
X415967Y199900D01*
X415434D02*
X415967Y200434D01*
X417033Y203099D02*
X419166D01*
Y202566D01*
X417033Y200434D01*
Y199900D01*
X429934Y259533D02*
X432066D01*
X432599Y260066D01*
Y261133D01*
X432066Y261666D01*
X429934D01*
X429400Y261133D01*
Y260066D01*
X430467Y260599D02*
X429400Y259533D01*
Y260066D02*
X429934Y259533D01*
X432599Y256334D02*
X432066Y257400D01*
X431000Y258467D01*
X429934D01*
X429400Y257934D01*
Y256867D01*
X429934Y256334D01*
X430467D01*
X431000Y256867D01*
Y258467D01*
X388566Y250467D02*
X386434D01*
X385900Y249934D01*
Y248867D01*
X386434Y248334D01*
X388566D01*
X389100Y248867D01*
Y249934D01*
X388033Y249400D02*
X389100Y250467D01*
Y249934D02*
X388566Y250467D01*
X385900Y253666D02*
Y251533D01*
X387500D01*
X386967Y252600D01*
Y253133D01*
X387500Y253666D01*
X388566D01*
X389100Y253133D01*
Y252066D01*
X388566Y251533D01*
X469967Y422434D02*
Y424566D01*
X469434Y425100D01*
X468367D01*
X467834Y424566D01*
Y422434D01*
X468367Y421901D01*
X469434D01*
X468900Y422967D02*
X469967Y421901D01*
X469434D02*
X469967Y422434D01*
X471033Y424566D02*
X471566Y425100D01*
X472633D01*
X473166Y424566D01*
Y424033D01*
X472633Y423500D01*
X472099D01*
X472633D01*
X473166Y422967D01*
Y422434D01*
X472633Y421901D01*
X471566D01*
X471033Y422434D01*
X461467Y399934D02*
Y402066D01*
X460934Y402599D01*
X459867D01*
X459334Y402066D01*
Y399934D01*
X459867Y399400D01*
X460934D01*
X460400Y400467D02*
X461467Y399400D01*
X460934D02*
X461467Y399934D01*
X464666Y399400D02*
X462533D01*
X464666Y401533D01*
Y402066D01*
X464133Y402599D01*
X463066D01*
X462533Y402066D01*
X470566Y394000D02*
X468434D01*
X467901Y393467D01*
Y392401D01*
X468434Y391867D01*
X470566D01*
X471100Y392401D01*
Y393467D01*
X470033Y392934D02*
X471100Y394000D01*
Y393467D02*
X470566Y394000D01*
X471100Y395066D02*
Y396133D01*
Y395600D01*
X467901D01*
X468434Y395066D01*
X350802Y363437D02*
X347603D01*
Y365036D01*
X348136Y365569D01*
X349202D01*
X349736Y365036D01*
Y363437D01*
X350802Y368768D02*
Y366636D01*
X348669Y368768D01*
X348136D01*
X347603Y368235D01*
Y367169D01*
X348136Y366636D01*
X348956Y322066D02*
Y318867D01*
X347357D01*
X346824Y319401D01*
Y320467D01*
X347357Y321000D01*
X348956D01*
X345757Y322066D02*
X344691D01*
X345224D01*
Y318867D01*
X345757Y319401D01*
X371367Y311100D02*
Y307901D01*
X373500D01*
X374566D02*
X375633D01*
X375099D01*
Y311100D01*
X374566Y310566D01*
X349968Y290677D02*
Y287478D01*
X351568D01*
X352101Y288012D01*
Y290144D01*
X351568Y290677D01*
X349968D01*
X354767Y287478D02*
Y290677D01*
X353167Y289078D01*
X355300D01*
X344687Y306796D02*
Y303596D01*
X346286D01*
X346820Y304130D01*
Y306262D01*
X346286Y306796D01*
X344687D01*
X347886Y306262D02*
X348419Y306796D01*
X349485D01*
X350019Y306262D01*
Y305729D01*
X349485Y305196D01*
X348952D01*
X349485D01*
X350019Y304663D01*
Y304130D01*
X349485Y303596D01*
X348419D01*
X347886Y304130D01*
X479334Y370600D02*
Y367401D01*
X480934D01*
X481467Y367934D01*
Y370066D01*
X480934Y370600D01*
X479334D01*
X484666Y367401D02*
X482533D01*
X484666Y369533D01*
Y370066D01*
X484133Y370600D01*
X483066D01*
X482533Y370066D01*
X469599Y370133D02*
X466400D01*
Y368533D01*
X466934Y368000D01*
X469066D01*
X469599Y368533D01*
Y370133D01*
X466400Y366934D02*
Y365867D01*
Y366401D01*
X469599D01*
X469066Y366934D01*
X441434Y225867D02*
X440901Y225334D01*
Y224268D01*
X441434Y223735D01*
X443566D01*
X444100Y224268D01*
Y225334D01*
X443566Y225867D01*
X441434Y226934D02*
X440901Y227467D01*
Y228533D01*
X441434Y229066D01*
X441967D01*
X442500Y228533D01*
Y228000D01*
Y228533D01*
X443033Y229066D01*
X443566D01*
X444100Y228533D01*
Y227467D01*
X443566Y226934D01*
X441434Y230133D02*
X440901Y230666D01*
Y231732D01*
X441434Y232265D01*
X441967D01*
X442500Y231732D01*
X443033Y232265D01*
X443566D01*
X444100Y231732D01*
Y230666D01*
X443566Y230133D01*
X443033D01*
X442500Y230666D01*
X441967Y230133D01*
X441434D01*
X442500Y230666D02*
Y231732D01*
X417566Y211633D02*
X418099Y212166D01*
Y213232D01*
X417566Y213765D01*
X415434D01*
X414900Y213232D01*
Y212166D01*
X415434Y211633D01*
X417566Y210566D02*
X418099Y210033D01*
Y208967D01*
X417566Y208434D01*
X417033D01*
X416500Y208967D01*
Y209500D01*
Y208967D01*
X415967Y208434D01*
X415434D01*
X414900Y208967D01*
Y210033D01*
X415434Y210566D01*
X418099Y207367D02*
Y205235D01*
X417566D01*
X415434Y207367D01*
X414900D01*
X398367Y174566D02*
X397834Y175100D01*
X396768D01*
X396235Y174566D01*
Y172434D01*
X396768Y171900D01*
X397834D01*
X398367Y172434D01*
X399434Y174566D02*
X399967Y175100D01*
X401033D01*
X401566Y174566D01*
Y174033D01*
X401033Y173500D01*
X400500D01*
X401033D01*
X401566Y172967D01*
Y172434D01*
X401033Y171900D01*
X399967D01*
X399434Y172434D01*
X404765Y175100D02*
X403699Y174566D01*
X402633Y173500D01*
Y172434D01*
X403166Y171900D01*
X404232D01*
X404765Y172434D01*
Y172967D01*
X404232Y173500D01*
X402633D01*
X428367Y246566D02*
X427834Y247099D01*
X426768D01*
X426235Y246566D01*
Y244434D01*
X426768Y243900D01*
X427834D01*
X428367Y244434D01*
X429434Y246566D02*
X429967Y247099D01*
X431033D01*
X431566Y246566D01*
Y246033D01*
X431033Y245500D01*
X430500D01*
X431033D01*
X431566Y244967D01*
Y244434D01*
X431033Y243900D01*
X429967D01*
X429434Y244434D01*
X434765Y247099D02*
X432633D01*
Y245500D01*
X433699Y246033D01*
X434232D01*
X434765Y245500D01*
Y244434D01*
X434232Y243900D01*
X433166D01*
X432633Y244434D01*
X364566Y275133D02*
X365100Y275666D01*
Y276732D01*
X364566Y277265D01*
X362434D01*
X361900Y276732D01*
Y275666D01*
X362434Y275133D01*
X364566Y274066D02*
X365100Y273533D01*
Y272467D01*
X364566Y271934D01*
X364033D01*
X363500Y272467D01*
Y273000D01*
Y272467D01*
X362967Y271934D01*
X362434D01*
X361900Y272467D01*
Y273533D01*
X362434Y274066D01*
X361900Y269268D02*
X365100D01*
X363500Y270867D01*
Y268735D01*
X346934Y273367D02*
X346400Y272834D01*
Y271768D01*
X346934Y271235D01*
X349066D01*
X349600Y271768D01*
Y272834D01*
X349066Y273367D01*
X346934Y274434D02*
X346400Y274967D01*
Y276033D01*
X346934Y276566D01*
X347467D01*
X348000Y276033D01*
Y275500D01*
Y276033D01*
X348533Y276566D01*
X349066D01*
X349600Y276033D01*
Y274967D01*
X349066Y274434D01*
X346934Y277633D02*
X346400Y278166D01*
Y279232D01*
X346934Y279765D01*
X347467D01*
X348000Y279232D01*
Y278699D01*
Y279232D01*
X348533Y279765D01*
X349066D01*
X349600Y279232D01*
Y278166D01*
X349066Y277633D01*
X457633Y365434D02*
X458166Y364900D01*
X459232D01*
X459765Y365434D01*
Y367566D01*
X459232Y368099D01*
X458166D01*
X457633Y367566D01*
X456566Y365434D02*
X456033Y364900D01*
X454967D01*
X454434Y365434D01*
Y365967D01*
X454967Y366500D01*
X455500D01*
X454967D01*
X454434Y367033D01*
Y367566D01*
X454967Y368099D01*
X456033D01*
X456566Y367566D01*
X451235Y368099D02*
X453367D01*
X451235Y365967D01*
Y365434D01*
X451768Y364900D01*
X452834D01*
X453367Y365434D01*
X336894Y286074D02*
X336361Y286607D01*
X335294D01*
X334761Y286074D01*
Y283942D01*
X335294Y283408D01*
X336361D01*
X336894Y283942D01*
X337960Y286074D02*
X338493Y286607D01*
X339560D01*
X340093Y286074D01*
Y285541D01*
X339560Y285008D01*
X339026D01*
X339560D01*
X340093Y284475D01*
Y283942D01*
X339560Y283408D01*
X338493D01*
X337960Y283942D01*
X341159Y283408D02*
X342225D01*
X341692D01*
Y286607D01*
X341159Y286074D01*
X326867Y294566D02*
X326334Y295099D01*
X325268D01*
X324735Y294566D01*
Y292434D01*
X325268Y291900D01*
X326334D01*
X326867Y292434D01*
X327934Y294566D02*
X328467Y295099D01*
X329533D01*
X330066Y294566D01*
Y294033D01*
X329533Y293500D01*
X329000D01*
X329533D01*
X330066Y292967D01*
Y292434D01*
X329533Y291900D01*
X328467D01*
X327934Y292434D01*
X331133Y294566D02*
X331666Y295099D01*
X332732D01*
X333265Y294566D01*
Y292434D01*
X332732Y291900D01*
X331666D01*
X331133Y292434D01*
Y294566D01*
X431367Y304566D02*
X430834Y305100D01*
X429768D01*
X429235Y304566D01*
Y302434D01*
X429768Y301901D01*
X430834D01*
X431367Y302434D01*
X434566Y301901D02*
X432434D01*
X434566Y304033D01*
Y304566D01*
X434033Y305100D01*
X432967D01*
X432434Y304566D01*
X435633Y302434D02*
X436166Y301901D01*
X437232D01*
X437765Y302434D01*
Y304566D01*
X437232Y305100D01*
X436166D01*
X435633Y304566D01*
Y304033D01*
X436166Y303500D01*
X437765D01*
X447633Y365434D02*
X448166Y364900D01*
X449232D01*
X449765Y365434D01*
Y367566D01*
X449232Y368099D01*
X448166D01*
X447633Y367566D01*
X444434Y368099D02*
X446566D01*
X444434Y365967D01*
Y365434D01*
X444967Y364900D01*
X446033D01*
X446566Y365434D01*
X443367D02*
X442834Y364900D01*
X441768D01*
X441235Y365434D01*
Y365967D01*
X441768Y366500D01*
X441235Y367033D01*
Y367566D01*
X441768Y368099D01*
X442834D01*
X443367Y367566D01*
Y367033D01*
X442834Y366500D01*
X443367Y365967D01*
Y365434D01*
X442834Y366500D02*
X441768D01*
X463526Y395804D02*
X464059Y396337D01*
Y397404D01*
X463526Y397937D01*
X461393D01*
X460860Y397404D01*
Y396337D01*
X461393Y395804D01*
X460860Y392605D02*
Y394738D01*
X462993Y392605D01*
X463526D01*
X464059Y393138D01*
Y394205D01*
X463526Y394738D01*
X464059Y391539D02*
Y389406D01*
X463526D01*
X461393Y391539D01*
X460860D01*
X309367Y301566D02*
X308834Y302099D01*
X307768D01*
X307235Y301566D01*
Y299434D01*
X307768Y298901D01*
X308834D01*
X309367Y299434D01*
X312566Y298901D02*
X310434D01*
X312566Y301033D01*
Y301566D01*
X312033Y302099D01*
X310967D01*
X310434Y301566D01*
X315765Y302099D02*
X314699Y301566D01*
X313633Y300500D01*
Y299434D01*
X314166Y298901D01*
X315232D01*
X315765Y299434D01*
Y299967D01*
X315232Y300500D01*
X313633D01*
X318934Y305367D02*
X318401Y304834D01*
Y303768D01*
X318934Y303235D01*
X321066D01*
X321600Y303768D01*
Y304834D01*
X321066Y305367D01*
X321600Y308566D02*
Y306434D01*
X319467Y308566D01*
X318934D01*
X318401Y308033D01*
Y306967D01*
X318934Y306434D01*
X318401Y311765D02*
Y309633D01*
X320000D01*
X319467Y310699D01*
Y311232D01*
X320000Y311765D01*
X321066D01*
X321600Y311232D01*
Y310166D01*
X321066Y309633D01*
X437133Y365434D02*
X437666Y364900D01*
X438732D01*
X439265Y365434D01*
Y367566D01*
X438732Y368099D01*
X437666D01*
X437133Y367566D01*
X433934Y368099D02*
X436066D01*
X433934Y365967D01*
Y365434D01*
X434467Y364900D01*
X435533D01*
X436066Y365434D01*
X431268Y368099D02*
Y364900D01*
X432867Y366500D01*
X430735D01*
X352434Y335867D02*
X351901Y335334D01*
Y334268D01*
X352434Y333735D01*
X354566D01*
X355100Y334268D01*
Y335334D01*
X354566Y335867D01*
X355100Y339066D02*
Y336934D01*
X352967Y339066D01*
X352434D01*
X351901Y338533D01*
Y337467D01*
X352434Y336934D01*
X355100Y342265D02*
Y340133D01*
X352967Y342265D01*
X352434D01*
X351901Y341732D01*
Y340666D01*
X352434Y340133D01*
X427100Y365434D02*
X427633Y364900D01*
X428699D01*
X429232Y365434D01*
Y367566D01*
X428699Y368099D01*
X427633D01*
X427100Y367566D01*
X423901Y368099D02*
X426033D01*
X423901Y365967D01*
Y365434D01*
X424434Y364900D01*
X425500D01*
X426033Y365434D01*
X422834Y368099D02*
X421768D01*
X422301D01*
Y364900D01*
X422834Y365434D01*
X372934Y329367D02*
X372400Y328834D01*
Y327768D01*
X372934Y327235D01*
X375066D01*
X375600Y327768D01*
Y328834D01*
X375066Y329367D01*
X375600Y332566D02*
Y330434D01*
X373467Y332566D01*
X372934D01*
X372400Y332033D01*
Y330967D01*
X372934Y330434D01*
Y333633D02*
X372400Y334166D01*
Y335232D01*
X372934Y335765D01*
X375066D01*
X375600Y335232D01*
Y334166D01*
X375066Y333633D01*
X372934D01*
X417682Y327423D02*
X417149Y326889D01*
Y325823D01*
X417682Y325290D01*
X419815D01*
X420348Y325823D01*
Y326889D01*
X419815Y327423D01*
X420348Y328489D02*
Y329555D01*
Y329022D01*
X417149D01*
X417682Y328489D01*
X419815Y331155D02*
X420348Y331688D01*
Y332754D01*
X419815Y333288D01*
X417682D01*
X417149Y332754D01*
Y331688D01*
X417682Y331155D01*
X418215D01*
X418749Y331688D01*
Y333288D01*
X507434Y420634D02*
X506901Y420101D01*
Y419034D01*
X507434Y418501D01*
X509566D01*
X510100Y419034D01*
Y420101D01*
X509566Y420634D01*
X510100Y421700D02*
Y422767D01*
Y422233D01*
X506901D01*
X507434Y421700D01*
Y424366D02*
X506901Y424899D01*
Y425965D01*
X507434Y426499D01*
X507967D01*
X508500Y425965D01*
X509033Y426499D01*
X509566D01*
X510100Y425965D01*
Y424899D01*
X509566Y424366D01*
X509033D01*
X508500Y424899D01*
X507967Y424366D01*
X507434D01*
X508500Y424899D02*
Y425965D01*
X494934Y432634D02*
X494401Y432101D01*
Y431035D01*
X494934Y430501D01*
X497066D01*
X497600Y431035D01*
Y432101D01*
X497066Y432634D01*
X497600Y433700D02*
Y434767D01*
Y434233D01*
X494401D01*
X494934Y433700D01*
X494401Y436366D02*
Y438499D01*
X494934D01*
X497066Y436366D01*
X497600D01*
X486566Y436366D02*
X487100Y436899D01*
Y437965D01*
X486566Y438499D01*
X484434D01*
X483900Y437965D01*
Y436899D01*
X484434Y436366D01*
X483900Y435300D02*
Y434233D01*
Y434767D01*
X487100D01*
X486566Y435300D01*
X487100Y430501D02*
X486566Y431568D01*
X485500Y432634D01*
X484434D01*
X483900Y432101D01*
Y431035D01*
X484434Y430501D01*
X484967D01*
X485500Y431035D01*
Y432634D01*
X445134Y329566D02*
X444601Y330100D01*
X443535D01*
X443001Y329566D01*
Y327434D01*
X443535Y326901D01*
X444601D01*
X445134Y327434D01*
X446200Y326901D02*
X447267D01*
X446733D01*
Y330100D01*
X446200Y329566D01*
X450999Y330100D02*
X448866D01*
Y328500D01*
X449932Y329033D01*
X450465D01*
X450999Y328500D01*
Y327434D01*
X450465Y326901D01*
X449399D01*
X448866Y327434D01*
X435134Y324066D02*
X434601Y324600D01*
X433534D01*
X433001Y324066D01*
Y321934D01*
X433534Y321400D01*
X434601D01*
X435134Y321934D01*
X436200Y321400D02*
X437267D01*
X436733D01*
Y324600D01*
X436200Y324066D01*
X440465Y321400D02*
Y324600D01*
X438866Y323000D01*
X440999D01*
X402134Y359566D02*
X401601Y360100D01*
X400534D01*
X400001Y359566D01*
Y357434D01*
X400534Y356901D01*
X401601D01*
X402134Y357434D01*
X403200Y356901D02*
X404267D01*
X403733D01*
Y360100D01*
X403200Y359566D01*
X405866D02*
X406399Y360100D01*
X407466D01*
X407999Y359566D01*
Y359033D01*
X407466Y358500D01*
X406932D01*
X407466D01*
X407999Y357967D01*
Y357434D01*
X407466Y356901D01*
X406399D01*
X405866Y357434D01*
X391634Y354066D02*
X391101Y354599D01*
X390035D01*
X389501Y354066D01*
Y351934D01*
X390035Y351400D01*
X391101D01*
X391634Y351934D01*
X392700Y351400D02*
X393767D01*
X393233D01*
Y354599D01*
X392700Y354066D01*
X397499Y351400D02*
X395366D01*
X397499Y353533D01*
Y354066D01*
X396966Y354599D01*
X395899D01*
X395366Y354066D01*
X505167Y393066D02*
X504634Y393600D01*
X503568D01*
X503034Y393066D01*
Y390934D01*
X503568Y390401D01*
X504634D01*
X505167Y390934D01*
X506233Y390401D02*
X507300D01*
X506767D01*
Y393600D01*
X506233Y393066D01*
X508899Y390401D02*
X509966D01*
X509432D01*
Y393600D01*
X508899Y393066D01*
X397543Y343720D02*
X397010Y344253D01*
X395943D01*
X395410Y343720D01*
Y341587D01*
X395943Y341054D01*
X397010D01*
X397543Y341587D01*
X398609Y341054D02*
X399675D01*
X399142D01*
Y344253D01*
X398609Y343720D01*
X401275D02*
X401808Y344253D01*
X402874D01*
X403407Y343720D01*
Y341587D01*
X402874Y341054D01*
X401808D01*
X401275Y341587D01*
Y343720D01*
X404967Y350982D02*
X404433Y350449D01*
Y349383D01*
X404967Y348850D01*
X407099D01*
X407632Y349383D01*
Y350449D01*
X407099Y350982D01*
Y352049D02*
X407632Y352582D01*
Y353648D01*
X407099Y354181D01*
X404967D01*
X404433Y353648D01*
Y352582D01*
X404967Y352049D01*
X405500D01*
X406033Y352582D01*
Y354181D01*
X434934Y422967D02*
X434401Y422434D01*
Y421367D01*
X434934Y420834D01*
X437066D01*
X437600Y421367D01*
Y422434D01*
X437066Y422967D01*
X434934Y424033D02*
X434401Y424566D01*
Y425633D01*
X434934Y426166D01*
X435467D01*
X436000Y425633D01*
X436533Y426166D01*
X437066D01*
X437600Y425633D01*
Y424566D01*
X437066Y424033D01*
X436533D01*
X436000Y424566D01*
X435467Y424033D01*
X434934D01*
X436000Y424566D02*
Y425633D01*
X510198Y367837D02*
X510731Y368371D01*
Y369437D01*
X510198Y369970D01*
X508065D01*
X507532Y369437D01*
Y368371D01*
X508065Y367837D01*
X510731Y366771D02*
Y364638D01*
X510198D01*
X508065Y366771D01*
X507532D01*
X463467Y455566D02*
X462934Y456100D01*
X461867D01*
X461334Y455566D01*
Y453434D01*
X461867Y452901D01*
X462934D01*
X463467Y453434D01*
X466666Y456100D02*
X465599Y455566D01*
X464533Y454500D01*
Y453434D01*
X465066Y452901D01*
X466133D01*
X466666Y453434D01*
Y453967D01*
X466133Y454500D01*
X464533D01*
X475467Y455066D02*
X474934Y455599D01*
X473867D01*
X473334Y455066D01*
Y452934D01*
X473867Y452400D01*
X474934D01*
X475467Y452934D01*
X478666Y455599D02*
X476533D01*
Y454000D01*
X477599Y454533D01*
X478133D01*
X478666Y454000D01*
Y452934D01*
X478133Y452400D01*
X477066D01*
X476533Y452934D01*
X464967Y381066D02*
X464434Y381599D01*
X463367D01*
X462834Y381066D01*
Y378934D01*
X463367Y378400D01*
X464434D01*
X464967Y378934D01*
X467633Y378400D02*
Y381599D01*
X466033Y380000D01*
X468166D01*
X446066Y345033D02*
X446599Y345566D01*
Y346633D01*
X446066Y347166D01*
X443934D01*
X443400Y346633D01*
Y345566D01*
X443934Y345033D01*
X446066Y343967D02*
X446599Y343434D01*
Y342367D01*
X446066Y341834D01*
X445533D01*
X445000Y342367D01*
Y342900D01*
Y342367D01*
X444467Y341834D01*
X443934D01*
X443400Y342367D01*
Y343434D01*
X443934Y343967D01*
X432850Y360783D02*
X432316Y360250D01*
Y359184D01*
X432850Y358651D01*
X434982D01*
X435515Y359184D01*
Y360250D01*
X434982Y360783D01*
X435515Y361850D02*
Y362916D01*
Y362383D01*
X432316D01*
X432850Y361850D01*
M02*
