G04*
G04 #@! TF.GenerationSoftware,Altium Limited,Altium Designer,21.5.1 (32)*
G04*
G04 Layer_Color=8388736*
%FSLAX25Y25*%
%MOIN*%
G70*
G04*
G04 #@! TF.SameCoordinates,64746D64-8A43-43D4-A90E-1700155CBDCF*
G04*
G04*
G04 #@! TF.FilePolarity,Negative*
G04*
G01*
G75*
%ADD16R,0.02165X0.01772*%
%ADD17R,0.10236X0.08386*%
%ADD18R,0.02087X0.02284*%
%ADD19R,0.01968X0.02559*%
%ADD20R,0.17126X0.17126*%
G04:AMPARAMS|DCode=21|XSize=37.8mil|YSize=14.57mil|CornerRadius=4.04mil|HoleSize=0mil|Usage=FLASHONLY|Rotation=0.000|XOffset=0mil|YOffset=0mil|HoleType=Round|Shape=RoundedRectangle|*
%AMROUNDEDRECTD21*
21,1,0.03780,0.00650,0,0,0.0*
21,1,0.02972,0.01457,0,0,0.0*
1,1,0.00807,0.01486,-0.00325*
1,1,0.00807,-0.01486,-0.00325*
1,1,0.00807,-0.01486,0.00325*
1,1,0.00807,0.01486,0.00325*
%
%ADD21ROUNDEDRECTD21*%
G04:AMPARAMS|DCode=22|XSize=37.8mil|YSize=14.57mil|CornerRadius=4.04mil|HoleSize=0mil|Usage=FLASHONLY|Rotation=90.000|XOffset=0mil|YOffset=0mil|HoleType=Round|Shape=RoundedRectangle|*
%AMROUNDEDRECTD22*
21,1,0.03780,0.00650,0,0,90.0*
21,1,0.02972,0.01457,0,0,90.0*
1,1,0.00807,0.00325,0.01486*
1,1,0.00807,0.00325,-0.01486*
1,1,0.00807,-0.00325,-0.01486*
1,1,0.00807,-0.00325,0.01486*
%
%ADD22ROUNDEDRECTD22*%
%ADD23R,0.02244X0.03347*%
%ADD24R,0.09921X0.09449*%
%ADD25R,0.03347X0.02244*%
%ADD26R,0.09449X0.09921*%
%ADD27R,0.14173X0.07284*%
%ADD28R,0.05709X0.10827*%
%ADD29R,0.02106X0.03307*%
%ADD30R,0.04665X0.03307*%
%ADD31R,0.03307X0.02106*%
%ADD32R,0.03307X0.04665*%
%ADD33R,0.10827X0.04921*%
%ADD34R,0.03740X0.04134*%
%ADD35R,0.06102X0.06496*%
%ADD36R,0.04134X0.03740*%
%ADD37R,0.02953X0.02559*%
%ADD38R,0.06496X0.06102*%
%ADD39R,0.12402X0.20276*%
%ADD40R,0.02953X0.06299*%
%ADD41R,0.06299X0.02953*%
%ADD42R,0.06496X0.06496*%
%ADD43C,0.06496*%
%ADD44C,0.05591*%
%ADD45C,0.02391*%
D16*
X400661Y221512D02*
D03*
X403221D02*
D03*
X408339D02*
D03*
X405780D02*
D03*
D17*
X404500Y226000D02*
D03*
D18*
X398929Y227417D02*
D03*
X410071D02*
D03*
D19*
X400661Y232929D02*
D03*
X408339D02*
D03*
X403221D02*
D03*
X405780D02*
D03*
D20*
X401000Y305000D02*
D03*
D21*
X412614Y313661D02*
D03*
Y312087D02*
D03*
Y310512D02*
D03*
Y308937D02*
D03*
Y307362D02*
D03*
Y305787D02*
D03*
Y304213D02*
D03*
Y302638D02*
D03*
Y301063D02*
D03*
Y299488D02*
D03*
Y297913D02*
D03*
Y296339D02*
D03*
X389386D02*
D03*
Y297913D02*
D03*
Y299488D02*
D03*
Y301063D02*
D03*
Y302638D02*
D03*
Y304213D02*
D03*
Y305787D02*
D03*
Y307362D02*
D03*
Y308937D02*
D03*
Y310512D02*
D03*
Y312087D02*
D03*
Y313661D02*
D03*
D22*
X392339Y316614D02*
D03*
X393913D02*
D03*
X395488D02*
D03*
X397063D02*
D03*
X398638D02*
D03*
X400213D02*
D03*
X401787D02*
D03*
X403362D02*
D03*
X404937D02*
D03*
X406512D02*
D03*
X408087D02*
D03*
X409661D02*
D03*
Y293386D02*
D03*
X408087D02*
D03*
X406512D02*
D03*
X404937D02*
D03*
X403362D02*
D03*
X401787D02*
D03*
X400213D02*
D03*
X398638D02*
D03*
X397063D02*
D03*
X395488D02*
D03*
X393913D02*
D03*
X392339D02*
D03*
D23*
X446559Y213000D02*
D03*
X444000Y213000D02*
D03*
X441441D02*
D03*
X438882D02*
D03*
X431339Y212906D02*
D03*
X428780Y212906D02*
D03*
X426221D02*
D03*
X423661D02*
D03*
D24*
X442720Y204240D02*
D03*
X427500Y204146D02*
D03*
D25*
X464595Y416839D02*
D03*
X464594Y414280D02*
D03*
Y411721D02*
D03*
Y409161D02*
D03*
X455406Y404161D02*
D03*
X455406Y406720D02*
D03*
Y409279D02*
D03*
Y411839D02*
D03*
D26*
X473354Y413000D02*
D03*
X446646Y408000D02*
D03*
D27*
X336529Y387701D02*
D03*
X377514D02*
D03*
X319327Y349598D02*
D03*
X360311D02*
D03*
D28*
X351391Y375103D02*
D03*
X363203D02*
D03*
X334189Y337000D02*
D03*
X346000D02*
D03*
D29*
X483500Y374500D02*
D03*
D30*
X479910D02*
D03*
D31*
X464000Y365500D02*
D03*
D32*
Y369091D02*
D03*
D33*
X463500Y437185D02*
D03*
Y447815D02*
D03*
X476000Y437185D02*
D03*
Y447815D02*
D03*
D34*
X344756Y290000D02*
D03*
X339244D02*
D03*
X432744Y328500D02*
D03*
X438256D02*
D03*
X418744Y304000D02*
D03*
X424256D02*
D03*
X373256Y303000D02*
D03*
X367744D02*
D03*
X400756Y269000D02*
D03*
X395244D02*
D03*
X439244Y220500D02*
D03*
X444756D02*
D03*
X414744Y269000D02*
D03*
X420256D02*
D03*
X445756Y197000D02*
D03*
X440244D02*
D03*
X469756Y374500D02*
D03*
X464244D02*
D03*
X488244D02*
D03*
X493756D02*
D03*
X401756Y336500D02*
D03*
X396244D02*
D03*
X336256Y300000D02*
D03*
X330744D02*
D03*
X354756Y295500D02*
D03*
X349244D02*
D03*
Y300500D02*
D03*
X354756D02*
D03*
X488244Y380000D02*
D03*
X493756D02*
D03*
X401756Y330500D02*
D03*
X396244D02*
D03*
X344756Y295000D02*
D03*
X339244D02*
D03*
X395756Y325500D02*
D03*
X390244D02*
D03*
D35*
X434063Y336500D02*
D03*
X441937D02*
D03*
X370437Y295500D02*
D03*
X362563D02*
D03*
X430937Y231000D02*
D03*
X423063D02*
D03*
X430937Y220500D02*
D03*
X423063D02*
D03*
X419063Y194000D02*
D03*
X426937D02*
D03*
X443063Y189000D02*
D03*
X450937D02*
D03*
X419937Y241500D02*
D03*
X412063D02*
D03*
X490563Y405000D02*
D03*
X498437D02*
D03*
X448437Y394500D02*
D03*
X440563D02*
D03*
X328563Y307500D02*
D03*
X336437D02*
D03*
D36*
X353000Y272744D02*
D03*
Y278256D02*
D03*
X404500Y239244D02*
D03*
Y244756D02*
D03*
X399500Y244756D02*
D03*
Y239244D02*
D03*
X415500Y217744D02*
D03*
Y223256D02*
D03*
Y228244D02*
D03*
Y233756D02*
D03*
X435500Y191244D02*
D03*
Y196756D02*
D03*
X407000Y341756D02*
D03*
Y336244D02*
D03*
X418500Y320756D02*
D03*
Y315244D02*
D03*
X455500Y395756D02*
D03*
Y390244D02*
D03*
X439500Y355256D02*
D03*
Y349744D02*
D03*
X434000Y349744D02*
D03*
Y355256D02*
D03*
X474500Y374744D02*
D03*
Y380256D02*
D03*
X509000Y379756D02*
D03*
Y374244D02*
D03*
X504000Y379756D02*
D03*
Y374244D02*
D03*
X499000D02*
D03*
Y379756D02*
D03*
X374500Y316744D02*
D03*
Y322256D02*
D03*
X428500Y398744D02*
D03*
Y404256D02*
D03*
X381500Y322256D02*
D03*
Y316744D02*
D03*
X353500Y315244D02*
D03*
Y320756D02*
D03*
X358500Y272744D02*
D03*
Y278256D02*
D03*
X502500Y420244D02*
D03*
Y425756D02*
D03*
X445000Y355256D02*
D03*
Y349744D02*
D03*
X499000Y389756D02*
D03*
Y384244D02*
D03*
X442000Y421744D02*
D03*
Y427256D02*
D03*
X428500Y349744D02*
D03*
Y355256D02*
D03*
X390000Y330744D02*
D03*
Y336256D02*
D03*
X395500Y274244D02*
D03*
Y279756D02*
D03*
X390500Y274244D02*
D03*
Y279756D02*
D03*
X400500Y274244D02*
D03*
Y279756D02*
D03*
X482000Y408256D02*
D03*
Y402744D02*
D03*
D37*
X364032Y309000D02*
D03*
X367969D02*
D03*
D38*
X473500Y220437D02*
D03*
Y212563D02*
D03*
X383000Y269063D02*
D03*
Y276937D02*
D03*
X372500Y269063D02*
D03*
Y276937D02*
D03*
X452500Y223063D02*
D03*
Y230937D02*
D03*
X484000Y425437D02*
D03*
Y417563D02*
D03*
X436000Y404563D02*
D03*
Y412437D02*
D03*
X494500Y425437D02*
D03*
Y417563D02*
D03*
X455500Y382937D02*
D03*
Y375063D02*
D03*
X434500Y382937D02*
D03*
Y375063D02*
D03*
X424000Y382937D02*
D03*
Y375063D02*
D03*
X474500Y359063D02*
D03*
Y366937D02*
D03*
X445000Y382937D02*
D03*
Y375063D02*
D03*
X452500Y429437D02*
D03*
Y421563D02*
D03*
X442000Y439563D02*
D03*
Y447437D02*
D03*
X452500Y439563D02*
D03*
Y447437D02*
D03*
X464000Y350063D02*
D03*
Y357937D02*
D03*
X453000Y357937D02*
D03*
Y350063D02*
D03*
X364000Y324437D02*
D03*
Y316563D02*
D03*
D39*
X504555Y201976D02*
D03*
Y248433D02*
D03*
D40*
X408240Y261626D02*
D03*
X400760D02*
D03*
X404500Y252374D02*
D03*
X420500Y252374D02*
D03*
X416760Y261626D02*
D03*
X424240D02*
D03*
D41*
X478748Y390740D02*
D03*
X488000Y394480D02*
D03*
Y387000D02*
D03*
D42*
X505500Y212409D02*
D03*
D43*
Y238000D02*
D03*
D44*
X395500Y228000D02*
D03*
X450000Y240000D02*
D03*
X345500Y400000D02*
D03*
Y360000D02*
D03*
X570000Y440000D02*
D03*
X560000Y420000D02*
D03*
X570000Y400000D02*
D03*
X560000Y380000D02*
D03*
X570000Y360000D02*
D03*
X560000Y340000D02*
D03*
X570000Y320000D02*
D03*
X560000Y300000D02*
D03*
X570000Y280000D02*
D03*
X560000Y260000D02*
D03*
X570000Y240000D02*
D03*
X560000Y220000D02*
D03*
X570000Y200000D02*
D03*
X560000Y180000D02*
D03*
X550000Y440000D02*
D03*
X540000Y420000D02*
D03*
X550000Y400000D02*
D03*
X540000Y380000D02*
D03*
X550000Y360000D02*
D03*
X540000Y340000D02*
D03*
X550000Y320000D02*
D03*
X540000Y300000D02*
D03*
X550000Y280000D02*
D03*
X540000Y260000D02*
D03*
X550000Y240000D02*
D03*
X540000Y220000D02*
D03*
X550000Y200000D02*
D03*
X540000Y180000D02*
D03*
X530000Y440000D02*
D03*
X520000Y420000D02*
D03*
X530000Y400000D02*
D03*
X520000Y380000D02*
D03*
X530000Y360000D02*
D03*
X520000Y340000D02*
D03*
X530000Y320000D02*
D03*
X520000Y300000D02*
D03*
X530000Y280000D02*
D03*
X520000Y260000D02*
D03*
X530000Y240000D02*
D03*
X520000Y220000D02*
D03*
X530000Y200000D02*
D03*
X520000Y180000D02*
D03*
X510000Y440000D02*
D03*
Y400000D02*
D03*
Y360000D02*
D03*
X500000Y340000D02*
D03*
X510000Y320000D02*
D03*
X500000Y300000D02*
D03*
X510000Y280000D02*
D03*
X500000Y220000D02*
D03*
Y180000D02*
D03*
X490000Y440000D02*
D03*
X480000Y380000D02*
D03*
Y340000D02*
D03*
X490000Y320000D02*
D03*
X480000Y300000D02*
D03*
X490000Y280000D02*
D03*
Y240000D02*
D03*
Y200000D02*
D03*
X480000Y180000D02*
D03*
X470000Y400000D02*
D03*
Y320000D02*
D03*
X460000Y300000D02*
D03*
X470000Y280000D02*
D03*
X460000Y260000D02*
D03*
X470000Y240000D02*
D03*
Y200000D02*
D03*
X460000Y180000D02*
D03*
X440000D02*
D03*
X430000Y440000D02*
D03*
X420000Y420000D02*
D03*
X430000Y320000D02*
D03*
Y240000D02*
D03*
X420000Y180000D02*
D03*
X410000Y440000D02*
D03*
Y400000D02*
D03*
Y200000D02*
D03*
X400000Y180000D02*
D03*
X390000Y440000D02*
D03*
Y400000D02*
D03*
Y360000D02*
D03*
X380000Y340000D02*
D03*
Y260000D02*
D03*
Y220000D02*
D03*
X390000Y200000D02*
D03*
X380000Y180000D02*
D03*
X370000Y440000D02*
D03*
Y400000D02*
D03*
Y360000D02*
D03*
X360000Y260000D02*
D03*
X370000Y240000D02*
D03*
X360000Y220000D02*
D03*
X370000Y200000D02*
D03*
X360000Y180000D02*
D03*
X350000Y440000D02*
D03*
X340000Y420000D02*
D03*
Y260000D02*
D03*
X350000Y240000D02*
D03*
X340000Y220000D02*
D03*
X350000Y200000D02*
D03*
X340000Y180000D02*
D03*
X330000Y440000D02*
D03*
X320000Y420000D02*
D03*
X330000Y400000D02*
D03*
X320000Y380000D02*
D03*
Y340000D02*
D03*
Y300000D02*
D03*
X330000Y280000D02*
D03*
X320000Y260000D02*
D03*
X330000Y240000D02*
D03*
X320000Y220000D02*
D03*
X330000Y200000D02*
D03*
X320000Y180000D02*
D03*
X310000Y440000D02*
D03*
X300000Y420000D02*
D03*
X310000Y400000D02*
D03*
X300000Y380000D02*
D03*
X310000Y360000D02*
D03*
X300000Y340000D02*
D03*
X310000Y320000D02*
D03*
X300000Y300000D02*
D03*
X310000Y280000D02*
D03*
X300000Y260000D02*
D03*
X310000Y240000D02*
D03*
X300000Y220000D02*
D03*
X310000Y200000D02*
D03*
X300000Y180000D02*
D03*
D45*
X461684Y414373D02*
D03*
X430500Y225500D02*
D03*
X428500Y336000D02*
D03*
X421000Y347000D02*
D03*
X449500Y197000D02*
D03*
X417000Y371500D02*
D03*
X405500Y381500D02*
D03*
X416500Y377500D02*
D03*
X411500Y379000D02*
D03*
X405500Y322000D02*
D03*
X378000Y325000D02*
D03*
X356000Y309000D02*
D03*
X335500Y292500D02*
D03*
X449000Y336500D02*
D03*
X422000Y336000D02*
D03*
X411500Y324500D02*
D03*
X408500Y323000D02*
D03*
X355500Y269000D02*
D03*
Y282000D02*
D03*
X382500Y301500D02*
D03*
X378000Y302500D02*
D03*
X327000Y300000D02*
D03*
X407000Y345500D02*
D03*
X417600Y353000D02*
D03*
X428000Y306537D02*
D03*
X411500Y217500D02*
D03*
X394500Y255000D02*
D03*
X392000Y257500D02*
D03*
X427500Y268000D02*
D03*
X446000Y231000D02*
D03*
X473500Y228500D02*
D03*
X413600Y284500D02*
D03*
X417500Y276000D02*
D03*
X412000D02*
D03*
X404500Y274000D02*
D03*
X406000Y282000D02*
D03*
X463500Y343000D02*
D03*
X507000Y386516D02*
D03*
X400962Y284500D02*
D03*
X503244Y384244D02*
D03*
X444000Y216500D02*
D03*
X408500Y268000D02*
D03*
X424000D02*
D03*
X429000Y359500D02*
D03*
X460303Y425437D02*
D03*
X406000Y331500D02*
D03*
X498437Y398563D02*
D03*
X477500Y402500D02*
D03*
X425000Y342000D02*
D03*
X489500Y411500D02*
D03*
X434000Y394500D02*
D03*
X445000Y359500D02*
D03*
X495000Y390000D02*
D03*
X470500Y380500D02*
D03*
X473000Y391000D02*
D03*
X399356Y325500D02*
D03*
X403000Y307500D02*
D03*
X407000Y311000D02*
D03*
X395000D02*
D03*
X399000Y307500D02*
D03*
X403000Y311000D02*
D03*
X358000Y322500D02*
D03*
X395000Y300000D02*
D03*
X399000D02*
D03*
X403000D02*
D03*
Y304000D02*
D03*
X399000D02*
D03*
X395000D02*
D03*
Y307500D02*
D03*
X407000Y300000D02*
D03*
Y304000D02*
D03*
Y307500D02*
D03*
X399000Y311000D02*
D03*
M02*
