G04*
G04 #@! TF.GenerationSoftware,Altium Limited,Altium Designer,21.5.1 (32)*
G04*
G04 Layer_Color=16711935*
%FSLAX25Y25*%
%MOIN*%
G70*
G04*
G04 #@! TF.SameCoordinates,64746D64-8A43-43D4-A90E-1700155CBDCF*
G04*
G04*
G04 #@! TF.FilePolarity,Negative*
G04*
G01*
G75*
%ADD42R,0.06496X0.06496*%
%ADD43C,0.06496*%
%ADD44C,0.05591*%
%ADD45C,0.02391*%
D42*
X505500Y212409D02*
D03*
D43*
Y238000D02*
D03*
D44*
X395500Y228000D02*
D03*
X450000Y240000D02*
D03*
X345500Y400000D02*
D03*
Y360000D02*
D03*
X570000Y440000D02*
D03*
X560000Y420000D02*
D03*
X570000Y400000D02*
D03*
X560000Y380000D02*
D03*
X570000Y360000D02*
D03*
X560000Y340000D02*
D03*
X570000Y320000D02*
D03*
X560000Y300000D02*
D03*
X570000Y280000D02*
D03*
X560000Y260000D02*
D03*
X570000Y240000D02*
D03*
X560000Y220000D02*
D03*
X570000Y200000D02*
D03*
X560000Y180000D02*
D03*
X550000Y440000D02*
D03*
X540000Y420000D02*
D03*
X550000Y400000D02*
D03*
X540000Y380000D02*
D03*
X550000Y360000D02*
D03*
X540000Y340000D02*
D03*
X550000Y320000D02*
D03*
X540000Y300000D02*
D03*
X550000Y280000D02*
D03*
X540000Y260000D02*
D03*
X550000Y240000D02*
D03*
X540000Y220000D02*
D03*
X550000Y200000D02*
D03*
X540000Y180000D02*
D03*
X530000Y440000D02*
D03*
X520000Y420000D02*
D03*
X530000Y400000D02*
D03*
X520000Y380000D02*
D03*
X530000Y360000D02*
D03*
X520000Y340000D02*
D03*
X530000Y320000D02*
D03*
X520000Y300000D02*
D03*
X530000Y280000D02*
D03*
X520000Y260000D02*
D03*
X530000Y240000D02*
D03*
X520000Y220000D02*
D03*
X530000Y200000D02*
D03*
X520000Y180000D02*
D03*
X510000Y440000D02*
D03*
Y400000D02*
D03*
Y360000D02*
D03*
X500000Y340000D02*
D03*
X510000Y320000D02*
D03*
X500000Y300000D02*
D03*
X510000Y280000D02*
D03*
X500000Y220000D02*
D03*
Y180000D02*
D03*
X490000Y440000D02*
D03*
X480000Y380000D02*
D03*
Y340000D02*
D03*
X490000Y320000D02*
D03*
X480000Y300000D02*
D03*
X490000Y280000D02*
D03*
Y240000D02*
D03*
Y200000D02*
D03*
X480000Y180000D02*
D03*
X470000Y400000D02*
D03*
Y320000D02*
D03*
X460000Y300000D02*
D03*
X470000Y280000D02*
D03*
X460000Y260000D02*
D03*
X470000Y240000D02*
D03*
Y200000D02*
D03*
X460000Y180000D02*
D03*
X440000D02*
D03*
X430000Y440000D02*
D03*
X420000Y420000D02*
D03*
X430000Y320000D02*
D03*
Y240000D02*
D03*
X420000Y180000D02*
D03*
X410000Y440000D02*
D03*
Y400000D02*
D03*
Y200000D02*
D03*
X400000Y180000D02*
D03*
X390000Y440000D02*
D03*
Y400000D02*
D03*
Y360000D02*
D03*
X380000Y340000D02*
D03*
Y260000D02*
D03*
Y220000D02*
D03*
X390000Y200000D02*
D03*
X380000Y180000D02*
D03*
X370000Y440000D02*
D03*
Y400000D02*
D03*
Y360000D02*
D03*
X360000Y260000D02*
D03*
X370000Y240000D02*
D03*
X360000Y220000D02*
D03*
X370000Y200000D02*
D03*
X360000Y180000D02*
D03*
X350000Y440000D02*
D03*
X340000Y420000D02*
D03*
Y260000D02*
D03*
X350000Y240000D02*
D03*
X340000Y220000D02*
D03*
X350000Y200000D02*
D03*
X340000Y180000D02*
D03*
X330000Y440000D02*
D03*
X320000Y420000D02*
D03*
X330000Y400000D02*
D03*
X320000Y380000D02*
D03*
Y340000D02*
D03*
Y300000D02*
D03*
X330000Y280000D02*
D03*
X320000Y260000D02*
D03*
X330000Y240000D02*
D03*
X320000Y220000D02*
D03*
X330000Y200000D02*
D03*
X320000Y180000D02*
D03*
X310000Y440000D02*
D03*
X300000Y420000D02*
D03*
X310000Y400000D02*
D03*
X300000Y380000D02*
D03*
X310000Y360000D02*
D03*
X300000Y340000D02*
D03*
X310000Y320000D02*
D03*
X300000Y300000D02*
D03*
X310000Y280000D02*
D03*
X300000Y260000D02*
D03*
X310000Y240000D02*
D03*
X300000Y220000D02*
D03*
X310000Y200000D02*
D03*
X300000Y180000D02*
D03*
D45*
X461684Y414373D02*
D03*
X430500Y225500D02*
D03*
X428500Y336000D02*
D03*
X421000Y347000D02*
D03*
X449500Y197000D02*
D03*
X417000Y371500D02*
D03*
X405500Y381500D02*
D03*
X416500Y377500D02*
D03*
X411500Y379000D02*
D03*
X405500Y322000D02*
D03*
X378000Y325000D02*
D03*
X356000Y309000D02*
D03*
X335500Y292500D02*
D03*
X449000Y336500D02*
D03*
X422000Y336000D02*
D03*
X411500Y324500D02*
D03*
X408500Y323000D02*
D03*
X355500Y269000D02*
D03*
Y282000D02*
D03*
X382500Y301500D02*
D03*
X378000Y302500D02*
D03*
X327000Y300000D02*
D03*
X407000Y345500D02*
D03*
X417600Y353000D02*
D03*
X428000Y306537D02*
D03*
X411500Y217500D02*
D03*
X394500Y255000D02*
D03*
X392000Y257500D02*
D03*
X427500Y268000D02*
D03*
X446000Y231000D02*
D03*
X473500Y228500D02*
D03*
X413600Y284500D02*
D03*
X417500Y276000D02*
D03*
X412000D02*
D03*
X404500Y274000D02*
D03*
X406000Y282000D02*
D03*
X463500Y343000D02*
D03*
X507000Y386516D02*
D03*
X400962Y284500D02*
D03*
X503244Y384244D02*
D03*
X444000Y216500D02*
D03*
X408500Y268000D02*
D03*
X424000D02*
D03*
X429000Y359500D02*
D03*
X460303Y425437D02*
D03*
X406000Y331500D02*
D03*
X498437Y398563D02*
D03*
X477500Y402500D02*
D03*
X425000Y342000D02*
D03*
X489500Y411500D02*
D03*
X434000Y394500D02*
D03*
X445000Y359500D02*
D03*
X495000Y390000D02*
D03*
X470500Y380500D02*
D03*
X473000Y391000D02*
D03*
X399356Y325500D02*
D03*
X403000Y307500D02*
D03*
X407000Y311000D02*
D03*
X395000D02*
D03*
X399000Y307500D02*
D03*
X403000Y311000D02*
D03*
X358000Y322500D02*
D03*
X395000Y300000D02*
D03*
X399000D02*
D03*
X403000D02*
D03*
Y304000D02*
D03*
X399000D02*
D03*
X395000D02*
D03*
Y307500D02*
D03*
X407000Y300000D02*
D03*
Y304000D02*
D03*
Y307500D02*
D03*
X399000Y311000D02*
D03*
M02*
