M48
;Layer_Color=9474304
;FILE_FORMAT=2:4
INCH,LZ
;TYPE=PLATED
T1F00S00C0.0120
T2F00S00C0.0236
T3F00S00C0.0276
T4F00S00C0.0280
%
T01
X04735Y02285
X0446Y0231
X0444Y02165
X04305Y02255
X04115Y02175
X04085Y0268
X04045Y0274
X0412Y0276
X04175
X04136Y02845
X0406Y0282
X040096Y02845
X0399Y03
X0395
Y0304
Y03075
Y0311
X0399
Y03075
Y0304
X0403
Y03075
Y0311
X0407
Y03075
Y0304
Y03
X0403
X03825Y03015
X0378Y03025
X0356Y0309
X03555Y0282
Y0269
X03355Y02925
X0327Y03
X0392Y02575
X03945Y0255
X0424Y0268
X04275
X0428Y030654
X04495Y0197
X0449Y03365
X04285Y0336
X0422
X0425Y0342
X0421Y0347
X04176Y0353
X0429Y03595
X0445
X04635Y0343
X0407Y03455
X0406Y03315
X04055Y0322
X04085Y0323
X04115Y03245
X039936Y03255
X0378Y0325
X0358Y03225
X04055Y03815
X04115Y0379
X04165Y03775
X0417Y03715
X0434Y03945
X046168Y041437
X04603Y042544
X04775Y04025
X0473Y0391
X04705Y03805
X0495Y039
X049844Y039856
X050324Y038424
X0507Y038652
X04895Y04115
T02
X03955Y0228
T03
X05055Y021241
Y0238
T04
X048Y018
X05
X052
X054
X056
X057Y02
X055
X053
X054Y022
X056
X057Y024
X055
X053
X054Y026
X056
X057Y028
X055
X053
X051
X049
X047
X048Y03
X05
X052
X054
X056
X052Y026
Y022
X05
X049Y024
X047
Y02
X049
X046Y018
X044
X042
X04
X038
X036
X034
X032
X033Y02
X035
X037
X039
X041
X038Y022
X036
X034
X032
X033Y024
X035
X037
X038Y026
X036
X034
X032
X033Y028
X032Y03
X046
Y026
X045Y024
X043
X031
X03Y026
X031Y028
X03Y03
Y022
X031Y02
X03Y018
X031Y032
X03Y034
X031Y036
X03Y038
X031Y04
X03Y042
X031Y044
X033
X035
X037
X039
X041
X043
X042Y042
X041Y04
X039
X037
X03455
X033
X034Y042
X032
Y038
Y034
X03455Y036
X037
X039
X038Y034
X043Y032
X047
X049
X051
X053
X055
X057
X056Y034
X054
X052
X05
X048
Y038
X047Y04
X051
X053
X055
X057
X056Y042
X054
X052
X053Y044
X055
X057
X051
X049
X052Y038
X054
X056
X057Y036
X055
X053
X051
M30
