G04*
G04 #@! TF.GenerationSoftware,Altium Limited,Altium Designer,20.1.14 (287)*
G04*
G04 Layer_Color=32896*
%FSLAX25Y25*%
%MOIN*%
G70*
G04*
G04 #@! TF.SameCoordinates,77D899AC-DA5C-4649-B6D6-03D989B7329D*
G04*
G04*
G04 #@! TF.FilePolarity,Positive*
G04*
G01*
G75*
%ADD14C,0.00800*%
D14*
X678700Y126883D02*
Y121884D01*
X676201D01*
X675368Y122717D01*
Y126049D01*
X676201Y126883D01*
X678700D01*
X671202Y121884D02*
X672869D01*
X673702Y122717D01*
Y124383D01*
X672869Y125216D01*
X671202D01*
X670369Y124383D01*
Y123550D01*
X673702D01*
X668703Y121884D02*
X666204D01*
X665371Y122717D01*
X666204Y123550D01*
X667870D01*
X668703Y124383D01*
X667870Y125216D01*
X665371D01*
X663705Y121884D02*
X662039D01*
X662872D01*
Y125216D01*
X663705D01*
X657873Y120218D02*
X657040D01*
X656207Y121051D01*
Y125216D01*
X658707D01*
X659540Y124383D01*
Y122717D01*
X658707Y121884D01*
X656207D01*
X654541D02*
Y125216D01*
X652042D01*
X651209Y124383D01*
Y121884D01*
X647044D02*
X648710D01*
X649543Y122717D01*
Y124383D01*
X648710Y125216D01*
X647044D01*
X646210Y124383D01*
Y123550D01*
X649543D01*
X641212Y126883D02*
Y121884D01*
X643711D01*
X644544Y122717D01*
Y124383D01*
X643711Y125216D01*
X641212D01*
X634548Y126883D02*
Y121884D01*
X632048D01*
X631215Y122717D01*
Y123550D01*
X632048Y124383D01*
X634548D01*
X632048D01*
X631215Y125216D01*
Y126049D01*
X632048Y126883D01*
X634548D01*
X629549Y125216D02*
Y122717D01*
X628716Y121884D01*
X626217D01*
Y121051D01*
X627050Y120218D01*
X627883D01*
X626217Y121884D02*
Y125216D01*
X624551D02*
X623718D01*
Y124383D01*
X624551D01*
Y125216D01*
Y122717D02*
X623718D01*
Y121884D01*
X624551D01*
Y122717D01*
X612055Y126883D02*
X613721D01*
X612888D01*
Y122717D01*
X613721Y121884D01*
X614554D01*
X615387Y122717D01*
X609556Y121884D02*
X607890D01*
X607057Y122717D01*
Y124383D01*
X607890Y125216D01*
X609556D01*
X610389Y124383D01*
Y122717D01*
X609556Y121884D01*
X605390D02*
X602891D01*
X602058Y122717D01*
X602891Y123550D01*
X604557D01*
X605390Y124383D01*
X604557Y125216D01*
X602058D01*
X600392Y126883D02*
Y121884D01*
Y124383D01*
X599559Y125216D01*
X597893D01*
X597060Y124383D01*
Y121884D01*
X595394Y125216D02*
Y122717D01*
X594561Y121884D01*
X592061D01*
Y125216D01*
X589562D02*
X587896D01*
X587063Y124383D01*
Y121884D01*
X589562D01*
X590395Y122717D01*
X589562Y123550D01*
X587063D01*
X580399Y126883D02*
Y121884D01*
Y124383D01*
X577066D01*
Y126883D01*
Y121884D01*
X574567Y125216D02*
X572901D01*
X572068Y124383D01*
Y121884D01*
X574567D01*
X575400Y122717D01*
X574567Y123550D01*
X572068D01*
X570402Y125216D02*
Y122717D01*
X569569Y121884D01*
X568736Y122717D01*
X567903Y121884D01*
X567069Y122717D01*
Y125216D01*
X565403Y121884D02*
Y126883D01*
Y123550D02*
X562904Y125216D01*
X565403Y123550D02*
X562904Y121884D01*
X560405D02*
X558739D01*
X559572D01*
Y125216D01*
X560405D01*
X556240Y121884D02*
Y125216D01*
X553741D01*
X552907Y124383D01*
Y121884D01*
X551241D02*
X548742D01*
X547909Y122717D01*
X548742Y123550D01*
X550408D01*
X551241Y124383D01*
X550408Y125216D01*
X547909D01*
M02*
