G04*
G04 #@! TF.GenerationSoftware,Altium Limited,Altium Designer,21.5.1 (32)*
G04*
G04 Layer_Color=8388736*
%FSLAX25Y25*%
%MOIN*%
G70*
G04*
G04 #@! TF.SameCoordinates,ABBC0749-13DB-4E68-987F-24248C34E95F*
G04*
G04*
G04 #@! TF.FilePolarity,Positive*
G04*
G01*
G75*
%ADD53C,0.01000*%
D53*
X217500Y126500D02*
G03*
X217500Y139500I554J6500D01*
G01*
X173000D02*
G03*
X172500Y126500I-9J-6509D01*
G01*
X594500Y325500D02*
Y374000D01*
X575000Y373000D02*
Y374000D01*
Y325500D02*
Y373000D01*
X594000Y241500D02*
Y309000D01*
X575000Y240500D02*
Y309500D01*
X594000Y159000D02*
Y225500D01*
X575000Y158500D02*
Y225000D01*
X594500Y102500D02*
Y142500D01*
X575000Y102000D02*
Y142500D01*
X1050000Y100500D02*
X1070000D01*
X638500Y375500D02*
X658500D01*
X100500Y100500D02*
Y375500D01*
X163500D01*
Y425000D01*
X250000D01*
Y375500D02*
Y425000D01*
Y375500D02*
X257500D01*
Y425000D01*
X325000D01*
Y375500D02*
Y425000D01*
Y375500D02*
X600000D01*
X575000D02*
X638500D01*
X658500D02*
Y425500D01*
X744500D01*
Y375500D02*
Y425500D01*
Y375500D02*
X751500D01*
Y425500D01*
X819500D01*
Y375500D02*
Y425500D01*
Y375500D02*
X1070000D01*
Y100500D02*
Y375500D01*
X534000Y100500D02*
X1050000Y100500D01*
X534000D02*
Y140500D01*
X501000D02*
X534000D01*
X501000Y100500D02*
Y140500D01*
X417500Y100500D02*
X501000D01*
X417500D02*
Y140500D01*
X384500D02*
X417500D01*
X384500Y100500D02*
Y140500D01*
X225500Y100500D02*
X384500D01*
X225500D02*
Y111000D01*
X213500D02*
X225500D01*
X213500D02*
Y126500D01*
X217500D01*
X213500Y139500D02*
X217500D01*
X213500D02*
Y152000D01*
X177500D02*
X213500D01*
X177500Y139500D02*
Y152000D01*
X173000Y139500D02*
X177500D01*
X172500Y126500D02*
X177500D01*
Y111000D02*
Y126500D01*
X165500Y111000D02*
X177500D01*
X165500Y100500D02*
Y111000D01*
X100500Y100500D02*
X165500D01*
M02*
